<?xml version="1.0" encoding="utf-8" standalone="no"?>
<!DOCTYPE svg PUBLIC "-//W3C//DTD SVG 1.1//EN"
  "http://www.w3.org/Graphics/SVG/1.1/DTD/svg11.dtd">
<svg xmlns:xlink="http://www.w3.org/1999/xlink" width="1140.68025pt" height="439.011875pt" viewBox="0 0 1140.68025 439.011875" xmlns="http://www.w3.org/2000/svg" version="1.1">
 <metadata>
  <rdf:RDF xmlns:dc="http://purl.org/dc/elements/1.1/" xmlns:cc="http://creativecommons.org/ns#" xmlns:rdf="http://www.w3.org/1999/02/22-rdf-syntax-ns#">
   <cc:Work>
    <dc:type rdf:resource="http://purl.org/dc/dcmitype/StillImage"/>
    <dc:date>2026-02-26T22:22:10.039801</dc:date>
    <dc:format>image/svg+xml</dc:format>
    <dc:creator>
     <cc:Agent>
      <dc:title>Matplotlib v3.10.8, https://matplotlib.org/</dc:title>
     </cc:Agent>
    </dc:creator>
   </cc:Work>
  </rdf:RDF>
 </metadata>
 <defs>
  <style type="text/css">*{stroke-linejoin: round; stroke-linecap: butt}</style>
 </defs>
 <g id="figure_1">
  <g id="patch_1">
   <path d="M 0 439.011875 
L 1140.68025 439.011875 
L 1140.68025 -0 
L 0 -0 
z
" style="fill: #ffffff"/>
  </g>
  <g id="axes_1">
   <g id="patch_2">
    <path d="M 52.39625 399.52 
L 567.48825 399.52 
L 567.48825 63.315 
L 52.39625 63.315 
z
" style="fill: #ffffff"/>
   </g>
   <g id="matplotlib.axis_1">
    <g id="xtick_1">
     <g id="line2d_1">
      <path d="M 64.102886 399.52 
L 64.102886 63.315 
" clip-path="url(#p940a2dd049)" style="fill: none; stroke-dasharray: 2.96,1.28; stroke-dashoffset: 0; stroke: #b0b0b0; stroke-opacity: 0.3; stroke-width: 0.8"/>
     </g>
     <g id="line2d_2">
      <defs>
       <path id="m52309f6a2e" d="M 0 0 
L 0 3.5 
" style="stroke: #000000; stroke-width: 0.8"/>
      </defs>
      <g>
       <use xlink:href="#m52309f6a2e" x="64.102886" y="399.52" style="stroke: #000000; stroke-width: 0.8"/>
      </g>
     </g>
     <g id="text_1">
      <!-- 75 -->
      <g transform="translate(57.104136 414.878281) scale(0.11 -0.11)">
       <defs>
        <path id="DejaVuSerif-37" d="M 3609 4347 
L 1784 0 
L 1319 0 
L 3059 4153 
L 903 4153 
L 903 3578 
L 538 3578 
L 538 4666 
L 3609 4666 
L 3609 4347 
z
" transform="scale(0.015625)"/>
        <path id="DejaVuSerif-35" d="M 3219 4666 
L 3219 4153 
L 1081 4153 
L 1081 2816 
Q 1244 2928 1461 2984 
Q 1678 3041 1947 3041 
Q 2703 3041 3140 2622 
Q 3578 2203 3578 1478 
Q 3578 738 3136 323 
Q 2694 -91 1894 -91 
Q 1572 -91 1234 -12 
Q 897 66 544 225 
L 544 1131 
L 897 1131 
Q 925 688 1179 453 
Q 1434 219 1894 219 
Q 2388 219 2653 544 
Q 2919 869 2919 1478 
Q 2919 2084 2655 2407 
Q 2391 2731 1894 2731 
Q 1613 2731 1398 2631 
Q 1184 2531 1019 2322 
L 750 2322 
L 750 4666 
L 3219 4666 
z
" transform="scale(0.015625)"/>
       </defs>
       <use xlink:href="#DejaVuSerif-37"/>
       <use xlink:href="#DejaVuSerif-35" transform="translate(63.623047 0)"/>
      </g>
     </g>
    </g>
    <g id="xtick_2">
     <g id="line2d_3">
      <path d="M 122.636068 399.52 
L 122.636068 63.315 
" clip-path="url(#p940a2dd049)" style="fill: none; stroke-dasharray: 2.96,1.28; stroke-dashoffset: 0; stroke: #b0b0b0; stroke-opacity: 0.3; stroke-width: 0.8"/>
     </g>
     <g id="line2d_4">
      <g>
       <use xlink:href="#m52309f6a2e" x="122.636068" y="399.52" style="stroke: #000000; stroke-width: 0.8"/>
      </g>
     </g>
     <g id="text_2">
      <!-- 100 -->
      <g transform="translate(112.137943 414.878281) scale(0.11 -0.11)">
       <defs>
        <path id="DejaVuSerif-31" d="M 909 0 
L 909 331 
L 1722 331 
L 1722 4213 
L 781 3603 
L 781 4013 
L 1919 4750 
L 2350 4750 
L 2350 331 
L 3163 331 
L 3163 0 
L 909 0 
z
" transform="scale(0.015625)"/>
        <path id="DejaVuSerif-30" d="M 2034 219 
Q 2513 219 2750 744 
Q 2988 1269 2988 2328 
Q 2988 3391 2750 3916 
Q 2513 4441 2034 4441 
Q 1556 4441 1318 3916 
Q 1081 3391 1081 2328 
Q 1081 1269 1318 744 
Q 1556 219 2034 219 
z
M 2034 -91 
Q 1275 -91 848 546 
Q 422 1184 422 2328 
Q 422 3475 848 4112 
Q 1275 4750 2034 4750 
Q 2797 4750 3222 4112 
Q 3647 3475 3647 2328 
Q 3647 1184 3222 546 
Q 2797 -91 2034 -91 
z
" transform="scale(0.015625)"/>
       </defs>
       <use xlink:href="#DejaVuSerif-31"/>
       <use xlink:href="#DejaVuSerif-30" transform="translate(63.623047 0)"/>
       <use xlink:href="#DejaVuSerif-30" transform="translate(127.246094 0)"/>
      </g>
     </g>
    </g>
    <g id="xtick_3">
     <g id="line2d_5">
      <path d="M 181.16925 399.52 
L 181.16925 63.315 
" clip-path="url(#p940a2dd049)" style="fill: none; stroke-dasharray: 2.96,1.28; stroke-dashoffset: 0; stroke: #b0b0b0; stroke-opacity: 0.3; stroke-width: 0.8"/>
     </g>
     <g id="line2d_6">
      <g>
       <use xlink:href="#m52309f6a2e" x="181.16925" y="399.52" style="stroke: #000000; stroke-width: 0.8"/>
      </g>
     </g>
     <g id="text_3">
      <!-- 125 -->
      <g transform="translate(170.671125 414.878281) scale(0.11 -0.11)">
       <defs>
        <path id="DejaVuSerif-32" d="M 819 3553 
L 469 3553 
L 469 4384 
Q 803 4563 1142 4656 
Q 1481 4750 1806 4750 
Q 2534 4750 2956 4397 
Q 3378 4044 3378 3438 
Q 3378 2753 2422 1800 
Q 2347 1728 2309 1691 
L 1131 513 
L 3078 513 
L 3078 1088 
L 3444 1088 
L 3444 0 
L 434 0 
L 434 341 
L 1850 1753 
Q 2319 2222 2519 2614 
Q 2719 3006 2719 3438 
Q 2719 3909 2473 4175 
Q 2228 4441 1797 4441 
Q 1350 4441 1106 4219 
Q 863 3997 819 3553 
z
" transform="scale(0.015625)"/>
       </defs>
       <use xlink:href="#DejaVuSerif-31"/>
       <use xlink:href="#DejaVuSerif-32" transform="translate(63.623047 0)"/>
       <use xlink:href="#DejaVuSerif-35" transform="translate(127.246094 0)"/>
      </g>
     </g>
    </g>
    <g id="xtick_4">
     <g id="line2d_7">
      <path d="M 239.702432 399.52 
L 239.702432 63.315 
" clip-path="url(#p940a2dd049)" style="fill: none; stroke-dasharray: 2.96,1.28; stroke-dashoffset: 0; stroke: #b0b0b0; stroke-opacity: 0.3; stroke-width: 0.8"/>
     </g>
     <g id="line2d_8">
      <g>
       <use xlink:href="#m52309f6a2e" x="239.702432" y="399.52" style="stroke: #000000; stroke-width: 0.8"/>
      </g>
     </g>
     <g id="text_4">
      <!-- 150 -->
      <g transform="translate(229.204307 414.878281) scale(0.11 -0.11)">
       <use xlink:href="#DejaVuSerif-31"/>
       <use xlink:href="#DejaVuSerif-35" transform="translate(63.623047 0)"/>
       <use xlink:href="#DejaVuSerif-30" transform="translate(127.246094 0)"/>
      </g>
     </g>
    </g>
    <g id="xtick_5">
     <g id="line2d_9">
      <path d="M 298.235614 399.52 
L 298.235614 63.315 
" clip-path="url(#p940a2dd049)" style="fill: none; stroke-dasharray: 2.96,1.28; stroke-dashoffset: 0; stroke: #b0b0b0; stroke-opacity: 0.3; stroke-width: 0.8"/>
     </g>
     <g id="line2d_10">
      <g>
       <use xlink:href="#m52309f6a2e" x="298.235614" y="399.52" style="stroke: #000000; stroke-width: 0.8"/>
      </g>
     </g>
     <g id="text_5">
      <!-- 175 -->
      <g transform="translate(287.737489 414.878281) scale(0.11 -0.11)">
       <use xlink:href="#DejaVuSerif-31"/>
       <use xlink:href="#DejaVuSerif-37" transform="translate(63.623047 0)"/>
       <use xlink:href="#DejaVuSerif-35" transform="translate(127.246094 0)"/>
      </g>
     </g>
    </g>
    <g id="xtick_6">
     <g id="line2d_11">
      <path d="M 356.768795 399.52 
L 356.768795 63.315 
" clip-path="url(#p940a2dd049)" style="fill: none; stroke-dasharray: 2.96,1.28; stroke-dashoffset: 0; stroke: #b0b0b0; stroke-opacity: 0.3; stroke-width: 0.8"/>
     </g>
     <g id="line2d_12">
      <g>
       <use xlink:href="#m52309f6a2e" x="356.768795" y="399.52" style="stroke: #000000; stroke-width: 0.8"/>
      </g>
     </g>
     <g id="text_6">
      <!-- 200 -->
      <g transform="translate(346.27067 414.878281) scale(0.11 -0.11)">
       <use xlink:href="#DejaVuSerif-32"/>
       <use xlink:href="#DejaVuSerif-30" transform="translate(63.623047 0)"/>
       <use xlink:href="#DejaVuSerif-30" transform="translate(127.246094 0)"/>
      </g>
     </g>
    </g>
    <g id="xtick_7">
     <g id="line2d_13">
      <path d="M 415.301977 399.52 
L 415.301977 63.315 
" clip-path="url(#p940a2dd049)" style="fill: none; stroke-dasharray: 2.96,1.28; stroke-dashoffset: 0; stroke: #b0b0b0; stroke-opacity: 0.3; stroke-width: 0.8"/>
     </g>
     <g id="line2d_14">
      <g>
       <use xlink:href="#m52309f6a2e" x="415.301977" y="399.52" style="stroke: #000000; stroke-width: 0.8"/>
      </g>
     </g>
     <g id="text_7">
      <!-- 225 -->
      <g transform="translate(404.803852 414.878281) scale(0.11 -0.11)">
       <use xlink:href="#DejaVuSerif-32"/>
       <use xlink:href="#DejaVuSerif-32" transform="translate(63.623047 0)"/>
       <use xlink:href="#DejaVuSerif-35" transform="translate(127.246094 0)"/>
      </g>
     </g>
    </g>
    <g id="xtick_8">
     <g id="line2d_15">
      <path d="M 473.835159 399.52 
L 473.835159 63.315 
" clip-path="url(#p940a2dd049)" style="fill: none; stroke-dasharray: 2.96,1.28; stroke-dashoffset: 0; stroke: #b0b0b0; stroke-opacity: 0.3; stroke-width: 0.8"/>
     </g>
     <g id="line2d_16">
      <g>
       <use xlink:href="#m52309f6a2e" x="473.835159" y="399.52" style="stroke: #000000; stroke-width: 0.8"/>
      </g>
     </g>
     <g id="text_8">
      <!-- 250 -->
      <g transform="translate(463.337034 414.878281) scale(0.11 -0.11)">
       <use xlink:href="#DejaVuSerif-32"/>
       <use xlink:href="#DejaVuSerif-35" transform="translate(63.623047 0)"/>
       <use xlink:href="#DejaVuSerif-30" transform="translate(127.246094 0)"/>
      </g>
     </g>
    </g>
    <g id="xtick_9">
     <g id="line2d_17">
      <path d="M 532.368341 399.52 
L 532.368341 63.315 
" clip-path="url(#p940a2dd049)" style="fill: none; stroke-dasharray: 2.96,1.28; stroke-dashoffset: 0; stroke: #b0b0b0; stroke-opacity: 0.3; stroke-width: 0.8"/>
     </g>
     <g id="line2d_18">
      <g>
       <use xlink:href="#m52309f6a2e" x="532.368341" y="399.52" style="stroke: #000000; stroke-width: 0.8"/>
      </g>
     </g>
     <g id="text_9">
      <!-- 275 -->
      <g transform="translate(521.870216 414.878281) scale(0.11 -0.11)">
       <use xlink:href="#DejaVuSerif-32"/>
       <use xlink:href="#DejaVuSerif-37" transform="translate(63.623047 0)"/>
       <use xlink:href="#DejaVuSerif-35" transform="translate(127.246094 0)"/>
      </g>
     </g>
    </g>
    <g id="text_10">
     <!-- Kavitätsdicke d [nm] -->
     <g transform="translate(252.151 429.524219) scale(0.11 -0.11)">
      <defs>
       <path id="DejaVuSerif-4b" d="M 353 0 
L 353 331 
L 947 331 
L 947 4331 
L 353 4331 
L 353 4666 
L 2175 4666 
L 2175 4331 
L 1581 4331 
L 1581 2566 
L 3591 4331 
L 3084 4331 
L 3084 4666 
L 4634 4666 
L 4634 4331 
L 4109 4331 
L 2106 2572 
L 4347 331 
L 4878 331 
L 4878 0 
L 3794 0 
L 1581 2216 
L 1581 331 
L 2175 331 
L 2175 0 
L 353 0 
z
" transform="scale(0.015625)"/>
       <path id="DejaVuSerif-61" d="M 2547 1044 
L 2547 1747 
L 1806 1747 
Q 1378 1747 1168 1562 
Q 959 1378 959 997 
Q 959 650 1171 447 
Q 1384 244 1747 244 
Q 2106 244 2326 466 
Q 2547 688 2547 1044 
z
M 3122 2075 
L 3122 331 
L 3634 331 
L 3634 0 
L 2547 0 
L 2547 359 
Q 2356 128 2106 18 
Q 1856 -91 1522 -91 
Q 969 -91 644 203 
Q 319 497 319 997 
Q 319 1513 691 1797 
Q 1063 2081 1741 2081 
L 2547 2081 
L 2547 2309 
Q 2547 2688 2317 2895 
Q 2088 3103 1672 3103 
Q 1328 3103 1125 2947 
Q 922 2791 872 2484 
L 575 2484 
L 575 3156 
Q 875 3284 1158 3348 
Q 1441 3413 1709 3413 
Q 2400 3413 2761 3070 
Q 3122 2728 3122 2075 
z
" transform="scale(0.015625)"/>
       <path id="DejaVuSerif-76" d="M 1581 0 
L 359 2988 
L -19 2988 
L -19 3322 
L 1509 3322 
L 1509 2988 
L 978 2988 
L 1913 703 
L 2847 2988 
L 2350 2988 
L 2350 3322 
L 3597 3322 
L 3597 2988 
L 3225 2988 
L 2003 0 
L 1581 0 
z
" transform="scale(0.015625)"/>
       <path id="DejaVuSerif-69" d="M 622 4353 
Q 622 4497 726 4603 
Q 831 4709 978 4709 
Q 1122 4709 1226 4603 
Q 1331 4497 1331 4353 
Q 1331 4206 1228 4103 
Q 1125 4000 978 4000 
Q 831 4000 726 4103 
Q 622 4206 622 4353 
z
M 1356 331 
L 1900 331 
L 1900 0 
L 231 0 
L 231 331 
L 781 331 
L 781 2988 
L 231 2988 
L 231 3322 
L 1356 3322 
L 1356 331 
z
" transform="scale(0.015625)"/>
       <path id="DejaVuSerif-74" d="M 691 2988 
L 184 2988 
L 184 3322 
L 691 3322 
L 691 4353 
L 1269 4353 
L 1269 3322 
L 2350 3322 
L 2350 2988 
L 1269 2988 
L 1269 878 
Q 1269 456 1350 337 
Q 1431 219 1650 219 
Q 1875 219 1978 351 
Q 2081 484 2088 781 
L 2522 781 
Q 2497 328 2275 118 
Q 2053 -91 1600 -91 
Q 1103 -91 897 129 
Q 691 350 691 878 
L 691 2988 
z
" transform="scale(0.015625)"/>
       <path id="DejaVuSerif-e4" d="M 2547 1044 
L 2547 1747 
L 1806 1747 
Q 1378 1747 1168 1562 
Q 959 1378 959 997 
Q 959 650 1171 447 
Q 1384 244 1747 244 
Q 2106 244 2326 466 
Q 2547 688 2547 1044 
z
M 3122 2075 
L 3122 331 
L 3634 331 
L 3634 0 
L 2547 0 
L 2547 359 
Q 2356 128 2106 18 
Q 1856 -91 1522 -91 
Q 969 -91 644 203 
Q 319 497 319 997 
Q 319 1513 691 1797 
Q 1063 2081 1741 2081 
L 2547 2081 
L 2547 2309 
Q 2547 2688 2317 2895 
Q 2088 3103 1672 3103 
Q 1328 3103 1125 2947 
Q 922 2791 872 2484 
L 575 2484 
L 575 3156 
Q 875 3284 1158 3348 
Q 1441 3413 1709 3413 
Q 2400 3413 2761 3070 
Q 3122 2728 3122 2075 
z
M 1167 4903 
Q 1317 4903 1424 4795 
Q 1532 4688 1532 4538 
Q 1532 4378 1429 4275 
Q 1326 4172 1167 4172 
Q 1010 4172 907 4275 
Q 804 4378 804 4538 
Q 804 4688 912 4795 
Q 1020 4903 1167 4903 
z
M 2385 4903 
Q 2532 4903 2640 4795 
Q 2748 4688 2748 4538 
Q 2748 4378 2645 4275 
Q 2542 4172 2385 4172 
Q 2226 4172 2123 4275 
Q 2020 4378 2020 4538 
Q 2020 4688 2127 4795 
Q 2235 4903 2385 4903 
z
" transform="scale(0.015625)"/>
       <path id="DejaVuSerif-73" d="M 359 184 
L 359 959 
L 691 959 
Q 703 588 923 403 
Q 1144 219 1575 219 
Q 1963 219 2166 364 
Q 2369 509 2369 788 
Q 2369 1006 2220 1140 
Q 2072 1275 1594 1428 
L 1178 1569 
Q 750 1706 558 1912 
Q 366 2119 366 2438 
Q 366 2894 700 3153 
Q 1034 3413 1625 3413 
Q 1888 3413 2178 3344 
Q 2469 3275 2778 3144 
L 2778 2419 
L 2447 2419 
Q 2434 2741 2221 2922 
Q 2009 3103 1644 3103 
Q 1281 3103 1095 2975 
Q 909 2847 909 2591 
Q 909 2381 1050 2254 
Q 1191 2128 1613 1997 
L 2069 1856 
Q 2541 1709 2748 1489 
Q 2956 1269 2956 922 
Q 2956 450 2595 179 
Q 2234 -91 1600 -91 
Q 1278 -91 972 -22 
Q 666 47 359 184 
z
" transform="scale(0.015625)"/>
       <path id="DejaVuSerif-64" d="M 3359 331 
L 3909 331 
L 3909 0 
L 2784 0 
L 2784 519 
Q 2616 206 2355 57 
Q 2094 -91 1709 -91 
Q 1097 -91 708 395 
Q 319 881 319 1663 
Q 319 2444 706 2928 
Q 1094 3413 1709 3413 
Q 2094 3413 2355 3264 
Q 2616 3116 2784 2803 
L 2784 4531 
L 2241 4531 
L 2241 4863 
L 3359 4863 
L 3359 331 
z
M 2784 1497 
L 2784 1825 
Q 2784 2422 2554 2737 
Q 2325 3053 1888 3053 
Q 1444 3053 1217 2703 
Q 991 2353 991 1663 
Q 991 975 1217 622 
Q 1444 269 1888 269 
Q 2325 269 2554 583 
Q 2784 897 2784 1497 
z
" transform="scale(0.015625)"/>
       <path id="DejaVuSerif-63" d="M 3291 997 
Q 3169 466 2822 187 
Q 2475 -91 1925 -91 
Q 1200 -91 759 389 
Q 319 869 319 1663 
Q 319 2459 759 2936 
Q 1200 3413 1925 3413 
Q 2241 3413 2553 3339 
Q 2866 3266 3181 3116 
L 3181 2266 
L 2847 2266 
Q 2781 2703 2561 2903 
Q 2341 3103 1931 3103 
Q 1466 3103 1228 2742 
Q 991 2381 991 1663 
Q 991 944 1227 581 
Q 1463 219 1931 219 
Q 2303 219 2525 412 
Q 2747 606 2828 997 
L 3291 997 
z
" transform="scale(0.015625)"/>
       <path id="DejaVuSerif-6b" d="M 1831 0 
L 219 0 
L 219 331 
L 738 331 
L 738 4531 
L 184 4531 
L 184 4863 
L 1313 4863 
L 1313 1697 
L 2713 2988 
L 2234 2988 
L 2234 3322 
L 3738 3322 
L 3738 2988 
L 3169 2988 
L 2181 2075 
L 3444 331 
L 3922 331 
L 3922 0 
L 2284 0 
L 2284 331 
L 2759 331 
L 1766 1697 
L 1313 1275 
L 1313 331 
L 1831 331 
L 1831 0 
z
" transform="scale(0.015625)"/>
       <path id="DejaVuSerif-65" d="M 3469 1600 
L 991 1600 
L 991 1575 
Q 991 903 1244 561 
Q 1497 219 1991 219 
Q 2369 219 2611 417 
Q 2853 616 2950 1006 
L 3413 1006 
Q 3275 459 2904 184 
Q 2534 -91 1931 -91 
Q 1203 -91 761 389 
Q 319 869 319 1663 
Q 319 2450 753 2931 
Q 1188 3413 1894 3413 
Q 2647 3413 3050 2948 
Q 3453 2484 3469 1600 
z
M 2791 1931 
Q 2772 2513 2545 2808 
Q 2319 3103 1894 3103 
Q 1497 3103 1269 2806 
Q 1041 2509 991 1931 
L 2791 1931 
z
" transform="scale(0.015625)"/>
       <path id="DejaVuSerif-20" transform="scale(0.015625)"/>
       <path id="DejaVuSerif-5b" d="M 550 4863 
L 2003 4863 
L 2003 4531 
L 1147 4531 
L 1147 -513 
L 2003 -513 
L 2003 -844 
L 550 -844 
L 550 4863 
z
" transform="scale(0.015625)"/>
       <path id="DejaVuSerif-6e" d="M 263 0 
L 263 331 
L 781 331 
L 781 2988 
L 231 2988 
L 231 3322 
L 1356 3322 
L 1356 2731 
Q 1516 3069 1770 3241 
Q 2025 3413 2363 3413 
Q 2913 3413 3172 3097 
Q 3431 2781 3431 2113 
L 3431 331 
L 3944 331 
L 3944 0 
L 2356 0 
L 2356 331 
L 2853 331 
L 2853 1931 
Q 2853 2541 2703 2767 
Q 2553 2994 2175 2994 
Q 1775 2994 1565 2701 
Q 1356 2409 1356 1850 
L 1356 331 
L 1856 331 
L 1856 0 
L 263 0 
z
" transform="scale(0.015625)"/>
       <path id="DejaVuSerif-6d" d="M 3316 2675 
Q 3481 3041 3739 3227 
Q 3997 3413 4341 3413 
Q 4863 3413 5119 3089 
Q 5375 2766 5375 2113 
L 5375 331 
L 5894 331 
L 5894 0 
L 4300 0 
L 4300 331 
L 4800 331 
L 4800 2047 
Q 4800 2556 4650 2772 
Q 4500 2988 4153 2988 
Q 3769 2988 3567 2697 
Q 3366 2406 3366 1850 
L 3366 331 
L 3866 331 
L 3866 0 
L 2291 0 
L 2291 331 
L 2791 331 
L 2791 2069 
Q 2791 2566 2641 2777 
Q 2491 2988 2144 2988 
Q 1759 2988 1557 2697 
Q 1356 2406 1356 1850 
L 1356 331 
L 1856 331 
L 1856 0 
L 263 0 
L 263 331 
L 781 331 
L 781 2994 
L 231 2994 
L 231 3322 
L 1356 3322 
L 1356 2731 
Q 1516 3063 1762 3238 
Q 2009 3413 2322 3413 
Q 2709 3413 2968 3220 
Q 3228 3028 3316 2675 
z
" transform="scale(0.015625)"/>
       <path id="DejaVuSerif-5d" d="M 1947 4863 
L 1947 -844 
L 494 -844 
L 494 -513 
L 1350 -513 
L 1350 4531 
L 494 4531 
L 494 4863 
L 1947 4863 
z
" transform="scale(0.015625)"/>
      </defs>
      <use xlink:href="#DejaVuSerif-4b"/>
      <use xlink:href="#DejaVuSerif-61" transform="translate(74.707031 0)"/>
      <use xlink:href="#DejaVuSerif-76" transform="translate(134.326172 0)"/>
      <use xlink:href="#DejaVuSerif-69" transform="translate(190.820312 0)"/>
      <use xlink:href="#DejaVuSerif-74" transform="translate(222.802734 0)"/>
      <use xlink:href="#DejaVuSerif-e4" transform="translate(262.988281 0)"/>
      <use xlink:href="#DejaVuSerif-74" transform="translate(322.607422 0)"/>
      <use xlink:href="#DejaVuSerif-73" transform="translate(362.792969 0)"/>
      <use xlink:href="#DejaVuSerif-64" transform="translate(414.111328 0)"/>
      <use xlink:href="#DejaVuSerif-69" transform="translate(478.125 0)"/>
      <use xlink:href="#DejaVuSerif-63" transform="translate(510.107422 0)"/>
      <use xlink:href="#DejaVuSerif-6b" transform="translate(566.113281 0)"/>
      <use xlink:href="#DejaVuSerif-65" transform="translate(626.708984 0)"/>
      <use xlink:href="#DejaVuSerif-20" transform="translate(685.888672 0)"/>
      <use xlink:href="#DejaVuSerif-64" transform="translate(717.675781 0)"/>
      <use xlink:href="#DejaVuSerif-20" transform="translate(781.689453 0)"/>
      <use xlink:href="#DejaVuSerif-5b" transform="translate(813.476562 0)"/>
      <use xlink:href="#DejaVuSerif-6e" transform="translate(852.490234 0)"/>
      <use xlink:href="#DejaVuSerif-6d" transform="translate(916.894531 0)"/>
      <use xlink:href="#DejaVuSerif-5d" transform="translate(1011.71875 0)"/>
     </g>
    </g>
   </g>
   <g id="matplotlib.axis_2">
    <g id="ytick_1">
     <g id="line2d_19">
      <path d="M 52.39625 385.250273 
L 567.48825 385.250273 
" clip-path="url(#p940a2dd049)" style="fill: none; stroke-dasharray: 2.96,1.28; stroke-dashoffset: 0; stroke: #b0b0b0; stroke-opacity: 0.3; stroke-width: 0.8"/>
     </g>
     <g id="line2d_20">
      <defs>
       <path id="m4c8a734096" d="M 0 0 
L -3.5 0 
" style="stroke: #000000; stroke-width: 0.8"/>
      </defs>
      <g>
       <use xlink:href="#m4c8a734096" x="52.39625" y="385.250273" style="stroke: #000000; stroke-width: 0.8"/>
      </g>
     </g>
     <g id="text_11">
      <!-- 0 -->
      <g transform="translate(38.3975 389.429414) scale(0.11 -0.11)">
       <use xlink:href="#DejaVuSerif-30"/>
      </g>
     </g>
    </g>
    <g id="ytick_2">
     <g id="line2d_21">
      <path d="M 52.39625 341.294508 
L 567.48825 341.294508 
" clip-path="url(#p940a2dd049)" style="fill: none; stroke-dasharray: 2.96,1.28; stroke-dashoffset: 0; stroke: #b0b0b0; stroke-opacity: 0.3; stroke-width: 0.8"/>
     </g>
     <g id="line2d_22">
      <g>
       <use xlink:href="#m4c8a734096" x="52.39625" y="341.294508" style="stroke: #000000; stroke-width: 0.8"/>
      </g>
     </g>
     <g id="text_12">
      <!-- 20 -->
      <g transform="translate(31.39875 345.473649) scale(0.11 -0.11)">
       <use xlink:href="#DejaVuSerif-32"/>
       <use xlink:href="#DejaVuSerif-30" transform="translate(63.623047 0)"/>
      </g>
     </g>
    </g>
    <g id="ytick_3">
     <g id="line2d_23">
      <path d="M 52.39625 297.338744 
L 567.48825 297.338744 
" clip-path="url(#p940a2dd049)" style="fill: none; stroke-dasharray: 2.96,1.28; stroke-dashoffset: 0; stroke: #b0b0b0; stroke-opacity: 0.3; stroke-width: 0.8"/>
     </g>
     <g id="line2d_24">
      <g>
       <use xlink:href="#m4c8a734096" x="52.39625" y="297.338744" style="stroke: #000000; stroke-width: 0.8"/>
      </g>
     </g>
     <g id="text_13">
      <!-- 40 -->
      <g transform="translate(31.39875 301.517884) scale(0.11 -0.11)">
       <defs>
        <path id="DejaVuSerif-34" d="M 2234 1581 
L 2234 4063 
L 641 1581 
L 2234 1581 
z
M 3609 0 
L 1484 0 
L 1484 331 
L 2234 331 
L 2234 1247 
L 197 1247 
L 197 1588 
L 2241 4750 
L 2859 4750 
L 2859 1581 
L 3750 1581 
L 3750 1247 
L 2859 1247 
L 2859 331 
L 3609 331 
L 3609 0 
z
" transform="scale(0.015625)"/>
       </defs>
       <use xlink:href="#DejaVuSerif-34"/>
       <use xlink:href="#DejaVuSerif-30" transform="translate(63.623047 0)"/>
      </g>
     </g>
    </g>
    <g id="ytick_4">
     <g id="line2d_25">
      <path d="M 52.39625 253.382979 
L 567.48825 253.382979 
" clip-path="url(#p940a2dd049)" style="fill: none; stroke-dasharray: 2.96,1.28; stroke-dashoffset: 0; stroke: #b0b0b0; stroke-opacity: 0.3; stroke-width: 0.8"/>
     </g>
     <g id="line2d_26">
      <g>
       <use xlink:href="#m4c8a734096" x="52.39625" y="253.382979" style="stroke: #000000; stroke-width: 0.8"/>
      </g>
     </g>
     <g id="text_14">
      <!-- 60 -->
      <g transform="translate(31.39875 257.562119) scale(0.11 -0.11)">
       <defs>
        <path id="DejaVuSerif-36" d="M 2094 219 
Q 2534 219 2771 542 
Q 3009 866 3009 1472 
Q 3009 2078 2771 2401 
Q 2534 2725 2094 2725 
Q 1647 2725 1412 2412 
Q 1178 2100 1178 1509 
Q 1178 888 1415 553 
Q 1653 219 2094 219 
z
M 1075 2569 
Q 1288 2803 1556 2918 
Q 1825 3034 2163 3034 
Q 2859 3034 3264 2615 
Q 3669 2197 3669 1472 
Q 3669 763 3233 336 
Q 2797 -91 2069 -91 
Q 1278 -91 853 498 
Q 428 1088 428 2181 
Q 428 3406 931 4078 
Q 1434 4750 2350 4750 
Q 2597 4750 2869 4703 
Q 3141 4656 3425 4563 
L 3425 3794 
L 3072 3794 
Q 3034 4109 2831 4275 
Q 2628 4441 2284 4441 
Q 1678 4441 1381 3981 
Q 1084 3522 1075 2569 
z
" transform="scale(0.015625)"/>
       </defs>
       <use xlink:href="#DejaVuSerif-36"/>
       <use xlink:href="#DejaVuSerif-30" transform="translate(63.623047 0)"/>
      </g>
     </g>
    </g>
    <g id="ytick_5">
     <g id="line2d_27">
      <path d="M 52.39625 209.427214 
L 567.48825 209.427214 
" clip-path="url(#p940a2dd049)" style="fill: none; stroke-dasharray: 2.96,1.28; stroke-dashoffset: 0; stroke: #b0b0b0; stroke-opacity: 0.3; stroke-width: 0.8"/>
     </g>
     <g id="line2d_28">
      <g>
       <use xlink:href="#m4c8a734096" x="52.39625" y="209.427214" style="stroke: #000000; stroke-width: 0.8"/>
      </g>
     </g>
     <g id="text_15">
      <!-- 80 -->
      <g transform="translate(31.39875 213.606354) scale(0.11 -0.11)">
       <defs>
        <path id="DejaVuSerif-38" d="M 2981 1275 
Q 2981 1775 2732 2051 
Q 2484 2328 2034 2328 
Q 1584 2328 1336 2051 
Q 1088 1775 1088 1275 
Q 1088 772 1336 495 
Q 1584 219 2034 219 
Q 2484 219 2732 495 
Q 2981 772 2981 1275 
z
M 2853 3541 
Q 2853 3966 2637 4203 
Q 2422 4441 2034 4441 
Q 1650 4441 1433 4203 
Q 1216 3966 1216 3541 
Q 1216 3113 1433 2875 
Q 1650 2638 2034 2638 
Q 2422 2638 2637 2875 
Q 2853 3113 2853 3541 
z
M 2516 2484 
Q 3047 2413 3344 2092 
Q 3641 1772 3641 1275 
Q 3641 619 3225 264 
Q 2809 -91 2034 -91 
Q 1263 -91 845 264 
Q 428 619 428 1275 
Q 428 1772 725 2092 
Q 1022 2413 1556 2484 
Q 1084 2569 832 2842 
Q 581 3116 581 3541 
Q 581 4103 968 4426 
Q 1356 4750 2034 4750 
Q 2713 4750 3100 4426 
Q 3488 4103 3488 3541 
Q 3488 3116 3236 2842 
Q 2984 2569 2516 2484 
z
" transform="scale(0.015625)"/>
       </defs>
       <use xlink:href="#DejaVuSerif-38"/>
       <use xlink:href="#DejaVuSerif-30" transform="translate(63.623047 0)"/>
      </g>
     </g>
    </g>
    <g id="ytick_6">
     <g id="line2d_29">
      <path d="M 52.39625 165.471449 
L 567.48825 165.471449 
" clip-path="url(#p940a2dd049)" style="fill: none; stroke-dasharray: 2.96,1.28; stroke-dashoffset: 0; stroke: #b0b0b0; stroke-opacity: 0.3; stroke-width: 0.8"/>
     </g>
     <g id="line2d_30">
      <g>
       <use xlink:href="#m4c8a734096" x="52.39625" y="165.471449" style="stroke: #000000; stroke-width: 0.8"/>
      </g>
     </g>
     <g id="text_16">
      <!-- 100 -->
      <g transform="translate(24.4 169.65059) scale(0.11 -0.11)">
       <use xlink:href="#DejaVuSerif-31"/>
       <use xlink:href="#DejaVuSerif-30" transform="translate(63.623047 0)"/>
       <use xlink:href="#DejaVuSerif-30" transform="translate(127.246094 0)"/>
      </g>
     </g>
    </g>
    <g id="ytick_7">
     <g id="line2d_31">
      <path d="M 52.39625 121.515684 
L 567.48825 121.515684 
" clip-path="url(#p940a2dd049)" style="fill: none; stroke-dasharray: 2.96,1.28; stroke-dashoffset: 0; stroke: #b0b0b0; stroke-opacity: 0.3; stroke-width: 0.8"/>
     </g>
     <g id="line2d_32">
      <g>
       <use xlink:href="#m4c8a734096" x="52.39625" y="121.515684" style="stroke: #000000; stroke-width: 0.8"/>
      </g>
     </g>
     <g id="text_17">
      <!-- 120 -->
      <g transform="translate(24.4 125.694825) scale(0.11 -0.11)">
       <use xlink:href="#DejaVuSerif-31"/>
       <use xlink:href="#DejaVuSerif-32" transform="translate(63.623047 0)"/>
       <use xlink:href="#DejaVuSerif-30" transform="translate(127.246094 0)"/>
      </g>
     </g>
    </g>
    <g id="ytick_8">
     <g id="line2d_33">
      <path d="M 52.39625 77.559919 
L 567.48825 77.559919 
" clip-path="url(#p940a2dd049)" style="fill: none; stroke-dasharray: 2.96,1.28; stroke-dashoffset: 0; stroke: #b0b0b0; stroke-opacity: 0.3; stroke-width: 0.8"/>
     </g>
     <g id="line2d_34">
      <g>
       <use xlink:href="#m4c8a734096" x="52.39625" y="77.559919" style="stroke: #000000; stroke-width: 0.8"/>
      </g>
     </g>
     <g id="text_18">
      <!-- 140 -->
      <g transform="translate(24.4 81.73906) scale(0.11 -0.11)">
       <use xlink:href="#DejaVuSerif-31"/>
       <use xlink:href="#DejaVuSerif-34" transform="translate(63.623047 0)"/>
       <use xlink:href="#DejaVuSerif-30" transform="translate(127.246094 0)"/>
      </g>
     </g>
    </g>
    <g id="text_19">
     <!-- $\Delta E_{ab}^*$ -->
     <g transform="translate(17.21 243.6275) rotate(-90) scale(0.11 -0.11)">
      <defs>
       <path id="DejaVuSans-394" d="M 2188 4044 
L 906 525 
L 3472 525 
L 2188 4044 
z
M 50 0 
L 1831 4666 
L 2547 4666 
L 4325 0 
L 50 0 
z
" transform="scale(0.015625)"/>
       <path id="DejaVuSans-Oblique-45" d="M 1081 4666 
L 4031 4666 
L 3928 4134 
L 1606 4134 
L 1338 2753 
L 3566 2753 
L 3463 2222 
L 1234 2222 
L 909 531 
L 3284 531 
L 3181 0 
L 172 0 
L 1081 4666 
z
" transform="scale(0.015625)"/>
       <path id="DejaVuSans-2a" d="M 3009 3897 
L 1888 3291 
L 3009 2681 
L 2828 2375 
L 1778 3009 
L 1778 1831 
L 1422 1831 
L 1422 3009 
L 372 2375 
L 191 2681 
L 1313 3291 
L 191 3897 
L 372 4206 
L 1422 3572 
L 1422 4750 
L 1778 4750 
L 1778 3572 
L 2828 4206 
L 3009 3897 
z
" transform="scale(0.015625)"/>
       <path id="DejaVuSans-Oblique-61" d="M 3438 1997 
L 3047 0 
L 2472 0 
L 2578 531 
Q 2325 219 2001 64 
Q 1678 -91 1281 -91 
Q 834 -91 548 182 
Q 263 456 263 884 
Q 263 1497 752 1853 
Q 1241 2209 2100 2209 
L 2900 2209 
L 2931 2363 
Q 2938 2388 2941 2417 
Q 2944 2447 2944 2509 
Q 2944 2788 2717 2942 
Q 2491 3097 2081 3097 
Q 1800 3097 1504 3025 
Q 1209 2953 897 2809 
L 997 3341 
Q 1322 3463 1633 3523 
Q 1944 3584 2234 3584 
Q 2853 3584 3176 3315 
Q 3500 3047 3500 2534 
Q 3500 2431 3484 2292 
Q 3469 2153 3438 1997 
z
M 2816 1759 
L 2241 1759 
Q 1534 1759 1195 1570 
Q 856 1381 856 984 
Q 856 709 1029 553 
Q 1203 397 1509 397 
Q 1978 397 2328 733 
Q 2678 1069 2791 1631 
L 2816 1759 
z
" transform="scale(0.015625)"/>
       <path id="DejaVuSans-Oblique-62" d="M 3169 2138 
Q 3169 2591 2961 2847 
Q 2753 3103 2388 3103 
Q 2122 3103 1889 2973 
Q 1656 2844 1484 2597 
Q 1303 2338 1198 1995 
Q 1094 1653 1094 1313 
Q 1094 881 1298 636 
Q 1503 391 1863 391 
Q 2134 391 2365 517 
Q 2597 644 2772 891 
Q 2950 1147 3059 1487 
Q 3169 1828 3169 2138 
z
M 1381 2969 
Q 1594 3256 1914 3420 
Q 2234 3584 2584 3584 
Q 3122 3584 3439 3221 
Q 3756 2859 3756 2241 
Q 3756 1734 3570 1259 
Q 3384 784 3041 416 
Q 2816 172 2522 40 
Q 2228 -91 1906 -91 
Q 1566 -91 1316 65 
Q 1066 222 909 531 
L 806 0 
L 231 0 
L 1178 4863 
L 1753 4863 
L 1381 2969 
z
" transform="scale(0.015625)"/>
      </defs>
      <use xlink:href="#DejaVuSans-394" transform="translate(0 0.701562)"/>
      <use xlink:href="#DejaVuSans-Oblique-45" transform="translate(68.408203 0.701562)"/>
      <use xlink:href="#DejaVuSans-2a" transform="translate(152.246263 39.046875) scale(0.7)"/>
      <use xlink:href="#DejaVuSans-Oblique-61" transform="translate(131.591797 -26.642188) scale(0.7)"/>
      <use xlink:href="#DejaVuSans-Oblique-62" transform="translate(174.487305 -26.642188) scale(0.7)"/>
     </g>
    </g>
   </g>
   <g id="line2d_35">
    <path d="M 75.809523 268.511261 
L 83.746225 218.449629 
L 91.682928 163.647449 
L 99.619631 111.587603 
L 107.556333 78.597045 
L 115.493036 84.870659 
L 123.429738 119.725611 
L 131.366441 161.048072 
L 139.303144 199.714156 
L 147.239846 233.332003 
L 155.176549 261.631118 
L 163.113252 285.043768 
L 171.049954 304.231056 
L 178.986657 319.889426 
L 186.923359 332.663969 
L 194.860062 343.113431 
L 202.796765 351.702773 
L 210.733467 358.809677 
L 218.67017 364.736936 
L 226.606872 369.726186 
L 234.543575 373.970803 
L 242.480278 377.627115 
L 250.41698 380.823868 
L 258.353683 383.670206 
L 266.290386 384.237955 
L 274.227088 381.809371 
L 282.163791 379.454406 
L 290.100493 377.075871 
L 298.037196 374.561267 
L 305.973899 371.77229 
L 313.910601 368.531362 
L 321.847304 364.605075 
L 329.784007 359.687013 
L 337.720709 353.389405 
L 345.657412 345.267407 
L 353.594114 334.918886 
L 361.530817 322.210982 
L 369.46752 307.690224 
L 377.404222 293.341783 
L 385.340925 283.778114 
L 393.277628 284.997228 
L 401.21433 297.007051 
L 409.151033 313.854739 
L 417.087735 330.97685 
L 425.024438 346.189761 
L 432.961141 357.899414 
L 440.897843 363.334991 
L 448.834546 360.233132 
L 456.771248 351.489281 
L 464.707951 340.283443 
L 472.644654 327.77634 
L 480.581356 314.341103 
L 488.518059 300.188462 
L 496.454762 285.567876 
L 504.391464 270.83512 
L 512.328167 256.471749 
L 520.264869 243.078585 
L 528.201572 231.347564 
L 536.138275 222.009096 
L 544.074977 215.750708 
" clip-path="url(#p940a2dd049)" style="fill: none; stroke: #1f77b4; stroke-width: 2; stroke-linecap: square"/>
   </g>
   <g id="line2d_36">
    <path d="M 52.39625 380.854697 
L 567.48825 380.854697 
" clip-path="url(#p940a2dd049)" style="fill: none; stroke-dasharray: 3.7,1.6; stroke-dashoffset: 0; stroke: #ff0000"/>
   </g>
   <g id="line2d_37">
    <path d="M 52.39625 374.261332 
L 567.48825 374.261332 
" clip-path="url(#p940a2dd049)" style="fill: none; stroke-dasharray: 3.7,1.6; stroke-dashoffset: 0; stroke: #ffa500"/>
   </g>
   <g id="line2d_38">
    <path d="M 263.115705 399.52 
L 263.115705 63.315 
" clip-path="url(#p940a2dd049)" style="fill: none; stroke-dasharray: 1,1.65; stroke-dashoffset: 0; stroke: #808080"/>
   </g>
   <g id="patch_3">
    <path d="M 52.39625 399.52 
L 52.39625 63.315 
" style="fill: none; stroke: #000000; stroke-width: 0.8; stroke-linejoin: miter; stroke-linecap: square"/>
   </g>
   <g id="patch_4">
    <path d="M 52.39625 399.52 
L 567.48825 399.52 
" style="fill: none; stroke: #000000; stroke-width: 0.8; stroke-linejoin: miter; stroke-linecap: square"/>
   </g>
   <g id="text_20">
    <!-- Farbdifferenz ΔE zur Referenz (d_ref=160.0 nm) -->
    <g transform="translate(161.351312 57.315) scale(0.12 -0.12)">
     <defs>
      <path id="DejaVuSerif-46" d="M 353 0 
L 353 331 
L 947 331 
L 947 4331 
L 353 4331 
L 353 4666 
L 4172 4666 
L 4172 3628 
L 3788 3628 
L 3788 4281 
L 1581 4281 
L 1581 2719 
L 3175 2719 
L 3175 3303 
L 3559 3303 
L 3559 1753 
L 3175 1753 
L 3175 2338 
L 1581 2338 
L 1581 331 
L 2328 331 
L 2328 0 
L 353 0 
z
" transform="scale(0.015625)"/>
      <path id="DejaVuSerif-72" d="M 3059 3328 
L 3059 2497 
L 2728 2497 
Q 2713 2744 2591 2866 
Q 2469 2988 2234 2988 
Q 1809 2988 1582 2694 
Q 1356 2400 1356 1850 
L 1356 331 
L 2022 331 
L 2022 0 
L 263 0 
L 263 331 
L 781 331 
L 781 2994 
L 231 2994 
L 231 3322 
L 1356 3322 
L 1356 2731 
Q 1525 3078 1790 3245 
Q 2056 3413 2438 3413 
Q 2578 3413 2733 3391 
Q 2888 3369 3059 3328 
z
" transform="scale(0.015625)"/>
      <path id="DejaVuSerif-62" d="M 738 331 
L 738 4531 
L 184 4531 
L 184 4863 
L 1313 4863 
L 1313 2803 
Q 1481 3116 1742 3264 
Q 2003 3413 2388 3413 
Q 3000 3413 3387 2928 
Q 3775 2444 3775 1663 
Q 3775 881 3387 395 
Q 3000 -91 2388 -91 
Q 2003 -91 1742 57 
Q 1481 206 1313 519 
L 1313 0 
L 184 0 
L 184 331 
L 738 331 
z
M 1313 1497 
Q 1313 897 1542 583 
Q 1772 269 2209 269 
Q 2650 269 2876 622 
Q 3103 975 3103 1663 
Q 3103 2353 2876 2703 
Q 2650 3053 2209 3053 
Q 1772 3053 1542 2737 
Q 1313 2422 1313 1825 
L 1313 1497 
z
" transform="scale(0.015625)"/>
      <path id="DejaVuSerif-66" d="M 2753 4078 
L 2450 4078 
Q 2447 4313 2317 4434 
Q 2188 4556 1941 4556 
Q 1619 4556 1487 4379 
Q 1356 4203 1356 3750 
L 1356 3322 
L 2284 3322 
L 2284 2988 
L 1356 2988 
L 1356 331 
L 2094 331 
L 2094 0 
L 231 0 
L 231 331 
L 781 331 
L 781 2988 
L 231 2988 
L 231 3322 
L 781 3322 
L 781 3738 
Q 781 4294 1070 4578 
Q 1359 4863 1919 4863 
Q 2128 4863 2337 4825 
Q 2547 4788 2753 4709 
L 2753 4078 
z
" transform="scale(0.015625)"/>
      <path id="DejaVuSerif-7a" d="M 256 0 
L 256 269 
L 2338 2988 
L 691 2988 
L 691 2413 
L 359 2413 
L 359 3322 
L 3078 3322 
L 3078 3053 
L 997 331 
L 2803 331 
L 2803 934 
L 3138 934 
L 3138 0 
L 256 0 
z
" transform="scale(0.015625)"/>
      <path id="DejaVuSerif-394" d="M 4350 0 
L 244 0 
L 2034 4666 
L 2559 4666 
L 4350 0 
z
M 3506 331 
L 2138 3909 
L 763 331 
L 3506 331 
z
" transform="scale(0.015625)"/>
      <path id="DejaVuSerif-45" d="M 353 0 
L 353 331 
L 947 331 
L 947 4331 
L 353 4331 
L 353 4666 
L 4109 4666 
L 4109 3628 
L 3725 3628 
L 3725 4281 
L 1581 4281 
L 1581 2719 
L 3109 2719 
L 3109 3303 
L 3494 3303 
L 3494 1753 
L 3109 1753 
L 3109 2338 
L 1581 2338 
L 1581 384 
L 3775 384 
L 3775 1038 
L 4159 1038 
L 4159 0 
L 353 0 
z
" transform="scale(0.015625)"/>
      <path id="DejaVuSerif-75" d="M 2266 3322 
L 3341 3322 
L 3341 331 
L 3884 331 
L 3884 0 
L 2766 0 
L 2766 588 
Q 2606 256 2353 82 
Q 2100 -91 1766 -91 
Q 1213 -91 952 223 
Q 691 538 691 1209 
L 691 2988 
L 172 2988 
L 172 3322 
L 1269 3322 
L 1269 1388 
Q 1269 781 1417 556 
Q 1566 331 1947 331 
Q 2347 331 2556 625 
Q 2766 919 2766 1478 
L 2766 2988 
L 2266 2988 
L 2266 3322 
z
" transform="scale(0.015625)"/>
      <path id="DejaVuSerif-52" d="M 3066 2316 
Q 3284 2256 3442 2114 
Q 3600 1972 3725 1716 
L 4403 331 
L 4972 331 
L 4972 0 
L 3872 0 
L 3144 1484 
Q 2934 1916 2759 2042 
Q 2584 2169 2278 2169 
L 1581 2169 
L 1581 331 
L 2241 331 
L 2241 0 
L 353 0 
L 353 331 
L 947 331 
L 947 4331 
L 353 4331 
L 353 4666 
L 2719 4666 
Q 3400 4666 3770 4341 
Q 4141 4016 4141 3419 
Q 4141 2938 3870 2661 
Q 3600 2384 3066 2316 
z
M 1581 2503 
L 2503 2503 
Q 2975 2503 3200 2726 
Q 3425 2950 3425 3419 
Q 3425 3888 3200 4109 
Q 2975 4331 2503 4331 
L 1581 4331 
L 1581 2503 
z
" transform="scale(0.015625)"/>
      <path id="DejaVuSerif-28" d="M 2041 -997 
Q 1281 -656 893 83 
Q 506 822 506 1931 
Q 506 3044 893 3783 
Q 1281 4522 2041 4863 
L 2041 4556 
Q 1559 4225 1350 3623 
Q 1141 3022 1141 1931 
Q 1141 844 1350 242 
Q 1559 -359 2041 -691 
L 2041 -997 
z
" transform="scale(0.015625)"/>
      <path id="DejaVuSerif-5f" d="M 3200 -1259 
L 3200 -1509 
L 0 -1509 
L 0 -1259 
L 3200 -1259 
z
" transform="scale(0.015625)"/>
      <path id="DejaVuSerif-3d" d="M 678 2894 
L 4684 2894 
L 4684 2394 
L 678 2394 
L 678 2894 
z
M 678 1619 
L 4684 1619 
L 4684 1119 
L 678 1119 
L 678 1619 
z
" transform="scale(0.015625)"/>
      <path id="DejaVuSerif-2e" d="M 603 325 
Q 603 500 722 622 
Q 841 744 1019 744 
Q 1191 744 1312 622 
Q 1434 500 1434 325 
Q 1434 153 1312 31 
Q 1191 -91 1019 -91 
Q 841 -91 722 29 
Q 603 150 603 325 
z
" transform="scale(0.015625)"/>
      <path id="DejaVuSerif-29" d="M 453 -997 
L 453 -691 
Q 934 -359 1145 242 
Q 1356 844 1356 1931 
Q 1356 3022 1145 3623 
Q 934 4225 453 4556 
L 453 4863 
Q 1216 4522 1603 3783 
Q 1991 3044 1991 1931 
Q 1991 822 1603 83 
Q 1216 -656 453 -997 
z
" transform="scale(0.015625)"/>
     </defs>
     <use xlink:href="#DejaVuSerif-46"/>
     <use xlink:href="#DejaVuSerif-61" transform="translate(62.634766 0)"/>
     <use xlink:href="#DejaVuSerif-72" transform="translate(122.253906 0)"/>
     <use xlink:href="#DejaVuSerif-62" transform="translate(170.056641 0)"/>
     <use xlink:href="#DejaVuSerif-64" transform="translate(234.070312 0)"/>
     <use xlink:href="#DejaVuSerif-69" transform="translate(298.083984 0)"/>
     <use xlink:href="#DejaVuSerif-66" transform="translate(330.066406 0)"/>
     <use xlink:href="#DejaVuSerif-66" transform="translate(367.078125 0)"/>
     <use xlink:href="#DejaVuSerif-65" transform="translate(404.089844 0)"/>
     <use xlink:href="#DejaVuSerif-72" transform="translate(463.269531 0)"/>
     <use xlink:href="#DejaVuSerif-65" transform="translate(511.072266 0)"/>
     <use xlink:href="#DejaVuSerif-6e" transform="translate(570.251953 0)"/>
     <use xlink:href="#DejaVuSerif-7a" transform="translate(634.65625 0)"/>
     <use xlink:href="#DejaVuSerif-20" transform="translate(687.341797 0)"/>
     <use xlink:href="#DejaVuSerif-394" transform="translate(719.128906 0)"/>
     <use xlink:href="#DejaVuSerif-45" transform="translate(791.345703 0)"/>
     <use xlink:href="#DejaVuSerif-20" transform="translate(864.34375 0)"/>
     <use xlink:href="#DejaVuSerif-7a" transform="translate(896.130859 0)"/>
     <use xlink:href="#DejaVuSerif-75" transform="translate(948.816406 0)"/>
     <use xlink:href="#DejaVuSerif-72" transform="translate(1013.220703 0)"/>
     <use xlink:href="#DejaVuSerif-20" transform="translate(1061.023438 0)"/>
     <use xlink:href="#DejaVuSerif-52" transform="translate(1092.810547 0)"/>
     <use xlink:href="#DejaVuSerif-65" transform="translate(1168.103516 0)"/>
     <use xlink:href="#DejaVuSerif-66" transform="translate(1227.283203 0)"/>
     <use xlink:href="#DejaVuSerif-65" transform="translate(1264.294922 0)"/>
     <use xlink:href="#DejaVuSerif-72" transform="translate(1323.474609 0)"/>
     <use xlink:href="#DejaVuSerif-65" transform="translate(1371.277344 0)"/>
     <use xlink:href="#DejaVuSerif-6e" transform="translate(1430.457031 0)"/>
     <use xlink:href="#DejaVuSerif-7a" transform="translate(1494.861328 0)"/>
     <use xlink:href="#DejaVuSerif-20" transform="translate(1547.546875 0)"/>
     <use xlink:href="#DejaVuSerif-28" transform="translate(1579.333984 0)"/>
     <use xlink:href="#DejaVuSerif-64" transform="translate(1618.347656 0)"/>
     <use xlink:href="#DejaVuSerif-5f" transform="translate(1682.361328 0)"/>
     <use xlink:href="#DejaVuSerif-72" transform="translate(1732.361328 0)"/>
     <use xlink:href="#DejaVuSerif-65" transform="translate(1780.164062 0)"/>
     <use xlink:href="#DejaVuSerif-66" transform="translate(1839.34375 0)"/>
     <use xlink:href="#DejaVuSerif-3d" transform="translate(1876.355469 0)"/>
     <use xlink:href="#DejaVuSerif-31" transform="translate(1960.144531 0)"/>
     <use xlink:href="#DejaVuSerif-36" transform="translate(2023.767578 0)"/>
     <use xlink:href="#DejaVuSerif-30" transform="translate(2087.390625 0)"/>
     <use xlink:href="#DejaVuSerif-2e" transform="translate(2151.013672 0)"/>
     <use xlink:href="#DejaVuSerif-30" transform="translate(2182.800781 0)"/>
     <use xlink:href="#DejaVuSerif-20" transform="translate(2246.423828 0)"/>
     <use xlink:href="#DejaVuSerif-6e" transform="translate(2278.210938 0)"/>
     <use xlink:href="#DejaVuSerif-6d" transform="translate(2342.615234 0)"/>
     <use xlink:href="#DejaVuSerif-29" transform="translate(2437.439453 0)"/>
    </g>
   </g>
   <g id="legend_1">
    <g id="patch_5">
     <path d="M 412.73325 123.484219 
L 561.18825 123.484219 
Q 562.98825 123.484219 562.98825 121.684219 
L 562.98825 69.615 
Q 562.98825 67.815 561.18825 67.815 
L 412.73325 67.815 
Q 410.93325 67.815 410.93325 69.615 
L 410.93325 121.684219 
Q 410.93325 123.484219 412.73325 123.484219 
z
" style="fill: #ffffff; opacity: 0.85; stroke: #cccccc; stroke-linejoin: miter"/>
    </g>
    <g id="line2d_39">
     <path d="M 414.53325 75.103594 
L 423.53325 75.103594 
L 432.53325 75.103594 
" style="fill: none; stroke: #1f77b4; stroke-width: 2; stroke-linecap: square"/>
    </g>
    <g id="text_21">
     <!-- $\Delta E$ (Def. 7.2) -->
     <g transform="translate(439.73325 78.253594) scale(0.09 -0.09)">
      <defs>
       <path id="DejaVuSerif-44" d="M 1581 331 
L 2163 331 
Q 3072 331 3558 850 
Q 4044 1369 4044 2338 
Q 4044 3306 3559 3818 
Q 3075 4331 2163 4331 
L 1581 4331 
L 1581 331 
z
M 353 0 
L 353 331 
L 947 331 
L 947 4331 
L 353 4331 
L 353 4666 
L 2209 4666 
Q 3416 4666 4089 4050 
Q 4763 3434 4763 2338 
Q 4763 1238 4088 619 
Q 3413 0 2209 0 
L 353 0 
z
" transform="scale(0.015625)"/>
      </defs>
      <use xlink:href="#DejaVuSans-394" transform="translate(0 0.015625)"/>
      <use xlink:href="#DejaVuSans-Oblique-45" transform="translate(68.408203 0.015625)"/>
      <use xlink:href="#DejaVuSerif-20" transform="translate(131.591797 0.015625)"/>
      <use xlink:href="#DejaVuSerif-28" transform="translate(163.378906 0.015625)"/>
      <use xlink:href="#DejaVuSerif-44" transform="translate(202.392578 0.015625)"/>
      <use xlink:href="#DejaVuSerif-65" transform="translate(282.568359 0.015625)"/>
      <use xlink:href="#DejaVuSerif-66" transform="translate(341.748047 0.015625)"/>
      <use xlink:href="#DejaVuSerif-2e" transform="translate(378.759766 0.015625)"/>
      <use xlink:href="#DejaVuSerif-20" transform="translate(410.546875 0.015625)"/>
      <use xlink:href="#DejaVuSerif-37" transform="translate(442.333984 0.015625)"/>
      <use xlink:href="#DejaVuSerif-2e" transform="translate(505.957031 0.015625)"/>
      <use xlink:href="#DejaVuSerif-32" transform="translate(535.119141 0.015625)"/>
      <use xlink:href="#DejaVuSerif-29" transform="translate(598.742188 0.015625)"/>
     </g>
    </g>
    <g id="line2d_40">
     <path d="M 414.53325 88.313906 
L 423.53325 88.313906 
L 432.53325 88.313906 
" style="fill: none; stroke-dasharray: 3.7,1.6; stroke-dashoffset: 0; stroke: #ff0000"/>
    </g>
    <g id="text_22">
     <!-- JND = 2 (gerade sichtbar) -->
     <g transform="translate(439.73325 91.463906) scale(0.09 -0.09)">
      <defs>
       <path id="DejaVuSerif-4a" d="M -538 -1119 
L -538 -384 
L -181 -384 
Q -172 -694 -34 -845 
Q 103 -997 378 -997 
Q 750 -997 897 -762 
Q 1044 -528 1044 153 
L 1044 4331 
L 319 4331 
L 319 4666 
L 2272 4666 
L 2272 4331 
L 1678 4331 
L 1678 128 
Q 1678 -644 1368 -987 
Q 1059 -1331 372 -1331 
Q 150 -1331 -79 -1278 
Q -309 -1225 -538 -1119 
z
" transform="scale(0.015625)"/>
       <path id="DejaVuSerif-4e" d="M 313 0 
L 313 331 
L 941 331 
L 941 4331 
L 313 4331 
L 313 4666 
L 1509 4666 
L 4306 984 
L 4306 4331 
L 3681 4331 
L 3681 4666 
L 5319 4666 
L 5319 4331 
L 4691 4331 
L 4691 -91 
L 4313 -91 
L 1325 3841 
L 1325 331 
L 1953 331 
L 1953 0 
L 313 0 
z
" transform="scale(0.015625)"/>
       <path id="DejaVuSerif-67" d="M 3359 2988 
L 3359 72 
Q 3359 -644 2965 -1033 
Q 2572 -1422 1844 -1422 
Q 1516 -1422 1216 -1362 
Q 916 -1303 641 -1184 
L 641 -488 
L 941 -488 
Q 997 -813 1206 -963 
Q 1416 -1113 1806 -1113 
Q 2313 -1113 2548 -827 
Q 2784 -541 2784 72 
L 2784 519 
Q 2616 206 2355 57 
Q 2094 -91 1709 -91 
Q 1097 -91 708 395 
Q 319 881 319 1663 
Q 319 2444 706 2928 
Q 1094 3413 1709 3413 
Q 2094 3413 2355 3264 
Q 2616 3116 2784 2803 
L 2784 3322 
L 3909 3322 
L 3909 2988 
L 3359 2988 
z
M 2784 1825 
Q 2784 2422 2554 2737 
Q 2325 3053 1888 3053 
Q 1444 3053 1217 2703 
Q 991 2353 991 1663 
Q 991 975 1217 622 
Q 1444 269 1888 269 
Q 2325 269 2554 583 
Q 2784 897 2784 1497 
L 2784 1825 
z
" transform="scale(0.015625)"/>
       <path id="DejaVuSerif-68" d="M 263 0 
L 263 331 
L 781 331 
L 781 4531 
L 231 4531 
L 231 4863 
L 1356 4863 
L 1356 2731 
Q 1516 3069 1770 3241 
Q 2025 3413 2363 3413 
Q 2913 3413 3172 3097 
Q 3431 2781 3431 2113 
L 3431 331 
L 3944 331 
L 3944 0 
L 2356 0 
L 2356 331 
L 2853 331 
L 2853 1931 
Q 2853 2541 2704 2764 
Q 2556 2988 2175 2988 
Q 1775 2988 1565 2697 
Q 1356 2406 1356 1850 
L 1356 331 
L 1856 331 
L 1856 0 
L 263 0 
z
" transform="scale(0.015625)"/>
      </defs>
      <use xlink:href="#DejaVuSerif-4a"/>
      <use xlink:href="#DejaVuSerif-4e" transform="translate(40.087891 0)"/>
      <use xlink:href="#DejaVuSerif-44" transform="translate(127.587891 0)"/>
      <use xlink:href="#DejaVuSerif-20" transform="translate(207.763672 0)"/>
      <use xlink:href="#DejaVuSerif-3d" transform="translate(239.550781 0)"/>
      <use xlink:href="#DejaVuSerif-20" transform="translate(323.339844 0)"/>
      <use xlink:href="#DejaVuSerif-32" transform="translate(355.126953 0)"/>
      <use xlink:href="#DejaVuSerif-20" transform="translate(418.75 0)"/>
      <use xlink:href="#DejaVuSerif-28" transform="translate(450.537109 0)"/>
      <use xlink:href="#DejaVuSerif-67" transform="translate(489.550781 0)"/>
      <use xlink:href="#DejaVuSerif-65" transform="translate(553.564453 0)"/>
      <use xlink:href="#DejaVuSerif-72" transform="translate(612.744141 0)"/>
      <use xlink:href="#DejaVuSerif-61" transform="translate(660.546875 0)"/>
      <use xlink:href="#DejaVuSerif-64" transform="translate(720.166016 0)"/>
      <use xlink:href="#DejaVuSerif-65" transform="translate(784.179688 0)"/>
      <use xlink:href="#DejaVuSerif-20" transform="translate(843.359375 0)"/>
      <use xlink:href="#DejaVuSerif-73" transform="translate(875.146484 0)"/>
      <use xlink:href="#DejaVuSerif-69" transform="translate(926.464844 0)"/>
      <use xlink:href="#DejaVuSerif-63" transform="translate(958.447266 0)"/>
      <use xlink:href="#DejaVuSerif-68" transform="translate(1014.453125 0)"/>
      <use xlink:href="#DejaVuSerif-74" transform="translate(1078.857422 0)"/>
      <use xlink:href="#DejaVuSerif-62" transform="translate(1119.042969 0)"/>
      <use xlink:href="#DejaVuSerif-61" transform="translate(1183.056641 0)"/>
      <use xlink:href="#DejaVuSerif-72" transform="translate(1242.675781 0)"/>
      <use xlink:href="#DejaVuSerif-29" transform="translate(1290.478516 0)"/>
     </g>
    </g>
    <g id="line2d_41">
     <path d="M 414.53325 101.652187 
L 423.53325 101.652187 
L 432.53325 101.652187 
" style="fill: none; stroke-dasharray: 3.7,1.6; stroke-dashoffset: 0; stroke: #ffa500"/>
    </g>
    <g id="text_23">
     <!-- ΔE = 5 (deutlich) -->
     <g transform="translate(439.73325 104.802188) scale(0.09 -0.09)">
      <defs>
       <path id="DejaVuSerif-6c" d="M 1313 331 
L 1856 331 
L 1856 0 
L 184 0 
L 184 331 
L 738 331 
L 738 4531 
L 184 4531 
L 184 4863 
L 1313 4863 
L 1313 331 
z
" transform="scale(0.015625)"/>
      </defs>
      <use xlink:href="#DejaVuSerif-394"/>
      <use xlink:href="#DejaVuSerif-45" transform="translate(72.216797 0)"/>
      <use xlink:href="#DejaVuSerif-20" transform="translate(145.214844 0)"/>
      <use xlink:href="#DejaVuSerif-3d" transform="translate(177.001953 0)"/>
      <use xlink:href="#DejaVuSerif-20" transform="translate(260.791016 0)"/>
      <use xlink:href="#DejaVuSerif-35" transform="translate(292.578125 0)"/>
      <use xlink:href="#DejaVuSerif-20" transform="translate(356.201172 0)"/>
      <use xlink:href="#DejaVuSerif-28" transform="translate(387.988281 0)"/>
      <use xlink:href="#DejaVuSerif-64" transform="translate(427.001953 0)"/>
      <use xlink:href="#DejaVuSerif-65" transform="translate(491.015625 0)"/>
      <use xlink:href="#DejaVuSerif-75" transform="translate(550.195312 0)"/>
      <use xlink:href="#DejaVuSerif-74" transform="translate(614.599609 0)"/>
      <use xlink:href="#DejaVuSerif-6c" transform="translate(654.785156 0)"/>
      <use xlink:href="#DejaVuSerif-69" transform="translate(686.767578 0)"/>
      <use xlink:href="#DejaVuSerif-63" transform="translate(718.75 0)"/>
      <use xlink:href="#DejaVuSerif-68" transform="translate(774.755859 0)"/>
      <use xlink:href="#DejaVuSerif-29" transform="translate(839.160156 0)"/>
     </g>
    </g>
    <g id="line2d_42">
     <path d="M 414.53325 114.8625 
L 423.53325 114.8625 
L 432.53325 114.8625 
" style="fill: none; stroke-dasharray: 1,1.65; stroke-dashoffset: 0; stroke: #808080"/>
    </g>
    <g id="text_24">
     <!-- Referenz d=160.0 nm -->
     <g transform="translate(439.73325 118.0125) scale(0.09 -0.09)">
      <use xlink:href="#DejaVuSerif-52"/>
      <use xlink:href="#DejaVuSerif-65" transform="translate(75.292969 0)"/>
      <use xlink:href="#DejaVuSerif-66" transform="translate(134.472656 0)"/>
      <use xlink:href="#DejaVuSerif-65" transform="translate(171.484375 0)"/>
      <use xlink:href="#DejaVuSerif-72" transform="translate(230.664062 0)"/>
      <use xlink:href="#DejaVuSerif-65" transform="translate(278.466797 0)"/>
      <use xlink:href="#DejaVuSerif-6e" transform="translate(337.646484 0)"/>
      <use xlink:href="#DejaVuSerif-7a" transform="translate(402.050781 0)"/>
      <use xlink:href="#DejaVuSerif-20" transform="translate(454.736328 0)"/>
      <use xlink:href="#DejaVuSerif-64" transform="translate(486.523438 0)"/>
      <use xlink:href="#DejaVuSerif-3d" transform="translate(550.537109 0)"/>
      <use xlink:href="#DejaVuSerif-31" transform="translate(634.326172 0)"/>
      <use xlink:href="#DejaVuSerif-36" transform="translate(697.949219 0)"/>
      <use xlink:href="#DejaVuSerif-30" transform="translate(761.572266 0)"/>
      <use xlink:href="#DejaVuSerif-2e" transform="translate(825.195312 0)"/>
      <use xlink:href="#DejaVuSerif-30" transform="translate(856.982422 0)"/>
      <use xlink:href="#DejaVuSerif-20" transform="translate(920.605469 0)"/>
      <use xlink:href="#DejaVuSerif-6e" transform="translate(952.392578 0)"/>
      <use xlink:href="#DejaVuSerif-6d" transform="translate(1016.796875 0)"/>
     </g>
    </g>
   </g>
  </g>
  <g id="axes_2">
   <g id="patch_6">
    <path d="M 618.38825 399.52 
L 1133.48025 399.52 
L 1133.48025 63.315 
L 618.38825 63.315 
z
" style="fill: #ffffff"/>
   </g>
   <g id="FillBetweenPolyCollection_1">
    <defs>
     <path id="m248b9a06be" d="M 641.801523 -226.056283 
L 641.801523 -66.388275 
L 649.738225 -66.388275 
L 657.674928 -66.388275 
L 665.611631 -66.388275 
L 673.548333 -66.388275 
L 681.485036 -66.388275 
L 689.421738 -66.388275 
L 697.358441 -66.388275 
L 705.295144 -66.388275 
L 713.231846 -66.388275 
L 721.168549 -66.388275 
L 729.105252 -66.388275 
L 737.041954 -66.388275 
L 744.978657 -66.388275 
L 752.915359 -66.388275 
L 760.852062 -66.388275 
L 768.788765 -66.388275 
L 776.725467 -66.388275 
L 784.66217 -66.388275 
L 792.598872 -66.388275 
L 800.535575 -66.388275 
L 808.472278 -66.388275 
L 816.40898 -66.388275 
L 824.345683 -66.388275 
L 832.282386 -66.388275 
L 840.219088 -66.388275 
L 848.155791 -66.388275 
L 856.092493 -66.388275 
L 864.029196 -66.388275 
L 871.965899 -66.388275 
L 879.902601 -66.388275 
L 887.839304 -66.388275 
L 895.776007 -66.388275 
L 903.712709 -66.388275 
L 911.649412 -66.388275 
L 919.586114 -66.388275 
L 927.522817 -66.388275 
L 935.45952 -66.388275 
L 943.396222 -66.388275 
L 951.332925 -66.388275 
L 959.269628 -66.388275 
L 967.20633 -66.388275 
L 975.143033 -66.388275 
L 983.079735 -66.388275 
L 991.016438 -66.388275 
L 998.953141 -66.388275 
L 1006.889843 -66.388275 
L 1014.826546 -66.388275 
L 1022.763248 -66.388275 
L 1030.699951 -66.388275 
L 1038.636654 -66.388275 
L 1046.573356 -66.388275 
L 1054.510059 -66.388275 
L 1062.446762 -66.388275 
L 1070.383464 -66.388275 
L 1078.320167 -66.388275 
L 1086.256869 -66.388275 
L 1094.193572 -66.388275 
L 1102.130275 -66.388275 
L 1110.066977 -66.388275 
L 1110.066977 -66.388275 
L 1110.066977 -66.388275 
L 1102.130275 -66.388275 
L 1094.193572 -66.388275 
L 1086.256869 -79.225232 
L 1078.320167 -107.411682 
L 1070.383464 -132.86943 
L 1062.446762 -152.884805 
L 1054.510059 -165.318187 
L 1046.573356 -169.296569 
L 1038.636654 -165.577621 
L 1030.699951 -156.003221 
L 1022.763248 -142.469391 
L 1014.826546 -126.232498 
L 1006.889843 -107.733137 
L 998.953141 -86.713083 
L 991.016438 -66.388275 
L 983.079735 -66.388275 
L 975.143033 -66.388275 
L 967.20633 -66.388275 
L 959.269628 -66.388275 
L 951.332925 -66.388275 
L 943.396222 -66.388275 
L 935.45952 -66.388275 
L 927.522817 -66.388275 
L 919.586114 -66.388275 
L 911.649412 -66.388275 
L 903.712709 -66.388275 
L 895.776007 -66.388275 
L 887.839304 -66.388275 
L 879.902601 -66.388275 
L 871.965899 -66.388275 
L 864.029196 -66.388275 
L 856.092493 -66.388275 
L 848.155791 -66.388275 
L 840.219088 -66.388275 
L 832.282386 -66.388275 
L 824.345683 -68.608182 
L 816.40898 -72.700952 
L 808.472278 -77.362063 
L 800.535575 -82.6801 
L 792.598872 -88.736425 
L 784.66217 -95.588239 
L 776.725467 -103.232781 
L 768.788765 -111.536084 
L 760.852062 -120.097144 
L 752.915359 -128.003796 
L 744.978657 -133.445053 
L 737.041954 -133.263695 
L 729.105252 -122.883994 
L 721.168549 -97.311977 
L 713.231846 -66.388275 
L 705.295144 -66.388275 
L 697.358441 -66.388275 
L 689.421738 -66.388275 
L 681.485036 -66.388275 
L 673.548333 -66.388275 
L 665.611631 -66.388275 
L 657.674928 -66.388275 
L 649.738225 -90.557167 
L 641.801523 -226.056283 
z
" style="stroke: #2ca02c; stroke-opacity: 0.2"/>
    </defs>
    <g clip-path="url(#pea89adbc8a)">
     <use xlink:href="#m248b9a06be" x="0" y="439.011875" style="fill: #2ca02c; fill-opacity: 0.2; stroke: #2ca02c; stroke-opacity: 0.2"/>
    </g>
   </g>
   <g id="matplotlib.axis_3">
    <g id="xtick_10">
     <g id="line2d_43">
      <path d="M 630.094886 399.52 
L 630.094886 63.315 
" clip-path="url(#pea89adbc8a)" style="fill: none; stroke-dasharray: 2.96,1.28; stroke-dashoffset: 0; stroke: #b0b0b0; stroke-opacity: 0.3; stroke-width: 0.8"/>
     </g>
     <g id="line2d_44">
      <g>
       <use xlink:href="#m52309f6a2e" x="630.094886" y="399.52" style="stroke: #000000; stroke-width: 0.8"/>
      </g>
     </g>
     <g id="text_25">
      <!-- 75 -->
      <g transform="translate(623.096136 414.878281) scale(0.11 -0.11)">
       <use xlink:href="#DejaVuSerif-37"/>
       <use xlink:href="#DejaVuSerif-35" transform="translate(63.623047 0)"/>
      </g>
     </g>
    </g>
    <g id="xtick_11">
     <g id="line2d_45">
      <path d="M 688.628068 399.52 
L 688.628068 63.315 
" clip-path="url(#pea89adbc8a)" style="fill: none; stroke-dasharray: 2.96,1.28; stroke-dashoffset: 0; stroke: #b0b0b0; stroke-opacity: 0.3; stroke-width: 0.8"/>
     </g>
     <g id="line2d_46">
      <g>
       <use xlink:href="#m52309f6a2e" x="688.628068" y="399.52" style="stroke: #000000; stroke-width: 0.8"/>
      </g>
     </g>
     <g id="text_26">
      <!-- 100 -->
      <g transform="translate(678.129943 414.878281) scale(0.11 -0.11)">
       <use xlink:href="#DejaVuSerif-31"/>
       <use xlink:href="#DejaVuSerif-30" transform="translate(63.623047 0)"/>
       <use xlink:href="#DejaVuSerif-30" transform="translate(127.246094 0)"/>
      </g>
     </g>
    </g>
    <g id="xtick_12">
     <g id="line2d_47">
      <path d="M 747.16125 399.52 
L 747.16125 63.315 
" clip-path="url(#pea89adbc8a)" style="fill: none; stroke-dasharray: 2.96,1.28; stroke-dashoffset: 0; stroke: #b0b0b0; stroke-opacity: 0.3; stroke-width: 0.8"/>
     </g>
     <g id="line2d_48">
      <g>
       <use xlink:href="#m52309f6a2e" x="747.16125" y="399.52" style="stroke: #000000; stroke-width: 0.8"/>
      </g>
     </g>
     <g id="text_27">
      <!-- 125 -->
      <g transform="translate(736.663125 414.878281) scale(0.11 -0.11)">
       <use xlink:href="#DejaVuSerif-31"/>
       <use xlink:href="#DejaVuSerif-32" transform="translate(63.623047 0)"/>
       <use xlink:href="#DejaVuSerif-35" transform="translate(127.246094 0)"/>
      </g>
     </g>
    </g>
    <g id="xtick_13">
     <g id="line2d_49">
      <path d="M 805.694432 399.52 
L 805.694432 63.315 
" clip-path="url(#pea89adbc8a)" style="fill: none; stroke-dasharray: 2.96,1.28; stroke-dashoffset: 0; stroke: #b0b0b0; stroke-opacity: 0.3; stroke-width: 0.8"/>
     </g>
     <g id="line2d_50">
      <g>
       <use xlink:href="#m52309f6a2e" x="805.694432" y="399.52" style="stroke: #000000; stroke-width: 0.8"/>
      </g>
     </g>
     <g id="text_28">
      <!-- 150 -->
      <g transform="translate(795.196307 414.878281) scale(0.11 -0.11)">
       <use xlink:href="#DejaVuSerif-31"/>
       <use xlink:href="#DejaVuSerif-35" transform="translate(63.623047 0)"/>
       <use xlink:href="#DejaVuSerif-30" transform="translate(127.246094 0)"/>
      </g>
     </g>
    </g>
    <g id="xtick_14">
     <g id="line2d_51">
      <path d="M 864.227614 399.52 
L 864.227614 63.315 
" clip-path="url(#pea89adbc8a)" style="fill: none; stroke-dasharray: 2.96,1.28; stroke-dashoffset: 0; stroke: #b0b0b0; stroke-opacity: 0.3; stroke-width: 0.8"/>
     </g>
     <g id="line2d_52">
      <g>
       <use xlink:href="#m52309f6a2e" x="864.227614" y="399.52" style="stroke: #000000; stroke-width: 0.8"/>
      </g>
     </g>
     <g id="text_29">
      <!-- 175 -->
      <g transform="translate(853.729489 414.878281) scale(0.11 -0.11)">
       <use xlink:href="#DejaVuSerif-31"/>
       <use xlink:href="#DejaVuSerif-37" transform="translate(63.623047 0)"/>
       <use xlink:href="#DejaVuSerif-35" transform="translate(127.246094 0)"/>
      </g>
     </g>
    </g>
    <g id="xtick_15">
     <g id="line2d_53">
      <path d="M 922.760795 399.52 
L 922.760795 63.315 
" clip-path="url(#pea89adbc8a)" style="fill: none; stroke-dasharray: 2.96,1.28; stroke-dashoffset: 0; stroke: #b0b0b0; stroke-opacity: 0.3; stroke-width: 0.8"/>
     </g>
     <g id="line2d_54">
      <g>
       <use xlink:href="#m52309f6a2e" x="922.760795" y="399.52" style="stroke: #000000; stroke-width: 0.8"/>
      </g>
     </g>
     <g id="text_30">
      <!-- 200 -->
      <g transform="translate(912.26267 414.878281) scale(0.11 -0.11)">
       <use xlink:href="#DejaVuSerif-32"/>
       <use xlink:href="#DejaVuSerif-30" transform="translate(63.623047 0)"/>
       <use xlink:href="#DejaVuSerif-30" transform="translate(127.246094 0)"/>
      </g>
     </g>
    </g>
    <g id="xtick_16">
     <g id="line2d_55">
      <path d="M 981.293977 399.52 
L 981.293977 63.315 
" clip-path="url(#pea89adbc8a)" style="fill: none; stroke-dasharray: 2.96,1.28; stroke-dashoffset: 0; stroke: #b0b0b0; stroke-opacity: 0.3; stroke-width: 0.8"/>
     </g>
     <g id="line2d_56">
      <g>
       <use xlink:href="#m52309f6a2e" x="981.293977" y="399.52" style="stroke: #000000; stroke-width: 0.8"/>
      </g>
     </g>
     <g id="text_31">
      <!-- 225 -->
      <g transform="translate(970.795852 414.878281) scale(0.11 -0.11)">
       <use xlink:href="#DejaVuSerif-32"/>
       <use xlink:href="#DejaVuSerif-32" transform="translate(63.623047 0)"/>
       <use xlink:href="#DejaVuSerif-35" transform="translate(127.246094 0)"/>
      </g>
     </g>
    </g>
    <g id="xtick_17">
     <g id="line2d_57">
      <path d="M 1039.827159 399.52 
L 1039.827159 63.315 
" clip-path="url(#pea89adbc8a)" style="fill: none; stroke-dasharray: 2.96,1.28; stroke-dashoffset: 0; stroke: #b0b0b0; stroke-opacity: 0.3; stroke-width: 0.8"/>
     </g>
     <g id="line2d_58">
      <g>
       <use xlink:href="#m52309f6a2e" x="1039.827159" y="399.52" style="stroke: #000000; stroke-width: 0.8"/>
      </g>
     </g>
     <g id="text_32">
      <!-- 250 -->
      <g transform="translate(1029.329034 414.878281) scale(0.11 -0.11)">
       <use xlink:href="#DejaVuSerif-32"/>
       <use xlink:href="#DejaVuSerif-35" transform="translate(63.623047 0)"/>
       <use xlink:href="#DejaVuSerif-30" transform="translate(127.246094 0)"/>
      </g>
     </g>
    </g>
    <g id="xtick_18">
     <g id="line2d_59">
      <path d="M 1098.360341 399.52 
L 1098.360341 63.315 
" clip-path="url(#pea89adbc8a)" style="fill: none; stroke-dasharray: 2.96,1.28; stroke-dashoffset: 0; stroke: #b0b0b0; stroke-opacity: 0.3; stroke-width: 0.8"/>
     </g>
     <g id="line2d_60">
      <g>
       <use xlink:href="#m52309f6a2e" x="1098.360341" y="399.52" style="stroke: #000000; stroke-width: 0.8"/>
      </g>
     </g>
     <g id="text_33">
      <!-- 275 -->
      <g transform="translate(1087.862216 414.878281) scale(0.11 -0.11)">
       <use xlink:href="#DejaVuSerif-32"/>
       <use xlink:href="#DejaVuSerif-37" transform="translate(63.623047 0)"/>
       <use xlink:href="#DejaVuSerif-35" transform="translate(127.246094 0)"/>
      </g>
     </g>
    </g>
    <g id="text_34">
     <!-- Kavitätsdicke d [nm] -->
     <g transform="translate(818.143 429.524219) scale(0.11 -0.11)">
      <use xlink:href="#DejaVuSerif-4b"/>
      <use xlink:href="#DejaVuSerif-61" transform="translate(74.707031 0)"/>
      <use xlink:href="#DejaVuSerif-76" transform="translate(134.326172 0)"/>
      <use xlink:href="#DejaVuSerif-69" transform="translate(190.820312 0)"/>
      <use xlink:href="#DejaVuSerif-74" transform="translate(222.802734 0)"/>
      <use xlink:href="#DejaVuSerif-e4" transform="translate(262.988281 0)"/>
      <use xlink:href="#DejaVuSerif-74" transform="translate(322.607422 0)"/>
      <use xlink:href="#DejaVuSerif-73" transform="translate(362.792969 0)"/>
      <use xlink:href="#DejaVuSerif-64" transform="translate(414.111328 0)"/>
      <use xlink:href="#DejaVuSerif-69" transform="translate(478.125 0)"/>
      <use xlink:href="#DejaVuSerif-63" transform="translate(510.107422 0)"/>
      <use xlink:href="#DejaVuSerif-6b" transform="translate(566.113281 0)"/>
      <use xlink:href="#DejaVuSerif-65" transform="translate(626.708984 0)"/>
      <use xlink:href="#DejaVuSerif-20" transform="translate(685.888672 0)"/>
      <use xlink:href="#DejaVuSerif-64" transform="translate(717.675781 0)"/>
      <use xlink:href="#DejaVuSerif-20" transform="translate(781.689453 0)"/>
      <use xlink:href="#DejaVuSerif-5b" transform="translate(813.476562 0)"/>
      <use xlink:href="#DejaVuSerif-6e" transform="translate(852.490234 0)"/>
      <use xlink:href="#DejaVuSerif-6d" transform="translate(916.894531 0)"/>
      <use xlink:href="#DejaVuSerif-5d" transform="translate(1011.71875 0)"/>
     </g>
    </g>
   </g>
   <g id="matplotlib.axis_4">
    <g id="ytick_9">
     <g id="line2d_61">
      <path d="M 618.38825 372.6236 
L 1133.48025 372.6236 
" clip-path="url(#pea89adbc8a)" style="fill: none; stroke-dasharray: 2.96,1.28; stroke-dashoffset: 0; stroke: #b0b0b0; stroke-opacity: 0.3; stroke-width: 0.8"/>
     </g>
     <g id="line2d_62">
      <g>
       <use xlink:href="#m4c8a734096" x="618.38825" y="372.6236" style="stroke: #000000; stroke-width: 0.8"/>
      </g>
     </g>
     <g id="text_35">
      <!-- 0.0 -->
      <g transform="translate(593.894812 376.802741) scale(0.11 -0.11)">
       <use xlink:href="#DejaVuSerif-30"/>
       <use xlink:href="#DejaVuSerif-2e" transform="translate(63.623047 0)"/>
       <use xlink:href="#DejaVuSerif-30" transform="translate(95.410156 0)"/>
      </g>
     </g>
    </g>
    <g id="ytick_10">
     <g id="line2d_63">
      <path d="M 618.38825 318.8308 
L 1133.48025 318.8308 
" clip-path="url(#pea89adbc8a)" style="fill: none; stroke-dasharray: 2.96,1.28; stroke-dashoffset: 0; stroke: #b0b0b0; stroke-opacity: 0.3; stroke-width: 0.8"/>
     </g>
     <g id="line2d_64">
      <g>
       <use xlink:href="#m4c8a734096" x="618.38825" y="318.8308" style="stroke: #000000; stroke-width: 0.8"/>
      </g>
     </g>
     <g id="text_36">
      <!-- 0.2 -->
      <g transform="translate(593.894812 323.009941) scale(0.11 -0.11)">
       <use xlink:href="#DejaVuSerif-30"/>
       <use xlink:href="#DejaVuSerif-2e" transform="translate(63.623047 0)"/>
       <use xlink:href="#DejaVuSerif-32" transform="translate(95.410156 0)"/>
      </g>
     </g>
    </g>
    <g id="ytick_11">
     <g id="line2d_65">
      <path d="M 618.38825 265.038 
L 1133.48025 265.038 
" clip-path="url(#pea89adbc8a)" style="fill: none; stroke-dasharray: 2.96,1.28; stroke-dashoffset: 0; stroke: #b0b0b0; stroke-opacity: 0.3; stroke-width: 0.8"/>
     </g>
     <g id="line2d_66">
      <g>
       <use xlink:href="#m4c8a734096" x="618.38825" y="265.038" style="stroke: #000000; stroke-width: 0.8"/>
      </g>
     </g>
     <g id="text_37">
      <!-- 0.4 -->
      <g transform="translate(593.894812 269.217141) scale(0.11 -0.11)">
       <use xlink:href="#DejaVuSerif-30"/>
       <use xlink:href="#DejaVuSerif-2e" transform="translate(63.623047 0)"/>
       <use xlink:href="#DejaVuSerif-34" transform="translate(95.410156 0)"/>
      </g>
     </g>
    </g>
    <g id="ytick_12">
     <g id="line2d_67">
      <path d="M 618.38825 211.2452 
L 1133.48025 211.2452 
" clip-path="url(#pea89adbc8a)" style="fill: none; stroke-dasharray: 2.96,1.28; stroke-dashoffset: 0; stroke: #b0b0b0; stroke-opacity: 0.3; stroke-width: 0.8"/>
     </g>
     <g id="line2d_68">
      <g>
       <use xlink:href="#m4c8a734096" x="618.38825" y="211.2452" style="stroke: #000000; stroke-width: 0.8"/>
      </g>
     </g>
     <g id="text_38">
      <!-- 0.6 -->
      <g transform="translate(593.894812 215.424341) scale(0.11 -0.11)">
       <use xlink:href="#DejaVuSerif-30"/>
       <use xlink:href="#DejaVuSerif-2e" transform="translate(63.623047 0)"/>
       <use xlink:href="#DejaVuSerif-36" transform="translate(95.410156 0)"/>
      </g>
     </g>
    </g>
    <g id="ytick_13">
     <g id="line2d_69">
      <path d="M 618.38825 157.4524 
L 1133.48025 157.4524 
" clip-path="url(#pea89adbc8a)" style="fill: none; stroke-dasharray: 2.96,1.28; stroke-dashoffset: 0; stroke: #b0b0b0; stroke-opacity: 0.3; stroke-width: 0.8"/>
     </g>
     <g id="line2d_70">
      <g>
       <use xlink:href="#m4c8a734096" x="618.38825" y="157.4524" style="stroke: #000000; stroke-width: 0.8"/>
      </g>
     </g>
     <g id="text_39">
      <!-- 0.8 -->
      <g transform="translate(593.894812 161.631541) scale(0.11 -0.11)">
       <use xlink:href="#DejaVuSerif-30"/>
       <use xlink:href="#DejaVuSerif-2e" transform="translate(63.623047 0)"/>
       <use xlink:href="#DejaVuSerif-38" transform="translate(95.410156 0)"/>
      </g>
     </g>
    </g>
    <g id="ytick_14">
     <g id="line2d_71">
      <path d="M 618.38825 103.6596 
L 1133.48025 103.6596 
" clip-path="url(#pea89adbc8a)" style="fill: none; stroke-dasharray: 2.96,1.28; stroke-dashoffset: 0; stroke: #b0b0b0; stroke-opacity: 0.3; stroke-width: 0.8"/>
     </g>
     <g id="line2d_72">
      <g>
       <use xlink:href="#m4c8a734096" x="618.38825" y="103.6596" style="stroke: #000000; stroke-width: 0.8"/>
      </g>
     </g>
     <g id="text_40">
      <!-- 1.0 -->
      <g transform="translate(593.894812 107.838741) scale(0.11 -0.11)">
       <use xlink:href="#DejaVuSerif-31"/>
       <use xlink:href="#DejaVuSerif-2e" transform="translate(63.623047 0)"/>
       <use xlink:href="#DejaVuSerif-30" transform="translate(95.410156 0)"/>
      </g>
     </g>
    </g>
    <g id="text_41">
     <!-- Tarnindex C ∈ [0, 1] -->
     <g transform="translate(587.607156 287.6) rotate(-90) scale(0.11 -0.11)">
      <defs>
       <path id="DejaVuSerif-54" d="M 1222 0 
L 1222 331 
L 1819 331 
L 1819 4294 
L 447 4294 
L 447 3566 
L 63 3566 
L 63 4666 
L 4206 4666 
L 4206 3566 
L 3822 3566 
L 3822 4294 
L 2450 4294 
L 2450 331 
L 3047 331 
L 3047 0 
L 1222 0 
z
" transform="scale(0.015625)"/>
       <path id="DejaVuSerif-78" d="M 1863 2028 
L 2559 2988 
L 2113 2988 
L 2113 3322 
L 3391 3322 
L 3391 2988 
L 2950 2988 
L 2059 1759 
L 3097 331 
L 3531 331 
L 3531 0 
L 1997 0 
L 1997 331 
L 2419 331 
L 1697 1325 
L 972 331 
L 1403 331 
L 1403 0 
L 141 0 
L 141 331 
L 581 331 
L 1497 1594 
L 488 2988 
L 78 2988 
L 78 3322 
L 1563 3322 
L 1563 2988 
L 1166 2988 
L 1863 2028 
z
" transform="scale(0.015625)"/>
       <path id="DejaVuSerif-43" d="M 4513 1234 
Q 4306 581 3820 245 
Q 3334 -91 2591 -91 
Q 2134 -91 1743 65 
Q 1353 222 1050 525 
Q 700 875 529 1320 
Q 359 1766 359 2328 
Q 359 3416 987 4083 
Q 1616 4750 2644 4750 
Q 3025 4750 3456 4650 
Q 3888 4550 4384 4347 
L 4384 3272 
L 4031 3272 
Q 3916 3859 3567 4137 
Q 3219 4416 2591 4416 
Q 1844 4416 1459 3886 
Q 1075 3356 1075 2328 
Q 1075 1303 1459 773 
Q 1844 244 2591 244 
Q 3113 244 3450 492 
Q 3788 741 3938 1234 
L 4513 1234 
z
" transform="scale(0.015625)"/>
       <path id="DejaVuSerif-2208" d="M 2684 500 
L 4059 500 
L 4059 0 
L 2684 0 
Q 2141 0 1678 269 
Q 1216 538 947 1000 
Q 678 1463 678 2006 
Q 678 2550 947 3012 
Q 1216 3475 1678 3744 
Q 2141 4013 2684 4013 
L 4059 4013 
L 4059 3513 
L 2684 3513 
Q 2278 3513 1931 3309 
Q 1584 3106 1381 2759 
Q 1244 2522 1200 2259 
L 4059 2259 
L 4059 1753 
L 1200 1753 
Q 1244 1491 1381 1253 
Q 1584 906 1931 703 
Q 2278 500 2684 500 
z
" transform="scale(0.015625)"/>
       <path id="DejaVuSerif-2c" d="M 231 -622 
Q 525 -406 662 -114 
Q 800 178 800 594 
L 800 709 
L 1416 709 
Q 1391 175 1164 -208 
Q 938 -591 481 -872 
L 231 -622 
z
" transform="scale(0.015625)"/>
      </defs>
      <use xlink:href="#DejaVuSerif-54"/>
      <use xlink:href="#DejaVuSerif-61" transform="translate(58.949219 0)"/>
      <use xlink:href="#DejaVuSerif-72" transform="translate(118.568359 0)"/>
      <use xlink:href="#DejaVuSerif-6e" transform="translate(166.371094 0)"/>
      <use xlink:href="#DejaVuSerif-69" transform="translate(230.775391 0)"/>
      <use xlink:href="#DejaVuSerif-6e" transform="translate(262.757812 0)"/>
      <use xlink:href="#DejaVuSerif-64" transform="translate(327.162109 0)"/>
      <use xlink:href="#DejaVuSerif-65" transform="translate(391.175781 0)"/>
      <use xlink:href="#DejaVuSerif-78" transform="translate(450.355469 0)"/>
      <use xlink:href="#DejaVuSerif-20" transform="translate(506.751953 0)"/>
      <use xlink:href="#DejaVuSerif-43" transform="translate(538.539062 0)"/>
      <use xlink:href="#DejaVuSerif-20" transform="translate(615.052734 0)"/>
      <use xlink:href="#DejaVuSerif-2208" transform="translate(646.839844 0)"/>
      <use xlink:href="#DejaVuSerif-20" transform="translate(720.863281 0)"/>
      <use xlink:href="#DejaVuSerif-5b" transform="translate(752.650391 0)"/>
      <use xlink:href="#DejaVuSerif-30" transform="translate(791.664062 0)"/>
      <use xlink:href="#DejaVuSerif-2c" transform="translate(855.287109 0)"/>
      <use xlink:href="#DejaVuSerif-20" transform="translate(887.074219 0)"/>
      <use xlink:href="#DejaVuSerif-31" transform="translate(918.861328 0)"/>
      <use xlink:href="#DejaVuSerif-5d" transform="translate(982.484375 0)"/>
     </g>
    </g>
   </g>
   <g id="line2d_73">
    <path d="M 641.801523 212.955592 
L 649.738225 348.454708 
L 657.674928 372.6236 
L 665.611631 372.6236 
L 673.548333 372.6236 
L 681.485036 372.6236 
L 689.421738 372.6236 
L 697.358441 372.6236 
L 705.295144 372.6236 
L 713.231846 372.6236 
L 721.168549 341.699898 
L 729.105252 316.127881 
L 737.041954 305.74818 
L 744.978657 305.566822 
L 752.915359 311.008079 
L 760.852062 318.914731 
L 768.788765 327.475791 
L 776.725467 335.779094 
L 784.66217 343.423636 
L 792.598872 350.27545 
L 800.535575 356.331775 
L 808.472278 361.649812 
L 816.40898 366.310923 
L 824.345683 370.403693 
L 832.282386 372.6236 
L 840.219088 372.6236 
L 848.155791 372.6236 
L 856.092493 372.6236 
L 864.029196 372.6236 
L 871.965899 372.6236 
L 879.902601 372.6236 
L 887.839304 372.6236 
L 895.776007 372.6236 
L 903.712709 372.6236 
L 911.649412 372.6236 
L 919.586114 372.6236 
L 927.522817 372.6236 
L 935.45952 372.6236 
L 943.396222 372.6236 
L 951.332925 372.6236 
L 959.269628 372.6236 
L 967.20633 372.6236 
L 975.143033 372.6236 
L 983.079735 372.6236 
L 991.016438 372.6236 
L 998.953141 352.298792 
L 1006.889843 331.278738 
L 1014.826546 312.779377 
L 1022.763248 296.542484 
L 1030.699951 283.008654 
L 1038.636654 273.434254 
L 1046.573356 269.715306 
L 1054.510059 273.693688 
L 1062.446762 286.12707 
L 1070.383464 306.142445 
L 1078.320167 331.600193 
L 1086.256869 359.786643 
L 1094.193572 372.6236 
L 1102.130275 372.6236 
L 1110.066977 372.6236 
" clip-path="url(#pea89adbc8a)" style="fill: none; stroke: #2ca02c; stroke-width: 2; stroke-linecap: square"/>
   </g>
   <g id="line2d_74">
    <path d="M 618.38825 372.6236 
L 1133.48025 372.6236 
" clip-path="url(#pea89adbc8a)" style="fill: none; stroke: #808080; stroke-width: 0.8; stroke-linecap: square"/>
   </g>
   <g id="line2d_75">
    <path d="M 618.38825 103.6596 
L 1133.48025 103.6596 
" clip-path="url(#pea89adbc8a)" style="fill: none; stroke-dasharray: 2.96,1.28; stroke-dashoffset: 0; stroke: #808080; stroke-width: 0.8"/>
   </g>
   <g id="patch_7">
    <path d="M 618.38825 399.52 
L 618.38825 63.315 
" style="fill: none; stroke: #000000; stroke-width: 0.8; stroke-linejoin: miter; stroke-linecap: square"/>
   </g>
   <g id="patch_8">
    <path d="M 618.38825 399.52 
L 1133.48025 399.52 
" style="fill: none; stroke: #000000; stroke-width: 0.8; stroke-linejoin: miter; stroke-linecap: square"/>
   </g>
   <g id="text_42">
    <!-- Tarnindex C vs. Blatt-Hintergrund (Def. 9.1) -->
    <g transform="translate(741.651437 57.315) scale(0.12 -0.12)">
     <defs>
      <path id="DejaVuSerif-42" d="M 1581 331 
L 2516 331 
Q 3078 331 3337 575 
Q 3597 819 3597 1350 
Q 3597 1878 3339 2120 
Q 3081 2363 2516 2363 
L 1581 2363 
L 1581 331 
z
M 1581 2694 
L 2375 2694 
Q 2888 2694 3123 2891 
Q 3359 3088 3359 3513 
Q 3359 3941 3123 4136 
Q 2888 4331 2375 4331 
L 1581 4331 
L 1581 2694 
z
M 353 0 
L 353 331 
L 947 331 
L 947 4331 
L 353 4331 
L 353 4666 
L 2656 4666 
Q 3363 4666 3720 4377 
Q 4078 4088 4078 3513 
Q 4078 3097 3829 2850 
Q 3581 2603 3103 2547 
Q 3697 2472 4005 2167 
Q 4313 1863 4313 1350 
Q 4313 656 3875 328 
Q 3438 0 2509 0 
L 353 0 
z
" transform="scale(0.015625)"/>
      <path id="DejaVuSerif-2d" d="M 281 1959 
L 1881 1959 
L 1881 1472 
L 281 1472 
L 281 1959 
z
" transform="scale(0.015625)"/>
      <path id="DejaVuSerif-48" d="M 353 0 
L 353 331 
L 947 331 
L 947 4331 
L 353 4331 
L 353 4666 
L 2175 4666 
L 2175 4331 
L 1581 4331 
L 1581 2719 
L 4000 2719 
L 4000 4331 
L 3406 4331 
L 3406 4666 
L 5228 4666 
L 5228 4331 
L 4634 4331 
L 4634 331 
L 5228 331 
L 5228 0 
L 3406 0 
L 3406 331 
L 4000 331 
L 4000 2338 
L 1581 2338 
L 1581 331 
L 2175 331 
L 2175 0 
L 353 0 
z
" transform="scale(0.015625)"/>
      <path id="DejaVuSerif-39" d="M 2994 2091 
Q 2784 1856 2512 1740 
Q 2241 1625 1900 1625 
Q 1206 1625 804 2044 
Q 403 2463 403 3188 
Q 403 3897 839 4323 
Q 1275 4750 2003 4750 
Q 2794 4750 3217 4161 
Q 3641 3572 3641 2478 
Q 3641 1253 3137 581 
Q 2634 -91 1722 -91 
Q 1475 -91 1203 -44 
Q 931 3 647 97 
L 647 872 
L 997 872 
Q 1038 556 1241 387 
Q 1444 219 1784 219 
Q 2391 219 2687 676 
Q 2984 1134 2994 2091 
z
M 1978 4441 
Q 1534 4441 1298 4117 
Q 1063 3794 1063 3188 
Q 1063 2581 1298 2256 
Q 1534 1931 1978 1931 
Q 2422 1931 2658 2245 
Q 2894 2559 2894 3150 
Q 2894 3772 2656 4106 
Q 2419 4441 1978 4441 
z
" transform="scale(0.015625)"/>
     </defs>
     <use xlink:href="#DejaVuSerif-54"/>
     <use xlink:href="#DejaVuSerif-61" transform="translate(58.949219 0)"/>
     <use xlink:href="#DejaVuSerif-72" transform="translate(118.568359 0)"/>
     <use xlink:href="#DejaVuSerif-6e" transform="translate(166.371094 0)"/>
     <use xlink:href="#DejaVuSerif-69" transform="translate(230.775391 0)"/>
     <use xlink:href="#DejaVuSerif-6e" transform="translate(262.757812 0)"/>
     <use xlink:href="#DejaVuSerif-64" transform="translate(327.162109 0)"/>
     <use xlink:href="#DejaVuSerif-65" transform="translate(391.175781 0)"/>
     <use xlink:href="#DejaVuSerif-78" transform="translate(450.355469 0)"/>
     <use xlink:href="#DejaVuSerif-20" transform="translate(506.751953 0)"/>
     <use xlink:href="#DejaVuSerif-43" transform="translate(538.539062 0)"/>
     <use xlink:href="#DejaVuSerif-20" transform="translate(615.052734 0)"/>
     <use xlink:href="#DejaVuSerif-76" transform="translate(646.839844 0)"/>
     <use xlink:href="#DejaVuSerif-73" transform="translate(703.333984 0)"/>
     <use xlink:href="#DejaVuSerif-2e" transform="translate(754.652344 0)"/>
     <use xlink:href="#DejaVuSerif-20" transform="translate(786.439453 0)"/>
     <use xlink:href="#DejaVuSerif-42" transform="translate(818.226562 0)"/>
     <use xlink:href="#DejaVuSerif-6c" transform="translate(891.712891 0)"/>
     <use xlink:href="#DejaVuSerif-61" transform="translate(923.695312 0)"/>
     <use xlink:href="#DejaVuSerif-74" transform="translate(983.314453 0)"/>
     <use xlink:href="#DejaVuSerif-74" transform="translate(1023.5 0)"/>
     <use xlink:href="#DejaVuSerif-2d" transform="translate(1063.685547 0)"/>
     <use xlink:href="#DejaVuSerif-48" transform="translate(1097.474609 0)"/>
     <use xlink:href="#DejaVuSerif-69" transform="translate(1184.681641 0)"/>
     <use xlink:href="#DejaVuSerif-6e" transform="translate(1216.664062 0)"/>
     <use xlink:href="#DejaVuSerif-74" transform="translate(1281.068359 0)"/>
     <use xlink:href="#DejaVuSerif-65" transform="translate(1321.253906 0)"/>
     <use xlink:href="#DejaVuSerif-72" transform="translate(1380.433594 0)"/>
     <use xlink:href="#DejaVuSerif-67" transform="translate(1428.236328 0)"/>
     <use xlink:href="#DejaVuSerif-72" transform="translate(1492.25 0)"/>
     <use xlink:href="#DejaVuSerif-75" transform="translate(1540.052734 0)"/>
     <use xlink:href="#DejaVuSerif-6e" transform="translate(1604.457031 0)"/>
     <use xlink:href="#DejaVuSerif-64" transform="translate(1668.861328 0)"/>
     <use xlink:href="#DejaVuSerif-20" transform="translate(1732.875 0)"/>
     <use xlink:href="#DejaVuSerif-28" transform="translate(1764.662109 0)"/>
     <use xlink:href="#DejaVuSerif-44" transform="translate(1803.675781 0)"/>
     <use xlink:href="#DejaVuSerif-65" transform="translate(1883.851562 0)"/>
     <use xlink:href="#DejaVuSerif-66" transform="translate(1943.03125 0)"/>
     <use xlink:href="#DejaVuSerif-2e" transform="translate(1976.417969 0)"/>
     <use xlink:href="#DejaVuSerif-20" transform="translate(2008.205078 0)"/>
     <use xlink:href="#DejaVuSerif-39" transform="translate(2039.992188 0)"/>
     <use xlink:href="#DejaVuSerif-2e" transform="translate(2103.615234 0)"/>
     <use xlink:href="#DejaVuSerif-31" transform="translate(2135.402344 0)"/>
     <use xlink:href="#DejaVuSerif-29" transform="translate(2199.025391 0)"/>
    </g>
   </g>
  </g>
  <g id="text_43">
   <!-- Exp. 17 – Farbdifferenz ΔE (Def. 7.2) und Tarnindex C (Def. 9.1) -->
   <g transform="translate(337.778453 17.077969) scale(0.13 -0.13)">
    <defs>
     <path id="DejaVuSerif-Bold-45" d="M 300 0 
L 300 378 
L 897 378 
L 897 4288 
L 300 4288 
L 300 4666 
L 4494 4666 
L 4494 3566 
L 4063 3566 
L 4063 4238 
L 2100 4238 
L 2100 2741 
L 3322 2741 
L 3322 3334 
L 3750 3334 
L 3750 1722 
L 3322 1722 
L 3322 2316 
L 2100 2316 
L 2100 428 
L 4122 428 
L 4122 1100 
L 4550 1100 
L 4550 0 
L 300 0 
z
" transform="scale(0.015625)"/>
     <path id="DejaVuSerif-Bold-78" d="M 2247 2119 
L 2834 2944 
L 2425 2944 
L 2425 3322 
L 3719 3322 
L 3719 2944 
L 3278 2944 
L 2431 1759 
L 3419 378 
L 3859 378 
L 3859 0 
L 1747 0 
L 1747 378 
L 2175 378 
L 1550 1253 
L 922 378 
L 1369 378 
L 1369 0 
L 0 0 
L 0 378 
L 475 378 
L 1356 1619 
L 403 2944 
L 31 2944 
L 31 3322 
L 2059 3322 
L 2059 2944 
L 1656 2944 
L 2247 2119 
z
" transform="scale(0.015625)"/>
     <path id="DejaVuSerif-Bold-70" d="M 1728 1825 
L 1728 1497 
Q 1728 916 1876 656 
Q 2025 397 2356 397 
Q 2697 397 2836 672 
Q 2975 947 2975 1663 
Q 2975 2378 2836 2651 
Q 2697 2925 2356 2925 
Q 2025 2925 1876 2665 
Q 1728 2406 1728 1825 
z
M 622 2944 
L 147 2944 
L 147 3322 
L 1728 3322 
L 1728 2900 
Q 1869 3159 2106 3286 
Q 2344 3413 2694 3413 
Q 3403 3413 3811 2945 
Q 4219 2478 4219 1663 
Q 4219 847 3811 378 
Q 3403 -91 2694 -91 
Q 2344 -91 2106 36 
Q 1869 163 1728 422 
L 1728 -953 
L 2241 -953 
L 2241 -1331 
L 147 -1331 
L 147 -953 
L 622 -953 
L 622 2944 
z
" transform="scale(0.015625)"/>
     <path id="DejaVuSerif-Bold-2e" d="M 519 506 
Q 519 750 694 925 
Q 869 1100 1113 1100 
Q 1359 1100 1534 925 
Q 1709 750 1709 506 
Q 1709 259 1534 84 
Q 1359 -91 1113 -91 
Q 869 -91 694 84 
Q 519 259 519 506 
z
" transform="scale(0.015625)"/>
     <path id="DejaVuSerif-Bold-20" transform="scale(0.015625)"/>
     <path id="DejaVuSerif-Bold-31" d="M 878 0 
L 878 378 
L 1753 378 
L 1753 4153 
L 781 3578 
L 781 4044 
L 1953 4750 
L 2938 4750 
L 2938 378 
L 3816 378 
L 3816 0 
L 878 0 
z
" transform="scale(0.015625)"/>
     <path id="DejaVuSerif-Bold-37" d="M 3922 3872 
L 1997 0 
L 1363 0 
L 3238 3781 
L 934 3781 
L 934 3150 
L 506 3150 
L 506 4666 
L 3922 4666 
L 3922 3872 
z
" transform="scale(0.015625)"/>
     <path id="DejaVuSerif-Bold-2013" d="M 344 2075 
L 2856 2075 
L 2856 1325 
L 344 1325 
L 344 2075 
z
" transform="scale(0.015625)"/>
     <path id="DejaVuSerif-Bold-46" d="M 300 0 
L 300 378 
L 897 378 
L 897 4288 
L 300 4288 
L 300 4666 
L 4459 4666 
L 4459 3566 
L 4031 3566 
L 4031 4238 
L 2106 4238 
L 2106 2741 
L 3291 2741 
L 3291 3334 
L 3719 3334 
L 3719 1722 
L 3291 1722 
L 3291 2316 
L 2106 2316 
L 2106 378 
L 2841 378 
L 2841 0 
L 300 0 
z
" transform="scale(0.015625)"/>
     <path id="DejaVuSerif-Bold-61" d="M 3525 2041 
L 3525 378 
L 4000 378 
L 4000 0 
L 2419 0 
L 2419 422 
Q 2200 159 1931 34 
Q 1663 -91 1319 -91 
Q 809 -91 536 182 
Q 263 456 263 966 
Q 263 1525 655 1803 
Q 1047 2081 1838 2081 
L 2419 2081 
L 2419 2278 
Q 2419 2681 2228 2873 
Q 2038 3066 1638 3066 
Q 1306 3066 1126 2930 
Q 947 2794 872 2484 
L 519 2484 
L 519 3200 
Q 816 3306 1134 3359 
Q 1453 3413 1806 3413 
Q 2697 3413 3111 3081 
Q 3525 2750 3525 2041 
z
M 2419 1044 
L 2419 1709 
L 2003 1709 
Q 1694 1709 1528 1540 
Q 1363 1372 1363 1056 
Q 1363 741 1483 584 
Q 1603 428 1850 428 
Q 2106 428 2262 597 
Q 2419 766 2419 1044 
z
" transform="scale(0.015625)"/>
     <path id="DejaVuSerif-Bold-72" d="M 3438 3359 
L 3438 2369 
L 3084 2369 
Q 3066 2634 2941 2764 
Q 2816 2894 2578 2894 
Q 2216 2894 2006 2575 
Q 1797 2256 1797 1691 
L 1797 378 
L 2400 378 
L 2400 0 
L 219 0 
L 219 378 
L 691 378 
L 691 2944 
L 184 2944 
L 184 3322 
L 1797 3322 
L 1797 2731 
Q 1959 3078 2226 3245 
Q 2494 3413 2881 3413 
Q 2978 3413 3117 3398 
Q 3256 3384 3438 3359 
z
" transform="scale(0.015625)"/>
     <path id="DejaVuSerif-Bold-62" d="M 622 378 
L 622 4488 
L 147 4488 
L 147 4863 
L 1728 4863 
L 1728 2900 
Q 1869 3159 2106 3286 
Q 2344 3413 2694 3413 
Q 3403 3413 3811 2945 
Q 4219 2478 4219 1663 
Q 4219 847 3811 378 
Q 3403 -91 2694 -91 
Q 2344 -91 2106 36 
Q 1869 163 1728 422 
L 1728 0 
L 147 0 
L 147 378 
L 622 378 
z
M 1728 1497 
Q 1728 916 1876 656 
Q 2025 397 2356 397 
Q 2697 397 2836 672 
Q 2975 947 2975 1663 
Q 2975 2378 2836 2651 
Q 2697 2925 2356 2925 
Q 2025 2925 1876 2665 
Q 1728 2406 1728 1825 
L 1728 1497 
z
" transform="scale(0.015625)"/>
     <path id="DejaVuSerif-Bold-64" d="M 2747 1497 
L 2747 1825 
Q 2747 2406 2597 2665 
Q 2447 2925 2119 2925 
Q 1775 2925 1636 2651 
Q 1497 2378 1497 1663 
Q 1497 947 1637 672 
Q 1778 397 2119 397 
Q 2447 397 2597 656 
Q 2747 916 2747 1497 
z
M 3853 378 
L 4325 378 
L 4325 0 
L 2747 0 
L 2747 422 
Q 2606 163 2367 36 
Q 2128 -91 1778 -91 
Q 1072 -91 667 378 
Q 263 847 263 1663 
Q 263 2481 667 2947 
Q 1072 3413 1778 3413 
Q 2128 3413 2367 3286 
Q 2606 3159 2747 2900 
L 2747 4488 
L 2272 4488 
L 2272 4863 
L 3853 4863 
L 3853 378 
z
" transform="scale(0.015625)"/>
     <path id="DejaVuSerif-Bold-69" d="M 588 4263 
Q 588 4516 763 4689 
Q 938 4863 1191 4863 
Q 1438 4863 1611 4689 
Q 1784 4516 1784 4263 
Q 1784 4016 1611 3842 
Q 1438 3669 1191 3669 
Q 938 3669 763 3841 
Q 588 4013 588 4263 
z
M 1797 378 
L 2272 378 
L 2272 0 
L 219 0 
L 219 378 
L 691 378 
L 691 2944 
L 219 2944 
L 219 3322 
L 1797 3322 
L 1797 378 
z
" transform="scale(0.015625)"/>
     <path id="DejaVuSerif-Bold-66" d="M 3097 4031 
L 2747 4031 
Q 2722 4275 2605 4394 
Q 2488 4513 2272 4513 
Q 2022 4513 1909 4333 
Q 1797 4153 1797 3750 
L 1797 3322 
L 2631 3322 
L 2631 2944 
L 1797 2944 
L 1797 378 
L 2438 378 
L 2438 0 
L 219 0 
L 219 378 
L 691 378 
L 691 2944 
L 197 2944 
L 197 3322 
L 691 3322 
L 691 3738 
Q 691 4291 1044 4577 
Q 1397 4863 2081 4863 
Q 2347 4863 2600 4833 
Q 2853 4803 3097 4744 
L 3097 4031 
z
" transform="scale(0.015625)"/>
     <path id="DejaVuSerif-Bold-65" d="M 2566 1875 
Q 2566 2531 2444 2795 
Q 2322 3059 2028 3059 
Q 1744 3059 1620 2800 
Q 1497 2541 1497 1931 
L 1497 1875 
L 2566 1875 
z
M 3781 1503 
L 1497 1503 
L 1497 1478 
Q 1497 834 1690 548 
Q 1884 263 2316 263 
Q 2675 263 2897 453 
Q 3119 644 3181 1006 
L 3700 1006 
Q 3566 441 3166 175 
Q 2766 -91 2047 -91 
Q 1184 -91 723 364 
Q 263 819 263 1663 
Q 263 2488 734 2950 
Q 1206 3413 2047 3413 
Q 2872 3413 3312 2927 
Q 3753 2441 3781 1503 
z
" transform="scale(0.015625)"/>
     <path id="DejaVuSerif-Bold-6e" d="M 219 0 
L 219 378 
L 691 378 
L 691 2944 
L 219 2944 
L 219 3322 
L 1797 3322 
L 1797 2853 
Q 1997 3150 2253 3281 
Q 2509 3413 2900 3413 
Q 3459 3413 3745 3083 
Q 4031 2753 4031 2113 
L 4031 378 
L 4506 378 
L 4506 0 
L 2522 0 
L 2522 378 
L 2925 378 
L 2925 2144 
Q 2925 2566 2817 2730 
Q 2709 2894 2444 2894 
Q 2109 2894 1953 2648 
Q 1797 2403 1797 1869 
L 1797 378 
L 2203 378 
L 2203 0 
L 219 0 
z
" transform="scale(0.015625)"/>
     <path id="DejaVuSerif-Bold-7a" d="M 225 0 
L 225 378 
L 2131 2956 
L 697 2956 
L 697 2388 
L 325 2388 
L 325 3322 
L 3419 3322 
L 3419 2950 
L 1509 372 
L 3047 372 
L 3047 972 
L 3419 972 
L 3419 0 
L 225 0 
z
" transform="scale(0.015625)"/>
     <path id="DejaVuSerif-Bold-394" d="M 4744 0 
L 188 0 
L 2088 4666 
L 2834 4666 
L 4744 0 
z
M 781 378 
L 3309 378 
L 2053 3494 
L 781 378 
z
" transform="scale(0.015625)"/>
     <path id="DejaVuSerif-Bold-28" d="M 2694 -997 
Q 1641 -606 1122 122 
Q 603 850 603 1931 
Q 603 3013 1115 3731 
Q 1628 4450 2694 4863 
L 2694 4488 
Q 2200 4188 1983 3598 
Q 1766 3009 1766 1931 
Q 1766 856 1983 267 
Q 2200 -322 2694 -622 
L 2694 -997 
z
" transform="scale(0.015625)"/>
     <path id="DejaVuSerif-Bold-44" d="M 2100 378 
L 2534 378 
Q 3266 378 3605 847 
Q 3944 1316 3944 2338 
Q 3944 3353 3606 3820 
Q 3269 4288 2534 4288 
L 2100 4288 
L 2100 378 
z
M 300 0 
L 300 378 
L 897 378 
L 897 4288 
L 300 4288 
L 300 4666 
L 2694 4666 
Q 3950 4666 4615 4066 
Q 5281 3466 5281 2338 
Q 5281 1203 4614 601 
Q 3947 0 2694 0 
L 300 0 
z
" transform="scale(0.015625)"/>
     <path id="DejaVuSerif-Bold-32" d="M 844 3513 
L 469 3513 
L 469 4519 
Q 850 4634 1223 4692 
Q 1597 4750 1978 4750 
Q 2869 4750 3367 4386 
Q 3866 4022 3866 3372 
Q 3866 2909 3591 2542 
Q 3316 2175 2541 1672 
L 1241 819 
L 3450 819 
L 3450 1369 
L 3878 1369 
L 3878 0 
L 428 0 
L 428 763 
L 1119 1241 
Q 2003 1850 2297 2278 
Q 2591 2706 2591 3278 
Q 2591 3819 2367 4101 
Q 2144 4384 1716 4384 
Q 1347 4384 1125 4161 
Q 903 3938 844 3513 
z
" transform="scale(0.015625)"/>
     <path id="DejaVuSerif-Bold-29" d="M 325 -997 
L 325 -622 
Q 819 -322 1036 267 
Q 1253 856 1253 1931 
Q 1253 3009 1036 3598 
Q 819 4188 325 4488 
L 325 4863 
Q 1391 4450 1905 3731 
Q 2419 3013 2419 1931 
Q 2419 850 1898 122 
Q 1378 -606 325 -997 
z
" transform="scale(0.015625)"/>
     <path id="DejaVuSerif-Bold-75" d="M 3963 3322 
L 3963 378 
L 4434 378 
L 4434 0 
L 2853 0 
L 2853 469 
Q 2656 172 2400 40 
Q 2144 -91 1753 -91 
Q 1194 -91 908 239 
Q 622 569 622 1209 
L 622 2944 
L 147 2944 
L 147 3322 
L 1728 3322 
L 1728 1381 
Q 1728 763 1831 595 
Q 1934 428 2209 428 
Q 2544 428 2698 675 
Q 2853 922 2853 1459 
L 2853 2944 
L 2450 2944 
L 2450 3322 
L 3963 3322 
z
" transform="scale(0.015625)"/>
     <path id="DejaVuSerif-Bold-54" d="M 1159 0 
L 1159 378 
L 1778 378 
L 1778 4238 
L 500 4238 
L 500 3500 
L 72 3500 
L 72 4666 
L 4697 4666 
L 4697 3500 
L 4275 3500 
L 4275 4238 
L 2988 4238 
L 2988 378 
L 3609 378 
L 3609 0 
L 1159 0 
z
" transform="scale(0.015625)"/>
     <path id="DejaVuSerif-Bold-43" d="M 4769 1331 
Q 4584 609 4106 259 
Q 3628 -91 2822 -91 
Q 1641 -91 955 561 
Q 269 1213 269 2328 
Q 269 3447 955 4098 
Q 1641 4750 2822 4750 
Q 3238 4750 3688 4650 
Q 4138 4550 4641 4347 
L 4641 3200 
L 4244 3200 
Q 4122 3788 3800 4080 
Q 3478 4372 2950 4372 
Q 2269 4372 1937 3870 
Q 1606 3369 1606 2328 
Q 1606 1288 1937 788 
Q 2269 288 2956 288 
Q 3422 288 3717 547 
Q 4013 806 4147 1331 
L 4769 1331 
z
" transform="scale(0.015625)"/>
     <path id="DejaVuSerif-Bold-39" d="M 2181 4384 
Q 1859 4384 1723 4111 
Q 1588 3838 1588 3163 
Q 1588 2488 1723 2214 
Q 1859 1941 2181 1941 
Q 2503 1941 2640 2214 
Q 2778 2488 2778 3163 
Q 2778 3838 2640 4111 
Q 2503 4384 2181 4384 
z
M 2878 1900 
Q 2672 1734 2420 1651 
Q 2169 1569 1875 1569 
Q 1163 1569 755 1986 
Q 347 2403 347 3138 
Q 347 3913 803 4331 
Q 1259 4750 2106 4750 
Q 3063 4750 3556 4172 
Q 4050 3594 4050 2478 
Q 4050 1206 3503 557 
Q 2956 -91 1881 -91 
Q 1600 -91 1278 -44 
Q 956 3 588 97 
L 588 922 
L 966 922 
Q 1044 603 1261 439 
Q 1478 275 1825 275 
Q 2375 275 2625 658 
Q 2875 1041 2878 1900 
z
" transform="scale(0.015625)"/>
    </defs>
    <use xlink:href="#DejaVuSerif-Bold-45"/>
    <use xlink:href="#DejaVuSerif-Bold-78" transform="translate(76.220703 0)"/>
    <use xlink:href="#DejaVuSerif-Bold-70" transform="translate(135.839844 0)"/>
    <use xlink:href="#DejaVuSerif-Bold-2e" transform="translate(205.761719 0)"/>
    <use xlink:href="#DejaVuSerif-Bold-20" transform="translate(240.576172 0)"/>
    <use xlink:href="#DejaVuSerif-Bold-31" transform="translate(275.390625 0)"/>
    <use xlink:href="#DejaVuSerif-Bold-37" transform="translate(344.970703 0)"/>
    <use xlink:href="#DejaVuSerif-Bold-20" transform="translate(414.550781 0)"/>
    <use xlink:href="#DejaVuSerif-Bold-2013" transform="translate(449.365234 0)"/>
    <use xlink:href="#DejaVuSerif-Bold-20" transform="translate(499.365234 0)"/>
    <use xlink:href="#DejaVuSerif-Bold-46" transform="translate(534.179688 0)"/>
    <use xlink:href="#DejaVuSerif-Bold-61" transform="translate(599.675781 0)"/>
    <use xlink:href="#DejaVuSerif-Bold-72" transform="translate(664.470703 0)"/>
    <use xlink:href="#DejaVuSerif-Bold-62" transform="translate(717.15625 0)"/>
    <use xlink:href="#DejaVuSerif-Bold-64" transform="translate(787.078125 0)"/>
    <use xlink:href="#DejaVuSerif-Bold-69" transform="translate(857 0)"/>
    <use xlink:href="#DejaVuSerif-Bold-66" transform="translate(894.988281 0)"/>
    <use xlink:href="#DejaVuSerif-Bold-66" transform="translate(938.005859 0)"/>
    <use xlink:href="#DejaVuSerif-Bold-65" transform="translate(981.023438 0)"/>
    <use xlink:href="#DejaVuSerif-Bold-72" transform="translate(1044.646484 0)"/>
    <use xlink:href="#DejaVuSerif-Bold-65" transform="translate(1097.332031 0)"/>
    <use xlink:href="#DejaVuSerif-Bold-6e" transform="translate(1160.955078 0)"/>
    <use xlink:href="#DejaVuSerif-Bold-7a" transform="translate(1233.660156 0)"/>
    <use xlink:href="#DejaVuSerif-Bold-20" transform="translate(1290.447266 0)"/>
    <use xlink:href="#DejaVuSerif-Bold-394" transform="translate(1325.261719 0)"/>
    <use xlink:href="#DejaVuSerif-Bold-45" transform="translate(1402.849609 0)"/>
    <use xlink:href="#DejaVuSerif-Bold-20" transform="translate(1479.070312 0)"/>
    <use xlink:href="#DejaVuSerif-Bold-28" transform="translate(1513.884766 0)"/>
    <use xlink:href="#DejaVuSerif-Bold-44" transform="translate(1561.199219 0)"/>
    <use xlink:href="#DejaVuSerif-Bold-65" transform="translate(1647.917969 0)"/>
    <use xlink:href="#DejaVuSerif-Bold-66" transform="translate(1711.541016 0)"/>
    <use xlink:href="#DejaVuSerif-Bold-2e" transform="translate(1750.933594 0)"/>
    <use xlink:href="#DejaVuSerif-Bold-20" transform="translate(1785.748047 0)"/>
    <use xlink:href="#DejaVuSerif-Bold-37" transform="translate(1820.5625 0)"/>
    <use xlink:href="#DejaVuSerif-Bold-2e" transform="translate(1890.142578 0)"/>
    <use xlink:href="#DejaVuSerif-Bold-32" transform="translate(1924.957031 0)"/>
    <use xlink:href="#DejaVuSerif-Bold-29" transform="translate(1994.537109 0)"/>
    <use xlink:href="#DejaVuSerif-Bold-20" transform="translate(2041.851562 0)"/>
    <use xlink:href="#DejaVuSerif-Bold-75" transform="translate(2076.666016 0)"/>
    <use xlink:href="#DejaVuSerif-Bold-6e" transform="translate(2149.371094 0)"/>
    <use xlink:href="#DejaVuSerif-Bold-64" transform="translate(2222.076172 0)"/>
    <use xlink:href="#DejaVuSerif-Bold-20" transform="translate(2291.998047 0)"/>
    <use xlink:href="#DejaVuSerif-Bold-54" transform="translate(2326.8125 0)"/>
    <use xlink:href="#DejaVuSerif-Bold-61" transform="translate(2391.601562 0)"/>
    <use xlink:href="#DejaVuSerif-Bold-72" transform="translate(2456.396484 0)"/>
    <use xlink:href="#DejaVuSerif-Bold-6e" transform="translate(2509.082031 0)"/>
    <use xlink:href="#DejaVuSerif-Bold-69" transform="translate(2581.787109 0)"/>
    <use xlink:href="#DejaVuSerif-Bold-6e" transform="translate(2619.775391 0)"/>
    <use xlink:href="#DejaVuSerif-Bold-64" transform="translate(2692.480469 0)"/>
    <use xlink:href="#DejaVuSerif-Bold-65" transform="translate(2762.402344 0)"/>
    <use xlink:href="#DejaVuSerif-Bold-78" transform="translate(2826.025391 0)"/>
    <use xlink:href="#DejaVuSerif-Bold-20" transform="translate(2885.644531 0)"/>
    <use xlink:href="#DejaVuSerif-Bold-43" transform="translate(2920.458984 0)"/>
    <use xlink:href="#DejaVuSerif-Bold-20" transform="translate(3000.048828 0)"/>
    <use xlink:href="#DejaVuSerif-Bold-28" transform="translate(3034.863281 0)"/>
    <use xlink:href="#DejaVuSerif-Bold-44" transform="translate(3082.177734 0)"/>
    <use xlink:href="#DejaVuSerif-Bold-65" transform="translate(3168.896484 0)"/>
    <use xlink:href="#DejaVuSerif-Bold-66" transform="translate(3232.519531 0)"/>
    <use xlink:href="#DejaVuSerif-Bold-2e" transform="translate(3271.912109 0)"/>
    <use xlink:href="#DejaVuSerif-Bold-20" transform="translate(3306.726562 0)"/>
    <use xlink:href="#DejaVuSerif-Bold-39" transform="translate(3341.541016 0)"/>
    <use xlink:href="#DejaVuSerif-Bold-2e" transform="translate(3411.121094 0)"/>
    <use xlink:href="#DejaVuSerif-Bold-31" transform="translate(3445.935547 0)"/>
    <use xlink:href="#DejaVuSerif-Bold-29" transform="translate(3515.515625 0)"/>
   </g>
  </g>
 </g>
 <defs>
  <clipPath id="p940a2dd049">
   <rect x="52.39625" y="63.315" width="515.092" height="336.205"/>
  </clipPath>
  <clipPath id="pea89adbc8a">
   <rect x="618.38825" y="63.315" width="515.092" height="336.205"/>
  </clipPath>
 </defs>
</svg>
