<?xml version="1.0" encoding="utf-8" standalone="no"?>
<!DOCTYPE svg PUBLIC "-//W3C//DTD SVG 1.1//EN"
  "http://www.w3.org/Graphics/SVG/1.1/DTD/svg11.dtd">
<svg xmlns:xlink="http://www.w3.org/1999/xlink" width="782.07575pt" height="319.59625pt" viewBox="0 0 782.07575 319.59625" xmlns="http://www.w3.org/2000/svg" version="1.1">
 <metadata>
  <rdf:RDF xmlns:dc="http://purl.org/dc/elements/1.1/" xmlns:cc="http://creativecommons.org/ns#" xmlns:rdf="http://www.w3.org/1999/02/22-rdf-syntax-ns#">
   <cc:Work>
    <dc:type rdf:resource="http://purl.org/dc/dcmitype/StillImage"/>
    <dc:date>2026-02-23T10:53:10.016157</dc:date>
    <dc:format>image/svg+xml</dc:format>
    <dc:creator>
     <cc:Agent>
      <dc:title>Matplotlib v3.10.8, https://matplotlib.org/</dc:title>
     </cc:Agent>
    </dc:creator>
   </cc:Work>
  </rdf:RDF>
 </metadata>
 <defs>
  <style type="text/css">*{stroke-linejoin: round; stroke-linecap: butt}</style>
 </defs>
 <g id="figure_1">
  <g id="patch_1">
   <path d="M 0 319.59625 
L 782.07575 319.59625 
L 782.07575 0 
L 0 0 
z
" style="fill: #ffffff"/>
  </g>
  <g id="axes_1">
   <g id="patch_2">
    <path d="M 50.14375 282.04 
L 385.49975 282.04 
L 385.49975 51.36 
L 50.14375 51.36 
z
" style="fill: #ffffff"/>
   </g>
   <g id="patch_3">
    <path d="M 65.387205 282.04 
L 81.866615 282.04 
L 81.866615 62.344762 
L 65.387205 62.344762 
z
" clip-path="url(#p553edccc2c)" style="fill: #2196f3; opacity: 0.8"/>
   </g>
   <g id="patch_4">
    <path d="M 85.986467 282.04 
L 102.465878 282.04 
L 102.465878 128.253333 
L 85.986467 128.253333 
z
" clip-path="url(#p553edccc2c)" style="fill: #2196f3; opacity: 0.8"/>
   </g>
   <g id="patch_5">
    <path d="M 106.58573 282.04 
L 123.065141 282.04 
L 123.065141 174.389333 
L 106.58573 174.389333 
z
" clip-path="url(#p553edccc2c)" style="fill: #2196f3; opacity: 0.8"/>
   </g>
   <g id="patch_6">
    <path d="M 127.184993 282.04 
L 143.664404 282.04 
L 143.664404 206.684533 
L 127.184993 206.684533 
z
" clip-path="url(#p553edccc2c)" style="fill: #2196f3; opacity: 0.8"/>
   </g>
   <g id="patch_7">
    <path d="M 147.784256 282.04 
L 164.263666 282.04 
L 164.263666 229.291173 
L 147.784256 229.291173 
z
" clip-path="url(#p553edccc2c)" style="fill: #2196f3; opacity: 0.8"/>
   </g>
   <g id="patch_8">
    <path d="M 168.383519 282.04 
L 184.862929 282.04 
L 184.862929 245.115821 
L 168.383519 245.115821 
z
" clip-path="url(#p553edccc2c)" style="fill: #2196f3; opacity: 0.8"/>
   </g>
   <g id="patch_9">
    <path d="M 188.982782 282.04 
L 205.462192 282.04 
L 205.462192 256.193075 
L 188.982782 256.193075 
z
" clip-path="url(#p553edccc2c)" style="fill: #2196f3; opacity: 0.8"/>
   </g>
   <g id="patch_10">
    <path d="M 209.582045 282.04 
L 226.061455 282.04 
L 226.061455 263.947152 
L 209.582045 263.947152 
z
" clip-path="url(#p553edccc2c)" style="fill: #2196f3; opacity: 0.8"/>
   </g>
   <g id="patch_11">
    <path d="M 230.181308 282.04 
L 246.660718 282.04 
L 246.660718 269.375007 
L 230.181308 269.375007 
z
" clip-path="url(#p553edccc2c)" style="fill: #2196f3; opacity: 0.8"/>
   </g>
   <g id="patch_12">
    <path d="M 250.780571 282.04 
L 267.259981 282.04 
L 267.259981 273.174505 
L 250.780571 273.174505 
z
" clip-path="url(#p553edccc2c)" style="fill: #2196f3; opacity: 0.8"/>
   </g>
   <g id="patch_13">
    <path d="M 271.379834 282.04 
L 287.859244 282.04 
L 287.859244 275.834153 
L 271.379834 275.834153 
z
" clip-path="url(#p553edccc2c)" style="fill: #2196f3; opacity: 0.8"/>
   </g>
   <g id="patch_14">
    <path d="M 291.979096 282.04 
L 308.458507 282.04 
L 308.458507 277.695907 
L 291.979096 277.695907 
z
" clip-path="url(#p553edccc2c)" style="fill: #2196f3; opacity: 0.8"/>
   </g>
   <g id="patch_15">
    <path d="M 312.578359 282.04 
L 329.05777 282.04 
L 329.05777 278.999135 
L 312.578359 278.999135 
z
" clip-path="url(#p553edccc2c)" style="fill: #2196f3; opacity: 0.8"/>
   </g>
   <g id="patch_16">
    <path d="M 333.177622 282.04 
L 349.657033 282.04 
L 349.657033 279.911395 
L 333.177622 279.911395 
z
" clip-path="url(#p553edccc2c)" style="fill: #2196f3; opacity: 0.8"/>
   </g>
   <g id="patch_17">
    <path d="M 353.776885 282.04 
L 370.256295 282.04 
L 370.256295 280.549976 
L 353.776885 280.549976 
z
" clip-path="url(#p553edccc2c)" style="fill: #2196f3; opacity: 0.8"/>
   </g>
   <g id="matplotlib.axis_1">
    <g id="xtick_1">
     <g id="line2d_1">
      <defs>
       <path id="mb9ce410f4c" d="M 0 0 
L 0 3.5 
" style="stroke: #000000; stroke-width: 0.8"/>
      </defs>
      <g>
       <use xlink:href="#mb9ce410f4c" x="73.62691" y="282.04" style="stroke: #000000; stroke-width: 0.8"/>
      </g>
     </g>
     <g id="text_1">
      <!-- 0 -->
      <g transform="translate(70.44566 296.638437) scale(0.1 -0.1)">
       <defs>
        <path id="DejaVuSans-30" d="M 2034 4250 
Q 1547 4250 1301 3770 
Q 1056 3291 1056 2328 
Q 1056 1369 1301 889 
Q 1547 409 2034 409 
Q 2525 409 2770 889 
Q 3016 1369 3016 2328 
Q 3016 3291 2770 3770 
Q 2525 4250 2034 4250 
z
M 2034 4750 
Q 2819 4750 3233 4129 
Q 3647 3509 3647 2328 
Q 3647 1150 3233 529 
Q 2819 -91 2034 -91 
Q 1250 -91 836 529 
Q 422 1150 422 2328 
Q 422 3509 836 4129 
Q 1250 4750 2034 4750 
z
" transform="scale(0.015625)"/>
       </defs>
       <use xlink:href="#DejaVuSans-30"/>
      </g>
     </g>
    </g>
    <g id="xtick_2">
     <g id="line2d_2">
      <g>
       <use xlink:href="#mb9ce410f4c" x="114.825436" y="282.04" style="stroke: #000000; stroke-width: 0.8"/>
      </g>
     </g>
     <g id="text_2">
      <!-- 2 -->
      <g transform="translate(111.644186 296.638437) scale(0.1 -0.1)">
       <defs>
        <path id="DejaVuSans-32" d="M 1228 531 
L 3431 531 
L 3431 0 
L 469 0 
L 469 531 
Q 828 903 1448 1529 
Q 2069 2156 2228 2338 
Q 2531 2678 2651 2914 
Q 2772 3150 2772 3378 
Q 2772 3750 2511 3984 
Q 2250 4219 1831 4219 
Q 1534 4219 1204 4116 
Q 875 4013 500 3803 
L 500 4441 
Q 881 4594 1212 4672 
Q 1544 4750 1819 4750 
Q 2544 4750 2975 4387 
Q 3406 4025 3406 3419 
Q 3406 3131 3298 2873 
Q 3191 2616 2906 2266 
Q 2828 2175 2409 1742 
Q 1991 1309 1228 531 
z
" transform="scale(0.015625)"/>
       </defs>
       <use xlink:href="#DejaVuSans-32"/>
      </g>
     </g>
    </g>
    <g id="xtick_3">
     <g id="line2d_3">
      <g>
       <use xlink:href="#mb9ce410f4c" x="156.023961" y="282.04" style="stroke: #000000; stroke-width: 0.8"/>
      </g>
     </g>
     <g id="text_3">
      <!-- 4 -->
      <g transform="translate(152.842711 296.638437) scale(0.1 -0.1)">
       <defs>
        <path id="DejaVuSans-34" d="M 2419 4116 
L 825 1625 
L 2419 1625 
L 2419 4116 
z
M 2253 4666 
L 3047 4666 
L 3047 1625 
L 3713 1625 
L 3713 1100 
L 3047 1100 
L 3047 0 
L 2419 0 
L 2419 1100 
L 313 1100 
L 313 1709 
L 2253 4666 
z
" transform="scale(0.015625)"/>
       </defs>
       <use xlink:href="#DejaVuSans-34"/>
      </g>
     </g>
    </g>
    <g id="xtick_4">
     <g id="line2d_4">
      <g>
       <use xlink:href="#mb9ce410f4c" x="197.222487" y="282.04" style="stroke: #000000; stroke-width: 0.8"/>
      </g>
     </g>
     <g id="text_4">
      <!-- 6 -->
      <g transform="translate(194.041237 296.638437) scale(0.1 -0.1)">
       <defs>
        <path id="DejaVuSans-36" d="M 2113 2584 
Q 1688 2584 1439 2293 
Q 1191 2003 1191 1497 
Q 1191 994 1439 701 
Q 1688 409 2113 409 
Q 2538 409 2786 701 
Q 3034 994 3034 1497 
Q 3034 2003 2786 2293 
Q 2538 2584 2113 2584 
z
M 3366 4563 
L 3366 3988 
Q 3128 4100 2886 4159 
Q 2644 4219 2406 4219 
Q 1781 4219 1451 3797 
Q 1122 3375 1075 2522 
Q 1259 2794 1537 2939 
Q 1816 3084 2150 3084 
Q 2853 3084 3261 2657 
Q 3669 2231 3669 1497 
Q 3669 778 3244 343 
Q 2819 -91 2113 -91 
Q 1303 -91 875 529 
Q 447 1150 447 2328 
Q 447 3434 972 4092 
Q 1497 4750 2381 4750 
Q 2619 4750 2861 4703 
Q 3103 4656 3366 4563 
z
" transform="scale(0.015625)"/>
       </defs>
       <use xlink:href="#DejaVuSans-36"/>
      </g>
     </g>
    </g>
    <g id="xtick_5">
     <g id="line2d_5">
      <g>
       <use xlink:href="#mb9ce410f4c" x="238.421013" y="282.04" style="stroke: #000000; stroke-width: 0.8"/>
      </g>
     </g>
     <g id="text_5">
      <!-- 8 -->
      <g transform="translate(235.239763 296.638437) scale(0.1 -0.1)">
       <defs>
        <path id="DejaVuSans-38" d="M 2034 2216 
Q 1584 2216 1326 1975 
Q 1069 1734 1069 1313 
Q 1069 891 1326 650 
Q 1584 409 2034 409 
Q 2484 409 2743 651 
Q 3003 894 3003 1313 
Q 3003 1734 2745 1975 
Q 2488 2216 2034 2216 
z
M 1403 2484 
Q 997 2584 770 2862 
Q 544 3141 544 3541 
Q 544 4100 942 4425 
Q 1341 4750 2034 4750 
Q 2731 4750 3128 4425 
Q 3525 4100 3525 3541 
Q 3525 3141 3298 2862 
Q 3072 2584 2669 2484 
Q 3125 2378 3379 2068 
Q 3634 1759 3634 1313 
Q 3634 634 3220 271 
Q 2806 -91 2034 -91 
Q 1263 -91 848 271 
Q 434 634 434 1313 
Q 434 1759 690 2068 
Q 947 2378 1403 2484 
z
M 1172 3481 
Q 1172 3119 1398 2916 
Q 1625 2713 2034 2713 
Q 2441 2713 2670 2916 
Q 2900 3119 2900 3481 
Q 2900 3844 2670 4047 
Q 2441 4250 2034 4250 
Q 1625 4250 1398 4047 
Q 1172 3844 1172 3481 
z
" transform="scale(0.015625)"/>
       </defs>
       <use xlink:href="#DejaVuSans-38"/>
      </g>
     </g>
    </g>
    <g id="xtick_6">
     <g id="line2d_6">
      <g>
       <use xlink:href="#mb9ce410f4c" x="279.619539" y="282.04" style="stroke: #000000; stroke-width: 0.8"/>
      </g>
     </g>
     <g id="text_6">
      <!-- 10 -->
      <g transform="translate(273.257039 296.638437) scale(0.1 -0.1)">
       <defs>
        <path id="DejaVuSans-31" d="M 794 531 
L 1825 531 
L 1825 4091 
L 703 3866 
L 703 4441 
L 1819 4666 
L 2450 4666 
L 2450 531 
L 3481 531 
L 3481 0 
L 794 0 
L 794 531 
z
" transform="scale(0.015625)"/>
       </defs>
       <use xlink:href="#DejaVuSans-31"/>
       <use xlink:href="#DejaVuSans-30" transform="translate(63.623047 0)"/>
      </g>
     </g>
    </g>
    <g id="xtick_7">
     <g id="line2d_7">
      <g>
       <use xlink:href="#mb9ce410f4c" x="320.818064" y="282.04" style="stroke: #000000; stroke-width: 0.8"/>
      </g>
     </g>
     <g id="text_7">
      <!-- 12 -->
      <g transform="translate(314.455564 296.638437) scale(0.1 -0.1)">
       <use xlink:href="#DejaVuSans-31"/>
       <use xlink:href="#DejaVuSans-32" transform="translate(63.623047 0)"/>
      </g>
     </g>
    </g>
    <g id="xtick_8">
     <g id="line2d_8">
      <g>
       <use xlink:href="#mb9ce410f4c" x="362.01659" y="282.04" style="stroke: #000000; stroke-width: 0.8"/>
      </g>
     </g>
     <g id="text_8">
      <!-- 14 -->
      <g transform="translate(355.65409 296.638437) scale(0.1 -0.1)">
       <use xlink:href="#DejaVuSans-31"/>
       <use xlink:href="#DejaVuSans-34" transform="translate(63.623047 0)"/>
      </g>
     </g>
    </g>
    <g id="text_9">
     <!-- Zustandsindex $n$ -->
     <g transform="translate(176.12175 310.316562) scale(0.1 -0.1)">
      <defs>
       <path id="DejaVuSans-5a" d="M 359 4666 
L 4025 4666 
L 4025 4184 
L 1075 531 
L 4097 531 
L 4097 0 
L 288 0 
L 288 481 
L 3238 4134 
L 359 4134 
L 359 4666 
z
" transform="scale(0.015625)"/>
       <path id="DejaVuSans-75" d="M 544 1381 
L 544 3500 
L 1119 3500 
L 1119 1403 
Q 1119 906 1312 657 
Q 1506 409 1894 409 
Q 2359 409 2629 706 
Q 2900 1003 2900 1516 
L 2900 3500 
L 3475 3500 
L 3475 0 
L 2900 0 
L 2900 538 
Q 2691 219 2414 64 
Q 2138 -91 1772 -91 
Q 1169 -91 856 284 
Q 544 659 544 1381 
z
M 1991 3584 
L 1991 3584 
z
" transform="scale(0.015625)"/>
       <path id="DejaVuSans-73" d="M 2834 3397 
L 2834 2853 
Q 2591 2978 2328 3040 
Q 2066 3103 1784 3103 
Q 1356 3103 1142 2972 
Q 928 2841 928 2578 
Q 928 2378 1081 2264 
Q 1234 2150 1697 2047 
L 1894 2003 
Q 2506 1872 2764 1633 
Q 3022 1394 3022 966 
Q 3022 478 2636 193 
Q 2250 -91 1575 -91 
Q 1294 -91 989 -36 
Q 684 19 347 128 
L 347 722 
Q 666 556 975 473 
Q 1284 391 1588 391 
Q 1994 391 2212 530 
Q 2431 669 2431 922 
Q 2431 1156 2273 1281 
Q 2116 1406 1581 1522 
L 1381 1569 
Q 847 1681 609 1914 
Q 372 2147 372 2553 
Q 372 3047 722 3315 
Q 1072 3584 1716 3584 
Q 2034 3584 2315 3537 
Q 2597 3491 2834 3397 
z
" transform="scale(0.015625)"/>
       <path id="DejaVuSans-74" d="M 1172 4494 
L 1172 3500 
L 2356 3500 
L 2356 3053 
L 1172 3053 
L 1172 1153 
Q 1172 725 1289 603 
Q 1406 481 1766 481 
L 2356 481 
L 2356 0 
L 1766 0 
Q 1100 0 847 248 
Q 594 497 594 1153 
L 594 3053 
L 172 3053 
L 172 3500 
L 594 3500 
L 594 4494 
L 1172 4494 
z
" transform="scale(0.015625)"/>
       <path id="DejaVuSans-61" d="M 2194 1759 
Q 1497 1759 1228 1600 
Q 959 1441 959 1056 
Q 959 750 1161 570 
Q 1363 391 1709 391 
Q 2188 391 2477 730 
Q 2766 1069 2766 1631 
L 2766 1759 
L 2194 1759 
z
M 3341 1997 
L 3341 0 
L 2766 0 
L 2766 531 
Q 2569 213 2275 61 
Q 1981 -91 1556 -91 
Q 1019 -91 701 211 
Q 384 513 384 1019 
Q 384 1609 779 1909 
Q 1175 2209 1959 2209 
L 2766 2209 
L 2766 2266 
Q 2766 2663 2505 2880 
Q 2244 3097 1772 3097 
Q 1472 3097 1187 3025 
Q 903 2953 641 2809 
L 641 3341 
Q 956 3463 1253 3523 
Q 1550 3584 1831 3584 
Q 2591 3584 2966 3190 
Q 3341 2797 3341 1997 
z
" transform="scale(0.015625)"/>
       <path id="DejaVuSans-6e" d="M 3513 2113 
L 3513 0 
L 2938 0 
L 2938 2094 
Q 2938 2591 2744 2837 
Q 2550 3084 2163 3084 
Q 1697 3084 1428 2787 
Q 1159 2491 1159 1978 
L 1159 0 
L 581 0 
L 581 3500 
L 1159 3500 
L 1159 2956 
Q 1366 3272 1645 3428 
Q 1925 3584 2291 3584 
Q 2894 3584 3203 3211 
Q 3513 2838 3513 2113 
z
" transform="scale(0.015625)"/>
       <path id="DejaVuSans-64" d="M 2906 2969 
L 2906 4863 
L 3481 4863 
L 3481 0 
L 2906 0 
L 2906 525 
Q 2725 213 2448 61 
Q 2172 -91 1784 -91 
Q 1150 -91 751 415 
Q 353 922 353 1747 
Q 353 2572 751 3078 
Q 1150 3584 1784 3584 
Q 2172 3584 2448 3432 
Q 2725 3281 2906 2969 
z
M 947 1747 
Q 947 1113 1208 752 
Q 1469 391 1925 391 
Q 2381 391 2643 752 
Q 2906 1113 2906 1747 
Q 2906 2381 2643 2742 
Q 2381 3103 1925 3103 
Q 1469 3103 1208 2742 
Q 947 2381 947 1747 
z
" transform="scale(0.015625)"/>
       <path id="DejaVuSans-69" d="M 603 3500 
L 1178 3500 
L 1178 0 
L 603 0 
L 603 3500 
z
M 603 4863 
L 1178 4863 
L 1178 4134 
L 603 4134 
L 603 4863 
z
" transform="scale(0.015625)"/>
       <path id="DejaVuSans-65" d="M 3597 1894 
L 3597 1613 
L 953 1613 
Q 991 1019 1311 708 
Q 1631 397 2203 397 
Q 2534 397 2845 478 
Q 3156 559 3463 722 
L 3463 178 
Q 3153 47 2828 -22 
Q 2503 -91 2169 -91 
Q 1331 -91 842 396 
Q 353 884 353 1716 
Q 353 2575 817 3079 
Q 1281 3584 2069 3584 
Q 2775 3584 3186 3129 
Q 3597 2675 3597 1894 
z
M 3022 2063 
Q 3016 2534 2758 2815 
Q 2500 3097 2075 3097 
Q 1594 3097 1305 2825 
Q 1016 2553 972 2059 
L 3022 2063 
z
" transform="scale(0.015625)"/>
       <path id="DejaVuSans-78" d="M 3513 3500 
L 2247 1797 
L 3578 0 
L 2900 0 
L 1881 1375 
L 863 0 
L 184 0 
L 1544 1831 
L 300 3500 
L 978 3500 
L 1906 2253 
L 2834 3500 
L 3513 3500 
z
" transform="scale(0.015625)"/>
       <path id="DejaVuSans-20" transform="scale(0.015625)"/>
       <path id="DejaVuSans-Oblique-6e" d="M 3566 2113 
L 3156 0 
L 2578 0 
L 2988 2091 
Q 3016 2238 3031 2350 
Q 3047 2463 3047 2528 
Q 3047 2791 2881 2937 
Q 2716 3084 2419 3084 
Q 1956 3084 1622 2776 
Q 1288 2469 1184 1941 
L 800 0 
L 225 0 
L 903 3500 
L 1478 3500 
L 1363 2950 
Q 1603 3253 1940 3418 
Q 2278 3584 2650 3584 
Q 3113 3584 3367 3334 
Q 3622 3084 3622 2631 
Q 3622 2519 3608 2391 
Q 3594 2263 3566 2113 
z
" transform="scale(0.015625)"/>
      </defs>
      <use xlink:href="#DejaVuSans-5a" transform="translate(0 0.015625)"/>
      <use xlink:href="#DejaVuSans-75" transform="translate(68.505859 0.015625)"/>
      <use xlink:href="#DejaVuSans-73" transform="translate(131.884766 0.015625)"/>
      <use xlink:href="#DejaVuSans-74" transform="translate(183.984375 0.015625)"/>
      <use xlink:href="#DejaVuSans-61" transform="translate(223.193359 0.015625)"/>
      <use xlink:href="#DejaVuSans-6e" transform="translate(284.472656 0.015625)"/>
      <use xlink:href="#DejaVuSans-64" transform="translate(347.851562 0.015625)"/>
      <use xlink:href="#DejaVuSans-73" transform="translate(411.328125 0.015625)"/>
      <use xlink:href="#DejaVuSans-69" transform="translate(463.427734 0.015625)"/>
      <use xlink:href="#DejaVuSans-6e" transform="translate(491.210938 0.015625)"/>
      <use xlink:href="#DejaVuSans-64" transform="translate(554.589844 0.015625)"/>
      <use xlink:href="#DejaVuSans-65" transform="translate(618.066406 0.015625)"/>
      <use xlink:href="#DejaVuSans-78" transform="translate(679.589844 0.015625)"/>
      <use xlink:href="#DejaVuSans-20" transform="translate(738.769531 0.015625)"/>
      <use xlink:href="#DejaVuSans-Oblique-6e" transform="translate(770.556641 0.015625)"/>
     </g>
    </g>
   </g>
   <g id="matplotlib.axis_2">
    <g id="ytick_1">
     <g id="line2d_9">
      <defs>
       <path id="medc621ef8a" d="M 0 0 
L -3.5 0 
" style="stroke: #000000; stroke-width: 0.8"/>
      </defs>
      <g>
       <use xlink:href="#medc621ef8a" x="50.14375" y="282.04" style="stroke: #000000; stroke-width: 0.8"/>
      </g>
     </g>
     <g id="text_10">
      <!-- 0.00 -->
      <g transform="translate(20.878125 285.839219) scale(0.1 -0.1)">
       <defs>
        <path id="DejaVuSans-2e" d="M 684 794 
L 1344 794 
L 1344 0 
L 684 0 
L 684 794 
z
" transform="scale(0.015625)"/>
       </defs>
       <use xlink:href="#DejaVuSans-30"/>
       <use xlink:href="#DejaVuSans-2e" transform="translate(63.623047 0)"/>
       <use xlink:href="#DejaVuSans-30" transform="translate(95.410156 0)"/>
       <use xlink:href="#DejaVuSans-30" transform="translate(159.033203 0)"/>
      </g>
     </g>
    </g>
    <g id="ytick_2">
     <g id="line2d_10">
      <g>
       <use xlink:href="#medc621ef8a" x="50.14375" y="245.424127" style="stroke: #000000; stroke-width: 0.8"/>
      </g>
     </g>
     <g id="text_11">
      <!-- 0.05 -->
      <g transform="translate(20.878125 249.223346) scale(0.1 -0.1)">
       <defs>
        <path id="DejaVuSans-35" d="M 691 4666 
L 3169 4666 
L 3169 4134 
L 1269 4134 
L 1269 2991 
Q 1406 3038 1543 3061 
Q 1681 3084 1819 3084 
Q 2600 3084 3056 2656 
Q 3513 2228 3513 1497 
Q 3513 744 3044 326 
Q 2575 -91 1722 -91 
Q 1428 -91 1123 -41 
Q 819 9 494 109 
L 494 744 
Q 775 591 1075 516 
Q 1375 441 1709 441 
Q 2250 441 2565 725 
Q 2881 1009 2881 1497 
Q 2881 1984 2565 2268 
Q 2250 2553 1709 2553 
Q 1456 2553 1204 2497 
Q 953 2441 691 2322 
L 691 4666 
z
" transform="scale(0.015625)"/>
       </defs>
       <use xlink:href="#DejaVuSans-30"/>
       <use xlink:href="#DejaVuSans-2e" transform="translate(63.623047 0)"/>
       <use xlink:href="#DejaVuSans-30" transform="translate(95.410156 0)"/>
       <use xlink:href="#DejaVuSans-35" transform="translate(159.033203 0)"/>
      </g>
     </g>
    </g>
    <g id="ytick_3">
     <g id="line2d_11">
      <g>
       <use xlink:href="#medc621ef8a" x="50.14375" y="208.808254" style="stroke: #000000; stroke-width: 0.8"/>
      </g>
     </g>
     <g id="text_12">
      <!-- 0.10 -->
      <g transform="translate(20.878125 212.607473) scale(0.1 -0.1)">
       <use xlink:href="#DejaVuSans-30"/>
       <use xlink:href="#DejaVuSans-2e" transform="translate(63.623047 0)"/>
       <use xlink:href="#DejaVuSans-31" transform="translate(95.410156 0)"/>
       <use xlink:href="#DejaVuSans-30" transform="translate(159.033203 0)"/>
      </g>
     </g>
    </g>
    <g id="ytick_4">
     <g id="line2d_12">
      <g>
       <use xlink:href="#medc621ef8a" x="50.14375" y="172.192381" style="stroke: #000000; stroke-width: 0.8"/>
      </g>
     </g>
     <g id="text_13">
      <!-- 0.15 -->
      <g transform="translate(20.878125 175.9916) scale(0.1 -0.1)">
       <use xlink:href="#DejaVuSans-30"/>
       <use xlink:href="#DejaVuSans-2e" transform="translate(63.623047 0)"/>
       <use xlink:href="#DejaVuSans-31" transform="translate(95.410156 0)"/>
       <use xlink:href="#DejaVuSans-35" transform="translate(159.033203 0)"/>
      </g>
     </g>
    </g>
    <g id="ytick_5">
     <g id="line2d_13">
      <g>
       <use xlink:href="#medc621ef8a" x="50.14375" y="135.576508" style="stroke: #000000; stroke-width: 0.8"/>
      </g>
     </g>
     <g id="text_14">
      <!-- 0.20 -->
      <g transform="translate(20.878125 139.375727) scale(0.1 -0.1)">
       <use xlink:href="#DejaVuSans-30"/>
       <use xlink:href="#DejaVuSans-2e" transform="translate(63.623047 0)"/>
       <use xlink:href="#DejaVuSans-32" transform="translate(95.410156 0)"/>
       <use xlink:href="#DejaVuSans-30" transform="translate(159.033203 0)"/>
      </g>
     </g>
    </g>
    <g id="ytick_6">
     <g id="line2d_14">
      <g>
       <use xlink:href="#medc621ef8a" x="50.14375" y="98.960635" style="stroke: #000000; stroke-width: 0.8"/>
      </g>
     </g>
     <g id="text_15">
      <!-- 0.25 -->
      <g transform="translate(20.878125 102.759854) scale(0.1 -0.1)">
       <use xlink:href="#DejaVuSans-30"/>
       <use xlink:href="#DejaVuSans-2e" transform="translate(63.623047 0)"/>
       <use xlink:href="#DejaVuSans-32" transform="translate(95.410156 0)"/>
       <use xlink:href="#DejaVuSans-35" transform="translate(159.033203 0)"/>
      </g>
     </g>
    </g>
    <g id="ytick_7">
     <g id="line2d_15">
      <g>
       <use xlink:href="#medc621ef8a" x="50.14375" y="62.344762" style="stroke: #000000; stroke-width: 0.8"/>
      </g>
     </g>
     <g id="text_16">
      <!-- 0.30 -->
      <g transform="translate(20.878125 66.143981) scale(0.1 -0.1)">
       <defs>
        <path id="DejaVuSans-33" d="M 2597 2516 
Q 3050 2419 3304 2112 
Q 3559 1806 3559 1356 
Q 3559 666 3084 287 
Q 2609 -91 1734 -91 
Q 1441 -91 1130 -33 
Q 819 25 488 141 
L 488 750 
Q 750 597 1062 519 
Q 1375 441 1716 441 
Q 2309 441 2620 675 
Q 2931 909 2931 1356 
Q 2931 1769 2642 2001 
Q 2353 2234 1838 2234 
L 1294 2234 
L 1294 2753 
L 1863 2753 
Q 2328 2753 2575 2939 
Q 2822 3125 2822 3475 
Q 2822 3834 2567 4026 
Q 2313 4219 1838 4219 
Q 1578 4219 1281 4162 
Q 984 4106 628 3988 
L 628 4550 
Q 988 4650 1302 4700 
Q 1616 4750 1894 4750 
Q 2613 4750 3031 4423 
Q 3450 4097 3450 3541 
Q 3450 3153 3228 2886 
Q 3006 2619 2597 2516 
z
" transform="scale(0.015625)"/>
       </defs>
       <use xlink:href="#DejaVuSans-30"/>
       <use xlink:href="#DejaVuSans-2e" transform="translate(63.623047 0)"/>
       <use xlink:href="#DejaVuSans-33" transform="translate(95.410156 0)"/>
       <use xlink:href="#DejaVuSans-30" transform="translate(159.033203 0)"/>
      </g>
     </g>
    </g>
    <g id="text_17">
     <!-- Wahrscheinlichkeit $\pi_n$ -->
     <g transform="translate(14.798438 221.1) rotate(-90) scale(0.1 -0.1)">
      <defs>
       <path id="DejaVuSans-57" d="M 213 4666 
L 850 4666 
L 1831 722 
L 2809 4666 
L 3519 4666 
L 4500 722 
L 5478 4666 
L 6119 4666 
L 4947 0 
L 4153 0 
L 3169 4050 
L 2175 0 
L 1381 0 
L 213 4666 
z
" transform="scale(0.015625)"/>
       <path id="DejaVuSans-68" d="M 3513 2113 
L 3513 0 
L 2938 0 
L 2938 2094 
Q 2938 2591 2744 2837 
Q 2550 3084 2163 3084 
Q 1697 3084 1428 2787 
Q 1159 2491 1159 1978 
L 1159 0 
L 581 0 
L 581 4863 
L 1159 4863 
L 1159 2956 
Q 1366 3272 1645 3428 
Q 1925 3584 2291 3584 
Q 2894 3584 3203 3211 
Q 3513 2838 3513 2113 
z
" transform="scale(0.015625)"/>
       <path id="DejaVuSans-72" d="M 2631 2963 
Q 2534 3019 2420 3045 
Q 2306 3072 2169 3072 
Q 1681 3072 1420 2755 
Q 1159 2438 1159 1844 
L 1159 0 
L 581 0 
L 581 3500 
L 1159 3500 
L 1159 2956 
Q 1341 3275 1631 3429 
Q 1922 3584 2338 3584 
Q 2397 3584 2469 3576 
Q 2541 3569 2628 3553 
L 2631 2963 
z
" transform="scale(0.015625)"/>
       <path id="DejaVuSans-63" d="M 3122 3366 
L 3122 2828 
Q 2878 2963 2633 3030 
Q 2388 3097 2138 3097 
Q 1578 3097 1268 2742 
Q 959 2388 959 1747 
Q 959 1106 1268 751 
Q 1578 397 2138 397 
Q 2388 397 2633 464 
Q 2878 531 3122 666 
L 3122 134 
Q 2881 22 2623 -34 
Q 2366 -91 2075 -91 
Q 1284 -91 818 406 
Q 353 903 353 1747 
Q 353 2603 823 3093 
Q 1294 3584 2113 3584 
Q 2378 3584 2631 3529 
Q 2884 3475 3122 3366 
z
" transform="scale(0.015625)"/>
       <path id="DejaVuSans-6c" d="M 603 4863 
L 1178 4863 
L 1178 0 
L 603 0 
L 603 4863 
z
" transform="scale(0.015625)"/>
       <path id="DejaVuSans-6b" d="M 581 4863 
L 1159 4863 
L 1159 1991 
L 2875 3500 
L 3609 3500 
L 1753 1863 
L 3688 0 
L 2938 0 
L 1159 1709 
L 1159 0 
L 581 0 
L 581 4863 
z
" transform="scale(0.015625)"/>
       <path id="DejaVuSans-Oblique-3c0" d="M 584 3500 
L 3938 3500 
L 3825 2925 
L 3384 2925 
L 2966 775 
Q 2922 550 2981 450 
Q 3038 353 3209 353 
Q 3256 353 3325 363 
Q 3397 369 3419 372 
L 3338 -44 
Q 3222 -84 3103 -103 
Q 2981 -122 2866 -122 
Q 2491 -122 2388 81 
Q 2284 288 2391 838 
L 2797 2925 
L 1506 2925 
L 938 0 
L 350 0 
L 919 2925 
L 472 2925 
L 584 3500 
z
" transform="scale(0.015625)"/>
      </defs>
      <use xlink:href="#DejaVuSans-57" transform="translate(0 0.015625)"/>
      <use xlink:href="#DejaVuSans-61" transform="translate(98.876953 0.015625)"/>
      <use xlink:href="#DejaVuSans-68" transform="translate(160.15625 0.015625)"/>
      <use xlink:href="#DejaVuSans-72" transform="translate(223.535156 0.015625)"/>
      <use xlink:href="#DejaVuSans-73" transform="translate(264.648438 0.015625)"/>
      <use xlink:href="#DejaVuSans-63" transform="translate(316.748047 0.015625)"/>
      <use xlink:href="#DejaVuSans-68" transform="translate(371.728516 0.015625)"/>
      <use xlink:href="#DejaVuSans-65" transform="translate(435.107422 0.015625)"/>
      <use xlink:href="#DejaVuSans-69" transform="translate(496.630859 0.015625)"/>
      <use xlink:href="#DejaVuSans-6e" transform="translate(524.414062 0.015625)"/>
      <use xlink:href="#DejaVuSans-6c" transform="translate(587.792969 0.015625)"/>
      <use xlink:href="#DejaVuSans-69" transform="translate(615.576172 0.015625)"/>
      <use xlink:href="#DejaVuSans-63" transform="translate(643.359375 0.015625)"/>
      <use xlink:href="#DejaVuSans-68" transform="translate(698.339844 0.015625)"/>
      <use xlink:href="#DejaVuSans-6b" transform="translate(761.71875 0.015625)"/>
      <use xlink:href="#DejaVuSans-65" transform="translate(819.628906 0.015625)"/>
      <use xlink:href="#DejaVuSans-69" transform="translate(881.152344 0.015625)"/>
      <use xlink:href="#DejaVuSans-74" transform="translate(908.935547 0.015625)"/>
      <use xlink:href="#DejaVuSans-20" transform="translate(948.144531 0.015625)"/>
      <use xlink:href="#DejaVuSans-Oblique-3c0" transform="translate(979.931641 0.015625)"/>
      <use xlink:href="#DejaVuSans-Oblique-6e" transform="translate(1040.136719 -16.390625) scale(0.7)"/>
     </g>
    </g>
   </g>
   <g id="patch_18">
    <path d="M 50.14375 282.04 
L 50.14375 51.36 
" style="fill: none; stroke: #000000; stroke-width: 0.8; stroke-linejoin: miter; stroke-linecap: square"/>
   </g>
   <g id="patch_19">
    <path d="M 385.49975 282.04 
L 385.49975 51.36 
" style="fill: none; stroke: #000000; stroke-width: 0.8; stroke-linejoin: miter; stroke-linecap: square"/>
   </g>
   <g id="patch_20">
    <path d="M 50.14375 282.04 
L 385.49975 282.04 
" style="fill: none; stroke: #000000; stroke-width: 0.8; stroke-linejoin: miter; stroke-linecap: square"/>
   </g>
   <g id="patch_21">
    <path d="M 50.14375 51.36 
L 385.49975 51.36 
" style="fill: none; stroke: #000000; stroke-width: 0.8; stroke-linejoin: miter; stroke-linecap: square"/>
   </g>
   <g id="text_18">
    <g id="patch_22">
     <path d="M 322.185789 94.460375 
L 375.43907 94.460375 
Q 378.13907 94.460375 378.13907 91.760375 
L 378.13907 62.894 
Q 378.13907 60.194 375.43907 60.194 
L 322.185789 60.194 
Q 319.485789 60.194 319.485789 62.894 
L 319.485789 91.760375 
Q 319.485789 94.460375 322.185789 94.460375 
z
" style="fill: #add8e6; opacity: 0.6; stroke: #000000; stroke-linejoin: miter"/>
    </g>
    <!-- L = 2.333 -->
    <g transform="translate(331.396726 69.732594) scale(0.09 -0.09)">
     <defs>
      <path id="DejaVuSans-4c" d="M 628 4666 
L 1259 4666 
L 1259 531 
L 3531 531 
L 3531 0 
L 628 0 
L 628 4666 
z
" transform="scale(0.015625)"/>
      <path id="DejaVuSans-3d" d="M 678 2906 
L 4684 2906 
L 4684 2381 
L 678 2381 
L 678 2906 
z
M 678 1631 
L 4684 1631 
L 4684 1100 
L 678 1100 
L 678 1631 
z
" transform="scale(0.015625)"/>
     </defs>
     <use xlink:href="#DejaVuSans-4c"/>
     <use xlink:href="#DejaVuSans-20" transform="translate(55.712891 0)"/>
     <use xlink:href="#DejaVuSans-3d" transform="translate(87.5 0)"/>
     <use xlink:href="#DejaVuSans-20" transform="translate(171.289062 0)"/>
     <use xlink:href="#DejaVuSans-32" transform="translate(203.076172 0)"/>
     <use xlink:href="#DejaVuSans-2e" transform="translate(266.699219 0)"/>
     <use xlink:href="#DejaVuSans-33" transform="translate(298.486328 0)"/>
     <use xlink:href="#DejaVuSans-33" transform="translate(362.109375 0)"/>
     <use xlink:href="#DejaVuSans-33" transform="translate(425.732422 0)"/>
    </g>
    <!-- W = 3.333 -->
    <g transform="translate(327.512664 79.810625) scale(0.09 -0.09)">
     <use xlink:href="#DejaVuSans-57"/>
     <use xlink:href="#DejaVuSans-20" transform="translate(98.876953 0)"/>
     <use xlink:href="#DejaVuSans-3d" transform="translate(130.664062 0)"/>
     <use xlink:href="#DejaVuSans-20" transform="translate(214.453125 0)"/>
     <use xlink:href="#DejaVuSans-33" transform="translate(246.240234 0)"/>
     <use xlink:href="#DejaVuSans-2e" transform="translate(309.863281 0)"/>
     <use xlink:href="#DejaVuSans-33" transform="translate(341.650391 0)"/>
     <use xlink:href="#DejaVuSans-33" transform="translate(405.273438 0)"/>
     <use xlink:href="#DejaVuSans-33" transform="translate(468.896484 0)"/>
    </g>
    <!-- λW = 2.333 -->
    <g transform="translate(322.185789 89.888656) scale(0.09 -0.09)">
     <defs>
      <path id="DejaVuSans-3bb" d="M 1981 4316 
L 3597 0 
L 2988 0 
L 2006 2588 
L 800 0 
L 191 0 
L 1725 3356 
L 1494 3975 
Q 1347 4369 1013 4369 
L 713 4369 
L 713 4863 
L 1078 4856 
Q 1784 4847 1981 4316 
z
" transform="scale(0.015625)"/>
     </defs>
     <use xlink:href="#DejaVuSans-3bb"/>
     <use xlink:href="#DejaVuSans-57" transform="translate(59.179688 0)"/>
     <use xlink:href="#DejaVuSans-20" transform="translate(158.056641 0)"/>
     <use xlink:href="#DejaVuSans-3d" transform="translate(189.84375 0)"/>
     <use xlink:href="#DejaVuSans-20" transform="translate(273.632812 0)"/>
     <use xlink:href="#DejaVuSans-32" transform="translate(305.419922 0)"/>
     <use xlink:href="#DejaVuSans-2e" transform="translate(369.042969 0)"/>
     <use xlink:href="#DejaVuSans-33" transform="translate(400.830078 0)"/>
     <use xlink:href="#DejaVuSans-33" transform="translate(464.453125 0)"/>
     <use xlink:href="#DejaVuSans-33" transform="translate(528.076172 0)"/>
    </g>
   </g>
   <g id="text_19">
    <!-- System A (ρ=0.7): Stationäre Verteilung -->
    <g transform="translate(97.012687 45.36) scale(0.12 -0.12)">
     <defs>
      <path id="DejaVuSans-53" d="M 3425 4513 
L 3425 3897 
Q 3066 4069 2747 4153 
Q 2428 4238 2131 4238 
Q 1616 4238 1336 4038 
Q 1056 3838 1056 3469 
Q 1056 3159 1242 3001 
Q 1428 2844 1947 2747 
L 2328 2669 
Q 3034 2534 3370 2195 
Q 3706 1856 3706 1288 
Q 3706 609 3251 259 
Q 2797 -91 1919 -91 
Q 1588 -91 1214 -16 
Q 841 59 441 206 
L 441 856 
Q 825 641 1194 531 
Q 1563 422 1919 422 
Q 2459 422 2753 634 
Q 3047 847 3047 1241 
Q 3047 1584 2836 1778 
Q 2625 1972 2144 2069 
L 1759 2144 
Q 1053 2284 737 2584 
Q 422 2884 422 3419 
Q 422 4038 858 4394 
Q 1294 4750 2059 4750 
Q 2388 4750 2728 4690 
Q 3069 4631 3425 4513 
z
" transform="scale(0.015625)"/>
      <path id="DejaVuSans-79" d="M 2059 -325 
Q 1816 -950 1584 -1140 
Q 1353 -1331 966 -1331 
L 506 -1331 
L 506 -850 
L 844 -850 
Q 1081 -850 1212 -737 
Q 1344 -625 1503 -206 
L 1606 56 
L 191 3500 
L 800 3500 
L 1894 763 
L 2988 3500 
L 3597 3500 
L 2059 -325 
z
" transform="scale(0.015625)"/>
      <path id="DejaVuSans-6d" d="M 3328 2828 
Q 3544 3216 3844 3400 
Q 4144 3584 4550 3584 
Q 5097 3584 5394 3201 
Q 5691 2819 5691 2113 
L 5691 0 
L 5113 0 
L 5113 2094 
Q 5113 2597 4934 2840 
Q 4756 3084 4391 3084 
Q 3944 3084 3684 2787 
Q 3425 2491 3425 1978 
L 3425 0 
L 2847 0 
L 2847 2094 
Q 2847 2600 2669 2842 
Q 2491 3084 2119 3084 
Q 1678 3084 1418 2786 
Q 1159 2488 1159 1978 
L 1159 0 
L 581 0 
L 581 3500 
L 1159 3500 
L 1159 2956 
Q 1356 3278 1631 3431 
Q 1906 3584 2284 3584 
Q 2666 3584 2933 3390 
Q 3200 3197 3328 2828 
z
" transform="scale(0.015625)"/>
      <path id="DejaVuSans-41" d="M 2188 4044 
L 1331 1722 
L 3047 1722 
L 2188 4044 
z
M 1831 4666 
L 2547 4666 
L 4325 0 
L 3669 0 
L 3244 1197 
L 1141 1197 
L 716 0 
L 50 0 
L 1831 4666 
z
" transform="scale(0.015625)"/>
      <path id="DejaVuSans-28" d="M 1984 4856 
Q 1566 4138 1362 3434 
Q 1159 2731 1159 2009 
Q 1159 1288 1364 580 
Q 1569 -128 1984 -844 
L 1484 -844 
Q 1016 -109 783 600 
Q 550 1309 550 2009 
Q 550 2706 781 3412 
Q 1013 4119 1484 4856 
L 1984 4856 
z
" transform="scale(0.015625)"/>
      <path id="DejaVuSans-3c1" d="M 863 2875 
Q 1053 3194 1525 3475 
Q 1709 3584 2278 3584 
Q 2916 3584 3314 3078 
Q 3713 2572 3713 1747 
Q 3713 922 3314 415 
Q 2916 -91 2278 -91 
Q 1894 -91 1617 61 
Q 1341 213 1159 525 
L 1159 -1331 
L 581 -1331 
L 581 1716 
Q 581 2438 863 2875 
z
M 3116 1747 
Q 3116 2381 2855 2742 
Q 2594 3103 2138 3103 
Q 1681 3103 1420 2742 
Q 1159 2381 1159 1747 
Q 1159 1113 1420 752 
Q 1681 391 2138 391 
Q 2594 391 2855 752 
Q 3116 1113 3116 1747 
z
" transform="scale(0.015625)"/>
      <path id="DejaVuSans-37" d="M 525 4666 
L 3525 4666 
L 3525 4397 
L 1831 0 
L 1172 0 
L 2766 4134 
L 525 4134 
L 525 4666 
z
" transform="scale(0.015625)"/>
      <path id="DejaVuSans-29" d="M 513 4856 
L 1013 4856 
Q 1481 4119 1714 3412 
Q 1947 2706 1947 2009 
Q 1947 1309 1714 600 
Q 1481 -109 1013 -844 
L 513 -844 
Q 928 -128 1133 580 
Q 1338 1288 1338 2009 
Q 1338 2731 1133 3434 
Q 928 4138 513 4856 
z
" transform="scale(0.015625)"/>
      <path id="DejaVuSans-3a" d="M 750 794 
L 1409 794 
L 1409 0 
L 750 0 
L 750 794 
z
M 750 3309 
L 1409 3309 
L 1409 2516 
L 750 2516 
L 750 3309 
z
" transform="scale(0.015625)"/>
      <path id="DejaVuSans-6f" d="M 1959 3097 
Q 1497 3097 1228 2736 
Q 959 2375 959 1747 
Q 959 1119 1226 758 
Q 1494 397 1959 397 
Q 2419 397 2687 759 
Q 2956 1122 2956 1747 
Q 2956 2369 2687 2733 
Q 2419 3097 1959 3097 
z
M 1959 3584 
Q 2709 3584 3137 3096 
Q 3566 2609 3566 1747 
Q 3566 888 3137 398 
Q 2709 -91 1959 -91 
Q 1206 -91 779 398 
Q 353 888 353 1747 
Q 353 2609 779 3096 
Q 1206 3584 1959 3584 
z
" transform="scale(0.015625)"/>
      <path id="DejaVuSans-e4" d="M 2194 1759 
Q 1497 1759 1228 1600 
Q 959 1441 959 1056 
Q 959 750 1161 570 
Q 1363 391 1709 391 
Q 2188 391 2477 730 
Q 2766 1069 2766 1631 
L 2766 1759 
L 2194 1759 
z
M 3341 1997 
L 3341 0 
L 2766 0 
L 2766 531 
Q 2569 213 2275 61 
Q 1981 -91 1556 -91 
Q 1019 -91 701 211 
Q 384 513 384 1019 
Q 384 1609 779 1909 
Q 1175 2209 1959 2209 
L 2766 2209 
L 2766 2266 
Q 2766 2663 2505 2880 
Q 2244 3097 1772 3097 
Q 1472 3097 1187 3025 
Q 903 2953 641 2809 
L 641 3341 
Q 956 3463 1253 3523 
Q 1550 3584 1831 3584 
Q 2591 3584 2966 3190 
Q 3341 2797 3341 1997 
z
M 2150 4850 
L 2784 4850 
L 2784 4219 
L 2150 4219 
L 2150 4850 
z
M 928 4850 
L 1562 4850 
L 1562 4219 
L 928 4219 
L 928 4850 
z
" transform="scale(0.015625)"/>
      <path id="DejaVuSans-56" d="M 1831 0 
L 50 4666 
L 709 4666 
L 2188 738 
L 3669 4666 
L 4325 4666 
L 2547 0 
L 1831 0 
z
" transform="scale(0.015625)"/>
      <path id="DejaVuSans-67" d="M 2906 1791 
Q 2906 2416 2648 2759 
Q 2391 3103 1925 3103 
Q 1463 3103 1205 2759 
Q 947 2416 947 1791 
Q 947 1169 1205 825 
Q 1463 481 1925 481 
Q 2391 481 2648 825 
Q 2906 1169 2906 1791 
z
M 3481 434 
Q 3481 -459 3084 -895 
Q 2688 -1331 1869 -1331 
Q 1566 -1331 1297 -1286 
Q 1028 -1241 775 -1147 
L 775 -588 
Q 1028 -725 1275 -790 
Q 1522 -856 1778 -856 
Q 2344 -856 2625 -561 
Q 2906 -266 2906 331 
L 2906 616 
Q 2728 306 2450 153 
Q 2172 0 1784 0 
Q 1141 0 747 490 
Q 353 981 353 1791 
Q 353 2603 747 3093 
Q 1141 3584 1784 3584 
Q 2172 3584 2450 3431 
Q 2728 3278 2906 2969 
L 2906 3500 
L 3481 3500 
L 3481 434 
z
" transform="scale(0.015625)"/>
     </defs>
     <use xlink:href="#DejaVuSans-53"/>
     <use xlink:href="#DejaVuSans-79" transform="translate(63.476562 0)"/>
     <use xlink:href="#DejaVuSans-73" transform="translate(122.65625 0)"/>
     <use xlink:href="#DejaVuSans-74" transform="translate(174.755859 0)"/>
     <use xlink:href="#DejaVuSans-65" transform="translate(213.964844 0)"/>
     <use xlink:href="#DejaVuSans-6d" transform="translate(275.488281 0)"/>
     <use xlink:href="#DejaVuSans-20" transform="translate(372.900391 0)"/>
     <use xlink:href="#DejaVuSans-41" transform="translate(404.6875 0)"/>
     <use xlink:href="#DejaVuSans-20" transform="translate(473.095703 0)"/>
     <use xlink:href="#DejaVuSans-28" transform="translate(504.882812 0)"/>
     <use xlink:href="#DejaVuSans-3c1" transform="translate(543.896484 0)"/>
     <use xlink:href="#DejaVuSans-3d" transform="translate(607.373047 0)"/>
     <use xlink:href="#DejaVuSans-30" transform="translate(691.162109 0)"/>
     <use xlink:href="#DejaVuSans-2e" transform="translate(754.785156 0)"/>
     <use xlink:href="#DejaVuSans-37" transform="translate(786.572266 0)"/>
     <use xlink:href="#DejaVuSans-29" transform="translate(850.195312 0)"/>
     <use xlink:href="#DejaVuSans-3a" transform="translate(889.208984 0)"/>
     <use xlink:href="#DejaVuSans-20" transform="translate(922.900391 0)"/>
     <use xlink:href="#DejaVuSans-53" transform="translate(954.6875 0)"/>
     <use xlink:href="#DejaVuSans-74" transform="translate(1018.164062 0)"/>
     <use xlink:href="#DejaVuSans-61" transform="translate(1057.373047 0)"/>
     <use xlink:href="#DejaVuSans-74" transform="translate(1118.652344 0)"/>
     <use xlink:href="#DejaVuSans-69" transform="translate(1157.861328 0)"/>
     <use xlink:href="#DejaVuSans-6f" transform="translate(1185.644531 0)"/>
     <use xlink:href="#DejaVuSans-6e" transform="translate(1246.826172 0)"/>
     <use xlink:href="#DejaVuSans-e4" transform="translate(1310.205078 0)"/>
     <use xlink:href="#DejaVuSans-72" transform="translate(1371.484375 0)"/>
     <use xlink:href="#DejaVuSans-65" transform="translate(1410.347656 0)"/>
     <use xlink:href="#DejaVuSans-20" transform="translate(1471.871094 0)"/>
     <use xlink:href="#DejaVuSans-56" transform="translate(1503.658203 0)"/>
     <use xlink:href="#DejaVuSans-65" transform="translate(1564.316406 0)"/>
     <use xlink:href="#DejaVuSans-72" transform="translate(1625.839844 0)"/>
     <use xlink:href="#DejaVuSans-74" transform="translate(1666.953125 0)"/>
     <use xlink:href="#DejaVuSans-65" transform="translate(1706.162109 0)"/>
     <use xlink:href="#DejaVuSans-69" transform="translate(1767.685547 0)"/>
     <use xlink:href="#DejaVuSans-6c" transform="translate(1795.46875 0)"/>
     <use xlink:href="#DejaVuSans-75" transform="translate(1823.251953 0)"/>
     <use xlink:href="#DejaVuSans-6e" transform="translate(1886.630859 0)"/>
     <use xlink:href="#DejaVuSans-67" transform="translate(1950.009766 0)"/>
    </g>
   </g>
   <g id="legend_1">
    <g id="patch_23">
     <path d="M 279.79975 175.539062 
L 378.49975 175.539062 
Q 380.49975 175.539062 380.49975 173.539062 
L 380.49975 159.860937 
Q 380.49975 157.860937 378.49975 157.860937 
L 279.79975 157.860937 
Q 277.79975 157.860937 277.79975 159.860937 
L 277.79975 173.539062 
Q 277.79975 175.539062 279.79975 175.539062 
z
" style="fill: #ffffff; opacity: 0.8; stroke: #cccccc; stroke-linejoin: miter"/>
    </g>
    <g id="patch_24">
     <path d="M 281.79975 169.459375 
L 301.79975 169.459375 
L 301.79975 162.459375 
L 281.79975 162.459375 
z
" style="fill: #2196f3; opacity: 0.8"/>
    </g>
    <g id="text_20">
     <!-- $\pi_n = 0.3 \cdot 0.7^n$ -->
     <g transform="translate(309.79975 169.459375) scale(0.1 -0.1)">
      <defs>
       <path id="DejaVuSans-22c5" d="M 684 2619 
L 1344 2619 
L 1344 1825 
L 684 1825 
L 684 2619 
z
" transform="scale(0.015625)"/>
      </defs>
      <use xlink:href="#DejaVuSans-Oblique-3c0" transform="translate(0 0.51875)"/>
      <use xlink:href="#DejaVuSans-Oblique-6e" transform="translate(60.205078 -15.8875) scale(0.7)"/>
      <use xlink:href="#DejaVuSans-3d" transform="translate(126.787109 0.51875)"/>
      <use xlink:href="#DejaVuSans-30" transform="translate(230.058594 0.51875)"/>
      <use xlink:href="#DejaVuSans-2e" transform="translate(293.681641 0.51875)"/>
      <use xlink:href="#DejaVuSans-33" transform="translate(325.46875 0.51875)"/>
      <use xlink:href="#DejaVuSans-22c5" transform="translate(408.574219 0.51875)"/>
      <use xlink:href="#DejaVuSans-30" transform="translate(459.84375 0.51875)"/>
      <use xlink:href="#DejaVuSans-2e" transform="translate(523.466797 0.51875)"/>
      <use xlink:href="#DejaVuSans-37" transform="translate(555.253906 0.51875)"/>
      <use xlink:href="#DejaVuSans-Oblique-6e" transform="translate(619.833984 38.8) scale(0.7)"/>
     </g>
    </g>
   </g>
  </g>
  <g id="axes_2">
   <g id="patch_25">
    <path d="M 439.51975 282.04 
L 774.87575 282.04 
L 774.87575 51.36 
L 439.51975 51.36 
z
" style="fill: #ffffff"/>
   </g>
   <g id="matplotlib.axis_3">
    <g id="xtick_9">
     <g id="line2d_16">
      <g>
       <use xlink:href="#mb9ce410f4c" x="454.763205" y="282.04" style="stroke: #000000; stroke-width: 0.8"/>
      </g>
     </g>
     <g id="text_21">
      <!-- 0 -->
      <g transform="translate(451.581955 296.638437) scale(0.1 -0.1)">
       <use xlink:href="#DejaVuSans-30"/>
      </g>
     </g>
    </g>
    <g id="xtick_10">
     <g id="line2d_17">
      <g>
       <use xlink:href="#mb9ce410f4c" x="492.871841" y="282.04" style="stroke: #000000; stroke-width: 0.8"/>
      </g>
     </g>
     <g id="text_22">
      <!-- 25 -->
      <g transform="translate(486.509341 296.638437) scale(0.1 -0.1)">
       <use xlink:href="#DejaVuSans-32"/>
       <use xlink:href="#DejaVuSans-35" transform="translate(63.623047 0)"/>
      </g>
     </g>
    </g>
    <g id="xtick_11">
     <g id="line2d_18">
      <g>
       <use xlink:href="#mb9ce410f4c" x="530.980477" y="282.04" style="stroke: #000000; stroke-width: 0.8"/>
      </g>
     </g>
     <g id="text_23">
      <!-- 50 -->
      <g transform="translate(524.617977 296.638437) scale(0.1 -0.1)">
       <use xlink:href="#DejaVuSans-35"/>
       <use xlink:href="#DejaVuSans-30" transform="translate(63.623047 0)"/>
      </g>
     </g>
    </g>
    <g id="xtick_12">
     <g id="line2d_19">
      <g>
       <use xlink:href="#mb9ce410f4c" x="569.089114" y="282.04" style="stroke: #000000; stroke-width: 0.8"/>
      </g>
     </g>
     <g id="text_24">
      <!-- 75 -->
      <g transform="translate(562.726614 296.638437) scale(0.1 -0.1)">
       <use xlink:href="#DejaVuSans-37"/>
       <use xlink:href="#DejaVuSans-35" transform="translate(63.623047 0)"/>
      </g>
     </g>
    </g>
    <g id="xtick_13">
     <g id="line2d_20">
      <g>
       <use xlink:href="#mb9ce410f4c" x="607.19775" y="282.04" style="stroke: #000000; stroke-width: 0.8"/>
      </g>
     </g>
     <g id="text_25">
      <!-- 100 -->
      <g transform="translate(597.654 296.638437) scale(0.1 -0.1)">
       <use xlink:href="#DejaVuSans-31"/>
       <use xlink:href="#DejaVuSans-30" transform="translate(63.623047 0)"/>
       <use xlink:href="#DejaVuSans-30" transform="translate(127.246094 0)"/>
      </g>
     </g>
    </g>
    <g id="xtick_14">
     <g id="line2d_21">
      <g>
       <use xlink:href="#mb9ce410f4c" x="645.306386" y="282.04" style="stroke: #000000; stroke-width: 0.8"/>
      </g>
     </g>
     <g id="text_26">
      <!-- 125 -->
      <g transform="translate(635.762636 296.638437) scale(0.1 -0.1)">
       <use xlink:href="#DejaVuSans-31"/>
       <use xlink:href="#DejaVuSans-32" transform="translate(63.623047 0)"/>
       <use xlink:href="#DejaVuSans-35" transform="translate(127.246094 0)"/>
      </g>
     </g>
    </g>
    <g id="xtick_15">
     <g id="line2d_22">
      <g>
       <use xlink:href="#mb9ce410f4c" x="683.415023" y="282.04" style="stroke: #000000; stroke-width: 0.8"/>
      </g>
     </g>
     <g id="text_27">
      <!-- 150 -->
      <g transform="translate(673.871273 296.638437) scale(0.1 -0.1)">
       <use xlink:href="#DejaVuSans-31"/>
       <use xlink:href="#DejaVuSans-35" transform="translate(63.623047 0)"/>
       <use xlink:href="#DejaVuSans-30" transform="translate(127.246094 0)"/>
      </g>
     </g>
    </g>
    <g id="xtick_16">
     <g id="line2d_23">
      <g>
       <use xlink:href="#mb9ce410f4c" x="721.523659" y="282.04" style="stroke: #000000; stroke-width: 0.8"/>
      </g>
     </g>
     <g id="text_28">
      <!-- 175 -->
      <g transform="translate(711.979909 296.638437) scale(0.1 -0.1)">
       <use xlink:href="#DejaVuSans-31"/>
       <use xlink:href="#DejaVuSans-37" transform="translate(63.623047 0)"/>
       <use xlink:href="#DejaVuSans-35" transform="translate(127.246094 0)"/>
      </g>
     </g>
    </g>
    <g id="xtick_17">
     <g id="line2d_24">
      <g>
       <use xlink:href="#mb9ce410f4c" x="759.632295" y="282.04" style="stroke: #000000; stroke-width: 0.8"/>
      </g>
     </g>
     <g id="text_29">
      <!-- 200 -->
      <g transform="translate(750.088545 296.638437) scale(0.1 -0.1)">
       <use xlink:href="#DejaVuSans-32"/>
       <use xlink:href="#DejaVuSans-30" transform="translate(63.623047 0)"/>
       <use xlink:href="#DejaVuSans-30" transform="translate(127.246094 0)"/>
      </g>
     </g>
    </g>
    <g id="text_30">
     <!-- Zeit $t$ -->
     <g transform="translate(593.74775 310.316562) scale(0.1 -0.1)">
      <defs>
       <path id="DejaVuSans-Oblique-74" d="M 2706 3500 
L 2619 3053 
L 1472 3053 
L 1100 1153 
Q 1081 1047 1072 975 
Q 1063 903 1063 863 
Q 1063 663 1183 572 
Q 1303 481 1569 481 
L 2150 481 
L 2053 0 
L 1503 0 
Q 991 0 739 200 
Q 488 400 488 806 
Q 488 878 497 964 
Q 506 1050 525 1153 
L 897 3053 
L 409 3053 
L 500 3500 
L 978 3500 
L 1172 4494 
L 1747 4494 
L 1556 3500 
L 2706 3500 
z
" transform="scale(0.015625)"/>
      </defs>
      <use xlink:href="#DejaVuSans-5a" transform="translate(0 0.015625)"/>
      <use xlink:href="#DejaVuSans-65" transform="translate(68.505859 0.015625)"/>
      <use xlink:href="#DejaVuSans-69" transform="translate(130.029297 0.015625)"/>
      <use xlink:href="#DejaVuSans-74" transform="translate(157.8125 0.015625)"/>
      <use xlink:href="#DejaVuSans-20" transform="translate(197.021484 0.015625)"/>
      <use xlink:href="#DejaVuSans-Oblique-74" transform="translate(228.808594 0.015625)"/>
     </g>
    </g>
   </g>
   <g id="matplotlib.axis_4">
    <g id="ytick_8">
     <g id="line2d_25">
      <g>
       <use xlink:href="#medc621ef8a" x="439.51975" y="271.554545" style="stroke: #000000; stroke-width: 0.8"/>
      </g>
     </g>
     <g id="text_31">
      <!-- 0.0 -->
      <g transform="translate(416.616625 275.353764) scale(0.1 -0.1)">
       <use xlink:href="#DejaVuSans-30"/>
       <use xlink:href="#DejaVuSans-2e" transform="translate(63.623047 0)"/>
       <use xlink:href="#DejaVuSans-30" transform="translate(95.410156 0)"/>
      </g>
     </g>
    </g>
    <g id="ytick_9">
     <g id="line2d_26">
      <g>
       <use xlink:href="#medc621ef8a" x="439.51975" y="245.340909" style="stroke: #000000; stroke-width: 0.8"/>
      </g>
     </g>
     <g id="text_32">
      <!-- 2.5 -->
      <g transform="translate(416.616625 249.140128) scale(0.1 -0.1)">
       <use xlink:href="#DejaVuSans-32"/>
       <use xlink:href="#DejaVuSans-2e" transform="translate(63.623047 0)"/>
       <use xlink:href="#DejaVuSans-35" transform="translate(95.410156 0)"/>
      </g>
     </g>
    </g>
    <g id="ytick_10">
     <g id="line2d_27">
      <g>
       <use xlink:href="#medc621ef8a" x="439.51975" y="219.127273" style="stroke: #000000; stroke-width: 0.8"/>
      </g>
     </g>
     <g id="text_33">
      <!-- 5.0 -->
      <g transform="translate(416.616625 222.926491) scale(0.1 -0.1)">
       <use xlink:href="#DejaVuSans-35"/>
       <use xlink:href="#DejaVuSans-2e" transform="translate(63.623047 0)"/>
       <use xlink:href="#DejaVuSans-30" transform="translate(95.410156 0)"/>
      </g>
     </g>
    </g>
    <g id="ytick_11">
     <g id="line2d_28">
      <g>
       <use xlink:href="#medc621ef8a" x="439.51975" y="192.913636" style="stroke: #000000; stroke-width: 0.8"/>
      </g>
     </g>
     <g id="text_34">
      <!-- 7.5 -->
      <g transform="translate(416.616625 196.712855) scale(0.1 -0.1)">
       <use xlink:href="#DejaVuSans-37"/>
       <use xlink:href="#DejaVuSans-2e" transform="translate(63.623047 0)"/>
       <use xlink:href="#DejaVuSans-35" transform="translate(95.410156 0)"/>
      </g>
     </g>
    </g>
    <g id="ytick_12">
     <g id="line2d_29">
      <g>
       <use xlink:href="#medc621ef8a" x="439.51975" y="166.7" style="stroke: #000000; stroke-width: 0.8"/>
      </g>
     </g>
     <g id="text_35">
      <!-- 10.0 -->
      <g transform="translate(410.254125 170.499219) scale(0.1 -0.1)">
       <use xlink:href="#DejaVuSans-31"/>
       <use xlink:href="#DejaVuSans-30" transform="translate(63.623047 0)"/>
       <use xlink:href="#DejaVuSans-2e" transform="translate(127.246094 0)"/>
       <use xlink:href="#DejaVuSans-30" transform="translate(159.033203 0)"/>
      </g>
     </g>
    </g>
    <g id="ytick_13">
     <g id="line2d_30">
      <g>
       <use xlink:href="#medc621ef8a" x="439.51975" y="140.486364" style="stroke: #000000; stroke-width: 0.8"/>
      </g>
     </g>
     <g id="text_36">
      <!-- 12.5 -->
      <g transform="translate(410.254125 144.285582) scale(0.1 -0.1)">
       <use xlink:href="#DejaVuSans-31"/>
       <use xlink:href="#DejaVuSans-32" transform="translate(63.623047 0)"/>
       <use xlink:href="#DejaVuSans-2e" transform="translate(127.246094 0)"/>
       <use xlink:href="#DejaVuSans-35" transform="translate(159.033203 0)"/>
      </g>
     </g>
    </g>
    <g id="ytick_14">
     <g id="line2d_31">
      <g>
       <use xlink:href="#medc621ef8a" x="439.51975" y="114.272727" style="stroke: #000000; stroke-width: 0.8"/>
      </g>
     </g>
     <g id="text_37">
      <!-- 15.0 -->
      <g transform="translate(410.254125 118.071946) scale(0.1 -0.1)">
       <use xlink:href="#DejaVuSans-31"/>
       <use xlink:href="#DejaVuSans-35" transform="translate(63.623047 0)"/>
       <use xlink:href="#DejaVuSans-2e" transform="translate(127.246094 0)"/>
       <use xlink:href="#DejaVuSans-30" transform="translate(159.033203 0)"/>
      </g>
     </g>
    </g>
    <g id="ytick_15">
     <g id="line2d_32">
      <g>
       <use xlink:href="#medc621ef8a" x="439.51975" y="88.059091" style="stroke: #000000; stroke-width: 0.8"/>
      </g>
     </g>
     <g id="text_38">
      <!-- 17.5 -->
      <g transform="translate(410.254125 91.85831) scale(0.1 -0.1)">
       <use xlink:href="#DejaVuSans-31"/>
       <use xlink:href="#DejaVuSans-37" transform="translate(63.623047 0)"/>
       <use xlink:href="#DejaVuSans-2e" transform="translate(127.246094 0)"/>
       <use xlink:href="#DejaVuSans-35" transform="translate(159.033203 0)"/>
      </g>
     </g>
    </g>
    <g id="ytick_16">
     <g id="line2d_33">
      <g>
       <use xlink:href="#medc621ef8a" x="439.51975" y="61.845455" style="stroke: #000000; stroke-width: 0.8"/>
      </g>
     </g>
     <g id="text_39">
      <!-- 20.0 -->
      <g transform="translate(410.254125 65.644673) scale(0.1 -0.1)">
       <use xlink:href="#DejaVuSans-32"/>
       <use xlink:href="#DejaVuSans-30" transform="translate(63.623047 0)"/>
       <use xlink:href="#DejaVuSans-2e" transform="translate(127.246094 0)"/>
       <use xlink:href="#DejaVuSans-30" transform="translate(159.033203 0)"/>
      </g>
     </g>
    </g>
    <g id="text_40">
     <!-- Warteschlangenlänge -->
     <g transform="translate(404.174437 220.917969) rotate(-90) scale(0.1 -0.1)">
      <use xlink:href="#DejaVuSans-57"/>
      <use xlink:href="#DejaVuSans-61" transform="translate(92.501953 0)"/>
      <use xlink:href="#DejaVuSans-72" transform="translate(153.78125 0)"/>
      <use xlink:href="#DejaVuSans-74" transform="translate(194.894531 0)"/>
      <use xlink:href="#DejaVuSans-65" transform="translate(234.103516 0)"/>
      <use xlink:href="#DejaVuSans-73" transform="translate(295.626953 0)"/>
      <use xlink:href="#DejaVuSans-63" transform="translate(347.726562 0)"/>
      <use xlink:href="#DejaVuSans-68" transform="translate(402.707031 0)"/>
      <use xlink:href="#DejaVuSans-6c" transform="translate(466.085938 0)"/>
      <use xlink:href="#DejaVuSans-61" transform="translate(493.869141 0)"/>
      <use xlink:href="#DejaVuSans-6e" transform="translate(555.148438 0)"/>
      <use xlink:href="#DejaVuSans-67" transform="translate(618.527344 0)"/>
      <use xlink:href="#DejaVuSans-65" transform="translate(682.003906 0)"/>
      <use xlink:href="#DejaVuSans-6e" transform="translate(743.527344 0)"/>
      <use xlink:href="#DejaVuSans-6c" transform="translate(806.90625 0)"/>
      <use xlink:href="#DejaVuSans-e4" transform="translate(834.689453 0)"/>
      <use xlink:href="#DejaVuSans-6e" transform="translate(895.96875 0)"/>
      <use xlink:href="#DejaVuSans-67" transform="translate(959.347656 0)"/>
      <use xlink:href="#DejaVuSans-65" transform="translate(1022.824219 0)"/>
     </g>
    </g>
   </g>
   <g id="line2d_34">
    <path d="M 454.763205 271.554545 
L 457.811895 271.554545 
L 459.336241 261.069091 
L 465.433623 261.069091 
L 466.957968 271.554545 
L 476.104041 271.554545 
L 477.628386 261.069091 
L 480.677077 261.069091 
L 482.201423 271.554545 
L 485.250114 250.583636 
L 486.774459 250.583636 
L 488.298805 261.069091 
L 489.82315 261.069091 
L 491.347495 271.554545 
L 492.871841 271.554545 
L 494.396186 261.069091 
L 500.493568 261.069091 
L 502.017914 271.554545 
L 506.59095 271.554545 
L 508.115295 261.069091 
L 509.639641 261.069091 
L 511.163986 271.554545 
L 514.212677 250.583636 
L 515.737023 250.583636 
L 518.785714 271.554545 
L 520.310059 261.069091 
L 521.834405 271.554545 
L 524.883095 250.583636 
L 526.407441 261.069091 
L 527.931786 250.583636 
L 529.456132 261.069091 
L 530.980477 250.583636 
L 532.504823 250.583636 
L 534.029168 240.098182 
L 535.553514 240.098182 
L 537.077859 250.583636 
L 538.602205 240.098182 
L 540.12655 250.583636 
L 543.175241 229.612727 
L 552.321314 229.612727 
L 555.370005 208.641818 
L 562.991732 261.069091 
L 564.516077 261.069091 
L 566.040423 271.554545 
L 567.564768 261.069091 
L 569.089114 271.554545 
L 570.613459 271.554545 
L 575.186495 240.098182 
L 576.710841 240.098182 
L 578.235186 229.612727 
L 579.759532 229.612727 
L 581.283877 240.098182 
L 582.808223 240.098182 
L 587.381259 208.641818 
L 593.478641 208.641818 
L 595.002986 219.127273 
L 596.527332 219.127273 
L 601.100368 250.583636 
L 602.624714 240.098182 
L 608.722095 240.098182 
L 610.246441 250.583636 
L 611.770786 250.583636 
L 614.819477 229.612727 
L 616.343823 229.612727 
L 617.868168 219.127273 
L 620.916859 219.127273 
L 622.441205 229.612727 
L 625.489895 229.612727 
L 628.538586 208.641818 
L 630.062932 219.127273 
L 639.209005 219.127273 
L 640.73335 208.641818 
L 642.257695 208.641818 
L 645.306386 229.612727 
L 646.830732 229.612727 
L 648.355077 240.098182 
L 649.879423 229.612727 
L 651.403768 240.098182 
L 654.452459 219.127273 
L 655.976805 219.127273 
L 657.50115 229.612727 
L 662.074186 229.612727 
L 663.598532 219.127273 
L 665.122877 229.612727 
L 666.647223 219.127273 
L 671.220259 219.127273 
L 672.744605 229.612727 
L 674.26895 229.612727 
L 678.841986 261.069091 
L 683.415023 261.069091 
L 684.939368 271.554545 
L 689.512405 271.554545 
L 691.03675 261.069091 
L 692.561095 271.554545 
L 694.085441 261.069091 
L 695.609786 271.554545 
L 697.134132 271.554545 
L 698.658477 261.069091 
L 700.182823 271.554545 
L 701.707168 261.069091 
L 704.755859 261.069091 
L 706.280205 271.554545 
L 709.328895 271.554545 
L 715.426277 229.612727 
L 718.474968 229.612727 
L 723.048005 261.069091 
L 729.145386 261.069091 
L 730.669732 271.554545 
L 732.194077 261.069091 
L 733.718423 271.554545 
L 735.242768 271.554545 
L 736.767114 261.069091 
L 738.291459 271.554545 
L 739.815805 271.554545 
L 741.34015 261.069091 
L 742.864495 271.554545 
L 750.486223 271.554545 
L 752.010568 261.069091 
L 753.534914 271.554545 
L 755.059259 271.554545 
L 756.583605 261.069091 
L 758.10795 271.554545 
L 759.632295 271.554545 
L 759.632295 271.554545 
" clip-path="url(#paaf6c18316)" style="fill: none; stroke: #2196f3; stroke-width: 1.2; stroke-linecap: square"/>
   </g>
   <g id="line2d_35">
    <path d="M 454.763205 271.554545 
L 456.28755 261.069091 
L 457.811895 271.554545 
L 459.336241 271.554545 
L 462.384932 250.583636 
L 463.909277 250.583636 
L 465.433623 240.098182 
L 466.957968 240.098182 
L 470.006659 219.127273 
L 471.531005 229.612727 
L 474.579695 229.612727 
L 477.628386 208.641818 
L 482.201423 208.641818 
L 483.725768 198.156364 
L 485.250114 198.156364 
L 488.298805 219.127273 
L 489.82315 208.641818 
L 491.347495 208.641818 
L 494.396186 187.670909 
L 495.920532 198.156364 
L 497.444877 198.156364 
L 498.969223 208.641818 
L 502.017914 208.641818 
L 503.542259 219.127273 
L 505.066605 208.641818 
L 506.59095 208.641818 
L 508.115295 198.156364 
L 512.688332 198.156364 
L 514.212677 187.670909 
L 515.737023 198.156364 
L 521.834405 198.156364 
L 523.35875 187.670909 
L 524.883095 187.670909 
L 526.407441 198.156364 
L 527.931786 198.156364 
L 530.980477 177.185455 
L 534.029168 177.185455 
L 537.077859 156.214545 
L 538.602205 156.214545 
L 540.12655 145.729091 
L 543.175241 145.729091 
L 546.223932 124.758182 
L 547.748277 135.243636 
L 549.272623 124.758182 
L 552.321314 124.758182 
L 553.845659 135.243636 
L 555.370005 135.243636 
L 556.89435 124.758182 
L 559.943041 124.758182 
L 561.467386 114.272727 
L 567.564768 114.272727 
L 569.089114 124.758182 
L 570.613459 124.758182 
L 572.137805 114.272727 
L 581.283877 114.272727 
L 582.808223 124.758182 
L 587.381259 93.301818 
L 590.42995 93.301818 
L 591.954295 103.787273 
L 593.478641 93.301818 
L 599.576023 93.301818 
L 601.100368 103.787273 
L 602.624714 93.301818 
L 607.19775 93.301818 
L 608.722095 82.816364 
L 611.770786 82.816364 
L 614.819477 103.787273 
L 616.343823 93.301818 
L 617.868168 93.301818 
L 619.392514 82.816364 
L 620.916859 93.301818 
L 622.441205 93.301818 
L 628.538586 135.243636 
L 630.062932 124.758182 
L 642.257695 124.758182 
L 643.782041 114.272727 
L 645.306386 124.758182 
L 646.830732 114.272727 
L 651.403768 145.729091 
L 652.928114 145.729091 
L 654.452459 135.243636 
L 655.976805 135.243636 
L 657.50115 124.758182 
L 660.549841 124.758182 
L 662.074186 114.272727 
L 665.122877 114.272727 
L 666.647223 124.758182 
L 671.220259 124.758182 
L 672.744605 135.243636 
L 674.26895 124.758182 
L 675.793295 124.758182 
L 677.317641 114.272727 
L 681.890677 114.272727 
L 683.415023 124.758182 
L 684.939368 124.758182 
L 687.988059 103.787273 
L 694.085441 103.787273 
L 695.609786 114.272727 
L 700.182823 114.272727 
L 701.707168 103.787273 
L 704.755859 103.787273 
L 706.280205 93.301818 
L 709.328895 93.301818 
L 710.853241 82.816364 
L 715.426277 82.816364 
L 716.950623 93.301818 
L 724.57235 93.301818 
L 726.096695 103.787273 
L 727.621041 93.301818 
L 729.145386 93.301818 
L 730.669732 103.787273 
L 732.194077 103.787273 
L 733.718423 114.272727 
L 735.242768 114.272727 
L 741.34015 72.330909 
L 742.864495 82.816364 
L 744.388841 82.816364 
L 747.437532 61.845455 
L 750.486223 82.816364 
L 759.632295 82.816364 
L 759.632295 82.816364 
" clip-path="url(#paaf6c18316)" style="fill: none; stroke: #f44336; stroke-width: 1.2; stroke-linecap: square"/>
   </g>
   <g id="patch_26">
    <path d="M 439.51975 282.04 
L 439.51975 51.36 
" style="fill: none; stroke: #000000; stroke-width: 0.8; stroke-linejoin: miter; stroke-linecap: square"/>
   </g>
   <g id="patch_27">
    <path d="M 774.87575 282.04 
L 774.87575 51.36 
" style="fill: none; stroke: #000000; stroke-width: 0.8; stroke-linejoin: miter; stroke-linecap: square"/>
   </g>
   <g id="patch_28">
    <path d="M 439.51975 282.04 
L 774.87575 282.04 
" style="fill: none; stroke: #000000; stroke-width: 0.8; stroke-linejoin: miter; stroke-linecap: square"/>
   </g>
   <g id="patch_29">
    <path d="M 439.51975 51.36 
L 774.87575 51.36 
" style="fill: none; stroke: #000000; stroke-width: 0.8; stroke-linejoin: miter; stroke-linecap: square"/>
   </g>
   <g id="text_41">
    <g id="patch_30">
     <path d="M 446.22687 77.38115 
L 570.22062 77.38115 
Q 572.62062 77.38115 572.62062 74.98115 
L 572.62062 58.2804 
Q 572.62062 55.8804 570.22062 55.8804 
L 446.22687 55.8804 
Q 443.82687 55.8804 443.82687 58.2804 
L 443.82687 74.98115 
Q 443.82687 77.38115 446.22687 77.38115 
z
" style="fill: #ffccbc; opacity: 0.8; stroke: #000000; stroke-linejoin: miter"/>
    </g>
    <!-- Instabiles System divergiert -->
    <g transform="translate(446.22687 64.35915) scale(0.08 -0.08)">
     <defs>
      <path id="DejaVuSans-49" d="M 628 4666 
L 1259 4666 
L 1259 0 
L 628 0 
L 628 4666 
z
" transform="scale(0.015625)"/>
      <path id="DejaVuSans-62" d="M 3116 1747 
Q 3116 2381 2855 2742 
Q 2594 3103 2138 3103 
Q 1681 3103 1420 2742 
Q 1159 2381 1159 1747 
Q 1159 1113 1420 752 
Q 1681 391 2138 391 
Q 2594 391 2855 752 
Q 3116 1113 3116 1747 
z
M 1159 2969 
Q 1341 3281 1617 3432 
Q 1894 3584 2278 3584 
Q 2916 3584 3314 3078 
Q 3713 2572 3713 1747 
Q 3713 922 3314 415 
Q 2916 -91 2278 -91 
Q 1894 -91 1617 61 
Q 1341 213 1159 525 
L 1159 0 
L 581 0 
L 581 4863 
L 1159 4863 
L 1159 2969 
z
" transform="scale(0.015625)"/>
      <path id="DejaVuSans-76" d="M 191 3500 
L 800 3500 
L 1894 563 
L 2988 3500 
L 3597 3500 
L 2284 0 
L 1503 0 
L 191 3500 
z
" transform="scale(0.015625)"/>
     </defs>
     <use xlink:href="#DejaVuSans-49"/>
     <use xlink:href="#DejaVuSans-6e" transform="translate(29.492188 0)"/>
     <use xlink:href="#DejaVuSans-73" transform="translate(92.871094 0)"/>
     <use xlink:href="#DejaVuSans-74" transform="translate(144.970703 0)"/>
     <use xlink:href="#DejaVuSans-61" transform="translate(184.179688 0)"/>
     <use xlink:href="#DejaVuSans-62" transform="translate(245.458984 0)"/>
     <use xlink:href="#DejaVuSans-69" transform="translate(308.935547 0)"/>
     <use xlink:href="#DejaVuSans-6c" transform="translate(336.71875 0)"/>
     <use xlink:href="#DejaVuSans-65" transform="translate(364.501953 0)"/>
     <use xlink:href="#DejaVuSans-73" transform="translate(426.025391 0)"/>
     <use xlink:href="#DejaVuSans-20" transform="translate(478.125 0)"/>
     <use xlink:href="#DejaVuSans-53" transform="translate(509.912109 0)"/>
     <use xlink:href="#DejaVuSans-79" transform="translate(573.388672 0)"/>
     <use xlink:href="#DejaVuSans-73" transform="translate(632.568359 0)"/>
     <use xlink:href="#DejaVuSans-74" transform="translate(684.667969 0)"/>
     <use xlink:href="#DejaVuSans-65" transform="translate(723.876953 0)"/>
     <use xlink:href="#DejaVuSans-6d" transform="translate(785.400391 0)"/>
     <use xlink:href="#DejaVuSans-20" transform="translate(882.8125 0)"/>
     <use xlink:href="#DejaVuSans-64" transform="translate(914.599609 0)"/>
     <use xlink:href="#DejaVuSans-69" transform="translate(978.076172 0)"/>
     <use xlink:href="#DejaVuSans-76" transform="translate(1005.859375 0)"/>
     <use xlink:href="#DejaVuSans-65" transform="translate(1065.039062 0)"/>
     <use xlink:href="#DejaVuSans-72" transform="translate(1126.5625 0)"/>
     <use xlink:href="#DejaVuSans-67" transform="translate(1165.925781 0)"/>
     <use xlink:href="#DejaVuSans-69" transform="translate(1229.402344 0)"/>
     <use xlink:href="#DejaVuSans-65" transform="translate(1257.185547 0)"/>
     <use xlink:href="#DejaVuSans-72" transform="translate(1318.708984 0)"/>
     <use xlink:href="#DejaVuSans-74" transform="translate(1359.822266 0)"/>
    </g>
    <!-- → Little's Law nicht anwendbar -->
    <g transform="translate(446.22687 73.3174) scale(0.08 -0.08)">
     <defs>
      <path id="DejaVuSans-2192" d="M 5050 2147 
L 5050 1866 
L 3822 638 
L 3447 1013 
L 4175 1741 
L 366 1741 
L 366 2272 
L 4175 2272 
L 3447 3000 
L 3822 3375 
L 5050 2147 
z
" transform="scale(0.015625)"/>
      <path id="DejaVuSans-27" d="M 1147 4666 
L 1147 2931 
L 616 2931 
L 616 4666 
L 1147 4666 
z
" transform="scale(0.015625)"/>
      <path id="DejaVuSans-77" d="M 269 3500 
L 844 3500 
L 1563 769 
L 2278 3500 
L 2956 3500 
L 3675 769 
L 4391 3500 
L 4966 3500 
L 4050 0 
L 3372 0 
L 2619 2869 
L 1863 0 
L 1184 0 
L 269 3500 
z
" transform="scale(0.015625)"/>
     </defs>
     <use xlink:href="#DejaVuSans-2192"/>
     <use xlink:href="#DejaVuSans-20" transform="translate(83.789062 0)"/>
     <use xlink:href="#DejaVuSans-4c" transform="translate(115.576172 0)"/>
     <use xlink:href="#DejaVuSans-69" transform="translate(171.289062 0)"/>
     <use xlink:href="#DejaVuSans-74" transform="translate(199.072266 0)"/>
     <use xlink:href="#DejaVuSans-74" transform="translate(238.28125 0)"/>
     <use xlink:href="#DejaVuSans-6c" transform="translate(277.490234 0)"/>
     <use xlink:href="#DejaVuSans-65" transform="translate(305.273438 0)"/>
     <use xlink:href="#DejaVuSans-27" transform="translate(366.796875 0)"/>
     <use xlink:href="#DejaVuSans-73" transform="translate(394.287109 0)"/>
     <use xlink:href="#DejaVuSans-20" transform="translate(446.386719 0)"/>
     <use xlink:href="#DejaVuSans-4c" transform="translate(478.173828 0)"/>
     <use xlink:href="#DejaVuSans-61" transform="translate(533.886719 0)"/>
     <use xlink:href="#DejaVuSans-77" transform="translate(595.166016 0)"/>
     <use xlink:href="#DejaVuSans-20" transform="translate(676.953125 0)"/>
     <use xlink:href="#DejaVuSans-6e" transform="translate(708.740234 0)"/>
     <use xlink:href="#DejaVuSans-69" transform="translate(772.119141 0)"/>
     <use xlink:href="#DejaVuSans-63" transform="translate(799.902344 0)"/>
     <use xlink:href="#DejaVuSans-68" transform="translate(854.882812 0)"/>
     <use xlink:href="#DejaVuSans-74" transform="translate(918.261719 0)"/>
     <use xlink:href="#DejaVuSans-20" transform="translate(957.470703 0)"/>
     <use xlink:href="#DejaVuSans-61" transform="translate(989.257812 0)"/>
     <use xlink:href="#DejaVuSans-6e" transform="translate(1050.537109 0)"/>
     <use xlink:href="#DejaVuSans-77" transform="translate(1113.916016 0)"/>
     <use xlink:href="#DejaVuSans-65" transform="translate(1195.703125 0)"/>
     <use xlink:href="#DejaVuSans-6e" transform="translate(1257.226562 0)"/>
     <use xlink:href="#DejaVuSans-64" transform="translate(1320.605469 0)"/>
     <use xlink:href="#DejaVuSans-62" transform="translate(1384.082031 0)"/>
     <use xlink:href="#DejaVuSans-61" transform="translate(1447.558594 0)"/>
     <use xlink:href="#DejaVuSans-72" transform="translate(1508.837891 0)"/>
    </g>
   </g>
   <g id="text_42">
    <!-- Warteschlangenlänge: A (stabil) vs. B (instabil) -->
    <g transform="translate(466.34775 45.36) scale(0.12 -0.12)">
     <defs>
      <path id="DejaVuSans-42" d="M 1259 2228 
L 1259 519 
L 2272 519 
Q 2781 519 3026 730 
Q 3272 941 3272 1375 
Q 3272 1813 3026 2020 
Q 2781 2228 2272 2228 
L 1259 2228 
z
M 1259 4147 
L 1259 2741 
L 2194 2741 
Q 2656 2741 2882 2914 
Q 3109 3088 3109 3444 
Q 3109 3797 2882 3972 
Q 2656 4147 2194 4147 
L 1259 4147 
z
M 628 4666 
L 2241 4666 
Q 2963 4666 3353 4366 
Q 3744 4066 3744 3513 
Q 3744 3084 3544 2831 
Q 3344 2578 2956 2516 
Q 3422 2416 3680 2098 
Q 3938 1781 3938 1306 
Q 3938 681 3513 340 
Q 3088 0 2303 0 
L 628 0 
L 628 4666 
z
" transform="scale(0.015625)"/>
     </defs>
     <use xlink:href="#DejaVuSans-57"/>
     <use xlink:href="#DejaVuSans-61" transform="translate(92.501953 0)"/>
     <use xlink:href="#DejaVuSans-72" transform="translate(153.78125 0)"/>
     <use xlink:href="#DejaVuSans-74" transform="translate(194.894531 0)"/>
     <use xlink:href="#DejaVuSans-65" transform="translate(234.103516 0)"/>
     <use xlink:href="#DejaVuSans-73" transform="translate(295.626953 0)"/>
     <use xlink:href="#DejaVuSans-63" transform="translate(347.726562 0)"/>
     <use xlink:href="#DejaVuSans-68" transform="translate(402.707031 0)"/>
     <use xlink:href="#DejaVuSans-6c" transform="translate(466.085938 0)"/>
     <use xlink:href="#DejaVuSans-61" transform="translate(493.869141 0)"/>
     <use xlink:href="#DejaVuSans-6e" transform="translate(555.148438 0)"/>
     <use xlink:href="#DejaVuSans-67" transform="translate(618.527344 0)"/>
     <use xlink:href="#DejaVuSans-65" transform="translate(682.003906 0)"/>
     <use xlink:href="#DejaVuSans-6e" transform="translate(743.527344 0)"/>
     <use xlink:href="#DejaVuSans-6c" transform="translate(806.90625 0)"/>
     <use xlink:href="#DejaVuSans-e4" transform="translate(834.689453 0)"/>
     <use xlink:href="#DejaVuSans-6e" transform="translate(895.96875 0)"/>
     <use xlink:href="#DejaVuSans-67" transform="translate(959.347656 0)"/>
     <use xlink:href="#DejaVuSans-65" transform="translate(1022.824219 0)"/>
     <use xlink:href="#DejaVuSans-3a" transform="translate(1084.347656 0)"/>
     <use xlink:href="#DejaVuSans-20" transform="translate(1118.039062 0)"/>
     <use xlink:href="#DejaVuSans-41" transform="translate(1149.826172 0)"/>
     <use xlink:href="#DejaVuSans-20" transform="translate(1218.234375 0)"/>
     <use xlink:href="#DejaVuSans-28" transform="translate(1250.021484 0)"/>
     <use xlink:href="#DejaVuSans-73" transform="translate(1289.035156 0)"/>
     <use xlink:href="#DejaVuSans-74" transform="translate(1341.134766 0)"/>
     <use xlink:href="#DejaVuSans-61" transform="translate(1380.34375 0)"/>
     <use xlink:href="#DejaVuSans-62" transform="translate(1441.623047 0)"/>
     <use xlink:href="#DejaVuSans-69" transform="translate(1505.099609 0)"/>
     <use xlink:href="#DejaVuSans-6c" transform="translate(1532.882812 0)"/>
     <use xlink:href="#DejaVuSans-29" transform="translate(1560.666016 0)"/>
     <use xlink:href="#DejaVuSans-20" transform="translate(1599.679688 0)"/>
     <use xlink:href="#DejaVuSans-76" transform="translate(1631.466797 0)"/>
     <use xlink:href="#DejaVuSans-73" transform="translate(1690.646484 0)"/>
     <use xlink:href="#DejaVuSans-2e" transform="translate(1742.746094 0)"/>
     <use xlink:href="#DejaVuSans-20" transform="translate(1774.533203 0)"/>
     <use xlink:href="#DejaVuSans-42" transform="translate(1806.320312 0)"/>
     <use xlink:href="#DejaVuSans-20" transform="translate(1874.923828 0)"/>
     <use xlink:href="#DejaVuSans-28" transform="translate(1906.710938 0)"/>
     <use xlink:href="#DejaVuSans-69" transform="translate(1945.724609 0)"/>
     <use xlink:href="#DejaVuSans-6e" transform="translate(1973.507812 0)"/>
     <use xlink:href="#DejaVuSans-73" transform="translate(2036.886719 0)"/>
     <use xlink:href="#DejaVuSans-74" transform="translate(2088.986328 0)"/>
     <use xlink:href="#DejaVuSans-61" transform="translate(2128.195312 0)"/>
     <use xlink:href="#DejaVuSans-62" transform="translate(2189.474609 0)"/>
     <use xlink:href="#DejaVuSans-69" transform="translate(2252.951172 0)"/>
     <use xlink:href="#DejaVuSans-6c" transform="translate(2280.734375 0)"/>
     <use xlink:href="#DejaVuSans-29" transform="translate(2308.517578 0)"/>
    </g>
   </g>
   <g id="legend_2">
    <g id="patch_31">
     <path d="M 604.299187 182.878125 
L 767.87575 182.878125 
Q 769.87575 182.878125 769.87575 180.878125 
L 769.87575 152.521875 
Q 769.87575 150.521875 767.87575 150.521875 
L 604.299187 150.521875 
Q 602.299187 150.521875 602.299187 152.521875 
L 602.299187 180.878125 
Q 602.299187 182.878125 604.299187 182.878125 
z
" style="fill: #ffffff; opacity: 0.8; stroke: #cccccc; stroke-linejoin: miter"/>
    </g>
    <g id="line2d_36">
     <path d="M 606.299187 158.620312 
L 616.299187 158.620312 
L 626.299187 158.620312 
" style="fill: none; stroke: #2196f3; stroke-width: 1.2; stroke-linecap: square"/>
    </g>
    <g id="text_43">
     <!-- System A (ρ=0.7, stabil) -->
     <g transform="translate(634.299187 162.120312) scale(0.1 -0.1)">
      <defs>
       <path id="DejaVuSans-2c" d="M 750 794 
L 1409 794 
L 1409 256 
L 897 -744 
L 494 -744 
L 750 256 
L 750 794 
z
" transform="scale(0.015625)"/>
      </defs>
      <use xlink:href="#DejaVuSans-53"/>
      <use xlink:href="#DejaVuSans-79" transform="translate(63.476562 0)"/>
      <use xlink:href="#DejaVuSans-73" transform="translate(122.65625 0)"/>
      <use xlink:href="#DejaVuSans-74" transform="translate(174.755859 0)"/>
      <use xlink:href="#DejaVuSans-65" transform="translate(213.964844 0)"/>
      <use xlink:href="#DejaVuSans-6d" transform="translate(275.488281 0)"/>
      <use xlink:href="#DejaVuSans-20" transform="translate(372.900391 0)"/>
      <use xlink:href="#DejaVuSans-41" transform="translate(404.6875 0)"/>
      <use xlink:href="#DejaVuSans-20" transform="translate(473.095703 0)"/>
      <use xlink:href="#DejaVuSans-28" transform="translate(504.882812 0)"/>
      <use xlink:href="#DejaVuSans-3c1" transform="translate(543.896484 0)"/>
      <use xlink:href="#DejaVuSans-3d" transform="translate(607.373047 0)"/>
      <use xlink:href="#DejaVuSans-30" transform="translate(691.162109 0)"/>
      <use xlink:href="#DejaVuSans-2e" transform="translate(754.785156 0)"/>
      <use xlink:href="#DejaVuSans-37" transform="translate(786.572266 0)"/>
      <use xlink:href="#DejaVuSans-2c" transform="translate(850.195312 0)"/>
      <use xlink:href="#DejaVuSans-20" transform="translate(881.982422 0)"/>
      <use xlink:href="#DejaVuSans-73" transform="translate(913.769531 0)"/>
      <use xlink:href="#DejaVuSans-74" transform="translate(965.869141 0)"/>
      <use xlink:href="#DejaVuSans-61" transform="translate(1005.078125 0)"/>
      <use xlink:href="#DejaVuSans-62" transform="translate(1066.357422 0)"/>
      <use xlink:href="#DejaVuSans-69" transform="translate(1129.833984 0)"/>
      <use xlink:href="#DejaVuSans-6c" transform="translate(1157.617188 0)"/>
      <use xlink:href="#DejaVuSans-29" transform="translate(1185.400391 0)"/>
     </g>
    </g>
    <g id="line2d_37">
     <path d="M 606.299187 173.298437 
L 616.299187 173.298437 
L 626.299187 173.298437 
" style="fill: none; stroke: #f44336; stroke-width: 1.2; stroke-linecap: square"/>
    </g>
    <g id="text_44">
     <!-- System B (ρ=1.2, instabil) -->
     <g transform="translate(634.299187 176.798437) scale(0.1 -0.1)">
      <use xlink:href="#DejaVuSans-53"/>
      <use xlink:href="#DejaVuSans-79" transform="translate(63.476562 0)"/>
      <use xlink:href="#DejaVuSans-73" transform="translate(122.65625 0)"/>
      <use xlink:href="#DejaVuSans-74" transform="translate(174.755859 0)"/>
      <use xlink:href="#DejaVuSans-65" transform="translate(213.964844 0)"/>
      <use xlink:href="#DejaVuSans-6d" transform="translate(275.488281 0)"/>
      <use xlink:href="#DejaVuSans-20" transform="translate(372.900391 0)"/>
      <use xlink:href="#DejaVuSans-42" transform="translate(404.6875 0)"/>
      <use xlink:href="#DejaVuSans-20" transform="translate(473.291016 0)"/>
      <use xlink:href="#DejaVuSans-28" transform="translate(505.078125 0)"/>
      <use xlink:href="#DejaVuSans-3c1" transform="translate(544.091797 0)"/>
      <use xlink:href="#DejaVuSans-3d" transform="translate(607.568359 0)"/>
      <use xlink:href="#DejaVuSans-31" transform="translate(691.357422 0)"/>
      <use xlink:href="#DejaVuSans-2e" transform="translate(754.980469 0)"/>
      <use xlink:href="#DejaVuSans-32" transform="translate(786.767578 0)"/>
      <use xlink:href="#DejaVuSans-2c" transform="translate(850.390625 0)"/>
      <use xlink:href="#DejaVuSans-20" transform="translate(882.177734 0)"/>
      <use xlink:href="#DejaVuSans-69" transform="translate(913.964844 0)"/>
      <use xlink:href="#DejaVuSans-6e" transform="translate(941.748047 0)"/>
      <use xlink:href="#DejaVuSans-73" transform="translate(1005.126953 0)"/>
      <use xlink:href="#DejaVuSans-74" transform="translate(1057.226562 0)"/>
      <use xlink:href="#DejaVuSans-61" transform="translate(1096.435547 0)"/>
      <use xlink:href="#DejaVuSans-62" transform="translate(1157.714844 0)"/>
      <use xlink:href="#DejaVuSans-69" transform="translate(1221.191406 0)"/>
      <use xlink:href="#DejaVuSans-6c" transform="translate(1248.974609 0)"/>
      <use xlink:href="#DejaVuSans-29" transform="translate(1276.757812 0)"/>
     </g>
    </g>
   </g>
  </g>
  <g id="text_45">
   <!-- Experiment 1 – Little's Law ist kein Stabilitätskriterium -->
   <g transform="translate(187.701453 17.260781) scale(0.13 -0.13)">
    <defs>
     <path id="DejaVuSans-Bold-45" d="M 588 4666 
L 3834 4666 
L 3834 3756 
L 1791 3756 
L 1791 2888 
L 3713 2888 
L 3713 1978 
L 1791 1978 
L 1791 909 
L 3903 909 
L 3903 0 
L 588 0 
L 588 4666 
z
" transform="scale(0.015625)"/>
     <path id="DejaVuSans-Bold-78" d="M 1422 1791 
L 159 3500 
L 1344 3500 
L 2059 2463 
L 2784 3500 
L 3969 3500 
L 2706 1797 
L 4031 0 
L 2847 0 
L 2059 1106 
L 1281 0 
L 97 0 
L 1422 1791 
z
" transform="scale(0.015625)"/>
     <path id="DejaVuSans-Bold-70" d="M 1656 506 
L 1656 -1331 
L 538 -1331 
L 538 3500 
L 1656 3500 
L 1656 2988 
Q 1888 3294 2169 3439 
Q 2450 3584 2816 3584 
Q 3463 3584 3878 3070 
Q 4294 2556 4294 1747 
Q 4294 938 3878 423 
Q 3463 -91 2816 -91 
Q 2450 -91 2169 54 
Q 1888 200 1656 506 
z
M 2400 2772 
Q 2041 2772 1848 2508 
Q 1656 2244 1656 1747 
Q 1656 1250 1848 986 
Q 2041 722 2400 722 
Q 2759 722 2948 984 
Q 3138 1247 3138 1747 
Q 3138 2247 2948 2509 
Q 2759 2772 2400 2772 
z
" transform="scale(0.015625)"/>
     <path id="DejaVuSans-Bold-65" d="M 4031 1759 
L 4031 1441 
L 1416 1441 
Q 1456 1047 1700 850 
Q 1944 653 2381 653 
Q 2734 653 3104 758 
Q 3475 863 3866 1075 
L 3866 213 
Q 3469 63 3072 -14 
Q 2675 -91 2278 -91 
Q 1328 -91 801 392 
Q 275 875 275 1747 
Q 275 2603 792 3093 
Q 1309 3584 2216 3584 
Q 3041 3584 3536 3087 
Q 4031 2591 4031 1759 
z
M 2881 2131 
Q 2881 2450 2695 2645 
Q 2509 2841 2209 2841 
Q 1884 2841 1681 2658 
Q 1478 2475 1428 2131 
L 2881 2131 
z
" transform="scale(0.015625)"/>
     <path id="DejaVuSans-Bold-72" d="M 3138 2547 
Q 2991 2616 2845 2648 
Q 2700 2681 2553 2681 
Q 2122 2681 1889 2404 
Q 1656 2128 1656 1613 
L 1656 0 
L 538 0 
L 538 3500 
L 1656 3500 
L 1656 2925 
Q 1872 3269 2151 3426 
Q 2431 3584 2822 3584 
Q 2878 3584 2943 3579 
Q 3009 3575 3134 3559 
L 3138 2547 
z
" transform="scale(0.015625)"/>
     <path id="DejaVuSans-Bold-69" d="M 538 3500 
L 1656 3500 
L 1656 0 
L 538 0 
L 538 3500 
z
M 538 4863 
L 1656 4863 
L 1656 3950 
L 538 3950 
L 538 4863 
z
" transform="scale(0.015625)"/>
     <path id="DejaVuSans-Bold-6d" d="M 3781 2919 
Q 3994 3244 4286 3414 
Q 4578 3584 4928 3584 
Q 5531 3584 5847 3212 
Q 6163 2841 6163 2131 
L 6163 0 
L 5038 0 
L 5038 1825 
Q 5041 1866 5042 1909 
Q 5044 1953 5044 2034 
Q 5044 2406 4934 2573 
Q 4825 2741 4581 2741 
Q 4263 2741 4089 2478 
Q 3916 2216 3909 1719 
L 3909 0 
L 2784 0 
L 2784 1825 
Q 2784 2406 2684 2573 
Q 2584 2741 2328 2741 
Q 2006 2741 1831 2477 
Q 1656 2213 1656 1722 
L 1656 0 
L 531 0 
L 531 3500 
L 1656 3500 
L 1656 2988 
Q 1863 3284 2130 3434 
Q 2397 3584 2719 3584 
Q 3081 3584 3359 3409 
Q 3638 3234 3781 2919 
z
" transform="scale(0.015625)"/>
     <path id="DejaVuSans-Bold-6e" d="M 4056 2131 
L 4056 0 
L 2931 0 
L 2931 347 
L 2931 1631 
Q 2931 2084 2911 2256 
Q 2891 2428 2841 2509 
Q 2775 2619 2662 2680 
Q 2550 2741 2406 2741 
Q 2056 2741 1856 2470 
Q 1656 2200 1656 1722 
L 1656 0 
L 538 0 
L 538 3500 
L 1656 3500 
L 1656 2988 
Q 1909 3294 2193 3439 
Q 2478 3584 2822 3584 
Q 3428 3584 3742 3212 
Q 4056 2841 4056 2131 
z
" transform="scale(0.015625)"/>
     <path id="DejaVuSans-Bold-74" d="M 1759 4494 
L 1759 3500 
L 2913 3500 
L 2913 2700 
L 1759 2700 
L 1759 1216 
Q 1759 972 1856 886 
Q 1953 800 2241 800 
L 2816 800 
L 2816 0 
L 1856 0 
Q 1194 0 917 276 
Q 641 553 641 1216 
L 641 2700 
L 84 2700 
L 84 3500 
L 641 3500 
L 641 4494 
L 1759 4494 
z
" transform="scale(0.015625)"/>
     <path id="DejaVuSans-Bold-20" transform="scale(0.015625)"/>
     <path id="DejaVuSans-Bold-31" d="M 750 831 
L 1813 831 
L 1813 3847 
L 722 3622 
L 722 4441 
L 1806 4666 
L 2950 4666 
L 2950 831 
L 4013 831 
L 4013 0 
L 750 0 
L 750 831 
z
" transform="scale(0.015625)"/>
     <path id="DejaVuSans-Bold-2013" d="M 344 2156 
L 2856 2156 
L 2856 1350 
L 344 1350 
L 344 2156 
z
" transform="scale(0.015625)"/>
     <path id="DejaVuSans-Bold-4c" d="M 588 4666 
L 1791 4666 
L 1791 909 
L 3903 909 
L 3903 0 
L 588 0 
L 588 4666 
z
" transform="scale(0.015625)"/>
     <path id="DejaVuSans-Bold-6c" d="M 538 4863 
L 1656 4863 
L 1656 0 
L 538 0 
L 538 4863 
z
" transform="scale(0.015625)"/>
     <path id="DejaVuSans-Bold-27" d="M 1350 4666 
L 1350 2931 
L 609 2931 
L 609 4666 
L 1350 4666 
z
" transform="scale(0.015625)"/>
     <path id="DejaVuSans-Bold-73" d="M 3272 3391 
L 3272 2541 
Q 2913 2691 2578 2766 
Q 2244 2841 1947 2841 
Q 1628 2841 1473 2761 
Q 1319 2681 1319 2516 
Q 1319 2381 1436 2309 
Q 1553 2238 1856 2203 
L 2053 2175 
Q 2913 2066 3209 1816 
Q 3506 1566 3506 1031 
Q 3506 472 3093 190 
Q 2681 -91 1863 -91 
Q 1516 -91 1145 -36 
Q 775 19 384 128 
L 384 978 
Q 719 816 1070 734 
Q 1422 653 1784 653 
Q 2113 653 2278 743 
Q 2444 834 2444 1013 
Q 2444 1163 2330 1236 
Q 2216 1309 1875 1350 
L 1678 1375 
Q 931 1469 631 1722 
Q 331 1975 331 2491 
Q 331 3047 712 3315 
Q 1094 3584 1881 3584 
Q 2191 3584 2531 3537 
Q 2872 3491 3272 3391 
z
" transform="scale(0.015625)"/>
     <path id="DejaVuSans-Bold-61" d="M 2106 1575 
Q 1756 1575 1579 1456 
Q 1403 1338 1403 1106 
Q 1403 894 1545 773 
Q 1688 653 1941 653 
Q 2256 653 2472 879 
Q 2688 1106 2688 1447 
L 2688 1575 
L 2106 1575 
z
M 3816 1997 
L 3816 0 
L 2688 0 
L 2688 519 
Q 2463 200 2181 54 
Q 1900 -91 1497 -91 
Q 953 -91 614 226 
Q 275 544 275 1050 
Q 275 1666 698 1953 
Q 1122 2241 2028 2241 
L 2688 2241 
L 2688 2328 
Q 2688 2594 2478 2717 
Q 2269 2841 1825 2841 
Q 1466 2841 1156 2769 
Q 847 2697 581 2553 
L 581 3406 
Q 941 3494 1303 3539 
Q 1666 3584 2028 3584 
Q 2975 3584 3395 3211 
Q 3816 2838 3816 1997 
z
" transform="scale(0.015625)"/>
     <path id="DejaVuSans-Bold-77" d="M 225 3500 
L 1313 3500 
L 1900 1088 
L 2491 3500 
L 3425 3500 
L 4013 1113 
L 4603 3500 
L 5691 3500 
L 4769 0 
L 3547 0 
L 2956 2406 
L 2369 0 
L 1147 0 
L 225 3500 
z
" transform="scale(0.015625)"/>
     <path id="DejaVuSans-Bold-6b" d="M 538 4863 
L 1656 4863 
L 1656 2216 
L 2944 3500 
L 4244 3500 
L 2534 1894 
L 4378 0 
L 3022 0 
L 1656 1459 
L 1656 0 
L 538 0 
L 538 4863 
z
" transform="scale(0.015625)"/>
     <path id="DejaVuSans-Bold-53" d="M 3834 4519 
L 3834 3531 
Q 3450 3703 3084 3790 
Q 2719 3878 2394 3878 
Q 1963 3878 1756 3759 
Q 1550 3641 1550 3391 
Q 1550 3203 1689 3098 
Q 1828 2994 2194 2919 
L 2706 2816 
Q 3484 2659 3812 2340 
Q 4141 2022 4141 1434 
Q 4141 663 3683 286 
Q 3225 -91 2284 -91 
Q 1841 -91 1394 -6 
Q 947 78 500 244 
L 500 1259 
Q 947 1022 1364 901 
Q 1781 781 2169 781 
Q 2563 781 2772 912 
Q 2981 1044 2981 1288 
Q 2981 1506 2839 1625 
Q 2697 1744 2272 1838 
L 1806 1941 
Q 1106 2091 782 2419 
Q 459 2747 459 3303 
Q 459 4000 909 4375 
Q 1359 4750 2203 4750 
Q 2588 4750 2994 4692 
Q 3400 4634 3834 4519 
z
" transform="scale(0.015625)"/>
     <path id="DejaVuSans-Bold-62" d="M 2400 722 
Q 2759 722 2948 984 
Q 3138 1247 3138 1747 
Q 3138 2247 2948 2509 
Q 2759 2772 2400 2772 
Q 2041 2772 1848 2508 
Q 1656 2244 1656 1747 
Q 1656 1250 1848 986 
Q 2041 722 2400 722 
z
M 1656 2988 
Q 1888 3294 2169 3439 
Q 2450 3584 2816 3584 
Q 3463 3584 3878 3070 
Q 4294 2556 4294 1747 
Q 4294 938 3878 423 
Q 3463 -91 2816 -91 
Q 2450 -91 2169 54 
Q 1888 200 1656 506 
L 1656 0 
L 538 0 
L 538 4863 
L 1656 4863 
L 1656 2988 
z
" transform="scale(0.015625)"/>
     <path id="DejaVuSans-Bold-e4" d="M 2106 1575 
Q 1756 1575 1579 1456 
Q 1403 1338 1403 1106 
Q 1403 894 1545 773 
Q 1688 653 1941 653 
Q 2256 653 2472 879 
Q 2688 1106 2688 1447 
L 2688 1575 
L 2106 1575 
z
M 3816 1997 
L 3816 0 
L 2688 0 
L 2688 519 
Q 2463 200 2181 54 
Q 1900 -91 1497 -91 
Q 953 -91 614 226 
Q 275 544 275 1050 
Q 275 1666 698 1953 
Q 1122 2241 2028 2241 
L 2688 2241 
L 2688 2328 
Q 2688 2594 2478 2717 
Q 2269 2841 1825 2841 
Q 1466 2841 1156 2769 
Q 847 2697 581 2553 
L 581 3406 
Q 941 3494 1303 3539 
Q 1666 3584 2028 3584 
Q 2975 3584 3395 3211 
Q 3816 2838 3816 1997 
z
M 1200 4953 
L 1934 4953 
L 1934 4184 
L 1200 4184 
L 1200 4953 
z
M 2434 4953 
L 3168 4953 
L 3168 4184 
L 2434 4184 
L 2434 4953 
z
" transform="scale(0.015625)"/>
     <path id="DejaVuSans-Bold-75" d="M 500 1363 
L 500 3500 
L 1625 3500 
L 1625 3150 
Q 1625 2866 1622 2436 
Q 1619 2006 1619 1863 
Q 1619 1441 1641 1255 
Q 1663 1069 1716 984 
Q 1784 875 1895 815 
Q 2006 756 2150 756 
Q 2500 756 2700 1025 
Q 2900 1294 2900 1772 
L 2900 3500 
L 4019 3500 
L 4019 0 
L 2900 0 
L 2900 506 
Q 2647 200 2364 54 
Q 2081 -91 1741 -91 
Q 1134 -91 817 281 
Q 500 653 500 1363 
z
" transform="scale(0.015625)"/>
    </defs>
    <use xlink:href="#DejaVuSans-Bold-45"/>
    <use xlink:href="#DejaVuSans-Bold-78" transform="translate(68.310547 0)"/>
    <use xlink:href="#DejaVuSans-Bold-70" transform="translate(132.8125 0)"/>
    <use xlink:href="#DejaVuSans-Bold-65" transform="translate(204.394531 0)"/>
    <use xlink:href="#DejaVuSans-Bold-72" transform="translate(272.216797 0)"/>
    <use xlink:href="#DejaVuSans-Bold-69" transform="translate(321.533203 0)"/>
    <use xlink:href="#DejaVuSans-Bold-6d" transform="translate(355.810547 0)"/>
    <use xlink:href="#DejaVuSans-Bold-65" transform="translate(460.009766 0)"/>
    <use xlink:href="#DejaVuSans-Bold-6e" transform="translate(527.832031 0)"/>
    <use xlink:href="#DejaVuSans-Bold-74" transform="translate(599.023438 0)"/>
    <use xlink:href="#DejaVuSans-Bold-20" transform="translate(646.826172 0)"/>
    <use xlink:href="#DejaVuSans-Bold-31" transform="translate(681.640625 0)"/>
    <use xlink:href="#DejaVuSans-Bold-20" transform="translate(751.220703 0)"/>
    <use xlink:href="#DejaVuSans-Bold-2013" transform="translate(786.035156 0)"/>
    <use xlink:href="#DejaVuSans-Bold-20" transform="translate(836.035156 0)"/>
    <use xlink:href="#DejaVuSans-Bold-4c" transform="translate(870.849609 0)"/>
    <use xlink:href="#DejaVuSans-Bold-69" transform="translate(934.570312 0)"/>
    <use xlink:href="#DejaVuSans-Bold-74" transform="translate(968.847656 0)"/>
    <use xlink:href="#DejaVuSans-Bold-74" transform="translate(1016.650391 0)"/>
    <use xlink:href="#DejaVuSans-Bold-6c" transform="translate(1064.453125 0)"/>
    <use xlink:href="#DejaVuSans-Bold-65" transform="translate(1098.730469 0)"/>
    <use xlink:href="#DejaVuSans-Bold-27" transform="translate(1166.552734 0)"/>
    <use xlink:href="#DejaVuSans-Bold-73" transform="translate(1197.167969 0)"/>
    <use xlink:href="#DejaVuSans-Bold-20" transform="translate(1256.689453 0)"/>
    <use xlink:href="#DejaVuSans-Bold-4c" transform="translate(1291.503906 0)"/>
    <use xlink:href="#DejaVuSans-Bold-61" transform="translate(1355.224609 0)"/>
    <use xlink:href="#DejaVuSans-Bold-77" transform="translate(1422.705078 0)"/>
    <use xlink:href="#DejaVuSans-Bold-20" transform="translate(1515.087891 0)"/>
    <use xlink:href="#DejaVuSans-Bold-69" transform="translate(1549.902344 0)"/>
    <use xlink:href="#DejaVuSans-Bold-73" transform="translate(1584.179688 0)"/>
    <use xlink:href="#DejaVuSans-Bold-74" transform="translate(1643.701172 0)"/>
    <use xlink:href="#DejaVuSans-Bold-20" transform="translate(1691.503906 0)"/>
    <use xlink:href="#DejaVuSans-Bold-6b" transform="translate(1726.318359 0)"/>
    <use xlink:href="#DejaVuSans-Bold-65" transform="translate(1790.197266 0)"/>
    <use xlink:href="#DejaVuSans-Bold-69" transform="translate(1858.019531 0)"/>
    <use xlink:href="#DejaVuSans-Bold-6e" transform="translate(1892.296875 0)"/>
    <use xlink:href="#DejaVuSans-Bold-20" transform="translate(1963.488281 0)"/>
    <use xlink:href="#DejaVuSans-Bold-53" transform="translate(1998.302734 0)"/>
    <use xlink:href="#DejaVuSans-Bold-74" transform="translate(2070.324219 0)"/>
    <use xlink:href="#DejaVuSans-Bold-61" transform="translate(2118.126953 0)"/>
    <use xlink:href="#DejaVuSans-Bold-62" transform="translate(2185.607422 0)"/>
    <use xlink:href="#DejaVuSans-Bold-69" transform="translate(2257.189453 0)"/>
    <use xlink:href="#DejaVuSans-Bold-6c" transform="translate(2291.466797 0)"/>
    <use xlink:href="#DejaVuSans-Bold-69" transform="translate(2325.744141 0)"/>
    <use xlink:href="#DejaVuSans-Bold-74" transform="translate(2360.021484 0)"/>
    <use xlink:href="#DejaVuSans-Bold-e4" transform="translate(2407.824219 0)"/>
    <use xlink:href="#DejaVuSans-Bold-74" transform="translate(2475.304688 0)"/>
    <use xlink:href="#DejaVuSans-Bold-73" transform="translate(2523.107422 0)"/>
    <use xlink:href="#DejaVuSans-Bold-6b" transform="translate(2582.628906 0)"/>
    <use xlink:href="#DejaVuSans-Bold-72" transform="translate(2649.132812 0)"/>
    <use xlink:href="#DejaVuSans-Bold-69" transform="translate(2698.449219 0)"/>
    <use xlink:href="#DejaVuSans-Bold-74" transform="translate(2732.726562 0)"/>
    <use xlink:href="#DejaVuSans-Bold-65" transform="translate(2780.529297 0)"/>
    <use xlink:href="#DejaVuSans-Bold-72" transform="translate(2848.351562 0)"/>
    <use xlink:href="#DejaVuSans-Bold-69" transform="translate(2897.667969 0)"/>
    <use xlink:href="#DejaVuSans-Bold-75" transform="translate(2931.945312 0)"/>
    <use xlink:href="#DejaVuSans-Bold-6d" transform="translate(3003.136719 0)"/>
   </g>
  </g>
 </g>
 <defs>
  <clipPath id="p553edccc2c">
   <rect x="50.14375" y="51.36" width="335.356" height="230.68"/>
  </clipPath>
  <clipPath id="paaf6c18316">
   <rect x="439.51975" y="51.36" width="335.356" height="230.68"/>
  </clipPath>
 </defs>
</svg>
