<?xml version="1.0" encoding="utf-8" standalone="no"?>
<!DOCTYPE svg PUBLIC "-//W3C//DTD SVG 1.1//EN"
  "http://www.w3.org/Graphics/SVG/1.1/DTD/svg11.dtd">
<svg xmlns:xlink="http://www.w3.org/1999/xlink" width="784.46125pt" height="318.87625pt" viewBox="0 0 784.46125 318.87625" xmlns="http://www.w3.org/2000/svg" version="1.1">
 <metadata>
  <rdf:RDF xmlns:dc="http://purl.org/dc/elements/1.1/" xmlns:cc="http://creativecommons.org/ns#" xmlns:rdf="http://www.w3.org/1999/02/22-rdf-syntax-ns#">
   <cc:Work>
    <dc:type rdf:resource="http://purl.org/dc/dcmitype/StillImage"/>
    <dc:date>2026-02-23T10:53:10.326041</dc:date>
    <dc:format>image/svg+xml</dc:format>
    <dc:creator>
     <cc:Agent>
      <dc:title>Matplotlib v3.10.8, https://matplotlib.org/</dc:title>
     </cc:Agent>
    </dc:creator>
   </cc:Work>
  </rdf:RDF>
 </metadata>
 <defs>
  <style type="text/css">*{stroke-linejoin: round; stroke-linecap: butt}</style>
 </defs>
 <g id="figure_1">
  <g id="patch_1">
   <path d="M 0 318.87625 
L 784.46125 318.87625 
L 784.46125 0 
L 0 0 
z
" style="fill: #ffffff"/>
  </g>
  <g id="axes_1">
   <g id="patch_2">
    <path d="M 43.78125 281.32 
L 381.105223 281.32 
L 381.105223 51.36 
L 43.78125 51.36 
z
" style="fill: #ffffff"/>
   </g>
   <g id="matplotlib.axis_1">
    <g id="xtick_1">
     <g id="line2d_1">
      <defs>
       <path id="m1db5ca9b8f" d="M 0 0 
L 0 3.5 
" style="stroke: #000000; stroke-width: 0.8"/>
      </defs>
      <g>
       <use xlink:href="#m1db5ca9b8f" x="59.114158" y="281.32" style="stroke: #000000; stroke-width: 0.8"/>
      </g>
     </g>
     <g id="text_1">
      <!-- 0.0 -->
      <g transform="translate(51.162595 295.918437) scale(0.1 -0.1)">
       <defs>
        <path id="DejaVuSans-30" d="M 2034 4250 
Q 1547 4250 1301 3770 
Q 1056 3291 1056 2328 
Q 1056 1369 1301 889 
Q 1547 409 2034 409 
Q 2525 409 2770 889 
Q 3016 1369 3016 2328 
Q 3016 3291 2770 3770 
Q 2525 4250 2034 4250 
z
M 2034 4750 
Q 2819 4750 3233 4129 
Q 3647 3509 3647 2328 
Q 3647 1150 3233 529 
Q 2819 -91 2034 -91 
Q 1250 -91 836 529 
Q 422 1150 422 2328 
Q 422 3509 836 4129 
Q 1250 4750 2034 4750 
z
" transform="scale(0.015625)"/>
        <path id="DejaVuSans-2e" d="M 684 794 
L 1344 794 
L 1344 0 
L 684 0 
L 684 794 
z
" transform="scale(0.015625)"/>
       </defs>
       <use xlink:href="#DejaVuSans-30"/>
       <use xlink:href="#DejaVuSans-2e" transform="translate(63.623047 0)"/>
       <use xlink:href="#DejaVuSans-30" transform="translate(95.410156 0)"/>
      </g>
     </g>
    </g>
    <g id="xtick_2">
     <g id="line2d_2">
      <g>
       <use xlink:href="#m1db5ca9b8f" x="99.463915" y="281.32" style="stroke: #000000; stroke-width: 0.8"/>
      </g>
     </g>
     <g id="text_2">
      <!-- 2.5 -->
      <g transform="translate(91.512353 295.918437) scale(0.1 -0.1)">
       <defs>
        <path id="DejaVuSans-32" d="M 1228 531 
L 3431 531 
L 3431 0 
L 469 0 
L 469 531 
Q 828 903 1448 1529 
Q 2069 2156 2228 2338 
Q 2531 2678 2651 2914 
Q 2772 3150 2772 3378 
Q 2772 3750 2511 3984 
Q 2250 4219 1831 4219 
Q 1534 4219 1204 4116 
Q 875 4013 500 3803 
L 500 4441 
Q 881 4594 1212 4672 
Q 1544 4750 1819 4750 
Q 2544 4750 2975 4387 
Q 3406 4025 3406 3419 
Q 3406 3131 3298 2873 
Q 3191 2616 2906 2266 
Q 2828 2175 2409 1742 
Q 1991 1309 1228 531 
z
" transform="scale(0.015625)"/>
        <path id="DejaVuSans-35" d="M 691 4666 
L 3169 4666 
L 3169 4134 
L 1269 4134 
L 1269 2991 
Q 1406 3038 1543 3061 
Q 1681 3084 1819 3084 
Q 2600 3084 3056 2656 
Q 3513 2228 3513 1497 
Q 3513 744 3044 326 
Q 2575 -91 1722 -91 
Q 1428 -91 1123 -41 
Q 819 9 494 109 
L 494 744 
Q 775 591 1075 516 
Q 1375 441 1709 441 
Q 2250 441 2565 725 
Q 2881 1009 2881 1497 
Q 2881 1984 2565 2268 
Q 2250 2553 1709 2553 
Q 1456 2553 1204 2497 
Q 953 2441 691 2322 
L 691 4666 
z
" transform="scale(0.015625)"/>
       </defs>
       <use xlink:href="#DejaVuSans-32"/>
       <use xlink:href="#DejaVuSans-2e" transform="translate(63.623047 0)"/>
       <use xlink:href="#DejaVuSans-35" transform="translate(95.410156 0)"/>
      </g>
     </g>
    </g>
    <g id="xtick_3">
     <g id="line2d_3">
      <g>
       <use xlink:href="#m1db5ca9b8f" x="139.813673" y="281.32" style="stroke: #000000; stroke-width: 0.8"/>
      </g>
     </g>
     <g id="text_3">
      <!-- 5.0 -->
      <g transform="translate(131.86211 295.918437) scale(0.1 -0.1)">
       <use xlink:href="#DejaVuSans-35"/>
       <use xlink:href="#DejaVuSans-2e" transform="translate(63.623047 0)"/>
       <use xlink:href="#DejaVuSans-30" transform="translate(95.410156 0)"/>
      </g>
     </g>
    </g>
    <g id="xtick_4">
     <g id="line2d_4">
      <g>
       <use xlink:href="#m1db5ca9b8f" x="180.16343" y="281.32" style="stroke: #000000; stroke-width: 0.8"/>
      </g>
     </g>
     <g id="text_4">
      <!-- 7.5 -->
      <g transform="translate(172.211868 295.918437) scale(0.1 -0.1)">
       <defs>
        <path id="DejaVuSans-37" d="M 525 4666 
L 3525 4666 
L 3525 4397 
L 1831 0 
L 1172 0 
L 2766 4134 
L 525 4134 
L 525 4666 
z
" transform="scale(0.015625)"/>
       </defs>
       <use xlink:href="#DejaVuSans-37"/>
       <use xlink:href="#DejaVuSans-2e" transform="translate(63.623047 0)"/>
       <use xlink:href="#DejaVuSans-35" transform="translate(95.410156 0)"/>
      </g>
     </g>
    </g>
    <g id="xtick_5">
     <g id="line2d_5">
      <g>
       <use xlink:href="#m1db5ca9b8f" x="220.513188" y="281.32" style="stroke: #000000; stroke-width: 0.8"/>
      </g>
     </g>
     <g id="text_5">
      <!-- 10.0 -->
      <g transform="translate(209.380376 295.918437) scale(0.1 -0.1)">
       <defs>
        <path id="DejaVuSans-31" d="M 794 531 
L 1825 531 
L 1825 4091 
L 703 3866 
L 703 4441 
L 1819 4666 
L 2450 4666 
L 2450 531 
L 3481 531 
L 3481 0 
L 794 0 
L 794 531 
z
" transform="scale(0.015625)"/>
       </defs>
       <use xlink:href="#DejaVuSans-31"/>
       <use xlink:href="#DejaVuSans-30" transform="translate(63.623047 0)"/>
       <use xlink:href="#DejaVuSans-2e" transform="translate(127.246094 0)"/>
       <use xlink:href="#DejaVuSans-30" transform="translate(159.033203 0)"/>
      </g>
     </g>
    </g>
    <g id="xtick_6">
     <g id="line2d_6">
      <g>
       <use xlink:href="#m1db5ca9b8f" x="260.862946" y="281.32" style="stroke: #000000; stroke-width: 0.8"/>
      </g>
     </g>
     <g id="text_6">
      <!-- 12.5 -->
      <g transform="translate(249.730133 295.918437) scale(0.1 -0.1)">
       <use xlink:href="#DejaVuSans-31"/>
       <use xlink:href="#DejaVuSans-32" transform="translate(63.623047 0)"/>
       <use xlink:href="#DejaVuSans-2e" transform="translate(127.246094 0)"/>
       <use xlink:href="#DejaVuSans-35" transform="translate(159.033203 0)"/>
      </g>
     </g>
    </g>
    <g id="xtick_7">
     <g id="line2d_7">
      <g>
       <use xlink:href="#m1db5ca9b8f" x="301.212703" y="281.32" style="stroke: #000000; stroke-width: 0.8"/>
      </g>
     </g>
     <g id="text_7">
      <!-- 15.0 -->
      <g transform="translate(290.079891 295.918437) scale(0.1 -0.1)">
       <use xlink:href="#DejaVuSans-31"/>
       <use xlink:href="#DejaVuSans-35" transform="translate(63.623047 0)"/>
       <use xlink:href="#DejaVuSans-2e" transform="translate(127.246094 0)"/>
       <use xlink:href="#DejaVuSans-30" transform="translate(159.033203 0)"/>
      </g>
     </g>
    </g>
    <g id="xtick_8">
     <g id="line2d_8">
      <g>
       <use xlink:href="#m1db5ca9b8f" x="341.562461" y="281.32" style="stroke: #000000; stroke-width: 0.8"/>
      </g>
     </g>
     <g id="text_8">
      <!-- 17.5 -->
      <g transform="translate(330.429648 295.918437) scale(0.1 -0.1)">
       <use xlink:href="#DejaVuSans-31"/>
       <use xlink:href="#DejaVuSans-37" transform="translate(63.623047 0)"/>
       <use xlink:href="#DejaVuSans-2e" transform="translate(127.246094 0)"/>
       <use xlink:href="#DejaVuSans-35" transform="translate(159.033203 0)"/>
      </g>
     </g>
    </g>
    <g id="text_9">
     <!-- Zeit $t$ (Diskrete Schritte) -->
     <g transform="translate(151.493237 309.596562) scale(0.1 -0.1)">
      <defs>
       <path id="DejaVuSans-5a" d="M 359 4666 
L 4025 4666 
L 4025 4184 
L 1075 531 
L 4097 531 
L 4097 0 
L 288 0 
L 288 481 
L 3238 4134 
L 359 4134 
L 359 4666 
z
" transform="scale(0.015625)"/>
       <path id="DejaVuSans-65" d="M 3597 1894 
L 3597 1613 
L 953 1613 
Q 991 1019 1311 708 
Q 1631 397 2203 397 
Q 2534 397 2845 478 
Q 3156 559 3463 722 
L 3463 178 
Q 3153 47 2828 -22 
Q 2503 -91 2169 -91 
Q 1331 -91 842 396 
Q 353 884 353 1716 
Q 353 2575 817 3079 
Q 1281 3584 2069 3584 
Q 2775 3584 3186 3129 
Q 3597 2675 3597 1894 
z
M 3022 2063 
Q 3016 2534 2758 2815 
Q 2500 3097 2075 3097 
Q 1594 3097 1305 2825 
Q 1016 2553 972 2059 
L 3022 2063 
z
" transform="scale(0.015625)"/>
       <path id="DejaVuSans-69" d="M 603 3500 
L 1178 3500 
L 1178 0 
L 603 0 
L 603 3500 
z
M 603 4863 
L 1178 4863 
L 1178 4134 
L 603 4134 
L 603 4863 
z
" transform="scale(0.015625)"/>
       <path id="DejaVuSans-74" d="M 1172 4494 
L 1172 3500 
L 2356 3500 
L 2356 3053 
L 1172 3053 
L 1172 1153 
Q 1172 725 1289 603 
Q 1406 481 1766 481 
L 2356 481 
L 2356 0 
L 1766 0 
Q 1100 0 847 248 
Q 594 497 594 1153 
L 594 3053 
L 172 3053 
L 172 3500 
L 594 3500 
L 594 4494 
L 1172 4494 
z
" transform="scale(0.015625)"/>
       <path id="DejaVuSans-20" transform="scale(0.015625)"/>
       <path id="DejaVuSans-Oblique-74" d="M 2706 3500 
L 2619 3053 
L 1472 3053 
L 1100 1153 
Q 1081 1047 1072 975 
Q 1063 903 1063 863 
Q 1063 663 1183 572 
Q 1303 481 1569 481 
L 2150 481 
L 2053 0 
L 1503 0 
Q 991 0 739 200 
Q 488 400 488 806 
Q 488 878 497 964 
Q 506 1050 525 1153 
L 897 3053 
L 409 3053 
L 500 3500 
L 978 3500 
L 1172 4494 
L 1747 4494 
L 1556 3500 
L 2706 3500 
z
" transform="scale(0.015625)"/>
       <path id="DejaVuSans-28" d="M 1984 4856 
Q 1566 4138 1362 3434 
Q 1159 2731 1159 2009 
Q 1159 1288 1364 580 
Q 1569 -128 1984 -844 
L 1484 -844 
Q 1016 -109 783 600 
Q 550 1309 550 2009 
Q 550 2706 781 3412 
Q 1013 4119 1484 4856 
L 1984 4856 
z
" transform="scale(0.015625)"/>
       <path id="DejaVuSans-44" d="M 1259 4147 
L 1259 519 
L 2022 519 
Q 2988 519 3436 956 
Q 3884 1394 3884 2338 
Q 3884 3275 3436 3711 
Q 2988 4147 2022 4147 
L 1259 4147 
z
M 628 4666 
L 1925 4666 
Q 3281 4666 3915 4102 
Q 4550 3538 4550 2338 
Q 4550 1131 3912 565 
Q 3275 0 1925 0 
L 628 0 
L 628 4666 
z
" transform="scale(0.015625)"/>
       <path id="DejaVuSans-73" d="M 2834 3397 
L 2834 2853 
Q 2591 2978 2328 3040 
Q 2066 3103 1784 3103 
Q 1356 3103 1142 2972 
Q 928 2841 928 2578 
Q 928 2378 1081 2264 
Q 1234 2150 1697 2047 
L 1894 2003 
Q 2506 1872 2764 1633 
Q 3022 1394 3022 966 
Q 3022 478 2636 193 
Q 2250 -91 1575 -91 
Q 1294 -91 989 -36 
Q 684 19 347 128 
L 347 722 
Q 666 556 975 473 
Q 1284 391 1588 391 
Q 1994 391 2212 530 
Q 2431 669 2431 922 
Q 2431 1156 2273 1281 
Q 2116 1406 1581 1522 
L 1381 1569 
Q 847 1681 609 1914 
Q 372 2147 372 2553 
Q 372 3047 722 3315 
Q 1072 3584 1716 3584 
Q 2034 3584 2315 3537 
Q 2597 3491 2834 3397 
z
" transform="scale(0.015625)"/>
       <path id="DejaVuSans-6b" d="M 581 4863 
L 1159 4863 
L 1159 1991 
L 2875 3500 
L 3609 3500 
L 1753 1863 
L 3688 0 
L 2938 0 
L 1159 1709 
L 1159 0 
L 581 0 
L 581 4863 
z
" transform="scale(0.015625)"/>
       <path id="DejaVuSans-72" d="M 2631 2963 
Q 2534 3019 2420 3045 
Q 2306 3072 2169 3072 
Q 1681 3072 1420 2755 
Q 1159 2438 1159 1844 
L 1159 0 
L 581 0 
L 581 3500 
L 1159 3500 
L 1159 2956 
Q 1341 3275 1631 3429 
Q 1922 3584 2338 3584 
Q 2397 3584 2469 3576 
Q 2541 3569 2628 3553 
L 2631 2963 
z
" transform="scale(0.015625)"/>
       <path id="DejaVuSans-53" d="M 3425 4513 
L 3425 3897 
Q 3066 4069 2747 4153 
Q 2428 4238 2131 4238 
Q 1616 4238 1336 4038 
Q 1056 3838 1056 3469 
Q 1056 3159 1242 3001 
Q 1428 2844 1947 2747 
L 2328 2669 
Q 3034 2534 3370 2195 
Q 3706 1856 3706 1288 
Q 3706 609 3251 259 
Q 2797 -91 1919 -91 
Q 1588 -91 1214 -16 
Q 841 59 441 206 
L 441 856 
Q 825 641 1194 531 
Q 1563 422 1919 422 
Q 2459 422 2753 634 
Q 3047 847 3047 1241 
Q 3047 1584 2836 1778 
Q 2625 1972 2144 2069 
L 1759 2144 
Q 1053 2284 737 2584 
Q 422 2884 422 3419 
Q 422 4038 858 4394 
Q 1294 4750 2059 4750 
Q 2388 4750 2728 4690 
Q 3069 4631 3425 4513 
z
" transform="scale(0.015625)"/>
       <path id="DejaVuSans-63" d="M 3122 3366 
L 3122 2828 
Q 2878 2963 2633 3030 
Q 2388 3097 2138 3097 
Q 1578 3097 1268 2742 
Q 959 2388 959 1747 
Q 959 1106 1268 751 
Q 1578 397 2138 397 
Q 2388 397 2633 464 
Q 2878 531 3122 666 
L 3122 134 
Q 2881 22 2623 -34 
Q 2366 -91 2075 -91 
Q 1284 -91 818 406 
Q 353 903 353 1747 
Q 353 2603 823 3093 
Q 1294 3584 2113 3584 
Q 2378 3584 2631 3529 
Q 2884 3475 3122 3366 
z
" transform="scale(0.015625)"/>
       <path id="DejaVuSans-68" d="M 3513 2113 
L 3513 0 
L 2938 0 
L 2938 2094 
Q 2938 2591 2744 2837 
Q 2550 3084 2163 3084 
Q 1697 3084 1428 2787 
Q 1159 2491 1159 1978 
L 1159 0 
L 581 0 
L 581 4863 
L 1159 4863 
L 1159 2956 
Q 1366 3272 1645 3428 
Q 1925 3584 2291 3584 
Q 2894 3584 3203 3211 
Q 3513 2838 3513 2113 
z
" transform="scale(0.015625)"/>
       <path id="DejaVuSans-29" d="M 513 4856 
L 1013 4856 
Q 1481 4119 1714 3412 
Q 1947 2706 1947 2009 
Q 1947 1309 1714 600 
Q 1481 -109 1013 -844 
L 513 -844 
Q 928 -128 1133 580 
Q 1338 1288 1338 2009 
Q 1338 2731 1133 3434 
Q 928 4138 513 4856 
z
" transform="scale(0.015625)"/>
      </defs>
      <use xlink:href="#DejaVuSans-5a" transform="translate(0 0.015625)"/>
      <use xlink:href="#DejaVuSans-65" transform="translate(68.505859 0.015625)"/>
      <use xlink:href="#DejaVuSans-69" transform="translate(130.029297 0.015625)"/>
      <use xlink:href="#DejaVuSans-74" transform="translate(157.8125 0.015625)"/>
      <use xlink:href="#DejaVuSans-20" transform="translate(197.021484 0.015625)"/>
      <use xlink:href="#DejaVuSans-Oblique-74" transform="translate(228.808594 0.015625)"/>
      <use xlink:href="#DejaVuSans-20" transform="translate(268.017578 0.015625)"/>
      <use xlink:href="#DejaVuSans-28" transform="translate(299.804688 0.015625)"/>
      <use xlink:href="#DejaVuSans-44" transform="translate(338.818359 0.015625)"/>
      <use xlink:href="#DejaVuSans-69" transform="translate(415.820312 0.015625)"/>
      <use xlink:href="#DejaVuSans-73" transform="translate(443.603516 0.015625)"/>
      <use xlink:href="#DejaVuSans-6b" transform="translate(495.703125 0.015625)"/>
      <use xlink:href="#DejaVuSans-72" transform="translate(553.613281 0.015625)"/>
      <use xlink:href="#DejaVuSans-65" transform="translate(594.726562 0.015625)"/>
      <use xlink:href="#DejaVuSans-74" transform="translate(656.25 0.015625)"/>
      <use xlink:href="#DejaVuSans-65" transform="translate(695.458984 0.015625)"/>
      <use xlink:href="#DejaVuSans-20" transform="translate(756.982422 0.015625)"/>
      <use xlink:href="#DejaVuSans-53" transform="translate(788.769531 0.015625)"/>
      <use xlink:href="#DejaVuSans-63" transform="translate(852.246094 0.015625)"/>
      <use xlink:href="#DejaVuSans-68" transform="translate(907.226562 0.015625)"/>
      <use xlink:href="#DejaVuSans-72" transform="translate(970.605469 0.015625)"/>
      <use xlink:href="#DejaVuSans-69" transform="translate(1011.71875 0.015625)"/>
      <use xlink:href="#DejaVuSans-74" transform="translate(1039.501953 0.015625)"/>
      <use xlink:href="#DejaVuSans-74" transform="translate(1078.710938 0.015625)"/>
      <use xlink:href="#DejaVuSans-65" transform="translate(1117.919922 0.015625)"/>
      <use xlink:href="#DejaVuSans-29" transform="translate(1179.443359 0.015625)"/>
     </g>
    </g>
   </g>
   <g id="matplotlib.axis_2">
    <g id="ytick_1">
     <g id="line2d_9">
      <defs>
       <path id="m7483eaa89c" d="M 0 0 
L -3.5 0 
" style="stroke: #000000; stroke-width: 0.8"/>
      </defs>
      <g>
       <use xlink:href="#m7483eaa89c" x="43.78125" y="270.867273" style="stroke: #000000; stroke-width: 0.8"/>
      </g>
     </g>
     <g id="text_10">
      <!-- 0.0 -->
      <g transform="translate(20.878125 274.666491) scale(0.1 -0.1)">
       <use xlink:href="#DejaVuSans-30"/>
       <use xlink:href="#DejaVuSans-2e" transform="translate(63.623047 0)"/>
       <use xlink:href="#DejaVuSans-30" transform="translate(95.410156 0)"/>
      </g>
     </g>
    </g>
    <g id="ytick_2">
     <g id="line2d_10">
      <g>
       <use xlink:href="#m7483eaa89c" x="43.78125" y="229.056364" style="stroke: #000000; stroke-width: 0.8"/>
      </g>
     </g>
     <g id="text_11">
      <!-- 0.2 -->
      <g transform="translate(20.878125 232.855582) scale(0.1 -0.1)">
       <use xlink:href="#DejaVuSans-30"/>
       <use xlink:href="#DejaVuSans-2e" transform="translate(63.623047 0)"/>
       <use xlink:href="#DejaVuSans-32" transform="translate(95.410156 0)"/>
      </g>
     </g>
    </g>
    <g id="ytick_3">
     <g id="line2d_11">
      <g>
       <use xlink:href="#m7483eaa89c" x="43.78125" y="187.245455" style="stroke: #000000; stroke-width: 0.8"/>
      </g>
     </g>
     <g id="text_12">
      <!-- 0.4 -->
      <g transform="translate(20.878125 191.044673) scale(0.1 -0.1)">
       <defs>
        <path id="DejaVuSans-34" d="M 2419 4116 
L 825 1625 
L 2419 1625 
L 2419 4116 
z
M 2253 4666 
L 3047 4666 
L 3047 1625 
L 3713 1625 
L 3713 1100 
L 3047 1100 
L 3047 0 
L 2419 0 
L 2419 1100 
L 313 1100 
L 313 1709 
L 2253 4666 
z
" transform="scale(0.015625)"/>
       </defs>
       <use xlink:href="#DejaVuSans-30"/>
       <use xlink:href="#DejaVuSans-2e" transform="translate(63.623047 0)"/>
       <use xlink:href="#DejaVuSans-34" transform="translate(95.410156 0)"/>
      </g>
     </g>
    </g>
    <g id="ytick_4">
     <g id="line2d_12">
      <g>
       <use xlink:href="#m7483eaa89c" x="43.78125" y="145.434545" style="stroke: #000000; stroke-width: 0.8"/>
      </g>
     </g>
     <g id="text_13">
      <!-- 0.6 -->
      <g transform="translate(20.878125 149.233764) scale(0.1 -0.1)">
       <defs>
        <path id="DejaVuSans-36" d="M 2113 2584 
Q 1688 2584 1439 2293 
Q 1191 2003 1191 1497 
Q 1191 994 1439 701 
Q 1688 409 2113 409 
Q 2538 409 2786 701 
Q 3034 994 3034 1497 
Q 3034 2003 2786 2293 
Q 2538 2584 2113 2584 
z
M 3366 4563 
L 3366 3988 
Q 3128 4100 2886 4159 
Q 2644 4219 2406 4219 
Q 1781 4219 1451 3797 
Q 1122 3375 1075 2522 
Q 1259 2794 1537 2939 
Q 1816 3084 2150 3084 
Q 2853 3084 3261 2657 
Q 3669 2231 3669 1497 
Q 3669 778 3244 343 
Q 2819 -91 2113 -91 
Q 1303 -91 875 529 
Q 447 1150 447 2328 
Q 447 3434 972 4092 
Q 1497 4750 2381 4750 
Q 2619 4750 2861 4703 
Q 3103 4656 3366 4563 
z
" transform="scale(0.015625)"/>
       </defs>
       <use xlink:href="#DejaVuSans-30"/>
       <use xlink:href="#DejaVuSans-2e" transform="translate(63.623047 0)"/>
       <use xlink:href="#DejaVuSans-36" transform="translate(95.410156 0)"/>
      </g>
     </g>
    </g>
    <g id="ytick_5">
     <g id="line2d_13">
      <g>
       <use xlink:href="#m7483eaa89c" x="43.78125" y="103.623636" style="stroke: #000000; stroke-width: 0.8"/>
      </g>
     </g>
     <g id="text_14">
      <!-- 0.8 -->
      <g transform="translate(20.878125 107.422855) scale(0.1 -0.1)">
       <defs>
        <path id="DejaVuSans-38" d="M 2034 2216 
Q 1584 2216 1326 1975 
Q 1069 1734 1069 1313 
Q 1069 891 1326 650 
Q 1584 409 2034 409 
Q 2484 409 2743 651 
Q 3003 894 3003 1313 
Q 3003 1734 2745 1975 
Q 2488 2216 2034 2216 
z
M 1403 2484 
Q 997 2584 770 2862 
Q 544 3141 544 3541 
Q 544 4100 942 4425 
Q 1341 4750 2034 4750 
Q 2731 4750 3128 4425 
Q 3525 4100 3525 3541 
Q 3525 3141 3298 2862 
Q 3072 2584 2669 2484 
Q 3125 2378 3379 2068 
Q 3634 1759 3634 1313 
Q 3634 634 3220 271 
Q 2806 -91 2034 -91 
Q 1263 -91 848 271 
Q 434 634 434 1313 
Q 434 1759 690 2068 
Q 947 2378 1403 2484 
z
M 1172 3481 
Q 1172 3119 1398 2916 
Q 1625 2713 2034 2713 
Q 2441 2713 2670 2916 
Q 2900 3119 2900 3481 
Q 2900 3844 2670 4047 
Q 2441 4250 2034 4250 
Q 1625 4250 1398 4047 
Q 1172 3844 1172 3481 
z
" transform="scale(0.015625)"/>
       </defs>
       <use xlink:href="#DejaVuSans-30"/>
       <use xlink:href="#DejaVuSans-2e" transform="translate(63.623047 0)"/>
       <use xlink:href="#DejaVuSans-38" transform="translate(95.410156 0)"/>
      </g>
     </g>
    </g>
    <g id="ytick_6">
     <g id="line2d_14">
      <g>
       <use xlink:href="#m7483eaa89c" x="43.78125" y="61.812727" style="stroke: #000000; stroke-width: 0.8"/>
      </g>
     </g>
     <g id="text_15">
      <!-- 1.0 -->
      <g transform="translate(20.878125 65.611946) scale(0.1 -0.1)">
       <use xlink:href="#DejaVuSans-31"/>
       <use xlink:href="#DejaVuSans-2e" transform="translate(63.623047 0)"/>
       <use xlink:href="#DejaVuSans-30" transform="translate(95.410156 0)"/>
      </g>
     </g>
    </g>
    <g id="text_16">
     <!-- Wahrscheinlichkeit -->
     <g transform="translate(14.798438 213.24625) rotate(-90) scale(0.1 -0.1)">
      <defs>
       <path id="DejaVuSans-57" d="M 213 4666 
L 850 4666 
L 1831 722 
L 2809 4666 
L 3519 4666 
L 4500 722 
L 5478 4666 
L 6119 4666 
L 4947 0 
L 4153 0 
L 3169 4050 
L 2175 0 
L 1381 0 
L 213 4666 
z
" transform="scale(0.015625)"/>
       <path id="DejaVuSans-61" d="M 2194 1759 
Q 1497 1759 1228 1600 
Q 959 1441 959 1056 
Q 959 750 1161 570 
Q 1363 391 1709 391 
Q 2188 391 2477 730 
Q 2766 1069 2766 1631 
L 2766 1759 
L 2194 1759 
z
M 3341 1997 
L 3341 0 
L 2766 0 
L 2766 531 
Q 2569 213 2275 61 
Q 1981 -91 1556 -91 
Q 1019 -91 701 211 
Q 384 513 384 1019 
Q 384 1609 779 1909 
Q 1175 2209 1959 2209 
L 2766 2209 
L 2766 2266 
Q 2766 2663 2505 2880 
Q 2244 3097 1772 3097 
Q 1472 3097 1187 3025 
Q 903 2953 641 2809 
L 641 3341 
Q 956 3463 1253 3523 
Q 1550 3584 1831 3584 
Q 2591 3584 2966 3190 
Q 3341 2797 3341 1997 
z
" transform="scale(0.015625)"/>
       <path id="DejaVuSans-6e" d="M 3513 2113 
L 3513 0 
L 2938 0 
L 2938 2094 
Q 2938 2591 2744 2837 
Q 2550 3084 2163 3084 
Q 1697 3084 1428 2787 
Q 1159 2491 1159 1978 
L 1159 0 
L 581 0 
L 581 3500 
L 1159 3500 
L 1159 2956 
Q 1366 3272 1645 3428 
Q 1925 3584 2291 3584 
Q 2894 3584 3203 3211 
Q 3513 2838 3513 2113 
z
" transform="scale(0.015625)"/>
       <path id="DejaVuSans-6c" d="M 603 4863 
L 1178 4863 
L 1178 0 
L 603 0 
L 603 4863 
z
" transform="scale(0.015625)"/>
      </defs>
      <use xlink:href="#DejaVuSans-57"/>
      <use xlink:href="#DejaVuSans-61" transform="translate(92.501953 0)"/>
      <use xlink:href="#DejaVuSans-68" transform="translate(153.78125 0)"/>
      <use xlink:href="#DejaVuSans-72" transform="translate(217.160156 0)"/>
      <use xlink:href="#DejaVuSans-73" transform="translate(258.273438 0)"/>
      <use xlink:href="#DejaVuSans-63" transform="translate(310.373047 0)"/>
      <use xlink:href="#DejaVuSans-68" transform="translate(365.353516 0)"/>
      <use xlink:href="#DejaVuSans-65" transform="translate(428.732422 0)"/>
      <use xlink:href="#DejaVuSans-69" transform="translate(490.255859 0)"/>
      <use xlink:href="#DejaVuSans-6e" transform="translate(518.039062 0)"/>
      <use xlink:href="#DejaVuSans-6c" transform="translate(581.417969 0)"/>
      <use xlink:href="#DejaVuSans-69" transform="translate(609.201172 0)"/>
      <use xlink:href="#DejaVuSans-63" transform="translate(636.984375 0)"/>
      <use xlink:href="#DejaVuSans-68" transform="translate(691.964844 0)"/>
      <use xlink:href="#DejaVuSans-6b" transform="translate(755.34375 0)"/>
      <use xlink:href="#DejaVuSans-65" transform="translate(809.628906 0)"/>
      <use xlink:href="#DejaVuSans-69" transform="translate(871.152344 0)"/>
      <use xlink:href="#DejaVuSans-74" transform="translate(898.935547 0)"/>
     </g>
    </g>
   </g>
   <g id="line2d_15">
    <path d="M 59.114158 61.812727 
L 75.254061 124.529091 
L 91.393964 143.344 
L 107.533867 148.988473 
L 123.67377 150.681815 
L 139.813673 151.189817 
L 155.953576 151.342218 
L 172.093479 151.387938 
L 188.233382 151.401654 
L 204.373285 151.405769 
L 220.513188 151.407003 
L 236.653091 151.407374 
L 252.792994 151.407485 
L 268.932897 151.407518 
L 285.0728 151.407528 
L 301.212703 151.407531 
L 317.352606 151.407532 
L 333.492509 151.407532 
L 349.632412 151.407532 
L 365.772315 151.407532 
" clip-path="url(#pe999ae069a)" style="fill: none; stroke: #2196f3; stroke-width: 1.8; stroke-linecap: square"/>
    <defs>
     <path id="m4bf8d90ffb" d="M 0 3 
C 0.795609 3 1.55874 2.683901 2.12132 2.12132 
C 2.683901 1.55874 3 0.795609 3 0 
C 3 -0.795609 2.683901 -1.55874 2.12132 -2.12132 
C 1.55874 -2.683901 0.795609 -3 0 -3 
C -0.795609 -3 -1.55874 -2.683901 -2.12132 -2.12132 
C -2.683901 -1.55874 -3 -0.795609 -3 0 
C -3 0.795609 -2.683901 1.55874 -2.12132 2.12132 
C -1.55874 2.683901 -0.795609 3 0 3 
z
" style="stroke: #2196f3"/>
    </defs>
    <g clip-path="url(#pe999ae069a)">
     <use xlink:href="#m4bf8d90ffb" x="59.114158" y="61.812727" style="fill: #2196f3; stroke: #2196f3"/>
     <use xlink:href="#m4bf8d90ffb" x="75.254061" y="124.529091" style="fill: #2196f3; stroke: #2196f3"/>
     <use xlink:href="#m4bf8d90ffb" x="91.393964" y="143.344" style="fill: #2196f3; stroke: #2196f3"/>
     <use xlink:href="#m4bf8d90ffb" x="107.533867" y="148.988473" style="fill: #2196f3; stroke: #2196f3"/>
     <use xlink:href="#m4bf8d90ffb" x="123.67377" y="150.681815" style="fill: #2196f3; stroke: #2196f3"/>
     <use xlink:href="#m4bf8d90ffb" x="139.813673" y="151.189817" style="fill: #2196f3; stroke: #2196f3"/>
     <use xlink:href="#m4bf8d90ffb" x="155.953576" y="151.342218" style="fill: #2196f3; stroke: #2196f3"/>
     <use xlink:href="#m4bf8d90ffb" x="172.093479" y="151.387938" style="fill: #2196f3; stroke: #2196f3"/>
     <use xlink:href="#m4bf8d90ffb" x="188.233382" y="151.401654" style="fill: #2196f3; stroke: #2196f3"/>
     <use xlink:href="#m4bf8d90ffb" x="204.373285" y="151.405769" style="fill: #2196f3; stroke: #2196f3"/>
     <use xlink:href="#m4bf8d90ffb" x="220.513188" y="151.407003" style="fill: #2196f3; stroke: #2196f3"/>
     <use xlink:href="#m4bf8d90ffb" x="236.653091" y="151.407374" style="fill: #2196f3; stroke: #2196f3"/>
     <use xlink:href="#m4bf8d90ffb" x="252.792994" y="151.407485" style="fill: #2196f3; stroke: #2196f3"/>
     <use xlink:href="#m4bf8d90ffb" x="268.932897" y="151.407518" style="fill: #2196f3; stroke: #2196f3"/>
     <use xlink:href="#m4bf8d90ffb" x="285.0728" y="151.407528" style="fill: #2196f3; stroke: #2196f3"/>
     <use xlink:href="#m4bf8d90ffb" x="301.212703" y="151.407531" style="fill: #2196f3; stroke: #2196f3"/>
     <use xlink:href="#m4bf8d90ffb" x="317.352606" y="151.407532" style="fill: #2196f3; stroke: #2196f3"/>
     <use xlink:href="#m4bf8d90ffb" x="333.492509" y="151.407532" style="fill: #2196f3; stroke: #2196f3"/>
     <use xlink:href="#m4bf8d90ffb" x="349.632412" y="151.407532" style="fill: #2196f3; stroke: #2196f3"/>
     <use xlink:href="#m4bf8d90ffb" x="365.772315" y="151.407532" style="fill: #2196f3; stroke: #2196f3"/>
    </g>
   </g>
   <g id="line2d_16">
    <path d="M 59.114158 270.867273 
L 75.254061 208.150909 
L 91.393964 189.336 
L 107.533867 183.691527 
L 123.67377 181.998185 
L 139.813673 181.490183 
L 155.953576 181.337782 
L 172.093479 181.292062 
L 188.233382 181.278346 
L 204.373285 181.274231 
L 220.513188 181.272997 
L 236.653091 181.272626 
L 252.792994 181.272515 
L 268.932897 181.272482 
L 285.0728 181.272472 
L 301.212703 181.272469 
L 317.352606 181.272468 
L 333.492509 181.272468 
L 349.632412 181.272468 
L 365.772315 181.272468 
" clip-path="url(#pe999ae069a)" style="fill: none; stroke: #ff9800; stroke-width: 1.8; stroke-linecap: square"/>
    <defs>
     <path id="m971d7edf9e" d="M -3 3 
L 3 3 
L 3 -3 
L -3 -3 
z
" style="stroke: #ff9800; stroke-linejoin: miter"/>
    </defs>
    <g clip-path="url(#pe999ae069a)">
     <use xlink:href="#m971d7edf9e" x="59.114158" y="270.867273" style="fill: #ff9800; stroke: #ff9800; stroke-linejoin: miter"/>
     <use xlink:href="#m971d7edf9e" x="75.254061" y="208.150909" style="fill: #ff9800; stroke: #ff9800; stroke-linejoin: miter"/>
     <use xlink:href="#m971d7edf9e" x="91.393964" y="189.336" style="fill: #ff9800; stroke: #ff9800; stroke-linejoin: miter"/>
     <use xlink:href="#m971d7edf9e" x="107.533867" y="183.691527" style="fill: #ff9800; stroke: #ff9800; stroke-linejoin: miter"/>
     <use xlink:href="#m971d7edf9e" x="123.67377" y="181.998185" style="fill: #ff9800; stroke: #ff9800; stroke-linejoin: miter"/>
     <use xlink:href="#m971d7edf9e" x="139.813673" y="181.490183" style="fill: #ff9800; stroke: #ff9800; stroke-linejoin: miter"/>
     <use xlink:href="#m971d7edf9e" x="155.953576" y="181.337782" style="fill: #ff9800; stroke: #ff9800; stroke-linejoin: miter"/>
     <use xlink:href="#m971d7edf9e" x="172.093479" y="181.292062" style="fill: #ff9800; stroke: #ff9800; stroke-linejoin: miter"/>
     <use xlink:href="#m971d7edf9e" x="188.233382" y="181.278346" style="fill: #ff9800; stroke: #ff9800; stroke-linejoin: miter"/>
     <use xlink:href="#m971d7edf9e" x="204.373285" y="181.274231" style="fill: #ff9800; stroke: #ff9800; stroke-linejoin: miter"/>
     <use xlink:href="#m971d7edf9e" x="220.513188" y="181.272997" style="fill: #ff9800; stroke: #ff9800; stroke-linejoin: miter"/>
     <use xlink:href="#m971d7edf9e" x="236.653091" y="181.272626" style="fill: #ff9800; stroke: #ff9800; stroke-linejoin: miter"/>
     <use xlink:href="#m971d7edf9e" x="252.792994" y="181.272515" style="fill: #ff9800; stroke: #ff9800; stroke-linejoin: miter"/>
     <use xlink:href="#m971d7edf9e" x="268.932897" y="181.272482" style="fill: #ff9800; stroke: #ff9800; stroke-linejoin: miter"/>
     <use xlink:href="#m971d7edf9e" x="285.0728" y="181.272472" style="fill: #ff9800; stroke: #ff9800; stroke-linejoin: miter"/>
     <use xlink:href="#m971d7edf9e" x="301.212703" y="181.272469" style="fill: #ff9800; stroke: #ff9800; stroke-linejoin: miter"/>
     <use xlink:href="#m971d7edf9e" x="317.352606" y="181.272468" style="fill: #ff9800; stroke: #ff9800; stroke-linejoin: miter"/>
     <use xlink:href="#m971d7edf9e" x="333.492509" y="181.272468" style="fill: #ff9800; stroke: #ff9800; stroke-linejoin: miter"/>
     <use xlink:href="#m971d7edf9e" x="349.632412" y="181.272468" style="fill: #ff9800; stroke: #ff9800; stroke-linejoin: miter"/>
     <use xlink:href="#m971d7edf9e" x="365.772315" y="181.272468" style="fill: #ff9800; stroke: #ff9800; stroke-linejoin: miter"/>
    </g>
   </g>
   <g id="line2d_17">
    <path d="M 43.78125 151.407532 
L 381.105223 151.407532 
" clip-path="url(#pe999ae069a)" style="fill: none; stroke-dasharray: 5.55,2.4; stroke-dashoffset: 0; stroke: #2196f3; stroke-opacity: 0.5; stroke-width: 1.5"/>
   </g>
   <g id="line2d_18">
    <path d="M 43.78125 181.272468 
L 381.105223 181.272468 
" clip-path="url(#pe999ae069a)" style="fill: none; stroke-dasharray: 5.55,2.4; stroke-dashoffset: 0; stroke: #ff9800; stroke-opacity: 0.5; stroke-width: 1.5"/>
   </g>
   <g id="patch_3">
    <path d="M 43.78125 281.32 
L 43.78125 51.36 
" style="fill: none; stroke: #000000; stroke-width: 0.8; stroke-linejoin: miter; stroke-linecap: square"/>
   </g>
   <g id="patch_4">
    <path d="M 381.105223 281.32 
L 381.105223 51.36 
" style="fill: none; stroke: #000000; stroke-width: 0.8; stroke-linejoin: miter; stroke-linecap: square"/>
   </g>
   <g id="patch_5">
    <path d="M 43.78125 281.32 
L 381.105223 281.32 
" style="fill: none; stroke: #000000; stroke-width: 0.8; stroke-linejoin: miter; stroke-linecap: square"/>
   </g>
   <g id="patch_6">
    <path d="M 43.78125 51.36 
L 381.105223 51.36 
" style="fill: none; stroke: #000000; stroke-width: 0.8; stroke-linejoin: miter; stroke-linecap: square"/>
   </g>
   <g id="text_17">
    <!-- Zeitliche Evolution der Zustandsverteilung -->
    <g transform="translate(84.525112 45.36) scale(0.12 -0.12)">
     <defs>
      <path id="DejaVuSans-45" d="M 628 4666 
L 3578 4666 
L 3578 4134 
L 1259 4134 
L 1259 2753 
L 3481 2753 
L 3481 2222 
L 1259 2222 
L 1259 531 
L 3634 531 
L 3634 0 
L 628 0 
L 628 4666 
z
" transform="scale(0.015625)"/>
      <path id="DejaVuSans-76" d="M 191 3500 
L 800 3500 
L 1894 563 
L 2988 3500 
L 3597 3500 
L 2284 0 
L 1503 0 
L 191 3500 
z
" transform="scale(0.015625)"/>
      <path id="DejaVuSans-6f" d="M 1959 3097 
Q 1497 3097 1228 2736 
Q 959 2375 959 1747 
Q 959 1119 1226 758 
Q 1494 397 1959 397 
Q 2419 397 2687 759 
Q 2956 1122 2956 1747 
Q 2956 2369 2687 2733 
Q 2419 3097 1959 3097 
z
M 1959 3584 
Q 2709 3584 3137 3096 
Q 3566 2609 3566 1747 
Q 3566 888 3137 398 
Q 2709 -91 1959 -91 
Q 1206 -91 779 398 
Q 353 888 353 1747 
Q 353 2609 779 3096 
Q 1206 3584 1959 3584 
z
" transform="scale(0.015625)"/>
      <path id="DejaVuSans-75" d="M 544 1381 
L 544 3500 
L 1119 3500 
L 1119 1403 
Q 1119 906 1312 657 
Q 1506 409 1894 409 
Q 2359 409 2629 706 
Q 2900 1003 2900 1516 
L 2900 3500 
L 3475 3500 
L 3475 0 
L 2900 0 
L 2900 538 
Q 2691 219 2414 64 
Q 2138 -91 1772 -91 
Q 1169 -91 856 284 
Q 544 659 544 1381 
z
M 1991 3584 
L 1991 3584 
z
" transform="scale(0.015625)"/>
      <path id="DejaVuSans-64" d="M 2906 2969 
L 2906 4863 
L 3481 4863 
L 3481 0 
L 2906 0 
L 2906 525 
Q 2725 213 2448 61 
Q 2172 -91 1784 -91 
Q 1150 -91 751 415 
Q 353 922 353 1747 
Q 353 2572 751 3078 
Q 1150 3584 1784 3584 
Q 2172 3584 2448 3432 
Q 2725 3281 2906 2969 
z
M 947 1747 
Q 947 1113 1208 752 
Q 1469 391 1925 391 
Q 2381 391 2643 752 
Q 2906 1113 2906 1747 
Q 2906 2381 2643 2742 
Q 2381 3103 1925 3103 
Q 1469 3103 1208 2742 
Q 947 2381 947 1747 
z
" transform="scale(0.015625)"/>
      <path id="DejaVuSans-67" d="M 2906 1791 
Q 2906 2416 2648 2759 
Q 2391 3103 1925 3103 
Q 1463 3103 1205 2759 
Q 947 2416 947 1791 
Q 947 1169 1205 825 
Q 1463 481 1925 481 
Q 2391 481 2648 825 
Q 2906 1169 2906 1791 
z
M 3481 434 
Q 3481 -459 3084 -895 
Q 2688 -1331 1869 -1331 
Q 1566 -1331 1297 -1286 
Q 1028 -1241 775 -1147 
L 775 -588 
Q 1028 -725 1275 -790 
Q 1522 -856 1778 -856 
Q 2344 -856 2625 -561 
Q 2906 -266 2906 331 
L 2906 616 
Q 2728 306 2450 153 
Q 2172 0 1784 0 
Q 1141 0 747 490 
Q 353 981 353 1791 
Q 353 2603 747 3093 
Q 1141 3584 1784 3584 
Q 2172 3584 2450 3431 
Q 2728 3278 2906 2969 
L 2906 3500 
L 3481 3500 
L 3481 434 
z
" transform="scale(0.015625)"/>
     </defs>
     <use xlink:href="#DejaVuSans-5a"/>
     <use xlink:href="#DejaVuSans-65" transform="translate(68.505859 0)"/>
     <use xlink:href="#DejaVuSans-69" transform="translate(130.029297 0)"/>
     <use xlink:href="#DejaVuSans-74" transform="translate(157.8125 0)"/>
     <use xlink:href="#DejaVuSans-6c" transform="translate(197.021484 0)"/>
     <use xlink:href="#DejaVuSans-69" transform="translate(224.804688 0)"/>
     <use xlink:href="#DejaVuSans-63" transform="translate(252.587891 0)"/>
     <use xlink:href="#DejaVuSans-68" transform="translate(307.568359 0)"/>
     <use xlink:href="#DejaVuSans-65" transform="translate(370.947266 0)"/>
     <use xlink:href="#DejaVuSans-20" transform="translate(432.470703 0)"/>
     <use xlink:href="#DejaVuSans-45" transform="translate(464.257812 0)"/>
     <use xlink:href="#DejaVuSans-76" transform="translate(527.441406 0)"/>
     <use xlink:href="#DejaVuSans-6f" transform="translate(586.621094 0)"/>
     <use xlink:href="#DejaVuSans-6c" transform="translate(647.802734 0)"/>
     <use xlink:href="#DejaVuSans-75" transform="translate(675.585938 0)"/>
     <use xlink:href="#DejaVuSans-74" transform="translate(738.964844 0)"/>
     <use xlink:href="#DejaVuSans-69" transform="translate(778.173828 0)"/>
     <use xlink:href="#DejaVuSans-6f" transform="translate(805.957031 0)"/>
     <use xlink:href="#DejaVuSans-6e" transform="translate(867.138672 0)"/>
     <use xlink:href="#DejaVuSans-20" transform="translate(930.517578 0)"/>
     <use xlink:href="#DejaVuSans-64" transform="translate(962.304688 0)"/>
     <use xlink:href="#DejaVuSans-65" transform="translate(1025.78125 0)"/>
     <use xlink:href="#DejaVuSans-72" transform="translate(1087.304688 0)"/>
     <use xlink:href="#DejaVuSans-20" transform="translate(1128.417969 0)"/>
     <use xlink:href="#DejaVuSans-5a" transform="translate(1160.205078 0)"/>
     <use xlink:href="#DejaVuSans-75" transform="translate(1228.710938 0)"/>
     <use xlink:href="#DejaVuSans-73" transform="translate(1292.089844 0)"/>
     <use xlink:href="#DejaVuSans-74" transform="translate(1344.189453 0)"/>
     <use xlink:href="#DejaVuSans-61" transform="translate(1383.398438 0)"/>
     <use xlink:href="#DejaVuSans-6e" transform="translate(1444.677734 0)"/>
     <use xlink:href="#DejaVuSans-64" transform="translate(1508.056641 0)"/>
     <use xlink:href="#DejaVuSans-73" transform="translate(1571.533203 0)"/>
     <use xlink:href="#DejaVuSans-76" transform="translate(1623.632812 0)"/>
     <use xlink:href="#DejaVuSans-65" transform="translate(1682.8125 0)"/>
     <use xlink:href="#DejaVuSans-72" transform="translate(1744.335938 0)"/>
     <use xlink:href="#DejaVuSans-74" transform="translate(1785.449219 0)"/>
     <use xlink:href="#DejaVuSans-65" transform="translate(1824.658203 0)"/>
     <use xlink:href="#DejaVuSans-69" transform="translate(1886.181641 0)"/>
     <use xlink:href="#DejaVuSans-6c" transform="translate(1913.964844 0)"/>
     <use xlink:href="#DejaVuSans-75" transform="translate(1941.748047 0)"/>
     <use xlink:href="#DejaVuSans-6e" transform="translate(2005.126953 0)"/>
     <use xlink:href="#DejaVuSans-67" transform="translate(2068.505859 0)"/>
    </g>
   </g>
   <g id="legend_1">
    <g id="patch_7">
     <path d="M 282.305223 104.765 
L 375.505223 104.765 
Q 377.105223 104.765 377.105223 103.165 
L 377.105223 56.96 
Q 377.105223 55.36 375.505223 55.36 
L 282.305223 55.36 
Q 280.705223 55.36 280.705223 56.96 
L 280.705223 103.165 
Q 280.705223 104.765 282.305223 104.765 
z
" style="fill: #ffffff; opacity: 0.8; stroke: #cccccc; stroke-linejoin: miter"/>
    </g>
    <g id="line2d_19">
     <path d="M 283.905223 61.84 
L 291.905223 61.84 
L 299.905223 61.84 
" style="fill: none; stroke: #2196f3; stroke-width: 1.8; stroke-linecap: square"/>
     <g>
      <use xlink:href="#m4bf8d90ffb" x="291.905223" y="61.84" style="fill: #2196f3; stroke: #2196f3"/>
     </g>
    </g>
    <g id="text_18">
     <!-- $p_0(t)$ (Zustand 0) -->
     <g transform="translate(306.305223 64.64) scale(0.08 -0.08)">
      <defs>
       <path id="DejaVuSans-Oblique-70" d="M 3175 2156 
Q 3175 2616 2975 2859 
Q 2775 3103 2400 3103 
Q 2144 3103 1911 2972 
Q 1678 2841 1497 2591 
Q 1319 2344 1212 1994 
Q 1106 1644 1106 1300 
Q 1106 863 1306 627 
Q 1506 391 1875 391 
Q 2147 391 2380 519 
Q 2613 647 2778 891 
Q 2956 1147 3065 1494 
Q 3175 1841 3175 2156 
z
M 1394 2969 
Q 1625 3272 1939 3428 
Q 2253 3584 2638 3584 
Q 3175 3584 3472 3232 
Q 3769 2881 3769 2247 
Q 3769 1728 3584 1258 
Q 3400 788 3053 416 
Q 2822 169 2531 39 
Q 2241 -91 1919 -91 
Q 1547 -91 1294 64 
Q 1041 219 916 525 
L 556 -1331 
L -19 -1331 
L 922 3500 
L 1497 3500 
L 1394 2969 
z
" transform="scale(0.015625)"/>
      </defs>
      <use xlink:href="#DejaVuSans-Oblique-70" transform="translate(0 0.015625)"/>
      <use xlink:href="#DejaVuSans-30" transform="translate(63.476562 -16.390625) scale(0.7)"/>
      <use xlink:href="#DejaVuSans-28" transform="translate(110.74707 0.015625)"/>
      <use xlink:href="#DejaVuSans-Oblique-74" transform="translate(149.760742 0.015625)"/>
      <use xlink:href="#DejaVuSans-29" transform="translate(188.969727 0.015625)"/>
      <use xlink:href="#DejaVuSans-20" transform="translate(227.983398 0.015625)"/>
      <use xlink:href="#DejaVuSans-28" transform="translate(259.770508 0.015625)"/>
      <use xlink:href="#DejaVuSans-5a" transform="translate(298.78418 0.015625)"/>
      <use xlink:href="#DejaVuSans-75" transform="translate(367.290039 0.015625)"/>
      <use xlink:href="#DejaVuSans-73" transform="translate(430.668945 0.015625)"/>
      <use xlink:href="#DejaVuSans-74" transform="translate(482.768555 0.015625)"/>
      <use xlink:href="#DejaVuSans-61" transform="translate(521.977539 0.015625)"/>
      <use xlink:href="#DejaVuSans-6e" transform="translate(583.256836 0.015625)"/>
      <use xlink:href="#DejaVuSans-64" transform="translate(646.635742 0.015625)"/>
      <use xlink:href="#DejaVuSans-20" transform="translate(710.112305 0.015625)"/>
      <use xlink:href="#DejaVuSans-30" transform="translate(741.899414 0.015625)"/>
      <use xlink:href="#DejaVuSans-29" transform="translate(805.522461 0.015625)"/>
     </g>
    </g>
    <g id="line2d_20">
     <path d="M 283.905223 73.6 
L 291.905223 73.6 
L 299.905223 73.6 
" style="fill: none; stroke: #ff9800; stroke-width: 1.8; stroke-linecap: square"/>
     <g>
      <use xlink:href="#m971d7edf9e" x="291.905223" y="73.6" style="fill: #ff9800; stroke: #ff9800; stroke-linejoin: miter"/>
     </g>
    </g>
    <g id="text_19">
     <!-- $p_1(t)$ (Zustand 1) -->
     <g transform="translate(306.305223 76.4) scale(0.08 -0.08)">
      <use xlink:href="#DejaVuSans-Oblique-70" transform="translate(0 0.015625)"/>
      <use xlink:href="#DejaVuSans-31" transform="translate(63.476562 -16.390625) scale(0.7)"/>
      <use xlink:href="#DejaVuSans-28" transform="translate(110.74707 0.015625)"/>
      <use xlink:href="#DejaVuSans-Oblique-74" transform="translate(149.760742 0.015625)"/>
      <use xlink:href="#DejaVuSans-29" transform="translate(188.969727 0.015625)"/>
      <use xlink:href="#DejaVuSans-20" transform="translate(227.983398 0.015625)"/>
      <use xlink:href="#DejaVuSans-28" transform="translate(259.770508 0.015625)"/>
      <use xlink:href="#DejaVuSans-5a" transform="translate(298.78418 0.015625)"/>
      <use xlink:href="#DejaVuSans-75" transform="translate(367.290039 0.015625)"/>
      <use xlink:href="#DejaVuSans-73" transform="translate(430.668945 0.015625)"/>
      <use xlink:href="#DejaVuSans-74" transform="translate(482.768555 0.015625)"/>
      <use xlink:href="#DejaVuSans-61" transform="translate(521.977539 0.015625)"/>
      <use xlink:href="#DejaVuSans-6e" transform="translate(583.256836 0.015625)"/>
      <use xlink:href="#DejaVuSans-64" transform="translate(646.635742 0.015625)"/>
      <use xlink:href="#DejaVuSans-20" transform="translate(710.112305 0.015625)"/>
      <use xlink:href="#DejaVuSans-31" transform="translate(741.899414 0.015625)"/>
      <use xlink:href="#DejaVuSans-29" transform="translate(805.522461 0.015625)"/>
     </g>
    </g>
    <g id="line2d_21">
     <path d="M 283.905223 85.35875 
L 291.905223 85.35875 
L 299.905223 85.35875 
" style="fill: none; stroke-dasharray: 5.55,2.4; stroke-dashoffset: 0; stroke: #2196f3; stroke-opacity: 0.5; stroke-width: 1.5"/>
    </g>
    <g id="text_20">
     <!-- $\pi_0 ≈ 0.571$ -->
     <g transform="translate(306.305223 88.15875) scale(0.08 -0.08)">
      <defs>
       <path id="DejaVuSans-Oblique-3c0" d="M 584 3500 
L 3938 3500 
L 3825 2925 
L 3384 2925 
L 2966 775 
Q 2922 550 2981 450 
Q 3038 353 3209 353 
Q 3256 353 3325 363 
Q 3397 369 3419 372 
L 3338 -44 
Q 3222 -84 3103 -103 
Q 2981 -122 2866 -122 
Q 2491 -122 2388 81 
Q 2284 288 2391 838 
L 2797 2925 
L 1506 2925 
L 938 0 
L 350 0 
L 919 2925 
L 472 2925 
L 584 3500 
z
" transform="scale(0.015625)"/>
       <path id="DejaVuSans-2248" d="M 4684 1947 
L 4684 1388 
Q 4356 1144 4076 1036 
Q 3797 928 3494 928 
Q 3150 928 2694 1113 
Q 2663 1125 2641 1134 
Q 2622 1141 2575 1159 
Q 2091 1350 1797 1350 
Q 1522 1350 1253 1231 
Q 984 1113 678 850 
L 678 1409 
Q 1006 1653 1286 1761 
Q 1566 1869 1869 1869 
Q 2213 1869 2672 1684 
Q 2706 1669 2722 1663 
Q 2741 1656 2788 1638 
Q 3272 1447 3566 1447 
Q 3834 1447 4098 1564 
Q 4363 1681 4684 1947 
z
M 4684 3163 
L 4684 2606 
Q 4356 2359 4076 2251 
Q 3797 2144 3494 2144 
Q 3150 2144 2694 2328 
Q 2663 2341 2641 2350 
Q 2622 2356 2575 2375 
Q 2091 2566 1797 2566 
Q 1522 2566 1253 2447 
Q 984 2328 678 2069 
L 678 2625 
Q 1006 2869 1286 2976 
Q 1566 3084 1869 3084 
Q 2213 3084 2672 2900 
Q 2703 2888 2719 2881 
Q 2741 2872 2788 2853 
Q 3272 2663 3566 2663 
Q 3834 2663 4098 2780 
Q 4363 2897 4684 3163 
z
" transform="scale(0.015625)"/>
      </defs>
      <use xlink:href="#DejaVuSans-Oblique-3c0" transform="translate(0 0.78125)"/>
      <use xlink:href="#DejaVuSans-30" transform="translate(60.205078 -15.625) scale(0.7)"/>
      <use xlink:href="#DejaVuSans-2248" transform="translate(107.475586 0.78125)"/>
      <use xlink:href="#DejaVuSans-30" transform="translate(191.264648 0.78125)"/>
      <use xlink:href="#DejaVuSans-2e" transform="translate(254.887695 0.78125)"/>
      <use xlink:href="#DejaVuSans-35" transform="translate(286.674805 0.78125)"/>
      <use xlink:href="#DejaVuSans-37" transform="translate(343.047852 0.78125)"/>
      <use xlink:href="#DejaVuSans-31" transform="translate(406.670898 0.78125)"/>
     </g>
    </g>
    <g id="line2d_22">
     <path d="M 283.905223 97.10125 
L 291.905223 97.10125 
L 299.905223 97.10125 
" style="fill: none; stroke-dasharray: 5.55,2.4; stroke-dashoffset: 0; stroke: #ff9800; stroke-opacity: 0.5; stroke-width: 1.5"/>
    </g>
    <g id="text_21">
     <!-- $\pi_1 ≈ 0.429$ -->
     <g transform="translate(306.305223 99.90125) scale(0.08 -0.08)">
      <defs>
       <path id="DejaVuSans-39" d="M 703 97 
L 703 672 
Q 941 559 1184 500 
Q 1428 441 1663 441 
Q 2288 441 2617 861 
Q 2947 1281 2994 2138 
Q 2813 1869 2534 1725 
Q 2256 1581 1919 1581 
Q 1219 1581 811 2004 
Q 403 2428 403 3163 
Q 403 3881 828 4315 
Q 1253 4750 1959 4750 
Q 2769 4750 3195 4129 
Q 3622 3509 3622 2328 
Q 3622 1225 3098 567 
Q 2575 -91 1691 -91 
Q 1453 -91 1209 -44 
Q 966 3 703 97 
z
M 1959 2075 
Q 2384 2075 2632 2365 
Q 2881 2656 2881 3163 
Q 2881 3666 2632 3958 
Q 2384 4250 1959 4250 
Q 1534 4250 1286 3958 
Q 1038 3666 1038 3163 
Q 1038 2656 1286 2365 
Q 1534 2075 1959 2075 
z
" transform="scale(0.015625)"/>
      </defs>
      <use xlink:href="#DejaVuSans-Oblique-3c0" transform="translate(0 0.78125)"/>
      <use xlink:href="#DejaVuSans-31" transform="translate(60.205078 -15.625) scale(0.7)"/>
      <use xlink:href="#DejaVuSans-2248" transform="translate(107.475586 0.78125)"/>
      <use xlink:href="#DejaVuSans-30" transform="translate(191.264648 0.78125)"/>
      <use xlink:href="#DejaVuSans-2e" transform="translate(254.887695 0.78125)"/>
      <use xlink:href="#DejaVuSans-34" transform="translate(286.674805 0.78125)"/>
      <use xlink:href="#DejaVuSans-32" transform="translate(350.297852 0.78125)"/>
      <use xlink:href="#DejaVuSans-39" transform="translate(412.170898 0.78125)"/>
     </g>
    </g>
   </g>
  </g>
  <g id="axes_2">
   <g id="patch_8">
    <path d="M 439.937277 281.32 
L 777.26125 281.32 
L 777.26125 51.36 
L 439.937277 51.36 
z
" style="fill: #ffffff"/>
   </g>
   <g id="matplotlib.axis_3">
    <g id="xtick_9">
     <g id="line2d_23">
      <g>
       <use xlink:href="#m1db5ca9b8f" x="455.270185" y="281.32" style="stroke: #000000; stroke-width: 0.8"/>
      </g>
     </g>
     <g id="text_22">
      <!-- 0.0 -->
      <g transform="translate(447.318622 295.918437) scale(0.1 -0.1)">
       <use xlink:href="#DejaVuSans-30"/>
       <use xlink:href="#DejaVuSans-2e" transform="translate(63.623047 0)"/>
       <use xlink:href="#DejaVuSans-30" transform="translate(95.410156 0)"/>
      </g>
     </g>
    </g>
    <g id="xtick_10">
     <g id="line2d_24">
      <g>
       <use xlink:href="#m1db5ca9b8f" x="495.619942" y="281.32" style="stroke: #000000; stroke-width: 0.8"/>
      </g>
     </g>
     <g id="text_23">
      <!-- 2.5 -->
      <g transform="translate(487.66838 295.918437) scale(0.1 -0.1)">
       <use xlink:href="#DejaVuSans-32"/>
       <use xlink:href="#DejaVuSans-2e" transform="translate(63.623047 0)"/>
       <use xlink:href="#DejaVuSans-35" transform="translate(95.410156 0)"/>
      </g>
     </g>
    </g>
    <g id="xtick_11">
     <g id="line2d_25">
      <g>
       <use xlink:href="#m1db5ca9b8f" x="535.9697" y="281.32" style="stroke: #000000; stroke-width: 0.8"/>
      </g>
     </g>
     <g id="text_24">
      <!-- 5.0 -->
      <g transform="translate(528.018137 295.918437) scale(0.1 -0.1)">
       <use xlink:href="#DejaVuSans-35"/>
       <use xlink:href="#DejaVuSans-2e" transform="translate(63.623047 0)"/>
       <use xlink:href="#DejaVuSans-30" transform="translate(95.410156 0)"/>
      </g>
     </g>
    </g>
    <g id="xtick_12">
     <g id="line2d_26">
      <g>
       <use xlink:href="#m1db5ca9b8f" x="576.319457" y="281.32" style="stroke: #000000; stroke-width: 0.8"/>
      </g>
     </g>
     <g id="text_25">
      <!-- 7.5 -->
      <g transform="translate(568.367895 295.918437) scale(0.1 -0.1)">
       <use xlink:href="#DejaVuSans-37"/>
       <use xlink:href="#DejaVuSans-2e" transform="translate(63.623047 0)"/>
       <use xlink:href="#DejaVuSans-35" transform="translate(95.410156 0)"/>
      </g>
     </g>
    </g>
    <g id="xtick_13">
     <g id="line2d_27">
      <g>
       <use xlink:href="#m1db5ca9b8f" x="616.669215" y="281.32" style="stroke: #000000; stroke-width: 0.8"/>
      </g>
     </g>
     <g id="text_26">
      <!-- 10.0 -->
      <g transform="translate(605.536402 295.918437) scale(0.1 -0.1)">
       <use xlink:href="#DejaVuSans-31"/>
       <use xlink:href="#DejaVuSans-30" transform="translate(63.623047 0)"/>
       <use xlink:href="#DejaVuSans-2e" transform="translate(127.246094 0)"/>
       <use xlink:href="#DejaVuSans-30" transform="translate(159.033203 0)"/>
      </g>
     </g>
    </g>
    <g id="xtick_14">
     <g id="line2d_28">
      <g>
       <use xlink:href="#m1db5ca9b8f" x="657.018973" y="281.32" style="stroke: #000000; stroke-width: 0.8"/>
      </g>
     </g>
     <g id="text_27">
      <!-- 12.5 -->
      <g transform="translate(645.88616 295.918437) scale(0.1 -0.1)">
       <use xlink:href="#DejaVuSans-31"/>
       <use xlink:href="#DejaVuSans-32" transform="translate(63.623047 0)"/>
       <use xlink:href="#DejaVuSans-2e" transform="translate(127.246094 0)"/>
       <use xlink:href="#DejaVuSans-35" transform="translate(159.033203 0)"/>
      </g>
     </g>
    </g>
    <g id="xtick_15">
     <g id="line2d_29">
      <g>
       <use xlink:href="#m1db5ca9b8f" x="697.36873" y="281.32" style="stroke: #000000; stroke-width: 0.8"/>
      </g>
     </g>
     <g id="text_28">
      <!-- 15.0 -->
      <g transform="translate(686.235918 295.918437) scale(0.1 -0.1)">
       <use xlink:href="#DejaVuSans-31"/>
       <use xlink:href="#DejaVuSans-35" transform="translate(63.623047 0)"/>
       <use xlink:href="#DejaVuSans-2e" transform="translate(127.246094 0)"/>
       <use xlink:href="#DejaVuSans-30" transform="translate(159.033203 0)"/>
      </g>
     </g>
    </g>
    <g id="xtick_16">
     <g id="line2d_30">
      <g>
       <use xlink:href="#m1db5ca9b8f" x="737.718488" y="281.32" style="stroke: #000000; stroke-width: 0.8"/>
      </g>
     </g>
     <g id="text_29">
      <!-- 17.5 -->
      <g transform="translate(726.585675 295.918437) scale(0.1 -0.1)">
       <use xlink:href="#DejaVuSans-31"/>
       <use xlink:href="#DejaVuSans-37" transform="translate(63.623047 0)"/>
       <use xlink:href="#DejaVuSans-2e" transform="translate(127.246094 0)"/>
       <use xlink:href="#DejaVuSans-35" transform="translate(159.033203 0)"/>
      </g>
     </g>
    </g>
    <g id="text_30">
     <!-- Zeit $t$ -->
     <g transform="translate(595.149263 309.596562) scale(0.1 -0.1)">
      <use xlink:href="#DejaVuSans-5a" transform="translate(0 0.015625)"/>
      <use xlink:href="#DejaVuSans-65" transform="translate(68.505859 0.015625)"/>
      <use xlink:href="#DejaVuSans-69" transform="translate(130.029297 0.015625)"/>
      <use xlink:href="#DejaVuSans-74" transform="translate(157.8125 0.015625)"/>
      <use xlink:href="#DejaVuSans-20" transform="translate(197.021484 0.015625)"/>
      <use xlink:href="#DejaVuSans-Oblique-74" transform="translate(228.808594 0.015625)"/>
     </g>
    </g>
   </g>
   <g id="matplotlib.axis_4">
    <g id="ytick_7">
     <g id="line2d_31">
      <g>
       <use xlink:href="#m7483eaa89c" x="439.937277" y="246.622675" style="stroke: #000000; stroke-width: 0.8"/>
      </g>
     </g>
     <g id="text_31">
      <!-- $\mathdefault{10^{-9}}$ -->
      <g transform="translate(409.437277 250.421893) scale(0.1 -0.1)">
       <defs>
        <path id="DejaVuSans-2212" d="M 678 2272 
L 4684 2272 
L 4684 1741 
L 678 1741 
L 678 2272 
z
" transform="scale(0.015625)"/>
       </defs>
       <use xlink:href="#DejaVuSans-31" transform="translate(0 0.765625)"/>
       <use xlink:href="#DejaVuSans-30" transform="translate(63.623047 0.765625)"/>
       <use xlink:href="#DejaVuSans-2212" transform="translate(128.203125 39.046875) scale(0.7)"/>
       <use xlink:href="#DejaVuSans-39" transform="translate(186.855469 39.046875) scale(0.7)"/>
      </g>
     </g>
    </g>
    <g id="ytick_8">
     <g id="line2d_32">
      <g>
       <use xlink:href="#m7483eaa89c" x="439.937277" y="204.536903" style="stroke: #000000; stroke-width: 0.8"/>
      </g>
     </g>
     <g id="text_32">
      <!-- $\mathdefault{10^{-7}}$ -->
      <g transform="translate(409.437277 208.336122) scale(0.1 -0.1)">
       <use xlink:href="#DejaVuSans-31" transform="translate(0 0.684375)"/>
       <use xlink:href="#DejaVuSans-30" transform="translate(63.623047 0.684375)"/>
       <use xlink:href="#DejaVuSans-2212" transform="translate(128.203125 38.965625) scale(0.7)"/>
       <use xlink:href="#DejaVuSans-37" transform="translate(186.855469 38.965625) scale(0.7)"/>
      </g>
     </g>
    </g>
    <g id="ytick_9">
     <g id="line2d_33">
      <g>
       <use xlink:href="#m7483eaa89c" x="439.937277" y="162.451132" style="stroke: #000000; stroke-width: 0.8"/>
      </g>
     </g>
     <g id="text_33">
      <!-- $\mathdefault{10^{-5}}$ -->
      <g transform="translate(409.437277 166.250351) scale(0.1 -0.1)">
       <use xlink:href="#DejaVuSans-31" transform="translate(0 0.684375)"/>
       <use xlink:href="#DejaVuSans-30" transform="translate(63.623047 0.684375)"/>
       <use xlink:href="#DejaVuSans-2212" transform="translate(128.203125 38.965625) scale(0.7)"/>
       <use xlink:href="#DejaVuSans-35" transform="translate(186.855469 38.965625) scale(0.7)"/>
      </g>
     </g>
    </g>
    <g id="ytick_10">
     <g id="line2d_34">
      <g>
       <use xlink:href="#m7483eaa89c" x="439.937277" y="120.365361" style="stroke: #000000; stroke-width: 0.8"/>
      </g>
     </g>
     <g id="text_34">
      <!-- $\mathdefault{10^{-3}}$ -->
      <g transform="translate(409.437277 124.164579) scale(0.1 -0.1)">
       <defs>
        <path id="DejaVuSans-33" d="M 2597 2516 
Q 3050 2419 3304 2112 
Q 3559 1806 3559 1356 
Q 3559 666 3084 287 
Q 2609 -91 1734 -91 
Q 1441 -91 1130 -33 
Q 819 25 488 141 
L 488 750 
Q 750 597 1062 519 
Q 1375 441 1716 441 
Q 2309 441 2620 675 
Q 2931 909 2931 1356 
Q 2931 1769 2642 2001 
Q 2353 2234 1838 2234 
L 1294 2234 
L 1294 2753 
L 1863 2753 
Q 2328 2753 2575 2939 
Q 2822 3125 2822 3475 
Q 2822 3834 2567 4026 
Q 2313 4219 1838 4219 
Q 1578 4219 1281 4162 
Q 984 4106 628 3988 
L 628 4550 
Q 988 4650 1302 4700 
Q 1616 4750 1894 4750 
Q 2613 4750 3031 4423 
Q 3450 4097 3450 3541 
Q 3450 3153 3228 2886 
Q 3006 2619 2597 2516 
z
" transform="scale(0.015625)"/>
       </defs>
       <use xlink:href="#DejaVuSans-31" transform="translate(0 0.765625)"/>
       <use xlink:href="#DejaVuSans-30" transform="translate(63.623047 0.765625)"/>
       <use xlink:href="#DejaVuSans-2212" transform="translate(128.203125 39.046875) scale(0.7)"/>
       <use xlink:href="#DejaVuSans-33" transform="translate(186.855469 39.046875) scale(0.7)"/>
      </g>
     </g>
    </g>
    <g id="ytick_11">
     <g id="line2d_35">
      <g>
       <use xlink:href="#m7483eaa89c" x="439.937277" y="78.279589" style="stroke: #000000; stroke-width: 0.8"/>
      </g>
     </g>
     <g id="text_35">
      <!-- $\mathdefault{10^{-1}}$ -->
      <g transform="translate(409.437277 82.078808) scale(0.1 -0.1)">
       <use xlink:href="#DejaVuSans-31" transform="translate(0 0.684375)"/>
       <use xlink:href="#DejaVuSans-30" transform="translate(63.623047 0.684375)"/>
       <use xlink:href="#DejaVuSans-2212" transform="translate(128.203125 38.965625) scale(0.7)"/>
       <use xlink:href="#DejaVuSans-31" transform="translate(186.855469 38.965625) scale(0.7)"/>
      </g>
     </g>
    </g>
    <g id="text_36">
     <!-- $\|p(t) - \pi\|_2$ (log) -->
     <g transform="translate(403.037277 205.09) rotate(-90) scale(0.1 -0.1)">
      <defs>
       <path id="DejaVuSans-2016" d="M 1344 4891 
L 1344 -1509 
L 813 -1509 
L 813 4891 
L 1344 4891 
z
M 2376 4891 
L 2376 -1509 
L 1845 -1509 
L 1845 4891 
L 2376 4891 
z
" transform="scale(0.015625)"/>
      </defs>
      <use xlink:href="#DejaVuSans-2016" transform="translate(0 0.578125)"/>
      <use xlink:href="#DejaVuSans-Oblique-70" transform="translate(50 0.578125)"/>
      <use xlink:href="#DejaVuSans-28" transform="translate(113.476562 0.578125)"/>
      <use xlink:href="#DejaVuSans-Oblique-74" transform="translate(152.490234 0.578125)"/>
      <use xlink:href="#DejaVuSans-29" transform="translate(191.699219 0.578125)"/>
      <use xlink:href="#DejaVuSans-2212" transform="translate(250.195312 0.578125)"/>
      <use xlink:href="#DejaVuSans-Oblique-3c0" transform="translate(353.466797 0.578125)"/>
      <use xlink:href="#DejaVuSans-2016" transform="translate(413.671875 0.578125)"/>
      <use xlink:href="#DejaVuSans-32" transform="translate(464.628906 -15.828125) scale(0.7)"/>
      <use xlink:href="#DejaVuSans-20" transform="translate(511.899414 0.578125)"/>
      <use xlink:href="#DejaVuSans-28" transform="translate(543.686523 0.578125)"/>
      <use xlink:href="#DejaVuSans-6c" transform="translate(582.700195 0.578125)"/>
      <use xlink:href="#DejaVuSans-6f" transform="translate(610.483398 0.578125)"/>
      <use xlink:href="#DejaVuSans-67" transform="translate(671.665039 0.578125)"/>
      <use xlink:href="#DejaVuSans-29" transform="translate(735.141602 0.578125)"/>
     </g>
    </g>
   </g>
   <g id="line2d_36">
    <path d="M 455.270185 61.812727 
L 471.410088 72.815605 
L 487.549991 83.818483 
L 503.689894 94.82136 
L 519.829797 105.824238 
L 535.9697 116.827115 
L 552.109603 127.829993 
L 568.249506 138.832871 
L 584.389409 149.835748 
L 600.529312 160.838626 
L 616.669215 171.841504 
L 632.809118 182.844381 
L 648.949021 193.847259 
L 665.088924 204.850137 
L 681.228827 215.853014 
L 697.36873 226.855891 
L 713.508633 237.858766 
L 729.648536 248.861636 
L 745.788439 259.864488 
L 761.928342 270.867272 
" clip-path="url(#p92bd4a7055)" style="fill: none; stroke: #4caf50; stroke-width: 1.8; stroke-linecap: square"/>
    <defs>
     <path id="m83a5b17be6" d="M 0 3 
C 0.795609 3 1.55874 2.683901 2.12132 2.12132 
C 2.683901 1.55874 3 0.795609 3 0 
C 3 -0.795609 2.683901 -1.55874 2.12132 -2.12132 
C 1.55874 -2.683901 0.795609 -3 0 -3 
C -0.795609 -3 -1.55874 -2.683901 -2.12132 -2.12132 
C -2.683901 -1.55874 -3 -0.795609 -3 0 
C -3 0.795609 -2.683901 1.55874 -2.12132 2.12132 
C -1.55874 2.683901 -0.795609 3 0 3 
z
" style="stroke: #4caf50"/>
    </defs>
    <g clip-path="url(#p92bd4a7055)">
     <use xlink:href="#m83a5b17be6" x="455.270185" y="61.812727" style="fill: #4caf50; stroke: #4caf50"/>
     <use xlink:href="#m83a5b17be6" x="471.410088" y="72.815605" style="fill: #4caf50; stroke: #4caf50"/>
     <use xlink:href="#m83a5b17be6" x="487.549991" y="83.818483" style="fill: #4caf50; stroke: #4caf50"/>
     <use xlink:href="#m83a5b17be6" x="503.689894" y="94.82136" style="fill: #4caf50; stroke: #4caf50"/>
     <use xlink:href="#m83a5b17be6" x="519.829797" y="105.824238" style="fill: #4caf50; stroke: #4caf50"/>
     <use xlink:href="#m83a5b17be6" x="535.9697" y="116.827115" style="fill: #4caf50; stroke: #4caf50"/>
     <use xlink:href="#m83a5b17be6" x="552.109603" y="127.829993" style="fill: #4caf50; stroke: #4caf50"/>
     <use xlink:href="#m83a5b17be6" x="568.249506" y="138.832871" style="fill: #4caf50; stroke: #4caf50"/>
     <use xlink:href="#m83a5b17be6" x="584.389409" y="149.835748" style="fill: #4caf50; stroke: #4caf50"/>
     <use xlink:href="#m83a5b17be6" x="600.529312" y="160.838626" style="fill: #4caf50; stroke: #4caf50"/>
     <use xlink:href="#m83a5b17be6" x="616.669215" y="171.841504" style="fill: #4caf50; stroke: #4caf50"/>
     <use xlink:href="#m83a5b17be6" x="632.809118" y="182.844381" style="fill: #4caf50; stroke: #4caf50"/>
     <use xlink:href="#m83a5b17be6" x="648.949021" y="193.847259" style="fill: #4caf50; stroke: #4caf50"/>
     <use xlink:href="#m83a5b17be6" x="665.088924" y="204.850137" style="fill: #4caf50; stroke: #4caf50"/>
     <use xlink:href="#m83a5b17be6" x="681.228827" y="215.853014" style="fill: #4caf50; stroke: #4caf50"/>
     <use xlink:href="#m83a5b17be6" x="697.36873" y="226.855891" style="fill: #4caf50; stroke: #4caf50"/>
     <use xlink:href="#m83a5b17be6" x="713.508633" y="237.858766" style="fill: #4caf50; stroke: #4caf50"/>
     <use xlink:href="#m83a5b17be6" x="729.648536" y="248.861636" style="fill: #4caf50; stroke: #4caf50"/>
     <use xlink:href="#m83a5b17be6" x="745.788439" y="259.864488" style="fill: #4caf50; stroke: #4caf50"/>
     <use xlink:href="#m83a5b17be6" x="761.928342" y="270.867272" style="fill: #4caf50; stroke: #4caf50"/>
    </g>
   </g>
   <g id="line2d_37">
    <path d="M 455.270185 61.812727 
L 761.928342 270.867273 
L 761.928342 270.867273 
" clip-path="url(#p92bd4a7055)" style="fill: none; stroke-dasharray: 5.55,2.4; stroke-dashoffset: 0; stroke: #f44336; stroke-width: 1.5"/>
   </g>
   <g id="patch_9">
    <path d="M 439.937277 281.32 
L 439.937277 51.36 
" style="fill: none; stroke: #000000; stroke-width: 0.8; stroke-linejoin: miter; stroke-linecap: square"/>
   </g>
   <g id="patch_10">
    <path d="M 777.26125 281.32 
L 777.26125 51.36 
" style="fill: none; stroke: #000000; stroke-width: 0.8; stroke-linejoin: miter; stroke-linecap: square"/>
   </g>
   <g id="patch_11">
    <path d="M 439.937277 281.32 
L 777.26125 281.32 
" style="fill: none; stroke: #000000; stroke-width: 0.8; stroke-linejoin: miter; stroke-linecap: square"/>
   </g>
   <g id="patch_12">
    <path d="M 439.937277 51.36 
L 777.26125 51.36 
" style="fill: none; stroke: #000000; stroke-width: 0.8; stroke-linejoin: miter; stroke-linecap: square"/>
   </g>
   <g id="text_37">
    <g id="patch_13">
     <path d="M 666.110906 69.669112 
L 767.141531 69.669112 
Q 769.841531 69.669112 769.841531 66.969112 
L 769.841531 58.2588 
Q 769.841531 55.5588 767.141531 55.5588 
L 666.110906 55.5588 
Q 663.410906 55.5588 663.410906 58.2588 
L 663.410906 66.969112 
Q 663.410906 69.669112 666.110906 69.669112 
z
" style="fill: #e8f5e9; opacity: 0.8; stroke: #000000; stroke-linejoin: miter"/>
    </g>
    <!-- α = −ln(0.3) ≈ 1.2040 -->
    <g transform="translate(666.110906 65.097394) scale(0.09 -0.09)">
     <defs>
      <path id="DejaVuSans-3b1" d="M 2644 1628 
L 2506 2350 
Q 2366 3091 1809 3091 
Q 1391 3091 1200 2747 
Q 959 2316 959 1747 
Q 959 1059 1194 731 
Q 1431 397 1809 397 
Q 2228 397 2453 1063 
L 2644 1628 
z
M 2966 2584 
L 3275 3500 
L 3788 3500 
L 3147 1603 
L 3272 919 
Q 3300 766 3409 638 
Q 3538 488 3638 488 
L 3913 488 
L 3913 0 
L 3569 0 
Q 3275 0 3013 263 
Q 2884 394 2831 669 
Q 2688 322 2394 50 
Q 2256 -78 1809 -78 
Q 1075 -78 719 397 
Q 353 888 353 1747 
Q 353 2666 750 3097 
Q 1191 3578 1809 3578 
Q 2781 3578 2966 2584 
z
" transform="scale(0.015625)"/>
      <path id="DejaVuSans-3d" d="M 678 2906 
L 4684 2906 
L 4684 2381 
L 678 2381 
L 678 2906 
z
M 678 1631 
L 4684 1631 
L 4684 1100 
L 678 1100 
L 678 1631 
z
" transform="scale(0.015625)"/>
     </defs>
     <use xlink:href="#DejaVuSans-3b1"/>
     <use xlink:href="#DejaVuSans-20" transform="translate(65.917969 0)"/>
     <use xlink:href="#DejaVuSans-3d" transform="translate(97.705078 0)"/>
     <use xlink:href="#DejaVuSans-20" transform="translate(181.494141 0)"/>
     <use xlink:href="#DejaVuSans-2212" transform="translate(213.28125 0)"/>
     <use xlink:href="#DejaVuSans-6c" transform="translate(297.070312 0)"/>
     <use xlink:href="#DejaVuSans-6e" transform="translate(324.853516 0)"/>
     <use xlink:href="#DejaVuSans-28" transform="translate(388.232422 0)"/>
     <use xlink:href="#DejaVuSans-30" transform="translate(427.246094 0)"/>
     <use xlink:href="#DejaVuSans-2e" transform="translate(490.869141 0)"/>
     <use xlink:href="#DejaVuSans-33" transform="translate(522.65625 0)"/>
     <use xlink:href="#DejaVuSans-29" transform="translate(586.279297 0)"/>
     <use xlink:href="#DejaVuSans-20" transform="translate(625.292969 0)"/>
     <use xlink:href="#DejaVuSans-2248" transform="translate(657.080078 0)"/>
     <use xlink:href="#DejaVuSans-20" transform="translate(740.869141 0)"/>
     <use xlink:href="#DejaVuSans-31" transform="translate(772.65625 0)"/>
     <use xlink:href="#DejaVuSans-2e" transform="translate(836.279297 0)"/>
     <use xlink:href="#DejaVuSans-32" transform="translate(868.066406 0)"/>
     <use xlink:href="#DejaVuSans-30" transform="translate(931.689453 0)"/>
     <use xlink:href="#DejaVuSans-34" transform="translate(995.3125 0)"/>
     <use xlink:href="#DejaVuSans-30" transform="translate(1058.935547 0)"/>
    </g>
   </g>
   <g id="text_38">
    <!-- Exponentieller Zerfall  (α = 1.204) -->
    <g transform="translate(505.508951 45.36) scale(0.12 -0.12)">
     <defs>
      <path id="DejaVuSans-78" d="M 3513 3500 
L 2247 1797 
L 3578 0 
L 2900 0 
L 1881 1375 
L 863 0 
L 184 0 
L 1544 1831 
L 300 3500 
L 978 3500 
L 1906 2253 
L 2834 3500 
L 3513 3500 
z
" transform="scale(0.015625)"/>
      <path id="DejaVuSans-70" d="M 1159 525 
L 1159 -1331 
L 581 -1331 
L 581 3500 
L 1159 3500 
L 1159 2969 
Q 1341 3281 1617 3432 
Q 1894 3584 2278 3584 
Q 2916 3584 3314 3078 
Q 3713 2572 3713 1747 
Q 3713 922 3314 415 
Q 2916 -91 2278 -91 
Q 1894 -91 1617 61 
Q 1341 213 1159 525 
z
M 3116 1747 
Q 3116 2381 2855 2742 
Q 2594 3103 2138 3103 
Q 1681 3103 1420 2742 
Q 1159 2381 1159 1747 
Q 1159 1113 1420 752 
Q 1681 391 2138 391 
Q 2594 391 2855 752 
Q 3116 1113 3116 1747 
z
" transform="scale(0.015625)"/>
      <path id="DejaVuSans-66" d="M 2375 4863 
L 2375 4384 
L 1825 4384 
Q 1516 4384 1395 4259 
Q 1275 4134 1275 3809 
L 1275 3500 
L 2222 3500 
L 2222 3053 
L 1275 3053 
L 1275 0 
L 697 0 
L 697 3053 
L 147 3053 
L 147 3500 
L 697 3500 
L 697 3744 
Q 697 4328 969 4595 
Q 1241 4863 1831 4863 
L 2375 4863 
z
" transform="scale(0.015625)"/>
     </defs>
     <use xlink:href="#DejaVuSans-45"/>
     <use xlink:href="#DejaVuSans-78" transform="translate(63.183594 0)"/>
     <use xlink:href="#DejaVuSans-70" transform="translate(122.363281 0)"/>
     <use xlink:href="#DejaVuSans-6f" transform="translate(185.839844 0)"/>
     <use xlink:href="#DejaVuSans-6e" transform="translate(247.021484 0)"/>
     <use xlink:href="#DejaVuSans-65" transform="translate(310.400391 0)"/>
     <use xlink:href="#DejaVuSans-6e" transform="translate(371.923828 0)"/>
     <use xlink:href="#DejaVuSans-74" transform="translate(435.302734 0)"/>
     <use xlink:href="#DejaVuSans-69" transform="translate(474.511719 0)"/>
     <use xlink:href="#DejaVuSans-65" transform="translate(502.294922 0)"/>
     <use xlink:href="#DejaVuSans-6c" transform="translate(563.818359 0)"/>
     <use xlink:href="#DejaVuSans-6c" transform="translate(591.601562 0)"/>
     <use xlink:href="#DejaVuSans-65" transform="translate(619.384766 0)"/>
     <use xlink:href="#DejaVuSans-72" transform="translate(680.908203 0)"/>
     <use xlink:href="#DejaVuSans-20" transform="translate(722.021484 0)"/>
     <use xlink:href="#DejaVuSans-5a" transform="translate(753.808594 0)"/>
     <use xlink:href="#DejaVuSans-65" transform="translate(822.314453 0)"/>
     <use xlink:href="#DejaVuSans-72" transform="translate(883.837891 0)"/>
     <use xlink:href="#DejaVuSans-66" transform="translate(924.951172 0)"/>
     <use xlink:href="#DejaVuSans-61" transform="translate(960.15625 0)"/>
     <use xlink:href="#DejaVuSans-6c" transform="translate(1021.435547 0)"/>
     <use xlink:href="#DejaVuSans-6c" transform="translate(1049.21875 0)"/>
     <use xlink:href="#DejaVuSans-20" transform="translate(1077.001953 0)"/>
     <use xlink:href="#DejaVuSans-20" transform="translate(1108.789062 0)"/>
     <use xlink:href="#DejaVuSans-28" transform="translate(1140.576172 0)"/>
     <use xlink:href="#DejaVuSans-3b1" transform="translate(1179.589844 0)"/>
     <use xlink:href="#DejaVuSans-20" transform="translate(1245.507812 0)"/>
     <use xlink:href="#DejaVuSans-3d" transform="translate(1277.294922 0)"/>
     <use xlink:href="#DejaVuSans-20" transform="translate(1361.083984 0)"/>
     <use xlink:href="#DejaVuSans-31" transform="translate(1392.871094 0)"/>
     <use xlink:href="#DejaVuSans-2e" transform="translate(1456.494141 0)"/>
     <use xlink:href="#DejaVuSans-32" transform="translate(1488.28125 0)"/>
     <use xlink:href="#DejaVuSans-30" transform="translate(1551.904297 0)"/>
     <use xlink:href="#DejaVuSans-34" transform="translate(1615.527344 0)"/>
     <use xlink:href="#DejaVuSans-29" transform="translate(1679.150391 0)"/>
    </g>
   </g>
   <g id="legend_2">
    <g id="patch_14">
     <path d="M 445.537277 277.32 
L 583.937277 277.32 
Q 585.537277 277.32 585.537277 275.72 
L 585.537277 251.24 
Q 585.537277 249.64 583.937277 249.64 
L 445.537277 249.64 
Q 443.937277 249.64 443.937277 251.24 
L 443.937277 275.72 
Q 443.937277 277.32 445.537277 277.32 
z
" style="fill: #ffffff; opacity: 0.8; stroke: #cccccc; stroke-linejoin: miter"/>
    </g>
    <g id="line2d_38">
     <path d="M 447.137277 256.2 
L 455.137277 256.2 
L 463.137277 256.2 
" style="fill: none; stroke: #4caf50; stroke-width: 1.8; stroke-linecap: square"/>
     <g>
      <use xlink:href="#m83a5b17be6" x="455.137277" y="256.2" style="fill: #4caf50; stroke: #4caf50"/>
     </g>
    </g>
    <g id="text_39">
     <!-- $\|p(t)-\pi\|_2$ (simuliert) -->
     <g transform="translate(469.537277 259) scale(0.08 -0.08)">
      <defs>
       <path id="DejaVuSans-6d" d="M 3328 2828 
Q 3544 3216 3844 3400 
Q 4144 3584 4550 3584 
Q 5097 3584 5394 3201 
Q 5691 2819 5691 2113 
L 5691 0 
L 5113 0 
L 5113 2094 
Q 5113 2597 4934 2840 
Q 4756 3084 4391 3084 
Q 3944 3084 3684 2787 
Q 3425 2491 3425 1978 
L 3425 0 
L 2847 0 
L 2847 2094 
Q 2847 2600 2669 2842 
Q 2491 3084 2119 3084 
Q 1678 3084 1418 2786 
Q 1159 2488 1159 1978 
L 1159 0 
L 581 0 
L 581 3500 
L 1159 3500 
L 1159 2956 
Q 1356 3278 1631 3431 
Q 1906 3584 2284 3584 
Q 2666 3584 2933 3390 
Q 3200 3197 3328 2828 
z
" transform="scale(0.015625)"/>
      </defs>
      <use xlink:href="#DejaVuSans-2016" transform="translate(0 0.578125)"/>
      <use xlink:href="#DejaVuSans-Oblique-70" transform="translate(50 0.578125)"/>
      <use xlink:href="#DejaVuSans-28" transform="translate(113.476562 0.578125)"/>
      <use xlink:href="#DejaVuSans-Oblique-74" transform="translate(152.490234 0.578125)"/>
      <use xlink:href="#DejaVuSans-29" transform="translate(191.699219 0.578125)"/>
      <use xlink:href="#DejaVuSans-2212" transform="translate(250.195312 0.578125)"/>
      <use xlink:href="#DejaVuSans-Oblique-3c0" transform="translate(353.466797 0.578125)"/>
      <use xlink:href="#DejaVuSans-2016" transform="translate(413.671875 0.578125)"/>
      <use xlink:href="#DejaVuSans-32" transform="translate(464.628906 -15.828125) scale(0.7)"/>
      <use xlink:href="#DejaVuSans-20" transform="translate(511.899414 0.578125)"/>
      <use xlink:href="#DejaVuSans-28" transform="translate(543.686523 0.578125)"/>
      <use xlink:href="#DejaVuSans-73" transform="translate(582.700195 0.578125)"/>
      <use xlink:href="#DejaVuSans-69" transform="translate(634.799805 0.578125)"/>
      <use xlink:href="#DejaVuSans-6d" transform="translate(662.583008 0.578125)"/>
      <use xlink:href="#DejaVuSans-75" transform="translate(759.995117 0.578125)"/>
      <use xlink:href="#DejaVuSans-6c" transform="translate(823.374023 0.578125)"/>
      <use xlink:href="#DejaVuSans-69" transform="translate(851.157227 0.578125)"/>
      <use xlink:href="#DejaVuSans-65" transform="translate(878.94043 0.578125)"/>
      <use xlink:href="#DejaVuSans-72" transform="translate(940.463867 0.578125)"/>
      <use xlink:href="#DejaVuSans-74" transform="translate(981.577148 0.578125)"/>
      <use xlink:href="#DejaVuSans-29" transform="translate(1020.786133 0.578125)"/>
     </g>
    </g>
    <g id="line2d_39">
     <path d="M 447.137277 269.4 
L 455.137277 269.4 
L 463.137277 269.4 
" style="fill: none; stroke-dasharray: 5.55,2.4; stroke-dashoffset: 0; stroke: #f44336; stroke-width: 1.5"/>
    </g>
    <g id="text_40">
     <!-- $\|p(0)-\pi\|\cdot e^{-1.204\,t}$ (Theorie) -->
     <g transform="translate(469.537277 272.2) scale(0.08 -0.08)">
      <defs>
       <path id="DejaVuSans-22c5" d="M 684 2619 
L 1344 2619 
L 1344 1825 
L 684 1825 
L 684 2619 
z
" transform="scale(0.015625)"/>
       <path id="DejaVuSans-Oblique-65" d="M 3078 2063 
Q 3088 2113 3092 2166 
Q 3097 2219 3097 2272 
Q 3097 2653 2873 2875 
Q 2650 3097 2266 3097 
Q 1838 3097 1509 2826 
Q 1181 2556 1013 2059 
L 3078 2063 
z
M 3578 1613 
L 903 1613 
Q 884 1494 878 1425 
Q 872 1356 872 1306 
Q 872 872 1139 634 
Q 1406 397 1894 397 
Q 2269 397 2603 481 
Q 2938 566 3225 728 
L 3116 159 
Q 2806 34 2476 -28 
Q 2147 -91 1806 -91 
Q 1078 -91 686 257 
Q 294 606 294 1247 
Q 294 1794 489 2264 
Q 684 2734 1063 3103 
Q 1306 3334 1642 3459 
Q 1978 3584 2356 3584 
Q 2950 3584 3301 3228 
Q 3653 2872 3653 2272 
Q 3653 2128 3634 1964 
Q 3616 1800 3578 1613 
z
" transform="scale(0.015625)"/>
       <path id="DejaVuSans-54" d="M -19 4666 
L 3928 4666 
L 3928 4134 
L 2272 4134 
L 2272 0 
L 1638 0 
L 1638 4134 
L -19 4134 
L -19 4666 
z
" transform="scale(0.015625)"/>
      </defs>
      <use xlink:href="#DejaVuSans-2016" transform="translate(0 0.765625)"/>
      <use xlink:href="#DejaVuSans-Oblique-70" transform="translate(50 0.765625)"/>
      <use xlink:href="#DejaVuSans-28" transform="translate(113.476562 0.765625)"/>
      <use xlink:href="#DejaVuSans-30" transform="translate(152.490234 0.765625)"/>
      <use xlink:href="#DejaVuSans-29" transform="translate(216.113281 0.765625)"/>
      <use xlink:href="#DejaVuSans-2212" transform="translate(274.609375 0.765625)"/>
      <use xlink:href="#DejaVuSans-Oblique-3c0" transform="translate(377.880859 0.765625)"/>
      <use xlink:href="#DejaVuSans-2016" transform="translate(438.085938 0.765625)"/>
      <use xlink:href="#DejaVuSans-22c5" transform="translate(507.568359 0.765625)"/>
      <use xlink:href="#DejaVuSans-Oblique-65" transform="translate(558.837891 0.765625)"/>
      <use xlink:href="#DejaVuSans-2212" transform="translate(625.011224 39.046875) scale(0.7)"/>
      <use xlink:href="#DejaVuSans-31" transform="translate(683.663568 39.046875) scale(0.7)"/>
      <use xlink:href="#DejaVuSans-2e" transform="translate(728.199701 39.046875) scale(0.7)"/>
      <use xlink:href="#DejaVuSans-32" transform="translate(746.600677 39.046875) scale(0.7)"/>
      <use xlink:href="#DejaVuSans-30" transform="translate(791.13681 39.046875) scale(0.7)"/>
      <use xlink:href="#DejaVuSans-34" transform="translate(835.672943 39.046875) scale(0.7)"/>
      <use xlink:href="#DejaVuSans-Oblique-74" transform="translate(891.574049 39.046875) scale(0.7)"/>
      <use xlink:href="#DejaVuSans-20" transform="translate(921.754713 0.765625)"/>
      <use xlink:href="#DejaVuSans-28" transform="translate(953.541822 0.765625)"/>
      <use xlink:href="#DejaVuSans-54" transform="translate(992.555494 0.765625)"/>
      <use xlink:href="#DejaVuSans-68" transform="translate(1053.639479 0.765625)"/>
      <use xlink:href="#DejaVuSans-65" transform="translate(1117.018385 0.765625)"/>
      <use xlink:href="#DejaVuSans-6f" transform="translate(1178.541822 0.765625)"/>
      <use xlink:href="#DejaVuSans-72" transform="translate(1239.723463 0.765625)"/>
      <use xlink:href="#DejaVuSans-69" transform="translate(1280.836744 0.765625)"/>
      <use xlink:href="#DejaVuSans-65" transform="translate(1308.619947 0.765625)"/>
      <use xlink:href="#DejaVuSans-29" transform="translate(1370.143385 0.765625)"/>
     </g>
    </g>
   </g>
  </g>
  <g id="text_41">
   <!-- Experiment 2 – Exponentieller Zerfall in der 2-Zustands-Markov-Kette -->
   <g transform="translate(136.720937 17.077969) scale(0.13 -0.13)">
    <defs>
     <path id="DejaVuSans-Bold-45" d="M 588 4666 
L 3834 4666 
L 3834 3756 
L 1791 3756 
L 1791 2888 
L 3713 2888 
L 3713 1978 
L 1791 1978 
L 1791 909 
L 3903 909 
L 3903 0 
L 588 0 
L 588 4666 
z
" transform="scale(0.015625)"/>
     <path id="DejaVuSans-Bold-78" d="M 1422 1791 
L 159 3500 
L 1344 3500 
L 2059 2463 
L 2784 3500 
L 3969 3500 
L 2706 1797 
L 4031 0 
L 2847 0 
L 2059 1106 
L 1281 0 
L 97 0 
L 1422 1791 
z
" transform="scale(0.015625)"/>
     <path id="DejaVuSans-Bold-70" d="M 1656 506 
L 1656 -1331 
L 538 -1331 
L 538 3500 
L 1656 3500 
L 1656 2988 
Q 1888 3294 2169 3439 
Q 2450 3584 2816 3584 
Q 3463 3584 3878 3070 
Q 4294 2556 4294 1747 
Q 4294 938 3878 423 
Q 3463 -91 2816 -91 
Q 2450 -91 2169 54 
Q 1888 200 1656 506 
z
M 2400 2772 
Q 2041 2772 1848 2508 
Q 1656 2244 1656 1747 
Q 1656 1250 1848 986 
Q 2041 722 2400 722 
Q 2759 722 2948 984 
Q 3138 1247 3138 1747 
Q 3138 2247 2948 2509 
Q 2759 2772 2400 2772 
z
" transform="scale(0.015625)"/>
     <path id="DejaVuSans-Bold-65" d="M 4031 1759 
L 4031 1441 
L 1416 1441 
Q 1456 1047 1700 850 
Q 1944 653 2381 653 
Q 2734 653 3104 758 
Q 3475 863 3866 1075 
L 3866 213 
Q 3469 63 3072 -14 
Q 2675 -91 2278 -91 
Q 1328 -91 801 392 
Q 275 875 275 1747 
Q 275 2603 792 3093 
Q 1309 3584 2216 3584 
Q 3041 3584 3536 3087 
Q 4031 2591 4031 1759 
z
M 2881 2131 
Q 2881 2450 2695 2645 
Q 2509 2841 2209 2841 
Q 1884 2841 1681 2658 
Q 1478 2475 1428 2131 
L 2881 2131 
z
" transform="scale(0.015625)"/>
     <path id="DejaVuSans-Bold-72" d="M 3138 2547 
Q 2991 2616 2845 2648 
Q 2700 2681 2553 2681 
Q 2122 2681 1889 2404 
Q 1656 2128 1656 1613 
L 1656 0 
L 538 0 
L 538 3500 
L 1656 3500 
L 1656 2925 
Q 1872 3269 2151 3426 
Q 2431 3584 2822 3584 
Q 2878 3584 2943 3579 
Q 3009 3575 3134 3559 
L 3138 2547 
z
" transform="scale(0.015625)"/>
     <path id="DejaVuSans-Bold-69" d="M 538 3500 
L 1656 3500 
L 1656 0 
L 538 0 
L 538 3500 
z
M 538 4863 
L 1656 4863 
L 1656 3950 
L 538 3950 
L 538 4863 
z
" transform="scale(0.015625)"/>
     <path id="DejaVuSans-Bold-6d" d="M 3781 2919 
Q 3994 3244 4286 3414 
Q 4578 3584 4928 3584 
Q 5531 3584 5847 3212 
Q 6163 2841 6163 2131 
L 6163 0 
L 5038 0 
L 5038 1825 
Q 5041 1866 5042 1909 
Q 5044 1953 5044 2034 
Q 5044 2406 4934 2573 
Q 4825 2741 4581 2741 
Q 4263 2741 4089 2478 
Q 3916 2216 3909 1719 
L 3909 0 
L 2784 0 
L 2784 1825 
Q 2784 2406 2684 2573 
Q 2584 2741 2328 2741 
Q 2006 2741 1831 2477 
Q 1656 2213 1656 1722 
L 1656 0 
L 531 0 
L 531 3500 
L 1656 3500 
L 1656 2988 
Q 1863 3284 2130 3434 
Q 2397 3584 2719 3584 
Q 3081 3584 3359 3409 
Q 3638 3234 3781 2919 
z
" transform="scale(0.015625)"/>
     <path id="DejaVuSans-Bold-6e" d="M 4056 2131 
L 4056 0 
L 2931 0 
L 2931 347 
L 2931 1631 
Q 2931 2084 2911 2256 
Q 2891 2428 2841 2509 
Q 2775 2619 2662 2680 
Q 2550 2741 2406 2741 
Q 2056 2741 1856 2470 
Q 1656 2200 1656 1722 
L 1656 0 
L 538 0 
L 538 3500 
L 1656 3500 
L 1656 2988 
Q 1909 3294 2193 3439 
Q 2478 3584 2822 3584 
Q 3428 3584 3742 3212 
Q 4056 2841 4056 2131 
z
" transform="scale(0.015625)"/>
     <path id="DejaVuSans-Bold-74" d="M 1759 4494 
L 1759 3500 
L 2913 3500 
L 2913 2700 
L 1759 2700 
L 1759 1216 
Q 1759 972 1856 886 
Q 1953 800 2241 800 
L 2816 800 
L 2816 0 
L 1856 0 
Q 1194 0 917 276 
Q 641 553 641 1216 
L 641 2700 
L 84 2700 
L 84 3500 
L 641 3500 
L 641 4494 
L 1759 4494 
z
" transform="scale(0.015625)"/>
     <path id="DejaVuSans-Bold-20" transform="scale(0.015625)"/>
     <path id="DejaVuSans-Bold-32" d="M 1844 884 
L 3897 884 
L 3897 0 
L 506 0 
L 506 884 
L 2209 2388 
Q 2438 2594 2547 2791 
Q 2656 2988 2656 3200 
Q 2656 3528 2436 3728 
Q 2216 3928 1850 3928 
Q 1569 3928 1234 3808 
Q 900 3688 519 3450 
L 519 4475 
Q 925 4609 1322 4679 
Q 1719 4750 2100 4750 
Q 2938 4750 3402 4381 
Q 3866 4013 3866 3353 
Q 3866 2972 3669 2642 
Q 3472 2313 2841 1759 
L 1844 884 
z
" transform="scale(0.015625)"/>
     <path id="DejaVuSans-Bold-2013" d="M 344 2156 
L 2856 2156 
L 2856 1350 
L 344 1350 
L 344 2156 
z
" transform="scale(0.015625)"/>
     <path id="DejaVuSans-Bold-6f" d="M 2203 2784 
Q 1831 2784 1636 2517 
Q 1441 2250 1441 1747 
Q 1441 1244 1636 976 
Q 1831 709 2203 709 
Q 2569 709 2762 976 
Q 2956 1244 2956 1747 
Q 2956 2250 2762 2517 
Q 2569 2784 2203 2784 
z
M 2203 3584 
Q 3106 3584 3614 3096 
Q 4122 2609 4122 1747 
Q 4122 884 3614 396 
Q 3106 -91 2203 -91 
Q 1297 -91 786 396 
Q 275 884 275 1747 
Q 275 2609 786 3096 
Q 1297 3584 2203 3584 
z
" transform="scale(0.015625)"/>
     <path id="DejaVuSans-Bold-6c" d="M 538 4863 
L 1656 4863 
L 1656 0 
L 538 0 
L 538 4863 
z
" transform="scale(0.015625)"/>
     <path id="DejaVuSans-Bold-5a" d="M 359 4666 
L 4281 4666 
L 4281 3938 
L 1778 909 
L 4353 909 
L 4353 0 
L 288 0 
L 288 728 
L 2791 3756 
L 359 3756 
L 359 4666 
z
" transform="scale(0.015625)"/>
     <path id="DejaVuSans-Bold-66" d="M 2841 4863 
L 2841 4128 
L 2222 4128 
Q 1984 4128 1890 4042 
Q 1797 3956 1797 3744 
L 1797 3500 
L 2753 3500 
L 2753 2700 
L 1797 2700 
L 1797 0 
L 678 0 
L 678 2700 
L 122 2700 
L 122 3500 
L 678 3500 
L 678 3744 
Q 678 4316 997 4589 
Q 1316 4863 1984 4863 
L 2841 4863 
z
" transform="scale(0.015625)"/>
     <path id="DejaVuSans-Bold-61" d="M 2106 1575 
Q 1756 1575 1579 1456 
Q 1403 1338 1403 1106 
Q 1403 894 1545 773 
Q 1688 653 1941 653 
Q 2256 653 2472 879 
Q 2688 1106 2688 1447 
L 2688 1575 
L 2106 1575 
z
M 3816 1997 
L 3816 0 
L 2688 0 
L 2688 519 
Q 2463 200 2181 54 
Q 1900 -91 1497 -91 
Q 953 -91 614 226 
Q 275 544 275 1050 
Q 275 1666 698 1953 
Q 1122 2241 2028 2241 
L 2688 2241 
L 2688 2328 
Q 2688 2594 2478 2717 
Q 2269 2841 1825 2841 
Q 1466 2841 1156 2769 
Q 847 2697 581 2553 
L 581 3406 
Q 941 3494 1303 3539 
Q 1666 3584 2028 3584 
Q 2975 3584 3395 3211 
Q 3816 2838 3816 1997 
z
" transform="scale(0.015625)"/>
     <path id="DejaVuSans-Bold-64" d="M 2919 2988 
L 2919 4863 
L 4044 4863 
L 4044 0 
L 2919 0 
L 2919 506 
Q 2688 197 2409 53 
Q 2131 -91 1766 -91 
Q 1119 -91 703 423 
Q 288 938 288 1747 
Q 288 2556 703 3070 
Q 1119 3584 1766 3584 
Q 2128 3584 2408 3439 
Q 2688 3294 2919 2988 
z
M 2181 722 
Q 2541 722 2730 984 
Q 2919 1247 2919 1747 
Q 2919 2247 2730 2509 
Q 2541 2772 2181 2772 
Q 1825 2772 1636 2509 
Q 1447 2247 1447 1747 
Q 1447 1247 1636 984 
Q 1825 722 2181 722 
z
" transform="scale(0.015625)"/>
     <path id="DejaVuSans-Bold-2d" d="M 347 2297 
L 2309 2297 
L 2309 1388 
L 347 1388 
L 347 2297 
z
" transform="scale(0.015625)"/>
     <path id="DejaVuSans-Bold-75" d="M 500 1363 
L 500 3500 
L 1625 3500 
L 1625 3150 
Q 1625 2866 1622 2436 
Q 1619 2006 1619 1863 
Q 1619 1441 1641 1255 
Q 1663 1069 1716 984 
Q 1784 875 1895 815 
Q 2006 756 2150 756 
Q 2500 756 2700 1025 
Q 2900 1294 2900 1772 
L 2900 3500 
L 4019 3500 
L 4019 0 
L 2900 0 
L 2900 506 
Q 2647 200 2364 54 
Q 2081 -91 1741 -91 
Q 1134 -91 817 281 
Q 500 653 500 1363 
z
" transform="scale(0.015625)"/>
     <path id="DejaVuSans-Bold-73" d="M 3272 3391 
L 3272 2541 
Q 2913 2691 2578 2766 
Q 2244 2841 1947 2841 
Q 1628 2841 1473 2761 
Q 1319 2681 1319 2516 
Q 1319 2381 1436 2309 
Q 1553 2238 1856 2203 
L 2053 2175 
Q 2913 2066 3209 1816 
Q 3506 1566 3506 1031 
Q 3506 472 3093 190 
Q 2681 -91 1863 -91 
Q 1516 -91 1145 -36 
Q 775 19 384 128 
L 384 978 
Q 719 816 1070 734 
Q 1422 653 1784 653 
Q 2113 653 2278 743 
Q 2444 834 2444 1013 
Q 2444 1163 2330 1236 
Q 2216 1309 1875 1350 
L 1678 1375 
Q 931 1469 631 1722 
Q 331 1975 331 2491 
Q 331 3047 712 3315 
Q 1094 3584 1881 3584 
Q 2191 3584 2531 3537 
Q 2872 3491 3272 3391 
z
" transform="scale(0.015625)"/>
     <path id="DejaVuSans-Bold-4d" d="M 588 4666 
L 2119 4666 
L 3181 2169 
L 4250 4666 
L 5778 4666 
L 5778 0 
L 4641 0 
L 4641 3413 
L 3566 897 
L 2803 897 
L 1728 3413 
L 1728 0 
L 588 0 
L 588 4666 
z
" transform="scale(0.015625)"/>
     <path id="DejaVuSans-Bold-6b" d="M 538 4863 
L 1656 4863 
L 1656 2216 
L 2944 3500 
L 4244 3500 
L 2534 1894 
L 4378 0 
L 3022 0 
L 1656 1459 
L 1656 0 
L 538 0 
L 538 4863 
z
" transform="scale(0.015625)"/>
     <path id="DejaVuSans-Bold-76" d="M 97 3500 
L 1216 3500 
L 2088 1081 
L 2956 3500 
L 4078 3500 
L 2700 0 
L 1472 0 
L 97 3500 
z
" transform="scale(0.015625)"/>
     <path id="DejaVuSans-Bold-4b" d="M 588 4666 
L 1791 4666 
L 1791 2963 
L 3525 4666 
L 4922 4666 
L 2675 2456 
L 5153 0 
L 3647 0 
L 1791 1838 
L 1791 0 
L 588 0 
L 588 4666 
z
" transform="scale(0.015625)"/>
    </defs>
    <use xlink:href="#DejaVuSans-Bold-45"/>
    <use xlink:href="#DejaVuSans-Bold-78" transform="translate(68.310547 0)"/>
    <use xlink:href="#DejaVuSans-Bold-70" transform="translate(132.8125 0)"/>
    <use xlink:href="#DejaVuSans-Bold-65" transform="translate(204.394531 0)"/>
    <use xlink:href="#DejaVuSans-Bold-72" transform="translate(272.216797 0)"/>
    <use xlink:href="#DejaVuSans-Bold-69" transform="translate(321.533203 0)"/>
    <use xlink:href="#DejaVuSans-Bold-6d" transform="translate(355.810547 0)"/>
    <use xlink:href="#DejaVuSans-Bold-65" transform="translate(460.009766 0)"/>
    <use xlink:href="#DejaVuSans-Bold-6e" transform="translate(527.832031 0)"/>
    <use xlink:href="#DejaVuSans-Bold-74" transform="translate(599.023438 0)"/>
    <use xlink:href="#DejaVuSans-Bold-20" transform="translate(646.826172 0)"/>
    <use xlink:href="#DejaVuSans-Bold-32" transform="translate(681.640625 0)"/>
    <use xlink:href="#DejaVuSans-Bold-20" transform="translate(751.220703 0)"/>
    <use xlink:href="#DejaVuSans-Bold-2013" transform="translate(786.035156 0)"/>
    <use xlink:href="#DejaVuSans-Bold-20" transform="translate(836.035156 0)"/>
    <use xlink:href="#DejaVuSans-Bold-45" transform="translate(870.849609 0)"/>
    <use xlink:href="#DejaVuSans-Bold-78" transform="translate(939.160156 0)"/>
    <use xlink:href="#DejaVuSans-Bold-70" transform="translate(1003.662109 0)"/>
    <use xlink:href="#DejaVuSans-Bold-6f" transform="translate(1075.244141 0)"/>
    <use xlink:href="#DejaVuSans-Bold-6e" transform="translate(1143.945312 0)"/>
    <use xlink:href="#DejaVuSans-Bold-65" transform="translate(1215.136719 0)"/>
    <use xlink:href="#DejaVuSans-Bold-6e" transform="translate(1282.958984 0)"/>
    <use xlink:href="#DejaVuSans-Bold-74" transform="translate(1354.150391 0)"/>
    <use xlink:href="#DejaVuSans-Bold-69" transform="translate(1401.953125 0)"/>
    <use xlink:href="#DejaVuSans-Bold-65" transform="translate(1436.230469 0)"/>
    <use xlink:href="#DejaVuSans-Bold-6c" transform="translate(1504.052734 0)"/>
    <use xlink:href="#DejaVuSans-Bold-6c" transform="translate(1538.330078 0)"/>
    <use xlink:href="#DejaVuSans-Bold-65" transform="translate(1572.607422 0)"/>
    <use xlink:href="#DejaVuSans-Bold-72" transform="translate(1640.429688 0)"/>
    <use xlink:href="#DejaVuSans-Bold-20" transform="translate(1689.746094 0)"/>
    <use xlink:href="#DejaVuSans-Bold-5a" transform="translate(1724.560547 0)"/>
    <use xlink:href="#DejaVuSans-Bold-65" transform="translate(1797.070312 0)"/>
    <use xlink:href="#DejaVuSans-Bold-72" transform="translate(1864.892578 0)"/>
    <use xlink:href="#DejaVuSans-Bold-66" transform="translate(1914.208984 0)"/>
    <use xlink:href="#DejaVuSans-Bold-61" transform="translate(1957.714844 0)"/>
    <use xlink:href="#DejaVuSans-Bold-6c" transform="translate(2025.195312 0)"/>
    <use xlink:href="#DejaVuSans-Bold-6c" transform="translate(2059.472656 0)"/>
    <use xlink:href="#DejaVuSans-Bold-20" transform="translate(2093.75 0)"/>
    <use xlink:href="#DejaVuSans-Bold-69" transform="translate(2128.564453 0)"/>
    <use xlink:href="#DejaVuSans-Bold-6e" transform="translate(2162.841797 0)"/>
    <use xlink:href="#DejaVuSans-Bold-20" transform="translate(2234.033203 0)"/>
    <use xlink:href="#DejaVuSans-Bold-64" transform="translate(2268.847656 0)"/>
    <use xlink:href="#DejaVuSans-Bold-65" transform="translate(2340.429688 0)"/>
    <use xlink:href="#DejaVuSans-Bold-72" transform="translate(2408.251953 0)"/>
    <use xlink:href="#DejaVuSans-Bold-20" transform="translate(2457.568359 0)"/>
    <use xlink:href="#DejaVuSans-Bold-32" transform="translate(2492.382812 0)"/>
    <use xlink:href="#DejaVuSans-Bold-2d" transform="translate(2561.962891 0)"/>
    <use xlink:href="#DejaVuSans-Bold-5a" transform="translate(2603.466797 0)"/>
    <use xlink:href="#DejaVuSans-Bold-75" transform="translate(2675.976562 0)"/>
    <use xlink:href="#DejaVuSans-Bold-73" transform="translate(2747.167969 0)"/>
    <use xlink:href="#DejaVuSans-Bold-74" transform="translate(2806.689453 0)"/>
    <use xlink:href="#DejaVuSans-Bold-61" transform="translate(2854.492188 0)"/>
    <use xlink:href="#DejaVuSans-Bold-6e" transform="translate(2921.972656 0)"/>
    <use xlink:href="#DejaVuSans-Bold-64" transform="translate(2993.164062 0)"/>
    <use xlink:href="#DejaVuSans-Bold-73" transform="translate(3064.746094 0)"/>
    <use xlink:href="#DejaVuSans-Bold-2d" transform="translate(3124.267578 0)"/>
    <use xlink:href="#DejaVuSans-Bold-4d" transform="translate(3165.771484 0)"/>
    <use xlink:href="#DejaVuSans-Bold-61" transform="translate(3265.283203 0)"/>
    <use xlink:href="#DejaVuSans-Bold-72" transform="translate(3332.763672 0)"/>
    <use xlink:href="#DejaVuSans-Bold-6b" transform="translate(3382.080078 0)"/>
    <use xlink:href="#DejaVuSans-Bold-6f" transform="translate(3445.958984 0)"/>
    <use xlink:href="#DejaVuSans-Bold-76" transform="translate(3514.660156 0)"/>
    <use xlink:href="#DejaVuSans-Bold-2d" transform="translate(3579.845703 0)"/>
    <use xlink:href="#DejaVuSans-Bold-4b" transform="translate(3621.349609 0)"/>
    <use xlink:href="#DejaVuSans-Bold-65" transform="translate(3697.089844 0)"/>
    <use xlink:href="#DejaVuSans-Bold-74" transform="translate(3764.912109 0)"/>
    <use xlink:href="#DejaVuSans-Bold-74" transform="translate(3812.714844 0)"/>
    <use xlink:href="#DejaVuSans-Bold-65" transform="translate(3860.517578 0)"/>
   </g>
  </g>
 </g>
 <defs>
  <clipPath id="pe999ae069a">
   <rect x="43.78125" y="51.36" width="337.323973" height="229.96"/>
  </clipPath>
  <clipPath id="p92bd4a7055">
   <rect x="439.937277" y="51.36" width="337.323973" height="229.96"/>
  </clipPath>
 </defs>
</svg>
