<?xml version="1.0" encoding="utf-8" standalone="no"?>
<!DOCTYPE svg PUBLIC "-//W3C//DTD SVG 1.1//EN"
  "http://www.w3.org/Graphics/SVG/1.1/DTD/svg11.dtd">
<svg xmlns:xlink="http://www.w3.org/1999/xlink" width="864pt" height="360pt" viewBox="0 0 864 360" xmlns="http://www.w3.org/2000/svg" version="1.1">
 <metadata>
  <rdf:RDF xmlns:dc="http://purl.org/dc/elements/1.1/" xmlns:cc="http://creativecommons.org/ns#" xmlns:rdf="http://www.w3.org/1999/02/22-rdf-syntax-ns#">
   <cc:Work>
    <dc:type rdf:resource="http://purl.org/dc/dcmitype/StillImage"/>
    <dc:date>2026-02-27T22:39:35.614872</dc:date>
    <dc:format>image/svg+xml</dc:format>
    <dc:creator>
     <cc:Agent>
      <dc:title>Matplotlib v3.10.8, https://matplotlib.org/</dc:title>
     </cc:Agent>
    </dc:creator>
   </cc:Work>
  </rdf:RDF>
 </metadata>
 <defs>
  <style type="text/css">*{stroke-linejoin: round; stroke-linecap: butt}</style>
 </defs>
 <g id="figure_1">
  <g id="patch_1">
   <path d="M 0 360 
L 864 360 
L 864 0 
L 0 0 
z
" style="fill: #ffffff"/>
  </g>
  <g id="axes_1">
   <g id="patch_2">
    <path d="M 72.973369 298.64 
L 421.025286 298.64 
L 421.025286 83.2 
L 72.973369 83.2 
z
" style="fill: #ffffff"/>
   </g>
   <g id="matplotlib.axis_1">
    <g id="xtick_1">
     <g id="line2d_1">
      <path d="M 88.793911 298.64 
L 88.793911 83.2 
" clip-path="url(#pda44626f2c)" style="fill: none; stroke: #b0b0b0; stroke-opacity: 0.3; stroke-width: 0.8; stroke-linecap: square"/>
     </g>
     <g id="line2d_2">
      <defs>
       <path id="m9c7b48809d" d="M 0 0 
L 0 3.5 
" style="stroke: #000000; stroke-width: 0.8"/>
      </defs>
      <g>
       <use xlink:href="#m9c7b48809d" x="88.793911" y="298.64" style="stroke: #000000; stroke-width: 0.8"/>
      </g>
     </g>
     <g id="text_1">
      <!-- $\mathdefault{10^{-3}}$ -->
      <g transform="translate(77.043911 313.238437) scale(0.1 -0.1)">
       <defs>
        <path id="DejaVuSans-31" d="M 794 531 
L 1825 531 
L 1825 4091 
L 703 3866 
L 703 4441 
L 1819 4666 
L 2450 4666 
L 2450 531 
L 3481 531 
L 3481 0 
L 794 0 
L 794 531 
z
" transform="scale(0.015625)"/>
        <path id="DejaVuSans-30" d="M 2034 4250 
Q 1547 4250 1301 3770 
Q 1056 3291 1056 2328 
Q 1056 1369 1301 889 
Q 1547 409 2034 409 
Q 2525 409 2770 889 
Q 3016 1369 3016 2328 
Q 3016 3291 2770 3770 
Q 2525 4250 2034 4250 
z
M 2034 4750 
Q 2819 4750 3233 4129 
Q 3647 3509 3647 2328 
Q 3647 1150 3233 529 
Q 2819 -91 2034 -91 
Q 1250 -91 836 529 
Q 422 1150 422 2328 
Q 422 3509 836 4129 
Q 1250 4750 2034 4750 
z
" transform="scale(0.015625)"/>
        <path id="DejaVuSans-2212" d="M 678 2272 
L 4684 2272 
L 4684 1741 
L 678 1741 
L 678 2272 
z
" transform="scale(0.015625)"/>
        <path id="DejaVuSans-33" d="M 2597 2516 
Q 3050 2419 3304 2112 
Q 3559 1806 3559 1356 
Q 3559 666 3084 287 
Q 2609 -91 1734 -91 
Q 1441 -91 1130 -33 
Q 819 25 488 141 
L 488 750 
Q 750 597 1062 519 
Q 1375 441 1716 441 
Q 2309 441 2620 675 
Q 2931 909 2931 1356 
Q 2931 1769 2642 2001 
Q 2353 2234 1838 2234 
L 1294 2234 
L 1294 2753 
L 1863 2753 
Q 2328 2753 2575 2939 
Q 2822 3125 2822 3475 
Q 2822 3834 2567 4026 
Q 2313 4219 1838 4219 
Q 1578 4219 1281 4162 
Q 984 4106 628 3988 
L 628 4550 
Q 988 4650 1302 4700 
Q 1616 4750 1894 4750 
Q 2613 4750 3031 4423 
Q 3450 4097 3450 3541 
Q 3450 3153 3228 2886 
Q 3006 2619 2597 2516 
z
" transform="scale(0.015625)"/>
       </defs>
       <use xlink:href="#DejaVuSans-31" transform="translate(0 0.765625)"/>
       <use xlink:href="#DejaVuSans-30" transform="translate(63.623047 0.765625)"/>
       <use xlink:href="#DejaVuSans-2212" transform="translate(128.203125 39.046875) scale(0.7)"/>
       <use xlink:href="#DejaVuSans-33" transform="translate(186.855469 39.046875) scale(0.7)"/>
      </g>
     </g>
    </g>
    <g id="xtick_2">
     <g id="line2d_3">
      <path d="M 194.264189 298.64 
L 194.264189 83.2 
" clip-path="url(#pda44626f2c)" style="fill: none; stroke: #b0b0b0; stroke-opacity: 0.3; stroke-width: 0.8; stroke-linecap: square"/>
     </g>
     <g id="line2d_4">
      <g>
       <use xlink:href="#m9c7b48809d" x="194.264189" y="298.64" style="stroke: #000000; stroke-width: 0.8"/>
      </g>
     </g>
     <g id="text_2">
      <!-- $\mathdefault{10^{-2}}$ -->
      <g transform="translate(182.514189 313.238437) scale(0.1 -0.1)">
       <defs>
        <path id="DejaVuSans-32" d="M 1228 531 
L 3431 531 
L 3431 0 
L 469 0 
L 469 531 
Q 828 903 1448 1529 
Q 2069 2156 2228 2338 
Q 2531 2678 2651 2914 
Q 2772 3150 2772 3378 
Q 2772 3750 2511 3984 
Q 2250 4219 1831 4219 
Q 1534 4219 1204 4116 
Q 875 4013 500 3803 
L 500 4441 
Q 881 4594 1212 4672 
Q 1544 4750 1819 4750 
Q 2544 4750 2975 4387 
Q 3406 4025 3406 3419 
Q 3406 3131 3298 2873 
Q 3191 2616 2906 2266 
Q 2828 2175 2409 1742 
Q 1991 1309 1228 531 
z
" transform="scale(0.015625)"/>
       </defs>
       <use xlink:href="#DejaVuSans-31" transform="translate(0 0.765625)"/>
       <use xlink:href="#DejaVuSans-30" transform="translate(63.623047 0.765625)"/>
       <use xlink:href="#DejaVuSans-2212" transform="translate(128.203125 39.046875) scale(0.7)"/>
       <use xlink:href="#DejaVuSans-32" transform="translate(186.855469 39.046875) scale(0.7)"/>
      </g>
     </g>
    </g>
    <g id="xtick_3">
     <g id="line2d_5">
      <path d="M 299.734466 298.64 
L 299.734466 83.2 
" clip-path="url(#pda44626f2c)" style="fill: none; stroke: #b0b0b0; stroke-opacity: 0.3; stroke-width: 0.8; stroke-linecap: square"/>
     </g>
     <g id="line2d_6">
      <g>
       <use xlink:href="#m9c7b48809d" x="299.734466" y="298.64" style="stroke: #000000; stroke-width: 0.8"/>
      </g>
     </g>
     <g id="text_3">
      <!-- $\mathdefault{10^{-1}}$ -->
      <g transform="translate(287.984466 313.238437) scale(0.1 -0.1)">
       <use xlink:href="#DejaVuSans-31" transform="translate(0 0.684375)"/>
       <use xlink:href="#DejaVuSans-30" transform="translate(63.623047 0.684375)"/>
       <use xlink:href="#DejaVuSans-2212" transform="translate(128.203125 38.965625) scale(0.7)"/>
       <use xlink:href="#DejaVuSans-31" transform="translate(186.855469 38.965625) scale(0.7)"/>
      </g>
     </g>
    </g>
    <g id="xtick_4">
     <g id="line2d_7">
      <path d="M 405.204744 298.64 
L 405.204744 83.2 
" clip-path="url(#pda44626f2c)" style="fill: none; stroke: #b0b0b0; stroke-opacity: 0.3; stroke-width: 0.8; stroke-linecap: square"/>
     </g>
     <g id="line2d_8">
      <g>
       <use xlink:href="#m9c7b48809d" x="405.204744" y="298.64" style="stroke: #000000; stroke-width: 0.8"/>
      </g>
     </g>
     <g id="text_4">
      <!-- $\mathdefault{10^{0}}$ -->
      <g transform="translate(396.404744 313.238437) scale(0.1 -0.1)">
       <use xlink:href="#DejaVuSans-31" transform="translate(0 0.765625)"/>
       <use xlink:href="#DejaVuSans-30" transform="translate(63.623047 0.765625)"/>
       <use xlink:href="#DejaVuSans-30" transform="translate(128.203125 39.046875) scale(0.7)"/>
      </g>
     </g>
    </g>
    <g id="xtick_5">
     <g id="line2d_9">
      <defs>
       <path id="m99911d8892" d="M 0 0 
L 0 2 
" style="stroke: #000000; stroke-width: 0.6"/>
      </defs>
      <g>
       <use xlink:href="#m99911d8892" x="78.572785" y="298.64" style="stroke: #000000; stroke-width: 0.6"/>
      </g>
     </g>
    </g>
    <g id="xtick_6">
     <g id="line2d_10">
      <g>
       <use xlink:href="#m99911d8892" x="83.967856" y="298.64" style="stroke: #000000; stroke-width: 0.6"/>
      </g>
     </g>
    </g>
    <g id="xtick_7">
     <g id="line2d_11">
      <g>
       <use xlink:href="#m99911d8892" x="120.543628" y="298.64" style="stroke: #000000; stroke-width: 0.6"/>
      </g>
     </g>
    </g>
    <g id="xtick_8">
     <g id="line2d_12">
      <g>
       <use xlink:href="#m99911d8892" x="139.116022" y="298.64" style="stroke: #000000; stroke-width: 0.6"/>
      </g>
     </g>
    </g>
    <g id="xtick_9">
     <g id="line2d_13">
      <g>
       <use xlink:href="#m99911d8892" x="152.293345" y="298.64" style="stroke: #000000; stroke-width: 0.6"/>
      </g>
     </g>
    </g>
    <g id="xtick_10">
     <g id="line2d_14">
      <g>
       <use xlink:href="#m99911d8892" x="162.514471" y="298.64" style="stroke: #000000; stroke-width: 0.6"/>
      </g>
     </g>
    </g>
    <g id="xtick_11">
     <g id="line2d_15">
      <g>
       <use xlink:href="#m99911d8892" x="170.865739" y="298.64" style="stroke: #000000; stroke-width: 0.6"/>
      </g>
     </g>
    </g>
    <g id="xtick_12">
     <g id="line2d_16">
      <g>
       <use xlink:href="#m99911d8892" x="177.926636" y="298.64" style="stroke: #000000; stroke-width: 0.6"/>
      </g>
     </g>
    </g>
    <g id="xtick_13">
     <g id="line2d_17">
      <g>
       <use xlink:href="#m99911d8892" x="184.043063" y="298.64" style="stroke: #000000; stroke-width: 0.6"/>
      </g>
     </g>
    </g>
    <g id="xtick_14">
     <g id="line2d_18">
      <g>
       <use xlink:href="#m99911d8892" x="189.438133" y="298.64" style="stroke: #000000; stroke-width: 0.6"/>
      </g>
     </g>
    </g>
    <g id="xtick_15">
     <g id="line2d_19">
      <g>
       <use xlink:href="#m99911d8892" x="226.013906" y="298.64" style="stroke: #000000; stroke-width: 0.6"/>
      </g>
     </g>
    </g>
    <g id="xtick_16">
     <g id="line2d_20">
      <g>
       <use xlink:href="#m99911d8892" x="244.5863" y="298.64" style="stroke: #000000; stroke-width: 0.6"/>
      </g>
     </g>
    </g>
    <g id="xtick_17">
     <g id="line2d_21">
      <g>
       <use xlink:href="#m99911d8892" x="257.763623" y="298.64" style="stroke: #000000; stroke-width: 0.6"/>
      </g>
     </g>
    </g>
    <g id="xtick_18">
     <g id="line2d_22">
      <g>
       <use xlink:href="#m99911d8892" x="267.984749" y="298.64" style="stroke: #000000; stroke-width: 0.6"/>
      </g>
     </g>
    </g>
    <g id="xtick_19">
     <g id="line2d_23">
      <g>
       <use xlink:href="#m99911d8892" x="276.336017" y="298.64" style="stroke: #000000; stroke-width: 0.6"/>
      </g>
     </g>
    </g>
    <g id="xtick_20">
     <g id="line2d_24">
      <g>
       <use xlink:href="#m99911d8892" x="283.396914" y="298.64" style="stroke: #000000; stroke-width: 0.6"/>
      </g>
     </g>
    </g>
    <g id="xtick_21">
     <g id="line2d_25">
      <g>
       <use xlink:href="#m99911d8892" x="289.51334" y="298.64" style="stroke: #000000; stroke-width: 0.6"/>
      </g>
     </g>
    </g>
    <g id="xtick_22">
     <g id="line2d_26">
      <g>
       <use xlink:href="#m99911d8892" x="294.908411" y="298.64" style="stroke: #000000; stroke-width: 0.6"/>
      </g>
     </g>
    </g>
    <g id="xtick_23">
     <g id="line2d_27">
      <g>
       <use xlink:href="#m99911d8892" x="331.484184" y="298.64" style="stroke: #000000; stroke-width: 0.6"/>
      </g>
     </g>
    </g>
    <g id="xtick_24">
     <g id="line2d_28">
      <g>
       <use xlink:href="#m99911d8892" x="350.056578" y="298.64" style="stroke: #000000; stroke-width: 0.6"/>
      </g>
     </g>
    </g>
    <g id="xtick_25">
     <g id="line2d_29">
      <g>
       <use xlink:href="#m99911d8892" x="363.233901" y="298.64" style="stroke: #000000; stroke-width: 0.6"/>
      </g>
     </g>
    </g>
    <g id="xtick_26">
     <g id="line2d_30">
      <g>
       <use xlink:href="#m99911d8892" x="373.455027" y="298.64" style="stroke: #000000; stroke-width: 0.6"/>
      </g>
     </g>
    </g>
    <g id="xtick_27">
     <g id="line2d_31">
      <g>
       <use xlink:href="#m99911d8892" x="381.806295" y="298.64" style="stroke: #000000; stroke-width: 0.6"/>
      </g>
     </g>
    </g>
    <g id="xtick_28">
     <g id="line2d_32">
      <g>
       <use xlink:href="#m99911d8892" x="388.867191" y="298.64" style="stroke: #000000; stroke-width: 0.6"/>
      </g>
     </g>
    </g>
    <g id="xtick_29">
     <g id="line2d_33">
      <g>
       <use xlink:href="#m99911d8892" x="394.983618" y="298.64" style="stroke: #000000; stroke-width: 0.6"/>
      </g>
     </g>
    </g>
    <g id="xtick_30">
     <g id="line2d_34">
      <g>
       <use xlink:href="#m99911d8892" x="400.378689" y="298.64" style="stroke: #000000; stroke-width: 0.6"/>
      </g>
     </g>
    </g>
    <g id="text_5">
     <!-- Konzentration c (mol/l) -->
     <g transform="translate(184.294171 327.676406) scale(0.11 -0.11)">
      <defs>
       <path id="DejaVuSans-4b" d="M 628 4666 
L 1259 4666 
L 1259 2694 
L 3353 4666 
L 4166 4666 
L 1850 2491 
L 4331 0 
L 3500 0 
L 1259 2247 
L 1259 0 
L 628 0 
L 628 4666 
z
" transform="scale(0.015625)"/>
       <path id="DejaVuSans-6f" d="M 1959 3097 
Q 1497 3097 1228 2736 
Q 959 2375 959 1747 
Q 959 1119 1226 758 
Q 1494 397 1959 397 
Q 2419 397 2687 759 
Q 2956 1122 2956 1747 
Q 2956 2369 2687 2733 
Q 2419 3097 1959 3097 
z
M 1959 3584 
Q 2709 3584 3137 3096 
Q 3566 2609 3566 1747 
Q 3566 888 3137 398 
Q 2709 -91 1959 -91 
Q 1206 -91 779 398 
Q 353 888 353 1747 
Q 353 2609 779 3096 
Q 1206 3584 1959 3584 
z
" transform="scale(0.015625)"/>
       <path id="DejaVuSans-6e" d="M 3513 2113 
L 3513 0 
L 2938 0 
L 2938 2094 
Q 2938 2591 2744 2837 
Q 2550 3084 2163 3084 
Q 1697 3084 1428 2787 
Q 1159 2491 1159 1978 
L 1159 0 
L 581 0 
L 581 3500 
L 1159 3500 
L 1159 2956 
Q 1366 3272 1645 3428 
Q 1925 3584 2291 3584 
Q 2894 3584 3203 3211 
Q 3513 2838 3513 2113 
z
" transform="scale(0.015625)"/>
       <path id="DejaVuSans-7a" d="M 353 3500 
L 3084 3500 
L 3084 2975 
L 922 459 
L 3084 459 
L 3084 0 
L 275 0 
L 275 525 
L 2438 3041 
L 353 3041 
L 353 3500 
z
" transform="scale(0.015625)"/>
       <path id="DejaVuSans-65" d="M 3597 1894 
L 3597 1613 
L 953 1613 
Q 991 1019 1311 708 
Q 1631 397 2203 397 
Q 2534 397 2845 478 
Q 3156 559 3463 722 
L 3463 178 
Q 3153 47 2828 -22 
Q 2503 -91 2169 -91 
Q 1331 -91 842 396 
Q 353 884 353 1716 
Q 353 2575 817 3079 
Q 1281 3584 2069 3584 
Q 2775 3584 3186 3129 
Q 3597 2675 3597 1894 
z
M 3022 2063 
Q 3016 2534 2758 2815 
Q 2500 3097 2075 3097 
Q 1594 3097 1305 2825 
Q 1016 2553 972 2059 
L 3022 2063 
z
" transform="scale(0.015625)"/>
       <path id="DejaVuSans-74" d="M 1172 4494 
L 1172 3500 
L 2356 3500 
L 2356 3053 
L 1172 3053 
L 1172 1153 
Q 1172 725 1289 603 
Q 1406 481 1766 481 
L 2356 481 
L 2356 0 
L 1766 0 
Q 1100 0 847 248 
Q 594 497 594 1153 
L 594 3053 
L 172 3053 
L 172 3500 
L 594 3500 
L 594 4494 
L 1172 4494 
z
" transform="scale(0.015625)"/>
       <path id="DejaVuSans-72" d="M 2631 2963 
Q 2534 3019 2420 3045 
Q 2306 3072 2169 3072 
Q 1681 3072 1420 2755 
Q 1159 2438 1159 1844 
L 1159 0 
L 581 0 
L 581 3500 
L 1159 3500 
L 1159 2956 
Q 1341 3275 1631 3429 
Q 1922 3584 2338 3584 
Q 2397 3584 2469 3576 
Q 2541 3569 2628 3553 
L 2631 2963 
z
" transform="scale(0.015625)"/>
       <path id="DejaVuSans-61" d="M 2194 1759 
Q 1497 1759 1228 1600 
Q 959 1441 959 1056 
Q 959 750 1161 570 
Q 1363 391 1709 391 
Q 2188 391 2477 730 
Q 2766 1069 2766 1631 
L 2766 1759 
L 2194 1759 
z
M 3341 1997 
L 3341 0 
L 2766 0 
L 2766 531 
Q 2569 213 2275 61 
Q 1981 -91 1556 -91 
Q 1019 -91 701 211 
Q 384 513 384 1019 
Q 384 1609 779 1909 
Q 1175 2209 1959 2209 
L 2766 2209 
L 2766 2266 
Q 2766 2663 2505 2880 
Q 2244 3097 1772 3097 
Q 1472 3097 1187 3025 
Q 903 2953 641 2809 
L 641 3341 
Q 956 3463 1253 3523 
Q 1550 3584 1831 3584 
Q 2591 3584 2966 3190 
Q 3341 2797 3341 1997 
z
" transform="scale(0.015625)"/>
       <path id="DejaVuSans-69" d="M 603 3500 
L 1178 3500 
L 1178 0 
L 603 0 
L 603 3500 
z
M 603 4863 
L 1178 4863 
L 1178 4134 
L 603 4134 
L 603 4863 
z
" transform="scale(0.015625)"/>
       <path id="DejaVuSans-20" transform="scale(0.015625)"/>
       <path id="DejaVuSans-63" d="M 3122 3366 
L 3122 2828 
Q 2878 2963 2633 3030 
Q 2388 3097 2138 3097 
Q 1578 3097 1268 2742 
Q 959 2388 959 1747 
Q 959 1106 1268 751 
Q 1578 397 2138 397 
Q 2388 397 2633 464 
Q 2878 531 3122 666 
L 3122 134 
Q 2881 22 2623 -34 
Q 2366 -91 2075 -91 
Q 1284 -91 818 406 
Q 353 903 353 1747 
Q 353 2603 823 3093 
Q 1294 3584 2113 3584 
Q 2378 3584 2631 3529 
Q 2884 3475 3122 3366 
z
" transform="scale(0.015625)"/>
       <path id="DejaVuSans-28" d="M 1984 4856 
Q 1566 4138 1362 3434 
Q 1159 2731 1159 2009 
Q 1159 1288 1364 580 
Q 1569 -128 1984 -844 
L 1484 -844 
Q 1016 -109 783 600 
Q 550 1309 550 2009 
Q 550 2706 781 3412 
Q 1013 4119 1484 4856 
L 1984 4856 
z
" transform="scale(0.015625)"/>
       <path id="DejaVuSans-6d" d="M 3328 2828 
Q 3544 3216 3844 3400 
Q 4144 3584 4550 3584 
Q 5097 3584 5394 3201 
Q 5691 2819 5691 2113 
L 5691 0 
L 5113 0 
L 5113 2094 
Q 5113 2597 4934 2840 
Q 4756 3084 4391 3084 
Q 3944 3084 3684 2787 
Q 3425 2491 3425 1978 
L 3425 0 
L 2847 0 
L 2847 2094 
Q 2847 2600 2669 2842 
Q 2491 3084 2119 3084 
Q 1678 3084 1418 2786 
Q 1159 2488 1159 1978 
L 1159 0 
L 581 0 
L 581 3500 
L 1159 3500 
L 1159 2956 
Q 1356 3278 1631 3431 
Q 1906 3584 2284 3584 
Q 2666 3584 2933 3390 
Q 3200 3197 3328 2828 
z
" transform="scale(0.015625)"/>
       <path id="DejaVuSans-6c" d="M 603 4863 
L 1178 4863 
L 1178 0 
L 603 0 
L 603 4863 
z
" transform="scale(0.015625)"/>
       <path id="DejaVuSans-2f" d="M 1625 4666 
L 2156 4666 
L 531 -594 
L 0 -594 
L 1625 4666 
z
" transform="scale(0.015625)"/>
       <path id="DejaVuSans-29" d="M 513 4856 
L 1013 4856 
Q 1481 4119 1714 3412 
Q 1947 2706 1947 2009 
Q 1947 1309 1714 600 
Q 1481 -109 1013 -844 
L 513 -844 
Q 928 -128 1133 580 
Q 1338 1288 1338 2009 
Q 1338 2731 1133 3434 
Q 928 4138 513 4856 
z
" transform="scale(0.015625)"/>
      </defs>
      <use xlink:href="#DejaVuSans-4b"/>
      <use xlink:href="#DejaVuSans-6f" transform="translate(60.576172 0)"/>
      <use xlink:href="#DejaVuSans-6e" transform="translate(121.757812 0)"/>
      <use xlink:href="#DejaVuSans-7a" transform="translate(185.136719 0)"/>
      <use xlink:href="#DejaVuSans-65" transform="translate(237.626953 0)"/>
      <use xlink:href="#DejaVuSans-6e" transform="translate(299.150391 0)"/>
      <use xlink:href="#DejaVuSans-74" transform="translate(362.529297 0)"/>
      <use xlink:href="#DejaVuSans-72" transform="translate(401.738281 0)"/>
      <use xlink:href="#DejaVuSans-61" transform="translate(442.851562 0)"/>
      <use xlink:href="#DejaVuSans-74" transform="translate(504.130859 0)"/>
      <use xlink:href="#DejaVuSans-69" transform="translate(543.339844 0)"/>
      <use xlink:href="#DejaVuSans-6f" transform="translate(571.123047 0)"/>
      <use xlink:href="#DejaVuSans-6e" transform="translate(632.304688 0)"/>
      <use xlink:href="#DejaVuSans-20" transform="translate(695.683594 0)"/>
      <use xlink:href="#DejaVuSans-63" transform="translate(727.470703 0)"/>
      <use xlink:href="#DejaVuSans-20" transform="translate(782.451172 0)"/>
      <use xlink:href="#DejaVuSans-28" transform="translate(814.238281 0)"/>
      <use xlink:href="#DejaVuSans-6d" transform="translate(853.251953 0)"/>
      <use xlink:href="#DejaVuSans-6f" transform="translate(950.664062 0)"/>
      <use xlink:href="#DejaVuSans-6c" transform="translate(1011.845703 0)"/>
      <use xlink:href="#DejaVuSans-2f" transform="translate(1039.628906 0)"/>
      <use xlink:href="#DejaVuSans-6c" transform="translate(1073.320312 0)"/>
      <use xlink:href="#DejaVuSans-29" transform="translate(1101.103516 0)"/>
     </g>
    </g>
   </g>
   <g id="matplotlib.axis_2">
    <g id="ytick_1">
     <g id="line2d_35">
      <path d="M 72.973369 235.028582 
L 421.025286 235.028582 
" clip-path="url(#pda44626f2c)" style="fill: none; stroke: #b0b0b0; stroke-opacity: 0.3; stroke-width: 0.8; stroke-linecap: square"/>
     </g>
     <g id="line2d_36">
      <defs>
       <path id="mbd47937241" d="M 0 0 
L -3.5 0 
" style="stroke: #000000; stroke-width: 0.8"/>
      </defs>
      <g>
       <use xlink:href="#mbd47937241" x="72.973369" y="235.028582" style="stroke: #000000; stroke-width: 0.8"/>
      </g>
     </g>
     <g id="text_6">
      <!-- $\mathdefault{10^{-1}}$ -->
      <g transform="translate(42.473369 238.827801) scale(0.1 -0.1)">
       <use xlink:href="#DejaVuSans-31" transform="translate(0 0.684375)"/>
       <use xlink:href="#DejaVuSans-30" transform="translate(63.623047 0.684375)"/>
       <use xlink:href="#DejaVuSans-2212" transform="translate(128.203125 38.965625) scale(0.7)"/>
       <use xlink:href="#DejaVuSans-31" transform="translate(186.855469 38.965625) scale(0.7)"/>
      </g>
     </g>
    </g>
    <g id="ytick_2">
     <g id="line2d_37">
      <path d="M 72.973369 169.743733 
L 421.025286 169.743733 
" clip-path="url(#pda44626f2c)" style="fill: none; stroke: #b0b0b0; stroke-opacity: 0.3; stroke-width: 0.8; stroke-linecap: square"/>
     </g>
     <g id="line2d_38">
      <g>
       <use xlink:href="#mbd47937241" x="72.973369" y="169.743733" style="stroke: #000000; stroke-width: 0.8"/>
      </g>
     </g>
     <g id="text_7">
      <!-- $\mathdefault{10^{0}}$ -->
      <g transform="translate(48.373369 173.542952) scale(0.1 -0.1)">
       <use xlink:href="#DejaVuSans-31" transform="translate(0 0.765625)"/>
       <use xlink:href="#DejaVuSans-30" transform="translate(63.623047 0.765625)"/>
       <use xlink:href="#DejaVuSans-30" transform="translate(128.203125 39.046875) scale(0.7)"/>
      </g>
     </g>
    </g>
    <g id="ytick_3">
     <g id="line2d_39">
      <path d="M 72.973369 104.458885 
L 421.025286 104.458885 
" clip-path="url(#pda44626f2c)" style="fill: none; stroke: #b0b0b0; stroke-opacity: 0.3; stroke-width: 0.8; stroke-linecap: square"/>
     </g>
     <g id="line2d_40">
      <g>
       <use xlink:href="#mbd47937241" x="72.973369" y="104.458885" style="stroke: #000000; stroke-width: 0.8"/>
      </g>
     </g>
     <g id="text_8">
      <!-- $\mathdefault{10^{1}}$ -->
      <g transform="translate(48.373369 108.258104) scale(0.1 -0.1)">
       <use xlink:href="#DejaVuSans-31" transform="translate(0 0.684375)"/>
       <use xlink:href="#DejaVuSans-30" transform="translate(63.623047 0.684375)"/>
       <use xlink:href="#DejaVuSans-31" transform="translate(128.203125 38.965625) scale(0.7)"/>
      </g>
     </g>
    </g>
    <g id="ytick_4">
     <g id="line2d_41">
      <defs>
       <path id="mc05240d2ee" d="M 0 0 
L -2 0 
" style="stroke: #000000; stroke-width: 0.6"/>
      </defs>
      <g>
       <use xlink:href="#mc05240d2ee" x="72.973369" y="280.660733" style="stroke: #000000; stroke-width: 0.6"/>
      </g>
     </g>
    </g>
    <g id="ytick_5">
     <g id="line2d_42">
      <g>
       <use xlink:href="#mc05240d2ee" x="72.973369" y="269.164641" style="stroke: #000000; stroke-width: 0.6"/>
      </g>
     </g>
    </g>
    <g id="ytick_6">
     <g id="line2d_43">
      <g>
       <use xlink:href="#mc05240d2ee" x="72.973369" y="261.008035" style="stroke: #000000; stroke-width: 0.6"/>
      </g>
     </g>
    </g>
    <g id="ytick_7">
     <g id="line2d_44">
      <g>
       <use xlink:href="#mc05240d2ee" x="72.973369" y="254.681279" style="stroke: #000000; stroke-width: 0.6"/>
      </g>
     </g>
    </g>
    <g id="ytick_8">
     <g id="line2d_45">
      <g>
       <use xlink:href="#mc05240d2ee" x="72.973369" y="249.511944" style="stroke: #000000; stroke-width: 0.6"/>
      </g>
     </g>
    </g>
    <g id="ytick_9">
     <g id="line2d_46">
      <g>
       <use xlink:href="#mc05240d2ee" x="72.973369" y="245.141333" style="stroke: #000000; stroke-width: 0.6"/>
      </g>
     </g>
    </g>
    <g id="ytick_10">
     <g id="line2d_47">
      <g>
       <use xlink:href="#mc05240d2ee" x="72.973369" y="241.355337" style="stroke: #000000; stroke-width: 0.6"/>
      </g>
     </g>
    </g>
    <g id="ytick_11">
     <g id="line2d_48">
      <g>
       <use xlink:href="#mc05240d2ee" x="72.973369" y="238.015853" style="stroke: #000000; stroke-width: 0.6"/>
      </g>
     </g>
    </g>
    <g id="ytick_12">
     <g id="line2d_49">
      <g>
       <use xlink:href="#mc05240d2ee" x="72.973369" y="215.375884" style="stroke: #000000; stroke-width: 0.6"/>
      </g>
     </g>
    </g>
    <g id="ytick_13">
     <g id="line2d_50">
      <g>
       <use xlink:href="#mc05240d2ee" x="72.973369" y="203.879793" style="stroke: #000000; stroke-width: 0.6"/>
      </g>
     </g>
    </g>
    <g id="ytick_14">
     <g id="line2d_51">
      <g>
       <use xlink:href="#mc05240d2ee" x="72.973369" y="195.723187" style="stroke: #000000; stroke-width: 0.6"/>
      </g>
     </g>
    </g>
    <g id="ytick_15">
     <g id="line2d_52">
      <g>
       <use xlink:href="#mc05240d2ee" x="72.973369" y="189.396431" style="stroke: #000000; stroke-width: 0.6"/>
      </g>
     </g>
    </g>
    <g id="ytick_16">
     <g id="line2d_53">
      <g>
       <use xlink:href="#mc05240d2ee" x="72.973369" y="184.227095" style="stroke: #000000; stroke-width: 0.6"/>
      </g>
     </g>
    </g>
    <g id="ytick_17">
     <g id="line2d_54">
      <g>
       <use xlink:href="#mc05240d2ee" x="72.973369" y="179.856484" style="stroke: #000000; stroke-width: 0.6"/>
      </g>
     </g>
    </g>
    <g id="ytick_18">
     <g id="line2d_55">
      <g>
       <use xlink:href="#mc05240d2ee" x="72.973369" y="176.070489" style="stroke: #000000; stroke-width: 0.6"/>
      </g>
     </g>
    </g>
    <g id="ytick_19">
     <g id="line2d_56">
      <g>
       <use xlink:href="#mc05240d2ee" x="72.973369" y="172.731004" style="stroke: #000000; stroke-width: 0.6"/>
      </g>
     </g>
    </g>
    <g id="ytick_20">
     <g id="line2d_57">
      <g>
       <use xlink:href="#mc05240d2ee" x="72.973369" y="150.091036" style="stroke: #000000; stroke-width: 0.6"/>
      </g>
     </g>
    </g>
    <g id="ytick_21">
     <g id="line2d_58">
      <g>
       <use xlink:href="#mc05240d2ee" x="72.973369" y="138.594945" style="stroke: #000000; stroke-width: 0.6"/>
      </g>
     </g>
    </g>
    <g id="ytick_22">
     <g id="line2d_59">
      <g>
       <use xlink:href="#mc05240d2ee" x="72.973369" y="130.438338" style="stroke: #000000; stroke-width: 0.6"/>
      </g>
     </g>
    </g>
    <g id="ytick_23">
     <g id="line2d_60">
      <g>
       <use xlink:href="#mc05240d2ee" x="72.973369" y="124.111583" style="stroke: #000000; stroke-width: 0.6"/>
      </g>
     </g>
    </g>
    <g id="ytick_24">
     <g id="line2d_61">
      <g>
       <use xlink:href="#mc05240d2ee" x="72.973369" y="118.942247" style="stroke: #000000; stroke-width: 0.6"/>
      </g>
     </g>
    </g>
    <g id="ytick_25">
     <g id="line2d_62">
      <g>
       <use xlink:href="#mc05240d2ee" x="72.973369" y="114.571636" style="stroke: #000000; stroke-width: 0.6"/>
      </g>
     </g>
    </g>
    <g id="ytick_26">
     <g id="line2d_63">
      <g>
       <use xlink:href="#mc05240d2ee" x="72.973369" y="110.78564" style="stroke: #000000; stroke-width: 0.6"/>
      </g>
     </g>
    </g>
    <g id="ytick_27">
     <g id="line2d_64">
      <g>
       <use xlink:href="#mc05240d2ee" x="72.973369" y="107.446156" style="stroke: #000000; stroke-width: 0.6"/>
      </g>
     </g>
    </g>
    <g id="ytick_28">
     <g id="line2d_65">
      <g>
       <use xlink:href="#mc05240d2ee" x="72.973369" y="84.806187" style="stroke: #000000; stroke-width: 0.6"/>
      </g>
     </g>
    </g>
    <g id="text_9">
     <!-- Ionische Leitfähigkeit σ (S/m) -->
     <g transform="translate(36.185713 271.305938) rotate(-90) scale(0.11 -0.11)">
      <defs>
       <path id="DejaVuSans-49" d="M 628 4666 
L 1259 4666 
L 1259 0 
L 628 0 
L 628 4666 
z
" transform="scale(0.015625)"/>
       <path id="DejaVuSans-73" d="M 2834 3397 
L 2834 2853 
Q 2591 2978 2328 3040 
Q 2066 3103 1784 3103 
Q 1356 3103 1142 2972 
Q 928 2841 928 2578 
Q 928 2378 1081 2264 
Q 1234 2150 1697 2047 
L 1894 2003 
Q 2506 1872 2764 1633 
Q 3022 1394 3022 966 
Q 3022 478 2636 193 
Q 2250 -91 1575 -91 
Q 1294 -91 989 -36 
Q 684 19 347 128 
L 347 722 
Q 666 556 975 473 
Q 1284 391 1588 391 
Q 1994 391 2212 530 
Q 2431 669 2431 922 
Q 2431 1156 2273 1281 
Q 2116 1406 1581 1522 
L 1381 1569 
Q 847 1681 609 1914 
Q 372 2147 372 2553 
Q 372 3047 722 3315 
Q 1072 3584 1716 3584 
Q 2034 3584 2315 3537 
Q 2597 3491 2834 3397 
z
" transform="scale(0.015625)"/>
       <path id="DejaVuSans-68" d="M 3513 2113 
L 3513 0 
L 2938 0 
L 2938 2094 
Q 2938 2591 2744 2837 
Q 2550 3084 2163 3084 
Q 1697 3084 1428 2787 
Q 1159 2491 1159 1978 
L 1159 0 
L 581 0 
L 581 4863 
L 1159 4863 
L 1159 2956 
Q 1366 3272 1645 3428 
Q 1925 3584 2291 3584 
Q 2894 3584 3203 3211 
Q 3513 2838 3513 2113 
z
" transform="scale(0.015625)"/>
       <path id="DejaVuSans-4c" d="M 628 4666 
L 1259 4666 
L 1259 531 
L 3531 531 
L 3531 0 
L 628 0 
L 628 4666 
z
" transform="scale(0.015625)"/>
       <path id="DejaVuSans-66" d="M 2375 4863 
L 2375 4384 
L 1825 4384 
Q 1516 4384 1395 4259 
Q 1275 4134 1275 3809 
L 1275 3500 
L 2222 3500 
L 2222 3053 
L 1275 3053 
L 1275 0 
L 697 0 
L 697 3053 
L 147 3053 
L 147 3500 
L 697 3500 
L 697 3744 
Q 697 4328 969 4595 
Q 1241 4863 1831 4863 
L 2375 4863 
z
" transform="scale(0.015625)"/>
       <path id="DejaVuSans-e4" d="M 2194 1759 
Q 1497 1759 1228 1600 
Q 959 1441 959 1056 
Q 959 750 1161 570 
Q 1363 391 1709 391 
Q 2188 391 2477 730 
Q 2766 1069 2766 1631 
L 2766 1759 
L 2194 1759 
z
M 3341 1997 
L 3341 0 
L 2766 0 
L 2766 531 
Q 2569 213 2275 61 
Q 1981 -91 1556 -91 
Q 1019 -91 701 211 
Q 384 513 384 1019 
Q 384 1609 779 1909 
Q 1175 2209 1959 2209 
L 2766 2209 
L 2766 2266 
Q 2766 2663 2505 2880 
Q 2244 3097 1772 3097 
Q 1472 3097 1187 3025 
Q 903 2953 641 2809 
L 641 3341 
Q 956 3463 1253 3523 
Q 1550 3584 1831 3584 
Q 2591 3584 2966 3190 
Q 3341 2797 3341 1997 
z
M 2150 4850 
L 2784 4850 
L 2784 4219 
L 2150 4219 
L 2150 4850 
z
M 928 4850 
L 1562 4850 
L 1562 4219 
L 928 4219 
L 928 4850 
z
" transform="scale(0.015625)"/>
       <path id="DejaVuSans-67" d="M 2906 1791 
Q 2906 2416 2648 2759 
Q 2391 3103 1925 3103 
Q 1463 3103 1205 2759 
Q 947 2416 947 1791 
Q 947 1169 1205 825 
Q 1463 481 1925 481 
Q 2391 481 2648 825 
Q 2906 1169 2906 1791 
z
M 3481 434 
Q 3481 -459 3084 -895 
Q 2688 -1331 1869 -1331 
Q 1566 -1331 1297 -1286 
Q 1028 -1241 775 -1147 
L 775 -588 
Q 1028 -725 1275 -790 
Q 1522 -856 1778 -856 
Q 2344 -856 2625 -561 
Q 2906 -266 2906 331 
L 2906 616 
Q 2728 306 2450 153 
Q 2172 0 1784 0 
Q 1141 0 747 490 
Q 353 981 353 1791 
Q 353 2603 747 3093 
Q 1141 3584 1784 3584 
Q 2172 3584 2450 3431 
Q 2728 3278 2906 2969 
L 2906 3500 
L 3481 3500 
L 3481 434 
z
" transform="scale(0.015625)"/>
       <path id="DejaVuSans-6b" d="M 581 4863 
L 1159 4863 
L 1159 1991 
L 2875 3500 
L 3609 3500 
L 1753 1863 
L 3688 0 
L 2938 0 
L 1159 1709 
L 1159 0 
L 581 0 
L 581 4863 
z
" transform="scale(0.015625)"/>
       <path id="DejaVuSans-3c3" d="M 1959 3044 
Q 1484 3044 1228 2700 
Q 959 2341 959 1747 
Q 959 1119 1226 758 
Q 1494 397 1959 397 
Q 2419 397 2687 759 
Q 2956 1122 2956 1747 
Q 2956 2319 2688 2700 
Q 2441 3044 1959 3044 
z
M 1959 3500 
L 3869 3500 
L 3869 2925 
L 3225 2925 
Q 3566 2438 3566 1747 
Q 3566 888 3138 400 
Q 2709 -91 1959 -91 
Q 1206 -91 781 400 
Q 353 888 353 1747 
Q 353 2613 781 3097 
Q 1134 3500 1959 3500 
z
" transform="scale(0.015625)"/>
       <path id="DejaVuSans-53" d="M 3425 4513 
L 3425 3897 
Q 3066 4069 2747 4153 
Q 2428 4238 2131 4238 
Q 1616 4238 1336 4038 
Q 1056 3838 1056 3469 
Q 1056 3159 1242 3001 
Q 1428 2844 1947 2747 
L 2328 2669 
Q 3034 2534 3370 2195 
Q 3706 1856 3706 1288 
Q 3706 609 3251 259 
Q 2797 -91 1919 -91 
Q 1588 -91 1214 -16 
Q 841 59 441 206 
L 441 856 
Q 825 641 1194 531 
Q 1563 422 1919 422 
Q 2459 422 2753 634 
Q 3047 847 3047 1241 
Q 3047 1584 2836 1778 
Q 2625 1972 2144 2069 
L 1759 2144 
Q 1053 2284 737 2584 
Q 422 2884 422 3419 
Q 422 4038 858 4394 
Q 1294 4750 2059 4750 
Q 2388 4750 2728 4690 
Q 3069 4631 3425 4513 
z
" transform="scale(0.015625)"/>
      </defs>
      <use xlink:href="#DejaVuSans-49"/>
      <use xlink:href="#DejaVuSans-6f" transform="translate(29.492188 0)"/>
      <use xlink:href="#DejaVuSans-6e" transform="translate(90.673828 0)"/>
      <use xlink:href="#DejaVuSans-69" transform="translate(154.052734 0)"/>
      <use xlink:href="#DejaVuSans-73" transform="translate(181.835938 0)"/>
      <use xlink:href="#DejaVuSans-63" transform="translate(233.935547 0)"/>
      <use xlink:href="#DejaVuSans-68" transform="translate(288.916016 0)"/>
      <use xlink:href="#DejaVuSans-65" transform="translate(352.294922 0)"/>
      <use xlink:href="#DejaVuSans-20" transform="translate(413.818359 0)"/>
      <use xlink:href="#DejaVuSans-4c" transform="translate(445.605469 0)"/>
      <use xlink:href="#DejaVuSans-65" transform="translate(499.568359 0)"/>
      <use xlink:href="#DejaVuSans-69" transform="translate(561.091797 0)"/>
      <use xlink:href="#DejaVuSans-74" transform="translate(588.875 0)"/>
      <use xlink:href="#DejaVuSans-66" transform="translate(628.083984 0)"/>
      <use xlink:href="#DejaVuSans-e4" transform="translate(663.289062 0)"/>
      <use xlink:href="#DejaVuSans-68" transform="translate(724.568359 0)"/>
      <use xlink:href="#DejaVuSans-69" transform="translate(787.947266 0)"/>
      <use xlink:href="#DejaVuSans-67" transform="translate(815.730469 0)"/>
      <use xlink:href="#DejaVuSans-6b" transform="translate(879.207031 0)"/>
      <use xlink:href="#DejaVuSans-65" transform="translate(933.492188 0)"/>
      <use xlink:href="#DejaVuSans-69" transform="translate(995.015625 0)"/>
      <use xlink:href="#DejaVuSans-74" transform="translate(1022.798828 0)"/>
      <use xlink:href="#DejaVuSans-20" transform="translate(1062.007812 0)"/>
      <use xlink:href="#DejaVuSans-3c3" transform="translate(1093.794922 0)"/>
      <use xlink:href="#DejaVuSans-20" transform="translate(1157.173828 0)"/>
      <use xlink:href="#DejaVuSans-28" transform="translate(1188.960938 0)"/>
      <use xlink:href="#DejaVuSans-53" transform="translate(1227.974609 0)"/>
      <use xlink:href="#DejaVuSans-2f" transform="translate(1291.451172 0)"/>
      <use xlink:href="#DejaVuSans-6d" transform="translate(1325.142578 0)"/>
      <use xlink:href="#DejaVuSans-29" transform="translate(1422.554688 0)"/>
     </g>
    </g>
   </g>
   <g id="line2d_66">
    <path d="M 88.793911 288.847273 
L 92.799111 286.368101 
L 96.804312 283.88893 
L 100.809512 281.409758 
L 104.814712 278.930587 
L 108.819913 276.451415 
L 112.825113 273.972244 
L 116.830314 271.493072 
L 120.835514 269.013901 
L 124.840715 266.53473 
L 128.845915 264.055558 
L 132.851115 261.576387 
L 136.856316 259.097215 
L 140.861516 256.618044 
L 144.866717 254.138872 
L 148.871917 251.659701 
L 152.877118 249.180529 
L 156.882318 246.701358 
L 160.887518 244.222186 
L 164.892719 241.743015 
L 168.897919 239.263843 
L 172.90312 236.784672 
L 176.90832 234.305501 
L 180.91352 231.826329 
L 184.918721 229.347158 
L 188.923921 226.867986 
L 192.929122 224.388815 
L 196.934322 221.909643 
L 200.939523 219.430472 
L 204.944723 216.9513 
L 208.949923 214.472129 
L 212.955124 211.992957 
L 216.960324 209.513786 
L 220.965525 207.034614 
L 224.970725 204.555443 
L 228.975926 202.076272 
L 232.981126 199.5971 
L 236.986326 197.117929 
L 240.991527 194.638757 
L 244.996727 192.159586 
L 249.001928 189.680414 
L 253.007128 187.201243 
L 257.012328 184.722071 
L 261.017529 182.2429 
L 265.022729 179.763728 
L 269.02793 177.284557 
L 273.03313 174.805386 
L 277.038331 172.326214 
L 281.043531 169.847043 
L 285.048731 167.367871 
L 289.053932 164.8887 
L 293.059132 162.409528 
L 297.064333 159.930357 
L 301.069533 157.451185 
L 305.074733 154.972014 
L 309.079934 152.492842 
L 313.085134 150.013671 
L 317.090335 147.534499 
L 321.095535 145.055328 
L 325.100736 142.576157 
L 329.105936 140.096985 
L 333.111136 137.617814 
L 337.116337 135.138642 
L 341.121537 132.659471 
L 345.126738 130.180299 
L 349.131938 127.701128 
L 353.137139 125.221956 
L 357.142339 122.742785 
L 361.147539 120.263613 
L 365.15274 117.784442 
L 369.15794 115.30527 
L 373.163141 112.826099 
L 377.168341 110.346928 
L 381.173541 107.867756 
L 385.178742 105.388585 
L 389.183942 102.909413 
L 393.189143 100.430242 
L 397.194343 97.95107 
L 401.199544 95.471899 
L 405.204744 92.992727 
" clip-path="url(#pda44626f2c)" style="fill: none; stroke: #e63946; stroke-width: 2; stroke-linecap: square"/>
   </g>
   <g id="line2d_67">
    <path d="M 299.734466 298.64 
L 299.734466 83.2 
" clip-path="url(#pda44626f2c)" style="fill: none; stroke-dasharray: 7.4,3.2; stroke-dashoffset: 0; stroke: #808080; stroke-opacity: 0.7; stroke-width: 2"/>
   </g>
   <g id="line2d_68">
    <path d="M 72.973369 158.277576 
L 421.025286 158.277576 
" clip-path="url(#pda44626f2c)" style="fill: none; stroke-dasharray: 2,3.3; stroke-dashoffset: 0; stroke: #808080; stroke-opacity: 0.7; stroke-width: 2"/>
   </g>
   <g id="patch_3">
    <path d="M 72.973369 298.64 
L 72.973369 83.2 
" style="fill: none; stroke: #000000; stroke-width: 0.8; stroke-linejoin: miter; stroke-linecap: square"/>
   </g>
   <g id="patch_4">
    <path d="M 421.025286 298.64 
L 421.025286 83.2 
" style="fill: none; stroke: #000000; stroke-width: 0.8; stroke-linejoin: miter; stroke-linecap: square"/>
   </g>
   <g id="patch_5">
    <path d="M 72.973369 298.64 
L 421.025286 298.64 
" style="fill: none; stroke: #000000; stroke-width: 0.8; stroke-linejoin: miter; stroke-linecap: square"/>
   </g>
   <g id="patch_6">
    <path d="M 72.973369 83.2 
L 421.025286 83.2 
" style="fill: none; stroke: #000000; stroke-width: 0.8; stroke-linejoin: miter; stroke-linecap: square"/>
   </g>
   <g id="patch_7">
    <path d="M 127.808492 194.608373 
Q 160.295082 223.974763 191.952276 252.591417 
" style="fill: none; stroke: #808080; stroke-linecap: round"/>
    <path d="M 190.488725 248.842014 
L 191.952276 252.591417 
L 188.074624 251.512616 
" style="fill: none; stroke: #808080; stroke-linecap: round"/>
   </g>
   <g id="text_10">
    <!-- σ ∝ c  (linear) -->
    <g transform="translate(88.793911 189.396431) scale(0.09 -0.09)">
     <defs>
      <path id="DejaVuSans-221d" d="M 1647 1134 
Q 2163 1134 2472 1884 
Q 2075 2703 1647 2703 
Q 1334 2703 1175 2478 
Q 1006 2238 1006 1919 
Q 1006 1569 1175 1353 
Q 1350 1134 1647 1134 
z
M 3884 1128 
L 3884 716 
L 3644 716 
Q 3416 716 3247 809 
Q 3078 894 2916 1091 
Q 2819 1203 2666 1466 
Q 2456 1091 2272 925 
Q 2044 725 1681 725 
Q 1259 725 981 1041 
Q 688 1372 688 1919 
Q 688 2444 981 2800 
Q 1241 3116 1688 3116 
Q 1916 3116 2084 3022 
Q 2281 2919 2416 2741 
Q 2541 2581 2666 2366 
Q 2875 2741 3059 2906 
Q 3288 3106 3650 3106 
L 3884 3106 
L 3884 2697 
L 3684 2697 
Q 3222 2697 2859 1947 
Q 3256 1128 3684 1128 
L 3884 1128 
z
" transform="scale(0.015625)"/>
     </defs>
     <use xlink:href="#DejaVuSans-3c3"/>
     <use xlink:href="#DejaVuSans-20" transform="translate(63.378906 0)"/>
     <use xlink:href="#DejaVuSans-221d" transform="translate(95.166016 0)"/>
     <use xlink:href="#DejaVuSans-20" transform="translate(166.601562 0)"/>
     <use xlink:href="#DejaVuSans-63" transform="translate(198.388672 0)"/>
     <use xlink:href="#DejaVuSans-20" transform="translate(253.369141 0)"/>
     <use xlink:href="#DejaVuSans-20" transform="translate(285.15625 0)"/>
     <use xlink:href="#DejaVuSans-28" transform="translate(316.943359 0)"/>
     <use xlink:href="#DejaVuSans-6c" transform="translate(355.957031 0)"/>
     <use xlink:href="#DejaVuSans-69" transform="translate(383.740234 0)"/>
     <use xlink:href="#DejaVuSans-6e" transform="translate(411.523438 0)"/>
     <use xlink:href="#DejaVuSans-65" transform="translate(474.902344 0)"/>
     <use xlink:href="#DejaVuSans-61" transform="translate(536.425781 0)"/>
     <use xlink:href="#DejaVuSans-72" transform="translate(597.705078 0)"/>
     <use xlink:href="#DejaVuSans-29" transform="translate(638.818359 0)"/>
    </g>
   </g>
   <g id="text_11">
    <!-- σ(c): Leitfähigkeit vs. Konzentration -->
    <g transform="translate(140.165577 77.2) scale(0.12 -0.12)">
     <defs>
      <path id="DejaVuSans-3a" d="M 750 794 
L 1409 794 
L 1409 0 
L 750 0 
L 750 794 
z
M 750 3309 
L 1409 3309 
L 1409 2516 
L 750 2516 
L 750 3309 
z
" transform="scale(0.015625)"/>
      <path id="DejaVuSans-76" d="M 191 3500 
L 800 3500 
L 1894 563 
L 2988 3500 
L 3597 3500 
L 2284 0 
L 1503 0 
L 191 3500 
z
" transform="scale(0.015625)"/>
      <path id="DejaVuSans-2e" d="M 684 794 
L 1344 794 
L 1344 0 
L 684 0 
L 684 794 
z
" transform="scale(0.015625)"/>
     </defs>
     <use xlink:href="#DejaVuSans-3c3"/>
     <use xlink:href="#DejaVuSans-28" transform="translate(63.378906 0)"/>
     <use xlink:href="#DejaVuSans-63" transform="translate(102.392578 0)"/>
     <use xlink:href="#DejaVuSans-29" transform="translate(157.373047 0)"/>
     <use xlink:href="#DejaVuSans-3a" transform="translate(196.386719 0)"/>
     <use xlink:href="#DejaVuSans-20" transform="translate(230.078125 0)"/>
     <use xlink:href="#DejaVuSans-4c" transform="translate(261.865234 0)"/>
     <use xlink:href="#DejaVuSans-65" transform="translate(315.828125 0)"/>
     <use xlink:href="#DejaVuSans-69" transform="translate(377.351562 0)"/>
     <use xlink:href="#DejaVuSans-74" transform="translate(405.134766 0)"/>
     <use xlink:href="#DejaVuSans-66" transform="translate(444.34375 0)"/>
     <use xlink:href="#DejaVuSans-e4" transform="translate(479.548828 0)"/>
     <use xlink:href="#DejaVuSans-68" transform="translate(540.828125 0)"/>
     <use xlink:href="#DejaVuSans-69" transform="translate(604.207031 0)"/>
     <use xlink:href="#DejaVuSans-67" transform="translate(631.990234 0)"/>
     <use xlink:href="#DejaVuSans-6b" transform="translate(695.466797 0)"/>
     <use xlink:href="#DejaVuSans-65" transform="translate(749.751953 0)"/>
     <use xlink:href="#DejaVuSans-69" transform="translate(811.275391 0)"/>
     <use xlink:href="#DejaVuSans-74" transform="translate(839.058594 0)"/>
     <use xlink:href="#DejaVuSans-20" transform="translate(878.267578 0)"/>
     <use xlink:href="#DejaVuSans-76" transform="translate(910.054688 0)"/>
     <use xlink:href="#DejaVuSans-73" transform="translate(969.234375 0)"/>
     <use xlink:href="#DejaVuSans-2e" transform="translate(1021.333984 0)"/>
     <use xlink:href="#DejaVuSans-20" transform="translate(1053.121094 0)"/>
     <use xlink:href="#DejaVuSans-4b" transform="translate(1084.908203 0)"/>
     <use xlink:href="#DejaVuSans-6f" transform="translate(1145.484375 0)"/>
     <use xlink:href="#DejaVuSans-6e" transform="translate(1206.666016 0)"/>
     <use xlink:href="#DejaVuSans-7a" transform="translate(1270.044922 0)"/>
     <use xlink:href="#DejaVuSans-65" transform="translate(1322.535156 0)"/>
     <use xlink:href="#DejaVuSans-6e" transform="translate(1384.058594 0)"/>
     <use xlink:href="#DejaVuSans-74" transform="translate(1447.4375 0)"/>
     <use xlink:href="#DejaVuSans-72" transform="translate(1486.646484 0)"/>
     <use xlink:href="#DejaVuSans-61" transform="translate(1527.759766 0)"/>
     <use xlink:href="#DejaVuSans-74" transform="translate(1589.039062 0)"/>
     <use xlink:href="#DejaVuSans-69" transform="translate(1628.248047 0)"/>
     <use xlink:href="#DejaVuSans-6f" transform="translate(1656.03125 0)"/>
     <use xlink:href="#DejaVuSans-6e" transform="translate(1717.212891 0)"/>
    </g>
   </g>
   <g id="PathCollection_1">
    <defs>
     <path id="medb1ab6f44" d="M 0 3.872983 
C 1.027127 3.872983 2.012324 3.464901 2.738613 2.738613 
C 3.464901 2.012324 3.872983 1.027127 3.872983 0 
C 3.872983 -1.027127 3.464901 -2.012324 2.738613 -2.738613 
C 2.012324 -3.464901 1.027127 -3.872983 0 -3.872983 
C -1.027127 -3.872983 -2.012324 -3.464901 -2.738613 -2.738613 
C -3.464901 -2.012324 -3.872983 -1.027127 -3.872983 0 
C -3.872983 1.027127 -3.464901 2.012324 -2.738613 2.738613 
C -2.012324 3.464901 -1.027127 3.872983 0 3.872983 
z
" style="stroke: #457b9d"/>
    </defs>
    <g clip-path="url(#pda44626f2c)">
     <use xlink:href="#medb1ab6f44" x="299.734466" y="158.277576" style="fill: #457b9d; stroke: #457b9d"/>
    </g>
   </g>
   <g id="legend_1">
    <g id="patch_8">
     <path d="M 79.273369 130.28125 
L 204.0204 130.28125 
Q 205.8204 130.28125 205.8204 128.48125 
L 205.8204 89.5 
Q 205.8204 87.7 204.0204 87.7 
L 79.273369 87.7 
Q 77.473369 87.7 77.473369 89.5 
L 77.473369 128.48125 
Q 77.473369 130.28125 79.273369 130.28125 
z
" style="fill: #ffffff; opacity: 0.8; stroke: #cccccc; stroke-linejoin: miter"/>
    </g>
    <g id="line2d_69">
     <path d="M 81.073369 94.988594 
L 90.073369 94.988594 
L 99.073369 94.988594 
" style="fill: none; stroke: #e63946; stroke-width: 2; stroke-linecap: square"/>
    </g>
    <g id="text_12">
     <!-- σ_KCl(c) -->
     <g transform="translate(106.273369 98.138594) scale(0.09 -0.09)">
      <defs>
       <path id="DejaVuSans-5f" d="M 3263 -1063 
L 3263 -1509 
L -63 -1509 
L -63 -1063 
L 3263 -1063 
z
" transform="scale(0.015625)"/>
       <path id="DejaVuSans-43" d="M 4122 4306 
L 4122 3641 
Q 3803 3938 3442 4084 
Q 3081 4231 2675 4231 
Q 1875 4231 1450 3742 
Q 1025 3253 1025 2328 
Q 1025 1406 1450 917 
Q 1875 428 2675 428 
Q 3081 428 3442 575 
Q 3803 722 4122 1019 
L 4122 359 
Q 3791 134 3420 21 
Q 3050 -91 2638 -91 
Q 1578 -91 968 557 
Q 359 1206 359 2328 
Q 359 3453 968 4101 
Q 1578 4750 2638 4750 
Q 3056 4750 3426 4639 
Q 3797 4528 4122 4306 
z
" transform="scale(0.015625)"/>
      </defs>
      <use xlink:href="#DejaVuSans-3c3"/>
      <use xlink:href="#DejaVuSans-5f" transform="translate(63.378906 0)"/>
      <use xlink:href="#DejaVuSans-4b" transform="translate(113.378906 0)"/>
      <use xlink:href="#DejaVuSans-43" transform="translate(173.455078 0)"/>
      <use xlink:href="#DejaVuSans-6c" transform="translate(243.279297 0)"/>
      <use xlink:href="#DejaVuSans-28" transform="translate(271.0625 0)"/>
      <use xlink:href="#DejaVuSans-63" transform="translate(310.076172 0)"/>
      <use xlink:href="#DejaVuSans-29" transform="translate(365.056641 0)"/>
     </g>
    </g>
    <g id="line2d_70">
     <path d="M 81.073369 108.449219 
L 90.073369 108.449219 
L 99.073369 108.449219 
" style="fill: none; stroke-dasharray: 7.4,3.2; stroke-dashoffset: 0; stroke: #808080; stroke-opacity: 0.7; stroke-width: 2"/>
    </g>
    <g id="text_13">
     <!-- c=0.1 mol/l (IRF-Ref.) -->
     <g transform="translate(106.273369 111.599219) scale(0.09 -0.09)">
      <defs>
       <path id="DejaVuSans-3d" d="M 678 2906 
L 4684 2906 
L 4684 2381 
L 678 2381 
L 678 2906 
z
M 678 1631 
L 4684 1631 
L 4684 1100 
L 678 1100 
L 678 1631 
z
" transform="scale(0.015625)"/>
       <path id="DejaVuSans-52" d="M 2841 2188 
Q 3044 2119 3236 1894 
Q 3428 1669 3622 1275 
L 4263 0 
L 3584 0 
L 2988 1197 
Q 2756 1666 2539 1819 
Q 2322 1972 1947 1972 
L 1259 1972 
L 1259 0 
L 628 0 
L 628 4666 
L 2053 4666 
Q 2853 4666 3247 4331 
Q 3641 3997 3641 3322 
Q 3641 2881 3436 2590 
Q 3231 2300 2841 2188 
z
M 1259 4147 
L 1259 2491 
L 2053 2491 
Q 2509 2491 2742 2702 
Q 2975 2913 2975 3322 
Q 2975 3731 2742 3939 
Q 2509 4147 2053 4147 
L 1259 4147 
z
" transform="scale(0.015625)"/>
       <path id="DejaVuSans-46" d="M 628 4666 
L 3309 4666 
L 3309 4134 
L 1259 4134 
L 1259 2759 
L 3109 2759 
L 3109 2228 
L 1259 2228 
L 1259 0 
L 628 0 
L 628 4666 
z
" transform="scale(0.015625)"/>
       <path id="DejaVuSans-2d" d="M 313 2009 
L 1997 2009 
L 1997 1497 
L 313 1497 
L 313 2009 
z
" transform="scale(0.015625)"/>
      </defs>
      <use xlink:href="#DejaVuSans-63"/>
      <use xlink:href="#DejaVuSans-3d" transform="translate(54.980469 0)"/>
      <use xlink:href="#DejaVuSans-30" transform="translate(138.769531 0)"/>
      <use xlink:href="#DejaVuSans-2e" transform="translate(202.392578 0)"/>
      <use xlink:href="#DejaVuSans-31" transform="translate(234.179688 0)"/>
      <use xlink:href="#DejaVuSans-20" transform="translate(297.802734 0)"/>
      <use xlink:href="#DejaVuSans-6d" transform="translate(329.589844 0)"/>
      <use xlink:href="#DejaVuSans-6f" transform="translate(427.001953 0)"/>
      <use xlink:href="#DejaVuSans-6c" transform="translate(488.183594 0)"/>
      <use xlink:href="#DejaVuSans-2f" transform="translate(515.966797 0)"/>
      <use xlink:href="#DejaVuSans-6c" transform="translate(549.658203 0)"/>
      <use xlink:href="#DejaVuSans-20" transform="translate(577.441406 0)"/>
      <use xlink:href="#DejaVuSans-28" transform="translate(609.228516 0)"/>
      <use xlink:href="#DejaVuSans-49" transform="translate(648.242188 0)"/>
      <use xlink:href="#DejaVuSans-52" transform="translate(677.734375 0)"/>
      <use xlink:href="#DejaVuSans-46" transform="translate(747.216797 0)"/>
      <use xlink:href="#DejaVuSans-2d" transform="translate(804.736328 0)"/>
      <use xlink:href="#DejaVuSans-52" transform="translate(840.820312 0)"/>
      <use xlink:href="#DejaVuSans-65" transform="translate(905.802734 0)"/>
      <use xlink:href="#DejaVuSans-66" transform="translate(967.326172 0)"/>
      <use xlink:href="#DejaVuSans-2e" transform="translate(995.28125 0)"/>
      <use xlink:href="#DejaVuSans-29" transform="translate(1027.068359 0)"/>
     </g>
    </g>
    <g id="PathCollection_2">
     <g>
      <use xlink:href="#medb1ab6f44" x="90.073369" y="122.447031" style="fill: #457b9d; stroke: #457b9d"/>
     </g>
    </g>
    <g id="text_14">
     <!-- σ=1.50 S/m -->
     <g transform="translate(106.273369 124.809531) scale(0.09 -0.09)">
      <defs>
       <path id="DejaVuSans-35" d="M 691 4666 
L 3169 4666 
L 3169 4134 
L 1269 4134 
L 1269 2991 
Q 1406 3038 1543 3061 
Q 1681 3084 1819 3084 
Q 2600 3084 3056 2656 
Q 3513 2228 3513 1497 
Q 3513 744 3044 326 
Q 2575 -91 1722 -91 
Q 1428 -91 1123 -41 
Q 819 9 494 109 
L 494 744 
Q 775 591 1075 516 
Q 1375 441 1709 441 
Q 2250 441 2565 725 
Q 2881 1009 2881 1497 
Q 2881 1984 2565 2268 
Q 2250 2553 1709 2553 
Q 1456 2553 1204 2497 
Q 953 2441 691 2322 
L 691 4666 
z
" transform="scale(0.015625)"/>
      </defs>
      <use xlink:href="#DejaVuSans-3c3"/>
      <use xlink:href="#DejaVuSans-3d" transform="translate(63.378906 0)"/>
      <use xlink:href="#DejaVuSans-31" transform="translate(147.167969 0)"/>
      <use xlink:href="#DejaVuSans-2e" transform="translate(210.791016 0)"/>
      <use xlink:href="#DejaVuSans-35" transform="translate(242.578125 0)"/>
      <use xlink:href="#DejaVuSans-30" transform="translate(306.201172 0)"/>
      <use xlink:href="#DejaVuSans-20" transform="translate(369.824219 0)"/>
      <use xlink:href="#DejaVuSans-53" transform="translate(401.611328 0)"/>
      <use xlink:href="#DejaVuSans-2f" transform="translate(465.087891 0)"/>
      <use xlink:href="#DejaVuSans-6d" transform="translate(498.779297 0)"/>
     </g>
    </g>
   </g>
  </g>
  <g id="axes_2">
   <g id="patch_9">
    <path d="M 488.448083 298.64 
L 836.5 298.64 
L 836.5 83.2 
L 488.448083 83.2 
z
" style="fill: #ffffff"/>
   </g>
   <g id="matplotlib.axis_3">
    <g id="xtick_31">
     <g id="line2d_71">
      <path d="M 504.268625 298.64 
L 504.268625 83.2 
" clip-path="url(#p2595db5ed1)" style="fill: none; stroke: #b0b0b0; stroke-opacity: 0.3; stroke-width: 0.8; stroke-linecap: square"/>
     </g>
     <g id="line2d_72">
      <g>
       <use xlink:href="#m9c7b48809d" x="504.268625" y="298.64" style="stroke: #000000; stroke-width: 0.8"/>
      </g>
     </g>
     <g id="text_15">
      <!-- $\mathdefault{10^{-3}}$ -->
      <g transform="translate(492.518625 313.238437) scale(0.1 -0.1)">
       <use xlink:href="#DejaVuSans-31" transform="translate(0 0.765625)"/>
       <use xlink:href="#DejaVuSans-30" transform="translate(63.623047 0.765625)"/>
       <use xlink:href="#DejaVuSans-2212" transform="translate(128.203125 39.046875) scale(0.7)"/>
       <use xlink:href="#DejaVuSans-33" transform="translate(186.855469 39.046875) scale(0.7)"/>
      </g>
     </g>
    </g>
    <g id="xtick_32">
     <g id="line2d_73">
      <path d="M 609.738903 298.64 
L 609.738903 83.2 
" clip-path="url(#p2595db5ed1)" style="fill: none; stroke: #b0b0b0; stroke-opacity: 0.3; stroke-width: 0.8; stroke-linecap: square"/>
     </g>
     <g id="line2d_74">
      <g>
       <use xlink:href="#m9c7b48809d" x="609.738903" y="298.64" style="stroke: #000000; stroke-width: 0.8"/>
      </g>
     </g>
     <g id="text_16">
      <!-- $\mathdefault{10^{-2}}$ -->
      <g transform="translate(597.988903 313.238437) scale(0.1 -0.1)">
       <use xlink:href="#DejaVuSans-31" transform="translate(0 0.765625)"/>
       <use xlink:href="#DejaVuSans-30" transform="translate(63.623047 0.765625)"/>
       <use xlink:href="#DejaVuSans-2212" transform="translate(128.203125 39.046875) scale(0.7)"/>
       <use xlink:href="#DejaVuSans-32" transform="translate(186.855469 39.046875) scale(0.7)"/>
      </g>
     </g>
    </g>
    <g id="xtick_33">
     <g id="line2d_75">
      <path d="M 715.209181 298.64 
L 715.209181 83.2 
" clip-path="url(#p2595db5ed1)" style="fill: none; stroke: #b0b0b0; stroke-opacity: 0.3; stroke-width: 0.8; stroke-linecap: square"/>
     </g>
     <g id="line2d_76">
      <g>
       <use xlink:href="#m9c7b48809d" x="715.209181" y="298.64" style="stroke: #000000; stroke-width: 0.8"/>
      </g>
     </g>
     <g id="text_17">
      <!-- $\mathdefault{10^{-1}}$ -->
      <g transform="translate(703.459181 313.238437) scale(0.1 -0.1)">
       <use xlink:href="#DejaVuSans-31" transform="translate(0 0.684375)"/>
       <use xlink:href="#DejaVuSans-30" transform="translate(63.623047 0.684375)"/>
       <use xlink:href="#DejaVuSans-2212" transform="translate(128.203125 38.965625) scale(0.7)"/>
       <use xlink:href="#DejaVuSans-31" transform="translate(186.855469 38.965625) scale(0.7)"/>
      </g>
     </g>
    </g>
    <g id="xtick_34">
     <g id="line2d_77">
      <path d="M 820.679458 298.64 
L 820.679458 83.2 
" clip-path="url(#p2595db5ed1)" style="fill: none; stroke: #b0b0b0; stroke-opacity: 0.3; stroke-width: 0.8; stroke-linecap: square"/>
     </g>
     <g id="line2d_78">
      <g>
       <use xlink:href="#m9c7b48809d" x="820.679458" y="298.64" style="stroke: #000000; stroke-width: 0.8"/>
      </g>
     </g>
     <g id="text_18">
      <!-- $\mathdefault{10^{0}}$ -->
      <g transform="translate(811.879458 313.238437) scale(0.1 -0.1)">
       <use xlink:href="#DejaVuSans-31" transform="translate(0 0.765625)"/>
       <use xlink:href="#DejaVuSans-30" transform="translate(63.623047 0.765625)"/>
       <use xlink:href="#DejaVuSans-30" transform="translate(128.203125 39.046875) scale(0.7)"/>
      </g>
     </g>
    </g>
    <g id="xtick_35">
     <g id="line2d_79">
      <g>
       <use xlink:href="#m99911d8892" x="494.047499" y="298.64" style="stroke: #000000; stroke-width: 0.6"/>
      </g>
     </g>
    </g>
    <g id="xtick_36">
     <g id="line2d_80">
      <g>
       <use xlink:href="#m99911d8892" x="499.44257" y="298.64" style="stroke: #000000; stroke-width: 0.6"/>
      </g>
     </g>
    </g>
    <g id="xtick_37">
     <g id="line2d_81">
      <g>
       <use xlink:href="#m99911d8892" x="536.018342" y="298.64" style="stroke: #000000; stroke-width: 0.6"/>
      </g>
     </g>
    </g>
    <g id="xtick_38">
     <g id="line2d_82">
      <g>
       <use xlink:href="#m99911d8892" x="554.590736" y="298.64" style="stroke: #000000; stroke-width: 0.6"/>
      </g>
     </g>
    </g>
    <g id="xtick_39">
     <g id="line2d_83">
      <g>
       <use xlink:href="#m99911d8892" x="567.76806" y="298.64" style="stroke: #000000; stroke-width: 0.6"/>
      </g>
     </g>
    </g>
    <g id="xtick_40">
     <g id="line2d_84">
      <g>
       <use xlink:href="#m99911d8892" x="577.989186" y="298.64" style="stroke: #000000; stroke-width: 0.6"/>
      </g>
     </g>
    </g>
    <g id="xtick_41">
     <g id="line2d_85">
      <g>
       <use xlink:href="#m99911d8892" x="586.340454" y="298.64" style="stroke: #000000; stroke-width: 0.6"/>
      </g>
     </g>
    </g>
    <g id="xtick_42">
     <g id="line2d_86">
      <g>
       <use xlink:href="#m99911d8892" x="593.40135" y="298.64" style="stroke: #000000; stroke-width: 0.6"/>
      </g>
     </g>
    </g>
    <g id="xtick_43">
     <g id="line2d_87">
      <g>
       <use xlink:href="#m99911d8892" x="599.517777" y="298.64" style="stroke: #000000; stroke-width: 0.6"/>
      </g>
     </g>
    </g>
    <g id="xtick_44">
     <g id="line2d_88">
      <g>
       <use xlink:href="#m99911d8892" x="604.912848" y="298.64" style="stroke: #000000; stroke-width: 0.6"/>
      </g>
     </g>
    </g>
    <g id="xtick_45">
     <g id="line2d_89">
      <g>
       <use xlink:href="#m99911d8892" x="641.48862" y="298.64" style="stroke: #000000; stroke-width: 0.6"/>
      </g>
     </g>
    </g>
    <g id="xtick_46">
     <g id="line2d_90">
      <g>
       <use xlink:href="#m99911d8892" x="660.061014" y="298.64" style="stroke: #000000; stroke-width: 0.6"/>
      </g>
     </g>
    </g>
    <g id="xtick_47">
     <g id="line2d_91">
      <g>
       <use xlink:href="#m99911d8892" x="673.238337" y="298.64" style="stroke: #000000; stroke-width: 0.6"/>
      </g>
     </g>
    </g>
    <g id="xtick_48">
     <g id="line2d_92">
      <g>
       <use xlink:href="#m99911d8892" x="683.459463" y="298.64" style="stroke: #000000; stroke-width: 0.6"/>
      </g>
     </g>
    </g>
    <g id="xtick_49">
     <g id="line2d_93">
      <g>
       <use xlink:href="#m99911d8892" x="691.810731" y="298.64" style="stroke: #000000; stroke-width: 0.6"/>
      </g>
     </g>
    </g>
    <g id="xtick_50">
     <g id="line2d_94">
      <g>
       <use xlink:href="#m99911d8892" x="698.871628" y="298.64" style="stroke: #000000; stroke-width: 0.6"/>
      </g>
     </g>
    </g>
    <g id="xtick_51">
     <g id="line2d_95">
      <g>
       <use xlink:href="#m99911d8892" x="704.988055" y="298.64" style="stroke: #000000; stroke-width: 0.6"/>
      </g>
     </g>
    </g>
    <g id="xtick_52">
     <g id="line2d_96">
      <g>
       <use xlink:href="#m99911d8892" x="710.383125" y="298.64" style="stroke: #000000; stroke-width: 0.6"/>
      </g>
     </g>
    </g>
    <g id="xtick_53">
     <g id="line2d_97">
      <g>
       <use xlink:href="#m99911d8892" x="746.958898" y="298.64" style="stroke: #000000; stroke-width: 0.6"/>
      </g>
     </g>
    </g>
    <g id="xtick_54">
     <g id="line2d_98">
      <g>
       <use xlink:href="#m99911d8892" x="765.531292" y="298.64" style="stroke: #000000; stroke-width: 0.6"/>
      </g>
     </g>
    </g>
    <g id="xtick_55">
     <g id="line2d_99">
      <g>
       <use xlink:href="#m99911d8892" x="778.708615" y="298.64" style="stroke: #000000; stroke-width: 0.6"/>
      </g>
     </g>
    </g>
    <g id="xtick_56">
     <g id="line2d_100">
      <g>
       <use xlink:href="#m99911d8892" x="788.929741" y="298.64" style="stroke: #000000; stroke-width: 0.6"/>
      </g>
     </g>
    </g>
    <g id="xtick_57">
     <g id="line2d_101">
      <g>
       <use xlink:href="#m99911d8892" x="797.281009" y="298.64" style="stroke: #000000; stroke-width: 0.6"/>
      </g>
     </g>
    </g>
    <g id="xtick_58">
     <g id="line2d_102">
      <g>
       <use xlink:href="#m99911d8892" x="804.341906" y="298.64" style="stroke: #000000; stroke-width: 0.6"/>
      </g>
     </g>
    </g>
    <g id="xtick_59">
     <g id="line2d_103">
      <g>
       <use xlink:href="#m99911d8892" x="810.458332" y="298.64" style="stroke: #000000; stroke-width: 0.6"/>
      </g>
     </g>
    </g>
    <g id="xtick_60">
     <g id="line2d_104">
      <g>
       <use xlink:href="#m99911d8892" x="815.853403" y="298.64" style="stroke: #000000; stroke-width: 0.6"/>
      </g>
     </g>
    </g>
    <g id="text_19">
     <!-- Konzentration c (mol/l) -->
     <g transform="translate(599.768885 327.676406) scale(0.11 -0.11)">
      <use xlink:href="#DejaVuSans-4b"/>
      <use xlink:href="#DejaVuSans-6f" transform="translate(60.576172 0)"/>
      <use xlink:href="#DejaVuSans-6e" transform="translate(121.757812 0)"/>
      <use xlink:href="#DejaVuSans-7a" transform="translate(185.136719 0)"/>
      <use xlink:href="#DejaVuSans-65" transform="translate(237.626953 0)"/>
      <use xlink:href="#DejaVuSans-6e" transform="translate(299.150391 0)"/>
      <use xlink:href="#DejaVuSans-74" transform="translate(362.529297 0)"/>
      <use xlink:href="#DejaVuSans-72" transform="translate(401.738281 0)"/>
      <use xlink:href="#DejaVuSans-61" transform="translate(442.851562 0)"/>
      <use xlink:href="#DejaVuSans-74" transform="translate(504.130859 0)"/>
      <use xlink:href="#DejaVuSans-69" transform="translate(543.339844 0)"/>
      <use xlink:href="#DejaVuSans-6f" transform="translate(571.123047 0)"/>
      <use xlink:href="#DejaVuSans-6e" transform="translate(632.304688 0)"/>
      <use xlink:href="#DejaVuSans-20" transform="translate(695.683594 0)"/>
      <use xlink:href="#DejaVuSans-63" transform="translate(727.470703 0)"/>
      <use xlink:href="#DejaVuSans-20" transform="translate(782.451172 0)"/>
      <use xlink:href="#DejaVuSans-28" transform="translate(814.238281 0)"/>
      <use xlink:href="#DejaVuSans-6d" transform="translate(853.251953 0)"/>
      <use xlink:href="#DejaVuSans-6f" transform="translate(950.664062 0)"/>
      <use xlink:href="#DejaVuSans-6c" transform="translate(1011.845703 0)"/>
      <use xlink:href="#DejaVuSans-2f" transform="translate(1039.628906 0)"/>
      <use xlink:href="#DejaVuSans-6c" transform="translate(1073.320312 0)"/>
      <use xlink:href="#DejaVuSans-29" transform="translate(1101.103516 0)"/>
     </g>
    </g>
   </g>
   <g id="matplotlib.axis_4">
    <g id="ytick_29">
     <g id="line2d_105">
      <path d="M 488.448083 221.328455 
L 836.5 221.328455 
" clip-path="url(#p2595db5ed1)" style="fill: none; stroke: #b0b0b0; stroke-opacity: 0.3; stroke-width: 0.8; stroke-linecap: square"/>
     </g>
     <g id="line2d_106">
      <g>
       <use xlink:href="#mbd47937241" x="488.448083" y="221.328455" style="stroke: #000000; stroke-width: 0.8"/>
      </g>
     </g>
     <g id="text_20">
      <!-- $\mathdefault{10^{0}}$ -->
      <g transform="translate(463.848083 225.127674) scale(0.1 -0.1)">
       <use xlink:href="#DejaVuSans-31" transform="translate(0 0.765625)"/>
       <use xlink:href="#DejaVuSans-30" transform="translate(63.623047 0.765625)"/>
       <use xlink:href="#DejaVuSans-30" transform="translate(128.203125 39.046875) scale(0.7)"/>
      </g>
     </g>
    </g>
    <g id="ytick_30">
     <g id="line2d_107">
      <path d="M 488.448083 90.758758 
L 836.5 90.758758 
" clip-path="url(#p2595db5ed1)" style="fill: none; stroke: #b0b0b0; stroke-opacity: 0.3; stroke-width: 0.8; stroke-linecap: square"/>
     </g>
     <g id="line2d_108">
      <g>
       <use xlink:href="#mbd47937241" x="488.448083" y="90.758758" style="stroke: #000000; stroke-width: 0.8"/>
      </g>
     </g>
     <g id="text_21">
      <!-- $\mathdefault{10^{1}}$ -->
      <g transform="translate(463.848083 94.557977) scale(0.1 -0.1)">
       <use xlink:href="#DejaVuSans-31" transform="translate(0 0.684375)"/>
       <use xlink:href="#DejaVuSans-30" transform="translate(63.623047 0.684375)"/>
       <use xlink:href="#DejaVuSans-31" transform="translate(128.203125 38.965625) scale(0.7)"/>
      </g>
     </g>
    </g>
    <g id="ytick_31">
     <g id="line2d_109">
      <g>
       <use xlink:href="#mc05240d2ee" x="488.448083" y="289.600575" style="stroke: #000000; stroke-width: 0.6"/>
      </g>
     </g>
    </g>
    <g id="ytick_32">
     <g id="line2d_110">
      <g>
       <use xlink:href="#mc05240d2ee" x="488.448083" y="273.287362" style="stroke: #000000; stroke-width: 0.6"/>
      </g>
     </g>
    </g>
    <g id="ytick_33">
     <g id="line2d_111">
      <g>
       <use xlink:href="#mc05240d2ee" x="488.448083" y="260.633851" style="stroke: #000000; stroke-width: 0.6"/>
      </g>
     </g>
    </g>
    <g id="ytick_34">
     <g id="line2d_112">
      <g>
       <use xlink:href="#mc05240d2ee" x="488.448083" y="250.295179" style="stroke: #000000; stroke-width: 0.6"/>
      </g>
     </g>
    </g>
    <g id="ytick_35">
     <g id="line2d_113">
      <g>
       <use xlink:href="#mc05240d2ee" x="488.448083" y="241.553957" style="stroke: #000000; stroke-width: 0.6"/>
      </g>
     </g>
    </g>
    <g id="ytick_36">
     <g id="line2d_114">
      <g>
       <use xlink:href="#mc05240d2ee" x="488.448083" y="233.981966" style="stroke: #000000; stroke-width: 0.6"/>
      </g>
     </g>
    </g>
    <g id="ytick_37">
     <g id="line2d_115">
      <g>
       <use xlink:href="#mc05240d2ee" x="488.448083" y="227.302997" style="stroke: #000000; stroke-width: 0.6"/>
      </g>
     </g>
    </g>
    <g id="ytick_38">
     <g id="line2d_116">
      <g>
       <use xlink:href="#mc05240d2ee" x="488.448083" y="182.02306" style="stroke: #000000; stroke-width: 0.6"/>
      </g>
     </g>
    </g>
    <g id="ytick_39">
     <g id="line2d_117">
      <g>
       <use xlink:href="#mc05240d2ee" x="488.448083" y="159.030878" style="stroke: #000000; stroke-width: 0.6"/>
      </g>
     </g>
    </g>
    <g id="ytick_40">
     <g id="line2d_118">
      <g>
       <use xlink:href="#mc05240d2ee" x="488.448083" y="142.717665" style="stroke: #000000; stroke-width: 0.6"/>
      </g>
     </g>
    </g>
    <g id="ytick_41">
     <g id="line2d_119">
      <g>
       <use xlink:href="#mc05240d2ee" x="488.448083" y="130.064154" style="stroke: #000000; stroke-width: 0.6"/>
      </g>
     </g>
    </g>
    <g id="ytick_42">
     <g id="line2d_120">
      <g>
       <use xlink:href="#mc05240d2ee" x="488.448083" y="119.725482" style="stroke: #000000; stroke-width: 0.6"/>
      </g>
     </g>
    </g>
    <g id="ytick_43">
     <g id="line2d_121">
      <g>
       <use xlink:href="#mc05240d2ee" x="488.448083" y="110.98426" style="stroke: #000000; stroke-width: 0.6"/>
      </g>
     </g>
    </g>
    <g id="ytick_44">
     <g id="line2d_122">
      <g>
       <use xlink:href="#mc05240d2ee" x="488.448083" y="103.412269" style="stroke: #000000; stroke-width: 0.6"/>
      </g>
     </g>
    </g>
    <g id="ytick_45">
     <g id="line2d_123">
      <g>
       <use xlink:href="#mc05240d2ee" x="488.448083" y="96.7333" style="stroke: #000000; stroke-width: 0.6"/>
      </g>
     </g>
    </g>
    <g id="text_22">
     <!-- Debye-Länge λ_D (nm) -->
     <g transform="translate(457.25449 254.322109) rotate(-90) scale(0.11 -0.11)">
      <defs>
       <path id="DejaVuSans-44" d="M 1259 4147 
L 1259 519 
L 2022 519 
Q 2988 519 3436 956 
Q 3884 1394 3884 2338 
Q 3884 3275 3436 3711 
Q 2988 4147 2022 4147 
L 1259 4147 
z
M 628 4666 
L 1925 4666 
Q 3281 4666 3915 4102 
Q 4550 3538 4550 2338 
Q 4550 1131 3912 565 
Q 3275 0 1925 0 
L 628 0 
L 628 4666 
z
" transform="scale(0.015625)"/>
       <path id="DejaVuSans-62" d="M 3116 1747 
Q 3116 2381 2855 2742 
Q 2594 3103 2138 3103 
Q 1681 3103 1420 2742 
Q 1159 2381 1159 1747 
Q 1159 1113 1420 752 
Q 1681 391 2138 391 
Q 2594 391 2855 752 
Q 3116 1113 3116 1747 
z
M 1159 2969 
Q 1341 3281 1617 3432 
Q 1894 3584 2278 3584 
Q 2916 3584 3314 3078 
Q 3713 2572 3713 1747 
Q 3713 922 3314 415 
Q 2916 -91 2278 -91 
Q 1894 -91 1617 61 
Q 1341 213 1159 525 
L 1159 0 
L 581 0 
L 581 4863 
L 1159 4863 
L 1159 2969 
z
" transform="scale(0.015625)"/>
       <path id="DejaVuSans-79" d="M 2059 -325 
Q 1816 -950 1584 -1140 
Q 1353 -1331 966 -1331 
L 506 -1331 
L 506 -850 
L 844 -850 
Q 1081 -850 1212 -737 
Q 1344 -625 1503 -206 
L 1606 56 
L 191 3500 
L 800 3500 
L 1894 763 
L 2988 3500 
L 3597 3500 
L 2059 -325 
z
" transform="scale(0.015625)"/>
       <path id="DejaVuSans-3bb" d="M 1981 4316 
L 3597 0 
L 2988 0 
L 2006 2588 
L 800 0 
L 191 0 
L 1725 3356 
L 1494 3975 
Q 1347 4369 1013 4369 
L 713 4369 
L 713 4863 
L 1078 4856 
Q 1784 4847 1981 4316 
z
" transform="scale(0.015625)"/>
      </defs>
      <use xlink:href="#DejaVuSans-44"/>
      <use xlink:href="#DejaVuSans-65" transform="translate(77.001953 0)"/>
      <use xlink:href="#DejaVuSans-62" transform="translate(138.525391 0)"/>
      <use xlink:href="#DejaVuSans-79" transform="translate(202.001953 0)"/>
      <use xlink:href="#DejaVuSans-65" transform="translate(261.181641 0)"/>
      <use xlink:href="#DejaVuSans-2d" transform="translate(322.705078 0)"/>
      <use xlink:href="#DejaVuSans-4c" transform="translate(358.789062 0)"/>
      <use xlink:href="#DejaVuSans-e4" transform="translate(414.501953 0)"/>
      <use xlink:href="#DejaVuSans-6e" transform="translate(475.78125 0)"/>
      <use xlink:href="#DejaVuSans-67" transform="translate(539.160156 0)"/>
      <use xlink:href="#DejaVuSans-65" transform="translate(602.636719 0)"/>
      <use xlink:href="#DejaVuSans-20" transform="translate(664.160156 0)"/>
      <use xlink:href="#DejaVuSans-3bb" transform="translate(695.947266 0)"/>
      <use xlink:href="#DejaVuSans-5f" transform="translate(755.126953 0)"/>
      <use xlink:href="#DejaVuSans-44" transform="translate(805.126953 0)"/>
      <use xlink:href="#DejaVuSans-20" transform="translate(882.128906 0)"/>
      <use xlink:href="#DejaVuSans-28" transform="translate(913.916016 0)"/>
      <use xlink:href="#DejaVuSans-6e" transform="translate(952.929688 0)"/>
      <use xlink:href="#DejaVuSans-6d" transform="translate(1016.308594 0)"/>
      <use xlink:href="#DejaVuSans-29" transform="translate(1113.720703 0)"/>
     </g>
    </g>
   </g>
   <g id="line2d_124">
    <path d="M 504.268625 92.992727 
L 508.273826 95.471899 
L 512.279026 97.95107 
L 516.284226 100.430242 
L 520.289427 102.909413 
L 524.294627 105.388585 
L 528.299828 107.867756 
L 532.305028 110.346928 
L 536.310229 112.826099 
L 540.315429 115.30527 
L 544.320629 117.784442 
L 548.32583 120.263613 
L 552.33103 122.742785 
L 556.336231 125.221956 
L 560.341431 127.701128 
L 564.346631 130.180299 
L 568.351832 132.659471 
L 572.357032 135.138642 
L 576.362233 137.617814 
L 580.367433 140.096985 
L 584.372634 142.576157 
L 588.377834 145.055328 
L 592.383034 147.534499 
L 596.388235 150.013671 
L 600.393435 152.492842 
L 604.398636 154.972014 
L 608.403836 157.451185 
L 612.409036 159.930357 
L 616.414237 162.409528 
L 620.419437 164.8887 
L 624.424638 167.367871 
L 628.429838 169.847043 
L 632.435039 172.326214 
L 636.440239 174.805386 
L 640.445439 177.284557 
L 644.45064 179.763728 
L 648.45584 182.2429 
L 652.461041 184.722071 
L 656.466241 187.201243 
L 660.471442 189.680414 
L 664.476642 192.159586 
L 668.481842 194.638757 
L 672.487043 197.117929 
L 676.492243 199.5971 
L 680.497444 202.076272 
L 684.502644 204.555443 
L 688.507844 207.034614 
L 692.513045 209.513786 
L 696.518245 211.992957 
L 700.523446 214.472129 
L 704.528646 216.9513 
L 708.533847 219.430472 
L 712.539047 221.909643 
L 716.544247 224.388815 
L 720.549448 226.867986 
L 724.554648 229.347158 
L 728.559849 231.826329 
L 732.565049 234.305501 
L 736.57025 236.784672 
L 740.57545 239.263843 
L 744.58065 241.743015 
L 748.585851 244.222186 
L 752.591051 246.701358 
L 756.596252 249.180529 
L 760.601452 251.659701 
L 764.606652 254.138872 
L 768.611853 256.618044 
L 772.617053 259.097215 
L 776.622254 261.576387 
L 780.627454 264.055558 
L 784.632655 266.53473 
L 788.637855 269.013901 
L 792.643055 271.493072 
L 796.648256 273.972244 
L 800.653456 276.451415 
L 804.658657 278.930587 
L 808.663857 281.409758 
L 812.669058 283.88893 
L 816.674258 286.368101 
L 820.679458 288.847273 
" clip-path="url(#p2595db5ed1)" style="fill: none; stroke: #2a9d8f; stroke-width: 2; stroke-linecap: square"/>
   </g>
   <g id="line2d_125">
    <path d="M 715.209181 298.64 
L 715.209181 83.2 
" clip-path="url(#p2595db5ed1)" style="fill: none; stroke-dasharray: 7.4,3.2; stroke-dashoffset: 0; stroke: #808080; stroke-opacity: 0.7; stroke-width: 2"/>
   </g>
   <g id="line2d_126">
    <path d="M 504.268625 92.992727 
L 820.679458 288.847273 
" clip-path="url(#p2595db5ed1)" style="fill: none; stroke-dasharray: 3.7,1.6; stroke-dashoffset: 0; stroke: #000000; stroke-opacity: 0.4"/>
   </g>
   <g id="patch_10">
    <path d="M 488.448083 298.64 
L 488.448083 83.2 
" style="fill: none; stroke: #000000; stroke-width: 0.8; stroke-linejoin: miter; stroke-linecap: square"/>
   </g>
   <g id="patch_11">
    <path d="M 836.5 298.64 
L 836.5 83.2 
" style="fill: none; stroke: #000000; stroke-width: 0.8; stroke-linejoin: miter; stroke-linecap: square"/>
   </g>
   <g id="patch_12">
    <path d="M 488.448083 298.64 
L 836.5 298.64 
" style="fill: none; stroke: #000000; stroke-width: 0.8; stroke-linejoin: miter; stroke-linecap: square"/>
   </g>
   <g id="patch_13">
    <path d="M 488.448083 83.2 
L 836.5 83.2 
" style="fill: none; stroke: #000000; stroke-width: 0.8; stroke-linejoin: miter; stroke-linecap: square"/>
   </g>
   <g id="text_23">
    <!-- λ_D(c): Debye-Abschirmlänge  ∝ 1/√c -->
    <g transform="translate(550.371542 77.2) scale(0.12 -0.12)">
     <defs>
      <path id="DejaVuSans-41" d="M 2188 4044 
L 1331 1722 
L 3047 1722 
L 2188 4044 
z
M 1831 4666 
L 2547 4666 
L 4325 0 
L 3669 0 
L 3244 1197 
L 1141 1197 
L 716 0 
L 50 0 
L 1831 4666 
z
" transform="scale(0.015625)"/>
      <path id="DejaVuSans-221a" d="M 3488 5191 
L 4078 5191 
L 4078 4891 
L 3719 4891 
L 1863 -128 
L 1656 -128 
L 659 2631 
L 269 2491 
L 191 2741 
L 1075 3047 
L 1875 831 
L 3488 5191 
z
" transform="scale(0.015625)"/>
     </defs>
     <use xlink:href="#DejaVuSans-3bb"/>
     <use xlink:href="#DejaVuSans-5f" transform="translate(59.179688 0)"/>
     <use xlink:href="#DejaVuSans-44" transform="translate(109.179688 0)"/>
     <use xlink:href="#DejaVuSans-28" transform="translate(186.181641 0)"/>
     <use xlink:href="#DejaVuSans-63" transform="translate(225.195312 0)"/>
     <use xlink:href="#DejaVuSans-29" transform="translate(280.175781 0)"/>
     <use xlink:href="#DejaVuSans-3a" transform="translate(319.189453 0)"/>
     <use xlink:href="#DejaVuSans-20" transform="translate(352.880859 0)"/>
     <use xlink:href="#DejaVuSans-44" transform="translate(384.667969 0)"/>
     <use xlink:href="#DejaVuSans-65" transform="translate(461.669922 0)"/>
     <use xlink:href="#DejaVuSans-62" transform="translate(523.193359 0)"/>
     <use xlink:href="#DejaVuSans-79" transform="translate(586.669922 0)"/>
     <use xlink:href="#DejaVuSans-65" transform="translate(645.849609 0)"/>
     <use xlink:href="#DejaVuSans-2d" transform="translate(707.373047 0)"/>
     <use xlink:href="#DejaVuSans-41" transform="translate(741.207031 0)"/>
     <use xlink:href="#DejaVuSans-62" transform="translate(809.615234 0)"/>
     <use xlink:href="#DejaVuSans-73" transform="translate(873.091797 0)"/>
     <use xlink:href="#DejaVuSans-63" transform="translate(925.191406 0)"/>
     <use xlink:href="#DejaVuSans-68" transform="translate(980.171875 0)"/>
     <use xlink:href="#DejaVuSans-69" transform="translate(1043.550781 0)"/>
     <use xlink:href="#DejaVuSans-72" transform="translate(1071.333984 0)"/>
     <use xlink:href="#DejaVuSans-6d" transform="translate(1110.697266 0)"/>
     <use xlink:href="#DejaVuSans-6c" transform="translate(1208.109375 0)"/>
     <use xlink:href="#DejaVuSans-e4" transform="translate(1235.892578 0)"/>
     <use xlink:href="#DejaVuSans-6e" transform="translate(1297.171875 0)"/>
     <use xlink:href="#DejaVuSans-67" transform="translate(1360.550781 0)"/>
     <use xlink:href="#DejaVuSans-65" transform="translate(1424.027344 0)"/>
     <use xlink:href="#DejaVuSans-20" transform="translate(1485.550781 0)"/>
     <use xlink:href="#DejaVuSans-20" transform="translate(1517.337891 0)"/>
     <use xlink:href="#DejaVuSans-221d" transform="translate(1549.125 0)"/>
     <use xlink:href="#DejaVuSans-20" transform="translate(1620.560547 0)"/>
     <use xlink:href="#DejaVuSans-31" transform="translate(1652.347656 0)"/>
     <use xlink:href="#DejaVuSans-2f" transform="translate(1715.970703 0)"/>
     <use xlink:href="#DejaVuSans-221a" transform="translate(1749.662109 0)"/>
     <use xlink:href="#DejaVuSans-63" transform="translate(1813.382812 0)"/>
    </g>
   </g>
   <g id="PathCollection_3">
    <g clip-path="url(#p2595db5ed1)">
     <use xlink:href="#medb1ab6f44" x="715.209181" y="223.562424" style="fill: #457b9d; stroke: #457b9d"/>
    </g>
   </g>
   <g id="legend_2">
    <g id="patch_14">
     <path d="M 739.731719 117.32125 
L 830.2 117.32125 
Q 832 117.32125 832 115.52125 
L 832 89.5 
Q 832 87.7 830.2 87.7 
L 739.731719 87.7 
Q 737.931719 87.7 737.931719 89.5 
L 737.931719 115.52125 
Q 737.931719 117.32125 739.731719 117.32125 
z
" style="fill: #ffffff; opacity: 0.8; stroke: #cccccc; stroke-linejoin: miter"/>
    </g>
    <g id="line2d_127">
     <path d="M 741.531719 94.988594 
L 750.531719 94.988594 
L 759.531719 94.988594 
" style="fill: none; stroke: #2a9d8f; stroke-width: 2; stroke-linecap: square"/>
    </g>
    <g id="text_24">
     <!-- λ_D(c) -->
     <g transform="translate(766.731719 98.138594) scale(0.09 -0.09)">
      <use xlink:href="#DejaVuSans-3bb"/>
      <use xlink:href="#DejaVuSans-5f" transform="translate(59.179688 0)"/>
      <use xlink:href="#DejaVuSans-44" transform="translate(109.179688 0)"/>
      <use xlink:href="#DejaVuSans-28" transform="translate(186.181641 0)"/>
      <use xlink:href="#DejaVuSans-63" transform="translate(225.195312 0)"/>
      <use xlink:href="#DejaVuSans-29" transform="translate(280.175781 0)"/>
     </g>
    </g>
    <g id="PathCollection_4">
     <g>
      <use xlink:href="#medb1ab6f44" x="750.531719" y="109.236719" style="fill: #457b9d; stroke: #457b9d"/>
     </g>
    </g>
    <g id="text_25">
     <!-- λ_D=0.96 nm -->
     <g transform="translate(766.731719 111.599219) scale(0.09 -0.09)">
      <defs>
       <path id="DejaVuSans-39" d="M 703 97 
L 703 672 
Q 941 559 1184 500 
Q 1428 441 1663 441 
Q 2288 441 2617 861 
Q 2947 1281 2994 2138 
Q 2813 1869 2534 1725 
Q 2256 1581 1919 1581 
Q 1219 1581 811 2004 
Q 403 2428 403 3163 
Q 403 3881 828 4315 
Q 1253 4750 1959 4750 
Q 2769 4750 3195 4129 
Q 3622 3509 3622 2328 
Q 3622 1225 3098 567 
Q 2575 -91 1691 -91 
Q 1453 -91 1209 -44 
Q 966 3 703 97 
z
M 1959 2075 
Q 2384 2075 2632 2365 
Q 2881 2656 2881 3163 
Q 2881 3666 2632 3958 
Q 2384 4250 1959 4250 
Q 1534 4250 1286 3958 
Q 1038 3666 1038 3163 
Q 1038 2656 1286 2365 
Q 1534 2075 1959 2075 
z
" transform="scale(0.015625)"/>
       <path id="DejaVuSans-36" d="M 2113 2584 
Q 1688 2584 1439 2293 
Q 1191 2003 1191 1497 
Q 1191 994 1439 701 
Q 1688 409 2113 409 
Q 2538 409 2786 701 
Q 3034 994 3034 1497 
Q 3034 2003 2786 2293 
Q 2538 2584 2113 2584 
z
M 3366 4563 
L 3366 3988 
Q 3128 4100 2886 4159 
Q 2644 4219 2406 4219 
Q 1781 4219 1451 3797 
Q 1122 3375 1075 2522 
Q 1259 2794 1537 2939 
Q 1816 3084 2150 3084 
Q 2853 3084 3261 2657 
Q 3669 2231 3669 1497 
Q 3669 778 3244 343 
Q 2819 -91 2113 -91 
Q 1303 -91 875 529 
Q 447 1150 447 2328 
Q 447 3434 972 4092 
Q 1497 4750 2381 4750 
Q 2619 4750 2861 4703 
Q 3103 4656 3366 4563 
z
" transform="scale(0.015625)"/>
      </defs>
      <use xlink:href="#DejaVuSans-3bb"/>
      <use xlink:href="#DejaVuSans-5f" transform="translate(59.179688 0)"/>
      <use xlink:href="#DejaVuSans-44" transform="translate(109.179688 0)"/>
      <use xlink:href="#DejaVuSans-3d" transform="translate(186.181641 0)"/>
      <use xlink:href="#DejaVuSans-30" transform="translate(269.970703 0)"/>
      <use xlink:href="#DejaVuSans-2e" transform="translate(333.59375 0)"/>
      <use xlink:href="#DejaVuSans-39" transform="translate(365.380859 0)"/>
      <use xlink:href="#DejaVuSans-36" transform="translate(429.003906 0)"/>
      <use xlink:href="#DejaVuSans-20" transform="translate(492.626953 0)"/>
      <use xlink:href="#DejaVuSans-6e" transform="translate(524.414062 0)"/>
      <use xlink:href="#DejaVuSans-6d" transform="translate(587.792969 0)"/>
     </g>
    </g>
   </g>
  </g>
  <g id="text_26">
   <!-- Exp 01: Ionische Leitfähigkeit KCl – σ(c) und λ_D(c) -->
   <g transform="translate(245.657187 17.260781) scale(0.13 -0.13)">
    <defs>
     <path id="DejaVuSans-Bold-45" d="M 588 4666 
L 3834 4666 
L 3834 3756 
L 1791 3756 
L 1791 2888 
L 3713 2888 
L 3713 1978 
L 1791 1978 
L 1791 909 
L 3903 909 
L 3903 0 
L 588 0 
L 588 4666 
z
" transform="scale(0.015625)"/>
     <path id="DejaVuSans-Bold-78" d="M 1422 1791 
L 159 3500 
L 1344 3500 
L 2059 2463 
L 2784 3500 
L 3969 3500 
L 2706 1797 
L 4031 0 
L 2847 0 
L 2059 1106 
L 1281 0 
L 97 0 
L 1422 1791 
z
" transform="scale(0.015625)"/>
     <path id="DejaVuSans-Bold-70" d="M 1656 506 
L 1656 -1331 
L 538 -1331 
L 538 3500 
L 1656 3500 
L 1656 2988 
Q 1888 3294 2169 3439 
Q 2450 3584 2816 3584 
Q 3463 3584 3878 3070 
Q 4294 2556 4294 1747 
Q 4294 938 3878 423 
Q 3463 -91 2816 -91 
Q 2450 -91 2169 54 
Q 1888 200 1656 506 
z
M 2400 2772 
Q 2041 2772 1848 2508 
Q 1656 2244 1656 1747 
Q 1656 1250 1848 986 
Q 2041 722 2400 722 
Q 2759 722 2948 984 
Q 3138 1247 3138 1747 
Q 3138 2247 2948 2509 
Q 2759 2772 2400 2772 
z
" transform="scale(0.015625)"/>
     <path id="DejaVuSans-Bold-20" transform="scale(0.015625)"/>
     <path id="DejaVuSans-Bold-30" d="M 2944 2338 
Q 2944 3213 2780 3570 
Q 2616 3928 2228 3928 
Q 1841 3928 1675 3570 
Q 1509 3213 1509 2338 
Q 1509 1453 1675 1090 
Q 1841 728 2228 728 
Q 2613 728 2778 1090 
Q 2944 1453 2944 2338 
z
M 4147 2328 
Q 4147 1169 3647 539 
Q 3147 -91 2228 -91 
Q 1306 -91 806 539 
Q 306 1169 306 2328 
Q 306 3491 806 4120 
Q 1306 4750 2228 4750 
Q 3147 4750 3647 4120 
Q 4147 3491 4147 2328 
z
" transform="scale(0.015625)"/>
     <path id="DejaVuSans-Bold-31" d="M 750 831 
L 1813 831 
L 1813 3847 
L 722 3622 
L 722 4441 
L 1806 4666 
L 2950 4666 
L 2950 831 
L 4013 831 
L 4013 0 
L 750 0 
L 750 831 
z
" transform="scale(0.015625)"/>
     <path id="DejaVuSans-Bold-3a" d="M 716 3500 
L 1844 3500 
L 1844 2291 
L 716 2291 
L 716 3500 
z
M 716 1209 
L 1844 1209 
L 1844 0 
L 716 0 
L 716 1209 
z
" transform="scale(0.015625)"/>
     <path id="DejaVuSans-Bold-49" d="M 588 4666 
L 1791 4666 
L 1791 0 
L 588 0 
L 588 4666 
z
" transform="scale(0.015625)"/>
     <path id="DejaVuSans-Bold-6f" d="M 2203 2784 
Q 1831 2784 1636 2517 
Q 1441 2250 1441 1747 
Q 1441 1244 1636 976 
Q 1831 709 2203 709 
Q 2569 709 2762 976 
Q 2956 1244 2956 1747 
Q 2956 2250 2762 2517 
Q 2569 2784 2203 2784 
z
M 2203 3584 
Q 3106 3584 3614 3096 
Q 4122 2609 4122 1747 
Q 4122 884 3614 396 
Q 3106 -91 2203 -91 
Q 1297 -91 786 396 
Q 275 884 275 1747 
Q 275 2609 786 3096 
Q 1297 3584 2203 3584 
z
" transform="scale(0.015625)"/>
     <path id="DejaVuSans-Bold-6e" d="M 4056 2131 
L 4056 0 
L 2931 0 
L 2931 347 
L 2931 1631 
Q 2931 2084 2911 2256 
Q 2891 2428 2841 2509 
Q 2775 2619 2662 2680 
Q 2550 2741 2406 2741 
Q 2056 2741 1856 2470 
Q 1656 2200 1656 1722 
L 1656 0 
L 538 0 
L 538 3500 
L 1656 3500 
L 1656 2988 
Q 1909 3294 2193 3439 
Q 2478 3584 2822 3584 
Q 3428 3584 3742 3212 
Q 4056 2841 4056 2131 
z
" transform="scale(0.015625)"/>
     <path id="DejaVuSans-Bold-69" d="M 538 3500 
L 1656 3500 
L 1656 0 
L 538 0 
L 538 3500 
z
M 538 4863 
L 1656 4863 
L 1656 3950 
L 538 3950 
L 538 4863 
z
" transform="scale(0.015625)"/>
     <path id="DejaVuSans-Bold-73" d="M 3272 3391 
L 3272 2541 
Q 2913 2691 2578 2766 
Q 2244 2841 1947 2841 
Q 1628 2841 1473 2761 
Q 1319 2681 1319 2516 
Q 1319 2381 1436 2309 
Q 1553 2238 1856 2203 
L 2053 2175 
Q 2913 2066 3209 1816 
Q 3506 1566 3506 1031 
Q 3506 472 3093 190 
Q 2681 -91 1863 -91 
Q 1516 -91 1145 -36 
Q 775 19 384 128 
L 384 978 
Q 719 816 1070 734 
Q 1422 653 1784 653 
Q 2113 653 2278 743 
Q 2444 834 2444 1013 
Q 2444 1163 2330 1236 
Q 2216 1309 1875 1350 
L 1678 1375 
Q 931 1469 631 1722 
Q 331 1975 331 2491 
Q 331 3047 712 3315 
Q 1094 3584 1881 3584 
Q 2191 3584 2531 3537 
Q 2872 3491 3272 3391 
z
" transform="scale(0.015625)"/>
     <path id="DejaVuSans-Bold-63" d="M 3366 3391 
L 3366 2478 
Q 3138 2634 2908 2709 
Q 2678 2784 2431 2784 
Q 1963 2784 1702 2511 
Q 1441 2238 1441 1747 
Q 1441 1256 1702 982 
Q 1963 709 2431 709 
Q 2694 709 2930 787 
Q 3166 866 3366 1019 
L 3366 103 
Q 3103 6 2833 -42 
Q 2563 -91 2291 -91 
Q 1344 -91 809 395 
Q 275 881 275 1747 
Q 275 2613 809 3098 
Q 1344 3584 2291 3584 
Q 2566 3584 2833 3536 
Q 3100 3488 3366 3391 
z
" transform="scale(0.015625)"/>
     <path id="DejaVuSans-Bold-68" d="M 4056 2131 
L 4056 0 
L 2931 0 
L 2931 347 
L 2931 1625 
Q 2931 2084 2911 2256 
Q 2891 2428 2841 2509 
Q 2775 2619 2662 2680 
Q 2550 2741 2406 2741 
Q 2056 2741 1856 2470 
Q 1656 2200 1656 1722 
L 1656 0 
L 538 0 
L 538 4863 
L 1656 4863 
L 1656 2988 
Q 1909 3294 2193 3439 
Q 2478 3584 2822 3584 
Q 3428 3584 3742 3212 
Q 4056 2841 4056 2131 
z
" transform="scale(0.015625)"/>
     <path id="DejaVuSans-Bold-65" d="M 4031 1759 
L 4031 1441 
L 1416 1441 
Q 1456 1047 1700 850 
Q 1944 653 2381 653 
Q 2734 653 3104 758 
Q 3475 863 3866 1075 
L 3866 213 
Q 3469 63 3072 -14 
Q 2675 -91 2278 -91 
Q 1328 -91 801 392 
Q 275 875 275 1747 
Q 275 2603 792 3093 
Q 1309 3584 2216 3584 
Q 3041 3584 3536 3087 
Q 4031 2591 4031 1759 
z
M 2881 2131 
Q 2881 2450 2695 2645 
Q 2509 2841 2209 2841 
Q 1884 2841 1681 2658 
Q 1478 2475 1428 2131 
L 2881 2131 
z
" transform="scale(0.015625)"/>
     <path id="DejaVuSans-Bold-4c" d="M 588 4666 
L 1791 4666 
L 1791 909 
L 3903 909 
L 3903 0 
L 588 0 
L 588 4666 
z
" transform="scale(0.015625)"/>
     <path id="DejaVuSans-Bold-74" d="M 1759 4494 
L 1759 3500 
L 2913 3500 
L 2913 2700 
L 1759 2700 
L 1759 1216 
Q 1759 972 1856 886 
Q 1953 800 2241 800 
L 2816 800 
L 2816 0 
L 1856 0 
Q 1194 0 917 276 
Q 641 553 641 1216 
L 641 2700 
L 84 2700 
L 84 3500 
L 641 3500 
L 641 4494 
L 1759 4494 
z
" transform="scale(0.015625)"/>
     <path id="DejaVuSans-Bold-66" d="M 2841 4863 
L 2841 4128 
L 2222 4128 
Q 1984 4128 1890 4042 
Q 1797 3956 1797 3744 
L 1797 3500 
L 2753 3500 
L 2753 2700 
L 1797 2700 
L 1797 0 
L 678 0 
L 678 2700 
L 122 2700 
L 122 3500 
L 678 3500 
L 678 3744 
Q 678 4316 997 4589 
Q 1316 4863 1984 4863 
L 2841 4863 
z
" transform="scale(0.015625)"/>
     <path id="DejaVuSans-Bold-e4" d="M 2106 1575 
Q 1756 1575 1579 1456 
Q 1403 1338 1403 1106 
Q 1403 894 1545 773 
Q 1688 653 1941 653 
Q 2256 653 2472 879 
Q 2688 1106 2688 1447 
L 2688 1575 
L 2106 1575 
z
M 3816 1997 
L 3816 0 
L 2688 0 
L 2688 519 
Q 2463 200 2181 54 
Q 1900 -91 1497 -91 
Q 953 -91 614 226 
Q 275 544 275 1050 
Q 275 1666 698 1953 
Q 1122 2241 2028 2241 
L 2688 2241 
L 2688 2328 
Q 2688 2594 2478 2717 
Q 2269 2841 1825 2841 
Q 1466 2841 1156 2769 
Q 847 2697 581 2553 
L 581 3406 
Q 941 3494 1303 3539 
Q 1666 3584 2028 3584 
Q 2975 3584 3395 3211 
Q 3816 2838 3816 1997 
z
M 1200 4953 
L 1934 4953 
L 1934 4184 
L 1200 4184 
L 1200 4953 
z
M 2434 4953 
L 3168 4953 
L 3168 4184 
L 2434 4184 
L 2434 4953 
z
" transform="scale(0.015625)"/>
     <path id="DejaVuSans-Bold-67" d="M 2919 594 
Q 2688 288 2409 144 
Q 2131 0 1766 0 
Q 1125 0 706 504 
Q 288 1009 288 1791 
Q 288 2575 706 3076 
Q 1125 3578 1766 3578 
Q 2131 3578 2409 3434 
Q 2688 3291 2919 2981 
L 2919 3500 
L 4044 3500 
L 4044 353 
Q 4044 -491 3511 -936 
Q 2978 -1381 1966 -1381 
Q 1638 -1381 1331 -1331 
Q 1025 -1281 716 -1178 
L 716 -306 
Q 1009 -475 1290 -558 
Q 1572 -641 1856 -641 
Q 2406 -641 2662 -400 
Q 2919 -159 2919 353 
L 2919 594 
z
M 2181 2772 
Q 1834 2772 1640 2515 
Q 1447 2259 1447 1791 
Q 1447 1309 1634 1061 
Q 1822 813 2181 813 
Q 2531 813 2725 1069 
Q 2919 1325 2919 1791 
Q 2919 2259 2725 2515 
Q 2531 2772 2181 2772 
z
" transform="scale(0.015625)"/>
     <path id="DejaVuSans-Bold-6b" d="M 538 4863 
L 1656 4863 
L 1656 2216 
L 2944 3500 
L 4244 3500 
L 2534 1894 
L 4378 0 
L 3022 0 
L 1656 1459 
L 1656 0 
L 538 0 
L 538 4863 
z
" transform="scale(0.015625)"/>
     <path id="DejaVuSans-Bold-4b" d="M 588 4666 
L 1791 4666 
L 1791 2963 
L 3525 4666 
L 4922 4666 
L 2675 2456 
L 5153 0 
L 3647 0 
L 1791 1838 
L 1791 0 
L 588 0 
L 588 4666 
z
" transform="scale(0.015625)"/>
     <path id="DejaVuSans-Bold-43" d="M 4288 256 
Q 3956 84 3597 -3 
Q 3238 -91 2847 -91 
Q 1681 -91 1000 561 
Q 319 1213 319 2328 
Q 319 3447 1000 4098 
Q 1681 4750 2847 4750 
Q 3238 4750 3597 4662 
Q 3956 4575 4288 4403 
L 4288 3438 
Q 3953 3666 3628 3772 
Q 3303 3878 2944 3878 
Q 2300 3878 1931 3465 
Q 1563 3053 1563 2328 
Q 1563 1606 1931 1193 
Q 2300 781 2944 781 
Q 3303 781 3628 887 
Q 3953 994 4288 1222 
L 4288 256 
z
" transform="scale(0.015625)"/>
     <path id="DejaVuSans-Bold-6c" d="M 538 4863 
L 1656 4863 
L 1656 0 
L 538 0 
L 538 4863 
z
" transform="scale(0.015625)"/>
     <path id="DejaVuSans-Bold-2013" d="M 344 2156 
L 2856 2156 
L 2856 1350 
L 344 1350 
L 344 2156 
z
" transform="scale(0.015625)"/>
     <path id="DejaVuSans-Bold-3c3" d="M 2200 2784 
Q 1831 2784 1636 2517 
Q 1441 2250 1441 1747 
Q 1441 1244 1636 976 
Q 1831 709 2200 709 
Q 2569 709 2762 976 
Q 2956 1244 2956 1747 
Q 2956 2250 2762 2517 
Q 2569 2784 2200 2784 
z
M 4650 2700 
L 3916 2700 
Q 4122 2291 4122 1747 
Q 4122 884 3614 396 
Q 3106 -91 2203 -91 
Q 1297 -91 786 396 
Q 275 884 275 1747 
Q 275 2609 788 3097 
Q 1209 3500 2203 3500 
L 4650 3500 
L 4650 2700 
z
" transform="scale(0.015625)"/>
     <path id="DejaVuSans-Bold-28" d="M 2413 -844 
L 1484 -844 
Q 1006 -72 778 623 
Q 550 1319 550 2003 
Q 550 2688 779 3389 
Q 1009 4091 1484 4856 
L 2413 4856 
Q 2013 4116 1813 3408 
Q 1613 2700 1613 2009 
Q 1613 1319 1811 609 
Q 2009 -100 2413 -844 
z
" transform="scale(0.015625)"/>
     <path id="DejaVuSans-Bold-29" d="M 513 -844 
Q 913 -100 1113 609 
Q 1313 1319 1313 2009 
Q 1313 2700 1113 3408 
Q 913 4116 513 4856 
L 1441 4856 
Q 1916 4091 2145 3389 
Q 2375 2688 2375 2003 
Q 2375 1319 2147 623 
Q 1919 -72 1441 -844 
L 513 -844 
z
" transform="scale(0.015625)"/>
     <path id="DejaVuSans-Bold-75" d="M 500 1363 
L 500 3500 
L 1625 3500 
L 1625 3150 
Q 1625 2866 1622 2436 
Q 1619 2006 1619 1863 
Q 1619 1441 1641 1255 
Q 1663 1069 1716 984 
Q 1784 875 1895 815 
Q 2006 756 2150 756 
Q 2500 756 2700 1025 
Q 2900 1294 2900 1772 
L 2900 3500 
L 4019 3500 
L 4019 0 
L 2900 0 
L 2900 506 
Q 2647 200 2364 54 
Q 2081 -91 1741 -91 
Q 1134 -91 817 281 
Q 500 653 500 1363 
z
" transform="scale(0.015625)"/>
     <path id="DejaVuSans-Bold-64" d="M 2919 2988 
L 2919 4863 
L 4044 4863 
L 4044 0 
L 2919 0 
L 2919 506 
Q 2688 197 2409 53 
Q 2131 -91 1766 -91 
Q 1119 -91 703 423 
Q 288 938 288 1747 
Q 288 2556 703 3070 
Q 1119 3584 1766 3584 
Q 2128 3584 2408 3439 
Q 2688 3294 2919 2988 
z
M 2181 722 
Q 2541 722 2730 984 
Q 2919 1247 2919 1747 
Q 2919 2247 2730 2509 
Q 2541 2772 2181 2772 
Q 1825 2772 1636 2509 
Q 1447 2247 1447 1747 
Q 1447 1247 1636 984 
Q 1825 722 2181 722 
z
" transform="scale(0.015625)"/>
     <path id="DejaVuSans-Bold-3bb" d="M 1544 3188 
L 1350 3713 
Q 1263 3953 1145 4040 
Q 1028 4128 734 4128 
L 384 4128 
L 384 4863 
L 1031 4863 
Q 1600 4863 1908 4622 
Q 2216 4381 2428 3813 
L 3859 0 
L 2741 0 
L 2044 1838 
L 1309 0 
L 191 0 
L 1544 3188 
z
" transform="scale(0.015625)"/>
     <path id="DejaVuSans-Bold-5f" d="M 3200 -916 
L 3200 -1509 
L 0 -1509 
L 0 -916 
L 3200 -916 
z
" transform="scale(0.015625)"/>
     <path id="DejaVuSans-Bold-44" d="M 1791 3756 
L 1791 909 
L 2222 909 
Q 2959 909 3348 1275 
Q 3738 1641 3738 2338 
Q 3738 3031 3350 3393 
Q 2963 3756 2222 3756 
L 1791 3756 
z
M 588 4666 
L 1856 4666 
Q 2919 4666 3439 4514 
Q 3959 4363 4331 4000 
Q 4659 3684 4818 3271 
Q 4978 2859 4978 2338 
Q 4978 1809 4818 1395 
Q 4659 981 4331 666 
Q 3956 303 3431 151 
Q 2906 0 1856 0 
L 588 0 
L 588 4666 
z
" transform="scale(0.015625)"/>
    </defs>
    <use xlink:href="#DejaVuSans-Bold-45"/>
    <use xlink:href="#DejaVuSans-Bold-78" transform="translate(68.310547 0)"/>
    <use xlink:href="#DejaVuSans-Bold-70" transform="translate(132.8125 0)"/>
    <use xlink:href="#DejaVuSans-Bold-20" transform="translate(204.394531 0)"/>
    <use xlink:href="#DejaVuSans-Bold-30" transform="translate(239.208984 0)"/>
    <use xlink:href="#DejaVuSans-Bold-31" transform="translate(308.789062 0)"/>
    <use xlink:href="#DejaVuSans-Bold-3a" transform="translate(378.369141 0)"/>
    <use xlink:href="#DejaVuSans-Bold-20" transform="translate(418.359375 0)"/>
    <use xlink:href="#DejaVuSans-Bold-49" transform="translate(453.173828 0)"/>
    <use xlink:href="#DejaVuSans-Bold-6f" transform="translate(490.380859 0)"/>
    <use xlink:href="#DejaVuSans-Bold-6e" transform="translate(559.082031 0)"/>
    <use xlink:href="#DejaVuSans-Bold-69" transform="translate(630.273438 0)"/>
    <use xlink:href="#DejaVuSans-Bold-73" transform="translate(664.550781 0)"/>
    <use xlink:href="#DejaVuSans-Bold-63" transform="translate(724.072266 0)"/>
    <use xlink:href="#DejaVuSans-Bold-68" transform="translate(783.349609 0)"/>
    <use xlink:href="#DejaVuSans-Bold-65" transform="translate(854.541016 0)"/>
    <use xlink:href="#DejaVuSans-Bold-20" transform="translate(922.363281 0)"/>
    <use xlink:href="#DejaVuSans-Bold-4c" transform="translate(957.177734 0)"/>
    <use xlink:href="#DejaVuSans-Bold-65" transform="translate(1020.898438 0)"/>
    <use xlink:href="#DejaVuSans-Bold-69" transform="translate(1088.720703 0)"/>
    <use xlink:href="#DejaVuSans-Bold-74" transform="translate(1122.998047 0)"/>
    <use xlink:href="#DejaVuSans-Bold-66" transform="translate(1170.800781 0)"/>
    <use xlink:href="#DejaVuSans-Bold-e4" transform="translate(1214.306641 0)"/>
    <use xlink:href="#DejaVuSans-Bold-68" transform="translate(1281.787109 0)"/>
    <use xlink:href="#DejaVuSans-Bold-69" transform="translate(1352.978516 0)"/>
    <use xlink:href="#DejaVuSans-Bold-67" transform="translate(1387.255859 0)"/>
    <use xlink:href="#DejaVuSans-Bold-6b" transform="translate(1458.837891 0)"/>
    <use xlink:href="#DejaVuSans-Bold-65" transform="translate(1522.716797 0)"/>
    <use xlink:href="#DejaVuSans-Bold-69" transform="translate(1590.539062 0)"/>
    <use xlink:href="#DejaVuSans-Bold-74" transform="translate(1624.816406 0)"/>
    <use xlink:href="#DejaVuSans-Bold-20" transform="translate(1672.619141 0)"/>
    <use xlink:href="#DejaVuSans-Bold-4b" transform="translate(1707.433594 0)"/>
    <use xlink:href="#DejaVuSans-Bold-43" transform="translate(1780.423828 0)"/>
    <use xlink:href="#DejaVuSans-Bold-6c" transform="translate(1853.8125 0)"/>
    <use xlink:href="#DejaVuSans-Bold-20" transform="translate(1888.089844 0)"/>
    <use xlink:href="#DejaVuSans-Bold-2013" transform="translate(1922.904297 0)"/>
    <use xlink:href="#DejaVuSans-Bold-20" transform="translate(1972.904297 0)"/>
    <use xlink:href="#DejaVuSans-Bold-3c3" transform="translate(2007.71875 0)"/>
    <use xlink:href="#DejaVuSans-Bold-28" transform="translate(2085.599609 0)"/>
    <use xlink:href="#DejaVuSans-Bold-63" transform="translate(2131.302734 0)"/>
    <use xlink:href="#DejaVuSans-Bold-29" transform="translate(2190.580078 0)"/>
    <use xlink:href="#DejaVuSans-Bold-20" transform="translate(2236.283203 0)"/>
    <use xlink:href="#DejaVuSans-Bold-75" transform="translate(2271.097656 0)"/>
    <use xlink:href="#DejaVuSans-Bold-6e" transform="translate(2342.289062 0)"/>
    <use xlink:href="#DejaVuSans-Bold-64" transform="translate(2413.480469 0)"/>
    <use xlink:href="#DejaVuSans-Bold-20" transform="translate(2485.0625 0)"/>
    <use xlink:href="#DejaVuSans-Bold-3bb" transform="translate(2519.876953 0)"/>
    <use xlink:href="#DejaVuSans-Bold-5f" transform="translate(2583.158203 0)"/>
    <use xlink:href="#DejaVuSans-Bold-44" transform="translate(2633.158203 0)"/>
    <use xlink:href="#DejaVuSans-Bold-28" transform="translate(2716.166016 0)"/>
    <use xlink:href="#DejaVuSans-Bold-63" transform="translate(2761.869141 0)"/>
    <use xlink:href="#DejaVuSans-Bold-29" transform="translate(2821.146484 0)"/>
   </g>
  </g>
 </g>
 <defs>
  <clipPath id="pda44626f2c">
   <rect x="72.973369" y="83.2" width="348.051917" height="215.44"/>
  </clipPath>
  <clipPath id="p2595db5ed1">
   <rect x="488.448083" y="83.2" width="348.051917" height="215.44"/>
  </clipPath>
 </defs>
</svg>
