<?xml version="1.0" encoding="utf-8" standalone="no"?>
<!DOCTYPE svg PUBLIC "-//W3C//DTD SVG 1.1//EN"
  "http://www.w3.org/Graphics/SVG/1.1/DTD/svg11.dtd">
<svg xmlns:xlink="http://www.w3.org/1999/xlink" width="864pt" height="360pt" viewBox="0 0 864 360" xmlns="http://www.w3.org/2000/svg" version="1.1">
 <metadata>
  <rdf:RDF xmlns:dc="http://purl.org/dc/elements/1.1/" xmlns:cc="http://creativecommons.org/ns#" xmlns:rdf="http://www.w3.org/1999/02/22-rdf-syntax-ns#">
   <cc:Work>
    <dc:type rdf:resource="http://purl.org/dc/dcmitype/StillImage"/>
    <dc:date>2026-02-27T22:39:36.708701</dc:date>
    <dc:format>image/svg+xml</dc:format>
    <dc:creator>
     <cc:Agent>
      <dc:title>Matplotlib v3.10.8, https://matplotlib.org/</dc:title>
     </cc:Agent>
    </dc:creator>
   </cc:Work>
  </rdf:RDF>
 </metadata>
 <defs>
  <style type="text/css">*{stroke-linejoin: round; stroke-linecap: butt}</style>
 </defs>
 <g id="figure_1">
  <g id="patch_1">
   <path d="M 0 360 
L 864 360 
L 864 0 
L 0 0 
z
" style="fill: #ffffff"/>
  </g>
  <g id="axes_1">
   <g id="patch_2">
    <path d="M 67.122798 298.64 
L 418.179687 298.64 
L 418.179687 95.2 
L 67.122798 95.2 
z
" style="fill: #ffffff"/>
   </g>
   <g id="matplotlib.axis_1">
    <g id="xtick_1">
     <g id="line2d_1">
      <path d="M 83.079929 298.64 
L 83.079929 95.2 
" clip-path="url(#p1f6a82a669)" style="fill: none; stroke: #b0b0b0; stroke-opacity: 0.3; stroke-width: 0.8; stroke-linecap: square"/>
     </g>
     <g id="line2d_2">
      <defs>
       <path id="mb37110d54c" d="M 0 0 
L 0 3.5 
" style="stroke: #000000; stroke-width: 0.8"/>
      </defs>
      <g>
       <use xlink:href="#mb37110d54c" x="83.079929" y="298.64" style="stroke: #000000; stroke-width: 0.8"/>
      </g>
     </g>
     <g id="text_1">
      <!-- $\mathdefault{10^{-2}}$ -->
      <g transform="translate(71.329929 313.238437) scale(0.1 -0.1)">
       <defs>
        <path id="DejaVuSans-31" d="M 794 531 
L 1825 531 
L 1825 4091 
L 703 3866 
L 703 4441 
L 1819 4666 
L 2450 4666 
L 2450 531 
L 3481 531 
L 3481 0 
L 794 0 
L 794 531 
z
" transform="scale(0.015625)"/>
        <path id="DejaVuSans-30" d="M 2034 4250 
Q 1547 4250 1301 3770 
Q 1056 3291 1056 2328 
Q 1056 1369 1301 889 
Q 1547 409 2034 409 
Q 2525 409 2770 889 
Q 3016 1369 3016 2328 
Q 3016 3291 2770 3770 
Q 2525 4250 2034 4250 
z
M 2034 4750 
Q 2819 4750 3233 4129 
Q 3647 3509 3647 2328 
Q 3647 1150 3233 529 
Q 2819 -91 2034 -91 
Q 1250 -91 836 529 
Q 422 1150 422 2328 
Q 422 3509 836 4129 
Q 1250 4750 2034 4750 
z
" transform="scale(0.015625)"/>
        <path id="DejaVuSans-2212" d="M 678 2272 
L 4684 2272 
L 4684 1741 
L 678 1741 
L 678 2272 
z
" transform="scale(0.015625)"/>
        <path id="DejaVuSans-32" d="M 1228 531 
L 3431 531 
L 3431 0 
L 469 0 
L 469 531 
Q 828 903 1448 1529 
Q 2069 2156 2228 2338 
Q 2531 2678 2651 2914 
Q 2772 3150 2772 3378 
Q 2772 3750 2511 3984 
Q 2250 4219 1831 4219 
Q 1534 4219 1204 4116 
Q 875 4013 500 3803 
L 500 4441 
Q 881 4594 1212 4672 
Q 1544 4750 1819 4750 
Q 2544 4750 2975 4387 
Q 3406 4025 3406 3419 
Q 3406 3131 3298 2873 
Q 3191 2616 2906 2266 
Q 2828 2175 2409 1742 
Q 1991 1309 1228 531 
z
" transform="scale(0.015625)"/>
       </defs>
       <use xlink:href="#DejaVuSans-31" transform="translate(0 0.765625)"/>
       <use xlink:href="#DejaVuSans-30" transform="translate(63.623047 0.765625)"/>
       <use xlink:href="#DejaVuSans-2212" transform="translate(128.203125 39.046875) scale(0.7)"/>
       <use xlink:href="#DejaVuSans-32" transform="translate(186.855469 39.046875) scale(0.7)"/>
      </g>
     </g>
    </g>
    <g id="xtick_2">
     <g id="line2d_3">
      <path d="M 242.651243 298.64 
L 242.651243 95.2 
" clip-path="url(#p1f6a82a669)" style="fill: none; stroke: #b0b0b0; stroke-opacity: 0.3; stroke-width: 0.8; stroke-linecap: square"/>
     </g>
     <g id="line2d_4">
      <g>
       <use xlink:href="#mb37110d54c" x="242.651243" y="298.64" style="stroke: #000000; stroke-width: 0.8"/>
      </g>
     </g>
     <g id="text_2">
      <!-- $\mathdefault{10^{-1}}$ -->
      <g transform="translate(230.901243 313.238437) scale(0.1 -0.1)">
       <use xlink:href="#DejaVuSans-31" transform="translate(0 0.684375)"/>
       <use xlink:href="#DejaVuSans-30" transform="translate(63.623047 0.684375)"/>
       <use xlink:href="#DejaVuSans-2212" transform="translate(128.203125 38.965625) scale(0.7)"/>
       <use xlink:href="#DejaVuSans-31" transform="translate(186.855469 38.965625) scale(0.7)"/>
      </g>
     </g>
    </g>
    <g id="xtick_3">
     <g id="line2d_5">
      <path d="M 402.222556 298.64 
L 402.222556 95.2 
" clip-path="url(#p1f6a82a669)" style="fill: none; stroke: #b0b0b0; stroke-opacity: 0.3; stroke-width: 0.8; stroke-linecap: square"/>
     </g>
     <g id="line2d_6">
      <g>
       <use xlink:href="#mb37110d54c" x="402.222556" y="298.64" style="stroke: #000000; stroke-width: 0.8"/>
      </g>
     </g>
     <g id="text_3">
      <!-- $\mathdefault{10^{0}}$ -->
      <g transform="translate(393.422556 313.238437) scale(0.1 -0.1)">
       <use xlink:href="#DejaVuSans-31" transform="translate(0 0.765625)"/>
       <use xlink:href="#DejaVuSans-30" transform="translate(63.623047 0.765625)"/>
       <use xlink:href="#DejaVuSans-30" transform="translate(128.203125 39.046875) scale(0.7)"/>
      </g>
     </g>
    </g>
    <g id="xtick_4">
     <g id="line2d_7">
      <defs>
       <path id="m32c64ac033" d="M 0 0 
L 0 2 
" style="stroke: #000000; stroke-width: 0.6"/>
      </defs>
      <g>
       <use xlink:href="#m32c64ac033" x="67.615871" y="298.64" style="stroke: #000000; stroke-width: 0.6"/>
      </g>
     </g>
    </g>
    <g id="xtick_5">
     <g id="line2d_8">
      <g>
       <use xlink:href="#m32c64ac033" x="75.778346" y="298.64" style="stroke: #000000; stroke-width: 0.6"/>
      </g>
     </g>
    </g>
    <g id="xtick_6">
     <g id="line2d_9">
      <g>
       <use xlink:href="#m32c64ac033" x="131.115681" y="298.64" style="stroke: #000000; stroke-width: 0.6"/>
      </g>
     </g>
    </g>
    <g id="xtick_7">
     <g id="line2d_10">
      <g>
       <use xlink:href="#m32c64ac033" x="159.214795" y="298.64" style="stroke: #000000; stroke-width: 0.6"/>
      </g>
     </g>
    </g>
    <g id="xtick_8">
     <g id="line2d_11">
      <g>
       <use xlink:href="#m32c64ac033" x="179.151433" y="298.64" style="stroke: #000000; stroke-width: 0.6"/>
      </g>
     </g>
    </g>
    <g id="xtick_9">
     <g id="line2d_12">
      <g>
       <use xlink:href="#m32c64ac033" x="194.615491" y="298.64" style="stroke: #000000; stroke-width: 0.6"/>
      </g>
     </g>
    </g>
    <g id="xtick_10">
     <g id="line2d_13">
      <g>
       <use xlink:href="#m32c64ac033" x="207.250546" y="298.64" style="stroke: #000000; stroke-width: 0.6"/>
      </g>
     </g>
    </g>
    <g id="xtick_11">
     <g id="line2d_14">
      <g>
       <use xlink:href="#m32c64ac033" x="217.933333" y="298.64" style="stroke: #000000; stroke-width: 0.6"/>
      </g>
     </g>
    </g>
    <g id="xtick_12">
     <g id="line2d_15">
      <g>
       <use xlink:href="#m32c64ac033" x="227.187185" y="298.64" style="stroke: #000000; stroke-width: 0.6"/>
      </g>
     </g>
    </g>
    <g id="xtick_13">
     <g id="line2d_16">
      <g>
       <use xlink:href="#m32c64ac033" x="235.34966" y="298.64" style="stroke: #000000; stroke-width: 0.6"/>
      </g>
     </g>
    </g>
    <g id="xtick_14">
     <g id="line2d_17">
      <g>
       <use xlink:href="#m32c64ac033" x="290.686994" y="298.64" style="stroke: #000000; stroke-width: 0.6"/>
      </g>
     </g>
    </g>
    <g id="xtick_15">
     <g id="line2d_18">
      <g>
       <use xlink:href="#m32c64ac033" x="318.786108" y="298.64" style="stroke: #000000; stroke-width: 0.6"/>
      </g>
     </g>
    </g>
    <g id="xtick_16">
     <g id="line2d_19">
      <g>
       <use xlink:href="#m32c64ac033" x="338.722746" y="298.64" style="stroke: #000000; stroke-width: 0.6"/>
      </g>
     </g>
    </g>
    <g id="xtick_17">
     <g id="line2d_20">
      <g>
       <use xlink:href="#m32c64ac033" x="354.186804" y="298.64" style="stroke: #000000; stroke-width: 0.6"/>
      </g>
     </g>
    </g>
    <g id="xtick_18">
     <g id="line2d_21">
      <g>
       <use xlink:href="#m32c64ac033" x="366.82186" y="298.64" style="stroke: #000000; stroke-width: 0.6"/>
      </g>
     </g>
    </g>
    <g id="xtick_19">
     <g id="line2d_22">
      <g>
       <use xlink:href="#m32c64ac033" x="377.504647" y="298.64" style="stroke: #000000; stroke-width: 0.6"/>
      </g>
     </g>
    </g>
    <g id="xtick_20">
     <g id="line2d_23">
      <g>
       <use xlink:href="#m32c64ac033" x="386.758498" y="298.64" style="stroke: #000000; stroke-width: 0.6"/>
      </g>
     </g>
    </g>
    <g id="xtick_21">
     <g id="line2d_24">
      <g>
       <use xlink:href="#m32c64ac033" x="394.920973" y="298.64" style="stroke: #000000; stroke-width: 0.6"/>
      </g>
     </g>
    </g>
    <g id="text_4">
     <!-- Konzentration c (mol/l) -->
     <g transform="translate(179.946086 327.676406) scale(0.11 -0.11)">
      <defs>
       <path id="DejaVuSans-4b" d="M 628 4666 
L 1259 4666 
L 1259 2694 
L 3353 4666 
L 4166 4666 
L 1850 2491 
L 4331 0 
L 3500 0 
L 1259 2247 
L 1259 0 
L 628 0 
L 628 4666 
z
" transform="scale(0.015625)"/>
       <path id="DejaVuSans-6f" d="M 1959 3097 
Q 1497 3097 1228 2736 
Q 959 2375 959 1747 
Q 959 1119 1226 758 
Q 1494 397 1959 397 
Q 2419 397 2687 759 
Q 2956 1122 2956 1747 
Q 2956 2369 2687 2733 
Q 2419 3097 1959 3097 
z
M 1959 3584 
Q 2709 3584 3137 3096 
Q 3566 2609 3566 1747 
Q 3566 888 3137 398 
Q 2709 -91 1959 -91 
Q 1206 -91 779 398 
Q 353 888 353 1747 
Q 353 2609 779 3096 
Q 1206 3584 1959 3584 
z
" transform="scale(0.015625)"/>
       <path id="DejaVuSans-6e" d="M 3513 2113 
L 3513 0 
L 2938 0 
L 2938 2094 
Q 2938 2591 2744 2837 
Q 2550 3084 2163 3084 
Q 1697 3084 1428 2787 
Q 1159 2491 1159 1978 
L 1159 0 
L 581 0 
L 581 3500 
L 1159 3500 
L 1159 2956 
Q 1366 3272 1645 3428 
Q 1925 3584 2291 3584 
Q 2894 3584 3203 3211 
Q 3513 2838 3513 2113 
z
" transform="scale(0.015625)"/>
       <path id="DejaVuSans-7a" d="M 353 3500 
L 3084 3500 
L 3084 2975 
L 922 459 
L 3084 459 
L 3084 0 
L 275 0 
L 275 525 
L 2438 3041 
L 353 3041 
L 353 3500 
z
" transform="scale(0.015625)"/>
       <path id="DejaVuSans-65" d="M 3597 1894 
L 3597 1613 
L 953 1613 
Q 991 1019 1311 708 
Q 1631 397 2203 397 
Q 2534 397 2845 478 
Q 3156 559 3463 722 
L 3463 178 
Q 3153 47 2828 -22 
Q 2503 -91 2169 -91 
Q 1331 -91 842 396 
Q 353 884 353 1716 
Q 353 2575 817 3079 
Q 1281 3584 2069 3584 
Q 2775 3584 3186 3129 
Q 3597 2675 3597 1894 
z
M 3022 2063 
Q 3016 2534 2758 2815 
Q 2500 3097 2075 3097 
Q 1594 3097 1305 2825 
Q 1016 2553 972 2059 
L 3022 2063 
z
" transform="scale(0.015625)"/>
       <path id="DejaVuSans-74" d="M 1172 4494 
L 1172 3500 
L 2356 3500 
L 2356 3053 
L 1172 3053 
L 1172 1153 
Q 1172 725 1289 603 
Q 1406 481 1766 481 
L 2356 481 
L 2356 0 
L 1766 0 
Q 1100 0 847 248 
Q 594 497 594 1153 
L 594 3053 
L 172 3053 
L 172 3500 
L 594 3500 
L 594 4494 
L 1172 4494 
z
" transform="scale(0.015625)"/>
       <path id="DejaVuSans-72" d="M 2631 2963 
Q 2534 3019 2420 3045 
Q 2306 3072 2169 3072 
Q 1681 3072 1420 2755 
Q 1159 2438 1159 1844 
L 1159 0 
L 581 0 
L 581 3500 
L 1159 3500 
L 1159 2956 
Q 1341 3275 1631 3429 
Q 1922 3584 2338 3584 
Q 2397 3584 2469 3576 
Q 2541 3569 2628 3553 
L 2631 2963 
z
" transform="scale(0.015625)"/>
       <path id="DejaVuSans-61" d="M 2194 1759 
Q 1497 1759 1228 1600 
Q 959 1441 959 1056 
Q 959 750 1161 570 
Q 1363 391 1709 391 
Q 2188 391 2477 730 
Q 2766 1069 2766 1631 
L 2766 1759 
L 2194 1759 
z
M 3341 1997 
L 3341 0 
L 2766 0 
L 2766 531 
Q 2569 213 2275 61 
Q 1981 -91 1556 -91 
Q 1019 -91 701 211 
Q 384 513 384 1019 
Q 384 1609 779 1909 
Q 1175 2209 1959 2209 
L 2766 2209 
L 2766 2266 
Q 2766 2663 2505 2880 
Q 2244 3097 1772 3097 
Q 1472 3097 1187 3025 
Q 903 2953 641 2809 
L 641 3341 
Q 956 3463 1253 3523 
Q 1550 3584 1831 3584 
Q 2591 3584 2966 3190 
Q 3341 2797 3341 1997 
z
" transform="scale(0.015625)"/>
       <path id="DejaVuSans-69" d="M 603 3500 
L 1178 3500 
L 1178 0 
L 603 0 
L 603 3500 
z
M 603 4863 
L 1178 4863 
L 1178 4134 
L 603 4134 
L 603 4863 
z
" transform="scale(0.015625)"/>
       <path id="DejaVuSans-20" transform="scale(0.015625)"/>
       <path id="DejaVuSans-63" d="M 3122 3366 
L 3122 2828 
Q 2878 2963 2633 3030 
Q 2388 3097 2138 3097 
Q 1578 3097 1268 2742 
Q 959 2388 959 1747 
Q 959 1106 1268 751 
Q 1578 397 2138 397 
Q 2388 397 2633 464 
Q 2878 531 3122 666 
L 3122 134 
Q 2881 22 2623 -34 
Q 2366 -91 2075 -91 
Q 1284 -91 818 406 
Q 353 903 353 1747 
Q 353 2603 823 3093 
Q 1294 3584 2113 3584 
Q 2378 3584 2631 3529 
Q 2884 3475 3122 3366 
z
" transform="scale(0.015625)"/>
       <path id="DejaVuSans-28" d="M 1984 4856 
Q 1566 4138 1362 3434 
Q 1159 2731 1159 2009 
Q 1159 1288 1364 580 
Q 1569 -128 1984 -844 
L 1484 -844 
Q 1016 -109 783 600 
Q 550 1309 550 2009 
Q 550 2706 781 3412 
Q 1013 4119 1484 4856 
L 1984 4856 
z
" transform="scale(0.015625)"/>
       <path id="DejaVuSans-6d" d="M 3328 2828 
Q 3544 3216 3844 3400 
Q 4144 3584 4550 3584 
Q 5097 3584 5394 3201 
Q 5691 2819 5691 2113 
L 5691 0 
L 5113 0 
L 5113 2094 
Q 5113 2597 4934 2840 
Q 4756 3084 4391 3084 
Q 3944 3084 3684 2787 
Q 3425 2491 3425 1978 
L 3425 0 
L 2847 0 
L 2847 2094 
Q 2847 2600 2669 2842 
Q 2491 3084 2119 3084 
Q 1678 3084 1418 2786 
Q 1159 2488 1159 1978 
L 1159 0 
L 581 0 
L 581 3500 
L 1159 3500 
L 1159 2956 
Q 1356 3278 1631 3431 
Q 1906 3584 2284 3584 
Q 2666 3584 2933 3390 
Q 3200 3197 3328 2828 
z
" transform="scale(0.015625)"/>
       <path id="DejaVuSans-6c" d="M 603 4863 
L 1178 4863 
L 1178 0 
L 603 0 
L 603 4863 
z
" transform="scale(0.015625)"/>
       <path id="DejaVuSans-2f" d="M 1625 4666 
L 2156 4666 
L 531 -594 
L 0 -594 
L 1625 4666 
z
" transform="scale(0.015625)"/>
       <path id="DejaVuSans-29" d="M 513 4856 
L 1013 4856 
Q 1481 4119 1714 3412 
Q 1947 2706 1947 2009 
Q 1947 1309 1714 600 
Q 1481 -109 1013 -844 
L 513 -844 
Q 928 -128 1133 580 
Q 1338 1288 1338 2009 
Q 1338 2731 1133 3434 
Q 928 4138 513 4856 
z
" transform="scale(0.015625)"/>
      </defs>
      <use xlink:href="#DejaVuSans-4b"/>
      <use xlink:href="#DejaVuSans-6f" transform="translate(60.576172 0)"/>
      <use xlink:href="#DejaVuSans-6e" transform="translate(121.757812 0)"/>
      <use xlink:href="#DejaVuSans-7a" transform="translate(185.136719 0)"/>
      <use xlink:href="#DejaVuSans-65" transform="translate(237.626953 0)"/>
      <use xlink:href="#DejaVuSans-6e" transform="translate(299.150391 0)"/>
      <use xlink:href="#DejaVuSans-74" transform="translate(362.529297 0)"/>
      <use xlink:href="#DejaVuSans-72" transform="translate(401.738281 0)"/>
      <use xlink:href="#DejaVuSans-61" transform="translate(442.851562 0)"/>
      <use xlink:href="#DejaVuSans-74" transform="translate(504.130859 0)"/>
      <use xlink:href="#DejaVuSans-69" transform="translate(543.339844 0)"/>
      <use xlink:href="#DejaVuSans-6f" transform="translate(571.123047 0)"/>
      <use xlink:href="#DejaVuSans-6e" transform="translate(632.304688 0)"/>
      <use xlink:href="#DejaVuSans-20" transform="translate(695.683594 0)"/>
      <use xlink:href="#DejaVuSans-63" transform="translate(727.470703 0)"/>
      <use xlink:href="#DejaVuSans-20" transform="translate(782.451172 0)"/>
      <use xlink:href="#DejaVuSans-28" transform="translate(814.238281 0)"/>
      <use xlink:href="#DejaVuSans-6d" transform="translate(853.251953 0)"/>
      <use xlink:href="#DejaVuSans-6f" transform="translate(950.664062 0)"/>
      <use xlink:href="#DejaVuSans-6c" transform="translate(1011.845703 0)"/>
      <use xlink:href="#DejaVuSans-2f" transform="translate(1039.628906 0)"/>
      <use xlink:href="#DejaVuSans-6c" transform="translate(1073.320312 0)"/>
      <use xlink:href="#DejaVuSans-29" transform="translate(1101.103516 0)"/>
     </g>
    </g>
   </g>
   <g id="matplotlib.axis_2">
    <g id="ytick_1">
     <g id="line2d_25">
      <path d="M 67.122798 273.151488 
L 418.179687 273.151488 
" clip-path="url(#p1f6a82a669)" style="fill: none; stroke: #b0b0b0; stroke-opacity: 0.3; stroke-width: 0.8; stroke-linecap: square"/>
     </g>
     <g id="line2d_26">
      <defs>
       <path id="m8222b3f623" d="M 0 0 
L -3.5 0 
" style="stroke: #000000; stroke-width: 0.8"/>
      </defs>
      <g>
       <use xlink:href="#m8222b3f623" x="67.122798" y="273.151488" style="stroke: #000000; stroke-width: 0.8"/>
      </g>
     </g>
     <g id="text_5">
      <!-- $\mathdefault{10^{1}}$ -->
      <g transform="translate(42.522798 276.950706) scale(0.1 -0.1)">
       <use xlink:href="#DejaVuSans-31" transform="translate(0 0.684375)"/>
       <use xlink:href="#DejaVuSans-30" transform="translate(63.623047 0.684375)"/>
       <use xlink:href="#DejaVuSans-31" transform="translate(128.203125 38.965625) scale(0.7)"/>
      </g>
     </g>
    </g>
    <g id="ytick_2">
     <g id="line2d_27">
      <path d="M 67.122798 180.67876 
L 418.179687 180.67876 
" clip-path="url(#p1f6a82a669)" style="fill: none; stroke: #b0b0b0; stroke-opacity: 0.3; stroke-width: 0.8; stroke-linecap: square"/>
     </g>
     <g id="line2d_28">
      <g>
       <use xlink:href="#m8222b3f623" x="67.122798" y="180.67876" style="stroke: #000000; stroke-width: 0.8"/>
      </g>
     </g>
     <g id="text_6">
      <!-- $\mathdefault{10^{2}}$ -->
      <g transform="translate(42.522798 184.477979) scale(0.1 -0.1)">
       <use xlink:href="#DejaVuSans-31" transform="translate(0 0.765625)"/>
       <use xlink:href="#DejaVuSans-30" transform="translate(63.623047 0.765625)"/>
       <use xlink:href="#DejaVuSans-32" transform="translate(128.203125 39.046875) scale(0.7)"/>
      </g>
     </g>
    </g>
    <g id="ytick_3">
     <g id="line2d_29">
      <defs>
       <path id="m81d5e160e5" d="M 0 0 
L -2 0 
" style="stroke: #000000; stroke-width: 0.6"/>
      </defs>
      <g>
       <use xlink:href="#m81d5e160e5" x="67.122798" y="293.666447" style="stroke: #000000; stroke-width: 0.6"/>
      </g>
     </g>
    </g>
    <g id="ytick_4">
     <g id="line2d_30">
      <g>
       <use xlink:href="#m81d5e160e5" x="67.122798" y="287.475694" style="stroke: #000000; stroke-width: 0.6"/>
      </g>
     </g>
    </g>
    <g id="ytick_5">
     <g id="line2d_31">
      <g>
       <use xlink:href="#m81d5e160e5" x="67.122798" y="282.113021" style="stroke: #000000; stroke-width: 0.6"/>
      </g>
     </g>
    </g>
    <g id="ytick_6">
     <g id="line2d_32">
      <g>
       <use xlink:href="#m81d5e160e5" x="67.122798" y="277.382808" style="stroke: #000000; stroke-width: 0.6"/>
      </g>
     </g>
    </g>
    <g id="ytick_7">
     <g id="line2d_33">
      <g>
       <use xlink:href="#m81d5e160e5" x="67.122798" y="245.314423" style="stroke: #000000; stroke-width: 0.6"/>
      </g>
     </g>
    </g>
    <g id="ytick_8">
     <g id="line2d_34">
      <g>
       <use xlink:href="#m81d5e160e5" x="67.122798" y="229.030784" style="stroke: #000000; stroke-width: 0.6"/>
      </g>
     </g>
    </g>
    <g id="ytick_9">
     <g id="line2d_35">
      <g>
       <use xlink:href="#m81d5e160e5" x="67.122798" y="217.477358" style="stroke: #000000; stroke-width: 0.6"/>
      </g>
     </g>
    </g>
    <g id="ytick_10">
     <g id="line2d_36">
      <g>
       <use xlink:href="#m81d5e160e5" x="67.122798" y="208.515825" style="stroke: #000000; stroke-width: 0.6"/>
      </g>
     </g>
    </g>
    <g id="ytick_11">
     <g id="line2d_37">
      <g>
       <use xlink:href="#m81d5e160e5" x="67.122798" y="201.193719" style="stroke: #000000; stroke-width: 0.6"/>
      </g>
     </g>
    </g>
    <g id="ytick_12">
     <g id="line2d_38">
      <g>
       <use xlink:href="#m81d5e160e5" x="67.122798" y="195.002967" style="stroke: #000000; stroke-width: 0.6"/>
      </g>
     </g>
    </g>
    <g id="ytick_13">
     <g id="line2d_39">
      <g>
       <use xlink:href="#m81d5e160e5" x="67.122798" y="189.640294" style="stroke: #000000; stroke-width: 0.6"/>
      </g>
     </g>
    </g>
    <g id="ytick_14">
     <g id="line2d_40">
      <g>
       <use xlink:href="#m81d5e160e5" x="67.122798" y="184.91008" style="stroke: #000000; stroke-width: 0.6"/>
      </g>
     </g>
    </g>
    <g id="ytick_15">
     <g id="line2d_41">
      <g>
       <use xlink:href="#m81d5e160e5" x="67.122798" y="152.841696" style="stroke: #000000; stroke-width: 0.6"/>
      </g>
     </g>
    </g>
    <g id="ytick_16">
     <g id="line2d_42">
      <g>
       <use xlink:href="#m81d5e160e5" x="67.122798" y="136.558057" style="stroke: #000000; stroke-width: 0.6"/>
      </g>
     </g>
    </g>
    <g id="ytick_17">
     <g id="line2d_43">
      <g>
       <use xlink:href="#m81d5e160e5" x="67.122798" y="125.004631" style="stroke: #000000; stroke-width: 0.6"/>
      </g>
     </g>
    </g>
    <g id="ytick_18">
     <g id="line2d_44">
      <g>
       <use xlink:href="#m81d5e160e5" x="67.122798" y="116.043098" style="stroke: #000000; stroke-width: 0.6"/>
      </g>
     </g>
    </g>
    <g id="ytick_19">
     <g id="line2d_45">
      <g>
       <use xlink:href="#m81d5e160e5" x="67.122798" y="108.720992" style="stroke: #000000; stroke-width: 0.6"/>
      </g>
     </g>
    </g>
    <g id="ytick_20">
     <g id="line2d_46">
      <g>
       <use xlink:href="#m81d5e160e5" x="67.122798" y="102.53024" style="stroke: #000000; stroke-width: 0.6"/>
      </g>
     </g>
    </g>
    <g id="ytick_21">
     <g id="line2d_47">
      <g>
       <use xlink:href="#m81d5e160e5" x="67.122798" y="97.167566" style="stroke: #000000; stroke-width: 0.6"/>
      </g>
     </g>
    </g>
    <g id="text_7">
     <!-- Kanalwiderstand R (MΩ) -->
     <g transform="translate(36.235142 263.274922) rotate(-90) scale(0.11 -0.11)">
      <defs>
       <path id="DejaVuSans-77" d="M 269 3500 
L 844 3500 
L 1563 769 
L 2278 3500 
L 2956 3500 
L 3675 769 
L 4391 3500 
L 4966 3500 
L 4050 0 
L 3372 0 
L 2619 2869 
L 1863 0 
L 1184 0 
L 269 3500 
z
" transform="scale(0.015625)"/>
       <path id="DejaVuSans-64" d="M 2906 2969 
L 2906 4863 
L 3481 4863 
L 3481 0 
L 2906 0 
L 2906 525 
Q 2725 213 2448 61 
Q 2172 -91 1784 -91 
Q 1150 -91 751 415 
Q 353 922 353 1747 
Q 353 2572 751 3078 
Q 1150 3584 1784 3584 
Q 2172 3584 2448 3432 
Q 2725 3281 2906 2969 
z
M 947 1747 
Q 947 1113 1208 752 
Q 1469 391 1925 391 
Q 2381 391 2643 752 
Q 2906 1113 2906 1747 
Q 2906 2381 2643 2742 
Q 2381 3103 1925 3103 
Q 1469 3103 1208 2742 
Q 947 2381 947 1747 
z
" transform="scale(0.015625)"/>
       <path id="DejaVuSans-73" d="M 2834 3397 
L 2834 2853 
Q 2591 2978 2328 3040 
Q 2066 3103 1784 3103 
Q 1356 3103 1142 2972 
Q 928 2841 928 2578 
Q 928 2378 1081 2264 
Q 1234 2150 1697 2047 
L 1894 2003 
Q 2506 1872 2764 1633 
Q 3022 1394 3022 966 
Q 3022 478 2636 193 
Q 2250 -91 1575 -91 
Q 1294 -91 989 -36 
Q 684 19 347 128 
L 347 722 
Q 666 556 975 473 
Q 1284 391 1588 391 
Q 1994 391 2212 530 
Q 2431 669 2431 922 
Q 2431 1156 2273 1281 
Q 2116 1406 1581 1522 
L 1381 1569 
Q 847 1681 609 1914 
Q 372 2147 372 2553 
Q 372 3047 722 3315 
Q 1072 3584 1716 3584 
Q 2034 3584 2315 3537 
Q 2597 3491 2834 3397 
z
" transform="scale(0.015625)"/>
       <path id="DejaVuSans-52" d="M 2841 2188 
Q 3044 2119 3236 1894 
Q 3428 1669 3622 1275 
L 4263 0 
L 3584 0 
L 2988 1197 
Q 2756 1666 2539 1819 
Q 2322 1972 1947 1972 
L 1259 1972 
L 1259 0 
L 628 0 
L 628 4666 
L 2053 4666 
Q 2853 4666 3247 4331 
Q 3641 3997 3641 3322 
Q 3641 2881 3436 2590 
Q 3231 2300 2841 2188 
z
M 1259 4147 
L 1259 2491 
L 2053 2491 
Q 2509 2491 2742 2702 
Q 2975 2913 2975 3322 
Q 2975 3731 2742 3939 
Q 2509 4147 2053 4147 
L 1259 4147 
z
" transform="scale(0.015625)"/>
       <path id="DejaVuSans-4d" d="M 628 4666 
L 1569 4666 
L 2759 1491 
L 3956 4666 
L 4897 4666 
L 4897 0 
L 4281 0 
L 4281 4097 
L 3078 897 
L 2444 897 
L 1241 4097 
L 1241 0 
L 628 0 
L 628 4666 
z
" transform="scale(0.015625)"/>
       <path id="DejaVuSans-3a9" d="M 4647 556 
L 4647 0 
L 2772 0 
L 2772 556 
Q 3325 859 3634 1378 
Q 3944 1897 3944 2528 
Q 3944 3278 3531 3731 
Q 3119 4184 2444 4184 
Q 1769 4184 1355 3729 
Q 941 3275 941 2528 
Q 941 1897 1250 1378 
Q 1563 859 2119 556 
L 2119 0 
L 244 0 
L 244 556 
L 1241 556 
Q 747 991 519 1456 
Q 294 1922 294 2497 
Q 294 3491 894 4106 
Q 1491 4722 2444 4722 
Q 3391 4722 3994 4106 
Q 4594 3494 4594 2528 
Q 4594 1922 4372 1459 
Q 4150 997 3647 556 
L 4647 556 
z
" transform="scale(0.015625)"/>
      </defs>
      <use xlink:href="#DejaVuSans-4b"/>
      <use xlink:href="#DejaVuSans-61" transform="translate(63.826172 0)"/>
      <use xlink:href="#DejaVuSans-6e" transform="translate(125.105469 0)"/>
      <use xlink:href="#DejaVuSans-61" transform="translate(188.484375 0)"/>
      <use xlink:href="#DejaVuSans-6c" transform="translate(249.763672 0)"/>
      <use xlink:href="#DejaVuSans-77" transform="translate(277.546875 0)"/>
      <use xlink:href="#DejaVuSans-69" transform="translate(359.333984 0)"/>
      <use xlink:href="#DejaVuSans-64" transform="translate(387.117188 0)"/>
      <use xlink:href="#DejaVuSans-65" transform="translate(450.59375 0)"/>
      <use xlink:href="#DejaVuSans-72" transform="translate(512.117188 0)"/>
      <use xlink:href="#DejaVuSans-73" transform="translate(553.230469 0)"/>
      <use xlink:href="#DejaVuSans-74" transform="translate(605.330078 0)"/>
      <use xlink:href="#DejaVuSans-61" transform="translate(644.539062 0)"/>
      <use xlink:href="#DejaVuSans-6e" transform="translate(705.818359 0)"/>
      <use xlink:href="#DejaVuSans-64" transform="translate(769.197266 0)"/>
      <use xlink:href="#DejaVuSans-20" transform="translate(832.673828 0)"/>
      <use xlink:href="#DejaVuSans-52" transform="translate(864.460938 0)"/>
      <use xlink:href="#DejaVuSans-20" transform="translate(933.943359 0)"/>
      <use xlink:href="#DejaVuSans-28" transform="translate(965.730469 0)"/>
      <use xlink:href="#DejaVuSans-4d" transform="translate(1004.744141 0)"/>
      <use xlink:href="#DejaVuSans-3a9" transform="translate(1091.023438 0)"/>
      <use xlink:href="#DejaVuSans-29" transform="translate(1167.439453 0)"/>
     </g>
    </g>
   </g>
   <g id="line2d_48">
    <path d="M 83.079929 104.447273 
L 88.489126 107.581941 
L 93.898323 110.71661 
L 99.30752 113.851279 
L 104.716717 116.985948 
L 110.125915 120.120616 
L 115.535112 123.255285 
L 120.944309 126.389954 
L 126.353506 129.524622 
L 131.762703 132.659291 
L 137.1719 135.79396 
L 142.581097 138.928629 
L 147.990294 142.063297 
L 153.399491 145.197966 
L 158.808688 148.332635 
L 164.217885 151.467304 
L 169.627082 154.601972 
L 175.036279 157.736641 
L 180.445476 160.87131 
L 185.854673 164.005978 
L 191.263871 167.140647 
L 196.673068 170.275316 
L 202.082265 173.409985 
L 207.491462 176.544653 
L 212.900659 179.679322 
L 218.309856 182.813991 
L 223.719053 185.948659 
L 229.12825 189.083328 
L 234.537447 192.217997 
L 239.946644 195.352666 
L 245.355841 198.487334 
L 250.765038 201.622003 
L 256.174235 204.756672 
L 261.583432 207.891341 
L 266.992629 211.026009 
L 272.401827 214.160678 
L 277.811024 217.295347 
L 283.220221 220.430015 
L 288.629418 223.564684 
L 294.038615 226.699353 
L 299.447812 229.834022 
L 304.857009 232.96869 
L 310.266206 236.103359 
L 315.675403 239.238028 
L 321.0846 242.372696 
L 326.493797 245.507365 
L 331.902994 248.642034 
L 337.312191 251.776703 
L 342.721388 254.911371 
L 348.130585 258.04604 
L 353.539783 261.180709 
L 358.94898 264.315378 
L 364.358177 267.450046 
L 369.767374 270.584715 
L 375.176571 273.719384 
L 380.585768 276.854052 
L 385.994965 279.988721 
L 391.404162 283.12339 
L 396.813359 286.258059 
L 402.222556 289.392727 
" clip-path="url(#p1f6a82a669)" style="fill: none; stroke: #f4a261; stroke-width: 2; stroke-linecap: square"/>
   </g>
   <g id="line2d_49">
    <path d="M 402.222556 298.64 
L 402.222556 95.2 
" clip-path="url(#p1f6a82a669)" style="fill: none; stroke-dasharray: 7.4,3.2; stroke-dashoffset: 0; stroke: #808080; stroke-opacity: 0.7; stroke-width: 2"/>
   </g>
   <g id="patch_3">
    <path d="M 67.122798 298.64 
L 67.122798 95.2 
" style="fill: none; stroke: #000000; stroke-width: 0.8; stroke-linejoin: miter; stroke-linecap: square"/>
   </g>
   <g id="patch_4">
    <path d="M 418.179687 298.64 
L 418.179687 95.2 
" style="fill: none; stroke: #000000; stroke-width: 0.8; stroke-linejoin: miter; stroke-linecap: square"/>
   </g>
   <g id="patch_5">
    <path d="M 67.122798 298.64 
L 418.179688 298.64 
" style="fill: none; stroke: #000000; stroke-width: 0.8; stroke-linejoin: miter; stroke-linecap: square"/>
   </g>
   <g id="patch_6">
    <path d="M 67.122798 95.2 
L 418.179688 95.2 
" style="fill: none; stroke: #000000; stroke-width: 0.8; stroke-linejoin: miter; stroke-linecap: square"/>
   </g>
   <g id="text_8">
    <!-- R(c): Widerstand vs. KCl-Konzentration -->
    <g transform="translate(126.611243 75.762625) scale(0.12 -0.12)">
     <defs>
      <path id="DejaVuSans-3a" d="M 750 794 
L 1409 794 
L 1409 0 
L 750 0 
L 750 794 
z
M 750 3309 
L 1409 3309 
L 1409 2516 
L 750 2516 
L 750 3309 
z
" transform="scale(0.015625)"/>
      <path id="DejaVuSans-57" d="M 213 4666 
L 850 4666 
L 1831 722 
L 2809 4666 
L 3519 4666 
L 4500 722 
L 5478 4666 
L 6119 4666 
L 4947 0 
L 4153 0 
L 3169 4050 
L 2175 0 
L 1381 0 
L 213 4666 
z
" transform="scale(0.015625)"/>
      <path id="DejaVuSans-76" d="M 191 3500 
L 800 3500 
L 1894 563 
L 2988 3500 
L 3597 3500 
L 2284 0 
L 1503 0 
L 191 3500 
z
" transform="scale(0.015625)"/>
      <path id="DejaVuSans-2e" d="M 684 794 
L 1344 794 
L 1344 0 
L 684 0 
L 684 794 
z
" transform="scale(0.015625)"/>
      <path id="DejaVuSans-43" d="M 4122 4306 
L 4122 3641 
Q 3803 3938 3442 4084 
Q 3081 4231 2675 4231 
Q 1875 4231 1450 3742 
Q 1025 3253 1025 2328 
Q 1025 1406 1450 917 
Q 1875 428 2675 428 
Q 3081 428 3442 575 
Q 3803 722 4122 1019 
L 4122 359 
Q 3791 134 3420 21 
Q 3050 -91 2638 -91 
Q 1578 -91 968 557 
Q 359 1206 359 2328 
Q 359 3453 968 4101 
Q 1578 4750 2638 4750 
Q 3056 4750 3426 4639 
Q 3797 4528 4122 4306 
z
" transform="scale(0.015625)"/>
      <path id="DejaVuSans-2d" d="M 313 2009 
L 1997 2009 
L 1997 1497 
L 313 1497 
L 313 2009 
z
" transform="scale(0.015625)"/>
     </defs>
     <use xlink:href="#DejaVuSans-52"/>
     <use xlink:href="#DejaVuSans-28" transform="translate(69.482422 0)"/>
     <use xlink:href="#DejaVuSans-63" transform="translate(108.496094 0)"/>
     <use xlink:href="#DejaVuSans-29" transform="translate(163.476562 0)"/>
     <use xlink:href="#DejaVuSans-3a" transform="translate(202.490234 0)"/>
     <use xlink:href="#DejaVuSans-20" transform="translate(236.181641 0)"/>
     <use xlink:href="#DejaVuSans-57" transform="translate(267.96875 0)"/>
     <use xlink:href="#DejaVuSans-69" transform="translate(364.595703 0)"/>
     <use xlink:href="#DejaVuSans-64" transform="translate(392.378906 0)"/>
     <use xlink:href="#DejaVuSans-65" transform="translate(455.855469 0)"/>
     <use xlink:href="#DejaVuSans-72" transform="translate(517.378906 0)"/>
     <use xlink:href="#DejaVuSans-73" transform="translate(558.492188 0)"/>
     <use xlink:href="#DejaVuSans-74" transform="translate(610.591797 0)"/>
     <use xlink:href="#DejaVuSans-61" transform="translate(649.800781 0)"/>
     <use xlink:href="#DejaVuSans-6e" transform="translate(711.080078 0)"/>
     <use xlink:href="#DejaVuSans-64" transform="translate(774.458984 0)"/>
     <use xlink:href="#DejaVuSans-20" transform="translate(837.935547 0)"/>
     <use xlink:href="#DejaVuSans-76" transform="translate(869.722656 0)"/>
     <use xlink:href="#DejaVuSans-73" transform="translate(928.902344 0)"/>
     <use xlink:href="#DejaVuSans-2e" transform="translate(981.001953 0)"/>
     <use xlink:href="#DejaVuSans-20" transform="translate(1012.789062 0)"/>
     <use xlink:href="#DejaVuSans-4b" transform="translate(1044.576172 0)"/>
     <use xlink:href="#DejaVuSans-43" transform="translate(1104.652344 0)"/>
     <use xlink:href="#DejaVuSans-6c" transform="translate(1174.476562 0)"/>
     <use xlink:href="#DejaVuSans-2d" transform="translate(1202.259766 0)"/>
     <use xlink:href="#DejaVuSans-4b" transform="translate(1238.34375 0)"/>
     <use xlink:href="#DejaVuSans-6f" transform="translate(1298.919922 0)"/>
     <use xlink:href="#DejaVuSans-6e" transform="translate(1360.101562 0)"/>
     <use xlink:href="#DejaVuSans-7a" transform="translate(1423.480469 0)"/>
     <use xlink:href="#DejaVuSans-65" transform="translate(1475.970703 0)"/>
     <use xlink:href="#DejaVuSans-6e" transform="translate(1537.494141 0)"/>
     <use xlink:href="#DejaVuSans-74" transform="translate(1600.873047 0)"/>
     <use xlink:href="#DejaVuSans-72" transform="translate(1640.082031 0)"/>
     <use xlink:href="#DejaVuSans-61" transform="translate(1681.195312 0)"/>
     <use xlink:href="#DejaVuSans-74" transform="translate(1742.474609 0)"/>
     <use xlink:href="#DejaVuSans-69" transform="translate(1781.683594 0)"/>
     <use xlink:href="#DejaVuSans-6f" transform="translate(1809.466797 0)"/>
     <use xlink:href="#DejaVuSans-6e" transform="translate(1870.648438 0)"/>
    </g>
    <!-- (L=1µm, A=100×100nm²) -->
    <g transform="translate(163.187805 89.2) scale(0.12 -0.12)">
     <defs>
      <path id="DejaVuSans-4c" d="M 628 4666 
L 1259 4666 
L 1259 531 
L 3531 531 
L 3531 0 
L 628 0 
L 628 4666 
z
" transform="scale(0.015625)"/>
      <path id="DejaVuSans-3d" d="M 678 2906 
L 4684 2906 
L 4684 2381 
L 678 2381 
L 678 2906 
z
M 678 1631 
L 4684 1631 
L 4684 1100 
L 678 1100 
L 678 1631 
z
" transform="scale(0.015625)"/>
      <path id="DejaVuSans-b5" d="M 544 -1331 
L 544 3500 
L 1119 3500 
L 1119 1325 
Q 1119 872 1334 640 
Q 1550 409 1972 409 
Q 2434 409 2667 671 
Q 2900 934 2900 1459 
L 2900 3500 
L 3475 3500 
L 3475 806 
Q 3475 619 3529 530 
Q 3584 441 3700 441 
Q 3728 441 3778 458 
Q 3828 475 3916 513 
L 3916 50 
Q 3788 -22 3673 -56 
Q 3559 -91 3450 -91 
Q 3234 -91 3106 31 
Q 2978 153 2931 403 
Q 2775 156 2548 32 
Q 2322 -91 2016 -91 
Q 1697 -91 1473 31 
Q 1250 153 1119 397 
L 1119 -1331 
L 544 -1331 
z
" transform="scale(0.015625)"/>
      <path id="DejaVuSans-2c" d="M 750 794 
L 1409 794 
L 1409 256 
L 897 -744 
L 494 -744 
L 750 256 
L 750 794 
z
" transform="scale(0.015625)"/>
      <path id="DejaVuSans-41" d="M 2188 4044 
L 1331 1722 
L 3047 1722 
L 2188 4044 
z
M 1831 4666 
L 2547 4666 
L 4325 0 
L 3669 0 
L 3244 1197 
L 1141 1197 
L 716 0 
L 50 0 
L 1831 4666 
z
" transform="scale(0.015625)"/>
      <path id="DejaVuSans-d7" d="M 4488 3438 
L 3059 2003 
L 4488 575 
L 4116 197 
L 2681 1631 
L 1247 197 
L 878 575 
L 2303 2003 
L 878 3438 
L 1247 3816 
L 2681 2381 
L 4116 3816 
L 4488 3438 
z
" transform="scale(0.015625)"/>
      <path id="DejaVuSans-b2" d="M 838 2444 
L 2163 2444 
L 2163 2088 
L 294 2088 
L 294 2431 
Q 400 2528 597 2703 
Q 1672 3656 1672 3950 
Q 1672 4156 1509 4282 
Q 1347 4409 1081 4409 
Q 919 4409 728 4354 
Q 538 4300 313 4191 
L 313 4575 
Q 553 4663 761 4706 
Q 969 4750 1147 4750 
Q 1600 4750 1872 4544 
Q 2144 4338 2144 4000 
Q 2144 3566 1109 2678 
Q 934 2528 838 2444 
z
" transform="scale(0.015625)"/>
     </defs>
     <use xlink:href="#DejaVuSans-28"/>
     <use xlink:href="#DejaVuSans-4c" transform="translate(39.013672 0)"/>
     <use xlink:href="#DejaVuSans-3d" transform="translate(94.726562 0)"/>
     <use xlink:href="#DejaVuSans-31" transform="translate(178.515625 0)"/>
     <use xlink:href="#DejaVuSans-b5" transform="translate(242.138672 0)"/>
     <use xlink:href="#DejaVuSans-6d" transform="translate(305.761719 0)"/>
     <use xlink:href="#DejaVuSans-2c" transform="translate(403.173828 0)"/>
     <use xlink:href="#DejaVuSans-20" transform="translate(434.960938 0)"/>
     <use xlink:href="#DejaVuSans-41" transform="translate(466.748047 0)"/>
     <use xlink:href="#DejaVuSans-3d" transform="translate(535.15625 0)"/>
     <use xlink:href="#DejaVuSans-31" transform="translate(618.945312 0)"/>
     <use xlink:href="#DejaVuSans-30" transform="translate(682.568359 0)"/>
     <use xlink:href="#DejaVuSans-30" transform="translate(746.191406 0)"/>
     <use xlink:href="#DejaVuSans-d7" transform="translate(809.814453 0)"/>
     <use xlink:href="#DejaVuSans-31" transform="translate(893.603516 0)"/>
     <use xlink:href="#DejaVuSans-30" transform="translate(957.226562 0)"/>
     <use xlink:href="#DejaVuSans-30" transform="translate(1020.849609 0)"/>
     <use xlink:href="#DejaVuSans-6e" transform="translate(1084.472656 0)"/>
     <use xlink:href="#DejaVuSans-6d" transform="translate(1147.851562 0)"/>
     <use xlink:href="#DejaVuSans-b2" transform="translate(1245.263672 0)"/>
     <use xlink:href="#DejaVuSans-29" transform="translate(1285.351562 0)"/>
    </g>
   </g>
   <g id="PathCollection_1">
    <defs>
     <path id="mb093eabea2" d="M 0 3.872983 
C 1.027127 3.872983 2.012324 3.464901 2.738613 2.738613 
C 3.464901 2.012324 3.872983 1.027127 3.872983 0 
C 3.872983 -1.027127 3.464901 -2.012324 2.738613 -2.738613 
C 2.012324 -3.464901 1.027127 -3.872983 0 -3.872983 
C -1.027127 -3.872983 -2.012324 -3.464901 -2.738613 -2.738613 
C -3.464901 -2.012324 -3.872983 -1.027127 -3.872983 0 
C -3.872983 1.027127 -3.464901 2.012324 -2.738613 2.738613 
C -2.012324 3.464901 -1.027127 3.872983 0 3.872983 
z
" style="stroke: #e63946"/>
    </defs>
    <g clip-path="url(#p1f6a82a669)">
     <use xlink:href="#mb093eabea2" x="402.222556" y="289.392727" style="fill: #e63946; stroke: #e63946"/>
    </g>
   </g>
   <g id="legend_1">
    <g id="patch_7">
     <path d="M 73.422798 294.14 
L 153.560767 294.14 
Q 155.360767 294.14 155.360767 292.34 
L 155.360767 266.819375 
Q 155.360767 265.019375 153.560767 265.019375 
L 73.422798 265.019375 
Q 71.622798 265.019375 71.622798 266.819375 
L 71.622798 292.34 
Q 71.622798 294.14 73.422798 294.14 
z
" style="fill: #ffffff; opacity: 0.8; stroke: #cccccc; stroke-linejoin: miter"/>
    </g>
    <g id="line2d_50">
     <path d="M 75.222798 272.307969 
L 84.222798 272.307969 
L 93.222798 272.307969 
" style="fill: none; stroke-dasharray: 7.4,3.2; stroke-dashoffset: 0; stroke: #808080; stroke-opacity: 0.7; stroke-width: 2"/>
    </g>
    <g id="text_9">
     <!-- c=1 mol/l -->
     <g transform="translate(100.422798 275.457969) scale(0.09 -0.09)">
      <use xlink:href="#DejaVuSans-63"/>
      <use xlink:href="#DejaVuSans-3d" transform="translate(54.980469 0)"/>
      <use xlink:href="#DejaVuSans-31" transform="translate(138.769531 0)"/>
      <use xlink:href="#DejaVuSans-20" transform="translate(202.392578 0)"/>
      <use xlink:href="#DejaVuSans-6d" transform="translate(234.179688 0)"/>
      <use xlink:href="#DejaVuSans-6f" transform="translate(331.591797 0)"/>
      <use xlink:href="#DejaVuSans-6c" transform="translate(392.773438 0)"/>
      <use xlink:href="#DejaVuSans-2f" transform="translate(420.556641 0)"/>
      <use xlink:href="#DejaVuSans-6c" transform="translate(454.248047 0)"/>
     </g>
    </g>
    <g id="PathCollection_2">
     <g>
      <use xlink:href="#mb093eabea2" x="84.222798" y="286.305781" style="fill: #e63946; stroke: #e63946"/>
     </g>
    </g>
    <g id="text_10">
     <!-- R=6.67 MΩ -->
     <g transform="translate(100.422798 288.668281) scale(0.09 -0.09)">
      <defs>
       <path id="DejaVuSans-36" d="M 2113 2584 
Q 1688 2584 1439 2293 
Q 1191 2003 1191 1497 
Q 1191 994 1439 701 
Q 1688 409 2113 409 
Q 2538 409 2786 701 
Q 3034 994 3034 1497 
Q 3034 2003 2786 2293 
Q 2538 2584 2113 2584 
z
M 3366 4563 
L 3366 3988 
Q 3128 4100 2886 4159 
Q 2644 4219 2406 4219 
Q 1781 4219 1451 3797 
Q 1122 3375 1075 2522 
Q 1259 2794 1537 2939 
Q 1816 3084 2150 3084 
Q 2853 3084 3261 2657 
Q 3669 2231 3669 1497 
Q 3669 778 3244 343 
Q 2819 -91 2113 -91 
Q 1303 -91 875 529 
Q 447 1150 447 2328 
Q 447 3434 972 4092 
Q 1497 4750 2381 4750 
Q 2619 4750 2861 4703 
Q 3103 4656 3366 4563 
z
" transform="scale(0.015625)"/>
       <path id="DejaVuSans-37" d="M 525 4666 
L 3525 4666 
L 3525 4397 
L 1831 0 
L 1172 0 
L 2766 4134 
L 525 4134 
L 525 4666 
z
" transform="scale(0.015625)"/>
      </defs>
      <use xlink:href="#DejaVuSans-52"/>
      <use xlink:href="#DejaVuSans-3d" transform="translate(69.482422 0)"/>
      <use xlink:href="#DejaVuSans-36" transform="translate(153.271484 0)"/>
      <use xlink:href="#DejaVuSans-2e" transform="translate(216.894531 0)"/>
      <use xlink:href="#DejaVuSans-36" transform="translate(248.681641 0)"/>
      <use xlink:href="#DejaVuSans-37" transform="translate(312.304688 0)"/>
      <use xlink:href="#DejaVuSans-20" transform="translate(375.927734 0)"/>
      <use xlink:href="#DejaVuSans-4d" transform="translate(407.714844 0)"/>
      <use xlink:href="#DejaVuSans-3a9" transform="translate(493.994141 0)"/>
     </g>
    </g>
   </g>
  </g>
  <g id="axes_2">
   <g id="patch_8">
    <path d="M 485.44311 298.64 
L 836.5 298.64 
L 836.5 95.2 
L 485.44311 95.2 
z
" style="fill: #ffffff"/>
   </g>
   <g id="matplotlib.axis_3">
    <g id="xtick_22">
     <g id="line2d_51">
      <path d="M 501.400242 298.64 
L 501.400242 95.2 
" clip-path="url(#pea379edd5c)" style="fill: none; stroke: #b0b0b0; stroke-opacity: 0.3; stroke-width: 0.8; stroke-linecap: square"/>
     </g>
     <g id="line2d_52">
      <g>
       <use xlink:href="#mb37110d54c" x="501.400242" y="298.64" style="stroke: #000000; stroke-width: 0.8"/>
      </g>
     </g>
     <g id="text_11">
      <!-- $\mathdefault{10^{-1}}$ -->
      <g transform="translate(489.650242 313.238437) scale(0.1 -0.1)">
       <use xlink:href="#DejaVuSans-31" transform="translate(0 0.684375)"/>
       <use xlink:href="#DejaVuSans-30" transform="translate(63.623047 0.684375)"/>
       <use xlink:href="#DejaVuSans-2212" transform="translate(128.203125 38.965625) scale(0.7)"/>
       <use xlink:href="#DejaVuSans-31" transform="translate(186.855469 38.965625) scale(0.7)"/>
      </g>
     </g>
    </g>
    <g id="xtick_23">
     <g id="line2d_53">
      <path d="M 607.781117 298.64 
L 607.781117 95.2 
" clip-path="url(#pea379edd5c)" style="fill: none; stroke: #b0b0b0; stroke-opacity: 0.3; stroke-width: 0.8; stroke-linecap: square"/>
     </g>
     <g id="line2d_54">
      <g>
       <use xlink:href="#mb37110d54c" x="607.781117" y="298.64" style="stroke: #000000; stroke-width: 0.8"/>
      </g>
     </g>
     <g id="text_12">
      <!-- $\mathdefault{10^{0}}$ -->
      <g transform="translate(598.981117 313.238437) scale(0.1 -0.1)">
       <use xlink:href="#DejaVuSans-31" transform="translate(0 0.765625)"/>
       <use xlink:href="#DejaVuSans-30" transform="translate(63.623047 0.765625)"/>
       <use xlink:href="#DejaVuSans-30" transform="translate(128.203125 39.046875) scale(0.7)"/>
      </g>
     </g>
    </g>
    <g id="xtick_24">
     <g id="line2d_55">
      <path d="M 714.161993 298.64 
L 714.161993 95.2 
" clip-path="url(#pea379edd5c)" style="fill: none; stroke: #b0b0b0; stroke-opacity: 0.3; stroke-width: 0.8; stroke-linecap: square"/>
     </g>
     <g id="line2d_56">
      <g>
       <use xlink:href="#mb37110d54c" x="714.161993" y="298.64" style="stroke: #000000; stroke-width: 0.8"/>
      </g>
     </g>
     <g id="text_13">
      <!-- $\mathdefault{10^{1}}$ -->
      <g transform="translate(705.361993 313.238437) scale(0.1 -0.1)">
       <use xlink:href="#DejaVuSans-31" transform="translate(0 0.684375)"/>
       <use xlink:href="#DejaVuSans-30" transform="translate(63.623047 0.684375)"/>
       <use xlink:href="#DejaVuSans-31" transform="translate(128.203125 38.965625) scale(0.7)"/>
      </g>
     </g>
    </g>
    <g id="xtick_25">
     <g id="line2d_57">
      <path d="M 820.542869 298.64 
L 820.542869 95.2 
" clip-path="url(#pea379edd5c)" style="fill: none; stroke: #b0b0b0; stroke-opacity: 0.3; stroke-width: 0.8; stroke-linecap: square"/>
     </g>
     <g id="line2d_58">
      <g>
       <use xlink:href="#mb37110d54c" x="820.542869" y="298.64" style="stroke: #000000; stroke-width: 0.8"/>
      </g>
     </g>
     <g id="text_14">
      <!-- $\mathdefault{10^{2}}$ -->
      <g transform="translate(811.742869 313.238437) scale(0.1 -0.1)">
       <use xlink:href="#DejaVuSans-31" transform="translate(0 0.765625)"/>
       <use xlink:href="#DejaVuSans-30" transform="translate(63.623047 0.765625)"/>
       <use xlink:href="#DejaVuSans-32" transform="translate(128.203125 39.046875) scale(0.7)"/>
      </g>
     </g>
    </g>
    <g id="xtick_26">
     <g id="line2d_59">
      <g>
       <use xlink:href="#m32c64ac033" x="491.09087" y="298.64" style="stroke: #000000; stroke-width: 0.6"/>
      </g>
     </g>
    </g>
    <g id="xtick_27">
     <g id="line2d_60">
      <g>
       <use xlink:href="#m32c64ac033" x="496.53252" y="298.64" style="stroke: #000000; stroke-width: 0.6"/>
      </g>
     </g>
    </g>
    <g id="xtick_28">
     <g id="line2d_61">
      <g>
       <use xlink:href="#m32c64ac033" x="533.424076" y="298.64" style="stroke: #000000; stroke-width: 0.6"/>
      </g>
     </g>
    </g>
    <g id="xtick_29">
     <g id="line2d_62">
      <g>
       <use xlink:href="#m32c64ac033" x="552.156819" y="298.64" style="stroke: #000000; stroke-width: 0.6"/>
      </g>
     </g>
    </g>
    <g id="xtick_30">
     <g id="line2d_63">
      <g>
       <use xlink:href="#m32c64ac033" x="565.447911" y="298.64" style="stroke: #000000; stroke-width: 0.6"/>
      </g>
     </g>
    </g>
    <g id="xtick_31">
     <g id="line2d_64">
      <g>
       <use xlink:href="#m32c64ac033" x="575.757283" y="298.64" style="stroke: #000000; stroke-width: 0.6"/>
      </g>
     </g>
    </g>
    <g id="xtick_32">
     <g id="line2d_65">
      <g>
       <use xlink:href="#m32c64ac033" x="584.180653" y="298.64" style="stroke: #000000; stroke-width: 0.6"/>
      </g>
     </g>
    </g>
    <g id="xtick_33">
     <g id="line2d_66">
      <g>
       <use xlink:href="#m32c64ac033" x="591.302511" y="298.64" style="stroke: #000000; stroke-width: 0.6"/>
      </g>
     </g>
    </g>
    <g id="xtick_34">
     <g id="line2d_67">
      <g>
       <use xlink:href="#m32c64ac033" x="597.471745" y="298.64" style="stroke: #000000; stroke-width: 0.6"/>
      </g>
     </g>
    </g>
    <g id="xtick_35">
     <g id="line2d_68">
      <g>
       <use xlink:href="#m32c64ac033" x="602.913395" y="298.64" style="stroke: #000000; stroke-width: 0.6"/>
      </g>
     </g>
    </g>
    <g id="xtick_36">
     <g id="line2d_69">
      <g>
       <use xlink:href="#m32c64ac033" x="639.804952" y="298.64" style="stroke: #000000; stroke-width: 0.6"/>
      </g>
     </g>
    </g>
    <g id="xtick_37">
     <g id="line2d_70">
      <g>
       <use xlink:href="#m32c64ac033" x="658.537694" y="298.64" style="stroke: #000000; stroke-width: 0.6"/>
      </g>
     </g>
    </g>
    <g id="xtick_38">
     <g id="line2d_71">
      <g>
       <use xlink:href="#m32c64ac033" x="671.828786" y="298.64" style="stroke: #000000; stroke-width: 0.6"/>
      </g>
     </g>
    </g>
    <g id="xtick_39">
     <g id="line2d_72">
      <g>
       <use xlink:href="#m32c64ac033" x="682.138158" y="298.64" style="stroke: #000000; stroke-width: 0.6"/>
      </g>
     </g>
    </g>
    <g id="xtick_40">
     <g id="line2d_73">
      <g>
       <use xlink:href="#m32c64ac033" x="690.561529" y="298.64" style="stroke: #000000; stroke-width: 0.6"/>
      </g>
     </g>
    </g>
    <g id="xtick_41">
     <g id="line2d_74">
      <g>
       <use xlink:href="#m32c64ac033" x="697.683387" y="298.64" style="stroke: #000000; stroke-width: 0.6"/>
      </g>
     </g>
    </g>
    <g id="xtick_42">
     <g id="line2d_75">
      <g>
       <use xlink:href="#m32c64ac033" x="703.852621" y="298.64" style="stroke: #000000; stroke-width: 0.6"/>
      </g>
     </g>
    </g>
    <g id="xtick_43">
     <g id="line2d_76">
      <g>
       <use xlink:href="#m32c64ac033" x="709.294271" y="298.64" style="stroke: #000000; stroke-width: 0.6"/>
      </g>
     </g>
    </g>
    <g id="xtick_44">
     <g id="line2d_77">
      <g>
       <use xlink:href="#m32c64ac033" x="746.185828" y="298.64" style="stroke: #000000; stroke-width: 0.6"/>
      </g>
     </g>
    </g>
    <g id="xtick_45">
     <g id="line2d_78">
      <g>
       <use xlink:href="#m32c64ac033" x="764.91857" y="298.64" style="stroke: #000000; stroke-width: 0.6"/>
      </g>
     </g>
    </g>
    <g id="xtick_46">
     <g id="line2d_79">
      <g>
       <use xlink:href="#m32c64ac033" x="778.209662" y="298.64" style="stroke: #000000; stroke-width: 0.6"/>
      </g>
     </g>
    </g>
    <g id="xtick_47">
     <g id="line2d_80">
      <g>
       <use xlink:href="#m32c64ac033" x="788.519034" y="298.64" style="stroke: #000000; stroke-width: 0.6"/>
      </g>
     </g>
    </g>
    <g id="xtick_48">
     <g id="line2d_81">
      <g>
       <use xlink:href="#m32c64ac033" x="796.942404" y="298.64" style="stroke: #000000; stroke-width: 0.6"/>
      </g>
     </g>
    </g>
    <g id="xtick_49">
     <g id="line2d_82">
      <g>
       <use xlink:href="#m32c64ac033" x="804.064263" y="298.64" style="stroke: #000000; stroke-width: 0.6"/>
      </g>
     </g>
    </g>
    <g id="xtick_50">
     <g id="line2d_83">
      <g>
       <use xlink:href="#m32c64ac033" x="810.233497" y="298.64" style="stroke: #000000; stroke-width: 0.6"/>
      </g>
     </g>
    </g>
    <g id="xtick_51">
     <g id="line2d_84">
      <g>
       <use xlink:href="#m32c64ac033" x="815.675147" y="298.64" style="stroke: #000000; stroke-width: 0.6"/>
      </g>
     </g>
    </g>
    <g id="text_15">
     <!-- Kanallänge L (µm) -->
     <g transform="translate(610.737649 327.676406) scale(0.11 -0.11)">
      <defs>
       <path id="DejaVuSans-e4" d="M 2194 1759 
Q 1497 1759 1228 1600 
Q 959 1441 959 1056 
Q 959 750 1161 570 
Q 1363 391 1709 391 
Q 2188 391 2477 730 
Q 2766 1069 2766 1631 
L 2766 1759 
L 2194 1759 
z
M 3341 1997 
L 3341 0 
L 2766 0 
L 2766 531 
Q 2569 213 2275 61 
Q 1981 -91 1556 -91 
Q 1019 -91 701 211 
Q 384 513 384 1019 
Q 384 1609 779 1909 
Q 1175 2209 1959 2209 
L 2766 2209 
L 2766 2266 
Q 2766 2663 2505 2880 
Q 2244 3097 1772 3097 
Q 1472 3097 1187 3025 
Q 903 2953 641 2809 
L 641 3341 
Q 956 3463 1253 3523 
Q 1550 3584 1831 3584 
Q 2591 3584 2966 3190 
Q 3341 2797 3341 1997 
z
M 2150 4850 
L 2784 4850 
L 2784 4219 
L 2150 4219 
L 2150 4850 
z
M 928 4850 
L 1562 4850 
L 1562 4219 
L 928 4219 
L 928 4850 
z
" transform="scale(0.015625)"/>
       <path id="DejaVuSans-67" d="M 2906 1791 
Q 2906 2416 2648 2759 
Q 2391 3103 1925 3103 
Q 1463 3103 1205 2759 
Q 947 2416 947 1791 
Q 947 1169 1205 825 
Q 1463 481 1925 481 
Q 2391 481 2648 825 
Q 2906 1169 2906 1791 
z
M 3481 434 
Q 3481 -459 3084 -895 
Q 2688 -1331 1869 -1331 
Q 1566 -1331 1297 -1286 
Q 1028 -1241 775 -1147 
L 775 -588 
Q 1028 -725 1275 -790 
Q 1522 -856 1778 -856 
Q 2344 -856 2625 -561 
Q 2906 -266 2906 331 
L 2906 616 
Q 2728 306 2450 153 
Q 2172 0 1784 0 
Q 1141 0 747 490 
Q 353 981 353 1791 
Q 353 2603 747 3093 
Q 1141 3584 1784 3584 
Q 2172 3584 2450 3431 
Q 2728 3278 2906 2969 
L 2906 3500 
L 3481 3500 
L 3481 434 
z
" transform="scale(0.015625)"/>
      </defs>
      <use xlink:href="#DejaVuSans-4b"/>
      <use xlink:href="#DejaVuSans-61" transform="translate(63.826172 0)"/>
      <use xlink:href="#DejaVuSans-6e" transform="translate(125.105469 0)"/>
      <use xlink:href="#DejaVuSans-61" transform="translate(188.484375 0)"/>
      <use xlink:href="#DejaVuSans-6c" transform="translate(249.763672 0)"/>
      <use xlink:href="#DejaVuSans-6c" transform="translate(277.546875 0)"/>
      <use xlink:href="#DejaVuSans-e4" transform="translate(305.330078 0)"/>
      <use xlink:href="#DejaVuSans-6e" transform="translate(366.609375 0)"/>
      <use xlink:href="#DejaVuSans-67" transform="translate(429.988281 0)"/>
      <use xlink:href="#DejaVuSans-65" transform="translate(493.464844 0)"/>
      <use xlink:href="#DejaVuSans-20" transform="translate(554.988281 0)"/>
      <use xlink:href="#DejaVuSans-4c" transform="translate(586.775391 0)"/>
      <use xlink:href="#DejaVuSans-20" transform="translate(642.488281 0)"/>
      <use xlink:href="#DejaVuSans-28" transform="translate(674.275391 0)"/>
      <use xlink:href="#DejaVuSans-b5" transform="translate(713.289062 0)"/>
      <use xlink:href="#DejaVuSans-6d" transform="translate(776.912109 0)"/>
      <use xlink:href="#DejaVuSans-29" transform="translate(874.324219 0)"/>
     </g>
    </g>
   </g>
   <g id="matplotlib.axis_4">
    <g id="ytick_22">
     <g id="line2d_85">
      <path d="M 485.44311 297.123277 
L 836.5 297.123277 
" clip-path="url(#pea379edd5c)" style="fill: none; stroke: #b0b0b0; stroke-opacity: 0.3; stroke-width: 0.8; stroke-linecap: square"/>
     </g>
     <g id="line2d_86">
      <g>
       <use xlink:href="#m8222b3f623" x="485.44311" y="297.123277" style="stroke: #000000; stroke-width: 0.8"/>
      </g>
     </g>
     <g id="text_16">
      <!-- $\mathdefault{10^{0}}$ -->
      <g transform="translate(460.84311 300.922496) scale(0.1 -0.1)">
       <use xlink:href="#DejaVuSans-31" transform="translate(0 0.765625)"/>
       <use xlink:href="#DejaVuSans-30" transform="translate(63.623047 0.765625)"/>
       <use xlink:href="#DejaVuSans-30" transform="translate(128.203125 39.046875) scale(0.7)"/>
      </g>
     </g>
    </g>
    <g id="ytick_23">
     <g id="line2d_87">
      <path d="M 485.44311 235.474793 
L 836.5 235.474793 
" clip-path="url(#pea379edd5c)" style="fill: none; stroke: #b0b0b0; stroke-opacity: 0.3; stroke-width: 0.8; stroke-linecap: square"/>
     </g>
     <g id="line2d_88">
      <g>
       <use xlink:href="#m8222b3f623" x="485.44311" y="235.474793" style="stroke: #000000; stroke-width: 0.8"/>
      </g>
     </g>
     <g id="text_17">
      <!-- $\mathdefault{10^{1}}$ -->
      <g transform="translate(460.84311 239.274011) scale(0.1 -0.1)">
       <use xlink:href="#DejaVuSans-31" transform="translate(0 0.684375)"/>
       <use xlink:href="#DejaVuSans-30" transform="translate(63.623047 0.684375)"/>
       <use xlink:href="#DejaVuSans-31" transform="translate(128.203125 38.965625) scale(0.7)"/>
      </g>
     </g>
    </g>
    <g id="ytick_24">
     <g id="line2d_89">
      <path d="M 485.44311 173.826308 
L 836.5 173.826308 
" clip-path="url(#pea379edd5c)" style="fill: none; stroke: #b0b0b0; stroke-opacity: 0.3; stroke-width: 0.8; stroke-linecap: square"/>
     </g>
     <g id="line2d_90">
      <g>
       <use xlink:href="#m8222b3f623" x="485.44311" y="173.826308" style="stroke: #000000; stroke-width: 0.8"/>
      </g>
     </g>
     <g id="text_18">
      <!-- $\mathdefault{10^{2}}$ -->
      <g transform="translate(460.84311 177.625526) scale(0.1 -0.1)">
       <use xlink:href="#DejaVuSans-31" transform="translate(0 0.765625)"/>
       <use xlink:href="#DejaVuSans-30" transform="translate(63.623047 0.765625)"/>
       <use xlink:href="#DejaVuSans-32" transform="translate(128.203125 39.046875) scale(0.7)"/>
      </g>
     </g>
    </g>
    <g id="ytick_25">
     <g id="line2d_91">
      <path d="M 485.44311 112.177823 
L 836.5 112.177823 
" clip-path="url(#pea379edd5c)" style="fill: none; stroke: #b0b0b0; stroke-opacity: 0.3; stroke-width: 0.8; stroke-linecap: square"/>
     </g>
     <g id="line2d_92">
      <g>
       <use xlink:href="#m8222b3f623" x="485.44311" y="112.177823" style="stroke: #000000; stroke-width: 0.8"/>
      </g>
     </g>
     <g id="text_19">
      <!-- $\mathdefault{10^{3}}$ -->
      <g transform="translate(460.84311 115.977042) scale(0.1 -0.1)">
       <defs>
        <path id="DejaVuSans-33" d="M 2597 2516 
Q 3050 2419 3304 2112 
Q 3559 1806 3559 1356 
Q 3559 666 3084 287 
Q 2609 -91 1734 -91 
Q 1441 -91 1130 -33 
Q 819 25 488 141 
L 488 750 
Q 750 597 1062 519 
Q 1375 441 1716 441 
Q 2309 441 2620 675 
Q 2931 909 2931 1356 
Q 2931 1769 2642 2001 
Q 2353 2234 1838 2234 
L 1294 2234 
L 1294 2753 
L 1863 2753 
Q 2328 2753 2575 2939 
Q 2822 3125 2822 3475 
Q 2822 3834 2567 4026 
Q 2313 4219 1838 4219 
Q 1578 4219 1281 4162 
Q 984 4106 628 3988 
L 628 4550 
Q 988 4650 1302 4700 
Q 1616 4750 1894 4750 
Q 2613 4750 3031 4423 
Q 3450 4097 3450 3541 
Q 3450 3153 3228 2886 
Q 3006 2619 2597 2516 
z
" transform="scale(0.015625)"/>
       </defs>
       <use xlink:href="#DejaVuSans-31" transform="translate(0 0.765625)"/>
       <use xlink:href="#DejaVuSans-30" transform="translate(63.623047 0.765625)"/>
       <use xlink:href="#DejaVuSans-33" transform="translate(128.203125 39.046875) scale(0.7)"/>
      </g>
     </g>
    </g>
    <g id="ytick_26">
     <g id="line2d_93">
      <g>
       <use xlink:href="#m81d5e160e5" x="485.44311" y="278.565234" style="stroke: #000000; stroke-width: 0.6"/>
      </g>
     </g>
    </g>
    <g id="ytick_27">
     <g id="line2d_94">
      <g>
       <use xlink:href="#m81d5e160e5" x="485.44311" y="267.709475" style="stroke: #000000; stroke-width: 0.6"/>
      </g>
     </g>
    </g>
    <g id="ytick_28">
     <g id="line2d_95">
      <g>
       <use xlink:href="#m81d5e160e5" x="485.44311" y="260.007191" style="stroke: #000000; stroke-width: 0.6"/>
      </g>
     </g>
    </g>
    <g id="ytick_29">
     <g id="line2d_96">
      <g>
       <use xlink:href="#m81d5e160e5" x="485.44311" y="254.032836" style="stroke: #000000; stroke-width: 0.6"/>
      </g>
     </g>
    </g>
    <g id="ytick_30">
     <g id="line2d_97">
      <g>
       <use xlink:href="#m81d5e160e5" x="485.44311" y="249.151432" style="stroke: #000000; stroke-width: 0.6"/>
      </g>
     </g>
    </g>
    <g id="ytick_31">
     <g id="line2d_98">
      <g>
       <use xlink:href="#m81d5e160e5" x="485.44311" y="245.024264" style="stroke: #000000; stroke-width: 0.6"/>
      </g>
     </g>
    </g>
    <g id="ytick_32">
     <g id="line2d_99">
      <g>
       <use xlink:href="#m81d5e160e5" x="485.44311" y="241.449148" style="stroke: #000000; stroke-width: 0.6"/>
      </g>
     </g>
    </g>
    <g id="ytick_33">
     <g id="line2d_100">
      <g>
       <use xlink:href="#m81d5e160e5" x="485.44311" y="238.295672" style="stroke: #000000; stroke-width: 0.6"/>
      </g>
     </g>
    </g>
    <g id="ytick_34">
     <g id="line2d_101">
      <g>
       <use xlink:href="#m81d5e160e5" x="485.44311" y="216.916749" style="stroke: #000000; stroke-width: 0.6"/>
      </g>
     </g>
    </g>
    <g id="ytick_35">
     <g id="line2d_102">
      <g>
       <use xlink:href="#m81d5e160e5" x="485.44311" y="206.06099" style="stroke: #000000; stroke-width: 0.6"/>
      </g>
     </g>
    </g>
    <g id="ytick_36">
     <g id="line2d_103">
      <g>
       <use xlink:href="#m81d5e160e5" x="485.44311" y="198.358706" style="stroke: #000000; stroke-width: 0.6"/>
      </g>
     </g>
    </g>
    <g id="ytick_37">
     <g id="line2d_104">
      <g>
       <use xlink:href="#m81d5e160e5" x="485.44311" y="192.384351" style="stroke: #000000; stroke-width: 0.6"/>
      </g>
     </g>
    </g>
    <g id="ytick_38">
     <g id="line2d_105">
      <g>
       <use xlink:href="#m81d5e160e5" x="485.44311" y="187.502947" style="stroke: #000000; stroke-width: 0.6"/>
      </g>
     </g>
    </g>
    <g id="ytick_39">
     <g id="line2d_106">
      <g>
       <use xlink:href="#m81d5e160e5" x="485.44311" y="183.375779" style="stroke: #000000; stroke-width: 0.6"/>
      </g>
     </g>
    </g>
    <g id="ytick_40">
     <g id="line2d_107">
      <g>
       <use xlink:href="#m81d5e160e5" x="485.44311" y="179.800663" style="stroke: #000000; stroke-width: 0.6"/>
      </g>
     </g>
    </g>
    <g id="ytick_41">
     <g id="line2d_108">
      <g>
       <use xlink:href="#m81d5e160e5" x="485.44311" y="176.647188" style="stroke: #000000; stroke-width: 0.6"/>
      </g>
     </g>
    </g>
    <g id="ytick_42">
     <g id="line2d_109">
      <g>
       <use xlink:href="#m81d5e160e5" x="485.44311" y="155.268265" style="stroke: #000000; stroke-width: 0.6"/>
      </g>
     </g>
    </g>
    <g id="ytick_43">
     <g id="line2d_110">
      <g>
       <use xlink:href="#m81d5e160e5" x="485.44311" y="144.412505" style="stroke: #000000; stroke-width: 0.6"/>
      </g>
     </g>
    </g>
    <g id="ytick_44">
     <g id="line2d_111">
      <g>
       <use xlink:href="#m81d5e160e5" x="485.44311" y="136.710221" style="stroke: #000000; stroke-width: 0.6"/>
      </g>
     </g>
    </g>
    <g id="ytick_45">
     <g id="line2d_112">
      <g>
       <use xlink:href="#m81d5e160e5" x="485.44311" y="130.735866" style="stroke: #000000; stroke-width: 0.6"/>
      </g>
     </g>
    </g>
    <g id="ytick_46">
     <g id="line2d_113">
      <g>
       <use xlink:href="#m81d5e160e5" x="485.44311" y="125.854462" style="stroke: #000000; stroke-width: 0.6"/>
      </g>
     </g>
    </g>
    <g id="ytick_47">
     <g id="line2d_114">
      <g>
       <use xlink:href="#m81d5e160e5" x="485.44311" y="121.727294" style="stroke: #000000; stroke-width: 0.6"/>
      </g>
     </g>
    </g>
    <g id="ytick_48">
     <g id="line2d_115">
      <g>
       <use xlink:href="#m81d5e160e5" x="485.44311" y="118.152178" style="stroke: #000000; stroke-width: 0.6"/>
      </g>
     </g>
    </g>
    <g id="ytick_49">
     <g id="line2d_116">
      <g>
       <use xlink:href="#m81d5e160e5" x="485.44311" y="114.998703" style="stroke: #000000; stroke-width: 0.6"/>
      </g>
     </g>
    </g>
    <g id="text_20">
     <!-- Kanalwiderstand R (MΩ) -->
     <g transform="translate(454.555454 263.274922) rotate(-90) scale(0.11 -0.11)">
      <use xlink:href="#DejaVuSans-4b"/>
      <use xlink:href="#DejaVuSans-61" transform="translate(63.826172 0)"/>
      <use xlink:href="#DejaVuSans-6e" transform="translate(125.105469 0)"/>
      <use xlink:href="#DejaVuSans-61" transform="translate(188.484375 0)"/>
      <use xlink:href="#DejaVuSans-6c" transform="translate(249.763672 0)"/>
      <use xlink:href="#DejaVuSans-77" transform="translate(277.546875 0)"/>
      <use xlink:href="#DejaVuSans-69" transform="translate(359.333984 0)"/>
      <use xlink:href="#DejaVuSans-64" transform="translate(387.117188 0)"/>
      <use xlink:href="#DejaVuSans-65" transform="translate(450.59375 0)"/>
      <use xlink:href="#DejaVuSans-72" transform="translate(512.117188 0)"/>
      <use xlink:href="#DejaVuSans-73" transform="translate(553.230469 0)"/>
      <use xlink:href="#DejaVuSans-74" transform="translate(605.330078 0)"/>
      <use xlink:href="#DejaVuSans-61" transform="translate(644.539062 0)"/>
      <use xlink:href="#DejaVuSans-6e" transform="translate(705.818359 0)"/>
      <use xlink:href="#DejaVuSans-64" transform="translate(769.197266 0)"/>
      <use xlink:href="#DejaVuSans-20" transform="translate(832.673828 0)"/>
      <use xlink:href="#DejaVuSans-52" transform="translate(864.460938 0)"/>
      <use xlink:href="#DejaVuSans-20" transform="translate(933.943359 0)"/>
      <use xlink:href="#DejaVuSans-28" transform="translate(965.730469 0)"/>
      <use xlink:href="#DejaVuSans-4d" transform="translate(1004.744141 0)"/>
      <use xlink:href="#DejaVuSans-3a9" transform="translate(1091.023438 0)"/>
      <use xlink:href="#DejaVuSans-29" transform="translate(1167.439453 0)"/>
     </g>
    </g>
   </g>
   <g id="line2d_117">
    <path d="M 501.400242 289.392727 
L 506.809439 286.258059 
L 512.218636 283.12339 
L 517.627833 279.988721 
L 523.03703 276.854052 
L 528.446227 273.719384 
L 533.855424 270.584715 
L 539.264621 267.450046 
L 544.673818 264.315378 
L 550.083015 261.180709 
L 555.492212 258.04604 
L 560.901409 254.911371 
L 566.310607 251.776703 
L 571.719804 248.642034 
L 577.129001 245.507365 
L 582.538198 242.372696 
L 587.947395 239.238028 
L 593.356592 236.103359 
L 598.765789 232.96869 
L 604.174986 229.834022 
L 609.584183 226.699353 
L 614.99338 223.564684 
L 620.402577 220.430015 
L 625.811774 217.295347 
L 631.220971 214.160678 
L 636.630168 211.026009 
L 642.039365 207.891341 
L 647.448563 204.756672 
L 652.85776 201.622003 
L 658.266957 198.487334 
L 663.676154 195.352666 
L 669.085351 192.217997 
L 674.494548 189.083328 
L 679.903745 185.948659 
L 685.312942 182.813991 
L 690.722139 179.679322 
L 696.131336 176.544653 
L 701.540533 173.409985 
L 706.94973 170.275316 
L 712.358927 167.140647 
L 717.768124 164.005978 
L 723.177321 160.87131 
L 728.586519 157.736641 
L 733.995716 154.601972 
L 739.404913 151.467304 
L 744.81411 148.332635 
L 750.223307 145.197966 
L 755.632504 142.063297 
L 761.041701 138.928629 
L 766.450898 135.79396 
L 771.860095 132.659291 
L 777.269292 129.524622 
L 782.678489 126.389954 
L 788.087686 123.255285 
L 793.496883 120.120616 
L 798.90608 116.985948 
L 804.315277 113.851279 
L 809.724475 110.71661 
L 815.133672 107.581941 
L 820.542869 104.447273 
" clip-path="url(#pea379edd5c)" style="fill: none; stroke: #457b9d; stroke-width: 2; stroke-linecap: square"/>
   </g>
   <g id="line2d_118">
    <path d="M 607.781117 298.64 
L 607.781117 95.2 
" clip-path="url(#pea379edd5c)" style="fill: none; stroke-dasharray: 7.4,3.2; stroke-dashoffset: 0; stroke: #808080; stroke-opacity: 0.7; stroke-width: 2"/>
   </g>
   <g id="patch_9">
    <path d="M 485.44311 298.64 
L 485.44311 95.2 
" style="fill: none; stroke: #000000; stroke-width: 0.8; stroke-linejoin: miter; stroke-linecap: square"/>
   </g>
   <g id="patch_10">
    <path d="M 836.5 298.64 
L 836.5 95.2 
" style="fill: none; stroke: #000000; stroke-width: 0.8; stroke-linejoin: miter; stroke-linecap: square"/>
   </g>
   <g id="patch_11">
    <path d="M 485.44311 298.64 
L 836.5 298.64 
" style="fill: none; stroke: #000000; stroke-width: 0.8; stroke-linejoin: miter; stroke-linecap: square"/>
   </g>
   <g id="patch_12">
    <path d="M 485.44311 95.2 
L 836.5 95.2 
" style="fill: none; stroke: #000000; stroke-width: 0.8; stroke-linejoin: miter; stroke-linecap: square"/>
   </g>
   <g id="text_21">
    <!-- R(L): Widerstand vs. Kanallänge -->
    <g transform="translate(564.953743 75.762625) scale(0.12 -0.12)">
     <use xlink:href="#DejaVuSans-52"/>
     <use xlink:href="#DejaVuSans-28" transform="translate(69.482422 0)"/>
     <use xlink:href="#DejaVuSans-4c" transform="translate(108.496094 0)"/>
     <use xlink:href="#DejaVuSans-29" transform="translate(164.208984 0)"/>
     <use xlink:href="#DejaVuSans-3a" transform="translate(203.222656 0)"/>
     <use xlink:href="#DejaVuSans-20" transform="translate(236.914062 0)"/>
     <use xlink:href="#DejaVuSans-57" transform="translate(268.701172 0)"/>
     <use xlink:href="#DejaVuSans-69" transform="translate(365.328125 0)"/>
     <use xlink:href="#DejaVuSans-64" transform="translate(393.111328 0)"/>
     <use xlink:href="#DejaVuSans-65" transform="translate(456.587891 0)"/>
     <use xlink:href="#DejaVuSans-72" transform="translate(518.111328 0)"/>
     <use xlink:href="#DejaVuSans-73" transform="translate(559.224609 0)"/>
     <use xlink:href="#DejaVuSans-74" transform="translate(611.324219 0)"/>
     <use xlink:href="#DejaVuSans-61" transform="translate(650.533203 0)"/>
     <use xlink:href="#DejaVuSans-6e" transform="translate(711.8125 0)"/>
     <use xlink:href="#DejaVuSans-64" transform="translate(775.191406 0)"/>
     <use xlink:href="#DejaVuSans-20" transform="translate(838.667969 0)"/>
     <use xlink:href="#DejaVuSans-76" transform="translate(870.455078 0)"/>
     <use xlink:href="#DejaVuSans-73" transform="translate(929.634766 0)"/>
     <use xlink:href="#DejaVuSans-2e" transform="translate(981.734375 0)"/>
     <use xlink:href="#DejaVuSans-20" transform="translate(1013.521484 0)"/>
     <use xlink:href="#DejaVuSans-4b" transform="translate(1045.308594 0)"/>
     <use xlink:href="#DejaVuSans-61" transform="translate(1109.134766 0)"/>
     <use xlink:href="#DejaVuSans-6e" transform="translate(1170.414062 0)"/>
     <use xlink:href="#DejaVuSans-61" transform="translate(1233.792969 0)"/>
     <use xlink:href="#DejaVuSans-6c" transform="translate(1295.072266 0)"/>
     <use xlink:href="#DejaVuSans-6c" transform="translate(1322.855469 0)"/>
     <use xlink:href="#DejaVuSans-e4" transform="translate(1350.638672 0)"/>
     <use xlink:href="#DejaVuSans-6e" transform="translate(1411.917969 0)"/>
     <use xlink:href="#DejaVuSans-67" transform="translate(1475.296875 0)"/>
     <use xlink:href="#DejaVuSans-65" transform="translate(1538.773438 0)"/>
    </g>
    <!-- (c=0.5 mol/l, A=100×100nm²) -->
    <g transform="translate(568.71218 89.2) scale(0.12 -0.12)">
     <defs>
      <path id="DejaVuSans-35" d="M 691 4666 
L 3169 4666 
L 3169 4134 
L 1269 4134 
L 1269 2991 
Q 1406 3038 1543 3061 
Q 1681 3084 1819 3084 
Q 2600 3084 3056 2656 
Q 3513 2228 3513 1497 
Q 3513 744 3044 326 
Q 2575 -91 1722 -91 
Q 1428 -91 1123 -41 
Q 819 9 494 109 
L 494 744 
Q 775 591 1075 516 
Q 1375 441 1709 441 
Q 2250 441 2565 725 
Q 2881 1009 2881 1497 
Q 2881 1984 2565 2268 
Q 2250 2553 1709 2553 
Q 1456 2553 1204 2497 
Q 953 2441 691 2322 
L 691 4666 
z
" transform="scale(0.015625)"/>
     </defs>
     <use xlink:href="#DejaVuSans-28"/>
     <use xlink:href="#DejaVuSans-63" transform="translate(39.013672 0)"/>
     <use xlink:href="#DejaVuSans-3d" transform="translate(93.994141 0)"/>
     <use xlink:href="#DejaVuSans-30" transform="translate(177.783203 0)"/>
     <use xlink:href="#DejaVuSans-2e" transform="translate(241.40625 0)"/>
     <use xlink:href="#DejaVuSans-35" transform="translate(273.193359 0)"/>
     <use xlink:href="#DejaVuSans-20" transform="translate(336.816406 0)"/>
     <use xlink:href="#DejaVuSans-6d" transform="translate(368.603516 0)"/>
     <use xlink:href="#DejaVuSans-6f" transform="translate(466.015625 0)"/>
     <use xlink:href="#DejaVuSans-6c" transform="translate(527.197266 0)"/>
     <use xlink:href="#DejaVuSans-2f" transform="translate(554.980469 0)"/>
     <use xlink:href="#DejaVuSans-6c" transform="translate(588.671875 0)"/>
     <use xlink:href="#DejaVuSans-2c" transform="translate(616.455078 0)"/>
     <use xlink:href="#DejaVuSans-20" transform="translate(648.242188 0)"/>
     <use xlink:href="#DejaVuSans-41" transform="translate(680.029297 0)"/>
     <use xlink:href="#DejaVuSans-3d" transform="translate(748.4375 0)"/>
     <use xlink:href="#DejaVuSans-31" transform="translate(832.226562 0)"/>
     <use xlink:href="#DejaVuSans-30" transform="translate(895.849609 0)"/>
     <use xlink:href="#DejaVuSans-30" transform="translate(959.472656 0)"/>
     <use xlink:href="#DejaVuSans-d7" transform="translate(1023.095703 0)"/>
     <use xlink:href="#DejaVuSans-31" transform="translate(1106.884766 0)"/>
     <use xlink:href="#DejaVuSans-30" transform="translate(1170.507812 0)"/>
     <use xlink:href="#DejaVuSans-30" transform="translate(1234.130859 0)"/>
     <use xlink:href="#DejaVuSans-6e" transform="translate(1297.753906 0)"/>
     <use xlink:href="#DejaVuSans-6d" transform="translate(1361.132812 0)"/>
     <use xlink:href="#DejaVuSans-b2" transform="translate(1458.544922 0)"/>
     <use xlink:href="#DejaVuSans-29" transform="translate(1498.632812 0)"/>
    </g>
   </g>
   <g id="legend_2">
    <g id="patch_13">
     <path d="M 491.74311 115.610313 
L 590.584204 115.610313 
Q 592.384204 115.610313 592.384204 113.810313 
L 592.384204 101.5 
Q 592.384204 99.7 590.584204 99.7 
L 491.74311 99.7 
Q 489.94311 99.7 489.94311 101.5 
L 489.94311 113.810313 
Q 489.94311 115.610313 491.74311 115.610313 
z
" style="fill: #ffffff; opacity: 0.8; stroke: #cccccc; stroke-linejoin: miter"/>
    </g>
    <g id="line2d_119">
     <path d="M 493.54311 106.988594 
L 502.54311 106.988594 
L 511.54311 106.988594 
" style="fill: none; stroke-dasharray: 7.4,3.2; stroke-dashoffset: 0; stroke: #808080; stroke-opacity: 0.7; stroke-width: 2"/>
    </g>
    <g id="text_22">
     <!-- L=1 µm (IoFET) -->
     <g transform="translate(518.74311 110.138594) scale(0.09 -0.09)">
      <defs>
       <path id="DejaVuSans-49" d="M 628 4666 
L 1259 4666 
L 1259 0 
L 628 0 
L 628 4666 
z
" transform="scale(0.015625)"/>
       <path id="DejaVuSans-46" d="M 628 4666 
L 3309 4666 
L 3309 4134 
L 1259 4134 
L 1259 2759 
L 3109 2759 
L 3109 2228 
L 1259 2228 
L 1259 0 
L 628 0 
L 628 4666 
z
" transform="scale(0.015625)"/>
       <path id="DejaVuSans-45" d="M 628 4666 
L 3578 4666 
L 3578 4134 
L 1259 4134 
L 1259 2753 
L 3481 2753 
L 3481 2222 
L 1259 2222 
L 1259 531 
L 3634 531 
L 3634 0 
L 628 0 
L 628 4666 
z
" transform="scale(0.015625)"/>
       <path id="DejaVuSans-54" d="M -19 4666 
L 3928 4666 
L 3928 4134 
L 2272 4134 
L 2272 0 
L 1638 0 
L 1638 4134 
L -19 4134 
L -19 4666 
z
" transform="scale(0.015625)"/>
      </defs>
      <use xlink:href="#DejaVuSans-4c"/>
      <use xlink:href="#DejaVuSans-3d" transform="translate(55.712891 0)"/>
      <use xlink:href="#DejaVuSans-31" transform="translate(139.501953 0)"/>
      <use xlink:href="#DejaVuSans-20" transform="translate(203.125 0)"/>
      <use xlink:href="#DejaVuSans-b5" transform="translate(234.912109 0)"/>
      <use xlink:href="#DejaVuSans-6d" transform="translate(298.535156 0)"/>
      <use xlink:href="#DejaVuSans-20" transform="translate(395.947266 0)"/>
      <use xlink:href="#DejaVuSans-28" transform="translate(427.734375 0)"/>
      <use xlink:href="#DejaVuSans-49" transform="translate(466.748047 0)"/>
      <use xlink:href="#DejaVuSans-6f" transform="translate(496.240234 0)"/>
      <use xlink:href="#DejaVuSans-46" transform="translate(557.421875 0)"/>
      <use xlink:href="#DejaVuSans-45" transform="translate(614.941406 0)"/>
      <use xlink:href="#DejaVuSans-54" transform="translate(678.125 0)"/>
      <use xlink:href="#DejaVuSans-29" transform="translate(739.208984 0)"/>
     </g>
    </g>
   </g>
  </g>
  <g id="text_23">
   <!-- Exp 03: Ionischer Kanalwiderstand R(c, L) -->
   <g transform="translate(278.836641 17.077969) scale(0.13 -0.13)">
    <defs>
     <path id="DejaVuSans-Bold-45" d="M 588 4666 
L 3834 4666 
L 3834 3756 
L 1791 3756 
L 1791 2888 
L 3713 2888 
L 3713 1978 
L 1791 1978 
L 1791 909 
L 3903 909 
L 3903 0 
L 588 0 
L 588 4666 
z
" transform="scale(0.015625)"/>
     <path id="DejaVuSans-Bold-78" d="M 1422 1791 
L 159 3500 
L 1344 3500 
L 2059 2463 
L 2784 3500 
L 3969 3500 
L 2706 1797 
L 4031 0 
L 2847 0 
L 2059 1106 
L 1281 0 
L 97 0 
L 1422 1791 
z
" transform="scale(0.015625)"/>
     <path id="DejaVuSans-Bold-70" d="M 1656 506 
L 1656 -1331 
L 538 -1331 
L 538 3500 
L 1656 3500 
L 1656 2988 
Q 1888 3294 2169 3439 
Q 2450 3584 2816 3584 
Q 3463 3584 3878 3070 
Q 4294 2556 4294 1747 
Q 4294 938 3878 423 
Q 3463 -91 2816 -91 
Q 2450 -91 2169 54 
Q 1888 200 1656 506 
z
M 2400 2772 
Q 2041 2772 1848 2508 
Q 1656 2244 1656 1747 
Q 1656 1250 1848 986 
Q 2041 722 2400 722 
Q 2759 722 2948 984 
Q 3138 1247 3138 1747 
Q 3138 2247 2948 2509 
Q 2759 2772 2400 2772 
z
" transform="scale(0.015625)"/>
     <path id="DejaVuSans-Bold-20" transform="scale(0.015625)"/>
     <path id="DejaVuSans-Bold-30" d="M 2944 2338 
Q 2944 3213 2780 3570 
Q 2616 3928 2228 3928 
Q 1841 3928 1675 3570 
Q 1509 3213 1509 2338 
Q 1509 1453 1675 1090 
Q 1841 728 2228 728 
Q 2613 728 2778 1090 
Q 2944 1453 2944 2338 
z
M 4147 2328 
Q 4147 1169 3647 539 
Q 3147 -91 2228 -91 
Q 1306 -91 806 539 
Q 306 1169 306 2328 
Q 306 3491 806 4120 
Q 1306 4750 2228 4750 
Q 3147 4750 3647 4120 
Q 4147 3491 4147 2328 
z
" transform="scale(0.015625)"/>
     <path id="DejaVuSans-Bold-33" d="M 2981 2516 
Q 3453 2394 3698 2092 
Q 3944 1791 3944 1325 
Q 3944 631 3412 270 
Q 2881 -91 1863 -91 
Q 1503 -91 1142 -33 
Q 781 25 428 141 
L 428 1069 
Q 766 900 1098 814 
Q 1431 728 1753 728 
Q 2231 728 2486 893 
Q 2741 1059 2741 1369 
Q 2741 1688 2480 1852 
Q 2219 2016 1709 2016 
L 1228 2016 
L 1228 2791 
L 1734 2791 
Q 2188 2791 2409 2933 
Q 2631 3075 2631 3366 
Q 2631 3634 2415 3781 
Q 2200 3928 1806 3928 
Q 1516 3928 1219 3862 
Q 922 3797 628 3669 
L 628 4550 
Q 984 4650 1334 4700 
Q 1684 4750 2022 4750 
Q 2931 4750 3382 4451 
Q 3834 4153 3834 3553 
Q 3834 3144 3618 2883 
Q 3403 2622 2981 2516 
z
" transform="scale(0.015625)"/>
     <path id="DejaVuSans-Bold-3a" d="M 716 3500 
L 1844 3500 
L 1844 2291 
L 716 2291 
L 716 3500 
z
M 716 1209 
L 1844 1209 
L 1844 0 
L 716 0 
L 716 1209 
z
" transform="scale(0.015625)"/>
     <path id="DejaVuSans-Bold-49" d="M 588 4666 
L 1791 4666 
L 1791 0 
L 588 0 
L 588 4666 
z
" transform="scale(0.015625)"/>
     <path id="DejaVuSans-Bold-6f" d="M 2203 2784 
Q 1831 2784 1636 2517 
Q 1441 2250 1441 1747 
Q 1441 1244 1636 976 
Q 1831 709 2203 709 
Q 2569 709 2762 976 
Q 2956 1244 2956 1747 
Q 2956 2250 2762 2517 
Q 2569 2784 2203 2784 
z
M 2203 3584 
Q 3106 3584 3614 3096 
Q 4122 2609 4122 1747 
Q 4122 884 3614 396 
Q 3106 -91 2203 -91 
Q 1297 -91 786 396 
Q 275 884 275 1747 
Q 275 2609 786 3096 
Q 1297 3584 2203 3584 
z
" transform="scale(0.015625)"/>
     <path id="DejaVuSans-Bold-6e" d="M 4056 2131 
L 4056 0 
L 2931 0 
L 2931 347 
L 2931 1631 
Q 2931 2084 2911 2256 
Q 2891 2428 2841 2509 
Q 2775 2619 2662 2680 
Q 2550 2741 2406 2741 
Q 2056 2741 1856 2470 
Q 1656 2200 1656 1722 
L 1656 0 
L 538 0 
L 538 3500 
L 1656 3500 
L 1656 2988 
Q 1909 3294 2193 3439 
Q 2478 3584 2822 3584 
Q 3428 3584 3742 3212 
Q 4056 2841 4056 2131 
z
" transform="scale(0.015625)"/>
     <path id="DejaVuSans-Bold-69" d="M 538 3500 
L 1656 3500 
L 1656 0 
L 538 0 
L 538 3500 
z
M 538 4863 
L 1656 4863 
L 1656 3950 
L 538 3950 
L 538 4863 
z
" transform="scale(0.015625)"/>
     <path id="DejaVuSans-Bold-73" d="M 3272 3391 
L 3272 2541 
Q 2913 2691 2578 2766 
Q 2244 2841 1947 2841 
Q 1628 2841 1473 2761 
Q 1319 2681 1319 2516 
Q 1319 2381 1436 2309 
Q 1553 2238 1856 2203 
L 2053 2175 
Q 2913 2066 3209 1816 
Q 3506 1566 3506 1031 
Q 3506 472 3093 190 
Q 2681 -91 1863 -91 
Q 1516 -91 1145 -36 
Q 775 19 384 128 
L 384 978 
Q 719 816 1070 734 
Q 1422 653 1784 653 
Q 2113 653 2278 743 
Q 2444 834 2444 1013 
Q 2444 1163 2330 1236 
Q 2216 1309 1875 1350 
L 1678 1375 
Q 931 1469 631 1722 
Q 331 1975 331 2491 
Q 331 3047 712 3315 
Q 1094 3584 1881 3584 
Q 2191 3584 2531 3537 
Q 2872 3491 3272 3391 
z
" transform="scale(0.015625)"/>
     <path id="DejaVuSans-Bold-63" d="M 3366 3391 
L 3366 2478 
Q 3138 2634 2908 2709 
Q 2678 2784 2431 2784 
Q 1963 2784 1702 2511 
Q 1441 2238 1441 1747 
Q 1441 1256 1702 982 
Q 1963 709 2431 709 
Q 2694 709 2930 787 
Q 3166 866 3366 1019 
L 3366 103 
Q 3103 6 2833 -42 
Q 2563 -91 2291 -91 
Q 1344 -91 809 395 
Q 275 881 275 1747 
Q 275 2613 809 3098 
Q 1344 3584 2291 3584 
Q 2566 3584 2833 3536 
Q 3100 3488 3366 3391 
z
" transform="scale(0.015625)"/>
     <path id="DejaVuSans-Bold-68" d="M 4056 2131 
L 4056 0 
L 2931 0 
L 2931 347 
L 2931 1625 
Q 2931 2084 2911 2256 
Q 2891 2428 2841 2509 
Q 2775 2619 2662 2680 
Q 2550 2741 2406 2741 
Q 2056 2741 1856 2470 
Q 1656 2200 1656 1722 
L 1656 0 
L 538 0 
L 538 4863 
L 1656 4863 
L 1656 2988 
Q 1909 3294 2193 3439 
Q 2478 3584 2822 3584 
Q 3428 3584 3742 3212 
Q 4056 2841 4056 2131 
z
" transform="scale(0.015625)"/>
     <path id="DejaVuSans-Bold-65" d="M 4031 1759 
L 4031 1441 
L 1416 1441 
Q 1456 1047 1700 850 
Q 1944 653 2381 653 
Q 2734 653 3104 758 
Q 3475 863 3866 1075 
L 3866 213 
Q 3469 63 3072 -14 
Q 2675 -91 2278 -91 
Q 1328 -91 801 392 
Q 275 875 275 1747 
Q 275 2603 792 3093 
Q 1309 3584 2216 3584 
Q 3041 3584 3536 3087 
Q 4031 2591 4031 1759 
z
M 2881 2131 
Q 2881 2450 2695 2645 
Q 2509 2841 2209 2841 
Q 1884 2841 1681 2658 
Q 1478 2475 1428 2131 
L 2881 2131 
z
" transform="scale(0.015625)"/>
     <path id="DejaVuSans-Bold-72" d="M 3138 2547 
Q 2991 2616 2845 2648 
Q 2700 2681 2553 2681 
Q 2122 2681 1889 2404 
Q 1656 2128 1656 1613 
L 1656 0 
L 538 0 
L 538 3500 
L 1656 3500 
L 1656 2925 
Q 1872 3269 2151 3426 
Q 2431 3584 2822 3584 
Q 2878 3584 2943 3579 
Q 3009 3575 3134 3559 
L 3138 2547 
z
" transform="scale(0.015625)"/>
     <path id="DejaVuSans-Bold-4b" d="M 588 4666 
L 1791 4666 
L 1791 2963 
L 3525 4666 
L 4922 4666 
L 2675 2456 
L 5153 0 
L 3647 0 
L 1791 1838 
L 1791 0 
L 588 0 
L 588 4666 
z
" transform="scale(0.015625)"/>
     <path id="DejaVuSans-Bold-61" d="M 2106 1575 
Q 1756 1575 1579 1456 
Q 1403 1338 1403 1106 
Q 1403 894 1545 773 
Q 1688 653 1941 653 
Q 2256 653 2472 879 
Q 2688 1106 2688 1447 
L 2688 1575 
L 2106 1575 
z
M 3816 1997 
L 3816 0 
L 2688 0 
L 2688 519 
Q 2463 200 2181 54 
Q 1900 -91 1497 -91 
Q 953 -91 614 226 
Q 275 544 275 1050 
Q 275 1666 698 1953 
Q 1122 2241 2028 2241 
L 2688 2241 
L 2688 2328 
Q 2688 2594 2478 2717 
Q 2269 2841 1825 2841 
Q 1466 2841 1156 2769 
Q 847 2697 581 2553 
L 581 3406 
Q 941 3494 1303 3539 
Q 1666 3584 2028 3584 
Q 2975 3584 3395 3211 
Q 3816 2838 3816 1997 
z
" transform="scale(0.015625)"/>
     <path id="DejaVuSans-Bold-6c" d="M 538 4863 
L 1656 4863 
L 1656 0 
L 538 0 
L 538 4863 
z
" transform="scale(0.015625)"/>
     <path id="DejaVuSans-Bold-77" d="M 225 3500 
L 1313 3500 
L 1900 1088 
L 2491 3500 
L 3425 3500 
L 4013 1113 
L 4603 3500 
L 5691 3500 
L 4769 0 
L 3547 0 
L 2956 2406 
L 2369 0 
L 1147 0 
L 225 3500 
z
" transform="scale(0.015625)"/>
     <path id="DejaVuSans-Bold-64" d="M 2919 2988 
L 2919 4863 
L 4044 4863 
L 4044 0 
L 2919 0 
L 2919 506 
Q 2688 197 2409 53 
Q 2131 -91 1766 -91 
Q 1119 -91 703 423 
Q 288 938 288 1747 
Q 288 2556 703 3070 
Q 1119 3584 1766 3584 
Q 2128 3584 2408 3439 
Q 2688 3294 2919 2988 
z
M 2181 722 
Q 2541 722 2730 984 
Q 2919 1247 2919 1747 
Q 2919 2247 2730 2509 
Q 2541 2772 2181 2772 
Q 1825 2772 1636 2509 
Q 1447 2247 1447 1747 
Q 1447 1247 1636 984 
Q 1825 722 2181 722 
z
" transform="scale(0.015625)"/>
     <path id="DejaVuSans-Bold-74" d="M 1759 4494 
L 1759 3500 
L 2913 3500 
L 2913 2700 
L 1759 2700 
L 1759 1216 
Q 1759 972 1856 886 
Q 1953 800 2241 800 
L 2816 800 
L 2816 0 
L 1856 0 
Q 1194 0 917 276 
Q 641 553 641 1216 
L 641 2700 
L 84 2700 
L 84 3500 
L 641 3500 
L 641 4494 
L 1759 4494 
z
" transform="scale(0.015625)"/>
     <path id="DejaVuSans-Bold-52" d="M 2297 2597 
Q 2675 2597 2839 2737 
Q 3003 2878 3003 3200 
Q 3003 3519 2839 3656 
Q 2675 3794 2297 3794 
L 1791 3794 
L 1791 2597 
L 2297 2597 
z
M 1791 1766 
L 1791 0 
L 588 0 
L 588 4666 
L 2425 4666 
Q 3347 4666 3776 4356 
Q 4206 4047 4206 3378 
Q 4206 2916 3982 2619 
Q 3759 2322 3309 2181 
Q 3556 2125 3751 1926 
Q 3947 1728 4147 1325 
L 4800 0 
L 3519 0 
L 2950 1159 
Q 2778 1509 2601 1637 
Q 2425 1766 2131 1766 
L 1791 1766 
z
" transform="scale(0.015625)"/>
     <path id="DejaVuSans-Bold-28" d="M 2413 -844 
L 1484 -844 
Q 1006 -72 778 623 
Q 550 1319 550 2003 
Q 550 2688 779 3389 
Q 1009 4091 1484 4856 
L 2413 4856 
Q 2013 4116 1813 3408 
Q 1613 2700 1613 2009 
Q 1613 1319 1811 609 
Q 2009 -100 2413 -844 
z
" transform="scale(0.015625)"/>
     <path id="DejaVuSans-Bold-2c" d="M 653 1209 
L 1778 1209 
L 1778 256 
L 1006 -909 
L 341 -909 
L 653 256 
L 653 1209 
z
" transform="scale(0.015625)"/>
     <path id="DejaVuSans-Bold-4c" d="M 588 4666 
L 1791 4666 
L 1791 909 
L 3903 909 
L 3903 0 
L 588 0 
L 588 4666 
z
" transform="scale(0.015625)"/>
     <path id="DejaVuSans-Bold-29" d="M 513 -844 
Q 913 -100 1113 609 
Q 1313 1319 1313 2009 
Q 1313 2700 1113 3408 
Q 913 4116 513 4856 
L 1441 4856 
Q 1916 4091 2145 3389 
Q 2375 2688 2375 2003 
Q 2375 1319 2147 623 
Q 1919 -72 1441 -844 
L 513 -844 
z
" transform="scale(0.015625)"/>
    </defs>
    <use xlink:href="#DejaVuSans-Bold-45"/>
    <use xlink:href="#DejaVuSans-Bold-78" transform="translate(68.310547 0)"/>
    <use xlink:href="#DejaVuSans-Bold-70" transform="translate(132.8125 0)"/>
    <use xlink:href="#DejaVuSans-Bold-20" transform="translate(204.394531 0)"/>
    <use xlink:href="#DejaVuSans-Bold-30" transform="translate(239.208984 0)"/>
    <use xlink:href="#DejaVuSans-Bold-33" transform="translate(308.789062 0)"/>
    <use xlink:href="#DejaVuSans-Bold-3a" transform="translate(378.369141 0)"/>
    <use xlink:href="#DejaVuSans-Bold-20" transform="translate(418.359375 0)"/>
    <use xlink:href="#DejaVuSans-Bold-49" transform="translate(453.173828 0)"/>
    <use xlink:href="#DejaVuSans-Bold-6f" transform="translate(490.380859 0)"/>
    <use xlink:href="#DejaVuSans-Bold-6e" transform="translate(559.082031 0)"/>
    <use xlink:href="#DejaVuSans-Bold-69" transform="translate(630.273438 0)"/>
    <use xlink:href="#DejaVuSans-Bold-73" transform="translate(664.550781 0)"/>
    <use xlink:href="#DejaVuSans-Bold-63" transform="translate(724.072266 0)"/>
    <use xlink:href="#DejaVuSans-Bold-68" transform="translate(783.349609 0)"/>
    <use xlink:href="#DejaVuSans-Bold-65" transform="translate(854.541016 0)"/>
    <use xlink:href="#DejaVuSans-Bold-72" transform="translate(922.363281 0)"/>
    <use xlink:href="#DejaVuSans-Bold-20" transform="translate(971.679688 0)"/>
    <use xlink:href="#DejaVuSans-Bold-4b" transform="translate(1006.494141 0)"/>
    <use xlink:href="#DejaVuSans-Bold-61" transform="translate(1083.984375 0)"/>
    <use xlink:href="#DejaVuSans-Bold-6e" transform="translate(1151.464844 0)"/>
    <use xlink:href="#DejaVuSans-Bold-61" transform="translate(1222.65625 0)"/>
    <use xlink:href="#DejaVuSans-Bold-6c" transform="translate(1290.136719 0)"/>
    <use xlink:href="#DejaVuSans-Bold-77" transform="translate(1324.414062 0)"/>
    <use xlink:href="#DejaVuSans-Bold-69" transform="translate(1416.796875 0)"/>
    <use xlink:href="#DejaVuSans-Bold-64" transform="translate(1451.074219 0)"/>
    <use xlink:href="#DejaVuSans-Bold-65" transform="translate(1522.65625 0)"/>
    <use xlink:href="#DejaVuSans-Bold-72" transform="translate(1590.478516 0)"/>
    <use xlink:href="#DejaVuSans-Bold-73" transform="translate(1639.794922 0)"/>
    <use xlink:href="#DejaVuSans-Bold-74" transform="translate(1699.316406 0)"/>
    <use xlink:href="#DejaVuSans-Bold-61" transform="translate(1747.119141 0)"/>
    <use xlink:href="#DejaVuSans-Bold-6e" transform="translate(1814.599609 0)"/>
    <use xlink:href="#DejaVuSans-Bold-64" transform="translate(1885.791016 0)"/>
    <use xlink:href="#DejaVuSans-Bold-20" transform="translate(1957.373047 0)"/>
    <use xlink:href="#DejaVuSans-Bold-52" transform="translate(1992.1875 0)"/>
    <use xlink:href="#DejaVuSans-Bold-28" transform="translate(2069.189453 0)"/>
    <use xlink:href="#DejaVuSans-Bold-63" transform="translate(2114.892578 0)"/>
    <use xlink:href="#DejaVuSans-Bold-2c" transform="translate(2174.169922 0)"/>
    <use xlink:href="#DejaVuSans-Bold-20" transform="translate(2212.158203 0)"/>
    <use xlink:href="#DejaVuSans-Bold-4c" transform="translate(2246.972656 0)"/>
    <use xlink:href="#DejaVuSans-Bold-29" transform="translate(2310.693359 0)"/>
   </g>
  </g>
 </g>
 <defs>
  <clipPath id="p1f6a82a669">
   <rect x="67.122798" y="95.2" width="351.05689" height="203.44"/>
  </clipPath>
  <clipPath id="pea379edd5c">
   <rect x="485.44311" y="95.2" width="351.05689" height="203.44"/>
  </clipPath>
 </defs>
</svg>
