<?xml version="1.0" encoding="utf-8" standalone="no"?>
<!DOCTYPE svg PUBLIC "-//W3C//DTD SVG 1.1//EN"
  "http://www.w3.org/Graphics/SVG/1.1/DTD/svg11.dtd">
<svg xmlns:xlink="http://www.w3.org/1999/xlink" width="864pt" height="360pt" viewBox="0 0 864 360" xmlns="http://www.w3.org/2000/svg" version="1.1">
 <metadata>
  <rdf:RDF xmlns:dc="http://purl.org/dc/elements/1.1/" xmlns:cc="http://creativecommons.org/ns#" xmlns:rdf="http://www.w3.org/1999/02/22-rdf-syntax-ns#">
   <cc:Work>
    <dc:type rdf:resource="http://purl.org/dc/dcmitype/StillImage"/>
    <dc:date>2026-02-27T22:39:36.968911</dc:date>
    <dc:format>image/svg+xml</dc:format>
    <dc:creator>
     <cc:Agent>
      <dc:title>Matplotlib v3.10.8, https://matplotlib.org/</dc:title>
     </cc:Agent>
    </dc:creator>
   </cc:Work>
  </rdf:RDF>
 </metadata>
 <defs>
  <style type="text/css">*{stroke-linejoin: round; stroke-linecap: butt}</style>
 </defs>
 <g id="figure_1">
  <g id="patch_1">
   <path d="M 0 360 
L 864 360 
L 864 0 
L 0 0 
z
" style="fill: #ffffff"/>
  </g>
  <g id="axes_1">
   <g id="patch_2">
    <path d="M 68.35 299.9 
L 424.507812 299.9 
L 424.507812 82 
L 68.35 82 
z
" style="fill: #ffffff"/>
   </g>
   <g id="matplotlib.axis_1">
    <g id="xtick_1">
     <g id="line2d_1">
      <path d="M 84.538991 299.9 
L 84.538991 82 
" clip-path="url(#pdea5704357)" style="fill: none; stroke: #b0b0b0; stroke-opacity: 0.3; stroke-width: 0.8; stroke-linecap: square"/>
     </g>
     <g id="line2d_2">
      <defs>
       <path id="m4693939c43" d="M 0 0 
L 0 3.5 
" style="stroke: #000000; stroke-width: 0.8"/>
      </defs>
      <g>
       <use xlink:href="#m4693939c43" x="84.538991" y="299.9" style="stroke: #000000; stroke-width: 0.8"/>
      </g>
     </g>
     <g id="text_1">
      <!-- 0 -->
      <g transform="translate(81.357741 314.498438) scale(0.1 -0.1)">
       <defs>
        <path id="DejaVuSans-30" d="M 2034 4250 
Q 1547 4250 1301 3770 
Q 1056 3291 1056 2328 
Q 1056 1369 1301 889 
Q 1547 409 2034 409 
Q 2525 409 2770 889 
Q 3016 1369 3016 2328 
Q 3016 3291 2770 3770 
Q 2525 4250 2034 4250 
z
M 2034 4750 
Q 2819 4750 3233 4129 
Q 3647 3509 3647 2328 
Q 3647 1150 3233 529 
Q 2819 -91 2034 -91 
Q 1250 -91 836 529 
Q 422 1150 422 2328 
Q 422 3509 836 4129 
Q 1250 4750 2034 4750 
z
" transform="scale(0.015625)"/>
       </defs>
       <use xlink:href="#DejaVuSans-30"/>
      </g>
     </g>
    </g>
    <g id="xtick_2">
     <g id="line2d_3">
      <path d="M 149.294957 299.9 
L 149.294957 82 
" clip-path="url(#pdea5704357)" style="fill: none; stroke: #b0b0b0; stroke-opacity: 0.3; stroke-width: 0.8; stroke-linecap: square"/>
     </g>
     <g id="line2d_4">
      <g>
       <use xlink:href="#m4693939c43" x="149.294957" y="299.9" style="stroke: #000000; stroke-width: 0.8"/>
      </g>
     </g>
     <g id="text_2">
      <!-- 1 -->
      <g transform="translate(146.113707 314.498438) scale(0.1 -0.1)">
       <defs>
        <path id="DejaVuSans-31" d="M 794 531 
L 1825 531 
L 1825 4091 
L 703 3866 
L 703 4441 
L 1819 4666 
L 2450 4666 
L 2450 531 
L 3481 531 
L 3481 0 
L 794 0 
L 794 531 
z
" transform="scale(0.015625)"/>
       </defs>
       <use xlink:href="#DejaVuSans-31"/>
      </g>
     </g>
    </g>
    <g id="xtick_3">
     <g id="line2d_5">
      <path d="M 214.050923 299.9 
L 214.050923 82 
" clip-path="url(#pdea5704357)" style="fill: none; stroke: #b0b0b0; stroke-opacity: 0.3; stroke-width: 0.8; stroke-linecap: square"/>
     </g>
     <g id="line2d_6">
      <g>
       <use xlink:href="#m4693939c43" x="214.050923" y="299.9" style="stroke: #000000; stroke-width: 0.8"/>
      </g>
     </g>
     <g id="text_3">
      <!-- 2 -->
      <g transform="translate(210.869673 314.498438) scale(0.1 -0.1)">
       <defs>
        <path id="DejaVuSans-32" d="M 1228 531 
L 3431 531 
L 3431 0 
L 469 0 
L 469 531 
Q 828 903 1448 1529 
Q 2069 2156 2228 2338 
Q 2531 2678 2651 2914 
Q 2772 3150 2772 3378 
Q 2772 3750 2511 3984 
Q 2250 4219 1831 4219 
Q 1534 4219 1204 4116 
Q 875 4013 500 3803 
L 500 4441 
Q 881 4594 1212 4672 
Q 1544 4750 1819 4750 
Q 2544 4750 2975 4387 
Q 3406 4025 3406 3419 
Q 3406 3131 3298 2873 
Q 3191 2616 2906 2266 
Q 2828 2175 2409 1742 
Q 1991 1309 1228 531 
z
" transform="scale(0.015625)"/>
       </defs>
       <use xlink:href="#DejaVuSans-32"/>
      </g>
     </g>
    </g>
    <g id="xtick_4">
     <g id="line2d_7">
      <path d="M 278.806889 299.9 
L 278.806889 82 
" clip-path="url(#pdea5704357)" style="fill: none; stroke: #b0b0b0; stroke-opacity: 0.3; stroke-width: 0.8; stroke-linecap: square"/>
     </g>
     <g id="line2d_8">
      <g>
       <use xlink:href="#m4693939c43" x="278.806889" y="299.9" style="stroke: #000000; stroke-width: 0.8"/>
      </g>
     </g>
     <g id="text_4">
      <!-- 3 -->
      <g transform="translate(275.625639 314.498438) scale(0.1 -0.1)">
       <defs>
        <path id="DejaVuSans-33" d="M 2597 2516 
Q 3050 2419 3304 2112 
Q 3559 1806 3559 1356 
Q 3559 666 3084 287 
Q 2609 -91 1734 -91 
Q 1441 -91 1130 -33 
Q 819 25 488 141 
L 488 750 
Q 750 597 1062 519 
Q 1375 441 1716 441 
Q 2309 441 2620 675 
Q 2931 909 2931 1356 
Q 2931 1769 2642 2001 
Q 2353 2234 1838 2234 
L 1294 2234 
L 1294 2753 
L 1863 2753 
Q 2328 2753 2575 2939 
Q 2822 3125 2822 3475 
Q 2822 3834 2567 4026 
Q 2313 4219 1838 4219 
Q 1578 4219 1281 4162 
Q 984 4106 628 3988 
L 628 4550 
Q 988 4650 1302 4700 
Q 1616 4750 1894 4750 
Q 2613 4750 3031 4423 
Q 3450 4097 3450 3541 
Q 3450 3153 3228 2886 
Q 3006 2619 2597 2516 
z
" transform="scale(0.015625)"/>
       </defs>
       <use xlink:href="#DejaVuSans-33"/>
      </g>
     </g>
    </g>
    <g id="xtick_5">
     <g id="line2d_9">
      <path d="M 343.562855 299.9 
L 343.562855 82 
" clip-path="url(#pdea5704357)" style="fill: none; stroke: #b0b0b0; stroke-opacity: 0.3; stroke-width: 0.8; stroke-linecap: square"/>
     </g>
     <g id="line2d_10">
      <g>
       <use xlink:href="#m4693939c43" x="343.562855" y="299.9" style="stroke: #000000; stroke-width: 0.8"/>
      </g>
     </g>
     <g id="text_5">
      <!-- 4 -->
      <g transform="translate(340.381605 314.498438) scale(0.1 -0.1)">
       <defs>
        <path id="DejaVuSans-34" d="M 2419 4116 
L 825 1625 
L 2419 1625 
L 2419 4116 
z
M 2253 4666 
L 3047 4666 
L 3047 1625 
L 3713 1625 
L 3713 1100 
L 3047 1100 
L 3047 0 
L 2419 0 
L 2419 1100 
L 313 1100 
L 313 1709 
L 2253 4666 
z
" transform="scale(0.015625)"/>
       </defs>
       <use xlink:href="#DejaVuSans-34"/>
      </g>
     </g>
    </g>
    <g id="xtick_6">
     <g id="line2d_11">
      <path d="M 408.318821 299.9 
L 408.318821 82 
" clip-path="url(#pdea5704357)" style="fill: none; stroke: #b0b0b0; stroke-opacity: 0.3; stroke-width: 0.8; stroke-linecap: square"/>
     </g>
     <g id="line2d_12">
      <g>
       <use xlink:href="#m4693939c43" x="408.318821" y="299.9" style="stroke: #000000; stroke-width: 0.8"/>
      </g>
     </g>
     <g id="text_6">
      <!-- 5 -->
      <g transform="translate(405.137571 314.498438) scale(0.1 -0.1)">
       <defs>
        <path id="DejaVuSans-35" d="M 691 4666 
L 3169 4666 
L 3169 4134 
L 1269 4134 
L 1269 2991 
Q 1406 3038 1543 3061 
Q 1681 3084 1819 3084 
Q 2600 3084 3056 2656 
Q 3513 2228 3513 1497 
Q 3513 744 3044 326 
Q 2575 -91 1722 -91 
Q 1428 -91 1123 -41 
Q 819 9 494 109 
L 494 744 
Q 775 591 1075 516 
Q 1375 441 1709 441 
Q 2250 441 2565 725 
Q 2881 1009 2881 1497 
Q 2881 1984 2565 2268 
Q 2250 2553 1709 2553 
Q 1456 2553 1204 2497 
Q 953 2441 691 2322 
L 691 4666 
z
" transform="scale(0.015625)"/>
       </defs>
       <use xlink:href="#DejaVuSans-35"/>
      </g>
     </g>
    </g>
    <g id="text_7">
     <!-- Spannung V (V) -->
     <g transform="translate(203.328672 328.936406) scale(0.11 -0.11)">
      <defs>
       <path id="DejaVuSans-53" d="M 3425 4513 
L 3425 3897 
Q 3066 4069 2747 4153 
Q 2428 4238 2131 4238 
Q 1616 4238 1336 4038 
Q 1056 3838 1056 3469 
Q 1056 3159 1242 3001 
Q 1428 2844 1947 2747 
L 2328 2669 
Q 3034 2534 3370 2195 
Q 3706 1856 3706 1288 
Q 3706 609 3251 259 
Q 2797 -91 1919 -91 
Q 1588 -91 1214 -16 
Q 841 59 441 206 
L 441 856 
Q 825 641 1194 531 
Q 1563 422 1919 422 
Q 2459 422 2753 634 
Q 3047 847 3047 1241 
Q 3047 1584 2836 1778 
Q 2625 1972 2144 2069 
L 1759 2144 
Q 1053 2284 737 2584 
Q 422 2884 422 3419 
Q 422 4038 858 4394 
Q 1294 4750 2059 4750 
Q 2388 4750 2728 4690 
Q 3069 4631 3425 4513 
z
" transform="scale(0.015625)"/>
       <path id="DejaVuSans-70" d="M 1159 525 
L 1159 -1331 
L 581 -1331 
L 581 3500 
L 1159 3500 
L 1159 2969 
Q 1341 3281 1617 3432 
Q 1894 3584 2278 3584 
Q 2916 3584 3314 3078 
Q 3713 2572 3713 1747 
Q 3713 922 3314 415 
Q 2916 -91 2278 -91 
Q 1894 -91 1617 61 
Q 1341 213 1159 525 
z
M 3116 1747 
Q 3116 2381 2855 2742 
Q 2594 3103 2138 3103 
Q 1681 3103 1420 2742 
Q 1159 2381 1159 1747 
Q 1159 1113 1420 752 
Q 1681 391 2138 391 
Q 2594 391 2855 752 
Q 3116 1113 3116 1747 
z
" transform="scale(0.015625)"/>
       <path id="DejaVuSans-61" d="M 2194 1759 
Q 1497 1759 1228 1600 
Q 959 1441 959 1056 
Q 959 750 1161 570 
Q 1363 391 1709 391 
Q 2188 391 2477 730 
Q 2766 1069 2766 1631 
L 2766 1759 
L 2194 1759 
z
M 3341 1997 
L 3341 0 
L 2766 0 
L 2766 531 
Q 2569 213 2275 61 
Q 1981 -91 1556 -91 
Q 1019 -91 701 211 
Q 384 513 384 1019 
Q 384 1609 779 1909 
Q 1175 2209 1959 2209 
L 2766 2209 
L 2766 2266 
Q 2766 2663 2505 2880 
Q 2244 3097 1772 3097 
Q 1472 3097 1187 3025 
Q 903 2953 641 2809 
L 641 3341 
Q 956 3463 1253 3523 
Q 1550 3584 1831 3584 
Q 2591 3584 2966 3190 
Q 3341 2797 3341 1997 
z
" transform="scale(0.015625)"/>
       <path id="DejaVuSans-6e" d="M 3513 2113 
L 3513 0 
L 2938 0 
L 2938 2094 
Q 2938 2591 2744 2837 
Q 2550 3084 2163 3084 
Q 1697 3084 1428 2787 
Q 1159 2491 1159 1978 
L 1159 0 
L 581 0 
L 581 3500 
L 1159 3500 
L 1159 2956 
Q 1366 3272 1645 3428 
Q 1925 3584 2291 3584 
Q 2894 3584 3203 3211 
Q 3513 2838 3513 2113 
z
" transform="scale(0.015625)"/>
       <path id="DejaVuSans-75" d="M 544 1381 
L 544 3500 
L 1119 3500 
L 1119 1403 
Q 1119 906 1312 657 
Q 1506 409 1894 409 
Q 2359 409 2629 706 
Q 2900 1003 2900 1516 
L 2900 3500 
L 3475 3500 
L 3475 0 
L 2900 0 
L 2900 538 
Q 2691 219 2414 64 
Q 2138 -91 1772 -91 
Q 1169 -91 856 284 
Q 544 659 544 1381 
z
M 1991 3584 
L 1991 3584 
z
" transform="scale(0.015625)"/>
       <path id="DejaVuSans-67" d="M 2906 1791 
Q 2906 2416 2648 2759 
Q 2391 3103 1925 3103 
Q 1463 3103 1205 2759 
Q 947 2416 947 1791 
Q 947 1169 1205 825 
Q 1463 481 1925 481 
Q 2391 481 2648 825 
Q 2906 1169 2906 1791 
z
M 3481 434 
Q 3481 -459 3084 -895 
Q 2688 -1331 1869 -1331 
Q 1566 -1331 1297 -1286 
Q 1028 -1241 775 -1147 
L 775 -588 
Q 1028 -725 1275 -790 
Q 1522 -856 1778 -856 
Q 2344 -856 2625 -561 
Q 2906 -266 2906 331 
L 2906 616 
Q 2728 306 2450 153 
Q 2172 0 1784 0 
Q 1141 0 747 490 
Q 353 981 353 1791 
Q 353 2603 747 3093 
Q 1141 3584 1784 3584 
Q 2172 3584 2450 3431 
Q 2728 3278 2906 2969 
L 2906 3500 
L 3481 3500 
L 3481 434 
z
" transform="scale(0.015625)"/>
       <path id="DejaVuSans-20" transform="scale(0.015625)"/>
       <path id="DejaVuSans-56" d="M 1831 0 
L 50 4666 
L 709 4666 
L 2188 738 
L 3669 4666 
L 4325 4666 
L 2547 0 
L 1831 0 
z
" transform="scale(0.015625)"/>
       <path id="DejaVuSans-28" d="M 1984 4856 
Q 1566 4138 1362 3434 
Q 1159 2731 1159 2009 
Q 1159 1288 1364 580 
Q 1569 -128 1984 -844 
L 1484 -844 
Q 1016 -109 783 600 
Q 550 1309 550 2009 
Q 550 2706 781 3412 
Q 1013 4119 1484 4856 
L 1984 4856 
z
" transform="scale(0.015625)"/>
       <path id="DejaVuSans-29" d="M 513 4856 
L 1013 4856 
Q 1481 4119 1714 3412 
Q 1947 2706 1947 2009 
Q 1947 1309 1714 600 
Q 1481 -109 1013 -844 
L 513 -844 
Q 928 -128 1133 580 
Q 1338 1288 1338 2009 
Q 1338 2731 1133 3434 
Q 928 4138 513 4856 
z
" transform="scale(0.015625)"/>
      </defs>
      <use xlink:href="#DejaVuSans-53"/>
      <use xlink:href="#DejaVuSans-70" transform="translate(63.476562 0)"/>
      <use xlink:href="#DejaVuSans-61" transform="translate(126.953125 0)"/>
      <use xlink:href="#DejaVuSans-6e" transform="translate(188.232422 0)"/>
      <use xlink:href="#DejaVuSans-6e" transform="translate(251.611328 0)"/>
      <use xlink:href="#DejaVuSans-75" transform="translate(314.990234 0)"/>
      <use xlink:href="#DejaVuSans-6e" transform="translate(378.369141 0)"/>
      <use xlink:href="#DejaVuSans-67" transform="translate(441.748047 0)"/>
      <use xlink:href="#DejaVuSans-20" transform="translate(505.224609 0)"/>
      <use xlink:href="#DejaVuSans-56" transform="translate(537.011719 0)"/>
      <use xlink:href="#DejaVuSans-20" transform="translate(605.419922 0)"/>
      <use xlink:href="#DejaVuSans-28" transform="translate(637.207031 0)"/>
      <use xlink:href="#DejaVuSans-56" transform="translate(676.220703 0)"/>
      <use xlink:href="#DejaVuSans-29" transform="translate(744.628906 0)"/>
     </g>
    </g>
   </g>
   <g id="matplotlib.axis_2">
    <g id="ytick_1">
     <g id="line2d_13">
      <path d="M 68.35 299.9 
L 424.507812 299.9 
" clip-path="url(#pdea5704357)" style="fill: none; stroke: #b0b0b0; stroke-opacity: 0.3; stroke-width: 0.8; stroke-linecap: square"/>
     </g>
     <g id="line2d_14">
      <defs>
       <path id="m51e4b55254" d="M 0 0 
L -3.5 0 
" style="stroke: #000000; stroke-width: 0.8"/>
      </defs>
      <g>
       <use xlink:href="#m51e4b55254" x="68.35" y="299.9" style="stroke: #000000; stroke-width: 0.8"/>
      </g>
     </g>
     <g id="text_8">
      <!-- 50 -->
      <g transform="translate(48.625 303.699219) scale(0.1 -0.1)">
       <use xlink:href="#DejaVuSans-35"/>
       <use xlink:href="#DejaVuSans-30" transform="translate(63.623047 0)"/>
      </g>
     </g>
    </g>
    <g id="ytick_2">
     <g id="line2d_15">
      <path d="M 68.35 266.376923 
L 424.507812 266.376923 
" clip-path="url(#pdea5704357)" style="fill: none; stroke: #b0b0b0; stroke-opacity: 0.3; stroke-width: 0.8; stroke-linecap: square"/>
     </g>
     <g id="line2d_16">
      <g>
       <use xlink:href="#m51e4b55254" x="68.35" y="266.376923" style="stroke: #000000; stroke-width: 0.8"/>
      </g>
     </g>
     <g id="text_9">
      <!-- 60 -->
      <g transform="translate(48.625 270.176142) scale(0.1 -0.1)">
       <defs>
        <path id="DejaVuSans-36" d="M 2113 2584 
Q 1688 2584 1439 2293 
Q 1191 2003 1191 1497 
Q 1191 994 1439 701 
Q 1688 409 2113 409 
Q 2538 409 2786 701 
Q 3034 994 3034 1497 
Q 3034 2003 2786 2293 
Q 2538 2584 2113 2584 
z
M 3366 4563 
L 3366 3988 
Q 3128 4100 2886 4159 
Q 2644 4219 2406 4219 
Q 1781 4219 1451 3797 
Q 1122 3375 1075 2522 
Q 1259 2794 1537 2939 
Q 1816 3084 2150 3084 
Q 2853 3084 3261 2657 
Q 3669 2231 3669 1497 
Q 3669 778 3244 343 
Q 2819 -91 2113 -91 
Q 1303 -91 875 529 
Q 447 1150 447 2328 
Q 447 3434 972 4092 
Q 1497 4750 2381 4750 
Q 2619 4750 2861 4703 
Q 3103 4656 3366 4563 
z
" transform="scale(0.015625)"/>
       </defs>
       <use xlink:href="#DejaVuSans-36"/>
       <use xlink:href="#DejaVuSans-30" transform="translate(63.623047 0)"/>
      </g>
     </g>
    </g>
    <g id="ytick_3">
     <g id="line2d_17">
      <path d="M 68.35 232.853846 
L 424.507812 232.853846 
" clip-path="url(#pdea5704357)" style="fill: none; stroke: #b0b0b0; stroke-opacity: 0.3; stroke-width: 0.8; stroke-linecap: square"/>
     </g>
     <g id="line2d_18">
      <g>
       <use xlink:href="#m51e4b55254" x="68.35" y="232.853846" style="stroke: #000000; stroke-width: 0.8"/>
      </g>
     </g>
     <g id="text_10">
      <!-- 70 -->
      <g transform="translate(48.625 236.653065) scale(0.1 -0.1)">
       <defs>
        <path id="DejaVuSans-37" d="M 525 4666 
L 3525 4666 
L 3525 4397 
L 1831 0 
L 1172 0 
L 2766 4134 
L 525 4134 
L 525 4666 
z
" transform="scale(0.015625)"/>
       </defs>
       <use xlink:href="#DejaVuSans-37"/>
       <use xlink:href="#DejaVuSans-30" transform="translate(63.623047 0)"/>
      </g>
     </g>
    </g>
    <g id="ytick_4">
     <g id="line2d_19">
      <path d="M 68.35 199.330769 
L 424.507812 199.330769 
" clip-path="url(#pdea5704357)" style="fill: none; stroke: #b0b0b0; stroke-opacity: 0.3; stroke-width: 0.8; stroke-linecap: square"/>
     </g>
     <g id="line2d_20">
      <g>
       <use xlink:href="#m51e4b55254" x="68.35" y="199.330769" style="stroke: #000000; stroke-width: 0.8"/>
      </g>
     </g>
     <g id="text_11">
      <!-- 80 -->
      <g transform="translate(48.625 203.129988) scale(0.1 -0.1)">
       <defs>
        <path id="DejaVuSans-38" d="M 2034 2216 
Q 1584 2216 1326 1975 
Q 1069 1734 1069 1313 
Q 1069 891 1326 650 
Q 1584 409 2034 409 
Q 2484 409 2743 651 
Q 3003 894 3003 1313 
Q 3003 1734 2745 1975 
Q 2488 2216 2034 2216 
z
M 1403 2484 
Q 997 2584 770 2862 
Q 544 3141 544 3541 
Q 544 4100 942 4425 
Q 1341 4750 2034 4750 
Q 2731 4750 3128 4425 
Q 3525 4100 3525 3541 
Q 3525 3141 3298 2862 
Q 3072 2584 2669 2484 
Q 3125 2378 3379 2068 
Q 3634 1759 3634 1313 
Q 3634 634 3220 271 
Q 2806 -91 2034 -91 
Q 1263 -91 848 271 
Q 434 634 434 1313 
Q 434 1759 690 2068 
Q 947 2378 1403 2484 
z
M 1172 3481 
Q 1172 3119 1398 2916 
Q 1625 2713 2034 2713 
Q 2441 2713 2670 2916 
Q 2900 3119 2900 3481 
Q 2900 3844 2670 4047 
Q 2441 4250 2034 4250 
Q 1625 4250 1398 4047 
Q 1172 3844 1172 3481 
z
" transform="scale(0.015625)"/>
       </defs>
       <use xlink:href="#DejaVuSans-38"/>
       <use xlink:href="#DejaVuSans-30" transform="translate(63.623047 0)"/>
      </g>
     </g>
    </g>
    <g id="ytick_5">
     <g id="line2d_21">
      <path d="M 68.35 165.807692 
L 424.507812 165.807692 
" clip-path="url(#pdea5704357)" style="fill: none; stroke: #b0b0b0; stroke-opacity: 0.3; stroke-width: 0.8; stroke-linecap: square"/>
     </g>
     <g id="line2d_22">
      <g>
       <use xlink:href="#m51e4b55254" x="68.35" y="165.807692" style="stroke: #000000; stroke-width: 0.8"/>
      </g>
     </g>
     <g id="text_12">
      <!-- 90 -->
      <g transform="translate(48.625 169.606911) scale(0.1 -0.1)">
       <defs>
        <path id="DejaVuSans-39" d="M 703 97 
L 703 672 
Q 941 559 1184 500 
Q 1428 441 1663 441 
Q 2288 441 2617 861 
Q 2947 1281 2994 2138 
Q 2813 1869 2534 1725 
Q 2256 1581 1919 1581 
Q 1219 1581 811 2004 
Q 403 2428 403 3163 
Q 403 3881 828 4315 
Q 1253 4750 1959 4750 
Q 2769 4750 3195 4129 
Q 3622 3509 3622 2328 
Q 3622 1225 3098 567 
Q 2575 -91 1691 -91 
Q 1453 -91 1209 -44 
Q 966 3 703 97 
z
M 1959 2075 
Q 2384 2075 2632 2365 
Q 2881 2656 2881 3163 
Q 2881 3666 2632 3958 
Q 2384 4250 1959 4250 
Q 1534 4250 1286 3958 
Q 1038 3666 1038 3163 
Q 1038 2656 1286 2365 
Q 1534 2075 1959 2075 
z
" transform="scale(0.015625)"/>
       </defs>
       <use xlink:href="#DejaVuSans-39"/>
       <use xlink:href="#DejaVuSans-30" transform="translate(63.623047 0)"/>
      </g>
     </g>
    </g>
    <g id="ytick_6">
     <g id="line2d_23">
      <path d="M 68.35 132.284615 
L 424.507812 132.284615 
" clip-path="url(#pdea5704357)" style="fill: none; stroke: #b0b0b0; stroke-opacity: 0.3; stroke-width: 0.8; stroke-linecap: square"/>
     </g>
     <g id="line2d_24">
      <g>
       <use xlink:href="#m51e4b55254" x="68.35" y="132.284615" style="stroke: #000000; stroke-width: 0.8"/>
      </g>
     </g>
     <g id="text_13">
      <!-- 100 -->
      <g transform="translate(42.2625 136.083834) scale(0.1 -0.1)">
       <use xlink:href="#DejaVuSans-31"/>
       <use xlink:href="#DejaVuSans-30" transform="translate(63.623047 0)"/>
       <use xlink:href="#DejaVuSans-30" transform="translate(127.246094 0)"/>
      </g>
     </g>
    </g>
    <g id="ytick_7">
     <g id="line2d_25">
      <path d="M 68.35 98.761538 
L 424.507812 98.761538 
" clip-path="url(#pdea5704357)" style="fill: none; stroke: #b0b0b0; stroke-opacity: 0.3; stroke-width: 0.8; stroke-linecap: square"/>
     </g>
     <g id="line2d_26">
      <g>
       <use xlink:href="#m51e4b55254" x="68.35" y="98.761538" style="stroke: #000000; stroke-width: 0.8"/>
      </g>
     </g>
     <g id="text_14">
      <!-- 110 -->
      <g transform="translate(42.2625 102.560757) scale(0.1 -0.1)">
       <use xlink:href="#DejaVuSans-31"/>
       <use xlink:href="#DejaVuSans-31" transform="translate(63.623047 0)"/>
       <use xlink:href="#DejaVuSans-30" transform="translate(127.246094 0)"/>
      </g>
     </g>
    </g>
    <g id="text_15">
     <!-- Kontaktwinkel θ (°) -->
     <g transform="translate(35.974844 243.312578) rotate(-90) scale(0.11 -0.11)">
      <defs>
       <path id="DejaVuSans-4b" d="M 628 4666 
L 1259 4666 
L 1259 2694 
L 3353 4666 
L 4166 4666 
L 1850 2491 
L 4331 0 
L 3500 0 
L 1259 2247 
L 1259 0 
L 628 0 
L 628 4666 
z
" transform="scale(0.015625)"/>
       <path id="DejaVuSans-6f" d="M 1959 3097 
Q 1497 3097 1228 2736 
Q 959 2375 959 1747 
Q 959 1119 1226 758 
Q 1494 397 1959 397 
Q 2419 397 2687 759 
Q 2956 1122 2956 1747 
Q 2956 2369 2687 2733 
Q 2419 3097 1959 3097 
z
M 1959 3584 
Q 2709 3584 3137 3096 
Q 3566 2609 3566 1747 
Q 3566 888 3137 398 
Q 2709 -91 1959 -91 
Q 1206 -91 779 398 
Q 353 888 353 1747 
Q 353 2609 779 3096 
Q 1206 3584 1959 3584 
z
" transform="scale(0.015625)"/>
       <path id="DejaVuSans-74" d="M 1172 4494 
L 1172 3500 
L 2356 3500 
L 2356 3053 
L 1172 3053 
L 1172 1153 
Q 1172 725 1289 603 
Q 1406 481 1766 481 
L 2356 481 
L 2356 0 
L 1766 0 
Q 1100 0 847 248 
Q 594 497 594 1153 
L 594 3053 
L 172 3053 
L 172 3500 
L 594 3500 
L 594 4494 
L 1172 4494 
z
" transform="scale(0.015625)"/>
       <path id="DejaVuSans-6b" d="M 581 4863 
L 1159 4863 
L 1159 1991 
L 2875 3500 
L 3609 3500 
L 1753 1863 
L 3688 0 
L 2938 0 
L 1159 1709 
L 1159 0 
L 581 0 
L 581 4863 
z
" transform="scale(0.015625)"/>
       <path id="DejaVuSans-77" d="M 269 3500 
L 844 3500 
L 1563 769 
L 2278 3500 
L 2956 3500 
L 3675 769 
L 4391 3500 
L 4966 3500 
L 4050 0 
L 3372 0 
L 2619 2869 
L 1863 0 
L 1184 0 
L 269 3500 
z
" transform="scale(0.015625)"/>
       <path id="DejaVuSans-69" d="M 603 3500 
L 1178 3500 
L 1178 0 
L 603 0 
L 603 3500 
z
M 603 4863 
L 1178 4863 
L 1178 4134 
L 603 4134 
L 603 4863 
z
" transform="scale(0.015625)"/>
       <path id="DejaVuSans-65" d="M 3597 1894 
L 3597 1613 
L 953 1613 
Q 991 1019 1311 708 
Q 1631 397 2203 397 
Q 2534 397 2845 478 
Q 3156 559 3463 722 
L 3463 178 
Q 3153 47 2828 -22 
Q 2503 -91 2169 -91 
Q 1331 -91 842 396 
Q 353 884 353 1716 
Q 353 2575 817 3079 
Q 1281 3584 2069 3584 
Q 2775 3584 3186 3129 
Q 3597 2675 3597 1894 
z
M 3022 2063 
Q 3016 2534 2758 2815 
Q 2500 3097 2075 3097 
Q 1594 3097 1305 2825 
Q 1016 2553 972 2059 
L 3022 2063 
z
" transform="scale(0.015625)"/>
       <path id="DejaVuSans-6c" d="M 603 4863 
L 1178 4863 
L 1178 0 
L 603 0 
L 603 4863 
z
" transform="scale(0.015625)"/>
       <path id="DejaVuSans-3b8" d="M 2953 2219 
L 963 2219 
Q 1009 1284 1225 888 
Q 1494 400 1959 400 
Q 2428 400 2688 891 
Q 2916 1322 2953 2219 
z
M 2944 2750 
Q 2856 3638 2688 3950 
Q 2419 4444 1959 4444 
Q 1481 4444 1228 3956 
Q 1028 3563 969 2750 
L 2944 2750 
z
M 1959 4913 
Q 2709 4913 3138 4250 
Q 3566 3591 3566 2422 
Q 3566 1256 3138 594 
Q 2709 -72 1959 -72 
Q 1206 -72 781 594 
Q 353 1256 353 2422 
Q 353 3591 781 4250 
Q 1206 4913 1959 4913 
z
" transform="scale(0.015625)"/>
       <path id="DejaVuSans-b0" d="M 1600 4347 
Q 1350 4347 1178 4173 
Q 1006 4000 1006 3750 
Q 1006 3503 1178 3333 
Q 1350 3163 1600 3163 
Q 1850 3163 2022 3333 
Q 2194 3503 2194 3750 
Q 2194 3997 2020 4172 
Q 1847 4347 1600 4347 
z
M 1600 4750 
Q 1800 4750 1984 4673 
Q 2169 4597 2303 4453 
Q 2447 4313 2519 4134 
Q 2591 3956 2591 3750 
Q 2591 3338 2302 3052 
Q 2013 2766 1594 2766 
Q 1172 2766 890 3047 
Q 609 3328 609 3750 
Q 609 4169 896 4459 
Q 1184 4750 1600 4750 
z
" transform="scale(0.015625)"/>
      </defs>
      <use xlink:href="#DejaVuSans-4b"/>
      <use xlink:href="#DejaVuSans-6f" transform="translate(60.576172 0)"/>
      <use xlink:href="#DejaVuSans-6e" transform="translate(121.757812 0)"/>
      <use xlink:href="#DejaVuSans-74" transform="translate(185.136719 0)"/>
      <use xlink:href="#DejaVuSans-61" transform="translate(224.345703 0)"/>
      <use xlink:href="#DejaVuSans-6b" transform="translate(285.625 0)"/>
      <use xlink:href="#DejaVuSans-74" transform="translate(343.535156 0)"/>
      <use xlink:href="#DejaVuSans-77" transform="translate(382.744141 0)"/>
      <use xlink:href="#DejaVuSans-69" transform="translate(464.53125 0)"/>
      <use xlink:href="#DejaVuSans-6e" transform="translate(492.314453 0)"/>
      <use xlink:href="#DejaVuSans-6b" transform="translate(555.693359 0)"/>
      <use xlink:href="#DejaVuSans-65" transform="translate(609.978516 0)"/>
      <use xlink:href="#DejaVuSans-6c" transform="translate(671.501953 0)"/>
      <use xlink:href="#DejaVuSans-20" transform="translate(699.285156 0)"/>
      <use xlink:href="#DejaVuSans-3b8" transform="translate(731.072266 0)"/>
      <use xlink:href="#DejaVuSans-20" transform="translate(792.253906 0)"/>
      <use xlink:href="#DejaVuSans-28" transform="translate(824.041016 0)"/>
      <use xlink:href="#DejaVuSans-b0" transform="translate(863.054688 0)"/>
      <use xlink:href="#DejaVuSans-29" transform="translate(913.054688 0)"/>
     </g>
    </g>
   </g>
   <g id="line2d_27">
    <path d="M 84.538991 98.761538 
L 91.036246 98.875396 
L 97.5335 99.216823 
L 104.030754 99.785381 
L 110.528008 100.580352 
L 117.025262 101.600756 
L 123.522516 102.845367 
L 130.01977 104.312749 
L 136.517024 106.001282 
L 143.014278 107.909202 
L 149.511533 110.034642 
L 156.008787 112.375676 
L 162.506041 114.930364 
L 169.003295 117.696798 
L 175.500549 120.673158 
L 183.080679 124.40866 
L 190.660809 128.425257 
L 198.240938 132.721064 
L 205.821068 137.294774 
L 213.401198 142.145788 
L 220.981328 147.274345 
L 228.561457 152.681659 
L 236.141587 158.370083 
L 243.721717 164.343282 
L 251.301847 170.606435 
L 258.881977 177.16648 
L 266.462106 184.032405 
L 274.042236 191.215604 
L 281.622366 198.730326 
L 289.202496 206.594252 
L 295.69975 213.629136 
L 302.197004 220.953287 
L 308.694258 228.586821 
L 315.191512 236.554027 
L 321.688766 244.884424 
L 328.18602 253.614214 
L 333.600399 261.226206 
L 339.014777 269.178524 
L 344.429156 277.510386 
L 349.843534 286.270617 
L 355.257913 295.521124 
L 359.589415 303.327676 
L 363.920918 311.551811 
L 368.252421 320.261615 
L 372.583923 329.547122 
L 375.83255 336.961471 
L 379.081178 344.83816 
L 382.329805 353.271899 
L 385.095304 361 
L 385.095304 361 
" clip-path="url(#pdea5704357)" style="fill: none; stroke: #e63946; stroke-width: 2; stroke-linecap: square"/>
   </g>
   <g id="line2d_28">
    <path d="M 84.538991 98.761538 
L 88.870494 98.9021 
L 93.201997 99.323561 
L 97.5335 100.025257 
L 101.865002 101.006101 
L 106.196505 102.264614 
L 110.528008 103.798966 
L 114.859511 105.607029 
L 119.191013 107.686434 
L 123.522516 110.034642 
L 127.854019 112.649015 
L 132.185522 115.526893 
L 136.517024 118.665679 
L 140.848527 122.062921 
L 145.18003 125.716397 
L 149.511533 129.624209 
L 153.843035 133.784871 
L 158.174538 138.197402 
L 163.588916 144.066755 
L 169.003295 150.329982 
L 174.417673 156.990027 
L 179.832052 164.052316 
L 185.24643 171.525221 
L 190.660809 179.420626 
L 196.075187 187.754634 
L 201.489565 196.548474 
L 206.903944 205.829699 
L 212.318322 215.633815 
L 217.732701 226.006531 
L 222.064203 234.753282 
L 226.395706 243.93983 
L 230.727209 253.614214 
L 235.058712 263.837396 
L 239.390214 274.688143 
L 243.721717 286.270617 
L 246.970344 295.521124 
L 250.218971 305.342202 
L 253.467598 315.840995 
L 256.716225 327.165746 
L 259.964852 339.53159 
L 262.130604 348.510907 
L 264.868461 361 
L 264.868461 361 
" clip-path="url(#pdea5704357)" style="fill: none; stroke: #457b9d; stroke-width: 2; stroke-linecap: square"/>
   </g>
   <g id="line2d_29">
    <path d="M 84.538991 98.761538 
L 94.284873 98.87255 
L 104.030754 99.205445 
L 113.776635 99.759809 
L 123.522516 100.534957 
L 133.268397 101.529956 
L 143.014278 102.743639 
L 152.76016 104.174637 
L 162.506041 105.821402 
L 172.251922 107.682248 
L 181.997803 109.755386 
L 191.743684 112.038967 
L 201.489565 114.53112 
L 212.318322 117.542562 
L 223.147079 120.806809 
L 233.975836 124.321634 
L 244.804593 128.085086 
L 255.63335 132.095572 
L 266.462106 136.351945 
L 277.290863 140.853597 
L 288.11962 145.600553 
L 298.948377 150.593574 
L 309.777134 155.834267 
L 320.605891 161.32521 
L 331.434647 167.070095 
L 342.263404 173.073886 
L 353.092161 179.343021 
L 363.920918 185.885633 
L 374.749675 192.711845 
L 384.495556 199.108157 
L 394.241437 205.755237 
L 403.987318 212.666238 
L 408.318821 215.826518 
L 408.318821 215.826518 
" clip-path="url(#pdea5704357)" style="fill: none; stroke: #2a9d8f; stroke-width: 2; stroke-linecap: square"/>
   </g>
   <g id="line2d_30">
    <path d="M 84.538991 98.761538 
L 88.870494 98.862747 
L 93.201997 99.166255 
L 97.5335 99.671717 
L 101.865002 100.378566 
L 106.196505 101.286019 
L 110.528008 102.393102 
L 114.859511 103.698662 
L 119.191013 105.201397 
L 123.522516 106.899874 
L 127.854019 108.792566 
L 133.268397 111.429118 
L 138.682776 114.363468 
L 144.097154 117.592477 
L 149.511533 121.113144 
L 154.925911 124.922727 
L 160.340289 129.018859 
L 165.754668 133.399671 
L 171.169046 138.063917 
L 176.583425 143.011105 
L 181.997803 148.241639 
L 187.412181 153.75697 
L 192.82656 159.559761 
L 198.240938 165.654081 
L 203.655317 172.045626 
L 209.069695 178.741982 
L 214.484074 185.752943 
L 219.898452 193.090913 
L 225.31283 200.7714 
L 230.727209 208.813662 
L 236.141587 217.241554 
L 241.555966 226.084649 
L 246.970344 235.379776 
L 252.384723 245.173174 
L 257.799101 255.52357 
L 262.130604 264.255126 
L 266.462106 273.440684 
L 270.793609 283.142964 
L 275.125112 293.443187 
L 279.456615 304.449402 
L 282.705242 313.254721 
L 285.953869 322.624685 
L 289.202496 332.674635 
L 292.451123 343.567446 
L 295.69975 355.546267 
L 297.062736 361 
L 297.062736 361 
" clip-path="url(#pdea5704357)" style="fill: none; stroke: #f4a261; stroke-width: 2; stroke-linecap: square"/>
   </g>
   <g id="line2d_31">
    <path d="M 68.35 98.761538 
L 424.507812 98.761538 
" clip-path="url(#pdea5704357)" style="fill: none; stroke-dasharray: 7.4,3.2; stroke-dashoffset: 0; stroke: #808080; stroke-opacity: 0.6; stroke-width: 2"/>
   </g>
   <g id="line2d_32">
    <path d="M 68.35 266.376923 
L 424.507812 266.376923 
" clip-path="url(#pdea5704357)" style="fill: none; stroke-dasharray: 2,3.3; stroke-dashoffset: 0; stroke: #000000; stroke-opacity: 0.6; stroke-width: 2"/>
   </g>
   <g id="line2d_33">
    <path d="M 337.135098 299.9 
L 337.135098 82 
" clip-path="url(#pdea5704357)" style="fill: none; stroke-dasharray: 2,3.3; stroke-dashoffset: 0; stroke: #e63946; stroke-opacity: 0.5; stroke-width: 2"/>
   </g>
   <g id="patch_3">
    <path d="M 68.35 299.9 
L 68.35 82 
" style="fill: none; stroke: #000000; stroke-width: 0.8; stroke-linejoin: miter; stroke-linecap: square"/>
   </g>
   <g id="patch_4">
    <path d="M 424.507812 299.9 
L 424.507812 82 
" style="fill: none; stroke: #000000; stroke-width: 0.8; stroke-linejoin: miter; stroke-linecap: square"/>
   </g>
   <g id="patch_5">
    <path d="M 68.35 299.9 
L 424.507812 299.9 
" style="fill: none; stroke: #000000; stroke-width: 0.8; stroke-linejoin: miter; stroke-linecap: square"/>
   </g>
   <g id="patch_6">
    <path d="M 68.35 82 
L 424.507812 82 
" style="fill: none; stroke: #000000; stroke-width: 0.8; stroke-linejoin: miter; stroke-linecap: square"/>
   </g>
   <g id="text_16">
    <!-- Young-Lippmann: θ(V) für verschiedene Dielektrika -->
    <g transform="translate(93.432656 76) scale(0.12 -0.12)">
     <defs>
      <path id="DejaVuSans-59" d="M -13 4666 
L 666 4666 
L 1959 2747 
L 3244 4666 
L 3922 4666 
L 2272 2222 
L 2272 0 
L 1638 0 
L 1638 2222 
L -13 4666 
z
" transform="scale(0.015625)"/>
      <path id="DejaVuSans-2d" d="M 313 2009 
L 1997 2009 
L 1997 1497 
L 313 1497 
L 313 2009 
z
" transform="scale(0.015625)"/>
      <path id="DejaVuSans-4c" d="M 628 4666 
L 1259 4666 
L 1259 531 
L 3531 531 
L 3531 0 
L 628 0 
L 628 4666 
z
" transform="scale(0.015625)"/>
      <path id="DejaVuSans-6d" d="M 3328 2828 
Q 3544 3216 3844 3400 
Q 4144 3584 4550 3584 
Q 5097 3584 5394 3201 
Q 5691 2819 5691 2113 
L 5691 0 
L 5113 0 
L 5113 2094 
Q 5113 2597 4934 2840 
Q 4756 3084 4391 3084 
Q 3944 3084 3684 2787 
Q 3425 2491 3425 1978 
L 3425 0 
L 2847 0 
L 2847 2094 
Q 2847 2600 2669 2842 
Q 2491 3084 2119 3084 
Q 1678 3084 1418 2786 
Q 1159 2488 1159 1978 
L 1159 0 
L 581 0 
L 581 3500 
L 1159 3500 
L 1159 2956 
Q 1356 3278 1631 3431 
Q 1906 3584 2284 3584 
Q 2666 3584 2933 3390 
Q 3200 3197 3328 2828 
z
" transform="scale(0.015625)"/>
      <path id="DejaVuSans-3a" d="M 750 794 
L 1409 794 
L 1409 0 
L 750 0 
L 750 794 
z
M 750 3309 
L 1409 3309 
L 1409 2516 
L 750 2516 
L 750 3309 
z
" transform="scale(0.015625)"/>
      <path id="DejaVuSans-66" d="M 2375 4863 
L 2375 4384 
L 1825 4384 
Q 1516 4384 1395 4259 
Q 1275 4134 1275 3809 
L 1275 3500 
L 2222 3500 
L 2222 3053 
L 1275 3053 
L 1275 0 
L 697 0 
L 697 3053 
L 147 3053 
L 147 3500 
L 697 3500 
L 697 3744 
Q 697 4328 969 4595 
Q 1241 4863 1831 4863 
L 2375 4863 
z
" transform="scale(0.015625)"/>
      <path id="DejaVuSans-fc" d="M 544 1381 
L 544 3500 
L 1119 3500 
L 1119 1403 
Q 1119 906 1312 657 
Q 1506 409 1894 409 
Q 2359 409 2629 706 
Q 2900 1003 2900 1516 
L 2900 3500 
L 3475 3500 
L 3475 0 
L 2900 0 
L 2900 538 
Q 2691 219 2414 64 
Q 2138 -91 1772 -91 
Q 1169 -91 856 284 
Q 544 659 544 1381 
z
M 1991 3584 
L 1991 3584 
z
M 2278 4850 
L 2912 4850 
L 2912 4219 
L 2278 4219 
L 2278 4850 
z
M 1056 4850 
L 1690 4850 
L 1690 4219 
L 1056 4219 
L 1056 4850 
z
" transform="scale(0.015625)"/>
      <path id="DejaVuSans-72" d="M 2631 2963 
Q 2534 3019 2420 3045 
Q 2306 3072 2169 3072 
Q 1681 3072 1420 2755 
Q 1159 2438 1159 1844 
L 1159 0 
L 581 0 
L 581 3500 
L 1159 3500 
L 1159 2956 
Q 1341 3275 1631 3429 
Q 1922 3584 2338 3584 
Q 2397 3584 2469 3576 
Q 2541 3569 2628 3553 
L 2631 2963 
z
" transform="scale(0.015625)"/>
      <path id="DejaVuSans-76" d="M 191 3500 
L 800 3500 
L 1894 563 
L 2988 3500 
L 3597 3500 
L 2284 0 
L 1503 0 
L 191 3500 
z
" transform="scale(0.015625)"/>
      <path id="DejaVuSans-73" d="M 2834 3397 
L 2834 2853 
Q 2591 2978 2328 3040 
Q 2066 3103 1784 3103 
Q 1356 3103 1142 2972 
Q 928 2841 928 2578 
Q 928 2378 1081 2264 
Q 1234 2150 1697 2047 
L 1894 2003 
Q 2506 1872 2764 1633 
Q 3022 1394 3022 966 
Q 3022 478 2636 193 
Q 2250 -91 1575 -91 
Q 1294 -91 989 -36 
Q 684 19 347 128 
L 347 722 
Q 666 556 975 473 
Q 1284 391 1588 391 
Q 1994 391 2212 530 
Q 2431 669 2431 922 
Q 2431 1156 2273 1281 
Q 2116 1406 1581 1522 
L 1381 1569 
Q 847 1681 609 1914 
Q 372 2147 372 2553 
Q 372 3047 722 3315 
Q 1072 3584 1716 3584 
Q 2034 3584 2315 3537 
Q 2597 3491 2834 3397 
z
" transform="scale(0.015625)"/>
      <path id="DejaVuSans-63" d="M 3122 3366 
L 3122 2828 
Q 2878 2963 2633 3030 
Q 2388 3097 2138 3097 
Q 1578 3097 1268 2742 
Q 959 2388 959 1747 
Q 959 1106 1268 751 
Q 1578 397 2138 397 
Q 2388 397 2633 464 
Q 2878 531 3122 666 
L 3122 134 
Q 2881 22 2623 -34 
Q 2366 -91 2075 -91 
Q 1284 -91 818 406 
Q 353 903 353 1747 
Q 353 2603 823 3093 
Q 1294 3584 2113 3584 
Q 2378 3584 2631 3529 
Q 2884 3475 3122 3366 
z
" transform="scale(0.015625)"/>
      <path id="DejaVuSans-68" d="M 3513 2113 
L 3513 0 
L 2938 0 
L 2938 2094 
Q 2938 2591 2744 2837 
Q 2550 3084 2163 3084 
Q 1697 3084 1428 2787 
Q 1159 2491 1159 1978 
L 1159 0 
L 581 0 
L 581 4863 
L 1159 4863 
L 1159 2956 
Q 1366 3272 1645 3428 
Q 1925 3584 2291 3584 
Q 2894 3584 3203 3211 
Q 3513 2838 3513 2113 
z
" transform="scale(0.015625)"/>
      <path id="DejaVuSans-64" d="M 2906 2969 
L 2906 4863 
L 3481 4863 
L 3481 0 
L 2906 0 
L 2906 525 
Q 2725 213 2448 61 
Q 2172 -91 1784 -91 
Q 1150 -91 751 415 
Q 353 922 353 1747 
Q 353 2572 751 3078 
Q 1150 3584 1784 3584 
Q 2172 3584 2448 3432 
Q 2725 3281 2906 2969 
z
M 947 1747 
Q 947 1113 1208 752 
Q 1469 391 1925 391 
Q 2381 391 2643 752 
Q 2906 1113 2906 1747 
Q 2906 2381 2643 2742 
Q 2381 3103 1925 3103 
Q 1469 3103 1208 2742 
Q 947 2381 947 1747 
z
" transform="scale(0.015625)"/>
      <path id="DejaVuSans-44" d="M 1259 4147 
L 1259 519 
L 2022 519 
Q 2988 519 3436 956 
Q 3884 1394 3884 2338 
Q 3884 3275 3436 3711 
Q 2988 4147 2022 4147 
L 1259 4147 
z
M 628 4666 
L 1925 4666 
Q 3281 4666 3915 4102 
Q 4550 3538 4550 2338 
Q 4550 1131 3912 565 
Q 3275 0 1925 0 
L 628 0 
L 628 4666 
z
" transform="scale(0.015625)"/>
     </defs>
     <use xlink:href="#DejaVuSans-59"/>
     <use xlink:href="#DejaVuSans-6f" transform="translate(47.833984 0)"/>
     <use xlink:href="#DejaVuSans-75" transform="translate(109.015625 0)"/>
     <use xlink:href="#DejaVuSans-6e" transform="translate(172.394531 0)"/>
     <use xlink:href="#DejaVuSans-67" transform="translate(235.773438 0)"/>
     <use xlink:href="#DejaVuSans-2d" transform="translate(299.25 0)"/>
     <use xlink:href="#DejaVuSans-4c" transform="translate(335.333984 0)"/>
     <use xlink:href="#DejaVuSans-69" transform="translate(391.046875 0)"/>
     <use xlink:href="#DejaVuSans-70" transform="translate(418.830078 0)"/>
     <use xlink:href="#DejaVuSans-70" transform="translate(482.306641 0)"/>
     <use xlink:href="#DejaVuSans-6d" transform="translate(545.783203 0)"/>
     <use xlink:href="#DejaVuSans-61" transform="translate(643.195312 0)"/>
     <use xlink:href="#DejaVuSans-6e" transform="translate(704.474609 0)"/>
     <use xlink:href="#DejaVuSans-6e" transform="translate(767.853516 0)"/>
     <use xlink:href="#DejaVuSans-3a" transform="translate(831.232422 0)"/>
     <use xlink:href="#DejaVuSans-20" transform="translate(864.923828 0)"/>
     <use xlink:href="#DejaVuSans-3b8" transform="translate(896.710938 0)"/>
     <use xlink:href="#DejaVuSans-28" transform="translate(957.892578 0)"/>
     <use xlink:href="#DejaVuSans-56" transform="translate(996.90625 0)"/>
     <use xlink:href="#DejaVuSans-29" transform="translate(1065.314453 0)"/>
     <use xlink:href="#DejaVuSans-20" transform="translate(1104.328125 0)"/>
     <use xlink:href="#DejaVuSans-66" transform="translate(1136.115234 0)"/>
     <use xlink:href="#DejaVuSans-fc" transform="translate(1171.320312 0)"/>
     <use xlink:href="#DejaVuSans-72" transform="translate(1234.699219 0)"/>
     <use xlink:href="#DejaVuSans-20" transform="translate(1275.8125 0)"/>
     <use xlink:href="#DejaVuSans-76" transform="translate(1307.599609 0)"/>
     <use xlink:href="#DejaVuSans-65" transform="translate(1366.779297 0)"/>
     <use xlink:href="#DejaVuSans-72" transform="translate(1428.302734 0)"/>
     <use xlink:href="#DejaVuSans-73" transform="translate(1469.416016 0)"/>
     <use xlink:href="#DejaVuSans-63" transform="translate(1521.515625 0)"/>
     <use xlink:href="#DejaVuSans-68" transform="translate(1576.496094 0)"/>
     <use xlink:href="#DejaVuSans-69" transform="translate(1639.875 0)"/>
     <use xlink:href="#DejaVuSans-65" transform="translate(1667.658203 0)"/>
     <use xlink:href="#DejaVuSans-64" transform="translate(1729.181641 0)"/>
     <use xlink:href="#DejaVuSans-65" transform="translate(1792.658203 0)"/>
     <use xlink:href="#DejaVuSans-6e" transform="translate(1854.181641 0)"/>
     <use xlink:href="#DejaVuSans-65" transform="translate(1917.560547 0)"/>
     <use xlink:href="#DejaVuSans-20" transform="translate(1979.083984 0)"/>
     <use xlink:href="#DejaVuSans-44" transform="translate(2010.871094 0)"/>
     <use xlink:href="#DejaVuSans-69" transform="translate(2087.873047 0)"/>
     <use xlink:href="#DejaVuSans-65" transform="translate(2115.65625 0)"/>
     <use xlink:href="#DejaVuSans-6c" transform="translate(2177.179688 0)"/>
     <use xlink:href="#DejaVuSans-65" transform="translate(2204.962891 0)"/>
     <use xlink:href="#DejaVuSans-6b" transform="translate(2266.486328 0)"/>
     <use xlink:href="#DejaVuSans-74" transform="translate(2324.396484 0)"/>
     <use xlink:href="#DejaVuSans-72" transform="translate(2363.605469 0)"/>
     <use xlink:href="#DejaVuSans-69" transform="translate(2404.71875 0)"/>
     <use xlink:href="#DejaVuSans-6b" transform="translate(2432.501953 0)"/>
     <use xlink:href="#DejaVuSans-61" transform="translate(2488.662109 0)"/>
    </g>
   </g>
   <g id="legend_1">
    <g id="patch_7">
     <path d="M 73.95 227.52 
L 152.2575 227.52 
Q 153.8575 227.52 153.8575 225.92 
L 153.8575 155.98 
Q 153.8575 154.38 152.2575 154.38 
L 73.95 154.38 
Q 72.35 154.38 72.35 155.98 
L 72.35 225.92 
Q 72.35 227.52 73.95 227.52 
z
" style="fill: #ffffff; opacity: 0.8; stroke: #cccccc; stroke-linejoin: miter"/>
    </g>
    <g id="line2d_34">
     <path d="M 75.55 160.85875 
L 83.55 160.85875 
L 91.55 160.85875 
" style="fill: none; stroke: #e63946; stroke-width: 2; stroke-linecap: square"/>
    </g>
    <g id="text_17">
     <!-- Al₂O₃ (10nm) -->
     <g transform="translate(97.95 163.65875) scale(0.08 -0.08)">
      <defs>
       <path id="DejaVuSans-41" d="M 2188 4044 
L 1331 1722 
L 3047 1722 
L 2188 4044 
z
M 1831 4666 
L 2547 4666 
L 4325 0 
L 3669 0 
L 3244 1197 
L 1141 1197 
L 716 0 
L 50 0 
L 1831 4666 
z
" transform="scale(0.015625)"/>
       <path id="DejaVuSans-2082" d="M 838 332 
L 2163 332 
L 2163 -24 
L 294 -24 
L 294 319 
Q 400 416 597 591 
Q 1672 1544 1672 1838 
Q 1672 2044 1509 2170 
Q 1347 2297 1081 2297 
Q 919 2297 728 2242 
Q 538 2188 313 2079 
L 313 2463 
Q 553 2551 761 2594 
Q 969 2638 1147 2638 
Q 1600 2638 1872 2432 
Q 2144 2226 2144 1888 
Q 2144 1454 1109 566 
Q 934 416 838 332 
z
" transform="scale(0.015625)"/>
       <path id="DejaVuSans-4f" d="M 2522 4238 
Q 1834 4238 1429 3725 
Q 1025 3213 1025 2328 
Q 1025 1447 1429 934 
Q 1834 422 2522 422 
Q 3209 422 3611 934 
Q 4013 1447 4013 2328 
Q 4013 3213 3611 3725 
Q 3209 4238 2522 4238 
z
M 2522 4750 
Q 3503 4750 4090 4092 
Q 4678 3434 4678 2328 
Q 4678 1225 4090 567 
Q 3503 -91 2522 -91 
Q 1538 -91 948 565 
Q 359 1222 359 2328 
Q 359 3434 948 4092 
Q 1538 4750 2522 4750 
z
" transform="scale(0.015625)"/>
       <path id="DejaVuSans-2083" d="M 1638 1388 
Q 1925 1332 2083 1161 
Q 2241 991 2241 735 
Q 2241 347 1944 138 
Q 1647 -71 1094 -71 
Q 916 -71 720 -38 
Q 525 -6 306 57 
L 306 435 
Q 469 351 655 310 
Q 841 269 1050 269 
Q 1391 269 1578 392 
Q 1766 516 1766 735 
Q 1766 966 1592 1085 
Q 1419 1204 1081 1204 
L 813 1204 
L 813 1541 
L 1106 1541 
Q 1400 1541 1551 1639 
Q 1703 1738 1703 1926 
Q 1703 2107 1547 2202 
Q 1391 2297 1094 2297 
Q 969 2297 809 2269 
Q 650 2241 397 2169 
L 397 2529 
Q 625 2582 825 2610 
Q 1025 2638 1197 2638 
Q 1647 2638 1911 2453 
Q 2175 2269 2175 1960 
Q 2175 1744 2034 1594 
Q 1894 1444 1638 1388 
z
" transform="scale(0.015625)"/>
      </defs>
      <use xlink:href="#DejaVuSans-41"/>
      <use xlink:href="#DejaVuSans-6c" transform="translate(68.408203 0)"/>
      <use xlink:href="#DejaVuSans-2082" transform="translate(96.191406 0)"/>
      <use xlink:href="#DejaVuSans-4f" transform="translate(136.279297 0)"/>
      <use xlink:href="#DejaVuSans-2083" transform="translate(214.990234 0)"/>
      <use xlink:href="#DejaVuSans-20" transform="translate(255.078125 0)"/>
      <use xlink:href="#DejaVuSans-28" transform="translate(286.865234 0)"/>
      <use xlink:href="#DejaVuSans-31" transform="translate(325.878906 0)"/>
      <use xlink:href="#DejaVuSans-30" transform="translate(389.501953 0)"/>
      <use xlink:href="#DejaVuSans-6e" transform="translate(453.125 0)"/>
      <use xlink:href="#DejaVuSans-6d" transform="translate(516.503906 0)"/>
      <use xlink:href="#DejaVuSans-29" transform="translate(613.916016 0)"/>
     </g>
    </g>
    <g id="line2d_35">
     <path d="M 75.55 172.60125 
L 83.55 172.60125 
L 91.55 172.60125 
" style="fill: none; stroke: #457b9d; stroke-width: 2; stroke-linecap: square"/>
    </g>
    <g id="text_18">
     <!-- HfO₂  (10nm) -->
     <g transform="translate(97.95 175.40125) scale(0.08 -0.08)">
      <defs>
       <path id="DejaVuSans-48" d="M 628 4666 
L 1259 4666 
L 1259 2753 
L 3553 2753 
L 3553 4666 
L 4184 4666 
L 4184 0 
L 3553 0 
L 3553 2222 
L 1259 2222 
L 1259 0 
L 628 0 
L 628 4666 
z
" transform="scale(0.015625)"/>
      </defs>
      <use xlink:href="#DejaVuSans-48"/>
      <use xlink:href="#DejaVuSans-66" transform="translate(75.195312 0)"/>
      <use xlink:href="#DejaVuSans-4f" transform="translate(110.400391 0)"/>
      <use xlink:href="#DejaVuSans-2082" transform="translate(189.111328 0)"/>
      <use xlink:href="#DejaVuSans-20" transform="translate(229.199219 0)"/>
      <use xlink:href="#DejaVuSans-20" transform="translate(260.986328 0)"/>
      <use xlink:href="#DejaVuSans-28" transform="translate(292.773438 0)"/>
      <use xlink:href="#DejaVuSans-31" transform="translate(331.787109 0)"/>
      <use xlink:href="#DejaVuSans-30" transform="translate(395.410156 0)"/>
      <use xlink:href="#DejaVuSans-6e" transform="translate(459.033203 0)"/>
      <use xlink:href="#DejaVuSans-6d" transform="translate(522.412109 0)"/>
      <use xlink:href="#DejaVuSans-29" transform="translate(619.824219 0)"/>
     </g>
    </g>
    <g id="line2d_36">
     <path d="M 75.55 184.34375 
L 83.55 184.34375 
L 91.55 184.34375 
" style="fill: none; stroke: #2a9d8f; stroke-width: 2; stroke-linecap: square"/>
    </g>
    <g id="text_19">
     <!-- SiO₂  (10nm) -->
     <g transform="translate(97.95 187.14375) scale(0.08 -0.08)">
      <use xlink:href="#DejaVuSans-53"/>
      <use xlink:href="#DejaVuSans-69" transform="translate(63.476562 0)"/>
      <use xlink:href="#DejaVuSans-4f" transform="translate(91.259766 0)"/>
      <use xlink:href="#DejaVuSans-2082" transform="translate(169.970703 0)"/>
      <use xlink:href="#DejaVuSans-20" transform="translate(210.058594 0)"/>
      <use xlink:href="#DejaVuSans-20" transform="translate(241.845703 0)"/>
      <use xlink:href="#DejaVuSans-28" transform="translate(273.632812 0)"/>
      <use xlink:href="#DejaVuSans-31" transform="translate(312.646484 0)"/>
      <use xlink:href="#DejaVuSans-30" transform="translate(376.269531 0)"/>
      <use xlink:href="#DejaVuSans-6e" transform="translate(439.892578 0)"/>
      <use xlink:href="#DejaVuSans-6d" transform="translate(503.271484 0)"/>
      <use xlink:href="#DejaVuSans-29" transform="translate(600.683594 0)"/>
     </g>
    </g>
    <g id="line2d_37">
     <path d="M 75.55 196.08625 
L 83.55 196.08625 
L 91.55 196.08625 
" style="fill: none; stroke: #f4a261; stroke-width: 2; stroke-linecap: square"/>
    </g>
    <g id="text_20">
     <!-- Al₂O₃  (5nm) -->
     <g transform="translate(97.95 198.88625) scale(0.08 -0.08)">
      <use xlink:href="#DejaVuSans-41"/>
      <use xlink:href="#DejaVuSans-6c" transform="translate(68.408203 0)"/>
      <use xlink:href="#DejaVuSans-2082" transform="translate(96.191406 0)"/>
      <use xlink:href="#DejaVuSans-4f" transform="translate(136.279297 0)"/>
      <use xlink:href="#DejaVuSans-2083" transform="translate(214.990234 0)"/>
      <use xlink:href="#DejaVuSans-20" transform="translate(255.078125 0)"/>
      <use xlink:href="#DejaVuSans-20" transform="translate(286.865234 0)"/>
      <use xlink:href="#DejaVuSans-28" transform="translate(318.652344 0)"/>
      <use xlink:href="#DejaVuSans-35" transform="translate(357.666016 0)"/>
      <use xlink:href="#DejaVuSans-6e" transform="translate(421.289062 0)"/>
      <use xlink:href="#DejaVuSans-6d" transform="translate(484.667969 0)"/>
      <use xlink:href="#DejaVuSans-29" transform="translate(582.080078 0)"/>
     </g>
    </g>
    <g id="line2d_38">
     <path d="M 75.55 207.82875 
L 83.55 207.82875 
L 91.55 207.82875 
" style="fill: none; stroke-dasharray: 7.4,3.2; stroke-dashoffset: 0; stroke: #808080; stroke-opacity: 0.6; stroke-width: 2"/>
    </g>
    <g id="text_21">
     <!-- θ₀=110° -->
     <g transform="translate(97.95 210.62875) scale(0.08 -0.08)">
      <defs>
       <path id="DejaVuSans-2080" d="M 1781 2091 
Q 1625 2360 1309 2360 
Q 994 2360 838 2091 
Q 678 1822 678 1285 
Q 678 744 838 476 
Q 994 207 1309 207 
Q 1625 207 1781 476 
Q 1941 744 1941 1285 
Q 1941 1822 1781 2091 
z
M 1309 2638 
Q 1813 2638 2078 2291 
Q 2344 1944 2344 1285 
Q 2344 622 2078 275 
Q 1813 -71 1309 -71 
Q 803 -71 537 275 
Q 272 622 272 1285 
Q 272 1944 537 2291 
Q 803 2638 1309 2638 
z
" transform="scale(0.015625)"/>
       <path id="DejaVuSans-3d" d="M 678 2906 
L 4684 2906 
L 4684 2381 
L 678 2381 
L 678 2906 
z
M 678 1631 
L 4684 1631 
L 4684 1100 
L 678 1100 
L 678 1631 
z
" transform="scale(0.015625)"/>
      </defs>
      <use xlink:href="#DejaVuSans-3b8"/>
      <use xlink:href="#DejaVuSans-2080" transform="translate(61.181641 0)"/>
      <use xlink:href="#DejaVuSans-3d" transform="translate(101.269531 0)"/>
      <use xlink:href="#DejaVuSans-31" transform="translate(185.058594 0)"/>
      <use xlink:href="#DejaVuSans-31" transform="translate(248.681641 0)"/>
      <use xlink:href="#DejaVuSans-30" transform="translate(312.304688 0)"/>
      <use xlink:href="#DejaVuSans-b0" transform="translate(375.927734 0)"/>
     </g>
    </g>
    <g id="line2d_39">
     <path d="M 75.55 219.63375 
L 83.55 219.63375 
L 91.55 219.63375 
" style="fill: none; stroke-dasharray: 2,3.3; stroke-dashoffset: 0; stroke: #000000; stroke-opacity: 0.6; stroke-width: 2"/>
    </g>
    <g id="text_22">
     <!-- θ_Ziel=60° -->
     <g transform="translate(97.95 222.43375) scale(0.08 -0.08)">
      <defs>
       <path id="DejaVuSans-5f" d="M 3263 -1063 
L 3263 -1509 
L -63 -1509 
L -63 -1063 
L 3263 -1063 
z
" transform="scale(0.015625)"/>
       <path id="DejaVuSans-5a" d="M 359 4666 
L 4025 4666 
L 4025 4184 
L 1075 531 
L 4097 531 
L 4097 0 
L 288 0 
L 288 481 
L 3238 4134 
L 359 4134 
L 359 4666 
z
" transform="scale(0.015625)"/>
      </defs>
      <use xlink:href="#DejaVuSans-3b8"/>
      <use xlink:href="#DejaVuSans-5f" transform="translate(61.181641 0)"/>
      <use xlink:href="#DejaVuSans-5a" transform="translate(111.181641 0)"/>
      <use xlink:href="#DejaVuSans-69" transform="translate(179.6875 0)"/>
      <use xlink:href="#DejaVuSans-65" transform="translate(207.470703 0)"/>
      <use xlink:href="#DejaVuSans-6c" transform="translate(268.994141 0)"/>
      <use xlink:href="#DejaVuSans-3d" transform="translate(296.777344 0)"/>
      <use xlink:href="#DejaVuSans-36" transform="translate(380.566406 0)"/>
      <use xlink:href="#DejaVuSans-30" transform="translate(444.189453 0)"/>
      <use xlink:href="#DejaVuSans-b0" transform="translate(507.8125 0)"/>
     </g>
    </g>
   </g>
  </g>
  <g id="axes_2">
   <g id="patch_8">
    <path d="M 480.342187 299.9 
L 836.5 299.9 
L 836.5 82 
L 480.342187 82 
z
" style="fill: #ffffff"/>
   </g>
   <g id="patch_9">
    <path d="M 496.531179 299.9 
L 564.695354 299.9 
L 564.695354 163.291105 
L 496.531179 163.291105 
z
" clip-path="url(#p1ddffd0793)" style="fill: #e63946; opacity: 0.8; stroke: #ffffff; stroke-linejoin: miter"/>
   </g>
   <g id="patch_10">
    <path d="M 581.736397 299.9 
L 649.900572 299.9 
L 649.900572 217.934663 
L 581.736397 217.934663 
z
" clip-path="url(#p1ddffd0793)" style="fill: #457b9d; opacity: 0.8; stroke: #ffffff; stroke-linejoin: miter"/>
   </g>
   <g id="patch_11">
    <path d="M 666.941616 299.9 
L 735.10579 299.9 
L 735.10579 92.37619 
L 666.941616 92.37619 
z
" clip-path="url(#p1ddffd0793)" style="fill: #2a9d8f; opacity: 0.8; stroke: #ffffff; stroke-linejoin: miter"/>
   </g>
   <g id="patch_12">
    <path d="M 752.146834 299.9 
L 820.311009 299.9 
L 820.311009 203.302924 
L 752.146834 203.302924 
z
" clip-path="url(#p1ddffd0793)" style="fill: #f4a261; opacity: 0.8; stroke: #ffffff; stroke-linejoin: miter"/>
   </g>
   <g id="matplotlib.axis_3">
    <g id="xtick_7">
     <g id="line2d_40">
      <path d="M 530.613266 299.9 
L 530.613266 82 
" clip-path="url(#p1ddffd0793)" style="fill: none; stroke: #b0b0b0; stroke-opacity: 0.3; stroke-width: 0.8; stroke-linecap: square"/>
     </g>
     <g id="line2d_41">
      <g>
       <use xlink:href="#m4693939c43" x="530.613266" y="299.9" style="stroke: #000000; stroke-width: 0.8"/>
      </g>
     </g>
     <g id="text_23">
      <!-- Al₂O₃ (10nm) -->
      <g transform="translate(473.366802 328.714914) rotate(-15) scale(0.09 -0.09)">
       <use xlink:href="#DejaVuSans-41"/>
       <use xlink:href="#DejaVuSans-6c" transform="translate(68.408203 0)"/>
       <use xlink:href="#DejaVuSans-2082" transform="translate(96.191406 0)"/>
       <use xlink:href="#DejaVuSans-4f" transform="translate(136.279297 0)"/>
       <use xlink:href="#DejaVuSans-2083" transform="translate(214.990234 0)"/>
       <use xlink:href="#DejaVuSans-20" transform="translate(255.078125 0)"/>
       <use xlink:href="#DejaVuSans-28" transform="translate(286.865234 0)"/>
       <use xlink:href="#DejaVuSans-31" transform="translate(325.878906 0)"/>
       <use xlink:href="#DejaVuSans-30" transform="translate(389.501953 0)"/>
       <use xlink:href="#DejaVuSans-6e" transform="translate(453.125 0)"/>
       <use xlink:href="#DejaVuSans-6d" transform="translate(516.503906 0)"/>
       <use xlink:href="#DejaVuSans-29" transform="translate(613.916016 0)"/>
      </g>
     </g>
    </g>
    <g id="xtick_8">
     <g id="line2d_42">
      <path d="M 615.818485 299.9 
L 615.818485 82 
" clip-path="url(#p1ddffd0793)" style="fill: none; stroke: #b0b0b0; stroke-opacity: 0.3; stroke-width: 0.8; stroke-linecap: square"/>
     </g>
     <g id="line2d_43">
      <g>
       <use xlink:href="#m4693939c43" x="615.818485" y="299.9" style="stroke: #000000; stroke-width: 0.8"/>
      </g>
     </g>
     <g id="text_24">
      <!-- HfO₂  (10nm) -->
      <g transform="translate(558.058571 328.852492) rotate(-15) scale(0.09 -0.09)">
       <use xlink:href="#DejaVuSans-48"/>
       <use xlink:href="#DejaVuSans-66" transform="translate(75.195312 0)"/>
       <use xlink:href="#DejaVuSans-4f" transform="translate(110.400391 0)"/>
       <use xlink:href="#DejaVuSans-2082" transform="translate(189.111328 0)"/>
       <use xlink:href="#DejaVuSans-20" transform="translate(229.199219 0)"/>
       <use xlink:href="#DejaVuSans-20" transform="translate(260.986328 0)"/>
       <use xlink:href="#DejaVuSans-28" transform="translate(292.773438 0)"/>
       <use xlink:href="#DejaVuSans-31" transform="translate(331.787109 0)"/>
       <use xlink:href="#DejaVuSans-30" transform="translate(395.410156 0)"/>
       <use xlink:href="#DejaVuSans-6e" transform="translate(459.033203 0)"/>
       <use xlink:href="#DejaVuSans-6d" transform="translate(522.412109 0)"/>
       <use xlink:href="#DejaVuSans-29" transform="translate(619.824219 0)"/>
      </g>
     </g>
    </g>
    <g id="xtick_9">
     <g id="line2d_44">
      <path d="M 701.023703 299.9 
L 701.023703 82 
" clip-path="url(#p1ddffd0793)" style="fill: none; stroke: #b0b0b0; stroke-opacity: 0.3; stroke-width: 0.8; stroke-linecap: square"/>
     </g>
     <g id="line2d_45">
      <g>
       <use xlink:href="#m4693939c43" x="701.023703" y="299.9" style="stroke: #000000; stroke-width: 0.8"/>
      </g>
     </g>
     <g id="text_25">
      <!-- SiO₂  (10nm) -->
      <g transform="translate(644.927747 328.406636) rotate(-15) scale(0.09 -0.09)">
       <use xlink:href="#DejaVuSans-53"/>
       <use xlink:href="#DejaVuSans-69" transform="translate(63.476562 0)"/>
       <use xlink:href="#DejaVuSans-4f" transform="translate(91.259766 0)"/>
       <use xlink:href="#DejaVuSans-2082" transform="translate(169.970703 0)"/>
       <use xlink:href="#DejaVuSans-20" transform="translate(210.058594 0)"/>
       <use xlink:href="#DejaVuSans-20" transform="translate(241.845703 0)"/>
       <use xlink:href="#DejaVuSans-28" transform="translate(273.632812 0)"/>
       <use xlink:href="#DejaVuSans-31" transform="translate(312.646484 0)"/>
       <use xlink:href="#DejaVuSans-30" transform="translate(376.269531 0)"/>
       <use xlink:href="#DejaVuSans-6e" transform="translate(439.892578 0)"/>
       <use xlink:href="#DejaVuSans-6d" transform="translate(503.271484 0)"/>
       <use xlink:href="#DejaVuSans-29" transform="translate(600.683594 0)"/>
      </g>
     </g>
    </g>
    <g id="xtick_10">
     <g id="line2d_46">
      <path d="M 786.228921 299.9 
L 786.228921 82 
" clip-path="url(#p1ddffd0793)" style="fill: none; stroke: #b0b0b0; stroke-opacity: 0.3; stroke-width: 0.8; stroke-linecap: square"/>
     </g>
     <g id="line2d_47">
      <g>
       <use xlink:href="#m4693939c43" x="786.228921" y="299.9" style="stroke: #000000; stroke-width: 0.8"/>
      </g>
     </g>
     <g id="text_26">
      <!-- Al₂O₃  (5nm) -->
      <g transform="translate(731.75074 327.973155) rotate(-15) scale(0.09 -0.09)">
       <use xlink:href="#DejaVuSans-41"/>
       <use xlink:href="#DejaVuSans-6c" transform="translate(68.408203 0)"/>
       <use xlink:href="#DejaVuSans-2082" transform="translate(96.191406 0)"/>
       <use xlink:href="#DejaVuSans-4f" transform="translate(136.279297 0)"/>
       <use xlink:href="#DejaVuSans-2083" transform="translate(214.990234 0)"/>
       <use xlink:href="#DejaVuSans-20" transform="translate(255.078125 0)"/>
       <use xlink:href="#DejaVuSans-20" transform="translate(286.865234 0)"/>
       <use xlink:href="#DejaVuSans-28" transform="translate(318.652344 0)"/>
       <use xlink:href="#DejaVuSans-35" transform="translate(357.666016 0)"/>
       <use xlink:href="#DejaVuSans-6e" transform="translate(421.289062 0)"/>
       <use xlink:href="#DejaVuSans-6d" transform="translate(484.667969 0)"/>
       <use xlink:href="#DejaVuSans-29" transform="translate(582.080078 0)"/>
      </g>
     </g>
    </g>
   </g>
   <g id="matplotlib.axis_4">
    <g id="ytick_8">
     <g id="line2d_48">
      <path d="M 480.342187 299.9 
L 836.5 299.9 
" clip-path="url(#p1ddffd0793)" style="fill: none; stroke: #b0b0b0; stroke-opacity: 0.3; stroke-width: 0.8; stroke-linecap: square"/>
     </g>
     <g id="line2d_49">
      <g>
       <use xlink:href="#m51e4b55254" x="480.342187" y="299.9" style="stroke: #000000; stroke-width: 0.8"/>
      </g>
     </g>
     <g id="text_27">
      <!-- 0 -->
      <g transform="translate(466.979687 303.699219) scale(0.1 -0.1)">
       <use xlink:href="#DejaVuSans-30"/>
      </g>
     </g>
    </g>
    <g id="ytick_9">
     <g id="line2d_50">
      <path d="M 480.342187 264.878712 
L 836.5 264.878712 
" clip-path="url(#p1ddffd0793)" style="fill: none; stroke: #b0b0b0; stroke-opacity: 0.3; stroke-width: 0.8; stroke-linecap: square"/>
     </g>
     <g id="line2d_51">
      <g>
       <use xlink:href="#m51e4b55254" x="480.342187" y="264.878712" style="stroke: #000000; stroke-width: 0.8"/>
      </g>
     </g>
     <g id="text_28">
      <!-- 1 -->
      <g transform="translate(466.979687 268.677931) scale(0.1 -0.1)">
       <use xlink:href="#DejaVuSans-31"/>
      </g>
     </g>
    </g>
    <g id="ytick_10">
     <g id="line2d_52">
      <path d="M 480.342187 229.857424 
L 836.5 229.857424 
" clip-path="url(#p1ddffd0793)" style="fill: none; stroke: #b0b0b0; stroke-opacity: 0.3; stroke-width: 0.8; stroke-linecap: square"/>
     </g>
     <g id="line2d_53">
      <g>
       <use xlink:href="#m51e4b55254" x="480.342187" y="229.857424" style="stroke: #000000; stroke-width: 0.8"/>
      </g>
     </g>
     <g id="text_29">
      <!-- 2 -->
      <g transform="translate(466.979687 233.656643) scale(0.1 -0.1)">
       <use xlink:href="#DejaVuSans-32"/>
      </g>
     </g>
    </g>
    <g id="ytick_11">
     <g id="line2d_54">
      <path d="M 480.342187 194.836136 
L 836.5 194.836136 
" clip-path="url(#p1ddffd0793)" style="fill: none; stroke: #b0b0b0; stroke-opacity: 0.3; stroke-width: 0.8; stroke-linecap: square"/>
     </g>
     <g id="line2d_55">
      <g>
       <use xlink:href="#m51e4b55254" x="480.342187" y="194.836136" style="stroke: #000000; stroke-width: 0.8"/>
      </g>
     </g>
     <g id="text_30">
      <!-- 3 -->
      <g transform="translate(466.979687 198.635355) scale(0.1 -0.1)">
       <use xlink:href="#DejaVuSans-33"/>
      </g>
     </g>
    </g>
    <g id="ytick_12">
     <g id="line2d_56">
      <path d="M 480.342187 159.814848 
L 836.5 159.814848 
" clip-path="url(#p1ddffd0793)" style="fill: none; stroke: #b0b0b0; stroke-opacity: 0.3; stroke-width: 0.8; stroke-linecap: square"/>
     </g>
     <g id="line2d_57">
      <g>
       <use xlink:href="#m51e4b55254" x="480.342187" y="159.814848" style="stroke: #000000; stroke-width: 0.8"/>
      </g>
     </g>
     <g id="text_31">
      <!-- 4 -->
      <g transform="translate(466.979687 163.614067) scale(0.1 -0.1)">
       <use xlink:href="#DejaVuSans-34"/>
      </g>
     </g>
    </g>
    <g id="ytick_13">
     <g id="line2d_58">
      <path d="M 480.342187 124.79356 
L 836.5 124.79356 
" clip-path="url(#p1ddffd0793)" style="fill: none; stroke: #b0b0b0; stroke-opacity: 0.3; stroke-width: 0.8; stroke-linecap: square"/>
     </g>
     <g id="line2d_59">
      <g>
       <use xlink:href="#m51e4b55254" x="480.342187" y="124.79356" style="stroke: #000000; stroke-width: 0.8"/>
      </g>
     </g>
     <g id="text_32">
      <!-- 5 -->
      <g transform="translate(466.979687 128.592779) scale(0.1 -0.1)">
       <use xlink:href="#DejaVuSans-35"/>
      </g>
     </g>
    </g>
    <g id="ytick_14">
     <g id="line2d_60">
      <path d="M 480.342187 89.772273 
L 836.5 89.772273 
" clip-path="url(#p1ddffd0793)" style="fill: none; stroke: #b0b0b0; stroke-opacity: 0.3; stroke-width: 0.8; stroke-linecap: square"/>
     </g>
     <g id="line2d_61">
      <g>
       <use xlink:href="#m51e4b55254" x="480.342187" y="89.772273" style="stroke: #000000; stroke-width: 0.8"/>
      </g>
     </g>
     <g id="text_33">
      <!-- 6 -->
      <g transform="translate(466.979687 93.571491) scale(0.1 -0.1)">
       <use xlink:href="#DejaVuSans-36"/>
      </g>
     </g>
    </g>
    <g id="text_34">
     <!-- Schaltspannung V_schalt (V) -->
     <g transform="translate(460.386094 269.659297) rotate(-90) scale(0.11 -0.11)">
      <use xlink:href="#DejaVuSans-53"/>
      <use xlink:href="#DejaVuSans-63" transform="translate(63.476562 0)"/>
      <use xlink:href="#DejaVuSans-68" transform="translate(118.457031 0)"/>
      <use xlink:href="#DejaVuSans-61" transform="translate(181.835938 0)"/>
      <use xlink:href="#DejaVuSans-6c" transform="translate(243.115234 0)"/>
      <use xlink:href="#DejaVuSans-74" transform="translate(270.898438 0)"/>
      <use xlink:href="#DejaVuSans-73" transform="translate(310.107422 0)"/>
      <use xlink:href="#DejaVuSans-70" transform="translate(362.207031 0)"/>
      <use xlink:href="#DejaVuSans-61" transform="translate(425.683594 0)"/>
      <use xlink:href="#DejaVuSans-6e" transform="translate(486.962891 0)"/>
      <use xlink:href="#DejaVuSans-6e" transform="translate(550.341797 0)"/>
      <use xlink:href="#DejaVuSans-75" transform="translate(613.720703 0)"/>
      <use xlink:href="#DejaVuSans-6e" transform="translate(677.099609 0)"/>
      <use xlink:href="#DejaVuSans-67" transform="translate(740.478516 0)"/>
      <use xlink:href="#DejaVuSans-20" transform="translate(803.955078 0)"/>
      <use xlink:href="#DejaVuSans-56" transform="translate(835.742188 0)"/>
      <use xlink:href="#DejaVuSans-5f" transform="translate(904.150391 0)"/>
      <use xlink:href="#DejaVuSans-73" transform="translate(954.150391 0)"/>
      <use xlink:href="#DejaVuSans-63" transform="translate(1006.25 0)"/>
      <use xlink:href="#DejaVuSans-68" transform="translate(1061.230469 0)"/>
      <use xlink:href="#DejaVuSans-61" transform="translate(1124.609375 0)"/>
      <use xlink:href="#DejaVuSans-6c" transform="translate(1185.888672 0)"/>
      <use xlink:href="#DejaVuSans-74" transform="translate(1213.671875 0)"/>
      <use xlink:href="#DejaVuSans-20" transform="translate(1252.880859 0)"/>
      <use xlink:href="#DejaVuSans-28" transform="translate(1284.667969 0)"/>
      <use xlink:href="#DejaVuSans-56" transform="translate(1323.681641 0)"/>
      <use xlink:href="#DejaVuSans-29" transform="translate(1392.089844 0)"/>
     </g>
    </g>
   </g>
   <g id="patch_13">
    <path d="M 480.342187 299.9 
L 480.342187 82 
" style="fill: none; stroke: #000000; stroke-width: 0.8; stroke-linejoin: miter; stroke-linecap: square"/>
   </g>
   <g id="patch_14">
    <path d="M 836.5 299.9 
L 836.5 82 
" style="fill: none; stroke: #000000; stroke-width: 0.8; stroke-linejoin: miter; stroke-linecap: square"/>
   </g>
   <g id="patch_15">
    <path d="M 480.342187 299.9 
L 836.5 299.9 
" style="fill: none; stroke: #000000; stroke-width: 0.8; stroke-linejoin: miter; stroke-linecap: square"/>
   </g>
   <g id="patch_16">
    <path d="M 480.342187 82 
L 836.5 82 
" style="fill: none; stroke: #000000; stroke-width: 0.8; stroke-linejoin: miter; stroke-linecap: square"/>
   </g>
   <g id="text_35">
    <!-- 3.90V -->
    <g transform="translate(517.515454 159.668321) scale(0.09 -0.09)">
     <defs>
      <path id="DejaVuSans-2e" d="M 684 794 
L 1344 794 
L 1344 0 
L 684 0 
L 684 794 
z
" transform="scale(0.015625)"/>
     </defs>
     <use xlink:href="#DejaVuSans-33"/>
     <use xlink:href="#DejaVuSans-2e" transform="translate(63.623047 0)"/>
     <use xlink:href="#DejaVuSans-39" transform="translate(95.410156 0)"/>
     <use xlink:href="#DejaVuSans-30" transform="translate(159.033203 0)"/>
     <use xlink:href="#DejaVuSans-56" transform="translate(222.65625 0)"/>
    </g>
   </g>
   <g id="text_36">
    <!-- 2.34V -->
    <g transform="translate(602.720672 214.31188) scale(0.09 -0.09)">
     <use xlink:href="#DejaVuSans-32"/>
     <use xlink:href="#DejaVuSans-2e" transform="translate(63.623047 0)"/>
     <use xlink:href="#DejaVuSans-33" transform="translate(95.410156 0)"/>
     <use xlink:href="#DejaVuSans-34" transform="translate(159.033203 0)"/>
     <use xlink:href="#DejaVuSans-56" transform="translate(222.65625 0)"/>
    </g>
   </g>
   <g id="text_37">
    <!-- 5.93V -->
    <g transform="translate(687.92589 88.753407) scale(0.09 -0.09)">
     <use xlink:href="#DejaVuSans-35"/>
     <use xlink:href="#DejaVuSans-2e" transform="translate(63.623047 0)"/>
     <use xlink:href="#DejaVuSans-39" transform="translate(95.410156 0)"/>
     <use xlink:href="#DejaVuSans-33" transform="translate(159.033203 0)"/>
     <use xlink:href="#DejaVuSans-56" transform="translate(222.65625 0)"/>
    </g>
   </g>
   <g id="text_38">
    <!-- 2.76V -->
    <g transform="translate(773.131109 199.68014) scale(0.09 -0.09)">
     <use xlink:href="#DejaVuSans-32"/>
     <use xlink:href="#DejaVuSans-2e" transform="translate(63.623047 0)"/>
     <use xlink:href="#DejaVuSans-37" transform="translate(95.410156 0)"/>
     <use xlink:href="#DejaVuSans-36" transform="translate(159.033203 0)"/>
     <use xlink:href="#DejaVuSans-56" transform="translate(222.65625 0)"/>
    </g>
   </g>
   <g id="text_39">
    <!-- Schaltspannung 110°→60° nach Dielektrikum -->
    <g transform="translate(521.535781 76) scale(0.12 -0.12)">
     <defs>
      <path id="DejaVuSans-2192" d="M 5050 2147 
L 5050 1866 
L 3822 638 
L 3447 1013 
L 4175 1741 
L 366 1741 
L 366 2272 
L 4175 2272 
L 3447 3000 
L 3822 3375 
L 5050 2147 
z
" transform="scale(0.015625)"/>
     </defs>
     <use xlink:href="#DejaVuSans-53"/>
     <use xlink:href="#DejaVuSans-63" transform="translate(63.476562 0)"/>
     <use xlink:href="#DejaVuSans-68" transform="translate(118.457031 0)"/>
     <use xlink:href="#DejaVuSans-61" transform="translate(181.835938 0)"/>
     <use xlink:href="#DejaVuSans-6c" transform="translate(243.115234 0)"/>
     <use xlink:href="#DejaVuSans-74" transform="translate(270.898438 0)"/>
     <use xlink:href="#DejaVuSans-73" transform="translate(310.107422 0)"/>
     <use xlink:href="#DejaVuSans-70" transform="translate(362.207031 0)"/>
     <use xlink:href="#DejaVuSans-61" transform="translate(425.683594 0)"/>
     <use xlink:href="#DejaVuSans-6e" transform="translate(486.962891 0)"/>
     <use xlink:href="#DejaVuSans-6e" transform="translate(550.341797 0)"/>
     <use xlink:href="#DejaVuSans-75" transform="translate(613.720703 0)"/>
     <use xlink:href="#DejaVuSans-6e" transform="translate(677.099609 0)"/>
     <use xlink:href="#DejaVuSans-67" transform="translate(740.478516 0)"/>
     <use xlink:href="#DejaVuSans-20" transform="translate(803.955078 0)"/>
     <use xlink:href="#DejaVuSans-31" transform="translate(835.742188 0)"/>
     <use xlink:href="#DejaVuSans-31" transform="translate(899.365234 0)"/>
     <use xlink:href="#DejaVuSans-30" transform="translate(962.988281 0)"/>
     <use xlink:href="#DejaVuSans-b0" transform="translate(1026.611328 0)"/>
     <use xlink:href="#DejaVuSans-2192" transform="translate(1076.611328 0)"/>
     <use xlink:href="#DejaVuSans-36" transform="translate(1160.400391 0)"/>
     <use xlink:href="#DejaVuSans-30" transform="translate(1224.023438 0)"/>
     <use xlink:href="#DejaVuSans-b0" transform="translate(1287.646484 0)"/>
     <use xlink:href="#DejaVuSans-20" transform="translate(1337.646484 0)"/>
     <use xlink:href="#DejaVuSans-6e" transform="translate(1369.433594 0)"/>
     <use xlink:href="#DejaVuSans-61" transform="translate(1432.8125 0)"/>
     <use xlink:href="#DejaVuSans-63" transform="translate(1494.091797 0)"/>
     <use xlink:href="#DejaVuSans-68" transform="translate(1549.072266 0)"/>
     <use xlink:href="#DejaVuSans-20" transform="translate(1612.451172 0)"/>
     <use xlink:href="#DejaVuSans-44" transform="translate(1644.238281 0)"/>
     <use xlink:href="#DejaVuSans-69" transform="translate(1721.240234 0)"/>
     <use xlink:href="#DejaVuSans-65" transform="translate(1749.023438 0)"/>
     <use xlink:href="#DejaVuSans-6c" transform="translate(1810.546875 0)"/>
     <use xlink:href="#DejaVuSans-65" transform="translate(1838.330078 0)"/>
     <use xlink:href="#DejaVuSans-6b" transform="translate(1899.853516 0)"/>
     <use xlink:href="#DejaVuSans-74" transform="translate(1957.763672 0)"/>
     <use xlink:href="#DejaVuSans-72" transform="translate(1996.972656 0)"/>
     <use xlink:href="#DejaVuSans-69" transform="translate(2038.085938 0)"/>
     <use xlink:href="#DejaVuSans-6b" transform="translate(2065.869141 0)"/>
     <use xlink:href="#DejaVuSans-75" transform="translate(2120.654297 0)"/>
     <use xlink:href="#DejaVuSans-6d" transform="translate(2184.033203 0)"/>
    </g>
   </g>
  </g>
  <g id="text_40">
   <!-- Exp 04: EWOD Young-Lippmann – θ(V) und Materialvergleich -->
   <g transform="translate(210.563281 17.179531) scale(0.13 -0.13)">
    <defs>
     <path id="DejaVuSans-Bold-45" d="M 588 4666 
L 3834 4666 
L 3834 3756 
L 1791 3756 
L 1791 2888 
L 3713 2888 
L 3713 1978 
L 1791 1978 
L 1791 909 
L 3903 909 
L 3903 0 
L 588 0 
L 588 4666 
z
" transform="scale(0.015625)"/>
     <path id="DejaVuSans-Bold-78" d="M 1422 1791 
L 159 3500 
L 1344 3500 
L 2059 2463 
L 2784 3500 
L 3969 3500 
L 2706 1797 
L 4031 0 
L 2847 0 
L 2059 1106 
L 1281 0 
L 97 0 
L 1422 1791 
z
" transform="scale(0.015625)"/>
     <path id="DejaVuSans-Bold-70" d="M 1656 506 
L 1656 -1331 
L 538 -1331 
L 538 3500 
L 1656 3500 
L 1656 2988 
Q 1888 3294 2169 3439 
Q 2450 3584 2816 3584 
Q 3463 3584 3878 3070 
Q 4294 2556 4294 1747 
Q 4294 938 3878 423 
Q 3463 -91 2816 -91 
Q 2450 -91 2169 54 
Q 1888 200 1656 506 
z
M 2400 2772 
Q 2041 2772 1848 2508 
Q 1656 2244 1656 1747 
Q 1656 1250 1848 986 
Q 2041 722 2400 722 
Q 2759 722 2948 984 
Q 3138 1247 3138 1747 
Q 3138 2247 2948 2509 
Q 2759 2772 2400 2772 
z
" transform="scale(0.015625)"/>
     <path id="DejaVuSans-Bold-20" transform="scale(0.015625)"/>
     <path id="DejaVuSans-Bold-30" d="M 2944 2338 
Q 2944 3213 2780 3570 
Q 2616 3928 2228 3928 
Q 1841 3928 1675 3570 
Q 1509 3213 1509 2338 
Q 1509 1453 1675 1090 
Q 1841 728 2228 728 
Q 2613 728 2778 1090 
Q 2944 1453 2944 2338 
z
M 4147 2328 
Q 4147 1169 3647 539 
Q 3147 -91 2228 -91 
Q 1306 -91 806 539 
Q 306 1169 306 2328 
Q 306 3491 806 4120 
Q 1306 4750 2228 4750 
Q 3147 4750 3647 4120 
Q 4147 3491 4147 2328 
z
" transform="scale(0.015625)"/>
     <path id="DejaVuSans-Bold-34" d="M 2356 3675 
L 1038 1722 
L 2356 1722 
L 2356 3675 
z
M 2156 4666 
L 3494 4666 
L 3494 1722 
L 4159 1722 
L 4159 850 
L 3494 850 
L 3494 0 
L 2356 0 
L 2356 850 
L 288 850 
L 288 1881 
L 2156 4666 
z
" transform="scale(0.015625)"/>
     <path id="DejaVuSans-Bold-3a" d="M 716 3500 
L 1844 3500 
L 1844 2291 
L 716 2291 
L 716 3500 
z
M 716 1209 
L 1844 1209 
L 1844 0 
L 716 0 
L 716 1209 
z
" transform="scale(0.015625)"/>
     <path id="DejaVuSans-Bold-57" d="M 191 4666 
L 1344 4666 
L 2150 1275 
L 2950 4666 
L 4109 4666 
L 4909 1275 
L 5716 4666 
L 6859 4666 
L 5759 0 
L 4372 0 
L 3525 3547 
L 2688 0 
L 1300 0 
L 191 4666 
z
" transform="scale(0.015625)"/>
     <path id="DejaVuSans-Bold-4f" d="M 2719 3878 
Q 2169 3878 1866 3472 
Q 1563 3066 1563 2328 
Q 1563 1594 1866 1187 
Q 2169 781 2719 781 
Q 3272 781 3575 1187 
Q 3878 1594 3878 2328 
Q 3878 3066 3575 3472 
Q 3272 3878 2719 3878 
z
M 2719 4750 
Q 3844 4750 4481 4106 
Q 5119 3463 5119 2328 
Q 5119 1197 4481 553 
Q 3844 -91 2719 -91 
Q 1597 -91 958 553 
Q 319 1197 319 2328 
Q 319 3463 958 4106 
Q 1597 4750 2719 4750 
z
" transform="scale(0.015625)"/>
     <path id="DejaVuSans-Bold-44" d="M 1791 3756 
L 1791 909 
L 2222 909 
Q 2959 909 3348 1275 
Q 3738 1641 3738 2338 
Q 3738 3031 3350 3393 
Q 2963 3756 2222 3756 
L 1791 3756 
z
M 588 4666 
L 1856 4666 
Q 2919 4666 3439 4514 
Q 3959 4363 4331 4000 
Q 4659 3684 4818 3271 
Q 4978 2859 4978 2338 
Q 4978 1809 4818 1395 
Q 4659 981 4331 666 
Q 3956 303 3431 151 
Q 2906 0 1856 0 
L 588 0 
L 588 4666 
z
" transform="scale(0.015625)"/>
     <path id="DejaVuSans-Bold-59" d="M -63 4666 
L 1253 4666 
L 2316 3003 
L 3378 4666 
L 4697 4666 
L 2919 1966 
L 2919 0 
L 1716 0 
L 1716 1966 
L -63 4666 
z
" transform="scale(0.015625)"/>
     <path id="DejaVuSans-Bold-6f" d="M 2203 2784 
Q 1831 2784 1636 2517 
Q 1441 2250 1441 1747 
Q 1441 1244 1636 976 
Q 1831 709 2203 709 
Q 2569 709 2762 976 
Q 2956 1244 2956 1747 
Q 2956 2250 2762 2517 
Q 2569 2784 2203 2784 
z
M 2203 3584 
Q 3106 3584 3614 3096 
Q 4122 2609 4122 1747 
Q 4122 884 3614 396 
Q 3106 -91 2203 -91 
Q 1297 -91 786 396 
Q 275 884 275 1747 
Q 275 2609 786 3096 
Q 1297 3584 2203 3584 
z
" transform="scale(0.015625)"/>
     <path id="DejaVuSans-Bold-75" d="M 500 1363 
L 500 3500 
L 1625 3500 
L 1625 3150 
Q 1625 2866 1622 2436 
Q 1619 2006 1619 1863 
Q 1619 1441 1641 1255 
Q 1663 1069 1716 984 
Q 1784 875 1895 815 
Q 2006 756 2150 756 
Q 2500 756 2700 1025 
Q 2900 1294 2900 1772 
L 2900 3500 
L 4019 3500 
L 4019 0 
L 2900 0 
L 2900 506 
Q 2647 200 2364 54 
Q 2081 -91 1741 -91 
Q 1134 -91 817 281 
Q 500 653 500 1363 
z
" transform="scale(0.015625)"/>
     <path id="DejaVuSans-Bold-6e" d="M 4056 2131 
L 4056 0 
L 2931 0 
L 2931 347 
L 2931 1631 
Q 2931 2084 2911 2256 
Q 2891 2428 2841 2509 
Q 2775 2619 2662 2680 
Q 2550 2741 2406 2741 
Q 2056 2741 1856 2470 
Q 1656 2200 1656 1722 
L 1656 0 
L 538 0 
L 538 3500 
L 1656 3500 
L 1656 2988 
Q 1909 3294 2193 3439 
Q 2478 3584 2822 3584 
Q 3428 3584 3742 3212 
Q 4056 2841 4056 2131 
z
" transform="scale(0.015625)"/>
     <path id="DejaVuSans-Bold-67" d="M 2919 594 
Q 2688 288 2409 144 
Q 2131 0 1766 0 
Q 1125 0 706 504 
Q 288 1009 288 1791 
Q 288 2575 706 3076 
Q 1125 3578 1766 3578 
Q 2131 3578 2409 3434 
Q 2688 3291 2919 2981 
L 2919 3500 
L 4044 3500 
L 4044 353 
Q 4044 -491 3511 -936 
Q 2978 -1381 1966 -1381 
Q 1638 -1381 1331 -1331 
Q 1025 -1281 716 -1178 
L 716 -306 
Q 1009 -475 1290 -558 
Q 1572 -641 1856 -641 
Q 2406 -641 2662 -400 
Q 2919 -159 2919 353 
L 2919 594 
z
M 2181 2772 
Q 1834 2772 1640 2515 
Q 1447 2259 1447 1791 
Q 1447 1309 1634 1061 
Q 1822 813 2181 813 
Q 2531 813 2725 1069 
Q 2919 1325 2919 1791 
Q 2919 2259 2725 2515 
Q 2531 2772 2181 2772 
z
" transform="scale(0.015625)"/>
     <path id="DejaVuSans-Bold-2d" d="M 347 2297 
L 2309 2297 
L 2309 1388 
L 347 1388 
L 347 2297 
z
" transform="scale(0.015625)"/>
     <path id="DejaVuSans-Bold-4c" d="M 588 4666 
L 1791 4666 
L 1791 909 
L 3903 909 
L 3903 0 
L 588 0 
L 588 4666 
z
" transform="scale(0.015625)"/>
     <path id="DejaVuSans-Bold-69" d="M 538 3500 
L 1656 3500 
L 1656 0 
L 538 0 
L 538 3500 
z
M 538 4863 
L 1656 4863 
L 1656 3950 
L 538 3950 
L 538 4863 
z
" transform="scale(0.015625)"/>
     <path id="DejaVuSans-Bold-6d" d="M 3781 2919 
Q 3994 3244 4286 3414 
Q 4578 3584 4928 3584 
Q 5531 3584 5847 3212 
Q 6163 2841 6163 2131 
L 6163 0 
L 5038 0 
L 5038 1825 
Q 5041 1866 5042 1909 
Q 5044 1953 5044 2034 
Q 5044 2406 4934 2573 
Q 4825 2741 4581 2741 
Q 4263 2741 4089 2478 
Q 3916 2216 3909 1719 
L 3909 0 
L 2784 0 
L 2784 1825 
Q 2784 2406 2684 2573 
Q 2584 2741 2328 2741 
Q 2006 2741 1831 2477 
Q 1656 2213 1656 1722 
L 1656 0 
L 531 0 
L 531 3500 
L 1656 3500 
L 1656 2988 
Q 1863 3284 2130 3434 
Q 2397 3584 2719 3584 
Q 3081 3584 3359 3409 
Q 3638 3234 3781 2919 
z
" transform="scale(0.015625)"/>
     <path id="DejaVuSans-Bold-61" d="M 2106 1575 
Q 1756 1575 1579 1456 
Q 1403 1338 1403 1106 
Q 1403 894 1545 773 
Q 1688 653 1941 653 
Q 2256 653 2472 879 
Q 2688 1106 2688 1447 
L 2688 1575 
L 2106 1575 
z
M 3816 1997 
L 3816 0 
L 2688 0 
L 2688 519 
Q 2463 200 2181 54 
Q 1900 -91 1497 -91 
Q 953 -91 614 226 
Q 275 544 275 1050 
Q 275 1666 698 1953 
Q 1122 2241 2028 2241 
L 2688 2241 
L 2688 2328 
Q 2688 2594 2478 2717 
Q 2269 2841 1825 2841 
Q 1466 2841 1156 2769 
Q 847 2697 581 2553 
L 581 3406 
Q 941 3494 1303 3539 
Q 1666 3584 2028 3584 
Q 2975 3584 3395 3211 
Q 3816 2838 3816 1997 
z
" transform="scale(0.015625)"/>
     <path id="DejaVuSans-Bold-2013" d="M 344 2156 
L 2856 2156 
L 2856 1350 
L 344 1350 
L 344 2156 
z
" transform="scale(0.015625)"/>
     <path id="DejaVuSans-Bold-3b8" d="M 1447 2081 
Q 1469 1444 1638 1181 
Q 1922 728 2197 725 
Q 2475 722 2763 1181 
Q 2931 1453 2953 2081 
L 1447 2081 
z
M 2950 2881 
Q 2913 3394 2759 3688 
Q 2522 4144 2200 4144 
Q 1875 4144 1641 3688 
Q 1484 3384 1450 2881 
L 2950 2881 
z
M 2200 4913 
Q 3247 4913 3686 4231 
Q 4125 3550 4125 2403 
Q 4125 1256 3673 592 
Q 3222 -72 2200 -72 
Q 1178 -72 726 592 
Q 275 1256 275 2403 
Q 275 3550 714 4231 
Q 1153 4913 2200 4913 
z
" transform="scale(0.015625)"/>
     <path id="DejaVuSans-Bold-28" d="M 2413 -844 
L 1484 -844 
Q 1006 -72 778 623 
Q 550 1319 550 2003 
Q 550 2688 779 3389 
Q 1009 4091 1484 4856 
L 2413 4856 
Q 2013 4116 1813 3408 
Q 1613 2700 1613 2009 
Q 1613 1319 1811 609 
Q 2009 -100 2413 -844 
z
" transform="scale(0.015625)"/>
     <path id="DejaVuSans-Bold-56" d="M 31 4666 
L 1241 4666 
L 2478 1222 
L 3713 4666 
L 4922 4666 
L 3194 0 
L 1759 0 
L 31 4666 
z
" transform="scale(0.015625)"/>
     <path id="DejaVuSans-Bold-29" d="M 513 -844 
Q 913 -100 1113 609 
Q 1313 1319 1313 2009 
Q 1313 2700 1113 3408 
Q 913 4116 513 4856 
L 1441 4856 
Q 1916 4091 2145 3389 
Q 2375 2688 2375 2003 
Q 2375 1319 2147 623 
Q 1919 -72 1441 -844 
L 513 -844 
z
" transform="scale(0.015625)"/>
     <path id="DejaVuSans-Bold-64" d="M 2919 2988 
L 2919 4863 
L 4044 4863 
L 4044 0 
L 2919 0 
L 2919 506 
Q 2688 197 2409 53 
Q 2131 -91 1766 -91 
Q 1119 -91 703 423 
Q 288 938 288 1747 
Q 288 2556 703 3070 
Q 1119 3584 1766 3584 
Q 2128 3584 2408 3439 
Q 2688 3294 2919 2988 
z
M 2181 722 
Q 2541 722 2730 984 
Q 2919 1247 2919 1747 
Q 2919 2247 2730 2509 
Q 2541 2772 2181 2772 
Q 1825 2772 1636 2509 
Q 1447 2247 1447 1747 
Q 1447 1247 1636 984 
Q 1825 722 2181 722 
z
" transform="scale(0.015625)"/>
     <path id="DejaVuSans-Bold-4d" d="M 588 4666 
L 2119 4666 
L 3181 2169 
L 4250 4666 
L 5778 4666 
L 5778 0 
L 4641 0 
L 4641 3413 
L 3566 897 
L 2803 897 
L 1728 3413 
L 1728 0 
L 588 0 
L 588 4666 
z
" transform="scale(0.015625)"/>
     <path id="DejaVuSans-Bold-74" d="M 1759 4494 
L 1759 3500 
L 2913 3500 
L 2913 2700 
L 1759 2700 
L 1759 1216 
Q 1759 972 1856 886 
Q 1953 800 2241 800 
L 2816 800 
L 2816 0 
L 1856 0 
Q 1194 0 917 276 
Q 641 553 641 1216 
L 641 2700 
L 84 2700 
L 84 3500 
L 641 3500 
L 641 4494 
L 1759 4494 
z
" transform="scale(0.015625)"/>
     <path id="DejaVuSans-Bold-65" d="M 4031 1759 
L 4031 1441 
L 1416 1441 
Q 1456 1047 1700 850 
Q 1944 653 2381 653 
Q 2734 653 3104 758 
Q 3475 863 3866 1075 
L 3866 213 
Q 3469 63 3072 -14 
Q 2675 -91 2278 -91 
Q 1328 -91 801 392 
Q 275 875 275 1747 
Q 275 2603 792 3093 
Q 1309 3584 2216 3584 
Q 3041 3584 3536 3087 
Q 4031 2591 4031 1759 
z
M 2881 2131 
Q 2881 2450 2695 2645 
Q 2509 2841 2209 2841 
Q 1884 2841 1681 2658 
Q 1478 2475 1428 2131 
L 2881 2131 
z
" transform="scale(0.015625)"/>
     <path id="DejaVuSans-Bold-72" d="M 3138 2547 
Q 2991 2616 2845 2648 
Q 2700 2681 2553 2681 
Q 2122 2681 1889 2404 
Q 1656 2128 1656 1613 
L 1656 0 
L 538 0 
L 538 3500 
L 1656 3500 
L 1656 2925 
Q 1872 3269 2151 3426 
Q 2431 3584 2822 3584 
Q 2878 3584 2943 3579 
Q 3009 3575 3134 3559 
L 3138 2547 
z
" transform="scale(0.015625)"/>
     <path id="DejaVuSans-Bold-6c" d="M 538 4863 
L 1656 4863 
L 1656 0 
L 538 0 
L 538 4863 
z
" transform="scale(0.015625)"/>
     <path id="DejaVuSans-Bold-76" d="M 97 3500 
L 1216 3500 
L 2088 1081 
L 2956 3500 
L 4078 3500 
L 2700 0 
L 1472 0 
L 97 3500 
z
" transform="scale(0.015625)"/>
     <path id="DejaVuSans-Bold-63" d="M 3366 3391 
L 3366 2478 
Q 3138 2634 2908 2709 
Q 2678 2784 2431 2784 
Q 1963 2784 1702 2511 
Q 1441 2238 1441 1747 
Q 1441 1256 1702 982 
Q 1963 709 2431 709 
Q 2694 709 2930 787 
Q 3166 866 3366 1019 
L 3366 103 
Q 3103 6 2833 -42 
Q 2563 -91 2291 -91 
Q 1344 -91 809 395 
Q 275 881 275 1747 
Q 275 2613 809 3098 
Q 1344 3584 2291 3584 
Q 2566 3584 2833 3536 
Q 3100 3488 3366 3391 
z
" transform="scale(0.015625)"/>
     <path id="DejaVuSans-Bold-68" d="M 4056 2131 
L 4056 0 
L 2931 0 
L 2931 347 
L 2931 1625 
Q 2931 2084 2911 2256 
Q 2891 2428 2841 2509 
Q 2775 2619 2662 2680 
Q 2550 2741 2406 2741 
Q 2056 2741 1856 2470 
Q 1656 2200 1656 1722 
L 1656 0 
L 538 0 
L 538 4863 
L 1656 4863 
L 1656 2988 
Q 1909 3294 2193 3439 
Q 2478 3584 2822 3584 
Q 3428 3584 3742 3212 
Q 4056 2841 4056 2131 
z
" transform="scale(0.015625)"/>
    </defs>
    <use xlink:href="#DejaVuSans-Bold-45"/>
    <use xlink:href="#DejaVuSans-Bold-78" transform="translate(68.310547 0)"/>
    <use xlink:href="#DejaVuSans-Bold-70" transform="translate(132.8125 0)"/>
    <use xlink:href="#DejaVuSans-Bold-20" transform="translate(204.394531 0)"/>
    <use xlink:href="#DejaVuSans-Bold-30" transform="translate(239.208984 0)"/>
    <use xlink:href="#DejaVuSans-Bold-34" transform="translate(308.789062 0)"/>
    <use xlink:href="#DejaVuSans-Bold-3a" transform="translate(378.369141 0)"/>
    <use xlink:href="#DejaVuSans-Bold-20" transform="translate(418.359375 0)"/>
    <use xlink:href="#DejaVuSans-Bold-45" transform="translate(453.173828 0)"/>
    <use xlink:href="#DejaVuSans-Bold-57" transform="translate(521.484375 0)"/>
    <use xlink:href="#DejaVuSans-Bold-4f" transform="translate(631.787109 0)"/>
    <use xlink:href="#DejaVuSans-Bold-44" transform="translate(716.796875 0)"/>
    <use xlink:href="#DejaVuSans-Bold-20" transform="translate(799.804688 0)"/>
    <use xlink:href="#DejaVuSans-Bold-59" transform="translate(834.619141 0)"/>
    <use xlink:href="#DejaVuSans-Bold-6f" transform="translate(897.90625 0)"/>
    <use xlink:href="#DejaVuSans-Bold-75" transform="translate(966.607422 0)"/>
    <use xlink:href="#DejaVuSans-Bold-6e" transform="translate(1037.798828 0)"/>
    <use xlink:href="#DejaVuSans-Bold-67" transform="translate(1108.990234 0)"/>
    <use xlink:href="#DejaVuSans-Bold-2d" transform="translate(1180.572266 0)"/>
    <use xlink:href="#DejaVuSans-Bold-4c" transform="translate(1222.076172 0)"/>
    <use xlink:href="#DejaVuSans-Bold-69" transform="translate(1285.796875 0)"/>
    <use xlink:href="#DejaVuSans-Bold-70" transform="translate(1320.074219 0)"/>
    <use xlink:href="#DejaVuSans-Bold-70" transform="translate(1391.65625 0)"/>
    <use xlink:href="#DejaVuSans-Bold-6d" transform="translate(1463.238281 0)"/>
    <use xlink:href="#DejaVuSans-Bold-61" transform="translate(1567.4375 0)"/>
    <use xlink:href="#DejaVuSans-Bold-6e" transform="translate(1634.917969 0)"/>
    <use xlink:href="#DejaVuSans-Bold-6e" transform="translate(1706.109375 0)"/>
    <use xlink:href="#DejaVuSans-Bold-20" transform="translate(1777.300781 0)"/>
    <use xlink:href="#DejaVuSans-Bold-2013" transform="translate(1812.115234 0)"/>
    <use xlink:href="#DejaVuSans-Bold-20" transform="translate(1862.115234 0)"/>
    <use xlink:href="#DejaVuSans-Bold-3b8" transform="translate(1896.929688 0)"/>
    <use xlink:href="#DejaVuSans-Bold-28" transform="translate(1965.630859 0)"/>
    <use xlink:href="#DejaVuSans-Bold-56" transform="translate(2011.333984 0)"/>
    <use xlink:href="#DejaVuSans-Bold-29" transform="translate(2088.726562 0)"/>
    <use xlink:href="#DejaVuSans-Bold-20" transform="translate(2134.429688 0)"/>
    <use xlink:href="#DejaVuSans-Bold-75" transform="translate(2169.244141 0)"/>
    <use xlink:href="#DejaVuSans-Bold-6e" transform="translate(2240.435547 0)"/>
    <use xlink:href="#DejaVuSans-Bold-64" transform="translate(2311.626953 0)"/>
    <use xlink:href="#DejaVuSans-Bold-20" transform="translate(2383.208984 0)"/>
    <use xlink:href="#DejaVuSans-Bold-4d" transform="translate(2418.023438 0)"/>
    <use xlink:href="#DejaVuSans-Bold-61" transform="translate(2517.535156 0)"/>
    <use xlink:href="#DejaVuSans-Bold-74" transform="translate(2585.015625 0)"/>
    <use xlink:href="#DejaVuSans-Bold-65" transform="translate(2632.818359 0)"/>
    <use xlink:href="#DejaVuSans-Bold-72" transform="translate(2700.640625 0)"/>
    <use xlink:href="#DejaVuSans-Bold-69" transform="translate(2749.957031 0)"/>
    <use xlink:href="#DejaVuSans-Bold-61" transform="translate(2784.234375 0)"/>
    <use xlink:href="#DejaVuSans-Bold-6c" transform="translate(2851.714844 0)"/>
    <use xlink:href="#DejaVuSans-Bold-76" transform="translate(2885.992188 0)"/>
    <use xlink:href="#DejaVuSans-Bold-65" transform="translate(2951.177734 0)"/>
    <use xlink:href="#DejaVuSans-Bold-72" transform="translate(3019 0)"/>
    <use xlink:href="#DejaVuSans-Bold-67" transform="translate(3068.316406 0)"/>
    <use xlink:href="#DejaVuSans-Bold-6c" transform="translate(3139.898438 0)"/>
    <use xlink:href="#DejaVuSans-Bold-65" transform="translate(3174.175781 0)"/>
    <use xlink:href="#DejaVuSans-Bold-69" transform="translate(3241.998047 0)"/>
    <use xlink:href="#DejaVuSans-Bold-63" transform="translate(3276.275391 0)"/>
    <use xlink:href="#DejaVuSans-Bold-68" transform="translate(3335.552734 0)"/>
   </g>
  </g>
 </g>
 <defs>
  <clipPath id="pdea5704357">
   <rect x="68.35" y="82" width="356.157812" height="217.9"/>
  </clipPath>
  <clipPath id="p1ddffd0793">
   <rect x="480.342187" y="82" width="356.157812" height="217.9"/>
  </clipPath>
 </defs>
</svg>
