<?xml version="1.0" encoding="utf-8" standalone="no"?>
<!DOCTYPE svg PUBLIC "-//W3C//DTD SVG 1.1//EN"
  "http://www.w3.org/Graphics/SVG/1.1/DTD/svg11.dtd">
<svg xmlns:xlink="http://www.w3.org/1999/xlink" width="864pt" height="360pt" viewBox="0 0 864 360" xmlns="http://www.w3.org/2000/svg" version="1.1">
 <metadata>
  <rdf:RDF xmlns:dc="http://purl.org/dc/elements/1.1/" xmlns:cc="http://creativecommons.org/ns#" xmlns:rdf="http://www.w3.org/1999/02/22-rdf-syntax-ns#">
   <cc:Work>
    <dc:type rdf:resource="http://purl.org/dc/dcmitype/StillImage"/>
    <dc:date>2026-02-27T22:39:40.707295</dc:date>
    <dc:format>image/svg+xml</dc:format>
    <dc:creator>
     <cc:Agent>
      <dc:title>Matplotlib v3.10.8, https://matplotlib.org/</dc:title>
     </cc:Agent>
    </dc:creator>
   </cc:Work>
  </rdf:RDF>
 </metadata>
 <defs>
  <style type="text/css">*{stroke-linejoin: round; stroke-linecap: butt}</style>
 </defs>
 <g id="figure_1">
  <g id="patch_1">
   <path d="M 0 360 
L 864 360 
L 864 0 
L 0 0 
z
" style="fill: #ffffff"/>
  </g>
  <g id="axes_1">
   <g id="patch_2">
    <path d="M 61.975 299.9 
L 389.1625 299.9 
L 389.1625 95.2 
L 61.975 95.2 
z
" style="fill: #ffffff"/>
   </g>
   <g id="matplotlib.axis_1">
    <g id="xtick_1">
     <g id="line2d_1">
      <path d="M 126.421023 299.9 
L 126.421023 95.2 
" clip-path="url(#pf893f0a384)" style="fill: none; stroke: #b0b0b0; stroke-opacity: 0.3; stroke-width: 0.8; stroke-linecap: square"/>
     </g>
     <g id="line2d_2">
      <defs>
       <path id="m123704c316" d="M 0 0 
L 0 3.5 
" style="stroke: #000000; stroke-width: 0.8"/>
      </defs>
      <g>
       <use xlink:href="#m123704c316" x="126.421023" y="299.9" style="stroke: #000000; stroke-width: 0.8"/>
      </g>
     </g>
     <g id="text_1">
      <!-- 0.2 -->
      <g transform="translate(118.46946 314.498438) scale(0.1 -0.1)">
       <defs>
        <path id="DejaVuSans-30" d="M 2034 4250 
Q 1547 4250 1301 3770 
Q 1056 3291 1056 2328 
Q 1056 1369 1301 889 
Q 1547 409 2034 409 
Q 2525 409 2770 889 
Q 3016 1369 3016 2328 
Q 3016 3291 2770 3770 
Q 2525 4250 2034 4250 
z
M 2034 4750 
Q 2819 4750 3233 4129 
Q 3647 3509 3647 2328 
Q 3647 1150 3233 529 
Q 2819 -91 2034 -91 
Q 1250 -91 836 529 
Q 422 1150 422 2328 
Q 422 3509 836 4129 
Q 1250 4750 2034 4750 
z
" transform="scale(0.015625)"/>
        <path id="DejaVuSans-2e" d="M 684 794 
L 1344 794 
L 1344 0 
L 684 0 
L 684 794 
z
" transform="scale(0.015625)"/>
        <path id="DejaVuSans-32" d="M 1228 531 
L 3431 531 
L 3431 0 
L 469 0 
L 469 531 
Q 828 903 1448 1529 
Q 2069 2156 2228 2338 
Q 2531 2678 2651 2914 
Q 2772 3150 2772 3378 
Q 2772 3750 2511 3984 
Q 2250 4219 1831 4219 
Q 1534 4219 1204 4116 
Q 875 4013 500 3803 
L 500 4441 
Q 881 4594 1212 4672 
Q 1544 4750 1819 4750 
Q 2544 4750 2975 4387 
Q 3406 4025 3406 3419 
Q 3406 3131 3298 2873 
Q 3191 2616 2906 2266 
Q 2828 2175 2409 1742 
Q 1991 1309 1228 531 
z
" transform="scale(0.015625)"/>
       </defs>
       <use xlink:href="#DejaVuSans-30"/>
       <use xlink:href="#DejaVuSans-2e" transform="translate(63.623047 0)"/>
       <use xlink:href="#DejaVuSans-32" transform="translate(95.410156 0)"/>
      </g>
     </g>
    </g>
    <g id="xtick_2">
     <g id="line2d_3">
      <path d="M 192.519508 299.9 
L 192.519508 95.2 
" clip-path="url(#pf893f0a384)" style="fill: none; stroke: #b0b0b0; stroke-opacity: 0.3; stroke-width: 0.8; stroke-linecap: square"/>
     </g>
     <g id="line2d_4">
      <g>
       <use xlink:href="#m123704c316" x="192.519508" y="299.9" style="stroke: #000000; stroke-width: 0.8"/>
      </g>
     </g>
     <g id="text_2">
      <!-- 0.4 -->
      <g transform="translate(184.567945 314.498438) scale(0.1 -0.1)">
       <defs>
        <path id="DejaVuSans-34" d="M 2419 4116 
L 825 1625 
L 2419 1625 
L 2419 4116 
z
M 2253 4666 
L 3047 4666 
L 3047 1625 
L 3713 1625 
L 3713 1100 
L 3047 1100 
L 3047 0 
L 2419 0 
L 2419 1100 
L 313 1100 
L 313 1709 
L 2253 4666 
z
" transform="scale(0.015625)"/>
       </defs>
       <use xlink:href="#DejaVuSans-30"/>
       <use xlink:href="#DejaVuSans-2e" transform="translate(63.623047 0)"/>
       <use xlink:href="#DejaVuSans-34" transform="translate(95.410156 0)"/>
      </g>
     </g>
    </g>
    <g id="xtick_3">
     <g id="line2d_5">
      <path d="M 258.617992 299.9 
L 258.617992 95.2 
" clip-path="url(#pf893f0a384)" style="fill: none; stroke: #b0b0b0; stroke-opacity: 0.3; stroke-width: 0.8; stroke-linecap: square"/>
     </g>
     <g id="line2d_6">
      <g>
       <use xlink:href="#m123704c316" x="258.617992" y="299.9" style="stroke: #000000; stroke-width: 0.8"/>
      </g>
     </g>
     <g id="text_3">
      <!-- 0.6 -->
      <g transform="translate(250.66643 314.498438) scale(0.1 -0.1)">
       <defs>
        <path id="DejaVuSans-36" d="M 2113 2584 
Q 1688 2584 1439 2293 
Q 1191 2003 1191 1497 
Q 1191 994 1439 701 
Q 1688 409 2113 409 
Q 2538 409 2786 701 
Q 3034 994 3034 1497 
Q 3034 2003 2786 2293 
Q 2538 2584 2113 2584 
z
M 3366 4563 
L 3366 3988 
Q 3128 4100 2886 4159 
Q 2644 4219 2406 4219 
Q 1781 4219 1451 3797 
Q 1122 3375 1075 2522 
Q 1259 2794 1537 2939 
Q 1816 3084 2150 3084 
Q 2853 3084 3261 2657 
Q 3669 2231 3669 1497 
Q 3669 778 3244 343 
Q 2819 -91 2113 -91 
Q 1303 -91 875 529 
Q 447 1150 447 2328 
Q 447 3434 972 4092 
Q 1497 4750 2381 4750 
Q 2619 4750 2861 4703 
Q 3103 4656 3366 4563 
z
" transform="scale(0.015625)"/>
       </defs>
       <use xlink:href="#DejaVuSans-30"/>
       <use xlink:href="#DejaVuSans-2e" transform="translate(63.623047 0)"/>
       <use xlink:href="#DejaVuSans-36" transform="translate(95.410156 0)"/>
      </g>
     </g>
    </g>
    <g id="xtick_4">
     <g id="line2d_7">
      <path d="M 324.716477 299.9 
L 324.716477 95.2 
" clip-path="url(#pf893f0a384)" style="fill: none; stroke: #b0b0b0; stroke-opacity: 0.3; stroke-width: 0.8; stroke-linecap: square"/>
     </g>
     <g id="line2d_8">
      <g>
       <use xlink:href="#m123704c316" x="324.716477" y="299.9" style="stroke: #000000; stroke-width: 0.8"/>
      </g>
     </g>
     <g id="text_4">
      <!-- 0.8 -->
      <g transform="translate(316.764915 314.498438) scale(0.1 -0.1)">
       <defs>
        <path id="DejaVuSans-38" d="M 2034 2216 
Q 1584 2216 1326 1975 
Q 1069 1734 1069 1313 
Q 1069 891 1326 650 
Q 1584 409 2034 409 
Q 2484 409 2743 651 
Q 3003 894 3003 1313 
Q 3003 1734 2745 1975 
Q 2488 2216 2034 2216 
z
M 1403 2484 
Q 997 2584 770 2862 
Q 544 3141 544 3541 
Q 544 4100 942 4425 
Q 1341 4750 2034 4750 
Q 2731 4750 3128 4425 
Q 3525 4100 3525 3541 
Q 3525 3141 3298 2862 
Q 3072 2584 2669 2484 
Q 3125 2378 3379 2068 
Q 3634 1759 3634 1313 
Q 3634 634 3220 271 
Q 2806 -91 2034 -91 
Q 1263 -91 848 271 
Q 434 634 434 1313 
Q 434 1759 690 2068 
Q 947 2378 1403 2484 
z
M 1172 3481 
Q 1172 3119 1398 2916 
Q 1625 2713 2034 2713 
Q 2441 2713 2670 2916 
Q 2900 3119 2900 3481 
Q 2900 3844 2670 4047 
Q 2441 4250 2034 4250 
Q 1625 4250 1398 4047 
Q 1172 3844 1172 3481 
z
" transform="scale(0.015625)"/>
       </defs>
       <use xlink:href="#DejaVuSans-30"/>
       <use xlink:href="#DejaVuSans-2e" transform="translate(63.623047 0)"/>
       <use xlink:href="#DejaVuSans-38" transform="translate(95.410156 0)"/>
      </g>
     </g>
    </g>
    <g id="text_5">
     <!-- Spiegel-Reflektivität R -->
     <g transform="translate(164.57375 328.936406) scale(0.11 -0.11)">
      <defs>
       <path id="DejaVuSans-53" d="M 3425 4513 
L 3425 3897 
Q 3066 4069 2747 4153 
Q 2428 4238 2131 4238 
Q 1616 4238 1336 4038 
Q 1056 3838 1056 3469 
Q 1056 3159 1242 3001 
Q 1428 2844 1947 2747 
L 2328 2669 
Q 3034 2534 3370 2195 
Q 3706 1856 3706 1288 
Q 3706 609 3251 259 
Q 2797 -91 1919 -91 
Q 1588 -91 1214 -16 
Q 841 59 441 206 
L 441 856 
Q 825 641 1194 531 
Q 1563 422 1919 422 
Q 2459 422 2753 634 
Q 3047 847 3047 1241 
Q 3047 1584 2836 1778 
Q 2625 1972 2144 2069 
L 1759 2144 
Q 1053 2284 737 2584 
Q 422 2884 422 3419 
Q 422 4038 858 4394 
Q 1294 4750 2059 4750 
Q 2388 4750 2728 4690 
Q 3069 4631 3425 4513 
z
" transform="scale(0.015625)"/>
       <path id="DejaVuSans-70" d="M 1159 525 
L 1159 -1331 
L 581 -1331 
L 581 3500 
L 1159 3500 
L 1159 2969 
Q 1341 3281 1617 3432 
Q 1894 3584 2278 3584 
Q 2916 3584 3314 3078 
Q 3713 2572 3713 1747 
Q 3713 922 3314 415 
Q 2916 -91 2278 -91 
Q 1894 -91 1617 61 
Q 1341 213 1159 525 
z
M 3116 1747 
Q 3116 2381 2855 2742 
Q 2594 3103 2138 3103 
Q 1681 3103 1420 2742 
Q 1159 2381 1159 1747 
Q 1159 1113 1420 752 
Q 1681 391 2138 391 
Q 2594 391 2855 752 
Q 3116 1113 3116 1747 
z
" transform="scale(0.015625)"/>
       <path id="DejaVuSans-69" d="M 603 3500 
L 1178 3500 
L 1178 0 
L 603 0 
L 603 3500 
z
M 603 4863 
L 1178 4863 
L 1178 4134 
L 603 4134 
L 603 4863 
z
" transform="scale(0.015625)"/>
       <path id="DejaVuSans-65" d="M 3597 1894 
L 3597 1613 
L 953 1613 
Q 991 1019 1311 708 
Q 1631 397 2203 397 
Q 2534 397 2845 478 
Q 3156 559 3463 722 
L 3463 178 
Q 3153 47 2828 -22 
Q 2503 -91 2169 -91 
Q 1331 -91 842 396 
Q 353 884 353 1716 
Q 353 2575 817 3079 
Q 1281 3584 2069 3584 
Q 2775 3584 3186 3129 
Q 3597 2675 3597 1894 
z
M 3022 2063 
Q 3016 2534 2758 2815 
Q 2500 3097 2075 3097 
Q 1594 3097 1305 2825 
Q 1016 2553 972 2059 
L 3022 2063 
z
" transform="scale(0.015625)"/>
       <path id="DejaVuSans-67" d="M 2906 1791 
Q 2906 2416 2648 2759 
Q 2391 3103 1925 3103 
Q 1463 3103 1205 2759 
Q 947 2416 947 1791 
Q 947 1169 1205 825 
Q 1463 481 1925 481 
Q 2391 481 2648 825 
Q 2906 1169 2906 1791 
z
M 3481 434 
Q 3481 -459 3084 -895 
Q 2688 -1331 1869 -1331 
Q 1566 -1331 1297 -1286 
Q 1028 -1241 775 -1147 
L 775 -588 
Q 1028 -725 1275 -790 
Q 1522 -856 1778 -856 
Q 2344 -856 2625 -561 
Q 2906 -266 2906 331 
L 2906 616 
Q 2728 306 2450 153 
Q 2172 0 1784 0 
Q 1141 0 747 490 
Q 353 981 353 1791 
Q 353 2603 747 3093 
Q 1141 3584 1784 3584 
Q 2172 3584 2450 3431 
Q 2728 3278 2906 2969 
L 2906 3500 
L 3481 3500 
L 3481 434 
z
" transform="scale(0.015625)"/>
       <path id="DejaVuSans-6c" d="M 603 4863 
L 1178 4863 
L 1178 0 
L 603 0 
L 603 4863 
z
" transform="scale(0.015625)"/>
       <path id="DejaVuSans-2d" d="M 313 2009 
L 1997 2009 
L 1997 1497 
L 313 1497 
L 313 2009 
z
" transform="scale(0.015625)"/>
       <path id="DejaVuSans-52" d="M 2841 2188 
Q 3044 2119 3236 1894 
Q 3428 1669 3622 1275 
L 4263 0 
L 3584 0 
L 2988 1197 
Q 2756 1666 2539 1819 
Q 2322 1972 1947 1972 
L 1259 1972 
L 1259 0 
L 628 0 
L 628 4666 
L 2053 4666 
Q 2853 4666 3247 4331 
Q 3641 3997 3641 3322 
Q 3641 2881 3436 2590 
Q 3231 2300 2841 2188 
z
M 1259 4147 
L 1259 2491 
L 2053 2491 
Q 2509 2491 2742 2702 
Q 2975 2913 2975 3322 
Q 2975 3731 2742 3939 
Q 2509 4147 2053 4147 
L 1259 4147 
z
" transform="scale(0.015625)"/>
       <path id="DejaVuSans-66" d="M 2375 4863 
L 2375 4384 
L 1825 4384 
Q 1516 4384 1395 4259 
Q 1275 4134 1275 3809 
L 1275 3500 
L 2222 3500 
L 2222 3053 
L 1275 3053 
L 1275 0 
L 697 0 
L 697 3053 
L 147 3053 
L 147 3500 
L 697 3500 
L 697 3744 
Q 697 4328 969 4595 
Q 1241 4863 1831 4863 
L 2375 4863 
z
" transform="scale(0.015625)"/>
       <path id="DejaVuSans-6b" d="M 581 4863 
L 1159 4863 
L 1159 1991 
L 2875 3500 
L 3609 3500 
L 1753 1863 
L 3688 0 
L 2938 0 
L 1159 1709 
L 1159 0 
L 581 0 
L 581 4863 
z
" transform="scale(0.015625)"/>
       <path id="DejaVuSans-74" d="M 1172 4494 
L 1172 3500 
L 2356 3500 
L 2356 3053 
L 1172 3053 
L 1172 1153 
Q 1172 725 1289 603 
Q 1406 481 1766 481 
L 2356 481 
L 2356 0 
L 1766 0 
Q 1100 0 847 248 
Q 594 497 594 1153 
L 594 3053 
L 172 3053 
L 172 3500 
L 594 3500 
L 594 4494 
L 1172 4494 
z
" transform="scale(0.015625)"/>
       <path id="DejaVuSans-76" d="M 191 3500 
L 800 3500 
L 1894 563 
L 2988 3500 
L 3597 3500 
L 2284 0 
L 1503 0 
L 191 3500 
z
" transform="scale(0.015625)"/>
       <path id="DejaVuSans-e4" d="M 2194 1759 
Q 1497 1759 1228 1600 
Q 959 1441 959 1056 
Q 959 750 1161 570 
Q 1363 391 1709 391 
Q 2188 391 2477 730 
Q 2766 1069 2766 1631 
L 2766 1759 
L 2194 1759 
z
M 3341 1997 
L 3341 0 
L 2766 0 
L 2766 531 
Q 2569 213 2275 61 
Q 1981 -91 1556 -91 
Q 1019 -91 701 211 
Q 384 513 384 1019 
Q 384 1609 779 1909 
Q 1175 2209 1959 2209 
L 2766 2209 
L 2766 2266 
Q 2766 2663 2505 2880 
Q 2244 3097 1772 3097 
Q 1472 3097 1187 3025 
Q 903 2953 641 2809 
L 641 3341 
Q 956 3463 1253 3523 
Q 1550 3584 1831 3584 
Q 2591 3584 2966 3190 
Q 3341 2797 3341 1997 
z
M 2150 4850 
L 2784 4850 
L 2784 4219 
L 2150 4219 
L 2150 4850 
z
M 928 4850 
L 1562 4850 
L 1562 4219 
L 928 4219 
L 928 4850 
z
" transform="scale(0.015625)"/>
       <path id="DejaVuSans-20" transform="scale(0.015625)"/>
      </defs>
      <use xlink:href="#DejaVuSans-53"/>
      <use xlink:href="#DejaVuSans-70" transform="translate(63.476562 0)"/>
      <use xlink:href="#DejaVuSans-69" transform="translate(126.953125 0)"/>
      <use xlink:href="#DejaVuSans-65" transform="translate(154.736328 0)"/>
      <use xlink:href="#DejaVuSans-67" transform="translate(216.259766 0)"/>
      <use xlink:href="#DejaVuSans-65" transform="translate(279.736328 0)"/>
      <use xlink:href="#DejaVuSans-6c" transform="translate(341.259766 0)"/>
      <use xlink:href="#DejaVuSans-2d" transform="translate(369.042969 0)"/>
      <use xlink:href="#DejaVuSans-52" transform="translate(405.126953 0)"/>
      <use xlink:href="#DejaVuSans-65" transform="translate(470.109375 0)"/>
      <use xlink:href="#DejaVuSans-66" transform="translate(531.632812 0)"/>
      <use xlink:href="#DejaVuSans-6c" transform="translate(566.837891 0)"/>
      <use xlink:href="#DejaVuSans-65" transform="translate(594.621094 0)"/>
      <use xlink:href="#DejaVuSans-6b" transform="translate(656.144531 0)"/>
      <use xlink:href="#DejaVuSans-74" transform="translate(714.054688 0)"/>
      <use xlink:href="#DejaVuSans-69" transform="translate(753.263672 0)"/>
      <use xlink:href="#DejaVuSans-76" transform="translate(781.046875 0)"/>
      <use xlink:href="#DejaVuSans-69" transform="translate(840.226562 0)"/>
      <use xlink:href="#DejaVuSans-74" transform="translate(868.009766 0)"/>
      <use xlink:href="#DejaVuSans-e4" transform="translate(907.21875 0)"/>
      <use xlink:href="#DejaVuSans-74" transform="translate(968.498047 0)"/>
      <use xlink:href="#DejaVuSans-20" transform="translate(1007.707031 0)"/>
      <use xlink:href="#DejaVuSans-52" transform="translate(1039.494141 0)"/>
     </g>
    </g>
   </g>
   <g id="matplotlib.axis_2">
    <g id="ytick_1">
     <g id="line2d_9">
      <path d="M 61.975 292.869874 
L 389.1625 292.869874 
" clip-path="url(#pf893f0a384)" style="fill: none; stroke: #b0b0b0; stroke-opacity: 0.3; stroke-width: 0.8; stroke-linecap: square"/>
     </g>
     <g id="line2d_10">
      <defs>
       <path id="me504ab9a26" d="M 0 0 
L -3.5 0 
" style="stroke: #000000; stroke-width: 0.8"/>
      </defs>
      <g>
       <use xlink:href="#me504ab9a26" x="61.975" y="292.869874" style="stroke: #000000; stroke-width: 0.8"/>
      </g>
     </g>
     <g id="text_6">
      <!-- 0 -->
      <g transform="translate(48.6125 296.669093) scale(0.1 -0.1)">
       <use xlink:href="#DejaVuSans-30"/>
      </g>
     </g>
    </g>
    <g id="ytick_2">
     <g id="line2d_11">
      <path d="M 61.975 262.111789 
L 389.1625 262.111789 
" clip-path="url(#pf893f0a384)" style="fill: none; stroke: #b0b0b0; stroke-opacity: 0.3; stroke-width: 0.8; stroke-linecap: square"/>
     </g>
     <g id="line2d_12">
      <g>
       <use xlink:href="#me504ab9a26" x="61.975" y="262.111789" style="stroke: #000000; stroke-width: 0.8"/>
      </g>
     </g>
     <g id="text_7">
      <!-- 10 -->
      <g transform="translate(42.25 265.911008) scale(0.1 -0.1)">
       <defs>
        <path id="DejaVuSans-31" d="M 794 531 
L 1825 531 
L 1825 4091 
L 703 3866 
L 703 4441 
L 1819 4666 
L 2450 4666 
L 2450 531 
L 3481 531 
L 3481 0 
L 794 0 
L 794 531 
z
" transform="scale(0.015625)"/>
       </defs>
       <use xlink:href="#DejaVuSans-31"/>
       <use xlink:href="#DejaVuSans-30" transform="translate(63.623047 0)"/>
      </g>
     </g>
    </g>
    <g id="ytick_3">
     <g id="line2d_13">
      <path d="M 61.975 231.353703 
L 389.1625 231.353703 
" clip-path="url(#pf893f0a384)" style="fill: none; stroke: #b0b0b0; stroke-opacity: 0.3; stroke-width: 0.8; stroke-linecap: square"/>
     </g>
     <g id="line2d_14">
      <g>
       <use xlink:href="#me504ab9a26" x="61.975" y="231.353703" style="stroke: #000000; stroke-width: 0.8"/>
      </g>
     </g>
     <g id="text_8">
      <!-- 20 -->
      <g transform="translate(42.25 235.152922) scale(0.1 -0.1)">
       <use xlink:href="#DejaVuSans-32"/>
       <use xlink:href="#DejaVuSans-30" transform="translate(63.623047 0)"/>
      </g>
     </g>
    </g>
    <g id="ytick_4">
     <g id="line2d_15">
      <path d="M 61.975 200.595618 
L 389.1625 200.595618 
" clip-path="url(#pf893f0a384)" style="fill: none; stroke: #b0b0b0; stroke-opacity: 0.3; stroke-width: 0.8; stroke-linecap: square"/>
     </g>
     <g id="line2d_16">
      <g>
       <use xlink:href="#me504ab9a26" x="61.975" y="200.595618" style="stroke: #000000; stroke-width: 0.8"/>
      </g>
     </g>
     <g id="text_9">
      <!-- 30 -->
      <g transform="translate(42.25 204.394837) scale(0.1 -0.1)">
       <defs>
        <path id="DejaVuSans-33" d="M 2597 2516 
Q 3050 2419 3304 2112 
Q 3559 1806 3559 1356 
Q 3559 666 3084 287 
Q 2609 -91 1734 -91 
Q 1441 -91 1130 -33 
Q 819 25 488 141 
L 488 750 
Q 750 597 1062 519 
Q 1375 441 1716 441 
Q 2309 441 2620 675 
Q 2931 909 2931 1356 
Q 2931 1769 2642 2001 
Q 2353 2234 1838 2234 
L 1294 2234 
L 1294 2753 
L 1863 2753 
Q 2328 2753 2575 2939 
Q 2822 3125 2822 3475 
Q 2822 3834 2567 4026 
Q 2313 4219 1838 4219 
Q 1578 4219 1281 4162 
Q 984 4106 628 3988 
L 628 4550 
Q 988 4650 1302 4700 
Q 1616 4750 1894 4750 
Q 2613 4750 3031 4423 
Q 3450 4097 3450 3541 
Q 3450 3153 3228 2886 
Q 3006 2619 2597 2516 
z
" transform="scale(0.015625)"/>
       </defs>
       <use xlink:href="#DejaVuSans-33"/>
       <use xlink:href="#DejaVuSans-30" transform="translate(63.623047 0)"/>
      </g>
     </g>
    </g>
    <g id="ytick_5">
     <g id="line2d_17">
      <path d="M 61.975 169.837533 
L 389.1625 169.837533 
" clip-path="url(#pf893f0a384)" style="fill: none; stroke: #b0b0b0; stroke-opacity: 0.3; stroke-width: 0.8; stroke-linecap: square"/>
     </g>
     <g id="line2d_18">
      <g>
       <use xlink:href="#me504ab9a26" x="61.975" y="169.837533" style="stroke: #000000; stroke-width: 0.8"/>
      </g>
     </g>
     <g id="text_10">
      <!-- 40 -->
      <g transform="translate(42.25 173.636752) scale(0.1 -0.1)">
       <use xlink:href="#DejaVuSans-34"/>
       <use xlink:href="#DejaVuSans-30" transform="translate(63.623047 0)"/>
      </g>
     </g>
    </g>
    <g id="ytick_6">
     <g id="line2d_19">
      <path d="M 61.975 139.079448 
L 389.1625 139.079448 
" clip-path="url(#pf893f0a384)" style="fill: none; stroke: #b0b0b0; stroke-opacity: 0.3; stroke-width: 0.8; stroke-linecap: square"/>
     </g>
     <g id="line2d_20">
      <g>
       <use xlink:href="#me504ab9a26" x="61.975" y="139.079448" style="stroke: #000000; stroke-width: 0.8"/>
      </g>
     </g>
     <g id="text_11">
      <!-- 50 -->
      <g transform="translate(42.25 142.878666) scale(0.1 -0.1)">
       <defs>
        <path id="DejaVuSans-35" d="M 691 4666 
L 3169 4666 
L 3169 4134 
L 1269 4134 
L 1269 2991 
Q 1406 3038 1543 3061 
Q 1681 3084 1819 3084 
Q 2600 3084 3056 2656 
Q 3513 2228 3513 1497 
Q 3513 744 3044 326 
Q 2575 -91 1722 -91 
Q 1428 -91 1123 -41 
Q 819 9 494 109 
L 494 744 
Q 775 591 1075 516 
Q 1375 441 1709 441 
Q 2250 441 2565 725 
Q 2881 1009 2881 1497 
Q 2881 1984 2565 2268 
Q 2250 2553 1709 2553 
Q 1456 2553 1204 2497 
Q 953 2441 691 2322 
L 691 4666 
z
" transform="scale(0.015625)"/>
       </defs>
       <use xlink:href="#DejaVuSans-35"/>
       <use xlink:href="#DejaVuSans-30" transform="translate(63.623047 0)"/>
      </g>
     </g>
    </g>
    <g id="ytick_7">
     <g id="line2d_21">
      <path d="M 61.975 108.321362 
L 389.1625 108.321362 
" clip-path="url(#pf893f0a384)" style="fill: none; stroke: #b0b0b0; stroke-opacity: 0.3; stroke-width: 0.8; stroke-linecap: square"/>
     </g>
     <g id="line2d_22">
      <g>
       <use xlink:href="#me504ab9a26" x="61.975" y="108.321362" style="stroke: #000000; stroke-width: 0.8"/>
      </g>
     </g>
     <g id="text_12">
      <!-- 60 -->
      <g transform="translate(42.25 112.120581) scale(0.1 -0.1)">
       <use xlink:href="#DejaVuSans-36"/>
       <use xlink:href="#DejaVuSans-30" transform="translate(63.623047 0)"/>
      </g>
     </g>
    </g>
    <g id="text_13">
     <!-- Finesse F -->
     <g style="fill: #e63946" transform="translate(35.962344 222.738281) rotate(-90) scale(0.11 -0.11)">
      <defs>
       <path id="DejaVuSans-46" d="M 628 4666 
L 3309 4666 
L 3309 4134 
L 1259 4134 
L 1259 2759 
L 3109 2759 
L 3109 2228 
L 1259 2228 
L 1259 0 
L 628 0 
L 628 4666 
z
" transform="scale(0.015625)"/>
       <path id="DejaVuSans-6e" d="M 3513 2113 
L 3513 0 
L 2938 0 
L 2938 2094 
Q 2938 2591 2744 2837 
Q 2550 3084 2163 3084 
Q 1697 3084 1428 2787 
Q 1159 2491 1159 1978 
L 1159 0 
L 581 0 
L 581 3500 
L 1159 3500 
L 1159 2956 
Q 1366 3272 1645 3428 
Q 1925 3584 2291 3584 
Q 2894 3584 3203 3211 
Q 3513 2838 3513 2113 
z
" transform="scale(0.015625)"/>
       <path id="DejaVuSans-73" d="M 2834 3397 
L 2834 2853 
Q 2591 2978 2328 3040 
Q 2066 3103 1784 3103 
Q 1356 3103 1142 2972 
Q 928 2841 928 2578 
Q 928 2378 1081 2264 
Q 1234 2150 1697 2047 
L 1894 2003 
Q 2506 1872 2764 1633 
Q 3022 1394 3022 966 
Q 3022 478 2636 193 
Q 2250 -91 1575 -91 
Q 1294 -91 989 -36 
Q 684 19 347 128 
L 347 722 
Q 666 556 975 473 
Q 1284 391 1588 391 
Q 1994 391 2212 530 
Q 2431 669 2431 922 
Q 2431 1156 2273 1281 
Q 2116 1406 1581 1522 
L 1381 1569 
Q 847 1681 609 1914 
Q 372 2147 372 2553 
Q 372 3047 722 3315 
Q 1072 3584 1716 3584 
Q 2034 3584 2315 3537 
Q 2597 3491 2834 3397 
z
" transform="scale(0.015625)"/>
      </defs>
      <use xlink:href="#DejaVuSans-46"/>
      <use xlink:href="#DejaVuSans-69" transform="translate(50.269531 0)"/>
      <use xlink:href="#DejaVuSans-6e" transform="translate(78.052734 0)"/>
      <use xlink:href="#DejaVuSans-65" transform="translate(141.431641 0)"/>
      <use xlink:href="#DejaVuSans-73" transform="translate(202.955078 0)"/>
      <use xlink:href="#DejaVuSans-73" transform="translate(255.054688 0)"/>
      <use xlink:href="#DejaVuSans-65" transform="translate(307.154297 0)"/>
      <use xlink:href="#DejaVuSans-20" transform="translate(368.677734 0)"/>
      <use xlink:href="#DejaVuSans-46" transform="translate(400.464844 0)"/>
     </g>
    </g>
   </g>
   <g id="line2d_23">
    <path d="M 76.847159 290.595455 
L 80.612263 290.319039 
L 84.377366 290.058303 
L 88.14247 289.808651 
L 91.907573 289.566985 
L 95.672677 289.33109 
L 99.43778 289.099301 
L 103.202884 288.870317 
L 106.967988 288.643088 
L 110.733091 288.416741 
L 114.498195 288.190532 
L 118.263298 287.96381 
L 122.028402 287.735995 
L 125.793505 287.506559 
L 129.558609 287.275013 
L 133.323713 287.040897 
L 137.088816 286.803769 
L 140.85392 286.563203 
L 144.619023 286.318781 
L 148.384127 286.070087 
L 152.14923 285.816704 
L 155.914334 285.558213 
L 159.679438 285.294183 
L 163.444541 285.024175 
L 167.209645 284.747734 
L 170.974748 284.464388 
L 174.739852 284.173643 
L 178.504955 283.874983 
L 182.270059 283.567863 
L 186.035163 283.251708 
L 189.800266 282.925908 
L 193.56537 282.589812 
L 197.330473 282.242728 
L 201.095577 281.883915 
L 204.86068 281.512577 
L 208.625784 281.127858 
L 212.390888 280.728834 
L 216.155991 280.314508 
L 219.921095 279.883798 
L 223.686198 279.43553 
L 227.451302 278.968425 
L 231.216405 278.481086 
L 234.981509 277.971987 
L 238.746612 277.439452 
L 242.511716 276.881638 
L 246.27682 276.296515 
L 250.041923 275.681837 
L 253.807027 275.035114 
L 257.57213 274.353578 
L 261.337234 273.63414 
L 265.102337 272.873346 
L 268.867441 272.067316 
L 272.632545 271.211678 
L 276.397648 270.301486 
L 280.162752 269.331124 
L 283.927855 268.294187 
L 287.692959 267.183337 
L 291.458062 265.990123 
L 295.223166 264.704768 
L 298.98827 263.315891 
L 302.753373 261.810168 
L 306.518477 260.171896 
L 310.28358 258.382436 
L 314.048684 256.419495 
L 317.813787 254.256183 
L 321.578891 251.859764 
L 325.343995 249.189969 
L 329.109098 246.196708 
L 332.874202 242.81687 
L 336.639305 238.969801 
L 340.404409 234.550754 
L 344.169512 229.421167 
L 347.934616 223.393811 
L 351.69972 216.209371 
L 355.464823 207.498059 
L 359.229927 196.713765 
L 362.99503 183.014745 
L 366.760134 165.032252 
L 370.525237 140.381563 
L 374.290341 104.504545 
" clip-path="url(#pf893f0a384)" style="fill: none; stroke: #e63946; stroke-width: 2; stroke-linecap: square"/>
   </g>
   <g id="line2d_24">
    <path d="M 159.470265 299.9 
L 159.470265 95.2 
" clip-path="url(#pf893f0a384)" style="fill: none; stroke-dasharray: 2,3.3; stroke-dashoffset: 0; stroke: #808080; stroke-opacity: 0.7; stroke-width: 2"/>
   </g>
   <g id="line2d_25">
    <path d="M 225.56875 299.9 
L 225.56875 95.2 
" clip-path="url(#pf893f0a384)" style="fill: none; stroke-dasharray: 7.4,3.2; stroke-dashoffset: 0; stroke: #808080; stroke-opacity: 0.5; stroke-width: 2"/>
   </g>
   <g id="patch_3">
    <path d="M 61.975 299.9 
L 61.975 95.2 
" style="fill: none; stroke: #000000; stroke-width: 0.8; stroke-linejoin: miter; stroke-linecap: square"/>
   </g>
   <g id="patch_4">
    <path d="M 389.1625 299.9 
L 389.1625 95.2 
" style="fill: none; stroke: #000000; stroke-width: 0.8; stroke-linejoin: miter; stroke-linecap: square"/>
   </g>
   <g id="patch_5">
    <path d="M 61.975 299.9 
L 389.1625 299.9 
" style="fill: none; stroke: #000000; stroke-width: 0.8; stroke-linejoin: miter; stroke-linecap: square"/>
   </g>
   <g id="patch_6">
    <path d="M 61.975 95.2 
L 389.1625 95.2 
" style="fill: none; stroke: #000000; stroke-width: 0.8; stroke-linejoin: miter; stroke-linecap: square"/>
   </g>
   <g id="text_14">
    <!-- Finesse und FWHM als Funktion von R -->
    <g transform="translate(112.164063 75.762625) scale(0.12 -0.12)">
     <defs>
      <path id="DejaVuSans-75" d="M 544 1381 
L 544 3500 
L 1119 3500 
L 1119 1403 
Q 1119 906 1312 657 
Q 1506 409 1894 409 
Q 2359 409 2629 706 
Q 2900 1003 2900 1516 
L 2900 3500 
L 3475 3500 
L 3475 0 
L 2900 0 
L 2900 538 
Q 2691 219 2414 64 
Q 2138 -91 1772 -91 
Q 1169 -91 856 284 
Q 544 659 544 1381 
z
M 1991 3584 
L 1991 3584 
z
" transform="scale(0.015625)"/>
      <path id="DejaVuSans-64" d="M 2906 2969 
L 2906 4863 
L 3481 4863 
L 3481 0 
L 2906 0 
L 2906 525 
Q 2725 213 2448 61 
Q 2172 -91 1784 -91 
Q 1150 -91 751 415 
Q 353 922 353 1747 
Q 353 2572 751 3078 
Q 1150 3584 1784 3584 
Q 2172 3584 2448 3432 
Q 2725 3281 2906 2969 
z
M 947 1747 
Q 947 1113 1208 752 
Q 1469 391 1925 391 
Q 2381 391 2643 752 
Q 2906 1113 2906 1747 
Q 2906 2381 2643 2742 
Q 2381 3103 1925 3103 
Q 1469 3103 1208 2742 
Q 947 2381 947 1747 
z
" transform="scale(0.015625)"/>
      <path id="DejaVuSans-57" d="M 213 4666 
L 850 4666 
L 1831 722 
L 2809 4666 
L 3519 4666 
L 4500 722 
L 5478 4666 
L 6119 4666 
L 4947 0 
L 4153 0 
L 3169 4050 
L 2175 0 
L 1381 0 
L 213 4666 
z
" transform="scale(0.015625)"/>
      <path id="DejaVuSans-48" d="M 628 4666 
L 1259 4666 
L 1259 2753 
L 3553 2753 
L 3553 4666 
L 4184 4666 
L 4184 0 
L 3553 0 
L 3553 2222 
L 1259 2222 
L 1259 0 
L 628 0 
L 628 4666 
z
" transform="scale(0.015625)"/>
      <path id="DejaVuSans-4d" d="M 628 4666 
L 1569 4666 
L 2759 1491 
L 3956 4666 
L 4897 4666 
L 4897 0 
L 4281 0 
L 4281 4097 
L 3078 897 
L 2444 897 
L 1241 4097 
L 1241 0 
L 628 0 
L 628 4666 
z
" transform="scale(0.015625)"/>
      <path id="DejaVuSans-61" d="M 2194 1759 
Q 1497 1759 1228 1600 
Q 959 1441 959 1056 
Q 959 750 1161 570 
Q 1363 391 1709 391 
Q 2188 391 2477 730 
Q 2766 1069 2766 1631 
L 2766 1759 
L 2194 1759 
z
M 3341 1997 
L 3341 0 
L 2766 0 
L 2766 531 
Q 2569 213 2275 61 
Q 1981 -91 1556 -91 
Q 1019 -91 701 211 
Q 384 513 384 1019 
Q 384 1609 779 1909 
Q 1175 2209 1959 2209 
L 2766 2209 
L 2766 2266 
Q 2766 2663 2505 2880 
Q 2244 3097 1772 3097 
Q 1472 3097 1187 3025 
Q 903 2953 641 2809 
L 641 3341 
Q 956 3463 1253 3523 
Q 1550 3584 1831 3584 
Q 2591 3584 2966 3190 
Q 3341 2797 3341 1997 
z
" transform="scale(0.015625)"/>
      <path id="DejaVuSans-6f" d="M 1959 3097 
Q 1497 3097 1228 2736 
Q 959 2375 959 1747 
Q 959 1119 1226 758 
Q 1494 397 1959 397 
Q 2419 397 2687 759 
Q 2956 1122 2956 1747 
Q 2956 2369 2687 2733 
Q 2419 3097 1959 3097 
z
M 1959 3584 
Q 2709 3584 3137 3096 
Q 3566 2609 3566 1747 
Q 3566 888 3137 398 
Q 2709 -91 1959 -91 
Q 1206 -91 779 398 
Q 353 888 353 1747 
Q 353 2609 779 3096 
Q 1206 3584 1959 3584 
z
" transform="scale(0.015625)"/>
     </defs>
     <use xlink:href="#DejaVuSans-46"/>
     <use xlink:href="#DejaVuSans-69" transform="translate(50.269531 0)"/>
     <use xlink:href="#DejaVuSans-6e" transform="translate(78.052734 0)"/>
     <use xlink:href="#DejaVuSans-65" transform="translate(141.431641 0)"/>
     <use xlink:href="#DejaVuSans-73" transform="translate(202.955078 0)"/>
     <use xlink:href="#DejaVuSans-73" transform="translate(255.054688 0)"/>
     <use xlink:href="#DejaVuSans-65" transform="translate(307.154297 0)"/>
     <use xlink:href="#DejaVuSans-20" transform="translate(368.677734 0)"/>
     <use xlink:href="#DejaVuSans-75" transform="translate(400.464844 0)"/>
     <use xlink:href="#DejaVuSans-6e" transform="translate(463.84375 0)"/>
     <use xlink:href="#DejaVuSans-64" transform="translate(527.222656 0)"/>
     <use xlink:href="#DejaVuSans-20" transform="translate(590.699219 0)"/>
     <use xlink:href="#DejaVuSans-46" transform="translate(622.486328 0)"/>
     <use xlink:href="#DejaVuSans-57" transform="translate(680.005859 0)"/>
     <use xlink:href="#DejaVuSans-48" transform="translate(778.882812 0)"/>
     <use xlink:href="#DejaVuSans-4d" transform="translate(854.078125 0)"/>
     <use xlink:href="#DejaVuSans-20" transform="translate(940.357422 0)"/>
     <use xlink:href="#DejaVuSans-61" transform="translate(972.144531 0)"/>
     <use xlink:href="#DejaVuSans-6c" transform="translate(1033.423828 0)"/>
     <use xlink:href="#DejaVuSans-73" transform="translate(1061.207031 0)"/>
     <use xlink:href="#DejaVuSans-20" transform="translate(1113.306641 0)"/>
     <use xlink:href="#DejaVuSans-46" transform="translate(1145.09375 0)"/>
     <use xlink:href="#DejaVuSans-75" transform="translate(1197.113281 0)"/>
     <use xlink:href="#DejaVuSans-6e" transform="translate(1260.492188 0)"/>
     <use xlink:href="#DejaVuSans-6b" transform="translate(1323.871094 0)"/>
     <use xlink:href="#DejaVuSans-74" transform="translate(1381.78125 0)"/>
     <use xlink:href="#DejaVuSans-69" transform="translate(1420.990234 0)"/>
     <use xlink:href="#DejaVuSans-6f" transform="translate(1448.773438 0)"/>
     <use xlink:href="#DejaVuSans-6e" transform="translate(1509.955078 0)"/>
     <use xlink:href="#DejaVuSans-20" transform="translate(1573.333984 0)"/>
     <use xlink:href="#DejaVuSans-76" transform="translate(1605.121094 0)"/>
     <use xlink:href="#DejaVuSans-6f" transform="translate(1664.300781 0)"/>
     <use xlink:href="#DejaVuSans-6e" transform="translate(1725.482422 0)"/>
     <use xlink:href="#DejaVuSans-20" transform="translate(1788.861328 0)"/>
     <use xlink:href="#DejaVuSans-52" transform="translate(1820.648438 0)"/>
    </g>
    <!-- (d₀=250nm, Q=2.15) -->
    <g transform="translate(161.620938 89.2) scale(0.12 -0.12)">
     <defs>
      <path id="DejaVuSans-28" d="M 1984 4856 
Q 1566 4138 1362 3434 
Q 1159 2731 1159 2009 
Q 1159 1288 1364 580 
Q 1569 -128 1984 -844 
L 1484 -844 
Q 1016 -109 783 600 
Q 550 1309 550 2009 
Q 550 2706 781 3412 
Q 1013 4119 1484 4856 
L 1984 4856 
z
" transform="scale(0.015625)"/>
      <path id="DejaVuSans-2080" d="M 1781 2091 
Q 1625 2360 1309 2360 
Q 994 2360 838 2091 
Q 678 1822 678 1285 
Q 678 744 838 476 
Q 994 207 1309 207 
Q 1625 207 1781 476 
Q 1941 744 1941 1285 
Q 1941 1822 1781 2091 
z
M 1309 2638 
Q 1813 2638 2078 2291 
Q 2344 1944 2344 1285 
Q 2344 622 2078 275 
Q 1813 -71 1309 -71 
Q 803 -71 537 275 
Q 272 622 272 1285 
Q 272 1944 537 2291 
Q 803 2638 1309 2638 
z
" transform="scale(0.015625)"/>
      <path id="DejaVuSans-3d" d="M 678 2906 
L 4684 2906 
L 4684 2381 
L 678 2381 
L 678 2906 
z
M 678 1631 
L 4684 1631 
L 4684 1100 
L 678 1100 
L 678 1631 
z
" transform="scale(0.015625)"/>
      <path id="DejaVuSans-6d" d="M 3328 2828 
Q 3544 3216 3844 3400 
Q 4144 3584 4550 3584 
Q 5097 3584 5394 3201 
Q 5691 2819 5691 2113 
L 5691 0 
L 5113 0 
L 5113 2094 
Q 5113 2597 4934 2840 
Q 4756 3084 4391 3084 
Q 3944 3084 3684 2787 
Q 3425 2491 3425 1978 
L 3425 0 
L 2847 0 
L 2847 2094 
Q 2847 2600 2669 2842 
Q 2491 3084 2119 3084 
Q 1678 3084 1418 2786 
Q 1159 2488 1159 1978 
L 1159 0 
L 581 0 
L 581 3500 
L 1159 3500 
L 1159 2956 
Q 1356 3278 1631 3431 
Q 1906 3584 2284 3584 
Q 2666 3584 2933 3390 
Q 3200 3197 3328 2828 
z
" transform="scale(0.015625)"/>
      <path id="DejaVuSans-2c" d="M 750 794 
L 1409 794 
L 1409 256 
L 897 -744 
L 494 -744 
L 750 256 
L 750 794 
z
" transform="scale(0.015625)"/>
      <path id="DejaVuSans-51" d="M 2522 4238 
Q 1834 4238 1429 3725 
Q 1025 3213 1025 2328 
Q 1025 1447 1429 934 
Q 1834 422 2522 422 
Q 3209 422 3611 934 
Q 4013 1447 4013 2328 
Q 4013 3213 3611 3725 
Q 3209 4238 2522 4238 
z
M 3406 84 
L 4238 -825 
L 3475 -825 
L 2784 -78 
Q 2681 -84 2626 -87 
Q 2572 -91 2522 -91 
Q 1538 -91 948 567 
Q 359 1225 359 2328 
Q 359 3434 948 4092 
Q 1538 4750 2522 4750 
Q 3503 4750 4090 4092 
Q 4678 3434 4678 2328 
Q 4678 1516 4351 937 
Q 4025 359 3406 84 
z
" transform="scale(0.015625)"/>
      <path id="DejaVuSans-29" d="M 513 4856 
L 1013 4856 
Q 1481 4119 1714 3412 
Q 1947 2706 1947 2009 
Q 1947 1309 1714 600 
Q 1481 -109 1013 -844 
L 513 -844 
Q 928 -128 1133 580 
Q 1338 1288 1338 2009 
Q 1338 2731 1133 3434 
Q 928 4138 513 4856 
z
" transform="scale(0.015625)"/>
     </defs>
     <use xlink:href="#DejaVuSans-28"/>
     <use xlink:href="#DejaVuSans-64" transform="translate(39.013672 0)"/>
     <use xlink:href="#DejaVuSans-2080" transform="translate(102.490234 0)"/>
     <use xlink:href="#DejaVuSans-3d" transform="translate(142.578125 0)"/>
     <use xlink:href="#DejaVuSans-32" transform="translate(226.367188 0)"/>
     <use xlink:href="#DejaVuSans-35" transform="translate(289.990234 0)"/>
     <use xlink:href="#DejaVuSans-30" transform="translate(353.613281 0)"/>
     <use xlink:href="#DejaVuSans-6e" transform="translate(417.236328 0)"/>
     <use xlink:href="#DejaVuSans-6d" transform="translate(480.615234 0)"/>
     <use xlink:href="#DejaVuSans-2c" transform="translate(578.027344 0)"/>
     <use xlink:href="#DejaVuSans-20" transform="translate(609.814453 0)"/>
     <use xlink:href="#DejaVuSans-51" transform="translate(641.601562 0)"/>
     <use xlink:href="#DejaVuSans-3d" transform="translate(720.3125 0)"/>
     <use xlink:href="#DejaVuSans-32" transform="translate(804.101562 0)"/>
     <use xlink:href="#DejaVuSans-2e" transform="translate(867.724609 0)"/>
     <use xlink:href="#DejaVuSans-31" transform="translate(899.511719 0)"/>
     <use xlink:href="#DejaVuSans-35" transform="translate(963.134766 0)"/>
     <use xlink:href="#DejaVuSans-29" transform="translate(1026.757812 0)"/>
    </g>
   </g>
   <g id="legend_1">
    <g id="patch_7">
     <path d="M 68.275 128.820625 
L 151.568594 128.820625 
Q 153.368594 128.820625 153.368594 127.020625 
L 153.368594 101.5 
Q 153.368594 99.7 151.568594 99.7 
L 68.275 99.7 
Q 66.475 99.7 66.475 101.5 
L 66.475 127.020625 
Q 66.475 128.820625 68.275 128.820625 
z
" style="fill: #ffffff; opacity: 0.8; stroke: #cccccc; stroke-linejoin: miter"/>
    </g>
    <g id="line2d_26">
     <path d="M 70.075 106.988594 
L 79.075 106.988594 
L 88.075 106.988594 
" style="fill: none; stroke: #e63946; stroke-width: 2; stroke-linecap: square"/>
    </g>
    <g id="text_15">
     <!-- Finesse F(R) -->
     <g transform="translate(95.275 110.138594) scale(0.09 -0.09)">
      <use xlink:href="#DejaVuSans-46"/>
      <use xlink:href="#DejaVuSans-69" transform="translate(50.269531 0)"/>
      <use xlink:href="#DejaVuSans-6e" transform="translate(78.052734 0)"/>
      <use xlink:href="#DejaVuSans-65" transform="translate(141.431641 0)"/>
      <use xlink:href="#DejaVuSans-73" transform="translate(202.955078 0)"/>
      <use xlink:href="#DejaVuSans-73" transform="translate(255.054688 0)"/>
      <use xlink:href="#DejaVuSans-65" transform="translate(307.154297 0)"/>
      <use xlink:href="#DejaVuSans-20" transform="translate(368.677734 0)"/>
      <use xlink:href="#DejaVuSans-46" transform="translate(400.464844 0)"/>
      <use xlink:href="#DejaVuSans-28" transform="translate(457.984375 0)"/>
      <use xlink:href="#DejaVuSans-52" transform="translate(496.998047 0)"/>
      <use xlink:href="#DejaVuSans-29" transform="translate(566.480469 0)"/>
     </g>
    </g>
    <g id="line2d_27">
     <path d="M 70.075 120.198906 
L 79.075 120.198906 
L 88.075 120.198906 
" style="fill: none; stroke-dasharray: 7.4,3.2; stroke-dashoffset: 0; stroke: #457b9d; stroke-width: 2"/>
    </g>
    <g id="text_16">
     <!-- FWHM [nm] -->
     <g transform="translate(95.275 123.348906) scale(0.09 -0.09)">
      <defs>
       <path id="DejaVuSans-5b" d="M 550 4863 
L 1875 4863 
L 1875 4416 
L 1125 4416 
L 1125 -397 
L 1875 -397 
L 1875 -844 
L 550 -844 
L 550 4863 
z
" transform="scale(0.015625)"/>
       <path id="DejaVuSans-5d" d="M 1947 4863 
L 1947 -844 
L 622 -844 
L 622 -397 
L 1369 -397 
L 1369 4416 
L 622 4416 
L 622 4863 
L 1947 4863 
z
" transform="scale(0.015625)"/>
      </defs>
      <use xlink:href="#DejaVuSans-46"/>
      <use xlink:href="#DejaVuSans-57" transform="translate(57.519531 0)"/>
      <use xlink:href="#DejaVuSans-48" transform="translate(156.396484 0)"/>
      <use xlink:href="#DejaVuSans-4d" transform="translate(231.591797 0)"/>
      <use xlink:href="#DejaVuSans-20" transform="translate(317.871094 0)"/>
      <use xlink:href="#DejaVuSans-5b" transform="translate(349.658203 0)"/>
      <use xlink:href="#DejaVuSans-6e" transform="translate(388.671875 0)"/>
      <use xlink:href="#DejaVuSans-6d" transform="translate(452.050781 0)"/>
      <use xlink:href="#DejaVuSans-5d" transform="translate(549.462891 0)"/>
     </g>
    </g>
   </g>
  </g>
  <g id="axes_2">
   <g id="patch_8">
    <path d="M 501.4375 299.9 
L 828.625 299.9 
L 828.625 95.2 
L 501.4375 95.2 
z
" style="fill: #ffffff"/>
   </g>
   <g id="matplotlib.axis_3">
    <g id="xtick_5">
     <g id="line2d_28">
      <path d="M 501.4375 299.9 
L 501.4375 95.2 
" clip-path="url(#pbae5becaba)" style="fill: none; stroke: #b0b0b0; stroke-opacity: 0.3; stroke-width: 0.8; stroke-linecap: square"/>
     </g>
     <g id="line2d_29">
      <g>
       <use xlink:href="#m123704c316" x="501.4375" y="299.9" style="stroke: #000000; stroke-width: 0.8"/>
      </g>
     </g>
     <g id="text_17">
      <!-- 0.0 -->
      <g transform="translate(493.485937 314.498438) scale(0.1 -0.1)">
       <use xlink:href="#DejaVuSans-30"/>
       <use xlink:href="#DejaVuSans-2e" transform="translate(63.623047 0)"/>
       <use xlink:href="#DejaVuSans-30" transform="translate(95.410156 0)"/>
      </g>
     </g>
    </g>
    <g id="xtick_6">
     <g id="line2d_30">
      <path d="M 542.335938 299.9 
L 542.335938 95.2 
" clip-path="url(#pbae5becaba)" style="fill: none; stroke: #b0b0b0; stroke-opacity: 0.3; stroke-width: 0.8; stroke-linecap: square"/>
     </g>
     <g id="line2d_31">
      <g>
       <use xlink:href="#m123704c316" x="542.335938" y="299.9" style="stroke: #000000; stroke-width: 0.8"/>
      </g>
     </g>
     <g id="text_18">
      <!-- 0.1 -->
      <g transform="translate(534.384375 314.498438) scale(0.1 -0.1)">
       <use xlink:href="#DejaVuSans-30"/>
       <use xlink:href="#DejaVuSans-2e" transform="translate(63.623047 0)"/>
       <use xlink:href="#DejaVuSans-31" transform="translate(95.410156 0)"/>
      </g>
     </g>
    </g>
    <g id="xtick_7">
     <g id="line2d_32">
      <path d="M 583.234375 299.9 
L 583.234375 95.2 
" clip-path="url(#pbae5becaba)" style="fill: none; stroke: #b0b0b0; stroke-opacity: 0.3; stroke-width: 0.8; stroke-linecap: square"/>
     </g>
     <g id="line2d_33">
      <g>
       <use xlink:href="#m123704c316" x="583.234375" y="299.9" style="stroke: #000000; stroke-width: 0.8"/>
      </g>
     </g>
     <g id="text_19">
      <!-- 0.2 -->
      <g transform="translate(575.282812 314.498438) scale(0.1 -0.1)">
       <use xlink:href="#DejaVuSans-30"/>
       <use xlink:href="#DejaVuSans-2e" transform="translate(63.623047 0)"/>
       <use xlink:href="#DejaVuSans-32" transform="translate(95.410156 0)"/>
      </g>
     </g>
    </g>
    <g id="xtick_8">
     <g id="line2d_34">
      <path d="M 624.132812 299.9 
L 624.132812 95.2 
" clip-path="url(#pbae5becaba)" style="fill: none; stroke: #b0b0b0; stroke-opacity: 0.3; stroke-width: 0.8; stroke-linecap: square"/>
     </g>
     <g id="line2d_35">
      <g>
       <use xlink:href="#m123704c316" x="624.132812" y="299.9" style="stroke: #000000; stroke-width: 0.8"/>
      </g>
     </g>
     <g id="text_20">
      <!-- 0.3 -->
      <g transform="translate(616.18125 314.498438) scale(0.1 -0.1)">
       <use xlink:href="#DejaVuSans-30"/>
       <use xlink:href="#DejaVuSans-2e" transform="translate(63.623047 0)"/>
       <use xlink:href="#DejaVuSans-33" transform="translate(95.410156 0)"/>
      </g>
     </g>
    </g>
    <g id="xtick_9">
     <g id="line2d_36">
      <path d="M 665.03125 299.9 
L 665.03125 95.2 
" clip-path="url(#pbae5becaba)" style="fill: none; stroke: #b0b0b0; stroke-opacity: 0.3; stroke-width: 0.8; stroke-linecap: square"/>
     </g>
     <g id="line2d_37">
      <g>
       <use xlink:href="#m123704c316" x="665.03125" y="299.9" style="stroke: #000000; stroke-width: 0.8"/>
      </g>
     </g>
     <g id="text_21">
      <!-- 0.4 -->
      <g transform="translate(657.079687 314.498438) scale(0.1 -0.1)">
       <use xlink:href="#DejaVuSans-30"/>
       <use xlink:href="#DejaVuSans-2e" transform="translate(63.623047 0)"/>
       <use xlink:href="#DejaVuSans-34" transform="translate(95.410156 0)"/>
      </g>
     </g>
    </g>
    <g id="xtick_10">
     <g id="line2d_38">
      <path d="M 705.929688 299.9 
L 705.929688 95.2 
" clip-path="url(#pbae5becaba)" style="fill: none; stroke: #b0b0b0; stroke-opacity: 0.3; stroke-width: 0.8; stroke-linecap: square"/>
     </g>
     <g id="line2d_39">
      <g>
       <use xlink:href="#m123704c316" x="705.929688" y="299.9" style="stroke: #000000; stroke-width: 0.8"/>
      </g>
     </g>
     <g id="text_22">
      <!-- 0.5 -->
      <g transform="translate(697.978125 314.498438) scale(0.1 -0.1)">
       <use xlink:href="#DejaVuSans-30"/>
       <use xlink:href="#DejaVuSans-2e" transform="translate(63.623047 0)"/>
       <use xlink:href="#DejaVuSans-35" transform="translate(95.410156 0)"/>
      </g>
     </g>
    </g>
    <g id="xtick_11">
     <g id="line2d_40">
      <path d="M 746.828125 299.9 
L 746.828125 95.2 
" clip-path="url(#pbae5becaba)" style="fill: none; stroke: #b0b0b0; stroke-opacity: 0.3; stroke-width: 0.8; stroke-linecap: square"/>
     </g>
     <g id="line2d_41">
      <g>
       <use xlink:href="#m123704c316" x="746.828125" y="299.9" style="stroke: #000000; stroke-width: 0.8"/>
      </g>
     </g>
     <g id="text_23">
      <!-- 0.6 -->
      <g transform="translate(738.876562 314.498438) scale(0.1 -0.1)">
       <use xlink:href="#DejaVuSans-30"/>
       <use xlink:href="#DejaVuSans-2e" transform="translate(63.623047 0)"/>
       <use xlink:href="#DejaVuSans-36" transform="translate(95.410156 0)"/>
      </g>
     </g>
    </g>
    <g id="xtick_12">
     <g id="line2d_42">
      <path d="M 787.726562 299.9 
L 787.726562 95.2 
" clip-path="url(#pbae5becaba)" style="fill: none; stroke: #b0b0b0; stroke-opacity: 0.3; stroke-width: 0.8; stroke-linecap: square"/>
     </g>
     <g id="line2d_43">
      <g>
       <use xlink:href="#m123704c316" x="787.726562" y="299.9" style="stroke: #000000; stroke-width: 0.8"/>
      </g>
     </g>
     <g id="text_24">
      <!-- 0.7 -->
      <g transform="translate(779.775 314.498438) scale(0.1 -0.1)">
       <defs>
        <path id="DejaVuSans-37" d="M 525 4666 
L 3525 4666 
L 3525 4397 
L 1831 0 
L 1172 0 
L 2766 4134 
L 525 4134 
L 525 4666 
z
" transform="scale(0.015625)"/>
       </defs>
       <use xlink:href="#DejaVuSans-30"/>
       <use xlink:href="#DejaVuSans-2e" transform="translate(63.623047 0)"/>
       <use xlink:href="#DejaVuSans-37" transform="translate(95.410156 0)"/>
      </g>
     </g>
    </g>
    <g id="xtick_13">
     <g id="line2d_44">
      <path d="M 828.625 299.9 
L 828.625 95.2 
" clip-path="url(#pbae5becaba)" style="fill: none; stroke: #b0b0b0; stroke-opacity: 0.3; stroke-width: 0.8; stroke-linecap: square"/>
     </g>
     <g id="line2d_45">
      <g>
       <use xlink:href="#m123704c316" x="828.625" y="299.9" style="stroke: #000000; stroke-width: 0.8"/>
      </g>
     </g>
     <g id="text_25">
      <!-- 0.8 -->
      <g transform="translate(820.673437 314.498438) scale(0.1 -0.1)">
       <use xlink:href="#DejaVuSans-30"/>
       <use xlink:href="#DejaVuSans-2e" transform="translate(63.623047 0)"/>
       <use xlink:href="#DejaVuSans-38" transform="translate(95.410156 0)"/>
      </g>
     </g>
    </g>
    <g id="text_26">
     <!-- CIE x -->
     <g transform="translate(651.089609 328.936406) scale(0.11 -0.11)">
      <defs>
       <path id="DejaVuSans-43" d="M 4122 4306 
L 4122 3641 
Q 3803 3938 3442 4084 
Q 3081 4231 2675 4231 
Q 1875 4231 1450 3742 
Q 1025 3253 1025 2328 
Q 1025 1406 1450 917 
Q 1875 428 2675 428 
Q 3081 428 3442 575 
Q 3803 722 4122 1019 
L 4122 359 
Q 3791 134 3420 21 
Q 3050 -91 2638 -91 
Q 1578 -91 968 557 
Q 359 1206 359 2328 
Q 359 3453 968 4101 
Q 1578 4750 2638 4750 
Q 3056 4750 3426 4639 
Q 3797 4528 4122 4306 
z
" transform="scale(0.015625)"/>
       <path id="DejaVuSans-49" d="M 628 4666 
L 1259 4666 
L 1259 0 
L 628 0 
L 628 4666 
z
" transform="scale(0.015625)"/>
       <path id="DejaVuSans-45" d="M 628 4666 
L 3578 4666 
L 3578 4134 
L 1259 4134 
L 1259 2753 
L 3481 2753 
L 3481 2222 
L 1259 2222 
L 1259 531 
L 3634 531 
L 3634 0 
L 628 0 
L 628 4666 
z
" transform="scale(0.015625)"/>
       <path id="DejaVuSans-78" d="M 3513 3500 
L 2247 1797 
L 3578 0 
L 2900 0 
L 1881 1375 
L 863 0 
L 184 0 
L 1544 1831 
L 300 3500 
L 978 3500 
L 1906 2253 
L 2834 3500 
L 3513 3500 
z
" transform="scale(0.015625)"/>
      </defs>
      <use xlink:href="#DejaVuSans-43"/>
      <use xlink:href="#DejaVuSans-49" transform="translate(69.824219 0)"/>
      <use xlink:href="#DejaVuSans-45" transform="translate(99.316406 0)"/>
      <use xlink:href="#DejaVuSans-20" transform="translate(162.5 0)"/>
      <use xlink:href="#DejaVuSans-78" transform="translate(194.287109 0)"/>
     </g>
    </g>
   </g>
   <g id="matplotlib.axis_4">
    <g id="ytick_8">
     <g id="line2d_46">
      <path d="M 501.4375 299.9 
L 828.625 299.9 
" clip-path="url(#pbae5becaba)" style="fill: none; stroke: #b0b0b0; stroke-opacity: 0.3; stroke-width: 0.8; stroke-linecap: square"/>
     </g>
     <g id="line2d_47">
      <g>
       <use xlink:href="#me504ab9a26" x="501.4375" y="299.9" style="stroke: #000000; stroke-width: 0.8"/>
      </g>
     </g>
     <g id="text_27">
      <!-- 0.0 -->
      <g transform="translate(478.534375 303.699219) scale(0.1 -0.1)">
       <use xlink:href="#DejaVuSans-30"/>
       <use xlink:href="#DejaVuSans-2e" transform="translate(63.623047 0)"/>
       <use xlink:href="#DejaVuSans-30" transform="translate(95.410156 0)"/>
      </g>
     </g>
    </g>
    <g id="ytick_9">
     <g id="line2d_48">
      <path d="M 501.4375 274.3125 
L 828.625 274.3125 
" clip-path="url(#pbae5becaba)" style="fill: none; stroke: #b0b0b0; stroke-opacity: 0.3; stroke-width: 0.8; stroke-linecap: square"/>
     </g>
     <g id="line2d_49">
      <g>
       <use xlink:href="#me504ab9a26" x="501.4375" y="274.3125" style="stroke: #000000; stroke-width: 0.8"/>
      </g>
     </g>
     <g id="text_28">
      <!-- 0.1 -->
      <g transform="translate(478.534375 278.111719) scale(0.1 -0.1)">
       <use xlink:href="#DejaVuSans-30"/>
       <use xlink:href="#DejaVuSans-2e" transform="translate(63.623047 0)"/>
       <use xlink:href="#DejaVuSans-31" transform="translate(95.410156 0)"/>
      </g>
     </g>
    </g>
    <g id="ytick_10">
     <g id="line2d_50">
      <path d="M 501.4375 248.725 
L 828.625 248.725 
" clip-path="url(#pbae5becaba)" style="fill: none; stroke: #b0b0b0; stroke-opacity: 0.3; stroke-width: 0.8; stroke-linecap: square"/>
     </g>
     <g id="line2d_51">
      <g>
       <use xlink:href="#me504ab9a26" x="501.4375" y="248.725" style="stroke: #000000; stroke-width: 0.8"/>
      </g>
     </g>
     <g id="text_29">
      <!-- 0.2 -->
      <g transform="translate(478.534375 252.524219) scale(0.1 -0.1)">
       <use xlink:href="#DejaVuSans-30"/>
       <use xlink:href="#DejaVuSans-2e" transform="translate(63.623047 0)"/>
       <use xlink:href="#DejaVuSans-32" transform="translate(95.410156 0)"/>
      </g>
     </g>
    </g>
    <g id="ytick_11">
     <g id="line2d_52">
      <path d="M 501.4375 223.1375 
L 828.625 223.1375 
" clip-path="url(#pbae5becaba)" style="fill: none; stroke: #b0b0b0; stroke-opacity: 0.3; stroke-width: 0.8; stroke-linecap: square"/>
     </g>
     <g id="line2d_53">
      <g>
       <use xlink:href="#me504ab9a26" x="501.4375" y="223.1375" style="stroke: #000000; stroke-width: 0.8"/>
      </g>
     </g>
     <g id="text_30">
      <!-- 0.3 -->
      <g transform="translate(478.534375 226.936719) scale(0.1 -0.1)">
       <use xlink:href="#DejaVuSans-30"/>
       <use xlink:href="#DejaVuSans-2e" transform="translate(63.623047 0)"/>
       <use xlink:href="#DejaVuSans-33" transform="translate(95.410156 0)"/>
      </g>
     </g>
    </g>
    <g id="ytick_12">
     <g id="line2d_54">
      <path d="M 501.4375 197.55 
L 828.625 197.55 
" clip-path="url(#pbae5becaba)" style="fill: none; stroke: #b0b0b0; stroke-opacity: 0.3; stroke-width: 0.8; stroke-linecap: square"/>
     </g>
     <g id="line2d_55">
      <g>
       <use xlink:href="#me504ab9a26" x="501.4375" y="197.55" style="stroke: #000000; stroke-width: 0.8"/>
      </g>
     </g>
     <g id="text_31">
      <!-- 0.4 -->
      <g transform="translate(478.534375 201.349219) scale(0.1 -0.1)">
       <use xlink:href="#DejaVuSans-30"/>
       <use xlink:href="#DejaVuSans-2e" transform="translate(63.623047 0)"/>
       <use xlink:href="#DejaVuSans-34" transform="translate(95.410156 0)"/>
      </g>
     </g>
    </g>
    <g id="ytick_13">
     <g id="line2d_56">
      <path d="M 501.4375 171.9625 
L 828.625 171.9625 
" clip-path="url(#pbae5becaba)" style="fill: none; stroke: #b0b0b0; stroke-opacity: 0.3; stroke-width: 0.8; stroke-linecap: square"/>
     </g>
     <g id="line2d_57">
      <g>
       <use xlink:href="#me504ab9a26" x="501.4375" y="171.9625" style="stroke: #000000; stroke-width: 0.8"/>
      </g>
     </g>
     <g id="text_32">
      <!-- 0.5 -->
      <g transform="translate(478.534375 175.761719) scale(0.1 -0.1)">
       <use xlink:href="#DejaVuSans-30"/>
       <use xlink:href="#DejaVuSans-2e" transform="translate(63.623047 0)"/>
       <use xlink:href="#DejaVuSans-35" transform="translate(95.410156 0)"/>
      </g>
     </g>
    </g>
    <g id="ytick_14">
     <g id="line2d_58">
      <path d="M 501.4375 146.375 
L 828.625 146.375 
" clip-path="url(#pbae5becaba)" style="fill: none; stroke: #b0b0b0; stroke-opacity: 0.3; stroke-width: 0.8; stroke-linecap: square"/>
     </g>
     <g id="line2d_59">
      <g>
       <use xlink:href="#me504ab9a26" x="501.4375" y="146.375" style="stroke: #000000; stroke-width: 0.8"/>
      </g>
     </g>
     <g id="text_33">
      <!-- 0.6 -->
      <g transform="translate(478.534375 150.174219) scale(0.1 -0.1)">
       <use xlink:href="#DejaVuSans-30"/>
       <use xlink:href="#DejaVuSans-2e" transform="translate(63.623047 0)"/>
       <use xlink:href="#DejaVuSans-36" transform="translate(95.410156 0)"/>
      </g>
     </g>
    </g>
    <g id="ytick_15">
     <g id="line2d_60">
      <path d="M 501.4375 120.7875 
L 828.625 120.7875 
" clip-path="url(#pbae5becaba)" style="fill: none; stroke: #b0b0b0; stroke-opacity: 0.3; stroke-width: 0.8; stroke-linecap: square"/>
     </g>
     <g id="line2d_61">
      <g>
       <use xlink:href="#me504ab9a26" x="501.4375" y="120.7875" style="stroke: #000000; stroke-width: 0.8"/>
      </g>
     </g>
     <g id="text_34">
      <!-- 0.7 -->
      <g transform="translate(478.534375 124.586719) scale(0.1 -0.1)">
       <use xlink:href="#DejaVuSans-30"/>
       <use xlink:href="#DejaVuSans-2e" transform="translate(63.623047 0)"/>
       <use xlink:href="#DejaVuSans-37" transform="translate(95.410156 0)"/>
      </g>
     </g>
    </g>
    <g id="ytick_16">
     <g id="line2d_62">
      <path d="M 501.4375 95.2 
L 828.625 95.2 
" clip-path="url(#pbae5becaba)" style="fill: none; stroke: #b0b0b0; stroke-opacity: 0.3; stroke-width: 0.8; stroke-linecap: square"/>
     </g>
     <g id="line2d_63">
      <g>
       <use xlink:href="#me504ab9a26" x="501.4375" y="95.2" style="stroke: #000000; stroke-width: 0.8"/>
      </g>
     </g>
     <g id="text_35">
      <!-- 0.8 -->
      <g transform="translate(478.534375 98.999219) scale(0.1 -0.1)">
       <use xlink:href="#DejaVuSans-30"/>
       <use xlink:href="#DejaVuSans-2e" transform="translate(63.623047 0)"/>
       <use xlink:href="#DejaVuSans-38" transform="translate(95.410156 0)"/>
      </g>
     </g>
    </g>
    <g id="text_36">
     <!-- CIE y -->
     <g transform="translate(472.246719 211.491641) rotate(-90) scale(0.11 -0.11)">
      <defs>
       <path id="DejaVuSans-79" d="M 2059 -325 
Q 1816 -950 1584 -1140 
Q 1353 -1331 966 -1331 
L 506 -1331 
L 506 -850 
L 844 -850 
Q 1081 -850 1212 -737 
Q 1344 -625 1503 -206 
L 1606 56 
L 191 3500 
L 800 3500 
L 1894 763 
L 2988 3500 
L 3597 3500 
L 2059 -325 
z
" transform="scale(0.015625)"/>
      </defs>
      <use xlink:href="#DejaVuSans-43"/>
      <use xlink:href="#DejaVuSans-49" transform="translate(69.824219 0)"/>
      <use xlink:href="#DejaVuSans-45" transform="translate(99.316406 0)"/>
      <use xlink:href="#DejaVuSans-20" transform="translate(162.5 0)"/>
      <use xlink:href="#DejaVuSans-79" transform="translate(194.287109 0)"/>
     </g>
    </g>
   </g>
   <g id="line2d_64">
    <path d="M 701.786296 233.785499 
L 667.053323 260.173622 
L 620.058105 259.052656 
L 594.999484 233.429112 
L 606.392221 207.815036 
L 634.36523 190.574402 
L 662.291025 180.654201 
L 681.48465 181.733732 
L 689.43487 195.45398 
L 690.501535 214.725746 
L 688.787837 232.47181 
L 683.898315 244.81326 
L 672.578383 247.21977 
L 652.740337 233.893298 
L 630.019297 205.118553 
L 619.300099 178.509532 
L 627.07773 173.695939 
L 642.909586 185.812447 
L 657.835103 201.46337 
L 670.256755 214.625852 
L 680.810434 224.198027 
L 689.260741 229.849879 
L 693.251104 230.552759 
L 688.259864 224.994431 
L 671.359185 214.042527 
L 648.828111 203.163472 
L 633.640076 198.14996 
L 631.41297 199.207471 
L 639.001633 203.27716 
L 651.646472 207.93301 
" clip-path="url(#pbae5becaba)" style="fill: none; stroke: #f4a261; stroke-width: 2; stroke-linecap: square"/>
    <defs>
     <path id="md563114e66" d="M 0 1.5 
C 0.397805 1.5 0.77937 1.341951 1.06066 1.06066 
C 1.341951 0.77937 1.5 0.397805 1.5 0 
C 1.5 -0.397805 1.341951 -0.77937 1.06066 -1.06066 
C 0.77937 -1.341951 0.397805 -1.5 0 -1.5 
C -0.397805 -1.5 -0.77937 -1.341951 -1.06066 -1.06066 
C -1.341951 -0.77937 -1.5 -0.397805 -1.5 0 
C -1.5 0.397805 -1.341951 0.77937 -1.06066 1.06066 
C -0.77937 1.341951 -0.397805 1.5 0 1.5 
z
" style="stroke: #f4a261"/>
    </defs>
    <g clip-path="url(#pbae5becaba)">
     <use xlink:href="#md563114e66" x="701.786296" y="233.785499" style="fill: #f4a261; stroke: #f4a261"/>
     <use xlink:href="#md563114e66" x="667.053323" y="260.173622" style="fill: #f4a261; stroke: #f4a261"/>
     <use xlink:href="#md563114e66" x="620.058105" y="259.052656" style="fill: #f4a261; stroke: #f4a261"/>
     <use xlink:href="#md563114e66" x="594.999484" y="233.429112" style="fill: #f4a261; stroke: #f4a261"/>
     <use xlink:href="#md563114e66" x="606.392221" y="207.815036" style="fill: #f4a261; stroke: #f4a261"/>
     <use xlink:href="#md563114e66" x="634.36523" y="190.574402" style="fill: #f4a261; stroke: #f4a261"/>
     <use xlink:href="#md563114e66" x="662.291025" y="180.654201" style="fill: #f4a261; stroke: #f4a261"/>
     <use xlink:href="#md563114e66" x="681.48465" y="181.733732" style="fill: #f4a261; stroke: #f4a261"/>
     <use xlink:href="#md563114e66" x="689.43487" y="195.45398" style="fill: #f4a261; stroke: #f4a261"/>
     <use xlink:href="#md563114e66" x="690.501535" y="214.725746" style="fill: #f4a261; stroke: #f4a261"/>
     <use xlink:href="#md563114e66" x="688.787837" y="232.47181" style="fill: #f4a261; stroke: #f4a261"/>
     <use xlink:href="#md563114e66" x="683.898315" y="244.81326" style="fill: #f4a261; stroke: #f4a261"/>
     <use xlink:href="#md563114e66" x="672.578383" y="247.21977" style="fill: #f4a261; stroke: #f4a261"/>
     <use xlink:href="#md563114e66" x="652.740337" y="233.893298" style="fill: #f4a261; stroke: #f4a261"/>
     <use xlink:href="#md563114e66" x="630.019297" y="205.118553" style="fill: #f4a261; stroke: #f4a261"/>
     <use xlink:href="#md563114e66" x="619.300099" y="178.509532" style="fill: #f4a261; stroke: #f4a261"/>
     <use xlink:href="#md563114e66" x="627.07773" y="173.695939" style="fill: #f4a261; stroke: #f4a261"/>
     <use xlink:href="#md563114e66" x="642.909586" y="185.812447" style="fill: #f4a261; stroke: #f4a261"/>
     <use xlink:href="#md563114e66" x="657.835103" y="201.46337" style="fill: #f4a261; stroke: #f4a261"/>
     <use xlink:href="#md563114e66" x="670.256755" y="214.625852" style="fill: #f4a261; stroke: #f4a261"/>
     <use xlink:href="#md563114e66" x="680.810434" y="224.198027" style="fill: #f4a261; stroke: #f4a261"/>
     <use xlink:href="#md563114e66" x="689.260741" y="229.849879" style="fill: #f4a261; stroke: #f4a261"/>
     <use xlink:href="#md563114e66" x="693.251104" y="230.552759" style="fill: #f4a261; stroke: #f4a261"/>
     <use xlink:href="#md563114e66" x="688.259864" y="224.994431" style="fill: #f4a261; stroke: #f4a261"/>
     <use xlink:href="#md563114e66" x="671.359185" y="214.042527" style="fill: #f4a261; stroke: #f4a261"/>
     <use xlink:href="#md563114e66" x="648.828111" y="203.163472" style="fill: #f4a261; stroke: #f4a261"/>
     <use xlink:href="#md563114e66" x="633.640076" y="198.14996" style="fill: #f4a261; stroke: #f4a261"/>
     <use xlink:href="#md563114e66" x="631.41297" y="199.207471" style="fill: #f4a261; stroke: #f4a261"/>
     <use xlink:href="#md563114e66" x="639.001633" y="203.27716" style="fill: #f4a261; stroke: #f4a261"/>
     <use xlink:href="#md563114e66" x="651.646472" y="207.93301" style="fill: #f4a261; stroke: #f4a261"/>
    </g>
   </g>
   <g id="line2d_65">
    <path d="M 686.953375 225.875309 
L 674.748172 245.268117 
L 640.567592 241.859037 
L 612.790339 219.487618 
L 623.669636 205.742045 
L 648.392229 200.371311 
L 668.124449 194.881605 
L 678.117436 192.670898 
L 679.450815 200.427539 
L 678.390194 213.178234 
L 678.49008 224.688096 
L 678.022945 232.897151 
L 672.493134 234.611748 
L 659.36931 226.041872 
L 643.893196 208.430582 
L 636.486218 192.290741 
L 641.37935 188.701387 
L 651.936692 196.034475 
L 661.392464 206.022041 
L 668.698525 214.207145 
L 674.765461 220.010148 
L 679.774379 223.369742 
L 682.114912 223.622852 
L 678.964569 220.083555 
L 668.951946 213.558055 
L 655.572174 207.117795 
L 645.811848 203.783271 
L 643.544843 204.023703 
L 647.865444 206.424695 
L 656.052041 209.440738 
" clip-path="url(#pbae5becaba)" style="fill: none; stroke: #457b9d; stroke-width: 2; stroke-linecap: square"/>
    <defs>
     <path id="m2433bcd8af" d="M 0 1.5 
C 0.397805 1.5 0.77937 1.341951 1.06066 1.06066 
C 1.341951 0.77937 1.5 0.397805 1.5 0 
C 1.5 -0.397805 1.341951 -0.77937 1.06066 -1.06066 
C 0.77937 -1.341951 0.397805 -1.5 0 -1.5 
C -0.397805 -1.5 -0.77937 -1.341951 -1.06066 -1.06066 
C -1.341951 -0.77937 -1.5 -0.397805 -1.5 0 
C -1.5 0.397805 -1.341951 0.77937 -1.06066 1.06066 
C -0.77937 1.341951 -0.397805 1.5 0 1.5 
z
" style="stroke: #457b9d"/>
    </defs>
    <g clip-path="url(#pbae5becaba)">
     <use xlink:href="#m2433bcd8af" x="686.953375" y="225.875309" style="fill: #457b9d; stroke: #457b9d"/>
     <use xlink:href="#m2433bcd8af" x="674.748172" y="245.268117" style="fill: #457b9d; stroke: #457b9d"/>
     <use xlink:href="#m2433bcd8af" x="640.567592" y="241.859037" style="fill: #457b9d; stroke: #457b9d"/>
     <use xlink:href="#m2433bcd8af" x="612.790339" y="219.487618" style="fill: #457b9d; stroke: #457b9d"/>
     <use xlink:href="#m2433bcd8af" x="623.669636" y="205.742045" style="fill: #457b9d; stroke: #457b9d"/>
     <use xlink:href="#m2433bcd8af" x="648.392229" y="200.371311" style="fill: #457b9d; stroke: #457b9d"/>
     <use xlink:href="#m2433bcd8af" x="668.124449" y="194.881605" style="fill: #457b9d; stroke: #457b9d"/>
     <use xlink:href="#m2433bcd8af" x="678.117436" y="192.670898" style="fill: #457b9d; stroke: #457b9d"/>
     <use xlink:href="#m2433bcd8af" x="679.450815" y="200.427539" style="fill: #457b9d; stroke: #457b9d"/>
     <use xlink:href="#m2433bcd8af" x="678.390194" y="213.178234" style="fill: #457b9d; stroke: #457b9d"/>
     <use xlink:href="#m2433bcd8af" x="678.49008" y="224.688096" style="fill: #457b9d; stroke: #457b9d"/>
     <use xlink:href="#m2433bcd8af" x="678.022945" y="232.897151" style="fill: #457b9d; stroke: #457b9d"/>
     <use xlink:href="#m2433bcd8af" x="672.493134" y="234.611748" style="fill: #457b9d; stroke: #457b9d"/>
     <use xlink:href="#m2433bcd8af" x="659.36931" y="226.041872" style="fill: #457b9d; stroke: #457b9d"/>
     <use xlink:href="#m2433bcd8af" x="643.893196" y="208.430582" style="fill: #457b9d; stroke: #457b9d"/>
     <use xlink:href="#m2433bcd8af" x="636.486218" y="192.290741" style="fill: #457b9d; stroke: #457b9d"/>
     <use xlink:href="#m2433bcd8af" x="641.37935" y="188.701387" style="fill: #457b9d; stroke: #457b9d"/>
     <use xlink:href="#m2433bcd8af" x="651.936692" y="196.034475" style="fill: #457b9d; stroke: #457b9d"/>
     <use xlink:href="#m2433bcd8af" x="661.392464" y="206.022041" style="fill: #457b9d; stroke: #457b9d"/>
     <use xlink:href="#m2433bcd8af" x="668.698525" y="214.207145" style="fill: #457b9d; stroke: #457b9d"/>
     <use xlink:href="#m2433bcd8af" x="674.765461" y="220.010148" style="fill: #457b9d; stroke: #457b9d"/>
     <use xlink:href="#m2433bcd8af" x="679.774379" y="223.369742" style="fill: #457b9d; stroke: #457b9d"/>
     <use xlink:href="#m2433bcd8af" x="682.114912" y="223.622852" style="fill: #457b9d; stroke: #457b9d"/>
     <use xlink:href="#m2433bcd8af" x="678.964569" y="220.083555" style="fill: #457b9d; stroke: #457b9d"/>
     <use xlink:href="#m2433bcd8af" x="668.951946" y="213.558055" style="fill: #457b9d; stroke: #457b9d"/>
     <use xlink:href="#m2433bcd8af" x="655.572174" y="207.117795" style="fill: #457b9d; stroke: #457b9d"/>
     <use xlink:href="#m2433bcd8af" x="645.811848" y="203.783271" style="fill: #457b9d; stroke: #457b9d"/>
     <use xlink:href="#m2433bcd8af" x="643.544843" y="204.023703" style="fill: #457b9d; stroke: #457b9d"/>
     <use xlink:href="#m2433bcd8af" x="647.865444" y="206.424695" style="fill: #457b9d; stroke: #457b9d"/>
     <use xlink:href="#m2433bcd8af" x="656.052041" y="209.440738" style="fill: #457b9d; stroke: #457b9d"/>
    </g>
   </g>
   <g id="line2d_66">
    <path d="M 672.507328 217.804607 
L 672.016536 226.742132 
L 657.478696 224.065458 
L 640.527144 212.339536 
L 645.958402 207.947962 
L 659.279892 208.165846 
L 667.713017 206.162513 
L 670.503035 204.106294 
L 669.786557 206.936948 
L 668.902375 212.405176 
L 669.363951 217.119699 
L 670.118071 220.57667 
L 668.524337 221.341673 
L 662.999717 217.839237 
L 656.313599 210.873608 
L 653.08504 204.586407 
L 655.057499 202.981211 
L 659.591792 205.811635 
L 663.471763 209.92429 
L 666.190941 213.185208 
L 668.345643 215.417735 
L 670.240391 216.680673 
L 671.136655 216.716752 
L 669.872481 215.281972 
L 666.04477 212.77315 
L 660.934707 210.316409 
L 656.967612 208.927519 
L 655.737792 208.874299 
L 657.281037 209.770266 
L 660.671762 211.018781 
" clip-path="url(#pbae5becaba)" style="fill: none; stroke: #e63946; stroke-width: 2; stroke-linecap: square"/>
    <defs>
     <path id="m8d4287c02c" d="M 0 1.5 
C 0.397805 1.5 0.77937 1.341951 1.06066 1.06066 
C 1.341951 0.77937 1.5 0.397805 1.5 0 
C 1.5 -0.397805 1.341951 -0.77937 1.06066 -1.06066 
C 0.77937 -1.341951 0.397805 -1.5 0 -1.5 
C -0.397805 -1.5 -0.77937 -1.341951 -1.06066 -1.06066 
C -1.341951 -0.77937 -1.5 -0.397805 -1.5 0 
C -1.5 0.397805 -1.341951 0.77937 -1.06066 1.06066 
C -0.77937 1.341951 -0.397805 1.5 0 1.5 
z
" style="stroke: #e63946"/>
    </defs>
    <g clip-path="url(#pbae5becaba)">
     <use xlink:href="#m8d4287c02c" x="672.507328" y="217.804607" style="fill: #e63946; stroke: #e63946"/>
     <use xlink:href="#m8d4287c02c" x="672.016536" y="226.742132" style="fill: #e63946; stroke: #e63946"/>
     <use xlink:href="#m8d4287c02c" x="657.478696" y="224.065458" style="fill: #e63946; stroke: #e63946"/>
     <use xlink:href="#m8d4287c02c" x="640.527144" y="212.339536" style="fill: #e63946; stroke: #e63946"/>
     <use xlink:href="#m8d4287c02c" x="645.958402" y="207.947962" style="fill: #e63946; stroke: #e63946"/>
     <use xlink:href="#m8d4287c02c" x="659.279892" y="208.165846" style="fill: #e63946; stroke: #e63946"/>
     <use xlink:href="#m8d4287c02c" x="667.713017" y="206.162513" style="fill: #e63946; stroke: #e63946"/>
     <use xlink:href="#m8d4287c02c" x="670.503035" y="204.106294" style="fill: #e63946; stroke: #e63946"/>
     <use xlink:href="#m8d4287c02c" x="669.786557" y="206.936948" style="fill: #e63946; stroke: #e63946"/>
     <use xlink:href="#m8d4287c02c" x="668.902375" y="212.405176" style="fill: #e63946; stroke: #e63946"/>
     <use xlink:href="#m8d4287c02c" x="669.363951" y="217.119699" style="fill: #e63946; stroke: #e63946"/>
     <use xlink:href="#m8d4287c02c" x="670.118071" y="220.57667" style="fill: #e63946; stroke: #e63946"/>
     <use xlink:href="#m8d4287c02c" x="668.524337" y="221.341673" style="fill: #e63946; stroke: #e63946"/>
     <use xlink:href="#m8d4287c02c" x="662.999717" y="217.839237" style="fill: #e63946; stroke: #e63946"/>
     <use xlink:href="#m8d4287c02c" x="656.313599" y="210.873608" style="fill: #e63946; stroke: #e63946"/>
     <use xlink:href="#m8d4287c02c" x="653.08504" y="204.586407" style="fill: #e63946; stroke: #e63946"/>
     <use xlink:href="#m8d4287c02c" x="655.057499" y="202.981211" style="fill: #e63946; stroke: #e63946"/>
     <use xlink:href="#m8d4287c02c" x="659.591792" y="205.811635" style="fill: #e63946; stroke: #e63946"/>
     <use xlink:href="#m8d4287c02c" x="663.471763" y="209.92429" style="fill: #e63946; stroke: #e63946"/>
     <use xlink:href="#m8d4287c02c" x="666.190941" y="213.185208" style="fill: #e63946; stroke: #e63946"/>
     <use xlink:href="#m8d4287c02c" x="668.345643" y="215.417735" style="fill: #e63946; stroke: #e63946"/>
     <use xlink:href="#m8d4287c02c" x="670.240391" y="216.680673" style="fill: #e63946; stroke: #e63946"/>
     <use xlink:href="#m8d4287c02c" x="671.136655" y="216.716752" style="fill: #e63946; stroke: #e63946"/>
     <use xlink:href="#m8d4287c02c" x="669.872481" y="215.281972" style="fill: #e63946; stroke: #e63946"/>
     <use xlink:href="#m8d4287c02c" x="666.04477" y="212.77315" style="fill: #e63946; stroke: #e63946"/>
     <use xlink:href="#m8d4287c02c" x="660.934707" y="210.316409" style="fill: #e63946; stroke: #e63946"/>
     <use xlink:href="#m8d4287c02c" x="656.967612" y="208.927519" style="fill: #e63946; stroke: #e63946"/>
     <use xlink:href="#m8d4287c02c" x="655.737792" y="208.874299" style="fill: #e63946; stroke: #e63946"/>
     <use xlink:href="#m8d4287c02c" x="657.281037" y="209.770266" style="fill: #e63946; stroke: #e63946"/>
     <use xlink:href="#m8d4287c02c" x="660.671762" y="211.018781" style="fill: #e63946; stroke: #e63946"/>
    </g>
   </g>
   <g id="line2d_67">
    <defs>
     <path id="mafb0183f8c" d="M -5 0 
L 5 0 
M 0 5 
L 0 -5 
" style="stroke: #000000"/>
    </defs>
    <g clip-path="url(#pbae5becaba)">
     <use xlink:href="#mafb0183f8c" x="636.402344" y="215.46125" style="stroke: #000000"/>
    </g>
   </g>
   <g id="patch_9">
    <path d="M 501.4375 299.9 
L 501.4375 95.2 
" style="fill: none; stroke: #000000; stroke-width: 0.8; stroke-linejoin: miter; stroke-linecap: square"/>
   </g>
   <g id="patch_10">
    <path d="M 828.625 299.9 
L 828.625 95.2 
" style="fill: none; stroke: #000000; stroke-width: 0.8; stroke-linejoin: miter; stroke-linecap: square"/>
   </g>
   <g id="patch_11">
    <path d="M 501.4375 299.9 
L 828.625 299.9 
" style="fill: none; stroke: #000000; stroke-width: 0.8; stroke-linejoin: miter; stroke-linecap: square"/>
   </g>
   <g id="patch_12">
    <path d="M 501.4375 95.2 
L 828.625 95.2 
" style="fill: none; stroke: #000000; stroke-width: 0.8; stroke-linejoin: miter; stroke-linecap: square"/>
   </g>
   <g id="text_37">
    <!-- CIE-Farbgamut vs. Quellungsgrad Q -->
    <g transform="translate(557.894688 75.762625) scale(0.12 -0.12)">
     <defs>
      <path id="DejaVuSans-72" d="M 2631 2963 
Q 2534 3019 2420 3045 
Q 2306 3072 2169 3072 
Q 1681 3072 1420 2755 
Q 1159 2438 1159 1844 
L 1159 0 
L 581 0 
L 581 3500 
L 1159 3500 
L 1159 2956 
Q 1341 3275 1631 3429 
Q 1922 3584 2338 3584 
Q 2397 3584 2469 3576 
Q 2541 3569 2628 3553 
L 2631 2963 
z
" transform="scale(0.015625)"/>
      <path id="DejaVuSans-62" d="M 3116 1747 
Q 3116 2381 2855 2742 
Q 2594 3103 2138 3103 
Q 1681 3103 1420 2742 
Q 1159 2381 1159 1747 
Q 1159 1113 1420 752 
Q 1681 391 2138 391 
Q 2594 391 2855 752 
Q 3116 1113 3116 1747 
z
M 1159 2969 
Q 1341 3281 1617 3432 
Q 1894 3584 2278 3584 
Q 2916 3584 3314 3078 
Q 3713 2572 3713 1747 
Q 3713 922 3314 415 
Q 2916 -91 2278 -91 
Q 1894 -91 1617 61 
Q 1341 213 1159 525 
L 1159 0 
L 581 0 
L 581 4863 
L 1159 4863 
L 1159 2969 
z
" transform="scale(0.015625)"/>
     </defs>
     <use xlink:href="#DejaVuSans-43"/>
     <use xlink:href="#DejaVuSans-49" transform="translate(69.824219 0)"/>
     <use xlink:href="#DejaVuSans-45" transform="translate(99.316406 0)"/>
     <use xlink:href="#DejaVuSans-2d" transform="translate(162.5 0)"/>
     <use xlink:href="#DejaVuSans-46" transform="translate(198.583984 0)"/>
     <use xlink:href="#DejaVuSans-61" transform="translate(246.978516 0)"/>
     <use xlink:href="#DejaVuSans-72" transform="translate(308.257812 0)"/>
     <use xlink:href="#DejaVuSans-62" transform="translate(349.371094 0)"/>
     <use xlink:href="#DejaVuSans-67" transform="translate(412.847656 0)"/>
     <use xlink:href="#DejaVuSans-61" transform="translate(476.324219 0)"/>
     <use xlink:href="#DejaVuSans-6d" transform="translate(537.603516 0)"/>
     <use xlink:href="#DejaVuSans-75" transform="translate(635.015625 0)"/>
     <use xlink:href="#DejaVuSans-74" transform="translate(698.394531 0)"/>
     <use xlink:href="#DejaVuSans-20" transform="translate(737.603516 0)"/>
     <use xlink:href="#DejaVuSans-76" transform="translate(769.390625 0)"/>
     <use xlink:href="#DejaVuSans-73" transform="translate(828.570312 0)"/>
     <use xlink:href="#DejaVuSans-2e" transform="translate(880.669922 0)"/>
     <use xlink:href="#DejaVuSans-20" transform="translate(912.457031 0)"/>
     <use xlink:href="#DejaVuSans-51" transform="translate(944.244141 0)"/>
     <use xlink:href="#DejaVuSans-75" transform="translate(1022.955078 0)"/>
     <use xlink:href="#DejaVuSans-65" transform="translate(1086.333984 0)"/>
     <use xlink:href="#DejaVuSans-6c" transform="translate(1147.857422 0)"/>
     <use xlink:href="#DejaVuSans-6c" transform="translate(1175.640625 0)"/>
     <use xlink:href="#DejaVuSans-75" transform="translate(1203.423828 0)"/>
     <use xlink:href="#DejaVuSans-6e" transform="translate(1266.802734 0)"/>
     <use xlink:href="#DejaVuSans-67" transform="translate(1330.181641 0)"/>
     <use xlink:href="#DejaVuSans-73" transform="translate(1393.658203 0)"/>
     <use xlink:href="#DejaVuSans-67" transform="translate(1445.757812 0)"/>
     <use xlink:href="#DejaVuSans-72" transform="translate(1509.234375 0)"/>
     <use xlink:href="#DejaVuSans-61" transform="translate(1550.347656 0)"/>
     <use xlink:href="#DejaVuSans-64" transform="translate(1611.626953 0)"/>
     <use xlink:href="#DejaVuSans-20" transform="translate(1675.103516 0)"/>
     <use xlink:href="#DejaVuSans-51" transform="translate(1706.890625 0)"/>
    </g>
    <!-- (d₀=250nm, n₀=1.50) -->
    <g transform="translate(599.598438 89.2) scale(0.12 -0.12)">
     <use xlink:href="#DejaVuSans-28"/>
     <use xlink:href="#DejaVuSans-64" transform="translate(39.013672 0)"/>
     <use xlink:href="#DejaVuSans-2080" transform="translate(102.490234 0)"/>
     <use xlink:href="#DejaVuSans-3d" transform="translate(142.578125 0)"/>
     <use xlink:href="#DejaVuSans-32" transform="translate(226.367188 0)"/>
     <use xlink:href="#DejaVuSans-35" transform="translate(289.990234 0)"/>
     <use xlink:href="#DejaVuSans-30" transform="translate(353.613281 0)"/>
     <use xlink:href="#DejaVuSans-6e" transform="translate(417.236328 0)"/>
     <use xlink:href="#DejaVuSans-6d" transform="translate(480.615234 0)"/>
     <use xlink:href="#DejaVuSans-2c" transform="translate(578.027344 0)"/>
     <use xlink:href="#DejaVuSans-20" transform="translate(609.814453 0)"/>
     <use xlink:href="#DejaVuSans-6e" transform="translate(641.601562 0)"/>
     <use xlink:href="#DejaVuSans-2080" transform="translate(704.980469 0)"/>
     <use xlink:href="#DejaVuSans-3d" transform="translate(745.068359 0)"/>
     <use xlink:href="#DejaVuSans-31" transform="translate(828.857422 0)"/>
     <use xlink:href="#DejaVuSans-2e" transform="translate(892.480469 0)"/>
     <use xlink:href="#DejaVuSans-35" transform="translate(924.267578 0)"/>
     <use xlink:href="#DejaVuSans-30" transform="translate(987.890625 0)"/>
     <use xlink:href="#DejaVuSans-29" transform="translate(1051.513672 0)"/>
    </g>
   </g>
   <g id="legend_2">
    <g id="patch_13">
     <path d="M 765.416875 142.030938 
L 822.325 142.030938 
Q 824.125 142.030938 824.125 140.230938 
L 824.125 101.5 
Q 824.125 99.7 822.325 99.7 
L 765.416875 99.7 
Q 763.616875 99.7 763.616875 101.5 
L 763.616875 140.230938 
Q 763.616875 142.030938 765.416875 142.030938 
z
" style="fill: #ffffff; opacity: 0.8; stroke: #cccccc; stroke-linejoin: miter"/>
    </g>
    <g id="line2d_68">
     <path d="M 767.216875 106.988594 
L 776.216875 106.988594 
L 785.216875 106.988594 
" style="fill: none; stroke: #f4a261; stroke-width: 2; stroke-linecap: square"/>
     <g>
      <use xlink:href="#md563114e66" x="776.216875" y="106.988594" style="fill: #f4a261; stroke: #f4a261"/>
     </g>
    </g>
    <g id="text_38">
     <!-- R=0.2 -->
     <g transform="translate(792.416875 110.138594) scale(0.09 -0.09)">
      <use xlink:href="#DejaVuSans-52"/>
      <use xlink:href="#DejaVuSans-3d" transform="translate(69.482422 0)"/>
      <use xlink:href="#DejaVuSans-30" transform="translate(153.271484 0)"/>
      <use xlink:href="#DejaVuSans-2e" transform="translate(216.894531 0)"/>
      <use xlink:href="#DejaVuSans-32" transform="translate(248.681641 0)"/>
     </g>
    </g>
    <g id="line2d_69">
     <path d="M 767.216875 120.198906 
L 776.216875 120.198906 
L 785.216875 120.198906 
" style="fill: none; stroke: #457b9d; stroke-width: 2; stroke-linecap: square"/>
     <g>
      <use xlink:href="#m2433bcd8af" x="776.216875" y="120.198906" style="fill: #457b9d; stroke: #457b9d"/>
     </g>
    </g>
    <g id="text_39">
     <!-- R=0.5 -->
     <g transform="translate(792.416875 123.348906) scale(0.09 -0.09)">
      <use xlink:href="#DejaVuSans-52"/>
      <use xlink:href="#DejaVuSans-3d" transform="translate(69.482422 0)"/>
      <use xlink:href="#DejaVuSans-30" transform="translate(153.271484 0)"/>
      <use xlink:href="#DejaVuSans-2e" transform="translate(216.894531 0)"/>
      <use xlink:href="#DejaVuSans-35" transform="translate(248.681641 0)"/>
     </g>
    </g>
    <g id="line2d_70">
     <path d="M 767.216875 133.409219 
L 776.216875 133.409219 
L 785.216875 133.409219 
" style="fill: none; stroke: #e63946; stroke-width: 2; stroke-linecap: square"/>
     <g>
      <use xlink:href="#m8d4287c02c" x="776.216875" y="133.409219" style="fill: #e63946; stroke: #e63946"/>
     </g>
    </g>
    <g id="text_40">
     <!-- R=0.8 -->
     <g transform="translate(792.416875 136.559219) scale(0.09 -0.09)">
      <use xlink:href="#DejaVuSans-52"/>
      <use xlink:href="#DejaVuSans-3d" transform="translate(69.482422 0)"/>
      <use xlink:href="#DejaVuSans-30" transform="translate(153.271484 0)"/>
      <use xlink:href="#DejaVuSans-2e" transform="translate(216.894531 0)"/>
      <use xlink:href="#DejaVuSans-38" transform="translate(248.681641 0)"/>
     </g>
    </g>
   </g>
  </g>
  <g id="axes_3">
   <g id="matplotlib.axis_5">
    <g id="ytick_17">
     <g id="line2d_71">
      <path d="M 61.975 292.869874 
L 389.1625 292.869874 
" clip-path="url(#pf893f0a384)" style="fill: none; stroke: #b0b0b0; stroke-opacity: 0.3; stroke-width: 0.8; stroke-linecap: square"/>
     </g>
     <g id="line2d_72">
      <defs>
       <path id="me061557d22" d="M 0 0 
L 3.5 0 
" style="stroke: #000000; stroke-width: 0.8"/>
      </defs>
      <g>
       <use xlink:href="#me061557d22" x="389.1625" y="292.869874" style="stroke: #000000; stroke-width: 0.8"/>
      </g>
     </g>
     <g id="text_41">
      <!-- 0 -->
      <g transform="translate(396.1625 296.669093) scale(0.1 -0.1)">
       <use xlink:href="#DejaVuSans-30"/>
      </g>
     </g>
    </g>
    <g id="ytick_18">
     <g id="line2d_73">
      <path d="M 61.975 266.589208 
L 389.1625 266.589208 
" clip-path="url(#pf893f0a384)" style="fill: none; stroke: #b0b0b0; stroke-opacity: 0.3; stroke-width: 0.8; stroke-linecap: square"/>
     </g>
     <g id="line2d_74">
      <g>
       <use xlink:href="#me061557d22" x="389.1625" y="266.589208" style="stroke: #000000; stroke-width: 0.8"/>
      </g>
     </g>
     <g id="text_42">
      <!-- 250 -->
      <g transform="translate(396.1625 270.388427) scale(0.1 -0.1)">
       <use xlink:href="#DejaVuSans-32"/>
       <use xlink:href="#DejaVuSans-35" transform="translate(63.623047 0)"/>
       <use xlink:href="#DejaVuSans-30" transform="translate(127.246094 0)"/>
      </g>
     </g>
    </g>
    <g id="ytick_19">
     <g id="line2d_75">
      <path d="M 61.975 240.308542 
L 389.1625 240.308542 
" clip-path="url(#pf893f0a384)" style="fill: none; stroke: #b0b0b0; stroke-opacity: 0.3; stroke-width: 0.8; stroke-linecap: square"/>
     </g>
     <g id="line2d_76">
      <g>
       <use xlink:href="#me061557d22" x="389.1625" y="240.308542" style="stroke: #000000; stroke-width: 0.8"/>
      </g>
     </g>
     <g id="text_43">
      <!-- 500 -->
      <g transform="translate(396.1625 244.107761) scale(0.1 -0.1)">
       <use xlink:href="#DejaVuSans-35"/>
       <use xlink:href="#DejaVuSans-30" transform="translate(63.623047 0)"/>
       <use xlink:href="#DejaVuSans-30" transform="translate(127.246094 0)"/>
      </g>
     </g>
    </g>
    <g id="ytick_20">
     <g id="line2d_77">
      <path d="M 61.975 214.027876 
L 389.1625 214.027876 
" clip-path="url(#pf893f0a384)" style="fill: none; stroke: #b0b0b0; stroke-opacity: 0.3; stroke-width: 0.8; stroke-linecap: square"/>
     </g>
     <g id="line2d_78">
      <g>
       <use xlink:href="#me061557d22" x="389.1625" y="214.027876" style="stroke: #000000; stroke-width: 0.8"/>
      </g>
     </g>
     <g id="text_44">
      <!-- 750 -->
      <g transform="translate(396.1625 217.827095) scale(0.1 -0.1)">
       <use xlink:href="#DejaVuSans-37"/>
       <use xlink:href="#DejaVuSans-35" transform="translate(63.623047 0)"/>
       <use xlink:href="#DejaVuSans-30" transform="translate(127.246094 0)"/>
      </g>
     </g>
    </g>
    <g id="ytick_21">
     <g id="line2d_79">
      <path d="M 61.975 187.74721 
L 389.1625 187.74721 
" clip-path="url(#pf893f0a384)" style="fill: none; stroke: #b0b0b0; stroke-opacity: 0.3; stroke-width: 0.8; stroke-linecap: square"/>
     </g>
     <g id="line2d_80">
      <g>
       <use xlink:href="#me061557d22" x="389.1625" y="187.74721" style="stroke: #000000; stroke-width: 0.8"/>
      </g>
     </g>
     <g id="text_45">
      <!-- 1000 -->
      <g transform="translate(396.1625 191.546429) scale(0.1 -0.1)">
       <use xlink:href="#DejaVuSans-31"/>
       <use xlink:href="#DejaVuSans-30" transform="translate(63.623047 0)"/>
       <use xlink:href="#DejaVuSans-30" transform="translate(127.246094 0)"/>
       <use xlink:href="#DejaVuSans-30" transform="translate(190.869141 0)"/>
      </g>
     </g>
    </g>
    <g id="ytick_22">
     <g id="line2d_81">
      <path d="M 61.975 161.466544 
L 389.1625 161.466544 
" clip-path="url(#pf893f0a384)" style="fill: none; stroke: #b0b0b0; stroke-opacity: 0.3; stroke-width: 0.8; stroke-linecap: square"/>
     </g>
     <g id="line2d_82">
      <g>
       <use xlink:href="#me061557d22" x="389.1625" y="161.466544" style="stroke: #000000; stroke-width: 0.8"/>
      </g>
     </g>
     <g id="text_46">
      <!-- 1250 -->
      <g transform="translate(396.1625 165.265763) scale(0.1 -0.1)">
       <use xlink:href="#DejaVuSans-31"/>
       <use xlink:href="#DejaVuSans-32" transform="translate(63.623047 0)"/>
       <use xlink:href="#DejaVuSans-35" transform="translate(127.246094 0)"/>
       <use xlink:href="#DejaVuSans-30" transform="translate(190.869141 0)"/>
      </g>
     </g>
    </g>
    <g id="ytick_23">
     <g id="line2d_83">
      <path d="M 61.975 135.185878 
L 389.1625 135.185878 
" clip-path="url(#pf893f0a384)" style="fill: none; stroke: #b0b0b0; stroke-opacity: 0.3; stroke-width: 0.8; stroke-linecap: square"/>
     </g>
     <g id="line2d_84">
      <g>
       <use xlink:href="#me061557d22" x="389.1625" y="135.185878" style="stroke: #000000; stroke-width: 0.8"/>
      </g>
     </g>
     <g id="text_47">
      <!-- 1500 -->
      <g transform="translate(396.1625 138.985097) scale(0.1 -0.1)">
       <use xlink:href="#DejaVuSans-31"/>
       <use xlink:href="#DejaVuSans-35" transform="translate(63.623047 0)"/>
       <use xlink:href="#DejaVuSans-30" transform="translate(127.246094 0)"/>
       <use xlink:href="#DejaVuSans-30" transform="translate(190.869141 0)"/>
      </g>
     </g>
    </g>
    <g id="ytick_24">
     <g id="line2d_85">
      <path d="M 61.975 108.905212 
L 389.1625 108.905212 
" clip-path="url(#pf893f0a384)" style="fill: none; stroke: #b0b0b0; stroke-opacity: 0.3; stroke-width: 0.8; stroke-linecap: square"/>
     </g>
     <g id="line2d_86">
      <g>
       <use xlink:href="#me061557d22" x="389.1625" y="108.905212" style="stroke: #000000; stroke-width: 0.8"/>
      </g>
     </g>
     <g id="text_48">
      <!-- 1750 -->
      <g transform="translate(396.1625 112.704431) scale(0.1 -0.1)">
       <use xlink:href="#DejaVuSans-31"/>
       <use xlink:href="#DejaVuSans-37" transform="translate(63.623047 0)"/>
       <use xlink:href="#DejaVuSans-35" transform="translate(127.246094 0)"/>
       <use xlink:href="#DejaVuSans-30" transform="translate(190.869141 0)"/>
      </g>
     </g>
    </g>
    <g id="text_49">
     <!-- FWHM (nm) -->
     <g style="fill: #457b9d" transform="translate(433.970781 229.915781) rotate(-90) scale(0.11 -0.11)">
      <use xlink:href="#DejaVuSans-46"/>
      <use xlink:href="#DejaVuSans-57" transform="translate(57.519531 0)"/>
      <use xlink:href="#DejaVuSans-48" transform="translate(156.396484 0)"/>
      <use xlink:href="#DejaVuSans-4d" transform="translate(231.591797 0)"/>
      <use xlink:href="#DejaVuSans-20" transform="translate(317.871094 0)"/>
      <use xlink:href="#DejaVuSans-28" transform="translate(349.658203 0)"/>
      <use xlink:href="#DejaVuSans-6e" transform="translate(388.671875 0)"/>
      <use xlink:href="#DejaVuSans-6d" transform="translate(452.050781 0)"/>
      <use xlink:href="#DejaVuSans-29" transform="translate(549.462891 0)"/>
     </g>
    </g>
   </g>
   <g id="line2d_87">
    <path d="M 76.847159 104.504545 
L 80.612263 124.916356 
L 84.377366 140.491784 
L 88.14247 152.918705 
L 91.907573 163.158644 
L 95.672677 171.805187 
L 99.43778 179.247428 
L 103.202884 185.752581 
L 106.967988 191.511126 
L 110.733091 196.66305 
L 114.498195 201.313885 
L 118.263298 205.544923 
L 122.028402 209.419951 
L 125.793505 212.989835 
L 129.558609 216.29571 
L 133.323713 219.371258 
L 137.088816 222.244365 
L 140.85392 224.938349 
L 144.619023 227.472884 
L 148.384127 229.864701 
L 152.14923 232.128137 
L 155.914334 234.27556 
L 159.679438 236.317701 
L 163.444541 238.263932 
L 167.209645 240.122472 
L 170.974748 241.90057 
L 174.739852 243.604648 
L 178.504955 245.240416 
L 182.270059 246.812974 
L 186.035163 248.326893 
L 189.800266 249.786284 
L 193.56537 251.194856 
L 197.330473 252.555966 
L 201.095577 253.872661 
L 204.86068 255.147714 
L 208.625784 256.383655 
L 212.390888 257.5828 
L 216.155991 258.747271 
L 219.921095 259.879016 
L 223.686198 260.979833 
L 227.451302 262.051376 
L 231.216405 263.095178 
L 234.981509 264.112657 
L 238.746612 265.105127 
L 242.511716 266.073812 
L 246.27682 267.019848 
L 250.041923 267.944296 
L 253.807027 268.848146 
L 257.57213 269.732322 
L 261.337234 270.597692 
L 265.102337 271.445066 
L 268.867441 272.275206 
L 272.632545 273.088828 
L 276.397648 273.886606 
L 280.162752 274.669172 
L 283.927855 275.437125 
L 287.692959 276.191029 
L 291.458062 276.931416 
L 295.223166 277.658791 
L 298.98827 278.373629 
L 302.753373 279.076383 
L 306.518477 279.767481 
L 310.28358 280.447328 
L 314.048684 281.116313 
L 317.813787 281.7748 
L 321.578891 282.423139 
L 325.343995 283.061662 
L 329.109098 283.690686 
L 332.874202 284.310512 
L 336.639305 284.921429 
L 340.404409 285.523711 
L 344.169512 286.11762 
L 347.934616 286.703408 
L 351.69972 287.281315 
L 355.464823 287.851569 
L 359.229927 288.414392 
L 362.99503 288.969994 
L 366.760134 289.518578 
L 370.525237 290.060336 
L 374.290341 290.595455 
" clip-path="url(#pf893f0a384)" style="fill: none; stroke-dasharray: 7.4,3.2; stroke-dashoffset: 0; stroke: #457b9d; stroke-width: 2"/>
   </g>
   <g id="patch_14">
    <path d="M 61.975 299.9 
L 61.975 95.2 
" style="fill: none; stroke: #000000; stroke-width: 0.8; stroke-linejoin: miter; stroke-linecap: square"/>
   </g>
   <g id="patch_15">
    <path d="M 389.1625 299.9 
L 389.1625 95.2 
" style="fill: none; stroke: #000000; stroke-width: 0.8; stroke-linejoin: miter; stroke-linecap: square"/>
   </g>
   <g id="patch_16">
    <path d="M 61.975 299.9 
L 389.1625 299.9 
" style="fill: none; stroke: #000000; stroke-width: 0.8; stroke-linejoin: miter; stroke-linecap: square"/>
   </g>
   <g id="patch_17">
    <path d="M 61.975 95.2 
L 389.1625 95.2 
" style="fill: none; stroke: #000000; stroke-width: 0.8; stroke-linejoin: miter; stroke-linecap: square"/>
   </g>
  </g>
  <g id="text_50">
   <!-- Exp 14: FP-Finesse und CIE-Farbgamut -->
   <g transform="translate(290.297969 17.077969) scale(0.13 -0.13)">
    <defs>
     <path id="DejaVuSans-Bold-45" d="M 588 4666 
L 3834 4666 
L 3834 3756 
L 1791 3756 
L 1791 2888 
L 3713 2888 
L 3713 1978 
L 1791 1978 
L 1791 909 
L 3903 909 
L 3903 0 
L 588 0 
L 588 4666 
z
" transform="scale(0.015625)"/>
     <path id="DejaVuSans-Bold-78" d="M 1422 1791 
L 159 3500 
L 1344 3500 
L 2059 2463 
L 2784 3500 
L 3969 3500 
L 2706 1797 
L 4031 0 
L 2847 0 
L 2059 1106 
L 1281 0 
L 97 0 
L 1422 1791 
z
" transform="scale(0.015625)"/>
     <path id="DejaVuSans-Bold-70" d="M 1656 506 
L 1656 -1331 
L 538 -1331 
L 538 3500 
L 1656 3500 
L 1656 2988 
Q 1888 3294 2169 3439 
Q 2450 3584 2816 3584 
Q 3463 3584 3878 3070 
Q 4294 2556 4294 1747 
Q 4294 938 3878 423 
Q 3463 -91 2816 -91 
Q 2450 -91 2169 54 
Q 1888 200 1656 506 
z
M 2400 2772 
Q 2041 2772 1848 2508 
Q 1656 2244 1656 1747 
Q 1656 1250 1848 986 
Q 2041 722 2400 722 
Q 2759 722 2948 984 
Q 3138 1247 3138 1747 
Q 3138 2247 2948 2509 
Q 2759 2772 2400 2772 
z
" transform="scale(0.015625)"/>
     <path id="DejaVuSans-Bold-20" transform="scale(0.015625)"/>
     <path id="DejaVuSans-Bold-31" d="M 750 831 
L 1813 831 
L 1813 3847 
L 722 3622 
L 722 4441 
L 1806 4666 
L 2950 4666 
L 2950 831 
L 4013 831 
L 4013 0 
L 750 0 
L 750 831 
z
" transform="scale(0.015625)"/>
     <path id="DejaVuSans-Bold-34" d="M 2356 3675 
L 1038 1722 
L 2356 1722 
L 2356 3675 
z
M 2156 4666 
L 3494 4666 
L 3494 1722 
L 4159 1722 
L 4159 850 
L 3494 850 
L 3494 0 
L 2356 0 
L 2356 850 
L 288 850 
L 288 1881 
L 2156 4666 
z
" transform="scale(0.015625)"/>
     <path id="DejaVuSans-Bold-3a" d="M 716 3500 
L 1844 3500 
L 1844 2291 
L 716 2291 
L 716 3500 
z
M 716 1209 
L 1844 1209 
L 1844 0 
L 716 0 
L 716 1209 
z
" transform="scale(0.015625)"/>
     <path id="DejaVuSans-Bold-46" d="M 588 4666 
L 3834 4666 
L 3834 3756 
L 1791 3756 
L 1791 2888 
L 3713 2888 
L 3713 1978 
L 1791 1978 
L 1791 0 
L 588 0 
L 588 4666 
z
" transform="scale(0.015625)"/>
     <path id="DejaVuSans-Bold-50" d="M 588 4666 
L 2584 4666 
Q 3475 4666 3951 4270 
Q 4428 3875 4428 3144 
Q 4428 2409 3951 2014 
Q 3475 1619 2584 1619 
L 1791 1619 
L 1791 0 
L 588 0 
L 588 4666 
z
M 1791 3794 
L 1791 2491 
L 2456 2491 
Q 2806 2491 2997 2661 
Q 3188 2831 3188 3144 
Q 3188 3456 2997 3625 
Q 2806 3794 2456 3794 
L 1791 3794 
z
" transform="scale(0.015625)"/>
     <path id="DejaVuSans-Bold-2d" d="M 347 2297 
L 2309 2297 
L 2309 1388 
L 347 1388 
L 347 2297 
z
" transform="scale(0.015625)"/>
     <path id="DejaVuSans-Bold-69" d="M 538 3500 
L 1656 3500 
L 1656 0 
L 538 0 
L 538 3500 
z
M 538 4863 
L 1656 4863 
L 1656 3950 
L 538 3950 
L 538 4863 
z
" transform="scale(0.015625)"/>
     <path id="DejaVuSans-Bold-6e" d="M 4056 2131 
L 4056 0 
L 2931 0 
L 2931 347 
L 2931 1631 
Q 2931 2084 2911 2256 
Q 2891 2428 2841 2509 
Q 2775 2619 2662 2680 
Q 2550 2741 2406 2741 
Q 2056 2741 1856 2470 
Q 1656 2200 1656 1722 
L 1656 0 
L 538 0 
L 538 3500 
L 1656 3500 
L 1656 2988 
Q 1909 3294 2193 3439 
Q 2478 3584 2822 3584 
Q 3428 3584 3742 3212 
Q 4056 2841 4056 2131 
z
" transform="scale(0.015625)"/>
     <path id="DejaVuSans-Bold-65" d="M 4031 1759 
L 4031 1441 
L 1416 1441 
Q 1456 1047 1700 850 
Q 1944 653 2381 653 
Q 2734 653 3104 758 
Q 3475 863 3866 1075 
L 3866 213 
Q 3469 63 3072 -14 
Q 2675 -91 2278 -91 
Q 1328 -91 801 392 
Q 275 875 275 1747 
Q 275 2603 792 3093 
Q 1309 3584 2216 3584 
Q 3041 3584 3536 3087 
Q 4031 2591 4031 1759 
z
M 2881 2131 
Q 2881 2450 2695 2645 
Q 2509 2841 2209 2841 
Q 1884 2841 1681 2658 
Q 1478 2475 1428 2131 
L 2881 2131 
z
" transform="scale(0.015625)"/>
     <path id="DejaVuSans-Bold-73" d="M 3272 3391 
L 3272 2541 
Q 2913 2691 2578 2766 
Q 2244 2841 1947 2841 
Q 1628 2841 1473 2761 
Q 1319 2681 1319 2516 
Q 1319 2381 1436 2309 
Q 1553 2238 1856 2203 
L 2053 2175 
Q 2913 2066 3209 1816 
Q 3506 1566 3506 1031 
Q 3506 472 3093 190 
Q 2681 -91 1863 -91 
Q 1516 -91 1145 -36 
Q 775 19 384 128 
L 384 978 
Q 719 816 1070 734 
Q 1422 653 1784 653 
Q 2113 653 2278 743 
Q 2444 834 2444 1013 
Q 2444 1163 2330 1236 
Q 2216 1309 1875 1350 
L 1678 1375 
Q 931 1469 631 1722 
Q 331 1975 331 2491 
Q 331 3047 712 3315 
Q 1094 3584 1881 3584 
Q 2191 3584 2531 3537 
Q 2872 3491 3272 3391 
z
" transform="scale(0.015625)"/>
     <path id="DejaVuSans-Bold-75" d="M 500 1363 
L 500 3500 
L 1625 3500 
L 1625 3150 
Q 1625 2866 1622 2436 
Q 1619 2006 1619 1863 
Q 1619 1441 1641 1255 
Q 1663 1069 1716 984 
Q 1784 875 1895 815 
Q 2006 756 2150 756 
Q 2500 756 2700 1025 
Q 2900 1294 2900 1772 
L 2900 3500 
L 4019 3500 
L 4019 0 
L 2900 0 
L 2900 506 
Q 2647 200 2364 54 
Q 2081 -91 1741 -91 
Q 1134 -91 817 281 
Q 500 653 500 1363 
z
" transform="scale(0.015625)"/>
     <path id="DejaVuSans-Bold-64" d="M 2919 2988 
L 2919 4863 
L 4044 4863 
L 4044 0 
L 2919 0 
L 2919 506 
Q 2688 197 2409 53 
Q 2131 -91 1766 -91 
Q 1119 -91 703 423 
Q 288 938 288 1747 
Q 288 2556 703 3070 
Q 1119 3584 1766 3584 
Q 2128 3584 2408 3439 
Q 2688 3294 2919 2988 
z
M 2181 722 
Q 2541 722 2730 984 
Q 2919 1247 2919 1747 
Q 2919 2247 2730 2509 
Q 2541 2772 2181 2772 
Q 1825 2772 1636 2509 
Q 1447 2247 1447 1747 
Q 1447 1247 1636 984 
Q 1825 722 2181 722 
z
" transform="scale(0.015625)"/>
     <path id="DejaVuSans-Bold-43" d="M 4288 256 
Q 3956 84 3597 -3 
Q 3238 -91 2847 -91 
Q 1681 -91 1000 561 
Q 319 1213 319 2328 
Q 319 3447 1000 4098 
Q 1681 4750 2847 4750 
Q 3238 4750 3597 4662 
Q 3956 4575 4288 4403 
L 4288 3438 
Q 3953 3666 3628 3772 
Q 3303 3878 2944 3878 
Q 2300 3878 1931 3465 
Q 1563 3053 1563 2328 
Q 1563 1606 1931 1193 
Q 2300 781 2944 781 
Q 3303 781 3628 887 
Q 3953 994 4288 1222 
L 4288 256 
z
" transform="scale(0.015625)"/>
     <path id="DejaVuSans-Bold-49" d="M 588 4666 
L 1791 4666 
L 1791 0 
L 588 0 
L 588 4666 
z
" transform="scale(0.015625)"/>
     <path id="DejaVuSans-Bold-61" d="M 2106 1575 
Q 1756 1575 1579 1456 
Q 1403 1338 1403 1106 
Q 1403 894 1545 773 
Q 1688 653 1941 653 
Q 2256 653 2472 879 
Q 2688 1106 2688 1447 
L 2688 1575 
L 2106 1575 
z
M 3816 1997 
L 3816 0 
L 2688 0 
L 2688 519 
Q 2463 200 2181 54 
Q 1900 -91 1497 -91 
Q 953 -91 614 226 
Q 275 544 275 1050 
Q 275 1666 698 1953 
Q 1122 2241 2028 2241 
L 2688 2241 
L 2688 2328 
Q 2688 2594 2478 2717 
Q 2269 2841 1825 2841 
Q 1466 2841 1156 2769 
Q 847 2697 581 2553 
L 581 3406 
Q 941 3494 1303 3539 
Q 1666 3584 2028 3584 
Q 2975 3584 3395 3211 
Q 3816 2838 3816 1997 
z
" transform="scale(0.015625)"/>
     <path id="DejaVuSans-Bold-72" d="M 3138 2547 
Q 2991 2616 2845 2648 
Q 2700 2681 2553 2681 
Q 2122 2681 1889 2404 
Q 1656 2128 1656 1613 
L 1656 0 
L 538 0 
L 538 3500 
L 1656 3500 
L 1656 2925 
Q 1872 3269 2151 3426 
Q 2431 3584 2822 3584 
Q 2878 3584 2943 3579 
Q 3009 3575 3134 3559 
L 3138 2547 
z
" transform="scale(0.015625)"/>
     <path id="DejaVuSans-Bold-62" d="M 2400 722 
Q 2759 722 2948 984 
Q 3138 1247 3138 1747 
Q 3138 2247 2948 2509 
Q 2759 2772 2400 2772 
Q 2041 2772 1848 2508 
Q 1656 2244 1656 1747 
Q 1656 1250 1848 986 
Q 2041 722 2400 722 
z
M 1656 2988 
Q 1888 3294 2169 3439 
Q 2450 3584 2816 3584 
Q 3463 3584 3878 3070 
Q 4294 2556 4294 1747 
Q 4294 938 3878 423 
Q 3463 -91 2816 -91 
Q 2450 -91 2169 54 
Q 1888 200 1656 506 
L 1656 0 
L 538 0 
L 538 4863 
L 1656 4863 
L 1656 2988 
z
" transform="scale(0.015625)"/>
     <path id="DejaVuSans-Bold-67" d="M 2919 594 
Q 2688 288 2409 144 
Q 2131 0 1766 0 
Q 1125 0 706 504 
Q 288 1009 288 1791 
Q 288 2575 706 3076 
Q 1125 3578 1766 3578 
Q 2131 3578 2409 3434 
Q 2688 3291 2919 2981 
L 2919 3500 
L 4044 3500 
L 4044 353 
Q 4044 -491 3511 -936 
Q 2978 -1381 1966 -1381 
Q 1638 -1381 1331 -1331 
Q 1025 -1281 716 -1178 
L 716 -306 
Q 1009 -475 1290 -558 
Q 1572 -641 1856 -641 
Q 2406 -641 2662 -400 
Q 2919 -159 2919 353 
L 2919 594 
z
M 2181 2772 
Q 1834 2772 1640 2515 
Q 1447 2259 1447 1791 
Q 1447 1309 1634 1061 
Q 1822 813 2181 813 
Q 2531 813 2725 1069 
Q 2919 1325 2919 1791 
Q 2919 2259 2725 2515 
Q 2531 2772 2181 2772 
z
" transform="scale(0.015625)"/>
     <path id="DejaVuSans-Bold-6d" d="M 3781 2919 
Q 3994 3244 4286 3414 
Q 4578 3584 4928 3584 
Q 5531 3584 5847 3212 
Q 6163 2841 6163 2131 
L 6163 0 
L 5038 0 
L 5038 1825 
Q 5041 1866 5042 1909 
Q 5044 1953 5044 2034 
Q 5044 2406 4934 2573 
Q 4825 2741 4581 2741 
Q 4263 2741 4089 2478 
Q 3916 2216 3909 1719 
L 3909 0 
L 2784 0 
L 2784 1825 
Q 2784 2406 2684 2573 
Q 2584 2741 2328 2741 
Q 2006 2741 1831 2477 
Q 1656 2213 1656 1722 
L 1656 0 
L 531 0 
L 531 3500 
L 1656 3500 
L 1656 2988 
Q 1863 3284 2130 3434 
Q 2397 3584 2719 3584 
Q 3081 3584 3359 3409 
Q 3638 3234 3781 2919 
z
" transform="scale(0.015625)"/>
     <path id="DejaVuSans-Bold-74" d="M 1759 4494 
L 1759 3500 
L 2913 3500 
L 2913 2700 
L 1759 2700 
L 1759 1216 
Q 1759 972 1856 886 
Q 1953 800 2241 800 
L 2816 800 
L 2816 0 
L 1856 0 
Q 1194 0 917 276 
Q 641 553 641 1216 
L 641 2700 
L 84 2700 
L 84 3500 
L 641 3500 
L 641 4494 
L 1759 4494 
z
" transform="scale(0.015625)"/>
    </defs>
    <use xlink:href="#DejaVuSans-Bold-45"/>
    <use xlink:href="#DejaVuSans-Bold-78" transform="translate(68.310547 0)"/>
    <use xlink:href="#DejaVuSans-Bold-70" transform="translate(132.8125 0)"/>
    <use xlink:href="#DejaVuSans-Bold-20" transform="translate(204.394531 0)"/>
    <use xlink:href="#DejaVuSans-Bold-31" transform="translate(239.208984 0)"/>
    <use xlink:href="#DejaVuSans-Bold-34" transform="translate(308.789062 0)"/>
    <use xlink:href="#DejaVuSans-Bold-3a" transform="translate(378.369141 0)"/>
    <use xlink:href="#DejaVuSans-Bold-20" transform="translate(418.359375 0)"/>
    <use xlink:href="#DejaVuSans-Bold-46" transform="translate(453.173828 0)"/>
    <use xlink:href="#DejaVuSans-Bold-50" transform="translate(521.484375 0)"/>
    <use xlink:href="#DejaVuSans-Bold-2d" transform="translate(593.025391 0)"/>
    <use xlink:href="#DejaVuSans-Bold-46" transform="translate(634.529297 0)"/>
    <use xlink:href="#DejaVuSans-Bold-69" transform="translate(702.839844 0)"/>
    <use xlink:href="#DejaVuSans-Bold-6e" transform="translate(737.117188 0)"/>
    <use xlink:href="#DejaVuSans-Bold-65" transform="translate(808.308594 0)"/>
    <use xlink:href="#DejaVuSans-Bold-73" transform="translate(876.130859 0)"/>
    <use xlink:href="#DejaVuSans-Bold-73" transform="translate(935.652344 0)"/>
    <use xlink:href="#DejaVuSans-Bold-65" transform="translate(995.173828 0)"/>
    <use xlink:href="#DejaVuSans-Bold-20" transform="translate(1062.996094 0)"/>
    <use xlink:href="#DejaVuSans-Bold-75" transform="translate(1097.810547 0)"/>
    <use xlink:href="#DejaVuSans-Bold-6e" transform="translate(1169.001953 0)"/>
    <use xlink:href="#DejaVuSans-Bold-64" transform="translate(1240.193359 0)"/>
    <use xlink:href="#DejaVuSans-Bold-20" transform="translate(1311.775391 0)"/>
    <use xlink:href="#DejaVuSans-Bold-43" transform="translate(1346.589844 0)"/>
    <use xlink:href="#DejaVuSans-Bold-49" transform="translate(1419.978516 0)"/>
    <use xlink:href="#DejaVuSans-Bold-45" transform="translate(1457.185547 0)"/>
    <use xlink:href="#DejaVuSans-Bold-2d" transform="translate(1525.496094 0)"/>
    <use xlink:href="#DejaVuSans-Bold-46" transform="translate(1567 0)"/>
    <use xlink:href="#DejaVuSans-Bold-61" transform="translate(1629.435547 0)"/>
    <use xlink:href="#DejaVuSans-Bold-72" transform="translate(1696.916016 0)"/>
    <use xlink:href="#DejaVuSans-Bold-62" transform="translate(1746.232422 0)"/>
    <use xlink:href="#DejaVuSans-Bold-67" transform="translate(1817.814453 0)"/>
    <use xlink:href="#DejaVuSans-Bold-61" transform="translate(1889.396484 0)"/>
    <use xlink:href="#DejaVuSans-Bold-6d" transform="translate(1956.876953 0)"/>
    <use xlink:href="#DejaVuSans-Bold-75" transform="translate(2061.076172 0)"/>
    <use xlink:href="#DejaVuSans-Bold-74" transform="translate(2132.267578 0)"/>
   </g>
  </g>
 </g>
 <defs>
  <clipPath id="pf893f0a384">
   <rect x="61.975" y="95.2" width="327.1875" height="204.7"/>
  </clipPath>
  <clipPath id="pbae5becaba">
   <rect x="501.4375" y="95.2" width="327.1875" height="204.7"/>
  </clipPath>
 </defs>
</svg>
