<?xml version="1.0" encoding="utf-8" standalone="no"?>
<!DOCTYPE svg PUBLIC "-//W3C//DTD SVG 1.1//EN"
  "http://www.w3.org/Graphics/SVG/1.1/DTD/svg11.dtd">
<svg xmlns:xlink="http://www.w3.org/1999/xlink" width="864pt" height="360pt" viewBox="0 0 864 360" xmlns="http://www.w3.org/2000/svg" version="1.1">
 <metadata>
  <rdf:RDF xmlns:dc="http://purl.org/dc/elements/1.1/" xmlns:cc="http://creativecommons.org/ns#" xmlns:rdf="http://www.w3.org/1999/02/22-rdf-syntax-ns#">
   <cc:Work>
    <dc:type rdf:resource="http://purl.org/dc/dcmitype/StillImage"/>
    <dc:date>2026-02-27T22:39:42.416090</dc:date>
    <dc:format>image/svg+xml</dc:format>
    <dc:creator>
     <cc:Agent>
      <dc:title>Matplotlib v3.10.8, https://matplotlib.org/</dc:title>
     </cc:Agent>
    </dc:creator>
   </cc:Work>
  </rdf:RDF>
 </metadata>
 <defs>
  <style type="text/css">*{stroke-linejoin: round; stroke-linecap: butt}</style>
 </defs>
 <g id="figure_1">
  <g id="patch_1">
   <path d="M 0 360 
L 864 360 
L 864 0 
L 0 0 
z
" style="fill: #ffffff"/>
  </g>
  <g id="axes_1">
   <g id="patch_2">
    <path d="M 55.834375 298.64 
L 418.25 298.64 
L 418.25 96.4 
L 55.834375 96.4 
z
" style="fill: #ffffff"/>
   </g>
   <g id="matplotlib.axis_1">
    <g id="xtick_1">
     <g id="line2d_1">
      <path d="M 81.721205 298.64 
L 81.721205 96.4 
" clip-path="url(#pd67aa4c4fb)" style="fill: none; stroke: #b0b0b0; stroke-opacity: 0.3; stroke-width: 0.8; stroke-linecap: square"/>
     </g>
     <g id="line2d_2">
      <defs>
       <path id="m530c29ac3b" d="M 0 0 
L 0 3.5 
" style="stroke: #000000; stroke-width: 0.8"/>
      </defs>
      <g>
       <use xlink:href="#m530c29ac3b" x="81.721205" y="298.64" style="stroke: #000000; stroke-width: 0.8"/>
      </g>
     </g>
     <g id="text_1">
      <!-- 0.1 -->
      <g transform="translate(73.769643 313.238437) scale(0.1 -0.1)">
       <defs>
        <path id="DejaVuSans-30" d="M 2034 4250 
Q 1547 4250 1301 3770 
Q 1056 3291 1056 2328 
Q 1056 1369 1301 889 
Q 1547 409 2034 409 
Q 2525 409 2770 889 
Q 3016 1369 3016 2328 
Q 3016 3291 2770 3770 
Q 2525 4250 2034 4250 
z
M 2034 4750 
Q 2819 4750 3233 4129 
Q 3647 3509 3647 2328 
Q 3647 1150 3233 529 
Q 2819 -91 2034 -91 
Q 1250 -91 836 529 
Q 422 1150 422 2328 
Q 422 3509 836 4129 
Q 1250 4750 2034 4750 
z
" transform="scale(0.015625)"/>
        <path id="DejaVuSans-2e" d="M 684 794 
L 1344 794 
L 1344 0 
L 684 0 
L 684 794 
z
" transform="scale(0.015625)"/>
        <path id="DejaVuSans-31" d="M 794 531 
L 1825 531 
L 1825 4091 
L 703 3866 
L 703 4441 
L 1819 4666 
L 2450 4666 
L 2450 531 
L 3481 531 
L 3481 0 
L 794 0 
L 794 531 
z
" transform="scale(0.015625)"/>
       </defs>
       <use xlink:href="#DejaVuSans-30"/>
       <use xlink:href="#DejaVuSans-2e" transform="translate(63.623047 0)"/>
       <use xlink:href="#DejaVuSans-31" transform="translate(95.410156 0)"/>
      </g>
     </g>
    </g>
    <g id="xtick_2">
     <g id="line2d_3">
      <path d="M 133.494866 298.64 
L 133.494866 96.4 
" clip-path="url(#pd67aa4c4fb)" style="fill: none; stroke: #b0b0b0; stroke-opacity: 0.3; stroke-width: 0.8; stroke-linecap: square"/>
     </g>
     <g id="line2d_4">
      <g>
       <use xlink:href="#m530c29ac3b" x="133.494866" y="298.64" style="stroke: #000000; stroke-width: 0.8"/>
      </g>
     </g>
     <g id="text_2">
      <!-- 0.2 -->
      <g transform="translate(125.543304 313.238437) scale(0.1 -0.1)">
       <defs>
        <path id="DejaVuSans-32" d="M 1228 531 
L 3431 531 
L 3431 0 
L 469 0 
L 469 531 
Q 828 903 1448 1529 
Q 2069 2156 2228 2338 
Q 2531 2678 2651 2914 
Q 2772 3150 2772 3378 
Q 2772 3750 2511 3984 
Q 2250 4219 1831 4219 
Q 1534 4219 1204 4116 
Q 875 4013 500 3803 
L 500 4441 
Q 881 4594 1212 4672 
Q 1544 4750 1819 4750 
Q 2544 4750 2975 4387 
Q 3406 4025 3406 3419 
Q 3406 3131 3298 2873 
Q 3191 2616 2906 2266 
Q 2828 2175 2409 1742 
Q 1991 1309 1228 531 
z
" transform="scale(0.015625)"/>
       </defs>
       <use xlink:href="#DejaVuSans-30"/>
       <use xlink:href="#DejaVuSans-2e" transform="translate(63.623047 0)"/>
       <use xlink:href="#DejaVuSans-32" transform="translate(95.410156 0)"/>
      </g>
     </g>
    </g>
    <g id="xtick_3">
     <g id="line2d_5">
      <path d="M 185.268527 298.64 
L 185.268527 96.4 
" clip-path="url(#pd67aa4c4fb)" style="fill: none; stroke: #b0b0b0; stroke-opacity: 0.3; stroke-width: 0.8; stroke-linecap: square"/>
     </g>
     <g id="line2d_6">
      <g>
       <use xlink:href="#m530c29ac3b" x="185.268527" y="298.64" style="stroke: #000000; stroke-width: 0.8"/>
      </g>
     </g>
     <g id="text_3">
      <!-- 0.3 -->
      <g transform="translate(177.316964 313.238437) scale(0.1 -0.1)">
       <defs>
        <path id="DejaVuSans-33" d="M 2597 2516 
Q 3050 2419 3304 2112 
Q 3559 1806 3559 1356 
Q 3559 666 3084 287 
Q 2609 -91 1734 -91 
Q 1441 -91 1130 -33 
Q 819 25 488 141 
L 488 750 
Q 750 597 1062 519 
Q 1375 441 1716 441 
Q 2309 441 2620 675 
Q 2931 909 2931 1356 
Q 2931 1769 2642 2001 
Q 2353 2234 1838 2234 
L 1294 2234 
L 1294 2753 
L 1863 2753 
Q 2328 2753 2575 2939 
Q 2822 3125 2822 3475 
Q 2822 3834 2567 4026 
Q 2313 4219 1838 4219 
Q 1578 4219 1281 4162 
Q 984 4106 628 3988 
L 628 4550 
Q 988 4650 1302 4700 
Q 1616 4750 1894 4750 
Q 2613 4750 3031 4423 
Q 3450 4097 3450 3541 
Q 3450 3153 3228 2886 
Q 3006 2619 2597 2516 
z
" transform="scale(0.015625)"/>
       </defs>
       <use xlink:href="#DejaVuSans-30"/>
       <use xlink:href="#DejaVuSans-2e" transform="translate(63.623047 0)"/>
       <use xlink:href="#DejaVuSans-33" transform="translate(95.410156 0)"/>
      </g>
     </g>
    </g>
    <g id="xtick_4">
     <g id="line2d_7">
      <path d="M 237.042187 298.64 
L 237.042187 96.4 
" clip-path="url(#pd67aa4c4fb)" style="fill: none; stroke: #b0b0b0; stroke-opacity: 0.3; stroke-width: 0.8; stroke-linecap: square"/>
     </g>
     <g id="line2d_8">
      <g>
       <use xlink:href="#m530c29ac3b" x="237.042187" y="298.64" style="stroke: #000000; stroke-width: 0.8"/>
      </g>
     </g>
     <g id="text_4">
      <!-- 0.4 -->
      <g transform="translate(229.090625 313.238437) scale(0.1 -0.1)">
       <defs>
        <path id="DejaVuSans-34" d="M 2419 4116 
L 825 1625 
L 2419 1625 
L 2419 4116 
z
M 2253 4666 
L 3047 4666 
L 3047 1625 
L 3713 1625 
L 3713 1100 
L 3047 1100 
L 3047 0 
L 2419 0 
L 2419 1100 
L 313 1100 
L 313 1709 
L 2253 4666 
z
" transform="scale(0.015625)"/>
       </defs>
       <use xlink:href="#DejaVuSans-30"/>
       <use xlink:href="#DejaVuSans-2e" transform="translate(63.623047 0)"/>
       <use xlink:href="#DejaVuSans-34" transform="translate(95.410156 0)"/>
      </g>
     </g>
    </g>
    <g id="xtick_5">
     <g id="line2d_9">
      <path d="M 288.815848 298.64 
L 288.815848 96.4 
" clip-path="url(#pd67aa4c4fb)" style="fill: none; stroke: #b0b0b0; stroke-opacity: 0.3; stroke-width: 0.8; stroke-linecap: square"/>
     </g>
     <g id="line2d_10">
      <g>
       <use xlink:href="#m530c29ac3b" x="288.815848" y="298.64" style="stroke: #000000; stroke-width: 0.8"/>
      </g>
     </g>
     <g id="text_5">
      <!-- 0.5 -->
      <g transform="translate(280.864286 313.238437) scale(0.1 -0.1)">
       <defs>
        <path id="DejaVuSans-35" d="M 691 4666 
L 3169 4666 
L 3169 4134 
L 1269 4134 
L 1269 2991 
Q 1406 3038 1543 3061 
Q 1681 3084 1819 3084 
Q 2600 3084 3056 2656 
Q 3513 2228 3513 1497 
Q 3513 744 3044 326 
Q 2575 -91 1722 -91 
Q 1428 -91 1123 -41 
Q 819 9 494 109 
L 494 744 
Q 775 591 1075 516 
Q 1375 441 1709 441 
Q 2250 441 2565 725 
Q 2881 1009 2881 1497 
Q 2881 1984 2565 2268 
Q 2250 2553 1709 2553 
Q 1456 2553 1204 2497 
Q 953 2441 691 2322 
L 691 4666 
z
" transform="scale(0.015625)"/>
       </defs>
       <use xlink:href="#DejaVuSans-30"/>
       <use xlink:href="#DejaVuSans-2e" transform="translate(63.623047 0)"/>
       <use xlink:href="#DejaVuSans-35" transform="translate(95.410156 0)"/>
      </g>
     </g>
    </g>
    <g id="xtick_6">
     <g id="line2d_11">
      <path d="M 340.589509 298.64 
L 340.589509 96.4 
" clip-path="url(#pd67aa4c4fb)" style="fill: none; stroke: #b0b0b0; stroke-opacity: 0.3; stroke-width: 0.8; stroke-linecap: square"/>
     </g>
     <g id="line2d_12">
      <g>
       <use xlink:href="#m530c29ac3b" x="340.589509" y="298.64" style="stroke: #000000; stroke-width: 0.8"/>
      </g>
     </g>
     <g id="text_6">
      <!-- 0.6 -->
      <g transform="translate(332.637946 313.238437) scale(0.1 -0.1)">
       <defs>
        <path id="DejaVuSans-36" d="M 2113 2584 
Q 1688 2584 1439 2293 
Q 1191 2003 1191 1497 
Q 1191 994 1439 701 
Q 1688 409 2113 409 
Q 2538 409 2786 701 
Q 3034 994 3034 1497 
Q 3034 2003 2786 2293 
Q 2538 2584 2113 2584 
z
M 3366 4563 
L 3366 3988 
Q 3128 4100 2886 4159 
Q 2644 4219 2406 4219 
Q 1781 4219 1451 3797 
Q 1122 3375 1075 2522 
Q 1259 2794 1537 2939 
Q 1816 3084 2150 3084 
Q 2853 3084 3261 2657 
Q 3669 2231 3669 1497 
Q 3669 778 3244 343 
Q 2819 -91 2113 -91 
Q 1303 -91 875 529 
Q 447 1150 447 2328 
Q 447 3434 972 4092 
Q 1497 4750 2381 4750 
Q 2619 4750 2861 4703 
Q 3103 4656 3366 4563 
z
" transform="scale(0.015625)"/>
       </defs>
       <use xlink:href="#DejaVuSans-30"/>
       <use xlink:href="#DejaVuSans-2e" transform="translate(63.623047 0)"/>
       <use xlink:href="#DejaVuSans-36" transform="translate(95.410156 0)"/>
      </g>
     </g>
    </g>
    <g id="xtick_7">
     <g id="line2d_13">
      <path d="M 392.36317 298.64 
L 392.36317 96.4 
" clip-path="url(#pd67aa4c4fb)" style="fill: none; stroke: #b0b0b0; stroke-opacity: 0.3; stroke-width: 0.8; stroke-linecap: square"/>
     </g>
     <g id="line2d_14">
      <g>
       <use xlink:href="#m530c29ac3b" x="392.36317" y="298.64" style="stroke: #000000; stroke-width: 0.8"/>
      </g>
     </g>
     <g id="text_7">
      <!-- 0.7 -->
      <g transform="translate(384.411607 313.238437) scale(0.1 -0.1)">
       <defs>
        <path id="DejaVuSans-37" d="M 525 4666 
L 3525 4666 
L 3525 4397 
L 1831 0 
L 1172 0 
L 2766 4134 
L 525 4134 
L 525 4666 
z
" transform="scale(0.015625)"/>
       </defs>
       <use xlink:href="#DejaVuSans-30"/>
       <use xlink:href="#DejaVuSans-2e" transform="translate(63.623047 0)"/>
       <use xlink:href="#DejaVuSans-37" transform="translate(95.410156 0)"/>
      </g>
     </g>
    </g>
    <g id="text_8">
     <!-- Flory-Huggins-Parameter χ -->
     <g transform="translate(163.574219 327.676406) scale(0.11 -0.11)">
      <defs>
       <path id="DejaVuSans-46" d="M 628 4666 
L 3309 4666 
L 3309 4134 
L 1259 4134 
L 1259 2759 
L 3109 2759 
L 3109 2228 
L 1259 2228 
L 1259 0 
L 628 0 
L 628 4666 
z
" transform="scale(0.015625)"/>
       <path id="DejaVuSans-6c" d="M 603 4863 
L 1178 4863 
L 1178 0 
L 603 0 
L 603 4863 
z
" transform="scale(0.015625)"/>
       <path id="DejaVuSans-6f" d="M 1959 3097 
Q 1497 3097 1228 2736 
Q 959 2375 959 1747 
Q 959 1119 1226 758 
Q 1494 397 1959 397 
Q 2419 397 2687 759 
Q 2956 1122 2956 1747 
Q 2956 2369 2687 2733 
Q 2419 3097 1959 3097 
z
M 1959 3584 
Q 2709 3584 3137 3096 
Q 3566 2609 3566 1747 
Q 3566 888 3137 398 
Q 2709 -91 1959 -91 
Q 1206 -91 779 398 
Q 353 888 353 1747 
Q 353 2609 779 3096 
Q 1206 3584 1959 3584 
z
" transform="scale(0.015625)"/>
       <path id="DejaVuSans-72" d="M 2631 2963 
Q 2534 3019 2420 3045 
Q 2306 3072 2169 3072 
Q 1681 3072 1420 2755 
Q 1159 2438 1159 1844 
L 1159 0 
L 581 0 
L 581 3500 
L 1159 3500 
L 1159 2956 
Q 1341 3275 1631 3429 
Q 1922 3584 2338 3584 
Q 2397 3584 2469 3576 
Q 2541 3569 2628 3553 
L 2631 2963 
z
" transform="scale(0.015625)"/>
       <path id="DejaVuSans-79" d="M 2059 -325 
Q 1816 -950 1584 -1140 
Q 1353 -1331 966 -1331 
L 506 -1331 
L 506 -850 
L 844 -850 
Q 1081 -850 1212 -737 
Q 1344 -625 1503 -206 
L 1606 56 
L 191 3500 
L 800 3500 
L 1894 763 
L 2988 3500 
L 3597 3500 
L 2059 -325 
z
" transform="scale(0.015625)"/>
       <path id="DejaVuSans-2d" d="M 313 2009 
L 1997 2009 
L 1997 1497 
L 313 1497 
L 313 2009 
z
" transform="scale(0.015625)"/>
       <path id="DejaVuSans-48" d="M 628 4666 
L 1259 4666 
L 1259 2753 
L 3553 2753 
L 3553 4666 
L 4184 4666 
L 4184 0 
L 3553 0 
L 3553 2222 
L 1259 2222 
L 1259 0 
L 628 0 
L 628 4666 
z
" transform="scale(0.015625)"/>
       <path id="DejaVuSans-75" d="M 544 1381 
L 544 3500 
L 1119 3500 
L 1119 1403 
Q 1119 906 1312 657 
Q 1506 409 1894 409 
Q 2359 409 2629 706 
Q 2900 1003 2900 1516 
L 2900 3500 
L 3475 3500 
L 3475 0 
L 2900 0 
L 2900 538 
Q 2691 219 2414 64 
Q 2138 -91 1772 -91 
Q 1169 -91 856 284 
Q 544 659 544 1381 
z
M 1991 3584 
L 1991 3584 
z
" transform="scale(0.015625)"/>
       <path id="DejaVuSans-67" d="M 2906 1791 
Q 2906 2416 2648 2759 
Q 2391 3103 1925 3103 
Q 1463 3103 1205 2759 
Q 947 2416 947 1791 
Q 947 1169 1205 825 
Q 1463 481 1925 481 
Q 2391 481 2648 825 
Q 2906 1169 2906 1791 
z
M 3481 434 
Q 3481 -459 3084 -895 
Q 2688 -1331 1869 -1331 
Q 1566 -1331 1297 -1286 
Q 1028 -1241 775 -1147 
L 775 -588 
Q 1028 -725 1275 -790 
Q 1522 -856 1778 -856 
Q 2344 -856 2625 -561 
Q 2906 -266 2906 331 
L 2906 616 
Q 2728 306 2450 153 
Q 2172 0 1784 0 
Q 1141 0 747 490 
Q 353 981 353 1791 
Q 353 2603 747 3093 
Q 1141 3584 1784 3584 
Q 2172 3584 2450 3431 
Q 2728 3278 2906 2969 
L 2906 3500 
L 3481 3500 
L 3481 434 
z
" transform="scale(0.015625)"/>
       <path id="DejaVuSans-69" d="M 603 3500 
L 1178 3500 
L 1178 0 
L 603 0 
L 603 3500 
z
M 603 4863 
L 1178 4863 
L 1178 4134 
L 603 4134 
L 603 4863 
z
" transform="scale(0.015625)"/>
       <path id="DejaVuSans-6e" d="M 3513 2113 
L 3513 0 
L 2938 0 
L 2938 2094 
Q 2938 2591 2744 2837 
Q 2550 3084 2163 3084 
Q 1697 3084 1428 2787 
Q 1159 2491 1159 1978 
L 1159 0 
L 581 0 
L 581 3500 
L 1159 3500 
L 1159 2956 
Q 1366 3272 1645 3428 
Q 1925 3584 2291 3584 
Q 2894 3584 3203 3211 
Q 3513 2838 3513 2113 
z
" transform="scale(0.015625)"/>
       <path id="DejaVuSans-73" d="M 2834 3397 
L 2834 2853 
Q 2591 2978 2328 3040 
Q 2066 3103 1784 3103 
Q 1356 3103 1142 2972 
Q 928 2841 928 2578 
Q 928 2378 1081 2264 
Q 1234 2150 1697 2047 
L 1894 2003 
Q 2506 1872 2764 1633 
Q 3022 1394 3022 966 
Q 3022 478 2636 193 
Q 2250 -91 1575 -91 
Q 1294 -91 989 -36 
Q 684 19 347 128 
L 347 722 
Q 666 556 975 473 
Q 1284 391 1588 391 
Q 1994 391 2212 530 
Q 2431 669 2431 922 
Q 2431 1156 2273 1281 
Q 2116 1406 1581 1522 
L 1381 1569 
Q 847 1681 609 1914 
Q 372 2147 372 2553 
Q 372 3047 722 3315 
Q 1072 3584 1716 3584 
Q 2034 3584 2315 3537 
Q 2597 3491 2834 3397 
z
" transform="scale(0.015625)"/>
       <path id="DejaVuSans-50" d="M 1259 4147 
L 1259 2394 
L 2053 2394 
Q 2494 2394 2734 2622 
Q 2975 2850 2975 3272 
Q 2975 3691 2734 3919 
Q 2494 4147 2053 4147 
L 1259 4147 
z
M 628 4666 
L 2053 4666 
Q 2838 4666 3239 4311 
Q 3641 3956 3641 3272 
Q 3641 2581 3239 2228 
Q 2838 1875 2053 1875 
L 1259 1875 
L 1259 0 
L 628 0 
L 628 4666 
z
" transform="scale(0.015625)"/>
       <path id="DejaVuSans-61" d="M 2194 1759 
Q 1497 1759 1228 1600 
Q 959 1441 959 1056 
Q 959 750 1161 570 
Q 1363 391 1709 391 
Q 2188 391 2477 730 
Q 2766 1069 2766 1631 
L 2766 1759 
L 2194 1759 
z
M 3341 1997 
L 3341 0 
L 2766 0 
L 2766 531 
Q 2569 213 2275 61 
Q 1981 -91 1556 -91 
Q 1019 -91 701 211 
Q 384 513 384 1019 
Q 384 1609 779 1909 
Q 1175 2209 1959 2209 
L 2766 2209 
L 2766 2266 
Q 2766 2663 2505 2880 
Q 2244 3097 1772 3097 
Q 1472 3097 1187 3025 
Q 903 2953 641 2809 
L 641 3341 
Q 956 3463 1253 3523 
Q 1550 3584 1831 3584 
Q 2591 3584 2966 3190 
Q 3341 2797 3341 1997 
z
" transform="scale(0.015625)"/>
       <path id="DejaVuSans-6d" d="M 3328 2828 
Q 3544 3216 3844 3400 
Q 4144 3584 4550 3584 
Q 5097 3584 5394 3201 
Q 5691 2819 5691 2113 
L 5691 0 
L 5113 0 
L 5113 2094 
Q 5113 2597 4934 2840 
Q 4756 3084 4391 3084 
Q 3944 3084 3684 2787 
Q 3425 2491 3425 1978 
L 3425 0 
L 2847 0 
L 2847 2094 
Q 2847 2600 2669 2842 
Q 2491 3084 2119 3084 
Q 1678 3084 1418 2786 
Q 1159 2488 1159 1978 
L 1159 0 
L 581 0 
L 581 3500 
L 1159 3500 
L 1159 2956 
Q 1356 3278 1631 3431 
Q 1906 3584 2284 3584 
Q 2666 3584 2933 3390 
Q 3200 3197 3328 2828 
z
" transform="scale(0.015625)"/>
       <path id="DejaVuSans-65" d="M 3597 1894 
L 3597 1613 
L 953 1613 
Q 991 1019 1311 708 
Q 1631 397 2203 397 
Q 2534 397 2845 478 
Q 3156 559 3463 722 
L 3463 178 
Q 3153 47 2828 -22 
Q 2503 -91 2169 -91 
Q 1331 -91 842 396 
Q 353 884 353 1716 
Q 353 2575 817 3079 
Q 1281 3584 2069 3584 
Q 2775 3584 3186 3129 
Q 3597 2675 3597 1894 
z
M 3022 2063 
Q 3016 2534 2758 2815 
Q 2500 3097 2075 3097 
Q 1594 3097 1305 2825 
Q 1016 2553 972 2059 
L 3022 2063 
z
" transform="scale(0.015625)"/>
       <path id="DejaVuSans-74" d="M 1172 4494 
L 1172 3500 
L 2356 3500 
L 2356 3053 
L 1172 3053 
L 1172 1153 
Q 1172 725 1289 603 
Q 1406 481 1766 481 
L 2356 481 
L 2356 0 
L 1766 0 
Q 1100 0 847 248 
Q 594 497 594 1153 
L 594 3053 
L 172 3053 
L 172 3500 
L 594 3500 
L 594 4494 
L 1172 4494 
z
" transform="scale(0.015625)"/>
       <path id="DejaVuSans-20" transform="scale(0.015625)"/>
       <path id="DejaVuSans-3c7" d="M 2288 -781 
L 1822 416 
L 863 -1334 
L 184 -1334 
L 1541 1141 
L 972 2613 
Q 819 3006 338 3006 
L 184 3006 
L 184 3500 
L 403 3494 
Q 1209 3472 1413 2950 
L 1875 1753 
L 2834 3503 
L 3513 3503 
L 2156 1028 
L 2725 -444 
Q 2878 -838 3359 -838 
L 3513 -838 
L 3513 -1331 
L 3294 -1325 
Q 2488 -1303 2288 -781 
z
" transform="scale(0.015625)"/>
      </defs>
      <use xlink:href="#DejaVuSans-46"/>
      <use xlink:href="#DejaVuSans-6c" transform="translate(57.519531 0)"/>
      <use xlink:href="#DejaVuSans-6f" transform="translate(85.302734 0)"/>
      <use xlink:href="#DejaVuSans-72" transform="translate(146.484375 0)"/>
      <use xlink:href="#DejaVuSans-79" transform="translate(187.597656 0)"/>
      <use xlink:href="#DejaVuSans-2d" transform="translate(245.027344 0)"/>
      <use xlink:href="#DejaVuSans-48" transform="translate(281.111328 0)"/>
      <use xlink:href="#DejaVuSans-75" transform="translate(356.306641 0)"/>
      <use xlink:href="#DejaVuSans-67" transform="translate(419.685547 0)"/>
      <use xlink:href="#DejaVuSans-67" transform="translate(483.162109 0)"/>
      <use xlink:href="#DejaVuSans-69" transform="translate(546.638672 0)"/>
      <use xlink:href="#DejaVuSans-6e" transform="translate(574.421875 0)"/>
      <use xlink:href="#DejaVuSans-73" transform="translate(637.800781 0)"/>
      <use xlink:href="#DejaVuSans-2d" transform="translate(689.900391 0)"/>
      <use xlink:href="#DejaVuSans-50" transform="translate(725.984375 0)"/>
      <use xlink:href="#DejaVuSans-61" transform="translate(781.787109 0)"/>
      <use xlink:href="#DejaVuSans-72" transform="translate(843.066406 0)"/>
      <use xlink:href="#DejaVuSans-61" transform="translate(884.179688 0)"/>
      <use xlink:href="#DejaVuSans-6d" transform="translate(945.458984 0)"/>
      <use xlink:href="#DejaVuSans-65" transform="translate(1042.871094 0)"/>
      <use xlink:href="#DejaVuSans-74" transform="translate(1104.394531 0)"/>
      <use xlink:href="#DejaVuSans-65" transform="translate(1143.603516 0)"/>
      <use xlink:href="#DejaVuSans-72" transform="translate(1205.126953 0)"/>
      <use xlink:href="#DejaVuSans-20" transform="translate(1246.240234 0)"/>
      <use xlink:href="#DejaVuSans-3c7" transform="translate(1278.027344 0)"/>
     </g>
    </g>
   </g>
   <g id="matplotlib.axis_2">
    <g id="ytick_1">
     <g id="line2d_15">
      <path d="M 55.834375 298.64 
L 418.25 298.64 
" clip-path="url(#pd67aa4c4fb)" style="fill: none; stroke: #b0b0b0; stroke-opacity: 0.3; stroke-width: 0.8; stroke-linecap: square"/>
     </g>
     <g id="line2d_16">
      <defs>
       <path id="mc65d3274bb" d="M 0 0 
L -3.5 0 
" style="stroke: #000000; stroke-width: 0.8"/>
      </defs>
      <g>
       <use xlink:href="#mc65d3274bb" x="55.834375" y="298.64" style="stroke: #000000; stroke-width: 0.8"/>
      </g>
     </g>
     <g id="text_9">
      <!-- 0 -->
      <g transform="translate(42.471875 302.439219) scale(0.1 -0.1)">
       <use xlink:href="#DejaVuSans-30"/>
      </g>
     </g>
    </g>
    <g id="ytick_2">
     <g id="line2d_17">
      <path d="M 55.834375 263.138409 
L 418.25 263.138409 
" clip-path="url(#pd67aa4c4fb)" style="fill: none; stroke: #b0b0b0; stroke-opacity: 0.3; stroke-width: 0.8; stroke-linecap: square"/>
     </g>
     <g id="line2d_18">
      <g>
       <use xlink:href="#mc65d3274bb" x="55.834375" y="263.138409" style="stroke: #000000; stroke-width: 0.8"/>
      </g>
     </g>
     <g id="text_10">
      <!-- 1 -->
      <g transform="translate(42.471875 266.937627) scale(0.1 -0.1)">
       <use xlink:href="#DejaVuSans-31"/>
      </g>
     </g>
    </g>
    <g id="ytick_3">
     <g id="line2d_19">
      <path d="M 55.834375 227.636817 
L 418.25 227.636817 
" clip-path="url(#pd67aa4c4fb)" style="fill: none; stroke: #b0b0b0; stroke-opacity: 0.3; stroke-width: 0.8; stroke-linecap: square"/>
     </g>
     <g id="line2d_20">
      <g>
       <use xlink:href="#mc65d3274bb" x="55.834375" y="227.636817" style="stroke: #000000; stroke-width: 0.8"/>
      </g>
     </g>
     <g id="text_11">
      <!-- 2 -->
      <g transform="translate(42.471875 231.436036) scale(0.1 -0.1)">
       <use xlink:href="#DejaVuSans-32"/>
      </g>
     </g>
    </g>
    <g id="ytick_4">
     <g id="line2d_21">
      <path d="M 55.834375 192.135226 
L 418.25 192.135226 
" clip-path="url(#pd67aa4c4fb)" style="fill: none; stroke: #b0b0b0; stroke-opacity: 0.3; stroke-width: 0.8; stroke-linecap: square"/>
     </g>
     <g id="line2d_22">
      <g>
       <use xlink:href="#mc65d3274bb" x="55.834375" y="192.135226" style="stroke: #000000; stroke-width: 0.8"/>
      </g>
     </g>
     <g id="text_12">
      <!-- 3 -->
      <g transform="translate(42.471875 195.934445) scale(0.1 -0.1)">
       <use xlink:href="#DejaVuSans-33"/>
      </g>
     </g>
    </g>
    <g id="ytick_5">
     <g id="line2d_23">
      <path d="M 55.834375 156.633634 
L 418.25 156.633634 
" clip-path="url(#pd67aa4c4fb)" style="fill: none; stroke: #b0b0b0; stroke-opacity: 0.3; stroke-width: 0.8; stroke-linecap: square"/>
     </g>
     <g id="line2d_24">
      <g>
       <use xlink:href="#mc65d3274bb" x="55.834375" y="156.633634" style="stroke: #000000; stroke-width: 0.8"/>
      </g>
     </g>
     <g id="text_13">
      <!-- 4 -->
      <g transform="translate(42.471875 160.432853) scale(0.1 -0.1)">
       <use xlink:href="#DejaVuSans-34"/>
      </g>
     </g>
    </g>
    <g id="ytick_6">
     <g id="line2d_25">
      <path d="M 55.834375 121.132043 
L 418.25 121.132043 
" clip-path="url(#pd67aa4c4fb)" style="fill: none; stroke: #b0b0b0; stroke-opacity: 0.3; stroke-width: 0.8; stroke-linecap: square"/>
     </g>
     <g id="line2d_26">
      <g>
       <use xlink:href="#mc65d3274bb" x="55.834375" y="121.132043" style="stroke: #000000; stroke-width: 0.8"/>
      </g>
     </g>
     <g id="text_14">
      <!-- 5 -->
      <g transform="translate(42.471875 124.931262) scale(0.1 -0.1)">
       <use xlink:href="#DejaVuSans-35"/>
      </g>
     </g>
    </g>
    <g id="text_15">
     <!-- Gleichgewichts-Quellungsgrad Q_eq -->
     <g transform="translate(35.878281 297.249609) rotate(-90) scale(0.11 -0.11)">
      <defs>
       <path id="DejaVuSans-47" d="M 3809 666 
L 3809 1919 
L 2778 1919 
L 2778 2438 
L 4434 2438 
L 4434 434 
Q 4069 175 3628 42 
Q 3188 -91 2688 -91 
Q 1594 -91 976 548 
Q 359 1188 359 2328 
Q 359 3472 976 4111 
Q 1594 4750 2688 4750 
Q 3144 4750 3555 4637 
Q 3966 4525 4313 4306 
L 4313 3634 
Q 3963 3931 3569 4081 
Q 3175 4231 2741 4231 
Q 1884 4231 1454 3753 
Q 1025 3275 1025 2328 
Q 1025 1384 1454 906 
Q 1884 428 2741 428 
Q 3075 428 3337 486 
Q 3600 544 3809 666 
z
" transform="scale(0.015625)"/>
       <path id="DejaVuSans-63" d="M 3122 3366 
L 3122 2828 
Q 2878 2963 2633 3030 
Q 2388 3097 2138 3097 
Q 1578 3097 1268 2742 
Q 959 2388 959 1747 
Q 959 1106 1268 751 
Q 1578 397 2138 397 
Q 2388 397 2633 464 
Q 2878 531 3122 666 
L 3122 134 
Q 2881 22 2623 -34 
Q 2366 -91 2075 -91 
Q 1284 -91 818 406 
Q 353 903 353 1747 
Q 353 2603 823 3093 
Q 1294 3584 2113 3584 
Q 2378 3584 2631 3529 
Q 2884 3475 3122 3366 
z
" transform="scale(0.015625)"/>
       <path id="DejaVuSans-68" d="M 3513 2113 
L 3513 0 
L 2938 0 
L 2938 2094 
Q 2938 2591 2744 2837 
Q 2550 3084 2163 3084 
Q 1697 3084 1428 2787 
Q 1159 2491 1159 1978 
L 1159 0 
L 581 0 
L 581 4863 
L 1159 4863 
L 1159 2956 
Q 1366 3272 1645 3428 
Q 1925 3584 2291 3584 
Q 2894 3584 3203 3211 
Q 3513 2838 3513 2113 
z
" transform="scale(0.015625)"/>
       <path id="DejaVuSans-77" d="M 269 3500 
L 844 3500 
L 1563 769 
L 2278 3500 
L 2956 3500 
L 3675 769 
L 4391 3500 
L 4966 3500 
L 4050 0 
L 3372 0 
L 2619 2869 
L 1863 0 
L 1184 0 
L 269 3500 
z
" transform="scale(0.015625)"/>
       <path id="DejaVuSans-51" d="M 2522 4238 
Q 1834 4238 1429 3725 
Q 1025 3213 1025 2328 
Q 1025 1447 1429 934 
Q 1834 422 2522 422 
Q 3209 422 3611 934 
Q 4013 1447 4013 2328 
Q 4013 3213 3611 3725 
Q 3209 4238 2522 4238 
z
M 3406 84 
L 4238 -825 
L 3475 -825 
L 2784 -78 
Q 2681 -84 2626 -87 
Q 2572 -91 2522 -91 
Q 1538 -91 948 567 
Q 359 1225 359 2328 
Q 359 3434 948 4092 
Q 1538 4750 2522 4750 
Q 3503 4750 4090 4092 
Q 4678 3434 4678 2328 
Q 4678 1516 4351 937 
Q 4025 359 3406 84 
z
" transform="scale(0.015625)"/>
       <path id="DejaVuSans-64" d="M 2906 2969 
L 2906 4863 
L 3481 4863 
L 3481 0 
L 2906 0 
L 2906 525 
Q 2725 213 2448 61 
Q 2172 -91 1784 -91 
Q 1150 -91 751 415 
Q 353 922 353 1747 
Q 353 2572 751 3078 
Q 1150 3584 1784 3584 
Q 2172 3584 2448 3432 
Q 2725 3281 2906 2969 
z
M 947 1747 
Q 947 1113 1208 752 
Q 1469 391 1925 391 
Q 2381 391 2643 752 
Q 2906 1113 2906 1747 
Q 2906 2381 2643 2742 
Q 2381 3103 1925 3103 
Q 1469 3103 1208 2742 
Q 947 2381 947 1747 
z
" transform="scale(0.015625)"/>
       <path id="DejaVuSans-5f" d="M 3263 -1063 
L 3263 -1509 
L -63 -1509 
L -63 -1063 
L 3263 -1063 
z
" transform="scale(0.015625)"/>
       <path id="DejaVuSans-71" d="M 947 1747 
Q 947 1113 1208 752 
Q 1469 391 1925 391 
Q 2381 391 2643 752 
Q 2906 1113 2906 1747 
Q 2906 2381 2643 2742 
Q 2381 3103 1925 3103 
Q 1469 3103 1208 2742 
Q 947 2381 947 1747 
z
M 2906 525 
Q 2725 213 2448 61 
Q 2172 -91 1784 -91 
Q 1150 -91 751 415 
Q 353 922 353 1747 
Q 353 2572 751 3078 
Q 1150 3584 1784 3584 
Q 2172 3584 2448 3432 
Q 2725 3281 2906 2969 
L 2906 3500 
L 3481 3500 
L 3481 -1331 
L 2906 -1331 
L 2906 525 
z
" transform="scale(0.015625)"/>
      </defs>
      <use xlink:href="#DejaVuSans-47"/>
      <use xlink:href="#DejaVuSans-6c" transform="translate(77.490234 0)"/>
      <use xlink:href="#DejaVuSans-65" transform="translate(105.273438 0)"/>
      <use xlink:href="#DejaVuSans-69" transform="translate(166.796875 0)"/>
      <use xlink:href="#DejaVuSans-63" transform="translate(194.580078 0)"/>
      <use xlink:href="#DejaVuSans-68" transform="translate(249.560547 0)"/>
      <use xlink:href="#DejaVuSans-67" transform="translate(312.939453 0)"/>
      <use xlink:href="#DejaVuSans-65" transform="translate(376.416016 0)"/>
      <use xlink:href="#DejaVuSans-77" transform="translate(437.939453 0)"/>
      <use xlink:href="#DejaVuSans-69" transform="translate(519.726562 0)"/>
      <use xlink:href="#DejaVuSans-63" transform="translate(547.509766 0)"/>
      <use xlink:href="#DejaVuSans-68" transform="translate(602.490234 0)"/>
      <use xlink:href="#DejaVuSans-74" transform="translate(665.869141 0)"/>
      <use xlink:href="#DejaVuSans-73" transform="translate(705.078125 0)"/>
      <use xlink:href="#DejaVuSans-2d" transform="translate(757.177734 0)"/>
      <use xlink:href="#DejaVuSans-51" transform="translate(796.886719 0)"/>
      <use xlink:href="#DejaVuSans-75" transform="translate(875.597656 0)"/>
      <use xlink:href="#DejaVuSans-65" transform="translate(938.976562 0)"/>
      <use xlink:href="#DejaVuSans-6c" transform="translate(1000.5 0)"/>
      <use xlink:href="#DejaVuSans-6c" transform="translate(1028.283203 0)"/>
      <use xlink:href="#DejaVuSans-75" transform="translate(1056.066406 0)"/>
      <use xlink:href="#DejaVuSans-6e" transform="translate(1119.445312 0)"/>
      <use xlink:href="#DejaVuSans-67" transform="translate(1182.824219 0)"/>
      <use xlink:href="#DejaVuSans-73" transform="translate(1246.300781 0)"/>
      <use xlink:href="#DejaVuSans-67" transform="translate(1298.400391 0)"/>
      <use xlink:href="#DejaVuSans-72" transform="translate(1361.876953 0)"/>
      <use xlink:href="#DejaVuSans-61" transform="translate(1402.990234 0)"/>
      <use xlink:href="#DejaVuSans-64" transform="translate(1464.269531 0)"/>
      <use xlink:href="#DejaVuSans-20" transform="translate(1527.746094 0)"/>
      <use xlink:href="#DejaVuSans-51" transform="translate(1559.533203 0)"/>
      <use xlink:href="#DejaVuSans-5f" transform="translate(1638.244141 0)"/>
      <use xlink:href="#DejaVuSans-65" transform="translate(1688.244141 0)"/>
      <use xlink:href="#DejaVuSans-71" transform="translate(1749.767578 0)"/>
     </g>
    </g>
   </g>
   <g id="line2d_27">
    <path d="M 55.834375 102.927149 
L 58.879884 104.063702 
L 61.925394 105.203502 
L 64.970903 106.34656 
L 68.016413 107.492885 
L 71.061922 108.642487 
L 74.107432 109.795373 
L 77.152941 110.95155 
L 80.198451 112.111023 
L 83.24396 113.273798 
L 86.28947 114.439878 
L 89.334979 115.609265 
L 92.380488 116.781959 
L 95.425998 117.957961 
L 98.471507 119.137268 
L 101.517017 120.319876 
L 104.562526 121.505779 
L 107.608036 122.694971 
L 110.653545 123.88744 
L 113.699055 125.083176 
L 116.744564 126.282164 
L 119.790074 127.484388 
L 122.835583 128.689828 
L 125.881092 129.898464 
L 128.926602 131.110269 
L 131.972111 132.325216 
L 135.017621 133.543274 
L 138.06313 134.764408 
L 141.10864 135.988578 
L 144.154149 137.215744 
L 147.199659 138.445858 
L 150.245168 139.67887 
L 153.290678 140.914722 
L 156.336187 142.153356 
L 159.381696 143.394704 
L 162.427206 144.638695 
L 165.472715 145.885254 
L 168.518225 147.134294 
L 171.563734 148.385729 
L 174.609244 149.639459 
L 177.654753 150.895383 
L 180.700263 152.153389 
L 183.745772 153.413357 
L 186.791282 154.675161 
L 189.836791 155.938664 
L 192.8823 157.203723 
L 195.92781 158.470182 
L 198.973319 159.737878 
L 202.018829 161.006636 
L 205.064338 162.276272 
L 208.109848 163.546589 
L 211.155357 164.817381 
L 214.200867 166.088428 
L 217.246376 167.3595 
L 220.291886 168.630353 
L 223.337395 169.900731 
L 226.382904 171.170363 
L 229.428414 172.438968 
L 232.473923 173.70625 
L 235.519433 174.971897 
L 238.564942 176.235587 
L 241.610452 177.496982 
L 244.655961 178.75573 
L 247.701471 180.011465 
L 250.74698 181.26381 
L 253.792489 182.512371 
L 256.837999 183.756745 
L 259.883508 184.996512 
L 262.929018 186.231244 
L 265.974527 187.460501 
L 269.020037 188.683831 
L 272.065546 189.900774 
L 275.111056 191.110863 
L 278.156565 192.313622 
L 281.202075 193.508569 
L 284.247584 194.695221 
L 287.293093 195.873088 
L 290.338603 197.041684 
L 293.384112 198.200521 
L 296.429622 199.349113 
L 299.475131 200.486983 
L 302.520641 201.613656 
L 305.56615 202.728671 
L 308.61166 203.831574 
L 311.657169 204.921925 
L 314.702679 205.999302 
L 317.748188 207.063297 
L 320.793697 208.113522 
L 323.839207 209.149612 
L 326.884716 210.17122 
L 329.930226 211.178029 
L 332.975735 212.169742 
L 336.021245 213.146092 
L 339.066754 214.106838 
L 342.112264 215.051769 
L 345.157773 215.980701 
L 348.203283 216.89348 
L 351.248792 217.789981 
L 354.294301 218.67011 
L 357.339811 219.5338 
L 360.38532 220.381012 
L 363.43083 221.211737 
L 366.476339 222.025991 
L 369.521849 222.823817 
L 372.567358 223.605282 
L 375.612868 224.370479 
L 378.658377 225.119519 
L 381.703887 225.852538 
L 384.749396 226.569689 
L 387.794905 227.271145 
L 390.840415 227.957092 
L 393.885924 228.627736 
L 396.931434 229.283292 
L 399.976943 229.92399 
L 403.022453 230.550068 
L 406.067962 231.161776 
L 409.113472 231.759371 
L 412.158981 232.343115 
L 415.204491 232.913277 
L 418.25 233.470131 
" clip-path="url(#pd67aa4c4fb)" style="fill: none; stroke: #e63946; stroke-width: 2; stroke-linecap: square"/>
   </g>
   <g id="patch_3">
    <path d="M 55.834375 298.64 
L 55.834375 96.4 
" style="fill: none; stroke: #000000; stroke-width: 0.8; stroke-linejoin: miter; stroke-linecap: square"/>
   </g>
   <g id="patch_4">
    <path d="M 418.25 298.64 
L 418.25 96.4 
" style="fill: none; stroke: #000000; stroke-width: 0.8; stroke-linejoin: miter; stroke-linecap: square"/>
   </g>
   <g id="patch_5">
    <path d="M 55.834375 298.64 
L 418.25 298.64 
" style="fill: none; stroke: #000000; stroke-width: 0.8; stroke-linejoin: miter; stroke-linecap: square"/>
   </g>
   <g id="patch_6">
    <path d="M 55.834375 96.4 
L 418.25 96.4 
" style="fill: none; stroke: #000000; stroke-width: 0.8; stroke-linejoin: miter; stroke-linecap: square"/>
   </g>
   <g id="patch_7">
    <path d="M 155.4993 130.846329 
Q 150.554718 133.497611 145.610137 136.148894 
" style="fill: none; stroke: #808080; stroke-width: 0.8; stroke-linecap: round"/>
   </g>
   <g id="text_16">
    <!-- Isopropanol -->
    <g transform="translate(154.20433 118.603948) scale(0.07 -0.07)">
     <defs>
      <path id="DejaVuSans-49" d="M 628 4666 
L 1259 4666 
L 1259 0 
L 628 0 
L 628 4666 
z
" transform="scale(0.015625)"/>
      <path id="DejaVuSans-70" d="M 1159 525 
L 1159 -1331 
L 581 -1331 
L 581 3500 
L 1159 3500 
L 1159 2969 
Q 1341 3281 1617 3432 
Q 1894 3584 2278 3584 
Q 2916 3584 3314 3078 
Q 3713 2572 3713 1747 
Q 3713 922 3314 415 
Q 2916 -91 2278 -91 
Q 1894 -91 1617 61 
Q 1341 213 1159 525 
z
M 3116 1747 
Q 3116 2381 2855 2742 
Q 2594 3103 2138 3103 
Q 1681 3103 1420 2742 
Q 1159 2381 1159 1747 
Q 1159 1113 1420 752 
Q 1681 391 2138 391 
Q 2594 391 2855 752 
Q 3116 1113 3116 1747 
z
" transform="scale(0.015625)"/>
     </defs>
     <use xlink:href="#DejaVuSans-49"/>
     <use xlink:href="#DejaVuSans-73" transform="translate(29.492188 0)"/>
     <use xlink:href="#DejaVuSans-6f" transform="translate(81.591797 0)"/>
     <use xlink:href="#DejaVuSans-70" transform="translate(142.773438 0)"/>
     <use xlink:href="#DejaVuSans-72" transform="translate(206.25 0)"/>
     <use xlink:href="#DejaVuSans-6f" transform="translate(245.113281 0)"/>
     <use xlink:href="#DejaVuSans-70" transform="translate(306.294922 0)"/>
     <use xlink:href="#DejaVuSans-61" transform="translate(369.771484 0)"/>
     <use xlink:href="#DejaVuSans-6e" transform="translate(431.050781 0)"/>
     <use xlink:href="#DejaVuSans-6f" transform="translate(494.429688 0)"/>
     <use xlink:href="#DejaVuSans-6c" transform="translate(555.611328 0)"/>
    </g>
    <!-- Q=4.55 -->
    <g transform="translate(154.20433 126.442417) scale(0.07 -0.07)">
     <defs>
      <path id="DejaVuSans-3d" d="M 678 2906 
L 4684 2906 
L 4684 2381 
L 678 2381 
L 678 2906 
z
M 678 1631 
L 4684 1631 
L 4684 1100 
L 678 1100 
L 678 1631 
z
" transform="scale(0.015625)"/>
     </defs>
     <use xlink:href="#DejaVuSans-51"/>
     <use xlink:href="#DejaVuSans-3d" transform="translate(78.710938 0)"/>
     <use xlink:href="#DejaVuSans-34" transform="translate(162.5 0)"/>
     <use xlink:href="#DejaVuSans-2e" transform="translate(226.123047 0)"/>
     <use xlink:href="#DejaVuSans-35" transform="translate(257.910156 0)"/>
     <use xlink:href="#DejaVuSans-35" transform="translate(321.533203 0)"/>
    </g>
   </g>
   <g id="patch_8">
    <path d="M 168.125694 137.341313 
Q 164.576647 139.798286 161.0276 142.255259 
" style="fill: none; stroke: #808080; stroke-width: 0.8; stroke-linecap: round"/>
   </g>
   <g id="text_17">
    <!-- Ethanol -->
    <g transform="translate(169.736429 124.905758) scale(0.07 -0.07)">
     <defs>
      <path id="DejaVuSans-45" d="M 628 4666 
L 3578 4666 
L 3578 4134 
L 1259 4134 
L 1259 2753 
L 3481 2753 
L 3481 2222 
L 1259 2222 
L 1259 531 
L 3634 531 
L 3634 0 
L 628 0 
L 628 4666 
z
" transform="scale(0.015625)"/>
     </defs>
     <use xlink:href="#DejaVuSans-45"/>
     <use xlink:href="#DejaVuSans-74" transform="translate(63.183594 0)"/>
     <use xlink:href="#DejaVuSans-68" transform="translate(102.392578 0)"/>
     <use xlink:href="#DejaVuSans-61" transform="translate(165.771484 0)"/>
     <use xlink:href="#DejaVuSans-6e" transform="translate(227.050781 0)"/>
     <use xlink:href="#DejaVuSans-6f" transform="translate(290.429688 0)"/>
     <use xlink:href="#DejaVuSans-6c" transform="translate(351.611328 0)"/>
    </g>
    <!-- Q=4.37 -->
    <g transform="translate(169.736429 132.744226) scale(0.07 -0.07)">
     <use xlink:href="#DejaVuSans-51"/>
     <use xlink:href="#DejaVuSans-3d" transform="translate(78.710938 0)"/>
     <use xlink:href="#DejaVuSans-34" transform="translate(162.5 0)"/>
     <use xlink:href="#DejaVuSans-2e" transform="translate(226.123047 0)"/>
     <use xlink:href="#DejaVuSans-33" transform="translate(257.910156 0)"/>
     <use xlink:href="#DejaVuSans-37" transform="translate(321.533203 0)"/>
    </g>
   </g>
   <g id="patch_9">
    <path d="M 195.406052 147.888791 
Q 191.192396 150.447216 186.978739 153.00564 
" style="fill: none; stroke: #808080; stroke-width: 0.8; stroke-linecap: round"/>
   </g>
   <g id="text_18">
    <!-- n-Butanol -->
    <g transform="translate(195.623259 135.555092) scale(0.07 -0.07)">
     <defs>
      <path id="DejaVuSans-42" d="M 1259 2228 
L 1259 519 
L 2272 519 
Q 2781 519 3026 730 
Q 3272 941 3272 1375 
Q 3272 1813 3026 2020 
Q 2781 2228 2272 2228 
L 1259 2228 
z
M 1259 4147 
L 1259 2741 
L 2194 2741 
Q 2656 2741 2882 2914 
Q 3109 3088 3109 3444 
Q 3109 3797 2882 3972 
Q 2656 4147 2194 4147 
L 1259 4147 
z
M 628 4666 
L 2241 4666 
Q 2963 4666 3353 4366 
Q 3744 4066 3744 3513 
Q 3744 3084 3544 2831 
Q 3344 2578 2956 2516 
Q 3422 2416 3680 2098 
Q 3938 1781 3938 1306 
Q 3938 681 3513 340 
Q 3088 0 2303 0 
L 628 0 
L 628 4666 
z
" transform="scale(0.015625)"/>
     </defs>
     <use xlink:href="#DejaVuSans-6e"/>
     <use xlink:href="#DejaVuSans-2d" transform="translate(63.378906 0)"/>
     <use xlink:href="#DejaVuSans-42" transform="translate(95.837891 0)"/>
     <use xlink:href="#DejaVuSans-75" transform="translate(164.441406 0)"/>
     <use xlink:href="#DejaVuSans-74" transform="translate(227.820312 0)"/>
     <use xlink:href="#DejaVuSans-61" transform="translate(267.029297 0)"/>
     <use xlink:href="#DejaVuSans-6e" transform="translate(328.308594 0)"/>
     <use xlink:href="#DejaVuSans-6f" transform="translate(391.6875 0)"/>
     <use xlink:href="#DejaVuSans-6c" transform="translate(452.869141 0)"/>
    </g>
    <!-- Q=4.07 -->
    <g transform="translate(195.623259 143.39356) scale(0.07 -0.07)">
     <use xlink:href="#DejaVuSans-51"/>
     <use xlink:href="#DejaVuSans-3d" transform="translate(78.710938 0)"/>
     <use xlink:href="#DejaVuSans-34" transform="translate(162.5 0)"/>
     <use xlink:href="#DejaVuSans-2e" transform="translate(226.123047 0)"/>
     <use xlink:href="#DejaVuSans-30" transform="translate(257.910156 0)"/>
     <use xlink:href="#DejaVuSans-37" transform="translate(321.533203 0)"/>
    </g>
   </g>
   <g id="patch_10">
    <path d="M 261.318283 175.960035 
Q 257.769236 178.417009 254.22019 180.873982 
" style="fill: none; stroke: #808080; stroke-width: 0.8; stroke-linecap: round"/>
   </g>
   <g id="text_19">
    <!-- Wasser -->
    <g transform="translate(262.929018 163.52448) scale(0.07 -0.07)">
     <defs>
      <path id="DejaVuSans-57" d="M 213 4666 
L 850 4666 
L 1831 722 
L 2809 4666 
L 3519 4666 
L 4500 722 
L 5478 4666 
L 6119 4666 
L 4947 0 
L 4153 0 
L 3169 4050 
L 2175 0 
L 1381 0 
L 213 4666 
z
" transform="scale(0.015625)"/>
     </defs>
     <use xlink:href="#DejaVuSans-57"/>
     <use xlink:href="#DejaVuSans-61" transform="translate(92.501953 0)"/>
     <use xlink:href="#DejaVuSans-73" transform="translate(153.78125 0)"/>
     <use xlink:href="#DejaVuSans-73" transform="translate(205.880859 0)"/>
     <use xlink:href="#DejaVuSans-65" transform="translate(257.980469 0)"/>
     <use xlink:href="#DejaVuSans-72" transform="translate(319.503906 0)"/>
    </g>
    <!-- Q=3.29 -->
    <g transform="translate(262.929018 171.362949) scale(0.07 -0.07)">
     <defs>
      <path id="DejaVuSans-39" d="M 703 97 
L 703 672 
Q 941 559 1184 500 
Q 1428 441 1663 441 
Q 2288 441 2617 861 
Q 2947 1281 2994 2138 
Q 2813 1869 2534 1725 
Q 2256 1581 1919 1581 
Q 1219 1581 811 2004 
Q 403 2428 403 3163 
Q 403 3881 828 4315 
Q 1253 4750 1959 4750 
Q 2769 4750 3195 4129 
Q 3622 3509 3622 2328 
Q 3622 1225 3098 567 
Q 2575 -91 1691 -91 
Q 1453 -91 1209 -44 
Q 966 3 703 97 
z
M 1959 2075 
Q 2384 2075 2632 2365 
Q 2881 2656 2881 3163 
Q 2881 3666 2632 3958 
Q 2384 4250 1959 4250 
Q 1534 4250 1286 3958 
Q 1038 3666 1038 3163 
Q 1038 2656 1286 2365 
Q 1534 2075 1959 2075 
z
" transform="scale(0.015625)"/>
     </defs>
     <use xlink:href="#DejaVuSans-51"/>
     <use xlink:href="#DejaVuSans-3d" transform="translate(78.710938 0)"/>
     <use xlink:href="#DejaVuSans-33" transform="translate(162.5 0)"/>
     <use xlink:href="#DejaVuSans-2e" transform="translate(226.123047 0)"/>
     <use xlink:href="#DejaVuSans-32" transform="translate(257.910156 0)"/>
     <use xlink:href="#DejaVuSans-39" transform="translate(321.533203 0)"/>
    </g>
   </g>
   <g id="text_20">
    <!-- Flory-Rehner: Q_eq(χ) – Lösungsmitteleinfluss -->
    <g transform="translate(99.669375 76.628875) scale(0.12 -0.12)">
     <defs>
      <path id="DejaVuSans-52" d="M 2841 2188 
Q 3044 2119 3236 1894 
Q 3428 1669 3622 1275 
L 4263 0 
L 3584 0 
L 2988 1197 
Q 2756 1666 2539 1819 
Q 2322 1972 1947 1972 
L 1259 1972 
L 1259 0 
L 628 0 
L 628 4666 
L 2053 4666 
Q 2853 4666 3247 4331 
Q 3641 3997 3641 3322 
Q 3641 2881 3436 2590 
Q 3231 2300 2841 2188 
z
M 1259 4147 
L 1259 2491 
L 2053 2491 
Q 2509 2491 2742 2702 
Q 2975 2913 2975 3322 
Q 2975 3731 2742 3939 
Q 2509 4147 2053 4147 
L 1259 4147 
z
" transform="scale(0.015625)"/>
      <path id="DejaVuSans-3a" d="M 750 794 
L 1409 794 
L 1409 0 
L 750 0 
L 750 794 
z
M 750 3309 
L 1409 3309 
L 1409 2516 
L 750 2516 
L 750 3309 
z
" transform="scale(0.015625)"/>
      <path id="DejaVuSans-28" d="M 1984 4856 
Q 1566 4138 1362 3434 
Q 1159 2731 1159 2009 
Q 1159 1288 1364 580 
Q 1569 -128 1984 -844 
L 1484 -844 
Q 1016 -109 783 600 
Q 550 1309 550 2009 
Q 550 2706 781 3412 
Q 1013 4119 1484 4856 
L 1984 4856 
z
" transform="scale(0.015625)"/>
      <path id="DejaVuSans-29" d="M 513 4856 
L 1013 4856 
Q 1481 4119 1714 3412 
Q 1947 2706 1947 2009 
Q 1947 1309 1714 600 
Q 1481 -109 1013 -844 
L 513 -844 
Q 928 -128 1133 580 
Q 1338 1288 1338 2009 
Q 1338 2731 1133 3434 
Q 928 4138 513 4856 
z
" transform="scale(0.015625)"/>
      <path id="DejaVuSans-2013" d="M 313 1978 
L 2888 1978 
L 2888 1528 
L 313 1528 
L 313 1978 
z
" transform="scale(0.015625)"/>
      <path id="DejaVuSans-4c" d="M 628 4666 
L 1259 4666 
L 1259 531 
L 3531 531 
L 3531 0 
L 628 0 
L 628 4666 
z
" transform="scale(0.015625)"/>
      <path id="DejaVuSans-f6" d="M 1959 3097 
Q 1497 3097 1228 2736 
Q 959 2375 959 1747 
Q 959 1119 1226 758 
Q 1494 397 1959 397 
Q 2419 397 2687 759 
Q 2956 1122 2956 1747 
Q 2956 2369 2687 2733 
Q 2419 3097 1959 3097 
z
M 1959 3584 
Q 2709 3584 3137 3096 
Q 3566 2609 3566 1747 
Q 3566 888 3137 398 
Q 2709 -91 1959 -91 
Q 1206 -91 779 398 
Q 353 888 353 1747 
Q 353 2609 779 3096 
Q 1206 3584 1959 3584 
z
M 2254 4850 
L 2888 4850 
L 2888 4219 
L 2254 4219 
L 2254 4850 
z
M 1032 4850 
L 1666 4850 
L 1666 4219 
L 1032 4219 
L 1032 4850 
z
" transform="scale(0.015625)"/>
      <path id="DejaVuSans-66" d="M 2375 4863 
L 2375 4384 
L 1825 4384 
Q 1516 4384 1395 4259 
Q 1275 4134 1275 3809 
L 1275 3500 
L 2222 3500 
L 2222 3053 
L 1275 3053 
L 1275 0 
L 697 0 
L 697 3053 
L 147 3053 
L 147 3500 
L 697 3500 
L 697 3744 
Q 697 4328 969 4595 
Q 1241 4863 1831 4863 
L 2375 4863 
z
" transform="scale(0.015625)"/>
     </defs>
     <use xlink:href="#DejaVuSans-46"/>
     <use xlink:href="#DejaVuSans-6c" transform="translate(57.519531 0)"/>
     <use xlink:href="#DejaVuSans-6f" transform="translate(85.302734 0)"/>
     <use xlink:href="#DejaVuSans-72" transform="translate(146.484375 0)"/>
     <use xlink:href="#DejaVuSans-79" transform="translate(187.597656 0)"/>
     <use xlink:href="#DejaVuSans-2d" transform="translate(245.027344 0)"/>
     <use xlink:href="#DejaVuSans-52" transform="translate(281.111328 0)"/>
     <use xlink:href="#DejaVuSans-65" transform="translate(346.09375 0)"/>
     <use xlink:href="#DejaVuSans-68" transform="translate(407.617188 0)"/>
     <use xlink:href="#DejaVuSans-6e" transform="translate(470.996094 0)"/>
     <use xlink:href="#DejaVuSans-65" transform="translate(534.375 0)"/>
     <use xlink:href="#DejaVuSans-72" transform="translate(595.898438 0)"/>
     <use xlink:href="#DejaVuSans-3a" transform="translate(635.261719 0)"/>
     <use xlink:href="#DejaVuSans-20" transform="translate(668.953125 0)"/>
     <use xlink:href="#DejaVuSans-51" transform="translate(700.740234 0)"/>
     <use xlink:href="#DejaVuSans-5f" transform="translate(779.451172 0)"/>
     <use xlink:href="#DejaVuSans-65" transform="translate(829.451172 0)"/>
     <use xlink:href="#DejaVuSans-71" transform="translate(890.974609 0)"/>
     <use xlink:href="#DejaVuSans-28" transform="translate(954.451172 0)"/>
     <use xlink:href="#DejaVuSans-3c7" transform="translate(993.464844 0)"/>
     <use xlink:href="#DejaVuSans-29" transform="translate(1051.228516 0)"/>
     <use xlink:href="#DejaVuSans-20" transform="translate(1090.242188 0)"/>
     <use xlink:href="#DejaVuSans-2013" transform="translate(1122.029297 0)"/>
     <use xlink:href="#DejaVuSans-20" transform="translate(1172.029297 0)"/>
     <use xlink:href="#DejaVuSans-4c" transform="translate(1203.816406 0)"/>
     <use xlink:href="#DejaVuSans-f6" transform="translate(1257.779297 0)"/>
     <use xlink:href="#DejaVuSans-73" transform="translate(1318.960938 0)"/>
     <use xlink:href="#DejaVuSans-75" transform="translate(1371.060547 0)"/>
     <use xlink:href="#DejaVuSans-6e" transform="translate(1434.439453 0)"/>
     <use xlink:href="#DejaVuSans-67" transform="translate(1497.818359 0)"/>
     <use xlink:href="#DejaVuSans-73" transform="translate(1561.294922 0)"/>
     <use xlink:href="#DejaVuSans-6d" transform="translate(1613.394531 0)"/>
     <use xlink:href="#DejaVuSans-69" transform="translate(1710.806641 0)"/>
     <use xlink:href="#DejaVuSans-74" transform="translate(1738.589844 0)"/>
     <use xlink:href="#DejaVuSans-74" transform="translate(1777.798828 0)"/>
     <use xlink:href="#DejaVuSans-65" transform="translate(1817.007812 0)"/>
     <use xlink:href="#DejaVuSans-6c" transform="translate(1878.53125 0)"/>
     <use xlink:href="#DejaVuSans-65" transform="translate(1906.314453 0)"/>
     <use xlink:href="#DejaVuSans-69" transform="translate(1967.837891 0)"/>
     <use xlink:href="#DejaVuSans-6e" transform="translate(1995.621094 0)"/>
     <use xlink:href="#DejaVuSans-66" transform="translate(2059 0)"/>
     <use xlink:href="#DejaVuSans-6c" transform="translate(2094.205078 0)"/>
     <use xlink:href="#DejaVuSans-75" transform="translate(2121.988281 0)"/>
     <use xlink:href="#DejaVuSans-73" transform="translate(2185.367188 0)"/>
     <use xlink:href="#DejaVuSans-73" transform="translate(2237.466797 0)"/>
    </g>
    <!-- (Vm=1.8e-5 m³/mol, Vc=5e-4 m³/mol) -->
    <g transform="translate(121.71 90.4) scale(0.12 -0.12)">
     <defs>
      <path id="DejaVuSans-56" d="M 1831 0 
L 50 4666 
L 709 4666 
L 2188 738 
L 3669 4666 
L 4325 4666 
L 2547 0 
L 1831 0 
z
" transform="scale(0.015625)"/>
      <path id="DejaVuSans-38" d="M 2034 2216 
Q 1584 2216 1326 1975 
Q 1069 1734 1069 1313 
Q 1069 891 1326 650 
Q 1584 409 2034 409 
Q 2484 409 2743 651 
Q 3003 894 3003 1313 
Q 3003 1734 2745 1975 
Q 2488 2216 2034 2216 
z
M 1403 2484 
Q 997 2584 770 2862 
Q 544 3141 544 3541 
Q 544 4100 942 4425 
Q 1341 4750 2034 4750 
Q 2731 4750 3128 4425 
Q 3525 4100 3525 3541 
Q 3525 3141 3298 2862 
Q 3072 2584 2669 2484 
Q 3125 2378 3379 2068 
Q 3634 1759 3634 1313 
Q 3634 634 3220 271 
Q 2806 -91 2034 -91 
Q 1263 -91 848 271 
Q 434 634 434 1313 
Q 434 1759 690 2068 
Q 947 2378 1403 2484 
z
M 1172 3481 
Q 1172 3119 1398 2916 
Q 1625 2713 2034 2713 
Q 2441 2713 2670 2916 
Q 2900 3119 2900 3481 
Q 2900 3844 2670 4047 
Q 2441 4250 2034 4250 
Q 1625 4250 1398 4047 
Q 1172 3844 1172 3481 
z
" transform="scale(0.015625)"/>
      <path id="DejaVuSans-b3" d="M 1638 3500 
Q 1925 3444 2083 3273 
Q 2241 3103 2241 2847 
Q 2241 2459 1944 2250 
Q 1647 2041 1094 2041 
Q 916 2041 720 2073 
Q 525 2106 306 2169 
L 306 2547 
Q 469 2463 655 2422 
Q 841 2381 1050 2381 
Q 1391 2381 1578 2504 
Q 1766 2628 1766 2847 
Q 1766 3078 1592 3197 
Q 1419 3316 1081 3316 
L 813 3316 
L 813 3653 
L 1106 3653 
Q 1400 3653 1551 3751 
Q 1703 3850 1703 4038 
Q 1703 4219 1547 4314 
Q 1391 4409 1094 4409 
Q 969 4409 809 4381 
Q 650 4353 397 4281 
L 397 4641 
Q 625 4694 825 4722 
Q 1025 4750 1197 4750 
Q 1647 4750 1911 4565 
Q 2175 4381 2175 4072 
Q 2175 3856 2034 3706 
Q 1894 3556 1638 3500 
z
" transform="scale(0.015625)"/>
      <path id="DejaVuSans-2f" d="M 1625 4666 
L 2156 4666 
L 531 -594 
L 0 -594 
L 1625 4666 
z
" transform="scale(0.015625)"/>
      <path id="DejaVuSans-2c" d="M 750 794 
L 1409 794 
L 1409 256 
L 897 -744 
L 494 -744 
L 750 256 
L 750 794 
z
" transform="scale(0.015625)"/>
     </defs>
     <use xlink:href="#DejaVuSans-28"/>
     <use xlink:href="#DejaVuSans-56" transform="translate(39.013672 0)"/>
     <use xlink:href="#DejaVuSans-6d" transform="translate(107.421875 0)"/>
     <use xlink:href="#DejaVuSans-3d" transform="translate(204.833984 0)"/>
     <use xlink:href="#DejaVuSans-31" transform="translate(288.623047 0)"/>
     <use xlink:href="#DejaVuSans-2e" transform="translate(352.246094 0)"/>
     <use xlink:href="#DejaVuSans-38" transform="translate(384.033203 0)"/>
     <use xlink:href="#DejaVuSans-65" transform="translate(447.65625 0)"/>
     <use xlink:href="#DejaVuSans-2d" transform="translate(509.179688 0)"/>
     <use xlink:href="#DejaVuSans-35" transform="translate(545.263672 0)"/>
     <use xlink:href="#DejaVuSans-20" transform="translate(608.886719 0)"/>
     <use xlink:href="#DejaVuSans-6d" transform="translate(640.673828 0)"/>
     <use xlink:href="#DejaVuSans-b3" transform="translate(738.085938 0)"/>
     <use xlink:href="#DejaVuSans-2f" transform="translate(778.173828 0)"/>
     <use xlink:href="#DejaVuSans-6d" transform="translate(811.865234 0)"/>
     <use xlink:href="#DejaVuSans-6f" transform="translate(909.277344 0)"/>
     <use xlink:href="#DejaVuSans-6c" transform="translate(970.458984 0)"/>
     <use xlink:href="#DejaVuSans-2c" transform="translate(998.242188 0)"/>
     <use xlink:href="#DejaVuSans-20" transform="translate(1030.029297 0)"/>
     <use xlink:href="#DejaVuSans-56" transform="translate(1061.816406 0)"/>
     <use xlink:href="#DejaVuSans-63" transform="translate(1130.224609 0)"/>
     <use xlink:href="#DejaVuSans-3d" transform="translate(1185.205078 0)"/>
     <use xlink:href="#DejaVuSans-35" transform="translate(1268.994141 0)"/>
     <use xlink:href="#DejaVuSans-65" transform="translate(1332.617188 0)"/>
     <use xlink:href="#DejaVuSans-2d" transform="translate(1394.140625 0)"/>
     <use xlink:href="#DejaVuSans-34" transform="translate(1430.224609 0)"/>
     <use xlink:href="#DejaVuSans-20" transform="translate(1493.847656 0)"/>
     <use xlink:href="#DejaVuSans-6d" transform="translate(1525.634766 0)"/>
     <use xlink:href="#DejaVuSans-b3" transform="translate(1623.046875 0)"/>
     <use xlink:href="#DejaVuSans-2f" transform="translate(1663.134766 0)"/>
     <use xlink:href="#DejaVuSans-6d" transform="translate(1696.826172 0)"/>
     <use xlink:href="#DejaVuSans-6f" transform="translate(1794.238281 0)"/>
     <use xlink:href="#DejaVuSans-6c" transform="translate(1855.419922 0)"/>
     <use xlink:href="#DejaVuSans-29" transform="translate(1883.203125 0)"/>
    </g>
   </g>
   <g id="PathCollection_1">
    <defs>
     <path id="m747fc1ce9a" d="M 0 4.472136 
C 1.186024 4.472136 2.323632 4.000923 3.162278 3.162278 
C 4.000923 2.323632 4.472136 1.186024 4.472136 0 
C 4.472136 -1.186024 4.000923 -2.323632 3.162278 -3.162278 
C 2.323632 -4.000923 1.186024 -4.472136 0 -4.472136 
C -1.186024 -4.472136 -2.323632 -4.000923 -3.162278 -3.162278 
C -4.000923 -2.323632 -4.472136 -1.186024 -4.472136 0 
C -4.472136 1.186024 -4.000923 2.323632 -3.162278 3.162278 
C -2.323632 4.000923 -1.186024 4.472136 0 4.472136 
z
" style="stroke: #1f77b4"/>
    </defs>
    <g clip-path="url(#pd67aa4c4fb)">
     <use xlink:href="#m747fc1ce9a" x="143.849598" y="137.092894" style="fill: #1f77b4; stroke: #1f77b4"/>
    </g>
   </g>
   <g id="PathCollection_2">
    <defs>
     <path id="m6039dc3285" d="M 0 4.472136 
C 1.186024 4.472136 2.323632 4.000923 3.162278 3.162278 
C 4.000923 2.323632 4.472136 1.186024 4.472136 0 
C 4.472136 -1.186024 4.000923 -2.323632 3.162278 -3.162278 
C 2.323632 -4.000923 1.186024 -4.472136 0 -4.472136 
C -1.186024 -4.472136 -2.323632 -4.000923 -3.162278 -3.162278 
C -4.000923 -2.323632 -4.472136 -1.186024 -4.472136 0 
C -4.472136 1.186024 -4.000923 2.323632 -3.162278 3.162278 
C -2.323632 4.000923 -1.186024 4.472136 0 4.472136 
z
" style="stroke: #ff7f0e"/>
    </defs>
    <g clip-path="url(#pd67aa4c4fb)">
     <use xlink:href="#m6039dc3285" x="159.381696" y="143.394704" style="fill: #ff7f0e; stroke: #ff7f0e"/>
    </g>
   </g>
   <g id="PathCollection_3">
    <defs>
     <path id="m4232ef4b36" d="M 0 4.472136 
C 1.186024 4.472136 2.323632 4.000923 3.162278 3.162278 
C 4.000923 2.323632 4.472136 1.186024 4.472136 0 
C 4.472136 -1.186024 4.000923 -2.323632 3.162278 -3.162278 
C 2.323632 -4.000923 1.186024 -4.472136 0 -4.472136 
C -1.186024 -4.472136 -2.323632 -4.000923 -3.162278 -3.162278 
C -4.000923 -2.323632 -4.472136 -1.186024 -4.472136 0 
C -4.472136 1.186024 -4.000923 2.323632 -3.162278 3.162278 
C -2.323632 4.000923 -1.186024 4.472136 0 4.472136 
z
" style="stroke: #2ca02c"/>
    </defs>
    <g clip-path="url(#pd67aa4c4fb)">
     <use xlink:href="#m4232ef4b36" x="185.268527" y="154.044038" style="fill: #2ca02c; stroke: #2ca02c"/>
    </g>
   </g>
   <g id="PathCollection_4">
    <defs>
     <path id="m1593f92994" d="M 0 4.472136 
C 1.186024 4.472136 2.323632 4.000923 3.162278 3.162278 
C 4.000923 2.323632 4.472136 1.186024 4.472136 0 
C 4.472136 -1.186024 4.000923 -2.323632 3.162278 -3.162278 
C 2.323632 -4.000923 1.186024 -4.472136 0 -4.472136 
C -1.186024 -4.472136 -2.323632 -4.000923 -3.162278 -3.162278 
C -4.000923 -2.323632 -4.472136 -1.186024 -4.472136 0 
C -4.472136 1.186024 -4.000923 2.323632 -3.162278 3.162278 
C -2.323632 4.000923 -1.186024 4.472136 0 4.472136 
z
" style="stroke: #d62728"/>
    </defs>
    <g clip-path="url(#pd67aa4c4fb)">
     <use xlink:href="#m1593f92994" x="252.574286" y="182.013426" style="fill: #d62728; stroke: #d62728"/>
    </g>
   </g>
  </g>
  <g id="axes_2">
   <g id="patch_11">
    <path d="M 474.084375 298.64 
L 836.5 298.64 
L 836.5 96.4 
L 474.084375 96.4 
z
" style="fill: #ffffff"/>
   </g>
   <g id="matplotlib.axis_3">
    <g id="xtick_8">
     <g id="line2d_28">
      <path d="M 600.380729 298.64 
L 600.380729 96.4 
" clip-path="url(#p9db443f0bb)" style="fill: none; stroke: #b0b0b0; stroke-opacity: 0.3; stroke-width: 0.8; stroke-linecap: square"/>
     </g>
     <g id="line2d_29">
      <g>
       <use xlink:href="#m530c29ac3b" x="600.380729" y="298.64" style="stroke: #000000; stroke-width: 0.8"/>
      </g>
     </g>
     <g id="text_21">
      <!-- $\mathdefault{10^{-4}}$ -->
      <g transform="translate(588.630729 313.238437) scale(0.1 -0.1)">
       <defs>
        <path id="DejaVuSans-2212" d="M 678 2272 
L 4684 2272 
L 4684 1741 
L 678 1741 
L 678 2272 
z
" transform="scale(0.015625)"/>
       </defs>
       <use xlink:href="#DejaVuSans-31" transform="translate(0 0.684375)"/>
       <use xlink:href="#DejaVuSans-30" transform="translate(63.623047 0.684375)"/>
       <use xlink:href="#DejaVuSans-2212" transform="translate(128.203125 38.965625) scale(0.7)"/>
       <use xlink:href="#DejaVuSans-34" transform="translate(186.855469 38.965625) scale(0.7)"/>
      </g>
     </g>
    </g>
    <g id="xtick_9">
     <g id="line2d_30">
      <path d="M 820.026562 298.64 
L 820.026562 96.4 
" clip-path="url(#p9db443f0bb)" style="fill: none; stroke: #b0b0b0; stroke-opacity: 0.3; stroke-width: 0.8; stroke-linecap: square"/>
     </g>
     <g id="line2d_31">
      <g>
       <use xlink:href="#m530c29ac3b" x="820.026562" y="298.64" style="stroke: #000000; stroke-width: 0.8"/>
      </g>
     </g>
     <g id="text_22">
      <!-- $\mathdefault{10^{-3}}$ -->
      <g transform="translate(808.276562 313.238437) scale(0.1 -0.1)">
       <use xlink:href="#DejaVuSans-31" transform="translate(0 0.765625)"/>
       <use xlink:href="#DejaVuSans-30" transform="translate(63.623047 0.765625)"/>
       <use xlink:href="#DejaVuSans-2212" transform="translate(128.203125 39.046875) scale(0.7)"/>
       <use xlink:href="#DejaVuSans-33" transform="translate(186.855469 39.046875) scale(0.7)"/>
      </g>
     </g>
    </g>
    <g id="xtick_10">
     <g id="line2d_32">
      <defs>
       <path id="m427e2563a6" d="M 0 0 
L 0 2 
" style="stroke: #000000; stroke-width: 0.6"/>
      </defs>
      <g>
       <use xlink:href="#m427e2563a6" x="485.532591" y="298.64" style="stroke: #000000; stroke-width: 0.6"/>
      </g>
     </g>
    </g>
    <g id="xtick_11">
     <g id="line2d_33">
      <g>
       <use xlink:href="#m427e2563a6" x="512.974864" y="298.64" style="stroke: #000000; stroke-width: 0.6"/>
      </g>
     </g>
    </g>
    <g id="xtick_12">
     <g id="line2d_34">
      <g>
       <use xlink:href="#m427e2563a6" x="534.260745" y="298.64" style="stroke: #000000; stroke-width: 0.6"/>
      </g>
     </g>
    </g>
    <g id="xtick_13">
     <g id="line2d_35">
      <g>
       <use xlink:href="#m427e2563a6" x="551.652576" y="298.64" style="stroke: #000000; stroke-width: 0.6"/>
      </g>
     </g>
    </g>
    <g id="xtick_14">
     <g id="line2d_36">
      <g>
       <use xlink:href="#m427e2563a6" x="566.357159" y="298.64" style="stroke: #000000; stroke-width: 0.6"/>
      </g>
     </g>
    </g>
    <g id="xtick_15">
     <g id="line2d_37">
      <g>
       <use xlink:href="#m427e2563a6" x="579.094849" y="298.64" style="stroke: #000000; stroke-width: 0.6"/>
      </g>
     </g>
    </g>
    <g id="xtick_16">
     <g id="line2d_38">
      <g>
       <use xlink:href="#m427e2563a6" x="590.330287" y="298.64" style="stroke: #000000; stroke-width: 0.6"/>
      </g>
     </g>
    </g>
    <g id="xtick_17">
     <g id="line2d_39">
      <g>
       <use xlink:href="#m427e2563a6" x="666.500713" y="298.64" style="stroke: #000000; stroke-width: 0.6"/>
      </g>
     </g>
    </g>
    <g id="xtick_18">
     <g id="line2d_40">
      <g>
       <use xlink:href="#m427e2563a6" x="705.178425" y="298.64" style="stroke: #000000; stroke-width: 0.6"/>
      </g>
     </g>
    </g>
    <g id="xtick_19">
     <g id="line2d_41">
      <g>
       <use xlink:href="#m427e2563a6" x="732.620698" y="298.64" style="stroke: #000000; stroke-width: 0.6"/>
      </g>
     </g>
    </g>
    <g id="xtick_20">
     <g id="line2d_42">
      <g>
       <use xlink:href="#m427e2563a6" x="753.906578" y="298.64" style="stroke: #000000; stroke-width: 0.6"/>
      </g>
     </g>
    </g>
    <g id="xtick_21">
     <g id="line2d_43">
      <g>
       <use xlink:href="#m427e2563a6" x="771.298409" y="298.64" style="stroke: #000000; stroke-width: 0.6"/>
      </g>
     </g>
    </g>
    <g id="xtick_22">
     <g id="line2d_44">
      <g>
       <use xlink:href="#m427e2563a6" x="786.002992" y="298.64" style="stroke: #000000; stroke-width: 0.6"/>
      </g>
     </g>
    </g>
    <g id="xtick_23">
     <g id="line2d_45">
      <g>
       <use xlink:href="#m427e2563a6" x="798.740682" y="298.64" style="stroke: #000000; stroke-width: 0.6"/>
      </g>
     </g>
    </g>
    <g id="xtick_24">
     <g id="line2d_46">
      <g>
       <use xlink:href="#m427e2563a6" x="809.97612" y="298.64" style="stroke: #000000; stroke-width: 0.6"/>
      </g>
     </g>
    </g>
    <g id="text_23">
     <!-- Vernetzungskettenvolumen Vc (m³/mol) -->
     <g transform="translate(545.513047 327.676406) scale(0.11 -0.11)">
      <defs>
       <path id="DejaVuSans-7a" d="M 353 3500 
L 3084 3500 
L 3084 2975 
L 922 459 
L 3084 459 
L 3084 0 
L 275 0 
L 275 525 
L 2438 3041 
L 353 3041 
L 353 3500 
z
" transform="scale(0.015625)"/>
       <path id="DejaVuSans-6b" d="M 581 4863 
L 1159 4863 
L 1159 1991 
L 2875 3500 
L 3609 3500 
L 1753 1863 
L 3688 0 
L 2938 0 
L 1159 1709 
L 1159 0 
L 581 0 
L 581 4863 
z
" transform="scale(0.015625)"/>
       <path id="DejaVuSans-76" d="M 191 3500 
L 800 3500 
L 1894 563 
L 2988 3500 
L 3597 3500 
L 2284 0 
L 1503 0 
L 191 3500 
z
" transform="scale(0.015625)"/>
      </defs>
      <use xlink:href="#DejaVuSans-56"/>
      <use xlink:href="#DejaVuSans-65" transform="translate(60.658203 0)"/>
      <use xlink:href="#DejaVuSans-72" transform="translate(122.181641 0)"/>
      <use xlink:href="#DejaVuSans-6e" transform="translate(161.544922 0)"/>
      <use xlink:href="#DejaVuSans-65" transform="translate(224.923828 0)"/>
      <use xlink:href="#DejaVuSans-74" transform="translate(286.447266 0)"/>
      <use xlink:href="#DejaVuSans-7a" transform="translate(325.65625 0)"/>
      <use xlink:href="#DejaVuSans-75" transform="translate(378.146484 0)"/>
      <use xlink:href="#DejaVuSans-6e" transform="translate(441.525391 0)"/>
      <use xlink:href="#DejaVuSans-67" transform="translate(504.904297 0)"/>
      <use xlink:href="#DejaVuSans-73" transform="translate(568.380859 0)"/>
      <use xlink:href="#DejaVuSans-6b" transform="translate(620.480469 0)"/>
      <use xlink:href="#DejaVuSans-65" transform="translate(674.765625 0)"/>
      <use xlink:href="#DejaVuSans-74" transform="translate(736.289062 0)"/>
      <use xlink:href="#DejaVuSans-74" transform="translate(775.498047 0)"/>
      <use xlink:href="#DejaVuSans-65" transform="translate(814.707031 0)"/>
      <use xlink:href="#DejaVuSans-6e" transform="translate(876.230469 0)"/>
      <use xlink:href="#DejaVuSans-76" transform="translate(939.609375 0)"/>
      <use xlink:href="#DejaVuSans-6f" transform="translate(998.789062 0)"/>
      <use xlink:href="#DejaVuSans-6c" transform="translate(1059.970703 0)"/>
      <use xlink:href="#DejaVuSans-75" transform="translate(1087.753906 0)"/>
      <use xlink:href="#DejaVuSans-6d" transform="translate(1151.132812 0)"/>
      <use xlink:href="#DejaVuSans-65" transform="translate(1248.544922 0)"/>
      <use xlink:href="#DejaVuSans-6e" transform="translate(1310.068359 0)"/>
      <use xlink:href="#DejaVuSans-20" transform="translate(1373.447266 0)"/>
      <use xlink:href="#DejaVuSans-56" transform="translate(1405.234375 0)"/>
      <use xlink:href="#DejaVuSans-63" transform="translate(1473.642578 0)"/>
      <use xlink:href="#DejaVuSans-20" transform="translate(1528.623047 0)"/>
      <use xlink:href="#DejaVuSans-28" transform="translate(1560.410156 0)"/>
      <use xlink:href="#DejaVuSans-6d" transform="translate(1599.423828 0)"/>
      <use xlink:href="#DejaVuSans-b3" transform="translate(1696.835938 0)"/>
      <use xlink:href="#DejaVuSans-2f" transform="translate(1736.923828 0)"/>
      <use xlink:href="#DejaVuSans-6d" transform="translate(1770.615234 0)"/>
      <use xlink:href="#DejaVuSans-6f" transform="translate(1868.027344 0)"/>
      <use xlink:href="#DejaVuSans-6c" transform="translate(1929.208984 0)"/>
      <use xlink:href="#DejaVuSans-29" transform="translate(1956.992188 0)"/>
     </g>
    </g>
   </g>
   <g id="matplotlib.axis_4">
    <g id="ytick_7">
     <g id="line2d_47">
      <path d="M 474.084375 270.142725 
L 836.5 270.142725 
" clip-path="url(#p9db443f0bb)" style="fill: none; stroke: #b0b0b0; stroke-opacity: 0.3; stroke-width: 0.8; stroke-linecap: square"/>
     </g>
     <g id="line2d_48">
      <g>
       <use xlink:href="#mc65d3274bb" x="474.084375" y="270.142725" style="stroke: #000000; stroke-width: 0.8"/>
      </g>
     </g>
     <g id="text_24">
      <!-- 2 -->
      <g transform="translate(460.721875 273.941944) scale(0.1 -0.1)">
       <use xlink:href="#DejaVuSans-32"/>
      </g>
     </g>
    </g>
    <g id="ytick_8">
     <g id="line2d_49">
      <path d="M 474.084375 230.076582 
L 836.5 230.076582 
" clip-path="url(#p9db443f0bb)" style="fill: none; stroke: #b0b0b0; stroke-opacity: 0.3; stroke-width: 0.8; stroke-linecap: square"/>
     </g>
     <g id="line2d_50">
      <g>
       <use xlink:href="#mc65d3274bb" x="474.084375" y="230.076582" style="stroke: #000000; stroke-width: 0.8"/>
      </g>
     </g>
     <g id="text_25">
      <!-- 3 -->
      <g transform="translate(460.721875 233.875801) scale(0.1 -0.1)">
       <use xlink:href="#DejaVuSans-33"/>
      </g>
     </g>
    </g>
    <g id="ytick_9">
     <g id="line2d_51">
      <path d="M 474.084375 190.010439 
L 836.5 190.010439 
" clip-path="url(#p9db443f0bb)" style="fill: none; stroke: #b0b0b0; stroke-opacity: 0.3; stroke-width: 0.8; stroke-linecap: square"/>
     </g>
     <g id="line2d_52">
      <g>
       <use xlink:href="#mc65d3274bb" x="474.084375" y="190.010439" style="stroke: #000000; stroke-width: 0.8"/>
      </g>
     </g>
     <g id="text_26">
      <!-- 4 -->
      <g transform="translate(460.721875 193.809658) scale(0.1 -0.1)">
       <use xlink:href="#DejaVuSans-34"/>
      </g>
     </g>
    </g>
    <g id="ytick_10">
     <g id="line2d_53">
      <path d="M 474.084375 149.944296 
L 836.5 149.944296 
" clip-path="url(#p9db443f0bb)" style="fill: none; stroke: #b0b0b0; stroke-opacity: 0.3; stroke-width: 0.8; stroke-linecap: square"/>
     </g>
     <g id="line2d_54">
      <g>
       <use xlink:href="#mc65d3274bb" x="474.084375" y="149.944296" style="stroke: #000000; stroke-width: 0.8"/>
      </g>
     </g>
     <g id="text_27">
      <!-- 5 -->
      <g transform="translate(460.721875 153.743515) scale(0.1 -0.1)">
       <use xlink:href="#DejaVuSans-35"/>
      </g>
     </g>
    </g>
    <g id="ytick_11">
     <g id="line2d_55">
      <path d="M 474.084375 109.878153 
L 836.5 109.878153 
" clip-path="url(#p9db443f0bb)" style="fill: none; stroke: #b0b0b0; stroke-opacity: 0.3; stroke-width: 0.8; stroke-linecap: square"/>
     </g>
     <g id="line2d_56">
      <g>
       <use xlink:href="#mc65d3274bb" x="474.084375" y="109.878153" style="stroke: #000000; stroke-width: 0.8"/>
      </g>
     </g>
     <g id="text_28">
      <!-- 6 -->
      <g transform="translate(460.721875 113.677371) scale(0.1 -0.1)">
       <use xlink:href="#DejaVuSans-36"/>
      </g>
     </g>
    </g>
    <g id="text_29">
     <!-- Gleichgewichts-Quellungsgrad Q_eq -->
     <g transform="translate(454.128281 297.249609) rotate(-90) scale(0.11 -0.11)">
      <use xlink:href="#DejaVuSans-47"/>
      <use xlink:href="#DejaVuSans-6c" transform="translate(77.490234 0)"/>
      <use xlink:href="#DejaVuSans-65" transform="translate(105.273438 0)"/>
      <use xlink:href="#DejaVuSans-69" transform="translate(166.796875 0)"/>
      <use xlink:href="#DejaVuSans-63" transform="translate(194.580078 0)"/>
      <use xlink:href="#DejaVuSans-68" transform="translate(249.560547 0)"/>
      <use xlink:href="#DejaVuSans-67" transform="translate(312.939453 0)"/>
      <use xlink:href="#DejaVuSans-65" transform="translate(376.416016 0)"/>
      <use xlink:href="#DejaVuSans-77" transform="translate(437.939453 0)"/>
      <use xlink:href="#DejaVuSans-69" transform="translate(519.726562 0)"/>
      <use xlink:href="#DejaVuSans-63" transform="translate(547.509766 0)"/>
      <use xlink:href="#DejaVuSans-68" transform="translate(602.490234 0)"/>
      <use xlink:href="#DejaVuSans-74" transform="translate(665.869141 0)"/>
      <use xlink:href="#DejaVuSans-73" transform="translate(705.078125 0)"/>
      <use xlink:href="#DejaVuSans-2d" transform="translate(757.177734 0)"/>
      <use xlink:href="#DejaVuSans-51" transform="translate(796.886719 0)"/>
      <use xlink:href="#DejaVuSans-75" transform="translate(875.597656 0)"/>
      <use xlink:href="#DejaVuSans-65" transform="translate(938.976562 0)"/>
      <use xlink:href="#DejaVuSans-6c" transform="translate(1000.5 0)"/>
      <use xlink:href="#DejaVuSans-6c" transform="translate(1028.283203 0)"/>
      <use xlink:href="#DejaVuSans-75" transform="translate(1056.066406 0)"/>
      <use xlink:href="#DejaVuSans-6e" transform="translate(1119.445312 0)"/>
      <use xlink:href="#DejaVuSans-67" transform="translate(1182.824219 0)"/>
      <use xlink:href="#DejaVuSans-73" transform="translate(1246.300781 0)"/>
      <use xlink:href="#DejaVuSans-67" transform="translate(1298.400391 0)"/>
      <use xlink:href="#DejaVuSans-72" transform="translate(1361.876953 0)"/>
      <use xlink:href="#DejaVuSans-61" transform="translate(1402.990234 0)"/>
      <use xlink:href="#DejaVuSans-64" transform="translate(1464.269531 0)"/>
      <use xlink:href="#DejaVuSans-20" transform="translate(1527.746094 0)"/>
      <use xlink:href="#DejaVuSans-51" transform="translate(1559.533203 0)"/>
      <use xlink:href="#DejaVuSans-5f" transform="translate(1638.244141 0)"/>
      <use xlink:href="#DejaVuSans-65" transform="translate(1688.244141 0)"/>
      <use xlink:href="#DejaVuSans-71" transform="translate(1749.767578 0)"/>
     </g>
    </g>
   </g>
   <g id="line2d_57">
    <path d="M 490.557812 289.447273 
L 497.281665 288.196384 
L 504.005517 286.894186 
L 510.729369 285.538883 
L 517.453221 284.128587 
L 524.177073 282.661315 
L 530.900925 281.134987 
L 537.624777 279.547418 
L 544.348629 277.896319 
L 551.072481 276.179287 
L 557.796333 274.393807 
L 564.520185 272.537244 
L 571.244037 270.606838 
L 577.967889 268.599699 
L 584.691741 266.512805 
L 591.415593 264.342991 
L 598.139445 262.086947 
L 604.863297 259.741212 
L 611.587149 257.302164 
L 618.311001 254.76602 
L 625.034853 252.128822 
L 631.758705 249.386433 
L 638.482557 246.534531 
L 645.206409 243.5686 
L 651.930261 240.483917 
L 658.654114 237.275554 
L 665.377966 233.938357 
L 672.101818 230.466946 
L 678.82567 226.8557 
L 685.549522 223.09875 
L 692.273374 219.189964 
L 698.997226 215.122942 
L 705.721078 210.890999 
L 712.44493 206.487156 
L 719.168782 201.904128 
L 725.892634 197.134308 
L 732.616486 192.169754 
L 739.340338 187.002179 
L 746.06419 181.622929 
L 752.788042 176.022975 
L 759.511894 170.19289 
L 766.235746 164.122839 
L 772.959598 157.802554 
L 779.68345 151.221323 
L 786.407302 144.367965 
L 793.131154 137.230813 
L 799.855006 129.797694 
L 806.578858 122.055906 
L 813.30271 113.992193 
L 820.026562 105.592727 
" clip-path="url(#p9db443f0bb)" style="fill: none; stroke: #2a9d8f; stroke-width: 2; stroke-linecap: square"/>
   </g>
   <g id="patch_12">
    <path d="M 474.084375 298.64 
L 474.084375 96.4 
" style="fill: none; stroke: #000000; stroke-width: 0.8; stroke-linejoin: miter; stroke-linecap: square"/>
   </g>
   <g id="patch_13">
    <path d="M 836.5 298.64 
L 836.5 96.4 
" style="fill: none; stroke: #000000; stroke-width: 0.8; stroke-linejoin: miter; stroke-linecap: square"/>
   </g>
   <g id="patch_14">
    <path d="M 474.084375 298.64 
L 836.5 298.64 
" style="fill: none; stroke: #000000; stroke-width: 0.8; stroke-linejoin: miter; stroke-linecap: square"/>
   </g>
   <g id="patch_15">
    <path d="M 474.084375 96.4 
L 836.5 96.4 
" style="fill: none; stroke: #000000; stroke-width: 0.8; stroke-linejoin: miter; stroke-linecap: square"/>
   </g>
   <g id="text_30">
    <!-- Schwache Vernetzung -->
    <g style="fill: #2a9d8f" transform="translate(492.205156 112.59075) scale(0.08 -0.08)">
     <defs>
      <path id="DejaVuSans-53" d="M 3425 4513 
L 3425 3897 
Q 3066 4069 2747 4153 
Q 2428 4238 2131 4238 
Q 1616 4238 1336 4038 
Q 1056 3838 1056 3469 
Q 1056 3159 1242 3001 
Q 1428 2844 1947 2747 
L 2328 2669 
Q 3034 2534 3370 2195 
Q 3706 1856 3706 1288 
Q 3706 609 3251 259 
Q 2797 -91 1919 -91 
Q 1588 -91 1214 -16 
Q 841 59 441 206 
L 441 856 
Q 825 641 1194 531 
Q 1563 422 1919 422 
Q 2459 422 2753 634 
Q 3047 847 3047 1241 
Q 3047 1584 2836 1778 
Q 2625 1972 2144 2069 
L 1759 2144 
Q 1053 2284 737 2584 
Q 422 2884 422 3419 
Q 422 4038 858 4394 
Q 1294 4750 2059 4750 
Q 2388 4750 2728 4690 
Q 3069 4631 3425 4513 
z
" transform="scale(0.015625)"/>
     </defs>
     <use xlink:href="#DejaVuSans-53"/>
     <use xlink:href="#DejaVuSans-63" transform="translate(63.476562 0)"/>
     <use xlink:href="#DejaVuSans-68" transform="translate(118.457031 0)"/>
     <use xlink:href="#DejaVuSans-77" transform="translate(181.835938 0)"/>
     <use xlink:href="#DejaVuSans-61" transform="translate(263.623047 0)"/>
     <use xlink:href="#DejaVuSans-63" transform="translate(324.902344 0)"/>
     <use xlink:href="#DejaVuSans-68" transform="translate(379.882812 0)"/>
     <use xlink:href="#DejaVuSans-65" transform="translate(443.261719 0)"/>
     <use xlink:href="#DejaVuSans-20" transform="translate(504.785156 0)"/>
     <use xlink:href="#DejaVuSans-56" transform="translate(536.572266 0)"/>
     <use xlink:href="#DejaVuSans-65" transform="translate(597.230469 0)"/>
     <use xlink:href="#DejaVuSans-72" transform="translate(658.753906 0)"/>
     <use xlink:href="#DejaVuSans-6e" transform="translate(698.117188 0)"/>
     <use xlink:href="#DejaVuSans-65" transform="translate(761.496094 0)"/>
     <use xlink:href="#DejaVuSans-74" transform="translate(823.019531 0)"/>
     <use xlink:href="#DejaVuSans-7a" transform="translate(862.228516 0)"/>
     <use xlink:href="#DejaVuSans-75" transform="translate(914.71875 0)"/>
     <use xlink:href="#DejaVuSans-6e" transform="translate(978.097656 0)"/>
     <use xlink:href="#DejaVuSans-67" transform="translate(1041.476562 0)"/>
    </g>
    <!-- → hohe Quellung -->
    <g style="fill: #2a9d8f" transform="translate(492.205156 121.549) scale(0.08 -0.08)">
     <defs>
      <path id="DejaVuSans-2192" d="M 5050 2147 
L 5050 1866 
L 3822 638 
L 3447 1013 
L 4175 1741 
L 366 1741 
L 366 2272 
L 4175 2272 
L 3447 3000 
L 3822 3375 
L 5050 2147 
z
" transform="scale(0.015625)"/>
     </defs>
     <use xlink:href="#DejaVuSans-2192"/>
     <use xlink:href="#DejaVuSans-20" transform="translate(83.789062 0)"/>
     <use xlink:href="#DejaVuSans-68" transform="translate(115.576172 0)"/>
     <use xlink:href="#DejaVuSans-6f" transform="translate(178.955078 0)"/>
     <use xlink:href="#DejaVuSans-68" transform="translate(240.136719 0)"/>
     <use xlink:href="#DejaVuSans-65" transform="translate(303.515625 0)"/>
     <use xlink:href="#DejaVuSans-20" transform="translate(365.039062 0)"/>
     <use xlink:href="#DejaVuSans-51" transform="translate(396.826172 0)"/>
     <use xlink:href="#DejaVuSans-75" transform="translate(475.537109 0)"/>
     <use xlink:href="#DejaVuSans-65" transform="translate(538.916016 0)"/>
     <use xlink:href="#DejaVuSans-6c" transform="translate(600.439453 0)"/>
     <use xlink:href="#DejaVuSans-6c" transform="translate(628.222656 0)"/>
     <use xlink:href="#DejaVuSans-75" transform="translate(656.005859 0)"/>
     <use xlink:href="#DejaVuSans-6e" transform="translate(719.384766 0)"/>
     <use xlink:href="#DejaVuSans-67" transform="translate(782.763672 0)"/>
    </g>
   </g>
   <g id="text_31">
    <!-- Flory-Rehner: Q_eq(Vc) – Vernetzungsdichte -->
    <g transform="translate(523.275312 76.628875) scale(0.12 -0.12)">
     <use xlink:href="#DejaVuSans-46"/>
     <use xlink:href="#DejaVuSans-6c" transform="translate(57.519531 0)"/>
     <use xlink:href="#DejaVuSans-6f" transform="translate(85.302734 0)"/>
     <use xlink:href="#DejaVuSans-72" transform="translate(146.484375 0)"/>
     <use xlink:href="#DejaVuSans-79" transform="translate(187.597656 0)"/>
     <use xlink:href="#DejaVuSans-2d" transform="translate(245.027344 0)"/>
     <use xlink:href="#DejaVuSans-52" transform="translate(281.111328 0)"/>
     <use xlink:href="#DejaVuSans-65" transform="translate(346.09375 0)"/>
     <use xlink:href="#DejaVuSans-68" transform="translate(407.617188 0)"/>
     <use xlink:href="#DejaVuSans-6e" transform="translate(470.996094 0)"/>
     <use xlink:href="#DejaVuSans-65" transform="translate(534.375 0)"/>
     <use xlink:href="#DejaVuSans-72" transform="translate(595.898438 0)"/>
     <use xlink:href="#DejaVuSans-3a" transform="translate(635.261719 0)"/>
     <use xlink:href="#DejaVuSans-20" transform="translate(668.953125 0)"/>
     <use xlink:href="#DejaVuSans-51" transform="translate(700.740234 0)"/>
     <use xlink:href="#DejaVuSans-5f" transform="translate(779.451172 0)"/>
     <use xlink:href="#DejaVuSans-65" transform="translate(829.451172 0)"/>
     <use xlink:href="#DejaVuSans-71" transform="translate(890.974609 0)"/>
     <use xlink:href="#DejaVuSans-28" transform="translate(954.451172 0)"/>
     <use xlink:href="#DejaVuSans-56" transform="translate(993.464844 0)"/>
     <use xlink:href="#DejaVuSans-63" transform="translate(1061.873047 0)"/>
     <use xlink:href="#DejaVuSans-29" transform="translate(1116.853516 0)"/>
     <use xlink:href="#DejaVuSans-20" transform="translate(1155.867188 0)"/>
     <use xlink:href="#DejaVuSans-2013" transform="translate(1187.654297 0)"/>
     <use xlink:href="#DejaVuSans-20" transform="translate(1237.654297 0)"/>
     <use xlink:href="#DejaVuSans-56" transform="translate(1269.441406 0)"/>
     <use xlink:href="#DejaVuSans-65" transform="translate(1330.099609 0)"/>
     <use xlink:href="#DejaVuSans-72" transform="translate(1391.623047 0)"/>
     <use xlink:href="#DejaVuSans-6e" transform="translate(1430.986328 0)"/>
     <use xlink:href="#DejaVuSans-65" transform="translate(1494.365234 0)"/>
     <use xlink:href="#DejaVuSans-74" transform="translate(1555.888672 0)"/>
     <use xlink:href="#DejaVuSans-7a" transform="translate(1595.097656 0)"/>
     <use xlink:href="#DejaVuSans-75" transform="translate(1647.587891 0)"/>
     <use xlink:href="#DejaVuSans-6e" transform="translate(1710.966797 0)"/>
     <use xlink:href="#DejaVuSans-67" transform="translate(1774.345703 0)"/>
     <use xlink:href="#DejaVuSans-73" transform="translate(1837.822266 0)"/>
     <use xlink:href="#DejaVuSans-64" transform="translate(1889.921875 0)"/>
     <use xlink:href="#DejaVuSans-69" transform="translate(1953.398438 0)"/>
     <use xlink:href="#DejaVuSans-63" transform="translate(1981.181641 0)"/>
     <use xlink:href="#DejaVuSans-68" transform="translate(2036.162109 0)"/>
     <use xlink:href="#DejaVuSans-74" transform="translate(2099.541016 0)"/>
     <use xlink:href="#DejaVuSans-65" transform="translate(2138.75 0)"/>
    </g>
    <!-- (χ=0.25, Ethanol) -->
    <g transform="translate(602.18 90.4) scale(0.12 -0.12)">
     <use xlink:href="#DejaVuSans-28"/>
     <use xlink:href="#DejaVuSans-3c7" transform="translate(39.013672 0)"/>
     <use xlink:href="#DejaVuSans-3d" transform="translate(96.777344 0)"/>
     <use xlink:href="#DejaVuSans-30" transform="translate(180.566406 0)"/>
     <use xlink:href="#DejaVuSans-2e" transform="translate(244.189453 0)"/>
     <use xlink:href="#DejaVuSans-32" transform="translate(275.976562 0)"/>
     <use xlink:href="#DejaVuSans-35" transform="translate(339.599609 0)"/>
     <use xlink:href="#DejaVuSans-2c" transform="translate(403.222656 0)"/>
     <use xlink:href="#DejaVuSans-20" transform="translate(435.009766 0)"/>
     <use xlink:href="#DejaVuSans-45" transform="translate(466.796875 0)"/>
     <use xlink:href="#DejaVuSans-74" transform="translate(529.980469 0)"/>
     <use xlink:href="#DejaVuSans-68" transform="translate(569.189453 0)"/>
     <use xlink:href="#DejaVuSans-61" transform="translate(632.568359 0)"/>
     <use xlink:href="#DejaVuSans-6e" transform="translate(693.847656 0)"/>
     <use xlink:href="#DejaVuSans-6f" transform="translate(757.226562 0)"/>
     <use xlink:href="#DejaVuSans-6c" transform="translate(818.408203 0)"/>
     <use xlink:href="#DejaVuSans-29" transform="translate(846.191406 0)"/>
    </g>
   </g>
  </g>
  <g id="text_32">
   <!-- Exp 17: Flory-Rehner-Gleichgewichtsquellung Q_eq(χ) -->
   <g transform="translate(234.572656 17.077969) scale(0.13 -0.13)">
    <defs>
     <path id="DejaVuSans-Bold-45" d="M 588 4666 
L 3834 4666 
L 3834 3756 
L 1791 3756 
L 1791 2888 
L 3713 2888 
L 3713 1978 
L 1791 1978 
L 1791 909 
L 3903 909 
L 3903 0 
L 588 0 
L 588 4666 
z
" transform="scale(0.015625)"/>
     <path id="DejaVuSans-Bold-78" d="M 1422 1791 
L 159 3500 
L 1344 3500 
L 2059 2463 
L 2784 3500 
L 3969 3500 
L 2706 1797 
L 4031 0 
L 2847 0 
L 2059 1106 
L 1281 0 
L 97 0 
L 1422 1791 
z
" transform="scale(0.015625)"/>
     <path id="DejaVuSans-Bold-70" d="M 1656 506 
L 1656 -1331 
L 538 -1331 
L 538 3500 
L 1656 3500 
L 1656 2988 
Q 1888 3294 2169 3439 
Q 2450 3584 2816 3584 
Q 3463 3584 3878 3070 
Q 4294 2556 4294 1747 
Q 4294 938 3878 423 
Q 3463 -91 2816 -91 
Q 2450 -91 2169 54 
Q 1888 200 1656 506 
z
M 2400 2772 
Q 2041 2772 1848 2508 
Q 1656 2244 1656 1747 
Q 1656 1250 1848 986 
Q 2041 722 2400 722 
Q 2759 722 2948 984 
Q 3138 1247 3138 1747 
Q 3138 2247 2948 2509 
Q 2759 2772 2400 2772 
z
" transform="scale(0.015625)"/>
     <path id="DejaVuSans-Bold-20" transform="scale(0.015625)"/>
     <path id="DejaVuSans-Bold-31" d="M 750 831 
L 1813 831 
L 1813 3847 
L 722 3622 
L 722 4441 
L 1806 4666 
L 2950 4666 
L 2950 831 
L 4013 831 
L 4013 0 
L 750 0 
L 750 831 
z
" transform="scale(0.015625)"/>
     <path id="DejaVuSans-Bold-37" d="M 428 4666 
L 3944 4666 
L 3944 3988 
L 2125 0 
L 953 0 
L 2675 3781 
L 428 3781 
L 428 4666 
z
" transform="scale(0.015625)"/>
     <path id="DejaVuSans-Bold-3a" d="M 716 3500 
L 1844 3500 
L 1844 2291 
L 716 2291 
L 716 3500 
z
M 716 1209 
L 1844 1209 
L 1844 0 
L 716 0 
L 716 1209 
z
" transform="scale(0.015625)"/>
     <path id="DejaVuSans-Bold-46" d="M 588 4666 
L 3834 4666 
L 3834 3756 
L 1791 3756 
L 1791 2888 
L 3713 2888 
L 3713 1978 
L 1791 1978 
L 1791 0 
L 588 0 
L 588 4666 
z
" transform="scale(0.015625)"/>
     <path id="DejaVuSans-Bold-6c" d="M 538 4863 
L 1656 4863 
L 1656 0 
L 538 0 
L 538 4863 
z
" transform="scale(0.015625)"/>
     <path id="DejaVuSans-Bold-6f" d="M 2203 2784 
Q 1831 2784 1636 2517 
Q 1441 2250 1441 1747 
Q 1441 1244 1636 976 
Q 1831 709 2203 709 
Q 2569 709 2762 976 
Q 2956 1244 2956 1747 
Q 2956 2250 2762 2517 
Q 2569 2784 2203 2784 
z
M 2203 3584 
Q 3106 3584 3614 3096 
Q 4122 2609 4122 1747 
Q 4122 884 3614 396 
Q 3106 -91 2203 -91 
Q 1297 -91 786 396 
Q 275 884 275 1747 
Q 275 2609 786 3096 
Q 1297 3584 2203 3584 
z
" transform="scale(0.015625)"/>
     <path id="DejaVuSans-Bold-72" d="M 3138 2547 
Q 2991 2616 2845 2648 
Q 2700 2681 2553 2681 
Q 2122 2681 1889 2404 
Q 1656 2128 1656 1613 
L 1656 0 
L 538 0 
L 538 3500 
L 1656 3500 
L 1656 2925 
Q 1872 3269 2151 3426 
Q 2431 3584 2822 3584 
Q 2878 3584 2943 3579 
Q 3009 3575 3134 3559 
L 3138 2547 
z
" transform="scale(0.015625)"/>
     <path id="DejaVuSans-Bold-79" d="M 78 3500 
L 1197 3500 
L 2138 1125 
L 2938 3500 
L 4056 3500 
L 2584 -331 
Q 2363 -916 2067 -1148 
Q 1772 -1381 1288 -1381 
L 641 -1381 
L 641 -647 
L 991 -647 
Q 1275 -647 1404 -556 
Q 1534 -466 1606 -231 
L 1638 -134 
L 78 3500 
z
" transform="scale(0.015625)"/>
     <path id="DejaVuSans-Bold-2d" d="M 347 2297 
L 2309 2297 
L 2309 1388 
L 347 1388 
L 347 2297 
z
" transform="scale(0.015625)"/>
     <path id="DejaVuSans-Bold-52" d="M 2297 2597 
Q 2675 2597 2839 2737 
Q 3003 2878 3003 3200 
Q 3003 3519 2839 3656 
Q 2675 3794 2297 3794 
L 1791 3794 
L 1791 2597 
L 2297 2597 
z
M 1791 1766 
L 1791 0 
L 588 0 
L 588 4666 
L 2425 4666 
Q 3347 4666 3776 4356 
Q 4206 4047 4206 3378 
Q 4206 2916 3982 2619 
Q 3759 2322 3309 2181 
Q 3556 2125 3751 1926 
Q 3947 1728 4147 1325 
L 4800 0 
L 3519 0 
L 2950 1159 
Q 2778 1509 2601 1637 
Q 2425 1766 2131 1766 
L 1791 1766 
z
" transform="scale(0.015625)"/>
     <path id="DejaVuSans-Bold-65" d="M 4031 1759 
L 4031 1441 
L 1416 1441 
Q 1456 1047 1700 850 
Q 1944 653 2381 653 
Q 2734 653 3104 758 
Q 3475 863 3866 1075 
L 3866 213 
Q 3469 63 3072 -14 
Q 2675 -91 2278 -91 
Q 1328 -91 801 392 
Q 275 875 275 1747 
Q 275 2603 792 3093 
Q 1309 3584 2216 3584 
Q 3041 3584 3536 3087 
Q 4031 2591 4031 1759 
z
M 2881 2131 
Q 2881 2450 2695 2645 
Q 2509 2841 2209 2841 
Q 1884 2841 1681 2658 
Q 1478 2475 1428 2131 
L 2881 2131 
z
" transform="scale(0.015625)"/>
     <path id="DejaVuSans-Bold-68" d="M 4056 2131 
L 4056 0 
L 2931 0 
L 2931 347 
L 2931 1625 
Q 2931 2084 2911 2256 
Q 2891 2428 2841 2509 
Q 2775 2619 2662 2680 
Q 2550 2741 2406 2741 
Q 2056 2741 1856 2470 
Q 1656 2200 1656 1722 
L 1656 0 
L 538 0 
L 538 4863 
L 1656 4863 
L 1656 2988 
Q 1909 3294 2193 3439 
Q 2478 3584 2822 3584 
Q 3428 3584 3742 3212 
Q 4056 2841 4056 2131 
z
" transform="scale(0.015625)"/>
     <path id="DejaVuSans-Bold-6e" d="M 4056 2131 
L 4056 0 
L 2931 0 
L 2931 347 
L 2931 1631 
Q 2931 2084 2911 2256 
Q 2891 2428 2841 2509 
Q 2775 2619 2662 2680 
Q 2550 2741 2406 2741 
Q 2056 2741 1856 2470 
Q 1656 2200 1656 1722 
L 1656 0 
L 538 0 
L 538 3500 
L 1656 3500 
L 1656 2988 
Q 1909 3294 2193 3439 
Q 2478 3584 2822 3584 
Q 3428 3584 3742 3212 
Q 4056 2841 4056 2131 
z
" transform="scale(0.015625)"/>
     <path id="DejaVuSans-Bold-47" d="M 4781 347 
Q 4331 128 3847 18 
Q 3363 -91 2847 -91 
Q 1681 -91 1000 561 
Q 319 1213 319 2328 
Q 319 3456 1012 4103 
Q 1706 4750 2913 4750 
Q 3378 4750 3804 4662 
Q 4231 4575 4609 4403 
L 4609 3438 
Q 4219 3659 3833 3768 
Q 3447 3878 3059 3878 
Q 2341 3878 1952 3476 
Q 1563 3075 1563 2328 
Q 1563 1588 1938 1184 
Q 2313 781 3003 781 
Q 3191 781 3352 804 
Q 3513 828 3641 878 
L 3641 1784 
L 2906 1784 
L 2906 2591 
L 4781 2591 
L 4781 347 
z
" transform="scale(0.015625)"/>
     <path id="DejaVuSans-Bold-69" d="M 538 3500 
L 1656 3500 
L 1656 0 
L 538 0 
L 538 3500 
z
M 538 4863 
L 1656 4863 
L 1656 3950 
L 538 3950 
L 538 4863 
z
" transform="scale(0.015625)"/>
     <path id="DejaVuSans-Bold-63" d="M 3366 3391 
L 3366 2478 
Q 3138 2634 2908 2709 
Q 2678 2784 2431 2784 
Q 1963 2784 1702 2511 
Q 1441 2238 1441 1747 
Q 1441 1256 1702 982 
Q 1963 709 2431 709 
Q 2694 709 2930 787 
Q 3166 866 3366 1019 
L 3366 103 
Q 3103 6 2833 -42 
Q 2563 -91 2291 -91 
Q 1344 -91 809 395 
Q 275 881 275 1747 
Q 275 2613 809 3098 
Q 1344 3584 2291 3584 
Q 2566 3584 2833 3536 
Q 3100 3488 3366 3391 
z
" transform="scale(0.015625)"/>
     <path id="DejaVuSans-Bold-67" d="M 2919 594 
Q 2688 288 2409 144 
Q 2131 0 1766 0 
Q 1125 0 706 504 
Q 288 1009 288 1791 
Q 288 2575 706 3076 
Q 1125 3578 1766 3578 
Q 2131 3578 2409 3434 
Q 2688 3291 2919 2981 
L 2919 3500 
L 4044 3500 
L 4044 353 
Q 4044 -491 3511 -936 
Q 2978 -1381 1966 -1381 
Q 1638 -1381 1331 -1331 
Q 1025 -1281 716 -1178 
L 716 -306 
Q 1009 -475 1290 -558 
Q 1572 -641 1856 -641 
Q 2406 -641 2662 -400 
Q 2919 -159 2919 353 
L 2919 594 
z
M 2181 2772 
Q 1834 2772 1640 2515 
Q 1447 2259 1447 1791 
Q 1447 1309 1634 1061 
Q 1822 813 2181 813 
Q 2531 813 2725 1069 
Q 2919 1325 2919 1791 
Q 2919 2259 2725 2515 
Q 2531 2772 2181 2772 
z
" transform="scale(0.015625)"/>
     <path id="DejaVuSans-Bold-77" d="M 225 3500 
L 1313 3500 
L 1900 1088 
L 2491 3500 
L 3425 3500 
L 4013 1113 
L 4603 3500 
L 5691 3500 
L 4769 0 
L 3547 0 
L 2956 2406 
L 2369 0 
L 1147 0 
L 225 3500 
z
" transform="scale(0.015625)"/>
     <path id="DejaVuSans-Bold-74" d="M 1759 4494 
L 1759 3500 
L 2913 3500 
L 2913 2700 
L 1759 2700 
L 1759 1216 
Q 1759 972 1856 886 
Q 1953 800 2241 800 
L 2816 800 
L 2816 0 
L 1856 0 
Q 1194 0 917 276 
Q 641 553 641 1216 
L 641 2700 
L 84 2700 
L 84 3500 
L 641 3500 
L 641 4494 
L 1759 4494 
z
" transform="scale(0.015625)"/>
     <path id="DejaVuSans-Bold-73" d="M 3272 3391 
L 3272 2541 
Q 2913 2691 2578 2766 
Q 2244 2841 1947 2841 
Q 1628 2841 1473 2761 
Q 1319 2681 1319 2516 
Q 1319 2381 1436 2309 
Q 1553 2238 1856 2203 
L 2053 2175 
Q 2913 2066 3209 1816 
Q 3506 1566 3506 1031 
Q 3506 472 3093 190 
Q 2681 -91 1863 -91 
Q 1516 -91 1145 -36 
Q 775 19 384 128 
L 384 978 
Q 719 816 1070 734 
Q 1422 653 1784 653 
Q 2113 653 2278 743 
Q 2444 834 2444 1013 
Q 2444 1163 2330 1236 
Q 2216 1309 1875 1350 
L 1678 1375 
Q 931 1469 631 1722 
Q 331 1975 331 2491 
Q 331 3047 712 3315 
Q 1094 3584 1881 3584 
Q 2191 3584 2531 3537 
Q 2872 3491 3272 3391 
z
" transform="scale(0.015625)"/>
     <path id="DejaVuSans-Bold-71" d="M 2181 2772 
Q 1825 2772 1636 2509 
Q 1447 2247 1447 1747 
Q 1447 1247 1636 984 
Q 1825 722 2181 722 
Q 2541 722 2730 984 
Q 2919 1247 2919 1747 
Q 2919 2247 2730 2509 
Q 2541 2772 2181 2772 
z
M 2919 506 
Q 2688 197 2409 53 
Q 2131 -91 1766 -91 
Q 1119 -91 703 423 
Q 288 938 288 1747 
Q 288 2556 703 3067 
Q 1119 3578 1766 3578 
Q 2131 3578 2409 3434 
Q 2688 3291 2919 2981 
L 2919 3500 
L 4044 3500 
L 4044 -1331 
L 2919 -1331 
L 2919 506 
z
" transform="scale(0.015625)"/>
     <path id="DejaVuSans-Bold-75" d="M 500 1363 
L 500 3500 
L 1625 3500 
L 1625 3150 
Q 1625 2866 1622 2436 
Q 1619 2006 1619 1863 
Q 1619 1441 1641 1255 
Q 1663 1069 1716 984 
Q 1784 875 1895 815 
Q 2006 756 2150 756 
Q 2500 756 2700 1025 
Q 2900 1294 2900 1772 
L 2900 3500 
L 4019 3500 
L 4019 0 
L 2900 0 
L 2900 506 
Q 2647 200 2364 54 
Q 2081 -91 1741 -91 
Q 1134 -91 817 281 
Q 500 653 500 1363 
z
" transform="scale(0.015625)"/>
     <path id="DejaVuSans-Bold-51" d="M 2847 -84 
L 2753 -84 
Q 1600 -84 959 553 
Q 319 1191 319 2328 
Q 319 3463 958 4106 
Q 1597 4750 2719 4750 
Q 3853 4750 4486 4112 
Q 5119 3475 5119 2328 
Q 5119 1541 4783 972 
Q 4447 403 3816 116 
L 4756 -934 
L 3609 -934 
L 2847 -84 
z
M 2719 3878 
Q 2169 3878 1866 3472 
Q 1563 3066 1563 2328 
Q 1563 1578 1859 1179 
Q 2156 781 2719 781 
Q 3272 781 3575 1187 
Q 3878 1594 3878 2328 
Q 3878 3066 3575 3472 
Q 3272 3878 2719 3878 
z
" transform="scale(0.015625)"/>
     <path id="DejaVuSans-Bold-5f" d="M 3200 -916 
L 3200 -1509 
L 0 -1509 
L 0 -916 
L 3200 -916 
z
" transform="scale(0.015625)"/>
     <path id="DejaVuSans-Bold-28" d="M 2413 -844 
L 1484 -844 
Q 1006 -72 778 623 
Q 550 1319 550 2003 
Q 550 2688 779 3389 
Q 1009 4091 1484 4856 
L 2413 4856 
Q 2013 4116 1813 3408 
Q 1613 2700 1613 2009 
Q 1613 1319 1811 609 
Q 2009 -100 2413 -844 
z
" transform="scale(0.015625)"/>
     <path id="DejaVuSans-Bold-3c7" d="M 2134 2303 
L 2784 3500 
L 3969 3500 
L 2638 1047 
L 3128 -181 
Q 3228 -428 3339 -512 
Q 3450 -597 3619 -597 
L 3969 -597 
L 3969 -1331 
L 3447 -1331 
Q 2878 -1331 2581 -1098 
Q 2284 -866 2050 -281 
L 1994 -141 
L 1347 -1331 
L 163 -1331 
L 1491 1116 
L 997 2350 
Q 894 2606 778 2686 
Q 663 2766 513 2766 
L 163 2766 
L 163 3500 
L 809 3500 
Q 1219 3500 1525 3279 
Q 1831 3059 2075 2450 
L 2134 2303 
z
" transform="scale(0.015625)"/>
     <path id="DejaVuSans-Bold-29" d="M 513 -844 
Q 913 -100 1113 609 
Q 1313 1319 1313 2009 
Q 1313 2700 1113 3408 
Q 913 4116 513 4856 
L 1441 4856 
Q 1916 4091 2145 3389 
Q 2375 2688 2375 2003 
Q 2375 1319 2147 623 
Q 1919 -72 1441 -844 
L 513 -844 
z
" transform="scale(0.015625)"/>
    </defs>
    <use xlink:href="#DejaVuSans-Bold-45"/>
    <use xlink:href="#DejaVuSans-Bold-78" transform="translate(68.310547 0)"/>
    <use xlink:href="#DejaVuSans-Bold-70" transform="translate(132.8125 0)"/>
    <use xlink:href="#DejaVuSans-Bold-20" transform="translate(204.394531 0)"/>
    <use xlink:href="#DejaVuSans-Bold-31" transform="translate(239.208984 0)"/>
    <use xlink:href="#DejaVuSans-Bold-37" transform="translate(308.789062 0)"/>
    <use xlink:href="#DejaVuSans-Bold-3a" transform="translate(378.369141 0)"/>
    <use xlink:href="#DejaVuSans-Bold-20" transform="translate(418.359375 0)"/>
    <use xlink:href="#DejaVuSans-Bold-46" transform="translate(453.173828 0)"/>
    <use xlink:href="#DejaVuSans-Bold-6c" transform="translate(521.484375 0)"/>
    <use xlink:href="#DejaVuSans-Bold-6f" transform="translate(555.761719 0)"/>
    <use xlink:href="#DejaVuSans-Bold-72" transform="translate(624.462891 0)"/>
    <use xlink:href="#DejaVuSans-Bold-79" transform="translate(673.779297 0)"/>
    <use xlink:href="#DejaVuSans-Bold-2d" transform="translate(738.964844 0)"/>
    <use xlink:href="#DejaVuSans-Bold-52" transform="translate(780.46875 0)"/>
    <use xlink:href="#DejaVuSans-Bold-65" transform="translate(857.470703 0)"/>
    <use xlink:href="#DejaVuSans-Bold-68" transform="translate(925.292969 0)"/>
    <use xlink:href="#DejaVuSans-Bold-6e" transform="translate(996.484375 0)"/>
    <use xlink:href="#DejaVuSans-Bold-65" transform="translate(1067.675781 0)"/>
    <use xlink:href="#DejaVuSans-Bold-72" transform="translate(1135.498047 0)"/>
    <use xlink:href="#DejaVuSans-Bold-2d" transform="translate(1184.814453 0)"/>
    <use xlink:href="#DejaVuSans-Bold-47" transform="translate(1226.318359 0)"/>
    <use xlink:href="#DejaVuSans-Bold-6c" transform="translate(1308.398438 0)"/>
    <use xlink:href="#DejaVuSans-Bold-65" transform="translate(1342.675781 0)"/>
    <use xlink:href="#DejaVuSans-Bold-69" transform="translate(1410.498047 0)"/>
    <use xlink:href="#DejaVuSans-Bold-63" transform="translate(1444.775391 0)"/>
    <use xlink:href="#DejaVuSans-Bold-68" transform="translate(1504.052734 0)"/>
    <use xlink:href="#DejaVuSans-Bold-67" transform="translate(1575.244141 0)"/>
    <use xlink:href="#DejaVuSans-Bold-65" transform="translate(1646.826172 0)"/>
    <use xlink:href="#DejaVuSans-Bold-77" transform="translate(1714.648438 0)"/>
    <use xlink:href="#DejaVuSans-Bold-69" transform="translate(1807.03125 0)"/>
    <use xlink:href="#DejaVuSans-Bold-63" transform="translate(1841.308594 0)"/>
    <use xlink:href="#DejaVuSans-Bold-68" transform="translate(1900.585938 0)"/>
    <use xlink:href="#DejaVuSans-Bold-74" transform="translate(1971.777344 0)"/>
    <use xlink:href="#DejaVuSans-Bold-73" transform="translate(2019.580078 0)"/>
    <use xlink:href="#DejaVuSans-Bold-71" transform="translate(2079.101562 0)"/>
    <use xlink:href="#DejaVuSans-Bold-75" transform="translate(2150.683594 0)"/>
    <use xlink:href="#DejaVuSans-Bold-65" transform="translate(2221.875 0)"/>
    <use xlink:href="#DejaVuSans-Bold-6c" transform="translate(2289.697266 0)"/>
    <use xlink:href="#DejaVuSans-Bold-6c" transform="translate(2323.974609 0)"/>
    <use xlink:href="#DejaVuSans-Bold-75" transform="translate(2358.251953 0)"/>
    <use xlink:href="#DejaVuSans-Bold-6e" transform="translate(2429.443359 0)"/>
    <use xlink:href="#DejaVuSans-Bold-67" transform="translate(2500.634766 0)"/>
    <use xlink:href="#DejaVuSans-Bold-20" transform="translate(2572.216797 0)"/>
    <use xlink:href="#DejaVuSans-Bold-51" transform="translate(2607.03125 0)"/>
    <use xlink:href="#DejaVuSans-Bold-5f" transform="translate(2692.041016 0)"/>
    <use xlink:href="#DejaVuSans-Bold-65" transform="translate(2742.041016 0)"/>
    <use xlink:href="#DejaVuSans-Bold-71" transform="translate(2809.863281 0)"/>
    <use xlink:href="#DejaVuSans-Bold-28" transform="translate(2881.445312 0)"/>
    <use xlink:href="#DejaVuSans-Bold-3c7" transform="translate(2927.148438 0)"/>
    <use xlink:href="#DejaVuSans-Bold-29" transform="translate(2991.650391 0)"/>
   </g>
  </g>
 </g>
 <defs>
  <clipPath id="pd67aa4c4fb">
   <rect x="55.834375" y="96.4" width="362.415625" height="202.24"/>
  </clipPath>
  <clipPath id="p9db443f0bb">
   <rect x="474.084375" y="96.4" width="362.415625" height="202.24"/>
  </clipPath>
 </defs>
</svg>
