<?xml version="1.0" encoding="utf-8" standalone="no"?>
<!DOCTYPE svg PUBLIC "-//W3C//DTD SVG 1.1//EN"
  "http://www.w3.org/Graphics/SVG/1.1/DTD/svg11.dtd">
<svg xmlns:xlink="http://www.w3.org/1999/xlink" width="864pt" height="360pt" viewBox="0 0 864 360" xmlns="http://www.w3.org/2000/svg" version="1.1">
 <metadata>
  <rdf:RDF xmlns:dc="http://purl.org/dc/elements/1.1/" xmlns:cc="http://creativecommons.org/ns#" xmlns:rdf="http://www.w3.org/1999/02/22-rdf-syntax-ns#">
   <cc:Work>
    <dc:type rdf:resource="http://purl.org/dc/dcmitype/StillImage"/>
    <dc:date>2026-02-27T22:40:18.393011</dc:date>
    <dc:format>image/svg+xml</dc:format>
    <dc:creator>
     <cc:Agent>
      <dc:title>Matplotlib v3.10.8, https://matplotlib.org/</dc:title>
     </cc:Agent>
    </dc:creator>
   </cc:Work>
  </rdf:RDF>
 </metadata>
 <defs>
  <style type="text/css">*{stroke-linejoin: round; stroke-linecap: butt}</style>
 </defs>
 <g id="figure_1">
  <g id="patch_1">
   <path d="M 0 360 
L 864 360 
L 864 0 
L 0 0 
z
" style="fill: #ffffff"/>
  </g>
  <g id="axes_1">
   <g id="patch_2">
    <path d="M 65.125 299.9 
L 408.685238 299.9 
L 408.685238 95.2 
L 65.125 95.2 
z
" style="fill: #ffffff"/>
   </g>
   <g id="matplotlib.axis_1">
    <g id="xtick_1">
     <g id="line2d_1">
      <path d="M 82.303012 299.9 
L 82.303012 95.2 
" clip-path="url(#p8a2b426519)" style="fill: none; stroke: #b0b0b0; stroke-opacity: 0.3; stroke-width: 0.8; stroke-linecap: square"/>
     </g>
     <g id="line2d_2">
      <defs>
       <path id="ma7e010f720" d="M 0 0 
L 0 3.5 
" style="stroke: #000000; stroke-width: 0.8"/>
      </defs>
      <g>
       <use xlink:href="#ma7e010f720" x="82.303012" y="299.9" style="stroke: #000000; stroke-width: 0.8"/>
      </g>
     </g>
     <g id="text_1">
      <!-- 400 -->
      <g transform="translate(72.759262 314.498438) scale(0.1 -0.1)">
       <defs>
        <path id="DejaVuSans-34" d="M 2419 4116 
L 825 1625 
L 2419 1625 
L 2419 4116 
z
M 2253 4666 
L 3047 4666 
L 3047 1625 
L 3713 1625 
L 3713 1100 
L 3047 1100 
L 3047 0 
L 2419 0 
L 2419 1100 
L 313 1100 
L 313 1709 
L 2253 4666 
z
" transform="scale(0.015625)"/>
        <path id="DejaVuSans-30" d="M 2034 4250 
Q 1547 4250 1301 3770 
Q 1056 3291 1056 2328 
Q 1056 1369 1301 889 
Q 1547 409 2034 409 
Q 2525 409 2770 889 
Q 3016 1369 3016 2328 
Q 3016 3291 2770 3770 
Q 2525 4250 2034 4250 
z
M 2034 4750 
Q 2819 4750 3233 4129 
Q 3647 3509 3647 2328 
Q 3647 1150 3233 529 
Q 2819 -91 2034 -91 
Q 1250 -91 836 529 
Q 422 1150 422 2328 
Q 422 3509 836 4129 
Q 1250 4750 2034 4750 
z
" transform="scale(0.015625)"/>
       </defs>
       <use xlink:href="#DejaVuSans-34"/>
       <use xlink:href="#DejaVuSans-30" transform="translate(63.623047 0)"/>
       <use xlink:href="#DejaVuSans-30" transform="translate(127.246094 0)"/>
      </g>
     </g>
    </g>
    <g id="xtick_2">
     <g id="line2d_3">
      <path d="M 125.248042 299.9 
L 125.248042 95.2 
" clip-path="url(#p8a2b426519)" style="fill: none; stroke: #b0b0b0; stroke-opacity: 0.3; stroke-width: 0.8; stroke-linecap: square"/>
     </g>
     <g id="line2d_4">
      <g>
       <use xlink:href="#ma7e010f720" x="125.248042" y="299.9" style="stroke: #000000; stroke-width: 0.8"/>
      </g>
     </g>
     <g id="text_2">
      <!-- 450 -->
      <g transform="translate(115.704292 314.498438) scale(0.1 -0.1)">
       <defs>
        <path id="DejaVuSans-35" d="M 691 4666 
L 3169 4666 
L 3169 4134 
L 1269 4134 
L 1269 2991 
Q 1406 3038 1543 3061 
Q 1681 3084 1819 3084 
Q 2600 3084 3056 2656 
Q 3513 2228 3513 1497 
Q 3513 744 3044 326 
Q 2575 -91 1722 -91 
Q 1428 -91 1123 -41 
Q 819 9 494 109 
L 494 744 
Q 775 591 1075 516 
Q 1375 441 1709 441 
Q 2250 441 2565 725 
Q 2881 1009 2881 1497 
Q 2881 1984 2565 2268 
Q 2250 2553 1709 2553 
Q 1456 2553 1204 2497 
Q 953 2441 691 2322 
L 691 4666 
z
" transform="scale(0.015625)"/>
       </defs>
       <use xlink:href="#DejaVuSans-34"/>
       <use xlink:href="#DejaVuSans-35" transform="translate(63.623047 0)"/>
       <use xlink:href="#DejaVuSans-30" transform="translate(127.246094 0)"/>
      </g>
     </g>
    </g>
    <g id="xtick_3">
     <g id="line2d_5">
      <path d="M 168.193071 299.9 
L 168.193071 95.2 
" clip-path="url(#p8a2b426519)" style="fill: none; stroke: #b0b0b0; stroke-opacity: 0.3; stroke-width: 0.8; stroke-linecap: square"/>
     </g>
     <g id="line2d_6">
      <g>
       <use xlink:href="#ma7e010f720" x="168.193071" y="299.9" style="stroke: #000000; stroke-width: 0.8"/>
      </g>
     </g>
     <g id="text_3">
      <!-- 500 -->
      <g transform="translate(158.649321 314.498438) scale(0.1 -0.1)">
       <use xlink:href="#DejaVuSans-35"/>
       <use xlink:href="#DejaVuSans-30" transform="translate(63.623047 0)"/>
       <use xlink:href="#DejaVuSans-30" transform="translate(127.246094 0)"/>
      </g>
     </g>
    </g>
    <g id="xtick_4">
     <g id="line2d_7">
      <path d="M 211.138101 299.9 
L 211.138101 95.2 
" clip-path="url(#p8a2b426519)" style="fill: none; stroke: #b0b0b0; stroke-opacity: 0.3; stroke-width: 0.8; stroke-linecap: square"/>
     </g>
     <g id="line2d_8">
      <g>
       <use xlink:href="#ma7e010f720" x="211.138101" y="299.9" style="stroke: #000000; stroke-width: 0.8"/>
      </g>
     </g>
     <g id="text_4">
      <!-- 550 -->
      <g transform="translate(201.594351 314.498438) scale(0.1 -0.1)">
       <use xlink:href="#DejaVuSans-35"/>
       <use xlink:href="#DejaVuSans-35" transform="translate(63.623047 0)"/>
       <use xlink:href="#DejaVuSans-30" transform="translate(127.246094 0)"/>
      </g>
     </g>
    </g>
    <g id="xtick_5">
     <g id="line2d_9">
      <path d="M 254.083131 299.9 
L 254.083131 95.2 
" clip-path="url(#p8a2b426519)" style="fill: none; stroke: #b0b0b0; stroke-opacity: 0.3; stroke-width: 0.8; stroke-linecap: square"/>
     </g>
     <g id="line2d_10">
      <g>
       <use xlink:href="#ma7e010f720" x="254.083131" y="299.9" style="stroke: #000000; stroke-width: 0.8"/>
      </g>
     </g>
     <g id="text_5">
      <!-- 600 -->
      <g transform="translate(244.539381 314.498438) scale(0.1 -0.1)">
       <defs>
        <path id="DejaVuSans-36" d="M 2113 2584 
Q 1688 2584 1439 2293 
Q 1191 2003 1191 1497 
Q 1191 994 1439 701 
Q 1688 409 2113 409 
Q 2538 409 2786 701 
Q 3034 994 3034 1497 
Q 3034 2003 2786 2293 
Q 2538 2584 2113 2584 
z
M 3366 4563 
L 3366 3988 
Q 3128 4100 2886 4159 
Q 2644 4219 2406 4219 
Q 1781 4219 1451 3797 
Q 1122 3375 1075 2522 
Q 1259 2794 1537 2939 
Q 1816 3084 2150 3084 
Q 2853 3084 3261 2657 
Q 3669 2231 3669 1497 
Q 3669 778 3244 343 
Q 2819 -91 2113 -91 
Q 1303 -91 875 529 
Q 447 1150 447 2328 
Q 447 3434 972 4092 
Q 1497 4750 2381 4750 
Q 2619 4750 2861 4703 
Q 3103 4656 3366 4563 
z
" transform="scale(0.015625)"/>
       </defs>
       <use xlink:href="#DejaVuSans-36"/>
       <use xlink:href="#DejaVuSans-30" transform="translate(63.623047 0)"/>
       <use xlink:href="#DejaVuSans-30" transform="translate(127.246094 0)"/>
      </g>
     </g>
    </g>
    <g id="xtick_6">
     <g id="line2d_11">
      <path d="M 297.028161 299.9 
L 297.028161 95.2 
" clip-path="url(#p8a2b426519)" style="fill: none; stroke: #b0b0b0; stroke-opacity: 0.3; stroke-width: 0.8; stroke-linecap: square"/>
     </g>
     <g id="line2d_12">
      <g>
       <use xlink:href="#ma7e010f720" x="297.028161" y="299.9" style="stroke: #000000; stroke-width: 0.8"/>
      </g>
     </g>
     <g id="text_6">
      <!-- 650 -->
      <g transform="translate(287.484411 314.498438) scale(0.1 -0.1)">
       <use xlink:href="#DejaVuSans-36"/>
       <use xlink:href="#DejaVuSans-35" transform="translate(63.623047 0)"/>
       <use xlink:href="#DejaVuSans-30" transform="translate(127.246094 0)"/>
      </g>
     </g>
    </g>
    <g id="xtick_7">
     <g id="line2d_13">
      <path d="M 339.97319 299.9 
L 339.97319 95.2 
" clip-path="url(#p8a2b426519)" style="fill: none; stroke: #b0b0b0; stroke-opacity: 0.3; stroke-width: 0.8; stroke-linecap: square"/>
     </g>
     <g id="line2d_14">
      <g>
       <use xlink:href="#ma7e010f720" x="339.97319" y="299.9" style="stroke: #000000; stroke-width: 0.8"/>
      </g>
     </g>
     <g id="text_7">
      <!-- 700 -->
      <g transform="translate(330.42944 314.498438) scale(0.1 -0.1)">
       <defs>
        <path id="DejaVuSans-37" d="M 525 4666 
L 3525 4666 
L 3525 4397 
L 1831 0 
L 1172 0 
L 2766 4134 
L 525 4134 
L 525 4666 
z
" transform="scale(0.015625)"/>
       </defs>
       <use xlink:href="#DejaVuSans-37"/>
       <use xlink:href="#DejaVuSans-30" transform="translate(63.623047 0)"/>
       <use xlink:href="#DejaVuSans-30" transform="translate(127.246094 0)"/>
      </g>
     </g>
    </g>
    <g id="xtick_8">
     <g id="line2d_15">
      <path d="M 382.91822 299.9 
L 382.91822 95.2 
" clip-path="url(#p8a2b426519)" style="fill: none; stroke: #b0b0b0; stroke-opacity: 0.3; stroke-width: 0.8; stroke-linecap: square"/>
     </g>
     <g id="line2d_16">
      <g>
       <use xlink:href="#ma7e010f720" x="382.91822" y="299.9" style="stroke: #000000; stroke-width: 0.8"/>
      </g>
     </g>
     <g id="text_8">
      <!-- 750 -->
      <g transform="translate(373.37447 314.498438) scale(0.1 -0.1)">
       <use xlink:href="#DejaVuSans-37"/>
       <use xlink:href="#DejaVuSans-35" transform="translate(63.623047 0)"/>
       <use xlink:href="#DejaVuSans-30" transform="translate(127.246094 0)"/>
      </g>
     </g>
    </g>
    <g id="text_9">
     <!-- Wellenlänge λ (nm) -->
     <g transform="translate(183.33426 328.936406) scale(0.11 -0.11)">
      <defs>
       <path id="DejaVuSans-57" d="M 213 4666 
L 850 4666 
L 1831 722 
L 2809 4666 
L 3519 4666 
L 4500 722 
L 5478 4666 
L 6119 4666 
L 4947 0 
L 4153 0 
L 3169 4050 
L 2175 0 
L 1381 0 
L 213 4666 
z
" transform="scale(0.015625)"/>
       <path id="DejaVuSans-65" d="M 3597 1894 
L 3597 1613 
L 953 1613 
Q 991 1019 1311 708 
Q 1631 397 2203 397 
Q 2534 397 2845 478 
Q 3156 559 3463 722 
L 3463 178 
Q 3153 47 2828 -22 
Q 2503 -91 2169 -91 
Q 1331 -91 842 396 
Q 353 884 353 1716 
Q 353 2575 817 3079 
Q 1281 3584 2069 3584 
Q 2775 3584 3186 3129 
Q 3597 2675 3597 1894 
z
M 3022 2063 
Q 3016 2534 2758 2815 
Q 2500 3097 2075 3097 
Q 1594 3097 1305 2825 
Q 1016 2553 972 2059 
L 3022 2063 
z
" transform="scale(0.015625)"/>
       <path id="DejaVuSans-6c" d="M 603 4863 
L 1178 4863 
L 1178 0 
L 603 0 
L 603 4863 
z
" transform="scale(0.015625)"/>
       <path id="DejaVuSans-6e" d="M 3513 2113 
L 3513 0 
L 2938 0 
L 2938 2094 
Q 2938 2591 2744 2837 
Q 2550 3084 2163 3084 
Q 1697 3084 1428 2787 
Q 1159 2491 1159 1978 
L 1159 0 
L 581 0 
L 581 3500 
L 1159 3500 
L 1159 2956 
Q 1366 3272 1645 3428 
Q 1925 3584 2291 3584 
Q 2894 3584 3203 3211 
Q 3513 2838 3513 2113 
z
" transform="scale(0.015625)"/>
       <path id="DejaVuSans-e4" d="M 2194 1759 
Q 1497 1759 1228 1600 
Q 959 1441 959 1056 
Q 959 750 1161 570 
Q 1363 391 1709 391 
Q 2188 391 2477 730 
Q 2766 1069 2766 1631 
L 2766 1759 
L 2194 1759 
z
M 3341 1997 
L 3341 0 
L 2766 0 
L 2766 531 
Q 2569 213 2275 61 
Q 1981 -91 1556 -91 
Q 1019 -91 701 211 
Q 384 513 384 1019 
Q 384 1609 779 1909 
Q 1175 2209 1959 2209 
L 2766 2209 
L 2766 2266 
Q 2766 2663 2505 2880 
Q 2244 3097 1772 3097 
Q 1472 3097 1187 3025 
Q 903 2953 641 2809 
L 641 3341 
Q 956 3463 1253 3523 
Q 1550 3584 1831 3584 
Q 2591 3584 2966 3190 
Q 3341 2797 3341 1997 
z
M 2150 4850 
L 2784 4850 
L 2784 4219 
L 2150 4219 
L 2150 4850 
z
M 928 4850 
L 1562 4850 
L 1562 4219 
L 928 4219 
L 928 4850 
z
" transform="scale(0.015625)"/>
       <path id="DejaVuSans-67" d="M 2906 1791 
Q 2906 2416 2648 2759 
Q 2391 3103 1925 3103 
Q 1463 3103 1205 2759 
Q 947 2416 947 1791 
Q 947 1169 1205 825 
Q 1463 481 1925 481 
Q 2391 481 2648 825 
Q 2906 1169 2906 1791 
z
M 3481 434 
Q 3481 -459 3084 -895 
Q 2688 -1331 1869 -1331 
Q 1566 -1331 1297 -1286 
Q 1028 -1241 775 -1147 
L 775 -588 
Q 1028 -725 1275 -790 
Q 1522 -856 1778 -856 
Q 2344 -856 2625 -561 
Q 2906 -266 2906 331 
L 2906 616 
Q 2728 306 2450 153 
Q 2172 0 1784 0 
Q 1141 0 747 490 
Q 353 981 353 1791 
Q 353 2603 747 3093 
Q 1141 3584 1784 3584 
Q 2172 3584 2450 3431 
Q 2728 3278 2906 2969 
L 2906 3500 
L 3481 3500 
L 3481 434 
z
" transform="scale(0.015625)"/>
       <path id="DejaVuSans-20" transform="scale(0.015625)"/>
       <path id="DejaVuSans-3bb" d="M 1981 4316 
L 3597 0 
L 2988 0 
L 2006 2588 
L 800 0 
L 191 0 
L 1725 3356 
L 1494 3975 
Q 1347 4369 1013 4369 
L 713 4369 
L 713 4863 
L 1078 4856 
Q 1784 4847 1981 4316 
z
" transform="scale(0.015625)"/>
       <path id="DejaVuSans-28" d="M 1984 4856 
Q 1566 4138 1362 3434 
Q 1159 2731 1159 2009 
Q 1159 1288 1364 580 
Q 1569 -128 1984 -844 
L 1484 -844 
Q 1016 -109 783 600 
Q 550 1309 550 2009 
Q 550 2706 781 3412 
Q 1013 4119 1484 4856 
L 1984 4856 
z
" transform="scale(0.015625)"/>
       <path id="DejaVuSans-6d" d="M 3328 2828 
Q 3544 3216 3844 3400 
Q 4144 3584 4550 3584 
Q 5097 3584 5394 3201 
Q 5691 2819 5691 2113 
L 5691 0 
L 5113 0 
L 5113 2094 
Q 5113 2597 4934 2840 
Q 4756 3084 4391 3084 
Q 3944 3084 3684 2787 
Q 3425 2491 3425 1978 
L 3425 0 
L 2847 0 
L 2847 2094 
Q 2847 2600 2669 2842 
Q 2491 3084 2119 3084 
Q 1678 3084 1418 2786 
Q 1159 2488 1159 1978 
L 1159 0 
L 581 0 
L 581 3500 
L 1159 3500 
L 1159 2956 
Q 1356 3278 1631 3431 
Q 1906 3584 2284 3584 
Q 2666 3584 2933 3390 
Q 3200 3197 3328 2828 
z
" transform="scale(0.015625)"/>
       <path id="DejaVuSans-29" d="M 513 4856 
L 1013 4856 
Q 1481 4119 1714 3412 
Q 1947 2706 1947 2009 
Q 1947 1309 1714 600 
Q 1481 -109 1013 -844 
L 513 -844 
Q 928 -128 1133 580 
Q 1338 1288 1338 2009 
Q 1338 2731 1133 3434 
Q 928 4138 513 4856 
z
" transform="scale(0.015625)"/>
      </defs>
      <use xlink:href="#DejaVuSans-57"/>
      <use xlink:href="#DejaVuSans-65" transform="translate(93.001953 0)"/>
      <use xlink:href="#DejaVuSans-6c" transform="translate(154.525391 0)"/>
      <use xlink:href="#DejaVuSans-6c" transform="translate(182.308594 0)"/>
      <use xlink:href="#DejaVuSans-65" transform="translate(210.091797 0)"/>
      <use xlink:href="#DejaVuSans-6e" transform="translate(271.615234 0)"/>
      <use xlink:href="#DejaVuSans-6c" transform="translate(334.994141 0)"/>
      <use xlink:href="#DejaVuSans-e4" transform="translate(362.777344 0)"/>
      <use xlink:href="#DejaVuSans-6e" transform="translate(424.056641 0)"/>
      <use xlink:href="#DejaVuSans-67" transform="translate(487.435547 0)"/>
      <use xlink:href="#DejaVuSans-65" transform="translate(550.912109 0)"/>
      <use xlink:href="#DejaVuSans-20" transform="translate(612.435547 0)"/>
      <use xlink:href="#DejaVuSans-3bb" transform="translate(644.222656 0)"/>
      <use xlink:href="#DejaVuSans-20" transform="translate(703.402344 0)"/>
      <use xlink:href="#DejaVuSans-28" transform="translate(735.189453 0)"/>
      <use xlink:href="#DejaVuSans-6e" transform="translate(774.203125 0)"/>
      <use xlink:href="#DejaVuSans-6d" transform="translate(837.582031 0)"/>
      <use xlink:href="#DejaVuSans-29" transform="translate(934.994141 0)"/>
     </g>
    </g>
   </g>
   <g id="matplotlib.axis_2">
    <g id="ytick_1">
     <g id="line2d_17">
      <path d="M 65.125 290.595455 
L 408.685238 290.595455 
" clip-path="url(#p8a2b426519)" style="fill: none; stroke: #b0b0b0; stroke-opacity: 0.3; stroke-width: 0.8; stroke-linecap: square"/>
     </g>
     <g id="line2d_18">
      <defs>
       <path id="m03c43fca41" d="M 0 0 
L -3.5 0 
" style="stroke: #000000; stroke-width: 0.8"/>
      </defs>
      <g>
       <use xlink:href="#m03c43fca41" x="65.125" y="290.595455" style="stroke: #000000; stroke-width: 0.8"/>
      </g>
     </g>
     <g id="text_10">
      <!-- 0.0 -->
      <g transform="translate(42.221875 294.394673) scale(0.1 -0.1)">
       <defs>
        <path id="DejaVuSans-2e" d="M 684 794 
L 1344 794 
L 1344 0 
L 684 0 
L 684 794 
z
" transform="scale(0.015625)"/>
       </defs>
       <use xlink:href="#DejaVuSans-30"/>
       <use xlink:href="#DejaVuSans-2e" transform="translate(63.623047 0)"/>
       <use xlink:href="#DejaVuSans-30" transform="translate(95.410156 0)"/>
      </g>
     </g>
    </g>
    <g id="ytick_2">
     <g id="line2d_19">
      <path d="M 65.125 256.745982 
L 408.685238 256.745982 
" clip-path="url(#p8a2b426519)" style="fill: none; stroke: #b0b0b0; stroke-opacity: 0.3; stroke-width: 0.8; stroke-linecap: square"/>
     </g>
     <g id="line2d_20">
      <g>
       <use xlink:href="#m03c43fca41" x="65.125" y="256.745982" style="stroke: #000000; stroke-width: 0.8"/>
      </g>
     </g>
     <g id="text_11">
      <!-- 0.1 -->
      <g transform="translate(42.221875 260.545201) scale(0.1 -0.1)">
       <defs>
        <path id="DejaVuSans-31" d="M 794 531 
L 1825 531 
L 1825 4091 
L 703 3866 
L 703 4441 
L 1819 4666 
L 2450 4666 
L 2450 531 
L 3481 531 
L 3481 0 
L 794 0 
L 794 531 
z
" transform="scale(0.015625)"/>
       </defs>
       <use xlink:href="#DejaVuSans-30"/>
       <use xlink:href="#DejaVuSans-2e" transform="translate(63.623047 0)"/>
       <use xlink:href="#DejaVuSans-31" transform="translate(95.410156 0)"/>
      </g>
     </g>
    </g>
    <g id="ytick_3">
     <g id="line2d_21">
      <path d="M 65.125 222.89651 
L 408.685238 222.89651 
" clip-path="url(#p8a2b426519)" style="fill: none; stroke: #b0b0b0; stroke-opacity: 0.3; stroke-width: 0.8; stroke-linecap: square"/>
     </g>
     <g id="line2d_22">
      <g>
       <use xlink:href="#m03c43fca41" x="65.125" y="222.89651" style="stroke: #000000; stroke-width: 0.8"/>
      </g>
     </g>
     <g id="text_12">
      <!-- 0.2 -->
      <g transform="translate(42.221875 226.695729) scale(0.1 -0.1)">
       <defs>
        <path id="DejaVuSans-32" d="M 1228 531 
L 3431 531 
L 3431 0 
L 469 0 
L 469 531 
Q 828 903 1448 1529 
Q 2069 2156 2228 2338 
Q 2531 2678 2651 2914 
Q 2772 3150 2772 3378 
Q 2772 3750 2511 3984 
Q 2250 4219 1831 4219 
Q 1534 4219 1204 4116 
Q 875 4013 500 3803 
L 500 4441 
Q 881 4594 1212 4672 
Q 1544 4750 1819 4750 
Q 2544 4750 2975 4387 
Q 3406 4025 3406 3419 
Q 3406 3131 3298 2873 
Q 3191 2616 2906 2266 
Q 2828 2175 2409 1742 
Q 1991 1309 1228 531 
z
" transform="scale(0.015625)"/>
       </defs>
       <use xlink:href="#DejaVuSans-30"/>
       <use xlink:href="#DejaVuSans-2e" transform="translate(63.623047 0)"/>
       <use xlink:href="#DejaVuSans-32" transform="translate(95.410156 0)"/>
      </g>
     </g>
    </g>
    <g id="ytick_4">
     <g id="line2d_23">
      <path d="M 65.125 189.047038 
L 408.685238 189.047038 
" clip-path="url(#p8a2b426519)" style="fill: none; stroke: #b0b0b0; stroke-opacity: 0.3; stroke-width: 0.8; stroke-linecap: square"/>
     </g>
     <g id="line2d_24">
      <g>
       <use xlink:href="#m03c43fca41" x="65.125" y="189.047038" style="stroke: #000000; stroke-width: 0.8"/>
      </g>
     </g>
     <g id="text_13">
      <!-- 0.3 -->
      <g transform="translate(42.221875 192.846257) scale(0.1 -0.1)">
       <defs>
        <path id="DejaVuSans-33" d="M 2597 2516 
Q 3050 2419 3304 2112 
Q 3559 1806 3559 1356 
Q 3559 666 3084 287 
Q 2609 -91 1734 -91 
Q 1441 -91 1130 -33 
Q 819 25 488 141 
L 488 750 
Q 750 597 1062 519 
Q 1375 441 1716 441 
Q 2309 441 2620 675 
Q 2931 909 2931 1356 
Q 2931 1769 2642 2001 
Q 2353 2234 1838 2234 
L 1294 2234 
L 1294 2753 
L 1863 2753 
Q 2328 2753 2575 2939 
Q 2822 3125 2822 3475 
Q 2822 3834 2567 4026 
Q 2313 4219 1838 4219 
Q 1578 4219 1281 4162 
Q 984 4106 628 3988 
L 628 4550 
Q 988 4650 1302 4700 
Q 1616 4750 1894 4750 
Q 2613 4750 3031 4423 
Q 3450 4097 3450 3541 
Q 3450 3153 3228 2886 
Q 3006 2619 2597 2516 
z
" transform="scale(0.015625)"/>
       </defs>
       <use xlink:href="#DejaVuSans-30"/>
       <use xlink:href="#DejaVuSans-2e" transform="translate(63.623047 0)"/>
       <use xlink:href="#DejaVuSans-33" transform="translate(95.410156 0)"/>
      </g>
     </g>
    </g>
    <g id="ytick_5">
     <g id="line2d_25">
      <path d="M 65.125 155.197566 
L 408.685238 155.197566 
" clip-path="url(#p8a2b426519)" style="fill: none; stroke: #b0b0b0; stroke-opacity: 0.3; stroke-width: 0.8; stroke-linecap: square"/>
     </g>
     <g id="line2d_26">
      <g>
       <use xlink:href="#m03c43fca41" x="65.125" y="155.197566" style="stroke: #000000; stroke-width: 0.8"/>
      </g>
     </g>
     <g id="text_14">
      <!-- 0.4 -->
      <g transform="translate(42.221875 158.996785) scale(0.1 -0.1)">
       <use xlink:href="#DejaVuSans-30"/>
       <use xlink:href="#DejaVuSans-2e" transform="translate(63.623047 0)"/>
       <use xlink:href="#DejaVuSans-34" transform="translate(95.410156 0)"/>
      </g>
     </g>
    </g>
    <g id="ytick_6">
     <g id="line2d_27">
      <path d="M 65.125 121.348094 
L 408.685238 121.348094 
" clip-path="url(#p8a2b426519)" style="fill: none; stroke: #b0b0b0; stroke-opacity: 0.3; stroke-width: 0.8; stroke-linecap: square"/>
     </g>
     <g id="line2d_28">
      <g>
       <use xlink:href="#m03c43fca41" x="65.125" y="121.348094" style="stroke: #000000; stroke-width: 0.8"/>
      </g>
     </g>
     <g id="text_15">
      <!-- 0.5 -->
      <g transform="translate(42.221875 125.147313) scale(0.1 -0.1)">
       <use xlink:href="#DejaVuSans-30"/>
       <use xlink:href="#DejaVuSans-2e" transform="translate(63.623047 0)"/>
       <use xlink:href="#DejaVuSans-35" transform="translate(95.410156 0)"/>
      </g>
     </g>
    </g>
    <g id="text_16">
     <!-- Reflexion R -->
     <g transform="translate(35.934219 228.464297) rotate(-90) scale(0.11 -0.11)">
      <defs>
       <path id="DejaVuSans-52" d="M 2841 2188 
Q 3044 2119 3236 1894 
Q 3428 1669 3622 1275 
L 4263 0 
L 3584 0 
L 2988 1197 
Q 2756 1666 2539 1819 
Q 2322 1972 1947 1972 
L 1259 1972 
L 1259 0 
L 628 0 
L 628 4666 
L 2053 4666 
Q 2853 4666 3247 4331 
Q 3641 3997 3641 3322 
Q 3641 2881 3436 2590 
Q 3231 2300 2841 2188 
z
M 1259 4147 
L 1259 2491 
L 2053 2491 
Q 2509 2491 2742 2702 
Q 2975 2913 2975 3322 
Q 2975 3731 2742 3939 
Q 2509 4147 2053 4147 
L 1259 4147 
z
" transform="scale(0.015625)"/>
       <path id="DejaVuSans-66" d="M 2375 4863 
L 2375 4384 
L 1825 4384 
Q 1516 4384 1395 4259 
Q 1275 4134 1275 3809 
L 1275 3500 
L 2222 3500 
L 2222 3053 
L 1275 3053 
L 1275 0 
L 697 0 
L 697 3053 
L 147 3053 
L 147 3500 
L 697 3500 
L 697 3744 
Q 697 4328 969 4595 
Q 1241 4863 1831 4863 
L 2375 4863 
z
" transform="scale(0.015625)"/>
       <path id="DejaVuSans-78" d="M 3513 3500 
L 2247 1797 
L 3578 0 
L 2900 0 
L 1881 1375 
L 863 0 
L 184 0 
L 1544 1831 
L 300 3500 
L 978 3500 
L 1906 2253 
L 2834 3500 
L 3513 3500 
z
" transform="scale(0.015625)"/>
       <path id="DejaVuSans-69" d="M 603 3500 
L 1178 3500 
L 1178 0 
L 603 0 
L 603 3500 
z
M 603 4863 
L 1178 4863 
L 1178 4134 
L 603 4134 
L 603 4863 
z
" transform="scale(0.015625)"/>
       <path id="DejaVuSans-6f" d="M 1959 3097 
Q 1497 3097 1228 2736 
Q 959 2375 959 1747 
Q 959 1119 1226 758 
Q 1494 397 1959 397 
Q 2419 397 2687 759 
Q 2956 1122 2956 1747 
Q 2956 2369 2687 2733 
Q 2419 3097 1959 3097 
z
M 1959 3584 
Q 2709 3584 3137 3096 
Q 3566 2609 3566 1747 
Q 3566 888 3137 398 
Q 2709 -91 1959 -91 
Q 1206 -91 779 398 
Q 353 888 353 1747 
Q 353 2609 779 3096 
Q 1206 3584 1959 3584 
z
" transform="scale(0.015625)"/>
      </defs>
      <use xlink:href="#DejaVuSans-52"/>
      <use xlink:href="#DejaVuSans-65" transform="translate(64.982422 0)"/>
      <use xlink:href="#DejaVuSans-66" transform="translate(126.505859 0)"/>
      <use xlink:href="#DejaVuSans-6c" transform="translate(161.710938 0)"/>
      <use xlink:href="#DejaVuSans-65" transform="translate(189.494141 0)"/>
      <use xlink:href="#DejaVuSans-78" transform="translate(249.267578 0)"/>
      <use xlink:href="#DejaVuSans-69" transform="translate(308.447266 0)"/>
      <use xlink:href="#DejaVuSans-6f" transform="translate(336.230469 0)"/>
      <use xlink:href="#DejaVuSans-6e" transform="translate(397.412109 0)"/>
      <use xlink:href="#DejaVuSans-20" transform="translate(460.791016 0)"/>
      <use xlink:href="#DejaVuSans-52" transform="translate(492.578125 0)"/>
     </g>
    </g>
   </g>
   <g id="line2d_29">
    <path d="M 65.125 290.595455 
L 69.473864 290.595455 
L 73.822728 290.595455 
L 78.171591 290.595455 
L 82.520455 290.595455 
L 86.869319 290.595455 
L 91.218183 290.595455 
L 95.567046 290.595455 
L 99.91591 290.595455 
L 104.264774 290.595455 
L 108.613638 290.595455 
L 112.962501 290.595455 
L 117.311365 290.595455 
L 121.660229 290.595455 
L 126.009093 290.595455 
L 130.357957 290.595455 
L 134.70682 290.595455 
L 139.055684 290.595455 
L 143.404548 290.595455 
L 147.753412 290.595455 
L 152.102275 290.595455 
L 156.451139 290.595455 
L 160.800003 290.595455 
L 165.148867 290.595455 
L 169.497731 290.595454 
L 173.846594 290.595454 
L 178.195458 290.595454 
L 182.544322 290.595453 
L 186.893186 290.595451 
L 191.242049 290.595444 
L 195.590913 290.595426 
L 199.939777 290.595383 
L 204.288641 290.595277 
L 208.637504 290.595029 
L 212.986368 290.594464 
L 217.335232 290.593211 
L 221.684096 290.590516 
L 226.03296 290.584888 
L 230.381823 290.573484 
L 234.730687 290.551051 
L 239.079551 290.508236 
L 243.428415 290.428947 
L 247.777278 290.286506 
L 252.126142 290.038311 
L 256.475006 289.618943 
L 260.82387 288.931979 
L 265.172734 287.841324 
L 269.521597 286.163641 
L 273.870461 283.66427 
L 278.219325 280.05978 
L 282.568189 275.030562 
L 286.917052 268.246416 
L 291.265916 259.406525 
L 295.61478 248.292468 
L 299.963644 234.829325 
L 304.312507 219.146004 
L 308.661371 201.62287 
L 313.010235 182.913622 
L 317.359099 163.930173 
L 321.707963 145.784416 
L 326.056826 129.688557 
L 330.40569 116.824744 
L 334.754554 108.202771 
L 339.103418 104.529392 
L 343.452281 106.11267 
L 347.801145 112.819327 
L 352.150009 124.093262 
L 356.498873 139.031686 
L 360.847737 156.504417 
L 365.1966 175.294466 
L 369.545464 194.235801 
L 373.894328 212.327074 
L 378.243192 228.807135 
L 382.592055 243.187049 
L 386.940919 255.241889 
L 391.289783 264.971862 
L 395.638647 272.545515 
L 399.98751 278.237677 
L 404.336374 282.372385 
L 408.685238 285.277355 
" clip-path="url(#p8a2b426519)" style="fill: none; stroke-dasharray: 5.55,2.4; stroke-dashoffset: 0; stroke: #e63946; stroke-opacity: 0.6; stroke-width: 1.5"/>
   </g>
   <g id="line2d_30">
    <path d="M 65.125 242.100341 
L 69.473864 240.584368 
L 73.822728 241.61886 
L 78.171591 244.956913 
L 82.520455 250.1834 
L 86.869319 256.746953 
L 91.218183 263.990623 
L 95.567046 271.198712 
L 99.91591 277.66746 
L 104.264774 282.792982 
L 108.613638 286.156024 
L 112.962501 287.577412 
L 117.311365 287.125723 
L 121.660229 285.076365 
L 126.009093 281.838688 
L 130.357957 277.875398 
L 134.70682 273.634632 
L 139.055684 269.504866 
L 143.404548 265.79297 
L 147.753412 262.71994 
L 152.102275 260.427311 
L 156.451139 258.988298 
L 160.800003 258.419696 
L 165.148867 258.692479 
L 169.497731 259.740364 
L 173.846594 261.466469 
L 178.195458 263.748641 
L 182.544322 266.44416 
L 186.893186 269.394544 
L 191.242049 272.431026 
L 195.590913 275.381019 
L 199.939777 278.075594 
L 204.288641 280.357649 
L 208.637504 282.090131 
L 212.986368 283.163464 
L 217.335232 283.501296 
L 221.684096 283.063821 
L 226.03296 281.848256 
L 230.381823 279.886462 
L 234.730687 277.24013 
L 239.079551 273.994241 
L 243.428415 270.249688 
L 247.777278 266.115903 
L 252.126142 261.704188 
L 256.475006 257.12222 
L 260.82387 252.469931 
L 265.172734 247.836794 
L 269.521597 243.300348 
L 273.870461 238.925751 
L 278.219325 234.766097 
L 282.568189 230.863253 
L 286.917052 227.248999 
L 291.265916 223.946319 
L 295.61478 220.970702 
L 299.963644 218.331385 
L 304.312507 216.032483 
L 308.661371 214.073983 
L 313.010235 212.452596 
L 317.359099 211.16246 
L 321.707963 210.195724 
L 326.056826 209.543008 
L 330.40569 209.193769 
L 334.754554 209.136576 
L 339.103418 209.359321 
L 343.452281 209.849368 
L 347.801145 210.593661 
L 352.150009 211.578795 
L 356.498873 212.791059 
L 360.847737 214.216464 
L 365.1966 215.840757 
L 369.545464 217.649425 
L 373.894328 219.6277 
L 378.243192 221.760565 
L 382.592055 224.032762 
L 386.940919 226.428807 
L 391.289783 228.933017 
L 395.638647 231.529543 
L 399.98751 234.202413 
L 404.336374 236.935592 
L 408.685238 239.71305 
" clip-path="url(#p8a2b426519)" style="fill: none; stroke: #e63946; stroke-width: 2.5; stroke-linecap: square"/>
   </g>
   <g id="line2d_31">
    <path d="M 65.125 290.595435 
L 69.473864 290.595404 
L 73.822728 290.595328 
L 78.171591 290.595147 
L 82.520455 290.594731 
L 86.869319 290.593798 
L 91.218183 290.591769 
L 95.567046 290.587484 
L 99.91591 290.578702 
L 104.264774 290.561235 
L 108.613638 290.527517 
L 112.962501 290.464363 
L 117.311365 290.349607 
L 121.660229 290.147343 
L 126.009093 289.80161 
L 130.357957 289.228626 
L 134.70682 288.308165 
L 139.055684 286.875331 
L 143.404548 284.714843 
L 147.753412 281.560697 
L 152.102275 277.1046 
L 156.451139 271.016418 
L 160.800003 262.978734 
L 165.148867 252.73535 
L 169.497731 240.150187 
L 173.846594 225.269166 
L 178.195458 208.374134 
L 182.544322 190.01587 
L 186.893186 171.013913 
L 191.242049 152.414759 
L 195.590913 135.406958 
L 199.939777 121.200452 
L 204.288641 110.886141 
L 208.637504 105.297982 
L 212.986368 104.901688 
L 217.335232 109.730644 
L 221.684096 119.381267 
L 226.03296 133.068694 
L 230.381823 149.732156 
L 234.730687 168.170405 
L 239.079551 187.183287 
L 243.428415 205.696584 
L 247.777278 222.852972 
L 252.126142 238.060396 
L 256.475006 250.998092 
L 260.82387 261.587827 
L 265.172734 269.942267 
L 269.521597 276.303524 
L 273.870461 280.983237 
L 278.219325 284.312192 
L 282.568189 286.60359 
L 286.917052 288.130577 
L 291.265916 289.116197 
L 295.61478 289.732633 
L 299.963644 290.106321 
L 304.312507 290.325952 
L 308.661371 290.451135 
L 313.010235 290.520341 
L 317.359099 290.557458 
L 321.707963 290.576774 
L 326.056826 290.586528 
L 330.40569 290.591309 
L 334.754554 290.593583 
L 339.103418 290.594634 
L 343.452281 290.595105 
L 347.801145 290.595309 
L 352.150009 290.595396 
L 356.498873 290.595432 
L 360.847737 290.595446 
L 365.1966 290.595451 
L 369.545464 290.595453 
L 373.894328 290.595454 
L 378.243192 290.595454 
L 382.592055 290.595455 
L 386.940919 290.595455 
L 391.289783 290.595455 
L 395.638647 290.595455 
L 399.98751 290.595455 
L 404.336374 290.595455 
L 408.685238 290.595455 
" clip-path="url(#p8a2b426519)" style="fill: none; stroke-dasharray: 5.55,2.4; stroke-dashoffset: 0; stroke: #2a9d8f; stroke-opacity: 0.6; stroke-width: 1.5"/>
   </g>
   <g id="line2d_32">
    <path d="M 65.125 247.752652 
L 69.473864 254.505331 
L 73.822728 259.040402 
L 78.171591 262.722348 
L 82.520455 267.976442 
L 86.869319 275.144416 
L 91.218183 281.402874 
L 95.567046 282.341063 
L 99.91591 275.499096 
L 104.264774 262.720166 
L 108.613638 248.683126 
L 112.962501 237.73856 
L 117.311365 232.269907 
L 121.660229 232.755284 
L 126.009093 238.303546 
L 130.357957 247.081795 
L 134.70682 256.749173 
L 139.055684 265.113676 
L 143.404548 270.872033 
L 147.753412 273.958417 
L 152.102275 275.231709 
L 156.451139 275.774435 
L 160.800003 276.284768 
L 165.148867 276.812311 
L 169.497731 276.828723 
L 173.846594 275.532244 
L 178.195458 272.259202 
L 182.544322 266.833954 
L 186.893186 259.693626 
L 191.242049 251.74436 
L 195.590913 244.065511 
L 199.939777 237.633549 
L 204.288641 233.164877 
L 208.637504 231.075334 
L 212.986368 231.503976 
L 217.335232 234.352153 
L 221.684096 239.313974 
L 226.03296 245.897957 
L 230.381823 253.454512 
L 234.730687 261.22814 
L 239.079551 268.445498 
L 243.428415 274.431322 
L 247.777278 278.722061 
L 252.126142 281.137079 
L 256.475006 281.780248 
L 260.82387 280.974557 
L 265.172734 279.159102 
L 269.521597 276.785569 
L 273.870461 274.240568 
L 278.219325 271.802791 
L 282.568189 269.630951 
L 286.917052 267.77313 
L 291.265916 266.188596 
L 295.61478 264.775632 
L 299.963644 263.401263 
L 304.312507 261.929886 
L 308.661371 260.248234 
L 313.010235 258.28416 
L 317.359099 256.017347 
L 321.707963 253.481171 
L 326.056826 250.756539 
L 330.40569 247.959907 
L 334.754554 245.228435 
L 339.103418 242.705162 
L 343.452281 240.526336 
L 347.801145 238.81198 
L 352.150009 237.659842 
L 356.498873 237.142226 
L 360.847737 237.304889 
L 365.1966 238.16719 
L 369.545464 239.722857 
L 373.894328 241.940948 
L 378.243192 244.766872 
L 382.592055 248.123524 
L 386.940919 251.912779 
L 391.289783 256.017669 
L 395.638647 260.305587 
L 399.98751 264.632788 
L 404.336374 268.850271 
L 408.685238 272.810898 
" clip-path="url(#p8a2b426519)" style="fill: none; stroke: #2a9d8f; stroke-width: 2.5; stroke-linecap: square"/>
   </g>
   <g id="line2d_33">
    <path d="M 65.125 278.358637 
L 69.473864 272.709458 
L 73.822728 265.186506 
L 78.171591 255.513065 
L 82.520455 243.517177 
L 86.869319 229.193686 
L 91.218183 212.761316 
L 95.567046 194.702151 
L 99.91591 175.770744 
L 104.264774 156.963181 
L 108.613638 139.442627 
L 112.962501 124.426413 
L 117.311365 113.048644 
L 121.660229 106.219383 
L 126.009093 104.504545 
L 130.357957 108.048464 
L 134.70682 116.553833 
L 139.055684 129.322894 
L 143.404548 145.351935 
L 147.753412 163.46138 
L 152.102275 182.438091 
L 156.451139 201.166298 
L 160.800003 218.728193 
L 165.148867 234.463265 
L 169.497731 247.984449 
L 173.846594 259.157049 
L 178.195458 268.051601 
L 182.544322 274.883699 
L 186.893186 279.952794 
L 191.242049 283.588898 
L 195.590913 286.112256 
L 199.939777 287.807407 
L 204.288641 288.910294 
L 208.637504 289.605509 
L 212.986368 290.030244 
L 217.335232 290.28181 
L 221.684096 290.426295 
L 226.03296 290.506784 
L 230.381823 290.55028 
L 234.730687 290.573086 
L 239.079551 290.58469 
L 243.428415 290.590419 
L 247.777278 290.593166 
L 252.126142 290.594443 
L 256.475006 290.59502 
L 260.82387 290.595273 
L 265.172734 290.595381 
L 269.521597 290.595426 
L 273.870461 290.595443 
L 278.219325 290.59545 
L 282.568189 290.595453 
L 286.917052 290.595454 
L 291.265916 290.595454 
L 295.61478 290.595454 
L 299.963644 290.595455 
L 304.312507 290.595455 
L 308.661371 290.595455 
L 313.010235 290.595455 
L 317.359099 290.595455 
L 321.707963 290.595455 
L 326.056826 290.595455 
L 330.40569 290.595455 
L 334.754554 290.595455 
L 339.103418 290.595455 
L 343.452281 290.595455 
L 347.801145 290.595455 
L 352.150009 290.595455 
L 356.498873 290.595455 
L 360.847737 290.595455 
L 365.1966 290.595455 
L 369.545464 290.595455 
L 373.894328 290.595455 
L 378.243192 290.595455 
L 382.592055 290.595455 
L 386.940919 290.595455 
L 391.289783 290.595455 
L 395.638647 290.595455 
L 399.98751 290.595455 
L 404.336374 290.595455 
L 408.685238 290.595455 
" clip-path="url(#p8a2b426519)" style="fill: none; stroke-dasharray: 5.55,2.4; stroke-dashoffset: 0; stroke: #457b9d; stroke-opacity: 0.6; stroke-width: 1.5"/>
   </g>
   <g id="line2d_34">
    <path d="M 65.125 258.43969 
L 69.473864 268.105098 
L 73.822728 278.71418 
L 78.171591 287.002265 
L 82.520455 289.823055 
L 86.869319 285.338304 
L 91.218183 273.818959 
L 95.567046 257.370136 
L 99.91591 238.827049 
L 104.264774 220.690606 
L 108.613638 204.639706 
L 112.962501 191.554647 
L 117.311365 181.756524 
L 121.660229 175.251099 
L 126.009093 171.899972 
L 130.357957 171.516881 
L 134.70682 173.909296 
L 139.055684 178.884694 
L 143.404548 186.234601 
L 147.753412 195.704831 
L 152.102275 206.958713 
L 156.451139 219.541714 
L 160.800003 232.859303 
L 165.148867 246.182803 
L 169.497731 258.696267 
L 173.846594 269.587277 
L 178.195458 278.166522 
L 182.544322 283.982881 
L 186.893186 286.895072 
L 191.242049 287.075135 
L 195.590913 284.946412 
L 199.939777 281.082832 
L 204.288641 276.104109 
L 208.637504 270.592962 
L 212.986368 265.044931 
L 217.335232 259.848375 
L 221.684096 255.285796 
L 226.03296 251.546833 
L 230.381823 248.745425 
L 234.730687 246.936517 
L 239.079551 246.130036 
L 243.428415 246.301401 
L 247.777278 247.398764 
L 252.126142 249.347527 
L 256.475006 252.052874 
L 260.82387 255.401071 
L 265.172734 259.260267 
L 269.521597 263.481492 
L 273.870461 267.900477 
L 278.219325 272.340811 
L 282.568189 276.618772 
L 286.917052 280.549915 
L 291.265916 283.95717 
L 295.61478 286.679855 
L 299.963644 288.582705 
L 304.312507 289.563833 
L 308.661371 289.560566 
L 313.010235 288.552325 
L 317.359099 286.560167 
L 321.707963 283.64308 
L 326.056826 279.891647 
L 330.40569 275.419963 
L 334.754554 270.356889 
L 339.103418 264.837588 
L 343.452281 258.996111 
L 347.801145 252.959498 
L 352.150009 246.84357 
L 356.498873 240.750339 
L 360.847737 234.766846 
L 365.1966 228.965106 
L 369.545464 223.402865 
L 373.894328 218.124868 
L 378.243192 213.164414 
L 382.592055 208.545003 
L 386.940919 204.281955 
L 391.289783 200.383918 
L 395.638647 196.854209 
L 399.98751 193.691987 
L 404.336374 190.893236 
L 408.685238 188.451584 
" clip-path="url(#p8a2b426519)" style="fill: none; stroke: #457b9d; stroke-width: 2.5; stroke-linecap: square"/>
   </g>
   <g id="patch_3">
    <path d="M 65.125 299.9 
L 65.125 95.2 
" style="fill: none; stroke: #000000; stroke-width: 0.8; stroke-linejoin: miter; stroke-linecap: square"/>
   </g>
   <g id="patch_4">
    <path d="M 408.685238 299.9 
L 408.685238 95.2 
" style="fill: none; stroke: #000000; stroke-width: 0.8; stroke-linejoin: miter; stroke-linecap: square"/>
   </g>
   <g id="patch_5">
    <path d="M 65.125 299.9 
L 408.685238 299.9 
" style="fill: none; stroke: #000000; stroke-width: 0.8; stroke-linejoin: miter; stroke-linecap: square"/>
   </g>
   <g id="patch_6">
    <path d="M 65.125 95.2 
L 408.685238 95.2 
" style="fill: none; stroke: #000000; stroke-width: 0.8; stroke-linejoin: miter; stroke-linecap: square"/>
   </g>
   <g id="text_17">
    <!-- RGB-Primärfarben: Ziel (—) vs. optimiert (- -) -->
    <g transform="translate(104.123244 75.762625) scale(0.12 -0.12)">
     <defs>
      <path id="DejaVuSans-47" d="M 3809 666 
L 3809 1919 
L 2778 1919 
L 2778 2438 
L 4434 2438 
L 4434 434 
Q 4069 175 3628 42 
Q 3188 -91 2688 -91 
Q 1594 -91 976 548 
Q 359 1188 359 2328 
Q 359 3472 976 4111 
Q 1594 4750 2688 4750 
Q 3144 4750 3555 4637 
Q 3966 4525 4313 4306 
L 4313 3634 
Q 3963 3931 3569 4081 
Q 3175 4231 2741 4231 
Q 1884 4231 1454 3753 
Q 1025 3275 1025 2328 
Q 1025 1384 1454 906 
Q 1884 428 2741 428 
Q 3075 428 3337 486 
Q 3600 544 3809 666 
z
" transform="scale(0.015625)"/>
      <path id="DejaVuSans-42" d="M 1259 2228 
L 1259 519 
L 2272 519 
Q 2781 519 3026 730 
Q 3272 941 3272 1375 
Q 3272 1813 3026 2020 
Q 2781 2228 2272 2228 
L 1259 2228 
z
M 1259 4147 
L 1259 2741 
L 2194 2741 
Q 2656 2741 2882 2914 
Q 3109 3088 3109 3444 
Q 3109 3797 2882 3972 
Q 2656 4147 2194 4147 
L 1259 4147 
z
M 628 4666 
L 2241 4666 
Q 2963 4666 3353 4366 
Q 3744 4066 3744 3513 
Q 3744 3084 3544 2831 
Q 3344 2578 2956 2516 
Q 3422 2416 3680 2098 
Q 3938 1781 3938 1306 
Q 3938 681 3513 340 
Q 3088 0 2303 0 
L 628 0 
L 628 4666 
z
" transform="scale(0.015625)"/>
      <path id="DejaVuSans-2d" d="M 313 2009 
L 1997 2009 
L 1997 1497 
L 313 1497 
L 313 2009 
z
" transform="scale(0.015625)"/>
      <path id="DejaVuSans-50" d="M 1259 4147 
L 1259 2394 
L 2053 2394 
Q 2494 2394 2734 2622 
Q 2975 2850 2975 3272 
Q 2975 3691 2734 3919 
Q 2494 4147 2053 4147 
L 1259 4147 
z
M 628 4666 
L 2053 4666 
Q 2838 4666 3239 4311 
Q 3641 3956 3641 3272 
Q 3641 2581 3239 2228 
Q 2838 1875 2053 1875 
L 1259 1875 
L 1259 0 
L 628 0 
L 628 4666 
z
" transform="scale(0.015625)"/>
      <path id="DejaVuSans-72" d="M 2631 2963 
Q 2534 3019 2420 3045 
Q 2306 3072 2169 3072 
Q 1681 3072 1420 2755 
Q 1159 2438 1159 1844 
L 1159 0 
L 581 0 
L 581 3500 
L 1159 3500 
L 1159 2956 
Q 1341 3275 1631 3429 
Q 1922 3584 2338 3584 
Q 2397 3584 2469 3576 
Q 2541 3569 2628 3553 
L 2631 2963 
z
" transform="scale(0.015625)"/>
      <path id="DejaVuSans-61" d="M 2194 1759 
Q 1497 1759 1228 1600 
Q 959 1441 959 1056 
Q 959 750 1161 570 
Q 1363 391 1709 391 
Q 2188 391 2477 730 
Q 2766 1069 2766 1631 
L 2766 1759 
L 2194 1759 
z
M 3341 1997 
L 3341 0 
L 2766 0 
L 2766 531 
Q 2569 213 2275 61 
Q 1981 -91 1556 -91 
Q 1019 -91 701 211 
Q 384 513 384 1019 
Q 384 1609 779 1909 
Q 1175 2209 1959 2209 
L 2766 2209 
L 2766 2266 
Q 2766 2663 2505 2880 
Q 2244 3097 1772 3097 
Q 1472 3097 1187 3025 
Q 903 2953 641 2809 
L 641 3341 
Q 956 3463 1253 3523 
Q 1550 3584 1831 3584 
Q 2591 3584 2966 3190 
Q 3341 2797 3341 1997 
z
" transform="scale(0.015625)"/>
      <path id="DejaVuSans-62" d="M 3116 1747 
Q 3116 2381 2855 2742 
Q 2594 3103 2138 3103 
Q 1681 3103 1420 2742 
Q 1159 2381 1159 1747 
Q 1159 1113 1420 752 
Q 1681 391 2138 391 
Q 2594 391 2855 752 
Q 3116 1113 3116 1747 
z
M 1159 2969 
Q 1341 3281 1617 3432 
Q 1894 3584 2278 3584 
Q 2916 3584 3314 3078 
Q 3713 2572 3713 1747 
Q 3713 922 3314 415 
Q 2916 -91 2278 -91 
Q 1894 -91 1617 61 
Q 1341 213 1159 525 
L 1159 0 
L 581 0 
L 581 4863 
L 1159 4863 
L 1159 2969 
z
" transform="scale(0.015625)"/>
      <path id="DejaVuSans-3a" d="M 750 794 
L 1409 794 
L 1409 0 
L 750 0 
L 750 794 
z
M 750 3309 
L 1409 3309 
L 1409 2516 
L 750 2516 
L 750 3309 
z
" transform="scale(0.015625)"/>
      <path id="DejaVuSans-5a" d="M 359 4666 
L 4025 4666 
L 4025 4184 
L 1075 531 
L 4097 531 
L 4097 0 
L 288 0 
L 288 481 
L 3238 4134 
L 359 4134 
L 359 4666 
z
" transform="scale(0.015625)"/>
      <path id="DejaVuSans-2014" d="M 313 1978 
L 6088 1978 
L 6088 1528 
L 313 1528 
L 313 1978 
z
" transform="scale(0.015625)"/>
      <path id="DejaVuSans-76" d="M 191 3500 
L 800 3500 
L 1894 563 
L 2988 3500 
L 3597 3500 
L 2284 0 
L 1503 0 
L 191 3500 
z
" transform="scale(0.015625)"/>
      <path id="DejaVuSans-73" d="M 2834 3397 
L 2834 2853 
Q 2591 2978 2328 3040 
Q 2066 3103 1784 3103 
Q 1356 3103 1142 2972 
Q 928 2841 928 2578 
Q 928 2378 1081 2264 
Q 1234 2150 1697 2047 
L 1894 2003 
Q 2506 1872 2764 1633 
Q 3022 1394 3022 966 
Q 3022 478 2636 193 
Q 2250 -91 1575 -91 
Q 1294 -91 989 -36 
Q 684 19 347 128 
L 347 722 
Q 666 556 975 473 
Q 1284 391 1588 391 
Q 1994 391 2212 530 
Q 2431 669 2431 922 
Q 2431 1156 2273 1281 
Q 2116 1406 1581 1522 
L 1381 1569 
Q 847 1681 609 1914 
Q 372 2147 372 2553 
Q 372 3047 722 3315 
Q 1072 3584 1716 3584 
Q 2034 3584 2315 3537 
Q 2597 3491 2834 3397 
z
" transform="scale(0.015625)"/>
      <path id="DejaVuSans-70" d="M 1159 525 
L 1159 -1331 
L 581 -1331 
L 581 3500 
L 1159 3500 
L 1159 2969 
Q 1341 3281 1617 3432 
Q 1894 3584 2278 3584 
Q 2916 3584 3314 3078 
Q 3713 2572 3713 1747 
Q 3713 922 3314 415 
Q 2916 -91 2278 -91 
Q 1894 -91 1617 61 
Q 1341 213 1159 525 
z
M 3116 1747 
Q 3116 2381 2855 2742 
Q 2594 3103 2138 3103 
Q 1681 3103 1420 2742 
Q 1159 2381 1159 1747 
Q 1159 1113 1420 752 
Q 1681 391 2138 391 
Q 2594 391 2855 752 
Q 3116 1113 3116 1747 
z
" transform="scale(0.015625)"/>
      <path id="DejaVuSans-74" d="M 1172 4494 
L 1172 3500 
L 2356 3500 
L 2356 3053 
L 1172 3053 
L 1172 1153 
Q 1172 725 1289 603 
Q 1406 481 1766 481 
L 2356 481 
L 2356 0 
L 1766 0 
Q 1100 0 847 248 
Q 594 497 594 1153 
L 594 3053 
L 172 3053 
L 172 3500 
L 594 3500 
L 594 4494 
L 1172 4494 
z
" transform="scale(0.015625)"/>
     </defs>
     <use xlink:href="#DejaVuSans-52"/>
     <use xlink:href="#DejaVuSans-47" transform="translate(69.482422 0)"/>
     <use xlink:href="#DejaVuSans-42" transform="translate(146.972656 0)"/>
     <use xlink:href="#DejaVuSans-2d" transform="translate(215.576172 0)"/>
     <use xlink:href="#DejaVuSans-50" transform="translate(251.660156 0)"/>
     <use xlink:href="#DejaVuSans-72" transform="translate(310.212891 0)"/>
     <use xlink:href="#DejaVuSans-69" transform="translate(351.326172 0)"/>
     <use xlink:href="#DejaVuSans-6d" transform="translate(379.109375 0)"/>
     <use xlink:href="#DejaVuSans-e4" transform="translate(476.521484 0)"/>
     <use xlink:href="#DejaVuSans-72" transform="translate(537.800781 0)"/>
     <use xlink:href="#DejaVuSans-66" transform="translate(578.914062 0)"/>
     <use xlink:href="#DejaVuSans-61" transform="translate(614.119141 0)"/>
     <use xlink:href="#DejaVuSans-72" transform="translate(675.398438 0)"/>
     <use xlink:href="#DejaVuSans-62" transform="translate(716.511719 0)"/>
     <use xlink:href="#DejaVuSans-65" transform="translate(779.988281 0)"/>
     <use xlink:href="#DejaVuSans-6e" transform="translate(841.511719 0)"/>
     <use xlink:href="#DejaVuSans-3a" transform="translate(904.890625 0)"/>
     <use xlink:href="#DejaVuSans-20" transform="translate(938.582031 0)"/>
     <use xlink:href="#DejaVuSans-5a" transform="translate(970.369141 0)"/>
     <use xlink:href="#DejaVuSans-69" transform="translate(1038.875 0)"/>
     <use xlink:href="#DejaVuSans-65" transform="translate(1066.658203 0)"/>
     <use xlink:href="#DejaVuSans-6c" transform="translate(1128.181641 0)"/>
     <use xlink:href="#DejaVuSans-20" transform="translate(1155.964844 0)"/>
     <use xlink:href="#DejaVuSans-28" transform="translate(1187.751953 0)"/>
     <use xlink:href="#DejaVuSans-2014" transform="translate(1226.765625 0)"/>
     <use xlink:href="#DejaVuSans-29" transform="translate(1326.765625 0)"/>
     <use xlink:href="#DejaVuSans-20" transform="translate(1365.779297 0)"/>
     <use xlink:href="#DejaVuSans-76" transform="translate(1397.566406 0)"/>
     <use xlink:href="#DejaVuSans-73" transform="translate(1456.746094 0)"/>
     <use xlink:href="#DejaVuSans-2e" transform="translate(1508.845703 0)"/>
     <use xlink:href="#DejaVuSans-20" transform="translate(1540.632812 0)"/>
     <use xlink:href="#DejaVuSans-6f" transform="translate(1572.419922 0)"/>
     <use xlink:href="#DejaVuSans-70" transform="translate(1633.601562 0)"/>
     <use xlink:href="#DejaVuSans-74" transform="translate(1697.078125 0)"/>
     <use xlink:href="#DejaVuSans-69" transform="translate(1736.287109 0)"/>
     <use xlink:href="#DejaVuSans-6d" transform="translate(1764.070312 0)"/>
     <use xlink:href="#DejaVuSans-69" transform="translate(1861.482422 0)"/>
     <use xlink:href="#DejaVuSans-65" transform="translate(1889.265625 0)"/>
     <use xlink:href="#DejaVuSans-72" transform="translate(1950.789062 0)"/>
     <use xlink:href="#DejaVuSans-74" transform="translate(1991.902344 0)"/>
     <use xlink:href="#DejaVuSans-20" transform="translate(2031.111328 0)"/>
     <use xlink:href="#DejaVuSans-28" transform="translate(2062.898438 0)"/>
     <use xlink:href="#DejaVuSans-2d" transform="translate(2101.912109 0)"/>
     <use xlink:href="#DejaVuSans-2d" transform="translate(2137.996094 0)"/>
     <use xlink:href="#DejaVuSans-29" transform="translate(2174.080078 0)"/>
    </g>
    <!-- Adjungierter Gradientenabstieg -->
    <g transform="translate(142.031994 89.2) scale(0.12 -0.12)">
     <defs>
      <path id="DejaVuSans-41" d="M 2188 4044 
L 1331 1722 
L 3047 1722 
L 2188 4044 
z
M 1831 4666 
L 2547 4666 
L 4325 0 
L 3669 0 
L 3244 1197 
L 1141 1197 
L 716 0 
L 50 0 
L 1831 4666 
z
" transform="scale(0.015625)"/>
      <path id="DejaVuSans-64" d="M 2906 2969 
L 2906 4863 
L 3481 4863 
L 3481 0 
L 2906 0 
L 2906 525 
Q 2725 213 2448 61 
Q 2172 -91 1784 -91 
Q 1150 -91 751 415 
Q 353 922 353 1747 
Q 353 2572 751 3078 
Q 1150 3584 1784 3584 
Q 2172 3584 2448 3432 
Q 2725 3281 2906 2969 
z
M 947 1747 
Q 947 1113 1208 752 
Q 1469 391 1925 391 
Q 2381 391 2643 752 
Q 2906 1113 2906 1747 
Q 2906 2381 2643 2742 
Q 2381 3103 1925 3103 
Q 1469 3103 1208 2742 
Q 947 2381 947 1747 
z
" transform="scale(0.015625)"/>
      <path id="DejaVuSans-6a" d="M 603 3500 
L 1178 3500 
L 1178 -63 
Q 1178 -731 923 -1031 
Q 669 -1331 103 -1331 
L -116 -1331 
L -116 -844 
L 38 -844 
Q 366 -844 484 -692 
Q 603 -541 603 -63 
L 603 3500 
z
M 603 4863 
L 1178 4863 
L 1178 4134 
L 603 4134 
L 603 4863 
z
" transform="scale(0.015625)"/>
      <path id="DejaVuSans-75" d="M 544 1381 
L 544 3500 
L 1119 3500 
L 1119 1403 
Q 1119 906 1312 657 
Q 1506 409 1894 409 
Q 2359 409 2629 706 
Q 2900 1003 2900 1516 
L 2900 3500 
L 3475 3500 
L 3475 0 
L 2900 0 
L 2900 538 
Q 2691 219 2414 64 
Q 2138 -91 1772 -91 
Q 1169 -91 856 284 
Q 544 659 544 1381 
z
M 1991 3584 
L 1991 3584 
z
" transform="scale(0.015625)"/>
     </defs>
     <use xlink:href="#DejaVuSans-41"/>
     <use xlink:href="#DejaVuSans-64" transform="translate(66.658203 0)"/>
     <use xlink:href="#DejaVuSans-6a" transform="translate(130.134766 0)"/>
     <use xlink:href="#DejaVuSans-75" transform="translate(157.917969 0)"/>
     <use xlink:href="#DejaVuSans-6e" transform="translate(221.296875 0)"/>
     <use xlink:href="#DejaVuSans-67" transform="translate(284.675781 0)"/>
     <use xlink:href="#DejaVuSans-69" transform="translate(348.152344 0)"/>
     <use xlink:href="#DejaVuSans-65" transform="translate(375.935547 0)"/>
     <use xlink:href="#DejaVuSans-72" transform="translate(437.458984 0)"/>
     <use xlink:href="#DejaVuSans-74" transform="translate(478.572266 0)"/>
     <use xlink:href="#DejaVuSans-65" transform="translate(517.78125 0)"/>
     <use xlink:href="#DejaVuSans-72" transform="translate(579.304688 0)"/>
     <use xlink:href="#DejaVuSans-20" transform="translate(620.417969 0)"/>
     <use xlink:href="#DejaVuSans-47" transform="translate(652.205078 0)"/>
     <use xlink:href="#DejaVuSans-72" transform="translate(729.695312 0)"/>
     <use xlink:href="#DejaVuSans-61" transform="translate(770.808594 0)"/>
     <use xlink:href="#DejaVuSans-64" transform="translate(832.087891 0)"/>
     <use xlink:href="#DejaVuSans-69" transform="translate(895.564453 0)"/>
     <use xlink:href="#DejaVuSans-65" transform="translate(923.347656 0)"/>
     <use xlink:href="#DejaVuSans-6e" transform="translate(984.871094 0)"/>
     <use xlink:href="#DejaVuSans-74" transform="translate(1048.25 0)"/>
     <use xlink:href="#DejaVuSans-65" transform="translate(1087.458984 0)"/>
     <use xlink:href="#DejaVuSans-6e" transform="translate(1148.982422 0)"/>
     <use xlink:href="#DejaVuSans-61" transform="translate(1212.361328 0)"/>
     <use xlink:href="#DejaVuSans-62" transform="translate(1273.640625 0)"/>
     <use xlink:href="#DejaVuSans-73" transform="translate(1337.117188 0)"/>
     <use xlink:href="#DejaVuSans-74" transform="translate(1389.216797 0)"/>
     <use xlink:href="#DejaVuSans-69" transform="translate(1428.425781 0)"/>
     <use xlink:href="#DejaVuSans-65" transform="translate(1456.208984 0)"/>
     <use xlink:href="#DejaVuSans-67" transform="translate(1517.732422 0)"/>
    </g>
   </g>
   <g id="legend_1">
    <g id="patch_7">
     <path d="M 237.996019 142.030938 
L 402.385238 142.030938 
Q 404.185238 142.030938 404.185238 140.230938 
L 404.185238 101.5 
Q 404.185238 99.7 402.385238 99.7 
L 237.996019 99.7 
Q 236.196019 99.7 236.196019 101.5 
L 236.196019 140.230938 
Q 236.196019 142.030938 237.996019 142.030938 
z
" style="fill: #ffffff; opacity: 0.8; stroke: #cccccc; stroke-linejoin: miter"/>
    </g>
    <g id="line2d_35">
     <path d="M 239.796019 106.988594 
L 248.796019 106.988594 
L 257.796019 106.988594 
" style="fill: none; stroke: #e63946; stroke-width: 2.5; stroke-linecap: square"/>
    </g>
    <g id="text_18">
     <!-- Rot: RMSE=0.122, R²=0.496 -->
     <g transform="translate(264.996019 110.138594) scale(0.09 -0.09)">
      <defs>
       <path id="DejaVuSans-4d" d="M 628 4666 
L 1569 4666 
L 2759 1491 
L 3956 4666 
L 4897 4666 
L 4897 0 
L 4281 0 
L 4281 4097 
L 3078 897 
L 2444 897 
L 1241 4097 
L 1241 0 
L 628 0 
L 628 4666 
z
" transform="scale(0.015625)"/>
       <path id="DejaVuSans-53" d="M 3425 4513 
L 3425 3897 
Q 3066 4069 2747 4153 
Q 2428 4238 2131 4238 
Q 1616 4238 1336 4038 
Q 1056 3838 1056 3469 
Q 1056 3159 1242 3001 
Q 1428 2844 1947 2747 
L 2328 2669 
Q 3034 2534 3370 2195 
Q 3706 1856 3706 1288 
Q 3706 609 3251 259 
Q 2797 -91 1919 -91 
Q 1588 -91 1214 -16 
Q 841 59 441 206 
L 441 856 
Q 825 641 1194 531 
Q 1563 422 1919 422 
Q 2459 422 2753 634 
Q 3047 847 3047 1241 
Q 3047 1584 2836 1778 
Q 2625 1972 2144 2069 
L 1759 2144 
Q 1053 2284 737 2584 
Q 422 2884 422 3419 
Q 422 4038 858 4394 
Q 1294 4750 2059 4750 
Q 2388 4750 2728 4690 
Q 3069 4631 3425 4513 
z
" transform="scale(0.015625)"/>
       <path id="DejaVuSans-45" d="M 628 4666 
L 3578 4666 
L 3578 4134 
L 1259 4134 
L 1259 2753 
L 3481 2753 
L 3481 2222 
L 1259 2222 
L 1259 531 
L 3634 531 
L 3634 0 
L 628 0 
L 628 4666 
z
" transform="scale(0.015625)"/>
       <path id="DejaVuSans-3d" d="M 678 2906 
L 4684 2906 
L 4684 2381 
L 678 2381 
L 678 2906 
z
M 678 1631 
L 4684 1631 
L 4684 1100 
L 678 1100 
L 678 1631 
z
" transform="scale(0.015625)"/>
       <path id="DejaVuSans-2c" d="M 750 794 
L 1409 794 
L 1409 256 
L 897 -744 
L 494 -744 
L 750 256 
L 750 794 
z
" transform="scale(0.015625)"/>
       <path id="DejaVuSans-b2" d="M 838 2444 
L 2163 2444 
L 2163 2088 
L 294 2088 
L 294 2431 
Q 400 2528 597 2703 
Q 1672 3656 1672 3950 
Q 1672 4156 1509 4282 
Q 1347 4409 1081 4409 
Q 919 4409 728 4354 
Q 538 4300 313 4191 
L 313 4575 
Q 553 4663 761 4706 
Q 969 4750 1147 4750 
Q 1600 4750 1872 4544 
Q 2144 4338 2144 4000 
Q 2144 3566 1109 2678 
Q 934 2528 838 2444 
z
" transform="scale(0.015625)"/>
       <path id="DejaVuSans-39" d="M 703 97 
L 703 672 
Q 941 559 1184 500 
Q 1428 441 1663 441 
Q 2288 441 2617 861 
Q 2947 1281 2994 2138 
Q 2813 1869 2534 1725 
Q 2256 1581 1919 1581 
Q 1219 1581 811 2004 
Q 403 2428 403 3163 
Q 403 3881 828 4315 
Q 1253 4750 1959 4750 
Q 2769 4750 3195 4129 
Q 3622 3509 3622 2328 
Q 3622 1225 3098 567 
Q 2575 -91 1691 -91 
Q 1453 -91 1209 -44 
Q 966 3 703 97 
z
M 1959 2075 
Q 2384 2075 2632 2365 
Q 2881 2656 2881 3163 
Q 2881 3666 2632 3958 
Q 2384 4250 1959 4250 
Q 1534 4250 1286 3958 
Q 1038 3666 1038 3163 
Q 1038 2656 1286 2365 
Q 1534 2075 1959 2075 
z
" transform="scale(0.015625)"/>
      </defs>
      <use xlink:href="#DejaVuSans-52"/>
      <use xlink:href="#DejaVuSans-6f" transform="translate(64.982422 0)"/>
      <use xlink:href="#DejaVuSans-74" transform="translate(126.164062 0)"/>
      <use xlink:href="#DejaVuSans-3a" transform="translate(165.373047 0)"/>
      <use xlink:href="#DejaVuSans-20" transform="translate(199.064453 0)"/>
      <use xlink:href="#DejaVuSans-52" transform="translate(230.851562 0)"/>
      <use xlink:href="#DejaVuSans-4d" transform="translate(300.333984 0)"/>
      <use xlink:href="#DejaVuSans-53" transform="translate(386.613281 0)"/>
      <use xlink:href="#DejaVuSans-45" transform="translate(450.089844 0)"/>
      <use xlink:href="#DejaVuSans-3d" transform="translate(513.273438 0)"/>
      <use xlink:href="#DejaVuSans-30" transform="translate(597.0625 0)"/>
      <use xlink:href="#DejaVuSans-2e" transform="translate(660.685547 0)"/>
      <use xlink:href="#DejaVuSans-31" transform="translate(692.472656 0)"/>
      <use xlink:href="#DejaVuSans-32" transform="translate(756.095703 0)"/>
      <use xlink:href="#DejaVuSans-32" transform="translate(819.71875 0)"/>
      <use xlink:href="#DejaVuSans-2c" transform="translate(883.341797 0)"/>
      <use xlink:href="#DejaVuSans-20" transform="translate(915.128906 0)"/>
      <use xlink:href="#DejaVuSans-52" transform="translate(946.916016 0)"/>
      <use xlink:href="#DejaVuSans-b2" transform="translate(1016.398438 0)"/>
      <use xlink:href="#DejaVuSans-3d" transform="translate(1056.486328 0)"/>
      <use xlink:href="#DejaVuSans-30" transform="translate(1140.275391 0)"/>
      <use xlink:href="#DejaVuSans-2e" transform="translate(1203.898438 0)"/>
      <use xlink:href="#DejaVuSans-34" transform="translate(1235.685547 0)"/>
      <use xlink:href="#DejaVuSans-39" transform="translate(1299.308594 0)"/>
      <use xlink:href="#DejaVuSans-36" transform="translate(1362.931641 0)"/>
     </g>
    </g>
    <g id="line2d_36">
     <path d="M 239.796019 120.198906 
L 248.796019 120.198906 
L 257.796019 120.198906 
" style="fill: none; stroke: #2a9d8f; stroke-width: 2.5; stroke-linecap: square"/>
    </g>
    <g id="text_19">
     <!-- Grün: RMSE=0.167, R²=0.051 -->
     <g transform="translate(264.996019 123.348906) scale(0.09 -0.09)">
      <defs>
       <path id="DejaVuSans-fc" d="M 544 1381 
L 544 3500 
L 1119 3500 
L 1119 1403 
Q 1119 906 1312 657 
Q 1506 409 1894 409 
Q 2359 409 2629 706 
Q 2900 1003 2900 1516 
L 2900 3500 
L 3475 3500 
L 3475 0 
L 2900 0 
L 2900 538 
Q 2691 219 2414 64 
Q 2138 -91 1772 -91 
Q 1169 -91 856 284 
Q 544 659 544 1381 
z
M 1991 3584 
L 1991 3584 
z
M 2278 4850 
L 2912 4850 
L 2912 4219 
L 2278 4219 
L 2278 4850 
z
M 1056 4850 
L 1690 4850 
L 1690 4219 
L 1056 4219 
L 1056 4850 
z
" transform="scale(0.015625)"/>
      </defs>
      <use xlink:href="#DejaVuSans-47"/>
      <use xlink:href="#DejaVuSans-72" transform="translate(77.490234 0)"/>
      <use xlink:href="#DejaVuSans-fc" transform="translate(118.603516 0)"/>
      <use xlink:href="#DejaVuSans-6e" transform="translate(181.982422 0)"/>
      <use xlink:href="#DejaVuSans-3a" transform="translate(245.361328 0)"/>
      <use xlink:href="#DejaVuSans-20" transform="translate(279.052734 0)"/>
      <use xlink:href="#DejaVuSans-52" transform="translate(310.839844 0)"/>
      <use xlink:href="#DejaVuSans-4d" transform="translate(380.322266 0)"/>
      <use xlink:href="#DejaVuSans-53" transform="translate(466.601562 0)"/>
      <use xlink:href="#DejaVuSans-45" transform="translate(530.078125 0)"/>
      <use xlink:href="#DejaVuSans-3d" transform="translate(593.261719 0)"/>
      <use xlink:href="#DejaVuSans-30" transform="translate(677.050781 0)"/>
      <use xlink:href="#DejaVuSans-2e" transform="translate(740.673828 0)"/>
      <use xlink:href="#DejaVuSans-31" transform="translate(772.460938 0)"/>
      <use xlink:href="#DejaVuSans-36" transform="translate(836.083984 0)"/>
      <use xlink:href="#DejaVuSans-37" transform="translate(899.707031 0)"/>
      <use xlink:href="#DejaVuSans-2c" transform="translate(963.330078 0)"/>
      <use xlink:href="#DejaVuSans-20" transform="translate(995.117188 0)"/>
      <use xlink:href="#DejaVuSans-52" transform="translate(1026.904297 0)"/>
      <use xlink:href="#DejaVuSans-b2" transform="translate(1096.386719 0)"/>
      <use xlink:href="#DejaVuSans-3d" transform="translate(1136.474609 0)"/>
      <use xlink:href="#DejaVuSans-30" transform="translate(1220.263672 0)"/>
      <use xlink:href="#DejaVuSans-2e" transform="translate(1283.886719 0)"/>
      <use xlink:href="#DejaVuSans-30" transform="translate(1315.673828 0)"/>
      <use xlink:href="#DejaVuSans-35" transform="translate(1379.296875 0)"/>
      <use xlink:href="#DejaVuSans-31" transform="translate(1442.919922 0)"/>
     </g>
    </g>
    <g id="line2d_37">
     <path d="M 239.796019 133.409219 
L 248.796019 133.409219 
L 257.796019 133.409219 
" style="fill: none; stroke: #457b9d; stroke-width: 2.5; stroke-linecap: square"/>
    </g>
    <g id="text_20">
     <!-- Blau: RMSE=0.137, R²=0.358 -->
     <g transform="translate(264.996019 136.559219) scale(0.09 -0.09)">
      <defs>
       <path id="DejaVuSans-38" d="M 2034 2216 
Q 1584 2216 1326 1975 
Q 1069 1734 1069 1313 
Q 1069 891 1326 650 
Q 1584 409 2034 409 
Q 2484 409 2743 651 
Q 3003 894 3003 1313 
Q 3003 1734 2745 1975 
Q 2488 2216 2034 2216 
z
M 1403 2484 
Q 997 2584 770 2862 
Q 544 3141 544 3541 
Q 544 4100 942 4425 
Q 1341 4750 2034 4750 
Q 2731 4750 3128 4425 
Q 3525 4100 3525 3541 
Q 3525 3141 3298 2862 
Q 3072 2584 2669 2484 
Q 3125 2378 3379 2068 
Q 3634 1759 3634 1313 
Q 3634 634 3220 271 
Q 2806 -91 2034 -91 
Q 1263 -91 848 271 
Q 434 634 434 1313 
Q 434 1759 690 2068 
Q 947 2378 1403 2484 
z
M 1172 3481 
Q 1172 3119 1398 2916 
Q 1625 2713 2034 2713 
Q 2441 2713 2670 2916 
Q 2900 3119 2900 3481 
Q 2900 3844 2670 4047 
Q 2441 4250 2034 4250 
Q 1625 4250 1398 4047 
Q 1172 3844 1172 3481 
z
" transform="scale(0.015625)"/>
      </defs>
      <use xlink:href="#DejaVuSans-42"/>
      <use xlink:href="#DejaVuSans-6c" transform="translate(68.603516 0)"/>
      <use xlink:href="#DejaVuSans-61" transform="translate(96.386719 0)"/>
      <use xlink:href="#DejaVuSans-75" transform="translate(157.666016 0)"/>
      <use xlink:href="#DejaVuSans-3a" transform="translate(221.044922 0)"/>
      <use xlink:href="#DejaVuSans-20" transform="translate(254.736328 0)"/>
      <use xlink:href="#DejaVuSans-52" transform="translate(286.523438 0)"/>
      <use xlink:href="#DejaVuSans-4d" transform="translate(356.005859 0)"/>
      <use xlink:href="#DejaVuSans-53" transform="translate(442.285156 0)"/>
      <use xlink:href="#DejaVuSans-45" transform="translate(505.761719 0)"/>
      <use xlink:href="#DejaVuSans-3d" transform="translate(568.945312 0)"/>
      <use xlink:href="#DejaVuSans-30" transform="translate(652.734375 0)"/>
      <use xlink:href="#DejaVuSans-2e" transform="translate(716.357422 0)"/>
      <use xlink:href="#DejaVuSans-31" transform="translate(748.144531 0)"/>
      <use xlink:href="#DejaVuSans-33" transform="translate(811.767578 0)"/>
      <use xlink:href="#DejaVuSans-37" transform="translate(875.390625 0)"/>
      <use xlink:href="#DejaVuSans-2c" transform="translate(939.013672 0)"/>
      <use xlink:href="#DejaVuSans-20" transform="translate(970.800781 0)"/>
      <use xlink:href="#DejaVuSans-52" transform="translate(1002.587891 0)"/>
      <use xlink:href="#DejaVuSans-b2" transform="translate(1072.070312 0)"/>
      <use xlink:href="#DejaVuSans-3d" transform="translate(1112.158203 0)"/>
      <use xlink:href="#DejaVuSans-30" transform="translate(1195.947266 0)"/>
      <use xlink:href="#DejaVuSans-2e" transform="translate(1259.570312 0)"/>
      <use xlink:href="#DejaVuSans-33" transform="translate(1291.357422 0)"/>
      <use xlink:href="#DejaVuSans-35" transform="translate(1354.980469 0)"/>
      <use xlink:href="#DejaVuSans-38" transform="translate(1418.603516 0)"/>
     </g>
    </g>
   </g>
  </g>
  <g id="axes_2">
   <g id="patch_8">
    <path d="M 492.939762 299.9 
L 836.5 299.9 
L 836.5 95.2 
L 492.939762 95.2 
z
" style="fill: #ffffff"/>
   </g>
   <g id="matplotlib.axis_3">
    <g id="xtick_9">
     <g id="line2d_38">
      <path d="M 508.556136 299.9 
L 508.556136 95.2 
" clip-path="url(#p614bf570bf)" style="fill: none; stroke: #b0b0b0; stroke-opacity: 0.3; stroke-width: 0.8; stroke-linecap: square"/>
     </g>
     <g id="line2d_39">
      <g>
       <use xlink:href="#ma7e010f720" x="508.556136" y="299.9" style="stroke: #000000; stroke-width: 0.8"/>
      </g>
     </g>
     <g id="text_21">
      <!-- 0 -->
      <g transform="translate(505.374886 314.498438) scale(0.1 -0.1)">
       <use xlink:href="#DejaVuSans-30"/>
      </g>
     </g>
    </g>
    <g id="xtick_10">
     <g id="line2d_40">
      <path d="M 564.328902 299.9 
L 564.328902 95.2 
" clip-path="url(#p614bf570bf)" style="fill: none; stroke: #b0b0b0; stroke-opacity: 0.3; stroke-width: 0.8; stroke-linecap: square"/>
     </g>
     <g id="line2d_41">
      <g>
       <use xlink:href="#ma7e010f720" x="564.328902" y="299.9" style="stroke: #000000; stroke-width: 0.8"/>
      </g>
     </g>
     <g id="text_22">
      <!-- 5 -->
      <g transform="translate(561.147652 314.498438) scale(0.1 -0.1)">
       <use xlink:href="#DejaVuSans-35"/>
      </g>
     </g>
    </g>
    <g id="xtick_11">
     <g id="line2d_42">
      <path d="M 620.101668 299.9 
L 620.101668 95.2 
" clip-path="url(#p614bf570bf)" style="fill: none; stroke: #b0b0b0; stroke-opacity: 0.3; stroke-width: 0.8; stroke-linecap: square"/>
     </g>
     <g id="line2d_43">
      <g>
       <use xlink:href="#ma7e010f720" x="620.101668" y="299.9" style="stroke: #000000; stroke-width: 0.8"/>
      </g>
     </g>
     <g id="text_23">
      <!-- 10 -->
      <g transform="translate(613.739168 314.498438) scale(0.1 -0.1)">
       <use xlink:href="#DejaVuSans-31"/>
       <use xlink:href="#DejaVuSans-30" transform="translate(63.623047 0)"/>
      </g>
     </g>
    </g>
    <g id="xtick_12">
     <g id="line2d_44">
      <path d="M 675.874434 299.9 
L 675.874434 95.2 
" clip-path="url(#p614bf570bf)" style="fill: none; stroke: #b0b0b0; stroke-opacity: 0.3; stroke-width: 0.8; stroke-linecap: square"/>
     </g>
     <g id="line2d_45">
      <g>
       <use xlink:href="#ma7e010f720" x="675.874434" y="299.9" style="stroke: #000000; stroke-width: 0.8"/>
      </g>
     </g>
     <g id="text_24">
      <!-- 15 -->
      <g transform="translate(669.511934 314.498438) scale(0.1 -0.1)">
       <use xlink:href="#DejaVuSans-31"/>
       <use xlink:href="#DejaVuSans-35" transform="translate(63.623047 0)"/>
      </g>
     </g>
    </g>
    <g id="xtick_13">
     <g id="line2d_46">
      <path d="M 731.6472 299.9 
L 731.6472 95.2 
" clip-path="url(#p614bf570bf)" style="fill: none; stroke: #b0b0b0; stroke-opacity: 0.3; stroke-width: 0.8; stroke-linecap: square"/>
     </g>
     <g id="line2d_47">
      <g>
       <use xlink:href="#ma7e010f720" x="731.6472" y="299.9" style="stroke: #000000; stroke-width: 0.8"/>
      </g>
     </g>
     <g id="text_25">
      <!-- 20 -->
      <g transform="translate(725.2847 314.498438) scale(0.1 -0.1)">
       <use xlink:href="#DejaVuSans-32"/>
       <use xlink:href="#DejaVuSans-30" transform="translate(63.623047 0)"/>
      </g>
     </g>
    </g>
    <g id="xtick_14">
     <g id="line2d_48">
      <path d="M 787.419966 299.9 
L 787.419966 95.2 
" clip-path="url(#p614bf570bf)" style="fill: none; stroke: #b0b0b0; stroke-opacity: 0.3; stroke-width: 0.8; stroke-linecap: square"/>
     </g>
     <g id="line2d_49">
      <g>
       <use xlink:href="#ma7e010f720" x="787.419966" y="299.9" style="stroke: #000000; stroke-width: 0.8"/>
      </g>
     </g>
     <g id="text_26">
      <!-- 25 -->
      <g transform="translate(781.057466 314.498438) scale(0.1 -0.1)">
       <use xlink:href="#DejaVuSans-32"/>
       <use xlink:href="#DejaVuSans-35" transform="translate(63.623047 0)"/>
      </g>
     </g>
    </g>
    <g id="text_27">
     <!-- Iteration -->
     <g transform="translate(641.390428 328.936406) scale(0.11 -0.11)">
      <defs>
       <path id="DejaVuSans-49" d="M 628 4666 
L 1259 4666 
L 1259 0 
L 628 0 
L 628 4666 
z
" transform="scale(0.015625)"/>
      </defs>
      <use xlink:href="#DejaVuSans-49"/>
      <use xlink:href="#DejaVuSans-74" transform="translate(29.492188 0)"/>
      <use xlink:href="#DejaVuSans-65" transform="translate(68.701172 0)"/>
      <use xlink:href="#DejaVuSans-72" transform="translate(130.224609 0)"/>
      <use xlink:href="#DejaVuSans-61" transform="translate(171.337891 0)"/>
      <use xlink:href="#DejaVuSans-74" transform="translate(232.617188 0)"/>
      <use xlink:href="#DejaVuSans-69" transform="translate(271.826172 0)"/>
      <use xlink:href="#DejaVuSans-6f" transform="translate(299.609375 0)"/>
      <use xlink:href="#DejaVuSans-6e" transform="translate(360.791016 0)"/>
     </g>
    </g>
   </g>
   <g id="matplotlib.axis_4">
    <g id="ytick_7">
     <g id="line2d_50">
      <defs>
       <path id="mf65edf4a1c" d="M 0 0 
L -2 0 
" style="stroke: #000000; stroke-width: 0.6"/>
      </defs>
      <g>
       <use xlink:href="#mf65edf4a1c" x="492.939762" y="212.22894" style="stroke: #000000; stroke-width: 0.6"/>
      </g>
     </g>
     <g id="text_28">
      <!-- $\mathdefault{2\times10^{0}}$ -->
      <g transform="translate(451.339762 216.028159) scale(0.1 -0.1)">
       <defs>
        <path id="DejaVuSans-d7" d="M 4488 3438 
L 3059 2003 
L 4488 575 
L 4116 197 
L 2681 1631 
L 1247 197 
L 878 575 
L 2303 2003 
L 878 3438 
L 1247 3816 
L 2681 2381 
L 4116 3816 
L 4488 3438 
z
" transform="scale(0.015625)"/>
       </defs>
       <use xlink:href="#DejaVuSans-32" transform="translate(0 0.765625)"/>
       <use xlink:href="#DejaVuSans-d7" transform="translate(83.105469 0.765625)"/>
       <use xlink:href="#DejaVuSans-31" transform="translate(186.376953 0.765625)"/>
       <use xlink:href="#DejaVuSans-30" transform="translate(250 0.765625)"/>
       <use xlink:href="#DejaVuSans-30" transform="translate(314.580078 39.046875) scale(0.7)"/>
      </g>
     </g>
    </g>
    <g id="ytick_8">
     <g id="line2d_51">
      <g>
       <use xlink:href="#mf65edf4a1c" x="492.939762" y="151.794912" style="stroke: #000000; stroke-width: 0.6"/>
      </g>
     </g>
     <g id="text_29">
      <!-- $\mathdefault{3\times10^{0}}$ -->
      <g transform="translate(451.339762 155.594131) scale(0.1 -0.1)">
       <use xlink:href="#DejaVuSans-33" transform="translate(0 0.765625)"/>
       <use xlink:href="#DejaVuSans-d7" transform="translate(83.105469 0.765625)"/>
       <use xlink:href="#DejaVuSans-31" transform="translate(186.376953 0.765625)"/>
       <use xlink:href="#DejaVuSans-30" transform="translate(250 0.765625)"/>
       <use xlink:href="#DejaVuSans-30" transform="translate(314.580078 39.046875) scale(0.7)"/>
      </g>
     </g>
    </g>
    <g id="ytick_9">
     <g id="line2d_52">
      <g>
       <use xlink:href="#mf65edf4a1c" x="492.939762" y="108.916287" style="stroke: #000000; stroke-width: 0.6"/>
      </g>
     </g>
     <g id="text_30">
      <!-- $\mathdefault{4\times10^{0}}$ -->
      <g transform="translate(451.339762 112.715506) scale(0.1 -0.1)">
       <use xlink:href="#DejaVuSans-34" transform="translate(0 0.765625)"/>
       <use xlink:href="#DejaVuSans-d7" transform="translate(83.105469 0.765625)"/>
       <use xlink:href="#DejaVuSans-31" transform="translate(186.376953 0.765625)"/>
       <use xlink:href="#DejaVuSans-30" transform="translate(250 0.765625)"/>
       <use xlink:href="#DejaVuSans-30" transform="translate(314.580078 39.046875) scale(0.7)"/>
      </g>
     </g>
    </g>
    <g id="text_31">
     <!-- Kostenfunktion L (log) -->
     <g transform="translate(445.052106 258.002734) rotate(-90) scale(0.11 -0.11)">
      <defs>
       <path id="DejaVuSans-4b" d="M 628 4666 
L 1259 4666 
L 1259 2694 
L 3353 4666 
L 4166 4666 
L 1850 2491 
L 4331 0 
L 3500 0 
L 1259 2247 
L 1259 0 
L 628 0 
L 628 4666 
z
" transform="scale(0.015625)"/>
       <path id="DejaVuSans-6b" d="M 581 4863 
L 1159 4863 
L 1159 1991 
L 2875 3500 
L 3609 3500 
L 1753 1863 
L 3688 0 
L 2938 0 
L 1159 1709 
L 1159 0 
L 581 0 
L 581 4863 
z
" transform="scale(0.015625)"/>
       <path id="DejaVuSans-4c" d="M 628 4666 
L 1259 4666 
L 1259 531 
L 3531 531 
L 3531 0 
L 628 0 
L 628 4666 
z
" transform="scale(0.015625)"/>
      </defs>
      <use xlink:href="#DejaVuSans-4b"/>
      <use xlink:href="#DejaVuSans-6f" transform="translate(60.576172 0)"/>
      <use xlink:href="#DejaVuSans-73" transform="translate(121.757812 0)"/>
      <use xlink:href="#DejaVuSans-74" transform="translate(173.857422 0)"/>
      <use xlink:href="#DejaVuSans-65" transform="translate(213.066406 0)"/>
      <use xlink:href="#DejaVuSans-6e" transform="translate(274.589844 0)"/>
      <use xlink:href="#DejaVuSans-66" transform="translate(337.96875 0)"/>
      <use xlink:href="#DejaVuSans-75" transform="translate(373.173828 0)"/>
      <use xlink:href="#DejaVuSans-6e" transform="translate(436.552734 0)"/>
      <use xlink:href="#DejaVuSans-6b" transform="translate(499.931641 0)"/>
      <use xlink:href="#DejaVuSans-74" transform="translate(557.841797 0)"/>
      <use xlink:href="#DejaVuSans-69" transform="translate(597.050781 0)"/>
      <use xlink:href="#DejaVuSans-6f" transform="translate(624.833984 0)"/>
      <use xlink:href="#DejaVuSans-6e" transform="translate(686.015625 0)"/>
      <use xlink:href="#DejaVuSans-20" transform="translate(749.394531 0)"/>
      <use xlink:href="#DejaVuSans-4c" transform="translate(781.181641 0)"/>
      <use xlink:href="#DejaVuSans-20" transform="translate(836.894531 0)"/>
      <use xlink:href="#DejaVuSans-28" transform="translate(868.681641 0)"/>
      <use xlink:href="#DejaVuSans-6c" transform="translate(907.695312 0)"/>
      <use xlink:href="#DejaVuSans-6f" transform="translate(935.478516 0)"/>
      <use xlink:href="#DejaVuSans-67" transform="translate(996.660156 0)"/>
      <use xlink:href="#DejaVuSans-29" transform="translate(1060.136719 0)"/>
     </g>
    </g>
   </g>
   <g id="line2d_53">
    <path d="M 508.556136 140.221668 
L 519.71069 144.134013 
L 530.865243 146.310567 
L 542.019796 146.899448 
L 553.174349 186.549527 
L 564.328902 199.789006 
L 575.483456 208.830349 
L 586.638009 210.670603 
L 597.792562 210.754433 
L 608.947115 210.75456 
L 620.101668 210.754573 
L 631.256221 210.754651 
L 642.410775 210.754667 
L 653.565328 210.754678 
L 664.719881 210.754685 
L 675.874434 210.754688 
L 687.028987 210.757567 
L 698.183541 245.063501 
L 709.338094 252.371237 
L 720.492647 253.554812 
L 731.6472 258.086158 
L 742.801753 259.734014 
L 753.956306 267.254097 
L 765.11086 277.572061 
L 776.265413 284.100084 
L 787.419966 287.724067 
L 798.574519 289.237759 
L 809.729072 289.529583 
L 820.883626 290.595455 
" clip-path="url(#p614bf570bf)" style="fill: none; stroke: #e63946; stroke-width: 2; stroke-linecap: square"/>
   </g>
   <g id="line2d_54">
    <path d="M 508.556136 104.504545 
L 519.71069 107.434434 
L 530.865243 111.596069 
L 542.019796 116.136725 
L 553.174349 143.594193 
L 564.328902 180.488846 
L 575.483456 189.66911 
L 586.638009 192.362519 
L 597.792562 195.339167 
L 608.947115 195.345713 
L 620.101668 196.149567 
L 631.256221 196.463922 
L 642.410775 196.464346 
L 653.565328 196.473793 
L 664.719881 196.486474 
" clip-path="url(#p614bf570bf)" style="fill: none; stroke: #2a9d8f; stroke-width: 2; stroke-linecap: square"/>
   </g>
   <g id="line2d_55">
    <path d="M 508.556136 145.989991 
L 519.71069 199.213446 
L 530.865243 206.536415 
L 542.019796 213.562001 
L 553.174349 215.301734 
L 564.328902 223.89183 
L 575.483456 237.043876 
L 586.638009 248.336888 
L 597.792562 251.344679 
L 608.947115 254.016999 
" clip-path="url(#p614bf570bf)" style="fill: none; stroke: #457b9d; stroke-width: 2; stroke-linecap: square"/>
   </g>
   <g id="patch_9">
    <path d="M 492.939762 299.9 
L 492.939762 95.2 
" style="fill: none; stroke: #000000; stroke-width: 0.8; stroke-linejoin: miter; stroke-linecap: square"/>
   </g>
   <g id="patch_10">
    <path d="M 836.5 299.9 
L 836.5 95.2 
" style="fill: none; stroke: #000000; stroke-width: 0.8; stroke-linejoin: miter; stroke-linecap: square"/>
   </g>
   <g id="patch_11">
    <path d="M 492.939762 299.9 
L 836.5 299.9 
" style="fill: none; stroke: #000000; stroke-width: 0.8; stroke-linejoin: miter; stroke-linecap: square"/>
   </g>
   <g id="patch_12">
    <path d="M 492.939762 95.2 
L 836.5 95.2 
" style="fill: none; stroke: #000000; stroke-width: 0.8; stroke-linejoin: miter; stroke-linecap: square"/>
   </g>
   <g id="text_32">
    <!-- Konvergenzvergleich RGB-Optimierungen -->
    <g transform="translate(539.712693 89.2) scale(0.12 -0.12)">
     <defs>
      <path id="DejaVuSans-7a" d="M 353 3500 
L 3084 3500 
L 3084 2975 
L 922 459 
L 3084 459 
L 3084 0 
L 275 0 
L 275 525 
L 2438 3041 
L 353 3041 
L 353 3500 
z
" transform="scale(0.015625)"/>
      <path id="DejaVuSans-63" d="M 3122 3366 
L 3122 2828 
Q 2878 2963 2633 3030 
Q 2388 3097 2138 3097 
Q 1578 3097 1268 2742 
Q 959 2388 959 1747 
Q 959 1106 1268 751 
Q 1578 397 2138 397 
Q 2388 397 2633 464 
Q 2878 531 3122 666 
L 3122 134 
Q 2881 22 2623 -34 
Q 2366 -91 2075 -91 
Q 1284 -91 818 406 
Q 353 903 353 1747 
Q 353 2603 823 3093 
Q 1294 3584 2113 3584 
Q 2378 3584 2631 3529 
Q 2884 3475 3122 3366 
z
" transform="scale(0.015625)"/>
      <path id="DejaVuSans-68" d="M 3513 2113 
L 3513 0 
L 2938 0 
L 2938 2094 
Q 2938 2591 2744 2837 
Q 2550 3084 2163 3084 
Q 1697 3084 1428 2787 
Q 1159 2491 1159 1978 
L 1159 0 
L 581 0 
L 581 4863 
L 1159 4863 
L 1159 2956 
Q 1366 3272 1645 3428 
Q 1925 3584 2291 3584 
Q 2894 3584 3203 3211 
Q 3513 2838 3513 2113 
z
" transform="scale(0.015625)"/>
      <path id="DejaVuSans-4f" d="M 2522 4238 
Q 1834 4238 1429 3725 
Q 1025 3213 1025 2328 
Q 1025 1447 1429 934 
Q 1834 422 2522 422 
Q 3209 422 3611 934 
Q 4013 1447 4013 2328 
Q 4013 3213 3611 3725 
Q 3209 4238 2522 4238 
z
M 2522 4750 
Q 3503 4750 4090 4092 
Q 4678 3434 4678 2328 
Q 4678 1225 4090 567 
Q 3503 -91 2522 -91 
Q 1538 -91 948 565 
Q 359 1222 359 2328 
Q 359 3434 948 4092 
Q 1538 4750 2522 4750 
z
" transform="scale(0.015625)"/>
     </defs>
     <use xlink:href="#DejaVuSans-4b"/>
     <use xlink:href="#DejaVuSans-6f" transform="translate(60.576172 0)"/>
     <use xlink:href="#DejaVuSans-6e" transform="translate(121.757812 0)"/>
     <use xlink:href="#DejaVuSans-76" transform="translate(185.136719 0)"/>
     <use xlink:href="#DejaVuSans-65" transform="translate(244.316406 0)"/>
     <use xlink:href="#DejaVuSans-72" transform="translate(305.839844 0)"/>
     <use xlink:href="#DejaVuSans-67" transform="translate(345.203125 0)"/>
     <use xlink:href="#DejaVuSans-65" transform="translate(408.679688 0)"/>
     <use xlink:href="#DejaVuSans-6e" transform="translate(470.203125 0)"/>
     <use xlink:href="#DejaVuSans-7a" transform="translate(533.582031 0)"/>
     <use xlink:href="#DejaVuSans-76" transform="translate(586.072266 0)"/>
     <use xlink:href="#DejaVuSans-65" transform="translate(645.251953 0)"/>
     <use xlink:href="#DejaVuSans-72" transform="translate(706.775391 0)"/>
     <use xlink:href="#DejaVuSans-67" transform="translate(746.138672 0)"/>
     <use xlink:href="#DejaVuSans-6c" transform="translate(809.615234 0)"/>
     <use xlink:href="#DejaVuSans-65" transform="translate(837.398438 0)"/>
     <use xlink:href="#DejaVuSans-69" transform="translate(898.921875 0)"/>
     <use xlink:href="#DejaVuSans-63" transform="translate(926.705078 0)"/>
     <use xlink:href="#DejaVuSans-68" transform="translate(981.685547 0)"/>
     <use xlink:href="#DejaVuSans-20" transform="translate(1045.064453 0)"/>
     <use xlink:href="#DejaVuSans-52" transform="translate(1076.851562 0)"/>
     <use xlink:href="#DejaVuSans-47" transform="translate(1146.333984 0)"/>
     <use xlink:href="#DejaVuSans-42" transform="translate(1223.824219 0)"/>
     <use xlink:href="#DejaVuSans-2d" transform="translate(1292.427734 0)"/>
     <use xlink:href="#DejaVuSans-4f" transform="translate(1331.261719 0)"/>
     <use xlink:href="#DejaVuSans-70" transform="translate(1409.972656 0)"/>
     <use xlink:href="#DejaVuSans-74" transform="translate(1473.449219 0)"/>
     <use xlink:href="#DejaVuSans-69" transform="translate(1512.658203 0)"/>
     <use xlink:href="#DejaVuSans-6d" transform="translate(1540.441406 0)"/>
     <use xlink:href="#DejaVuSans-69" transform="translate(1637.853516 0)"/>
     <use xlink:href="#DejaVuSans-65" transform="translate(1665.636719 0)"/>
     <use xlink:href="#DejaVuSans-72" transform="translate(1727.160156 0)"/>
     <use xlink:href="#DejaVuSans-75" transform="translate(1768.273438 0)"/>
     <use xlink:href="#DejaVuSans-6e" transform="translate(1831.652344 0)"/>
     <use xlink:href="#DejaVuSans-67" transform="translate(1895.03125 0)"/>
     <use xlink:href="#DejaVuSans-65" transform="translate(1958.507812 0)"/>
     <use xlink:href="#DejaVuSans-6e" transform="translate(2020.03125 0)"/>
    </g>
   </g>
   <g id="legend_2">
    <g id="patch_13">
     <path d="M 779.319062 142.030938 
L 830.2 142.030938 
Q 832 142.030938 832 140.230938 
L 832 101.5 
Q 832 99.7 830.2 99.7 
L 779.319062 99.7 
Q 777.519063 99.7 777.519063 101.5 
L 777.519063 140.230938 
Q 777.519063 142.030938 779.319062 142.030938 
z
" style="fill: #ffffff; opacity: 0.8; stroke: #cccccc; stroke-linejoin: miter"/>
    </g>
    <g id="line2d_56">
     <path d="M 781.119063 106.988594 
L 790.119063 106.988594 
L 799.119063 106.988594 
" style="fill: none; stroke: #e63946; stroke-width: 2; stroke-linecap: square"/>
    </g>
    <g id="text_33">
     <!-- Rot -->
     <g transform="translate(806.319063 110.138594) scale(0.09 -0.09)">
      <use xlink:href="#DejaVuSans-52"/>
      <use xlink:href="#DejaVuSans-6f" transform="translate(64.982422 0)"/>
      <use xlink:href="#DejaVuSans-74" transform="translate(126.164062 0)"/>
     </g>
    </g>
    <g id="line2d_57">
     <path d="M 781.119063 120.198906 
L 790.119063 120.198906 
L 799.119063 120.198906 
" style="fill: none; stroke: #2a9d8f; stroke-width: 2; stroke-linecap: square"/>
    </g>
    <g id="text_34">
     <!-- Grün -->
     <g transform="translate(806.319063 123.348906) scale(0.09 -0.09)">
      <use xlink:href="#DejaVuSans-47"/>
      <use xlink:href="#DejaVuSans-72" transform="translate(77.490234 0)"/>
      <use xlink:href="#DejaVuSans-fc" transform="translate(118.603516 0)"/>
      <use xlink:href="#DejaVuSans-6e" transform="translate(181.982422 0)"/>
     </g>
    </g>
    <g id="line2d_58">
     <path d="M 781.119063 133.409219 
L 790.119063 133.409219 
L 799.119063 133.409219 
" style="fill: none; stroke: #457b9d; stroke-width: 2; stroke-linecap: square"/>
    </g>
    <g id="text_35">
     <!-- Blau -->
     <g transform="translate(806.319063 136.559219) scale(0.09 -0.09)">
      <use xlink:href="#DejaVuSans-42"/>
      <use xlink:href="#DejaVuSans-6c" transform="translate(68.603516 0)"/>
      <use xlink:href="#DejaVuSans-61" transform="translate(96.386719 0)"/>
      <use xlink:href="#DejaVuSans-75" transform="translate(157.666016 0)"/>
     </g>
    </g>
   </g>
  </g>
  <g id="text_36">
   <!-- Exp 22: Multi-Ziel-Design – RGB-Primärfarben -->
   <g transform="translate(265.292266 17.260781) scale(0.13 -0.13)">
    <defs>
     <path id="DejaVuSans-Bold-45" d="M 588 4666 
L 3834 4666 
L 3834 3756 
L 1791 3756 
L 1791 2888 
L 3713 2888 
L 3713 1978 
L 1791 1978 
L 1791 909 
L 3903 909 
L 3903 0 
L 588 0 
L 588 4666 
z
" transform="scale(0.015625)"/>
     <path id="DejaVuSans-Bold-78" d="M 1422 1791 
L 159 3500 
L 1344 3500 
L 2059 2463 
L 2784 3500 
L 3969 3500 
L 2706 1797 
L 4031 0 
L 2847 0 
L 2059 1106 
L 1281 0 
L 97 0 
L 1422 1791 
z
" transform="scale(0.015625)"/>
     <path id="DejaVuSans-Bold-70" d="M 1656 506 
L 1656 -1331 
L 538 -1331 
L 538 3500 
L 1656 3500 
L 1656 2988 
Q 1888 3294 2169 3439 
Q 2450 3584 2816 3584 
Q 3463 3584 3878 3070 
Q 4294 2556 4294 1747 
Q 4294 938 3878 423 
Q 3463 -91 2816 -91 
Q 2450 -91 2169 54 
Q 1888 200 1656 506 
z
M 2400 2772 
Q 2041 2772 1848 2508 
Q 1656 2244 1656 1747 
Q 1656 1250 1848 986 
Q 2041 722 2400 722 
Q 2759 722 2948 984 
Q 3138 1247 3138 1747 
Q 3138 2247 2948 2509 
Q 2759 2772 2400 2772 
z
" transform="scale(0.015625)"/>
     <path id="DejaVuSans-Bold-20" transform="scale(0.015625)"/>
     <path id="DejaVuSans-Bold-32" d="M 1844 884 
L 3897 884 
L 3897 0 
L 506 0 
L 506 884 
L 2209 2388 
Q 2438 2594 2547 2791 
Q 2656 2988 2656 3200 
Q 2656 3528 2436 3728 
Q 2216 3928 1850 3928 
Q 1569 3928 1234 3808 
Q 900 3688 519 3450 
L 519 4475 
Q 925 4609 1322 4679 
Q 1719 4750 2100 4750 
Q 2938 4750 3402 4381 
Q 3866 4013 3866 3353 
Q 3866 2972 3669 2642 
Q 3472 2313 2841 1759 
L 1844 884 
z
" transform="scale(0.015625)"/>
     <path id="DejaVuSans-Bold-3a" d="M 716 3500 
L 1844 3500 
L 1844 2291 
L 716 2291 
L 716 3500 
z
M 716 1209 
L 1844 1209 
L 1844 0 
L 716 0 
L 716 1209 
z
" transform="scale(0.015625)"/>
     <path id="DejaVuSans-Bold-4d" d="M 588 4666 
L 2119 4666 
L 3181 2169 
L 4250 4666 
L 5778 4666 
L 5778 0 
L 4641 0 
L 4641 3413 
L 3566 897 
L 2803 897 
L 1728 3413 
L 1728 0 
L 588 0 
L 588 4666 
z
" transform="scale(0.015625)"/>
     <path id="DejaVuSans-Bold-75" d="M 500 1363 
L 500 3500 
L 1625 3500 
L 1625 3150 
Q 1625 2866 1622 2436 
Q 1619 2006 1619 1863 
Q 1619 1441 1641 1255 
Q 1663 1069 1716 984 
Q 1784 875 1895 815 
Q 2006 756 2150 756 
Q 2500 756 2700 1025 
Q 2900 1294 2900 1772 
L 2900 3500 
L 4019 3500 
L 4019 0 
L 2900 0 
L 2900 506 
Q 2647 200 2364 54 
Q 2081 -91 1741 -91 
Q 1134 -91 817 281 
Q 500 653 500 1363 
z
" transform="scale(0.015625)"/>
     <path id="DejaVuSans-Bold-6c" d="M 538 4863 
L 1656 4863 
L 1656 0 
L 538 0 
L 538 4863 
z
" transform="scale(0.015625)"/>
     <path id="DejaVuSans-Bold-74" d="M 1759 4494 
L 1759 3500 
L 2913 3500 
L 2913 2700 
L 1759 2700 
L 1759 1216 
Q 1759 972 1856 886 
Q 1953 800 2241 800 
L 2816 800 
L 2816 0 
L 1856 0 
Q 1194 0 917 276 
Q 641 553 641 1216 
L 641 2700 
L 84 2700 
L 84 3500 
L 641 3500 
L 641 4494 
L 1759 4494 
z
" transform="scale(0.015625)"/>
     <path id="DejaVuSans-Bold-69" d="M 538 3500 
L 1656 3500 
L 1656 0 
L 538 0 
L 538 3500 
z
M 538 4863 
L 1656 4863 
L 1656 3950 
L 538 3950 
L 538 4863 
z
" transform="scale(0.015625)"/>
     <path id="DejaVuSans-Bold-2d" d="M 347 2297 
L 2309 2297 
L 2309 1388 
L 347 1388 
L 347 2297 
z
" transform="scale(0.015625)"/>
     <path id="DejaVuSans-Bold-5a" d="M 359 4666 
L 4281 4666 
L 4281 3938 
L 1778 909 
L 4353 909 
L 4353 0 
L 288 0 
L 288 728 
L 2791 3756 
L 359 3756 
L 359 4666 
z
" transform="scale(0.015625)"/>
     <path id="DejaVuSans-Bold-65" d="M 4031 1759 
L 4031 1441 
L 1416 1441 
Q 1456 1047 1700 850 
Q 1944 653 2381 653 
Q 2734 653 3104 758 
Q 3475 863 3866 1075 
L 3866 213 
Q 3469 63 3072 -14 
Q 2675 -91 2278 -91 
Q 1328 -91 801 392 
Q 275 875 275 1747 
Q 275 2603 792 3093 
Q 1309 3584 2216 3584 
Q 3041 3584 3536 3087 
Q 4031 2591 4031 1759 
z
M 2881 2131 
Q 2881 2450 2695 2645 
Q 2509 2841 2209 2841 
Q 1884 2841 1681 2658 
Q 1478 2475 1428 2131 
L 2881 2131 
z
" transform="scale(0.015625)"/>
     <path id="DejaVuSans-Bold-44" d="M 1791 3756 
L 1791 909 
L 2222 909 
Q 2959 909 3348 1275 
Q 3738 1641 3738 2338 
Q 3738 3031 3350 3393 
Q 2963 3756 2222 3756 
L 1791 3756 
z
M 588 4666 
L 1856 4666 
Q 2919 4666 3439 4514 
Q 3959 4363 4331 4000 
Q 4659 3684 4818 3271 
Q 4978 2859 4978 2338 
Q 4978 1809 4818 1395 
Q 4659 981 4331 666 
Q 3956 303 3431 151 
Q 2906 0 1856 0 
L 588 0 
L 588 4666 
z
" transform="scale(0.015625)"/>
     <path id="DejaVuSans-Bold-73" d="M 3272 3391 
L 3272 2541 
Q 2913 2691 2578 2766 
Q 2244 2841 1947 2841 
Q 1628 2841 1473 2761 
Q 1319 2681 1319 2516 
Q 1319 2381 1436 2309 
Q 1553 2238 1856 2203 
L 2053 2175 
Q 2913 2066 3209 1816 
Q 3506 1566 3506 1031 
Q 3506 472 3093 190 
Q 2681 -91 1863 -91 
Q 1516 -91 1145 -36 
Q 775 19 384 128 
L 384 978 
Q 719 816 1070 734 
Q 1422 653 1784 653 
Q 2113 653 2278 743 
Q 2444 834 2444 1013 
Q 2444 1163 2330 1236 
Q 2216 1309 1875 1350 
L 1678 1375 
Q 931 1469 631 1722 
Q 331 1975 331 2491 
Q 331 3047 712 3315 
Q 1094 3584 1881 3584 
Q 2191 3584 2531 3537 
Q 2872 3491 3272 3391 
z
" transform="scale(0.015625)"/>
     <path id="DejaVuSans-Bold-67" d="M 2919 594 
Q 2688 288 2409 144 
Q 2131 0 1766 0 
Q 1125 0 706 504 
Q 288 1009 288 1791 
Q 288 2575 706 3076 
Q 1125 3578 1766 3578 
Q 2131 3578 2409 3434 
Q 2688 3291 2919 2981 
L 2919 3500 
L 4044 3500 
L 4044 353 
Q 4044 -491 3511 -936 
Q 2978 -1381 1966 -1381 
Q 1638 -1381 1331 -1331 
Q 1025 -1281 716 -1178 
L 716 -306 
Q 1009 -475 1290 -558 
Q 1572 -641 1856 -641 
Q 2406 -641 2662 -400 
Q 2919 -159 2919 353 
L 2919 594 
z
M 2181 2772 
Q 1834 2772 1640 2515 
Q 1447 2259 1447 1791 
Q 1447 1309 1634 1061 
Q 1822 813 2181 813 
Q 2531 813 2725 1069 
Q 2919 1325 2919 1791 
Q 2919 2259 2725 2515 
Q 2531 2772 2181 2772 
z
" transform="scale(0.015625)"/>
     <path id="DejaVuSans-Bold-6e" d="M 4056 2131 
L 4056 0 
L 2931 0 
L 2931 347 
L 2931 1631 
Q 2931 2084 2911 2256 
Q 2891 2428 2841 2509 
Q 2775 2619 2662 2680 
Q 2550 2741 2406 2741 
Q 2056 2741 1856 2470 
Q 1656 2200 1656 1722 
L 1656 0 
L 538 0 
L 538 3500 
L 1656 3500 
L 1656 2988 
Q 1909 3294 2193 3439 
Q 2478 3584 2822 3584 
Q 3428 3584 3742 3212 
Q 4056 2841 4056 2131 
z
" transform="scale(0.015625)"/>
     <path id="DejaVuSans-Bold-2013" d="M 344 2156 
L 2856 2156 
L 2856 1350 
L 344 1350 
L 344 2156 
z
" transform="scale(0.015625)"/>
     <path id="DejaVuSans-Bold-52" d="M 2297 2597 
Q 2675 2597 2839 2737 
Q 3003 2878 3003 3200 
Q 3003 3519 2839 3656 
Q 2675 3794 2297 3794 
L 1791 3794 
L 1791 2597 
L 2297 2597 
z
M 1791 1766 
L 1791 0 
L 588 0 
L 588 4666 
L 2425 4666 
Q 3347 4666 3776 4356 
Q 4206 4047 4206 3378 
Q 4206 2916 3982 2619 
Q 3759 2322 3309 2181 
Q 3556 2125 3751 1926 
Q 3947 1728 4147 1325 
L 4800 0 
L 3519 0 
L 2950 1159 
Q 2778 1509 2601 1637 
Q 2425 1766 2131 1766 
L 1791 1766 
z
" transform="scale(0.015625)"/>
     <path id="DejaVuSans-Bold-47" d="M 4781 347 
Q 4331 128 3847 18 
Q 3363 -91 2847 -91 
Q 1681 -91 1000 561 
Q 319 1213 319 2328 
Q 319 3456 1012 4103 
Q 1706 4750 2913 4750 
Q 3378 4750 3804 4662 
Q 4231 4575 4609 4403 
L 4609 3438 
Q 4219 3659 3833 3768 
Q 3447 3878 3059 3878 
Q 2341 3878 1952 3476 
Q 1563 3075 1563 2328 
Q 1563 1588 1938 1184 
Q 2313 781 3003 781 
Q 3191 781 3352 804 
Q 3513 828 3641 878 
L 3641 1784 
L 2906 1784 
L 2906 2591 
L 4781 2591 
L 4781 347 
z
" transform="scale(0.015625)"/>
     <path id="DejaVuSans-Bold-42" d="M 2456 2859 
Q 2741 2859 2887 2984 
Q 3034 3109 3034 3353 
Q 3034 3594 2887 3720 
Q 2741 3847 2456 3847 
L 1791 3847 
L 1791 2859 
L 2456 2859 
z
M 2497 819 
Q 2859 819 3042 972 
Q 3225 1125 3225 1434 
Q 3225 1738 3044 1889 
Q 2863 2041 2497 2041 
L 1791 2041 
L 1791 819 
L 2497 819 
z
M 3616 2497 
Q 4003 2384 4215 2081 
Q 4428 1778 4428 1338 
Q 4428 663 3972 331 
Q 3516 0 2584 0 
L 588 0 
L 588 4666 
L 2394 4666 
Q 3366 4666 3802 4372 
Q 4238 4078 4238 3431 
Q 4238 3091 4078 2852 
Q 3919 2613 3616 2497 
z
" transform="scale(0.015625)"/>
     <path id="DejaVuSans-Bold-50" d="M 588 4666 
L 2584 4666 
Q 3475 4666 3951 4270 
Q 4428 3875 4428 3144 
Q 4428 2409 3951 2014 
Q 3475 1619 2584 1619 
L 1791 1619 
L 1791 0 
L 588 0 
L 588 4666 
z
M 1791 3794 
L 1791 2491 
L 2456 2491 
Q 2806 2491 2997 2661 
Q 3188 2831 3188 3144 
Q 3188 3456 2997 3625 
Q 2806 3794 2456 3794 
L 1791 3794 
z
" transform="scale(0.015625)"/>
     <path id="DejaVuSans-Bold-72" d="M 3138 2547 
Q 2991 2616 2845 2648 
Q 2700 2681 2553 2681 
Q 2122 2681 1889 2404 
Q 1656 2128 1656 1613 
L 1656 0 
L 538 0 
L 538 3500 
L 1656 3500 
L 1656 2925 
Q 1872 3269 2151 3426 
Q 2431 3584 2822 3584 
Q 2878 3584 2943 3579 
Q 3009 3575 3134 3559 
L 3138 2547 
z
" transform="scale(0.015625)"/>
     <path id="DejaVuSans-Bold-6d" d="M 3781 2919 
Q 3994 3244 4286 3414 
Q 4578 3584 4928 3584 
Q 5531 3584 5847 3212 
Q 6163 2841 6163 2131 
L 6163 0 
L 5038 0 
L 5038 1825 
Q 5041 1866 5042 1909 
Q 5044 1953 5044 2034 
Q 5044 2406 4934 2573 
Q 4825 2741 4581 2741 
Q 4263 2741 4089 2478 
Q 3916 2216 3909 1719 
L 3909 0 
L 2784 0 
L 2784 1825 
Q 2784 2406 2684 2573 
Q 2584 2741 2328 2741 
Q 2006 2741 1831 2477 
Q 1656 2213 1656 1722 
L 1656 0 
L 531 0 
L 531 3500 
L 1656 3500 
L 1656 2988 
Q 1863 3284 2130 3434 
Q 2397 3584 2719 3584 
Q 3081 3584 3359 3409 
Q 3638 3234 3781 2919 
z
" transform="scale(0.015625)"/>
     <path id="DejaVuSans-Bold-e4" d="M 2106 1575 
Q 1756 1575 1579 1456 
Q 1403 1338 1403 1106 
Q 1403 894 1545 773 
Q 1688 653 1941 653 
Q 2256 653 2472 879 
Q 2688 1106 2688 1447 
L 2688 1575 
L 2106 1575 
z
M 3816 1997 
L 3816 0 
L 2688 0 
L 2688 519 
Q 2463 200 2181 54 
Q 1900 -91 1497 -91 
Q 953 -91 614 226 
Q 275 544 275 1050 
Q 275 1666 698 1953 
Q 1122 2241 2028 2241 
L 2688 2241 
L 2688 2328 
Q 2688 2594 2478 2717 
Q 2269 2841 1825 2841 
Q 1466 2841 1156 2769 
Q 847 2697 581 2553 
L 581 3406 
Q 941 3494 1303 3539 
Q 1666 3584 2028 3584 
Q 2975 3584 3395 3211 
Q 3816 2838 3816 1997 
z
M 1200 4953 
L 1934 4953 
L 1934 4184 
L 1200 4184 
L 1200 4953 
z
M 2434 4953 
L 3168 4953 
L 3168 4184 
L 2434 4184 
L 2434 4953 
z
" transform="scale(0.015625)"/>
     <path id="DejaVuSans-Bold-66" d="M 2841 4863 
L 2841 4128 
L 2222 4128 
Q 1984 4128 1890 4042 
Q 1797 3956 1797 3744 
L 1797 3500 
L 2753 3500 
L 2753 2700 
L 1797 2700 
L 1797 0 
L 678 0 
L 678 2700 
L 122 2700 
L 122 3500 
L 678 3500 
L 678 3744 
Q 678 4316 997 4589 
Q 1316 4863 1984 4863 
L 2841 4863 
z
" transform="scale(0.015625)"/>
     <path id="DejaVuSans-Bold-61" d="M 2106 1575 
Q 1756 1575 1579 1456 
Q 1403 1338 1403 1106 
Q 1403 894 1545 773 
Q 1688 653 1941 653 
Q 2256 653 2472 879 
Q 2688 1106 2688 1447 
L 2688 1575 
L 2106 1575 
z
M 3816 1997 
L 3816 0 
L 2688 0 
L 2688 519 
Q 2463 200 2181 54 
Q 1900 -91 1497 -91 
Q 953 -91 614 226 
Q 275 544 275 1050 
Q 275 1666 698 1953 
Q 1122 2241 2028 2241 
L 2688 2241 
L 2688 2328 
Q 2688 2594 2478 2717 
Q 2269 2841 1825 2841 
Q 1466 2841 1156 2769 
Q 847 2697 581 2553 
L 581 3406 
Q 941 3494 1303 3539 
Q 1666 3584 2028 3584 
Q 2975 3584 3395 3211 
Q 3816 2838 3816 1997 
z
" transform="scale(0.015625)"/>
     <path id="DejaVuSans-Bold-62" d="M 2400 722 
Q 2759 722 2948 984 
Q 3138 1247 3138 1747 
Q 3138 2247 2948 2509 
Q 2759 2772 2400 2772 
Q 2041 2772 1848 2508 
Q 1656 2244 1656 1747 
Q 1656 1250 1848 986 
Q 2041 722 2400 722 
z
M 1656 2988 
Q 1888 3294 2169 3439 
Q 2450 3584 2816 3584 
Q 3463 3584 3878 3070 
Q 4294 2556 4294 1747 
Q 4294 938 3878 423 
Q 3463 -91 2816 -91 
Q 2450 -91 2169 54 
Q 1888 200 1656 506 
L 1656 0 
L 538 0 
L 538 4863 
L 1656 4863 
L 1656 2988 
z
" transform="scale(0.015625)"/>
    </defs>
    <use xlink:href="#DejaVuSans-Bold-45"/>
    <use xlink:href="#DejaVuSans-Bold-78" transform="translate(68.310547 0)"/>
    <use xlink:href="#DejaVuSans-Bold-70" transform="translate(132.8125 0)"/>
    <use xlink:href="#DejaVuSans-Bold-20" transform="translate(204.394531 0)"/>
    <use xlink:href="#DejaVuSans-Bold-32" transform="translate(239.208984 0)"/>
    <use xlink:href="#DejaVuSans-Bold-32" transform="translate(308.789062 0)"/>
    <use xlink:href="#DejaVuSans-Bold-3a" transform="translate(378.369141 0)"/>
    <use xlink:href="#DejaVuSans-Bold-20" transform="translate(418.359375 0)"/>
    <use xlink:href="#DejaVuSans-Bold-4d" transform="translate(453.173828 0)"/>
    <use xlink:href="#DejaVuSans-Bold-75" transform="translate(552.685547 0)"/>
    <use xlink:href="#DejaVuSans-Bold-6c" transform="translate(623.876953 0)"/>
    <use xlink:href="#DejaVuSans-Bold-74" transform="translate(658.154297 0)"/>
    <use xlink:href="#DejaVuSans-Bold-69" transform="translate(705.957031 0)"/>
    <use xlink:href="#DejaVuSans-Bold-2d" transform="translate(740.234375 0)"/>
    <use xlink:href="#DejaVuSans-Bold-5a" transform="translate(781.738281 0)"/>
    <use xlink:href="#DejaVuSans-Bold-69" transform="translate(854.248047 0)"/>
    <use xlink:href="#DejaVuSans-Bold-65" transform="translate(888.525391 0)"/>
    <use xlink:href="#DejaVuSans-Bold-6c" transform="translate(956.347656 0)"/>
    <use xlink:href="#DejaVuSans-Bold-2d" transform="translate(990.625 0)"/>
    <use xlink:href="#DejaVuSans-Bold-44" transform="translate(1032.128906 0)"/>
    <use xlink:href="#DejaVuSans-Bold-65" transform="translate(1115.136719 0)"/>
    <use xlink:href="#DejaVuSans-Bold-73" transform="translate(1182.958984 0)"/>
    <use xlink:href="#DejaVuSans-Bold-69" transform="translate(1242.480469 0)"/>
    <use xlink:href="#DejaVuSans-Bold-67" transform="translate(1276.757812 0)"/>
    <use xlink:href="#DejaVuSans-Bold-6e" transform="translate(1348.339844 0)"/>
    <use xlink:href="#DejaVuSans-Bold-20" transform="translate(1419.53125 0)"/>
    <use xlink:href="#DejaVuSans-Bold-2013" transform="translate(1454.345703 0)"/>
    <use xlink:href="#DejaVuSans-Bold-20" transform="translate(1504.345703 0)"/>
    <use xlink:href="#DejaVuSans-Bold-52" transform="translate(1539.160156 0)"/>
    <use xlink:href="#DejaVuSans-Bold-47" transform="translate(1616.162109 0)"/>
    <use xlink:href="#DejaVuSans-Bold-42" transform="translate(1698.242188 0)"/>
    <use xlink:href="#DejaVuSans-Bold-2d" transform="translate(1774.462891 0)"/>
    <use xlink:href="#DejaVuSans-Bold-50" transform="translate(1815.966797 0)"/>
    <use xlink:href="#DejaVuSans-Bold-72" transform="translate(1889.257812 0)"/>
    <use xlink:href="#DejaVuSans-Bold-69" transform="translate(1938.574219 0)"/>
    <use xlink:href="#DejaVuSans-Bold-6d" transform="translate(1972.851562 0)"/>
    <use xlink:href="#DejaVuSans-Bold-e4" transform="translate(2077.050781 0)"/>
    <use xlink:href="#DejaVuSans-Bold-72" transform="translate(2144.53125 0)"/>
    <use xlink:href="#DejaVuSans-Bold-66" transform="translate(2193.847656 0)"/>
    <use xlink:href="#DejaVuSans-Bold-61" transform="translate(2237.353516 0)"/>
    <use xlink:href="#DejaVuSans-Bold-72" transform="translate(2304.833984 0)"/>
    <use xlink:href="#DejaVuSans-Bold-62" transform="translate(2354.150391 0)"/>
    <use xlink:href="#DejaVuSans-Bold-65" transform="translate(2425.732422 0)"/>
    <use xlink:href="#DejaVuSans-Bold-6e" transform="translate(2493.554688 0)"/>
   </g>
  </g>
 </g>
 <defs>
  <clipPath id="p8a2b426519">
   <rect x="65.125" y="95.2" width="343.560238" height="204.7"/>
  </clipPath>
  <clipPath id="p614bf570bf">
   <rect x="492.939762" y="95.2" width="343.560238" height="204.7"/>
  </clipPath>
 </defs>
</svg>
