<?xml version="1.0" encoding="utf-8" standalone="no"?>
<!DOCTYPE svg PUBLIC "-//W3C//DTD SVG 1.1//EN"
  "http://www.w3.org/Graphics/SVG/1.1/DTD/svg11.dtd">
<svg xmlns:xlink="http://www.w3.org/1999/xlink" width="864pt" height="360pt" viewBox="0 0 864 360" xmlns="http://www.w3.org/2000/svg" version="1.1">
 <metadata>
  <rdf:RDF xmlns:dc="http://purl.org/dc/elements/1.1/" xmlns:cc="http://creativecommons.org/ns#" xmlns:rdf="http://www.w3.org/1999/02/22-rdf-syntax-ns#">
   <cc:Work>
    <dc:type rdf:resource="http://purl.org/dc/dcmitype/StillImage"/>
    <dc:date>2026-02-27T22:39:51.507275</dc:date>
    <dc:format>image/svg+xml</dc:format>
    <dc:creator>
     <cc:Agent>
      <dc:title>Matplotlib v3.10.8, https://matplotlib.org/</dc:title>
     </cc:Agent>
    </dc:creator>
   </cc:Work>
  </rdf:RDF>
 </metadata>
 <defs>
  <style type="text/css">*{stroke-linejoin: round; stroke-linecap: butt}</style>
 </defs>
 <g id="figure_1">
  <g id="patch_1">
   <path d="M 0 360 
L 864 360 
L 864 0 
L 0 0 
z
" style="fill: #ffffff"/>
  </g>
  <g id="axes_1">
   <g id="patch_2">
    <path d="M 65.125 299.9 
L 408.685238 299.9 
L 408.685238 95.2 
L 65.125 95.2 
z
" style="fill: #ffffff"/>
   </g>
   <g id="FillBetweenPolyCollection_1">
    <defs>
     <path id="m0be5d4ad12" d="M 65.125 -194.59278 
L 65.125 -70.964087 
L 68.595305 -71.623424 
L 72.065611 -72.497233 
L 75.535916 -73.624634 
L 79.006222 -75.03945 
L 82.476527 -76.765003 
L 85.946833 -78.808836 
L 89.417138 -81.158287 
L 92.887443 -83.777985 
L 96.357749 -86.61023 
L 99.828054 -89.578908 
L 103.29836 -92.597026 
L 106.768665 -95.577228 
L 110.238971 -98.44401 
L 113.709276 -101.145799 
L 117.179582 -103.664884 
L 120.649887 -106.02343 
L 124.120192 -108.284351 
L 127.590498 -110.546747 
L 131.060803 -112.936509 
L 134.531109 -115.593519 
L 138.001414 -118.657366 
L 141.47172 -122.253613 
L 144.942025 -126.482337 
L 148.41233 -131.410107 
L 151.882636 -137.065854 
L 155.352941 -143.440425 
L 158.823247 -150.489111 
L 162.293552 -158.136188 
L 165.763858 -166.280472 
L 169.234163 -174.801066 
L 172.704468 -183.562733 
L 176.174774 -192.42062 
L 179.645079 -201.22429 
L 183.115385 -209.821193 
L 186.58569 -218.059765 
L 190.055996 -225.792354 
L 193.526301 -232.878099 
L 196.996607 -239.18583 
L 200.466912 -244.596966 
L 203.937217 -249.008331 
L 207.407523 -252.334768 
L 210.877828 -254.511407 
L 214.348134 -255.495455 
L 217.818439 -255.267392 
L 221.288745 -253.831493 
L 224.75905 -251.215615 
L 228.229355 -247.470258 
L 231.699661 -242.666919 
L 235.169966 -236.895809 
L 238.640272 -230.263036 
L 242.110577 -222.887362 
L 245.580883 -214.896693 
L 249.051188 -206.424438 
L 252.521493 -197.605917 
L 255.991799 -188.574977 
L 259.462104 -179.461011 
L 262.93241 -170.386575 
L 266.402715 -161.465834 
L 269.873021 -152.804061 
L 273.343326 -144.498401 
L 276.813632 -136.639975 
L 280.283937 -129.317153 
L 283.754242 -122.619405 
L 287.224548 -116.640528 
L 290.694853 -111.479466 
L 294.165159 -107.236573 
L 297.635464 -104.003407 
L 301.10577 -101.845293 
L 304.576075 -100.778031 
L 308.04638 -100.742929 
L 311.516686 -101.586872 
L 314.986991 -103.055342 
L 318.457297 -104.805011 
L 321.927602 -106.438424 
L 325.397908 -107.557203 
L 328.868213 -107.823828 
L 332.338518 -107.017957 
L 335.808824 -105.073113 
L 339.279129 -102.084078 
L 342.749435 -98.283048 
L 346.21974 -93.991069 
L 349.690046 -89.557442 
L 353.160351 -85.301806 
L 356.630657 -81.471108 
L 360.100962 -78.218022 
L 363.571267 -75.600883 
L 367.041573 -73.59999 
L 370.511878 -72.142608 
L 373.982184 -71.129083 
L 377.452489 -70.454643 
L 380.922795 -70.024184 
L 384.3931 -69.759911 
L 387.863405 -69.60325 
L 391.333711 -69.513105 
L 394.804016 -69.462383 
L 398.274322 -69.434195 
L 401.744627 -69.418524 
L 405.214933 -69.40968 
L 408.685238 -69.404545 
L 408.685238 -142.767571 
L 408.685238 -142.767571 
L 405.214933 -140.101339 
L 401.744627 -137.488134 
L 398.274322 -134.938172 
L 394.804016 -132.46112 
L 391.333711 -130.065935 
L 387.863405 -127.760719 
L 384.3931 -125.552584 
L 380.922795 -123.447534 
L 377.452489 -121.450378 
L 373.982184 -119.564676 
L 370.511878 -117.792711 
L 367.041573 -116.135519 
L 363.571267 -114.59295 
L 360.100962 -113.163781 
L 356.630657 -111.845881 
L 353.160351 -110.636413 
L 349.690046 -109.532094 
L 346.21974 -108.529485 
L 342.749435 -107.625325 
L 339.279129 -106.816894 
L 335.808824 -106.102394 
L 332.338518 -105.481354 
L 328.868213 -104.955022 
L 325.397908 -104.526754 
L 321.927602 -104.202378 
L 318.457297 -103.990505 
L 314.986991 -103.902776 
L 311.516686 -103.954019 
L 308.04638 -104.162293 
L 304.576075 -104.548783 
L 301.10577 -105.137521 
L 297.635464 -105.954922 
L 294.165159 -107.029088 
L 290.694853 -108.388893 
L 287.224548 -110.062844 
L 283.754242 -112.077724 
L 280.283937 -114.457085 
L 276.813632 -117.219632 
L 273.343326 -120.377595 
L 269.873021 -123.935186 
L 266.402715 -127.887271 
L 262.93241 -132.218345 
L 259.462104 -136.901935 
L 255.991799 -141.900476 
L 252.521493 -147.165708 
L 249.051188 -152.639572 
L 245.580883 -158.255536 
L 242.110577 -163.940256 
L 238.640272 -169.615428 
L 235.169966 -175.199704 
L 231.699661 -180.610509 
L 228.229355 -185.765658 
L 224.75905 -190.584672 
L 221.288745 -194.989747 
L 217.818439 -198.906365 
L 214.348134 -202.263564 
L 210.877828 -204.99394 
L 207.407523 -207.033457 
L 203.937217 -208.321184 
L 200.466912 -208.799096 
L 196.996607 -208.412101 
L 193.526301 -207.108497 
L 190.055996 -204.841083 
L 186.58569 -201.569212 
L 183.115385 -197.262095 
L 179.645079 -191.903705 
L 176.174774 -185.499581 
L 172.704468 -178.08572 
L 169.234163 -169.739438 
L 165.763858 -160.591537 
L 162.293552 -150.838253 
L 158.823247 -140.750321 
L 155.352941 -130.675292 
L 151.882636 -121.028557 
L 148.41233 -112.269039 
L 144.942025 -104.858197 
L 141.47172 -99.205852 
L 138.001414 -95.612273 
L 134.531109 -94.220355 
L 131.060803 -94.99155 
L 127.590498 -97.713478 
L 124.120192 -102.037719 
L 120.649887 -107.537616 
L 117.179582 -113.771789 
L 113.709276 -120.340418 
L 110.238971 -126.926277 
L 106.768665 -133.317804 
L 103.29836 -139.415059 
L 99.828054 -145.220595 
L 96.357749 -150.816962 
L 92.887443 -156.332157 
L 89.417138 -161.895188 
L 85.946833 -167.586514 
L 82.476527 -173.39154 
L 79.006222 -179.16734 
L 75.535916 -184.630948 
L 72.065611 -189.371494 
L 68.595305 -192.880852 
L 65.125 -194.59278 
z
" style="stroke: #e63946; stroke-opacity: 0.15"/>
    </defs>
    <g clip-path="url(#p72b1baf6bc)">
     <use xlink:href="#m0be5d4ad12" x="0" y="360" style="fill: #e63946; fill-opacity: 0.15; stroke: #e63946; stroke-opacity: 0.15"/>
    </g>
   </g>
   <g id="matplotlib.axis_1">
    <g id="xtick_1">
     <g id="line2d_1">
      <path d="M 82.303012 299.9 
L 82.303012 95.2 
" clip-path="url(#p72b1baf6bc)" style="fill: none; stroke: #b0b0b0; stroke-opacity: 0.3; stroke-width: 0.8; stroke-linecap: square"/>
     </g>
     <g id="line2d_2">
      <defs>
       <path id="m930bd330ef" d="M 0 0 
L 0 3.5 
" style="stroke: #000000; stroke-width: 0.8"/>
      </defs>
      <g>
       <use xlink:href="#m930bd330ef" x="82.303012" y="299.9" style="stroke: #000000; stroke-width: 0.8"/>
      </g>
     </g>
     <g id="text_1">
      <!-- 400 -->
      <g transform="translate(72.759262 314.498438) scale(0.1 -0.1)">
       <defs>
        <path id="DejaVuSans-34" d="M 2419 4116 
L 825 1625 
L 2419 1625 
L 2419 4116 
z
M 2253 4666 
L 3047 4666 
L 3047 1625 
L 3713 1625 
L 3713 1100 
L 3047 1100 
L 3047 0 
L 2419 0 
L 2419 1100 
L 313 1100 
L 313 1709 
L 2253 4666 
z
" transform="scale(0.015625)"/>
        <path id="DejaVuSans-30" d="M 2034 4250 
Q 1547 4250 1301 3770 
Q 1056 3291 1056 2328 
Q 1056 1369 1301 889 
Q 1547 409 2034 409 
Q 2525 409 2770 889 
Q 3016 1369 3016 2328 
Q 3016 3291 2770 3770 
Q 2525 4250 2034 4250 
z
M 2034 4750 
Q 2819 4750 3233 4129 
Q 3647 3509 3647 2328 
Q 3647 1150 3233 529 
Q 2819 -91 2034 -91 
Q 1250 -91 836 529 
Q 422 1150 422 2328 
Q 422 3509 836 4129 
Q 1250 4750 2034 4750 
z
" transform="scale(0.015625)"/>
       </defs>
       <use xlink:href="#DejaVuSans-34"/>
       <use xlink:href="#DejaVuSans-30" transform="translate(63.623047 0)"/>
       <use xlink:href="#DejaVuSans-30" transform="translate(127.246094 0)"/>
      </g>
     </g>
    </g>
    <g id="xtick_2">
     <g id="line2d_3">
      <path d="M 125.248042 299.9 
L 125.248042 95.2 
" clip-path="url(#p72b1baf6bc)" style="fill: none; stroke: #b0b0b0; stroke-opacity: 0.3; stroke-width: 0.8; stroke-linecap: square"/>
     </g>
     <g id="line2d_4">
      <g>
       <use xlink:href="#m930bd330ef" x="125.248042" y="299.9" style="stroke: #000000; stroke-width: 0.8"/>
      </g>
     </g>
     <g id="text_2">
      <!-- 450 -->
      <g transform="translate(115.704292 314.498438) scale(0.1 -0.1)">
       <defs>
        <path id="DejaVuSans-35" d="M 691 4666 
L 3169 4666 
L 3169 4134 
L 1269 4134 
L 1269 2991 
Q 1406 3038 1543 3061 
Q 1681 3084 1819 3084 
Q 2600 3084 3056 2656 
Q 3513 2228 3513 1497 
Q 3513 744 3044 326 
Q 2575 -91 1722 -91 
Q 1428 -91 1123 -41 
Q 819 9 494 109 
L 494 744 
Q 775 591 1075 516 
Q 1375 441 1709 441 
Q 2250 441 2565 725 
Q 2881 1009 2881 1497 
Q 2881 1984 2565 2268 
Q 2250 2553 1709 2553 
Q 1456 2553 1204 2497 
Q 953 2441 691 2322 
L 691 4666 
z
" transform="scale(0.015625)"/>
       </defs>
       <use xlink:href="#DejaVuSans-34"/>
       <use xlink:href="#DejaVuSans-35" transform="translate(63.623047 0)"/>
       <use xlink:href="#DejaVuSans-30" transform="translate(127.246094 0)"/>
      </g>
     </g>
    </g>
    <g id="xtick_3">
     <g id="line2d_5">
      <path d="M 168.193071 299.9 
L 168.193071 95.2 
" clip-path="url(#p72b1baf6bc)" style="fill: none; stroke: #b0b0b0; stroke-opacity: 0.3; stroke-width: 0.8; stroke-linecap: square"/>
     </g>
     <g id="line2d_6">
      <g>
       <use xlink:href="#m930bd330ef" x="168.193071" y="299.9" style="stroke: #000000; stroke-width: 0.8"/>
      </g>
     </g>
     <g id="text_3">
      <!-- 500 -->
      <g transform="translate(158.649321 314.498438) scale(0.1 -0.1)">
       <use xlink:href="#DejaVuSans-35"/>
       <use xlink:href="#DejaVuSans-30" transform="translate(63.623047 0)"/>
       <use xlink:href="#DejaVuSans-30" transform="translate(127.246094 0)"/>
      </g>
     </g>
    </g>
    <g id="xtick_4">
     <g id="line2d_7">
      <path d="M 211.138101 299.9 
L 211.138101 95.2 
" clip-path="url(#p72b1baf6bc)" style="fill: none; stroke: #b0b0b0; stroke-opacity: 0.3; stroke-width: 0.8; stroke-linecap: square"/>
     </g>
     <g id="line2d_8">
      <g>
       <use xlink:href="#m930bd330ef" x="211.138101" y="299.9" style="stroke: #000000; stroke-width: 0.8"/>
      </g>
     </g>
     <g id="text_4">
      <!-- 550 -->
      <g transform="translate(201.594351 314.498438) scale(0.1 -0.1)">
       <use xlink:href="#DejaVuSans-35"/>
       <use xlink:href="#DejaVuSans-35" transform="translate(63.623047 0)"/>
       <use xlink:href="#DejaVuSans-30" transform="translate(127.246094 0)"/>
      </g>
     </g>
    </g>
    <g id="xtick_5">
     <g id="line2d_9">
      <path d="M 254.083131 299.9 
L 254.083131 95.2 
" clip-path="url(#p72b1baf6bc)" style="fill: none; stroke: #b0b0b0; stroke-opacity: 0.3; stroke-width: 0.8; stroke-linecap: square"/>
     </g>
     <g id="line2d_10">
      <g>
       <use xlink:href="#m930bd330ef" x="254.083131" y="299.9" style="stroke: #000000; stroke-width: 0.8"/>
      </g>
     </g>
     <g id="text_5">
      <!-- 600 -->
      <g transform="translate(244.539381 314.498438) scale(0.1 -0.1)">
       <defs>
        <path id="DejaVuSans-36" d="M 2113 2584 
Q 1688 2584 1439 2293 
Q 1191 2003 1191 1497 
Q 1191 994 1439 701 
Q 1688 409 2113 409 
Q 2538 409 2786 701 
Q 3034 994 3034 1497 
Q 3034 2003 2786 2293 
Q 2538 2584 2113 2584 
z
M 3366 4563 
L 3366 3988 
Q 3128 4100 2886 4159 
Q 2644 4219 2406 4219 
Q 1781 4219 1451 3797 
Q 1122 3375 1075 2522 
Q 1259 2794 1537 2939 
Q 1816 3084 2150 3084 
Q 2853 3084 3261 2657 
Q 3669 2231 3669 1497 
Q 3669 778 3244 343 
Q 2819 -91 2113 -91 
Q 1303 -91 875 529 
Q 447 1150 447 2328 
Q 447 3434 972 4092 
Q 1497 4750 2381 4750 
Q 2619 4750 2861 4703 
Q 3103 4656 3366 4563 
z
" transform="scale(0.015625)"/>
       </defs>
       <use xlink:href="#DejaVuSans-36"/>
       <use xlink:href="#DejaVuSans-30" transform="translate(63.623047 0)"/>
       <use xlink:href="#DejaVuSans-30" transform="translate(127.246094 0)"/>
      </g>
     </g>
    </g>
    <g id="xtick_6">
     <g id="line2d_11">
      <path d="M 297.028161 299.9 
L 297.028161 95.2 
" clip-path="url(#p72b1baf6bc)" style="fill: none; stroke: #b0b0b0; stroke-opacity: 0.3; stroke-width: 0.8; stroke-linecap: square"/>
     </g>
     <g id="line2d_12">
      <g>
       <use xlink:href="#m930bd330ef" x="297.028161" y="299.9" style="stroke: #000000; stroke-width: 0.8"/>
      </g>
     </g>
     <g id="text_6">
      <!-- 650 -->
      <g transform="translate(287.484411 314.498438) scale(0.1 -0.1)">
       <use xlink:href="#DejaVuSans-36"/>
       <use xlink:href="#DejaVuSans-35" transform="translate(63.623047 0)"/>
       <use xlink:href="#DejaVuSans-30" transform="translate(127.246094 0)"/>
      </g>
     </g>
    </g>
    <g id="xtick_7">
     <g id="line2d_13">
      <path d="M 339.97319 299.9 
L 339.97319 95.2 
" clip-path="url(#p72b1baf6bc)" style="fill: none; stroke: #b0b0b0; stroke-opacity: 0.3; stroke-width: 0.8; stroke-linecap: square"/>
     </g>
     <g id="line2d_14">
      <g>
       <use xlink:href="#m930bd330ef" x="339.97319" y="299.9" style="stroke: #000000; stroke-width: 0.8"/>
      </g>
     </g>
     <g id="text_7">
      <!-- 700 -->
      <g transform="translate(330.42944 314.498438) scale(0.1 -0.1)">
       <defs>
        <path id="DejaVuSans-37" d="M 525 4666 
L 3525 4666 
L 3525 4397 
L 1831 0 
L 1172 0 
L 2766 4134 
L 525 4134 
L 525 4666 
z
" transform="scale(0.015625)"/>
       </defs>
       <use xlink:href="#DejaVuSans-37"/>
       <use xlink:href="#DejaVuSans-30" transform="translate(63.623047 0)"/>
       <use xlink:href="#DejaVuSans-30" transform="translate(127.246094 0)"/>
      </g>
     </g>
    </g>
    <g id="xtick_8">
     <g id="line2d_15">
      <path d="M 382.91822 299.9 
L 382.91822 95.2 
" clip-path="url(#p72b1baf6bc)" style="fill: none; stroke: #b0b0b0; stroke-opacity: 0.3; stroke-width: 0.8; stroke-linecap: square"/>
     </g>
     <g id="line2d_16">
      <g>
       <use xlink:href="#m930bd330ef" x="382.91822" y="299.9" style="stroke: #000000; stroke-width: 0.8"/>
      </g>
     </g>
     <g id="text_8">
      <!-- 750 -->
      <g transform="translate(373.37447 314.498438) scale(0.1 -0.1)">
       <use xlink:href="#DejaVuSans-37"/>
       <use xlink:href="#DejaVuSans-35" transform="translate(63.623047 0)"/>
       <use xlink:href="#DejaVuSans-30" transform="translate(127.246094 0)"/>
      </g>
     </g>
    </g>
    <g id="text_9">
     <!-- Wellenlänge λ (nm) -->
     <g transform="translate(183.33426 328.936406) scale(0.11 -0.11)">
      <defs>
       <path id="DejaVuSans-57" d="M 213 4666 
L 850 4666 
L 1831 722 
L 2809 4666 
L 3519 4666 
L 4500 722 
L 5478 4666 
L 6119 4666 
L 4947 0 
L 4153 0 
L 3169 4050 
L 2175 0 
L 1381 0 
L 213 4666 
z
" transform="scale(0.015625)"/>
       <path id="DejaVuSans-65" d="M 3597 1894 
L 3597 1613 
L 953 1613 
Q 991 1019 1311 708 
Q 1631 397 2203 397 
Q 2534 397 2845 478 
Q 3156 559 3463 722 
L 3463 178 
Q 3153 47 2828 -22 
Q 2503 -91 2169 -91 
Q 1331 -91 842 396 
Q 353 884 353 1716 
Q 353 2575 817 3079 
Q 1281 3584 2069 3584 
Q 2775 3584 3186 3129 
Q 3597 2675 3597 1894 
z
M 3022 2063 
Q 3016 2534 2758 2815 
Q 2500 3097 2075 3097 
Q 1594 3097 1305 2825 
Q 1016 2553 972 2059 
L 3022 2063 
z
" transform="scale(0.015625)"/>
       <path id="DejaVuSans-6c" d="M 603 4863 
L 1178 4863 
L 1178 0 
L 603 0 
L 603 4863 
z
" transform="scale(0.015625)"/>
       <path id="DejaVuSans-6e" d="M 3513 2113 
L 3513 0 
L 2938 0 
L 2938 2094 
Q 2938 2591 2744 2837 
Q 2550 3084 2163 3084 
Q 1697 3084 1428 2787 
Q 1159 2491 1159 1978 
L 1159 0 
L 581 0 
L 581 3500 
L 1159 3500 
L 1159 2956 
Q 1366 3272 1645 3428 
Q 1925 3584 2291 3584 
Q 2894 3584 3203 3211 
Q 3513 2838 3513 2113 
z
" transform="scale(0.015625)"/>
       <path id="DejaVuSans-e4" d="M 2194 1759 
Q 1497 1759 1228 1600 
Q 959 1441 959 1056 
Q 959 750 1161 570 
Q 1363 391 1709 391 
Q 2188 391 2477 730 
Q 2766 1069 2766 1631 
L 2766 1759 
L 2194 1759 
z
M 3341 1997 
L 3341 0 
L 2766 0 
L 2766 531 
Q 2569 213 2275 61 
Q 1981 -91 1556 -91 
Q 1019 -91 701 211 
Q 384 513 384 1019 
Q 384 1609 779 1909 
Q 1175 2209 1959 2209 
L 2766 2209 
L 2766 2266 
Q 2766 2663 2505 2880 
Q 2244 3097 1772 3097 
Q 1472 3097 1187 3025 
Q 903 2953 641 2809 
L 641 3341 
Q 956 3463 1253 3523 
Q 1550 3584 1831 3584 
Q 2591 3584 2966 3190 
Q 3341 2797 3341 1997 
z
M 2150 4850 
L 2784 4850 
L 2784 4219 
L 2150 4219 
L 2150 4850 
z
M 928 4850 
L 1562 4850 
L 1562 4219 
L 928 4219 
L 928 4850 
z
" transform="scale(0.015625)"/>
       <path id="DejaVuSans-67" d="M 2906 1791 
Q 2906 2416 2648 2759 
Q 2391 3103 1925 3103 
Q 1463 3103 1205 2759 
Q 947 2416 947 1791 
Q 947 1169 1205 825 
Q 1463 481 1925 481 
Q 2391 481 2648 825 
Q 2906 1169 2906 1791 
z
M 3481 434 
Q 3481 -459 3084 -895 
Q 2688 -1331 1869 -1331 
Q 1566 -1331 1297 -1286 
Q 1028 -1241 775 -1147 
L 775 -588 
Q 1028 -725 1275 -790 
Q 1522 -856 1778 -856 
Q 2344 -856 2625 -561 
Q 2906 -266 2906 331 
L 2906 616 
Q 2728 306 2450 153 
Q 2172 0 1784 0 
Q 1141 0 747 490 
Q 353 981 353 1791 
Q 353 2603 747 3093 
Q 1141 3584 1784 3584 
Q 2172 3584 2450 3431 
Q 2728 3278 2906 2969 
L 2906 3500 
L 3481 3500 
L 3481 434 
z
" transform="scale(0.015625)"/>
       <path id="DejaVuSans-20" transform="scale(0.015625)"/>
       <path id="DejaVuSans-3bb" d="M 1981 4316 
L 3597 0 
L 2988 0 
L 2006 2588 
L 800 0 
L 191 0 
L 1725 3356 
L 1494 3975 
Q 1347 4369 1013 4369 
L 713 4369 
L 713 4863 
L 1078 4856 
Q 1784 4847 1981 4316 
z
" transform="scale(0.015625)"/>
       <path id="DejaVuSans-28" d="M 1984 4856 
Q 1566 4138 1362 3434 
Q 1159 2731 1159 2009 
Q 1159 1288 1364 580 
Q 1569 -128 1984 -844 
L 1484 -844 
Q 1016 -109 783 600 
Q 550 1309 550 2009 
Q 550 2706 781 3412 
Q 1013 4119 1484 4856 
L 1984 4856 
z
" transform="scale(0.015625)"/>
       <path id="DejaVuSans-6d" d="M 3328 2828 
Q 3544 3216 3844 3400 
Q 4144 3584 4550 3584 
Q 5097 3584 5394 3201 
Q 5691 2819 5691 2113 
L 5691 0 
L 5113 0 
L 5113 2094 
Q 5113 2597 4934 2840 
Q 4756 3084 4391 3084 
Q 3944 3084 3684 2787 
Q 3425 2491 3425 1978 
L 3425 0 
L 2847 0 
L 2847 2094 
Q 2847 2600 2669 2842 
Q 2491 3084 2119 3084 
Q 1678 3084 1418 2786 
Q 1159 2488 1159 1978 
L 1159 0 
L 581 0 
L 581 3500 
L 1159 3500 
L 1159 2956 
Q 1356 3278 1631 3431 
Q 1906 3584 2284 3584 
Q 2666 3584 2933 3390 
Q 3200 3197 3328 2828 
z
" transform="scale(0.015625)"/>
       <path id="DejaVuSans-29" d="M 513 4856 
L 1013 4856 
Q 1481 4119 1714 3412 
Q 1947 2706 1947 2009 
Q 1947 1309 1714 600 
Q 1481 -109 1013 -844 
L 513 -844 
Q 928 -128 1133 580 
Q 1338 1288 1338 2009 
Q 1338 2731 1133 3434 
Q 928 4138 513 4856 
z
" transform="scale(0.015625)"/>
      </defs>
      <use xlink:href="#DejaVuSans-57"/>
      <use xlink:href="#DejaVuSans-65" transform="translate(93.001953 0)"/>
      <use xlink:href="#DejaVuSans-6c" transform="translate(154.525391 0)"/>
      <use xlink:href="#DejaVuSans-6c" transform="translate(182.308594 0)"/>
      <use xlink:href="#DejaVuSans-65" transform="translate(210.091797 0)"/>
      <use xlink:href="#DejaVuSans-6e" transform="translate(271.615234 0)"/>
      <use xlink:href="#DejaVuSans-6c" transform="translate(334.994141 0)"/>
      <use xlink:href="#DejaVuSans-e4" transform="translate(362.777344 0)"/>
      <use xlink:href="#DejaVuSans-6e" transform="translate(424.056641 0)"/>
      <use xlink:href="#DejaVuSans-67" transform="translate(487.435547 0)"/>
      <use xlink:href="#DejaVuSans-65" transform="translate(550.912109 0)"/>
      <use xlink:href="#DejaVuSans-20" transform="translate(612.435547 0)"/>
      <use xlink:href="#DejaVuSans-3bb" transform="translate(644.222656 0)"/>
      <use xlink:href="#DejaVuSans-20" transform="translate(703.402344 0)"/>
      <use xlink:href="#DejaVuSans-28" transform="translate(735.189453 0)"/>
      <use xlink:href="#DejaVuSans-6e" transform="translate(774.203125 0)"/>
      <use xlink:href="#DejaVuSans-6d" transform="translate(837.582031 0)"/>
      <use xlink:href="#DejaVuSans-29" transform="translate(934.994141 0)"/>
     </g>
    </g>
   </g>
   <g id="matplotlib.axis_2">
    <g id="ytick_1">
     <g id="line2d_17">
      <path d="M 65.125 290.604239 
L 408.685238 290.604239 
" clip-path="url(#p72b1baf6bc)" style="fill: none; stroke: #b0b0b0; stroke-opacity: 0.3; stroke-width: 0.8; stroke-linecap: square"/>
     </g>
     <g id="line2d_18">
      <defs>
       <path id="m4c8e0a4743" d="M 0 0 
L -3.5 0 
" style="stroke: #000000; stroke-width: 0.8"/>
      </defs>
      <g>
       <use xlink:href="#m4c8e0a4743" x="65.125" y="290.604239" style="stroke: #000000; stroke-width: 0.8"/>
      </g>
     </g>
     <g id="text_10">
      <!-- 0.0 -->
      <g transform="translate(42.221875 294.403458) scale(0.1 -0.1)">
       <defs>
        <path id="DejaVuSans-2e" d="M 684 794 
L 1344 794 
L 1344 0 
L 684 0 
L 684 794 
z
" transform="scale(0.015625)"/>
       </defs>
       <use xlink:href="#DejaVuSans-30"/>
       <use xlink:href="#DejaVuSans-2e" transform="translate(63.623047 0)"/>
       <use xlink:href="#DejaVuSans-30" transform="translate(95.410156 0)"/>
      </g>
     </g>
    </g>
    <g id="ytick_2">
     <g id="line2d_19">
      <path d="M 65.125 249.235711 
L 408.685238 249.235711 
" clip-path="url(#p72b1baf6bc)" style="fill: none; stroke: #b0b0b0; stroke-opacity: 0.3; stroke-width: 0.8; stroke-linecap: square"/>
     </g>
     <g id="line2d_20">
      <g>
       <use xlink:href="#m4c8e0a4743" x="65.125" y="249.235711" style="stroke: #000000; stroke-width: 0.8"/>
      </g>
     </g>
     <g id="text_11">
      <!-- 0.1 -->
      <g transform="translate(42.221875 253.034929) scale(0.1 -0.1)">
       <defs>
        <path id="DejaVuSans-31" d="M 794 531 
L 1825 531 
L 1825 4091 
L 703 3866 
L 703 4441 
L 1819 4666 
L 2450 4666 
L 2450 531 
L 3481 531 
L 3481 0 
L 794 0 
L 794 531 
z
" transform="scale(0.015625)"/>
       </defs>
       <use xlink:href="#DejaVuSans-30"/>
       <use xlink:href="#DejaVuSans-2e" transform="translate(63.623047 0)"/>
       <use xlink:href="#DejaVuSans-31" transform="translate(95.410156 0)"/>
      </g>
     </g>
    </g>
    <g id="ytick_3">
     <g id="line2d_21">
      <path d="M 65.125 207.867182 
L 408.685238 207.867182 
" clip-path="url(#p72b1baf6bc)" style="fill: none; stroke: #b0b0b0; stroke-opacity: 0.3; stroke-width: 0.8; stroke-linecap: square"/>
     </g>
     <g id="line2d_22">
      <g>
       <use xlink:href="#m4c8e0a4743" x="65.125" y="207.867182" style="stroke: #000000; stroke-width: 0.8"/>
      </g>
     </g>
     <g id="text_12">
      <!-- 0.2 -->
      <g transform="translate(42.221875 211.666401) scale(0.1 -0.1)">
       <defs>
        <path id="DejaVuSans-32" d="M 1228 531 
L 3431 531 
L 3431 0 
L 469 0 
L 469 531 
Q 828 903 1448 1529 
Q 2069 2156 2228 2338 
Q 2531 2678 2651 2914 
Q 2772 3150 2772 3378 
Q 2772 3750 2511 3984 
Q 2250 4219 1831 4219 
Q 1534 4219 1204 4116 
Q 875 4013 500 3803 
L 500 4441 
Q 881 4594 1212 4672 
Q 1544 4750 1819 4750 
Q 2544 4750 2975 4387 
Q 3406 4025 3406 3419 
Q 3406 3131 3298 2873 
Q 3191 2616 2906 2266 
Q 2828 2175 2409 1742 
Q 1991 1309 1228 531 
z
" transform="scale(0.015625)"/>
       </defs>
       <use xlink:href="#DejaVuSans-30"/>
       <use xlink:href="#DejaVuSans-2e" transform="translate(63.623047 0)"/>
       <use xlink:href="#DejaVuSans-32" transform="translate(95.410156 0)"/>
      </g>
     </g>
    </g>
    <g id="ytick_4">
     <g id="line2d_23">
      <path d="M 65.125 166.498654 
L 408.685238 166.498654 
" clip-path="url(#p72b1baf6bc)" style="fill: none; stroke: #b0b0b0; stroke-opacity: 0.3; stroke-width: 0.8; stroke-linecap: square"/>
     </g>
     <g id="line2d_24">
      <g>
       <use xlink:href="#m4c8e0a4743" x="65.125" y="166.498654" style="stroke: #000000; stroke-width: 0.8"/>
      </g>
     </g>
     <g id="text_13">
      <!-- 0.3 -->
      <g transform="translate(42.221875 170.297873) scale(0.1 -0.1)">
       <defs>
        <path id="DejaVuSans-33" d="M 2597 2516 
Q 3050 2419 3304 2112 
Q 3559 1806 3559 1356 
Q 3559 666 3084 287 
Q 2609 -91 1734 -91 
Q 1441 -91 1130 -33 
Q 819 25 488 141 
L 488 750 
Q 750 597 1062 519 
Q 1375 441 1716 441 
Q 2309 441 2620 675 
Q 2931 909 2931 1356 
Q 2931 1769 2642 2001 
Q 2353 2234 1838 2234 
L 1294 2234 
L 1294 2753 
L 1863 2753 
Q 2328 2753 2575 2939 
Q 2822 3125 2822 3475 
Q 2822 3834 2567 4026 
Q 2313 4219 1838 4219 
Q 1578 4219 1281 4162 
Q 984 4106 628 3988 
L 628 4550 
Q 988 4650 1302 4700 
Q 1616 4750 1894 4750 
Q 2613 4750 3031 4423 
Q 3450 4097 3450 3541 
Q 3450 3153 3228 2886 
Q 3006 2619 2597 2516 
z
" transform="scale(0.015625)"/>
       </defs>
       <use xlink:href="#DejaVuSans-30"/>
       <use xlink:href="#DejaVuSans-2e" transform="translate(63.623047 0)"/>
       <use xlink:href="#DejaVuSans-33" transform="translate(95.410156 0)"/>
      </g>
     </g>
    </g>
    <g id="ytick_5">
     <g id="line2d_25">
      <path d="M 65.125 125.130126 
L 408.685238 125.130126 
" clip-path="url(#p72b1baf6bc)" style="fill: none; stroke: #b0b0b0; stroke-opacity: 0.3; stroke-width: 0.8; stroke-linecap: square"/>
     </g>
     <g id="line2d_26">
      <g>
       <use xlink:href="#m4c8e0a4743" x="65.125" y="125.130126" style="stroke: #000000; stroke-width: 0.8"/>
      </g>
     </g>
     <g id="text_14">
      <!-- 0.4 -->
      <g transform="translate(42.221875 128.929345) scale(0.1 -0.1)">
       <use xlink:href="#DejaVuSans-30"/>
       <use xlink:href="#DejaVuSans-2e" transform="translate(63.623047 0)"/>
       <use xlink:href="#DejaVuSans-34" transform="translate(95.410156 0)"/>
      </g>
     </g>
    </g>
    <g id="text_15">
     <!-- Reflexion R -->
     <g transform="translate(35.934219 228.464297) rotate(-90) scale(0.11 -0.11)">
      <defs>
       <path id="DejaVuSans-52" d="M 2841 2188 
Q 3044 2119 3236 1894 
Q 3428 1669 3622 1275 
L 4263 0 
L 3584 0 
L 2988 1197 
Q 2756 1666 2539 1819 
Q 2322 1972 1947 1972 
L 1259 1972 
L 1259 0 
L 628 0 
L 628 4666 
L 2053 4666 
Q 2853 4666 3247 4331 
Q 3641 3997 3641 3322 
Q 3641 2881 3436 2590 
Q 3231 2300 2841 2188 
z
M 1259 4147 
L 1259 2491 
L 2053 2491 
Q 2509 2491 2742 2702 
Q 2975 2913 2975 3322 
Q 2975 3731 2742 3939 
Q 2509 4147 2053 4147 
L 1259 4147 
z
" transform="scale(0.015625)"/>
       <path id="DejaVuSans-66" d="M 2375 4863 
L 2375 4384 
L 1825 4384 
Q 1516 4384 1395 4259 
Q 1275 4134 1275 3809 
L 1275 3500 
L 2222 3500 
L 2222 3053 
L 1275 3053 
L 1275 0 
L 697 0 
L 697 3053 
L 147 3053 
L 147 3500 
L 697 3500 
L 697 3744 
Q 697 4328 969 4595 
Q 1241 4863 1831 4863 
L 2375 4863 
z
" transform="scale(0.015625)"/>
       <path id="DejaVuSans-78" d="M 3513 3500 
L 2247 1797 
L 3578 0 
L 2900 0 
L 1881 1375 
L 863 0 
L 184 0 
L 1544 1831 
L 300 3500 
L 978 3500 
L 1906 2253 
L 2834 3500 
L 3513 3500 
z
" transform="scale(0.015625)"/>
       <path id="DejaVuSans-69" d="M 603 3500 
L 1178 3500 
L 1178 0 
L 603 0 
L 603 3500 
z
M 603 4863 
L 1178 4863 
L 1178 4134 
L 603 4134 
L 603 4863 
z
" transform="scale(0.015625)"/>
       <path id="DejaVuSans-6f" d="M 1959 3097 
Q 1497 3097 1228 2736 
Q 959 2375 959 1747 
Q 959 1119 1226 758 
Q 1494 397 1959 397 
Q 2419 397 2687 759 
Q 2956 1122 2956 1747 
Q 2956 2369 2687 2733 
Q 2419 3097 1959 3097 
z
M 1959 3584 
Q 2709 3584 3137 3096 
Q 3566 2609 3566 1747 
Q 3566 888 3137 398 
Q 2709 -91 1959 -91 
Q 1206 -91 779 398 
Q 353 888 353 1747 
Q 353 2609 779 3096 
Q 1206 3584 1959 3584 
z
" transform="scale(0.015625)"/>
      </defs>
      <use xlink:href="#DejaVuSans-52"/>
      <use xlink:href="#DejaVuSans-65" transform="translate(64.982422 0)"/>
      <use xlink:href="#DejaVuSans-66" transform="translate(126.505859 0)"/>
      <use xlink:href="#DejaVuSans-6c" transform="translate(161.710938 0)"/>
      <use xlink:href="#DejaVuSans-65" transform="translate(189.494141 0)"/>
      <use xlink:href="#DejaVuSans-78" transform="translate(249.267578 0)"/>
      <use xlink:href="#DejaVuSans-69" transform="translate(308.447266 0)"/>
      <use xlink:href="#DejaVuSans-6f" transform="translate(336.230469 0)"/>
      <use xlink:href="#DejaVuSans-6e" transform="translate(397.412109 0)"/>
      <use xlink:href="#DejaVuSans-20" transform="translate(460.791016 0)"/>
      <use xlink:href="#DejaVuSans-52" transform="translate(492.578125 0)"/>
     </g>
    </g>
   </g>
   <g id="line2d_27">
    <path d="M 65.125 289.035913 
L 68.595305 288.376576 
L 72.065611 287.502767 
L 75.535916 286.375366 
L 79.006222 284.96055 
L 82.476527 283.234997 
L 85.946833 281.191164 
L 89.417138 278.841713 
L 92.887443 276.222015 
L 96.357749 273.38977 
L 99.828054 270.421092 
L 103.29836 267.402974 
L 106.768665 264.422772 
L 110.238971 261.55599 
L 113.709276 258.854201 
L 117.179582 256.335116 
L 120.649887 253.97657 
L 124.120192 251.715649 
L 127.590498 249.453253 
L 131.060803 247.063491 
L 134.531109 244.406481 
L 138.001414 241.342634 
L 141.47172 237.746387 
L 144.942025 233.517663 
L 148.41233 228.589893 
L 151.882636 222.934146 
L 155.352941 216.559575 
L 158.823247 209.510889 
L 162.293552 201.863812 
L 165.763858 193.719528 
L 169.234163 185.198934 
L 172.704468 176.437267 
L 176.174774 167.57938 
L 179.645079 158.77571 
L 183.115385 150.178807 
L 186.58569 141.940235 
L 190.055996 134.207646 
L 193.526301 127.121901 
L 196.996607 120.81417 
L 200.466912 115.403034 
L 203.937217 110.991669 
L 207.407523 107.665232 
L 210.877828 105.488593 
L 214.348134 104.504545 
L 217.818439 104.732608 
L 221.288745 106.168507 
L 224.75905 108.784385 
L 228.229355 112.529742 
L 231.699661 117.333081 
L 235.169966 123.104191 
L 238.640272 129.736964 
L 242.110577 137.112638 
L 245.580883 145.103307 
L 249.051188 153.575562 
L 252.521493 162.394083 
L 255.991799 171.425023 
L 259.462104 180.538989 
L 262.93241 189.613425 
L 266.402715 198.534166 
L 269.873021 207.195939 
L 273.343326 215.501599 
L 276.813632 223.360025 
L 280.283937 230.682847 
L 283.754242 237.380595 
L 287.224548 243.359472 
L 290.694853 248.520534 
L 294.165159 252.763427 
L 297.635464 255.996593 
L 301.10577 258.154707 
L 304.576075 259.221969 
L 308.04638 259.257071 
L 311.516686 258.413128 
L 314.986991 256.944658 
L 318.457297 255.194989 
L 321.927602 253.561576 
L 325.397908 252.442797 
L 328.868213 252.176172 
L 332.338518 252.982043 
L 335.808824 254.926887 
L 339.279129 257.915922 
L 342.749435 261.716952 
L 346.21974 266.008931 
L 349.690046 270.442558 
L 353.160351 274.698194 
L 356.630657 278.528892 
L 360.100962 281.781978 
L 363.571267 284.399117 
L 367.041573 286.40001 
L 370.511878 287.857392 
L 373.982184 288.870917 
L 377.452489 289.545357 
L 380.922795 289.975816 
L 384.3931 290.240089 
L 387.863405 290.39675 
L 391.333711 290.486895 
L 394.804016 290.537617 
L 398.274322 290.565805 
L 401.744627 290.581476 
L 405.214933 290.59032 
L 408.685238 290.595455 
" clip-path="url(#p72b1baf6bc)" style="fill: none; stroke: #006400; stroke-width: 2.5; stroke-linecap: square"/>
   </g>
   <g id="line2d_28">
    <path d="M 65.125 165.40722 
L 68.595305 167.119148 
L 72.065611 170.628506 
L 75.535916 175.369052 
L 79.006222 180.83266 
L 82.476527 186.60846 
L 85.946833 192.413486 
L 89.417138 198.104812 
L 92.887443 203.667843 
L 96.357749 209.183038 
L 99.828054 214.779405 
L 103.29836 220.584941 
L 106.768665 226.682196 
L 110.238971 233.073723 
L 113.709276 239.659582 
L 117.179582 246.228211 
L 120.649887 252.462384 
L 124.120192 257.962281 
L 127.590498 262.286522 
L 131.060803 265.00845 
L 134.531109 265.779645 
L 138.001414 264.387727 
L 141.47172 260.794148 
L 144.942025 255.141803 
L 148.41233 247.730961 
L 151.882636 238.971443 
L 155.352941 229.324708 
L 158.823247 219.249679 
L 162.293552 209.161747 
L 165.763858 199.408463 
L 169.234163 190.260562 
L 172.704468 181.91428 
L 176.174774 174.500419 
L 179.645079 168.096295 
L 183.115385 162.737905 
L 186.58569 158.430788 
L 190.055996 155.158917 
L 193.526301 152.891503 
L 196.996607 151.587899 
L 200.466912 151.200904 
L 203.937217 151.678816 
L 207.407523 152.966543 
L 210.877828 155.00606 
L 214.348134 157.736436 
L 217.818439 161.093635 
L 221.288745 165.010253 
L 224.75905 169.415328 
L 228.229355 174.234342 
L 231.699661 179.389491 
L 235.169966 184.800296 
L 238.640272 190.384572 
L 242.110577 196.059744 
L 245.580883 201.744464 
L 249.051188 207.360428 
L 252.521493 212.834292 
L 255.991799 218.099524 
L 259.462104 223.098065 
L 262.93241 227.781655 
L 266.402715 232.112729 
L 269.873021 236.064814 
L 273.343326 239.622405 
L 276.813632 242.780368 
L 280.283937 245.542915 
L 283.754242 247.922276 
L 287.224548 249.937156 
L 290.694853 251.611107 
L 294.165159 252.970912 
L 297.635464 254.045078 
L 301.10577 254.862479 
L 304.576075 255.451217 
L 308.04638 255.837707 
L 311.516686 256.045981 
L 314.986991 256.097224 
L 318.457297 256.009495 
L 321.927602 255.797622 
L 325.397908 255.473246 
L 328.868213 255.044978 
L 332.338518 254.518646 
L 335.808824 253.897606 
L 339.279129 253.183106 
L 342.749435 252.374675 
L 346.21974 251.470515 
L 349.690046 250.467906 
L 353.160351 249.363587 
L 356.630657 248.154119 
L 360.100962 246.836219 
L 363.571267 245.40705 
L 367.041573 243.864481 
L 370.511878 242.207289 
L 373.982184 240.435324 
L 377.452489 238.549622 
L 380.922795 236.552466 
L 384.3931 234.447416 
L 387.863405 232.239281 
L 391.333711 229.934065 
L 394.804016 227.53888 
L 398.274322 225.061828 
L 401.744627 222.511866 
L 405.214933 219.898661 
L 408.685238 217.232429 
" clip-path="url(#p72b1baf6bc)" style="fill: none; stroke-dasharray: 7.4,3.2; stroke-dashoffset: 0; stroke: #e63946; stroke-width: 2"/>
   </g>
   <g id="patch_3">
    <path d="M 65.125 299.9 
L 65.125 95.2 
" style="fill: none; stroke: #000000; stroke-width: 0.8; stroke-linejoin: miter; stroke-linecap: square"/>
   </g>
   <g id="patch_4">
    <path d="M 408.685238 299.9 
L 408.685238 95.2 
" style="fill: none; stroke: #000000; stroke-width: 0.8; stroke-linejoin: miter; stroke-linecap: square"/>
   </g>
   <g id="patch_5">
    <path d="M 65.125 299.9 
L 408.685238 299.9 
" style="fill: none; stroke: #000000; stroke-width: 0.8; stroke-linejoin: miter; stroke-linecap: square"/>
   </g>
   <g id="patch_6">
    <path d="M 65.125 95.2 
L 408.685238 95.2 
" style="fill: none; stroke: #000000; stroke-width: 0.8; stroke-linejoin: miter; stroke-linecap: square"/>
   </g>
   <g id="text_16">
    <!-- Tarnfarben-Optimierung: Ziel vs. Ergebnis -->
    <g transform="translate(111.346682 75.699625) scale(0.12 -0.12)">
     <defs>
      <path id="DejaVuSans-54" d="M -19 4666 
L 3928 4666 
L 3928 4134 
L 2272 4134 
L 2272 0 
L 1638 0 
L 1638 4134 
L -19 4134 
L -19 4666 
z
" transform="scale(0.015625)"/>
      <path id="DejaVuSans-61" d="M 2194 1759 
Q 1497 1759 1228 1600 
Q 959 1441 959 1056 
Q 959 750 1161 570 
Q 1363 391 1709 391 
Q 2188 391 2477 730 
Q 2766 1069 2766 1631 
L 2766 1759 
L 2194 1759 
z
M 3341 1997 
L 3341 0 
L 2766 0 
L 2766 531 
Q 2569 213 2275 61 
Q 1981 -91 1556 -91 
Q 1019 -91 701 211 
Q 384 513 384 1019 
Q 384 1609 779 1909 
Q 1175 2209 1959 2209 
L 2766 2209 
L 2766 2266 
Q 2766 2663 2505 2880 
Q 2244 3097 1772 3097 
Q 1472 3097 1187 3025 
Q 903 2953 641 2809 
L 641 3341 
Q 956 3463 1253 3523 
Q 1550 3584 1831 3584 
Q 2591 3584 2966 3190 
Q 3341 2797 3341 1997 
z
" transform="scale(0.015625)"/>
      <path id="DejaVuSans-72" d="M 2631 2963 
Q 2534 3019 2420 3045 
Q 2306 3072 2169 3072 
Q 1681 3072 1420 2755 
Q 1159 2438 1159 1844 
L 1159 0 
L 581 0 
L 581 3500 
L 1159 3500 
L 1159 2956 
Q 1341 3275 1631 3429 
Q 1922 3584 2338 3584 
Q 2397 3584 2469 3576 
Q 2541 3569 2628 3553 
L 2631 2963 
z
" transform="scale(0.015625)"/>
      <path id="DejaVuSans-62" d="M 3116 1747 
Q 3116 2381 2855 2742 
Q 2594 3103 2138 3103 
Q 1681 3103 1420 2742 
Q 1159 2381 1159 1747 
Q 1159 1113 1420 752 
Q 1681 391 2138 391 
Q 2594 391 2855 752 
Q 3116 1113 3116 1747 
z
M 1159 2969 
Q 1341 3281 1617 3432 
Q 1894 3584 2278 3584 
Q 2916 3584 3314 3078 
Q 3713 2572 3713 1747 
Q 3713 922 3314 415 
Q 2916 -91 2278 -91 
Q 1894 -91 1617 61 
Q 1341 213 1159 525 
L 1159 0 
L 581 0 
L 581 4863 
L 1159 4863 
L 1159 2969 
z
" transform="scale(0.015625)"/>
      <path id="DejaVuSans-2d" d="M 313 2009 
L 1997 2009 
L 1997 1497 
L 313 1497 
L 313 2009 
z
" transform="scale(0.015625)"/>
      <path id="DejaVuSans-4f" d="M 2522 4238 
Q 1834 4238 1429 3725 
Q 1025 3213 1025 2328 
Q 1025 1447 1429 934 
Q 1834 422 2522 422 
Q 3209 422 3611 934 
Q 4013 1447 4013 2328 
Q 4013 3213 3611 3725 
Q 3209 4238 2522 4238 
z
M 2522 4750 
Q 3503 4750 4090 4092 
Q 4678 3434 4678 2328 
Q 4678 1225 4090 567 
Q 3503 -91 2522 -91 
Q 1538 -91 948 565 
Q 359 1222 359 2328 
Q 359 3434 948 4092 
Q 1538 4750 2522 4750 
z
" transform="scale(0.015625)"/>
      <path id="DejaVuSans-70" d="M 1159 525 
L 1159 -1331 
L 581 -1331 
L 581 3500 
L 1159 3500 
L 1159 2969 
Q 1341 3281 1617 3432 
Q 1894 3584 2278 3584 
Q 2916 3584 3314 3078 
Q 3713 2572 3713 1747 
Q 3713 922 3314 415 
Q 2916 -91 2278 -91 
Q 1894 -91 1617 61 
Q 1341 213 1159 525 
z
M 3116 1747 
Q 3116 2381 2855 2742 
Q 2594 3103 2138 3103 
Q 1681 3103 1420 2742 
Q 1159 2381 1159 1747 
Q 1159 1113 1420 752 
Q 1681 391 2138 391 
Q 2594 391 2855 752 
Q 3116 1113 3116 1747 
z
" transform="scale(0.015625)"/>
      <path id="DejaVuSans-74" d="M 1172 4494 
L 1172 3500 
L 2356 3500 
L 2356 3053 
L 1172 3053 
L 1172 1153 
Q 1172 725 1289 603 
Q 1406 481 1766 481 
L 2356 481 
L 2356 0 
L 1766 0 
Q 1100 0 847 248 
Q 594 497 594 1153 
L 594 3053 
L 172 3053 
L 172 3500 
L 594 3500 
L 594 4494 
L 1172 4494 
z
" transform="scale(0.015625)"/>
      <path id="DejaVuSans-75" d="M 544 1381 
L 544 3500 
L 1119 3500 
L 1119 1403 
Q 1119 906 1312 657 
Q 1506 409 1894 409 
Q 2359 409 2629 706 
Q 2900 1003 2900 1516 
L 2900 3500 
L 3475 3500 
L 3475 0 
L 2900 0 
L 2900 538 
Q 2691 219 2414 64 
Q 2138 -91 1772 -91 
Q 1169 -91 856 284 
Q 544 659 544 1381 
z
M 1991 3584 
L 1991 3584 
z
" transform="scale(0.015625)"/>
      <path id="DejaVuSans-3a" d="M 750 794 
L 1409 794 
L 1409 0 
L 750 0 
L 750 794 
z
M 750 3309 
L 1409 3309 
L 1409 2516 
L 750 2516 
L 750 3309 
z
" transform="scale(0.015625)"/>
      <path id="DejaVuSans-5a" d="M 359 4666 
L 4025 4666 
L 4025 4184 
L 1075 531 
L 4097 531 
L 4097 0 
L 288 0 
L 288 481 
L 3238 4134 
L 359 4134 
L 359 4666 
z
" transform="scale(0.015625)"/>
      <path id="DejaVuSans-76" d="M 191 3500 
L 800 3500 
L 1894 563 
L 2988 3500 
L 3597 3500 
L 2284 0 
L 1503 0 
L 191 3500 
z
" transform="scale(0.015625)"/>
      <path id="DejaVuSans-73" d="M 2834 3397 
L 2834 2853 
Q 2591 2978 2328 3040 
Q 2066 3103 1784 3103 
Q 1356 3103 1142 2972 
Q 928 2841 928 2578 
Q 928 2378 1081 2264 
Q 1234 2150 1697 2047 
L 1894 2003 
Q 2506 1872 2764 1633 
Q 3022 1394 3022 966 
Q 3022 478 2636 193 
Q 2250 -91 1575 -91 
Q 1294 -91 989 -36 
Q 684 19 347 128 
L 347 722 
Q 666 556 975 473 
Q 1284 391 1588 391 
Q 1994 391 2212 530 
Q 2431 669 2431 922 
Q 2431 1156 2273 1281 
Q 2116 1406 1581 1522 
L 1381 1569 
Q 847 1681 609 1914 
Q 372 2147 372 2553 
Q 372 3047 722 3315 
Q 1072 3584 1716 3584 
Q 2034 3584 2315 3537 
Q 2597 3491 2834 3397 
z
" transform="scale(0.015625)"/>
      <path id="DejaVuSans-45" d="M 628 4666 
L 3578 4666 
L 3578 4134 
L 1259 4134 
L 1259 2753 
L 3481 2753 
L 3481 2222 
L 1259 2222 
L 1259 531 
L 3634 531 
L 3634 0 
L 628 0 
L 628 4666 
z
" transform="scale(0.015625)"/>
     </defs>
     <use xlink:href="#DejaVuSans-54"/>
     <use xlink:href="#DejaVuSans-61" transform="translate(44.583984 0)"/>
     <use xlink:href="#DejaVuSans-72" transform="translate(105.863281 0)"/>
     <use xlink:href="#DejaVuSans-6e" transform="translate(145.226562 0)"/>
     <use xlink:href="#DejaVuSans-66" transform="translate(208.605469 0)"/>
     <use xlink:href="#DejaVuSans-61" transform="translate(243.810547 0)"/>
     <use xlink:href="#DejaVuSans-72" transform="translate(305.089844 0)"/>
     <use xlink:href="#DejaVuSans-62" transform="translate(346.203125 0)"/>
     <use xlink:href="#DejaVuSans-65" transform="translate(409.679688 0)"/>
     <use xlink:href="#DejaVuSans-6e" transform="translate(471.203125 0)"/>
     <use xlink:href="#DejaVuSans-2d" transform="translate(534.582031 0)"/>
     <use xlink:href="#DejaVuSans-4f" transform="translate(573.416016 0)"/>
     <use xlink:href="#DejaVuSans-70" transform="translate(652.126953 0)"/>
     <use xlink:href="#DejaVuSans-74" transform="translate(715.603516 0)"/>
     <use xlink:href="#DejaVuSans-69" transform="translate(754.8125 0)"/>
     <use xlink:href="#DejaVuSans-6d" transform="translate(782.595703 0)"/>
     <use xlink:href="#DejaVuSans-69" transform="translate(880.007812 0)"/>
     <use xlink:href="#DejaVuSans-65" transform="translate(907.791016 0)"/>
     <use xlink:href="#DejaVuSans-72" transform="translate(969.314453 0)"/>
     <use xlink:href="#DejaVuSans-75" transform="translate(1010.427734 0)"/>
     <use xlink:href="#DejaVuSans-6e" transform="translate(1073.806641 0)"/>
     <use xlink:href="#DejaVuSans-67" transform="translate(1137.185547 0)"/>
     <use xlink:href="#DejaVuSans-3a" transform="translate(1200.662109 0)"/>
     <use xlink:href="#DejaVuSans-20" transform="translate(1234.353516 0)"/>
     <use xlink:href="#DejaVuSans-5a" transform="translate(1266.140625 0)"/>
     <use xlink:href="#DejaVuSans-69" transform="translate(1334.646484 0)"/>
     <use xlink:href="#DejaVuSans-65" transform="translate(1362.429688 0)"/>
     <use xlink:href="#DejaVuSans-6c" transform="translate(1423.953125 0)"/>
     <use xlink:href="#DejaVuSans-20" transform="translate(1451.736328 0)"/>
     <use xlink:href="#DejaVuSans-76" transform="translate(1483.523438 0)"/>
     <use xlink:href="#DejaVuSans-73" transform="translate(1542.703125 0)"/>
     <use xlink:href="#DejaVuSans-2e" transform="translate(1594.802734 0)"/>
     <use xlink:href="#DejaVuSans-20" transform="translate(1626.589844 0)"/>
     <use xlink:href="#DejaVuSans-45" transform="translate(1658.376953 0)"/>
     <use xlink:href="#DejaVuSans-72" transform="translate(1721.560547 0)"/>
     <use xlink:href="#DejaVuSans-67" transform="translate(1760.923828 0)"/>
     <use xlink:href="#DejaVuSans-65" transform="translate(1824.400391 0)"/>
     <use xlink:href="#DejaVuSans-62" transform="translate(1885.923828 0)"/>
     <use xlink:href="#DejaVuSans-6e" transform="translate(1949.400391 0)"/>
     <use xlink:href="#DejaVuSans-69" transform="translate(2012.779297 0)"/>
     <use xlink:href="#DejaVuSans-73" transform="translate(2040.5625 0)"/>
    </g>
    <!-- d₁=282.5nm, n₁=2.403 | d₂=311.4nm, n₂=1.663 -->
    <g transform="translate(90.484494 89.2) scale(0.12 -0.12)">
     <defs>
      <path id="DejaVuSans-64" d="M 2906 2969 
L 2906 4863 
L 3481 4863 
L 3481 0 
L 2906 0 
L 2906 525 
Q 2725 213 2448 61 
Q 2172 -91 1784 -91 
Q 1150 -91 751 415 
Q 353 922 353 1747 
Q 353 2572 751 3078 
Q 1150 3584 1784 3584 
Q 2172 3584 2448 3432 
Q 2725 3281 2906 2969 
z
M 947 1747 
Q 947 1113 1208 752 
Q 1469 391 1925 391 
Q 2381 391 2643 752 
Q 2906 1113 2906 1747 
Q 2906 2381 2643 2742 
Q 2381 3103 1925 3103 
Q 1469 3103 1208 2742 
Q 947 2381 947 1747 
z
" transform="scale(0.015625)"/>
      <path id="DejaVuSans-2081" d="M 488 319 
L 1125 319 
L 1125 2229 
L 428 2101 
L 428 2463 
L 1147 2585 
L 1575 2585 
L 1575 319 
L 2216 319 
L 2216 -24 
L 488 -24 
L 488 319 
z
" transform="scale(0.015625)"/>
      <path id="DejaVuSans-3d" d="M 678 2906 
L 4684 2906 
L 4684 2381 
L 678 2381 
L 678 2906 
z
M 678 1631 
L 4684 1631 
L 4684 1100 
L 678 1100 
L 678 1631 
z
" transform="scale(0.015625)"/>
      <path id="DejaVuSans-38" d="M 2034 2216 
Q 1584 2216 1326 1975 
Q 1069 1734 1069 1313 
Q 1069 891 1326 650 
Q 1584 409 2034 409 
Q 2484 409 2743 651 
Q 3003 894 3003 1313 
Q 3003 1734 2745 1975 
Q 2488 2216 2034 2216 
z
M 1403 2484 
Q 997 2584 770 2862 
Q 544 3141 544 3541 
Q 544 4100 942 4425 
Q 1341 4750 2034 4750 
Q 2731 4750 3128 4425 
Q 3525 4100 3525 3541 
Q 3525 3141 3298 2862 
Q 3072 2584 2669 2484 
Q 3125 2378 3379 2068 
Q 3634 1759 3634 1313 
Q 3634 634 3220 271 
Q 2806 -91 2034 -91 
Q 1263 -91 848 271 
Q 434 634 434 1313 
Q 434 1759 690 2068 
Q 947 2378 1403 2484 
z
M 1172 3481 
Q 1172 3119 1398 2916 
Q 1625 2713 2034 2713 
Q 2441 2713 2670 2916 
Q 2900 3119 2900 3481 
Q 2900 3844 2670 4047 
Q 2441 4250 2034 4250 
Q 1625 4250 1398 4047 
Q 1172 3844 1172 3481 
z
" transform="scale(0.015625)"/>
      <path id="DejaVuSans-2c" d="M 750 794 
L 1409 794 
L 1409 256 
L 897 -744 
L 494 -744 
L 750 256 
L 750 794 
z
" transform="scale(0.015625)"/>
      <path id="DejaVuSans-7c" d="M 1344 4891 
L 1344 -1509 
L 813 -1509 
L 813 4891 
L 1344 4891 
z
" transform="scale(0.015625)"/>
      <path id="DejaVuSans-2082" d="M 838 332 
L 2163 332 
L 2163 -24 
L 294 -24 
L 294 319 
Q 400 416 597 591 
Q 1672 1544 1672 1838 
Q 1672 2044 1509 2170 
Q 1347 2297 1081 2297 
Q 919 2297 728 2242 
Q 538 2188 313 2079 
L 313 2463 
Q 553 2551 761 2594 
Q 969 2638 1147 2638 
Q 1600 2638 1872 2432 
Q 2144 2226 2144 1888 
Q 2144 1454 1109 566 
Q 934 416 838 332 
z
" transform="scale(0.015625)"/>
     </defs>
     <use xlink:href="#DejaVuSans-64"/>
     <use xlink:href="#DejaVuSans-2081" transform="translate(63.476562 0)"/>
     <use xlink:href="#DejaVuSans-3d" transform="translate(103.564453 0)"/>
     <use xlink:href="#DejaVuSans-32" transform="translate(187.353516 0)"/>
     <use xlink:href="#DejaVuSans-38" transform="translate(250.976562 0)"/>
     <use xlink:href="#DejaVuSans-32" transform="translate(314.599609 0)"/>
     <use xlink:href="#DejaVuSans-2e" transform="translate(378.222656 0)"/>
     <use xlink:href="#DejaVuSans-35" transform="translate(410.009766 0)"/>
     <use xlink:href="#DejaVuSans-6e" transform="translate(473.632812 0)"/>
     <use xlink:href="#DejaVuSans-6d" transform="translate(537.011719 0)"/>
     <use xlink:href="#DejaVuSans-2c" transform="translate(634.423828 0)"/>
     <use xlink:href="#DejaVuSans-20" transform="translate(666.210938 0)"/>
     <use xlink:href="#DejaVuSans-6e" transform="translate(697.998047 0)"/>
     <use xlink:href="#DejaVuSans-2081" transform="translate(761.376953 0)"/>
     <use xlink:href="#DejaVuSans-3d" transform="translate(801.464844 0)"/>
     <use xlink:href="#DejaVuSans-32" transform="translate(885.253906 0)"/>
     <use xlink:href="#DejaVuSans-2e" transform="translate(948.876953 0)"/>
     <use xlink:href="#DejaVuSans-34" transform="translate(980.664062 0)"/>
     <use xlink:href="#DejaVuSans-30" transform="translate(1044.287109 0)"/>
     <use xlink:href="#DejaVuSans-33" transform="translate(1107.910156 0)"/>
     <use xlink:href="#DejaVuSans-20" transform="translate(1171.533203 0)"/>
     <use xlink:href="#DejaVuSans-7c" transform="translate(1203.320312 0)"/>
     <use xlink:href="#DejaVuSans-20" transform="translate(1237.011719 0)"/>
     <use xlink:href="#DejaVuSans-64" transform="translate(1268.798828 0)"/>
     <use xlink:href="#DejaVuSans-2082" transform="translate(1332.275391 0)"/>
     <use xlink:href="#DejaVuSans-3d" transform="translate(1372.363281 0)"/>
     <use xlink:href="#DejaVuSans-33" transform="translate(1456.152344 0)"/>
     <use xlink:href="#DejaVuSans-31" transform="translate(1519.775391 0)"/>
     <use xlink:href="#DejaVuSans-31" transform="translate(1583.398438 0)"/>
     <use xlink:href="#DejaVuSans-2e" transform="translate(1647.021484 0)"/>
     <use xlink:href="#DejaVuSans-34" transform="translate(1678.808594 0)"/>
     <use xlink:href="#DejaVuSans-6e" transform="translate(1742.431641 0)"/>
     <use xlink:href="#DejaVuSans-6d" transform="translate(1805.810547 0)"/>
     <use xlink:href="#DejaVuSans-2c" transform="translate(1903.222656 0)"/>
     <use xlink:href="#DejaVuSans-20" transform="translate(1935.009766 0)"/>
     <use xlink:href="#DejaVuSans-6e" transform="translate(1966.796875 0)"/>
     <use xlink:href="#DejaVuSans-2082" transform="translate(2030.175781 0)"/>
     <use xlink:href="#DejaVuSans-3d" transform="translate(2070.263672 0)"/>
     <use xlink:href="#DejaVuSans-31" transform="translate(2154.052734 0)"/>
     <use xlink:href="#DejaVuSans-2e" transform="translate(2217.675781 0)"/>
     <use xlink:href="#DejaVuSans-36" transform="translate(2249.462891 0)"/>
     <use xlink:href="#DejaVuSans-36" transform="translate(2313.085938 0)"/>
     <use xlink:href="#DejaVuSans-33" transform="translate(2376.708984 0)"/>
    </g>
   </g>
   <g id="legend_1">
    <g id="patch_7">
     <path d="M 256.389769 142.030938 
L 402.385238 142.030938 
Q 404.185238 142.030938 404.185238 140.230938 
L 404.185238 101.5 
Q 404.185238 99.7 402.385238 99.7 
L 256.389769 99.7 
Q 254.589769 99.7 254.589769 101.5 
L 254.589769 140.230938 
Q 254.589769 142.030938 256.389769 142.030938 
z
" style="fill: #ffffff; opacity: 0.8; stroke: #cccccc; stroke-linejoin: miter"/>
    </g>
    <g id="line2d_29">
     <path d="M 258.189769 106.988594 
L 267.189769 106.988594 
L 276.189769 106.988594 
" style="fill: none; stroke: #006400; stroke-width: 2.5; stroke-linecap: square"/>
    </g>
    <g id="text_17">
     <!-- Ziel: Laubblatt-Reflexion -->
     <g transform="translate(283.389769 110.138594) scale(0.09 -0.09)">
      <defs>
       <path id="DejaVuSans-4c" d="M 628 4666 
L 1259 4666 
L 1259 531 
L 3531 531 
L 3531 0 
L 628 0 
L 628 4666 
z
" transform="scale(0.015625)"/>
      </defs>
      <use xlink:href="#DejaVuSans-5a"/>
      <use xlink:href="#DejaVuSans-69" transform="translate(68.505859 0)"/>
      <use xlink:href="#DejaVuSans-65" transform="translate(96.289062 0)"/>
      <use xlink:href="#DejaVuSans-6c" transform="translate(157.8125 0)"/>
      <use xlink:href="#DejaVuSans-3a" transform="translate(185.595703 0)"/>
      <use xlink:href="#DejaVuSans-20" transform="translate(219.287109 0)"/>
      <use xlink:href="#DejaVuSans-4c" transform="translate(251.074219 0)"/>
      <use xlink:href="#DejaVuSans-61" transform="translate(306.787109 0)"/>
      <use xlink:href="#DejaVuSans-75" transform="translate(368.066406 0)"/>
      <use xlink:href="#DejaVuSans-62" transform="translate(431.445312 0)"/>
      <use xlink:href="#DejaVuSans-62" transform="translate(494.921875 0)"/>
      <use xlink:href="#DejaVuSans-6c" transform="translate(558.398438 0)"/>
      <use xlink:href="#DejaVuSans-61" transform="translate(586.181641 0)"/>
      <use xlink:href="#DejaVuSans-74" transform="translate(647.460938 0)"/>
      <use xlink:href="#DejaVuSans-74" transform="translate(686.669922 0)"/>
      <use xlink:href="#DejaVuSans-2d" transform="translate(725.878906 0)"/>
      <use xlink:href="#DejaVuSans-52" transform="translate(761.962891 0)"/>
      <use xlink:href="#DejaVuSans-65" transform="translate(826.945312 0)"/>
      <use xlink:href="#DejaVuSans-66" transform="translate(888.46875 0)"/>
      <use xlink:href="#DejaVuSans-6c" transform="translate(923.673828 0)"/>
      <use xlink:href="#DejaVuSans-65" transform="translate(951.457031 0)"/>
      <use xlink:href="#DejaVuSans-78" transform="translate(1011.230469 0)"/>
      <use xlink:href="#DejaVuSans-69" transform="translate(1070.410156 0)"/>
      <use xlink:href="#DejaVuSans-6f" transform="translate(1098.193359 0)"/>
      <use xlink:href="#DejaVuSans-6e" transform="translate(1159.375 0)"/>
     </g>
    </g>
    <g id="line2d_30">
     <path d="M 258.189769 120.198906 
L 267.189769 120.198906 
L 276.189769 120.198906 
" style="fill: none; stroke-dasharray: 7.4,3.2; stroke-dashoffset: 0; stroke: #e63946; stroke-width: 2"/>
    </g>
    <g id="text_18">
     <!-- Optimiert (RMSE=0.1136) -->
     <g transform="translate(283.389769 123.348906) scale(0.09 -0.09)">
      <defs>
       <path id="DejaVuSans-4d" d="M 628 4666 
L 1569 4666 
L 2759 1491 
L 3956 4666 
L 4897 4666 
L 4897 0 
L 4281 0 
L 4281 4097 
L 3078 897 
L 2444 897 
L 1241 4097 
L 1241 0 
L 628 0 
L 628 4666 
z
" transform="scale(0.015625)"/>
       <path id="DejaVuSans-53" d="M 3425 4513 
L 3425 3897 
Q 3066 4069 2747 4153 
Q 2428 4238 2131 4238 
Q 1616 4238 1336 4038 
Q 1056 3838 1056 3469 
Q 1056 3159 1242 3001 
Q 1428 2844 1947 2747 
L 2328 2669 
Q 3034 2534 3370 2195 
Q 3706 1856 3706 1288 
Q 3706 609 3251 259 
Q 2797 -91 1919 -91 
Q 1588 -91 1214 -16 
Q 841 59 441 206 
L 441 856 
Q 825 641 1194 531 
Q 1563 422 1919 422 
Q 2459 422 2753 634 
Q 3047 847 3047 1241 
Q 3047 1584 2836 1778 
Q 2625 1972 2144 2069 
L 1759 2144 
Q 1053 2284 737 2584 
Q 422 2884 422 3419 
Q 422 4038 858 4394 
Q 1294 4750 2059 4750 
Q 2388 4750 2728 4690 
Q 3069 4631 3425 4513 
z
" transform="scale(0.015625)"/>
      </defs>
      <use xlink:href="#DejaVuSans-4f"/>
      <use xlink:href="#DejaVuSans-70" transform="translate(78.710938 0)"/>
      <use xlink:href="#DejaVuSans-74" transform="translate(142.1875 0)"/>
      <use xlink:href="#DejaVuSans-69" transform="translate(181.396484 0)"/>
      <use xlink:href="#DejaVuSans-6d" transform="translate(209.179688 0)"/>
      <use xlink:href="#DejaVuSans-69" transform="translate(306.591797 0)"/>
      <use xlink:href="#DejaVuSans-65" transform="translate(334.375 0)"/>
      <use xlink:href="#DejaVuSans-72" transform="translate(395.898438 0)"/>
      <use xlink:href="#DejaVuSans-74" transform="translate(437.011719 0)"/>
      <use xlink:href="#DejaVuSans-20" transform="translate(476.220703 0)"/>
      <use xlink:href="#DejaVuSans-28" transform="translate(508.007812 0)"/>
      <use xlink:href="#DejaVuSans-52" transform="translate(547.021484 0)"/>
      <use xlink:href="#DejaVuSans-4d" transform="translate(616.503906 0)"/>
      <use xlink:href="#DejaVuSans-53" transform="translate(702.783203 0)"/>
      <use xlink:href="#DejaVuSans-45" transform="translate(766.259766 0)"/>
      <use xlink:href="#DejaVuSans-3d" transform="translate(829.443359 0)"/>
      <use xlink:href="#DejaVuSans-30" transform="translate(913.232422 0)"/>
      <use xlink:href="#DejaVuSans-2e" transform="translate(976.855469 0)"/>
      <use xlink:href="#DejaVuSans-31" transform="translate(1008.642578 0)"/>
      <use xlink:href="#DejaVuSans-31" transform="translate(1072.265625 0)"/>
      <use xlink:href="#DejaVuSans-33" transform="translate(1135.888672 0)"/>
      <use xlink:href="#DejaVuSans-36" transform="translate(1199.511719 0)"/>
      <use xlink:href="#DejaVuSans-29" transform="translate(1263.134766 0)"/>
     </g>
    </g>
    <g id="patch_8">
     <path d="M 258.189769 136.559219 
L 276.189769 136.559219 
L 276.189769 130.259219 
L 258.189769 130.259219 
z
" style="fill: #e63946; fill-opacity: 0.15; stroke: #e63946; stroke-opacity: 0.15; stroke-linejoin: miter"/>
    </g>
    <g id="text_19">
     <!-- Abweichung -->
     <g transform="translate(283.389769 136.559219) scale(0.09 -0.09)">
      <defs>
       <path id="DejaVuSans-41" d="M 2188 4044 
L 1331 1722 
L 3047 1722 
L 2188 4044 
z
M 1831 4666 
L 2547 4666 
L 4325 0 
L 3669 0 
L 3244 1197 
L 1141 1197 
L 716 0 
L 50 0 
L 1831 4666 
z
" transform="scale(0.015625)"/>
       <path id="DejaVuSans-77" d="M 269 3500 
L 844 3500 
L 1563 769 
L 2278 3500 
L 2956 3500 
L 3675 769 
L 4391 3500 
L 4966 3500 
L 4050 0 
L 3372 0 
L 2619 2869 
L 1863 0 
L 1184 0 
L 269 3500 
z
" transform="scale(0.015625)"/>
       <path id="DejaVuSans-63" d="M 3122 3366 
L 3122 2828 
Q 2878 2963 2633 3030 
Q 2388 3097 2138 3097 
Q 1578 3097 1268 2742 
Q 959 2388 959 1747 
Q 959 1106 1268 751 
Q 1578 397 2138 397 
Q 2388 397 2633 464 
Q 2878 531 3122 666 
L 3122 134 
Q 2881 22 2623 -34 
Q 2366 -91 2075 -91 
Q 1284 -91 818 406 
Q 353 903 353 1747 
Q 353 2603 823 3093 
Q 1294 3584 2113 3584 
Q 2378 3584 2631 3529 
Q 2884 3475 3122 3366 
z
" transform="scale(0.015625)"/>
       <path id="DejaVuSans-68" d="M 3513 2113 
L 3513 0 
L 2938 0 
L 2938 2094 
Q 2938 2591 2744 2837 
Q 2550 3084 2163 3084 
Q 1697 3084 1428 2787 
Q 1159 2491 1159 1978 
L 1159 0 
L 581 0 
L 581 4863 
L 1159 4863 
L 1159 2956 
Q 1366 3272 1645 3428 
Q 1925 3584 2291 3584 
Q 2894 3584 3203 3211 
Q 3513 2838 3513 2113 
z
" transform="scale(0.015625)"/>
      </defs>
      <use xlink:href="#DejaVuSans-41"/>
      <use xlink:href="#DejaVuSans-62" transform="translate(68.408203 0)"/>
      <use xlink:href="#DejaVuSans-77" transform="translate(131.884766 0)"/>
      <use xlink:href="#DejaVuSans-65" transform="translate(213.671875 0)"/>
      <use xlink:href="#DejaVuSans-69" transform="translate(275.195312 0)"/>
      <use xlink:href="#DejaVuSans-63" transform="translate(302.978516 0)"/>
      <use xlink:href="#DejaVuSans-68" transform="translate(357.958984 0)"/>
      <use xlink:href="#DejaVuSans-75" transform="translate(421.337891 0)"/>
      <use xlink:href="#DejaVuSans-6e" transform="translate(484.716797 0)"/>
      <use xlink:href="#DejaVuSans-67" transform="translate(548.095703 0)"/>
     </g>
    </g>
   </g>
  </g>
  <g id="axes_2">
   <g id="patch_9">
    <path d="M 492.939762 299.9 
L 836.5 299.9 
L 836.5 95.2 
L 492.939762 95.2 
z
" style="fill: #ffffff"/>
   </g>
   <g id="matplotlib.axis_3">
    <g id="xtick_9">
     <g id="line2d_31">
      <path d="M 508.556136 299.9 
L 508.556136 95.2 
" clip-path="url(#p27a53948a6)" style="fill: none; stroke: #b0b0b0; stroke-opacity: 0.3; stroke-width: 0.8; stroke-linecap: square"/>
     </g>
     <g id="line2d_32">
      <g>
       <use xlink:href="#m930bd330ef" x="508.556136" y="299.9" style="stroke: #000000; stroke-width: 0.8"/>
      </g>
     </g>
     <g id="text_20">
      <!-- 0 -->
      <g transform="translate(505.374886 314.498438) scale(0.1 -0.1)">
       <use xlink:href="#DejaVuSans-30"/>
      </g>
     </g>
    </g>
    <g id="xtick_10">
     <g id="line2d_33">
      <path d="M 547.597073 299.9 
L 547.597073 95.2 
" clip-path="url(#p27a53948a6)" style="fill: none; stroke: #b0b0b0; stroke-opacity: 0.3; stroke-width: 0.8; stroke-linecap: square"/>
     </g>
     <g id="line2d_34">
      <g>
       <use xlink:href="#m930bd330ef" x="547.597073" y="299.9" style="stroke: #000000; stroke-width: 0.8"/>
      </g>
     </g>
     <g id="text_21">
      <!-- 2 -->
      <g transform="translate(544.415823 314.498438) scale(0.1 -0.1)">
       <use xlink:href="#DejaVuSans-32"/>
      </g>
     </g>
    </g>
    <g id="xtick_11">
     <g id="line2d_35">
      <path d="M 586.638009 299.9 
L 586.638009 95.2 
" clip-path="url(#p27a53948a6)" style="fill: none; stroke: #b0b0b0; stroke-opacity: 0.3; stroke-width: 0.8; stroke-linecap: square"/>
     </g>
     <g id="line2d_36">
      <g>
       <use xlink:href="#m930bd330ef" x="586.638009" y="299.9" style="stroke: #000000; stroke-width: 0.8"/>
      </g>
     </g>
     <g id="text_22">
      <!-- 4 -->
      <g transform="translate(583.456759 314.498438) scale(0.1 -0.1)">
       <use xlink:href="#DejaVuSans-34"/>
      </g>
     </g>
    </g>
    <g id="xtick_12">
     <g id="line2d_37">
      <path d="M 625.678945 299.9 
L 625.678945 95.2 
" clip-path="url(#p27a53948a6)" style="fill: none; stroke: #b0b0b0; stroke-opacity: 0.3; stroke-width: 0.8; stroke-linecap: square"/>
     </g>
     <g id="line2d_38">
      <g>
       <use xlink:href="#m930bd330ef" x="625.678945" y="299.9" style="stroke: #000000; stroke-width: 0.8"/>
      </g>
     </g>
     <g id="text_23">
      <!-- 6 -->
      <g transform="translate(622.497695 314.498438) scale(0.1 -0.1)">
       <use xlink:href="#DejaVuSans-36"/>
      </g>
     </g>
    </g>
    <g id="xtick_13">
     <g id="line2d_39">
      <path d="M 664.719881 299.9 
L 664.719881 95.2 
" clip-path="url(#p27a53948a6)" style="fill: none; stroke: #b0b0b0; stroke-opacity: 0.3; stroke-width: 0.8; stroke-linecap: square"/>
     </g>
     <g id="line2d_40">
      <g>
       <use xlink:href="#m930bd330ef" x="664.719881" y="299.9" style="stroke: #000000; stroke-width: 0.8"/>
      </g>
     </g>
     <g id="text_24">
      <!-- 8 -->
      <g transform="translate(661.538631 314.498438) scale(0.1 -0.1)">
       <use xlink:href="#DejaVuSans-38"/>
      </g>
     </g>
    </g>
    <g id="xtick_14">
     <g id="line2d_41">
      <path d="M 703.760817 299.9 
L 703.760817 95.2 
" clip-path="url(#p27a53948a6)" style="fill: none; stroke: #b0b0b0; stroke-opacity: 0.3; stroke-width: 0.8; stroke-linecap: square"/>
     </g>
     <g id="line2d_42">
      <g>
       <use xlink:href="#m930bd330ef" x="703.760817" y="299.9" style="stroke: #000000; stroke-width: 0.8"/>
      </g>
     </g>
     <g id="text_25">
      <!-- 10 -->
      <g transform="translate(697.398317 314.498438) scale(0.1 -0.1)">
       <use xlink:href="#DejaVuSans-31"/>
       <use xlink:href="#DejaVuSans-30" transform="translate(63.623047 0)"/>
      </g>
     </g>
    </g>
    <g id="xtick_15">
     <g id="line2d_43">
      <path d="M 742.801753 299.9 
L 742.801753 95.2 
" clip-path="url(#p27a53948a6)" style="fill: none; stroke: #b0b0b0; stroke-opacity: 0.3; stroke-width: 0.8; stroke-linecap: square"/>
     </g>
     <g id="line2d_44">
      <g>
       <use xlink:href="#m930bd330ef" x="742.801753" y="299.9" style="stroke: #000000; stroke-width: 0.8"/>
      </g>
     </g>
     <g id="text_26">
      <!-- 12 -->
      <g transform="translate(736.439253 314.498438) scale(0.1 -0.1)">
       <use xlink:href="#DejaVuSans-31"/>
       <use xlink:href="#DejaVuSans-32" transform="translate(63.623047 0)"/>
      </g>
     </g>
    </g>
    <g id="xtick_16">
     <g id="line2d_45">
      <path d="M 781.842689 299.9 
L 781.842689 95.2 
" clip-path="url(#p27a53948a6)" style="fill: none; stroke: #b0b0b0; stroke-opacity: 0.3; stroke-width: 0.8; stroke-linecap: square"/>
     </g>
     <g id="line2d_46">
      <g>
       <use xlink:href="#m930bd330ef" x="781.842689" y="299.9" style="stroke: #000000; stroke-width: 0.8"/>
      </g>
     </g>
     <g id="text_27">
      <!-- 14 -->
      <g transform="translate(775.480189 314.498438) scale(0.1 -0.1)">
       <use xlink:href="#DejaVuSans-31"/>
       <use xlink:href="#DejaVuSans-34" transform="translate(63.623047 0)"/>
      </g>
     </g>
    </g>
    <g id="xtick_17">
     <g id="line2d_47">
      <path d="M 820.883626 299.9 
L 820.883626 95.2 
" clip-path="url(#p27a53948a6)" style="fill: none; stroke: #b0b0b0; stroke-opacity: 0.3; stroke-width: 0.8; stroke-linecap: square"/>
     </g>
     <g id="line2d_48">
      <g>
       <use xlink:href="#m930bd330ef" x="820.883626" y="299.9" style="stroke: #000000; stroke-width: 0.8"/>
      </g>
     </g>
     <g id="text_28">
      <!-- 16 -->
      <g transform="translate(814.521126 314.498438) scale(0.1 -0.1)">
       <use xlink:href="#DejaVuSans-31"/>
       <use xlink:href="#DejaVuSans-36" transform="translate(63.623047 0)"/>
      </g>
     </g>
    </g>
    <g id="text_29">
     <!-- Iteration -->
     <g transform="translate(641.390428 328.936406) scale(0.11 -0.11)">
      <defs>
       <path id="DejaVuSans-49" d="M 628 4666 
L 1259 4666 
L 1259 0 
L 628 0 
L 628 4666 
z
" transform="scale(0.015625)"/>
      </defs>
      <use xlink:href="#DejaVuSans-49"/>
      <use xlink:href="#DejaVuSans-74" transform="translate(29.492188 0)"/>
      <use xlink:href="#DejaVuSans-65" transform="translate(68.701172 0)"/>
      <use xlink:href="#DejaVuSans-72" transform="translate(130.224609 0)"/>
      <use xlink:href="#DejaVuSans-61" transform="translate(171.337891 0)"/>
      <use xlink:href="#DejaVuSans-74" transform="translate(232.617188 0)"/>
      <use xlink:href="#DejaVuSans-69" transform="translate(271.826172 0)"/>
      <use xlink:href="#DejaVuSans-6f" transform="translate(299.609375 0)"/>
      <use xlink:href="#DejaVuSans-6e" transform="translate(360.791016 0)"/>
     </g>
    </g>
   </g>
   <g id="matplotlib.axis_4">
    <g id="ytick_6">
     <g id="line2d_49">
      <defs>
       <path id="m2e740e65ff" d="M 0 0 
L -2 0 
" style="stroke: #000000; stroke-width: 0.6"/>
      </defs>
      <g>
       <use xlink:href="#m2e740e65ff" x="492.939762" y="192.622688" style="stroke: #000000; stroke-width: 0.6"/>
      </g>
     </g>
     <g id="text_30">
      <!-- $\mathdefault{2\times10^{0}}$ -->
      <g transform="translate(451.339762 196.421907) scale(0.1 -0.1)">
       <defs>
        <path id="DejaVuSans-d7" d="M 4488 3438 
L 3059 2003 
L 4488 575 
L 4116 197 
L 2681 1631 
L 1247 197 
L 878 575 
L 2303 2003 
L 878 3438 
L 1247 3816 
L 2681 2381 
L 4116 3816 
L 4488 3438 
z
" transform="scale(0.015625)"/>
       </defs>
       <use xlink:href="#DejaVuSans-32" transform="translate(0 0.765625)"/>
       <use xlink:href="#DejaVuSans-d7" transform="translate(83.105469 0.765625)"/>
       <use xlink:href="#DejaVuSans-31" transform="translate(186.376953 0.765625)"/>
       <use xlink:href="#DejaVuSans-30" transform="translate(250 0.765625)"/>
       <use xlink:href="#DejaVuSans-30" transform="translate(314.580078 39.046875) scale(0.7)"/>
      </g>
     </g>
    </g>
    <g id="ytick_7">
     <g id="line2d_50">
      <g>
       <use xlink:href="#m2e740e65ff" x="492.939762" y="101.893145" style="stroke: #000000; stroke-width: 0.6"/>
      </g>
     </g>
     <g id="text_31">
      <!-- $\mathdefault{3\times10^{0}}$ -->
      <g transform="translate(451.339762 105.692364) scale(0.1 -0.1)">
       <use xlink:href="#DejaVuSans-33" transform="translate(0 0.765625)"/>
       <use xlink:href="#DejaVuSans-d7" transform="translate(83.105469 0.765625)"/>
       <use xlink:href="#DejaVuSans-31" transform="translate(186.376953 0.765625)"/>
       <use xlink:href="#DejaVuSans-30" transform="translate(250 0.765625)"/>
       <use xlink:href="#DejaVuSans-30" transform="translate(314.580078 39.046875) scale(0.7)"/>
      </g>
     </g>
    </g>
    <g id="text_32">
     <!-- Kostenfunktion L (log) -->
     <g transform="translate(445.052106 258.002734) rotate(-90) scale(0.11 -0.11)">
      <defs>
       <path id="DejaVuSans-4b" d="M 628 4666 
L 1259 4666 
L 1259 2694 
L 3353 4666 
L 4166 4666 
L 1850 2491 
L 4331 0 
L 3500 0 
L 1259 2247 
L 1259 0 
L 628 0 
L 628 4666 
z
" transform="scale(0.015625)"/>
       <path id="DejaVuSans-6b" d="M 581 4863 
L 1159 4863 
L 1159 1991 
L 2875 3500 
L 3609 3500 
L 1753 1863 
L 3688 0 
L 2938 0 
L 1159 1709 
L 1159 0 
L 581 0 
L 581 4863 
z
" transform="scale(0.015625)"/>
      </defs>
      <use xlink:href="#DejaVuSans-4b"/>
      <use xlink:href="#DejaVuSans-6f" transform="translate(60.576172 0)"/>
      <use xlink:href="#DejaVuSans-73" transform="translate(121.757812 0)"/>
      <use xlink:href="#DejaVuSans-74" transform="translate(173.857422 0)"/>
      <use xlink:href="#DejaVuSans-65" transform="translate(213.066406 0)"/>
      <use xlink:href="#DejaVuSans-6e" transform="translate(274.589844 0)"/>
      <use xlink:href="#DejaVuSans-66" transform="translate(337.96875 0)"/>
      <use xlink:href="#DejaVuSans-75" transform="translate(373.173828 0)"/>
      <use xlink:href="#DejaVuSans-6e" transform="translate(436.552734 0)"/>
      <use xlink:href="#DejaVuSans-6b" transform="translate(499.931641 0)"/>
      <use xlink:href="#DejaVuSans-74" transform="translate(557.841797 0)"/>
      <use xlink:href="#DejaVuSans-69" transform="translate(597.050781 0)"/>
      <use xlink:href="#DejaVuSans-6f" transform="translate(624.833984 0)"/>
      <use xlink:href="#DejaVuSans-6e" transform="translate(686.015625 0)"/>
      <use xlink:href="#DejaVuSans-20" transform="translate(749.394531 0)"/>
      <use xlink:href="#DejaVuSans-4c" transform="translate(781.181641 0)"/>
      <use xlink:href="#DejaVuSans-20" transform="translate(836.894531 0)"/>
      <use xlink:href="#DejaVuSans-28" transform="translate(868.681641 0)"/>
      <use xlink:href="#DejaVuSans-6c" transform="translate(907.695312 0)"/>
      <use xlink:href="#DejaVuSans-6f" transform="translate(935.478516 0)"/>
      <use xlink:href="#DejaVuSans-67" transform="translate(996.660156 0)"/>
      <use xlink:href="#DejaVuSans-29" transform="translate(1060.136719 0)"/>
     </g>
    </g>
   </g>
   <g id="line2d_51">
    <path d="M 508.556136 104.504545 
L 528.076604 136.457146 
L 547.597073 190.404443 
L 567.117541 191.015801 
L 586.638009 192.582204 
L 606.158477 193.146842 
L 625.678945 193.23184 
L 645.199413 194.849423 
L 664.719881 205.436328 
L 684.240349 246.942757 
L 703.760817 248.82584 
L 723.281285 264.057773 
L 742.801753 268.312493 
L 762.322221 290.295427 
L 781.842689 290.302968 
L 801.363157 290.451338 
L 820.883626 290.595455 
" clip-path="url(#p27a53948a6)" style="fill: none; stroke: #457b9d; stroke-width: 2; stroke-linecap: square"/>
   </g>
   <g id="line2d_52">
    <path d="M 492.939762 290.595455 
L 836.5 290.595455 
" clip-path="url(#p27a53948a6)" style="fill: none; stroke-dasharray: 7.4,3.2; stroke-dashoffset: 0; stroke: #e63946; stroke-opacity: 0.7; stroke-width: 2"/>
   </g>
   <g id="patch_10">
    <path d="M 492.939762 299.9 
L 492.939762 95.2 
" style="fill: none; stroke: #000000; stroke-width: 0.8; stroke-linejoin: miter; stroke-linecap: square"/>
   </g>
   <g id="patch_11">
    <path d="M 836.5 299.9 
L 836.5 95.2 
" style="fill: none; stroke: #000000; stroke-width: 0.8; stroke-linejoin: miter; stroke-linecap: square"/>
   </g>
   <g id="patch_12">
    <path d="M 492.939762 299.9 
L 836.5 299.9 
" style="fill: none; stroke: #000000; stroke-width: 0.8; stroke-linejoin: miter; stroke-linecap: square"/>
   </g>
   <g id="patch_13">
    <path d="M 492.939762 95.2 
L 836.5 95.2 
" style="fill: none; stroke: #000000; stroke-width: 0.8; stroke-linejoin: miter; stroke-linecap: square"/>
   </g>
   <g id="text_33">
    <!-- Konvergenzkurve – adjungierter Gradientenabstieg -->
    <g transform="translate(511.390818 75.762625) scale(0.12 -0.12)">
     <defs>
      <path id="DejaVuSans-7a" d="M 353 3500 
L 3084 3500 
L 3084 2975 
L 922 459 
L 3084 459 
L 3084 0 
L 275 0 
L 275 525 
L 2438 3041 
L 353 3041 
L 353 3500 
z
" transform="scale(0.015625)"/>
      <path id="DejaVuSans-2013" d="M 313 1978 
L 2888 1978 
L 2888 1528 
L 313 1528 
L 313 1978 
z
" transform="scale(0.015625)"/>
      <path id="DejaVuSans-6a" d="M 603 3500 
L 1178 3500 
L 1178 -63 
Q 1178 -731 923 -1031 
Q 669 -1331 103 -1331 
L -116 -1331 
L -116 -844 
L 38 -844 
Q 366 -844 484 -692 
Q 603 -541 603 -63 
L 603 3500 
z
M 603 4863 
L 1178 4863 
L 1178 4134 
L 603 4134 
L 603 4863 
z
" transform="scale(0.015625)"/>
      <path id="DejaVuSans-47" d="M 3809 666 
L 3809 1919 
L 2778 1919 
L 2778 2438 
L 4434 2438 
L 4434 434 
Q 4069 175 3628 42 
Q 3188 -91 2688 -91 
Q 1594 -91 976 548 
Q 359 1188 359 2328 
Q 359 3472 976 4111 
Q 1594 4750 2688 4750 
Q 3144 4750 3555 4637 
Q 3966 4525 4313 4306 
L 4313 3634 
Q 3963 3931 3569 4081 
Q 3175 4231 2741 4231 
Q 1884 4231 1454 3753 
Q 1025 3275 1025 2328 
Q 1025 1384 1454 906 
Q 1884 428 2741 428 
Q 3075 428 3337 486 
Q 3600 544 3809 666 
z
" transform="scale(0.015625)"/>
     </defs>
     <use xlink:href="#DejaVuSans-4b"/>
     <use xlink:href="#DejaVuSans-6f" transform="translate(60.576172 0)"/>
     <use xlink:href="#DejaVuSans-6e" transform="translate(121.757812 0)"/>
     <use xlink:href="#DejaVuSans-76" transform="translate(185.136719 0)"/>
     <use xlink:href="#DejaVuSans-65" transform="translate(244.316406 0)"/>
     <use xlink:href="#DejaVuSans-72" transform="translate(305.839844 0)"/>
     <use xlink:href="#DejaVuSans-67" transform="translate(345.203125 0)"/>
     <use xlink:href="#DejaVuSans-65" transform="translate(408.679688 0)"/>
     <use xlink:href="#DejaVuSans-6e" transform="translate(470.203125 0)"/>
     <use xlink:href="#DejaVuSans-7a" transform="translate(533.582031 0)"/>
     <use xlink:href="#DejaVuSans-6b" transform="translate(586.072266 0)"/>
     <use xlink:href="#DejaVuSans-75" transform="translate(640.857422 0)"/>
     <use xlink:href="#DejaVuSans-72" transform="translate(704.236328 0)"/>
     <use xlink:href="#DejaVuSans-76" transform="translate(745.349609 0)"/>
     <use xlink:href="#DejaVuSans-65" transform="translate(804.529297 0)"/>
     <use xlink:href="#DejaVuSans-20" transform="translate(866.052734 0)"/>
     <use xlink:href="#DejaVuSans-2013" transform="translate(897.839844 0)"/>
     <use xlink:href="#DejaVuSans-20" transform="translate(947.839844 0)"/>
     <use xlink:href="#DejaVuSans-61" transform="translate(979.626953 0)"/>
     <use xlink:href="#DejaVuSans-64" transform="translate(1040.90625 0)"/>
     <use xlink:href="#DejaVuSans-6a" transform="translate(1104.382812 0)"/>
     <use xlink:href="#DejaVuSans-75" transform="translate(1132.166016 0)"/>
     <use xlink:href="#DejaVuSans-6e" transform="translate(1195.544922 0)"/>
     <use xlink:href="#DejaVuSans-67" transform="translate(1258.923828 0)"/>
     <use xlink:href="#DejaVuSans-69" transform="translate(1322.400391 0)"/>
     <use xlink:href="#DejaVuSans-65" transform="translate(1350.183594 0)"/>
     <use xlink:href="#DejaVuSans-72" transform="translate(1411.707031 0)"/>
     <use xlink:href="#DejaVuSans-74" transform="translate(1452.820312 0)"/>
     <use xlink:href="#DejaVuSans-65" transform="translate(1492.029297 0)"/>
     <use xlink:href="#DejaVuSans-72" transform="translate(1553.552734 0)"/>
     <use xlink:href="#DejaVuSans-20" transform="translate(1594.666016 0)"/>
     <use xlink:href="#DejaVuSans-47" transform="translate(1626.453125 0)"/>
     <use xlink:href="#DejaVuSans-72" transform="translate(1703.943359 0)"/>
     <use xlink:href="#DejaVuSans-61" transform="translate(1745.056641 0)"/>
     <use xlink:href="#DejaVuSans-64" transform="translate(1806.335938 0)"/>
     <use xlink:href="#DejaVuSans-69" transform="translate(1869.8125 0)"/>
     <use xlink:href="#DejaVuSans-65" transform="translate(1897.595703 0)"/>
     <use xlink:href="#DejaVuSans-6e" transform="translate(1959.119141 0)"/>
     <use xlink:href="#DejaVuSans-74" transform="translate(2022.498047 0)"/>
     <use xlink:href="#DejaVuSans-65" transform="translate(2061.707031 0)"/>
     <use xlink:href="#DejaVuSans-6e" transform="translate(2123.230469 0)"/>
     <use xlink:href="#DejaVuSans-61" transform="translate(2186.609375 0)"/>
     <use xlink:href="#DejaVuSans-62" transform="translate(2247.888672 0)"/>
     <use xlink:href="#DejaVuSans-73" transform="translate(2311.365234 0)"/>
     <use xlink:href="#DejaVuSans-74" transform="translate(2363.464844 0)"/>
     <use xlink:href="#DejaVuSans-69" transform="translate(2402.673828 0)"/>
     <use xlink:href="#DejaVuSans-65" transform="translate(2430.457031 0)"/>
     <use xlink:href="#DejaVuSans-67" transform="translate(2491.980469 0)"/>
    </g>
    <!-- R²=0.4039 -->
    <g transform="translate(632.123006 89.2) scale(0.12 -0.12)">
     <defs>
      <path id="DejaVuSans-b2" d="M 838 2444 
L 2163 2444 
L 2163 2088 
L 294 2088 
L 294 2431 
Q 400 2528 597 2703 
Q 1672 3656 1672 3950 
Q 1672 4156 1509 4282 
Q 1347 4409 1081 4409 
Q 919 4409 728 4354 
Q 538 4300 313 4191 
L 313 4575 
Q 553 4663 761 4706 
Q 969 4750 1147 4750 
Q 1600 4750 1872 4544 
Q 2144 4338 2144 4000 
Q 2144 3566 1109 2678 
Q 934 2528 838 2444 
z
" transform="scale(0.015625)"/>
      <path id="DejaVuSans-39" d="M 703 97 
L 703 672 
Q 941 559 1184 500 
Q 1428 441 1663 441 
Q 2288 441 2617 861 
Q 2947 1281 2994 2138 
Q 2813 1869 2534 1725 
Q 2256 1581 1919 1581 
Q 1219 1581 811 2004 
Q 403 2428 403 3163 
Q 403 3881 828 4315 
Q 1253 4750 1959 4750 
Q 2769 4750 3195 4129 
Q 3622 3509 3622 2328 
Q 3622 1225 3098 567 
Q 2575 -91 1691 -91 
Q 1453 -91 1209 -44 
Q 966 3 703 97 
z
M 1959 2075 
Q 2384 2075 2632 2365 
Q 2881 2656 2881 3163 
Q 2881 3666 2632 3958 
Q 2384 4250 1959 4250 
Q 1534 4250 1286 3958 
Q 1038 3666 1038 3163 
Q 1038 2656 1286 2365 
Q 1534 2075 1959 2075 
z
" transform="scale(0.015625)"/>
     </defs>
     <use xlink:href="#DejaVuSans-52"/>
     <use xlink:href="#DejaVuSans-b2" transform="translate(69.482422 0)"/>
     <use xlink:href="#DejaVuSans-3d" transform="translate(109.570312 0)"/>
     <use xlink:href="#DejaVuSans-30" transform="translate(193.359375 0)"/>
     <use xlink:href="#DejaVuSans-2e" transform="translate(256.982422 0)"/>
     <use xlink:href="#DejaVuSans-34" transform="translate(288.769531 0)"/>
     <use xlink:href="#DejaVuSans-30" transform="translate(352.392578 0)"/>
     <use xlink:href="#DejaVuSans-33" transform="translate(416.015625 0)"/>
     <use xlink:href="#DejaVuSans-39" transform="translate(479.638672 0)"/>
    </g>
   </g>
   <g id="legend_2">
    <g id="patch_14">
     <path d="M 708.932031 115.860625 
L 830.2 115.860625 
Q 832 115.860625 832 114.060625 
L 832 101.5 
Q 832 99.7 830.2 99.7 
L 708.932031 99.7 
Q 707.132031 99.7 707.132031 101.5 
L 707.132031 114.060625 
Q 707.132031 115.860625 708.932031 115.860625 
z
" style="fill: #ffffff; opacity: 0.8; stroke: #cccccc; stroke-linejoin: miter"/>
    </g>
    <g id="line2d_53">
     <path d="M 710.732031 106.988594 
L 719.732031 106.988594 
L 728.732031 106.988594 
" style="fill: none; stroke-dasharray: 7.4,3.2; stroke-dashoffset: 0; stroke: #e63946; stroke-opacity: 0.7; stroke-width: 2"/>
    </g>
    <g id="text_34">
     <!-- L_final=1.2909e+00 -->
     <g transform="translate(735.932031 110.138594) scale(0.09 -0.09)">
      <defs>
       <path id="DejaVuSans-5f" d="M 3263 -1063 
L 3263 -1509 
L -63 -1509 
L -63 -1063 
L 3263 -1063 
z
" transform="scale(0.015625)"/>
       <path id="DejaVuSans-2b" d="M 2944 4013 
L 2944 2272 
L 4684 2272 
L 4684 1741 
L 2944 1741 
L 2944 0 
L 2419 0 
L 2419 1741 
L 678 1741 
L 678 2272 
L 2419 2272 
L 2419 4013 
L 2944 4013 
z
" transform="scale(0.015625)"/>
      </defs>
      <use xlink:href="#DejaVuSans-4c"/>
      <use xlink:href="#DejaVuSans-5f" transform="translate(55.712891 0)"/>
      <use xlink:href="#DejaVuSans-66" transform="translate(105.712891 0)"/>
      <use xlink:href="#DejaVuSans-69" transform="translate(140.917969 0)"/>
      <use xlink:href="#DejaVuSans-6e" transform="translate(168.701172 0)"/>
      <use xlink:href="#DejaVuSans-61" transform="translate(232.080078 0)"/>
      <use xlink:href="#DejaVuSans-6c" transform="translate(293.359375 0)"/>
      <use xlink:href="#DejaVuSans-3d" transform="translate(321.142578 0)"/>
      <use xlink:href="#DejaVuSans-31" transform="translate(404.931641 0)"/>
      <use xlink:href="#DejaVuSans-2e" transform="translate(468.554688 0)"/>
      <use xlink:href="#DejaVuSans-32" transform="translate(500.341797 0)"/>
      <use xlink:href="#DejaVuSans-39" transform="translate(563.964844 0)"/>
      <use xlink:href="#DejaVuSans-30" transform="translate(627.587891 0)"/>
      <use xlink:href="#DejaVuSans-39" transform="translate(691.210938 0)"/>
      <use xlink:href="#DejaVuSans-65" transform="translate(754.833984 0)"/>
      <use xlink:href="#DejaVuSans-2b" transform="translate(816.357422 0)"/>
      <use xlink:href="#DejaVuSans-30" transform="translate(900.146484 0)"/>
      <use xlink:href="#DejaVuSans-30" transform="translate(963.769531 0)"/>
     </g>
    </g>
   </g>
  </g>
  <g id="text_35">
   <!-- Exp 21: Tarnfarben-Optimierung – Blatt-Zielspektrum -->
   <g transform="translate(237.087344 17.077969) scale(0.13 -0.13)">
    <defs>
     <path id="DejaVuSans-Bold-45" d="M 588 4666 
L 3834 4666 
L 3834 3756 
L 1791 3756 
L 1791 2888 
L 3713 2888 
L 3713 1978 
L 1791 1978 
L 1791 909 
L 3903 909 
L 3903 0 
L 588 0 
L 588 4666 
z
" transform="scale(0.015625)"/>
     <path id="DejaVuSans-Bold-78" d="M 1422 1791 
L 159 3500 
L 1344 3500 
L 2059 2463 
L 2784 3500 
L 3969 3500 
L 2706 1797 
L 4031 0 
L 2847 0 
L 2059 1106 
L 1281 0 
L 97 0 
L 1422 1791 
z
" transform="scale(0.015625)"/>
     <path id="DejaVuSans-Bold-70" d="M 1656 506 
L 1656 -1331 
L 538 -1331 
L 538 3500 
L 1656 3500 
L 1656 2988 
Q 1888 3294 2169 3439 
Q 2450 3584 2816 3584 
Q 3463 3584 3878 3070 
Q 4294 2556 4294 1747 
Q 4294 938 3878 423 
Q 3463 -91 2816 -91 
Q 2450 -91 2169 54 
Q 1888 200 1656 506 
z
M 2400 2772 
Q 2041 2772 1848 2508 
Q 1656 2244 1656 1747 
Q 1656 1250 1848 986 
Q 2041 722 2400 722 
Q 2759 722 2948 984 
Q 3138 1247 3138 1747 
Q 3138 2247 2948 2509 
Q 2759 2772 2400 2772 
z
" transform="scale(0.015625)"/>
     <path id="DejaVuSans-Bold-20" transform="scale(0.015625)"/>
     <path id="DejaVuSans-Bold-32" d="M 1844 884 
L 3897 884 
L 3897 0 
L 506 0 
L 506 884 
L 2209 2388 
Q 2438 2594 2547 2791 
Q 2656 2988 2656 3200 
Q 2656 3528 2436 3728 
Q 2216 3928 1850 3928 
Q 1569 3928 1234 3808 
Q 900 3688 519 3450 
L 519 4475 
Q 925 4609 1322 4679 
Q 1719 4750 2100 4750 
Q 2938 4750 3402 4381 
Q 3866 4013 3866 3353 
Q 3866 2972 3669 2642 
Q 3472 2313 2841 1759 
L 1844 884 
z
" transform="scale(0.015625)"/>
     <path id="DejaVuSans-Bold-31" d="M 750 831 
L 1813 831 
L 1813 3847 
L 722 3622 
L 722 4441 
L 1806 4666 
L 2950 4666 
L 2950 831 
L 4013 831 
L 4013 0 
L 750 0 
L 750 831 
z
" transform="scale(0.015625)"/>
     <path id="DejaVuSans-Bold-3a" d="M 716 3500 
L 1844 3500 
L 1844 2291 
L 716 2291 
L 716 3500 
z
M 716 1209 
L 1844 1209 
L 1844 0 
L 716 0 
L 716 1209 
z
" transform="scale(0.015625)"/>
     <path id="DejaVuSans-Bold-54" d="M 31 4666 
L 4331 4666 
L 4331 3756 
L 2784 3756 
L 2784 0 
L 1581 0 
L 1581 3756 
L 31 3756 
L 31 4666 
z
" transform="scale(0.015625)"/>
     <path id="DejaVuSans-Bold-61" d="M 2106 1575 
Q 1756 1575 1579 1456 
Q 1403 1338 1403 1106 
Q 1403 894 1545 773 
Q 1688 653 1941 653 
Q 2256 653 2472 879 
Q 2688 1106 2688 1447 
L 2688 1575 
L 2106 1575 
z
M 3816 1997 
L 3816 0 
L 2688 0 
L 2688 519 
Q 2463 200 2181 54 
Q 1900 -91 1497 -91 
Q 953 -91 614 226 
Q 275 544 275 1050 
Q 275 1666 698 1953 
Q 1122 2241 2028 2241 
L 2688 2241 
L 2688 2328 
Q 2688 2594 2478 2717 
Q 2269 2841 1825 2841 
Q 1466 2841 1156 2769 
Q 847 2697 581 2553 
L 581 3406 
Q 941 3494 1303 3539 
Q 1666 3584 2028 3584 
Q 2975 3584 3395 3211 
Q 3816 2838 3816 1997 
z
" transform="scale(0.015625)"/>
     <path id="DejaVuSans-Bold-72" d="M 3138 2547 
Q 2991 2616 2845 2648 
Q 2700 2681 2553 2681 
Q 2122 2681 1889 2404 
Q 1656 2128 1656 1613 
L 1656 0 
L 538 0 
L 538 3500 
L 1656 3500 
L 1656 2925 
Q 1872 3269 2151 3426 
Q 2431 3584 2822 3584 
Q 2878 3584 2943 3579 
Q 3009 3575 3134 3559 
L 3138 2547 
z
" transform="scale(0.015625)"/>
     <path id="DejaVuSans-Bold-6e" d="M 4056 2131 
L 4056 0 
L 2931 0 
L 2931 347 
L 2931 1631 
Q 2931 2084 2911 2256 
Q 2891 2428 2841 2509 
Q 2775 2619 2662 2680 
Q 2550 2741 2406 2741 
Q 2056 2741 1856 2470 
Q 1656 2200 1656 1722 
L 1656 0 
L 538 0 
L 538 3500 
L 1656 3500 
L 1656 2988 
Q 1909 3294 2193 3439 
Q 2478 3584 2822 3584 
Q 3428 3584 3742 3212 
Q 4056 2841 4056 2131 
z
" transform="scale(0.015625)"/>
     <path id="DejaVuSans-Bold-66" d="M 2841 4863 
L 2841 4128 
L 2222 4128 
Q 1984 4128 1890 4042 
Q 1797 3956 1797 3744 
L 1797 3500 
L 2753 3500 
L 2753 2700 
L 1797 2700 
L 1797 0 
L 678 0 
L 678 2700 
L 122 2700 
L 122 3500 
L 678 3500 
L 678 3744 
Q 678 4316 997 4589 
Q 1316 4863 1984 4863 
L 2841 4863 
z
" transform="scale(0.015625)"/>
     <path id="DejaVuSans-Bold-62" d="M 2400 722 
Q 2759 722 2948 984 
Q 3138 1247 3138 1747 
Q 3138 2247 2948 2509 
Q 2759 2772 2400 2772 
Q 2041 2772 1848 2508 
Q 1656 2244 1656 1747 
Q 1656 1250 1848 986 
Q 2041 722 2400 722 
z
M 1656 2988 
Q 1888 3294 2169 3439 
Q 2450 3584 2816 3584 
Q 3463 3584 3878 3070 
Q 4294 2556 4294 1747 
Q 4294 938 3878 423 
Q 3463 -91 2816 -91 
Q 2450 -91 2169 54 
Q 1888 200 1656 506 
L 1656 0 
L 538 0 
L 538 4863 
L 1656 4863 
L 1656 2988 
z
" transform="scale(0.015625)"/>
     <path id="DejaVuSans-Bold-65" d="M 4031 1759 
L 4031 1441 
L 1416 1441 
Q 1456 1047 1700 850 
Q 1944 653 2381 653 
Q 2734 653 3104 758 
Q 3475 863 3866 1075 
L 3866 213 
Q 3469 63 3072 -14 
Q 2675 -91 2278 -91 
Q 1328 -91 801 392 
Q 275 875 275 1747 
Q 275 2603 792 3093 
Q 1309 3584 2216 3584 
Q 3041 3584 3536 3087 
Q 4031 2591 4031 1759 
z
M 2881 2131 
Q 2881 2450 2695 2645 
Q 2509 2841 2209 2841 
Q 1884 2841 1681 2658 
Q 1478 2475 1428 2131 
L 2881 2131 
z
" transform="scale(0.015625)"/>
     <path id="DejaVuSans-Bold-2d" d="M 347 2297 
L 2309 2297 
L 2309 1388 
L 347 1388 
L 347 2297 
z
" transform="scale(0.015625)"/>
     <path id="DejaVuSans-Bold-4f" d="M 2719 3878 
Q 2169 3878 1866 3472 
Q 1563 3066 1563 2328 
Q 1563 1594 1866 1187 
Q 2169 781 2719 781 
Q 3272 781 3575 1187 
Q 3878 1594 3878 2328 
Q 3878 3066 3575 3472 
Q 3272 3878 2719 3878 
z
M 2719 4750 
Q 3844 4750 4481 4106 
Q 5119 3463 5119 2328 
Q 5119 1197 4481 553 
Q 3844 -91 2719 -91 
Q 1597 -91 958 553 
Q 319 1197 319 2328 
Q 319 3463 958 4106 
Q 1597 4750 2719 4750 
z
" transform="scale(0.015625)"/>
     <path id="DejaVuSans-Bold-74" d="M 1759 4494 
L 1759 3500 
L 2913 3500 
L 2913 2700 
L 1759 2700 
L 1759 1216 
Q 1759 972 1856 886 
Q 1953 800 2241 800 
L 2816 800 
L 2816 0 
L 1856 0 
Q 1194 0 917 276 
Q 641 553 641 1216 
L 641 2700 
L 84 2700 
L 84 3500 
L 641 3500 
L 641 4494 
L 1759 4494 
z
" transform="scale(0.015625)"/>
     <path id="DejaVuSans-Bold-69" d="M 538 3500 
L 1656 3500 
L 1656 0 
L 538 0 
L 538 3500 
z
M 538 4863 
L 1656 4863 
L 1656 3950 
L 538 3950 
L 538 4863 
z
" transform="scale(0.015625)"/>
     <path id="DejaVuSans-Bold-6d" d="M 3781 2919 
Q 3994 3244 4286 3414 
Q 4578 3584 4928 3584 
Q 5531 3584 5847 3212 
Q 6163 2841 6163 2131 
L 6163 0 
L 5038 0 
L 5038 1825 
Q 5041 1866 5042 1909 
Q 5044 1953 5044 2034 
Q 5044 2406 4934 2573 
Q 4825 2741 4581 2741 
Q 4263 2741 4089 2478 
Q 3916 2216 3909 1719 
L 3909 0 
L 2784 0 
L 2784 1825 
Q 2784 2406 2684 2573 
Q 2584 2741 2328 2741 
Q 2006 2741 1831 2477 
Q 1656 2213 1656 1722 
L 1656 0 
L 531 0 
L 531 3500 
L 1656 3500 
L 1656 2988 
Q 1863 3284 2130 3434 
Q 2397 3584 2719 3584 
Q 3081 3584 3359 3409 
Q 3638 3234 3781 2919 
z
" transform="scale(0.015625)"/>
     <path id="DejaVuSans-Bold-75" d="M 500 1363 
L 500 3500 
L 1625 3500 
L 1625 3150 
Q 1625 2866 1622 2436 
Q 1619 2006 1619 1863 
Q 1619 1441 1641 1255 
Q 1663 1069 1716 984 
Q 1784 875 1895 815 
Q 2006 756 2150 756 
Q 2500 756 2700 1025 
Q 2900 1294 2900 1772 
L 2900 3500 
L 4019 3500 
L 4019 0 
L 2900 0 
L 2900 506 
Q 2647 200 2364 54 
Q 2081 -91 1741 -91 
Q 1134 -91 817 281 
Q 500 653 500 1363 
z
" transform="scale(0.015625)"/>
     <path id="DejaVuSans-Bold-67" d="M 2919 594 
Q 2688 288 2409 144 
Q 2131 0 1766 0 
Q 1125 0 706 504 
Q 288 1009 288 1791 
Q 288 2575 706 3076 
Q 1125 3578 1766 3578 
Q 2131 3578 2409 3434 
Q 2688 3291 2919 2981 
L 2919 3500 
L 4044 3500 
L 4044 353 
Q 4044 -491 3511 -936 
Q 2978 -1381 1966 -1381 
Q 1638 -1381 1331 -1331 
Q 1025 -1281 716 -1178 
L 716 -306 
Q 1009 -475 1290 -558 
Q 1572 -641 1856 -641 
Q 2406 -641 2662 -400 
Q 2919 -159 2919 353 
L 2919 594 
z
M 2181 2772 
Q 1834 2772 1640 2515 
Q 1447 2259 1447 1791 
Q 1447 1309 1634 1061 
Q 1822 813 2181 813 
Q 2531 813 2725 1069 
Q 2919 1325 2919 1791 
Q 2919 2259 2725 2515 
Q 2531 2772 2181 2772 
z
" transform="scale(0.015625)"/>
     <path id="DejaVuSans-Bold-2013" d="M 344 2156 
L 2856 2156 
L 2856 1350 
L 344 1350 
L 344 2156 
z
" transform="scale(0.015625)"/>
     <path id="DejaVuSans-Bold-42" d="M 2456 2859 
Q 2741 2859 2887 2984 
Q 3034 3109 3034 3353 
Q 3034 3594 2887 3720 
Q 2741 3847 2456 3847 
L 1791 3847 
L 1791 2859 
L 2456 2859 
z
M 2497 819 
Q 2859 819 3042 972 
Q 3225 1125 3225 1434 
Q 3225 1738 3044 1889 
Q 2863 2041 2497 2041 
L 1791 2041 
L 1791 819 
L 2497 819 
z
M 3616 2497 
Q 4003 2384 4215 2081 
Q 4428 1778 4428 1338 
Q 4428 663 3972 331 
Q 3516 0 2584 0 
L 588 0 
L 588 4666 
L 2394 4666 
Q 3366 4666 3802 4372 
Q 4238 4078 4238 3431 
Q 4238 3091 4078 2852 
Q 3919 2613 3616 2497 
z
" transform="scale(0.015625)"/>
     <path id="DejaVuSans-Bold-6c" d="M 538 4863 
L 1656 4863 
L 1656 0 
L 538 0 
L 538 4863 
z
" transform="scale(0.015625)"/>
     <path id="DejaVuSans-Bold-5a" d="M 359 4666 
L 4281 4666 
L 4281 3938 
L 1778 909 
L 4353 909 
L 4353 0 
L 288 0 
L 288 728 
L 2791 3756 
L 359 3756 
L 359 4666 
z
" transform="scale(0.015625)"/>
     <path id="DejaVuSans-Bold-73" d="M 3272 3391 
L 3272 2541 
Q 2913 2691 2578 2766 
Q 2244 2841 1947 2841 
Q 1628 2841 1473 2761 
Q 1319 2681 1319 2516 
Q 1319 2381 1436 2309 
Q 1553 2238 1856 2203 
L 2053 2175 
Q 2913 2066 3209 1816 
Q 3506 1566 3506 1031 
Q 3506 472 3093 190 
Q 2681 -91 1863 -91 
Q 1516 -91 1145 -36 
Q 775 19 384 128 
L 384 978 
Q 719 816 1070 734 
Q 1422 653 1784 653 
Q 2113 653 2278 743 
Q 2444 834 2444 1013 
Q 2444 1163 2330 1236 
Q 2216 1309 1875 1350 
L 1678 1375 
Q 931 1469 631 1722 
Q 331 1975 331 2491 
Q 331 3047 712 3315 
Q 1094 3584 1881 3584 
Q 2191 3584 2531 3537 
Q 2872 3491 3272 3391 
z
" transform="scale(0.015625)"/>
     <path id="DejaVuSans-Bold-6b" d="M 538 4863 
L 1656 4863 
L 1656 2216 
L 2944 3500 
L 4244 3500 
L 2534 1894 
L 4378 0 
L 3022 0 
L 1656 1459 
L 1656 0 
L 538 0 
L 538 4863 
z
" transform="scale(0.015625)"/>
    </defs>
    <use xlink:href="#DejaVuSans-Bold-45"/>
    <use xlink:href="#DejaVuSans-Bold-78" transform="translate(68.310547 0)"/>
    <use xlink:href="#DejaVuSans-Bold-70" transform="translate(132.8125 0)"/>
    <use xlink:href="#DejaVuSans-Bold-20" transform="translate(204.394531 0)"/>
    <use xlink:href="#DejaVuSans-Bold-32" transform="translate(239.208984 0)"/>
    <use xlink:href="#DejaVuSans-Bold-31" transform="translate(308.789062 0)"/>
    <use xlink:href="#DejaVuSans-Bold-3a" transform="translate(378.369141 0)"/>
    <use xlink:href="#DejaVuSans-Bold-20" transform="translate(418.359375 0)"/>
    <use xlink:href="#DejaVuSans-Bold-54" transform="translate(453.173828 0)"/>
    <use xlink:href="#DejaVuSans-Bold-61" transform="translate(508.511719 0)"/>
    <use xlink:href="#DejaVuSans-Bold-72" transform="translate(575.992188 0)"/>
    <use xlink:href="#DejaVuSans-Bold-6e" transform="translate(625.308594 0)"/>
    <use xlink:href="#DejaVuSans-Bold-66" transform="translate(696.5 0)"/>
    <use xlink:href="#DejaVuSans-Bold-61" transform="translate(740.005859 0)"/>
    <use xlink:href="#DejaVuSans-Bold-72" transform="translate(807.486328 0)"/>
    <use xlink:href="#DejaVuSans-Bold-62" transform="translate(856.802734 0)"/>
    <use xlink:href="#DejaVuSans-Bold-65" transform="translate(928.384766 0)"/>
    <use xlink:href="#DejaVuSans-Bold-6e" transform="translate(996.207031 0)"/>
    <use xlink:href="#DejaVuSans-Bold-2d" transform="translate(1067.398438 0)"/>
    <use xlink:href="#DejaVuSans-Bold-4f" transform="translate(1108.902344 0)"/>
    <use xlink:href="#DejaVuSans-Bold-70" transform="translate(1193.912109 0)"/>
    <use xlink:href="#DejaVuSans-Bold-74" transform="translate(1265.494141 0)"/>
    <use xlink:href="#DejaVuSans-Bold-69" transform="translate(1313.296875 0)"/>
    <use xlink:href="#DejaVuSans-Bold-6d" transform="translate(1347.574219 0)"/>
    <use xlink:href="#DejaVuSans-Bold-69" transform="translate(1451.773438 0)"/>
    <use xlink:href="#DejaVuSans-Bold-65" transform="translate(1486.050781 0)"/>
    <use xlink:href="#DejaVuSans-Bold-72" transform="translate(1553.873047 0)"/>
    <use xlink:href="#DejaVuSans-Bold-75" transform="translate(1603.189453 0)"/>
    <use xlink:href="#DejaVuSans-Bold-6e" transform="translate(1674.380859 0)"/>
    <use xlink:href="#DejaVuSans-Bold-67" transform="translate(1745.572266 0)"/>
    <use xlink:href="#DejaVuSans-Bold-20" transform="translate(1817.154297 0)"/>
    <use xlink:href="#DejaVuSans-Bold-2013" transform="translate(1851.96875 0)"/>
    <use xlink:href="#DejaVuSans-Bold-20" transform="translate(1901.96875 0)"/>
    <use xlink:href="#DejaVuSans-Bold-42" transform="translate(1936.783203 0)"/>
    <use xlink:href="#DejaVuSans-Bold-6c" transform="translate(2013.003906 0)"/>
    <use xlink:href="#DejaVuSans-Bold-61" transform="translate(2047.28125 0)"/>
    <use xlink:href="#DejaVuSans-Bold-74" transform="translate(2114.761719 0)"/>
    <use xlink:href="#DejaVuSans-Bold-74" transform="translate(2162.564453 0)"/>
    <use xlink:href="#DejaVuSans-Bold-2d" transform="translate(2210.367188 0)"/>
    <use xlink:href="#DejaVuSans-Bold-5a" transform="translate(2251.871094 0)"/>
    <use xlink:href="#DejaVuSans-Bold-69" transform="translate(2324.380859 0)"/>
    <use xlink:href="#DejaVuSans-Bold-65" transform="translate(2358.658203 0)"/>
    <use xlink:href="#DejaVuSans-Bold-6c" transform="translate(2426.480469 0)"/>
    <use xlink:href="#DejaVuSans-Bold-73" transform="translate(2460.757812 0)"/>
    <use xlink:href="#DejaVuSans-Bold-70" transform="translate(2520.279297 0)"/>
    <use xlink:href="#DejaVuSans-Bold-65" transform="translate(2591.861328 0)"/>
    <use xlink:href="#DejaVuSans-Bold-6b" transform="translate(2659.683594 0)"/>
    <use xlink:href="#DejaVuSans-Bold-74" transform="translate(2726.1875 0)"/>
    <use xlink:href="#DejaVuSans-Bold-72" transform="translate(2773.990234 0)"/>
    <use xlink:href="#DejaVuSans-Bold-75" transform="translate(2823.306641 0)"/>
    <use xlink:href="#DejaVuSans-Bold-6d" transform="translate(2894.498047 0)"/>
   </g>
  </g>
 </g>
 <defs>
  <clipPath id="p72b1baf6bc">
   <rect x="65.125" y="95.2" width="343.560238" height="204.7"/>
  </clipPath>
  <clipPath id="p27a53948a6">
   <rect x="492.939762" y="95.2" width="343.560238" height="204.7"/>
  </clipPath>
 </defs>
</svg>
