<?xml version="1.0" encoding="utf-8" standalone="no"?>
<!DOCTYPE svg PUBLIC "-//W3C//DTD SVG 1.1//EN"
  "http://www.w3.org/Graphics/SVG/1.1/DTD/svg11.dtd">
<svg xmlns:xlink="http://www.w3.org/1999/xlink" width="714.546741pt" height="271.988625pt" viewBox="0 0 714.546741 271.988625" xmlns="http://www.w3.org/2000/svg" version="1.1">
 <metadata>
  <rdf:RDF xmlns:dc="http://purl.org/dc/elements/1.1/" xmlns:cc="http://creativecommons.org/ns#" xmlns:rdf="http://www.w3.org/1999/02/22-rdf-syntax-ns#">
   <cc:Work>
    <dc:type rdf:resource="http://purl.org/dc/dcmitype/StillImage"/>
    <dc:date>2026-03-03T03:26:25.050195</dc:date>
    <dc:format>image/svg+xml</dc:format>
    <dc:creator>
     <cc:Agent>
      <dc:title>Matplotlib v3.10.8, https://matplotlib.org/</dc:title>
     </cc:Agent>
    </dc:creator>
   </cc:Work>
  </rdf:RDF>
 </metadata>
 <defs>
  <style type="text/css">*{stroke-linejoin: round; stroke-linecap: butt}</style>
 </defs>
 <g id="figure_1">
  <g id="patch_1">
   <path d="M 0 271.988625 
L 714.546741 271.988625 
L 714.546741 0 
L 0 0 
z
" style="fill: #ffffff"/>
  </g>
  <g id="axes_1">
   <g id="patch_2">
    <path d="M 48.35 236.368 
L 352.72837 236.368 
L 352.72837 45.888 
L 48.35 45.888 
z
" style="fill: #ffffff"/>
   </g>
   <g id="matplotlib.axis_1">
    <g id="xtick_1">
     <g id="line2d_1">
      <path d="M 56.538286 236.368 
L 56.538286 45.888 
" clip-path="url(#p2aca6db1df)" style="fill: none; stroke: #b0b0b0; stroke-width: 0.3; stroke-linecap: square"/>
     </g>
     <g id="line2d_2">
      <defs>
       <path id="m00a2e34fc9" d="M 0 0 
L 0 3.5 
" style="stroke: #000000; stroke-width: 0.8"/>
      </defs>
      <g>
       <use xlink:href="#m00a2e34fc9" x="56.538286" y="236.368" style="stroke: #000000; stroke-width: 0.8"/>
      </g>
     </g>
     <g id="text_1">
      <!-- 0 -->
      <g transform="translate(53.675161 250.206594) scale(0.09 -0.09)">
       <defs>
        <path id="DejaVuSans-30" d="M 2034 4250 
Q 1547 4250 1301 3770 
Q 1056 3291 1056 2328 
Q 1056 1369 1301 889 
Q 1547 409 2034 409 
Q 2525 409 2770 889 
Q 3016 1369 3016 2328 
Q 3016 3291 2770 3770 
Q 2525 4250 2034 4250 
z
M 2034 4750 
Q 2819 4750 3233 4129 
Q 3647 3509 3647 2328 
Q 3647 1150 3233 529 
Q 2819 -91 2034 -91 
Q 1250 -91 836 529 
Q 422 1150 422 2328 
Q 422 3509 836 4129 
Q 1250 4750 2034 4750 
z
" transform="scale(0.015625)"/>
       </defs>
       <use xlink:href="#DejaVuSans-30"/>
      </g>
     </g>
    </g>
    <g id="xtick_2">
     <g id="line2d_3">
      <path d="M 113.009227 236.368 
L 113.009227 45.888 
" clip-path="url(#p2aca6db1df)" style="fill: none; stroke: #b0b0b0; stroke-width: 0.3; stroke-linecap: square"/>
     </g>
     <g id="line2d_4">
      <g>
       <use xlink:href="#m00a2e34fc9" x="113.009227" y="236.368" style="stroke: #000000; stroke-width: 0.8"/>
      </g>
     </g>
     <g id="text_2">
      <!-- 1000 -->
      <g transform="translate(101.556727 250.206594) scale(0.09 -0.09)">
       <defs>
        <path id="DejaVuSans-31" d="M 794 531 
L 1825 531 
L 1825 4091 
L 703 3866 
L 703 4441 
L 1819 4666 
L 2450 4666 
L 2450 531 
L 3481 531 
L 3481 0 
L 794 0 
L 794 531 
z
" transform="scale(0.015625)"/>
       </defs>
       <use xlink:href="#DejaVuSans-31"/>
       <use xlink:href="#DejaVuSans-30" transform="translate(63.623047 0)"/>
       <use xlink:href="#DejaVuSans-30" transform="translate(127.246094 0)"/>
       <use xlink:href="#DejaVuSans-30" transform="translate(190.869141 0)"/>
      </g>
     </g>
    </g>
    <g id="xtick_3">
     <g id="line2d_5">
      <path d="M 169.480168 236.368 
L 169.480168 45.888 
" clip-path="url(#p2aca6db1df)" style="fill: none; stroke: #b0b0b0; stroke-width: 0.3; stroke-linecap: square"/>
     </g>
     <g id="line2d_6">
      <g>
       <use xlink:href="#m00a2e34fc9" x="169.480168" y="236.368" style="stroke: #000000; stroke-width: 0.8"/>
      </g>
     </g>
     <g id="text_3">
      <!-- 2000 -->
      <g transform="translate(158.027668 250.206594) scale(0.09 -0.09)">
       <defs>
        <path id="DejaVuSans-32" d="M 1228 531 
L 3431 531 
L 3431 0 
L 469 0 
L 469 531 
Q 828 903 1448 1529 
Q 2069 2156 2228 2338 
Q 2531 2678 2651 2914 
Q 2772 3150 2772 3378 
Q 2772 3750 2511 3984 
Q 2250 4219 1831 4219 
Q 1534 4219 1204 4116 
Q 875 4013 500 3803 
L 500 4441 
Q 881 4594 1212 4672 
Q 1544 4750 1819 4750 
Q 2544 4750 2975 4387 
Q 3406 4025 3406 3419 
Q 3406 3131 3298 2873 
Q 3191 2616 2906 2266 
Q 2828 2175 2409 1742 
Q 1991 1309 1228 531 
z
" transform="scale(0.015625)"/>
       </defs>
       <use xlink:href="#DejaVuSans-32"/>
       <use xlink:href="#DejaVuSans-30" transform="translate(63.623047 0)"/>
       <use xlink:href="#DejaVuSans-30" transform="translate(127.246094 0)"/>
       <use xlink:href="#DejaVuSans-30" transform="translate(190.869141 0)"/>
      </g>
     </g>
    </g>
    <g id="xtick_4">
     <g id="line2d_7">
      <path d="M 225.951108 236.368 
L 225.951108 45.888 
" clip-path="url(#p2aca6db1df)" style="fill: none; stroke: #b0b0b0; stroke-width: 0.3; stroke-linecap: square"/>
     </g>
     <g id="line2d_8">
      <g>
       <use xlink:href="#m00a2e34fc9" x="225.951108" y="236.368" style="stroke: #000000; stroke-width: 0.8"/>
      </g>
     </g>
     <g id="text_4">
      <!-- 3000 -->
      <g transform="translate(214.498608 250.206594) scale(0.09 -0.09)">
       <defs>
        <path id="DejaVuSans-33" d="M 2597 2516 
Q 3050 2419 3304 2112 
Q 3559 1806 3559 1356 
Q 3559 666 3084 287 
Q 2609 -91 1734 -91 
Q 1441 -91 1130 -33 
Q 819 25 488 141 
L 488 750 
Q 750 597 1062 519 
Q 1375 441 1716 441 
Q 2309 441 2620 675 
Q 2931 909 2931 1356 
Q 2931 1769 2642 2001 
Q 2353 2234 1838 2234 
L 1294 2234 
L 1294 2753 
L 1863 2753 
Q 2328 2753 2575 2939 
Q 2822 3125 2822 3475 
Q 2822 3834 2567 4026 
Q 2313 4219 1838 4219 
Q 1578 4219 1281 4162 
Q 984 4106 628 3988 
L 628 4550 
Q 988 4650 1302 4700 
Q 1616 4750 1894 4750 
Q 2613 4750 3031 4423 
Q 3450 4097 3450 3541 
Q 3450 3153 3228 2886 
Q 3006 2619 2597 2516 
z
" transform="scale(0.015625)"/>
       </defs>
       <use xlink:href="#DejaVuSans-33"/>
       <use xlink:href="#DejaVuSans-30" transform="translate(63.623047 0)"/>
       <use xlink:href="#DejaVuSans-30" transform="translate(127.246094 0)"/>
       <use xlink:href="#DejaVuSans-30" transform="translate(190.869141 0)"/>
      </g>
     </g>
    </g>
    <g id="xtick_5">
     <g id="line2d_9">
      <path d="M 282.422049 236.368 
L 282.422049 45.888 
" clip-path="url(#p2aca6db1df)" style="fill: none; stroke: #b0b0b0; stroke-width: 0.3; stroke-linecap: square"/>
     </g>
     <g id="line2d_10">
      <g>
       <use xlink:href="#m00a2e34fc9" x="282.422049" y="236.368" style="stroke: #000000; stroke-width: 0.8"/>
      </g>
     </g>
     <g id="text_5">
      <!-- 4000 -->
      <g transform="translate(270.969549 250.206594) scale(0.09 -0.09)">
       <defs>
        <path id="DejaVuSans-34" d="M 2419 4116 
L 825 1625 
L 2419 1625 
L 2419 4116 
z
M 2253 4666 
L 3047 4666 
L 3047 1625 
L 3713 1625 
L 3713 1100 
L 3047 1100 
L 3047 0 
L 2419 0 
L 2419 1100 
L 313 1100 
L 313 1709 
L 2253 4666 
z
" transform="scale(0.015625)"/>
       </defs>
       <use xlink:href="#DejaVuSans-34"/>
       <use xlink:href="#DejaVuSans-30" transform="translate(63.623047 0)"/>
       <use xlink:href="#DejaVuSans-30" transform="translate(127.246094 0)"/>
       <use xlink:href="#DejaVuSans-30" transform="translate(190.869141 0)"/>
      </g>
     </g>
    </g>
    <g id="xtick_6">
     <g id="line2d_11">
      <path d="M 338.89299 236.368 
L 338.89299 45.888 
" clip-path="url(#p2aca6db1df)" style="fill: none; stroke: #b0b0b0; stroke-width: 0.3; stroke-linecap: square"/>
     </g>
     <g id="line2d_12">
      <g>
       <use xlink:href="#m00a2e34fc9" x="338.89299" y="236.368" style="stroke: #000000; stroke-width: 0.8"/>
      </g>
     </g>
     <g id="text_6">
      <!-- 5000 -->
      <g transform="translate(327.44049 250.206594) scale(0.09 -0.09)">
       <defs>
        <path id="DejaVuSans-35" d="M 691 4666 
L 3169 4666 
L 3169 4134 
L 1269 4134 
L 1269 2991 
Q 1406 3038 1543 3061 
Q 1681 3084 1819 3084 
Q 2600 3084 3056 2656 
Q 3513 2228 3513 1497 
Q 3513 744 3044 326 
Q 2575 -91 1722 -91 
Q 1428 -91 1123 -41 
Q 819 9 494 109 
L 494 744 
Q 775 591 1075 516 
Q 1375 441 1709 441 
Q 2250 441 2565 725 
Q 2881 1009 2881 1497 
Q 2881 1984 2565 2268 
Q 2250 2553 1709 2553 
Q 1456 2553 1204 2497 
Q 953 2441 691 2322 
L 691 4666 
z
" transform="scale(0.015625)"/>
       </defs>
       <use xlink:href="#DejaVuSans-35"/>
       <use xlink:href="#DejaVuSans-30" transform="translate(63.623047 0)"/>
       <use xlink:href="#DejaVuSans-30" transform="translate(127.246094 0)"/>
       <use xlink:href="#DejaVuSans-30" transform="translate(190.869141 0)"/>
      </g>
     </g>
    </g>
    <g id="text_7">
     <!-- Frequenz [Hz] -->
     <g transform="translate(169.380904 262.916906) scale(0.09 -0.09)">
      <defs>
       <path id="DejaVuSans-46" d="M 628 4666 
L 3309 4666 
L 3309 4134 
L 1259 4134 
L 1259 2759 
L 3109 2759 
L 3109 2228 
L 1259 2228 
L 1259 0 
L 628 0 
L 628 4666 
z
" transform="scale(0.015625)"/>
       <path id="DejaVuSans-72" d="M 2631 2963 
Q 2534 3019 2420 3045 
Q 2306 3072 2169 3072 
Q 1681 3072 1420 2755 
Q 1159 2438 1159 1844 
L 1159 0 
L 581 0 
L 581 3500 
L 1159 3500 
L 1159 2956 
Q 1341 3275 1631 3429 
Q 1922 3584 2338 3584 
Q 2397 3584 2469 3576 
Q 2541 3569 2628 3553 
L 2631 2963 
z
" transform="scale(0.015625)"/>
       <path id="DejaVuSans-65" d="M 3597 1894 
L 3597 1613 
L 953 1613 
Q 991 1019 1311 708 
Q 1631 397 2203 397 
Q 2534 397 2845 478 
Q 3156 559 3463 722 
L 3463 178 
Q 3153 47 2828 -22 
Q 2503 -91 2169 -91 
Q 1331 -91 842 396 
Q 353 884 353 1716 
Q 353 2575 817 3079 
Q 1281 3584 2069 3584 
Q 2775 3584 3186 3129 
Q 3597 2675 3597 1894 
z
M 3022 2063 
Q 3016 2534 2758 2815 
Q 2500 3097 2075 3097 
Q 1594 3097 1305 2825 
Q 1016 2553 972 2059 
L 3022 2063 
z
" transform="scale(0.015625)"/>
       <path id="DejaVuSans-71" d="M 947 1747 
Q 947 1113 1208 752 
Q 1469 391 1925 391 
Q 2381 391 2643 752 
Q 2906 1113 2906 1747 
Q 2906 2381 2643 2742 
Q 2381 3103 1925 3103 
Q 1469 3103 1208 2742 
Q 947 2381 947 1747 
z
M 2906 525 
Q 2725 213 2448 61 
Q 2172 -91 1784 -91 
Q 1150 -91 751 415 
Q 353 922 353 1747 
Q 353 2572 751 3078 
Q 1150 3584 1784 3584 
Q 2172 3584 2448 3432 
Q 2725 3281 2906 2969 
L 2906 3500 
L 3481 3500 
L 3481 -1331 
L 2906 -1331 
L 2906 525 
z
" transform="scale(0.015625)"/>
       <path id="DejaVuSans-75" d="M 544 1381 
L 544 3500 
L 1119 3500 
L 1119 1403 
Q 1119 906 1312 657 
Q 1506 409 1894 409 
Q 2359 409 2629 706 
Q 2900 1003 2900 1516 
L 2900 3500 
L 3475 3500 
L 3475 0 
L 2900 0 
L 2900 538 
Q 2691 219 2414 64 
Q 2138 -91 1772 -91 
Q 1169 -91 856 284 
Q 544 659 544 1381 
z
M 1991 3584 
L 1991 3584 
z
" transform="scale(0.015625)"/>
       <path id="DejaVuSans-6e" d="M 3513 2113 
L 3513 0 
L 2938 0 
L 2938 2094 
Q 2938 2591 2744 2837 
Q 2550 3084 2163 3084 
Q 1697 3084 1428 2787 
Q 1159 2491 1159 1978 
L 1159 0 
L 581 0 
L 581 3500 
L 1159 3500 
L 1159 2956 
Q 1366 3272 1645 3428 
Q 1925 3584 2291 3584 
Q 2894 3584 3203 3211 
Q 3513 2838 3513 2113 
z
" transform="scale(0.015625)"/>
       <path id="DejaVuSans-7a" d="M 353 3500 
L 3084 3500 
L 3084 2975 
L 922 459 
L 3084 459 
L 3084 0 
L 275 0 
L 275 525 
L 2438 3041 
L 353 3041 
L 353 3500 
z
" transform="scale(0.015625)"/>
       <path id="DejaVuSans-20" transform="scale(0.015625)"/>
       <path id="DejaVuSans-5b" d="M 550 4863 
L 1875 4863 
L 1875 4416 
L 1125 4416 
L 1125 -397 
L 1875 -397 
L 1875 -844 
L 550 -844 
L 550 4863 
z
" transform="scale(0.015625)"/>
       <path id="DejaVuSans-48" d="M 628 4666 
L 1259 4666 
L 1259 2753 
L 3553 2753 
L 3553 4666 
L 4184 4666 
L 4184 0 
L 3553 0 
L 3553 2222 
L 1259 2222 
L 1259 0 
L 628 0 
L 628 4666 
z
" transform="scale(0.015625)"/>
       <path id="DejaVuSans-5d" d="M 1947 4863 
L 1947 -844 
L 622 -844 
L 622 -397 
L 1369 -397 
L 1369 4416 
L 622 4416 
L 622 4863 
L 1947 4863 
z
" transform="scale(0.015625)"/>
      </defs>
      <use xlink:href="#DejaVuSans-46"/>
      <use xlink:href="#DejaVuSans-72" transform="translate(50.269531 0)"/>
      <use xlink:href="#DejaVuSans-65" transform="translate(89.132812 0)"/>
      <use xlink:href="#DejaVuSans-71" transform="translate(150.65625 0)"/>
      <use xlink:href="#DejaVuSans-75" transform="translate(214.132812 0)"/>
      <use xlink:href="#DejaVuSans-65" transform="translate(277.511719 0)"/>
      <use xlink:href="#DejaVuSans-6e" transform="translate(339.035156 0)"/>
      <use xlink:href="#DejaVuSans-7a" transform="translate(402.414062 0)"/>
      <use xlink:href="#DejaVuSans-20" transform="translate(454.904297 0)"/>
      <use xlink:href="#DejaVuSans-5b" transform="translate(486.691406 0)"/>
      <use xlink:href="#DejaVuSans-48" transform="translate(525.705078 0)"/>
      <use xlink:href="#DejaVuSans-7a" transform="translate(600.900391 0)"/>
      <use xlink:href="#DejaVuSans-5d" transform="translate(653.390625 0)"/>
     </g>
    </g>
   </g>
   <g id="matplotlib.axis_2">
    <g id="ytick_1">
     <g id="line2d_13">
      <path d="M 48.35 227.598456 
L 352.72837 227.598456 
" clip-path="url(#p2aca6db1df)" style="fill: none; stroke: #b0b0b0; stroke-width: 0.3; stroke-linecap: square"/>
     </g>
     <g id="line2d_14">
      <defs>
       <path id="m55210e1bbf" d="M 0 0 
L -3.5 0 
" style="stroke: #000000; stroke-width: 0.8"/>
      </defs>
      <g>
       <use xlink:href="#m55210e1bbf" x="48.35" y="227.598456" style="stroke: #000000; stroke-width: 0.8"/>
      </g>
     </g>
     <g id="text_8">
      <!-- $\mathdefault{10^{-2}}$ -->
      <g transform="translate(20.2 231.017753) scale(0.09 -0.09)">
       <defs>
        <path id="DejaVuSans-2212" d="M 678 2272 
L 4684 2272 
L 4684 1741 
L 678 1741 
L 678 2272 
z
" transform="scale(0.015625)"/>
       </defs>
       <use xlink:href="#DejaVuSans-31" transform="translate(0 0.765625)"/>
       <use xlink:href="#DejaVuSans-30" transform="translate(63.623047 0.765625)"/>
       <use xlink:href="#DejaVuSans-2212" transform="translate(128.203125 39.046875) scale(0.7)"/>
       <use xlink:href="#DejaVuSans-32" transform="translate(186.855469 39.046875) scale(0.7)"/>
      </g>
     </g>
    </g>
    <g id="ytick_2">
     <g id="line2d_15">
      <path d="M 48.35 181.984141 
L 352.72837 181.984141 
" clip-path="url(#p2aca6db1df)" style="fill: none; stroke: #b0b0b0; stroke-width: 0.3; stroke-linecap: square"/>
     </g>
     <g id="line2d_16">
      <g>
       <use xlink:href="#m55210e1bbf" x="48.35" y="181.984141" style="stroke: #000000; stroke-width: 0.8"/>
      </g>
     </g>
     <g id="text_9">
      <!-- $\mathdefault{10^{-1}}$ -->
      <g transform="translate(20.2 185.403438) scale(0.09 -0.09)">
       <use xlink:href="#DejaVuSans-31" transform="translate(0 0.684375)"/>
       <use xlink:href="#DejaVuSans-30" transform="translate(63.623047 0.684375)"/>
       <use xlink:href="#DejaVuSans-2212" transform="translate(128.203125 38.965625) scale(0.7)"/>
       <use xlink:href="#DejaVuSans-31" transform="translate(186.855469 38.965625) scale(0.7)"/>
      </g>
     </g>
    </g>
    <g id="ytick_3">
     <g id="line2d_17">
      <path d="M 48.35 136.369827 
L 352.72837 136.369827 
" clip-path="url(#p2aca6db1df)" style="fill: none; stroke: #b0b0b0; stroke-width: 0.3; stroke-linecap: square"/>
     </g>
     <g id="line2d_18">
      <g>
       <use xlink:href="#m55210e1bbf" x="48.35" y="136.369827" style="stroke: #000000; stroke-width: 0.8"/>
      </g>
     </g>
     <g id="text_10">
      <!-- $\mathdefault{10^{0}}$ -->
      <g transform="translate(25.51 139.789124) scale(0.09 -0.09)">
       <use xlink:href="#DejaVuSans-31" transform="translate(0 0.765625)"/>
       <use xlink:href="#DejaVuSans-30" transform="translate(63.623047 0.765625)"/>
       <use xlink:href="#DejaVuSans-30" transform="translate(128.203125 39.046875) scale(0.7)"/>
      </g>
     </g>
    </g>
    <g id="ytick_4">
     <g id="line2d_19">
      <path d="M 48.35 90.755513 
L 352.72837 90.755513 
" clip-path="url(#p2aca6db1df)" style="fill: none; stroke: #b0b0b0; stroke-width: 0.3; stroke-linecap: square"/>
     </g>
     <g id="line2d_20">
      <g>
       <use xlink:href="#m55210e1bbf" x="48.35" y="90.755513" style="stroke: #000000; stroke-width: 0.8"/>
      </g>
     </g>
     <g id="text_11">
      <!-- $\mathdefault{10^{1}}$ -->
      <g transform="translate(25.51 94.17481) scale(0.09 -0.09)">
       <use xlink:href="#DejaVuSans-31" transform="translate(0 0.684375)"/>
       <use xlink:href="#DejaVuSans-30" transform="translate(63.623047 0.684375)"/>
       <use xlink:href="#DejaVuSans-31" transform="translate(128.203125 38.965625) scale(0.7)"/>
      </g>
     </g>
    </g>
    <g id="ytick_5">
     <g id="line2d_21">
      <path d="M 48.35 234.664202 
L 352.72837 234.664202 
" clip-path="url(#p2aca6db1df)" style="fill: none; stroke: #b0b0b0; stroke-width: 0.3; stroke-linecap: square"/>
     </g>
     <g id="line2d_22">
      <defs>
       <path id="m80661bc195" d="M 0 0 
L -2 0 
" style="stroke: #000000; stroke-width: 0.6"/>
      </defs>
      <g>
       <use xlink:href="#m80661bc195" x="48.35" y="234.664202" style="stroke: #000000; stroke-width: 0.6"/>
      </g>
     </g>
    </g>
    <g id="ytick_6">
     <g id="line2d_23">
      <path d="M 48.35 232.018939 
L 352.72837 232.018939 
" clip-path="url(#p2aca6db1df)" style="fill: none; stroke: #b0b0b0; stroke-width: 0.3; stroke-linecap: square"/>
     </g>
     <g id="line2d_24">
      <g>
       <use xlink:href="#m80661bc195" x="48.35" y="232.018939" style="stroke: #000000; stroke-width: 0.6"/>
      </g>
     </g>
    </g>
    <g id="ytick_7">
     <g id="line2d_25">
      <path d="M 48.35 229.685652 
L 352.72837 229.685652 
" clip-path="url(#p2aca6db1df)" style="fill: none; stroke: #b0b0b0; stroke-width: 0.3; stroke-linecap: square"/>
     </g>
     <g id="line2d_26">
      <g>
       <use xlink:href="#m80661bc195" x="48.35" y="229.685652" style="stroke: #000000; stroke-width: 0.6"/>
      </g>
     </g>
    </g>
    <g id="ytick_8">
     <g id="line2d_27">
      <path d="M 48.35 213.867179 
L 352.72837 213.867179 
" clip-path="url(#p2aca6db1df)" style="fill: none; stroke: #b0b0b0; stroke-width: 0.3; stroke-linecap: square"/>
     </g>
     <g id="line2d_28">
      <g>
       <use xlink:href="#m80661bc195" x="48.35" y="213.867179" style="stroke: #000000; stroke-width: 0.6"/>
      </g>
     </g>
    </g>
    <g id="ytick_9">
     <g id="line2d_29">
      <path d="M 48.35 205.834897 
L 352.72837 205.834897 
" clip-path="url(#p2aca6db1df)" style="fill: none; stroke: #b0b0b0; stroke-width: 0.3; stroke-linecap: square"/>
     </g>
     <g id="line2d_30">
      <g>
       <use xlink:href="#m80661bc195" x="48.35" y="205.834897" style="stroke: #000000; stroke-width: 0.6"/>
      </g>
     </g>
    </g>
    <g id="ytick_10">
     <g id="line2d_31">
      <path d="M 48.35 200.135902 
L 352.72837 200.135902 
" clip-path="url(#p2aca6db1df)" style="fill: none; stroke: #b0b0b0; stroke-width: 0.3; stroke-linecap: square"/>
     </g>
     <g id="line2d_32">
      <g>
       <use xlink:href="#m80661bc195" x="48.35" y="200.135902" style="stroke: #000000; stroke-width: 0.6"/>
      </g>
     </g>
    </g>
    <g id="ytick_11">
     <g id="line2d_33">
      <path d="M 48.35 195.715418 
L 352.72837 195.715418 
" clip-path="url(#p2aca6db1df)" style="fill: none; stroke: #b0b0b0; stroke-width: 0.3; stroke-linecap: square"/>
     </g>
     <g id="line2d_34">
      <g>
       <use xlink:href="#m80661bc195" x="48.35" y="195.715418" style="stroke: #000000; stroke-width: 0.6"/>
      </g>
     </g>
    </g>
    <g id="ytick_12">
     <g id="line2d_35">
      <path d="M 48.35 192.10362 
L 352.72837 192.10362 
" clip-path="url(#p2aca6db1df)" style="fill: none; stroke: #b0b0b0; stroke-width: 0.3; stroke-linecap: square"/>
     </g>
     <g id="line2d_36">
      <g>
       <use xlink:href="#m80661bc195" x="48.35" y="192.10362" style="stroke: #000000; stroke-width: 0.6"/>
      </g>
     </g>
    </g>
    <g id="ytick_13">
     <g id="line2d_37">
      <path d="M 48.35 189.049888 
L 352.72837 189.049888 
" clip-path="url(#p2aca6db1df)" style="fill: none; stroke: #b0b0b0; stroke-width: 0.3; stroke-linecap: square"/>
     </g>
     <g id="line2d_38">
      <g>
       <use xlink:href="#m80661bc195" x="48.35" y="189.049888" style="stroke: #000000; stroke-width: 0.6"/>
      </g>
     </g>
    </g>
    <g id="ytick_14">
     <g id="line2d_39">
      <path d="M 48.35 186.404625 
L 352.72837 186.404625 
" clip-path="url(#p2aca6db1df)" style="fill: none; stroke: #b0b0b0; stroke-width: 0.3; stroke-linecap: square"/>
     </g>
     <g id="line2d_40">
      <g>
       <use xlink:href="#m80661bc195" x="48.35" y="186.404625" style="stroke: #000000; stroke-width: 0.6"/>
      </g>
     </g>
    </g>
    <g id="ytick_15">
     <g id="line2d_41">
      <path d="M 48.35 184.071338 
L 352.72837 184.071338 
" clip-path="url(#p2aca6db1df)" style="fill: none; stroke: #b0b0b0; stroke-width: 0.3; stroke-linecap: square"/>
     </g>
     <g id="line2d_42">
      <g>
       <use xlink:href="#m80661bc195" x="48.35" y="184.071338" style="stroke: #000000; stroke-width: 0.6"/>
      </g>
     </g>
    </g>
    <g id="ytick_16">
     <g id="line2d_43">
      <path d="M 48.35 168.252865 
L 352.72837 168.252865 
" clip-path="url(#p2aca6db1df)" style="fill: none; stroke: #b0b0b0; stroke-width: 0.3; stroke-linecap: square"/>
     </g>
     <g id="line2d_44">
      <g>
       <use xlink:href="#m80661bc195" x="48.35" y="168.252865" style="stroke: #000000; stroke-width: 0.6"/>
      </g>
     </g>
    </g>
    <g id="ytick_17">
     <g id="line2d_45">
      <path d="M 48.35 160.220583 
L 352.72837 160.220583 
" clip-path="url(#p2aca6db1df)" style="fill: none; stroke: #b0b0b0; stroke-width: 0.3; stroke-linecap: square"/>
     </g>
     <g id="line2d_46">
      <g>
       <use xlink:href="#m80661bc195" x="48.35" y="160.220583" style="stroke: #000000; stroke-width: 0.6"/>
      </g>
     </g>
    </g>
    <g id="ytick_18">
     <g id="line2d_47">
      <path d="M 48.35 154.521588 
L 352.72837 154.521588 
" clip-path="url(#p2aca6db1df)" style="fill: none; stroke: #b0b0b0; stroke-width: 0.3; stroke-linecap: square"/>
     </g>
     <g id="line2d_48">
      <g>
       <use xlink:href="#m80661bc195" x="48.35" y="154.521588" style="stroke: #000000; stroke-width: 0.6"/>
      </g>
     </g>
    </g>
    <g id="ytick_19">
     <g id="line2d_49">
      <path d="M 48.35 150.101104 
L 352.72837 150.101104 
" clip-path="url(#p2aca6db1df)" style="fill: none; stroke: #b0b0b0; stroke-width: 0.3; stroke-linecap: square"/>
     </g>
     <g id="line2d_50">
      <g>
       <use xlink:href="#m80661bc195" x="48.35" y="150.101104" style="stroke: #000000; stroke-width: 0.6"/>
      </g>
     </g>
    </g>
    <g id="ytick_20">
     <g id="line2d_51">
      <path d="M 48.35 146.489306 
L 352.72837 146.489306 
" clip-path="url(#p2aca6db1df)" style="fill: none; stroke: #b0b0b0; stroke-width: 0.3; stroke-linecap: square"/>
     </g>
     <g id="line2d_52">
      <g>
       <use xlink:href="#m80661bc195" x="48.35" y="146.489306" style="stroke: #000000; stroke-width: 0.6"/>
      </g>
     </g>
    </g>
    <g id="ytick_21">
     <g id="line2d_53">
      <path d="M 48.35 143.435574 
L 352.72837 143.435574 
" clip-path="url(#p2aca6db1df)" style="fill: none; stroke: #b0b0b0; stroke-width: 0.3; stroke-linecap: square"/>
     </g>
     <g id="line2d_54">
      <g>
       <use xlink:href="#m80661bc195" x="48.35" y="143.435574" style="stroke: #000000; stroke-width: 0.6"/>
      </g>
     </g>
    </g>
    <g id="ytick_22">
     <g id="line2d_55">
      <path d="M 48.35 140.790311 
L 352.72837 140.790311 
" clip-path="url(#p2aca6db1df)" style="fill: none; stroke: #b0b0b0; stroke-width: 0.3; stroke-linecap: square"/>
     </g>
     <g id="line2d_56">
      <g>
       <use xlink:href="#m80661bc195" x="48.35" y="140.790311" style="stroke: #000000; stroke-width: 0.6"/>
      </g>
     </g>
    </g>
    <g id="ytick_23">
     <g id="line2d_57">
      <path d="M 48.35 138.457024 
L 352.72837 138.457024 
" clip-path="url(#p2aca6db1df)" style="fill: none; stroke: #b0b0b0; stroke-width: 0.3; stroke-linecap: square"/>
     </g>
     <g id="line2d_58">
      <g>
       <use xlink:href="#m80661bc195" x="48.35" y="138.457024" style="stroke: #000000; stroke-width: 0.6"/>
      </g>
     </g>
    </g>
    <g id="ytick_24">
     <g id="line2d_59">
      <path d="M 48.35 122.63855 
L 352.72837 122.63855 
" clip-path="url(#p2aca6db1df)" style="fill: none; stroke: #b0b0b0; stroke-width: 0.3; stroke-linecap: square"/>
     </g>
     <g id="line2d_60">
      <g>
       <use xlink:href="#m80661bc195" x="48.35" y="122.63855" style="stroke: #000000; stroke-width: 0.6"/>
      </g>
     </g>
    </g>
    <g id="ytick_25">
     <g id="line2d_61">
      <path d="M 48.35 114.606268 
L 352.72837 114.606268 
" clip-path="url(#p2aca6db1df)" style="fill: none; stroke: #b0b0b0; stroke-width: 0.3; stroke-linecap: square"/>
     </g>
     <g id="line2d_62">
      <g>
       <use xlink:href="#m80661bc195" x="48.35" y="114.606268" style="stroke: #000000; stroke-width: 0.6"/>
      </g>
     </g>
    </g>
    <g id="ytick_26">
     <g id="line2d_63">
      <path d="M 48.35 108.907273 
L 352.72837 108.907273 
" clip-path="url(#p2aca6db1df)" style="fill: none; stroke: #b0b0b0; stroke-width: 0.3; stroke-linecap: square"/>
     </g>
     <g id="line2d_64">
      <g>
       <use xlink:href="#m80661bc195" x="48.35" y="108.907273" style="stroke: #000000; stroke-width: 0.6"/>
      </g>
     </g>
    </g>
    <g id="ytick_27">
     <g id="line2d_65">
      <path d="M 48.35 104.48679 
L 352.72837 104.48679 
" clip-path="url(#p2aca6db1df)" style="fill: none; stroke: #b0b0b0; stroke-width: 0.3; stroke-linecap: square"/>
     </g>
     <g id="line2d_66">
      <g>
       <use xlink:href="#m80661bc195" x="48.35" y="104.48679" style="stroke: #000000; stroke-width: 0.6"/>
      </g>
     </g>
    </g>
    <g id="ytick_28">
     <g id="line2d_67">
      <path d="M 48.35 100.874991 
L 352.72837 100.874991 
" clip-path="url(#p2aca6db1df)" style="fill: none; stroke: #b0b0b0; stroke-width: 0.3; stroke-linecap: square"/>
     </g>
     <g id="line2d_68">
      <g>
       <use xlink:href="#m80661bc195" x="48.35" y="100.874991" style="stroke: #000000; stroke-width: 0.6"/>
      </g>
     </g>
    </g>
    <g id="ytick_29">
     <g id="line2d_69">
      <path d="M 48.35 97.82126 
L 352.72837 97.82126 
" clip-path="url(#p2aca6db1df)" style="fill: none; stroke: #b0b0b0; stroke-width: 0.3; stroke-linecap: square"/>
     </g>
     <g id="line2d_70">
      <g>
       <use xlink:href="#m80661bc195" x="48.35" y="97.82126" style="stroke: #000000; stroke-width: 0.6"/>
      </g>
     </g>
    </g>
    <g id="ytick_30">
     <g id="line2d_71">
      <path d="M 48.35 95.175997 
L 352.72837 95.175997 
" clip-path="url(#p2aca6db1df)" style="fill: none; stroke: #b0b0b0; stroke-width: 0.3; stroke-linecap: square"/>
     </g>
     <g id="line2d_72">
      <g>
       <use xlink:href="#m80661bc195" x="48.35" y="95.175997" style="stroke: #000000; stroke-width: 0.6"/>
      </g>
     </g>
    </g>
    <g id="ytick_31">
     <g id="line2d_73">
      <path d="M 48.35 92.842709 
L 352.72837 92.842709 
" clip-path="url(#p2aca6db1df)" style="fill: none; stroke: #b0b0b0; stroke-width: 0.3; stroke-linecap: square"/>
     </g>
     <g id="line2d_74">
      <g>
       <use xlink:href="#m80661bc195" x="48.35" y="92.842709" style="stroke: #000000; stroke-width: 0.6"/>
      </g>
     </g>
    </g>
    <g id="ytick_32">
     <g id="line2d_75">
      <path d="M 48.35 77.024236 
L 352.72837 77.024236 
" clip-path="url(#p2aca6db1df)" style="fill: none; stroke: #b0b0b0; stroke-width: 0.3; stroke-linecap: square"/>
     </g>
     <g id="line2d_76">
      <g>
       <use xlink:href="#m80661bc195" x="48.35" y="77.024236" style="stroke: #000000; stroke-width: 0.6"/>
      </g>
     </g>
    </g>
    <g id="ytick_33">
     <g id="line2d_77">
      <path d="M 48.35 68.991954 
L 352.72837 68.991954 
" clip-path="url(#p2aca6db1df)" style="fill: none; stroke: #b0b0b0; stroke-width: 0.3; stroke-linecap: square"/>
     </g>
     <g id="line2d_78">
      <g>
       <use xlink:href="#m80661bc195" x="48.35" y="68.991954" style="stroke: #000000; stroke-width: 0.6"/>
      </g>
     </g>
    </g>
    <g id="ytick_34">
     <g id="line2d_79">
      <path d="M 48.35 63.292959 
L 352.72837 63.292959 
" clip-path="url(#p2aca6db1df)" style="fill: none; stroke: #b0b0b0; stroke-width: 0.3; stroke-linecap: square"/>
     </g>
     <g id="line2d_80">
      <g>
       <use xlink:href="#m80661bc195" x="48.35" y="63.292959" style="stroke: #000000; stroke-width: 0.6"/>
      </g>
     </g>
    </g>
    <g id="ytick_35">
     <g id="line2d_81">
      <path d="M 48.35 58.872475 
L 352.72837 58.872475 
" clip-path="url(#p2aca6db1df)" style="fill: none; stroke: #b0b0b0; stroke-width: 0.3; stroke-linecap: square"/>
     </g>
     <g id="line2d_82">
      <g>
       <use xlink:href="#m80661bc195" x="48.35" y="58.872475" style="stroke: #000000; stroke-width: 0.6"/>
      </g>
     </g>
    </g>
    <g id="ytick_36">
     <g id="line2d_83">
      <path d="M 48.35 55.260677 
L 352.72837 55.260677 
" clip-path="url(#p2aca6db1df)" style="fill: none; stroke: #b0b0b0; stroke-width: 0.3; stroke-linecap: square"/>
     </g>
     <g id="line2d_84">
      <g>
       <use xlink:href="#m80661bc195" x="48.35" y="55.260677" style="stroke: #000000; stroke-width: 0.6"/>
      </g>
     </g>
    </g>
    <g id="ytick_37">
     <g id="line2d_85">
      <path d="M 48.35 52.206945 
L 352.72837 52.206945 
" clip-path="url(#p2aca6db1df)" style="fill: none; stroke: #b0b0b0; stroke-width: 0.3; stroke-linecap: square"/>
     </g>
     <g id="line2d_86">
      <g>
       <use xlink:href="#m80661bc195" x="48.35" y="52.206945" style="stroke: #000000; stroke-width: 0.6"/>
      </g>
     </g>
    </g>
    <g id="ytick_38">
     <g id="line2d_87">
      <path d="M 48.35 49.561682 
L 352.72837 49.561682 
" clip-path="url(#p2aca6db1df)" style="fill: none; stroke: #b0b0b0; stroke-width: 0.3; stroke-linecap: square"/>
     </g>
     <g id="line2d_88">
      <g>
       <use xlink:href="#m80661bc195" x="48.35" y="49.561682" style="stroke: #000000; stroke-width: 0.6"/>
      </g>
     </g>
    </g>
    <g id="ytick_39">
     <g id="line2d_89">
      <path d="M 48.35 47.228395 
L 352.72837 47.228395 
" clip-path="url(#p2aca6db1df)" style="fill: none; stroke: #b0b0b0; stroke-width: 0.3; stroke-linecap: square"/>
     </g>
     <g id="line2d_90">
      <g>
       <use xlink:href="#m80661bc195" x="48.35" y="47.228395" style="stroke: #000000; stroke-width: 0.6"/>
      </g>
     </g>
    </g>
    <g id="text_12">
     <!-- |Z(f)| [Ω] -->
     <g transform="translate(14.077969 160.718469) rotate(-90) scale(0.09 -0.09)">
      <defs>
       <path id="DejaVuSans-7c" d="M 1344 4891 
L 1344 -1509 
L 813 -1509 
L 813 4891 
L 1344 4891 
z
" transform="scale(0.015625)"/>
       <path id="DejaVuSans-5a" d="M 359 4666 
L 4025 4666 
L 4025 4184 
L 1075 531 
L 4097 531 
L 4097 0 
L 288 0 
L 288 481 
L 3238 4134 
L 359 4134 
L 359 4666 
z
" transform="scale(0.015625)"/>
       <path id="DejaVuSans-28" d="M 1984 4856 
Q 1566 4138 1362 3434 
Q 1159 2731 1159 2009 
Q 1159 1288 1364 580 
Q 1569 -128 1984 -844 
L 1484 -844 
Q 1016 -109 783 600 
Q 550 1309 550 2009 
Q 550 2706 781 3412 
Q 1013 4119 1484 4856 
L 1984 4856 
z
" transform="scale(0.015625)"/>
       <path id="DejaVuSans-66" d="M 2375 4863 
L 2375 4384 
L 1825 4384 
Q 1516 4384 1395 4259 
Q 1275 4134 1275 3809 
L 1275 3500 
L 2222 3500 
L 2222 3053 
L 1275 3053 
L 1275 0 
L 697 0 
L 697 3053 
L 147 3053 
L 147 3500 
L 697 3500 
L 697 3744 
Q 697 4328 969 4595 
Q 1241 4863 1831 4863 
L 2375 4863 
z
" transform="scale(0.015625)"/>
       <path id="DejaVuSans-29" d="M 513 4856 
L 1013 4856 
Q 1481 4119 1714 3412 
Q 1947 2706 1947 2009 
Q 1947 1309 1714 600 
Q 1481 -109 1013 -844 
L 513 -844 
Q 928 -128 1133 580 
Q 1338 1288 1338 2009 
Q 1338 2731 1133 3434 
Q 928 4138 513 4856 
z
" transform="scale(0.015625)"/>
       <path id="DejaVuSans-3a9" d="M 4647 556 
L 4647 0 
L 2772 0 
L 2772 556 
Q 3325 859 3634 1378 
Q 3944 1897 3944 2528 
Q 3944 3278 3531 3731 
Q 3119 4184 2444 4184 
Q 1769 4184 1355 3729 
Q 941 3275 941 2528 
Q 941 1897 1250 1378 
Q 1563 859 2119 556 
L 2119 0 
L 244 0 
L 244 556 
L 1241 556 
Q 747 991 519 1456 
Q 294 1922 294 2497 
Q 294 3491 894 4106 
Q 1491 4722 2444 4722 
Q 3391 4722 3994 4106 
Q 4594 3494 4594 2528 
Q 4594 1922 4372 1459 
Q 4150 997 3647 556 
L 4647 556 
z
" transform="scale(0.015625)"/>
      </defs>
      <use xlink:href="#DejaVuSans-7c"/>
      <use xlink:href="#DejaVuSans-5a" transform="translate(33.691406 0)"/>
      <use xlink:href="#DejaVuSans-28" transform="translate(102.197266 0)"/>
      <use xlink:href="#DejaVuSans-66" transform="translate(141.210938 0)"/>
      <use xlink:href="#DejaVuSans-29" transform="translate(176.416016 0)"/>
      <use xlink:href="#DejaVuSans-7c" transform="translate(215.429688 0)"/>
      <use xlink:href="#DejaVuSans-20" transform="translate(249.121094 0)"/>
      <use xlink:href="#DejaVuSans-5b" transform="translate(280.908203 0)"/>
      <use xlink:href="#DejaVuSans-3a9" transform="translate(319.921875 0)"/>
      <use xlink:href="#DejaVuSans-5d" transform="translate(396.337891 0)"/>
     </g>
    </g>
   </g>
   <g id="line2d_91">
    <path d="M 62.18538 54.546183 
L 63.477113 58.729163 
L 64.861113 62.465673 
L 66.429645 66.06832 
L 68.182711 69.544086 
L 70.212577 73.063636 
L 72.519243 76.608256 
L 75.194975 80.31095 
L 78.516573 84.521113 
L 83.498971 90.439506 
L 90.603501 98.910202 
L 94.017366 103.343649 
L 96.785365 107.300594 
L 99.092031 110.975711 
L 101.121896 114.619921 
L 102.874962 118.203901 
L 104.443495 121.894476 
L 105.827494 125.688744 
L 107.119227 129.888606 
L 108.226427 134.238519 
L 109.241359 139.16329 
L 110.071759 144.254038 
L 110.809892 150.124167 
L 111.455758 157.127003 
L 112.009358 165.946068 
L 112.378425 175.111098 
L 112.655225 186.509744 
L 112.839758 200.682465 
L 113.024291 227.709818 
L 113.301091 190.380109 
L 113.670157 174.416295 
L 114.131491 164.03315 
L 114.68509 156.19106 
L 115.423223 149.087295 
L 116.253623 143.367236 
L 117.176289 138.556863 
L 118.191222 134.396946 
L 119.390688 130.454153 
L 120.682421 126.992298 
L 122.06642 123.904228 
L 123.634953 120.955785 
L 125.295752 118.298805 
L 127.141085 115.761719 
L 129.17095 113.350528 
L 131.385349 111.064843 
L 133.876548 108.82269 
L 136.55228 106.714258 
L 139.504812 104.667618 
L 142.826411 102.639193 
L 146.517076 100.651523 
L 150.576808 98.718563 
L 155.190139 96.774708 
L 160.264803 94.880232 
L 165.985334 92.984933 
L 172.443998 91.085339 
L 179.640795 89.204158 
L 187.760258 87.315579 
L 196.894653 85.423441 
L 207.228515 83.515699 
L 218.85411 81.601405 
L 231.955971 79.675178 
L 246.626365 77.747083 
L 263.14209 75.804441 
L 281.687682 73.850496 
L 302.539939 71.881109 
L 325.975662 69.895921 
L 338.89299 68.887047 
L 338.89299 68.887047 
" clip-path="url(#p2aca6db1df)" style="fill: none; stroke: #e05a2b; stroke-width: 1.4; stroke-linecap: square"/>
   </g>
   <g id="line2d_92">
    <path d="M 62.18538 54.546182 
L 63.477113 58.729162 
L 64.861113 62.46567 
L 66.429645 66.068316 
L 68.182711 69.544081 
L 70.212577 73.063629 
L 72.519243 76.608246 
L 75.194975 80.310935 
L 78.516573 84.52109 
L 83.498971 90.439465 
L 90.603501 98.910105 
L 94.017366 103.343498 
L 96.785365 107.300368 
L 99.092031 110.975383 
L 101.121896 114.619448 
L 102.874962 118.203222 
L 104.443495 121.89349 
L 105.827494 125.687297 
L 107.119227 129.886396 
L 108.226427 134.23509 
L 109.241359 139.157654 
L 110.071759 144.244617 
L 110.809892 150.107133 
L 111.455758 157.09249 
L 112.009358 165.862205 
L 112.378425 174.900894 
L 112.655225 185.860032 
L 113.024291 211.113878 
L 113.485624 180.461568 
L 113.946957 167.455703 
L 114.500557 158.429878 
L 115.146423 151.433863 
L 115.884556 145.68838 
L 116.807223 140.329036 
L 117.822156 135.799524 
L 118.929355 131.868704 
L 120.128821 128.393186 
L 121.512821 125.074291 
L 122.989087 122.109225 
L 124.649886 119.283229 
L 126.402952 116.731047 
L 128.340551 114.295035 
L 130.462683 111.978935 
L 132.861615 109.699264 
L 135.445081 107.553604 
L 138.305346 105.467828 
L 141.442412 103.453241 
L 144.948543 101.466067 
L 148.823742 99.524453 
L 153.160273 97.600711 
L 158.050404 95.679165 
L 163.494135 93.782632 
L 169.583732 91.898814 
L 176.411463 90.021149 
L 184.161859 88.125546 
L 192.834922 86.237547 
L 202.615184 84.340389 
L 213.594913 82.440516 
L 225.95864 80.530009 
L 239.890901 78.605739 
L 255.576227 76.667794 
L 273.199153 74.718338 
L 293.036477 72.752122 
L 315.272734 70.7759 
L 338.89299 68.887042 
L 338.89299 68.887042 
" clip-path="url(#p2aca6db1df)" style="fill: none; stroke-dasharray: 5.18,2.24; stroke-dashoffset: 0; stroke: #3a7fc1; stroke-width: 1.4"/>
   </g>
   <g id="line2d_93">
    <path d="M 113.009227 236.368 
L 113.009227 45.888 
" clip-path="url(#p2aca6db1df)" style="fill: none; stroke-dasharray: 0.6,0.99; stroke-dashoffset: 0; stroke: #888888; stroke-width: 0.6"/>
   </g>
   <g id="patch_3">
    <path d="M 48.35 236.368 
L 48.35 45.888 
" style="fill: none; stroke: #000000; stroke-width: 0.8; stroke-linejoin: miter; stroke-linecap: square"/>
   </g>
   <g id="patch_4">
    <path d="M 352.72837 236.368 
L 352.72837 45.888 
" style="fill: none; stroke: #000000; stroke-width: 0.8; stroke-linejoin: miter; stroke-linecap: square"/>
   </g>
   <g id="patch_5">
    <path d="M 48.35 236.368 
L 352.72837 236.368 
" style="fill: none; stroke: #000000; stroke-width: 0.8; stroke-linejoin: miter; stroke-linecap: square"/>
   </g>
   <g id="patch_6">
    <path d="M 48.35 45.888 
L 352.72837 45.888 
" style="fill: none; stroke: #000000; stroke-width: 0.8; stroke-linejoin: miter; stroke-linecap: square"/>
   </g>
   <g id="text_13">
    <!-- Impedanzbetrag |Z(f)| -->
    <g transform="translate(145.362623 39.888) scale(0.1 -0.1)">
     <defs>
      <path id="DejaVuSans-49" d="M 628 4666 
L 1259 4666 
L 1259 0 
L 628 0 
L 628 4666 
z
" transform="scale(0.015625)"/>
      <path id="DejaVuSans-6d" d="M 3328 2828 
Q 3544 3216 3844 3400 
Q 4144 3584 4550 3584 
Q 5097 3584 5394 3201 
Q 5691 2819 5691 2113 
L 5691 0 
L 5113 0 
L 5113 2094 
Q 5113 2597 4934 2840 
Q 4756 3084 4391 3084 
Q 3944 3084 3684 2787 
Q 3425 2491 3425 1978 
L 3425 0 
L 2847 0 
L 2847 2094 
Q 2847 2600 2669 2842 
Q 2491 3084 2119 3084 
Q 1678 3084 1418 2786 
Q 1159 2488 1159 1978 
L 1159 0 
L 581 0 
L 581 3500 
L 1159 3500 
L 1159 2956 
Q 1356 3278 1631 3431 
Q 1906 3584 2284 3584 
Q 2666 3584 2933 3390 
Q 3200 3197 3328 2828 
z
" transform="scale(0.015625)"/>
      <path id="DejaVuSans-70" d="M 1159 525 
L 1159 -1331 
L 581 -1331 
L 581 3500 
L 1159 3500 
L 1159 2969 
Q 1341 3281 1617 3432 
Q 1894 3584 2278 3584 
Q 2916 3584 3314 3078 
Q 3713 2572 3713 1747 
Q 3713 922 3314 415 
Q 2916 -91 2278 -91 
Q 1894 -91 1617 61 
Q 1341 213 1159 525 
z
M 3116 1747 
Q 3116 2381 2855 2742 
Q 2594 3103 2138 3103 
Q 1681 3103 1420 2742 
Q 1159 2381 1159 1747 
Q 1159 1113 1420 752 
Q 1681 391 2138 391 
Q 2594 391 2855 752 
Q 3116 1113 3116 1747 
z
" transform="scale(0.015625)"/>
      <path id="DejaVuSans-64" d="M 2906 2969 
L 2906 4863 
L 3481 4863 
L 3481 0 
L 2906 0 
L 2906 525 
Q 2725 213 2448 61 
Q 2172 -91 1784 -91 
Q 1150 -91 751 415 
Q 353 922 353 1747 
Q 353 2572 751 3078 
Q 1150 3584 1784 3584 
Q 2172 3584 2448 3432 
Q 2725 3281 2906 2969 
z
M 947 1747 
Q 947 1113 1208 752 
Q 1469 391 1925 391 
Q 2381 391 2643 752 
Q 2906 1113 2906 1747 
Q 2906 2381 2643 2742 
Q 2381 3103 1925 3103 
Q 1469 3103 1208 2742 
Q 947 2381 947 1747 
z
" transform="scale(0.015625)"/>
      <path id="DejaVuSans-61" d="M 2194 1759 
Q 1497 1759 1228 1600 
Q 959 1441 959 1056 
Q 959 750 1161 570 
Q 1363 391 1709 391 
Q 2188 391 2477 730 
Q 2766 1069 2766 1631 
L 2766 1759 
L 2194 1759 
z
M 3341 1997 
L 3341 0 
L 2766 0 
L 2766 531 
Q 2569 213 2275 61 
Q 1981 -91 1556 -91 
Q 1019 -91 701 211 
Q 384 513 384 1019 
Q 384 1609 779 1909 
Q 1175 2209 1959 2209 
L 2766 2209 
L 2766 2266 
Q 2766 2663 2505 2880 
Q 2244 3097 1772 3097 
Q 1472 3097 1187 3025 
Q 903 2953 641 2809 
L 641 3341 
Q 956 3463 1253 3523 
Q 1550 3584 1831 3584 
Q 2591 3584 2966 3190 
Q 3341 2797 3341 1997 
z
" transform="scale(0.015625)"/>
      <path id="DejaVuSans-62" d="M 3116 1747 
Q 3116 2381 2855 2742 
Q 2594 3103 2138 3103 
Q 1681 3103 1420 2742 
Q 1159 2381 1159 1747 
Q 1159 1113 1420 752 
Q 1681 391 2138 391 
Q 2594 391 2855 752 
Q 3116 1113 3116 1747 
z
M 1159 2969 
Q 1341 3281 1617 3432 
Q 1894 3584 2278 3584 
Q 2916 3584 3314 3078 
Q 3713 2572 3713 1747 
Q 3713 922 3314 415 
Q 2916 -91 2278 -91 
Q 1894 -91 1617 61 
Q 1341 213 1159 525 
L 1159 0 
L 581 0 
L 581 4863 
L 1159 4863 
L 1159 2969 
z
" transform="scale(0.015625)"/>
      <path id="DejaVuSans-74" d="M 1172 4494 
L 1172 3500 
L 2356 3500 
L 2356 3053 
L 1172 3053 
L 1172 1153 
Q 1172 725 1289 603 
Q 1406 481 1766 481 
L 2356 481 
L 2356 0 
L 1766 0 
Q 1100 0 847 248 
Q 594 497 594 1153 
L 594 3053 
L 172 3053 
L 172 3500 
L 594 3500 
L 594 4494 
L 1172 4494 
z
" transform="scale(0.015625)"/>
      <path id="DejaVuSans-67" d="M 2906 1791 
Q 2906 2416 2648 2759 
Q 2391 3103 1925 3103 
Q 1463 3103 1205 2759 
Q 947 2416 947 1791 
Q 947 1169 1205 825 
Q 1463 481 1925 481 
Q 2391 481 2648 825 
Q 2906 1169 2906 1791 
z
M 3481 434 
Q 3481 -459 3084 -895 
Q 2688 -1331 1869 -1331 
Q 1566 -1331 1297 -1286 
Q 1028 -1241 775 -1147 
L 775 -588 
Q 1028 -725 1275 -790 
Q 1522 -856 1778 -856 
Q 2344 -856 2625 -561 
Q 2906 -266 2906 331 
L 2906 616 
Q 2728 306 2450 153 
Q 2172 0 1784 0 
Q 1141 0 747 490 
Q 353 981 353 1791 
Q 353 2603 747 3093 
Q 1141 3584 1784 3584 
Q 2172 3584 2450 3431 
Q 2728 3278 2906 2969 
L 2906 3500 
L 3481 3500 
L 3481 434 
z
" transform="scale(0.015625)"/>
     </defs>
     <use xlink:href="#DejaVuSans-49"/>
     <use xlink:href="#DejaVuSans-6d" transform="translate(29.492188 0)"/>
     <use xlink:href="#DejaVuSans-70" transform="translate(126.904297 0)"/>
     <use xlink:href="#DejaVuSans-65" transform="translate(190.380859 0)"/>
     <use xlink:href="#DejaVuSans-64" transform="translate(251.904297 0)"/>
     <use xlink:href="#DejaVuSans-61" transform="translate(315.380859 0)"/>
     <use xlink:href="#DejaVuSans-6e" transform="translate(376.660156 0)"/>
     <use xlink:href="#DejaVuSans-7a" transform="translate(440.039062 0)"/>
     <use xlink:href="#DejaVuSans-62" transform="translate(492.529297 0)"/>
     <use xlink:href="#DejaVuSans-65" transform="translate(556.005859 0)"/>
     <use xlink:href="#DejaVuSans-74" transform="translate(617.529297 0)"/>
     <use xlink:href="#DejaVuSans-72" transform="translate(656.738281 0)"/>
     <use xlink:href="#DejaVuSans-61" transform="translate(697.851562 0)"/>
     <use xlink:href="#DejaVuSans-67" transform="translate(759.130859 0)"/>
     <use xlink:href="#DejaVuSans-20" transform="translate(822.607422 0)"/>
     <use xlink:href="#DejaVuSans-7c" transform="translate(854.394531 0)"/>
     <use xlink:href="#DejaVuSans-5a" transform="translate(888.085938 0)"/>
     <use xlink:href="#DejaVuSans-28" transform="translate(956.591797 0)"/>
     <use xlink:href="#DejaVuSans-66" transform="translate(995.605469 0)"/>
     <use xlink:href="#DejaVuSans-29" transform="translate(1030.810547 0)"/>
     <use xlink:href="#DejaVuSans-7c" transform="translate(1069.824219 0)"/>
    </g>
   </g>
   <g id="legend_1">
    <g id="patch_7">
     <path d="M 217.87587 232.368 
L 347.12837 232.368 
Q 348.72837 232.368 348.72837 230.768 
L 348.72837 208.083 
Q 348.72837 206.483 347.12837 206.483 
L 217.87587 206.483 
Q 216.27587 206.483 216.27587 208.083 
L 216.27587 230.768 
Q 216.27587 232.368 217.87587 232.368 
z
" style="fill: #ffffff; opacity: 0.8; stroke: #cccccc; stroke-linejoin: miter"/>
    </g>
    <g id="line2d_94">
     <path d="M 219.47587 212.96175 
L 227.47587 212.96175 
L 235.47587 212.96175 
" style="fill: none; stroke: #e05a2b; stroke-width: 1.4; stroke-linecap: square"/>
    </g>
    <g id="text_14">
     <!-- Katze  Q=17, R=9.36 mΩ -->
     <g transform="translate(241.87587 215.76175) scale(0.08 -0.08)">
      <defs>
       <path id="DejaVuSans-4b" d="M 628 4666 
L 1259 4666 
L 1259 2694 
L 3353 4666 
L 4166 4666 
L 1850 2491 
L 4331 0 
L 3500 0 
L 1259 2247 
L 1259 0 
L 628 0 
L 628 4666 
z
" transform="scale(0.015625)"/>
       <path id="DejaVuSans-51" d="M 2522 4238 
Q 1834 4238 1429 3725 
Q 1025 3213 1025 2328 
Q 1025 1447 1429 934 
Q 1834 422 2522 422 
Q 3209 422 3611 934 
Q 4013 1447 4013 2328 
Q 4013 3213 3611 3725 
Q 3209 4238 2522 4238 
z
M 3406 84 
L 4238 -825 
L 3475 -825 
L 2784 -78 
Q 2681 -84 2626 -87 
Q 2572 -91 2522 -91 
Q 1538 -91 948 567 
Q 359 1225 359 2328 
Q 359 3434 948 4092 
Q 1538 4750 2522 4750 
Q 3503 4750 4090 4092 
Q 4678 3434 4678 2328 
Q 4678 1516 4351 937 
Q 4025 359 3406 84 
z
" transform="scale(0.015625)"/>
       <path id="DejaVuSans-3d" d="M 678 2906 
L 4684 2906 
L 4684 2381 
L 678 2381 
L 678 2906 
z
M 678 1631 
L 4684 1631 
L 4684 1100 
L 678 1100 
L 678 1631 
z
" transform="scale(0.015625)"/>
       <path id="DejaVuSans-37" d="M 525 4666 
L 3525 4666 
L 3525 4397 
L 1831 0 
L 1172 0 
L 2766 4134 
L 525 4134 
L 525 4666 
z
" transform="scale(0.015625)"/>
       <path id="DejaVuSans-2c" d="M 750 794 
L 1409 794 
L 1409 256 
L 897 -744 
L 494 -744 
L 750 256 
L 750 794 
z
" transform="scale(0.015625)"/>
       <path id="DejaVuSans-52" d="M 2841 2188 
Q 3044 2119 3236 1894 
Q 3428 1669 3622 1275 
L 4263 0 
L 3584 0 
L 2988 1197 
Q 2756 1666 2539 1819 
Q 2322 1972 1947 1972 
L 1259 1972 
L 1259 0 
L 628 0 
L 628 4666 
L 2053 4666 
Q 2853 4666 3247 4331 
Q 3641 3997 3641 3322 
Q 3641 2881 3436 2590 
Q 3231 2300 2841 2188 
z
M 1259 4147 
L 1259 2491 
L 2053 2491 
Q 2509 2491 2742 2702 
Q 2975 2913 2975 3322 
Q 2975 3731 2742 3939 
Q 2509 4147 2053 4147 
L 1259 4147 
z
" transform="scale(0.015625)"/>
       <path id="DejaVuSans-39" d="M 703 97 
L 703 672 
Q 941 559 1184 500 
Q 1428 441 1663 441 
Q 2288 441 2617 861 
Q 2947 1281 2994 2138 
Q 2813 1869 2534 1725 
Q 2256 1581 1919 1581 
Q 1219 1581 811 2004 
Q 403 2428 403 3163 
Q 403 3881 828 4315 
Q 1253 4750 1959 4750 
Q 2769 4750 3195 4129 
Q 3622 3509 3622 2328 
Q 3622 1225 3098 567 
Q 2575 -91 1691 -91 
Q 1453 -91 1209 -44 
Q 966 3 703 97 
z
M 1959 2075 
Q 2384 2075 2632 2365 
Q 2881 2656 2881 3163 
Q 2881 3666 2632 3958 
Q 2384 4250 1959 4250 
Q 1534 4250 1286 3958 
Q 1038 3666 1038 3163 
Q 1038 2656 1286 2365 
Q 1534 2075 1959 2075 
z
" transform="scale(0.015625)"/>
       <path id="DejaVuSans-2e" d="M 684 794 
L 1344 794 
L 1344 0 
L 684 0 
L 684 794 
z
" transform="scale(0.015625)"/>
       <path id="DejaVuSans-36" d="M 2113 2584 
Q 1688 2584 1439 2293 
Q 1191 2003 1191 1497 
Q 1191 994 1439 701 
Q 1688 409 2113 409 
Q 2538 409 2786 701 
Q 3034 994 3034 1497 
Q 3034 2003 2786 2293 
Q 2538 2584 2113 2584 
z
M 3366 4563 
L 3366 3988 
Q 3128 4100 2886 4159 
Q 2644 4219 2406 4219 
Q 1781 4219 1451 3797 
Q 1122 3375 1075 2522 
Q 1259 2794 1537 2939 
Q 1816 3084 2150 3084 
Q 2853 3084 3261 2657 
Q 3669 2231 3669 1497 
Q 3669 778 3244 343 
Q 2819 -91 2113 -91 
Q 1303 -91 875 529 
Q 447 1150 447 2328 
Q 447 3434 972 4092 
Q 1497 4750 2381 4750 
Q 2619 4750 2861 4703 
Q 3103 4656 3366 4563 
z
" transform="scale(0.015625)"/>
      </defs>
      <use xlink:href="#DejaVuSans-4b"/>
      <use xlink:href="#DejaVuSans-61" transform="translate(63.826172 0)"/>
      <use xlink:href="#DejaVuSans-74" transform="translate(125.105469 0)"/>
      <use xlink:href="#DejaVuSans-7a" transform="translate(164.314453 0)"/>
      <use xlink:href="#DejaVuSans-65" transform="translate(216.804688 0)"/>
      <use xlink:href="#DejaVuSans-20" transform="translate(278.328125 0)"/>
      <use xlink:href="#DejaVuSans-20" transform="translate(310.115234 0)"/>
      <use xlink:href="#DejaVuSans-51" transform="translate(341.902344 0)"/>
      <use xlink:href="#DejaVuSans-3d" transform="translate(420.613281 0)"/>
      <use xlink:href="#DejaVuSans-31" transform="translate(504.402344 0)"/>
      <use xlink:href="#DejaVuSans-37" transform="translate(568.025391 0)"/>
      <use xlink:href="#DejaVuSans-2c" transform="translate(631.648438 0)"/>
      <use xlink:href="#DejaVuSans-20" transform="translate(663.435547 0)"/>
      <use xlink:href="#DejaVuSans-52" transform="translate(695.222656 0)"/>
      <use xlink:href="#DejaVuSans-3d" transform="translate(764.705078 0)"/>
      <use xlink:href="#DejaVuSans-39" transform="translate(848.494141 0)"/>
      <use xlink:href="#DejaVuSans-2e" transform="translate(912.117188 0)"/>
      <use xlink:href="#DejaVuSans-33" transform="translate(943.904297 0)"/>
      <use xlink:href="#DejaVuSans-36" transform="translate(1007.527344 0)"/>
      <use xlink:href="#DejaVuSans-20" transform="translate(1071.150391 0)"/>
      <use xlink:href="#DejaVuSans-6d" transform="translate(1102.9375 0)"/>
      <use xlink:href="#DejaVuSans-3a9" transform="translate(1200.349609 0)"/>
     </g>
    </g>
    <g id="line2d_95">
     <path d="M 219.47587 224.70425 
L 227.47587 224.70425 
L 235.47587 224.70425 
" style="fill: none; stroke-dasharray: 5.18,2.24; stroke-dashoffset: 0; stroke: #3a7fc1; stroke-width: 1.4"/>
    </g>
    <g id="text_15">
     <!-- Hund   Q=7, R=22.74 mΩ -->
     <g transform="translate(241.87587 227.50425) scale(0.08 -0.08)">
      <use xlink:href="#DejaVuSans-48"/>
      <use xlink:href="#DejaVuSans-75" transform="translate(75.195312 0)"/>
      <use xlink:href="#DejaVuSans-6e" transform="translate(138.574219 0)"/>
      <use xlink:href="#DejaVuSans-64" transform="translate(201.953125 0)"/>
      <use xlink:href="#DejaVuSans-20" transform="translate(265.429688 0)"/>
      <use xlink:href="#DejaVuSans-20" transform="translate(297.216797 0)"/>
      <use xlink:href="#DejaVuSans-20" transform="translate(329.003906 0)"/>
      <use xlink:href="#DejaVuSans-51" transform="translate(360.791016 0)"/>
      <use xlink:href="#DejaVuSans-3d" transform="translate(439.501953 0)"/>
      <use xlink:href="#DejaVuSans-37" transform="translate(523.291016 0)"/>
      <use xlink:href="#DejaVuSans-2c" transform="translate(586.914062 0)"/>
      <use xlink:href="#DejaVuSans-20" transform="translate(618.701172 0)"/>
      <use xlink:href="#DejaVuSans-52" transform="translate(650.488281 0)"/>
      <use xlink:href="#DejaVuSans-3d" transform="translate(719.970703 0)"/>
      <use xlink:href="#DejaVuSans-32" transform="translate(803.759766 0)"/>
      <use xlink:href="#DejaVuSans-32" transform="translate(867.382812 0)"/>
      <use xlink:href="#DejaVuSans-2e" transform="translate(931.005859 0)"/>
      <use xlink:href="#DejaVuSans-37" transform="translate(962.792969 0)"/>
      <use xlink:href="#DejaVuSans-34" transform="translate(1026.416016 0)"/>
      <use xlink:href="#DejaVuSans-20" transform="translate(1090.039062 0)"/>
      <use xlink:href="#DejaVuSans-6d" transform="translate(1121.826172 0)"/>
      <use xlink:href="#DejaVuSans-3a9" transform="translate(1219.238281 0)"/>
     </g>
    </g>
   </g>
  </g>
  <g id="axes_2">
   <g id="patch_8">
    <path d="M 402.96837 236.368 
L 707.346741 236.368 
L 707.346741 45.888 
L 402.96837 45.888 
z
" style="fill: #ffffff"/>
   </g>
   <g id="matplotlib.axis_3">
    <g id="xtick_7">
     <g id="line2d_96">
      <g>
       <use xlink:href="#m00a2e34fc9" x="416.803751" y="236.368" style="stroke: #000000; stroke-width: 0.8"/>
      </g>
     </g>
     <g id="text_16">
      <!-- 0 -->
      <g transform="translate(413.940626 250.206594) scale(0.09 -0.09)">
       <use xlink:href="#DejaVuSans-30"/>
      </g>
     </g>
    </g>
    <g id="xtick_8">
     <g id="line2d_97">
      <g>
       <use xlink:href="#m00a2e34fc9" x="472.145273" y="236.368" style="stroke: #000000; stroke-width: 0.8"/>
      </g>
     </g>
     <g id="text_17">
      <!-- 1 -->
      <g transform="translate(469.282148 250.206594) scale(0.09 -0.09)">
       <use xlink:href="#DejaVuSans-31"/>
      </g>
     </g>
    </g>
    <g id="xtick_9">
     <g id="line2d_98">
      <g>
       <use xlink:href="#m00a2e34fc9" x="527.486795" y="236.368" style="stroke: #000000; stroke-width: 0.8"/>
      </g>
     </g>
     <g id="text_18">
      <!-- 2 -->
      <g transform="translate(524.62367 250.206594) scale(0.09 -0.09)">
       <use xlink:href="#DejaVuSans-32"/>
      </g>
     </g>
    </g>
    <g id="xtick_10">
     <g id="line2d_99">
      <g>
       <use xlink:href="#m00a2e34fc9" x="582.828316" y="236.368" style="stroke: #000000; stroke-width: 0.8"/>
      </g>
     </g>
     <g id="text_19">
      <!-- 3 -->
      <g transform="translate(579.965191 250.206594) scale(0.09 -0.09)">
       <use xlink:href="#DejaVuSans-33"/>
      </g>
     </g>
    </g>
    <g id="xtick_11">
     <g id="line2d_100">
      <g>
       <use xlink:href="#m00a2e34fc9" x="638.169838" y="236.368" style="stroke: #000000; stroke-width: 0.8"/>
      </g>
     </g>
     <g id="text_20">
      <!-- 4 -->
      <g transform="translate(635.306713 250.206594) scale(0.09 -0.09)">
       <use xlink:href="#DejaVuSans-34"/>
      </g>
     </g>
    </g>
    <g id="xtick_12">
     <g id="line2d_101">
      <g>
       <use xlink:href="#m00a2e34fc9" x="693.51136" y="236.368" style="stroke: #000000; stroke-width: 0.8"/>
      </g>
     </g>
     <g id="text_21">
      <!-- 5 -->
      <g transform="translate(690.648235 250.206594) scale(0.09 -0.09)">
       <use xlink:href="#DejaVuSans-35"/>
      </g>
     </g>
    </g>
    <g id="text_22">
     <!-- Zeit [ms] -->
     <g transform="translate(534.62279 262.916906) scale(0.09 -0.09)">
      <defs>
       <path id="DejaVuSans-69" d="M 603 3500 
L 1178 3500 
L 1178 0 
L 603 0 
L 603 3500 
z
M 603 4863 
L 1178 4863 
L 1178 4134 
L 603 4134 
L 603 4863 
z
" transform="scale(0.015625)"/>
       <path id="DejaVuSans-73" d="M 2834 3397 
L 2834 2853 
Q 2591 2978 2328 3040 
Q 2066 3103 1784 3103 
Q 1356 3103 1142 2972 
Q 928 2841 928 2578 
Q 928 2378 1081 2264 
Q 1234 2150 1697 2047 
L 1894 2003 
Q 2506 1872 2764 1633 
Q 3022 1394 3022 966 
Q 3022 478 2636 193 
Q 2250 -91 1575 -91 
Q 1294 -91 989 -36 
Q 684 19 347 128 
L 347 722 
Q 666 556 975 473 
Q 1284 391 1588 391 
Q 1994 391 2212 530 
Q 2431 669 2431 922 
Q 2431 1156 2273 1281 
Q 2116 1406 1581 1522 
L 1381 1569 
Q 847 1681 609 1914 
Q 372 2147 372 2553 
Q 372 3047 722 3315 
Q 1072 3584 1716 3584 
Q 2034 3584 2315 3537 
Q 2597 3491 2834 3397 
z
" transform="scale(0.015625)"/>
      </defs>
      <use xlink:href="#DejaVuSans-5a"/>
      <use xlink:href="#DejaVuSans-65" transform="translate(68.505859 0)"/>
      <use xlink:href="#DejaVuSans-69" transform="translate(130.029297 0)"/>
      <use xlink:href="#DejaVuSans-74" transform="translate(157.8125 0)"/>
      <use xlink:href="#DejaVuSans-20" transform="translate(197.021484 0)"/>
      <use xlink:href="#DejaVuSans-5b" transform="translate(228.808594 0)"/>
      <use xlink:href="#DejaVuSans-6d" transform="translate(267.822266 0)"/>
      <use xlink:href="#DejaVuSans-73" transform="translate(365.234375 0)"/>
      <use xlink:href="#DejaVuSans-5d" transform="translate(417.333984 0)"/>
     </g>
    </g>
   </g>
   <g id="matplotlib.axis_4">
    <g id="ytick_40">
     <g id="line2d_102">
      <g>
       <use xlink:href="#m55210e1bbf" x="402.96837" y="227.709818" style="stroke: #000000; stroke-width: 0.8"/>
      </g>
     </g>
     <g id="text_23">
      <!-- 0.00 -->
      <g transform="translate(375.929308 231.129115) scale(0.09 -0.09)">
       <use xlink:href="#DejaVuSans-30"/>
       <use xlink:href="#DejaVuSans-2e" transform="translate(63.623047 0)"/>
       <use xlink:href="#DejaVuSans-30" transform="translate(95.410156 0)"/>
       <use xlink:href="#DejaVuSans-30" transform="translate(159.033203 0)"/>
      </g>
     </g>
    </g>
    <g id="ytick_41">
     <g id="line2d_103">
      <g>
       <use xlink:href="#m55210e1bbf" x="402.96837" y="206.039031" style="stroke: #000000; stroke-width: 0.8"/>
      </g>
     </g>
     <g id="text_24">
      <!-- 0.25 -->
      <g transform="translate(375.929308 209.458328) scale(0.09 -0.09)">
       <use xlink:href="#DejaVuSans-30"/>
       <use xlink:href="#DejaVuSans-2e" transform="translate(63.623047 0)"/>
       <use xlink:href="#DejaVuSans-32" transform="translate(95.410156 0)"/>
       <use xlink:href="#DejaVuSans-35" transform="translate(159.033203 0)"/>
      </g>
     </g>
    </g>
    <g id="ytick_42">
     <g id="line2d_104">
      <g>
       <use xlink:href="#m55210e1bbf" x="402.96837" y="184.368243" style="stroke: #000000; stroke-width: 0.8"/>
      </g>
     </g>
     <g id="text_25">
      <!-- 0.50 -->
      <g transform="translate(375.929308 187.78754) scale(0.09 -0.09)">
       <use xlink:href="#DejaVuSans-30"/>
       <use xlink:href="#DejaVuSans-2e" transform="translate(63.623047 0)"/>
       <use xlink:href="#DejaVuSans-35" transform="translate(95.410156 0)"/>
       <use xlink:href="#DejaVuSans-30" transform="translate(159.033203 0)"/>
      </g>
     </g>
    </g>
    <g id="ytick_43">
     <g id="line2d_105">
      <g>
       <use xlink:href="#m55210e1bbf" x="402.96837" y="162.697456" style="stroke: #000000; stroke-width: 0.8"/>
      </g>
     </g>
     <g id="text_26">
      <!-- 0.75 -->
      <g transform="translate(375.929308 166.116753) scale(0.09 -0.09)">
       <use xlink:href="#DejaVuSans-30"/>
       <use xlink:href="#DejaVuSans-2e" transform="translate(63.623047 0)"/>
       <use xlink:href="#DejaVuSans-37" transform="translate(95.410156 0)"/>
       <use xlink:href="#DejaVuSans-35" transform="translate(159.033203 0)"/>
      </g>
     </g>
    </g>
    <g id="ytick_44">
     <g id="line2d_106">
      <g>
       <use xlink:href="#m55210e1bbf" x="402.96837" y="141.026669" style="stroke: #000000; stroke-width: 0.8"/>
      </g>
     </g>
     <g id="text_27">
      <!-- 1.00 -->
      <g transform="translate(375.929308 144.445965) scale(0.09 -0.09)">
       <use xlink:href="#DejaVuSans-31"/>
       <use xlink:href="#DejaVuSans-2e" transform="translate(63.623047 0)"/>
       <use xlink:href="#DejaVuSans-30" transform="translate(95.410156 0)"/>
       <use xlink:href="#DejaVuSans-30" transform="translate(159.033203 0)"/>
      </g>
     </g>
    </g>
    <g id="ytick_45">
     <g id="line2d_107">
      <g>
       <use xlink:href="#m55210e1bbf" x="402.96837" y="119.355881" style="stroke: #000000; stroke-width: 0.8"/>
      </g>
     </g>
     <g id="text_28">
      <!-- 1.25 -->
      <g transform="translate(375.929308 122.775178) scale(0.09 -0.09)">
       <use xlink:href="#DejaVuSans-31"/>
       <use xlink:href="#DejaVuSans-2e" transform="translate(63.623047 0)"/>
       <use xlink:href="#DejaVuSans-32" transform="translate(95.410156 0)"/>
       <use xlink:href="#DejaVuSans-35" transform="translate(159.033203 0)"/>
      </g>
     </g>
    </g>
    <g id="ytick_46">
     <g id="line2d_108">
      <g>
       <use xlink:href="#m55210e1bbf" x="402.96837" y="97.685094" style="stroke: #000000; stroke-width: 0.8"/>
      </g>
     </g>
     <g id="text_29">
      <!-- 1.50 -->
      <g transform="translate(375.929308 101.104391) scale(0.09 -0.09)">
       <use xlink:href="#DejaVuSans-31"/>
       <use xlink:href="#DejaVuSans-2e" transform="translate(63.623047 0)"/>
       <use xlink:href="#DejaVuSans-35" transform="translate(95.410156 0)"/>
       <use xlink:href="#DejaVuSans-30" transform="translate(159.033203 0)"/>
      </g>
     </g>
    </g>
    <g id="ytick_47">
     <g id="line2d_109">
      <g>
       <use xlink:href="#m55210e1bbf" x="402.96837" y="76.014306" style="stroke: #000000; stroke-width: 0.8"/>
      </g>
     </g>
     <g id="text_30">
      <!-- 1.75 -->
      <g transform="translate(375.929308 79.433603) scale(0.09 -0.09)">
       <use xlink:href="#DejaVuSans-31"/>
       <use xlink:href="#DejaVuSans-2e" transform="translate(63.623047 0)"/>
       <use xlink:href="#DejaVuSans-37" transform="translate(95.410156 0)"/>
       <use xlink:href="#DejaVuSans-35" transform="translate(159.033203 0)"/>
      </g>
     </g>
    </g>
    <g id="ytick_48">
     <g id="line2d_110">
      <g>
       <use xlink:href="#m55210e1bbf" x="402.96837" y="54.343519" style="stroke: #000000; stroke-width: 0.8"/>
      </g>
     </g>
     <g id="text_31">
      <!-- 2.00 -->
      <g transform="translate(375.929308 57.762816) scale(0.09 -0.09)">
       <use xlink:href="#DejaVuSans-32"/>
       <use xlink:href="#DejaVuSans-2e" transform="translate(63.623047 0)"/>
       <use xlink:href="#DejaVuSans-30" transform="translate(95.410156 0)"/>
       <use xlink:href="#DejaVuSans-30" transform="translate(159.033203 0)"/>
      </g>
     </g>
    </g>
    <g id="text_32">
     <!-- u_C(t) / U₀ -->
     <g transform="translate(369.807277 164.121594) rotate(-90) scale(0.09 -0.09)">
      <defs>
       <path id="DejaVuSans-5f" d="M 3263 -1063 
L 3263 -1509 
L -63 -1509 
L -63 -1063 
L 3263 -1063 
z
" transform="scale(0.015625)"/>
       <path id="DejaVuSans-43" d="M 4122 4306 
L 4122 3641 
Q 3803 3938 3442 4084 
Q 3081 4231 2675 4231 
Q 1875 4231 1450 3742 
Q 1025 3253 1025 2328 
Q 1025 1406 1450 917 
Q 1875 428 2675 428 
Q 3081 428 3442 575 
Q 3803 722 4122 1019 
L 4122 359 
Q 3791 134 3420 21 
Q 3050 -91 2638 -91 
Q 1578 -91 968 557 
Q 359 1206 359 2328 
Q 359 3453 968 4101 
Q 1578 4750 2638 4750 
Q 3056 4750 3426 4639 
Q 3797 4528 4122 4306 
z
" transform="scale(0.015625)"/>
       <path id="DejaVuSans-2f" d="M 1625 4666 
L 2156 4666 
L 531 -594 
L 0 -594 
L 1625 4666 
z
" transform="scale(0.015625)"/>
       <path id="DejaVuSans-55" d="M 556 4666 
L 1191 4666 
L 1191 1831 
Q 1191 1081 1462 751 
Q 1734 422 2344 422 
Q 2950 422 3222 751 
Q 3494 1081 3494 1831 
L 3494 4666 
L 4128 4666 
L 4128 1753 
Q 4128 841 3676 375 
Q 3225 -91 2344 -91 
Q 1459 -91 1007 375 
Q 556 841 556 1753 
L 556 4666 
z
" transform="scale(0.015625)"/>
       <path id="DejaVuSans-2080" d="M 1781 2091 
Q 1625 2360 1309 2360 
Q 994 2360 838 2091 
Q 678 1822 678 1285 
Q 678 744 838 476 
Q 994 207 1309 207 
Q 1625 207 1781 476 
Q 1941 744 1941 1285 
Q 1941 1822 1781 2091 
z
M 1309 2638 
Q 1813 2638 2078 2291 
Q 2344 1944 2344 1285 
Q 2344 622 2078 275 
Q 1813 -71 1309 -71 
Q 803 -71 537 275 
Q 272 622 272 1285 
Q 272 1944 537 2291 
Q 803 2638 1309 2638 
z
" transform="scale(0.015625)"/>
      </defs>
      <use xlink:href="#DejaVuSans-75"/>
      <use xlink:href="#DejaVuSans-5f" transform="translate(63.378906 0)"/>
      <use xlink:href="#DejaVuSans-43" transform="translate(113.378906 0)"/>
      <use xlink:href="#DejaVuSans-28" transform="translate(183.203125 0)"/>
      <use xlink:href="#DejaVuSans-74" transform="translate(222.216797 0)"/>
      <use xlink:href="#DejaVuSans-29" transform="translate(261.425781 0)"/>
      <use xlink:href="#DejaVuSans-20" transform="translate(300.439453 0)"/>
      <use xlink:href="#DejaVuSans-2f" transform="translate(332.226562 0)"/>
      <use xlink:href="#DejaVuSans-20" transform="translate(365.917969 0)"/>
      <use xlink:href="#DejaVuSans-55" transform="translate(397.705078 0)"/>
      <use xlink:href="#DejaVuSans-2080" transform="translate(470.898438 0)"/>
     </g>
    </g>
   </g>
   <g id="line2d_111">
    <path d="M 416.803751 227.709818 
L 417.246572 227.600293 
L 417.744745 227.215621 
L 418.298271 226.465055 
L 418.907149 225.25008 
L 419.626733 223.296263 
L 420.457022 220.361268 
L 421.398016 216.185555 
L 422.505068 210.180833 
L 423.778177 201.934842 
L 425.217345 191.096069 
L 426.988628 175.962547 
L 429.368789 153.536143 
L 434.848696 101.275404 
L 436.675331 86.305302 
L 438.169851 75.77862 
L 439.442961 68.281227 
L 440.550013 62.991457 
L 441.491007 59.4611 
L 442.321296 57.11782 
L 443.04088 55.689311 
L 443.649758 54.925048 
L 444.147931 54.605608 
L 444.590752 54.553695 
L 445.033573 54.720303 
L 445.531746 55.168372 
L 446.085272 55.988125 
L 446.749503 57.414507 
L 447.52444 59.678374 
L 448.410081 63.034558 
L 449.406428 67.749345 
L 450.568832 74.427753 
L 451.897294 83.469034 
L 453.447167 95.650063 
L 455.384508 112.793896 
L 458.318195 141.043629 
L 462.026819 176.336529 
L 463.96416 192.671083 
L 465.514032 203.977412 
L 466.842494 212.130657 
L 468.004899 217.944467 
L 469.001245 221.865405 
L 469.886887 224.483981 
L 470.606471 225.991482 
L 471.215349 226.82454 
L 471.768875 227.226223 
L 472.211696 227.302548 
L 472.654517 227.160848 
L 473.15269 226.741315 
L 473.706216 225.9538 
L 474.370447 224.56667 
L 475.090031 222.528576 
L 475.920319 219.502749 
L 476.916666 214.955368 
L 478.023718 208.798335 
L 479.296828 200.404315 
L 480.791348 188.987292 
L 482.617983 173.202927 
L 485.219555 148.52872 
L 489.869173 104.275105 
L 491.751161 88.597101 
L 493.301033 77.451486 
L 494.629496 69.451516 
L 495.736548 64.020937 
L 496.732894 60.170894 
L 497.563183 57.750775 
L 498.282767 56.25111 
L 498.891645 55.423697 
L 499.445171 55.026339 
L 499.887992 54.952907 
L 500.330813 55.09699 
L 500.828986 55.518585 
L 501.382512 56.307617 
L 502.046743 57.695481 
L 502.821679 59.912415 
L 503.707321 63.212773 
L 504.703668 67.862643 
L 505.810719 74.122018 
L 507.083829 82.616709 
L 508.578349 94.126002 
L 510.460337 110.486344 
L 513.172614 136.29087 
L 517.434764 176.761791 
L 519.372104 192.947361 
L 520.921977 204.124586 
L 522.250439 212.163424 
L 523.412844 217.876449 
L 524.40919 221.711891 
L 525.239479 224.121503 
L 525.959063 225.61336 
L 526.567941 226.435149 
L 527.121467 226.8282 
L 527.564288 226.898751 
L 528.007109 226.752298 
L 528.505282 226.328652 
L 529.058808 225.538116 
L 529.723039 224.149529 
L 530.497976 221.933248 
L 531.383617 218.635602 
L 532.379964 213.991255 
L 533.487016 207.741002 
L 534.760125 199.260499 
L 536.254645 187.772518 
L 538.136633 171.445241 
L 540.84891 145.697643 
L 545.11106 105.32617 
L 547.048401 89.184516 
L 548.598273 78.039786 
L 549.926735 70.0261 
L 551.08914 64.33256 
L 552.085487 60.511674 
L 552.915775 58.112535 
L 553.635359 56.628458 
L 554.244238 55.812272 
L 554.797764 55.423509 
L 555.240584 55.355825 
L 555.683405 55.504637 
L 556.181578 55.930321 
L 556.735104 56.72235 
L 557.399335 58.11165 
L 558.174272 60.327267 
L 559.059913 63.622194 
L 560.05626 68.261016 
L 561.163312 74.502154 
L 562.491774 83.365388 
L 564.041647 95.342002 
L 565.923635 111.738316 
L 568.746617 138.569636 
L 572.732004 176.203297 
L 574.669344 192.36165 
L 576.219217 203.537406 
L 577.547679 211.589432 
L 578.710084 217.324701 
L 579.70643 221.186861 
L 580.592072 223.76046 
L 581.311655 225.236784 
L 581.920534 226.047389 
L 582.47406 226.431881 
L 582.916881 226.49671 
L 583.359701 226.345551 
L 583.857875 225.917841 
L 584.411401 225.124331 
L 585.075632 223.734331 
L 585.850568 221.519387 
L 586.736209 218.227185 
L 587.732556 213.593889 
L 588.894961 207.021929 
L 590.223423 198.115014 
L 591.773295 186.103945 
L 593.710636 169.184852 
L 596.644323 141.278543 
L 600.352947 106.372783 
L 602.290288 90.198413 
L 603.84016 78.992192 
L 605.168623 70.902307 
L 606.331027 65.125717 
L 607.327374 61.222619 
L 608.213015 58.608799 
L 608.932599 57.097429 
L 609.541477 56.2557 
L 610.095003 55.841877 
L 610.537824 55.752953 
L 610.980645 55.879523 
L 611.478818 56.279057 
L 612.032344 57.040729 
L 612.696575 58.391955 
L 613.416159 60.385358 
L 614.246448 63.352513 
L 615.242795 67.82015 
L 616.349846 73.877818 
L 617.622956 82.145549 
L 619.117476 93.401349 
L 620.944112 108.976133 
L 623.490331 132.811894 
L 628.250654 177.592034 
L 630.132642 193.057823 
L 631.682514 204.041924 
L 633.010977 211.917075 
L 634.118029 217.255424 
L 635.114375 221.032917 
L 635.944664 223.400847 
L 636.664248 224.861748 
L 637.273126 225.661256 
L 637.826652 226.037259 
L 638.269473 226.096417 
L 638.712294 225.9406 
L 639.210467 225.508874 
L 639.763993 224.712435 
L 640.428224 223.321069 
L 641.20316 221.1075 
L 642.088802 217.820769 
L 643.085148 213.198529 
L 644.247553 206.645839 
L 645.576015 197.768926 
L 647.125888 185.802723 
L 649.063228 168.952586 
L 651.996916 141.17071 
L 655.70554 106.43724 
L 657.64288 90.350241 
L 659.192753 79.208821 
L 660.521215 71.169213 
L 661.68362 65.431671 
L 662.679966 61.557825 
L 663.565608 58.966416 
L 664.285191 57.470602 
L 664.89407 56.640093 
L 665.447596 56.234878 
L 665.890417 56.151724 
L 666.333237 56.283056 
L 666.831411 56.686726 
L 667.384937 57.451465 
L 668.049168 58.80423 
L 668.768751 60.796655 
L 669.59904 63.759274 
L 670.595387 68.216708 
L 671.702439 74.257104 
L 672.975548 82.4976 
L 674.470068 93.712121 
L 676.296704 109.224487 
L 678.842923 132.956191 
L 683.603246 177.517271 
L 685.485234 192.898924 
L 687.035107 203.819021 
L 688.363569 211.644733 
L 689.470621 216.946572 
L 690.466968 220.695363 
L 691.297256 223.042659 
L 692.01684 224.488247 
L 692.625719 225.276741 
L 693.179245 225.644326 
L 693.51136 225.704545 
L 693.51136 225.704545 
" clip-path="url(#p835d1a0fd8)" style="fill: none; stroke: #e05a2b; stroke-width: 1.4; stroke-linecap: square"/>
   </g>
   <g id="line2d_112">
    <path d="M 416.803751 227.709818 
L 417.246572 227.600296 
L 417.744745 227.215659 
L 418.298271 226.465204 
L 418.907149 225.250496 
L 419.626733 223.297264 
L 420.457022 220.363424 
L 421.398016 216.189798 
L 422.505068 210.188822 
L 423.778177 201.94916 
L 425.217345 191.120477 
L 426.988628 176.003972 
L 429.368789 153.608394 
L 434.793343 101.926526 
L 436.619979 86.929003 
L 438.114499 76.364523 
L 439.387608 68.824384 
L 440.49466 63.489921 
L 441.491007 59.734665 
L 442.321296 57.398442 
L 443.04088 55.97436 
L 443.649758 55.212516 
L 444.147931 54.894098 
L 444.590752 54.842338 
L 445.033573 55.008363 
L 445.531746 55.454871 
L 446.085272 56.271732 
L 446.749503 57.692989 
L 447.52444 59.948537 
L 448.410081 63.292066 
L 449.406428 67.988553 
L 450.568832 74.640183 
L 451.897294 83.643872 
L 453.447167 95.772162 
L 455.384508 112.838198 
L 458.318195 140.95152 
L 462.026819 176.060171 
L 463.96416 192.303938 
L 465.514032 203.545085 
L 466.842494 211.649939 
L 468.004899 217.428395 
L 469.001245 221.325001 
L 469.886887 223.927052 
L 470.606471 225.424911 
L 471.215349 226.252594 
L 471.768875 226.651678 
L 472.211696 226.727534 
L 472.654517 226.586821 
L 473.15269 226.170165 
L 473.706216 225.388067 
L 474.370447 224.010555 
L 475.090031 221.986738 
L 475.920319 218.982368 
L 476.916666 214.467708 
L 478.023718 208.355732 
L 479.296828 200.024311 
L 480.791348 188.694297 
L 482.617983 173.033326 
L 485.219555 148.558485 
L 489.81382 105.167101 
L 491.695808 89.568993 
L 493.245681 78.461053 
L 494.574143 70.471626 
L 495.736548 64.792935 
L 496.732894 60.979544 
L 497.563183 58.582702 
L 498.282767 57.097574 
L 498.891645 56.278221 
L 499.445171 55.884727 
L 499.887992 55.811971 
L 500.330813 55.954555 
L 500.828986 56.371841 
L 501.382512 57.152806 
L 502.046743 58.52642 
L 502.821679 60.720436 
L 503.707321 63.986385 
L 504.703668 68.587289 
L 505.810719 74.779995 
L 507.083829 83.183038 
L 508.578349 94.5663 
L 510.460337 110.744247 
L 513.172614 136.25412 
L 517.379411 175.760695 
L 519.316752 191.809013 
L 520.866624 202.91066 
L 522.195087 210.911458 
L 523.357491 216.61259 
L 524.353838 220.454194 
L 525.239479 223.016696 
L 525.959063 224.489189 
L 526.567941 225.300281 
L 527.121467 225.688234 
L 527.564288 225.757923 
L 528.007109 225.613494 
L 528.505282 225.195598 
L 529.058808 224.415779 
L 529.723039 223.046063 
L 530.497976 220.860047 
L 531.383617 217.60771 
L 532.379964 213.02765 
L 533.487016 206.86465 
L 534.815478 198.111718 
L 536.36535 186.283937 
L 538.247338 170.091903 
L 541.070321 143.597277 
L 545.055707 106.44154 
L 546.993048 90.490075 
L 548.542921 79.457538 
L 549.871383 71.508279 
L 551.033787 65.845432 
L 552.030134 62.031052 
L 552.915775 59.488114 
L 553.635359 58.028162 
L 554.244238 57.225263 
L 554.797764 56.842801 
L 555.240584 56.776148 
L 555.683405 56.922396 
L 556.181578 57.34088 
L 556.735104 58.119542 
L 557.399335 59.485358 
L 558.174272 61.663395 
L 559.059913 64.902167 
L 560.05626 69.46147 
L 561.163312 75.594899 
L 562.491774 84.303954 
L 564.041647 96.070262 
L 565.923635 112.17542 
L 568.746617 138.522979 
L 572.732004 175.463459 
L 574.669344 191.318646 
L 576.219217 202.282495 
L 577.547679 210.18054 
L 578.710084 215.805349 
L 579.70643 219.59269 
L 580.592072 222.116203 
L 581.311655 223.563708 
L 581.920534 224.358479 
L 582.47406 224.7355 
L 582.916881 224.799151 
L 583.359701 224.651109 
L 583.857875 224.232055 
L 584.411401 223.454563 
L 585.075632 222.092648 
L 585.850568 219.922572 
L 586.736209 216.697316 
L 587.732556 212.158683 
L 588.894961 205.721763 
L 590.223423 196.999101 
L 591.773295 185.238453 
L 593.710636 168.675481 
L 596.644323 141.364358 
L 600.352947 107.21624 
L 602.290288 91.398182 
L 603.84016 80.441039 
L 605.168623 72.53226 
L 606.331027 66.885766 
L 607.327374 63.071001 
L 608.213015 60.516559 
L 608.932599 59.039606 
L 609.541477 58.217051 
L 610.095003 57.81261 
L 610.593177 57.729544 
L 611.035997 57.879356 
L 611.534171 58.298957 
L 612.087697 59.075267 
L 612.751928 60.433283 
L 613.526864 62.595418 
L 614.412506 65.807206 
L 615.408852 70.325254 
L 616.571257 76.731236 
L 617.899719 85.410088 
L 619.449592 97.109525 
L 621.386932 113.583496 
L 624.32062 140.742669 
L 628.029243 174.692717 
L 629.966584 190.41537 
L 631.516457 201.304355 
L 632.844919 209.162244 
L 634.007323 214.770878 
L 635.00367 218.558675 
L 635.889311 221.09369 
L 636.608895 222.558152 
L 637.217774 223.372511 
L 637.7713 223.771424 
L 638.269473 223.8511 
L 638.712294 223.699544 
L 639.210467 223.279414 
L 639.763993 222.504297 
L 640.428224 221.150182 
L 641.20316 218.995969 
L 642.088802 215.797602 
L 643.085148 211.300052 
L 644.247553 204.924865 
L 645.576015 196.289612 
L 647.125888 184.651074 
L 649.063228 168.265634 
L 651.996916 141.257577 
L 655.70554 107.504462 
L 657.64288 91.876648 
L 659.192753 81.055403 
L 660.521215 73.248085 
L 661.68362 67.677065 
L 662.679966 63.916056 
L 663.565608 61.40033 
L 664.285191 59.948266 
L 664.89407 59.142036 
L 665.447596 58.748601 
L 665.945769 58.67228 
L 666.38859 58.825555 
L 666.886763 59.246195 
L 667.440289 60.020105 
L 668.10452 61.370321 
L 668.879457 63.516631 
L 669.765098 66.701626 
L 670.761445 71.178762 
L 671.923849 77.523294 
L 673.252311 86.115162 
L 674.802184 97.69311 
L 676.739525 113.990488 
L 679.673212 140.848258 
L 683.381836 174.405568 
L 685.319176 189.939108 
L 686.869049 200.693027 
L 688.197511 208.450091 
L 689.359916 213.983741 
L 690.356262 217.718144 
L 691.241904 220.214717 
L 691.961488 221.654476 
L 692.570366 222.452642 
L 693.123892 222.840648 
L 693.51136 222.920066 
L 693.51136 222.920066 
" clip-path="url(#p835d1a0fd8)" style="fill: none; stroke-dasharray: 5.18,2.24; stroke-dashoffset: 0; stroke: #3a7fc1; stroke-width: 1.4"/>
   </g>
   <g id="line2d_113">
    <path d="M 402.96837 141.026669 
L 707.346741 141.026669 
" clip-path="url(#p835d1a0fd8)" style="fill: none; stroke-dasharray: 0.6,0.99; stroke-dashoffset: 0; stroke: #888888; stroke-width: 0.6"/>
   </g>
   <g id="patch_9">
    <path d="M 402.96837 236.368 
L 402.96837 45.888 
" style="fill: none; stroke: #000000; stroke-width: 0.8; stroke-linejoin: miter; stroke-linecap: square"/>
   </g>
   <g id="patch_10">
    <path d="M 707.346741 236.368 
L 707.346741 45.888 
" style="fill: none; stroke: #000000; stroke-width: 0.8; stroke-linejoin: miter; stroke-linecap: square"/>
   </g>
   <g id="patch_11">
    <path d="M 402.96837 236.368 
L 707.346741 236.368 
" style="fill: none; stroke: #000000; stroke-width: 0.8; stroke-linejoin: miter; stroke-linecap: square"/>
   </g>
   <g id="patch_12">
    <path d="M 402.96837 45.888 
L 707.346741 45.888 
" style="fill: none; stroke: #000000; stroke-width: 0.8; stroke-linejoin: miter; stroke-linecap: square"/>
   </g>
   <g id="text_33">
    <!-- Sprungantwort der Kondensatorspannung -->
    <g transform="translate(450.288024 39.888) scale(0.1 -0.1)">
     <defs>
      <path id="DejaVuSans-53" d="M 3425 4513 
L 3425 3897 
Q 3066 4069 2747 4153 
Q 2428 4238 2131 4238 
Q 1616 4238 1336 4038 
Q 1056 3838 1056 3469 
Q 1056 3159 1242 3001 
Q 1428 2844 1947 2747 
L 2328 2669 
Q 3034 2534 3370 2195 
Q 3706 1856 3706 1288 
Q 3706 609 3251 259 
Q 2797 -91 1919 -91 
Q 1588 -91 1214 -16 
Q 841 59 441 206 
L 441 856 
Q 825 641 1194 531 
Q 1563 422 1919 422 
Q 2459 422 2753 634 
Q 3047 847 3047 1241 
Q 3047 1584 2836 1778 
Q 2625 1972 2144 2069 
L 1759 2144 
Q 1053 2284 737 2584 
Q 422 2884 422 3419 
Q 422 4038 858 4394 
Q 1294 4750 2059 4750 
Q 2388 4750 2728 4690 
Q 3069 4631 3425 4513 
z
" transform="scale(0.015625)"/>
      <path id="DejaVuSans-77" d="M 269 3500 
L 844 3500 
L 1563 769 
L 2278 3500 
L 2956 3500 
L 3675 769 
L 4391 3500 
L 4966 3500 
L 4050 0 
L 3372 0 
L 2619 2869 
L 1863 0 
L 1184 0 
L 269 3500 
z
" transform="scale(0.015625)"/>
      <path id="DejaVuSans-6f" d="M 1959 3097 
Q 1497 3097 1228 2736 
Q 959 2375 959 1747 
Q 959 1119 1226 758 
Q 1494 397 1959 397 
Q 2419 397 2687 759 
Q 2956 1122 2956 1747 
Q 2956 2369 2687 2733 
Q 2419 3097 1959 3097 
z
M 1959 3584 
Q 2709 3584 3137 3096 
Q 3566 2609 3566 1747 
Q 3566 888 3137 398 
Q 2709 -91 1959 -91 
Q 1206 -91 779 398 
Q 353 888 353 1747 
Q 353 2609 779 3096 
Q 1206 3584 1959 3584 
z
" transform="scale(0.015625)"/>
     </defs>
     <use xlink:href="#DejaVuSans-53"/>
     <use xlink:href="#DejaVuSans-70" transform="translate(63.476562 0)"/>
     <use xlink:href="#DejaVuSans-72" transform="translate(126.953125 0)"/>
     <use xlink:href="#DejaVuSans-75" transform="translate(168.066406 0)"/>
     <use xlink:href="#DejaVuSans-6e" transform="translate(231.445312 0)"/>
     <use xlink:href="#DejaVuSans-67" transform="translate(294.824219 0)"/>
     <use xlink:href="#DejaVuSans-61" transform="translate(358.300781 0)"/>
     <use xlink:href="#DejaVuSans-6e" transform="translate(419.580078 0)"/>
     <use xlink:href="#DejaVuSans-74" transform="translate(482.958984 0)"/>
     <use xlink:href="#DejaVuSans-77" transform="translate(522.167969 0)"/>
     <use xlink:href="#DejaVuSans-6f" transform="translate(603.955078 0)"/>
     <use xlink:href="#DejaVuSans-72" transform="translate(665.136719 0)"/>
     <use xlink:href="#DejaVuSans-74" transform="translate(706.25 0)"/>
     <use xlink:href="#DejaVuSans-20" transform="translate(745.458984 0)"/>
     <use xlink:href="#DejaVuSans-64" transform="translate(777.246094 0)"/>
     <use xlink:href="#DejaVuSans-65" transform="translate(840.722656 0)"/>
     <use xlink:href="#DejaVuSans-72" transform="translate(902.246094 0)"/>
     <use xlink:href="#DejaVuSans-20" transform="translate(943.359375 0)"/>
     <use xlink:href="#DejaVuSans-4b" transform="translate(975.146484 0)"/>
     <use xlink:href="#DejaVuSans-6f" transform="translate(1035.722656 0)"/>
     <use xlink:href="#DejaVuSans-6e" transform="translate(1096.904297 0)"/>
     <use xlink:href="#DejaVuSans-64" transform="translate(1160.283203 0)"/>
     <use xlink:href="#DejaVuSans-65" transform="translate(1223.759766 0)"/>
     <use xlink:href="#DejaVuSans-6e" transform="translate(1285.283203 0)"/>
     <use xlink:href="#DejaVuSans-73" transform="translate(1348.662109 0)"/>
     <use xlink:href="#DejaVuSans-61" transform="translate(1400.761719 0)"/>
     <use xlink:href="#DejaVuSans-74" transform="translate(1462.041016 0)"/>
     <use xlink:href="#DejaVuSans-6f" transform="translate(1501.25 0)"/>
     <use xlink:href="#DejaVuSans-72" transform="translate(1562.431641 0)"/>
     <use xlink:href="#DejaVuSans-73" transform="translate(1603.544922 0)"/>
     <use xlink:href="#DejaVuSans-70" transform="translate(1655.644531 0)"/>
     <use xlink:href="#DejaVuSans-61" transform="translate(1719.121094 0)"/>
     <use xlink:href="#DejaVuSans-6e" transform="translate(1780.400391 0)"/>
     <use xlink:href="#DejaVuSans-6e" transform="translate(1843.779297 0)"/>
     <use xlink:href="#DejaVuSans-75" transform="translate(1907.158203 0)"/>
     <use xlink:href="#DejaVuSans-6e" transform="translate(1970.537109 0)"/>
     <use xlink:href="#DejaVuSans-67" transform="translate(2033.916016 0)"/>
    </g>
   </g>
   <g id="legend_2">
    <g id="patch_13">
     <path d="M 517.091305 154.0705 
L 593.223805 154.0705 
Q 594.823805 154.0705 594.823805 152.4705 
L 594.823805 129.7855 
Q 594.823805 128.1855 593.223805 128.1855 
L 517.091305 128.1855 
Q 515.491305 128.1855 515.491305 129.7855 
L 515.491305 152.4705 
Q 515.491305 154.0705 517.091305 154.0705 
z
" style="fill: #ffffff; opacity: 0.8; stroke: #cccccc; stroke-linejoin: miter"/>
    </g>
    <g id="line2d_114">
     <path d="M 518.691305 134.66425 
L 526.691305 134.66425 
L 534.691305 134.66425 
" style="fill: none; stroke: #e05a2b; stroke-width: 1.4; stroke-linecap: square"/>
    </g>
    <g id="text_34">
     <!-- Katze  Q=17 -->
     <g transform="translate(541.091305 137.46425) scale(0.08 -0.08)">
      <use xlink:href="#DejaVuSans-4b"/>
      <use xlink:href="#DejaVuSans-61" transform="translate(63.826172 0)"/>
      <use xlink:href="#DejaVuSans-74" transform="translate(125.105469 0)"/>
      <use xlink:href="#DejaVuSans-7a" transform="translate(164.314453 0)"/>
      <use xlink:href="#DejaVuSans-65" transform="translate(216.804688 0)"/>
      <use xlink:href="#DejaVuSans-20" transform="translate(278.328125 0)"/>
      <use xlink:href="#DejaVuSans-20" transform="translate(310.115234 0)"/>
      <use xlink:href="#DejaVuSans-51" transform="translate(341.902344 0)"/>
      <use xlink:href="#DejaVuSans-3d" transform="translate(420.613281 0)"/>
      <use xlink:href="#DejaVuSans-31" transform="translate(504.402344 0)"/>
      <use xlink:href="#DejaVuSans-37" transform="translate(568.025391 0)"/>
     </g>
    </g>
    <g id="line2d_115">
     <path d="M 518.691305 146.40675 
L 526.691305 146.40675 
L 534.691305 146.40675 
" style="fill: none; stroke-dasharray: 5.18,2.24; stroke-dashoffset: 0; stroke: #3a7fc1; stroke-width: 1.4"/>
    </g>
    <g id="text_35">
     <!-- Hund   Q=7 -->
     <g transform="translate(541.091305 149.20675) scale(0.08 -0.08)">
      <use xlink:href="#DejaVuSans-48"/>
      <use xlink:href="#DejaVuSans-75" transform="translate(75.195312 0)"/>
      <use xlink:href="#DejaVuSans-6e" transform="translate(138.574219 0)"/>
      <use xlink:href="#DejaVuSans-64" transform="translate(201.953125 0)"/>
      <use xlink:href="#DejaVuSans-20" transform="translate(265.429688 0)"/>
      <use xlink:href="#DejaVuSans-20" transform="translate(297.216797 0)"/>
      <use xlink:href="#DejaVuSans-20" transform="translate(329.003906 0)"/>
      <use xlink:href="#DejaVuSans-51" transform="translate(360.791016 0)"/>
      <use xlink:href="#DejaVuSans-3d" transform="translate(439.501953 0)"/>
      <use xlink:href="#DejaVuSans-37" transform="translate(523.291016 0)"/>
     </g>
    </g>
   </g>
  </g>
  <g id="text_36">
   <!-- Experiment 06 – RLC-Schaltung: Impedanz und Sprungantwort -->
   <g transform="translate(166.800272 15.406313) scale(0.108 -0.108)">
    <defs>
     <path id="DejaVuSans-Bold-45" d="M 588 4666 
L 3834 4666 
L 3834 3756 
L 1791 3756 
L 1791 2888 
L 3713 2888 
L 3713 1978 
L 1791 1978 
L 1791 909 
L 3903 909 
L 3903 0 
L 588 0 
L 588 4666 
z
" transform="scale(0.015625)"/>
     <path id="DejaVuSans-Bold-78" d="M 1422 1791 
L 159 3500 
L 1344 3500 
L 2059 2463 
L 2784 3500 
L 3969 3500 
L 2706 1797 
L 4031 0 
L 2847 0 
L 2059 1106 
L 1281 0 
L 97 0 
L 1422 1791 
z
" transform="scale(0.015625)"/>
     <path id="DejaVuSans-Bold-70" d="M 1656 506 
L 1656 -1331 
L 538 -1331 
L 538 3500 
L 1656 3500 
L 1656 2988 
Q 1888 3294 2169 3439 
Q 2450 3584 2816 3584 
Q 3463 3584 3878 3070 
Q 4294 2556 4294 1747 
Q 4294 938 3878 423 
Q 3463 -91 2816 -91 
Q 2450 -91 2169 54 
Q 1888 200 1656 506 
z
M 2400 2772 
Q 2041 2772 1848 2508 
Q 1656 2244 1656 1747 
Q 1656 1250 1848 986 
Q 2041 722 2400 722 
Q 2759 722 2948 984 
Q 3138 1247 3138 1747 
Q 3138 2247 2948 2509 
Q 2759 2772 2400 2772 
z
" transform="scale(0.015625)"/>
     <path id="DejaVuSans-Bold-65" d="M 4031 1759 
L 4031 1441 
L 1416 1441 
Q 1456 1047 1700 850 
Q 1944 653 2381 653 
Q 2734 653 3104 758 
Q 3475 863 3866 1075 
L 3866 213 
Q 3469 63 3072 -14 
Q 2675 -91 2278 -91 
Q 1328 -91 801 392 
Q 275 875 275 1747 
Q 275 2603 792 3093 
Q 1309 3584 2216 3584 
Q 3041 3584 3536 3087 
Q 4031 2591 4031 1759 
z
M 2881 2131 
Q 2881 2450 2695 2645 
Q 2509 2841 2209 2841 
Q 1884 2841 1681 2658 
Q 1478 2475 1428 2131 
L 2881 2131 
z
" transform="scale(0.015625)"/>
     <path id="DejaVuSans-Bold-72" d="M 3138 2547 
Q 2991 2616 2845 2648 
Q 2700 2681 2553 2681 
Q 2122 2681 1889 2404 
Q 1656 2128 1656 1613 
L 1656 0 
L 538 0 
L 538 3500 
L 1656 3500 
L 1656 2925 
Q 1872 3269 2151 3426 
Q 2431 3584 2822 3584 
Q 2878 3584 2943 3579 
Q 3009 3575 3134 3559 
L 3138 2547 
z
" transform="scale(0.015625)"/>
     <path id="DejaVuSans-Bold-69" d="M 538 3500 
L 1656 3500 
L 1656 0 
L 538 0 
L 538 3500 
z
M 538 4863 
L 1656 4863 
L 1656 3950 
L 538 3950 
L 538 4863 
z
" transform="scale(0.015625)"/>
     <path id="DejaVuSans-Bold-6d" d="M 3781 2919 
Q 3994 3244 4286 3414 
Q 4578 3584 4928 3584 
Q 5531 3584 5847 3212 
Q 6163 2841 6163 2131 
L 6163 0 
L 5038 0 
L 5038 1825 
Q 5041 1866 5042 1909 
Q 5044 1953 5044 2034 
Q 5044 2406 4934 2573 
Q 4825 2741 4581 2741 
Q 4263 2741 4089 2478 
Q 3916 2216 3909 1719 
L 3909 0 
L 2784 0 
L 2784 1825 
Q 2784 2406 2684 2573 
Q 2584 2741 2328 2741 
Q 2006 2741 1831 2477 
Q 1656 2213 1656 1722 
L 1656 0 
L 531 0 
L 531 3500 
L 1656 3500 
L 1656 2988 
Q 1863 3284 2130 3434 
Q 2397 3584 2719 3584 
Q 3081 3584 3359 3409 
Q 3638 3234 3781 2919 
z
" transform="scale(0.015625)"/>
     <path id="DejaVuSans-Bold-6e" d="M 4056 2131 
L 4056 0 
L 2931 0 
L 2931 347 
L 2931 1631 
Q 2931 2084 2911 2256 
Q 2891 2428 2841 2509 
Q 2775 2619 2662 2680 
Q 2550 2741 2406 2741 
Q 2056 2741 1856 2470 
Q 1656 2200 1656 1722 
L 1656 0 
L 538 0 
L 538 3500 
L 1656 3500 
L 1656 2988 
Q 1909 3294 2193 3439 
Q 2478 3584 2822 3584 
Q 3428 3584 3742 3212 
Q 4056 2841 4056 2131 
z
" transform="scale(0.015625)"/>
     <path id="DejaVuSans-Bold-74" d="M 1759 4494 
L 1759 3500 
L 2913 3500 
L 2913 2700 
L 1759 2700 
L 1759 1216 
Q 1759 972 1856 886 
Q 1953 800 2241 800 
L 2816 800 
L 2816 0 
L 1856 0 
Q 1194 0 917 276 
Q 641 553 641 1216 
L 641 2700 
L 84 2700 
L 84 3500 
L 641 3500 
L 641 4494 
L 1759 4494 
z
" transform="scale(0.015625)"/>
     <path id="DejaVuSans-Bold-20" transform="scale(0.015625)"/>
     <path id="DejaVuSans-Bold-30" d="M 2944 2338 
Q 2944 3213 2780 3570 
Q 2616 3928 2228 3928 
Q 1841 3928 1675 3570 
Q 1509 3213 1509 2338 
Q 1509 1453 1675 1090 
Q 1841 728 2228 728 
Q 2613 728 2778 1090 
Q 2944 1453 2944 2338 
z
M 4147 2328 
Q 4147 1169 3647 539 
Q 3147 -91 2228 -91 
Q 1306 -91 806 539 
Q 306 1169 306 2328 
Q 306 3491 806 4120 
Q 1306 4750 2228 4750 
Q 3147 4750 3647 4120 
Q 4147 3491 4147 2328 
z
" transform="scale(0.015625)"/>
     <path id="DejaVuSans-Bold-36" d="M 2316 2303 
Q 2000 2303 1842 2098 
Q 1684 1894 1684 1484 
Q 1684 1075 1842 870 
Q 2000 666 2316 666 
Q 2634 666 2792 870 
Q 2950 1075 2950 1484 
Q 2950 1894 2792 2098 
Q 2634 2303 2316 2303 
z
M 3803 4544 
L 3803 3681 
Q 3506 3822 3243 3889 
Q 2981 3956 2731 3956 
Q 2194 3956 1894 3657 
Q 1594 3359 1544 2772 
Q 1750 2925 1990 3001 
Q 2231 3078 2516 3078 
Q 3231 3078 3670 2659 
Q 4109 2241 4109 1563 
Q 4109 813 3618 361 
Q 3128 -91 2303 -91 
Q 1394 -91 895 523 
Q 397 1138 397 2266 
Q 397 3422 980 4083 
Q 1563 4744 2578 4744 
Q 2900 4744 3203 4694 
Q 3506 4644 3803 4544 
z
" transform="scale(0.015625)"/>
     <path id="DejaVuSans-Bold-2013" d="M 344 2156 
L 2856 2156 
L 2856 1350 
L 344 1350 
L 344 2156 
z
" transform="scale(0.015625)"/>
     <path id="DejaVuSans-Bold-52" d="M 2297 2597 
Q 2675 2597 2839 2737 
Q 3003 2878 3003 3200 
Q 3003 3519 2839 3656 
Q 2675 3794 2297 3794 
L 1791 3794 
L 1791 2597 
L 2297 2597 
z
M 1791 1766 
L 1791 0 
L 588 0 
L 588 4666 
L 2425 4666 
Q 3347 4666 3776 4356 
Q 4206 4047 4206 3378 
Q 4206 2916 3982 2619 
Q 3759 2322 3309 2181 
Q 3556 2125 3751 1926 
Q 3947 1728 4147 1325 
L 4800 0 
L 3519 0 
L 2950 1159 
Q 2778 1509 2601 1637 
Q 2425 1766 2131 1766 
L 1791 1766 
z
" transform="scale(0.015625)"/>
     <path id="DejaVuSans-Bold-4c" d="M 588 4666 
L 1791 4666 
L 1791 909 
L 3903 909 
L 3903 0 
L 588 0 
L 588 4666 
z
" transform="scale(0.015625)"/>
     <path id="DejaVuSans-Bold-43" d="M 4288 256 
Q 3956 84 3597 -3 
Q 3238 -91 2847 -91 
Q 1681 -91 1000 561 
Q 319 1213 319 2328 
Q 319 3447 1000 4098 
Q 1681 4750 2847 4750 
Q 3238 4750 3597 4662 
Q 3956 4575 4288 4403 
L 4288 3438 
Q 3953 3666 3628 3772 
Q 3303 3878 2944 3878 
Q 2300 3878 1931 3465 
Q 1563 3053 1563 2328 
Q 1563 1606 1931 1193 
Q 2300 781 2944 781 
Q 3303 781 3628 887 
Q 3953 994 4288 1222 
L 4288 256 
z
" transform="scale(0.015625)"/>
     <path id="DejaVuSans-Bold-2d" d="M 347 2297 
L 2309 2297 
L 2309 1388 
L 347 1388 
L 347 2297 
z
" transform="scale(0.015625)"/>
     <path id="DejaVuSans-Bold-53" d="M 3834 4519 
L 3834 3531 
Q 3450 3703 3084 3790 
Q 2719 3878 2394 3878 
Q 1963 3878 1756 3759 
Q 1550 3641 1550 3391 
Q 1550 3203 1689 3098 
Q 1828 2994 2194 2919 
L 2706 2816 
Q 3484 2659 3812 2340 
Q 4141 2022 4141 1434 
Q 4141 663 3683 286 
Q 3225 -91 2284 -91 
Q 1841 -91 1394 -6 
Q 947 78 500 244 
L 500 1259 
Q 947 1022 1364 901 
Q 1781 781 2169 781 
Q 2563 781 2772 912 
Q 2981 1044 2981 1288 
Q 2981 1506 2839 1625 
Q 2697 1744 2272 1838 
L 1806 1941 
Q 1106 2091 782 2419 
Q 459 2747 459 3303 
Q 459 4000 909 4375 
Q 1359 4750 2203 4750 
Q 2588 4750 2994 4692 
Q 3400 4634 3834 4519 
z
" transform="scale(0.015625)"/>
     <path id="DejaVuSans-Bold-63" d="M 3366 3391 
L 3366 2478 
Q 3138 2634 2908 2709 
Q 2678 2784 2431 2784 
Q 1963 2784 1702 2511 
Q 1441 2238 1441 1747 
Q 1441 1256 1702 982 
Q 1963 709 2431 709 
Q 2694 709 2930 787 
Q 3166 866 3366 1019 
L 3366 103 
Q 3103 6 2833 -42 
Q 2563 -91 2291 -91 
Q 1344 -91 809 395 
Q 275 881 275 1747 
Q 275 2613 809 3098 
Q 1344 3584 2291 3584 
Q 2566 3584 2833 3536 
Q 3100 3488 3366 3391 
z
" transform="scale(0.015625)"/>
     <path id="DejaVuSans-Bold-68" d="M 4056 2131 
L 4056 0 
L 2931 0 
L 2931 347 
L 2931 1625 
Q 2931 2084 2911 2256 
Q 2891 2428 2841 2509 
Q 2775 2619 2662 2680 
Q 2550 2741 2406 2741 
Q 2056 2741 1856 2470 
Q 1656 2200 1656 1722 
L 1656 0 
L 538 0 
L 538 4863 
L 1656 4863 
L 1656 2988 
Q 1909 3294 2193 3439 
Q 2478 3584 2822 3584 
Q 3428 3584 3742 3212 
Q 4056 2841 4056 2131 
z
" transform="scale(0.015625)"/>
     <path id="DejaVuSans-Bold-61" d="M 2106 1575 
Q 1756 1575 1579 1456 
Q 1403 1338 1403 1106 
Q 1403 894 1545 773 
Q 1688 653 1941 653 
Q 2256 653 2472 879 
Q 2688 1106 2688 1447 
L 2688 1575 
L 2106 1575 
z
M 3816 1997 
L 3816 0 
L 2688 0 
L 2688 519 
Q 2463 200 2181 54 
Q 1900 -91 1497 -91 
Q 953 -91 614 226 
Q 275 544 275 1050 
Q 275 1666 698 1953 
Q 1122 2241 2028 2241 
L 2688 2241 
L 2688 2328 
Q 2688 2594 2478 2717 
Q 2269 2841 1825 2841 
Q 1466 2841 1156 2769 
Q 847 2697 581 2553 
L 581 3406 
Q 941 3494 1303 3539 
Q 1666 3584 2028 3584 
Q 2975 3584 3395 3211 
Q 3816 2838 3816 1997 
z
" transform="scale(0.015625)"/>
     <path id="DejaVuSans-Bold-6c" d="M 538 4863 
L 1656 4863 
L 1656 0 
L 538 0 
L 538 4863 
z
" transform="scale(0.015625)"/>
     <path id="DejaVuSans-Bold-75" d="M 500 1363 
L 500 3500 
L 1625 3500 
L 1625 3150 
Q 1625 2866 1622 2436 
Q 1619 2006 1619 1863 
Q 1619 1441 1641 1255 
Q 1663 1069 1716 984 
Q 1784 875 1895 815 
Q 2006 756 2150 756 
Q 2500 756 2700 1025 
Q 2900 1294 2900 1772 
L 2900 3500 
L 4019 3500 
L 4019 0 
L 2900 0 
L 2900 506 
Q 2647 200 2364 54 
Q 2081 -91 1741 -91 
Q 1134 -91 817 281 
Q 500 653 500 1363 
z
" transform="scale(0.015625)"/>
     <path id="DejaVuSans-Bold-67" d="M 2919 594 
Q 2688 288 2409 144 
Q 2131 0 1766 0 
Q 1125 0 706 504 
Q 288 1009 288 1791 
Q 288 2575 706 3076 
Q 1125 3578 1766 3578 
Q 2131 3578 2409 3434 
Q 2688 3291 2919 2981 
L 2919 3500 
L 4044 3500 
L 4044 353 
Q 4044 -491 3511 -936 
Q 2978 -1381 1966 -1381 
Q 1638 -1381 1331 -1331 
Q 1025 -1281 716 -1178 
L 716 -306 
Q 1009 -475 1290 -558 
Q 1572 -641 1856 -641 
Q 2406 -641 2662 -400 
Q 2919 -159 2919 353 
L 2919 594 
z
M 2181 2772 
Q 1834 2772 1640 2515 
Q 1447 2259 1447 1791 
Q 1447 1309 1634 1061 
Q 1822 813 2181 813 
Q 2531 813 2725 1069 
Q 2919 1325 2919 1791 
Q 2919 2259 2725 2515 
Q 2531 2772 2181 2772 
z
" transform="scale(0.015625)"/>
     <path id="DejaVuSans-Bold-3a" d="M 716 3500 
L 1844 3500 
L 1844 2291 
L 716 2291 
L 716 3500 
z
M 716 1209 
L 1844 1209 
L 1844 0 
L 716 0 
L 716 1209 
z
" transform="scale(0.015625)"/>
     <path id="DejaVuSans-Bold-49" d="M 588 4666 
L 1791 4666 
L 1791 0 
L 588 0 
L 588 4666 
z
" transform="scale(0.015625)"/>
     <path id="DejaVuSans-Bold-64" d="M 2919 2988 
L 2919 4863 
L 4044 4863 
L 4044 0 
L 2919 0 
L 2919 506 
Q 2688 197 2409 53 
Q 2131 -91 1766 -91 
Q 1119 -91 703 423 
Q 288 938 288 1747 
Q 288 2556 703 3070 
Q 1119 3584 1766 3584 
Q 2128 3584 2408 3439 
Q 2688 3294 2919 2988 
z
M 2181 722 
Q 2541 722 2730 984 
Q 2919 1247 2919 1747 
Q 2919 2247 2730 2509 
Q 2541 2772 2181 2772 
Q 1825 2772 1636 2509 
Q 1447 2247 1447 1747 
Q 1447 1247 1636 984 
Q 1825 722 2181 722 
z
" transform="scale(0.015625)"/>
     <path id="DejaVuSans-Bold-7a" d="M 366 3500 
L 3419 3500 
L 3419 2719 
L 1575 800 
L 3419 800 
L 3419 0 
L 288 0 
L 288 781 
L 2131 2700 
L 366 2700 
L 366 3500 
z
" transform="scale(0.015625)"/>
     <path id="DejaVuSans-Bold-77" d="M 225 3500 
L 1313 3500 
L 1900 1088 
L 2491 3500 
L 3425 3500 
L 4013 1113 
L 4603 3500 
L 5691 3500 
L 4769 0 
L 3547 0 
L 2956 2406 
L 2369 0 
L 1147 0 
L 225 3500 
z
" transform="scale(0.015625)"/>
     <path id="DejaVuSans-Bold-6f" d="M 2203 2784 
Q 1831 2784 1636 2517 
Q 1441 2250 1441 1747 
Q 1441 1244 1636 976 
Q 1831 709 2203 709 
Q 2569 709 2762 976 
Q 2956 1244 2956 1747 
Q 2956 2250 2762 2517 
Q 2569 2784 2203 2784 
z
M 2203 3584 
Q 3106 3584 3614 3096 
Q 4122 2609 4122 1747 
Q 4122 884 3614 396 
Q 3106 -91 2203 -91 
Q 1297 -91 786 396 
Q 275 884 275 1747 
Q 275 2609 786 3096 
Q 1297 3584 2203 3584 
z
" transform="scale(0.015625)"/>
    </defs>
    <use xlink:href="#DejaVuSans-Bold-45"/>
    <use xlink:href="#DejaVuSans-Bold-78" transform="translate(68.310547 0)"/>
    <use xlink:href="#DejaVuSans-Bold-70" transform="translate(132.8125 0)"/>
    <use xlink:href="#DejaVuSans-Bold-65" transform="translate(204.394531 0)"/>
    <use xlink:href="#DejaVuSans-Bold-72" transform="translate(272.216797 0)"/>
    <use xlink:href="#DejaVuSans-Bold-69" transform="translate(321.533203 0)"/>
    <use xlink:href="#DejaVuSans-Bold-6d" transform="translate(355.810547 0)"/>
    <use xlink:href="#DejaVuSans-Bold-65" transform="translate(460.009766 0)"/>
    <use xlink:href="#DejaVuSans-Bold-6e" transform="translate(527.832031 0)"/>
    <use xlink:href="#DejaVuSans-Bold-74" transform="translate(599.023438 0)"/>
    <use xlink:href="#DejaVuSans-Bold-20" transform="translate(646.826172 0)"/>
    <use xlink:href="#DejaVuSans-Bold-30" transform="translate(681.640625 0)"/>
    <use xlink:href="#DejaVuSans-Bold-36" transform="translate(751.220703 0)"/>
    <use xlink:href="#DejaVuSans-Bold-20" transform="translate(820.800781 0)"/>
    <use xlink:href="#DejaVuSans-Bold-2013" transform="translate(855.615234 0)"/>
    <use xlink:href="#DejaVuSans-Bold-20" transform="translate(905.615234 0)"/>
    <use xlink:href="#DejaVuSans-Bold-52" transform="translate(940.429688 0)"/>
    <use xlink:href="#DejaVuSans-Bold-4c" transform="translate(1017.431641 0)"/>
    <use xlink:href="#DejaVuSans-Bold-43" transform="translate(1081.152344 0)"/>
    <use xlink:href="#DejaVuSans-Bold-2d" transform="translate(1156.791016 0)"/>
    <use xlink:href="#DejaVuSans-Bold-53" transform="translate(1198.294922 0)"/>
    <use xlink:href="#DejaVuSans-Bold-63" transform="translate(1270.316406 0)"/>
    <use xlink:href="#DejaVuSans-Bold-68" transform="translate(1329.59375 0)"/>
    <use xlink:href="#DejaVuSans-Bold-61" transform="translate(1400.785156 0)"/>
    <use xlink:href="#DejaVuSans-Bold-6c" transform="translate(1468.265625 0)"/>
    <use xlink:href="#DejaVuSans-Bold-74" transform="translate(1502.542969 0)"/>
    <use xlink:href="#DejaVuSans-Bold-75" transform="translate(1550.345703 0)"/>
    <use xlink:href="#DejaVuSans-Bold-6e" transform="translate(1621.537109 0)"/>
    <use xlink:href="#DejaVuSans-Bold-67" transform="translate(1692.728516 0)"/>
    <use xlink:href="#DejaVuSans-Bold-3a" transform="translate(1764.310547 0)"/>
    <use xlink:href="#DejaVuSans-Bold-20" transform="translate(1804.300781 0)"/>
    <use xlink:href="#DejaVuSans-Bold-49" transform="translate(1839.115234 0)"/>
    <use xlink:href="#DejaVuSans-Bold-6d" transform="translate(1876.322266 0)"/>
    <use xlink:href="#DejaVuSans-Bold-70" transform="translate(1980.521484 0)"/>
    <use xlink:href="#DejaVuSans-Bold-65" transform="translate(2052.103516 0)"/>
    <use xlink:href="#DejaVuSans-Bold-64" transform="translate(2119.925781 0)"/>
    <use xlink:href="#DejaVuSans-Bold-61" transform="translate(2191.507812 0)"/>
    <use xlink:href="#DejaVuSans-Bold-6e" transform="translate(2258.988281 0)"/>
    <use xlink:href="#DejaVuSans-Bold-7a" transform="translate(2330.179688 0)"/>
    <use xlink:href="#DejaVuSans-Bold-20" transform="translate(2388.382812 0)"/>
    <use xlink:href="#DejaVuSans-Bold-75" transform="translate(2423.197266 0)"/>
    <use xlink:href="#DejaVuSans-Bold-6e" transform="translate(2494.388672 0)"/>
    <use xlink:href="#DejaVuSans-Bold-64" transform="translate(2565.580078 0)"/>
    <use xlink:href="#DejaVuSans-Bold-20" transform="translate(2637.162109 0)"/>
    <use xlink:href="#DejaVuSans-Bold-53" transform="translate(2671.976562 0)"/>
    <use xlink:href="#DejaVuSans-Bold-70" transform="translate(2743.998047 0)"/>
    <use xlink:href="#DejaVuSans-Bold-72" transform="translate(2815.580078 0)"/>
    <use xlink:href="#DejaVuSans-Bold-75" transform="translate(2864.896484 0)"/>
    <use xlink:href="#DejaVuSans-Bold-6e" transform="translate(2936.087891 0)"/>
    <use xlink:href="#DejaVuSans-Bold-67" transform="translate(3007.279297 0)"/>
    <use xlink:href="#DejaVuSans-Bold-61" transform="translate(3078.861328 0)"/>
    <use xlink:href="#DejaVuSans-Bold-6e" transform="translate(3146.341797 0)"/>
    <use xlink:href="#DejaVuSans-Bold-74" transform="translate(3217.533203 0)"/>
    <use xlink:href="#DejaVuSans-Bold-77" transform="translate(3265.335938 0)"/>
    <use xlink:href="#DejaVuSans-Bold-6f" transform="translate(3357.71875 0)"/>
    <use xlink:href="#DejaVuSans-Bold-72" transform="translate(3426.419922 0)"/>
    <use xlink:href="#DejaVuSans-Bold-74" transform="translate(3475.736328 0)"/>
   </g>
  </g>
 </g>
 <defs>
  <clipPath id="p2aca6db1df">
   <rect x="48.35" y="45.888" width="304.37837" height="190.48"/>
  </clipPath>
  <clipPath id="p835d1a0fd8">
   <rect x="402.96837" y="45.888" width="304.37837" height="190.48"/>
  </clipPath>
 </defs>
</svg>
