<?xml version="1.0" encoding="utf-8" standalone="no"?>
<!DOCTYPE svg PUBLIC "-//W3C//DTD SVG 1.1//EN"
  "http://www.w3.org/Graphics/SVG/1.1/DTD/svg11.dtd">
<svg xmlns:xlink="http://www.w3.org/1999/xlink" width="714.669375pt" height="271.988625pt" viewBox="0 0 714.669375 271.988625" xmlns="http://www.w3.org/2000/svg" version="1.1">
 <metadata>
  <rdf:RDF xmlns:dc="http://purl.org/dc/elements/1.1/" xmlns:cc="http://creativecommons.org/ns#" xmlns:rdf="http://www.w3.org/1999/02/22-rdf-syntax-ns#">
   <cc:Work>
    <dc:type rdf:resource="http://purl.org/dc/dcmitype/StillImage"/>
    <dc:date>2026-03-03T03:26:24.715698</dc:date>
    <dc:format>image/svg+xml</dc:format>
    <dc:creator>
     <cc:Agent>
      <dc:title>Matplotlib v3.10.8, https://matplotlib.org/</dc:title>
     </cc:Agent>
    </dc:creator>
   </cc:Work>
  </rdf:RDF>
 </metadata>
 <defs>
  <style type="text/css">*{stroke-linejoin: round; stroke-linecap: butt}</style>
 </defs>
 <g id="figure_1">
  <g id="patch_1">
   <path d="M 0 271.988625 
L 714.669375 271.988625 
L 714.669375 0 
L 0 0 
z
" style="fill: #ffffff"/>
  </g>
  <g id="axes_1">
   <g id="patch_2">
    <path d="M 46.949375 236.368 
L 352.689375 236.368 
L 352.689375 45.888 
L 46.949375 45.888 
z
" style="fill: #ffffff"/>
   </g>
   <g id="matplotlib.axis_1">
    <g id="xtick_1">
     <g id="line2d_1">
      <defs>
       <path id="mfe5c69a09c" d="M 0 0 
L 0 3.5 
" style="stroke: #000000; stroke-width: 0.8"/>
      </defs>
      <g>
       <use xlink:href="#mfe5c69a09c" x="60.846648" y="236.368" style="stroke: #000000; stroke-width: 0.8"/>
      </g>
     </g>
     <g id="text_1">
      <!-- 0 -->
      <g transform="translate(57.983523 250.206594) scale(0.09 -0.09)">
       <defs>
        <path id="DejaVuSans-30" d="M 2034 4250 
Q 1547 4250 1301 3770 
Q 1056 3291 1056 2328 
Q 1056 1369 1301 889 
Q 1547 409 2034 409 
Q 2525 409 2770 889 
Q 3016 1369 3016 2328 
Q 3016 3291 2770 3770 
Q 2525 4250 2034 4250 
z
M 2034 4750 
Q 2819 4750 3233 4129 
Q 3647 3509 3647 2328 
Q 3647 1150 3233 529 
Q 2819 -91 2034 -91 
Q 1250 -91 836 529 
Q 422 1150 422 2328 
Q 422 3509 836 4129 
Q 1250 4750 2034 4750 
z
" transform="scale(0.015625)"/>
       </defs>
       <use xlink:href="#DejaVuSans-30"/>
      </g>
     </g>
    </g>
    <g id="xtick_2">
     <g id="line2d_2">
      <g>
       <use xlink:href="#mfe5c69a09c" x="116.435739" y="236.368" style="stroke: #000000; stroke-width: 0.8"/>
      </g>
     </g>
     <g id="text_2">
      <!-- 1 -->
      <g transform="translate(113.572614 250.206594) scale(0.09 -0.09)">
       <defs>
        <path id="DejaVuSans-31" d="M 794 531 
L 1825 531 
L 1825 4091 
L 703 3866 
L 703 4441 
L 1819 4666 
L 2450 4666 
L 2450 531 
L 3481 531 
L 3481 0 
L 794 0 
L 794 531 
z
" transform="scale(0.015625)"/>
       </defs>
       <use xlink:href="#DejaVuSans-31"/>
      </g>
     </g>
    </g>
    <g id="xtick_3">
     <g id="line2d_3">
      <g>
       <use xlink:href="#mfe5c69a09c" x="172.02483" y="236.368" style="stroke: #000000; stroke-width: 0.8"/>
      </g>
     </g>
     <g id="text_3">
      <!-- 2 -->
      <g transform="translate(169.161705 250.206594) scale(0.09 -0.09)">
       <defs>
        <path id="DejaVuSans-32" d="M 1228 531 
L 3431 531 
L 3431 0 
L 469 0 
L 469 531 
Q 828 903 1448 1529 
Q 2069 2156 2228 2338 
Q 2531 2678 2651 2914 
Q 2772 3150 2772 3378 
Q 2772 3750 2511 3984 
Q 2250 4219 1831 4219 
Q 1534 4219 1204 4116 
Q 875 4013 500 3803 
L 500 4441 
Q 881 4594 1212 4672 
Q 1544 4750 1819 4750 
Q 2544 4750 2975 4387 
Q 3406 4025 3406 3419 
Q 3406 3131 3298 2873 
Q 3191 2616 2906 2266 
Q 2828 2175 2409 1742 
Q 1991 1309 1228 531 
z
" transform="scale(0.015625)"/>
       </defs>
       <use xlink:href="#DejaVuSans-32"/>
      </g>
     </g>
    </g>
    <g id="xtick_4">
     <g id="line2d_4">
      <g>
       <use xlink:href="#mfe5c69a09c" x="227.61392" y="236.368" style="stroke: #000000; stroke-width: 0.8"/>
      </g>
     </g>
     <g id="text_4">
      <!-- 3 -->
      <g transform="translate(224.750795 250.206594) scale(0.09 -0.09)">
       <defs>
        <path id="DejaVuSans-33" d="M 2597 2516 
Q 3050 2419 3304 2112 
Q 3559 1806 3559 1356 
Q 3559 666 3084 287 
Q 2609 -91 1734 -91 
Q 1441 -91 1130 -33 
Q 819 25 488 141 
L 488 750 
Q 750 597 1062 519 
Q 1375 441 1716 441 
Q 2309 441 2620 675 
Q 2931 909 2931 1356 
Q 2931 1769 2642 2001 
Q 2353 2234 1838 2234 
L 1294 2234 
L 1294 2753 
L 1863 2753 
Q 2328 2753 2575 2939 
Q 2822 3125 2822 3475 
Q 2822 3834 2567 4026 
Q 2313 4219 1838 4219 
Q 1578 4219 1281 4162 
Q 984 4106 628 3988 
L 628 4550 
Q 988 4650 1302 4700 
Q 1616 4750 1894 4750 
Q 2613 4750 3031 4423 
Q 3450 4097 3450 3541 
Q 3450 3153 3228 2886 
Q 3006 2619 2597 2516 
z
" transform="scale(0.015625)"/>
       </defs>
       <use xlink:href="#DejaVuSans-33"/>
      </g>
     </g>
    </g>
    <g id="xtick_5">
     <g id="line2d_5">
      <g>
       <use xlink:href="#mfe5c69a09c" x="283.203011" y="236.368" style="stroke: #000000; stroke-width: 0.8"/>
      </g>
     </g>
     <g id="text_5">
      <!-- 4 -->
      <g transform="translate(280.339886 250.206594) scale(0.09 -0.09)">
       <defs>
        <path id="DejaVuSans-34" d="M 2419 4116 
L 825 1625 
L 2419 1625 
L 2419 4116 
z
M 2253 4666 
L 3047 4666 
L 3047 1625 
L 3713 1625 
L 3713 1100 
L 3047 1100 
L 3047 0 
L 2419 0 
L 2419 1100 
L 313 1100 
L 313 1709 
L 2253 4666 
z
" transform="scale(0.015625)"/>
       </defs>
       <use xlink:href="#DejaVuSans-34"/>
      </g>
     </g>
    </g>
    <g id="xtick_6">
     <g id="line2d_6">
      <g>
       <use xlink:href="#mfe5c69a09c" x="338.792102" y="236.368" style="stroke: #000000; stroke-width: 0.8"/>
      </g>
     </g>
     <g id="text_6">
      <!-- 5 -->
      <g transform="translate(335.928977 250.206594) scale(0.09 -0.09)">
       <defs>
        <path id="DejaVuSans-35" d="M 691 4666 
L 3169 4666 
L 3169 4134 
L 1269 4134 
L 1269 2991 
Q 1406 3038 1543 3061 
Q 1681 3084 1819 3084 
Q 2600 3084 3056 2656 
Q 3513 2228 3513 1497 
Q 3513 744 3044 326 
Q 2575 -91 1722 -91 
Q 1428 -91 1123 -41 
Q 819 9 494 109 
L 494 744 
Q 775 591 1075 516 
Q 1375 441 1709 441 
Q 2250 441 2565 725 
Q 2881 1009 2881 1497 
Q 2881 1984 2565 2268 
Q 2250 2553 1709 2553 
Q 1456 2553 1204 2497 
Q 953 2441 691 2322 
L 691 4666 
z
" transform="scale(0.015625)"/>
       </defs>
       <use xlink:href="#DejaVuSans-35"/>
      </g>
     </g>
    </g>
    <g id="text_7">
     <!-- Zeit [ms] -->
     <g transform="translate(179.284609 262.916906) scale(0.09 -0.09)">
      <defs>
       <path id="DejaVuSans-5a" d="M 359 4666 
L 4025 4666 
L 4025 4184 
L 1075 531 
L 4097 531 
L 4097 0 
L 288 0 
L 288 481 
L 3238 4134 
L 359 4134 
L 359 4666 
z
" transform="scale(0.015625)"/>
       <path id="DejaVuSans-65" d="M 3597 1894 
L 3597 1613 
L 953 1613 
Q 991 1019 1311 708 
Q 1631 397 2203 397 
Q 2534 397 2845 478 
Q 3156 559 3463 722 
L 3463 178 
Q 3153 47 2828 -22 
Q 2503 -91 2169 -91 
Q 1331 -91 842 396 
Q 353 884 353 1716 
Q 353 2575 817 3079 
Q 1281 3584 2069 3584 
Q 2775 3584 3186 3129 
Q 3597 2675 3597 1894 
z
M 3022 2063 
Q 3016 2534 2758 2815 
Q 2500 3097 2075 3097 
Q 1594 3097 1305 2825 
Q 1016 2553 972 2059 
L 3022 2063 
z
" transform="scale(0.015625)"/>
       <path id="DejaVuSans-69" d="M 603 3500 
L 1178 3500 
L 1178 0 
L 603 0 
L 603 3500 
z
M 603 4863 
L 1178 4863 
L 1178 4134 
L 603 4134 
L 603 4863 
z
" transform="scale(0.015625)"/>
       <path id="DejaVuSans-74" d="M 1172 4494 
L 1172 3500 
L 2356 3500 
L 2356 3053 
L 1172 3053 
L 1172 1153 
Q 1172 725 1289 603 
Q 1406 481 1766 481 
L 2356 481 
L 2356 0 
L 1766 0 
Q 1100 0 847 248 
Q 594 497 594 1153 
L 594 3053 
L 172 3053 
L 172 3500 
L 594 3500 
L 594 4494 
L 1172 4494 
z
" transform="scale(0.015625)"/>
       <path id="DejaVuSans-20" transform="scale(0.015625)"/>
       <path id="DejaVuSans-5b" d="M 550 4863 
L 1875 4863 
L 1875 4416 
L 1125 4416 
L 1125 -397 
L 1875 -397 
L 1875 -844 
L 550 -844 
L 550 4863 
z
" transform="scale(0.015625)"/>
       <path id="DejaVuSans-6d" d="M 3328 2828 
Q 3544 3216 3844 3400 
Q 4144 3584 4550 3584 
Q 5097 3584 5394 3201 
Q 5691 2819 5691 2113 
L 5691 0 
L 5113 0 
L 5113 2094 
Q 5113 2597 4934 2840 
Q 4756 3084 4391 3084 
Q 3944 3084 3684 2787 
Q 3425 2491 3425 1978 
L 3425 0 
L 2847 0 
L 2847 2094 
Q 2847 2600 2669 2842 
Q 2491 3084 2119 3084 
Q 1678 3084 1418 2786 
Q 1159 2488 1159 1978 
L 1159 0 
L 581 0 
L 581 3500 
L 1159 3500 
L 1159 2956 
Q 1356 3278 1631 3431 
Q 1906 3584 2284 3584 
Q 2666 3584 2933 3390 
Q 3200 3197 3328 2828 
z
" transform="scale(0.015625)"/>
       <path id="DejaVuSans-73" d="M 2834 3397 
L 2834 2853 
Q 2591 2978 2328 3040 
Q 2066 3103 1784 3103 
Q 1356 3103 1142 2972 
Q 928 2841 928 2578 
Q 928 2378 1081 2264 
Q 1234 2150 1697 2047 
L 1894 2003 
Q 2506 1872 2764 1633 
Q 3022 1394 3022 966 
Q 3022 478 2636 193 
Q 2250 -91 1575 -91 
Q 1294 -91 989 -36 
Q 684 19 347 128 
L 347 722 
Q 666 556 975 473 
Q 1284 391 1588 391 
Q 1994 391 2212 530 
Q 2431 669 2431 922 
Q 2431 1156 2273 1281 
Q 2116 1406 1581 1522 
L 1381 1569 
Q 847 1681 609 1914 
Q 372 2147 372 2553 
Q 372 3047 722 3315 
Q 1072 3584 1716 3584 
Q 2034 3584 2315 3537 
Q 2597 3491 2834 3397 
z
" transform="scale(0.015625)"/>
       <path id="DejaVuSans-5d" d="M 1947 4863 
L 1947 -844 
L 622 -844 
L 622 -397 
L 1369 -397 
L 1369 4416 
L 622 4416 
L 622 4863 
L 1947 4863 
z
" transform="scale(0.015625)"/>
      </defs>
      <use xlink:href="#DejaVuSans-5a"/>
      <use xlink:href="#DejaVuSans-65" transform="translate(68.505859 0)"/>
      <use xlink:href="#DejaVuSans-69" transform="translate(130.029297 0)"/>
      <use xlink:href="#DejaVuSans-74" transform="translate(157.8125 0)"/>
      <use xlink:href="#DejaVuSans-20" transform="translate(197.021484 0)"/>
      <use xlink:href="#DejaVuSans-5b" transform="translate(228.808594 0)"/>
      <use xlink:href="#DejaVuSans-6d" transform="translate(267.822266 0)"/>
      <use xlink:href="#DejaVuSans-73" transform="translate(365.234375 0)"/>
      <use xlink:href="#DejaVuSans-5d" transform="translate(417.333984 0)"/>
     </g>
    </g>
   </g>
   <g id="matplotlib.axis_2">
    <g id="ytick_1">
     <g id="line2d_7">
      <defs>
       <path id="m97cca7b470" d="M 0 0 
L -3.5 0 
" style="stroke: #000000; stroke-width: 0.8"/>
      </defs>
      <g>
       <use xlink:href="#m97cca7b470" x="46.949375" y="227.709818" style="stroke: #000000; stroke-width: 0.8"/>
      </g>
     </g>
     <g id="text_8">
      <!-- 0.00 -->
      <g transform="translate(19.910313 231.129115) scale(0.09 -0.09)">
       <defs>
        <path id="DejaVuSans-2e" d="M 684 794 
L 1344 794 
L 1344 0 
L 684 0 
L 684 794 
z
" transform="scale(0.015625)"/>
       </defs>
       <use xlink:href="#DejaVuSans-30"/>
       <use xlink:href="#DejaVuSans-2e" transform="translate(63.623047 0)"/>
       <use xlink:href="#DejaVuSans-30" transform="translate(95.410156 0)"/>
       <use xlink:href="#DejaVuSans-30" transform="translate(159.033203 0)"/>
      </g>
     </g>
    </g>
    <g id="ytick_2">
     <g id="line2d_8">
      <g>
       <use xlink:href="#m97cca7b470" x="46.949375" y="205.064625" style="stroke: #000000; stroke-width: 0.8"/>
      </g>
     </g>
     <g id="text_9">
      <!-- 0.25 -->
      <g transform="translate(19.910313 208.483922) scale(0.09 -0.09)">
       <use xlink:href="#DejaVuSans-30"/>
       <use xlink:href="#DejaVuSans-2e" transform="translate(63.623047 0)"/>
       <use xlink:href="#DejaVuSans-32" transform="translate(95.410156 0)"/>
       <use xlink:href="#DejaVuSans-35" transform="translate(159.033203 0)"/>
      </g>
     </g>
    </g>
    <g id="ytick_3">
     <g id="line2d_9">
      <g>
       <use xlink:href="#m97cca7b470" x="46.949375" y="182.419431" style="stroke: #000000; stroke-width: 0.8"/>
      </g>
     </g>
     <g id="text_10">
      <!-- 0.50 -->
      <g transform="translate(19.910313 185.838728) scale(0.09 -0.09)">
       <use xlink:href="#DejaVuSans-30"/>
       <use xlink:href="#DejaVuSans-2e" transform="translate(63.623047 0)"/>
       <use xlink:href="#DejaVuSans-35" transform="translate(95.410156 0)"/>
       <use xlink:href="#DejaVuSans-30" transform="translate(159.033203 0)"/>
      </g>
     </g>
    </g>
    <g id="ytick_4">
     <g id="line2d_10">
      <g>
       <use xlink:href="#m97cca7b470" x="46.949375" y="159.774238" style="stroke: #000000; stroke-width: 0.8"/>
      </g>
     </g>
     <g id="text_11">
      <!-- 0.75 -->
      <g transform="translate(19.910313 163.193535) scale(0.09 -0.09)">
       <defs>
        <path id="DejaVuSans-37" d="M 525 4666 
L 3525 4666 
L 3525 4397 
L 1831 0 
L 1172 0 
L 2766 4134 
L 525 4134 
L 525 4666 
z
" transform="scale(0.015625)"/>
       </defs>
       <use xlink:href="#DejaVuSans-30"/>
       <use xlink:href="#DejaVuSans-2e" transform="translate(63.623047 0)"/>
       <use xlink:href="#DejaVuSans-37" transform="translate(95.410156 0)"/>
       <use xlink:href="#DejaVuSans-35" transform="translate(159.033203 0)"/>
      </g>
     </g>
    </g>
    <g id="ytick_5">
     <g id="line2d_11">
      <g>
       <use xlink:href="#m97cca7b470" x="46.949375" y="137.129044" style="stroke: #000000; stroke-width: 0.8"/>
      </g>
     </g>
     <g id="text_12">
      <!-- 1.00 -->
      <g transform="translate(19.910313 140.548341) scale(0.09 -0.09)">
       <use xlink:href="#DejaVuSans-31"/>
       <use xlink:href="#DejaVuSans-2e" transform="translate(63.623047 0)"/>
       <use xlink:href="#DejaVuSans-30" transform="translate(95.410156 0)"/>
       <use xlink:href="#DejaVuSans-30" transform="translate(159.033203 0)"/>
      </g>
     </g>
    </g>
    <g id="ytick_6">
     <g id="line2d_12">
      <g>
       <use xlink:href="#m97cca7b470" x="46.949375" y="114.483851" style="stroke: #000000; stroke-width: 0.8"/>
      </g>
     </g>
     <g id="text_13">
      <!-- 1.25 -->
      <g transform="translate(19.910313 117.903148) scale(0.09 -0.09)">
       <use xlink:href="#DejaVuSans-31"/>
       <use xlink:href="#DejaVuSans-2e" transform="translate(63.623047 0)"/>
       <use xlink:href="#DejaVuSans-32" transform="translate(95.410156 0)"/>
       <use xlink:href="#DejaVuSans-35" transform="translate(159.033203 0)"/>
      </g>
     </g>
    </g>
    <g id="ytick_7">
     <g id="line2d_13">
      <g>
       <use xlink:href="#m97cca7b470" x="46.949375" y="91.838657" style="stroke: #000000; stroke-width: 0.8"/>
      </g>
     </g>
     <g id="text_14">
      <!-- 1.50 -->
      <g transform="translate(19.910313 95.257954) scale(0.09 -0.09)">
       <use xlink:href="#DejaVuSans-31"/>
       <use xlink:href="#DejaVuSans-2e" transform="translate(63.623047 0)"/>
       <use xlink:href="#DejaVuSans-35" transform="translate(95.410156 0)"/>
       <use xlink:href="#DejaVuSans-30" transform="translate(159.033203 0)"/>
      </g>
     </g>
    </g>
    <g id="ytick_8">
     <g id="line2d_14">
      <g>
       <use xlink:href="#m97cca7b470" x="46.949375" y="69.193464" style="stroke: #000000; stroke-width: 0.8"/>
      </g>
     </g>
     <g id="text_15">
      <!-- 1.75 -->
      <g transform="translate(19.910313 72.612761) scale(0.09 -0.09)">
       <use xlink:href="#DejaVuSans-31"/>
       <use xlink:href="#DejaVuSans-2e" transform="translate(63.623047 0)"/>
       <use xlink:href="#DejaVuSans-37" transform="translate(95.410156 0)"/>
       <use xlink:href="#DejaVuSans-35" transform="translate(159.033203 0)"/>
      </g>
     </g>
    </g>
    <g id="ytick_9">
     <g id="line2d_15">
      <g>
       <use xlink:href="#m97cca7b470" x="46.949375" y="46.548271" style="stroke: #000000; stroke-width: 0.8"/>
      </g>
     </g>
     <g id="text_16">
      <!-- 2.00 -->
      <g transform="translate(19.910313 49.967567) scale(0.09 -0.09)">
       <use xlink:href="#DejaVuSans-32"/>
       <use xlink:href="#DejaVuSans-2e" transform="translate(63.623047 0)"/>
       <use xlink:href="#DejaVuSans-30" transform="translate(95.410156 0)"/>
       <use xlink:href="#DejaVuSans-30" transform="translate(159.033203 0)"/>
      </g>
     </g>
    </g>
    <g id="text_17">
     <!-- Normierte Auslenkung -->
     <g transform="translate(14.038594 191.405656) rotate(-90) scale(0.09 -0.09)">
      <defs>
       <path id="DejaVuSans-4e" d="M 628 4666 
L 1478 4666 
L 3547 763 
L 3547 4666 
L 4159 4666 
L 4159 0 
L 3309 0 
L 1241 3903 
L 1241 0 
L 628 0 
L 628 4666 
z
" transform="scale(0.015625)"/>
       <path id="DejaVuSans-6f" d="M 1959 3097 
Q 1497 3097 1228 2736 
Q 959 2375 959 1747 
Q 959 1119 1226 758 
Q 1494 397 1959 397 
Q 2419 397 2687 759 
Q 2956 1122 2956 1747 
Q 2956 2369 2687 2733 
Q 2419 3097 1959 3097 
z
M 1959 3584 
Q 2709 3584 3137 3096 
Q 3566 2609 3566 1747 
Q 3566 888 3137 398 
Q 2709 -91 1959 -91 
Q 1206 -91 779 398 
Q 353 888 353 1747 
Q 353 2609 779 3096 
Q 1206 3584 1959 3584 
z
" transform="scale(0.015625)"/>
       <path id="DejaVuSans-72" d="M 2631 2963 
Q 2534 3019 2420 3045 
Q 2306 3072 2169 3072 
Q 1681 3072 1420 2755 
Q 1159 2438 1159 1844 
L 1159 0 
L 581 0 
L 581 3500 
L 1159 3500 
L 1159 2956 
Q 1341 3275 1631 3429 
Q 1922 3584 2338 3584 
Q 2397 3584 2469 3576 
Q 2541 3569 2628 3553 
L 2631 2963 
z
" transform="scale(0.015625)"/>
       <path id="DejaVuSans-41" d="M 2188 4044 
L 1331 1722 
L 3047 1722 
L 2188 4044 
z
M 1831 4666 
L 2547 4666 
L 4325 0 
L 3669 0 
L 3244 1197 
L 1141 1197 
L 716 0 
L 50 0 
L 1831 4666 
z
" transform="scale(0.015625)"/>
       <path id="DejaVuSans-75" d="M 544 1381 
L 544 3500 
L 1119 3500 
L 1119 1403 
Q 1119 906 1312 657 
Q 1506 409 1894 409 
Q 2359 409 2629 706 
Q 2900 1003 2900 1516 
L 2900 3500 
L 3475 3500 
L 3475 0 
L 2900 0 
L 2900 538 
Q 2691 219 2414 64 
Q 2138 -91 1772 -91 
Q 1169 -91 856 284 
Q 544 659 544 1381 
z
M 1991 3584 
L 1991 3584 
z
" transform="scale(0.015625)"/>
       <path id="DejaVuSans-6c" d="M 603 4863 
L 1178 4863 
L 1178 0 
L 603 0 
L 603 4863 
z
" transform="scale(0.015625)"/>
       <path id="DejaVuSans-6e" d="M 3513 2113 
L 3513 0 
L 2938 0 
L 2938 2094 
Q 2938 2591 2744 2837 
Q 2550 3084 2163 3084 
Q 1697 3084 1428 2787 
Q 1159 2491 1159 1978 
L 1159 0 
L 581 0 
L 581 3500 
L 1159 3500 
L 1159 2956 
Q 1366 3272 1645 3428 
Q 1925 3584 2291 3584 
Q 2894 3584 3203 3211 
Q 3513 2838 3513 2113 
z
" transform="scale(0.015625)"/>
       <path id="DejaVuSans-6b" d="M 581 4863 
L 1159 4863 
L 1159 1991 
L 2875 3500 
L 3609 3500 
L 1753 1863 
L 3688 0 
L 2938 0 
L 1159 1709 
L 1159 0 
L 581 0 
L 581 4863 
z
" transform="scale(0.015625)"/>
       <path id="DejaVuSans-67" d="M 2906 1791 
Q 2906 2416 2648 2759 
Q 2391 3103 1925 3103 
Q 1463 3103 1205 2759 
Q 947 2416 947 1791 
Q 947 1169 1205 825 
Q 1463 481 1925 481 
Q 2391 481 2648 825 
Q 2906 1169 2906 1791 
z
M 3481 434 
Q 3481 -459 3084 -895 
Q 2688 -1331 1869 -1331 
Q 1566 -1331 1297 -1286 
Q 1028 -1241 775 -1147 
L 775 -588 
Q 1028 -725 1275 -790 
Q 1522 -856 1778 -856 
Q 2344 -856 2625 -561 
Q 2906 -266 2906 331 
L 2906 616 
Q 2728 306 2450 153 
Q 2172 0 1784 0 
Q 1141 0 747 490 
Q 353 981 353 1791 
Q 353 2603 747 3093 
Q 1141 3584 1784 3584 
Q 2172 3584 2450 3431 
Q 2728 3278 2906 2969 
L 2906 3500 
L 3481 3500 
L 3481 434 
z
" transform="scale(0.015625)"/>
      </defs>
      <use xlink:href="#DejaVuSans-4e"/>
      <use xlink:href="#DejaVuSans-6f" transform="translate(74.804688 0)"/>
      <use xlink:href="#DejaVuSans-72" transform="translate(135.986328 0)"/>
      <use xlink:href="#DejaVuSans-6d" transform="translate(175.349609 0)"/>
      <use xlink:href="#DejaVuSans-69" transform="translate(272.761719 0)"/>
      <use xlink:href="#DejaVuSans-65" transform="translate(300.544922 0)"/>
      <use xlink:href="#DejaVuSans-72" transform="translate(362.068359 0)"/>
      <use xlink:href="#DejaVuSans-74" transform="translate(403.181641 0)"/>
      <use xlink:href="#DejaVuSans-65" transform="translate(442.390625 0)"/>
      <use xlink:href="#DejaVuSans-20" transform="translate(503.914062 0)"/>
      <use xlink:href="#DejaVuSans-41" transform="translate(535.701172 0)"/>
      <use xlink:href="#DejaVuSans-75" transform="translate(604.109375 0)"/>
      <use xlink:href="#DejaVuSans-73" transform="translate(667.488281 0)"/>
      <use xlink:href="#DejaVuSans-6c" transform="translate(719.587891 0)"/>
      <use xlink:href="#DejaVuSans-65" transform="translate(747.371094 0)"/>
      <use xlink:href="#DejaVuSans-6e" transform="translate(808.894531 0)"/>
      <use xlink:href="#DejaVuSans-6b" transform="translate(872.273438 0)"/>
      <use xlink:href="#DejaVuSans-75" transform="translate(927.058594 0)"/>
      <use xlink:href="#DejaVuSans-6e" transform="translate(990.4375 0)"/>
      <use xlink:href="#DejaVuSans-67" transform="translate(1053.816406 0)"/>
     </g>
    </g>
   </g>
   <g id="line2d_16">
    <path d="M 60.846648 227.709818 
L 61.263774 227.609255 
L 61.680901 227.308158 
L 62.23707 226.596935 
L 62.793239 225.535548 
L 63.48845 223.724868 
L 64.322704 220.860684 
L 65.296 216.603918 
L 66.408338 210.603761 
L 67.659718 202.530913 
L 69.189183 191.007627 
L 70.996732 175.510015 
L 73.499492 151.888037 
L 78.505013 104.259001 
L 80.451605 88.160643 
L 81.981069 77.269652 
L 83.23245 69.749346 
L 84.344788 64.238333 
L 85.318083 60.387727 
L 86.152337 57.841835 
L 86.98659 56.012539 
L 87.681802 55.044553 
L 88.237971 54.63721 
L 88.655097 54.546182 
L 89.072224 54.63869 
L 89.628393 55.046242 
L 90.184562 55.775959 
L 90.879773 57.134835 
L 91.574985 58.979989 
L 92.409238 61.816706 
L 93.382534 65.947418 
L 94.494872 71.682312 
L 95.746252 79.308479 
L 97.275717 90.087329 
L 99.222308 105.617971 
L 102.003153 129.873502 
L 106.035378 164.86386 
L 107.98197 179.818217 
L 109.511435 190.029648 
L 110.901857 197.868179 
L 112.014195 203.021435 
L 112.987491 206.651338 
L 113.960787 209.420004 
L 114.79504 211.086299 
L 115.490251 211.967565 
L 116.04642 212.337937 
L 116.602589 212.410379 
L 117.158758 212.185704 
L 117.714927 211.665896 
L 118.271096 210.854092 
L 118.966308 209.435346 
L 119.800561 207.15495 
L 120.773857 203.728204 
L 121.886195 198.859361 
L 123.137575 192.26901 
L 124.527997 183.730964 
L 126.196504 172.101039 
L 128.42118 154.954674 
L 134.678082 105.775574 
L 136.485631 93.792698 
L 138.015096 85.147864 
L 139.266476 79.277283 
L 140.378814 75.063006 
L 141.35211 72.200131 
L 142.186363 70.382862 
L 142.881574 69.327526 
L 143.576786 68.694528 
L 144.132955 68.493612 
L 144.689124 68.56408 
L 145.245293 68.904654 
L 145.801461 69.512992 
L 146.496673 70.644701 
L 147.330926 72.535266 
L 148.16518 74.987698 
L 149.138475 78.525608 
L 150.250813 83.402643 
L 151.641236 90.625769 
L 153.170701 99.804175 
L 155.117292 112.911997 
L 158.315264 136.279302 
L 161.652278 160.207715 
L 163.598869 172.63479 
L 165.128334 181.119446 
L 166.518757 187.631553 
L 167.631094 191.912046 
L 168.60439 194.926536 
L 169.577686 197.225056 
L 170.411939 198.607622 
L 171.107151 199.338056 
L 171.66332 199.644241 
L 172.219489 199.702787 
L 172.775658 199.514376 
L 173.331827 199.080663 
L 174.027038 198.197641 
L 174.722249 196.942676 
L 175.556503 194.959203 
L 176.529798 192.013086 
L 177.642136 187.862144 
L 178.893517 182.279127 
L 180.422981 174.312029 
L 182.230531 163.599719 
L 184.733291 147.275671 
L 189.738812 114.373515 
L 191.685403 103.257001 
L 193.214868 95.738307 
L 194.605291 90.029645 
L 195.717629 86.327305 
L 196.690924 83.764108 
L 197.525178 82.091306 
L 198.359431 80.91541 
L 199.054643 80.320748 
L 199.610812 80.098812 
L 200.166981 80.102576 
L 200.72315 80.331193 
L 201.279319 80.782931 
L 201.97453 81.657318 
L 202.808783 83.151352 
L 203.643037 85.115383 
L 204.616333 87.973875 
L 205.728671 91.940954 
L 206.980051 97.214726 
L 208.509516 104.666787 
L 210.456107 115.401459 
L 213.375994 133.019038 
L 217.269177 156.33322 
L 219.215769 166.660121 
L 220.745233 173.710002 
L 222.135656 179.120137 
L 223.247994 182.675679 
L 224.360332 185.488659 
L 225.333628 187.310097 
L 226.167881 188.381139 
L 226.863092 188.92243 
L 227.419261 189.124076 
L 227.97543 189.119951 
L 228.531599 188.910832 
L 229.226811 188.363642 
L 229.922022 187.503512 
L 230.756275 186.067893 
L 231.729571 183.85627 
L 232.841909 180.65871 
L 234.093289 176.274421 
L 235.483712 170.537006 
L 237.152219 162.654274 
L 239.376895 150.933054 
L 246.189965 114.082823 
L 247.858472 106.571275 
L 249.387937 100.699671 
L 250.639317 96.737184 
L 251.751655 93.91511 
L 252.724951 92.019324 
L 253.559204 90.836225 
L 254.254415 90.168397 
L 254.949626 89.792797 
L 255.505795 89.703431 
L 256.061964 89.801403 
L 256.757176 90.185602 
L 257.452387 90.857071 
L 258.28664 92.034225 
L 259.120894 93.604423 
L 260.09419 95.911443 
L 261.206528 99.135967 
L 262.457908 103.446328 
L 263.987373 109.565628 
L 265.794922 117.755446 
L 268.436725 130.88655 
L 273.025119 153.756618 
L 274.97171 162.258909 
L 276.501175 168.03565 
L 277.891597 172.444761 
L 279.003935 175.323068 
L 279.977231 177.332566 
L 280.950527 178.844605 
L 281.78478 179.733151 
L 282.479992 180.181637 
L 283.175203 180.362968 
L 283.870414 180.277261 
L 284.565625 179.926274 
L 285.260837 179.313392 
L 286.09509 178.239357 
L 286.929344 176.807011 
L 287.902639 174.702817 
L 289.014977 171.762078 
L 290.266358 167.831372 
L 291.795822 162.251427 
L 293.603372 154.7839 
L 296.245174 142.811624 
L 300.833568 121.961688 
L 302.78016 114.211102 
L 304.309625 108.945428 
L 305.700047 104.926681 
L 306.812385 102.303443 
L 307.924723 100.247276 
L 308.898019 98.935677 
L 309.732272 98.18419 
L 310.427484 97.824609 
L 311.122695 97.708694 
L 311.817906 97.836035 
L 312.513117 98.204726 
L 313.208329 98.811384 
L 314.042582 99.846585 
L 315.015878 101.463658 
L 316.128216 103.823734 
L 317.379596 107.081822 
L 318.770019 111.367765 
L 320.438525 117.282314 
L 322.524159 125.540398 
L 330.032441 156.109089 
L 331.700948 161.595678 
L 333.09137 165.469368 
L 334.34275 168.332882 
L 335.455088 170.338605 
L 336.428384 171.65376 
L 337.262638 172.443492 
L 338.096891 172.915957 
L 338.792102 173.065482 
L 338.792102 173.065482 
" clip-path="url(#p2330db73d8)" style="fill: none; stroke: #e05a2b; stroke-width: 1.4; stroke-linecap: square"/>
   </g>
   <g id="line2d_17">
    <path d="M 60.846648 227.709818 
L 61.263774 227.609387 
L 61.680901 227.309216 
L 62.23707 226.601809 
L 62.932281 225.232433 
L 63.627493 223.337654 
L 64.461746 220.395224 
L 65.435042 216.086203 
L 66.54738 210.088434 
L 67.79876 202.110391 
L 69.328225 190.851412 
L 71.274816 174.683476 
L 74.333746 147.019922 
L 77.809802 115.995419 
L 79.756394 100.468478 
L 81.4249 88.904167 
L 82.815323 80.777939 
L 84.066703 74.788974 
L 85.179041 70.598536 
L 86.152337 67.845811 
L 86.98659 66.181528 
L 87.681802 65.289852 
L 88.237971 64.901181 
L 88.79414 64.800044 
L 89.350309 64.984266 
L 89.906478 65.450572 
L 90.462647 66.194608 
L 91.157858 67.506869 
L 91.992111 69.624948 
L 92.965407 72.811048 
L 94.077745 77.332913 
L 95.329125 83.437226 
L 96.85859 92.15828 
L 98.666139 103.873515 
L 101.307942 122.689611 
L 105.896336 155.484015 
L 107.842928 167.707701 
L 109.372392 176.052104 
L 110.762815 182.471609 
L 112.014195 187.185481 
L 113.126533 190.467308 
L 114.099829 192.60731 
L 114.934082 193.885691 
L 115.629294 194.55536 
L 116.185463 194.831896 
L 116.741632 194.879026 
L 117.297801 194.698615 
L 117.85397 194.293408 
L 118.549181 193.476347 
L 119.244392 192.322604 
L 120.078646 190.509086 
L 121.051941 187.830338 
L 122.164279 184.078042 
L 123.41566 179.062492 
L 124.945124 171.955352 
L 126.891716 161.710699 
L 129.811603 144.923001 
L 133.565744 123.521294 
L 135.512335 113.635605 
L 137.180842 106.278618 
L 138.571265 101.113447 
L 139.822645 97.310886 
L 140.934983 94.654195 
L 141.908279 92.912791 
L 142.742532 91.863646 
L 143.437743 91.305194 
L 144.132955 91.034197 
L 144.689124 91.023386 
L 145.384335 91.264743 
L 146.079546 91.784874 
L 146.774757 92.577476 
L 147.609011 93.877019 
L 148.582306 95.85229 
L 149.694644 98.676254 
L 150.946025 102.509198 
L 152.475489 108.009484 
L 154.283039 115.426823 
L 156.785799 126.739428 
L 161.652278 148.937278 
L 163.598869 156.719181 
L 165.128334 162.027322 
L 166.518757 166.10744 
L 167.770137 169.100161 
L 168.882475 171.18053 
L 169.85577 172.534004 
L 170.690024 173.339504 
L 171.524277 173.814656 
L 172.219489 173.958342 
L 172.9147 173.874403 
L 173.609911 173.565895 
L 174.444165 172.905543 
L 175.278418 171.938285 
L 176.251714 170.438927 
L 177.364052 168.266334 
L 178.615432 165.288467 
L 180.005855 161.399929 
L 181.813404 155.606988 
L 184.177122 147.182956 
L 190.016896 126.0324 
L 191.824446 120.431837 
L 193.35391 116.346015 
L 194.744333 113.246842 
L 195.995713 111.012671 
L 197.108051 109.49698 
L 198.081347 108.547158 
L 198.9156 108.017595 
L 199.749854 107.752038 
L 200.584107 107.749297 
L 201.418361 108.00588 
L 202.252614 108.516052 
L 203.22591 109.421113 
L 204.199206 110.644436 
L 205.311544 112.406885 
L 206.562924 114.812558 
L 208.092389 118.280452 
L 209.899938 122.975542 
L 212.402698 130.16423 
L 217.547262 145.09917 
L 219.493853 150.006579 
L 221.16236 153.612656 
L 222.552783 156.107891 
L 223.804163 157.911893 
L 224.916501 159.140821 
L 225.889797 159.915983 
L 226.863092 160.405713 
L 227.697346 160.597128 
L 228.531599 160.578867 
L 229.365853 160.353897 
L 230.339149 159.83661 
L 231.312444 159.054997 
L 232.424782 157.855505 
L 233.676162 156.145385 
L 235.066585 153.846399 
L 236.735092 150.623431 
L 238.820726 146.06711 
L 242.852951 136.552047 
L 245.633796 130.294629 
L 247.580387 126.43691 
L 249.248894 123.623737 
L 250.639317 121.694472 
L 251.890697 120.315524 
L 253.003035 119.391567 
L 254.115373 118.761567 
L 255.088669 118.455207 
L 256.061964 118.377629 
L 257.03526 118.526195 
L 258.008556 118.895599 
L 259.120894 119.577972 
L 260.233232 120.522793 
L 261.484612 121.875064 
L 262.875035 123.698001 
L 264.543542 126.259218 
L 266.629175 129.887175 
L 270.661401 137.482272 
L 273.581288 142.724365 
L 275.527879 145.786405 
L 277.196386 148.01288 
L 278.586809 149.53456 
L 279.838189 150.61735 
L 281.089569 151.411787 
L 282.201907 151.867706 
L 283.314245 152.084918 
L 284.426583 152.064271 
L 285.538921 151.810325 
L 286.651259 151.331203 
L 287.902639 150.537486 
L 289.293062 149.364334 
L 290.822527 147.761057 
L 292.630076 145.517823 
L 294.993794 142.179936 
L 302.223991 131.642956 
L 304.170582 129.347331 
L 305.839089 127.727066 
L 307.229512 126.659409 
L 308.619934 125.870635 
L 309.871315 125.410108 
L 311.122695 125.190502 
L 312.374075 125.21134 
L 313.625455 125.4674 
L 314.876836 125.948915 
L 316.267258 126.731153 
L 317.796723 127.863153 
L 319.46523 129.376179 
L 321.550863 131.584588 
L 324.609793 135.197504 
L 329.059145 140.423142 
L 331.283821 142.672185 
L 333.09137 144.193914 
L 334.759877 145.303664 
L 336.289342 146.044324 
L 337.679764 146.474405 
L 338.792102 146.647653 
L 338.792102 146.647653 
" clip-path="url(#p2330db73d8)" style="fill: none; stroke-dasharray: 5.18,2.24; stroke-dashoffset: 0; stroke: #3a7fc1; stroke-width: 1.4"/>
   </g>
   <g id="line2d_18">
    <path d="M 46.949375 137.129044 
L 352.689375 137.129044 
" clip-path="url(#p2330db73d8)" style="fill: none; stroke-dasharray: 0.6,0.99; stroke-dashoffset: 0; stroke: #888888; stroke-width: 0.6"/>
   </g>
   <g id="patch_3">
    <path d="M 46.949375 236.368 
L 46.949375 45.888 
" style="fill: none; stroke: #000000; stroke-width: 0.8; stroke-linejoin: miter; stroke-linecap: square"/>
   </g>
   <g id="patch_4">
    <path d="M 352.689375 236.368 
L 352.689375 45.888 
" style="fill: none; stroke: #000000; stroke-width: 0.8; stroke-linejoin: miter; stroke-linecap: square"/>
   </g>
   <g id="patch_5">
    <path d="M 46.949375 236.368 
L 352.689375 236.368 
" style="fill: none; stroke: #000000; stroke-width: 0.8; stroke-linejoin: miter; stroke-linecap: square"/>
   </g>
   <g id="patch_6">
    <path d="M 46.949375 45.888 
L 352.689375 45.888 
" style="fill: none; stroke: #000000; stroke-width: 0.8; stroke-linejoin: miter; stroke-linecap: square"/>
   </g>
   <g id="text_18">
    <!-- Sprungantwort (f₀ = 1000.0 Hz) -->
    <g transform="translate(120.454531 39.888) scale(0.1 -0.1)">
     <defs>
      <path id="DejaVuSans-53" d="M 3425 4513 
L 3425 3897 
Q 3066 4069 2747 4153 
Q 2428 4238 2131 4238 
Q 1616 4238 1336 4038 
Q 1056 3838 1056 3469 
Q 1056 3159 1242 3001 
Q 1428 2844 1947 2747 
L 2328 2669 
Q 3034 2534 3370 2195 
Q 3706 1856 3706 1288 
Q 3706 609 3251 259 
Q 2797 -91 1919 -91 
Q 1588 -91 1214 -16 
Q 841 59 441 206 
L 441 856 
Q 825 641 1194 531 
Q 1563 422 1919 422 
Q 2459 422 2753 634 
Q 3047 847 3047 1241 
Q 3047 1584 2836 1778 
Q 2625 1972 2144 2069 
L 1759 2144 
Q 1053 2284 737 2584 
Q 422 2884 422 3419 
Q 422 4038 858 4394 
Q 1294 4750 2059 4750 
Q 2388 4750 2728 4690 
Q 3069 4631 3425 4513 
z
" transform="scale(0.015625)"/>
      <path id="DejaVuSans-70" d="M 1159 525 
L 1159 -1331 
L 581 -1331 
L 581 3500 
L 1159 3500 
L 1159 2969 
Q 1341 3281 1617 3432 
Q 1894 3584 2278 3584 
Q 2916 3584 3314 3078 
Q 3713 2572 3713 1747 
Q 3713 922 3314 415 
Q 2916 -91 2278 -91 
Q 1894 -91 1617 61 
Q 1341 213 1159 525 
z
M 3116 1747 
Q 3116 2381 2855 2742 
Q 2594 3103 2138 3103 
Q 1681 3103 1420 2742 
Q 1159 2381 1159 1747 
Q 1159 1113 1420 752 
Q 1681 391 2138 391 
Q 2594 391 2855 752 
Q 3116 1113 3116 1747 
z
" transform="scale(0.015625)"/>
      <path id="DejaVuSans-61" d="M 2194 1759 
Q 1497 1759 1228 1600 
Q 959 1441 959 1056 
Q 959 750 1161 570 
Q 1363 391 1709 391 
Q 2188 391 2477 730 
Q 2766 1069 2766 1631 
L 2766 1759 
L 2194 1759 
z
M 3341 1997 
L 3341 0 
L 2766 0 
L 2766 531 
Q 2569 213 2275 61 
Q 1981 -91 1556 -91 
Q 1019 -91 701 211 
Q 384 513 384 1019 
Q 384 1609 779 1909 
Q 1175 2209 1959 2209 
L 2766 2209 
L 2766 2266 
Q 2766 2663 2505 2880 
Q 2244 3097 1772 3097 
Q 1472 3097 1187 3025 
Q 903 2953 641 2809 
L 641 3341 
Q 956 3463 1253 3523 
Q 1550 3584 1831 3584 
Q 2591 3584 2966 3190 
Q 3341 2797 3341 1997 
z
" transform="scale(0.015625)"/>
      <path id="DejaVuSans-77" d="M 269 3500 
L 844 3500 
L 1563 769 
L 2278 3500 
L 2956 3500 
L 3675 769 
L 4391 3500 
L 4966 3500 
L 4050 0 
L 3372 0 
L 2619 2869 
L 1863 0 
L 1184 0 
L 269 3500 
z
" transform="scale(0.015625)"/>
      <path id="DejaVuSans-28" d="M 1984 4856 
Q 1566 4138 1362 3434 
Q 1159 2731 1159 2009 
Q 1159 1288 1364 580 
Q 1569 -128 1984 -844 
L 1484 -844 
Q 1016 -109 783 600 
Q 550 1309 550 2009 
Q 550 2706 781 3412 
Q 1013 4119 1484 4856 
L 1984 4856 
z
" transform="scale(0.015625)"/>
      <path id="DejaVuSans-66" d="M 2375 4863 
L 2375 4384 
L 1825 4384 
Q 1516 4384 1395 4259 
Q 1275 4134 1275 3809 
L 1275 3500 
L 2222 3500 
L 2222 3053 
L 1275 3053 
L 1275 0 
L 697 0 
L 697 3053 
L 147 3053 
L 147 3500 
L 697 3500 
L 697 3744 
Q 697 4328 969 4595 
Q 1241 4863 1831 4863 
L 2375 4863 
z
" transform="scale(0.015625)"/>
      <path id="DejaVuSans-2080" d="M 1781 2091 
Q 1625 2360 1309 2360 
Q 994 2360 838 2091 
Q 678 1822 678 1285 
Q 678 744 838 476 
Q 994 207 1309 207 
Q 1625 207 1781 476 
Q 1941 744 1941 1285 
Q 1941 1822 1781 2091 
z
M 1309 2638 
Q 1813 2638 2078 2291 
Q 2344 1944 2344 1285 
Q 2344 622 2078 275 
Q 1813 -71 1309 -71 
Q 803 -71 537 275 
Q 272 622 272 1285 
Q 272 1944 537 2291 
Q 803 2638 1309 2638 
z
" transform="scale(0.015625)"/>
      <path id="DejaVuSans-3d" d="M 678 2906 
L 4684 2906 
L 4684 2381 
L 678 2381 
L 678 2906 
z
M 678 1631 
L 4684 1631 
L 4684 1100 
L 678 1100 
L 678 1631 
z
" transform="scale(0.015625)"/>
      <path id="DejaVuSans-48" d="M 628 4666 
L 1259 4666 
L 1259 2753 
L 3553 2753 
L 3553 4666 
L 4184 4666 
L 4184 0 
L 3553 0 
L 3553 2222 
L 1259 2222 
L 1259 0 
L 628 0 
L 628 4666 
z
" transform="scale(0.015625)"/>
      <path id="DejaVuSans-7a" d="M 353 3500 
L 3084 3500 
L 3084 2975 
L 922 459 
L 3084 459 
L 3084 0 
L 275 0 
L 275 525 
L 2438 3041 
L 353 3041 
L 353 3500 
z
" transform="scale(0.015625)"/>
      <path id="DejaVuSans-29" d="M 513 4856 
L 1013 4856 
Q 1481 4119 1714 3412 
Q 1947 2706 1947 2009 
Q 1947 1309 1714 600 
Q 1481 -109 1013 -844 
L 513 -844 
Q 928 -128 1133 580 
Q 1338 1288 1338 2009 
Q 1338 2731 1133 3434 
Q 928 4138 513 4856 
z
" transform="scale(0.015625)"/>
     </defs>
     <use xlink:href="#DejaVuSans-53"/>
     <use xlink:href="#DejaVuSans-70" transform="translate(63.476562 0)"/>
     <use xlink:href="#DejaVuSans-72" transform="translate(126.953125 0)"/>
     <use xlink:href="#DejaVuSans-75" transform="translate(168.066406 0)"/>
     <use xlink:href="#DejaVuSans-6e" transform="translate(231.445312 0)"/>
     <use xlink:href="#DejaVuSans-67" transform="translate(294.824219 0)"/>
     <use xlink:href="#DejaVuSans-61" transform="translate(358.300781 0)"/>
     <use xlink:href="#DejaVuSans-6e" transform="translate(419.580078 0)"/>
     <use xlink:href="#DejaVuSans-74" transform="translate(482.958984 0)"/>
     <use xlink:href="#DejaVuSans-77" transform="translate(522.167969 0)"/>
     <use xlink:href="#DejaVuSans-6f" transform="translate(603.955078 0)"/>
     <use xlink:href="#DejaVuSans-72" transform="translate(665.136719 0)"/>
     <use xlink:href="#DejaVuSans-74" transform="translate(706.25 0)"/>
     <use xlink:href="#DejaVuSans-20" transform="translate(745.458984 0)"/>
     <use xlink:href="#DejaVuSans-28" transform="translate(777.246094 0)"/>
     <use xlink:href="#DejaVuSans-66" transform="translate(816.259766 0)"/>
     <use xlink:href="#DejaVuSans-2080" transform="translate(851.464844 0)"/>
     <use xlink:href="#DejaVuSans-20" transform="translate(891.552734 0)"/>
     <use xlink:href="#DejaVuSans-3d" transform="translate(923.339844 0)"/>
     <use xlink:href="#DejaVuSans-20" transform="translate(1007.128906 0)"/>
     <use xlink:href="#DejaVuSans-31" transform="translate(1038.916016 0)"/>
     <use xlink:href="#DejaVuSans-30" transform="translate(1102.539062 0)"/>
     <use xlink:href="#DejaVuSans-30" transform="translate(1166.162109 0)"/>
     <use xlink:href="#DejaVuSans-30" transform="translate(1229.785156 0)"/>
     <use xlink:href="#DejaVuSans-2e" transform="translate(1293.408203 0)"/>
     <use xlink:href="#DejaVuSans-30" transform="translate(1325.195312 0)"/>
     <use xlink:href="#DejaVuSans-20" transform="translate(1388.818359 0)"/>
     <use xlink:href="#DejaVuSans-48" transform="translate(1420.605469 0)"/>
     <use xlink:href="#DejaVuSans-7a" transform="translate(1495.800781 0)"/>
     <use xlink:href="#DejaVuSans-29" transform="translate(1548.291016 0)"/>
    </g>
   </g>
   <g id="legend_1">
    <g id="patch_7">
     <path d="M 230.105625 75.773 
L 347.089375 75.773 
Q 348.689375 75.773 348.689375 74.173 
L 348.689375 51.488 
Q 348.689375 49.888 347.089375 49.888 
L 230.105625 49.888 
Q 228.505625 49.888 228.505625 51.488 
L 228.505625 74.173 
Q 228.505625 75.773 230.105625 75.773 
z
" style="fill: #ffffff; opacity: 0.8; stroke: #cccccc; stroke-linejoin: miter"/>
    </g>
    <g id="line2d_19">
     <path d="M 231.705625 56.36675 
L 239.705625 56.36675 
L 247.705625 56.36675 
" style="fill: none; stroke: #e05a2b; stroke-width: 1.4; stroke-linecap: square"/>
    </g>
    <g id="text_19">
     <!-- Katze  Q=17, D=0.029 -->
     <g transform="translate(254.105625 59.16675) scale(0.08 -0.08)">
      <defs>
       <path id="DejaVuSans-4b" d="M 628 4666 
L 1259 4666 
L 1259 2694 
L 3353 4666 
L 4166 4666 
L 1850 2491 
L 4331 0 
L 3500 0 
L 1259 2247 
L 1259 0 
L 628 0 
L 628 4666 
z
" transform="scale(0.015625)"/>
       <path id="DejaVuSans-51" d="M 2522 4238 
Q 1834 4238 1429 3725 
Q 1025 3213 1025 2328 
Q 1025 1447 1429 934 
Q 1834 422 2522 422 
Q 3209 422 3611 934 
Q 4013 1447 4013 2328 
Q 4013 3213 3611 3725 
Q 3209 4238 2522 4238 
z
M 3406 84 
L 4238 -825 
L 3475 -825 
L 2784 -78 
Q 2681 -84 2626 -87 
Q 2572 -91 2522 -91 
Q 1538 -91 948 567 
Q 359 1225 359 2328 
Q 359 3434 948 4092 
Q 1538 4750 2522 4750 
Q 3503 4750 4090 4092 
Q 4678 3434 4678 2328 
Q 4678 1516 4351 937 
Q 4025 359 3406 84 
z
" transform="scale(0.015625)"/>
       <path id="DejaVuSans-2c" d="M 750 794 
L 1409 794 
L 1409 256 
L 897 -744 
L 494 -744 
L 750 256 
L 750 794 
z
" transform="scale(0.015625)"/>
       <path id="DejaVuSans-44" d="M 1259 4147 
L 1259 519 
L 2022 519 
Q 2988 519 3436 956 
Q 3884 1394 3884 2338 
Q 3884 3275 3436 3711 
Q 2988 4147 2022 4147 
L 1259 4147 
z
M 628 4666 
L 1925 4666 
Q 3281 4666 3915 4102 
Q 4550 3538 4550 2338 
Q 4550 1131 3912 565 
Q 3275 0 1925 0 
L 628 0 
L 628 4666 
z
" transform="scale(0.015625)"/>
       <path id="DejaVuSans-39" d="M 703 97 
L 703 672 
Q 941 559 1184 500 
Q 1428 441 1663 441 
Q 2288 441 2617 861 
Q 2947 1281 2994 2138 
Q 2813 1869 2534 1725 
Q 2256 1581 1919 1581 
Q 1219 1581 811 2004 
Q 403 2428 403 3163 
Q 403 3881 828 4315 
Q 1253 4750 1959 4750 
Q 2769 4750 3195 4129 
Q 3622 3509 3622 2328 
Q 3622 1225 3098 567 
Q 2575 -91 1691 -91 
Q 1453 -91 1209 -44 
Q 966 3 703 97 
z
M 1959 2075 
Q 2384 2075 2632 2365 
Q 2881 2656 2881 3163 
Q 2881 3666 2632 3958 
Q 2384 4250 1959 4250 
Q 1534 4250 1286 3958 
Q 1038 3666 1038 3163 
Q 1038 2656 1286 2365 
Q 1534 2075 1959 2075 
z
" transform="scale(0.015625)"/>
      </defs>
      <use xlink:href="#DejaVuSans-4b"/>
      <use xlink:href="#DejaVuSans-61" transform="translate(63.826172 0)"/>
      <use xlink:href="#DejaVuSans-74" transform="translate(125.105469 0)"/>
      <use xlink:href="#DejaVuSans-7a" transform="translate(164.314453 0)"/>
      <use xlink:href="#DejaVuSans-65" transform="translate(216.804688 0)"/>
      <use xlink:href="#DejaVuSans-20" transform="translate(278.328125 0)"/>
      <use xlink:href="#DejaVuSans-20" transform="translate(310.115234 0)"/>
      <use xlink:href="#DejaVuSans-51" transform="translate(341.902344 0)"/>
      <use xlink:href="#DejaVuSans-3d" transform="translate(420.613281 0)"/>
      <use xlink:href="#DejaVuSans-31" transform="translate(504.402344 0)"/>
      <use xlink:href="#DejaVuSans-37" transform="translate(568.025391 0)"/>
      <use xlink:href="#DejaVuSans-2c" transform="translate(631.648438 0)"/>
      <use xlink:href="#DejaVuSans-20" transform="translate(663.435547 0)"/>
      <use xlink:href="#DejaVuSans-44" transform="translate(695.222656 0)"/>
      <use xlink:href="#DejaVuSans-3d" transform="translate(772.224609 0)"/>
      <use xlink:href="#DejaVuSans-30" transform="translate(856.013672 0)"/>
      <use xlink:href="#DejaVuSans-2e" transform="translate(919.636719 0)"/>
      <use xlink:href="#DejaVuSans-30" transform="translate(951.423828 0)"/>
      <use xlink:href="#DejaVuSans-32" transform="translate(1015.046875 0)"/>
      <use xlink:href="#DejaVuSans-39" transform="translate(1078.669922 0)"/>
     </g>
    </g>
    <g id="line2d_20">
     <path d="M 231.705625 68.10925 
L 239.705625 68.10925 
L 247.705625 68.10925 
" style="fill: none; stroke-dasharray: 5.18,2.24; stroke-dashoffset: 0; stroke: #3a7fc1; stroke-width: 1.4"/>
    </g>
    <g id="text_20">
     <!-- Hund   Q=7, D=0.071 -->
     <g transform="translate(254.105625 70.90925) scale(0.08 -0.08)">
      <defs>
       <path id="DejaVuSans-64" d="M 2906 2969 
L 2906 4863 
L 3481 4863 
L 3481 0 
L 2906 0 
L 2906 525 
Q 2725 213 2448 61 
Q 2172 -91 1784 -91 
Q 1150 -91 751 415 
Q 353 922 353 1747 
Q 353 2572 751 3078 
Q 1150 3584 1784 3584 
Q 2172 3584 2448 3432 
Q 2725 3281 2906 2969 
z
M 947 1747 
Q 947 1113 1208 752 
Q 1469 391 1925 391 
Q 2381 391 2643 752 
Q 2906 1113 2906 1747 
Q 2906 2381 2643 2742 
Q 2381 3103 1925 3103 
Q 1469 3103 1208 2742 
Q 947 2381 947 1747 
z
" transform="scale(0.015625)"/>
      </defs>
      <use xlink:href="#DejaVuSans-48"/>
      <use xlink:href="#DejaVuSans-75" transform="translate(75.195312 0)"/>
      <use xlink:href="#DejaVuSans-6e" transform="translate(138.574219 0)"/>
      <use xlink:href="#DejaVuSans-64" transform="translate(201.953125 0)"/>
      <use xlink:href="#DejaVuSans-20" transform="translate(265.429688 0)"/>
      <use xlink:href="#DejaVuSans-20" transform="translate(297.216797 0)"/>
      <use xlink:href="#DejaVuSans-20" transform="translate(329.003906 0)"/>
      <use xlink:href="#DejaVuSans-51" transform="translate(360.791016 0)"/>
      <use xlink:href="#DejaVuSans-3d" transform="translate(439.501953 0)"/>
      <use xlink:href="#DejaVuSans-37" transform="translate(523.291016 0)"/>
      <use xlink:href="#DejaVuSans-2c" transform="translate(586.914062 0)"/>
      <use xlink:href="#DejaVuSans-20" transform="translate(618.701172 0)"/>
      <use xlink:href="#DejaVuSans-44" transform="translate(650.488281 0)"/>
      <use xlink:href="#DejaVuSans-3d" transform="translate(727.490234 0)"/>
      <use xlink:href="#DejaVuSans-30" transform="translate(811.279297 0)"/>
      <use xlink:href="#DejaVuSans-2e" transform="translate(874.902344 0)"/>
      <use xlink:href="#DejaVuSans-30" transform="translate(906.689453 0)"/>
      <use xlink:href="#DejaVuSans-37" transform="translate(970.3125 0)"/>
      <use xlink:href="#DejaVuSans-31" transform="translate(1033.935547 0)"/>
     </g>
    </g>
   </g>
  </g>
  <g id="axes_2">
   <g id="patch_8">
    <path d="M 401.729375 236.368 
L 707.469375 236.368 
L 707.469375 45.888 
L 401.729375 45.888 
z
" style="fill: #ffffff"/>
   </g>
   <g id="matplotlib.axis_3">
    <g id="xtick_7">
     <g id="line2d_21">
      <path d="M 409.954292 236.368 
L 409.954292 45.888 
" clip-path="url(#p9d68a0fbbc)" style="fill: none; stroke: #b0b0b0; stroke-width: 0.4; stroke-linecap: square"/>
     </g>
     <g id="line2d_22">
      <g>
       <use xlink:href="#mfe5c69a09c" x="409.954292" y="236.368" style="stroke: #000000; stroke-width: 0.8"/>
      </g>
     </g>
     <g id="text_21">
      <!-- 0 -->
      <g transform="translate(407.091167 250.206594) scale(0.09 -0.09)">
       <use xlink:href="#DejaVuSans-30"/>
      </g>
     </g>
    </g>
    <g id="xtick_8">
     <g id="line2d_23">
      <path d="M 466.677854 236.368 
L 466.677854 45.888 
" clip-path="url(#p9d68a0fbbc)" style="fill: none; stroke: #b0b0b0; stroke-width: 0.4; stroke-linecap: square"/>
     </g>
     <g id="line2d_24">
      <g>
       <use xlink:href="#mfe5c69a09c" x="466.677854" y="236.368" style="stroke: #000000; stroke-width: 0.8"/>
      </g>
     </g>
     <g id="text_22">
      <!-- 1000 -->
      <g transform="translate(455.225354 250.206594) scale(0.09 -0.09)">
       <use xlink:href="#DejaVuSans-31"/>
       <use xlink:href="#DejaVuSans-30" transform="translate(63.623047 0)"/>
       <use xlink:href="#DejaVuSans-30" transform="translate(127.246094 0)"/>
       <use xlink:href="#DejaVuSans-30" transform="translate(190.869141 0)"/>
      </g>
     </g>
    </g>
    <g id="xtick_9">
     <g id="line2d_25">
      <path d="M 523.401416 236.368 
L 523.401416 45.888 
" clip-path="url(#p9d68a0fbbc)" style="fill: none; stroke: #b0b0b0; stroke-width: 0.4; stroke-linecap: square"/>
     </g>
     <g id="line2d_26">
      <g>
       <use xlink:href="#mfe5c69a09c" x="523.401416" y="236.368" style="stroke: #000000; stroke-width: 0.8"/>
      </g>
     </g>
     <g id="text_23">
      <!-- 2000 -->
      <g transform="translate(511.948916 250.206594) scale(0.09 -0.09)">
       <use xlink:href="#DejaVuSans-32"/>
       <use xlink:href="#DejaVuSans-30" transform="translate(63.623047 0)"/>
       <use xlink:href="#DejaVuSans-30" transform="translate(127.246094 0)"/>
       <use xlink:href="#DejaVuSans-30" transform="translate(190.869141 0)"/>
      </g>
     </g>
    </g>
    <g id="xtick_10">
     <g id="line2d_27">
      <path d="M 580.124978 236.368 
L 580.124978 45.888 
" clip-path="url(#p9d68a0fbbc)" style="fill: none; stroke: #b0b0b0; stroke-width: 0.4; stroke-linecap: square"/>
     </g>
     <g id="line2d_28">
      <g>
       <use xlink:href="#mfe5c69a09c" x="580.124978" y="236.368" style="stroke: #000000; stroke-width: 0.8"/>
      </g>
     </g>
     <g id="text_24">
      <!-- 3000 -->
      <g transform="translate(568.672478 250.206594) scale(0.09 -0.09)">
       <use xlink:href="#DejaVuSans-33"/>
       <use xlink:href="#DejaVuSans-30" transform="translate(63.623047 0)"/>
       <use xlink:href="#DejaVuSans-30" transform="translate(127.246094 0)"/>
       <use xlink:href="#DejaVuSans-30" transform="translate(190.869141 0)"/>
      </g>
     </g>
    </g>
    <g id="xtick_11">
     <g id="line2d_29">
      <path d="M 636.84854 236.368 
L 636.84854 45.888 
" clip-path="url(#p9d68a0fbbc)" style="fill: none; stroke: #b0b0b0; stroke-width: 0.4; stroke-linecap: square"/>
     </g>
     <g id="line2d_30">
      <g>
       <use xlink:href="#mfe5c69a09c" x="636.84854" y="236.368" style="stroke: #000000; stroke-width: 0.8"/>
      </g>
     </g>
     <g id="text_25">
      <!-- 4000 -->
      <g transform="translate(625.39604 250.206594) scale(0.09 -0.09)">
       <use xlink:href="#DejaVuSans-34"/>
       <use xlink:href="#DejaVuSans-30" transform="translate(63.623047 0)"/>
       <use xlink:href="#DejaVuSans-30" transform="translate(127.246094 0)"/>
       <use xlink:href="#DejaVuSans-30" transform="translate(190.869141 0)"/>
      </g>
     </g>
    </g>
    <g id="xtick_12">
     <g id="line2d_31">
      <path d="M 693.572102 236.368 
L 693.572102 45.888 
" clip-path="url(#p9d68a0fbbc)" style="fill: none; stroke: #b0b0b0; stroke-width: 0.4; stroke-linecap: square"/>
     </g>
     <g id="line2d_32">
      <g>
       <use xlink:href="#mfe5c69a09c" x="693.572102" y="236.368" style="stroke: #000000; stroke-width: 0.8"/>
      </g>
     </g>
     <g id="text_26">
      <!-- 5000 -->
      <g transform="translate(682.119602 250.206594) scale(0.09 -0.09)">
       <use xlink:href="#DejaVuSans-35"/>
       <use xlink:href="#DejaVuSans-30" transform="translate(63.623047 0)"/>
       <use xlink:href="#DejaVuSans-30" transform="translate(127.246094 0)"/>
       <use xlink:href="#DejaVuSans-30" transform="translate(190.869141 0)"/>
      </g>
     </g>
    </g>
    <g id="text_27">
     <!-- Frequenz [Hz] -->
     <g transform="translate(523.441094 262.916906) scale(0.09 -0.09)">
      <defs>
       <path id="DejaVuSans-46" d="M 628 4666 
L 3309 4666 
L 3309 4134 
L 1259 4134 
L 1259 2759 
L 3109 2759 
L 3109 2228 
L 1259 2228 
L 1259 0 
L 628 0 
L 628 4666 
z
" transform="scale(0.015625)"/>
       <path id="DejaVuSans-71" d="M 947 1747 
Q 947 1113 1208 752 
Q 1469 391 1925 391 
Q 2381 391 2643 752 
Q 2906 1113 2906 1747 
Q 2906 2381 2643 2742 
Q 2381 3103 1925 3103 
Q 1469 3103 1208 2742 
Q 947 2381 947 1747 
z
M 2906 525 
Q 2725 213 2448 61 
Q 2172 -91 1784 -91 
Q 1150 -91 751 415 
Q 353 922 353 1747 
Q 353 2572 751 3078 
Q 1150 3584 1784 3584 
Q 2172 3584 2448 3432 
Q 2725 3281 2906 2969 
L 2906 3500 
L 3481 3500 
L 3481 -1331 
L 2906 -1331 
L 2906 525 
z
" transform="scale(0.015625)"/>
      </defs>
      <use xlink:href="#DejaVuSans-46"/>
      <use xlink:href="#DejaVuSans-72" transform="translate(50.269531 0)"/>
      <use xlink:href="#DejaVuSans-65" transform="translate(89.132812 0)"/>
      <use xlink:href="#DejaVuSans-71" transform="translate(150.65625 0)"/>
      <use xlink:href="#DejaVuSans-75" transform="translate(214.132812 0)"/>
      <use xlink:href="#DejaVuSans-65" transform="translate(277.511719 0)"/>
      <use xlink:href="#DejaVuSans-6e" transform="translate(339.035156 0)"/>
      <use xlink:href="#DejaVuSans-7a" transform="translate(402.414062 0)"/>
      <use xlink:href="#DejaVuSans-20" transform="translate(454.904297 0)"/>
      <use xlink:href="#DejaVuSans-5b" transform="translate(486.691406 0)"/>
      <use xlink:href="#DejaVuSans-48" transform="translate(525.705078 0)"/>
      <use xlink:href="#DejaVuSans-7a" transform="translate(600.900391 0)"/>
      <use xlink:href="#DejaVuSans-5d" transform="translate(653.390625 0)"/>
     </g>
    </g>
   </g>
   <g id="matplotlib.axis_4">
    <g id="ytick_10">
     <g id="line2d_33">
      <path d="M 401.729375 235.641597 
L 707.469375 235.641597 
" clip-path="url(#p9d68a0fbbc)" style="fill: none; stroke: #b0b0b0; stroke-width: 0.4; stroke-linecap: square"/>
     </g>
     <g id="line2d_34">
      <g>
       <use xlink:href="#m97cca7b470" x="401.729375" y="235.641597" style="stroke: #000000; stroke-width: 0.8"/>
      </g>
     </g>
     <g id="text_28">
      <!-- −30 -->
      <g transform="translate(375.735156 239.060894) scale(0.09 -0.09)">
       <defs>
        <path id="DejaVuSans-2212" d="M 678 2272 
L 4684 2272 
L 4684 1741 
L 678 1741 
L 678 2272 
z
" transform="scale(0.015625)"/>
       </defs>
       <use xlink:href="#DejaVuSans-2212"/>
       <use xlink:href="#DejaVuSans-33" transform="translate(83.789062 0)"/>
       <use xlink:href="#DejaVuSans-30" transform="translate(147.412109 0)"/>
      </g>
     </g>
    </g>
    <g id="ytick_11">
     <g id="line2d_35">
      <path d="M 401.729375 202.481015 
L 707.469375 202.481015 
" clip-path="url(#p9d68a0fbbc)" style="fill: none; stroke: #b0b0b0; stroke-width: 0.4; stroke-linecap: square"/>
     </g>
     <g id="line2d_36">
      <g>
       <use xlink:href="#m97cca7b470" x="401.729375" y="202.481015" style="stroke: #000000; stroke-width: 0.8"/>
      </g>
     </g>
     <g id="text_29">
      <!-- −20 -->
      <g transform="translate(375.735156 205.900312) scale(0.09 -0.09)">
       <use xlink:href="#DejaVuSans-2212"/>
       <use xlink:href="#DejaVuSans-32" transform="translate(83.789062 0)"/>
       <use xlink:href="#DejaVuSans-30" transform="translate(147.412109 0)"/>
      </g>
     </g>
    </g>
    <g id="ytick_12">
     <g id="line2d_37">
      <path d="M 401.729375 169.320432 
L 707.469375 169.320432 
" clip-path="url(#p9d68a0fbbc)" style="fill: none; stroke: #b0b0b0; stroke-width: 0.4; stroke-linecap: square"/>
     </g>
     <g id="line2d_38">
      <g>
       <use xlink:href="#m97cca7b470" x="401.729375" y="169.320432" style="stroke: #000000; stroke-width: 0.8"/>
      </g>
     </g>
     <g id="text_30">
      <!-- −10 -->
      <g transform="translate(375.735156 172.739729) scale(0.09 -0.09)">
       <use xlink:href="#DejaVuSans-2212"/>
       <use xlink:href="#DejaVuSans-31" transform="translate(83.789062 0)"/>
       <use xlink:href="#DejaVuSans-30" transform="translate(147.412109 0)"/>
      </g>
     </g>
    </g>
    <g id="ytick_13">
     <g id="line2d_39">
      <path d="M 401.729375 136.15985 
L 707.469375 136.15985 
" clip-path="url(#p9d68a0fbbc)" style="fill: none; stroke: #b0b0b0; stroke-width: 0.4; stroke-linecap: square"/>
     </g>
     <g id="line2d_40">
      <g>
       <use xlink:href="#m97cca7b470" x="401.729375" y="136.15985" style="stroke: #000000; stroke-width: 0.8"/>
      </g>
     </g>
     <g id="text_31">
      <!-- 0 -->
      <g transform="translate(389.003125 139.579147) scale(0.09 -0.09)">
       <use xlink:href="#DejaVuSans-30"/>
      </g>
     </g>
    </g>
    <g id="ytick_14">
     <g id="line2d_41">
      <path d="M 401.729375 102.999267 
L 707.469375 102.999267 
" clip-path="url(#p9d68a0fbbc)" style="fill: none; stroke: #b0b0b0; stroke-width: 0.4; stroke-linecap: square"/>
     </g>
     <g id="line2d_42">
      <g>
       <use xlink:href="#m97cca7b470" x="401.729375" y="102.999267" style="stroke: #000000; stroke-width: 0.8"/>
      </g>
     </g>
     <g id="text_32">
      <!-- 10 -->
      <g transform="translate(383.276875 106.418564) scale(0.09 -0.09)">
       <use xlink:href="#DejaVuSans-31"/>
       <use xlink:href="#DejaVuSans-30" transform="translate(63.623047 0)"/>
      </g>
     </g>
    </g>
    <g id="ytick_15">
     <g id="line2d_43">
      <path d="M 401.729375 69.838685 
L 707.469375 69.838685 
" clip-path="url(#p9d68a0fbbc)" style="fill: none; stroke: #b0b0b0; stroke-width: 0.4; stroke-linecap: square"/>
     </g>
     <g id="line2d_44">
      <g>
       <use xlink:href="#m97cca7b470" x="401.729375" y="69.838685" style="stroke: #000000; stroke-width: 0.8"/>
      </g>
     </g>
     <g id="text_33">
      <!-- 20 -->
      <g transform="translate(383.276875 73.257982) scale(0.09 -0.09)">
       <use xlink:href="#DejaVuSans-32"/>
       <use xlink:href="#DejaVuSans-30" transform="translate(63.623047 0)"/>
      </g>
     </g>
    </g>
    <g id="text_34">
     <!-- |H(f)| [dB] -->
     <g transform="translate(369.613125 163.525344) rotate(-90) scale(0.09 -0.09)">
      <defs>
       <path id="DejaVuSans-7c" d="M 1344 4891 
L 1344 -1509 
L 813 -1509 
L 813 4891 
L 1344 4891 
z
" transform="scale(0.015625)"/>
       <path id="DejaVuSans-42" d="M 1259 2228 
L 1259 519 
L 2272 519 
Q 2781 519 3026 730 
Q 3272 941 3272 1375 
Q 3272 1813 3026 2020 
Q 2781 2228 2272 2228 
L 1259 2228 
z
M 1259 4147 
L 1259 2741 
L 2194 2741 
Q 2656 2741 2882 2914 
Q 3109 3088 3109 3444 
Q 3109 3797 2882 3972 
Q 2656 4147 2194 4147 
L 1259 4147 
z
M 628 4666 
L 2241 4666 
Q 2963 4666 3353 4366 
Q 3744 4066 3744 3513 
Q 3744 3084 3544 2831 
Q 3344 2578 2956 2516 
Q 3422 2416 3680 2098 
Q 3938 1781 3938 1306 
Q 3938 681 3513 340 
Q 3088 0 2303 0 
L 628 0 
L 628 4666 
z
" transform="scale(0.015625)"/>
      </defs>
      <use xlink:href="#DejaVuSans-7c"/>
      <use xlink:href="#DejaVuSans-48" transform="translate(33.691406 0)"/>
      <use xlink:href="#DejaVuSans-28" transform="translate(108.886719 0)"/>
      <use xlink:href="#DejaVuSans-66" transform="translate(147.900391 0)"/>
      <use xlink:href="#DejaVuSans-29" transform="translate(183.105469 0)"/>
      <use xlink:href="#DejaVuSans-7c" transform="translate(222.119141 0)"/>
      <use xlink:href="#DejaVuSans-20" transform="translate(255.810547 0)"/>
      <use xlink:href="#DejaVuSans-5b" transform="translate(287.597656 0)"/>
      <use xlink:href="#DejaVuSans-64" transform="translate(326.611328 0)"/>
      <use xlink:href="#DejaVuSans-42" transform="translate(390.087891 0)"/>
      <use xlink:href="#DejaVuSans-5d" transform="translate(458.691406 0)"/>
     </g>
    </g>
   </g>
   <g id="line2d_45">
    <path d="M 415.626648 135.870879 
L 419.102704 135.402094 
L 422.439718 134.732123 
L 425.776732 133.831343 
L 428.974704 132.73144 
L 432.033633 131.438054 
L 434.95352 129.954402 
L 437.734365 128.281621 
L 440.237126 126.524453 
L 442.600844 124.608272 
L 444.82552 122.53577 
L 447.050196 120.150805 
L 449.13583 117.570145 
L 451.082421 114.790357 
L 452.88997 111.809097 
L 454.558477 108.626481 
L 456.087942 105.247164 
L 457.617407 101.296297 
L 459.007829 97.051861 
L 460.259209 92.520979 
L 461.51059 87.075254 
L 462.622928 81.186359 
L 463.735266 73.971419 
L 464.986646 64.087215 
L 465.959942 56.663708 
L 466.377068 54.864991 
L 466.655153 54.546182 
L 466.794195 54.68378 
L 467.07228 55.532633 
L 467.489406 57.984116 
L 468.32366 64.966423 
L 469.853125 77.568371 
L 471.104505 85.813032 
L 472.355885 92.542637 
L 473.746308 98.754167 
L 475.275772 104.495373 
L 476.944279 109.825909 
L 478.751828 114.802155 
L 480.69842 119.473061 
L 482.784054 123.879829 
L 485.00873 128.05677 
L 487.372448 132.032418 
L 490.014251 136.030929 
L 492.795096 139.83537 
L 495.854025 143.635542 
L 499.051997 147.258803 
L 502.528053 150.865814 
L 506.282194 154.44214 
L 510.314419 157.977676 
L 514.624729 161.465524 
L 519.352165 165.001273 
L 524.357686 168.467539 
L 529.780334 171.951107 
L 535.620108 175.435201 
L 541.877009 178.906705 
L 548.551037 182.355433 
L 555.781234 185.838269 
L 563.5676 189.336395 
L 571.910135 192.834574 
L 580.808839 196.320551 
L 590.263712 199.784538 
L 600.413796 203.264938 
L 611.259091 206.746976 
L 622.93864 210.259057 
L 635.3134 213.74585 
L 648.522414 217.235634 
L 662.704723 220.749494 
L 677.860328 224.271226 
L 693.572102 227.69923 
L 693.572102 227.69923 
" clip-path="url(#p9d68a0fbbc)" style="fill: none; stroke: #e05a2b; stroke-width: 1.4; stroke-linecap: square"/>
   </g>
   <g id="line2d_46">
    <path d="M 415.626648 135.873369 
L 419.102704 135.408785 
L 422.439718 134.745174 
L 425.776732 133.85365 
L 428.974704 132.766218 
L 432.033633 131.489292 
L 434.95352 130.027161 
L 437.734365 128.382435 
L 440.376168 126.556461 
L 442.878928 124.549756 
L 445.242647 122.362532 
L 447.467323 119.995377 
L 449.552956 117.450204 
L 451.499548 114.731607 
L 453.446139 111.610752 
L 455.253689 108.273917 
L 456.922196 104.738312 
L 458.590702 100.680981 
L 460.259209 96.030248 
L 462.205801 89.895998 
L 464.430477 82.951227 
L 465.26473 81.078642 
L 465.820899 80.313244 
L 466.238026 80.057787 
L 466.655153 80.100886 
L 467.07228 80.446455 
L 467.489406 81.07982 
L 468.045575 82.317826 
L 468.879829 84.813791 
L 470.270251 89.857514 
L 473.190139 100.541862 
L 475.13673 106.74007 
L 477.083322 112.167669 
L 479.029913 116.952153 
L 481.115547 121.502876 
L 483.340223 125.831789 
L 485.703941 129.956324 
L 488.206701 133.895098 
L 490.987546 137.854881 
L 493.907434 141.629982 
L 497.105405 145.398596 
L 500.581461 149.139814 
L 504.19656 152.707749 
L 508.089743 156.245089 
L 512.400053 159.8542 
L 516.988447 163.399783 
L 521.854926 166.8801 
L 527.138531 170.383493 
L 532.839263 173.891567 
L 538.957122 177.389939 
L 545.492108 180.867455 
L 552.44422 184.315529 
L 559.952502 187.789818 
L 568.016952 191.273209 
L 576.637571 194.751851 
L 585.81436 198.214614 
L 595.686359 201.700136 
L 606.25357 205.192403 
L 617.515992 208.678286 
L 629.612668 212.186159 
L 642.543597 215.700134 
L 656.30878 219.207112 
L 671.047258 222.728578 
L 686.759032 226.249942 
L 693.572102 227.709818 
L 693.572102 227.709818 
" clip-path="url(#p9d68a0fbbc)" style="fill: none; stroke-dasharray: 5.18,2.24; stroke-dashoffset: 0; stroke: #3a7fc1; stroke-width: 1.4"/>
   </g>
   <g id="line2d_47">
    <path d="M 466.677854 236.368 
L 466.677854 45.888 
" clip-path="url(#p9d68a0fbbc)" style="fill: none; stroke-dasharray: 0.6,0.99; stroke-dashoffset: 0; stroke: #888888; stroke-width: 0.6"/>
   </g>
   <g id="patch_9">
    <path d="M 401.729375 236.368 
L 401.729375 45.888 
" style="fill: none; stroke: #000000; stroke-width: 0.8; stroke-linejoin: miter; stroke-linecap: square"/>
   </g>
   <g id="patch_10">
    <path d="M 707.469375 236.368 
L 707.469375 45.888 
" style="fill: none; stroke: #000000; stroke-width: 0.8; stroke-linejoin: miter; stroke-linecap: square"/>
   </g>
   <g id="patch_11">
    <path d="M 401.729375 236.368 
L 707.469375 236.368 
" style="fill: none; stroke: #000000; stroke-width: 0.8; stroke-linejoin: miter; stroke-linecap: square"/>
   </g>
   <g id="patch_12">
    <path d="M 401.729375 45.888 
L 707.469375 45.888 
" style="fill: none; stroke: #000000; stroke-width: 0.8; stroke-linejoin: miter; stroke-linecap: square"/>
   </g>
   <g id="text_35">
    <!-- Frequenzgang-Betrag (Bandpasscharakteristik) -->
    <g transform="translate(436.786094 39.888) scale(0.1 -0.1)">
     <defs>
      <path id="DejaVuSans-2d" d="M 313 2009 
L 1997 2009 
L 1997 1497 
L 313 1497 
L 313 2009 
z
" transform="scale(0.015625)"/>
      <path id="DejaVuSans-63" d="M 3122 3366 
L 3122 2828 
Q 2878 2963 2633 3030 
Q 2388 3097 2138 3097 
Q 1578 3097 1268 2742 
Q 959 2388 959 1747 
Q 959 1106 1268 751 
Q 1578 397 2138 397 
Q 2388 397 2633 464 
Q 2878 531 3122 666 
L 3122 134 
Q 2881 22 2623 -34 
Q 2366 -91 2075 -91 
Q 1284 -91 818 406 
Q 353 903 353 1747 
Q 353 2603 823 3093 
Q 1294 3584 2113 3584 
Q 2378 3584 2631 3529 
Q 2884 3475 3122 3366 
z
" transform="scale(0.015625)"/>
      <path id="DejaVuSans-68" d="M 3513 2113 
L 3513 0 
L 2938 0 
L 2938 2094 
Q 2938 2591 2744 2837 
Q 2550 3084 2163 3084 
Q 1697 3084 1428 2787 
Q 1159 2491 1159 1978 
L 1159 0 
L 581 0 
L 581 4863 
L 1159 4863 
L 1159 2956 
Q 1366 3272 1645 3428 
Q 1925 3584 2291 3584 
Q 2894 3584 3203 3211 
Q 3513 2838 3513 2113 
z
" transform="scale(0.015625)"/>
     </defs>
     <use xlink:href="#DejaVuSans-46"/>
     <use xlink:href="#DejaVuSans-72" transform="translate(50.269531 0)"/>
     <use xlink:href="#DejaVuSans-65" transform="translate(89.132812 0)"/>
     <use xlink:href="#DejaVuSans-71" transform="translate(150.65625 0)"/>
     <use xlink:href="#DejaVuSans-75" transform="translate(214.132812 0)"/>
     <use xlink:href="#DejaVuSans-65" transform="translate(277.511719 0)"/>
     <use xlink:href="#DejaVuSans-6e" transform="translate(339.035156 0)"/>
     <use xlink:href="#DejaVuSans-7a" transform="translate(402.414062 0)"/>
     <use xlink:href="#DejaVuSans-67" transform="translate(454.904297 0)"/>
     <use xlink:href="#DejaVuSans-61" transform="translate(518.380859 0)"/>
     <use xlink:href="#DejaVuSans-6e" transform="translate(579.660156 0)"/>
     <use xlink:href="#DejaVuSans-67" transform="translate(643.039062 0)"/>
     <use xlink:href="#DejaVuSans-2d" transform="translate(706.515625 0)"/>
     <use xlink:href="#DejaVuSans-42" transform="translate(738.974609 0)"/>
     <use xlink:href="#DejaVuSans-65" transform="translate(807.578125 0)"/>
     <use xlink:href="#DejaVuSans-74" transform="translate(869.101562 0)"/>
     <use xlink:href="#DejaVuSans-72" transform="translate(908.310547 0)"/>
     <use xlink:href="#DejaVuSans-61" transform="translate(949.423828 0)"/>
     <use xlink:href="#DejaVuSans-67" transform="translate(1010.703125 0)"/>
     <use xlink:href="#DejaVuSans-20" transform="translate(1074.179688 0)"/>
     <use xlink:href="#DejaVuSans-28" transform="translate(1105.966797 0)"/>
     <use xlink:href="#DejaVuSans-42" transform="translate(1144.980469 0)"/>
     <use xlink:href="#DejaVuSans-61" transform="translate(1213.583984 0)"/>
     <use xlink:href="#DejaVuSans-6e" transform="translate(1274.863281 0)"/>
     <use xlink:href="#DejaVuSans-64" transform="translate(1338.242188 0)"/>
     <use xlink:href="#DejaVuSans-70" transform="translate(1401.71875 0)"/>
     <use xlink:href="#DejaVuSans-61" transform="translate(1465.195312 0)"/>
     <use xlink:href="#DejaVuSans-73" transform="translate(1526.474609 0)"/>
     <use xlink:href="#DejaVuSans-73" transform="translate(1578.574219 0)"/>
     <use xlink:href="#DejaVuSans-63" transform="translate(1630.673828 0)"/>
     <use xlink:href="#DejaVuSans-68" transform="translate(1685.654297 0)"/>
     <use xlink:href="#DejaVuSans-61" transform="translate(1749.033203 0)"/>
     <use xlink:href="#DejaVuSans-72" transform="translate(1810.3125 0)"/>
     <use xlink:href="#DejaVuSans-61" transform="translate(1851.425781 0)"/>
     <use xlink:href="#DejaVuSans-6b" transform="translate(1912.705078 0)"/>
     <use xlink:href="#DejaVuSans-74" transform="translate(1970.615234 0)"/>
     <use xlink:href="#DejaVuSans-65" transform="translate(2009.824219 0)"/>
     <use xlink:href="#DejaVuSans-72" transform="translate(2071.347656 0)"/>
     <use xlink:href="#DejaVuSans-69" transform="translate(2112.460938 0)"/>
     <use xlink:href="#DejaVuSans-73" transform="translate(2140.244141 0)"/>
     <use xlink:href="#DejaVuSans-74" transform="translate(2192.34375 0)"/>
     <use xlink:href="#DejaVuSans-69" transform="translate(2231.552734 0)"/>
     <use xlink:href="#DejaVuSans-6b" transform="translate(2259.335938 0)"/>
     <use xlink:href="#DejaVuSans-29" transform="translate(2317.246094 0)"/>
    </g>
   </g>
   <g id="legend_2">
    <g id="patch_13">
     <path d="M 625.736875 75.773 
L 701.869375 75.773 
Q 703.469375 75.773 703.469375 74.173 
L 703.469375 51.488 
Q 703.469375 49.888 701.869375 49.888 
L 625.736875 49.888 
Q 624.136875 49.888 624.136875 51.488 
L 624.136875 74.173 
Q 624.136875 75.773 625.736875 75.773 
z
" style="fill: #ffffff; opacity: 0.8; stroke: #cccccc; stroke-linejoin: miter"/>
    </g>
    <g id="line2d_48">
     <path d="M 627.336875 56.36675 
L 635.336875 56.36675 
L 643.336875 56.36675 
" style="fill: none; stroke: #e05a2b; stroke-width: 1.4; stroke-linecap: square"/>
    </g>
    <g id="text_36">
     <!-- Katze  Q=17 -->
     <g transform="translate(649.736875 59.16675) scale(0.08 -0.08)">
      <use xlink:href="#DejaVuSans-4b"/>
      <use xlink:href="#DejaVuSans-61" transform="translate(63.826172 0)"/>
      <use xlink:href="#DejaVuSans-74" transform="translate(125.105469 0)"/>
      <use xlink:href="#DejaVuSans-7a" transform="translate(164.314453 0)"/>
      <use xlink:href="#DejaVuSans-65" transform="translate(216.804688 0)"/>
      <use xlink:href="#DejaVuSans-20" transform="translate(278.328125 0)"/>
      <use xlink:href="#DejaVuSans-20" transform="translate(310.115234 0)"/>
      <use xlink:href="#DejaVuSans-51" transform="translate(341.902344 0)"/>
      <use xlink:href="#DejaVuSans-3d" transform="translate(420.613281 0)"/>
      <use xlink:href="#DejaVuSans-31" transform="translate(504.402344 0)"/>
      <use xlink:href="#DejaVuSans-37" transform="translate(568.025391 0)"/>
     </g>
    </g>
    <g id="line2d_49">
     <path d="M 627.336875 68.10925 
L 635.336875 68.10925 
L 643.336875 68.10925 
" style="fill: none; stroke-dasharray: 5.18,2.24; stroke-dashoffset: 0; stroke: #3a7fc1; stroke-width: 1.4"/>
    </g>
    <g id="text_37">
     <!-- Hund   Q=7 -->
     <g transform="translate(649.736875 70.90925) scale(0.08 -0.08)">
      <use xlink:href="#DejaVuSans-48"/>
      <use xlink:href="#DejaVuSans-75" transform="translate(75.195312 0)"/>
      <use xlink:href="#DejaVuSans-6e" transform="translate(138.574219 0)"/>
      <use xlink:href="#DejaVuSans-64" transform="translate(201.953125 0)"/>
      <use xlink:href="#DejaVuSans-20" transform="translate(265.429688 0)"/>
      <use xlink:href="#DejaVuSans-20" transform="translate(297.216797 0)"/>
      <use xlink:href="#DejaVuSans-20" transform="translate(329.003906 0)"/>
      <use xlink:href="#DejaVuSans-51" transform="translate(360.791016 0)"/>
      <use xlink:href="#DejaVuSans-3d" transform="translate(439.501953 0)"/>
      <use xlink:href="#DejaVuSans-37" transform="translate(523.291016 0)"/>
     </g>
    </g>
   </g>
  </g>
  <g id="text_38">
   <!-- Experiment 05 – Membran-Sprungantwort &amp; Frequenzgang: Katze vs. Hund -->
   <g transform="translate(127.914656 15.406313) scale(0.108 -0.108)">
    <defs>
     <path id="DejaVuSans-Bold-45" d="M 588 4666 
L 3834 4666 
L 3834 3756 
L 1791 3756 
L 1791 2888 
L 3713 2888 
L 3713 1978 
L 1791 1978 
L 1791 909 
L 3903 909 
L 3903 0 
L 588 0 
L 588 4666 
z
" transform="scale(0.015625)"/>
     <path id="DejaVuSans-Bold-78" d="M 1422 1791 
L 159 3500 
L 1344 3500 
L 2059 2463 
L 2784 3500 
L 3969 3500 
L 2706 1797 
L 4031 0 
L 2847 0 
L 2059 1106 
L 1281 0 
L 97 0 
L 1422 1791 
z
" transform="scale(0.015625)"/>
     <path id="DejaVuSans-Bold-70" d="M 1656 506 
L 1656 -1331 
L 538 -1331 
L 538 3500 
L 1656 3500 
L 1656 2988 
Q 1888 3294 2169 3439 
Q 2450 3584 2816 3584 
Q 3463 3584 3878 3070 
Q 4294 2556 4294 1747 
Q 4294 938 3878 423 
Q 3463 -91 2816 -91 
Q 2450 -91 2169 54 
Q 1888 200 1656 506 
z
M 2400 2772 
Q 2041 2772 1848 2508 
Q 1656 2244 1656 1747 
Q 1656 1250 1848 986 
Q 2041 722 2400 722 
Q 2759 722 2948 984 
Q 3138 1247 3138 1747 
Q 3138 2247 2948 2509 
Q 2759 2772 2400 2772 
z
" transform="scale(0.015625)"/>
     <path id="DejaVuSans-Bold-65" d="M 4031 1759 
L 4031 1441 
L 1416 1441 
Q 1456 1047 1700 850 
Q 1944 653 2381 653 
Q 2734 653 3104 758 
Q 3475 863 3866 1075 
L 3866 213 
Q 3469 63 3072 -14 
Q 2675 -91 2278 -91 
Q 1328 -91 801 392 
Q 275 875 275 1747 
Q 275 2603 792 3093 
Q 1309 3584 2216 3584 
Q 3041 3584 3536 3087 
Q 4031 2591 4031 1759 
z
M 2881 2131 
Q 2881 2450 2695 2645 
Q 2509 2841 2209 2841 
Q 1884 2841 1681 2658 
Q 1478 2475 1428 2131 
L 2881 2131 
z
" transform="scale(0.015625)"/>
     <path id="DejaVuSans-Bold-72" d="M 3138 2547 
Q 2991 2616 2845 2648 
Q 2700 2681 2553 2681 
Q 2122 2681 1889 2404 
Q 1656 2128 1656 1613 
L 1656 0 
L 538 0 
L 538 3500 
L 1656 3500 
L 1656 2925 
Q 1872 3269 2151 3426 
Q 2431 3584 2822 3584 
Q 2878 3584 2943 3579 
Q 3009 3575 3134 3559 
L 3138 2547 
z
" transform="scale(0.015625)"/>
     <path id="DejaVuSans-Bold-69" d="M 538 3500 
L 1656 3500 
L 1656 0 
L 538 0 
L 538 3500 
z
M 538 4863 
L 1656 4863 
L 1656 3950 
L 538 3950 
L 538 4863 
z
" transform="scale(0.015625)"/>
     <path id="DejaVuSans-Bold-6d" d="M 3781 2919 
Q 3994 3244 4286 3414 
Q 4578 3584 4928 3584 
Q 5531 3584 5847 3212 
Q 6163 2841 6163 2131 
L 6163 0 
L 5038 0 
L 5038 1825 
Q 5041 1866 5042 1909 
Q 5044 1953 5044 2034 
Q 5044 2406 4934 2573 
Q 4825 2741 4581 2741 
Q 4263 2741 4089 2478 
Q 3916 2216 3909 1719 
L 3909 0 
L 2784 0 
L 2784 1825 
Q 2784 2406 2684 2573 
Q 2584 2741 2328 2741 
Q 2006 2741 1831 2477 
Q 1656 2213 1656 1722 
L 1656 0 
L 531 0 
L 531 3500 
L 1656 3500 
L 1656 2988 
Q 1863 3284 2130 3434 
Q 2397 3584 2719 3584 
Q 3081 3584 3359 3409 
Q 3638 3234 3781 2919 
z
" transform="scale(0.015625)"/>
     <path id="DejaVuSans-Bold-6e" d="M 4056 2131 
L 4056 0 
L 2931 0 
L 2931 347 
L 2931 1631 
Q 2931 2084 2911 2256 
Q 2891 2428 2841 2509 
Q 2775 2619 2662 2680 
Q 2550 2741 2406 2741 
Q 2056 2741 1856 2470 
Q 1656 2200 1656 1722 
L 1656 0 
L 538 0 
L 538 3500 
L 1656 3500 
L 1656 2988 
Q 1909 3294 2193 3439 
Q 2478 3584 2822 3584 
Q 3428 3584 3742 3212 
Q 4056 2841 4056 2131 
z
" transform="scale(0.015625)"/>
     <path id="DejaVuSans-Bold-74" d="M 1759 4494 
L 1759 3500 
L 2913 3500 
L 2913 2700 
L 1759 2700 
L 1759 1216 
Q 1759 972 1856 886 
Q 1953 800 2241 800 
L 2816 800 
L 2816 0 
L 1856 0 
Q 1194 0 917 276 
Q 641 553 641 1216 
L 641 2700 
L 84 2700 
L 84 3500 
L 641 3500 
L 641 4494 
L 1759 4494 
z
" transform="scale(0.015625)"/>
     <path id="DejaVuSans-Bold-20" transform="scale(0.015625)"/>
     <path id="DejaVuSans-Bold-30" d="M 2944 2338 
Q 2944 3213 2780 3570 
Q 2616 3928 2228 3928 
Q 1841 3928 1675 3570 
Q 1509 3213 1509 2338 
Q 1509 1453 1675 1090 
Q 1841 728 2228 728 
Q 2613 728 2778 1090 
Q 2944 1453 2944 2338 
z
M 4147 2328 
Q 4147 1169 3647 539 
Q 3147 -91 2228 -91 
Q 1306 -91 806 539 
Q 306 1169 306 2328 
Q 306 3491 806 4120 
Q 1306 4750 2228 4750 
Q 3147 4750 3647 4120 
Q 4147 3491 4147 2328 
z
" transform="scale(0.015625)"/>
     <path id="DejaVuSans-Bold-35" d="M 678 4666 
L 3669 4666 
L 3669 3781 
L 1638 3781 
L 1638 3059 
Q 1775 3097 1914 3117 
Q 2053 3138 2203 3138 
Q 3056 3138 3531 2711 
Q 4006 2284 4006 1522 
Q 4006 766 3489 337 
Q 2972 -91 2053 -91 
Q 1656 -91 1267 -14 
Q 878 63 494 219 
L 494 1166 
Q 875 947 1217 837 
Q 1559 728 1863 728 
Q 2300 728 2551 942 
Q 2803 1156 2803 1522 
Q 2803 1891 2551 2103 
Q 2300 2316 1863 2316 
Q 1603 2316 1309 2248 
Q 1016 2181 678 2041 
L 678 4666 
z
" transform="scale(0.015625)"/>
     <path id="DejaVuSans-Bold-2013" d="M 344 2156 
L 2856 2156 
L 2856 1350 
L 344 1350 
L 344 2156 
z
" transform="scale(0.015625)"/>
     <path id="DejaVuSans-Bold-4d" d="M 588 4666 
L 2119 4666 
L 3181 2169 
L 4250 4666 
L 5778 4666 
L 5778 0 
L 4641 0 
L 4641 3413 
L 3566 897 
L 2803 897 
L 1728 3413 
L 1728 0 
L 588 0 
L 588 4666 
z
" transform="scale(0.015625)"/>
     <path id="DejaVuSans-Bold-62" d="M 2400 722 
Q 2759 722 2948 984 
Q 3138 1247 3138 1747 
Q 3138 2247 2948 2509 
Q 2759 2772 2400 2772 
Q 2041 2772 1848 2508 
Q 1656 2244 1656 1747 
Q 1656 1250 1848 986 
Q 2041 722 2400 722 
z
M 1656 2988 
Q 1888 3294 2169 3439 
Q 2450 3584 2816 3584 
Q 3463 3584 3878 3070 
Q 4294 2556 4294 1747 
Q 4294 938 3878 423 
Q 3463 -91 2816 -91 
Q 2450 -91 2169 54 
Q 1888 200 1656 506 
L 1656 0 
L 538 0 
L 538 4863 
L 1656 4863 
L 1656 2988 
z
" transform="scale(0.015625)"/>
     <path id="DejaVuSans-Bold-61" d="M 2106 1575 
Q 1756 1575 1579 1456 
Q 1403 1338 1403 1106 
Q 1403 894 1545 773 
Q 1688 653 1941 653 
Q 2256 653 2472 879 
Q 2688 1106 2688 1447 
L 2688 1575 
L 2106 1575 
z
M 3816 1997 
L 3816 0 
L 2688 0 
L 2688 519 
Q 2463 200 2181 54 
Q 1900 -91 1497 -91 
Q 953 -91 614 226 
Q 275 544 275 1050 
Q 275 1666 698 1953 
Q 1122 2241 2028 2241 
L 2688 2241 
L 2688 2328 
Q 2688 2594 2478 2717 
Q 2269 2841 1825 2841 
Q 1466 2841 1156 2769 
Q 847 2697 581 2553 
L 581 3406 
Q 941 3494 1303 3539 
Q 1666 3584 2028 3584 
Q 2975 3584 3395 3211 
Q 3816 2838 3816 1997 
z
" transform="scale(0.015625)"/>
     <path id="DejaVuSans-Bold-2d" d="M 347 2297 
L 2309 2297 
L 2309 1388 
L 347 1388 
L 347 2297 
z
" transform="scale(0.015625)"/>
     <path id="DejaVuSans-Bold-53" d="M 3834 4519 
L 3834 3531 
Q 3450 3703 3084 3790 
Q 2719 3878 2394 3878 
Q 1963 3878 1756 3759 
Q 1550 3641 1550 3391 
Q 1550 3203 1689 3098 
Q 1828 2994 2194 2919 
L 2706 2816 
Q 3484 2659 3812 2340 
Q 4141 2022 4141 1434 
Q 4141 663 3683 286 
Q 3225 -91 2284 -91 
Q 1841 -91 1394 -6 
Q 947 78 500 244 
L 500 1259 
Q 947 1022 1364 901 
Q 1781 781 2169 781 
Q 2563 781 2772 912 
Q 2981 1044 2981 1288 
Q 2981 1506 2839 1625 
Q 2697 1744 2272 1838 
L 1806 1941 
Q 1106 2091 782 2419 
Q 459 2747 459 3303 
Q 459 4000 909 4375 
Q 1359 4750 2203 4750 
Q 2588 4750 2994 4692 
Q 3400 4634 3834 4519 
z
" transform="scale(0.015625)"/>
     <path id="DejaVuSans-Bold-75" d="M 500 1363 
L 500 3500 
L 1625 3500 
L 1625 3150 
Q 1625 2866 1622 2436 
Q 1619 2006 1619 1863 
Q 1619 1441 1641 1255 
Q 1663 1069 1716 984 
Q 1784 875 1895 815 
Q 2006 756 2150 756 
Q 2500 756 2700 1025 
Q 2900 1294 2900 1772 
L 2900 3500 
L 4019 3500 
L 4019 0 
L 2900 0 
L 2900 506 
Q 2647 200 2364 54 
Q 2081 -91 1741 -91 
Q 1134 -91 817 281 
Q 500 653 500 1363 
z
" transform="scale(0.015625)"/>
     <path id="DejaVuSans-Bold-67" d="M 2919 594 
Q 2688 288 2409 144 
Q 2131 0 1766 0 
Q 1125 0 706 504 
Q 288 1009 288 1791 
Q 288 2575 706 3076 
Q 1125 3578 1766 3578 
Q 2131 3578 2409 3434 
Q 2688 3291 2919 2981 
L 2919 3500 
L 4044 3500 
L 4044 353 
Q 4044 -491 3511 -936 
Q 2978 -1381 1966 -1381 
Q 1638 -1381 1331 -1331 
Q 1025 -1281 716 -1178 
L 716 -306 
Q 1009 -475 1290 -558 
Q 1572 -641 1856 -641 
Q 2406 -641 2662 -400 
Q 2919 -159 2919 353 
L 2919 594 
z
M 2181 2772 
Q 1834 2772 1640 2515 
Q 1447 2259 1447 1791 
Q 1447 1309 1634 1061 
Q 1822 813 2181 813 
Q 2531 813 2725 1069 
Q 2919 1325 2919 1791 
Q 2919 2259 2725 2515 
Q 2531 2772 2181 2772 
z
" transform="scale(0.015625)"/>
     <path id="DejaVuSans-Bold-77" d="M 225 3500 
L 1313 3500 
L 1900 1088 
L 2491 3500 
L 3425 3500 
L 4013 1113 
L 4603 3500 
L 5691 3500 
L 4769 0 
L 3547 0 
L 2956 2406 
L 2369 0 
L 1147 0 
L 225 3500 
z
" transform="scale(0.015625)"/>
     <path id="DejaVuSans-Bold-6f" d="M 2203 2784 
Q 1831 2784 1636 2517 
Q 1441 2250 1441 1747 
Q 1441 1244 1636 976 
Q 1831 709 2203 709 
Q 2569 709 2762 976 
Q 2956 1244 2956 1747 
Q 2956 2250 2762 2517 
Q 2569 2784 2203 2784 
z
M 2203 3584 
Q 3106 3584 3614 3096 
Q 4122 2609 4122 1747 
Q 4122 884 3614 396 
Q 3106 -91 2203 -91 
Q 1297 -91 786 396 
Q 275 884 275 1747 
Q 275 2609 786 3096 
Q 1297 3584 2203 3584 
z
" transform="scale(0.015625)"/>
     <path id="DejaVuSans-Bold-26" d="M 2497 3097 
L 3775 1691 
Q 3941 1909 4027 2181 
Q 4113 2453 4128 2797 
L 5100 2797 
Q 5053 2228 4879 1784 
Q 4706 1341 4397 1006 
L 5313 0 
L 3988 0 
L 3681 341 
Q 3353 122 2990 15 
Q 2628 -91 2222 -91 
Q 1400 -91 892 342 
Q 384 775 384 1459 
Q 384 1916 607 2267 
Q 831 2619 1338 2950 
Q 1206 3116 1143 3281 
Q 1081 3447 1081 3628 
Q 1081 4138 1478 4444 
Q 1875 4750 2534 4750 
Q 2819 4750 3126 4704 
Q 3434 4659 3769 4569 
L 3769 3700 
Q 3475 3850 3212 3922 
Q 2950 3994 2700 3994 
Q 2459 3994 2326 3901 
Q 2194 3809 2194 3641 
Q 2194 3534 2270 3398 
Q 2347 3263 2497 3097 
z
M 1875 2322 
Q 1672 2175 1569 1989 
Q 1466 1803 1466 1581 
Q 1466 1222 1731 969 
Q 1997 716 2369 716 
Q 2578 716 2759 780 
Q 2941 844 3097 972 
L 1875 2322 
z
" transform="scale(0.015625)"/>
     <path id="DejaVuSans-Bold-46" d="M 588 4666 
L 3834 4666 
L 3834 3756 
L 1791 3756 
L 1791 2888 
L 3713 2888 
L 3713 1978 
L 1791 1978 
L 1791 0 
L 588 0 
L 588 4666 
z
" transform="scale(0.015625)"/>
     <path id="DejaVuSans-Bold-71" d="M 2181 2772 
Q 1825 2772 1636 2509 
Q 1447 2247 1447 1747 
Q 1447 1247 1636 984 
Q 1825 722 2181 722 
Q 2541 722 2730 984 
Q 2919 1247 2919 1747 
Q 2919 2247 2730 2509 
Q 2541 2772 2181 2772 
z
M 2919 506 
Q 2688 197 2409 53 
Q 2131 -91 1766 -91 
Q 1119 -91 703 423 
Q 288 938 288 1747 
Q 288 2556 703 3067 
Q 1119 3578 1766 3578 
Q 2131 3578 2409 3434 
Q 2688 3291 2919 2981 
L 2919 3500 
L 4044 3500 
L 4044 -1331 
L 2919 -1331 
L 2919 506 
z
" transform="scale(0.015625)"/>
     <path id="DejaVuSans-Bold-7a" d="M 366 3500 
L 3419 3500 
L 3419 2719 
L 1575 800 
L 3419 800 
L 3419 0 
L 288 0 
L 288 781 
L 2131 2700 
L 366 2700 
L 366 3500 
z
" transform="scale(0.015625)"/>
     <path id="DejaVuSans-Bold-3a" d="M 716 3500 
L 1844 3500 
L 1844 2291 
L 716 2291 
L 716 3500 
z
M 716 1209 
L 1844 1209 
L 1844 0 
L 716 0 
L 716 1209 
z
" transform="scale(0.015625)"/>
     <path id="DejaVuSans-Bold-4b" d="M 588 4666 
L 1791 4666 
L 1791 2963 
L 3525 4666 
L 4922 4666 
L 2675 2456 
L 5153 0 
L 3647 0 
L 1791 1838 
L 1791 0 
L 588 0 
L 588 4666 
z
" transform="scale(0.015625)"/>
     <path id="DejaVuSans-Bold-76" d="M 97 3500 
L 1216 3500 
L 2088 1081 
L 2956 3500 
L 4078 3500 
L 2700 0 
L 1472 0 
L 97 3500 
z
" transform="scale(0.015625)"/>
     <path id="DejaVuSans-Bold-73" d="M 3272 3391 
L 3272 2541 
Q 2913 2691 2578 2766 
Q 2244 2841 1947 2841 
Q 1628 2841 1473 2761 
Q 1319 2681 1319 2516 
Q 1319 2381 1436 2309 
Q 1553 2238 1856 2203 
L 2053 2175 
Q 2913 2066 3209 1816 
Q 3506 1566 3506 1031 
Q 3506 472 3093 190 
Q 2681 -91 1863 -91 
Q 1516 -91 1145 -36 
Q 775 19 384 128 
L 384 978 
Q 719 816 1070 734 
Q 1422 653 1784 653 
Q 2113 653 2278 743 
Q 2444 834 2444 1013 
Q 2444 1163 2330 1236 
Q 2216 1309 1875 1350 
L 1678 1375 
Q 931 1469 631 1722 
Q 331 1975 331 2491 
Q 331 3047 712 3315 
Q 1094 3584 1881 3584 
Q 2191 3584 2531 3537 
Q 2872 3491 3272 3391 
z
" transform="scale(0.015625)"/>
     <path id="DejaVuSans-Bold-2e" d="M 653 1209 
L 1778 1209 
L 1778 0 
L 653 0 
L 653 1209 
z
" transform="scale(0.015625)"/>
     <path id="DejaVuSans-Bold-48" d="M 588 4666 
L 1791 4666 
L 1791 2888 
L 3566 2888 
L 3566 4666 
L 4769 4666 
L 4769 0 
L 3566 0 
L 3566 1978 
L 1791 1978 
L 1791 0 
L 588 0 
L 588 4666 
z
" transform="scale(0.015625)"/>
     <path id="DejaVuSans-Bold-64" d="M 2919 2988 
L 2919 4863 
L 4044 4863 
L 4044 0 
L 2919 0 
L 2919 506 
Q 2688 197 2409 53 
Q 2131 -91 1766 -91 
Q 1119 -91 703 423 
Q 288 938 288 1747 
Q 288 2556 703 3070 
Q 1119 3584 1766 3584 
Q 2128 3584 2408 3439 
Q 2688 3294 2919 2988 
z
M 2181 722 
Q 2541 722 2730 984 
Q 2919 1247 2919 1747 
Q 2919 2247 2730 2509 
Q 2541 2772 2181 2772 
Q 1825 2772 1636 2509 
Q 1447 2247 1447 1747 
Q 1447 1247 1636 984 
Q 1825 722 2181 722 
z
" transform="scale(0.015625)"/>
    </defs>
    <use xlink:href="#DejaVuSans-Bold-45"/>
    <use xlink:href="#DejaVuSans-Bold-78" transform="translate(68.310547 0)"/>
    <use xlink:href="#DejaVuSans-Bold-70" transform="translate(132.8125 0)"/>
    <use xlink:href="#DejaVuSans-Bold-65" transform="translate(204.394531 0)"/>
    <use xlink:href="#DejaVuSans-Bold-72" transform="translate(272.216797 0)"/>
    <use xlink:href="#DejaVuSans-Bold-69" transform="translate(321.533203 0)"/>
    <use xlink:href="#DejaVuSans-Bold-6d" transform="translate(355.810547 0)"/>
    <use xlink:href="#DejaVuSans-Bold-65" transform="translate(460.009766 0)"/>
    <use xlink:href="#DejaVuSans-Bold-6e" transform="translate(527.832031 0)"/>
    <use xlink:href="#DejaVuSans-Bold-74" transform="translate(599.023438 0)"/>
    <use xlink:href="#DejaVuSans-Bold-20" transform="translate(646.826172 0)"/>
    <use xlink:href="#DejaVuSans-Bold-30" transform="translate(681.640625 0)"/>
    <use xlink:href="#DejaVuSans-Bold-35" transform="translate(751.220703 0)"/>
    <use xlink:href="#DejaVuSans-Bold-20" transform="translate(820.800781 0)"/>
    <use xlink:href="#DejaVuSans-Bold-2013" transform="translate(855.615234 0)"/>
    <use xlink:href="#DejaVuSans-Bold-20" transform="translate(905.615234 0)"/>
    <use xlink:href="#DejaVuSans-Bold-4d" transform="translate(940.429688 0)"/>
    <use xlink:href="#DejaVuSans-Bold-65" transform="translate(1039.941406 0)"/>
    <use xlink:href="#DejaVuSans-Bold-6d" transform="translate(1107.763672 0)"/>
    <use xlink:href="#DejaVuSans-Bold-62" transform="translate(1211.962891 0)"/>
    <use xlink:href="#DejaVuSans-Bold-72" transform="translate(1283.544922 0)"/>
    <use xlink:href="#DejaVuSans-Bold-61" transform="translate(1332.861328 0)"/>
    <use xlink:href="#DejaVuSans-Bold-6e" transform="translate(1400.341797 0)"/>
    <use xlink:href="#DejaVuSans-Bold-2d" transform="translate(1471.533203 0)"/>
    <use xlink:href="#DejaVuSans-Bold-53" transform="translate(1513.037109 0)"/>
    <use xlink:href="#DejaVuSans-Bold-70" transform="translate(1585.058594 0)"/>
    <use xlink:href="#DejaVuSans-Bold-72" transform="translate(1656.640625 0)"/>
    <use xlink:href="#DejaVuSans-Bold-75" transform="translate(1705.957031 0)"/>
    <use xlink:href="#DejaVuSans-Bold-6e" transform="translate(1777.148438 0)"/>
    <use xlink:href="#DejaVuSans-Bold-67" transform="translate(1848.339844 0)"/>
    <use xlink:href="#DejaVuSans-Bold-61" transform="translate(1919.921875 0)"/>
    <use xlink:href="#DejaVuSans-Bold-6e" transform="translate(1987.402344 0)"/>
    <use xlink:href="#DejaVuSans-Bold-74" transform="translate(2058.59375 0)"/>
    <use xlink:href="#DejaVuSans-Bold-77" transform="translate(2106.396484 0)"/>
    <use xlink:href="#DejaVuSans-Bold-6f" transform="translate(2198.779297 0)"/>
    <use xlink:href="#DejaVuSans-Bold-72" transform="translate(2267.480469 0)"/>
    <use xlink:href="#DejaVuSans-Bold-74" transform="translate(2316.796875 0)"/>
    <use xlink:href="#DejaVuSans-Bold-20" transform="translate(2364.599609 0)"/>
    <use xlink:href="#DejaVuSans-Bold-26" transform="translate(2399.414062 0)"/>
    <use xlink:href="#DejaVuSans-Bold-20" transform="translate(2486.621094 0)"/>
    <use xlink:href="#DejaVuSans-Bold-46" transform="translate(2521.435547 0)"/>
    <use xlink:href="#DejaVuSans-Bold-72" transform="translate(2583.371094 0)"/>
    <use xlink:href="#DejaVuSans-Bold-65" transform="translate(2632.6875 0)"/>
    <use xlink:href="#DejaVuSans-Bold-71" transform="translate(2700.509766 0)"/>
    <use xlink:href="#DejaVuSans-Bold-75" transform="translate(2772.091797 0)"/>
    <use xlink:href="#DejaVuSans-Bold-65" transform="translate(2843.283203 0)"/>
    <use xlink:href="#DejaVuSans-Bold-6e" transform="translate(2911.105469 0)"/>
    <use xlink:href="#DejaVuSans-Bold-7a" transform="translate(2982.296875 0)"/>
    <use xlink:href="#DejaVuSans-Bold-67" transform="translate(3040.5 0)"/>
    <use xlink:href="#DejaVuSans-Bold-61" transform="translate(3112.082031 0)"/>
    <use xlink:href="#DejaVuSans-Bold-6e" transform="translate(3179.5625 0)"/>
    <use xlink:href="#DejaVuSans-Bold-67" transform="translate(3250.753906 0)"/>
    <use xlink:href="#DejaVuSans-Bold-3a" transform="translate(3322.335938 0)"/>
    <use xlink:href="#DejaVuSans-Bold-20" transform="translate(3362.326172 0)"/>
    <use xlink:href="#DejaVuSans-Bold-4b" transform="translate(3397.140625 0)"/>
    <use xlink:href="#DejaVuSans-Bold-61" transform="translate(3474.630859 0)"/>
    <use xlink:href="#DejaVuSans-Bold-74" transform="translate(3542.111328 0)"/>
    <use xlink:href="#DejaVuSans-Bold-7a" transform="translate(3589.914062 0)"/>
    <use xlink:href="#DejaVuSans-Bold-65" transform="translate(3648.117188 0)"/>
    <use xlink:href="#DejaVuSans-Bold-20" transform="translate(3715.939453 0)"/>
    <use xlink:href="#DejaVuSans-Bold-76" transform="translate(3750.753906 0)"/>
    <use xlink:href="#DejaVuSans-Bold-73" transform="translate(3815.939453 0)"/>
    <use xlink:href="#DejaVuSans-Bold-2e" transform="translate(3875.460938 0)"/>
    <use xlink:href="#DejaVuSans-Bold-20" transform="translate(3913.449219 0)"/>
    <use xlink:href="#DejaVuSans-Bold-48" transform="translate(3948.263672 0)"/>
    <use xlink:href="#DejaVuSans-Bold-75" transform="translate(4031.955078 0)"/>
    <use xlink:href="#DejaVuSans-Bold-6e" transform="translate(4103.146484 0)"/>
    <use xlink:href="#DejaVuSans-Bold-64" transform="translate(4174.337891 0)"/>
   </g>
  </g>
 </g>
 <defs>
  <clipPath id="p2330db73d8">
   <rect x="46.949375" y="45.888" width="305.74" height="190.48"/>
  </clipPath>
  <clipPath id="p9d68a0fbbc">
   <rect x="401.729375" y="45.888" width="305.74" height="190.48"/>
  </clipPath>
 </defs>
</svg>
