<?xml version="1.0" encoding="utf-8" standalone="no"?>
<!DOCTYPE svg PUBLIC "-//W3C//DTD SVG 1.1//EN"
  "http://www.w3.org/Graphics/SVG/1.1/DTD/svg11.dtd">
<svg xmlns:xlink="http://www.w3.org/1999/xlink" width="714.629062pt" height="271.988625pt" viewBox="0 0 714.629062 271.988625" xmlns="http://www.w3.org/2000/svg" version="1.1">
 <metadata>
  <rdf:RDF xmlns:dc="http://purl.org/dc/elements/1.1/" xmlns:cc="http://creativecommons.org/ns#" xmlns:rdf="http://www.w3.org/1999/02/22-rdf-syntax-ns#">
   <cc:Work>
    <dc:type rdf:resource="http://purl.org/dc/dcmitype/StillImage"/>
    <dc:date>2026-03-03T03:26:25.563152</dc:date>
    <dc:format>image/svg+xml</dc:format>
    <dc:creator>
     <cc:Agent>
      <dc:title>Matplotlib v3.10.8, https://matplotlib.org/</dc:title>
     </cc:Agent>
    </dc:creator>
   </cc:Work>
  </rdf:RDF>
 </metadata>
 <defs>
  <style type="text/css">*{stroke-linejoin: round; stroke-linecap: butt}</style>
 </defs>
 <g id="figure_1">
  <g id="patch_1">
   <path d="M 0 271.988625 
L 714.629062 271.988625 
L 714.629062 0 
L 0 0 
z
" style="fill: #ffffff"/>
  </g>
  <g id="axes_1">
   <g id="patch_2">
    <path d="M 44.089063 236.368 
L 353.699062 236.368 
L 353.699062 45.888 
L 44.089063 45.888 
z
" style="fill: #ffffff"/>
   </g>
   <g id="patch_3">
    <path d="M 75.755921 236.368 
L 93.349597 236.368 
L 93.349597 45.888 
L 75.755921 45.888 
z
" clip-path="url(#pb6dca9ed14)" style="fill: #ffd700; opacity: 0.15; stroke: #ffd700; stroke-linejoin: miter"/>
   </g>
   <g id="matplotlib.axis_1">
    <g id="xtick_1">
     <g id="line2d_1">
      <defs>
       <path id="mb5b8af3660" d="M 0 0 
L 0 3.5 
" style="stroke: #000000; stroke-width: 0.8"/>
      </defs>
      <g>
       <use xlink:href="#mb5b8af3660" x="58.162244" y="236.368" style="stroke: #000000; stroke-width: 0.8"/>
      </g>
     </g>
     <g id="text_1">
      <!-- 0 -->
      <g transform="translate(55.299119 250.206594) scale(0.09 -0.09)">
       <defs>
        <path id="DejaVuSans-30" d="M 2034 4250 
Q 1547 4250 1301 3770 
Q 1056 3291 1056 2328 
Q 1056 1369 1301 889 
Q 1547 409 2034 409 
Q 2525 409 2770 889 
Q 3016 1369 3016 2328 
Q 3016 3291 2770 3770 
Q 2525 4250 2034 4250 
z
M 2034 4750 
Q 2819 4750 3233 4129 
Q 3647 3509 3647 2328 
Q 3647 1150 3233 529 
Q 2819 -91 2034 -91 
Q 1250 -91 836 529 
Q 422 1150 422 2328 
Q 422 3509 836 4129 
Q 1250 4750 2034 4750 
z
" transform="scale(0.015625)"/>
       </defs>
       <use xlink:href="#DejaVuSans-30"/>
      </g>
     </g>
    </g>
    <g id="xtick_2">
     <g id="line2d_2">
      <g>
       <use xlink:href="#mb5b8af3660" x="93.349597" y="236.368" style="stroke: #000000; stroke-width: 0.8"/>
      </g>
     </g>
     <g id="text_2">
      <!-- 10 -->
      <g transform="translate(87.623347 250.206594) scale(0.09 -0.09)">
       <defs>
        <path id="DejaVuSans-31" d="M 794 531 
L 1825 531 
L 1825 4091 
L 703 3866 
L 703 4441 
L 1819 4666 
L 2450 4666 
L 2450 531 
L 3481 531 
L 3481 0 
L 794 0 
L 794 531 
z
" transform="scale(0.015625)"/>
       </defs>
       <use xlink:href="#DejaVuSans-31"/>
       <use xlink:href="#DejaVuSans-30" transform="translate(63.623047 0)"/>
      </g>
     </g>
    </g>
    <g id="xtick_3">
     <g id="line2d_3">
      <g>
       <use xlink:href="#mb5b8af3660" x="128.53695" y="236.368" style="stroke: #000000; stroke-width: 0.8"/>
      </g>
     </g>
     <g id="text_3">
      <!-- 20 -->
      <g transform="translate(122.8107 250.206594) scale(0.09 -0.09)">
       <defs>
        <path id="DejaVuSans-32" d="M 1228 531 
L 3431 531 
L 3431 0 
L 469 0 
L 469 531 
Q 828 903 1448 1529 
Q 2069 2156 2228 2338 
Q 2531 2678 2651 2914 
Q 2772 3150 2772 3378 
Q 2772 3750 2511 3984 
Q 2250 4219 1831 4219 
Q 1534 4219 1204 4116 
Q 875 4013 500 3803 
L 500 4441 
Q 881 4594 1212 4672 
Q 1544 4750 1819 4750 
Q 2544 4750 2975 4387 
Q 3406 4025 3406 3419 
Q 3406 3131 3298 2873 
Q 3191 2616 2906 2266 
Q 2828 2175 2409 1742 
Q 1991 1309 1228 531 
z
" transform="scale(0.015625)"/>
       </defs>
       <use xlink:href="#DejaVuSans-32"/>
       <use xlink:href="#DejaVuSans-30" transform="translate(63.623047 0)"/>
      </g>
     </g>
    </g>
    <g id="xtick_4">
     <g id="line2d_4">
      <g>
       <use xlink:href="#mb5b8af3660" x="163.724303" y="236.368" style="stroke: #000000; stroke-width: 0.8"/>
      </g>
     </g>
     <g id="text_4">
      <!-- 30 -->
      <g transform="translate(157.998053 250.206594) scale(0.09 -0.09)">
       <defs>
        <path id="DejaVuSans-33" d="M 2597 2516 
Q 3050 2419 3304 2112 
Q 3559 1806 3559 1356 
Q 3559 666 3084 287 
Q 2609 -91 1734 -91 
Q 1441 -91 1130 -33 
Q 819 25 488 141 
L 488 750 
Q 750 597 1062 519 
Q 1375 441 1716 441 
Q 2309 441 2620 675 
Q 2931 909 2931 1356 
Q 2931 1769 2642 2001 
Q 2353 2234 1838 2234 
L 1294 2234 
L 1294 2753 
L 1863 2753 
Q 2328 2753 2575 2939 
Q 2822 3125 2822 3475 
Q 2822 3834 2567 4026 
Q 2313 4219 1838 4219 
Q 1578 4219 1281 4162 
Q 984 4106 628 3988 
L 628 4550 
Q 988 4650 1302 4700 
Q 1616 4750 1894 4750 
Q 2613 4750 3031 4423 
Q 3450 4097 3450 3541 
Q 3450 3153 3228 2886 
Q 3006 2619 2597 2516 
z
" transform="scale(0.015625)"/>
       </defs>
       <use xlink:href="#DejaVuSans-33"/>
       <use xlink:href="#DejaVuSans-30" transform="translate(63.623047 0)"/>
      </g>
     </g>
    </g>
    <g id="xtick_5">
     <g id="line2d_5">
      <g>
       <use xlink:href="#mb5b8af3660" x="198.911656" y="236.368" style="stroke: #000000; stroke-width: 0.8"/>
      </g>
     </g>
     <g id="text_5">
      <!-- 40 -->
      <g transform="translate(193.185406 250.206594) scale(0.09 -0.09)">
       <defs>
        <path id="DejaVuSans-34" d="M 2419 4116 
L 825 1625 
L 2419 1625 
L 2419 4116 
z
M 2253 4666 
L 3047 4666 
L 3047 1625 
L 3713 1625 
L 3713 1100 
L 3047 1100 
L 3047 0 
L 2419 0 
L 2419 1100 
L 313 1100 
L 313 1709 
L 2253 4666 
z
" transform="scale(0.015625)"/>
       </defs>
       <use xlink:href="#DejaVuSans-34"/>
       <use xlink:href="#DejaVuSans-30" transform="translate(63.623047 0)"/>
      </g>
     </g>
    </g>
    <g id="xtick_6">
     <g id="line2d_6">
      <g>
       <use xlink:href="#mb5b8af3660" x="234.099009" y="236.368" style="stroke: #000000; stroke-width: 0.8"/>
      </g>
     </g>
     <g id="text_6">
      <!-- 50 -->
      <g transform="translate(228.372759 250.206594) scale(0.09 -0.09)">
       <defs>
        <path id="DejaVuSans-35" d="M 691 4666 
L 3169 4666 
L 3169 4134 
L 1269 4134 
L 1269 2991 
Q 1406 3038 1543 3061 
Q 1681 3084 1819 3084 
Q 2600 3084 3056 2656 
Q 3513 2228 3513 1497 
Q 3513 744 3044 326 
Q 2575 -91 1722 -91 
Q 1428 -91 1123 -41 
Q 819 9 494 109 
L 494 744 
Q 775 591 1075 516 
Q 1375 441 1709 441 
Q 2250 441 2565 725 
Q 2881 1009 2881 1497 
Q 2881 1984 2565 2268 
Q 2250 2553 1709 2553 
Q 1456 2553 1204 2497 
Q 953 2441 691 2322 
L 691 4666 
z
" transform="scale(0.015625)"/>
       </defs>
       <use xlink:href="#DejaVuSans-35"/>
       <use xlink:href="#DejaVuSans-30" transform="translate(63.623047 0)"/>
      </g>
     </g>
    </g>
    <g id="xtick_7">
     <g id="line2d_7">
      <g>
       <use xlink:href="#mb5b8af3660" x="269.286362" y="236.368" style="stroke: #000000; stroke-width: 0.8"/>
      </g>
     </g>
     <g id="text_7">
      <!-- 60 -->
      <g transform="translate(263.560112 250.206594) scale(0.09 -0.09)">
       <defs>
        <path id="DejaVuSans-36" d="M 2113 2584 
Q 1688 2584 1439 2293 
Q 1191 2003 1191 1497 
Q 1191 994 1439 701 
Q 1688 409 2113 409 
Q 2538 409 2786 701 
Q 3034 994 3034 1497 
Q 3034 2003 2786 2293 
Q 2538 2584 2113 2584 
z
M 3366 4563 
L 3366 3988 
Q 3128 4100 2886 4159 
Q 2644 4219 2406 4219 
Q 1781 4219 1451 3797 
Q 1122 3375 1075 2522 
Q 1259 2794 1537 2939 
Q 1816 3084 2150 3084 
Q 2853 3084 3261 2657 
Q 3669 2231 3669 1497 
Q 3669 778 3244 343 
Q 2819 -91 2113 -91 
Q 1303 -91 875 529 
Q 447 1150 447 2328 
Q 447 3434 972 4092 
Q 1497 4750 2381 4750 
Q 2619 4750 2861 4703 
Q 3103 4656 3366 4563 
z
" transform="scale(0.015625)"/>
       </defs>
       <use xlink:href="#DejaVuSans-36"/>
       <use xlink:href="#DejaVuSans-30" transform="translate(63.623047 0)"/>
      </g>
     </g>
    </g>
    <g id="xtick_8">
     <g id="line2d_8">
      <g>
       <use xlink:href="#mb5b8af3660" x="304.473715" y="236.368" style="stroke: #000000; stroke-width: 0.8"/>
      </g>
     </g>
     <g id="text_8">
      <!-- 70 -->
      <g transform="translate(298.747465 250.206594) scale(0.09 -0.09)">
       <defs>
        <path id="DejaVuSans-37" d="M 525 4666 
L 3525 4666 
L 3525 4397 
L 1831 0 
L 1172 0 
L 2766 4134 
L 525 4134 
L 525 4666 
z
" transform="scale(0.015625)"/>
       </defs>
       <use xlink:href="#DejaVuSans-37"/>
       <use xlink:href="#DejaVuSans-30" transform="translate(63.623047 0)"/>
      </g>
     </g>
    </g>
    <g id="xtick_9">
     <g id="line2d_9">
      <g>
       <use xlink:href="#mb5b8af3660" x="339.661068" y="236.368" style="stroke: #000000; stroke-width: 0.8"/>
      </g>
     </g>
     <g id="text_9">
      <!-- 80 -->
      <g transform="translate(333.934818 250.206594) scale(0.09 -0.09)">
       <defs>
        <path id="DejaVuSans-38" d="M 2034 2216 
Q 1584 2216 1326 1975 
Q 1069 1734 1069 1313 
Q 1069 891 1326 650 
Q 1584 409 2034 409 
Q 2484 409 2743 651 
Q 3003 894 3003 1313 
Q 3003 1734 2745 1975 
Q 2488 2216 2034 2216 
z
M 1403 2484 
Q 997 2584 770 2862 
Q 544 3141 544 3541 
Q 544 4100 942 4425 
Q 1341 4750 2034 4750 
Q 2731 4750 3128 4425 
Q 3525 4100 3525 3541 
Q 3525 3141 3298 2862 
Q 3072 2584 2669 2484 
Q 3125 2378 3379 2068 
Q 3634 1759 3634 1313 
Q 3634 634 3220 271 
Q 2806 -91 2034 -91 
Q 1263 -91 848 271 
Q 434 634 434 1313 
Q 434 1759 690 2068 
Q 947 2378 1403 2484 
z
M 1172 3481 
Q 1172 3119 1398 2916 
Q 1625 2713 2034 2713 
Q 2441 2713 2670 2916 
Q 2900 3119 2900 3481 
Q 2900 3844 2670 4047 
Q 2441 4250 2034 4250 
Q 1625 4250 1398 4047 
Q 1172 3844 1172 3481 
z
" transform="scale(0.015625)"/>
       </defs>
       <use xlink:href="#DejaVuSans-38"/>
       <use xlink:href="#DejaVuSans-30" transform="translate(63.623047 0)"/>
      </g>
     </g>
    </g>
    <g id="text_10">
     <!-- Zeit [ms] -->
     <g transform="translate(178.359297 262.916906) scale(0.09 -0.09)">
      <defs>
       <path id="DejaVuSans-5a" d="M 359 4666 
L 4025 4666 
L 4025 4184 
L 1075 531 
L 4097 531 
L 4097 0 
L 288 0 
L 288 481 
L 3238 4134 
L 359 4134 
L 359 4666 
z
" transform="scale(0.015625)"/>
       <path id="DejaVuSans-65" d="M 3597 1894 
L 3597 1613 
L 953 1613 
Q 991 1019 1311 708 
Q 1631 397 2203 397 
Q 2534 397 2845 478 
Q 3156 559 3463 722 
L 3463 178 
Q 3153 47 2828 -22 
Q 2503 -91 2169 -91 
Q 1331 -91 842 396 
Q 353 884 353 1716 
Q 353 2575 817 3079 
Q 1281 3584 2069 3584 
Q 2775 3584 3186 3129 
Q 3597 2675 3597 1894 
z
M 3022 2063 
Q 3016 2534 2758 2815 
Q 2500 3097 2075 3097 
Q 1594 3097 1305 2825 
Q 1016 2553 972 2059 
L 3022 2063 
z
" transform="scale(0.015625)"/>
       <path id="DejaVuSans-69" d="M 603 3500 
L 1178 3500 
L 1178 0 
L 603 0 
L 603 3500 
z
M 603 4863 
L 1178 4863 
L 1178 4134 
L 603 4134 
L 603 4863 
z
" transform="scale(0.015625)"/>
       <path id="DejaVuSans-74" d="M 1172 4494 
L 1172 3500 
L 2356 3500 
L 2356 3053 
L 1172 3053 
L 1172 1153 
Q 1172 725 1289 603 
Q 1406 481 1766 481 
L 2356 481 
L 2356 0 
L 1766 0 
Q 1100 0 847 248 
Q 594 497 594 1153 
L 594 3053 
L 172 3053 
L 172 3500 
L 594 3500 
L 594 4494 
L 1172 4494 
z
" transform="scale(0.015625)"/>
       <path id="DejaVuSans-20" transform="scale(0.015625)"/>
       <path id="DejaVuSans-5b" d="M 550 4863 
L 1875 4863 
L 1875 4416 
L 1125 4416 
L 1125 -397 
L 1875 -397 
L 1875 -844 
L 550 -844 
L 550 4863 
z
" transform="scale(0.015625)"/>
       <path id="DejaVuSans-6d" d="M 3328 2828 
Q 3544 3216 3844 3400 
Q 4144 3584 4550 3584 
Q 5097 3584 5394 3201 
Q 5691 2819 5691 2113 
L 5691 0 
L 5113 0 
L 5113 2094 
Q 5113 2597 4934 2840 
Q 4756 3084 4391 3084 
Q 3944 3084 3684 2787 
Q 3425 2491 3425 1978 
L 3425 0 
L 2847 0 
L 2847 2094 
Q 2847 2600 2669 2842 
Q 2491 3084 2119 3084 
Q 1678 3084 1418 2786 
Q 1159 2488 1159 1978 
L 1159 0 
L 581 0 
L 581 3500 
L 1159 3500 
L 1159 2956 
Q 1356 3278 1631 3431 
Q 1906 3584 2284 3584 
Q 2666 3584 2933 3390 
Q 3200 3197 3328 2828 
z
" transform="scale(0.015625)"/>
       <path id="DejaVuSans-73" d="M 2834 3397 
L 2834 2853 
Q 2591 2978 2328 3040 
Q 2066 3103 1784 3103 
Q 1356 3103 1142 2972 
Q 928 2841 928 2578 
Q 928 2378 1081 2264 
Q 1234 2150 1697 2047 
L 1894 2003 
Q 2506 1872 2764 1633 
Q 3022 1394 3022 966 
Q 3022 478 2636 193 
Q 2250 -91 1575 -91 
Q 1294 -91 989 -36 
Q 684 19 347 128 
L 347 722 
Q 666 556 975 473 
Q 1284 391 1588 391 
Q 1994 391 2212 530 
Q 2431 669 2431 922 
Q 2431 1156 2273 1281 
Q 2116 1406 1581 1522 
L 1381 1569 
Q 847 1681 609 1914 
Q 372 2147 372 2553 
Q 372 3047 722 3315 
Q 1072 3584 1716 3584 
Q 2034 3584 2315 3537 
Q 2597 3491 2834 3397 
z
" transform="scale(0.015625)"/>
       <path id="DejaVuSans-5d" d="M 1947 4863 
L 1947 -844 
L 622 -844 
L 622 -397 
L 1369 -397 
L 1369 4416 
L 622 4416 
L 622 4863 
L 1947 4863 
z
" transform="scale(0.015625)"/>
      </defs>
      <use xlink:href="#DejaVuSans-5a"/>
      <use xlink:href="#DejaVuSans-65" transform="translate(68.505859 0)"/>
      <use xlink:href="#DejaVuSans-69" transform="translate(130.029297 0)"/>
      <use xlink:href="#DejaVuSans-74" transform="translate(157.8125 0)"/>
      <use xlink:href="#DejaVuSans-20" transform="translate(197.021484 0)"/>
      <use xlink:href="#DejaVuSans-5b" transform="translate(228.808594 0)"/>
      <use xlink:href="#DejaVuSans-6d" transform="translate(267.822266 0)"/>
      <use xlink:href="#DejaVuSans-73" transform="translate(365.234375 0)"/>
      <use xlink:href="#DejaVuSans-5d" transform="translate(417.333984 0)"/>
     </g>
    </g>
   </g>
   <g id="matplotlib.axis_2">
    <g id="ytick_1">
     <g id="line2d_10">
      <defs>
       <path id="maf9abdf015" d="M 0 0 
L -3.5 0 
" style="stroke: #000000; stroke-width: 0.8"/>
      </defs>
      <g>
       <use xlink:href="#maf9abdf015" x="44.089063" y="211.313861" style="stroke: #000000; stroke-width: 0.8"/>
      </g>
     </g>
     <g id="text_11">
      <!-- 0 -->
      <g transform="translate(31.362813 214.733158) scale(0.09 -0.09)">
       <use xlink:href="#DejaVuSans-30"/>
      </g>
     </g>
    </g>
    <g id="ytick_2">
     <g id="line2d_11">
      <g>
       <use xlink:href="#maf9abdf015" x="44.089063" y="181.606006" style="stroke: #000000; stroke-width: 0.8"/>
      </g>
     </g>
     <g id="text_12">
      <!-- 20 -->
      <g transform="translate(25.636563 185.025303) scale(0.09 -0.09)">
       <use xlink:href="#DejaVuSans-32"/>
       <use xlink:href="#DejaVuSans-30" transform="translate(63.623047 0)"/>
      </g>
     </g>
    </g>
    <g id="ytick_3">
     <g id="line2d_12">
      <g>
       <use xlink:href="#maf9abdf015" x="44.089063" y="151.898151" style="stroke: #000000; stroke-width: 0.8"/>
      </g>
     </g>
     <g id="text_13">
      <!-- 40 -->
      <g transform="translate(25.636563 155.317448) scale(0.09 -0.09)">
       <use xlink:href="#DejaVuSans-34"/>
       <use xlink:href="#DejaVuSans-30" transform="translate(63.623047 0)"/>
      </g>
     </g>
    </g>
    <g id="ytick_4">
     <g id="line2d_13">
      <g>
       <use xlink:href="#maf9abdf015" x="44.089063" y="122.190296" style="stroke: #000000; stroke-width: 0.8"/>
      </g>
     </g>
     <g id="text_14">
      <!-- 60 -->
      <g transform="translate(25.636563 125.609593) scale(0.09 -0.09)">
       <use xlink:href="#DejaVuSans-36"/>
       <use xlink:href="#DejaVuSans-30" transform="translate(63.623047 0)"/>
      </g>
     </g>
    </g>
    <g id="ytick_5">
     <g id="line2d_14">
      <g>
       <use xlink:href="#maf9abdf015" x="44.089063" y="92.482441" style="stroke: #000000; stroke-width: 0.8"/>
      </g>
     </g>
     <g id="text_15">
      <!-- 80 -->
      <g transform="translate(25.636563 95.901737) scale(0.09 -0.09)">
       <use xlink:href="#DejaVuSans-38"/>
       <use xlink:href="#DejaVuSans-30" transform="translate(63.623047 0)"/>
      </g>
     </g>
    </g>
    <g id="ytick_6">
     <g id="line2d_15">
      <g>
       <use xlink:href="#maf9abdf015" x="44.089063" y="62.774585" style="stroke: #000000; stroke-width: 0.8"/>
      </g>
     </g>
     <g id="text_16">
      <!-- 100 -->
      <g transform="translate(19.910313 66.193882) scale(0.09 -0.09)">
       <use xlink:href="#DejaVuSans-31"/>
       <use xlink:href="#DejaVuSans-30" transform="translate(63.623047 0)"/>
       <use xlink:href="#DejaVuSans-30" transform="translate(127.246094 0)"/>
      </g>
     </g>
    </g>
    <g id="text_17">
     <!-- Membranpotential V [mV] -->
     <g transform="translate(14.038594 199.407922) rotate(-90) scale(0.09 -0.09)">
      <defs>
       <path id="DejaVuSans-4d" d="M 628 4666 
L 1569 4666 
L 2759 1491 
L 3956 4666 
L 4897 4666 
L 4897 0 
L 4281 0 
L 4281 4097 
L 3078 897 
L 2444 897 
L 1241 4097 
L 1241 0 
L 628 0 
L 628 4666 
z
" transform="scale(0.015625)"/>
       <path id="DejaVuSans-62" d="M 3116 1747 
Q 3116 2381 2855 2742 
Q 2594 3103 2138 3103 
Q 1681 3103 1420 2742 
Q 1159 2381 1159 1747 
Q 1159 1113 1420 752 
Q 1681 391 2138 391 
Q 2594 391 2855 752 
Q 3116 1113 3116 1747 
z
M 1159 2969 
Q 1341 3281 1617 3432 
Q 1894 3584 2278 3584 
Q 2916 3584 3314 3078 
Q 3713 2572 3713 1747 
Q 3713 922 3314 415 
Q 2916 -91 2278 -91 
Q 1894 -91 1617 61 
Q 1341 213 1159 525 
L 1159 0 
L 581 0 
L 581 4863 
L 1159 4863 
L 1159 2969 
z
" transform="scale(0.015625)"/>
       <path id="DejaVuSans-72" d="M 2631 2963 
Q 2534 3019 2420 3045 
Q 2306 3072 2169 3072 
Q 1681 3072 1420 2755 
Q 1159 2438 1159 1844 
L 1159 0 
L 581 0 
L 581 3500 
L 1159 3500 
L 1159 2956 
Q 1341 3275 1631 3429 
Q 1922 3584 2338 3584 
Q 2397 3584 2469 3576 
Q 2541 3569 2628 3553 
L 2631 2963 
z
" transform="scale(0.015625)"/>
       <path id="DejaVuSans-61" d="M 2194 1759 
Q 1497 1759 1228 1600 
Q 959 1441 959 1056 
Q 959 750 1161 570 
Q 1363 391 1709 391 
Q 2188 391 2477 730 
Q 2766 1069 2766 1631 
L 2766 1759 
L 2194 1759 
z
M 3341 1997 
L 3341 0 
L 2766 0 
L 2766 531 
Q 2569 213 2275 61 
Q 1981 -91 1556 -91 
Q 1019 -91 701 211 
Q 384 513 384 1019 
Q 384 1609 779 1909 
Q 1175 2209 1959 2209 
L 2766 2209 
L 2766 2266 
Q 2766 2663 2505 2880 
Q 2244 3097 1772 3097 
Q 1472 3097 1187 3025 
Q 903 2953 641 2809 
L 641 3341 
Q 956 3463 1253 3523 
Q 1550 3584 1831 3584 
Q 2591 3584 2966 3190 
Q 3341 2797 3341 1997 
z
" transform="scale(0.015625)"/>
       <path id="DejaVuSans-6e" d="M 3513 2113 
L 3513 0 
L 2938 0 
L 2938 2094 
Q 2938 2591 2744 2837 
Q 2550 3084 2163 3084 
Q 1697 3084 1428 2787 
Q 1159 2491 1159 1978 
L 1159 0 
L 581 0 
L 581 3500 
L 1159 3500 
L 1159 2956 
Q 1366 3272 1645 3428 
Q 1925 3584 2291 3584 
Q 2894 3584 3203 3211 
Q 3513 2838 3513 2113 
z
" transform="scale(0.015625)"/>
       <path id="DejaVuSans-70" d="M 1159 525 
L 1159 -1331 
L 581 -1331 
L 581 3500 
L 1159 3500 
L 1159 2969 
Q 1341 3281 1617 3432 
Q 1894 3584 2278 3584 
Q 2916 3584 3314 3078 
Q 3713 2572 3713 1747 
Q 3713 922 3314 415 
Q 2916 -91 2278 -91 
Q 1894 -91 1617 61 
Q 1341 213 1159 525 
z
M 3116 1747 
Q 3116 2381 2855 2742 
Q 2594 3103 2138 3103 
Q 1681 3103 1420 2742 
Q 1159 2381 1159 1747 
Q 1159 1113 1420 752 
Q 1681 391 2138 391 
Q 2594 391 2855 752 
Q 3116 1113 3116 1747 
z
" transform="scale(0.015625)"/>
       <path id="DejaVuSans-6f" d="M 1959 3097 
Q 1497 3097 1228 2736 
Q 959 2375 959 1747 
Q 959 1119 1226 758 
Q 1494 397 1959 397 
Q 2419 397 2687 759 
Q 2956 1122 2956 1747 
Q 2956 2369 2687 2733 
Q 2419 3097 1959 3097 
z
M 1959 3584 
Q 2709 3584 3137 3096 
Q 3566 2609 3566 1747 
Q 3566 888 3137 398 
Q 2709 -91 1959 -91 
Q 1206 -91 779 398 
Q 353 888 353 1747 
Q 353 2609 779 3096 
Q 1206 3584 1959 3584 
z
" transform="scale(0.015625)"/>
       <path id="DejaVuSans-6c" d="M 603 4863 
L 1178 4863 
L 1178 0 
L 603 0 
L 603 4863 
z
" transform="scale(0.015625)"/>
       <path id="DejaVuSans-56" d="M 1831 0 
L 50 4666 
L 709 4666 
L 2188 738 
L 3669 4666 
L 4325 4666 
L 2547 0 
L 1831 0 
z
" transform="scale(0.015625)"/>
      </defs>
      <use xlink:href="#DejaVuSans-4d"/>
      <use xlink:href="#DejaVuSans-65" transform="translate(86.279297 0)"/>
      <use xlink:href="#DejaVuSans-6d" transform="translate(147.802734 0)"/>
      <use xlink:href="#DejaVuSans-62" transform="translate(245.214844 0)"/>
      <use xlink:href="#DejaVuSans-72" transform="translate(308.691406 0)"/>
      <use xlink:href="#DejaVuSans-61" transform="translate(349.804688 0)"/>
      <use xlink:href="#DejaVuSans-6e" transform="translate(411.083984 0)"/>
      <use xlink:href="#DejaVuSans-70" transform="translate(474.462891 0)"/>
      <use xlink:href="#DejaVuSans-6f" transform="translate(537.939453 0)"/>
      <use xlink:href="#DejaVuSans-74" transform="translate(599.121094 0)"/>
      <use xlink:href="#DejaVuSans-65" transform="translate(638.330078 0)"/>
      <use xlink:href="#DejaVuSans-6e" transform="translate(699.853516 0)"/>
      <use xlink:href="#DejaVuSans-74" transform="translate(763.232422 0)"/>
      <use xlink:href="#DejaVuSans-69" transform="translate(802.441406 0)"/>
      <use xlink:href="#DejaVuSans-61" transform="translate(830.224609 0)"/>
      <use xlink:href="#DejaVuSans-6c" transform="translate(891.503906 0)"/>
      <use xlink:href="#DejaVuSans-20" transform="translate(919.287109 0)"/>
      <use xlink:href="#DejaVuSans-56" transform="translate(951.074219 0)"/>
      <use xlink:href="#DejaVuSans-20" transform="translate(1019.482422 0)"/>
      <use xlink:href="#DejaVuSans-5b" transform="translate(1051.269531 0)"/>
      <use xlink:href="#DejaVuSans-6d" transform="translate(1090.283203 0)"/>
      <use xlink:href="#DejaVuSans-56" transform="translate(1187.695312 0)"/>
      <use xlink:href="#DejaVuSans-5d" transform="translate(1256.103516 0)"/>
     </g>
    </g>
   </g>
   <g id="line2d_16">
    <path d="M 58.162244 211.313861 
L 75.755921 211.303703 
L 77.022666 206.41913 
L 79.274656 197.919359 
L 79.978403 194.223489 
L 80.541401 190.074818 
L 80.998836 185.091872 
L 81.421085 177.857161 
L 81.772958 167.850926 
L 82.089644 152.504984 
L 82.406331 125.858442 
L 83.145265 55.937827 
L 83.321202 54.546182 
L 83.426764 54.879546 
L 83.673075 57.032895 
L 84.130511 63.489957 
L 84.869445 77.540449 
L 89.021553 162.07642 
L 90.112361 184.482064 
L 91.097607 210.52559 
L 91.625417 221.106037 
L 91.977291 224.420678 
L 92.293977 225.693595 
L 92.610663 226.176429 
L 92.962536 226.317182 
L 93.384785 226.424609 
L 93.701471 227.228399 
L 94.053344 227.579001 
L 94.51078 227.704522 
L 95.320089 227.650796 
L 97.43133 227.223762 
L 100.598192 226.3684 
L 103.835428 225.263479 
L 107.424538 223.79554 
L 112.104456 221.619579 
L 122.132852 216.898442 
L 126.460896 215.153317 
L 130.472255 213.774168 
L 134.378051 212.666631 
L 138.213472 211.810512 
L 142.013706 211.190643 
L 145.813941 210.79536 
L 149.790111 210.60675 
L 154.294093 210.623508 
L 160.663004 210.895234 
L 171.852582 211.372524 
L 179.910486 211.456672 
L 195.463296 211.329702 
L 214.534841 211.286447 
L 292.615577 211.308667 
L 339.625881 211.308477 
L 339.625881 211.308477 
" clip-path="url(#pb6dca9ed14)" style="fill: none; stroke: #e05a2b; stroke-width: 1.2; stroke-linecap: square"/>
   </g>
   <g id="line2d_17">
    <path d="M 44.089063 211.313861 
L 353.699062 211.313861 
" clip-path="url(#pb6dca9ed14)" style="fill: none; stroke: #888888; stroke-width: 0.5; stroke-linecap: square"/>
   </g>
   <g id="patch_4">
    <path d="M 44.089063 236.368 
L 44.089063 45.888 
" style="fill: none; stroke: #000000; stroke-width: 0.8; stroke-linejoin: miter; stroke-linecap: square"/>
   </g>
   <g id="patch_5">
    <path d="M 353.699062 236.368 
L 353.699062 45.888 
" style="fill: none; stroke: #000000; stroke-width: 0.8; stroke-linejoin: miter; stroke-linecap: square"/>
   </g>
   <g id="patch_6">
    <path d="M 44.089063 236.368 
L 353.699062 236.368 
" style="fill: none; stroke: #000000; stroke-width: 0.8; stroke-linejoin: miter; stroke-linecap: square"/>
   </g>
   <g id="patch_7">
    <path d="M 44.089063 45.888 
L 353.699062 45.888 
" style="fill: none; stroke: #000000; stroke-width: 0.8; stroke-linejoin: miter; stroke-linecap: square"/>
   </g>
   <g id="text_18">
    <!-- Aktionspotential (HH 1952, I=10 µA/cm²) -->
    <g transform="translate(96.125312 39.888) scale(0.1 -0.1)">
     <defs>
      <path id="DejaVuSans-41" d="M 2188 4044 
L 1331 1722 
L 3047 1722 
L 2188 4044 
z
M 1831 4666 
L 2547 4666 
L 4325 0 
L 3669 0 
L 3244 1197 
L 1141 1197 
L 716 0 
L 50 0 
L 1831 4666 
z
" transform="scale(0.015625)"/>
      <path id="DejaVuSans-6b" d="M 581 4863 
L 1159 4863 
L 1159 1991 
L 2875 3500 
L 3609 3500 
L 1753 1863 
L 3688 0 
L 2938 0 
L 1159 1709 
L 1159 0 
L 581 0 
L 581 4863 
z
" transform="scale(0.015625)"/>
      <path id="DejaVuSans-28" d="M 1984 4856 
Q 1566 4138 1362 3434 
Q 1159 2731 1159 2009 
Q 1159 1288 1364 580 
Q 1569 -128 1984 -844 
L 1484 -844 
Q 1016 -109 783 600 
Q 550 1309 550 2009 
Q 550 2706 781 3412 
Q 1013 4119 1484 4856 
L 1984 4856 
z
" transform="scale(0.015625)"/>
      <path id="DejaVuSans-48" d="M 628 4666 
L 1259 4666 
L 1259 2753 
L 3553 2753 
L 3553 4666 
L 4184 4666 
L 4184 0 
L 3553 0 
L 3553 2222 
L 1259 2222 
L 1259 0 
L 628 0 
L 628 4666 
z
" transform="scale(0.015625)"/>
      <path id="DejaVuSans-39" d="M 703 97 
L 703 672 
Q 941 559 1184 500 
Q 1428 441 1663 441 
Q 2288 441 2617 861 
Q 2947 1281 2994 2138 
Q 2813 1869 2534 1725 
Q 2256 1581 1919 1581 
Q 1219 1581 811 2004 
Q 403 2428 403 3163 
Q 403 3881 828 4315 
Q 1253 4750 1959 4750 
Q 2769 4750 3195 4129 
Q 3622 3509 3622 2328 
Q 3622 1225 3098 567 
Q 2575 -91 1691 -91 
Q 1453 -91 1209 -44 
Q 966 3 703 97 
z
M 1959 2075 
Q 2384 2075 2632 2365 
Q 2881 2656 2881 3163 
Q 2881 3666 2632 3958 
Q 2384 4250 1959 4250 
Q 1534 4250 1286 3958 
Q 1038 3666 1038 3163 
Q 1038 2656 1286 2365 
Q 1534 2075 1959 2075 
z
" transform="scale(0.015625)"/>
      <path id="DejaVuSans-2c" d="M 750 794 
L 1409 794 
L 1409 256 
L 897 -744 
L 494 -744 
L 750 256 
L 750 794 
z
" transform="scale(0.015625)"/>
      <path id="DejaVuSans-49" d="M 628 4666 
L 1259 4666 
L 1259 0 
L 628 0 
L 628 4666 
z
" transform="scale(0.015625)"/>
      <path id="DejaVuSans-3d" d="M 678 2906 
L 4684 2906 
L 4684 2381 
L 678 2381 
L 678 2906 
z
M 678 1631 
L 4684 1631 
L 4684 1100 
L 678 1100 
L 678 1631 
z
" transform="scale(0.015625)"/>
      <path id="DejaVuSans-b5" d="M 544 -1331 
L 544 3500 
L 1119 3500 
L 1119 1325 
Q 1119 872 1334 640 
Q 1550 409 1972 409 
Q 2434 409 2667 671 
Q 2900 934 2900 1459 
L 2900 3500 
L 3475 3500 
L 3475 806 
Q 3475 619 3529 530 
Q 3584 441 3700 441 
Q 3728 441 3778 458 
Q 3828 475 3916 513 
L 3916 50 
Q 3788 -22 3673 -56 
Q 3559 -91 3450 -91 
Q 3234 -91 3106 31 
Q 2978 153 2931 403 
Q 2775 156 2548 32 
Q 2322 -91 2016 -91 
Q 1697 -91 1473 31 
Q 1250 153 1119 397 
L 1119 -1331 
L 544 -1331 
z
" transform="scale(0.015625)"/>
      <path id="DejaVuSans-2f" d="M 1625 4666 
L 2156 4666 
L 531 -594 
L 0 -594 
L 1625 4666 
z
" transform="scale(0.015625)"/>
      <path id="DejaVuSans-63" d="M 3122 3366 
L 3122 2828 
Q 2878 2963 2633 3030 
Q 2388 3097 2138 3097 
Q 1578 3097 1268 2742 
Q 959 2388 959 1747 
Q 959 1106 1268 751 
Q 1578 397 2138 397 
Q 2388 397 2633 464 
Q 2878 531 3122 666 
L 3122 134 
Q 2881 22 2623 -34 
Q 2366 -91 2075 -91 
Q 1284 -91 818 406 
Q 353 903 353 1747 
Q 353 2603 823 3093 
Q 1294 3584 2113 3584 
Q 2378 3584 2631 3529 
Q 2884 3475 3122 3366 
z
" transform="scale(0.015625)"/>
      <path id="DejaVuSans-b2" d="M 838 2444 
L 2163 2444 
L 2163 2088 
L 294 2088 
L 294 2431 
Q 400 2528 597 2703 
Q 1672 3656 1672 3950 
Q 1672 4156 1509 4282 
Q 1347 4409 1081 4409 
Q 919 4409 728 4354 
Q 538 4300 313 4191 
L 313 4575 
Q 553 4663 761 4706 
Q 969 4750 1147 4750 
Q 1600 4750 1872 4544 
Q 2144 4338 2144 4000 
Q 2144 3566 1109 2678 
Q 934 2528 838 2444 
z
" transform="scale(0.015625)"/>
      <path id="DejaVuSans-29" d="M 513 4856 
L 1013 4856 
Q 1481 4119 1714 3412 
Q 1947 2706 1947 2009 
Q 1947 1309 1714 600 
Q 1481 -109 1013 -844 
L 513 -844 
Q 928 -128 1133 580 
Q 1338 1288 1338 2009 
Q 1338 2731 1133 3434 
Q 928 4138 513 4856 
z
" transform="scale(0.015625)"/>
     </defs>
     <use xlink:href="#DejaVuSans-41"/>
     <use xlink:href="#DejaVuSans-6b" transform="translate(68.408203 0)"/>
     <use xlink:href="#DejaVuSans-74" transform="translate(126.318359 0)"/>
     <use xlink:href="#DejaVuSans-69" transform="translate(165.527344 0)"/>
     <use xlink:href="#DejaVuSans-6f" transform="translate(193.310547 0)"/>
     <use xlink:href="#DejaVuSans-6e" transform="translate(254.492188 0)"/>
     <use xlink:href="#DejaVuSans-73" transform="translate(317.871094 0)"/>
     <use xlink:href="#DejaVuSans-70" transform="translate(369.970703 0)"/>
     <use xlink:href="#DejaVuSans-6f" transform="translate(433.447266 0)"/>
     <use xlink:href="#DejaVuSans-74" transform="translate(494.628906 0)"/>
     <use xlink:href="#DejaVuSans-65" transform="translate(533.837891 0)"/>
     <use xlink:href="#DejaVuSans-6e" transform="translate(595.361328 0)"/>
     <use xlink:href="#DejaVuSans-74" transform="translate(658.740234 0)"/>
     <use xlink:href="#DejaVuSans-69" transform="translate(697.949219 0)"/>
     <use xlink:href="#DejaVuSans-61" transform="translate(725.732422 0)"/>
     <use xlink:href="#DejaVuSans-6c" transform="translate(787.011719 0)"/>
     <use xlink:href="#DejaVuSans-20" transform="translate(814.794922 0)"/>
     <use xlink:href="#DejaVuSans-28" transform="translate(846.582031 0)"/>
     <use xlink:href="#DejaVuSans-48" transform="translate(885.595703 0)"/>
     <use xlink:href="#DejaVuSans-48" transform="translate(960.791016 0)"/>
     <use xlink:href="#DejaVuSans-20" transform="translate(1035.986328 0)"/>
     <use xlink:href="#DejaVuSans-31" transform="translate(1067.773438 0)"/>
     <use xlink:href="#DejaVuSans-39" transform="translate(1131.396484 0)"/>
     <use xlink:href="#DejaVuSans-35" transform="translate(1195.019531 0)"/>
     <use xlink:href="#DejaVuSans-32" transform="translate(1258.642578 0)"/>
     <use xlink:href="#DejaVuSans-2c" transform="translate(1322.265625 0)"/>
     <use xlink:href="#DejaVuSans-20" transform="translate(1354.052734 0)"/>
     <use xlink:href="#DejaVuSans-49" transform="translate(1385.839844 0)"/>
     <use xlink:href="#DejaVuSans-3d" transform="translate(1415.332031 0)"/>
     <use xlink:href="#DejaVuSans-31" transform="translate(1499.121094 0)"/>
     <use xlink:href="#DejaVuSans-30" transform="translate(1562.744141 0)"/>
     <use xlink:href="#DejaVuSans-20" transform="translate(1626.367188 0)"/>
     <use xlink:href="#DejaVuSans-b5" transform="translate(1658.154297 0)"/>
     <use xlink:href="#DejaVuSans-41" transform="translate(1721.777344 0)"/>
     <use xlink:href="#DejaVuSans-2f" transform="translate(1790.185547 0)"/>
     <use xlink:href="#DejaVuSans-63" transform="translate(1823.876953 0)"/>
     <use xlink:href="#DejaVuSans-6d" transform="translate(1878.857422 0)"/>
     <use xlink:href="#DejaVuSans-b2" transform="translate(1976.269531 0)"/>
     <use xlink:href="#DejaVuSans-29" transform="translate(2016.357422 0)"/>
    </g>
   </g>
   <g id="legend_1">
    <g id="patch_8">
     <path d="M 285.597812 75.773 
L 348.099062 75.773 
Q 349.699062 75.773 349.699062 74.173 
L 349.699062 51.488 
Q 349.699062 49.888 348.099062 49.888 
L 285.597812 49.888 
Q 283.997812 49.888 283.997812 51.488 
L 283.997812 74.173 
Q 283.997812 75.773 285.597812 75.773 
z
" style="fill: #ffffff; opacity: 0.8; stroke: #cccccc; stroke-linejoin: miter"/>
    </g>
    <g id="patch_9">
     <path d="M 287.197812 59.16675 
L 303.197812 59.16675 
L 303.197812 53.56675 
L 287.197812 53.56675 
z
" style="fill: #ffd700; opacity: 0.15; stroke: #ffd700; stroke-linejoin: miter"/>
    </g>
    <g id="text_19">
     <!-- Stimulus -->
     <g transform="translate(309.597812 59.16675) scale(0.08 -0.08)">
      <defs>
       <path id="DejaVuSans-53" d="M 3425 4513 
L 3425 3897 
Q 3066 4069 2747 4153 
Q 2428 4238 2131 4238 
Q 1616 4238 1336 4038 
Q 1056 3838 1056 3469 
Q 1056 3159 1242 3001 
Q 1428 2844 1947 2747 
L 2328 2669 
Q 3034 2534 3370 2195 
Q 3706 1856 3706 1288 
Q 3706 609 3251 259 
Q 2797 -91 1919 -91 
Q 1588 -91 1214 -16 
Q 841 59 441 206 
L 441 856 
Q 825 641 1194 531 
Q 1563 422 1919 422 
Q 2459 422 2753 634 
Q 3047 847 3047 1241 
Q 3047 1584 2836 1778 
Q 2625 1972 2144 2069 
L 1759 2144 
Q 1053 2284 737 2584 
Q 422 2884 422 3419 
Q 422 4038 858 4394 
Q 1294 4750 2059 4750 
Q 2388 4750 2728 4690 
Q 3069 4631 3425 4513 
z
" transform="scale(0.015625)"/>
       <path id="DejaVuSans-75" d="M 544 1381 
L 544 3500 
L 1119 3500 
L 1119 1403 
Q 1119 906 1312 657 
Q 1506 409 1894 409 
Q 2359 409 2629 706 
Q 2900 1003 2900 1516 
L 2900 3500 
L 3475 3500 
L 3475 0 
L 2900 0 
L 2900 538 
Q 2691 219 2414 64 
Q 2138 -91 1772 -91 
Q 1169 -91 856 284 
Q 544 659 544 1381 
z
M 1991 3584 
L 1991 3584 
z
" transform="scale(0.015625)"/>
      </defs>
      <use xlink:href="#DejaVuSans-53"/>
      <use xlink:href="#DejaVuSans-74" transform="translate(63.476562 0)"/>
      <use xlink:href="#DejaVuSans-69" transform="translate(102.685547 0)"/>
      <use xlink:href="#DejaVuSans-6d" transform="translate(130.46875 0)"/>
      <use xlink:href="#DejaVuSans-75" transform="translate(227.880859 0)"/>
      <use xlink:href="#DejaVuSans-6c" transform="translate(291.259766 0)"/>
      <use xlink:href="#DejaVuSans-75" transform="translate(319.042969 0)"/>
      <use xlink:href="#DejaVuSans-73" transform="translate(382.421875 0)"/>
     </g>
    </g>
    <g id="line2d_18">
     <path d="M 287.197812 68.10925 
L 295.197812 68.10925 
L 303.197812 68.10925 
" style="fill: none; stroke: #e05a2b; stroke-width: 1.2; stroke-linecap: square"/>
    </g>
    <g id="text_20">
     <!-- V(t) [mV] -->
     <g transform="translate(309.597812 70.90925) scale(0.08 -0.08)">
      <use xlink:href="#DejaVuSans-56"/>
      <use xlink:href="#DejaVuSans-28" transform="translate(68.408203 0)"/>
      <use xlink:href="#DejaVuSans-74" transform="translate(107.421875 0)"/>
      <use xlink:href="#DejaVuSans-29" transform="translate(146.630859 0)"/>
      <use xlink:href="#DejaVuSans-20" transform="translate(185.644531 0)"/>
      <use xlink:href="#DejaVuSans-5b" transform="translate(217.431641 0)"/>
      <use xlink:href="#DejaVuSans-6d" transform="translate(256.445312 0)"/>
      <use xlink:href="#DejaVuSans-56" transform="translate(353.857422 0)"/>
      <use xlink:href="#DejaVuSans-5d" transform="translate(422.265625 0)"/>
     </g>
    </g>
   </g>
  </g>
  <g id="axes_2">
   <g id="patch_10">
    <path d="M 397.819063 236.368 
L 707.429063 236.368 
L 707.429063 45.888 
L 397.819063 45.888 
z
" style="fill: #ffffff"/>
   </g>
   <g id="patch_11">
    <path d="M 429.485921 236.368 
L 447.079597 236.368 
L 447.079597 45.888 
L 429.485921 45.888 
z
" clip-path="url(#p608db71579)" style="fill: #ffd700; opacity: 0.1; stroke: #ffd700; stroke-linejoin: miter"/>
   </g>
   <g id="matplotlib.axis_3">
    <g id="xtick_10">
     <g id="line2d_19">
      <g>
       <use xlink:href="#mb5b8af3660" x="411.892244" y="236.368" style="stroke: #000000; stroke-width: 0.8"/>
      </g>
     </g>
     <g id="text_21">
      <!-- 0 -->
      <g transform="translate(409.029119 250.206594) scale(0.09 -0.09)">
       <use xlink:href="#DejaVuSans-30"/>
      </g>
     </g>
    </g>
    <g id="xtick_11">
     <g id="line2d_20">
      <g>
       <use xlink:href="#mb5b8af3660" x="447.079597" y="236.368" style="stroke: #000000; stroke-width: 0.8"/>
      </g>
     </g>
     <g id="text_22">
      <!-- 10 -->
      <g transform="translate(441.353347 250.206594) scale(0.09 -0.09)">
       <use xlink:href="#DejaVuSans-31"/>
       <use xlink:href="#DejaVuSans-30" transform="translate(63.623047 0)"/>
      </g>
     </g>
    </g>
    <g id="xtick_12">
     <g id="line2d_21">
      <g>
       <use xlink:href="#mb5b8af3660" x="482.26695" y="236.368" style="stroke: #000000; stroke-width: 0.8"/>
      </g>
     </g>
     <g id="text_23">
      <!-- 20 -->
      <g transform="translate(476.5407 250.206594) scale(0.09 -0.09)">
       <use xlink:href="#DejaVuSans-32"/>
       <use xlink:href="#DejaVuSans-30" transform="translate(63.623047 0)"/>
      </g>
     </g>
    </g>
    <g id="xtick_13">
     <g id="line2d_22">
      <g>
       <use xlink:href="#mb5b8af3660" x="517.454303" y="236.368" style="stroke: #000000; stroke-width: 0.8"/>
      </g>
     </g>
     <g id="text_24">
      <!-- 30 -->
      <g transform="translate(511.728053 250.206594) scale(0.09 -0.09)">
       <use xlink:href="#DejaVuSans-33"/>
       <use xlink:href="#DejaVuSans-30" transform="translate(63.623047 0)"/>
      </g>
     </g>
    </g>
    <g id="xtick_14">
     <g id="line2d_23">
      <g>
       <use xlink:href="#mb5b8af3660" x="552.641656" y="236.368" style="stroke: #000000; stroke-width: 0.8"/>
      </g>
     </g>
     <g id="text_25">
      <!-- 40 -->
      <g transform="translate(546.915406 250.206594) scale(0.09 -0.09)">
       <use xlink:href="#DejaVuSans-34"/>
       <use xlink:href="#DejaVuSans-30" transform="translate(63.623047 0)"/>
      </g>
     </g>
    </g>
    <g id="xtick_15">
     <g id="line2d_24">
      <g>
       <use xlink:href="#mb5b8af3660" x="587.829009" y="236.368" style="stroke: #000000; stroke-width: 0.8"/>
      </g>
     </g>
     <g id="text_26">
      <!-- 50 -->
      <g transform="translate(582.102759 250.206594) scale(0.09 -0.09)">
       <use xlink:href="#DejaVuSans-35"/>
       <use xlink:href="#DejaVuSans-30" transform="translate(63.623047 0)"/>
      </g>
     </g>
    </g>
    <g id="xtick_16">
     <g id="line2d_25">
      <g>
       <use xlink:href="#mb5b8af3660" x="623.016362" y="236.368" style="stroke: #000000; stroke-width: 0.8"/>
      </g>
     </g>
     <g id="text_27">
      <!-- 60 -->
      <g transform="translate(617.290112 250.206594) scale(0.09 -0.09)">
       <use xlink:href="#DejaVuSans-36"/>
       <use xlink:href="#DejaVuSans-30" transform="translate(63.623047 0)"/>
      </g>
     </g>
    </g>
    <g id="xtick_17">
     <g id="line2d_26">
      <g>
       <use xlink:href="#mb5b8af3660" x="658.203715" y="236.368" style="stroke: #000000; stroke-width: 0.8"/>
      </g>
     </g>
     <g id="text_28">
      <!-- 70 -->
      <g transform="translate(652.477465 250.206594) scale(0.09 -0.09)">
       <use xlink:href="#DejaVuSans-37"/>
       <use xlink:href="#DejaVuSans-30" transform="translate(63.623047 0)"/>
      </g>
     </g>
    </g>
    <g id="xtick_18">
     <g id="line2d_27">
      <g>
       <use xlink:href="#mb5b8af3660" x="693.391068" y="236.368" style="stroke: #000000; stroke-width: 0.8"/>
      </g>
     </g>
     <g id="text_29">
      <!-- 80 -->
      <g transform="translate(687.664818 250.206594) scale(0.09 -0.09)">
       <use xlink:href="#DejaVuSans-38"/>
       <use xlink:href="#DejaVuSans-30" transform="translate(63.623047 0)"/>
      </g>
     </g>
    </g>
    <g id="text_30">
     <!-- Zeit [ms] -->
     <g transform="translate(532.089297 262.916906) scale(0.09 -0.09)">
      <use xlink:href="#DejaVuSans-5a"/>
      <use xlink:href="#DejaVuSans-65" transform="translate(68.505859 0)"/>
      <use xlink:href="#DejaVuSans-69" transform="translate(130.029297 0)"/>
      <use xlink:href="#DejaVuSans-74" transform="translate(157.8125 0)"/>
      <use xlink:href="#DejaVuSans-20" transform="translate(197.021484 0)"/>
      <use xlink:href="#DejaVuSans-5b" transform="translate(228.808594 0)"/>
      <use xlink:href="#DejaVuSans-6d" transform="translate(267.822266 0)"/>
      <use xlink:href="#DejaVuSans-73" transform="translate(365.234375 0)"/>
      <use xlink:href="#DejaVuSans-5d" transform="translate(417.333984 0)"/>
     </g>
    </g>
   </g>
   <g id="matplotlib.axis_4">
    <g id="ytick_7">
     <g id="line2d_28">
      <g>
       <use xlink:href="#maf9abdf015" x="397.819063" y="227.710261" style="stroke: #000000; stroke-width: 0.8"/>
      </g>
     </g>
     <g id="text_31">
      <!-- 0.0 -->
      <g transform="translate(376.50625 231.129558) scale(0.09 -0.09)">
       <defs>
        <path id="DejaVuSans-2e" d="M 684 794 
L 1344 794 
L 1344 0 
L 684 0 
L 684 794 
z
" transform="scale(0.015625)"/>
       </defs>
       <use xlink:href="#DejaVuSans-30"/>
       <use xlink:href="#DejaVuSans-2e" transform="translate(63.623047 0)"/>
       <use xlink:href="#DejaVuSans-30" transform="translate(95.410156 0)"/>
      </g>
     </g>
    </g>
    <g id="ytick_8">
     <g id="line2d_29">
      <g>
       <use xlink:href="#maf9abdf015" x="397.819063" y="192.50391" style="stroke: #000000; stroke-width: 0.8"/>
      </g>
     </g>
     <g id="text_32">
      <!-- 0.2 -->
      <g transform="translate(376.50625 195.923207) scale(0.09 -0.09)">
       <use xlink:href="#DejaVuSans-30"/>
       <use xlink:href="#DejaVuSans-2e" transform="translate(63.623047 0)"/>
       <use xlink:href="#DejaVuSans-32" transform="translate(95.410156 0)"/>
      </g>
     </g>
    </g>
    <g id="ytick_9">
     <g id="line2d_30">
      <g>
       <use xlink:href="#maf9abdf015" x="397.819063" y="157.29756" style="stroke: #000000; stroke-width: 0.8"/>
      </g>
     </g>
     <g id="text_33">
      <!-- 0.4 -->
      <g transform="translate(376.50625 160.716857) scale(0.09 -0.09)">
       <use xlink:href="#DejaVuSans-30"/>
       <use xlink:href="#DejaVuSans-2e" transform="translate(63.623047 0)"/>
       <use xlink:href="#DejaVuSans-34" transform="translate(95.410156 0)"/>
      </g>
     </g>
    </g>
    <g id="ytick_10">
     <g id="line2d_31">
      <g>
       <use xlink:href="#maf9abdf015" x="397.819063" y="122.091209" style="stroke: #000000; stroke-width: 0.8"/>
      </g>
     </g>
     <g id="text_34">
      <!-- 0.6 -->
      <g transform="translate(376.50625 125.510506) scale(0.09 -0.09)">
       <use xlink:href="#DejaVuSans-30"/>
       <use xlink:href="#DejaVuSans-2e" transform="translate(63.623047 0)"/>
       <use xlink:href="#DejaVuSans-36" transform="translate(95.410156 0)"/>
      </g>
     </g>
    </g>
    <g id="ytick_11">
     <g id="line2d_32">
      <g>
       <use xlink:href="#maf9abdf015" x="397.819063" y="86.884859" style="stroke: #000000; stroke-width: 0.8"/>
      </g>
     </g>
     <g id="text_35">
      <!-- 0.8 -->
      <g transform="translate(376.50625 90.304156) scale(0.09 -0.09)">
       <use xlink:href="#DejaVuSans-30"/>
       <use xlink:href="#DejaVuSans-2e" transform="translate(63.623047 0)"/>
       <use xlink:href="#DejaVuSans-38" transform="translate(95.410156 0)"/>
      </g>
     </g>
    </g>
    <g id="ytick_12">
     <g id="line2d_33">
      <g>
       <use xlink:href="#maf9abdf015" x="397.819063" y="51.678508" style="stroke: #000000; stroke-width: 0.8"/>
      </g>
     </g>
     <g id="text_36">
      <!-- 1.0 -->
      <g transform="translate(376.50625 55.097805) scale(0.09 -0.09)">
       <use xlink:href="#DejaVuSans-31"/>
       <use xlink:href="#DejaVuSans-2e" transform="translate(63.623047 0)"/>
       <use xlink:href="#DejaVuSans-30" transform="translate(95.410156 0)"/>
      </g>
     </g>
    </g>
    <g id="text_37">
     <!-- Gating-Variable (normiert) -->
     <g transform="translate(370.634531 200.009797) rotate(-90) scale(0.09 -0.09)">
      <defs>
       <path id="DejaVuSans-47" d="M 3809 666 
L 3809 1919 
L 2778 1919 
L 2778 2438 
L 4434 2438 
L 4434 434 
Q 4069 175 3628 42 
Q 3188 -91 2688 -91 
Q 1594 -91 976 548 
Q 359 1188 359 2328 
Q 359 3472 976 4111 
Q 1594 4750 2688 4750 
Q 3144 4750 3555 4637 
Q 3966 4525 4313 4306 
L 4313 3634 
Q 3963 3931 3569 4081 
Q 3175 4231 2741 4231 
Q 1884 4231 1454 3753 
Q 1025 3275 1025 2328 
Q 1025 1384 1454 906 
Q 1884 428 2741 428 
Q 3075 428 3337 486 
Q 3600 544 3809 666 
z
" transform="scale(0.015625)"/>
       <path id="DejaVuSans-67" d="M 2906 1791 
Q 2906 2416 2648 2759 
Q 2391 3103 1925 3103 
Q 1463 3103 1205 2759 
Q 947 2416 947 1791 
Q 947 1169 1205 825 
Q 1463 481 1925 481 
Q 2391 481 2648 825 
Q 2906 1169 2906 1791 
z
M 3481 434 
Q 3481 -459 3084 -895 
Q 2688 -1331 1869 -1331 
Q 1566 -1331 1297 -1286 
Q 1028 -1241 775 -1147 
L 775 -588 
Q 1028 -725 1275 -790 
Q 1522 -856 1778 -856 
Q 2344 -856 2625 -561 
Q 2906 -266 2906 331 
L 2906 616 
Q 2728 306 2450 153 
Q 2172 0 1784 0 
Q 1141 0 747 490 
Q 353 981 353 1791 
Q 353 2603 747 3093 
Q 1141 3584 1784 3584 
Q 2172 3584 2450 3431 
Q 2728 3278 2906 2969 
L 2906 3500 
L 3481 3500 
L 3481 434 
z
" transform="scale(0.015625)"/>
       <path id="DejaVuSans-2d" d="M 313 2009 
L 1997 2009 
L 1997 1497 
L 313 1497 
L 313 2009 
z
" transform="scale(0.015625)"/>
      </defs>
      <use xlink:href="#DejaVuSans-47"/>
      <use xlink:href="#DejaVuSans-61" transform="translate(77.490234 0)"/>
      <use xlink:href="#DejaVuSans-74" transform="translate(138.769531 0)"/>
      <use xlink:href="#DejaVuSans-69" transform="translate(177.978516 0)"/>
      <use xlink:href="#DejaVuSans-6e" transform="translate(205.761719 0)"/>
      <use xlink:href="#DejaVuSans-67" transform="translate(269.140625 0)"/>
      <use xlink:href="#DejaVuSans-2d" transform="translate(332.617188 0)"/>
      <use xlink:href="#DejaVuSans-56" transform="translate(362.826172 0)"/>
      <use xlink:href="#DejaVuSans-61" transform="translate(423.484375 0)"/>
      <use xlink:href="#DejaVuSans-72" transform="translate(484.763672 0)"/>
      <use xlink:href="#DejaVuSans-69" transform="translate(525.876953 0)"/>
      <use xlink:href="#DejaVuSans-61" transform="translate(553.660156 0)"/>
      <use xlink:href="#DejaVuSans-62" transform="translate(614.939453 0)"/>
      <use xlink:href="#DejaVuSans-6c" transform="translate(678.416016 0)"/>
      <use xlink:href="#DejaVuSans-65" transform="translate(706.199219 0)"/>
      <use xlink:href="#DejaVuSans-20" transform="translate(767.722656 0)"/>
      <use xlink:href="#DejaVuSans-28" transform="translate(799.509766 0)"/>
      <use xlink:href="#DejaVuSans-6e" transform="translate(838.523438 0)"/>
      <use xlink:href="#DejaVuSans-6f" transform="translate(901.902344 0)"/>
      <use xlink:href="#DejaVuSans-72" transform="translate(963.083984 0)"/>
      <use xlink:href="#DejaVuSans-6d" transform="translate(1002.447266 0)"/>
      <use xlink:href="#DejaVuSans-69" transform="translate(1099.859375 0)"/>
      <use xlink:href="#DejaVuSans-65" transform="translate(1127.642578 0)"/>
      <use xlink:href="#DejaVuSans-72" transform="translate(1189.166016 0)"/>
      <use xlink:href="#DejaVuSans-74" transform="translate(1230.279297 0)"/>
      <use xlink:href="#DejaVuSans-29" transform="translate(1269.488281 0)"/>
     </g>
    </g>
   </g>
   <g id="line2d_34">
    <path d="M 411.892244 227.684154 
L 432.300909 227.575556 
L 433.638028 227.335253 
L 434.306588 227.013448 
L 434.728836 226.589113 
L 435.08071 225.899245 
L 435.362209 224.828956 
L 435.60852 223.016981 
L 435.854832 219.284052 
L 436.065956 212.579071 
L 436.312267 195.936352 
L 436.628953 154.613784 
L 437.156764 88.724582 
L 437.508637 68.992782 
L 437.860511 60.152495 
L 438.212384 56.368344 
L 438.529071 54.975518 
L 438.810569 54.566482 
L 439.021693 54.584504 
L 439.268005 54.873515 
L 439.584691 55.62227 
L 439.971752 57.137024 
L 440.394 59.702856 
L 440.851436 63.913138 
L 441.344059 70.720795 
L 441.871869 81.546939 
L 442.434867 98.287571 
L 443.068239 124.68573 
L 443.877548 169.289693 
L 444.722045 213.938788 
L 445.109106 223.836159 
L 445.390604 226.543096 
L 445.672103 227.406644 
L 445.953602 227.633321 
L 446.481412 227.702196 
L 450.879831 227.709793 
L 693.355881 227.68412 
L 693.355881 227.68412 
" clip-path="url(#p608db71579)" style="fill: none; stroke: #e05a2b; stroke-width: 1.4; stroke-linecap: square"/>
   </g>
   <g id="line2d_35">
    <path d="M 411.892244 122.77408 
L 430.048918 122.875772 
L 430.682291 123.186023 
L 431.386038 123.793564 
L 432.124972 124.743162 
L 432.863907 126.056985 
L 433.602841 127.842843 
L 434.271401 130.077586 
L 434.834398 132.779268 
L 435.291834 136.095624 
L 435.678895 140.535216 
L 436.136331 148.832243 
L 437.297513 170.921892 
L 438.212384 183.956961 
L 439.127256 193.96661 
L 440.042127 201.597566 
L 440.886623 206.909686 
L 441.660745 210.488762 
L 442.329305 212.633581 
L 442.892302 213.769696 
L 443.349738 214.244611 
L 443.701611 214.333214 
L 444.018298 214.198084 
L 444.370171 213.787558 
L 444.757232 212.972088 
L 445.214668 211.457219 
L 445.953602 208.093079 
L 450.422396 186.687807 
L 452.639199 177.381438 
L 454.820815 169.160737 
L 456.967243 161.922032 
L 459.078485 155.570433 
L 461.154538 150.018661 
L 463.195405 145.18622 
L 465.201084 140.998905 
L 467.171576 137.388495 
L 469.10688 134.292477 
L 471.042185 131.608453 
L 472.942302 129.342657 
L 474.842419 127.413139 
L 476.742536 125.791461 
L 478.67784 124.427942 
L 480.648332 123.309972 
L 482.689198 122.409869 
L 484.80044 121.723284 
L 487.017243 121.235646 
L 489.409983 120.937468 
L 492.084222 120.833511 
L 495.180709 120.943726 
L 499.15688 121.321918 
L 513.548507 122.88945 
L 518.580299 123.083055 
L 524.632523 123.079867 
L 556.125204 122.721977 
L 592.262616 122.794231 
L 693.355881 122.796207 
L 693.355881 122.796207 
" clip-path="url(#p608db71579)" style="fill: none; stroke: #3a7fc1; stroke-width: 1.4; stroke-linecap: square"/>
   </g>
   <g id="line2d_36">
    <path d="M 411.892244 225.917453 
L 431.597162 225.808986 
L 433.462092 225.508854 
L 434.658462 225.11518 
L 435.362209 224.664246 
L 435.784457 224.151906 
L 436.101143 223.444047 
L 436.417829 222.096804 
L 436.769703 219.355196 
L 437.332701 212.783571 
L 438.705007 193.155145 
L 439.725441 180.39094 
L 440.499562 173.264242 
L 441.168122 169.030607 
L 441.73112 166.786667 
L 442.188555 165.79227 
L 442.540429 165.500637 
L 442.821928 165.549273 
L 443.103426 165.840372 
L 443.4553 166.538754 
L 443.912736 168.00148 
L 444.475733 170.669016 
L 445.214668 175.406316 
L 447.114785 187.956061 
L 448.451904 195.02587 
L 449.683461 200.35617 
L 450.915019 204.736356 
L 452.181763 208.43447 
L 453.448508 211.467454 
L 454.75044 214.022806 
L 456.08756 216.167475 
L 457.459866 217.961024 
L 458.902548 219.489486 
L 460.450791 220.805937 
L 462.104597 221.92094 
L 463.934339 222.883326 
L 465.975206 223.701741 
L 468.332758 224.400195 
L 471.077372 224.975596 
L 474.420171 225.441152 
L 478.607466 225.789822 
L 484.096693 226.010942 
L 491.732348 226.079661 
L 506.933285 225.937022 
L 523.963964 225.883523 
L 597.505531 225.916263 
L 693.355881 225.916198 
L 693.355881 225.916198 
" clip-path="url(#p608db71579)" style="fill: none; stroke: #5bad6f; stroke-width: 1.4; stroke-linecap: square"/>
   </g>
   <g id="patch_12">
    <path d="M 397.819063 236.368 
L 397.819063 45.888 
" style="fill: none; stroke: #000000; stroke-width: 0.8; stroke-linejoin: miter; stroke-linecap: square"/>
   </g>
   <g id="patch_13">
    <path d="M 707.429063 236.368 
L 707.429063 45.888 
" style="fill: none; stroke: #000000; stroke-width: 0.8; stroke-linejoin: miter; stroke-linecap: square"/>
   </g>
   <g id="patch_14">
    <path d="M 397.819063 236.368 
L 707.429063 236.368 
" style="fill: none; stroke: #000000; stroke-width: 0.8; stroke-linejoin: miter; stroke-linecap: square"/>
   </g>
   <g id="patch_15">
    <path d="M 397.819063 45.888 
L 707.429063 45.888 
" style="fill: none; stroke: #000000; stroke-width: 0.8; stroke-linejoin: miter; stroke-linecap: square"/>
   </g>
   <g id="text_38">
    <!-- Gating-Variablen m³, h, n⁴ -->
    <g transform="translate(487.906875 39.888) scale(0.1 -0.1)">
     <defs>
      <path id="DejaVuSans-b3" d="M 1638 3500 
Q 1925 3444 2083 3273 
Q 2241 3103 2241 2847 
Q 2241 2459 1944 2250 
Q 1647 2041 1094 2041 
Q 916 2041 720 2073 
Q 525 2106 306 2169 
L 306 2547 
Q 469 2463 655 2422 
Q 841 2381 1050 2381 
Q 1391 2381 1578 2504 
Q 1766 2628 1766 2847 
Q 1766 3078 1592 3197 
Q 1419 3316 1081 3316 
L 813 3316 
L 813 3653 
L 1106 3653 
Q 1400 3653 1551 3751 
Q 1703 3850 1703 4038 
Q 1703 4219 1547 4314 
Q 1391 4409 1094 4409 
Q 969 4409 809 4381 
Q 650 4353 397 4281 
L 397 4641 
Q 625 4694 825 4722 
Q 1025 4750 1197 4750 
Q 1647 4750 1911 4565 
Q 2175 4381 2175 4072 
Q 2175 3856 2034 3706 
Q 1894 3556 1638 3500 
z
" transform="scale(0.015625)"/>
      <path id="DejaVuSans-68" d="M 3513 2113 
L 3513 0 
L 2938 0 
L 2938 2094 
Q 2938 2591 2744 2837 
Q 2550 3084 2163 3084 
Q 1697 3084 1428 2787 
Q 1159 2491 1159 1978 
L 1159 0 
L 581 0 
L 581 4863 
L 1159 4863 
L 1159 2956 
Q 1366 3272 1645 3428 
Q 1925 3584 2291 3584 
Q 2894 3584 3203 3211 
Q 3513 2838 3513 2113 
z
" transform="scale(0.015625)"/>
      <path id="DejaVuSans-2074" d="M 1491 4319 
L 525 3009 
L 1491 3009 
L 1491 4319 
z
M 1422 4697 
L 1941 4697 
L 1941 3009 
L 2363 3009 
L 2363 2669 
L 1941 2669 
L 1941 2088 
L 1491 2088 
L 1491 2669 
L 197 2669 
L 197 3047 
L 1422 4697 
z
" transform="scale(0.015625)"/>
     </defs>
     <use xlink:href="#DejaVuSans-47"/>
     <use xlink:href="#DejaVuSans-61" transform="translate(77.490234 0)"/>
     <use xlink:href="#DejaVuSans-74" transform="translate(138.769531 0)"/>
     <use xlink:href="#DejaVuSans-69" transform="translate(177.978516 0)"/>
     <use xlink:href="#DejaVuSans-6e" transform="translate(205.761719 0)"/>
     <use xlink:href="#DejaVuSans-67" transform="translate(269.140625 0)"/>
     <use xlink:href="#DejaVuSans-2d" transform="translate(332.617188 0)"/>
     <use xlink:href="#DejaVuSans-56" transform="translate(362.826172 0)"/>
     <use xlink:href="#DejaVuSans-61" transform="translate(423.484375 0)"/>
     <use xlink:href="#DejaVuSans-72" transform="translate(484.763672 0)"/>
     <use xlink:href="#DejaVuSans-69" transform="translate(525.876953 0)"/>
     <use xlink:href="#DejaVuSans-61" transform="translate(553.660156 0)"/>
     <use xlink:href="#DejaVuSans-62" transform="translate(614.939453 0)"/>
     <use xlink:href="#DejaVuSans-6c" transform="translate(678.416016 0)"/>
     <use xlink:href="#DejaVuSans-65" transform="translate(706.199219 0)"/>
     <use xlink:href="#DejaVuSans-6e" transform="translate(767.722656 0)"/>
     <use xlink:href="#DejaVuSans-20" transform="translate(831.101562 0)"/>
     <use xlink:href="#DejaVuSans-6d" transform="translate(862.888672 0)"/>
     <use xlink:href="#DejaVuSans-b3" transform="translate(960.300781 0)"/>
     <use xlink:href="#DejaVuSans-2c" transform="translate(1000.388672 0)"/>
     <use xlink:href="#DejaVuSans-20" transform="translate(1032.175781 0)"/>
     <use xlink:href="#DejaVuSans-68" transform="translate(1063.962891 0)"/>
     <use xlink:href="#DejaVuSans-2c" transform="translate(1127.341797 0)"/>
     <use xlink:href="#DejaVuSans-20" transform="translate(1159.128906 0)"/>
     <use xlink:href="#DejaVuSans-6e" transform="translate(1190.916016 0)"/>
     <use xlink:href="#DejaVuSans-2074" transform="translate(1254.294922 0)"/>
    </g>
   </g>
   <g id="legend_2">
    <g id="patch_16">
     <path d="M 595.889063 87.5155 
L 701.829063 87.5155 
Q 703.429063 87.5155 703.429063 85.9155 
L 703.429063 51.488 
Q 703.429063 49.888 701.829063 49.888 
L 595.889063 49.888 
Q 594.289063 49.888 594.289063 51.488 
L 594.289063 85.9155 
Q 594.289063 87.5155 595.889063 87.5155 
z
" style="fill: #ffffff; opacity: 0.8; stroke: #cccccc; stroke-linejoin: miter"/>
    </g>
    <g id="line2d_37">
     <path d="M 597.489063 56.36675 
L 605.489063 56.36675 
L 613.489063 56.36675 
" style="fill: none; stroke: #e05a2b; stroke-width: 1.4; stroke-linecap: square"/>
    </g>
    <g id="text_39">
     <!-- m³ (Na-Aktivierung) -->
     <g transform="translate(619.889063 59.16675) scale(0.08 -0.08)">
      <defs>
       <path id="DejaVuSans-4e" d="M 628 4666 
L 1478 4666 
L 3547 763 
L 3547 4666 
L 4159 4666 
L 4159 0 
L 3309 0 
L 1241 3903 
L 1241 0 
L 628 0 
L 628 4666 
z
" transform="scale(0.015625)"/>
       <path id="DejaVuSans-76" d="M 191 3500 
L 800 3500 
L 1894 563 
L 2988 3500 
L 3597 3500 
L 2284 0 
L 1503 0 
L 191 3500 
z
" transform="scale(0.015625)"/>
      </defs>
      <use xlink:href="#DejaVuSans-6d"/>
      <use xlink:href="#DejaVuSans-b3" transform="translate(97.412109 0)"/>
      <use xlink:href="#DejaVuSans-20" transform="translate(137.5 0)"/>
      <use xlink:href="#DejaVuSans-28" transform="translate(169.287109 0)"/>
      <use xlink:href="#DejaVuSans-4e" transform="translate(208.300781 0)"/>
      <use xlink:href="#DejaVuSans-61" transform="translate(283.105469 0)"/>
      <use xlink:href="#DejaVuSans-2d" transform="translate(344.384766 0)"/>
      <use xlink:href="#DejaVuSans-41" transform="translate(378.21875 0)"/>
      <use xlink:href="#DejaVuSans-6b" transform="translate(446.626953 0)"/>
      <use xlink:href="#DejaVuSans-74" transform="translate(504.537109 0)"/>
      <use xlink:href="#DejaVuSans-69" transform="translate(543.746094 0)"/>
      <use xlink:href="#DejaVuSans-76" transform="translate(571.529297 0)"/>
      <use xlink:href="#DejaVuSans-69" transform="translate(630.708984 0)"/>
      <use xlink:href="#DejaVuSans-65" transform="translate(658.492188 0)"/>
      <use xlink:href="#DejaVuSans-72" transform="translate(720.015625 0)"/>
      <use xlink:href="#DejaVuSans-75" transform="translate(761.128906 0)"/>
      <use xlink:href="#DejaVuSans-6e" transform="translate(824.507812 0)"/>
      <use xlink:href="#DejaVuSans-67" transform="translate(887.886719 0)"/>
      <use xlink:href="#DejaVuSans-29" transform="translate(951.363281 0)"/>
     </g>
    </g>
    <g id="line2d_38">
     <path d="M 597.489063 68.10925 
L 605.489063 68.10925 
L 613.489063 68.10925 
" style="fill: none; stroke: #3a7fc1; stroke-width: 1.4; stroke-linecap: square"/>
    </g>
    <g id="text_40">
     <!-- h (Na-Inaktivierung) -->
     <g transform="translate(619.889063 70.90925) scale(0.08 -0.08)">
      <use xlink:href="#DejaVuSans-68"/>
      <use xlink:href="#DejaVuSans-20" transform="translate(63.378906 0)"/>
      <use xlink:href="#DejaVuSans-28" transform="translate(95.166016 0)"/>
      <use xlink:href="#DejaVuSans-4e" transform="translate(134.179688 0)"/>
      <use xlink:href="#DejaVuSans-61" transform="translate(208.984375 0)"/>
      <use xlink:href="#DejaVuSans-2d" transform="translate(270.263672 0)"/>
      <use xlink:href="#DejaVuSans-49" transform="translate(306.347656 0)"/>
      <use xlink:href="#DejaVuSans-6e" transform="translate(335.839844 0)"/>
      <use xlink:href="#DejaVuSans-61" transform="translate(399.21875 0)"/>
      <use xlink:href="#DejaVuSans-6b" transform="translate(460.498047 0)"/>
      <use xlink:href="#DejaVuSans-74" transform="translate(518.408203 0)"/>
      <use xlink:href="#DejaVuSans-69" transform="translate(557.617188 0)"/>
      <use xlink:href="#DejaVuSans-76" transform="translate(585.400391 0)"/>
      <use xlink:href="#DejaVuSans-69" transform="translate(644.580078 0)"/>
      <use xlink:href="#DejaVuSans-65" transform="translate(672.363281 0)"/>
      <use xlink:href="#DejaVuSans-72" transform="translate(733.886719 0)"/>
      <use xlink:href="#DejaVuSans-75" transform="translate(775 0)"/>
      <use xlink:href="#DejaVuSans-6e" transform="translate(838.378906 0)"/>
      <use xlink:href="#DejaVuSans-67" transform="translate(901.757812 0)"/>
      <use xlink:href="#DejaVuSans-29" transform="translate(965.234375 0)"/>
     </g>
    </g>
    <g id="line2d_39">
     <path d="M 597.489063 79.85175 
L 605.489063 79.85175 
L 613.489063 79.85175 
" style="fill: none; stroke: #5bad6f; stroke-width: 1.4; stroke-linecap: square"/>
    </g>
    <g id="text_41">
     <!-- n⁴ (K-Aktivierung) -->
     <g transform="translate(619.889063 82.65175) scale(0.08 -0.08)">
      <defs>
       <path id="DejaVuSans-4b" d="M 628 4666 
L 1259 4666 
L 1259 2694 
L 3353 4666 
L 4166 4666 
L 1850 2491 
L 4331 0 
L 3500 0 
L 1259 2247 
L 1259 0 
L 628 0 
L 628 4666 
z
" transform="scale(0.015625)"/>
      </defs>
      <use xlink:href="#DejaVuSans-6e"/>
      <use xlink:href="#DejaVuSans-2074" transform="translate(63.378906 0)"/>
      <use xlink:href="#DejaVuSans-20" transform="translate(103.466797 0)"/>
      <use xlink:href="#DejaVuSans-28" transform="translate(135.253906 0)"/>
      <use xlink:href="#DejaVuSans-4b" transform="translate(174.267578 0)"/>
      <use xlink:href="#DejaVuSans-2d" transform="translate(229.34375 0)"/>
      <use xlink:href="#DejaVuSans-41" transform="translate(263.177734 0)"/>
      <use xlink:href="#DejaVuSans-6b" transform="translate(331.585938 0)"/>
      <use xlink:href="#DejaVuSans-74" transform="translate(389.496094 0)"/>
      <use xlink:href="#DejaVuSans-69" transform="translate(428.705078 0)"/>
      <use xlink:href="#DejaVuSans-76" transform="translate(456.488281 0)"/>
      <use xlink:href="#DejaVuSans-69" transform="translate(515.667969 0)"/>
      <use xlink:href="#DejaVuSans-65" transform="translate(543.451172 0)"/>
      <use xlink:href="#DejaVuSans-72" transform="translate(604.974609 0)"/>
      <use xlink:href="#DejaVuSans-75" transform="translate(646.087891 0)"/>
      <use xlink:href="#DejaVuSans-6e" transform="translate(709.466797 0)"/>
      <use xlink:href="#DejaVuSans-67" transform="translate(772.845703 0)"/>
      <use xlink:href="#DejaVuSans-29" transform="translate(836.322266 0)"/>
     </g>
    </g>
   </g>
  </g>
  <g id="text_42">
   <!-- Experiment 07 – Hodgkin-Huxley Aktionspotential -->
   <g transform="translate(205.558406 15.406313) scale(0.108 -0.108)">
    <defs>
     <path id="DejaVuSans-Bold-45" d="M 588 4666 
L 3834 4666 
L 3834 3756 
L 1791 3756 
L 1791 2888 
L 3713 2888 
L 3713 1978 
L 1791 1978 
L 1791 909 
L 3903 909 
L 3903 0 
L 588 0 
L 588 4666 
z
" transform="scale(0.015625)"/>
     <path id="DejaVuSans-Bold-78" d="M 1422 1791 
L 159 3500 
L 1344 3500 
L 2059 2463 
L 2784 3500 
L 3969 3500 
L 2706 1797 
L 4031 0 
L 2847 0 
L 2059 1106 
L 1281 0 
L 97 0 
L 1422 1791 
z
" transform="scale(0.015625)"/>
     <path id="DejaVuSans-Bold-70" d="M 1656 506 
L 1656 -1331 
L 538 -1331 
L 538 3500 
L 1656 3500 
L 1656 2988 
Q 1888 3294 2169 3439 
Q 2450 3584 2816 3584 
Q 3463 3584 3878 3070 
Q 4294 2556 4294 1747 
Q 4294 938 3878 423 
Q 3463 -91 2816 -91 
Q 2450 -91 2169 54 
Q 1888 200 1656 506 
z
M 2400 2772 
Q 2041 2772 1848 2508 
Q 1656 2244 1656 1747 
Q 1656 1250 1848 986 
Q 2041 722 2400 722 
Q 2759 722 2948 984 
Q 3138 1247 3138 1747 
Q 3138 2247 2948 2509 
Q 2759 2772 2400 2772 
z
" transform="scale(0.015625)"/>
     <path id="DejaVuSans-Bold-65" d="M 4031 1759 
L 4031 1441 
L 1416 1441 
Q 1456 1047 1700 850 
Q 1944 653 2381 653 
Q 2734 653 3104 758 
Q 3475 863 3866 1075 
L 3866 213 
Q 3469 63 3072 -14 
Q 2675 -91 2278 -91 
Q 1328 -91 801 392 
Q 275 875 275 1747 
Q 275 2603 792 3093 
Q 1309 3584 2216 3584 
Q 3041 3584 3536 3087 
Q 4031 2591 4031 1759 
z
M 2881 2131 
Q 2881 2450 2695 2645 
Q 2509 2841 2209 2841 
Q 1884 2841 1681 2658 
Q 1478 2475 1428 2131 
L 2881 2131 
z
" transform="scale(0.015625)"/>
     <path id="DejaVuSans-Bold-72" d="M 3138 2547 
Q 2991 2616 2845 2648 
Q 2700 2681 2553 2681 
Q 2122 2681 1889 2404 
Q 1656 2128 1656 1613 
L 1656 0 
L 538 0 
L 538 3500 
L 1656 3500 
L 1656 2925 
Q 1872 3269 2151 3426 
Q 2431 3584 2822 3584 
Q 2878 3584 2943 3579 
Q 3009 3575 3134 3559 
L 3138 2547 
z
" transform="scale(0.015625)"/>
     <path id="DejaVuSans-Bold-69" d="M 538 3500 
L 1656 3500 
L 1656 0 
L 538 0 
L 538 3500 
z
M 538 4863 
L 1656 4863 
L 1656 3950 
L 538 3950 
L 538 4863 
z
" transform="scale(0.015625)"/>
     <path id="DejaVuSans-Bold-6d" d="M 3781 2919 
Q 3994 3244 4286 3414 
Q 4578 3584 4928 3584 
Q 5531 3584 5847 3212 
Q 6163 2841 6163 2131 
L 6163 0 
L 5038 0 
L 5038 1825 
Q 5041 1866 5042 1909 
Q 5044 1953 5044 2034 
Q 5044 2406 4934 2573 
Q 4825 2741 4581 2741 
Q 4263 2741 4089 2478 
Q 3916 2216 3909 1719 
L 3909 0 
L 2784 0 
L 2784 1825 
Q 2784 2406 2684 2573 
Q 2584 2741 2328 2741 
Q 2006 2741 1831 2477 
Q 1656 2213 1656 1722 
L 1656 0 
L 531 0 
L 531 3500 
L 1656 3500 
L 1656 2988 
Q 1863 3284 2130 3434 
Q 2397 3584 2719 3584 
Q 3081 3584 3359 3409 
Q 3638 3234 3781 2919 
z
" transform="scale(0.015625)"/>
     <path id="DejaVuSans-Bold-6e" d="M 4056 2131 
L 4056 0 
L 2931 0 
L 2931 347 
L 2931 1631 
Q 2931 2084 2911 2256 
Q 2891 2428 2841 2509 
Q 2775 2619 2662 2680 
Q 2550 2741 2406 2741 
Q 2056 2741 1856 2470 
Q 1656 2200 1656 1722 
L 1656 0 
L 538 0 
L 538 3500 
L 1656 3500 
L 1656 2988 
Q 1909 3294 2193 3439 
Q 2478 3584 2822 3584 
Q 3428 3584 3742 3212 
Q 4056 2841 4056 2131 
z
" transform="scale(0.015625)"/>
     <path id="DejaVuSans-Bold-74" d="M 1759 4494 
L 1759 3500 
L 2913 3500 
L 2913 2700 
L 1759 2700 
L 1759 1216 
Q 1759 972 1856 886 
Q 1953 800 2241 800 
L 2816 800 
L 2816 0 
L 1856 0 
Q 1194 0 917 276 
Q 641 553 641 1216 
L 641 2700 
L 84 2700 
L 84 3500 
L 641 3500 
L 641 4494 
L 1759 4494 
z
" transform="scale(0.015625)"/>
     <path id="DejaVuSans-Bold-20" transform="scale(0.015625)"/>
     <path id="DejaVuSans-Bold-30" d="M 2944 2338 
Q 2944 3213 2780 3570 
Q 2616 3928 2228 3928 
Q 1841 3928 1675 3570 
Q 1509 3213 1509 2338 
Q 1509 1453 1675 1090 
Q 1841 728 2228 728 
Q 2613 728 2778 1090 
Q 2944 1453 2944 2338 
z
M 4147 2328 
Q 4147 1169 3647 539 
Q 3147 -91 2228 -91 
Q 1306 -91 806 539 
Q 306 1169 306 2328 
Q 306 3491 806 4120 
Q 1306 4750 2228 4750 
Q 3147 4750 3647 4120 
Q 4147 3491 4147 2328 
z
" transform="scale(0.015625)"/>
     <path id="DejaVuSans-Bold-37" d="M 428 4666 
L 3944 4666 
L 3944 3988 
L 2125 0 
L 953 0 
L 2675 3781 
L 428 3781 
L 428 4666 
z
" transform="scale(0.015625)"/>
     <path id="DejaVuSans-Bold-2013" d="M 344 2156 
L 2856 2156 
L 2856 1350 
L 344 1350 
L 344 2156 
z
" transform="scale(0.015625)"/>
     <path id="DejaVuSans-Bold-48" d="M 588 4666 
L 1791 4666 
L 1791 2888 
L 3566 2888 
L 3566 4666 
L 4769 4666 
L 4769 0 
L 3566 0 
L 3566 1978 
L 1791 1978 
L 1791 0 
L 588 0 
L 588 4666 
z
" transform="scale(0.015625)"/>
     <path id="DejaVuSans-Bold-6f" d="M 2203 2784 
Q 1831 2784 1636 2517 
Q 1441 2250 1441 1747 
Q 1441 1244 1636 976 
Q 1831 709 2203 709 
Q 2569 709 2762 976 
Q 2956 1244 2956 1747 
Q 2956 2250 2762 2517 
Q 2569 2784 2203 2784 
z
M 2203 3584 
Q 3106 3584 3614 3096 
Q 4122 2609 4122 1747 
Q 4122 884 3614 396 
Q 3106 -91 2203 -91 
Q 1297 -91 786 396 
Q 275 884 275 1747 
Q 275 2609 786 3096 
Q 1297 3584 2203 3584 
z
" transform="scale(0.015625)"/>
     <path id="DejaVuSans-Bold-64" d="M 2919 2988 
L 2919 4863 
L 4044 4863 
L 4044 0 
L 2919 0 
L 2919 506 
Q 2688 197 2409 53 
Q 2131 -91 1766 -91 
Q 1119 -91 703 423 
Q 288 938 288 1747 
Q 288 2556 703 3070 
Q 1119 3584 1766 3584 
Q 2128 3584 2408 3439 
Q 2688 3294 2919 2988 
z
M 2181 722 
Q 2541 722 2730 984 
Q 2919 1247 2919 1747 
Q 2919 2247 2730 2509 
Q 2541 2772 2181 2772 
Q 1825 2772 1636 2509 
Q 1447 2247 1447 1747 
Q 1447 1247 1636 984 
Q 1825 722 2181 722 
z
" transform="scale(0.015625)"/>
     <path id="DejaVuSans-Bold-67" d="M 2919 594 
Q 2688 288 2409 144 
Q 2131 0 1766 0 
Q 1125 0 706 504 
Q 288 1009 288 1791 
Q 288 2575 706 3076 
Q 1125 3578 1766 3578 
Q 2131 3578 2409 3434 
Q 2688 3291 2919 2981 
L 2919 3500 
L 4044 3500 
L 4044 353 
Q 4044 -491 3511 -936 
Q 2978 -1381 1966 -1381 
Q 1638 -1381 1331 -1331 
Q 1025 -1281 716 -1178 
L 716 -306 
Q 1009 -475 1290 -558 
Q 1572 -641 1856 -641 
Q 2406 -641 2662 -400 
Q 2919 -159 2919 353 
L 2919 594 
z
M 2181 2772 
Q 1834 2772 1640 2515 
Q 1447 2259 1447 1791 
Q 1447 1309 1634 1061 
Q 1822 813 2181 813 
Q 2531 813 2725 1069 
Q 2919 1325 2919 1791 
Q 2919 2259 2725 2515 
Q 2531 2772 2181 2772 
z
" transform="scale(0.015625)"/>
     <path id="DejaVuSans-Bold-6b" d="M 538 4863 
L 1656 4863 
L 1656 2216 
L 2944 3500 
L 4244 3500 
L 2534 1894 
L 4378 0 
L 3022 0 
L 1656 1459 
L 1656 0 
L 538 0 
L 538 4863 
z
" transform="scale(0.015625)"/>
     <path id="DejaVuSans-Bold-2d" d="M 347 2297 
L 2309 2297 
L 2309 1388 
L 347 1388 
L 347 2297 
z
" transform="scale(0.015625)"/>
     <path id="DejaVuSans-Bold-75" d="M 500 1363 
L 500 3500 
L 1625 3500 
L 1625 3150 
Q 1625 2866 1622 2436 
Q 1619 2006 1619 1863 
Q 1619 1441 1641 1255 
Q 1663 1069 1716 984 
Q 1784 875 1895 815 
Q 2006 756 2150 756 
Q 2500 756 2700 1025 
Q 2900 1294 2900 1772 
L 2900 3500 
L 4019 3500 
L 4019 0 
L 2900 0 
L 2900 506 
Q 2647 200 2364 54 
Q 2081 -91 1741 -91 
Q 1134 -91 817 281 
Q 500 653 500 1363 
z
" transform="scale(0.015625)"/>
     <path id="DejaVuSans-Bold-6c" d="M 538 4863 
L 1656 4863 
L 1656 0 
L 538 0 
L 538 4863 
z
" transform="scale(0.015625)"/>
     <path id="DejaVuSans-Bold-79" d="M 78 3500 
L 1197 3500 
L 2138 1125 
L 2938 3500 
L 4056 3500 
L 2584 -331 
Q 2363 -916 2067 -1148 
Q 1772 -1381 1288 -1381 
L 641 -1381 
L 641 -647 
L 991 -647 
Q 1275 -647 1404 -556 
Q 1534 -466 1606 -231 
L 1638 -134 
L 78 3500 
z
" transform="scale(0.015625)"/>
     <path id="DejaVuSans-Bold-41" d="M 3419 850 
L 1538 850 
L 1241 0 
L 31 0 
L 1759 4666 
L 3194 4666 
L 4922 0 
L 3713 0 
L 3419 850 
z
M 1838 1716 
L 3116 1716 
L 2478 3572 
L 1838 1716 
z
" transform="scale(0.015625)"/>
     <path id="DejaVuSans-Bold-73" d="M 3272 3391 
L 3272 2541 
Q 2913 2691 2578 2766 
Q 2244 2841 1947 2841 
Q 1628 2841 1473 2761 
Q 1319 2681 1319 2516 
Q 1319 2381 1436 2309 
Q 1553 2238 1856 2203 
L 2053 2175 
Q 2913 2066 3209 1816 
Q 3506 1566 3506 1031 
Q 3506 472 3093 190 
Q 2681 -91 1863 -91 
Q 1516 -91 1145 -36 
Q 775 19 384 128 
L 384 978 
Q 719 816 1070 734 
Q 1422 653 1784 653 
Q 2113 653 2278 743 
Q 2444 834 2444 1013 
Q 2444 1163 2330 1236 
Q 2216 1309 1875 1350 
L 1678 1375 
Q 931 1469 631 1722 
Q 331 1975 331 2491 
Q 331 3047 712 3315 
Q 1094 3584 1881 3584 
Q 2191 3584 2531 3537 
Q 2872 3491 3272 3391 
z
" transform="scale(0.015625)"/>
     <path id="DejaVuSans-Bold-61" d="M 2106 1575 
Q 1756 1575 1579 1456 
Q 1403 1338 1403 1106 
Q 1403 894 1545 773 
Q 1688 653 1941 653 
Q 2256 653 2472 879 
Q 2688 1106 2688 1447 
L 2688 1575 
L 2106 1575 
z
M 3816 1997 
L 3816 0 
L 2688 0 
L 2688 519 
Q 2463 200 2181 54 
Q 1900 -91 1497 -91 
Q 953 -91 614 226 
Q 275 544 275 1050 
Q 275 1666 698 1953 
Q 1122 2241 2028 2241 
L 2688 2241 
L 2688 2328 
Q 2688 2594 2478 2717 
Q 2269 2841 1825 2841 
Q 1466 2841 1156 2769 
Q 847 2697 581 2553 
L 581 3406 
Q 941 3494 1303 3539 
Q 1666 3584 2028 3584 
Q 2975 3584 3395 3211 
Q 3816 2838 3816 1997 
z
" transform="scale(0.015625)"/>
    </defs>
    <use xlink:href="#DejaVuSans-Bold-45"/>
    <use xlink:href="#DejaVuSans-Bold-78" transform="translate(68.310547 0)"/>
    <use xlink:href="#DejaVuSans-Bold-70" transform="translate(132.8125 0)"/>
    <use xlink:href="#DejaVuSans-Bold-65" transform="translate(204.394531 0)"/>
    <use xlink:href="#DejaVuSans-Bold-72" transform="translate(272.216797 0)"/>
    <use xlink:href="#DejaVuSans-Bold-69" transform="translate(321.533203 0)"/>
    <use xlink:href="#DejaVuSans-Bold-6d" transform="translate(355.810547 0)"/>
    <use xlink:href="#DejaVuSans-Bold-65" transform="translate(460.009766 0)"/>
    <use xlink:href="#DejaVuSans-Bold-6e" transform="translate(527.832031 0)"/>
    <use xlink:href="#DejaVuSans-Bold-74" transform="translate(599.023438 0)"/>
    <use xlink:href="#DejaVuSans-Bold-20" transform="translate(646.826172 0)"/>
    <use xlink:href="#DejaVuSans-Bold-30" transform="translate(681.640625 0)"/>
    <use xlink:href="#DejaVuSans-Bold-37" transform="translate(751.220703 0)"/>
    <use xlink:href="#DejaVuSans-Bold-20" transform="translate(820.800781 0)"/>
    <use xlink:href="#DejaVuSans-Bold-2013" transform="translate(855.615234 0)"/>
    <use xlink:href="#DejaVuSans-Bold-20" transform="translate(905.615234 0)"/>
    <use xlink:href="#DejaVuSans-Bold-48" transform="translate(940.429688 0)"/>
    <use xlink:href="#DejaVuSans-Bold-6f" transform="translate(1024.121094 0)"/>
    <use xlink:href="#DejaVuSans-Bold-64" transform="translate(1092.822266 0)"/>
    <use xlink:href="#DejaVuSans-Bold-67" transform="translate(1164.404297 0)"/>
    <use xlink:href="#DejaVuSans-Bold-6b" transform="translate(1235.986328 0)"/>
    <use xlink:href="#DejaVuSans-Bold-69" transform="translate(1302.490234 0)"/>
    <use xlink:href="#DejaVuSans-Bold-6e" transform="translate(1336.767578 0)"/>
    <use xlink:href="#DejaVuSans-Bold-2d" transform="translate(1407.958984 0)"/>
    <use xlink:href="#DejaVuSans-Bold-48" transform="translate(1449.462891 0)"/>
    <use xlink:href="#DejaVuSans-Bold-75" transform="translate(1533.154297 0)"/>
    <use xlink:href="#DejaVuSans-Bold-78" transform="translate(1604.345703 0)"/>
    <use xlink:href="#DejaVuSans-Bold-6c" transform="translate(1668.847656 0)"/>
    <use xlink:href="#DejaVuSans-Bold-65" transform="translate(1703.125 0)"/>
    <use xlink:href="#DejaVuSans-Bold-79" transform="translate(1770.947266 0)"/>
    <use xlink:href="#DejaVuSans-Bold-20" transform="translate(1836.132812 0)"/>
    <use xlink:href="#DejaVuSans-Bold-41" transform="translate(1870.947266 0)"/>
    <use xlink:href="#DejaVuSans-Bold-6b" transform="translate(1948.339844 0)"/>
    <use xlink:href="#DejaVuSans-Bold-74" transform="translate(2014.84375 0)"/>
    <use xlink:href="#DejaVuSans-Bold-69" transform="translate(2062.646484 0)"/>
    <use xlink:href="#DejaVuSans-Bold-6f" transform="translate(2096.923828 0)"/>
    <use xlink:href="#DejaVuSans-Bold-6e" transform="translate(2165.625 0)"/>
    <use xlink:href="#DejaVuSans-Bold-73" transform="translate(2236.816406 0)"/>
    <use xlink:href="#DejaVuSans-Bold-70" transform="translate(2296.337891 0)"/>
    <use xlink:href="#DejaVuSans-Bold-6f" transform="translate(2367.919922 0)"/>
    <use xlink:href="#DejaVuSans-Bold-74" transform="translate(2436.621094 0)"/>
    <use xlink:href="#DejaVuSans-Bold-65" transform="translate(2484.423828 0)"/>
    <use xlink:href="#DejaVuSans-Bold-6e" transform="translate(2552.246094 0)"/>
    <use xlink:href="#DejaVuSans-Bold-74" transform="translate(2623.4375 0)"/>
    <use xlink:href="#DejaVuSans-Bold-69" transform="translate(2671.240234 0)"/>
    <use xlink:href="#DejaVuSans-Bold-61" transform="translate(2705.517578 0)"/>
    <use xlink:href="#DejaVuSans-Bold-6c" transform="translate(2772.998047 0)"/>
   </g>
  </g>
 </g>
 <defs>
  <clipPath id="pb6dca9ed14">
   <rect x="44.089063" y="45.888" width="309.61" height="190.48"/>
  </clipPath>
  <clipPath id="p608db71579">
   <rect x="397.819063" y="45.888" width="309.61" height="190.48"/>
  </clipPath>
 </defs>
</svg>
