<?xml version="1.0" encoding="utf-8" standalone="no"?>
<!DOCTYPE svg PUBLIC "-//W3C//DTD SVG 1.1//EN"
  "http://www.w3.org/Graphics/SVG/1.1/DTD/svg11.dtd">
<svg xmlns:xlink="http://www.w3.org/1999/xlink" width="713.800472pt" height="328.310565pt" viewBox="0 0 713.800472 328.310565" xmlns="http://www.w3.org/2000/svg" version="1.1">
 <metadata>
  <rdf:RDF xmlns:dc="http://purl.org/dc/elements/1.1/" xmlns:cc="http://creativecommons.org/ns#" xmlns:rdf="http://www.w3.org/1999/02/22-rdf-syntax-ns#">
   <cc:Work>
    <dc:type rdf:resource="http://purl.org/dc/dcmitype/StillImage"/>
    <dc:date>2026-03-03T03:26:26.487213</dc:date>
    <dc:format>image/svg+xml</dc:format>
    <dc:creator>
     <cc:Agent>
      <dc:title>Matplotlib v3.10.8, https://matplotlib.org/</dc:title>
     </cc:Agent>
    </dc:creator>
   </cc:Work>
  </rdf:RDF>
 </metadata>
 <defs>
  <style type="text/css">*{stroke-linejoin: round; stroke-linecap: butt}</style>
 </defs>
 <g id="figure_1">
  <g id="patch_1">
   <path d="M 0 328.310565 
L 713.800472 328.310565 
L 713.800472 0 
L 0 0 
z
" style="fill: #ffffff"/>
  </g>
  <g id="axes_1">
   <g id="patch_2">
    <path d="M 41.223125 282.051174 
L 346.349613 282.051174 
L 346.349613 44.736 
L 41.223125 44.736 
z
" style="fill: #ffffff"/>
   </g>
   <g id="patch_3">
    <path d="M 55.092511 282.051174 
L 64.999215 282.051174 
L 64.999215 110.828105 
L 55.092511 110.828105 
z
" clip-path="url(#pf59d3af4d1)" style="fill: #e05a2b; opacity: 0.85; stroke: #ffffff; stroke-width: 0.4; stroke-linejoin: miter"/>
   </g>
   <g id="patch_4">
    <path d="M 64.999215 282.051174 
L 74.905919 282.051174 
L 74.905919 273.627456 
L 64.999215 273.627456 
z
" clip-path="url(#pf59d3af4d1)" style="fill: #3a7fc1; opacity: 0.85; stroke: #ffffff; stroke-width: 0.4; stroke-linejoin: miter"/>
   </g>
   <g id="patch_5">
    <path d="M 74.905919 282.051174 
L 84.812623 282.051174 
L 84.812623 279.897686 
L 74.905919 279.897686 
z
" clip-path="url(#pf59d3af4d1)" style="fill: #5bad6f; opacity: 0.85; stroke: #ffffff; stroke-width: 0.4; stroke-linejoin: miter"/>
   </g>
   <g id="patch_6">
    <path d="M 96.370445 282.051174 
L 106.277149 282.051174 
L 106.277149 110.828105 
L 96.370445 110.828105 
z
" clip-path="url(#pf59d3af4d1)" style="fill: #e05a2b; opacity: 0.85; stroke: #ffffff; stroke-width: 0.4; stroke-linejoin: miter"/>
   </g>
   <g id="patch_7">
    <path d="M 106.277149 282.051174 
L 116.183853 282.051174 
L 116.183853 179.763167 
L 106.277149 179.763167 
z
" clip-path="url(#pf59d3af4d1)" style="fill: #3a7fc1; opacity: 0.85; stroke: #ffffff; stroke-width: 0.4; stroke-linejoin: miter"/>
   </g>
   <g id="patch_8">
    <path d="M 116.183853 282.051174 
L 126.090557 282.051174 
L 126.090557 251.543421 
L 116.183853 251.543421 
z
" clip-path="url(#pf59d3af4d1)" style="fill: #5bad6f; opacity: 0.85; stroke: #ffffff; stroke-width: 0.4; stroke-linejoin: miter"/>
   </g>
   <g id="patch_9">
    <path d="M 137.648379 282.051174 
L 147.555083 282.051174 
L 147.555083 110.828105 
L 137.648379 110.828105 
z
" clip-path="url(#pf59d3af4d1)" style="fill: #e05a2b; opacity: 0.85; stroke: #ffffff; stroke-width: 0.4; stroke-linejoin: miter"/>
   </g>
   <g id="patch_10">
    <path d="M 147.555083 282.051174 
L 157.461787 282.051174 
L 157.461787 211.547557 
L 147.555083 211.547557 
z
" clip-path="url(#pf59d3af4d1)" style="fill: #3a7fc1; opacity: 0.85; stroke: #ffffff; stroke-width: 0.4; stroke-linejoin: miter"/>
   </g>
   <g id="patch_11">
    <path d="M 157.461787 282.051174 
L 167.368491 282.051174 
L 167.368491 221.619503 
L 157.461787 221.619503 
z
" clip-path="url(#pf59d3af4d1)" style="fill: #5bad6f; opacity: 0.85; stroke: #ffffff; stroke-width: 0.4; stroke-linejoin: miter"/>
   </g>
   <g id="patch_12">
    <path d="M 178.926313 282.051174 
L 188.833017 282.051174 
L 188.833017 110.828105 
L 178.926313 110.828105 
z
" clip-path="url(#pf59d3af4d1)" style="fill: #e05a2b; opacity: 0.85; stroke: #ffffff; stroke-width: 0.4; stroke-linejoin: miter"/>
   </g>
   <g id="patch_13">
    <path d="M 188.833017 282.051174 
L 198.739721 282.051174 
L 198.739721 145.072719 
L 188.833017 145.072719 
z
" clip-path="url(#pf59d3af4d1)" style="fill: #3a7fc1; opacity: 0.85; stroke: #ffffff; stroke-width: 0.4; stroke-linejoin: miter"/>
   </g>
   <g id="patch_14">
    <path d="M 198.739721 282.051174 
L 208.646425 282.051174 
L 208.646425 76.583491 
L 198.739721 76.583491 
z
" clip-path="url(#pf59d3af4d1)" style="fill: #5bad6f; opacity: 0.85; stroke: #ffffff; stroke-width: 0.4; stroke-linejoin: miter"/>
   </g>
   <g id="patch_15">
    <path d="M 220.204247 282.051174 
L 230.110951 282.051174 
L 230.110951 110.828105 
L 220.204247 110.828105 
z
" clip-path="url(#pf59d3af4d1)" style="fill: #e05a2b; opacity: 0.85; stroke: #ffffff; stroke-width: 0.4; stroke-linejoin: miter"/>
   </g>
   <g id="patch_16">
    <path d="M 230.110951 282.051174 
L 240.017655 282.051174 
L 240.017655 239.245407 
L 230.110951 239.245407 
z
" clip-path="url(#pf59d3af4d1)" style="fill: #3a7fc1; opacity: 0.85; stroke: #ffffff; stroke-width: 0.4; stroke-linejoin: miter"/>
   </g>
   <g id="patch_17">
    <path d="M 240.017655 282.051174 
L 249.924359 282.051174 
L 249.924359 253.513996 
L 240.017655 253.513996 
z
" clip-path="url(#pf59d3af4d1)" style="fill: #5bad6f; opacity: 0.85; stroke: #ffffff; stroke-width: 0.4; stroke-linejoin: miter"/>
   </g>
   <g id="patch_18">
    <path d="M 261.48218 282.051174 
L 271.388885 282.051174 
L 271.388885 110.828105 
L 261.48218 110.828105 
z
" clip-path="url(#pf59d3af4d1)" style="fill: #e05a2b; opacity: 0.85; stroke: #ffffff; stroke-width: 0.4; stroke-linejoin: miter"/>
   </g>
   <g id="patch_19">
    <path d="M 271.388885 282.051174 
L 281.295589 282.051174 
L 281.295589 174.927434 
L 271.388885 174.927434 
z
" clip-path="url(#pf59d3af4d1)" style="fill: #3a7fc1; opacity: 0.85; stroke: #ffffff; stroke-width: 0.4; stroke-linejoin: miter"/>
   </g>
   <g id="patch_20">
    <path d="M 281.295589 282.051174 
L 291.202293 282.051174 
L 291.202293 252.763421 
L 281.295589 252.763421 
z
" clip-path="url(#pf59d3af4d1)" style="fill: #5bad6f; opacity: 0.85; stroke: #ffffff; stroke-width: 0.4; stroke-linejoin: miter"/>
   </g>
   <g id="patch_21">
    <path d="M 302.760114 282.051174 
L 312.666819 282.051174 
L 312.666819 110.828105 
L 302.760114 110.828105 
z
" clip-path="url(#pf59d3af4d1)" style="fill: #e05a2b; opacity: 0.85; stroke: #ffffff; stroke-width: 0.4; stroke-linejoin: miter"/>
   </g>
   <g id="patch_22">
    <path d="M 312.666819 282.051174 
L 322.573523 282.051174 
L 322.573523 147.853957 
L 312.666819 147.853957 
z
" clip-path="url(#pf59d3af4d1)" style="fill: #3a7fc1; opacity: 0.85; stroke: #ffffff; stroke-width: 0.4; stroke-linejoin: miter"/>
   </g>
   <g id="patch_23">
    <path d="M 322.573523 282.051174 
L 332.480227 282.051174 
L 332.480227 133.997233 
L 322.573523 133.997233 
z
" clip-path="url(#pf59d3af4d1)" style="fill: #5bad6f; opacity: 0.85; stroke: #ffffff; stroke-width: 0.4; stroke-linejoin: miter"/>
   </g>
   <g id="matplotlib.axis_1">
    <g id="xtick_1">
     <g id="line2d_1">
      <defs>
       <path id="m033ef903b6" d="M 0 0 
L 0 3.5 
" style="stroke: #000000; stroke-width: 0.8"/>
      </defs>
      <g>
       <use xlink:href="#m033ef903b6" x="69.952567" y="282.051174" style="stroke: #000000; stroke-width: 0.8"/>
      </g>
     </g>
     <g id="text_1">
      <!-- Ω (Gesamt) -->
      <g transform="translate(30.681421 304.610556) rotate(-15) scale(0.07 -0.07)">
       <defs>
        <path id="DejaVuSans-3a9" d="M 4647 556 
L 4647 0 
L 2772 0 
L 2772 556 
Q 3325 859 3634 1378 
Q 3944 1897 3944 2528 
Q 3944 3278 3531 3731 
Q 3119 4184 2444 4184 
Q 1769 4184 1355 3729 
Q 941 3275 941 2528 
Q 941 1897 1250 1378 
Q 1563 859 2119 556 
L 2119 0 
L 244 0 
L 244 556 
L 1241 556 
Q 747 991 519 1456 
Q 294 1922 294 2497 
Q 294 3491 894 4106 
Q 1491 4722 2444 4722 
Q 3391 4722 3994 4106 
Q 4594 3494 4594 2528 
Q 4594 1922 4372 1459 
Q 4150 997 3647 556 
L 4647 556 
z
" transform="scale(0.015625)"/>
        <path id="DejaVuSans-20" transform="scale(0.015625)"/>
        <path id="DejaVuSans-28" d="M 1984 4856 
Q 1566 4138 1362 3434 
Q 1159 2731 1159 2009 
Q 1159 1288 1364 580 
Q 1569 -128 1984 -844 
L 1484 -844 
Q 1016 -109 783 600 
Q 550 1309 550 2009 
Q 550 2706 781 3412 
Q 1013 4119 1484 4856 
L 1984 4856 
z
" transform="scale(0.015625)"/>
        <path id="DejaVuSans-47" d="M 3809 666 
L 3809 1919 
L 2778 1919 
L 2778 2438 
L 4434 2438 
L 4434 434 
Q 4069 175 3628 42 
Q 3188 -91 2688 -91 
Q 1594 -91 976 548 
Q 359 1188 359 2328 
Q 359 3472 976 4111 
Q 1594 4750 2688 4750 
Q 3144 4750 3555 4637 
Q 3966 4525 4313 4306 
L 4313 3634 
Q 3963 3931 3569 4081 
Q 3175 4231 2741 4231 
Q 1884 4231 1454 3753 
Q 1025 3275 1025 2328 
Q 1025 1384 1454 906 
Q 1884 428 2741 428 
Q 3075 428 3337 486 
Q 3600 544 3809 666 
z
" transform="scale(0.015625)"/>
        <path id="DejaVuSans-65" d="M 3597 1894 
L 3597 1613 
L 953 1613 
Q 991 1019 1311 708 
Q 1631 397 2203 397 
Q 2534 397 2845 478 
Q 3156 559 3463 722 
L 3463 178 
Q 3153 47 2828 -22 
Q 2503 -91 2169 -91 
Q 1331 -91 842 396 
Q 353 884 353 1716 
Q 353 2575 817 3079 
Q 1281 3584 2069 3584 
Q 2775 3584 3186 3129 
Q 3597 2675 3597 1894 
z
M 3022 2063 
Q 3016 2534 2758 2815 
Q 2500 3097 2075 3097 
Q 1594 3097 1305 2825 
Q 1016 2553 972 2059 
L 3022 2063 
z
" transform="scale(0.015625)"/>
        <path id="DejaVuSans-73" d="M 2834 3397 
L 2834 2853 
Q 2591 2978 2328 3040 
Q 2066 3103 1784 3103 
Q 1356 3103 1142 2972 
Q 928 2841 928 2578 
Q 928 2378 1081 2264 
Q 1234 2150 1697 2047 
L 1894 2003 
Q 2506 1872 2764 1633 
Q 3022 1394 3022 966 
Q 3022 478 2636 193 
Q 2250 -91 1575 -91 
Q 1294 -91 989 -36 
Q 684 19 347 128 
L 347 722 
Q 666 556 975 473 
Q 1284 391 1588 391 
Q 1994 391 2212 530 
Q 2431 669 2431 922 
Q 2431 1156 2273 1281 
Q 2116 1406 1581 1522 
L 1381 1569 
Q 847 1681 609 1914 
Q 372 2147 372 2553 
Q 372 3047 722 3315 
Q 1072 3584 1716 3584 
Q 2034 3584 2315 3537 
Q 2597 3491 2834 3397 
z
" transform="scale(0.015625)"/>
        <path id="DejaVuSans-61" d="M 2194 1759 
Q 1497 1759 1228 1600 
Q 959 1441 959 1056 
Q 959 750 1161 570 
Q 1363 391 1709 391 
Q 2188 391 2477 730 
Q 2766 1069 2766 1631 
L 2766 1759 
L 2194 1759 
z
M 3341 1997 
L 3341 0 
L 2766 0 
L 2766 531 
Q 2569 213 2275 61 
Q 1981 -91 1556 -91 
Q 1019 -91 701 211 
Q 384 513 384 1019 
Q 384 1609 779 1909 
Q 1175 2209 1959 2209 
L 2766 2209 
L 2766 2266 
Q 2766 2663 2505 2880 
Q 2244 3097 1772 3097 
Q 1472 3097 1187 3025 
Q 903 2953 641 2809 
L 641 3341 
Q 956 3463 1253 3523 
Q 1550 3584 1831 3584 
Q 2591 3584 2966 3190 
Q 3341 2797 3341 1997 
z
" transform="scale(0.015625)"/>
        <path id="DejaVuSans-6d" d="M 3328 2828 
Q 3544 3216 3844 3400 
Q 4144 3584 4550 3584 
Q 5097 3584 5394 3201 
Q 5691 2819 5691 2113 
L 5691 0 
L 5113 0 
L 5113 2094 
Q 5113 2597 4934 2840 
Q 4756 3084 4391 3084 
Q 3944 3084 3684 2787 
Q 3425 2491 3425 1978 
L 3425 0 
L 2847 0 
L 2847 2094 
Q 2847 2600 2669 2842 
Q 2491 3084 2119 3084 
Q 1678 3084 1418 2786 
Q 1159 2488 1159 1978 
L 1159 0 
L 581 0 
L 581 3500 
L 1159 3500 
L 1159 2956 
Q 1356 3278 1631 3431 
Q 1906 3584 2284 3584 
Q 2666 3584 2933 3390 
Q 3200 3197 3328 2828 
z
" transform="scale(0.015625)"/>
        <path id="DejaVuSans-74" d="M 1172 4494 
L 1172 3500 
L 2356 3500 
L 2356 3053 
L 1172 3053 
L 1172 1153 
Q 1172 725 1289 603 
Q 1406 481 1766 481 
L 2356 481 
L 2356 0 
L 1766 0 
Q 1100 0 847 248 
Q 594 497 594 1153 
L 594 3053 
L 172 3053 
L 172 3500 
L 594 3500 
L 594 4494 
L 1172 4494 
z
" transform="scale(0.015625)"/>
        <path id="DejaVuSans-29" d="M 513 4856 
L 1013 4856 
Q 1481 4119 1714 3412 
Q 1947 2706 1947 2009 
Q 1947 1309 1714 600 
Q 1481 -109 1013 -844 
L 513 -844 
Q 928 -128 1133 580 
Q 1338 1288 1338 2009 
Q 1338 2731 1133 3434 
Q 928 4138 513 4856 
z
" transform="scale(0.015625)"/>
       </defs>
       <use xlink:href="#DejaVuSans-3a9"/>
       <use xlink:href="#DejaVuSans-20" transform="translate(76.416016 0)"/>
       <use xlink:href="#DejaVuSans-28" transform="translate(108.203125 0)"/>
       <use xlink:href="#DejaVuSans-47" transform="translate(147.216797 0)"/>
       <use xlink:href="#DejaVuSans-65" transform="translate(224.707031 0)"/>
       <use xlink:href="#DejaVuSans-73" transform="translate(286.230469 0)"/>
       <use xlink:href="#DejaVuSans-61" transform="translate(338.330078 0)"/>
       <use xlink:href="#DejaVuSans-6d" transform="translate(399.609375 0)"/>
       <use xlink:href="#DejaVuSans-74" transform="translate(497.021484 0)"/>
       <use xlink:href="#DejaVuSans-29" transform="translate(536.230469 0)"/>
      </g>
     </g>
    </g>
    <g id="xtick_2">
     <g id="line2d_2">
      <g>
       <use xlink:href="#m033ef903b6" x="111.230501" y="282.051174" style="stroke: #000000; stroke-width: 0.8"/>
      </g>
     </g>
     <g id="text_2">
      <!-- Bandbreite η_B -->
      <g transform="translate(57.190824 308.01067) rotate(-15) scale(0.07 -0.07)">
       <defs>
        <path id="DejaVuSans-42" d="M 1259 2228 
L 1259 519 
L 2272 519 
Q 2781 519 3026 730 
Q 3272 941 3272 1375 
Q 3272 1813 3026 2020 
Q 2781 2228 2272 2228 
L 1259 2228 
z
M 1259 4147 
L 1259 2741 
L 2194 2741 
Q 2656 2741 2882 2914 
Q 3109 3088 3109 3444 
Q 3109 3797 2882 3972 
Q 2656 4147 2194 4147 
L 1259 4147 
z
M 628 4666 
L 2241 4666 
Q 2963 4666 3353 4366 
Q 3744 4066 3744 3513 
Q 3744 3084 3544 2831 
Q 3344 2578 2956 2516 
Q 3422 2416 3680 2098 
Q 3938 1781 3938 1306 
Q 3938 681 3513 340 
Q 3088 0 2303 0 
L 628 0 
L 628 4666 
z
" transform="scale(0.015625)"/>
        <path id="DejaVuSans-6e" d="M 3513 2113 
L 3513 0 
L 2938 0 
L 2938 2094 
Q 2938 2591 2744 2837 
Q 2550 3084 2163 3084 
Q 1697 3084 1428 2787 
Q 1159 2491 1159 1978 
L 1159 0 
L 581 0 
L 581 3500 
L 1159 3500 
L 1159 2956 
Q 1366 3272 1645 3428 
Q 1925 3584 2291 3584 
Q 2894 3584 3203 3211 
Q 3513 2838 3513 2113 
z
" transform="scale(0.015625)"/>
        <path id="DejaVuSans-64" d="M 2906 2969 
L 2906 4863 
L 3481 4863 
L 3481 0 
L 2906 0 
L 2906 525 
Q 2725 213 2448 61 
Q 2172 -91 1784 -91 
Q 1150 -91 751 415 
Q 353 922 353 1747 
Q 353 2572 751 3078 
Q 1150 3584 1784 3584 
Q 2172 3584 2448 3432 
Q 2725 3281 2906 2969 
z
M 947 1747 
Q 947 1113 1208 752 
Q 1469 391 1925 391 
Q 2381 391 2643 752 
Q 2906 1113 2906 1747 
Q 2906 2381 2643 2742 
Q 2381 3103 1925 3103 
Q 1469 3103 1208 2742 
Q 947 2381 947 1747 
z
" transform="scale(0.015625)"/>
        <path id="DejaVuSans-62" d="M 3116 1747 
Q 3116 2381 2855 2742 
Q 2594 3103 2138 3103 
Q 1681 3103 1420 2742 
Q 1159 2381 1159 1747 
Q 1159 1113 1420 752 
Q 1681 391 2138 391 
Q 2594 391 2855 752 
Q 3116 1113 3116 1747 
z
M 1159 2969 
Q 1341 3281 1617 3432 
Q 1894 3584 2278 3584 
Q 2916 3584 3314 3078 
Q 3713 2572 3713 1747 
Q 3713 922 3314 415 
Q 2916 -91 2278 -91 
Q 1894 -91 1617 61 
Q 1341 213 1159 525 
L 1159 0 
L 581 0 
L 581 4863 
L 1159 4863 
L 1159 2969 
z
" transform="scale(0.015625)"/>
        <path id="DejaVuSans-72" d="M 2631 2963 
Q 2534 3019 2420 3045 
Q 2306 3072 2169 3072 
Q 1681 3072 1420 2755 
Q 1159 2438 1159 1844 
L 1159 0 
L 581 0 
L 581 3500 
L 1159 3500 
L 1159 2956 
Q 1341 3275 1631 3429 
Q 1922 3584 2338 3584 
Q 2397 3584 2469 3576 
Q 2541 3569 2628 3553 
L 2631 2963 
z
" transform="scale(0.015625)"/>
        <path id="DejaVuSans-69" d="M 603 3500 
L 1178 3500 
L 1178 0 
L 603 0 
L 603 3500 
z
M 603 4863 
L 1178 4863 
L 1178 4134 
L 603 4134 
L 603 4863 
z
" transform="scale(0.015625)"/>
        <path id="DejaVuSans-3b7" d="M 3513 2113 
L 3513 -1331 
L 2938 -1331 
L 2938 2094 
Q 2938 2591 2744 2837 
Q 2550 3084 2163 3084 
Q 1697 3084 1428 2787 
Q 1159 2491 1159 1978 
L 1159 0 
L 581 0 
L 581 3500 
L 1159 3500 
L 1159 2956 
Q 1366 3272 1644 3428 
Q 1925 3584 2291 3584 
Q 2894 3584 3203 3213 
Q 3513 2838 3513 2113 
z
" transform="scale(0.015625)"/>
        <path id="DejaVuSans-5f" d="M 3263 -1063 
L 3263 -1509 
L -63 -1509 
L -63 -1063 
L 3263 -1063 
z
" transform="scale(0.015625)"/>
       </defs>
       <use xlink:href="#DejaVuSans-42"/>
       <use xlink:href="#DejaVuSans-61" transform="translate(68.603516 0)"/>
       <use xlink:href="#DejaVuSans-6e" transform="translate(129.882812 0)"/>
       <use xlink:href="#DejaVuSans-64" transform="translate(193.261719 0)"/>
       <use xlink:href="#DejaVuSans-62" transform="translate(256.738281 0)"/>
       <use xlink:href="#DejaVuSans-72" transform="translate(320.214844 0)"/>
       <use xlink:href="#DejaVuSans-65" transform="translate(359.078125 0)"/>
       <use xlink:href="#DejaVuSans-69" transform="translate(420.601562 0)"/>
       <use xlink:href="#DejaVuSans-74" transform="translate(448.384766 0)"/>
       <use xlink:href="#DejaVuSans-65" transform="translate(487.59375 0)"/>
       <use xlink:href="#DejaVuSans-20" transform="translate(549.117188 0)"/>
       <use xlink:href="#DejaVuSans-3b7" transform="translate(580.904297 0)"/>
       <use xlink:href="#DejaVuSans-5f" transform="translate(644.283203 0)"/>
       <use xlink:href="#DejaVuSans-42" transform="translate(694.283203 0)"/>
      </g>
      <!-- [kHz/mm] -->
      <g transform="translate(77.57878 310.864269) rotate(-15) scale(0.07 -0.07)">
       <defs>
        <path id="DejaVuSans-5b" d="M 550 4863 
L 1875 4863 
L 1875 4416 
L 1125 4416 
L 1125 -397 
L 1875 -397 
L 1875 -844 
L 550 -844 
L 550 4863 
z
" transform="scale(0.015625)"/>
        <path id="DejaVuSans-6b" d="M 581 4863 
L 1159 4863 
L 1159 1991 
L 2875 3500 
L 3609 3500 
L 1753 1863 
L 3688 0 
L 2938 0 
L 1159 1709 
L 1159 0 
L 581 0 
L 581 4863 
z
" transform="scale(0.015625)"/>
        <path id="DejaVuSans-48" d="M 628 4666 
L 1259 4666 
L 1259 2753 
L 3553 2753 
L 3553 4666 
L 4184 4666 
L 4184 0 
L 3553 0 
L 3553 2222 
L 1259 2222 
L 1259 0 
L 628 0 
L 628 4666 
z
" transform="scale(0.015625)"/>
        <path id="DejaVuSans-7a" d="M 353 3500 
L 3084 3500 
L 3084 2975 
L 922 459 
L 3084 459 
L 3084 0 
L 275 0 
L 275 525 
L 2438 3041 
L 353 3041 
L 353 3500 
z
" transform="scale(0.015625)"/>
        <path id="DejaVuSans-2f" d="M 1625 4666 
L 2156 4666 
L 531 -594 
L 0 -594 
L 1625 4666 
z
" transform="scale(0.015625)"/>
        <path id="DejaVuSans-5d" d="M 1947 4863 
L 1947 -844 
L 622 -844 
L 622 -397 
L 1369 -397 
L 1369 4416 
L 622 4416 
L 622 4863 
L 1947 4863 
z
" transform="scale(0.015625)"/>
       </defs>
       <use xlink:href="#DejaVuSans-5b"/>
       <use xlink:href="#DejaVuSans-6b" transform="translate(39.013672 0)"/>
       <use xlink:href="#DejaVuSans-48" transform="translate(96.923828 0)"/>
       <use xlink:href="#DejaVuSans-7a" transform="translate(172.119141 0)"/>
       <use xlink:href="#DejaVuSans-2f" transform="translate(224.609375 0)"/>
       <use xlink:href="#DejaVuSans-6d" transform="translate(258.300781 0)"/>
       <use xlink:href="#DejaVuSans-6d" transform="translate(355.712891 0)"/>
       <use xlink:href="#DejaVuSans-5d" transform="translate(453.125 0)"/>
      </g>
     </g>
    </g>
    <g id="xtick_3">
     <g id="line2d_3">
      <g>
       <use xlink:href="#m033ef903b6" x="152.508435" y="282.051174" style="stroke: #000000; stroke-width: 0.8"/>
      </g>
     </g>
     <g id="text_3">
      <!-- Gütefaktor Q̄ -->
      <g transform="translate(108.318312 305.928592) rotate(-15) scale(0.07 -0.07)">
       <defs>
        <path id="DejaVuSans-fc" d="M 544 1381 
L 544 3500 
L 1119 3500 
L 1119 1403 
Q 1119 906 1312 657 
Q 1506 409 1894 409 
Q 2359 409 2629 706 
Q 2900 1003 2900 1516 
L 2900 3500 
L 3475 3500 
L 3475 0 
L 2900 0 
L 2900 538 
Q 2691 219 2414 64 
Q 2138 -91 1772 -91 
Q 1169 -91 856 284 
Q 544 659 544 1381 
z
M 1991 3584 
L 1991 3584 
z
M 2278 4850 
L 2912 4850 
L 2912 4219 
L 2278 4219 
L 2278 4850 
z
M 1056 4850 
L 1690 4850 
L 1690 4219 
L 1056 4219 
L 1056 4850 
z
" transform="scale(0.015625)"/>
        <path id="DejaVuSans-66" d="M 2375 4863 
L 2375 4384 
L 1825 4384 
Q 1516 4384 1395 4259 
Q 1275 4134 1275 3809 
L 1275 3500 
L 2222 3500 
L 2222 3053 
L 1275 3053 
L 1275 0 
L 697 0 
L 697 3053 
L 147 3053 
L 147 3500 
L 697 3500 
L 697 3744 
Q 697 4328 969 4595 
Q 1241 4863 1831 4863 
L 2375 4863 
z
" transform="scale(0.015625)"/>
        <path id="DejaVuSans-6f" d="M 1959 3097 
Q 1497 3097 1228 2736 
Q 959 2375 959 1747 
Q 959 1119 1226 758 
Q 1494 397 1959 397 
Q 2419 397 2687 759 
Q 2956 1122 2956 1747 
Q 2956 2369 2687 2733 
Q 2419 3097 1959 3097 
z
M 1959 3584 
Q 2709 3584 3137 3096 
Q 3566 2609 3566 1747 
Q 3566 888 3137 398 
Q 2709 -91 1959 -91 
Q 1206 -91 779 398 
Q 353 888 353 1747 
Q 353 2609 779 3096 
Q 1206 3584 1959 3584 
z
" transform="scale(0.015625)"/>
        <path id="DejaVuSans-51" d="M 2522 4238 
Q 1834 4238 1429 3725 
Q 1025 3213 1025 2328 
Q 1025 1447 1429 934 
Q 1834 422 2522 422 
Q 3209 422 3611 934 
Q 4013 1447 4013 2328 
Q 4013 3213 3611 3725 
Q 3209 4238 2522 4238 
z
M 3406 84 
L 4238 -825 
L 3475 -825 
L 2784 -78 
Q 2681 -84 2626 -87 
Q 2572 -91 2522 -91 
Q 1538 -91 948 567 
Q 359 1225 359 2328 
Q 359 3434 948 4092 
Q 1538 4750 2522 4750 
Q 3503 4750 4090 4092 
Q 4678 3434 4678 2328 
Q 4678 1516 4351 937 
Q 4025 359 3406 84 
z
" transform="scale(0.015625)"/>
        <path id="DejaVuSans-304" d="M -2518 4769 
L -650 4769 
L -650 4306 
L -2518 4306 
L -2518 4769 
z
" transform="scale(0.015625)"/>
       </defs>
       <use xlink:href="#DejaVuSans-47"/>
       <use xlink:href="#DejaVuSans-fc" transform="translate(77.490234 0)"/>
       <use xlink:href="#DejaVuSans-74" transform="translate(140.869141 0)"/>
       <use xlink:href="#DejaVuSans-65" transform="translate(180.078125 0)"/>
       <use xlink:href="#DejaVuSans-66" transform="translate(241.601562 0)"/>
       <use xlink:href="#DejaVuSans-61" transform="translate(276.806641 0)"/>
       <use xlink:href="#DejaVuSans-6b" transform="translate(338.085938 0)"/>
       <use xlink:href="#DejaVuSans-74" transform="translate(395.996094 0)"/>
       <use xlink:href="#DejaVuSans-6f" transform="translate(435.205078 0)"/>
       <use xlink:href="#DejaVuSans-72" transform="translate(496.386719 0)"/>
       <use xlink:href="#DejaVuSans-20" transform="translate(537.5 0)"/>
       <use xlink:href="#DejaVuSans-51" transform="translate(569.287109 0)"/>
       <use xlink:href="#DejaVuSans-304" transform="translate(647.998047 0)"/>
      </g>
     </g>
    </g>
    <g id="xtick_4">
     <g id="line2d_4">
      <g>
       <use xlink:href="#m033ef903b6" x="193.786369" y="282.051174" style="stroke: #000000; stroke-width: 0.8"/>
      </g>
     </g>
     <g id="text_4">
      <!-- Dynamikumfang D -->
      <g transform="translate(128.247626 311.105337) rotate(-15) scale(0.07 -0.07)">
       <defs>
        <path id="DejaVuSans-44" d="M 1259 4147 
L 1259 519 
L 2022 519 
Q 2988 519 3436 956 
Q 3884 1394 3884 2338 
Q 3884 3275 3436 3711 
Q 2988 4147 2022 4147 
L 1259 4147 
z
M 628 4666 
L 1925 4666 
Q 3281 4666 3915 4102 
Q 4550 3538 4550 2338 
Q 4550 1131 3912 565 
Q 3275 0 1925 0 
L 628 0 
L 628 4666 
z
" transform="scale(0.015625)"/>
        <path id="DejaVuSans-79" d="M 2059 -325 
Q 1816 -950 1584 -1140 
Q 1353 -1331 966 -1331 
L 506 -1331 
L 506 -850 
L 844 -850 
Q 1081 -850 1212 -737 
Q 1344 -625 1503 -206 
L 1606 56 
L 191 3500 
L 800 3500 
L 1894 763 
L 2988 3500 
L 3597 3500 
L 2059 -325 
z
" transform="scale(0.015625)"/>
        <path id="DejaVuSans-75" d="M 544 1381 
L 544 3500 
L 1119 3500 
L 1119 1403 
Q 1119 906 1312 657 
Q 1506 409 1894 409 
Q 2359 409 2629 706 
Q 2900 1003 2900 1516 
L 2900 3500 
L 3475 3500 
L 3475 0 
L 2900 0 
L 2900 538 
Q 2691 219 2414 64 
Q 2138 -91 1772 -91 
Q 1169 -91 856 284 
Q 544 659 544 1381 
z
M 1991 3584 
L 1991 3584 
z
" transform="scale(0.015625)"/>
        <path id="DejaVuSans-67" d="M 2906 1791 
Q 2906 2416 2648 2759 
Q 2391 3103 1925 3103 
Q 1463 3103 1205 2759 
Q 947 2416 947 1791 
Q 947 1169 1205 825 
Q 1463 481 1925 481 
Q 2391 481 2648 825 
Q 2906 1169 2906 1791 
z
M 3481 434 
Q 3481 -459 3084 -895 
Q 2688 -1331 1869 -1331 
Q 1566 -1331 1297 -1286 
Q 1028 -1241 775 -1147 
L 775 -588 
Q 1028 -725 1275 -790 
Q 1522 -856 1778 -856 
Q 2344 -856 2625 -561 
Q 2906 -266 2906 331 
L 2906 616 
Q 2728 306 2450 153 
Q 2172 0 1784 0 
Q 1141 0 747 490 
Q 353 981 353 1791 
Q 353 2603 747 3093 
Q 1141 3584 1784 3584 
Q 2172 3584 2450 3431 
Q 2728 3278 2906 2969 
L 2906 3500 
L 3481 3500 
L 3481 434 
z
" transform="scale(0.015625)"/>
       </defs>
       <use xlink:href="#DejaVuSans-44"/>
       <use xlink:href="#DejaVuSans-79" transform="translate(77.001953 0)"/>
       <use xlink:href="#DejaVuSans-6e" transform="translate(136.181641 0)"/>
       <use xlink:href="#DejaVuSans-61" transform="translate(199.560547 0)"/>
       <use xlink:href="#DejaVuSans-6d" transform="translate(260.839844 0)"/>
       <use xlink:href="#DejaVuSans-69" transform="translate(358.251953 0)"/>
       <use xlink:href="#DejaVuSans-6b" transform="translate(386.035156 0)"/>
       <use xlink:href="#DejaVuSans-75" transform="translate(440.820312 0)"/>
       <use xlink:href="#DejaVuSans-6d" transform="translate(504.199219 0)"/>
       <use xlink:href="#DejaVuSans-66" transform="translate(601.611328 0)"/>
       <use xlink:href="#DejaVuSans-61" transform="translate(636.816406 0)"/>
       <use xlink:href="#DejaVuSans-6e" transform="translate(698.095703 0)"/>
       <use xlink:href="#DejaVuSans-67" transform="translate(761.474609 0)"/>
       <use xlink:href="#DejaVuSans-20" transform="translate(824.951172 0)"/>
       <use xlink:href="#DejaVuSans-44" transform="translate(856.738281 0)"/>
      </g>
      <!-- [dB] -->
      <g transform="translate(179.202023 305.567127) rotate(-15) scale(0.07 -0.07)">
       <use xlink:href="#DejaVuSans-5b"/>
       <use xlink:href="#DejaVuSans-64" transform="translate(39.013672 0)"/>
       <use xlink:href="#DejaVuSans-42" transform="translate(102.490234 0)"/>
       <use xlink:href="#DejaVuSans-5d" transform="translate(171.09375 0)"/>
      </g>
     </g>
    </g>
    <g id="xtick_5">
     <g id="line2d_5">
      <g>
       <use xlink:href="#m033ef903b6" x="235.064303" y="282.051174" style="stroke: #000000; stroke-width: 0.8"/>
      </g>
     </g>
     <g id="text_5">
      <!-- Temporal. Aufl. -->
      <g transform="translate(182.034622 307.740042) rotate(-15) scale(0.07 -0.07)">
       <defs>
        <path id="DejaVuSans-54" d="M -19 4666 
L 3928 4666 
L 3928 4134 
L 2272 4134 
L 2272 0 
L 1638 0 
L 1638 4134 
L -19 4134 
L -19 4666 
z
" transform="scale(0.015625)"/>
        <path id="DejaVuSans-70" d="M 1159 525 
L 1159 -1331 
L 581 -1331 
L 581 3500 
L 1159 3500 
L 1159 2969 
Q 1341 3281 1617 3432 
Q 1894 3584 2278 3584 
Q 2916 3584 3314 3078 
Q 3713 2572 3713 1747 
Q 3713 922 3314 415 
Q 2916 -91 2278 -91 
Q 1894 -91 1617 61 
Q 1341 213 1159 525 
z
M 3116 1747 
Q 3116 2381 2855 2742 
Q 2594 3103 2138 3103 
Q 1681 3103 1420 2742 
Q 1159 2381 1159 1747 
Q 1159 1113 1420 752 
Q 1681 391 2138 391 
Q 2594 391 2855 752 
Q 3116 1113 3116 1747 
z
" transform="scale(0.015625)"/>
        <path id="DejaVuSans-6c" d="M 603 4863 
L 1178 4863 
L 1178 0 
L 603 0 
L 603 4863 
z
" transform="scale(0.015625)"/>
        <path id="DejaVuSans-2e" d="M 684 794 
L 1344 794 
L 1344 0 
L 684 0 
L 684 794 
z
" transform="scale(0.015625)"/>
        <path id="DejaVuSans-41" d="M 2188 4044 
L 1331 1722 
L 3047 1722 
L 2188 4044 
z
M 1831 4666 
L 2547 4666 
L 4325 0 
L 3669 0 
L 3244 1197 
L 1141 1197 
L 716 0 
L 50 0 
L 1831 4666 
z
" transform="scale(0.015625)"/>
       </defs>
       <use xlink:href="#DejaVuSans-54"/>
       <use xlink:href="#DejaVuSans-65" transform="translate(44.083984 0)"/>
       <use xlink:href="#DejaVuSans-6d" transform="translate(105.607422 0)"/>
       <use xlink:href="#DejaVuSans-70" transform="translate(203.019531 0)"/>
       <use xlink:href="#DejaVuSans-6f" transform="translate(266.496094 0)"/>
       <use xlink:href="#DejaVuSans-72" transform="translate(327.677734 0)"/>
       <use xlink:href="#DejaVuSans-61" transform="translate(368.791016 0)"/>
       <use xlink:href="#DejaVuSans-6c" transform="translate(430.070312 0)"/>
       <use xlink:href="#DejaVuSans-2e" transform="translate(457.853516 0)"/>
       <use xlink:href="#DejaVuSans-20" transform="translate(489.640625 0)"/>
       <use xlink:href="#DejaVuSans-41" transform="translate(521.427734 0)"/>
       <use xlink:href="#DejaVuSans-75" transform="translate(589.835938 0)"/>
       <use xlink:href="#DejaVuSans-66" transform="translate(653.214844 0)"/>
       <use xlink:href="#DejaVuSans-6c" transform="translate(688.419922 0)"/>
       <use xlink:href="#DejaVuSans-2e" transform="translate(716.203125 0)"/>
      </g>
      <!-- 1/(2σ_t) [kHz] -->
      <g transform="translate(188.188926 314.205981) rotate(-15) scale(0.07 -0.07)">
       <defs>
        <path id="DejaVuSans-31" d="M 794 531 
L 1825 531 
L 1825 4091 
L 703 3866 
L 703 4441 
L 1819 4666 
L 2450 4666 
L 2450 531 
L 3481 531 
L 3481 0 
L 794 0 
L 794 531 
z
" transform="scale(0.015625)"/>
        <path id="DejaVuSans-32" d="M 1228 531 
L 3431 531 
L 3431 0 
L 469 0 
L 469 531 
Q 828 903 1448 1529 
Q 2069 2156 2228 2338 
Q 2531 2678 2651 2914 
Q 2772 3150 2772 3378 
Q 2772 3750 2511 3984 
Q 2250 4219 1831 4219 
Q 1534 4219 1204 4116 
Q 875 4013 500 3803 
L 500 4441 
Q 881 4594 1212 4672 
Q 1544 4750 1819 4750 
Q 2544 4750 2975 4387 
Q 3406 4025 3406 3419 
Q 3406 3131 3298 2873 
Q 3191 2616 2906 2266 
Q 2828 2175 2409 1742 
Q 1991 1309 1228 531 
z
" transform="scale(0.015625)"/>
        <path id="DejaVuSans-3c3" d="M 1959 3044 
Q 1484 3044 1228 2700 
Q 959 2341 959 1747 
Q 959 1119 1226 758 
Q 1494 397 1959 397 
Q 2419 397 2687 759 
Q 2956 1122 2956 1747 
Q 2956 2319 2688 2700 
Q 2441 3044 1959 3044 
z
M 1959 3500 
L 3869 3500 
L 3869 2925 
L 3225 2925 
Q 3566 2438 3566 1747 
Q 3566 888 3138 400 
Q 2709 -91 1959 -91 
Q 1206 -91 781 400 
Q 353 888 353 1747 
Q 353 2613 781 3097 
Q 1134 3500 1959 3500 
z
" transform="scale(0.015625)"/>
       </defs>
       <use xlink:href="#DejaVuSans-31"/>
       <use xlink:href="#DejaVuSans-2f" transform="translate(63.623047 0)"/>
       <use xlink:href="#DejaVuSans-28" transform="translate(97.314453 0)"/>
       <use xlink:href="#DejaVuSans-32" transform="translate(136.328125 0)"/>
       <use xlink:href="#DejaVuSans-3c3" transform="translate(199.951172 0)"/>
       <use xlink:href="#DejaVuSans-5f" transform="translate(263.330078 0)"/>
       <use xlink:href="#DejaVuSans-74" transform="translate(313.330078 0)"/>
       <use xlink:href="#DejaVuSans-29" transform="translate(352.539062 0)"/>
       <use xlink:href="#DejaVuSans-20" transform="translate(391.552734 0)"/>
       <use xlink:href="#DejaVuSans-5b" transform="translate(423.339844 0)"/>
       <use xlink:href="#DejaVuSans-6b" transform="translate(462.353516 0)"/>
       <use xlink:href="#DejaVuSans-48" transform="translate(520.263672 0)"/>
       <use xlink:href="#DejaVuSans-7a" transform="translate(595.458984 0)"/>
       <use xlink:href="#DejaVuSans-5d" transform="translate(647.949219 0)"/>
      </g>
     </g>
    </g>
    <g id="xtick_6">
     <g id="line2d_6">
      <g>
       <use xlink:href="#m033ef903b6" x="276.342237" y="282.051174" style="stroke: #000000; stroke-width: 0.8"/>
      </g>
     </g>
     <g id="text_6">
      <!-- Kapazität C -->
      <g transform="translate(235.299071 304.541767) rotate(-15) scale(0.07 -0.07)">
       <defs>
        <path id="DejaVuSans-4b" d="M 628 4666 
L 1259 4666 
L 1259 2694 
L 3353 4666 
L 4166 4666 
L 1850 2491 
L 4331 0 
L 3500 0 
L 1259 2247 
L 1259 0 
L 628 0 
L 628 4666 
z
" transform="scale(0.015625)"/>
        <path id="DejaVuSans-e4" d="M 2194 1759 
Q 1497 1759 1228 1600 
Q 959 1441 959 1056 
Q 959 750 1161 570 
Q 1363 391 1709 391 
Q 2188 391 2477 730 
Q 2766 1069 2766 1631 
L 2766 1759 
L 2194 1759 
z
M 3341 1997 
L 3341 0 
L 2766 0 
L 2766 531 
Q 2569 213 2275 61 
Q 1981 -91 1556 -91 
Q 1019 -91 701 211 
Q 384 513 384 1019 
Q 384 1609 779 1909 
Q 1175 2209 1959 2209 
L 2766 2209 
L 2766 2266 
Q 2766 2663 2505 2880 
Q 2244 3097 1772 3097 
Q 1472 3097 1187 3025 
Q 903 2953 641 2809 
L 641 3341 
Q 956 3463 1253 3523 
Q 1550 3584 1831 3584 
Q 2591 3584 2966 3190 
Q 3341 2797 3341 1997 
z
M 2150 4850 
L 2784 4850 
L 2784 4219 
L 2150 4219 
L 2150 4850 
z
M 928 4850 
L 1562 4850 
L 1562 4219 
L 928 4219 
L 928 4850 
z
" transform="scale(0.015625)"/>
        <path id="DejaVuSans-43" d="M 4122 4306 
L 4122 3641 
Q 3803 3938 3442 4084 
Q 3081 4231 2675 4231 
Q 1875 4231 1450 3742 
Q 1025 3253 1025 2328 
Q 1025 1406 1450 917 
Q 1875 428 2675 428 
Q 3081 428 3442 575 
Q 3803 722 4122 1019 
L 4122 359 
Q 3791 134 3420 21 
Q 3050 -91 2638 -91 
Q 1578 -91 968 557 
Q 359 1206 359 2328 
Q 359 3453 968 4101 
Q 1578 4750 2638 4750 
Q 3056 4750 3426 4639 
Q 3797 4528 4122 4306 
z
" transform="scale(0.015625)"/>
       </defs>
       <use xlink:href="#DejaVuSans-4b"/>
       <use xlink:href="#DejaVuSans-61" transform="translate(63.826172 0)"/>
       <use xlink:href="#DejaVuSans-70" transform="translate(125.105469 0)"/>
       <use xlink:href="#DejaVuSans-61" transform="translate(188.582031 0)"/>
       <use xlink:href="#DejaVuSans-7a" transform="translate(249.861328 0)"/>
       <use xlink:href="#DejaVuSans-69" transform="translate(302.351562 0)"/>
       <use xlink:href="#DejaVuSans-74" transform="translate(330.134766 0)"/>
       <use xlink:href="#DejaVuSans-e4" transform="translate(369.34375 0)"/>
       <use xlink:href="#DejaVuSans-74" transform="translate(430.623047 0)"/>
       <use xlink:href="#DejaVuSans-20" transform="translate(469.832031 0)"/>
       <use xlink:href="#DejaVuSans-43" transform="translate(501.619141 0)"/>
      </g>
      <!-- [Mbit/s] -->
      <g transform="translate(250.233792 308.655) rotate(-15) scale(0.07 -0.07)">
       <defs>
        <path id="DejaVuSans-4d" d="M 628 4666 
L 1569 4666 
L 2759 1491 
L 3956 4666 
L 4897 4666 
L 4897 0 
L 4281 0 
L 4281 4097 
L 3078 897 
L 2444 897 
L 1241 4097 
L 1241 0 
L 628 0 
L 628 4666 
z
" transform="scale(0.015625)"/>
       </defs>
       <use xlink:href="#DejaVuSans-5b"/>
       <use xlink:href="#DejaVuSans-4d" transform="translate(39.013672 0)"/>
       <use xlink:href="#DejaVuSans-62" transform="translate(125.292969 0)"/>
       <use xlink:href="#DejaVuSans-69" transform="translate(188.769531 0)"/>
       <use xlink:href="#DejaVuSans-74" transform="translate(216.552734 0)"/>
       <use xlink:href="#DejaVuSans-2f" transform="translate(255.761719 0)"/>
       <use xlink:href="#DejaVuSans-73" transform="translate(289.453125 0)"/>
       <use xlink:href="#DejaVuSans-5d" transform="translate(341.552734 0)"/>
      </g>
     </g>
    </g>
    <g id="xtick_7">
     <g id="line2d_7">
      <g>
       <use xlink:href="#m033ef903b6" x="317.620171" y="282.051174" style="stroke: #000000; stroke-width: 0.8"/>
      </g>
     </g>
     <g id="text_7">
      <!-- Tonotop. Gradient β -->
      <g transform="translate(248.403816 312.133009) rotate(-15) scale(0.07 -0.07)">
       <defs>
        <path id="DejaVuSans-3b2" d="M 1178 216 
L 1178 -1331 
L 600 -1331 
L 600 3478 
Q 600 4903 1931 4903 
Q 3288 4903 3288 3700 
Q 3288 2844 2750 2531 
Q 3625 2250 3625 1416 
Q 3625 -66 2119 -66 
Q 1456 -66 1178 216 
z
M 1178 966 
Q 1525 425 2141 425 
Q 3041 425 3041 1406 
Q 3041 2288 1591 2219 
L 1591 2750 
Q 2725 2750 2725 3750 
Q 2725 4434 1994 4434 
Q 1178 4434 1178 3459 
L 1178 966 
z
" transform="scale(0.015625)"/>
       </defs>
       <use xlink:href="#DejaVuSans-54"/>
       <use xlink:href="#DejaVuSans-6f" transform="translate(44.083984 0)"/>
       <use xlink:href="#DejaVuSans-6e" transform="translate(105.265625 0)"/>
       <use xlink:href="#DejaVuSans-6f" transform="translate(168.644531 0)"/>
       <use xlink:href="#DejaVuSans-74" transform="translate(229.826172 0)"/>
       <use xlink:href="#DejaVuSans-6f" transform="translate(269.035156 0)"/>
       <use xlink:href="#DejaVuSans-70" transform="translate(330.216797 0)"/>
       <use xlink:href="#DejaVuSans-2e" transform="translate(393.693359 0)"/>
       <use xlink:href="#DejaVuSans-20" transform="translate(425.480469 0)"/>
       <use xlink:href="#DejaVuSans-47" transform="translate(457.267578 0)"/>
       <use xlink:href="#DejaVuSans-72" transform="translate(534.757812 0)"/>
       <use xlink:href="#DejaVuSans-61" transform="translate(575.871094 0)"/>
       <use xlink:href="#DejaVuSans-64" transform="translate(637.150391 0)"/>
       <use xlink:href="#DejaVuSans-69" transform="translate(700.626953 0)"/>
       <use xlink:href="#DejaVuSans-65" transform="translate(728.410156 0)"/>
       <use xlink:href="#DejaVuSans-6e" transform="translate(789.933594 0)"/>
       <use xlink:href="#DejaVuSans-74" transform="translate(853.3125 0)"/>
       <use xlink:href="#DejaVuSans-20" transform="translate(892.521484 0)"/>
       <use xlink:href="#DejaVuSans-3b2" transform="translate(924.308594 0)"/>
      </g>
      <!-- [mm⁻¹] -->
      <g transform="translate(292.515384 308.42833) rotate(-15) scale(0.07 -0.07)">
       <defs>
        <path id="DejaVuSans-207b" d="M 428 3359 
L 2950 3359 
L 2950 3063 
L 428 3063 
L 428 3359 
z
" transform="scale(0.015625)"/>
        <path id="DejaVuSans-b9" d="M 488 2431 
L 1125 2431 
L 1125 4341 
L 428 4213 
L 428 4575 
L 1147 4697 
L 1575 4697 
L 1575 2431 
L 2216 2431 
L 2216 2088 
L 488 2088 
L 488 2431 
z
" transform="scale(0.015625)"/>
       </defs>
       <use xlink:href="#DejaVuSans-5b"/>
       <use xlink:href="#DejaVuSans-6d" transform="translate(39.013672 0)"/>
       <use xlink:href="#DejaVuSans-6d" transform="translate(136.425781 0)"/>
       <use xlink:href="#DejaVuSans-207b" transform="translate(233.837891 0)"/>
       <use xlink:href="#DejaVuSans-b9" transform="translate(286.621094 0)"/>
       <use xlink:href="#DejaVuSans-5d" transform="translate(326.708984 0)"/>
      </g>
     </g>
    </g>
   </g>
   <g id="matplotlib.axis_2">
    <g id="ytick_1">
     <g id="line2d_8">
      <defs>
       <path id="m342ae1e885" d="M 0 0 
L -3.5 0 
" style="stroke: #000000; stroke-width: 0.8"/>
      </defs>
      <g>
       <use xlink:href="#m342ae1e885" x="41.223125" y="282.051174" style="stroke: #000000; stroke-width: 0.8"/>
      </g>
     </g>
     <g id="text_8">
      <!-- 0.0 -->
      <g transform="translate(19.910313 285.470471) scale(0.09 -0.09)">
       <defs>
        <path id="DejaVuSans-30" d="M 2034 4250 
Q 1547 4250 1301 3770 
Q 1056 3291 1056 2328 
Q 1056 1369 1301 889 
Q 1547 409 2034 409 
Q 2525 409 2770 889 
Q 3016 1369 3016 2328 
Q 3016 3291 2770 3770 
Q 2525 4250 2034 4250 
z
M 2034 4750 
Q 2819 4750 3233 4129 
Q 3647 3509 3647 2328 
Q 3647 1150 3233 529 
Q 2819 -91 2034 -91 
Q 1250 -91 836 529 
Q 422 1150 422 2328 
Q 422 3509 836 4129 
Q 1250 4750 2034 4750 
z
" transform="scale(0.015625)"/>
       </defs>
       <use xlink:href="#DejaVuSans-30"/>
       <use xlink:href="#DejaVuSans-2e" transform="translate(63.623047 0)"/>
       <use xlink:href="#DejaVuSans-30" transform="translate(95.410156 0)"/>
      </g>
     </g>
    </g>
    <g id="ytick_2">
     <g id="line2d_9">
      <g>
       <use xlink:href="#m342ae1e885" x="41.223125" y="247.80656" style="stroke: #000000; stroke-width: 0.8"/>
      </g>
     </g>
     <g id="text_9">
      <!-- 0.2 -->
      <g transform="translate(19.910313 251.225857) scale(0.09 -0.09)">
       <use xlink:href="#DejaVuSans-30"/>
       <use xlink:href="#DejaVuSans-2e" transform="translate(63.623047 0)"/>
       <use xlink:href="#DejaVuSans-32" transform="translate(95.410156 0)"/>
      </g>
     </g>
    </g>
    <g id="ytick_3">
     <g id="line2d_10">
      <g>
       <use xlink:href="#m342ae1e885" x="41.223125" y="213.561947" style="stroke: #000000; stroke-width: 0.8"/>
      </g>
     </g>
     <g id="text_10">
      <!-- 0.4 -->
      <g transform="translate(19.910313 216.981243) scale(0.09 -0.09)">
       <defs>
        <path id="DejaVuSans-34" d="M 2419 4116 
L 825 1625 
L 2419 1625 
L 2419 4116 
z
M 2253 4666 
L 3047 4666 
L 3047 1625 
L 3713 1625 
L 3713 1100 
L 3047 1100 
L 3047 0 
L 2419 0 
L 2419 1100 
L 313 1100 
L 313 1709 
L 2253 4666 
z
" transform="scale(0.015625)"/>
       </defs>
       <use xlink:href="#DejaVuSans-30"/>
       <use xlink:href="#DejaVuSans-2e" transform="translate(63.623047 0)"/>
       <use xlink:href="#DejaVuSans-34" transform="translate(95.410156 0)"/>
      </g>
     </g>
    </g>
    <g id="ytick_4">
     <g id="line2d_11">
      <g>
       <use xlink:href="#m342ae1e885" x="41.223125" y="179.317333" style="stroke: #000000; stroke-width: 0.8"/>
      </g>
     </g>
     <g id="text_11">
      <!-- 0.6 -->
      <g transform="translate(19.910313 182.736629) scale(0.09 -0.09)">
       <defs>
        <path id="DejaVuSans-36" d="M 2113 2584 
Q 1688 2584 1439 2293 
Q 1191 2003 1191 1497 
Q 1191 994 1439 701 
Q 1688 409 2113 409 
Q 2538 409 2786 701 
Q 3034 994 3034 1497 
Q 3034 2003 2786 2293 
Q 2538 2584 2113 2584 
z
M 3366 4563 
L 3366 3988 
Q 3128 4100 2886 4159 
Q 2644 4219 2406 4219 
Q 1781 4219 1451 3797 
Q 1122 3375 1075 2522 
Q 1259 2794 1537 2939 
Q 1816 3084 2150 3084 
Q 2853 3084 3261 2657 
Q 3669 2231 3669 1497 
Q 3669 778 3244 343 
Q 2819 -91 2113 -91 
Q 1303 -91 875 529 
Q 447 1150 447 2328 
Q 447 3434 972 4092 
Q 1497 4750 2381 4750 
Q 2619 4750 2861 4703 
Q 3103 4656 3366 4563 
z
" transform="scale(0.015625)"/>
       </defs>
       <use xlink:href="#DejaVuSans-30"/>
       <use xlink:href="#DejaVuSans-2e" transform="translate(63.623047 0)"/>
       <use xlink:href="#DejaVuSans-36" transform="translate(95.410156 0)"/>
      </g>
     </g>
    </g>
    <g id="ytick_5">
     <g id="line2d_12">
      <g>
       <use xlink:href="#m342ae1e885" x="41.223125" y="145.072719" style="stroke: #000000; stroke-width: 0.8"/>
      </g>
     </g>
     <g id="text_12">
      <!-- 0.8 -->
      <g transform="translate(19.910313 148.492016) scale(0.09 -0.09)">
       <defs>
        <path id="DejaVuSans-38" d="M 2034 2216 
Q 1584 2216 1326 1975 
Q 1069 1734 1069 1313 
Q 1069 891 1326 650 
Q 1584 409 2034 409 
Q 2484 409 2743 651 
Q 3003 894 3003 1313 
Q 3003 1734 2745 1975 
Q 2488 2216 2034 2216 
z
M 1403 2484 
Q 997 2584 770 2862 
Q 544 3141 544 3541 
Q 544 4100 942 4425 
Q 1341 4750 2034 4750 
Q 2731 4750 3128 4425 
Q 3525 4100 3525 3541 
Q 3525 3141 3298 2862 
Q 3072 2584 2669 2484 
Q 3125 2378 3379 2068 
Q 3634 1759 3634 1313 
Q 3634 634 3220 271 
Q 2806 -91 2034 -91 
Q 1263 -91 848 271 
Q 434 634 434 1313 
Q 434 1759 690 2068 
Q 947 2378 1403 2484 
z
M 1172 3481 
Q 1172 3119 1398 2916 
Q 1625 2713 2034 2713 
Q 2441 2713 2670 2916 
Q 2900 3119 2900 3481 
Q 2900 3844 2670 4047 
Q 2441 4250 2034 4250 
Q 1625 4250 1398 4047 
Q 1172 3844 1172 3481 
z
" transform="scale(0.015625)"/>
       </defs>
       <use xlink:href="#DejaVuSans-30"/>
       <use xlink:href="#DejaVuSans-2e" transform="translate(63.623047 0)"/>
       <use xlink:href="#DejaVuSans-38" transform="translate(95.410156 0)"/>
      </g>
     </g>
    </g>
    <g id="ytick_6">
     <g id="line2d_13">
      <g>
       <use xlink:href="#m342ae1e885" x="41.223125" y="110.828105" style="stroke: #000000; stroke-width: 0.8"/>
      </g>
     </g>
     <g id="text_13">
      <!-- 1.0 -->
      <g transform="translate(19.910313 114.247402) scale(0.09 -0.09)">
       <use xlink:href="#DejaVuSans-31"/>
       <use xlink:href="#DejaVuSans-2e" transform="translate(63.623047 0)"/>
       <use xlink:href="#DejaVuSans-30" transform="translate(95.410156 0)"/>
      </g>
     </g>
    </g>
    <g id="ytick_7">
     <g id="line2d_14">
      <g>
       <use xlink:href="#m342ae1e885" x="41.223125" y="76.583491" style="stroke: #000000; stroke-width: 0.8"/>
      </g>
     </g>
     <g id="text_14">
      <!-- 1.2 -->
      <g transform="translate(19.910313 80.002788) scale(0.09 -0.09)">
       <use xlink:href="#DejaVuSans-31"/>
       <use xlink:href="#DejaVuSans-2e" transform="translate(63.623047 0)"/>
       <use xlink:href="#DejaVuSans-32" transform="translate(95.410156 0)"/>
      </g>
     </g>
    </g>
    <g id="text_15">
     <!-- Normierter Wert (Katze = 1.0) -->
     <g transform="translate(14.038594 231.172025) rotate(-90) scale(0.09 -0.09)">
      <defs>
       <path id="DejaVuSans-4e" d="M 628 4666 
L 1478 4666 
L 3547 763 
L 3547 4666 
L 4159 4666 
L 4159 0 
L 3309 0 
L 1241 3903 
L 1241 0 
L 628 0 
L 628 4666 
z
" transform="scale(0.015625)"/>
       <path id="DejaVuSans-57" d="M 213 4666 
L 850 4666 
L 1831 722 
L 2809 4666 
L 3519 4666 
L 4500 722 
L 5478 4666 
L 6119 4666 
L 4947 0 
L 4153 0 
L 3169 4050 
L 2175 0 
L 1381 0 
L 213 4666 
z
" transform="scale(0.015625)"/>
       <path id="DejaVuSans-3d" d="M 678 2906 
L 4684 2906 
L 4684 2381 
L 678 2381 
L 678 2906 
z
M 678 1631 
L 4684 1631 
L 4684 1100 
L 678 1100 
L 678 1631 
z
" transform="scale(0.015625)"/>
      </defs>
      <use xlink:href="#DejaVuSans-4e"/>
      <use xlink:href="#DejaVuSans-6f" transform="translate(74.804688 0)"/>
      <use xlink:href="#DejaVuSans-72" transform="translate(135.986328 0)"/>
      <use xlink:href="#DejaVuSans-6d" transform="translate(175.349609 0)"/>
      <use xlink:href="#DejaVuSans-69" transform="translate(272.761719 0)"/>
      <use xlink:href="#DejaVuSans-65" transform="translate(300.544922 0)"/>
      <use xlink:href="#DejaVuSans-72" transform="translate(362.068359 0)"/>
      <use xlink:href="#DejaVuSans-74" transform="translate(403.181641 0)"/>
      <use xlink:href="#DejaVuSans-65" transform="translate(442.390625 0)"/>
      <use xlink:href="#DejaVuSans-72" transform="translate(503.914062 0)"/>
      <use xlink:href="#DejaVuSans-20" transform="translate(545.027344 0)"/>
      <use xlink:href="#DejaVuSans-57" transform="translate(576.814453 0)"/>
      <use xlink:href="#DejaVuSans-65" transform="translate(669.816406 0)"/>
      <use xlink:href="#DejaVuSans-72" transform="translate(731.339844 0)"/>
      <use xlink:href="#DejaVuSans-74" transform="translate(772.453125 0)"/>
      <use xlink:href="#DejaVuSans-20" transform="translate(811.662109 0)"/>
      <use xlink:href="#DejaVuSans-28" transform="translate(843.449219 0)"/>
      <use xlink:href="#DejaVuSans-4b" transform="translate(882.462891 0)"/>
      <use xlink:href="#DejaVuSans-61" transform="translate(946.289062 0)"/>
      <use xlink:href="#DejaVuSans-74" transform="translate(1007.568359 0)"/>
      <use xlink:href="#DejaVuSans-7a" transform="translate(1046.777344 0)"/>
      <use xlink:href="#DejaVuSans-65" transform="translate(1099.267578 0)"/>
      <use xlink:href="#DejaVuSans-20" transform="translate(1160.791016 0)"/>
      <use xlink:href="#DejaVuSans-3d" transform="translate(1192.578125 0)"/>
      <use xlink:href="#DejaVuSans-20" transform="translate(1276.367188 0)"/>
      <use xlink:href="#DejaVuSans-31" transform="translate(1308.154297 0)"/>
      <use xlink:href="#DejaVuSans-2e" transform="translate(1371.777344 0)"/>
      <use xlink:href="#DejaVuSans-30" transform="translate(1403.564453 0)"/>
      <use xlink:href="#DejaVuSans-29" transform="translate(1467.1875 0)"/>
     </g>
    </g>
   </g>
   <g id="line2d_15">
    <path d="M 41.223125 110.828105 
L 346.349613 110.828105 
" clip-path="url(#pf59d3af4d1)" style="fill: none; stroke-dasharray: 2.59,1.12; stroke-dashoffset: 0; stroke: #888888; stroke-width: 0.7"/>
   </g>
   <g id="patch_24">
    <path d="M 41.223125 282.051174 
L 41.223125 44.736 
" style="fill: none; stroke: #000000; stroke-width: 0.8; stroke-linejoin: miter; stroke-linecap: square"/>
   </g>
   <g id="patch_25">
    <path d="M 346.349613 282.051174 
L 346.349613 44.736 
" style="fill: none; stroke: #000000; stroke-width: 0.8; stroke-linejoin: miter; stroke-linecap: square"/>
   </g>
   <g id="patch_26">
    <path d="M 41.223125 282.051174 
L 346.349613 282.051174 
" style="fill: none; stroke: #000000; stroke-width: 0.8; stroke-linejoin: miter; stroke-linecap: square"/>
   </g>
   <g id="patch_27">
    <path d="M 41.223125 44.736 
L 346.349613 44.736 
" style="fill: none; stroke: #000000; stroke-width: 0.8; stroke-linejoin: miter; stroke-linecap: square"/>
   </g>
   <g id="text_16">
    <!-- Normierte Leistungsmerkmale: Katze / Hund / Mensch -->
    <g transform="translate(58.589494 38.736) scale(0.1 -0.1)">
     <defs>
      <path id="DejaVuSans-4c" d="M 628 4666 
L 1259 4666 
L 1259 531 
L 3531 531 
L 3531 0 
L 628 0 
L 628 4666 
z
" transform="scale(0.015625)"/>
      <path id="DejaVuSans-3a" d="M 750 794 
L 1409 794 
L 1409 0 
L 750 0 
L 750 794 
z
M 750 3309 
L 1409 3309 
L 1409 2516 
L 750 2516 
L 750 3309 
z
" transform="scale(0.015625)"/>
      <path id="DejaVuSans-63" d="M 3122 3366 
L 3122 2828 
Q 2878 2963 2633 3030 
Q 2388 3097 2138 3097 
Q 1578 3097 1268 2742 
Q 959 2388 959 1747 
Q 959 1106 1268 751 
Q 1578 397 2138 397 
Q 2388 397 2633 464 
Q 2878 531 3122 666 
L 3122 134 
Q 2881 22 2623 -34 
Q 2366 -91 2075 -91 
Q 1284 -91 818 406 
Q 353 903 353 1747 
Q 353 2603 823 3093 
Q 1294 3584 2113 3584 
Q 2378 3584 2631 3529 
Q 2884 3475 3122 3366 
z
" transform="scale(0.015625)"/>
      <path id="DejaVuSans-68" d="M 3513 2113 
L 3513 0 
L 2938 0 
L 2938 2094 
Q 2938 2591 2744 2837 
Q 2550 3084 2163 3084 
Q 1697 3084 1428 2787 
Q 1159 2491 1159 1978 
L 1159 0 
L 581 0 
L 581 4863 
L 1159 4863 
L 1159 2956 
Q 1366 3272 1645 3428 
Q 1925 3584 2291 3584 
Q 2894 3584 3203 3211 
Q 3513 2838 3513 2113 
z
" transform="scale(0.015625)"/>
     </defs>
     <use xlink:href="#DejaVuSans-4e"/>
     <use xlink:href="#DejaVuSans-6f" transform="translate(74.804688 0)"/>
     <use xlink:href="#DejaVuSans-72" transform="translate(135.986328 0)"/>
     <use xlink:href="#DejaVuSans-6d" transform="translate(175.349609 0)"/>
     <use xlink:href="#DejaVuSans-69" transform="translate(272.761719 0)"/>
     <use xlink:href="#DejaVuSans-65" transform="translate(300.544922 0)"/>
     <use xlink:href="#DejaVuSans-72" transform="translate(362.068359 0)"/>
     <use xlink:href="#DejaVuSans-74" transform="translate(403.181641 0)"/>
     <use xlink:href="#DejaVuSans-65" transform="translate(442.390625 0)"/>
     <use xlink:href="#DejaVuSans-20" transform="translate(503.914062 0)"/>
     <use xlink:href="#DejaVuSans-4c" transform="translate(535.701172 0)"/>
     <use xlink:href="#DejaVuSans-65" transform="translate(589.664062 0)"/>
     <use xlink:href="#DejaVuSans-69" transform="translate(651.1875 0)"/>
     <use xlink:href="#DejaVuSans-73" transform="translate(678.970703 0)"/>
     <use xlink:href="#DejaVuSans-74" transform="translate(731.070312 0)"/>
     <use xlink:href="#DejaVuSans-75" transform="translate(770.279297 0)"/>
     <use xlink:href="#DejaVuSans-6e" transform="translate(833.658203 0)"/>
     <use xlink:href="#DejaVuSans-67" transform="translate(897.037109 0)"/>
     <use xlink:href="#DejaVuSans-73" transform="translate(960.513672 0)"/>
     <use xlink:href="#DejaVuSans-6d" transform="translate(1012.613281 0)"/>
     <use xlink:href="#DejaVuSans-65" transform="translate(1110.025391 0)"/>
     <use xlink:href="#DejaVuSans-72" transform="translate(1171.548828 0)"/>
     <use xlink:href="#DejaVuSans-6b" transform="translate(1212.662109 0)"/>
     <use xlink:href="#DejaVuSans-6d" transform="translate(1270.572266 0)"/>
     <use xlink:href="#DejaVuSans-61" transform="translate(1367.984375 0)"/>
     <use xlink:href="#DejaVuSans-6c" transform="translate(1429.263672 0)"/>
     <use xlink:href="#DejaVuSans-65" transform="translate(1457.046875 0)"/>
     <use xlink:href="#DejaVuSans-3a" transform="translate(1518.570312 0)"/>
     <use xlink:href="#DejaVuSans-20" transform="translate(1552.261719 0)"/>
     <use xlink:href="#DejaVuSans-4b" transform="translate(1584.048828 0)"/>
     <use xlink:href="#DejaVuSans-61" transform="translate(1647.875 0)"/>
     <use xlink:href="#DejaVuSans-74" transform="translate(1709.154297 0)"/>
     <use xlink:href="#DejaVuSans-7a" transform="translate(1748.363281 0)"/>
     <use xlink:href="#DejaVuSans-65" transform="translate(1800.853516 0)"/>
     <use xlink:href="#DejaVuSans-20" transform="translate(1862.376953 0)"/>
     <use xlink:href="#DejaVuSans-2f" transform="translate(1894.164062 0)"/>
     <use xlink:href="#DejaVuSans-20" transform="translate(1927.855469 0)"/>
     <use xlink:href="#DejaVuSans-48" transform="translate(1959.642578 0)"/>
     <use xlink:href="#DejaVuSans-75" transform="translate(2034.837891 0)"/>
     <use xlink:href="#DejaVuSans-6e" transform="translate(2098.216797 0)"/>
     <use xlink:href="#DejaVuSans-64" transform="translate(2161.595703 0)"/>
     <use xlink:href="#DejaVuSans-20" transform="translate(2225.072266 0)"/>
     <use xlink:href="#DejaVuSans-2f" transform="translate(2256.859375 0)"/>
     <use xlink:href="#DejaVuSans-20" transform="translate(2290.550781 0)"/>
     <use xlink:href="#DejaVuSans-4d" transform="translate(2322.337891 0)"/>
     <use xlink:href="#DejaVuSans-65" transform="translate(2408.617188 0)"/>
     <use xlink:href="#DejaVuSans-6e" transform="translate(2470.140625 0)"/>
     <use xlink:href="#DejaVuSans-73" transform="translate(2533.519531 0)"/>
     <use xlink:href="#DejaVuSans-63" transform="translate(2585.619141 0)"/>
     <use xlink:href="#DejaVuSans-68" transform="translate(2640.599609 0)"/>
    </g>
   </g>
   <g id="legend_1">
    <g id="patch_28">
     <path d="M 227.974613 98.106 
L 340.749613 98.106 
Q 342.349613 98.106 342.349613 96.506 
L 342.349613 50.336 
Q 342.349613 48.736 340.749613 48.736 
L 227.974613 48.736 
Q 226.374613 48.736 226.374613 50.336 
L 226.374613 96.506 
Q 226.374613 98.106 227.974613 98.106 
z
" style="fill: #ffffff; opacity: 0.8; stroke: #cccccc; stroke-linejoin: miter"/>
    </g>
    <g id="line2d_16">
     <path d="M 229.574613 55.21475 
L 237.574613 55.21475 
L 245.574613 55.21475 
" style="fill: none; stroke-dasharray: 2.59,1.12; stroke-dashoffset: 0; stroke: #888888; stroke-width: 0.7"/>
    </g>
    <g id="text_17">
     <!-- Referenz: Katze = 1.0 -->
     <g transform="translate(251.974613 58.01475) scale(0.08 -0.08)">
      <defs>
       <path id="DejaVuSans-52" d="M 2841 2188 
Q 3044 2119 3236 1894 
Q 3428 1669 3622 1275 
L 4263 0 
L 3584 0 
L 2988 1197 
Q 2756 1666 2539 1819 
Q 2322 1972 1947 1972 
L 1259 1972 
L 1259 0 
L 628 0 
L 628 4666 
L 2053 4666 
Q 2853 4666 3247 4331 
Q 3641 3997 3641 3322 
Q 3641 2881 3436 2590 
Q 3231 2300 2841 2188 
z
M 1259 4147 
L 1259 2491 
L 2053 2491 
Q 2509 2491 2742 2702 
Q 2975 2913 2975 3322 
Q 2975 3731 2742 3939 
Q 2509 4147 2053 4147 
L 1259 4147 
z
" transform="scale(0.015625)"/>
      </defs>
      <use xlink:href="#DejaVuSans-52"/>
      <use xlink:href="#DejaVuSans-65" transform="translate(64.982422 0)"/>
      <use xlink:href="#DejaVuSans-66" transform="translate(126.505859 0)"/>
      <use xlink:href="#DejaVuSans-65" transform="translate(161.710938 0)"/>
      <use xlink:href="#DejaVuSans-72" transform="translate(223.234375 0)"/>
      <use xlink:href="#DejaVuSans-65" transform="translate(262.097656 0)"/>
      <use xlink:href="#DejaVuSans-6e" transform="translate(323.621094 0)"/>
      <use xlink:href="#DejaVuSans-7a" transform="translate(387 0)"/>
      <use xlink:href="#DejaVuSans-3a" transform="translate(439.490234 0)"/>
      <use xlink:href="#DejaVuSans-20" transform="translate(473.181641 0)"/>
      <use xlink:href="#DejaVuSans-4b" transform="translate(504.96875 0)"/>
      <use xlink:href="#DejaVuSans-61" transform="translate(568.794922 0)"/>
      <use xlink:href="#DejaVuSans-74" transform="translate(630.074219 0)"/>
      <use xlink:href="#DejaVuSans-7a" transform="translate(669.283203 0)"/>
      <use xlink:href="#DejaVuSans-65" transform="translate(721.773438 0)"/>
      <use xlink:href="#DejaVuSans-20" transform="translate(783.296875 0)"/>
      <use xlink:href="#DejaVuSans-3d" transform="translate(815.083984 0)"/>
      <use xlink:href="#DejaVuSans-20" transform="translate(898.873047 0)"/>
      <use xlink:href="#DejaVuSans-31" transform="translate(930.660156 0)"/>
      <use xlink:href="#DejaVuSans-2e" transform="translate(994.283203 0)"/>
      <use xlink:href="#DejaVuSans-30" transform="translate(1026.070312 0)"/>
     </g>
    </g>
    <g id="patch_29">
     <path d="M 229.574613 69.75725 
L 245.574613 69.75725 
L 245.574613 64.15725 
L 229.574613 64.15725 
z
" style="fill: #e05a2b; opacity: 0.85; stroke: #ffffff; stroke-width: 0.4; stroke-linejoin: miter"/>
    </g>
    <g id="text_18">
     <!-- Cat -->
     <g transform="translate(251.974613 69.75725) scale(0.08 -0.08)">
      <use xlink:href="#DejaVuSans-43"/>
      <use xlink:href="#DejaVuSans-61" transform="translate(69.824219 0)"/>
      <use xlink:href="#DejaVuSans-74" transform="translate(131.103516 0)"/>
     </g>
    </g>
    <g id="patch_30">
     <path d="M 229.574613 81.49975 
L 245.574613 81.49975 
L 245.574613 75.89975 
L 229.574613 75.89975 
z
" style="fill: #3a7fc1; opacity: 0.85; stroke: #ffffff; stroke-width: 0.4; stroke-linejoin: miter"/>
    </g>
    <g id="text_19">
     <!-- Dog -->
     <g transform="translate(251.974613 81.49975) scale(0.08 -0.08)">
      <use xlink:href="#DejaVuSans-44"/>
      <use xlink:href="#DejaVuSans-6f" transform="translate(77.001953 0)"/>
      <use xlink:href="#DejaVuSans-67" transform="translate(138.183594 0)"/>
     </g>
    </g>
    <g id="patch_31">
     <path d="M 229.574613 93.24225 
L 245.574613 93.24225 
L 245.574613 87.64225 
L 229.574613 87.64225 
z
" style="fill: #5bad6f; opacity: 0.85; stroke: #ffffff; stroke-width: 0.4; stroke-linejoin: miter"/>
    </g>
    <g id="text_20">
     <!-- Human -->
     <g transform="translate(251.974613 93.24225) scale(0.08 -0.08)">
      <use xlink:href="#DejaVuSans-48"/>
      <use xlink:href="#DejaVuSans-75" transform="translate(75.195312 0)"/>
      <use xlink:href="#DejaVuSans-6d" transform="translate(138.574219 0)"/>
      <use xlink:href="#DejaVuSans-61" transform="translate(235.986328 0)"/>
      <use xlink:href="#DejaVuSans-6e" transform="translate(297.265625 0)"/>
     </g>
    </g>
   </g>
  </g>
  <g id="axes_2">
   <g id="patch_32">
    <path d="M 390.469613 282.051174 
L 695.5961 282.051174 
L 695.5961 44.736 
L 390.469613 44.736 
z
" style="fill: #ffffff"/>
   </g>
   <g id="patch_33">
    <path d="M 404.338998 282.051174 
L 422.831513 282.051174 
L 422.831513 93.705798 
L 404.338998 93.705798 
z
" clip-path="url(#pfe81e674a1)" style="fill: #e05a2b; opacity: 0.85; stroke: #ffffff; stroke-width: 0.4; stroke-linejoin: miter"/>
   </g>
   <g id="patch_34">
    <path d="M 478.309056 282.051174 
L 496.80157 282.051174 
L 496.80157 93.705798 
L 478.309056 93.705798 
z
" clip-path="url(#pfe81e674a1)" style="fill: #e05a2b; opacity: 0.85; stroke: #ffffff; stroke-width: 0.4; stroke-linejoin: miter"/>
   </g>
   <g id="patch_35">
    <path d="M 552.279114 282.051174 
L 570.771628 282.051174 
L 570.771628 93.705798 
L 552.279114 93.705798 
z
" clip-path="url(#pfe81e674a1)" style="fill: #e05a2b; opacity: 0.85; stroke: #ffffff; stroke-width: 0.4; stroke-linejoin: miter"/>
   </g>
   <g id="patch_36">
    <path d="M 626.249171 282.051174 
L 644.741686 282.051174 
L 644.741686 93.705798 
L 626.249171 93.705798 
z
" clip-path="url(#pfe81e674a1)" style="fill: #e05a2b; opacity: 0.85; stroke: #ffffff; stroke-width: 0.4; stroke-linejoin: miter"/>
   </g>
   <g id="patch_37">
    <path d="M 422.831513 282.051174 
L 441.324027 282.051174 
L 441.324027 169.534367 
L 422.831513 169.534367 
z
" clip-path="url(#pfe81e674a1)" style="fill: #3a7fc1; opacity: 0.85; stroke: #ffffff; stroke-width: 0.4; stroke-linejoin: miter"/>
   </g>
   <g id="patch_38">
    <path d="M 496.80157 282.051174 
L 515.294085 282.051174 
L 515.294085 204.497196 
L 496.80157 204.497196 
z
" clip-path="url(#pfe81e674a1)" style="fill: #3a7fc1; opacity: 0.85; stroke: #ffffff; stroke-width: 0.4; stroke-linejoin: miter"/>
   </g>
   <g id="patch_39">
    <path d="M 570.771628 282.051174 
L 589.264142 282.051174 
L 589.264142 131.374873 
L 570.771628 131.374873 
z
" clip-path="url(#pfe81e674a1)" style="fill: #3a7fc1; opacity: 0.85; stroke: #ffffff; stroke-width: 0.4; stroke-linejoin: miter"/>
   </g>
   <g id="patch_40">
    <path d="M 644.741686 282.051174 
L 663.2342 282.051174 
L 663.2342 234.96483 
L 644.741686 234.96483 
z
" clip-path="url(#pfe81e674a1)" style="fill: #3a7fc1; opacity: 0.85; stroke: #ffffff; stroke-width: 0.4; stroke-linejoin: miter"/>
   </g>
   <g id="patch_41">
    <path d="M 441.324027 282.051174 
L 459.816542 282.051174 
L 459.816542 248.492646 
L 441.324027 248.492646 
z
" clip-path="url(#pfe81e674a1)" style="fill: #5bad6f; opacity: 0.85; stroke: #ffffff; stroke-width: 0.4; stroke-linejoin: miter"/>
   </g>
   <g id="patch_42">
    <path d="M 515.294085 282.051174 
L 533.786599 282.051174 
L 533.786599 215.576336 
L 515.294085 215.576336 
z
" clip-path="url(#pfe81e674a1)" style="fill: #5bad6f; opacity: 0.85; stroke: #ffffff; stroke-width: 0.4; stroke-linejoin: miter"/>
   </g>
   <g id="patch_43">
    <path d="M 589.264142 282.051174 
L 607.756657 282.051174 
L 607.756657 56.036723 
L 589.264142 56.036723 
z
" clip-path="url(#pfe81e674a1)" style="fill: #5bad6f; opacity: 0.85; stroke: #ffffff; stroke-width: 0.4; stroke-linejoin: miter"/>
   </g>
   <g id="patch_44">
    <path d="M 663.2342 282.051174 
L 681.726714 282.051174 
L 681.726714 250.660278 
L 663.2342 250.660278 
z
" clip-path="url(#pfe81e674a1)" style="fill: #5bad6f; opacity: 0.85; stroke: #ffffff; stroke-width: 0.4; stroke-linejoin: miter"/>
   </g>
   <g id="matplotlib.axis_3">
    <g id="xtick_8">
     <g id="line2d_17">
      <g>
       <use xlink:href="#m033ef903b6" x="432.07777" y="282.051174" style="stroke: #000000; stroke-width: 0.8"/>
      </g>
     </g>
     <g id="text_21">
      <!-- η_B -->
      <g transform="translate(423.888473 295.639456) scale(0.09 -0.09)">
       <use xlink:href="#DejaVuSans-3b7"/>
       <use xlink:href="#DejaVuSans-5f" transform="translate(63.378906 0)"/>
       <use xlink:href="#DejaVuSans-42" transform="translate(113.378906 0)"/>
      </g>
     </g>
    </g>
    <g id="xtick_9">
     <g id="line2d_18">
      <g>
       <use xlink:href="#m033ef903b6" x="506.047828" y="282.051174" style="stroke: #000000; stroke-width: 0.8"/>
      </g>
     </g>
     <g id="text_22">
      <!-- Q̄ -->
      <g transform="translate(502.505484 295.889768) scale(0.09 -0.09)">
       <use xlink:href="#DejaVuSans-51"/>
       <use xlink:href="#DejaVuSans-304" transform="translate(78.710938 0)"/>
      </g>
     </g>
    </g>
    <g id="xtick_10">
     <g id="line2d_19">
      <g>
       <use xlink:href="#m033ef903b6" x="580.017885" y="282.051174" style="stroke: #000000; stroke-width: 0.8"/>
      </g>
     </g>
     <g id="text_23">
      <!-- D -->
      <g transform="translate(576.552885 295.889768) scale(0.09 -0.09)">
       <use xlink:href="#DejaVuSans-44"/>
      </g>
     </g>
    </g>
    <g id="xtick_11">
     <g id="line2d_20">
      <g>
       <use xlink:href="#m033ef903b6" x="653.987943" y="282.051174" style="stroke: #000000; stroke-width: 0.8"/>
      </g>
     </g>
     <g id="text_24">
      <!-- 1/σ_t -->
      <g transform="translate(642.742865 295.639456) scale(0.09 -0.09)">
       <use xlink:href="#DejaVuSans-31"/>
       <use xlink:href="#DejaVuSans-2f" transform="translate(63.623047 0)"/>
       <use xlink:href="#DejaVuSans-3c3" transform="translate(97.314453 0)"/>
       <use xlink:href="#DejaVuSans-5f" transform="translate(160.693359 0)"/>
       <use xlink:href="#DejaVuSans-74" transform="translate(210.693359 0)"/>
      </g>
     </g>
    </g>
   </g>
   <g id="matplotlib.axis_4">
    <g id="ytick_8">
     <g id="line2d_21">
      <g>
       <use xlink:href="#m342ae1e885" x="390.469613" y="282.051174" style="stroke: #000000; stroke-width: 0.8"/>
      </g>
     </g>
     <g id="text_25">
      <!-- 0.0 -->
      <g transform="translate(369.1568 285.470471) scale(0.09 -0.09)">
       <use xlink:href="#DejaVuSans-30"/>
       <use xlink:href="#DejaVuSans-2e" transform="translate(63.623047 0)"/>
       <use xlink:href="#DejaVuSans-30" transform="translate(95.410156 0)"/>
      </g>
     </g>
    </g>
    <g id="ytick_9">
     <g id="line2d_22">
      <g>
       <use xlink:href="#m342ae1e885" x="390.469613" y="244.382099" style="stroke: #000000; stroke-width: 0.8"/>
      </g>
     </g>
     <g id="text_26">
      <!-- 0.2 -->
      <g transform="translate(369.1568 247.801396) scale(0.09 -0.09)">
       <use xlink:href="#DejaVuSans-30"/>
       <use xlink:href="#DejaVuSans-2e" transform="translate(63.623047 0)"/>
       <use xlink:href="#DejaVuSans-32" transform="translate(95.410156 0)"/>
      </g>
     </g>
    </g>
    <g id="ytick_10">
     <g id="line2d_23">
      <g>
       <use xlink:href="#m342ae1e885" x="390.469613" y="206.713024" style="stroke: #000000; stroke-width: 0.8"/>
      </g>
     </g>
     <g id="text_27">
      <!-- 0.4 -->
      <g transform="translate(369.1568 210.132321) scale(0.09 -0.09)">
       <use xlink:href="#DejaVuSans-30"/>
       <use xlink:href="#DejaVuSans-2e" transform="translate(63.623047 0)"/>
       <use xlink:href="#DejaVuSans-34" transform="translate(95.410156 0)"/>
      </g>
     </g>
    </g>
    <g id="ytick_11">
     <g id="line2d_24">
      <g>
       <use xlink:href="#m342ae1e885" x="390.469613" y="169.043948" style="stroke: #000000; stroke-width: 0.8"/>
      </g>
     </g>
     <g id="text_28">
      <!-- 0.6 -->
      <g transform="translate(369.1568 172.463245) scale(0.09 -0.09)">
       <use xlink:href="#DejaVuSans-30"/>
       <use xlink:href="#DejaVuSans-2e" transform="translate(63.623047 0)"/>
       <use xlink:href="#DejaVuSans-36" transform="translate(95.410156 0)"/>
      </g>
     </g>
    </g>
    <g id="ytick_12">
     <g id="line2d_25">
      <g>
       <use xlink:href="#m342ae1e885" x="390.469613" y="131.374873" style="stroke: #000000; stroke-width: 0.8"/>
      </g>
     </g>
     <g id="text_29">
      <!-- 0.8 -->
      <g transform="translate(369.1568 134.79417) scale(0.09 -0.09)">
       <use xlink:href="#DejaVuSans-30"/>
       <use xlink:href="#DejaVuSans-2e" transform="translate(63.623047 0)"/>
       <use xlink:href="#DejaVuSans-38" transform="translate(95.410156 0)"/>
      </g>
     </g>
    </g>
    <g id="ytick_13">
     <g id="line2d_26">
      <g>
       <use xlink:href="#m342ae1e885" x="390.469613" y="93.705798" style="stroke: #000000; stroke-width: 0.8"/>
      </g>
     </g>
     <g id="text_30">
      <!-- 1.0 -->
      <g transform="translate(369.1568 97.125095) scale(0.09 -0.09)">
       <use xlink:href="#DejaVuSans-31"/>
       <use xlink:href="#DejaVuSans-2e" transform="translate(63.623047 0)"/>
       <use xlink:href="#DejaVuSans-30" transform="translate(95.410156 0)"/>
      </g>
     </g>
    </g>
    <g id="ytick_14">
     <g id="line2d_27">
      <g>
       <use xlink:href="#m342ae1e885" x="390.469613" y="56.036723" style="stroke: #000000; stroke-width: 0.8"/>
      </g>
     </g>
     <g id="text_31">
      <!-- 1.2 -->
      <g transform="translate(369.1568 59.456019) scale(0.09 -0.09)">
       <use xlink:href="#DejaVuSans-31"/>
       <use xlink:href="#DejaVuSans-2e" transform="translate(63.623047 0)"/>
       <use xlink:href="#DejaVuSans-32" transform="translate(95.410156 0)"/>
      </g>
     </g>
    </g>
    <g id="text_32">
     <!-- Normierter Komponentenwert (Katze = 1.0) -->
     <g transform="translate(363.285081 261.997728) rotate(-90) scale(0.09 -0.09)">
      <defs>
       <path id="DejaVuSans-77" d="M 269 3500 
L 844 3500 
L 1563 769 
L 2278 3500 
L 2956 3500 
L 3675 769 
L 4391 3500 
L 4966 3500 
L 4050 0 
L 3372 0 
L 2619 2869 
L 1863 0 
L 1184 0 
L 269 3500 
z
" transform="scale(0.015625)"/>
      </defs>
      <use xlink:href="#DejaVuSans-4e"/>
      <use xlink:href="#DejaVuSans-6f" transform="translate(74.804688 0)"/>
      <use xlink:href="#DejaVuSans-72" transform="translate(135.986328 0)"/>
      <use xlink:href="#DejaVuSans-6d" transform="translate(175.349609 0)"/>
      <use xlink:href="#DejaVuSans-69" transform="translate(272.761719 0)"/>
      <use xlink:href="#DejaVuSans-65" transform="translate(300.544922 0)"/>
      <use xlink:href="#DejaVuSans-72" transform="translate(362.068359 0)"/>
      <use xlink:href="#DejaVuSans-74" transform="translate(403.181641 0)"/>
      <use xlink:href="#DejaVuSans-65" transform="translate(442.390625 0)"/>
      <use xlink:href="#DejaVuSans-72" transform="translate(503.914062 0)"/>
      <use xlink:href="#DejaVuSans-20" transform="translate(545.027344 0)"/>
      <use xlink:href="#DejaVuSans-4b" transform="translate(576.814453 0)"/>
      <use xlink:href="#DejaVuSans-6f" transform="translate(637.390625 0)"/>
      <use xlink:href="#DejaVuSans-6d" transform="translate(698.572266 0)"/>
      <use xlink:href="#DejaVuSans-70" transform="translate(795.984375 0)"/>
      <use xlink:href="#DejaVuSans-6f" transform="translate(859.460938 0)"/>
      <use xlink:href="#DejaVuSans-6e" transform="translate(920.642578 0)"/>
      <use xlink:href="#DejaVuSans-65" transform="translate(984.021484 0)"/>
      <use xlink:href="#DejaVuSans-6e" transform="translate(1045.544922 0)"/>
      <use xlink:href="#DejaVuSans-74" transform="translate(1108.923828 0)"/>
      <use xlink:href="#DejaVuSans-65" transform="translate(1148.132812 0)"/>
      <use xlink:href="#DejaVuSans-6e" transform="translate(1209.65625 0)"/>
      <use xlink:href="#DejaVuSans-77" transform="translate(1273.035156 0)"/>
      <use xlink:href="#DejaVuSans-65" transform="translate(1354.822266 0)"/>
      <use xlink:href="#DejaVuSans-72" transform="translate(1416.345703 0)"/>
      <use xlink:href="#DejaVuSans-74" transform="translate(1457.458984 0)"/>
      <use xlink:href="#DejaVuSans-20" transform="translate(1496.667969 0)"/>
      <use xlink:href="#DejaVuSans-28" transform="translate(1528.455078 0)"/>
      <use xlink:href="#DejaVuSans-4b" transform="translate(1567.46875 0)"/>
      <use xlink:href="#DejaVuSans-61" transform="translate(1631.294922 0)"/>
      <use xlink:href="#DejaVuSans-74" transform="translate(1692.574219 0)"/>
      <use xlink:href="#DejaVuSans-7a" transform="translate(1731.783203 0)"/>
      <use xlink:href="#DejaVuSans-65" transform="translate(1784.273438 0)"/>
      <use xlink:href="#DejaVuSans-20" transform="translate(1845.796875 0)"/>
      <use xlink:href="#DejaVuSans-3d" transform="translate(1877.583984 0)"/>
      <use xlink:href="#DejaVuSans-20" transform="translate(1961.373047 0)"/>
      <use xlink:href="#DejaVuSans-31" transform="translate(1993.160156 0)"/>
      <use xlink:href="#DejaVuSans-2e" transform="translate(2056.783203 0)"/>
      <use xlink:href="#DejaVuSans-30" transform="translate(2088.570312 0)"/>
      <use xlink:href="#DejaVuSans-29" transform="translate(2152.193359 0)"/>
     </g>
    </g>
   </g>
   <g id="line2d_28">
    <path d="M 390.469613 93.705798 
L 695.5961 93.705798 
" clip-path="url(#pfe81e674a1)" style="fill: none; stroke-dasharray: 2.59,1.12; stroke-dashoffset: 0; stroke: #888888; stroke-width: 0.7"/>
   </g>
   <g id="patch_45">
    <path d="M 390.469613 282.051174 
L 390.469613 44.736 
" style="fill: none; stroke: #000000; stroke-width: 0.8; stroke-linejoin: miter; stroke-linecap: square"/>
   </g>
   <g id="patch_46">
    <path d="M 695.5961 282.051174 
L 695.5961 44.736 
" style="fill: none; stroke: #000000; stroke-width: 0.8; stroke-linejoin: miter; stroke-linecap: square"/>
   </g>
   <g id="patch_47">
    <path d="M 390.469613 282.051174 
L 695.5961 282.051174 
" style="fill: none; stroke: #000000; stroke-width: 0.8; stroke-linejoin: miter; stroke-linecap: square"/>
   </g>
   <g id="patch_48">
    <path d="M 390.469613 44.736 
L 695.5961 44.736 
" style="fill: none; stroke: #000000; stroke-width: 0.8; stroke-linejoin: miter; stroke-linecap: square"/>
   </g>
   <g id="text_33">
    <!-- Ω=1.000 -->
    <g style="fill: #e05a2b" transform="translate(656.852957 278.051174) scale(0.07 -0.07)">
     <use xlink:href="#DejaVuSans-3a9"/>
     <use xlink:href="#DejaVuSans-3d" transform="translate(76.416016 0)"/>
     <use xlink:href="#DejaVuSans-31" transform="translate(160.205078 0)"/>
     <use xlink:href="#DejaVuSans-2e" transform="translate(223.828125 0)"/>
     <use xlink:href="#DejaVuSans-30" transform="translate(255.615234 0)"/>
     <use xlink:href="#DejaVuSans-30" transform="translate(319.238281 0)"/>
     <use xlink:href="#DejaVuSans-30" transform="translate(382.861328 0)"/>
    </g>
   </g>
   <g id="text_34">
    <!-- Ω=0.049 -->
    <g style="fill: #3a7fc1" transform="translate(675.345472 278.051174) scale(0.07 -0.07)">
     <defs>
      <path id="DejaVuSans-39" d="M 703 97 
L 703 672 
Q 941 559 1184 500 
Q 1428 441 1663 441 
Q 2288 441 2617 861 
Q 2947 1281 2994 2138 
Q 2813 1869 2534 1725 
Q 2256 1581 1919 1581 
Q 1219 1581 811 2004 
Q 403 2428 403 3163 
Q 403 3881 828 4315 
Q 1253 4750 1959 4750 
Q 2769 4750 3195 4129 
Q 3622 3509 3622 2328 
Q 3622 1225 3098 567 
Q 2575 -91 1691 -91 
Q 1453 -91 1209 -44 
Q 966 3 703 97 
z
M 1959 2075 
Q 2384 2075 2632 2365 
Q 2881 2656 2881 3163 
Q 2881 3666 2632 3958 
Q 2384 4250 1959 4250 
Q 1534 4250 1286 3958 
Q 1038 3666 1038 3163 
Q 1038 2656 1286 2365 
Q 1534 2075 1959 2075 
z
" transform="scale(0.015625)"/>
     </defs>
     <use xlink:href="#DejaVuSans-3a9"/>
     <use xlink:href="#DejaVuSans-3d" transform="translate(76.416016 0)"/>
     <use xlink:href="#DejaVuSans-30" transform="translate(160.205078 0)"/>
     <use xlink:href="#DejaVuSans-2e" transform="translate(223.828125 0)"/>
     <use xlink:href="#DejaVuSans-30" transform="translate(255.615234 0)"/>
     <use xlink:href="#DejaVuSans-34" transform="translate(319.238281 0)"/>
     <use xlink:href="#DejaVuSans-39" transform="translate(382.861328 0)"/>
    </g>
   </g>
   <g id="text_35">
    <!-- Ω-Komponenten: η_B · Q̄ · D · (1/σ_t) -->
    <g transform="translate(451.739888 38.736) scale(0.1 -0.1)">
     <defs>
      <path id="DejaVuSans-2d" d="M 313 2009 
L 1997 2009 
L 1997 1497 
L 313 1497 
L 313 2009 
z
" transform="scale(0.015625)"/>
      <path id="DejaVuSans-b7" d="M 684 2619 
L 1344 2619 
L 1344 1825 
L 684 1825 
L 684 2619 
z
" transform="scale(0.015625)"/>
     </defs>
     <use xlink:href="#DejaVuSans-3a9"/>
     <use xlink:href="#DejaVuSans-2d" transform="translate(76.416016 0)"/>
     <use xlink:href="#DejaVuSans-4b" transform="translate(112.5 0)"/>
     <use xlink:href="#DejaVuSans-6f" transform="translate(173.076172 0)"/>
     <use xlink:href="#DejaVuSans-6d" transform="translate(234.257812 0)"/>
     <use xlink:href="#DejaVuSans-70" transform="translate(331.669922 0)"/>
     <use xlink:href="#DejaVuSans-6f" transform="translate(395.146484 0)"/>
     <use xlink:href="#DejaVuSans-6e" transform="translate(456.328125 0)"/>
     <use xlink:href="#DejaVuSans-65" transform="translate(519.707031 0)"/>
     <use xlink:href="#DejaVuSans-6e" transform="translate(581.230469 0)"/>
     <use xlink:href="#DejaVuSans-74" transform="translate(644.609375 0)"/>
     <use xlink:href="#DejaVuSans-65" transform="translate(683.818359 0)"/>
     <use xlink:href="#DejaVuSans-6e" transform="translate(745.341797 0)"/>
     <use xlink:href="#DejaVuSans-3a" transform="translate(808.720703 0)"/>
     <use xlink:href="#DejaVuSans-20" transform="translate(842.412109 0)"/>
     <use xlink:href="#DejaVuSans-3b7" transform="translate(874.199219 0)"/>
     <use xlink:href="#DejaVuSans-5f" transform="translate(937.578125 0)"/>
     <use xlink:href="#DejaVuSans-42" transform="translate(987.578125 0)"/>
     <use xlink:href="#DejaVuSans-20" transform="translate(1056.181641 0)"/>
     <use xlink:href="#DejaVuSans-b7" transform="translate(1087.96875 0)"/>
     <use xlink:href="#DejaVuSans-20" transform="translate(1119.755859 0)"/>
     <use xlink:href="#DejaVuSans-51" transform="translate(1151.542969 0)"/>
     <use xlink:href="#DejaVuSans-304" transform="translate(1230.253906 0)"/>
     <use xlink:href="#DejaVuSans-20" transform="translate(1230.253906 0)"/>
     <use xlink:href="#DejaVuSans-b7" transform="translate(1262.041016 0)"/>
     <use xlink:href="#DejaVuSans-20" transform="translate(1293.828125 0)"/>
     <use xlink:href="#DejaVuSans-44" transform="translate(1325.615234 0)"/>
     <use xlink:href="#DejaVuSans-20" transform="translate(1402.617188 0)"/>
     <use xlink:href="#DejaVuSans-b7" transform="translate(1434.404297 0)"/>
     <use xlink:href="#DejaVuSans-20" transform="translate(1466.191406 0)"/>
     <use xlink:href="#DejaVuSans-28" transform="translate(1497.978516 0)"/>
     <use xlink:href="#DejaVuSans-31" transform="translate(1536.992188 0)"/>
     <use xlink:href="#DejaVuSans-2f" transform="translate(1600.615234 0)"/>
     <use xlink:href="#DejaVuSans-3c3" transform="translate(1634.306641 0)"/>
     <use xlink:href="#DejaVuSans-5f" transform="translate(1697.685547 0)"/>
     <use xlink:href="#DejaVuSans-74" transform="translate(1747.685547 0)"/>
     <use xlink:href="#DejaVuSans-29" transform="translate(1786.894531 0)"/>
    </g>
   </g>
   <g id="legend_2">
    <g id="patch_49">
     <path d="M 577.2211 98.106 
L 689.9961 98.106 
Q 691.5961 98.106 691.5961 96.506 
L 691.5961 50.336 
Q 691.5961 48.736 689.9961 48.736 
L 577.2211 48.736 
Q 575.6211 48.736 575.6211 50.336 
L 575.6211 96.506 
Q 575.6211 98.106 577.2211 98.106 
z
" style="fill: #ffffff; opacity: 0.8; stroke: #cccccc; stroke-linejoin: miter"/>
    </g>
    <g id="line2d_29">
     <path d="M 578.8211 55.21475 
L 586.8211 55.21475 
L 594.8211 55.21475 
" style="fill: none; stroke-dasharray: 2.59,1.12; stroke-dashoffset: 0; stroke: #888888; stroke-width: 0.7"/>
    </g>
    <g id="text_36">
     <!-- Referenz: Katze = 1.0 -->
     <g transform="translate(601.2211 58.01475) scale(0.08 -0.08)">
      <use xlink:href="#DejaVuSans-52"/>
      <use xlink:href="#DejaVuSans-65" transform="translate(64.982422 0)"/>
      <use xlink:href="#DejaVuSans-66" transform="translate(126.505859 0)"/>
      <use xlink:href="#DejaVuSans-65" transform="translate(161.710938 0)"/>
      <use xlink:href="#DejaVuSans-72" transform="translate(223.234375 0)"/>
      <use xlink:href="#DejaVuSans-65" transform="translate(262.097656 0)"/>
      <use xlink:href="#DejaVuSans-6e" transform="translate(323.621094 0)"/>
      <use xlink:href="#DejaVuSans-7a" transform="translate(387 0)"/>
      <use xlink:href="#DejaVuSans-3a" transform="translate(439.490234 0)"/>
      <use xlink:href="#DejaVuSans-20" transform="translate(473.181641 0)"/>
      <use xlink:href="#DejaVuSans-4b" transform="translate(504.96875 0)"/>
      <use xlink:href="#DejaVuSans-61" transform="translate(568.794922 0)"/>
      <use xlink:href="#DejaVuSans-74" transform="translate(630.074219 0)"/>
      <use xlink:href="#DejaVuSans-7a" transform="translate(669.283203 0)"/>
      <use xlink:href="#DejaVuSans-65" transform="translate(721.773438 0)"/>
      <use xlink:href="#DejaVuSans-20" transform="translate(783.296875 0)"/>
      <use xlink:href="#DejaVuSans-3d" transform="translate(815.083984 0)"/>
      <use xlink:href="#DejaVuSans-20" transform="translate(898.873047 0)"/>
      <use xlink:href="#DejaVuSans-31" transform="translate(930.660156 0)"/>
      <use xlink:href="#DejaVuSans-2e" transform="translate(994.283203 0)"/>
      <use xlink:href="#DejaVuSans-30" transform="translate(1026.070312 0)"/>
     </g>
    </g>
    <g id="patch_50">
     <path d="M 578.8211 69.75725 
L 594.8211 69.75725 
L 594.8211 64.15725 
L 578.8211 64.15725 
z
" style="fill: #e05a2b; opacity: 0.85; stroke: #ffffff; stroke-width: 0.4; stroke-linejoin: miter"/>
    </g>
    <g id="text_37">
     <!-- Cat -->
     <g transform="translate(601.2211 69.75725) scale(0.08 -0.08)">
      <use xlink:href="#DejaVuSans-43"/>
      <use xlink:href="#DejaVuSans-61" transform="translate(69.824219 0)"/>
      <use xlink:href="#DejaVuSans-74" transform="translate(131.103516 0)"/>
     </g>
    </g>
    <g id="patch_51">
     <path d="M 578.8211 81.49975 
L 594.8211 81.49975 
L 594.8211 75.89975 
L 578.8211 75.89975 
z
" style="fill: #3a7fc1; opacity: 0.85; stroke: #ffffff; stroke-width: 0.4; stroke-linejoin: miter"/>
    </g>
    <g id="text_38">
     <!-- Dog -->
     <g transform="translate(601.2211 81.49975) scale(0.08 -0.08)">
      <use xlink:href="#DejaVuSans-44"/>
      <use xlink:href="#DejaVuSans-6f" transform="translate(77.001953 0)"/>
      <use xlink:href="#DejaVuSans-67" transform="translate(138.183594 0)"/>
     </g>
    </g>
    <g id="patch_52">
     <path d="M 578.8211 93.24225 
L 594.8211 93.24225 
L 594.8211 87.64225 
L 578.8211 87.64225 
z
" style="fill: #5bad6f; opacity: 0.85; stroke: #ffffff; stroke-width: 0.4; stroke-linejoin: miter"/>
    </g>
    <g id="text_39">
     <!-- Human -->
     <g transform="translate(601.2211 93.24225) scale(0.08 -0.08)">
      <use xlink:href="#DejaVuSans-48"/>
      <use xlink:href="#DejaVuSans-75" transform="translate(75.195312 0)"/>
      <use xlink:href="#DejaVuSans-6d" transform="translate(138.574219 0)"/>
      <use xlink:href="#DejaVuSans-61" transform="translate(235.986328 0)"/>
      <use xlink:href="#DejaVuSans-6e" transform="translate(297.265625 0)"/>
     </g>
    </g>
   </g>
  </g>
  <g id="text_40">
   <!-- Experiment 10 – Optimalität der Katzenmembran: Mehrkriterien-Analyse -->
   <g transform="translate(135.601031 15.558187) scale(0.108 -0.108)">
    <defs>
     <path id="DejaVuSans-Bold-45" d="M 588 4666 
L 3834 4666 
L 3834 3756 
L 1791 3756 
L 1791 2888 
L 3713 2888 
L 3713 1978 
L 1791 1978 
L 1791 909 
L 3903 909 
L 3903 0 
L 588 0 
L 588 4666 
z
" transform="scale(0.015625)"/>
     <path id="DejaVuSans-Bold-78" d="M 1422 1791 
L 159 3500 
L 1344 3500 
L 2059 2463 
L 2784 3500 
L 3969 3500 
L 2706 1797 
L 4031 0 
L 2847 0 
L 2059 1106 
L 1281 0 
L 97 0 
L 1422 1791 
z
" transform="scale(0.015625)"/>
     <path id="DejaVuSans-Bold-70" d="M 1656 506 
L 1656 -1331 
L 538 -1331 
L 538 3500 
L 1656 3500 
L 1656 2988 
Q 1888 3294 2169 3439 
Q 2450 3584 2816 3584 
Q 3463 3584 3878 3070 
Q 4294 2556 4294 1747 
Q 4294 938 3878 423 
Q 3463 -91 2816 -91 
Q 2450 -91 2169 54 
Q 1888 200 1656 506 
z
M 2400 2772 
Q 2041 2772 1848 2508 
Q 1656 2244 1656 1747 
Q 1656 1250 1848 986 
Q 2041 722 2400 722 
Q 2759 722 2948 984 
Q 3138 1247 3138 1747 
Q 3138 2247 2948 2509 
Q 2759 2772 2400 2772 
z
" transform="scale(0.015625)"/>
     <path id="DejaVuSans-Bold-65" d="M 4031 1759 
L 4031 1441 
L 1416 1441 
Q 1456 1047 1700 850 
Q 1944 653 2381 653 
Q 2734 653 3104 758 
Q 3475 863 3866 1075 
L 3866 213 
Q 3469 63 3072 -14 
Q 2675 -91 2278 -91 
Q 1328 -91 801 392 
Q 275 875 275 1747 
Q 275 2603 792 3093 
Q 1309 3584 2216 3584 
Q 3041 3584 3536 3087 
Q 4031 2591 4031 1759 
z
M 2881 2131 
Q 2881 2450 2695 2645 
Q 2509 2841 2209 2841 
Q 1884 2841 1681 2658 
Q 1478 2475 1428 2131 
L 2881 2131 
z
" transform="scale(0.015625)"/>
     <path id="DejaVuSans-Bold-72" d="M 3138 2547 
Q 2991 2616 2845 2648 
Q 2700 2681 2553 2681 
Q 2122 2681 1889 2404 
Q 1656 2128 1656 1613 
L 1656 0 
L 538 0 
L 538 3500 
L 1656 3500 
L 1656 2925 
Q 1872 3269 2151 3426 
Q 2431 3584 2822 3584 
Q 2878 3584 2943 3579 
Q 3009 3575 3134 3559 
L 3138 2547 
z
" transform="scale(0.015625)"/>
     <path id="DejaVuSans-Bold-69" d="M 538 3500 
L 1656 3500 
L 1656 0 
L 538 0 
L 538 3500 
z
M 538 4863 
L 1656 4863 
L 1656 3950 
L 538 3950 
L 538 4863 
z
" transform="scale(0.015625)"/>
     <path id="DejaVuSans-Bold-6d" d="M 3781 2919 
Q 3994 3244 4286 3414 
Q 4578 3584 4928 3584 
Q 5531 3584 5847 3212 
Q 6163 2841 6163 2131 
L 6163 0 
L 5038 0 
L 5038 1825 
Q 5041 1866 5042 1909 
Q 5044 1953 5044 2034 
Q 5044 2406 4934 2573 
Q 4825 2741 4581 2741 
Q 4263 2741 4089 2478 
Q 3916 2216 3909 1719 
L 3909 0 
L 2784 0 
L 2784 1825 
Q 2784 2406 2684 2573 
Q 2584 2741 2328 2741 
Q 2006 2741 1831 2477 
Q 1656 2213 1656 1722 
L 1656 0 
L 531 0 
L 531 3500 
L 1656 3500 
L 1656 2988 
Q 1863 3284 2130 3434 
Q 2397 3584 2719 3584 
Q 3081 3584 3359 3409 
Q 3638 3234 3781 2919 
z
" transform="scale(0.015625)"/>
     <path id="DejaVuSans-Bold-6e" d="M 4056 2131 
L 4056 0 
L 2931 0 
L 2931 347 
L 2931 1631 
Q 2931 2084 2911 2256 
Q 2891 2428 2841 2509 
Q 2775 2619 2662 2680 
Q 2550 2741 2406 2741 
Q 2056 2741 1856 2470 
Q 1656 2200 1656 1722 
L 1656 0 
L 538 0 
L 538 3500 
L 1656 3500 
L 1656 2988 
Q 1909 3294 2193 3439 
Q 2478 3584 2822 3584 
Q 3428 3584 3742 3212 
Q 4056 2841 4056 2131 
z
" transform="scale(0.015625)"/>
     <path id="DejaVuSans-Bold-74" d="M 1759 4494 
L 1759 3500 
L 2913 3500 
L 2913 2700 
L 1759 2700 
L 1759 1216 
Q 1759 972 1856 886 
Q 1953 800 2241 800 
L 2816 800 
L 2816 0 
L 1856 0 
Q 1194 0 917 276 
Q 641 553 641 1216 
L 641 2700 
L 84 2700 
L 84 3500 
L 641 3500 
L 641 4494 
L 1759 4494 
z
" transform="scale(0.015625)"/>
     <path id="DejaVuSans-Bold-20" transform="scale(0.015625)"/>
     <path id="DejaVuSans-Bold-31" d="M 750 831 
L 1813 831 
L 1813 3847 
L 722 3622 
L 722 4441 
L 1806 4666 
L 2950 4666 
L 2950 831 
L 4013 831 
L 4013 0 
L 750 0 
L 750 831 
z
" transform="scale(0.015625)"/>
     <path id="DejaVuSans-Bold-30" d="M 2944 2338 
Q 2944 3213 2780 3570 
Q 2616 3928 2228 3928 
Q 1841 3928 1675 3570 
Q 1509 3213 1509 2338 
Q 1509 1453 1675 1090 
Q 1841 728 2228 728 
Q 2613 728 2778 1090 
Q 2944 1453 2944 2338 
z
M 4147 2328 
Q 4147 1169 3647 539 
Q 3147 -91 2228 -91 
Q 1306 -91 806 539 
Q 306 1169 306 2328 
Q 306 3491 806 4120 
Q 1306 4750 2228 4750 
Q 3147 4750 3647 4120 
Q 4147 3491 4147 2328 
z
" transform="scale(0.015625)"/>
     <path id="DejaVuSans-Bold-2013" d="M 344 2156 
L 2856 2156 
L 2856 1350 
L 344 1350 
L 344 2156 
z
" transform="scale(0.015625)"/>
     <path id="DejaVuSans-Bold-4f" d="M 2719 3878 
Q 2169 3878 1866 3472 
Q 1563 3066 1563 2328 
Q 1563 1594 1866 1187 
Q 2169 781 2719 781 
Q 3272 781 3575 1187 
Q 3878 1594 3878 2328 
Q 3878 3066 3575 3472 
Q 3272 3878 2719 3878 
z
M 2719 4750 
Q 3844 4750 4481 4106 
Q 5119 3463 5119 2328 
Q 5119 1197 4481 553 
Q 3844 -91 2719 -91 
Q 1597 -91 958 553 
Q 319 1197 319 2328 
Q 319 3463 958 4106 
Q 1597 4750 2719 4750 
z
" transform="scale(0.015625)"/>
     <path id="DejaVuSans-Bold-61" d="M 2106 1575 
Q 1756 1575 1579 1456 
Q 1403 1338 1403 1106 
Q 1403 894 1545 773 
Q 1688 653 1941 653 
Q 2256 653 2472 879 
Q 2688 1106 2688 1447 
L 2688 1575 
L 2106 1575 
z
M 3816 1997 
L 3816 0 
L 2688 0 
L 2688 519 
Q 2463 200 2181 54 
Q 1900 -91 1497 -91 
Q 953 -91 614 226 
Q 275 544 275 1050 
Q 275 1666 698 1953 
Q 1122 2241 2028 2241 
L 2688 2241 
L 2688 2328 
Q 2688 2594 2478 2717 
Q 2269 2841 1825 2841 
Q 1466 2841 1156 2769 
Q 847 2697 581 2553 
L 581 3406 
Q 941 3494 1303 3539 
Q 1666 3584 2028 3584 
Q 2975 3584 3395 3211 
Q 3816 2838 3816 1997 
z
" transform="scale(0.015625)"/>
     <path id="DejaVuSans-Bold-6c" d="M 538 4863 
L 1656 4863 
L 1656 0 
L 538 0 
L 538 4863 
z
" transform="scale(0.015625)"/>
     <path id="DejaVuSans-Bold-e4" d="M 2106 1575 
Q 1756 1575 1579 1456 
Q 1403 1338 1403 1106 
Q 1403 894 1545 773 
Q 1688 653 1941 653 
Q 2256 653 2472 879 
Q 2688 1106 2688 1447 
L 2688 1575 
L 2106 1575 
z
M 3816 1997 
L 3816 0 
L 2688 0 
L 2688 519 
Q 2463 200 2181 54 
Q 1900 -91 1497 -91 
Q 953 -91 614 226 
Q 275 544 275 1050 
Q 275 1666 698 1953 
Q 1122 2241 2028 2241 
L 2688 2241 
L 2688 2328 
Q 2688 2594 2478 2717 
Q 2269 2841 1825 2841 
Q 1466 2841 1156 2769 
Q 847 2697 581 2553 
L 581 3406 
Q 941 3494 1303 3539 
Q 1666 3584 2028 3584 
Q 2975 3584 3395 3211 
Q 3816 2838 3816 1997 
z
M 1200 4953 
L 1934 4953 
L 1934 4184 
L 1200 4184 
L 1200 4953 
z
M 2434 4953 
L 3168 4953 
L 3168 4184 
L 2434 4184 
L 2434 4953 
z
" transform="scale(0.015625)"/>
     <path id="DejaVuSans-Bold-64" d="M 2919 2988 
L 2919 4863 
L 4044 4863 
L 4044 0 
L 2919 0 
L 2919 506 
Q 2688 197 2409 53 
Q 2131 -91 1766 -91 
Q 1119 -91 703 423 
Q 288 938 288 1747 
Q 288 2556 703 3070 
Q 1119 3584 1766 3584 
Q 2128 3584 2408 3439 
Q 2688 3294 2919 2988 
z
M 2181 722 
Q 2541 722 2730 984 
Q 2919 1247 2919 1747 
Q 2919 2247 2730 2509 
Q 2541 2772 2181 2772 
Q 1825 2772 1636 2509 
Q 1447 2247 1447 1747 
Q 1447 1247 1636 984 
Q 1825 722 2181 722 
z
" transform="scale(0.015625)"/>
     <path id="DejaVuSans-Bold-4b" d="M 588 4666 
L 1791 4666 
L 1791 2963 
L 3525 4666 
L 4922 4666 
L 2675 2456 
L 5153 0 
L 3647 0 
L 1791 1838 
L 1791 0 
L 588 0 
L 588 4666 
z
" transform="scale(0.015625)"/>
     <path id="DejaVuSans-Bold-7a" d="M 366 3500 
L 3419 3500 
L 3419 2719 
L 1575 800 
L 3419 800 
L 3419 0 
L 288 0 
L 288 781 
L 2131 2700 
L 366 2700 
L 366 3500 
z
" transform="scale(0.015625)"/>
     <path id="DejaVuSans-Bold-62" d="M 2400 722 
Q 2759 722 2948 984 
Q 3138 1247 3138 1747 
Q 3138 2247 2948 2509 
Q 2759 2772 2400 2772 
Q 2041 2772 1848 2508 
Q 1656 2244 1656 1747 
Q 1656 1250 1848 986 
Q 2041 722 2400 722 
z
M 1656 2988 
Q 1888 3294 2169 3439 
Q 2450 3584 2816 3584 
Q 3463 3584 3878 3070 
Q 4294 2556 4294 1747 
Q 4294 938 3878 423 
Q 3463 -91 2816 -91 
Q 2450 -91 2169 54 
Q 1888 200 1656 506 
L 1656 0 
L 538 0 
L 538 4863 
L 1656 4863 
L 1656 2988 
z
" transform="scale(0.015625)"/>
     <path id="DejaVuSans-Bold-3a" d="M 716 3500 
L 1844 3500 
L 1844 2291 
L 716 2291 
L 716 3500 
z
M 716 1209 
L 1844 1209 
L 1844 0 
L 716 0 
L 716 1209 
z
" transform="scale(0.015625)"/>
     <path id="DejaVuSans-Bold-4d" d="M 588 4666 
L 2119 4666 
L 3181 2169 
L 4250 4666 
L 5778 4666 
L 5778 0 
L 4641 0 
L 4641 3413 
L 3566 897 
L 2803 897 
L 1728 3413 
L 1728 0 
L 588 0 
L 588 4666 
z
" transform="scale(0.015625)"/>
     <path id="DejaVuSans-Bold-68" d="M 4056 2131 
L 4056 0 
L 2931 0 
L 2931 347 
L 2931 1625 
Q 2931 2084 2911 2256 
Q 2891 2428 2841 2509 
Q 2775 2619 2662 2680 
Q 2550 2741 2406 2741 
Q 2056 2741 1856 2470 
Q 1656 2200 1656 1722 
L 1656 0 
L 538 0 
L 538 4863 
L 1656 4863 
L 1656 2988 
Q 1909 3294 2193 3439 
Q 2478 3584 2822 3584 
Q 3428 3584 3742 3212 
Q 4056 2841 4056 2131 
z
" transform="scale(0.015625)"/>
     <path id="DejaVuSans-Bold-6b" d="M 538 4863 
L 1656 4863 
L 1656 2216 
L 2944 3500 
L 4244 3500 
L 2534 1894 
L 4378 0 
L 3022 0 
L 1656 1459 
L 1656 0 
L 538 0 
L 538 4863 
z
" transform="scale(0.015625)"/>
     <path id="DejaVuSans-Bold-2d" d="M 347 2297 
L 2309 2297 
L 2309 1388 
L 347 1388 
L 347 2297 
z
" transform="scale(0.015625)"/>
     <path id="DejaVuSans-Bold-41" d="M 3419 850 
L 1538 850 
L 1241 0 
L 31 0 
L 1759 4666 
L 3194 4666 
L 4922 0 
L 3713 0 
L 3419 850 
z
M 1838 1716 
L 3116 1716 
L 2478 3572 
L 1838 1716 
z
" transform="scale(0.015625)"/>
     <path id="DejaVuSans-Bold-79" d="M 78 3500 
L 1197 3500 
L 2138 1125 
L 2938 3500 
L 4056 3500 
L 2584 -331 
Q 2363 -916 2067 -1148 
Q 1772 -1381 1288 -1381 
L 641 -1381 
L 641 -647 
L 991 -647 
Q 1275 -647 1404 -556 
Q 1534 -466 1606 -231 
L 1638 -134 
L 78 3500 
z
" transform="scale(0.015625)"/>
     <path id="DejaVuSans-Bold-73" d="M 3272 3391 
L 3272 2541 
Q 2913 2691 2578 2766 
Q 2244 2841 1947 2841 
Q 1628 2841 1473 2761 
Q 1319 2681 1319 2516 
Q 1319 2381 1436 2309 
Q 1553 2238 1856 2203 
L 2053 2175 
Q 2913 2066 3209 1816 
Q 3506 1566 3506 1031 
Q 3506 472 3093 190 
Q 2681 -91 1863 -91 
Q 1516 -91 1145 -36 
Q 775 19 384 128 
L 384 978 
Q 719 816 1070 734 
Q 1422 653 1784 653 
Q 2113 653 2278 743 
Q 2444 834 2444 1013 
Q 2444 1163 2330 1236 
Q 2216 1309 1875 1350 
L 1678 1375 
Q 931 1469 631 1722 
Q 331 1975 331 2491 
Q 331 3047 712 3315 
Q 1094 3584 1881 3584 
Q 2191 3584 2531 3537 
Q 2872 3491 3272 3391 
z
" transform="scale(0.015625)"/>
    </defs>
    <use xlink:href="#DejaVuSans-Bold-45"/>
    <use xlink:href="#DejaVuSans-Bold-78" transform="translate(68.310547 0)"/>
    <use xlink:href="#DejaVuSans-Bold-70" transform="translate(132.8125 0)"/>
    <use xlink:href="#DejaVuSans-Bold-65" transform="translate(204.394531 0)"/>
    <use xlink:href="#DejaVuSans-Bold-72" transform="translate(272.216797 0)"/>
    <use xlink:href="#DejaVuSans-Bold-69" transform="translate(321.533203 0)"/>
    <use xlink:href="#DejaVuSans-Bold-6d" transform="translate(355.810547 0)"/>
    <use xlink:href="#DejaVuSans-Bold-65" transform="translate(460.009766 0)"/>
    <use xlink:href="#DejaVuSans-Bold-6e" transform="translate(527.832031 0)"/>
    <use xlink:href="#DejaVuSans-Bold-74" transform="translate(599.023438 0)"/>
    <use xlink:href="#DejaVuSans-Bold-20" transform="translate(646.826172 0)"/>
    <use xlink:href="#DejaVuSans-Bold-31" transform="translate(681.640625 0)"/>
    <use xlink:href="#DejaVuSans-Bold-30" transform="translate(751.220703 0)"/>
    <use xlink:href="#DejaVuSans-Bold-20" transform="translate(820.800781 0)"/>
    <use xlink:href="#DejaVuSans-Bold-2013" transform="translate(855.615234 0)"/>
    <use xlink:href="#DejaVuSans-Bold-20" transform="translate(905.615234 0)"/>
    <use xlink:href="#DejaVuSans-Bold-4f" transform="translate(940.429688 0)"/>
    <use xlink:href="#DejaVuSans-Bold-70" transform="translate(1025.439453 0)"/>
    <use xlink:href="#DejaVuSans-Bold-74" transform="translate(1097.021484 0)"/>
    <use xlink:href="#DejaVuSans-Bold-69" transform="translate(1144.824219 0)"/>
    <use xlink:href="#DejaVuSans-Bold-6d" transform="translate(1179.101562 0)"/>
    <use xlink:href="#DejaVuSans-Bold-61" transform="translate(1283.300781 0)"/>
    <use xlink:href="#DejaVuSans-Bold-6c" transform="translate(1350.78125 0)"/>
    <use xlink:href="#DejaVuSans-Bold-69" transform="translate(1385.058594 0)"/>
    <use xlink:href="#DejaVuSans-Bold-74" transform="translate(1419.335938 0)"/>
    <use xlink:href="#DejaVuSans-Bold-e4" transform="translate(1467.138672 0)"/>
    <use xlink:href="#DejaVuSans-Bold-74" transform="translate(1534.619141 0)"/>
    <use xlink:href="#DejaVuSans-Bold-20" transform="translate(1582.421875 0)"/>
    <use xlink:href="#DejaVuSans-Bold-64" transform="translate(1617.236328 0)"/>
    <use xlink:href="#DejaVuSans-Bold-65" transform="translate(1688.818359 0)"/>
    <use xlink:href="#DejaVuSans-Bold-72" transform="translate(1756.640625 0)"/>
    <use xlink:href="#DejaVuSans-Bold-20" transform="translate(1805.957031 0)"/>
    <use xlink:href="#DejaVuSans-Bold-4b" transform="translate(1840.771484 0)"/>
    <use xlink:href="#DejaVuSans-Bold-61" transform="translate(1918.261719 0)"/>
    <use xlink:href="#DejaVuSans-Bold-74" transform="translate(1985.742188 0)"/>
    <use xlink:href="#DejaVuSans-Bold-7a" transform="translate(2033.544922 0)"/>
    <use xlink:href="#DejaVuSans-Bold-65" transform="translate(2091.748047 0)"/>
    <use xlink:href="#DejaVuSans-Bold-6e" transform="translate(2159.570312 0)"/>
    <use xlink:href="#DejaVuSans-Bold-6d" transform="translate(2230.761719 0)"/>
    <use xlink:href="#DejaVuSans-Bold-65" transform="translate(2334.960938 0)"/>
    <use xlink:href="#DejaVuSans-Bold-6d" transform="translate(2402.783203 0)"/>
    <use xlink:href="#DejaVuSans-Bold-62" transform="translate(2506.982422 0)"/>
    <use xlink:href="#DejaVuSans-Bold-72" transform="translate(2578.564453 0)"/>
    <use xlink:href="#DejaVuSans-Bold-61" transform="translate(2627.880859 0)"/>
    <use xlink:href="#DejaVuSans-Bold-6e" transform="translate(2695.361328 0)"/>
    <use xlink:href="#DejaVuSans-Bold-3a" transform="translate(2766.552734 0)"/>
    <use xlink:href="#DejaVuSans-Bold-20" transform="translate(2806.542969 0)"/>
    <use xlink:href="#DejaVuSans-Bold-4d" transform="translate(2841.357422 0)"/>
    <use xlink:href="#DejaVuSans-Bold-65" transform="translate(2940.869141 0)"/>
    <use xlink:href="#DejaVuSans-Bold-68" transform="translate(3008.691406 0)"/>
    <use xlink:href="#DejaVuSans-Bold-72" transform="translate(3079.882812 0)"/>
    <use xlink:href="#DejaVuSans-Bold-6b" transform="translate(3129.199219 0)"/>
    <use xlink:href="#DejaVuSans-Bold-72" transform="translate(3195.703125 0)"/>
    <use xlink:href="#DejaVuSans-Bold-69" transform="translate(3245.019531 0)"/>
    <use xlink:href="#DejaVuSans-Bold-74" transform="translate(3279.296875 0)"/>
    <use xlink:href="#DejaVuSans-Bold-65" transform="translate(3327.099609 0)"/>
    <use xlink:href="#DejaVuSans-Bold-72" transform="translate(3394.921875 0)"/>
    <use xlink:href="#DejaVuSans-Bold-69" transform="translate(3444.238281 0)"/>
    <use xlink:href="#DejaVuSans-Bold-65" transform="translate(3478.515625 0)"/>
    <use xlink:href="#DejaVuSans-Bold-6e" transform="translate(3546.337891 0)"/>
    <use xlink:href="#DejaVuSans-Bold-2d" transform="translate(3617.529297 0)"/>
    <use xlink:href="#DejaVuSans-Bold-41" transform="translate(3659.033203 0)"/>
    <use xlink:href="#DejaVuSans-Bold-6e" transform="translate(3736.425781 0)"/>
    <use xlink:href="#DejaVuSans-Bold-61" transform="translate(3807.617188 0)"/>
    <use xlink:href="#DejaVuSans-Bold-6c" transform="translate(3875.097656 0)"/>
    <use xlink:href="#DejaVuSans-Bold-79" transform="translate(3909.375 0)"/>
    <use xlink:href="#DejaVuSans-Bold-73" transform="translate(3974.560547 0)"/>
    <use xlink:href="#DejaVuSans-Bold-65" transform="translate(4034.082031 0)"/>
   </g>
  </g>
 </g>
 <defs>
  <clipPath id="pf59d3af4d1">
   <rect x="41.223125" y="44.736" width="305.126488" height="237.315174"/>
  </clipPath>
  <clipPath id="pfe81e674a1">
   <rect x="390.469613" y="44.736" width="305.126488" height="237.315174"/>
  </clipPath>
 </defs>
</svg>
