<?xml version="1.0" encoding="utf-8" standalone="no"?>
<!DOCTYPE svg PUBLIC "-//W3C//DTD SVG 1.1//EN"
  "http://www.w3.org/Graphics/SVG/1.1/DTD/svg11.dtd">
<svg xmlns:xlink="http://www.w3.org/1999/xlink" width="944.39952pt" height="368.39952pt" viewBox="0 0 944.39952 368.39952" xmlns="http://www.w3.org/2000/svg" version="1.1">
 <metadata>
  <rdf:RDF xmlns:dc="http://purl.org/dc/elements/1.1/" xmlns:cc="http://creativecommons.org/ns#" xmlns:rdf="http://www.w3.org/1999/02/22-rdf-syntax-ns#">
   <cc:Work>
    <dc:type rdf:resource="http://purl.org/dc/dcmitype/StillImage"/>
    <dc:date>2026-03-08T05:20:58.541954</dc:date>
    <dc:format>image/svg+xml</dc:format>
    <dc:creator>
     <cc:Agent>
      <dc:title>Matplotlib v3.10.8, https://matplotlib.org/</dc:title>
     </cc:Agent>
    </dc:creator>
   </cc:Work>
  </rdf:RDF>
 </metadata>
 <defs>
  <style type="text/css">*{stroke-linejoin: round; stroke-linecap: butt}</style>
 </defs>
 <g id="figure_1">
  <g id="patch_1">
   <path d="M 0 368.39952 
L 944.39952 368.39952 
L 944.39952 0 
L 0 0 
z
" style="fill: #ffffff"/>
  </g>
  <g id="axes_1">
   <g id="patch_2">
    <path d="M 40.603125 330.565145 
L 467.51976 330.565145 
L 467.51976 39.506261 
L 40.603125 39.506261 
z
" style="fill: #ffffff"/>
   </g>
   <g id="matplotlib.axis_1">
    <g id="xtick_1">
     <g id="line2d_1">
      <path d="M 60.008427 330.565145 
L 60.008427 39.506261 
" clip-path="url(#p314afa3e10)" style="fill: none; stroke-dasharray: 2.96,1.28; stroke-dashoffset: 0; stroke: #b0b0b0; stroke-opacity: 0.3; stroke-width: 0.8"/>
     </g>
     <g id="line2d_2">
      <defs>
       <path id="m71bbce4e26" d="M 0 0 
L 0 3.5 
" style="stroke: #000000; stroke-width: 0.8"/>
      </defs>
      <g>
       <use xlink:href="#m71bbce4e26" x="60.008427" y="330.565145" style="stroke: #000000; stroke-width: 0.8"/>
      </g>
     </g>
     <g id="text_1">
      <!-- 0 -->
      <g transform="translate(56.827177 345.163582) scale(0.1 -0.1)">
       <defs>
        <path id="DejaVuSans-30" d="M 2034 4250 
Q 1547 4250 1301 3770 
Q 1056 3291 1056 2328 
Q 1056 1369 1301 889 
Q 1547 409 2034 409 
Q 2525 409 2770 889 
Q 3016 1369 3016 2328 
Q 3016 3291 2770 3770 
Q 2525 4250 2034 4250 
z
M 2034 4750 
Q 2819 4750 3233 4129 
Q 3647 3509 3647 2328 
Q 3647 1150 3233 529 
Q 2819 -91 2034 -91 
Q 1250 -91 836 529 
Q 422 1150 422 2328 
Q 422 3509 836 4129 
Q 1250 4750 2034 4750 
z
" transform="scale(0.015625)"/>
       </defs>
       <use xlink:href="#DejaVuSans-30"/>
      </g>
     </g>
    </g>
    <g id="xtick_2">
     <g id="line2d_3">
      <path d="M 115.452145 330.565145 
L 115.452145 39.506261 
" clip-path="url(#p314afa3e10)" style="fill: none; stroke-dasharray: 2.96,1.28; stroke-dashoffset: 0; stroke: #b0b0b0; stroke-opacity: 0.3; stroke-width: 0.8"/>
     </g>
     <g id="line2d_4">
      <g>
       <use xlink:href="#m71bbce4e26" x="115.452145" y="330.565145" style="stroke: #000000; stroke-width: 0.8"/>
      </g>
     </g>
     <g id="text_2">
      <!-- 5 -->
      <g transform="translate(112.270895 345.163582) scale(0.1 -0.1)">
       <defs>
        <path id="DejaVuSans-35" d="M 691 4666 
L 3169 4666 
L 3169 4134 
L 1269 4134 
L 1269 2991 
Q 1406 3038 1543 3061 
Q 1681 3084 1819 3084 
Q 2600 3084 3056 2656 
Q 3513 2228 3513 1497 
Q 3513 744 3044 326 
Q 2575 -91 1722 -91 
Q 1428 -91 1123 -41 
Q 819 9 494 109 
L 494 744 
Q 775 591 1075 516 
Q 1375 441 1709 441 
Q 2250 441 2565 725 
Q 2881 1009 2881 1497 
Q 2881 1984 2565 2268 
Q 2250 2553 1709 2553 
Q 1456 2553 1204 2497 
Q 953 2441 691 2322 
L 691 4666 
z
" transform="scale(0.015625)"/>
       </defs>
       <use xlink:href="#DejaVuSans-35"/>
      </g>
     </g>
    </g>
    <g id="xtick_3">
     <g id="line2d_5">
      <path d="M 170.895864 330.565145 
L 170.895864 39.506261 
" clip-path="url(#p314afa3e10)" style="fill: none; stroke-dasharray: 2.96,1.28; stroke-dashoffset: 0; stroke: #b0b0b0; stroke-opacity: 0.3; stroke-width: 0.8"/>
     </g>
     <g id="line2d_6">
      <g>
       <use xlink:href="#m71bbce4e26" x="170.895864" y="330.565145" style="stroke: #000000; stroke-width: 0.8"/>
      </g>
     </g>
     <g id="text_3">
      <!-- 10 -->
      <g transform="translate(164.533364 345.163582) scale(0.1 -0.1)">
       <defs>
        <path id="DejaVuSans-31" d="M 794 531 
L 1825 531 
L 1825 4091 
L 703 3866 
L 703 4441 
L 1819 4666 
L 2450 4666 
L 2450 531 
L 3481 531 
L 3481 0 
L 794 0 
L 794 531 
z
" transform="scale(0.015625)"/>
       </defs>
       <use xlink:href="#DejaVuSans-31"/>
       <use xlink:href="#DejaVuSans-30" transform="translate(63.623047 0)"/>
      </g>
     </g>
    </g>
    <g id="xtick_4">
     <g id="line2d_7">
      <path d="M 226.339583 330.565145 
L 226.339583 39.506261 
" clip-path="url(#p314afa3e10)" style="fill: none; stroke-dasharray: 2.96,1.28; stroke-dashoffset: 0; stroke: #b0b0b0; stroke-opacity: 0.3; stroke-width: 0.8"/>
     </g>
     <g id="line2d_8">
      <g>
       <use xlink:href="#m71bbce4e26" x="226.339583" y="330.565145" style="stroke: #000000; stroke-width: 0.8"/>
      </g>
     </g>
     <g id="text_4">
      <!-- 15 -->
      <g transform="translate(219.977083 345.163582) scale(0.1 -0.1)">
       <use xlink:href="#DejaVuSans-31"/>
       <use xlink:href="#DejaVuSans-35" transform="translate(63.623047 0)"/>
      </g>
     </g>
    </g>
    <g id="xtick_5">
     <g id="line2d_9">
      <path d="M 281.783302 330.565145 
L 281.783302 39.506261 
" clip-path="url(#p314afa3e10)" style="fill: none; stroke-dasharray: 2.96,1.28; stroke-dashoffset: 0; stroke: #b0b0b0; stroke-opacity: 0.3; stroke-width: 0.8"/>
     </g>
     <g id="line2d_10">
      <g>
       <use xlink:href="#m71bbce4e26" x="281.783302" y="330.565145" style="stroke: #000000; stroke-width: 0.8"/>
      </g>
     </g>
     <g id="text_5">
      <!-- 20 -->
      <g transform="translate(275.420802 345.163582) scale(0.1 -0.1)">
       <defs>
        <path id="DejaVuSans-32" d="M 1228 531 
L 3431 531 
L 3431 0 
L 469 0 
L 469 531 
Q 828 903 1448 1529 
Q 2069 2156 2228 2338 
Q 2531 2678 2651 2914 
Q 2772 3150 2772 3378 
Q 2772 3750 2511 3984 
Q 2250 4219 1831 4219 
Q 1534 4219 1204 4116 
Q 875 4013 500 3803 
L 500 4441 
Q 881 4594 1212 4672 
Q 1544 4750 1819 4750 
Q 2544 4750 2975 4387 
Q 3406 4025 3406 3419 
Q 3406 3131 3298 2873 
Q 3191 2616 2906 2266 
Q 2828 2175 2409 1742 
Q 1991 1309 1228 531 
z
" transform="scale(0.015625)"/>
       </defs>
       <use xlink:href="#DejaVuSans-32"/>
       <use xlink:href="#DejaVuSans-30" transform="translate(63.623047 0)"/>
      </g>
     </g>
    </g>
    <g id="xtick_6">
     <g id="line2d_11">
      <path d="M 337.227021 330.565145 
L 337.227021 39.506261 
" clip-path="url(#p314afa3e10)" style="fill: none; stroke-dasharray: 2.96,1.28; stroke-dashoffset: 0; stroke: #b0b0b0; stroke-opacity: 0.3; stroke-width: 0.8"/>
     </g>
     <g id="line2d_12">
      <g>
       <use xlink:href="#m71bbce4e26" x="337.227021" y="330.565145" style="stroke: #000000; stroke-width: 0.8"/>
      </g>
     </g>
     <g id="text_6">
      <!-- 25 -->
      <g transform="translate(330.864521 345.163582) scale(0.1 -0.1)">
       <use xlink:href="#DejaVuSans-32"/>
       <use xlink:href="#DejaVuSans-35" transform="translate(63.623047 0)"/>
      </g>
     </g>
    </g>
    <g id="xtick_7">
     <g id="line2d_13">
      <path d="M 392.67074 330.565145 
L 392.67074 39.506261 
" clip-path="url(#p314afa3e10)" style="fill: none; stroke-dasharray: 2.96,1.28; stroke-dashoffset: 0; stroke: #b0b0b0; stroke-opacity: 0.3; stroke-width: 0.8"/>
     </g>
     <g id="line2d_14">
      <g>
       <use xlink:href="#m71bbce4e26" x="392.67074" y="330.565145" style="stroke: #000000; stroke-width: 0.8"/>
      </g>
     </g>
     <g id="text_7">
      <!-- 30 -->
      <g transform="translate(386.30824 345.163582) scale(0.1 -0.1)">
       <defs>
        <path id="DejaVuSans-33" d="M 2597 2516 
Q 3050 2419 3304 2112 
Q 3559 1806 3559 1356 
Q 3559 666 3084 287 
Q 2609 -91 1734 -91 
Q 1441 -91 1130 -33 
Q 819 25 488 141 
L 488 750 
Q 750 597 1062 519 
Q 1375 441 1716 441 
Q 2309 441 2620 675 
Q 2931 909 2931 1356 
Q 2931 1769 2642 2001 
Q 2353 2234 1838 2234 
L 1294 2234 
L 1294 2753 
L 1863 2753 
Q 2328 2753 2575 2939 
Q 2822 3125 2822 3475 
Q 2822 3834 2567 4026 
Q 2313 4219 1838 4219 
Q 1578 4219 1281 4162 
Q 984 4106 628 3988 
L 628 4550 
Q 988 4650 1302 4700 
Q 1616 4750 1894 4750 
Q 2613 4750 3031 4423 
Q 3450 4097 3450 3541 
Q 3450 3153 3228 2886 
Q 3006 2619 2597 2516 
z
" transform="scale(0.015625)"/>
       </defs>
       <use xlink:href="#DejaVuSans-33"/>
       <use xlink:href="#DejaVuSans-30" transform="translate(63.623047 0)"/>
      </g>
     </g>
    </g>
    <g id="xtick_8">
     <g id="line2d_15">
      <path d="M 448.114458 330.565145 
L 448.114458 39.506261 
" clip-path="url(#p314afa3e10)" style="fill: none; stroke-dasharray: 2.96,1.28; stroke-dashoffset: 0; stroke: #b0b0b0; stroke-opacity: 0.3; stroke-width: 0.8"/>
     </g>
     <g id="line2d_16">
      <g>
       <use xlink:href="#m71bbce4e26" x="448.114458" y="330.565145" style="stroke: #000000; stroke-width: 0.8"/>
      </g>
     </g>
     <g id="text_8">
      <!-- 35 -->
      <g transform="translate(441.751958 345.163582) scale(0.1 -0.1)">
       <use xlink:href="#DejaVuSans-33"/>
       <use xlink:href="#DejaVuSans-35" transform="translate(63.623047 0)"/>
      </g>
     </g>
    </g>
    <g id="text_9">
     <!-- ΔT = T_static − T_AI [K] -->
     <g transform="translate(194.351286 358.841707) scale(0.1 -0.1)">
      <defs>
       <path id="DejaVuSans-394" d="M 2188 4044 
L 906 525 
L 3472 525 
L 2188 4044 
z
M 50 0 
L 1831 4666 
L 2547 4666 
L 4325 0 
L 50 0 
z
" transform="scale(0.015625)"/>
       <path id="DejaVuSans-54" d="M -19 4666 
L 3928 4666 
L 3928 4134 
L 2272 4134 
L 2272 0 
L 1638 0 
L 1638 4134 
L -19 4134 
L -19 4666 
z
" transform="scale(0.015625)"/>
       <path id="DejaVuSans-20" transform="scale(0.015625)"/>
       <path id="DejaVuSans-3d" d="M 678 2906 
L 4684 2906 
L 4684 2381 
L 678 2381 
L 678 2906 
z
M 678 1631 
L 4684 1631 
L 4684 1100 
L 678 1100 
L 678 1631 
z
" transform="scale(0.015625)"/>
       <path id="DejaVuSans-5f" d="M 3263 -1063 
L 3263 -1509 
L -63 -1509 
L -63 -1063 
L 3263 -1063 
z
" transform="scale(0.015625)"/>
       <path id="DejaVuSans-73" d="M 2834 3397 
L 2834 2853 
Q 2591 2978 2328 3040 
Q 2066 3103 1784 3103 
Q 1356 3103 1142 2972 
Q 928 2841 928 2578 
Q 928 2378 1081 2264 
Q 1234 2150 1697 2047 
L 1894 2003 
Q 2506 1872 2764 1633 
Q 3022 1394 3022 966 
Q 3022 478 2636 193 
Q 2250 -91 1575 -91 
Q 1294 -91 989 -36 
Q 684 19 347 128 
L 347 722 
Q 666 556 975 473 
Q 1284 391 1588 391 
Q 1994 391 2212 530 
Q 2431 669 2431 922 
Q 2431 1156 2273 1281 
Q 2116 1406 1581 1522 
L 1381 1569 
Q 847 1681 609 1914 
Q 372 2147 372 2553 
Q 372 3047 722 3315 
Q 1072 3584 1716 3584 
Q 2034 3584 2315 3537 
Q 2597 3491 2834 3397 
z
" transform="scale(0.015625)"/>
       <path id="DejaVuSans-74" d="M 1172 4494 
L 1172 3500 
L 2356 3500 
L 2356 3053 
L 1172 3053 
L 1172 1153 
Q 1172 725 1289 603 
Q 1406 481 1766 481 
L 2356 481 
L 2356 0 
L 1766 0 
Q 1100 0 847 248 
Q 594 497 594 1153 
L 594 3053 
L 172 3053 
L 172 3500 
L 594 3500 
L 594 4494 
L 1172 4494 
z
" transform="scale(0.015625)"/>
       <path id="DejaVuSans-61" d="M 2194 1759 
Q 1497 1759 1228 1600 
Q 959 1441 959 1056 
Q 959 750 1161 570 
Q 1363 391 1709 391 
Q 2188 391 2477 730 
Q 2766 1069 2766 1631 
L 2766 1759 
L 2194 1759 
z
M 3341 1997 
L 3341 0 
L 2766 0 
L 2766 531 
Q 2569 213 2275 61 
Q 1981 -91 1556 -91 
Q 1019 -91 701 211 
Q 384 513 384 1019 
Q 384 1609 779 1909 
Q 1175 2209 1959 2209 
L 2766 2209 
L 2766 2266 
Q 2766 2663 2505 2880 
Q 2244 3097 1772 3097 
Q 1472 3097 1187 3025 
Q 903 2953 641 2809 
L 641 3341 
Q 956 3463 1253 3523 
Q 1550 3584 1831 3584 
Q 2591 3584 2966 3190 
Q 3341 2797 3341 1997 
z
" transform="scale(0.015625)"/>
       <path id="DejaVuSans-69" d="M 603 3500 
L 1178 3500 
L 1178 0 
L 603 0 
L 603 3500 
z
M 603 4863 
L 1178 4863 
L 1178 4134 
L 603 4134 
L 603 4863 
z
" transform="scale(0.015625)"/>
       <path id="DejaVuSans-63" d="M 3122 3366 
L 3122 2828 
Q 2878 2963 2633 3030 
Q 2388 3097 2138 3097 
Q 1578 3097 1268 2742 
Q 959 2388 959 1747 
Q 959 1106 1268 751 
Q 1578 397 2138 397 
Q 2388 397 2633 464 
Q 2878 531 3122 666 
L 3122 134 
Q 2881 22 2623 -34 
Q 2366 -91 2075 -91 
Q 1284 -91 818 406 
Q 353 903 353 1747 
Q 353 2603 823 3093 
Q 1294 3584 2113 3584 
Q 2378 3584 2631 3529 
Q 2884 3475 3122 3366 
z
" transform="scale(0.015625)"/>
       <path id="DejaVuSans-2212" d="M 678 2272 
L 4684 2272 
L 4684 1741 
L 678 1741 
L 678 2272 
z
" transform="scale(0.015625)"/>
       <path id="DejaVuSans-41" d="M 2188 4044 
L 1331 1722 
L 3047 1722 
L 2188 4044 
z
M 1831 4666 
L 2547 4666 
L 4325 0 
L 3669 0 
L 3244 1197 
L 1141 1197 
L 716 0 
L 50 0 
L 1831 4666 
z
" transform="scale(0.015625)"/>
       <path id="DejaVuSans-49" d="M 628 4666 
L 1259 4666 
L 1259 0 
L 628 0 
L 628 4666 
z
" transform="scale(0.015625)"/>
       <path id="DejaVuSans-5b" d="M 550 4863 
L 1875 4863 
L 1875 4416 
L 1125 4416 
L 1125 -397 
L 1875 -397 
L 1875 -844 
L 550 -844 
L 550 4863 
z
" transform="scale(0.015625)"/>
       <path id="DejaVuSans-4b" d="M 628 4666 
L 1259 4666 
L 1259 2694 
L 3353 4666 
L 4166 4666 
L 1850 2491 
L 4331 0 
L 3500 0 
L 1259 2247 
L 1259 0 
L 628 0 
L 628 4666 
z
" transform="scale(0.015625)"/>
       <path id="DejaVuSans-5d" d="M 1947 4863 
L 1947 -844 
L 622 -844 
L 622 -397 
L 1369 -397 
L 1369 4416 
L 622 4416 
L 622 4863 
L 1947 4863 
z
" transform="scale(0.015625)"/>
      </defs>
      <use xlink:href="#DejaVuSans-394"/>
      <use xlink:href="#DejaVuSans-54" transform="translate(68.408203 0)"/>
      <use xlink:href="#DejaVuSans-20" transform="translate(129.492188 0)"/>
      <use xlink:href="#DejaVuSans-3d" transform="translate(161.279297 0)"/>
      <use xlink:href="#DejaVuSans-20" transform="translate(245.068359 0)"/>
      <use xlink:href="#DejaVuSans-54" transform="translate(276.855469 0)"/>
      <use xlink:href="#DejaVuSans-5f" transform="translate(337.939453 0)"/>
      <use xlink:href="#DejaVuSans-73" transform="translate(387.939453 0)"/>
      <use xlink:href="#DejaVuSans-74" transform="translate(440.039062 0)"/>
      <use xlink:href="#DejaVuSans-61" transform="translate(479.248047 0)"/>
      <use xlink:href="#DejaVuSans-74" transform="translate(540.527344 0)"/>
      <use xlink:href="#DejaVuSans-69" transform="translate(579.736328 0)"/>
      <use xlink:href="#DejaVuSans-63" transform="translate(607.519531 0)"/>
      <use xlink:href="#DejaVuSans-20" transform="translate(662.5 0)"/>
      <use xlink:href="#DejaVuSans-2212" transform="translate(694.287109 0)"/>
      <use xlink:href="#DejaVuSans-20" transform="translate(778.076172 0)"/>
      <use xlink:href="#DejaVuSans-54" transform="translate(809.863281 0)"/>
      <use xlink:href="#DejaVuSans-5f" transform="translate(870.947266 0)"/>
      <use xlink:href="#DejaVuSans-41" transform="translate(920.947266 0)"/>
      <use xlink:href="#DejaVuSans-49" transform="translate(989.355469 0)"/>
      <use xlink:href="#DejaVuSans-20" transform="translate(1018.847656 0)"/>
      <use xlink:href="#DejaVuSans-5b" transform="translate(1050.634766 0)"/>
      <use xlink:href="#DejaVuSans-4b" transform="translate(1089.648438 0)"/>
      <use xlink:href="#DejaVuSans-5d" transform="translate(1155.224609 0)"/>
     </g>
    </g>
   </g>
   <g id="matplotlib.axis_2">
    <g id="ytick_1">
     <g id="line2d_17">
      <path d="M 40.603125 320.289791 
L 467.51976 320.289791 
" clip-path="url(#p314afa3e10)" style="fill: none; stroke-dasharray: 2.96,1.28; stroke-dashoffset: 0; stroke: #b0b0b0; stroke-opacity: 0.3; stroke-width: 0.8"/>
     </g>
     <g id="line2d_18">
      <defs>
       <path id="md0a9dd9d5e" d="M 0 0 
L -3.5 0 
" style="stroke: #000000; stroke-width: 0.8"/>
      </defs>
      <g>
       <use xlink:href="#md0a9dd9d5e" x="40.603125" y="320.289791" style="stroke: #000000; stroke-width: 0.8"/>
      </g>
     </g>
     <g id="text_10">
      <!-- 0 -->
      <g transform="translate(27.240625 324.089009) scale(0.1 -0.1)">
       <use xlink:href="#DejaVuSans-30"/>
      </g>
     </g>
    </g>
    <g id="ytick_2">
     <g id="line2d_19">
      <path d="M 40.603125 261.197894 
L 467.51976 261.197894 
" clip-path="url(#p314afa3e10)" style="fill: none; stroke-dasharray: 2.96,1.28; stroke-dashoffset: 0; stroke: #b0b0b0; stroke-opacity: 0.3; stroke-width: 0.8"/>
     </g>
     <g id="line2d_20">
      <g>
       <use xlink:href="#md0a9dd9d5e" x="40.603125" y="261.197894" style="stroke: #000000; stroke-width: 0.8"/>
      </g>
     </g>
     <g id="text_11">
      <!-- 20 -->
      <g transform="translate(20.878125 264.997113) scale(0.1 -0.1)">
       <use xlink:href="#DejaVuSans-32"/>
       <use xlink:href="#DejaVuSans-30" transform="translate(63.623047 0)"/>
      </g>
     </g>
    </g>
    <g id="ytick_3">
     <g id="line2d_21">
      <path d="M 40.603125 202.105998 
L 467.51976 202.105998 
" clip-path="url(#p314afa3e10)" style="fill: none; stroke-dasharray: 2.96,1.28; stroke-dashoffset: 0; stroke: #b0b0b0; stroke-opacity: 0.3; stroke-width: 0.8"/>
     </g>
     <g id="line2d_22">
      <g>
       <use xlink:href="#md0a9dd9d5e" x="40.603125" y="202.105998" style="stroke: #000000; stroke-width: 0.8"/>
      </g>
     </g>
     <g id="text_12">
      <!-- 40 -->
      <g transform="translate(20.878125 205.905216) scale(0.1 -0.1)">
       <defs>
        <path id="DejaVuSans-34" d="M 2419 4116 
L 825 1625 
L 2419 1625 
L 2419 4116 
z
M 2253 4666 
L 3047 4666 
L 3047 1625 
L 3713 1625 
L 3713 1100 
L 3047 1100 
L 3047 0 
L 2419 0 
L 2419 1100 
L 313 1100 
L 313 1709 
L 2253 4666 
z
" transform="scale(0.015625)"/>
       </defs>
       <use xlink:href="#DejaVuSans-34"/>
       <use xlink:href="#DejaVuSans-30" transform="translate(63.623047 0)"/>
      </g>
     </g>
    </g>
    <g id="ytick_4">
     <g id="line2d_23">
      <path d="M 40.603125 143.014101 
L 467.51976 143.014101 
" clip-path="url(#p314afa3e10)" style="fill: none; stroke-dasharray: 2.96,1.28; stroke-dashoffset: 0; stroke: #b0b0b0; stroke-opacity: 0.3; stroke-width: 0.8"/>
     </g>
     <g id="line2d_24">
      <g>
       <use xlink:href="#md0a9dd9d5e" x="40.603125" y="143.014101" style="stroke: #000000; stroke-width: 0.8"/>
      </g>
     </g>
     <g id="text_13">
      <!-- 60 -->
      <g transform="translate(20.878125 146.81332) scale(0.1 -0.1)">
       <defs>
        <path id="DejaVuSans-36" d="M 2113 2584 
Q 1688 2584 1439 2293 
Q 1191 2003 1191 1497 
Q 1191 994 1439 701 
Q 1688 409 2113 409 
Q 2538 409 2786 701 
Q 3034 994 3034 1497 
Q 3034 2003 2786 2293 
Q 2538 2584 2113 2584 
z
M 3366 4563 
L 3366 3988 
Q 3128 4100 2886 4159 
Q 2644 4219 2406 4219 
Q 1781 4219 1451 3797 
Q 1122 3375 1075 2522 
Q 1259 2794 1537 2939 
Q 1816 3084 2150 3084 
Q 2853 3084 3261 2657 
Q 3669 2231 3669 1497 
Q 3669 778 3244 343 
Q 2819 -91 2113 -91 
Q 1303 -91 875 529 
Q 447 1150 447 2328 
Q 447 3434 972 4092 
Q 1497 4750 2381 4750 
Q 2619 4750 2861 4703 
Q 3103 4656 3366 4563 
z
" transform="scale(0.015625)"/>
       </defs>
       <use xlink:href="#DejaVuSans-36"/>
       <use xlink:href="#DejaVuSans-30" transform="translate(63.623047 0)"/>
      </g>
     </g>
    </g>
    <g id="ytick_5">
     <g id="line2d_25">
      <path d="M 40.603125 83.922204 
L 467.51976 83.922204 
" clip-path="url(#p314afa3e10)" style="fill: none; stroke-dasharray: 2.96,1.28; stroke-dashoffset: 0; stroke: #b0b0b0; stroke-opacity: 0.3; stroke-width: 0.8"/>
     </g>
     <g id="line2d_26">
      <g>
       <use xlink:href="#md0a9dd9d5e" x="40.603125" y="83.922204" style="stroke: #000000; stroke-width: 0.8"/>
      </g>
     </g>
     <g id="text_14">
      <!-- 80 -->
      <g transform="translate(20.878125 87.721423) scale(0.1 -0.1)">
       <defs>
        <path id="DejaVuSans-38" d="M 2034 2216 
Q 1584 2216 1326 1975 
Q 1069 1734 1069 1313 
Q 1069 891 1326 650 
Q 1584 409 2034 409 
Q 2484 409 2743 651 
Q 3003 894 3003 1313 
Q 3003 1734 2745 1975 
Q 2488 2216 2034 2216 
z
M 1403 2484 
Q 997 2584 770 2862 
Q 544 3141 544 3541 
Q 544 4100 942 4425 
Q 1341 4750 2034 4750 
Q 2731 4750 3128 4425 
Q 3525 4100 3525 3541 
Q 3525 3141 3298 2862 
Q 3072 2584 2669 2484 
Q 3125 2378 3379 2068 
Q 3634 1759 3634 1313 
Q 3634 634 3220 271 
Q 2806 -91 2034 -91 
Q 1263 -91 848 271 
Q 434 634 434 1313 
Q 434 1759 690 2068 
Q 947 2378 1403 2484 
z
M 1172 3481 
Q 1172 3119 1398 2916 
Q 1625 2713 2034 2713 
Q 2441 2713 2670 2916 
Q 2900 3119 2900 3481 
Q 2900 3844 2670 4047 
Q 2441 4250 2034 4250 
Q 1625 4250 1398 4047 
Q 1172 3844 1172 3481 
z
" transform="scale(0.015625)"/>
       </defs>
       <use xlink:href="#DejaVuSans-38"/>
       <use xlink:href="#DejaVuSans-30" transform="translate(63.623047 0)"/>
      </g>
     </g>
    </g>
    <g id="text_15">
     <!-- Φ_T -->
     <g transform="translate(14.520313 194.525547) rotate(-90) scale(0.1 -0.1)">
      <defs>
       <path id="DejaVuSans-3a6" d="M 2206 3644 
Q 1738 3578 1431 3306 
Q 1025 2947 1025 2328 
Q 1025 1713 1431 1353 
Q 1738 1081 2206 1016 
L 2206 3644 
z
M 2838 1016 
Q 3306 1081 3613 1353 
Q 4013 1713 4013 2328 
Q 4013 2947 3613 3306 
Q 3306 3578 2838 3644 
L 2838 1016 
z
M 2206 494 
Q 1444 563 950 981 
Q 359 1481 359 2328 
Q 359 3175 950 3678 
Q 1441 4100 2206 4169 
L 2206 4666 
L 2838 4666 
L 2838 4169 
Q 3600 4097 4091 3678 
Q 4678 3175 4678 2328 
Q 4678 1484 4091 981 
Q 3600 563 2838 491 
L 2838 0 
L 2206 0 
L 2206 494 
z
" transform="scale(0.015625)"/>
      </defs>
      <use xlink:href="#DejaVuSans-3a6"/>
      <use xlink:href="#DejaVuSans-5f" transform="translate(78.710938 0)"/>
      <use xlink:href="#DejaVuSans-54" transform="translate(128.710938 0)"/>
     </g>
    </g>
   </g>
   <g id="line2d_27">
    <path d="M 60.008427 317.335196 
L 130.101155 316.513146 
L 189.809775 315.596167 
L 241.730314 314.582488 
L 287.160786 313.481984 
L 328.697218 312.255364 
L 365.041595 310.968299 
L 398.789946 309.555539 
L 429.94227 308.028126 
L 448.114458 307.02189 
L 448.114458 307.02189 
" clip-path="url(#p314afa3e10)" style="fill: none; stroke: #1f77b4; stroke-width: 1.5; stroke-linecap: square"/>
   </g>
   <g id="line2d_28">
    <path d="M 60.008427 317.335196 
L 102.842872 316.503598 
L 140.485263 315.556791 
L 172.9356 314.529112 
L 202.78991 313.363853 
L 228.75018 312.138168 
L 253.412436 310.750247 
L 275.478665 309.286678 
L 296.246881 307.681876 
L 314.41907 306.065934 
L 331.293245 304.360642 
L 348.16742 302.429091 
L 363.743582 300.416978 
L 378.02173 298.353337 
L 392.299879 296.053234 
L 405.280013 293.73223 
L 416.962135 291.434731 
L 428.644256 288.918521 
L 440.326378 286.160934 
L 448.114458 284.176112 
L 448.114458 284.176112 
" clip-path="url(#p314afa3e10)" style="fill: none; stroke: #ff7f0e; stroke-width: 1.5; stroke-linecap: square"/>
   </g>
   <g id="line2d_29">
    <path d="M 60.008427 317.335196 
L 91.16075 316.489801 
L 118.419033 315.53567 
L 143.08129 314.449103 
L 165.147519 313.249721 
L 184.617721 311.971183 
L 202.78991 310.551768 
L 219.664085 308.999953 
L 235.240247 307.331178 
L 249.518395 305.568428 
L 262.49853 303.742408 
L 274.180652 301.891199 
L 285.862773 299.816991 
L 296.246881 297.762893 
L 306.630989 295.487163 
L 317.015096 292.964246 
L 326.101191 290.531453 
L 335.187285 287.866069 
L 344.27338 284.944361 
L 352.061461 282.216161 
L 359.849541 279.262132 
L 367.637622 276.062346 
L 375.425703 272.595012 
L 381.915771 269.484054 
L 388.405838 266.1558 
L 394.895906 262.594089 
L 401.385973 258.78149 
L 407.87604 254.699192 
L 414.366108 250.32689 
L 420.856175 245.642661 
L 427.346243 240.622824 
L 432.538297 236.348193 
L 437.730351 231.828398 
L 442.922404 227.048492 
L 448.114458 221.992568 
L 448.114458 221.992568 
" clip-path="url(#p314afa3e10)" style="fill: none; stroke: #2ca02c; stroke-width: 1.5; stroke-linecap: square"/>
   </g>
   <g id="line2d_30">
    <path d="M 60.008427 317.335196 
L 84.670683 316.474558 
L 106.736912 315.47879 
L 126.207114 314.371406 
L 143.08129 313.193593 
L 158.657451 311.885582 
L 172.9356 310.462039 
L 185.915735 308.946331 
L 197.597856 307.370771 
L 209.279977 305.562675 
L 219.664085 303.731038 
L 230.048193 301.657624 
L 239.134287 299.618654 
L 248.220382 297.343139 
L 256.008463 295.182562 
L 263.796544 292.806562 
L 271.584625 290.192482 
L 279.372705 287.315164 
L 285.862773 284.696239 
L 292.35284 281.857336 
L 298.842908 278.778991 
L 305.332975 275.43993 
L 311.823043 271.816896 
L 318.31311 267.884452 
L 323.505164 264.497108 
L 328.697218 260.878537 
L 333.889272 257.012131 
L 339.081326 252.880034 
L 344.27338 248.46304 
L 349.465434 243.740487 
L 354.657488 238.690141 
L 359.849541 233.288074 
L 365.041595 227.508523 
L 370.233649 221.323752 
L 375.425703 214.703883 
L 380.617757 207.616733 
L 384.511798 201.973954 
L 388.405838 196.033261 
L 392.299879 189.778132 
L 396.193919 183.191088 
L 400.087959 176.253629 
L 403.982 168.946179 
L 407.87604 161.248015 
L 411.770081 153.1372 
L 415.664121 144.590505 
L 419.558162 135.583335 
L 423.452202 126.08964 
L 427.346243 116.081831 
L 431.240283 105.530676 
L 435.134324 94.405209 
L 439.028364 82.672611 
L 442.922404 70.298106 
L 446.816445 57.244829 
L 448.114458 52.736211 
L 448.114458 52.736211 
" clip-path="url(#p314afa3e10)" style="fill: none; stroke: #d62728; stroke-width: 1.5; stroke-linecap: square"/>
   </g>
   <g id="line2d_31">
    <path d="M 40.603125 317.335196 
L 467.51976 317.335196 
" clip-path="url(#p314afa3e10)" style="fill: none; stroke-dasharray: 3.33,1.44; stroke-dashoffset: 0; stroke: #808080; stroke-width: 0.9"/>
   </g>
   <g id="patch_3">
    <path d="M 40.603125 330.565145 
L 40.603125 39.506261 
" style="fill: none; stroke: #000000; stroke-width: 0.8; stroke-linejoin: miter; stroke-linecap: square"/>
   </g>
   <g id="patch_4">
    <path d="M 40.603125 330.565145 
L 467.51976 330.565145 
" style="fill: none; stroke: #000000; stroke-width: 0.8; stroke-linejoin: miter; stroke-linecap: square"/>
   </g>
   <g id="text_16">
    <!-- Φ_T vs. ΔT  (T_static = 35 °C) -->
    <g transform="translate(164.557536 33.506261) scale(0.11 -0.11)">
     <defs>
      <path id="DejaVuSans-Bold-3a6" d="M 2119 3213 
Q 1975 3153 1866 3059 
Q 1563 2800 1563 2328 
Q 1563 1847 1866 1600 
Q 1972 1506 2119 1447 
L 2119 3213 
z
M 3322 1447 
Q 3469 1506 3575 1600 
Q 3878 1884 3878 2328 
Q 3878 2788 3575 3059 
Q 3472 3153 3322 3213 
L 3322 1447 
z
M 2119 506 
Q 1416 606 956 963 
Q 319 1456 319 2328 
Q 319 3203 956 3697 
Q 1416 4053 2119 4153 
L 2119 4666 
L 3322 4666 
L 3322 4153 
Q 4025 4053 4481 3697 
Q 5119 3203 5119 2328 
Q 5119 1456 4481 963 
Q 4025 609 3322 506 
L 3322 0 
L 2119 0 
L 2119 506 
z
" transform="scale(0.015625)"/>
      <path id="DejaVuSans-Bold-5f" d="M 3200 -916 
L 3200 -1509 
L 0 -1509 
L 0 -916 
L 3200 -916 
z
" transform="scale(0.015625)"/>
      <path id="DejaVuSans-Bold-54" d="M 31 4666 
L 4331 4666 
L 4331 3756 
L 2784 3756 
L 2784 0 
L 1581 0 
L 1581 3756 
L 31 3756 
L 31 4666 
z
" transform="scale(0.015625)"/>
      <path id="DejaVuSans-Bold-20" transform="scale(0.015625)"/>
      <path id="DejaVuSans-Bold-76" d="M 97 3500 
L 1216 3500 
L 2088 1081 
L 2956 3500 
L 4078 3500 
L 2700 0 
L 1472 0 
L 97 3500 
z
" transform="scale(0.015625)"/>
      <path id="DejaVuSans-Bold-73" d="M 3272 3391 
L 3272 2541 
Q 2913 2691 2578 2766 
Q 2244 2841 1947 2841 
Q 1628 2841 1473 2761 
Q 1319 2681 1319 2516 
Q 1319 2381 1436 2309 
Q 1553 2238 1856 2203 
L 2053 2175 
Q 2913 2066 3209 1816 
Q 3506 1566 3506 1031 
Q 3506 472 3093 190 
Q 2681 -91 1863 -91 
Q 1516 -91 1145 -36 
Q 775 19 384 128 
L 384 978 
Q 719 816 1070 734 
Q 1422 653 1784 653 
Q 2113 653 2278 743 
Q 2444 834 2444 1013 
Q 2444 1163 2330 1236 
Q 2216 1309 1875 1350 
L 1678 1375 
Q 931 1469 631 1722 
Q 331 1975 331 2491 
Q 331 3047 712 3315 
Q 1094 3584 1881 3584 
Q 2191 3584 2531 3537 
Q 2872 3491 3272 3391 
z
" transform="scale(0.015625)"/>
      <path id="DejaVuSans-Bold-2e" d="M 653 1209 
L 1778 1209 
L 1778 0 
L 653 0 
L 653 1209 
z
" transform="scale(0.015625)"/>
      <path id="DejaVuSans-Bold-394" d="M 4922 0 
L 31 0 
L 1759 4666 
L 3194 4666 
L 4922 0 
z
M 1559 909 
L 3384 909 
L 2478 3572 
L 1559 909 
z
" transform="scale(0.015625)"/>
      <path id="DejaVuSans-Bold-28" d="M 2413 -844 
L 1484 -844 
Q 1006 -72 778 623 
Q 550 1319 550 2003 
Q 550 2688 779 3389 
Q 1009 4091 1484 4856 
L 2413 4856 
Q 2013 4116 1813 3408 
Q 1613 2700 1613 2009 
Q 1613 1319 1811 609 
Q 2009 -100 2413 -844 
z
" transform="scale(0.015625)"/>
      <path id="DejaVuSans-Bold-74" d="M 1759 4494 
L 1759 3500 
L 2913 3500 
L 2913 2700 
L 1759 2700 
L 1759 1216 
Q 1759 972 1856 886 
Q 1953 800 2241 800 
L 2816 800 
L 2816 0 
L 1856 0 
Q 1194 0 917 276 
Q 641 553 641 1216 
L 641 2700 
L 84 2700 
L 84 3500 
L 641 3500 
L 641 4494 
L 1759 4494 
z
" transform="scale(0.015625)"/>
      <path id="DejaVuSans-Bold-61" d="M 2106 1575 
Q 1756 1575 1579 1456 
Q 1403 1338 1403 1106 
Q 1403 894 1545 773 
Q 1688 653 1941 653 
Q 2256 653 2472 879 
Q 2688 1106 2688 1447 
L 2688 1575 
L 2106 1575 
z
M 3816 1997 
L 3816 0 
L 2688 0 
L 2688 519 
Q 2463 200 2181 54 
Q 1900 -91 1497 -91 
Q 953 -91 614 226 
Q 275 544 275 1050 
Q 275 1666 698 1953 
Q 1122 2241 2028 2241 
L 2688 2241 
L 2688 2328 
Q 2688 2594 2478 2717 
Q 2269 2841 1825 2841 
Q 1466 2841 1156 2769 
Q 847 2697 581 2553 
L 581 3406 
Q 941 3494 1303 3539 
Q 1666 3584 2028 3584 
Q 2975 3584 3395 3211 
Q 3816 2838 3816 1997 
z
" transform="scale(0.015625)"/>
      <path id="DejaVuSans-Bold-69" d="M 538 3500 
L 1656 3500 
L 1656 0 
L 538 0 
L 538 3500 
z
M 538 4863 
L 1656 4863 
L 1656 3950 
L 538 3950 
L 538 4863 
z
" transform="scale(0.015625)"/>
      <path id="DejaVuSans-Bold-63" d="M 3366 3391 
L 3366 2478 
Q 3138 2634 2908 2709 
Q 2678 2784 2431 2784 
Q 1963 2784 1702 2511 
Q 1441 2238 1441 1747 
Q 1441 1256 1702 982 
Q 1963 709 2431 709 
Q 2694 709 2930 787 
Q 3166 866 3366 1019 
L 3366 103 
Q 3103 6 2833 -42 
Q 2563 -91 2291 -91 
Q 1344 -91 809 395 
Q 275 881 275 1747 
Q 275 2613 809 3098 
Q 1344 3584 2291 3584 
Q 2566 3584 2833 3536 
Q 3100 3488 3366 3391 
z
" transform="scale(0.015625)"/>
      <path id="DejaVuSans-Bold-3d" d="M 678 3084 
L 4684 3084 
L 4684 2350 
L 678 2350 
L 678 3084 
z
M 678 1663 
L 4684 1663 
L 4684 922 
L 678 922 
L 678 1663 
z
" transform="scale(0.015625)"/>
      <path id="DejaVuSans-Bold-33" d="M 2981 2516 
Q 3453 2394 3698 2092 
Q 3944 1791 3944 1325 
Q 3944 631 3412 270 
Q 2881 -91 1863 -91 
Q 1503 -91 1142 -33 
Q 781 25 428 141 
L 428 1069 
Q 766 900 1098 814 
Q 1431 728 1753 728 
Q 2231 728 2486 893 
Q 2741 1059 2741 1369 
Q 2741 1688 2480 1852 
Q 2219 2016 1709 2016 
L 1228 2016 
L 1228 2791 
L 1734 2791 
Q 2188 2791 2409 2933 
Q 2631 3075 2631 3366 
Q 2631 3634 2415 3781 
Q 2200 3928 1806 3928 
Q 1516 3928 1219 3862 
Q 922 3797 628 3669 
L 628 4550 
Q 984 4650 1334 4700 
Q 1684 4750 2022 4750 
Q 2931 4750 3382 4451 
Q 3834 4153 3834 3553 
Q 3834 3144 3618 2883 
Q 3403 2622 2981 2516 
z
" transform="scale(0.015625)"/>
      <path id="DejaVuSans-Bold-35" d="M 678 4666 
L 3669 4666 
L 3669 3781 
L 1638 3781 
L 1638 3059 
Q 1775 3097 1914 3117 
Q 2053 3138 2203 3138 
Q 3056 3138 3531 2711 
Q 4006 2284 4006 1522 
Q 4006 766 3489 337 
Q 2972 -91 2053 -91 
Q 1656 -91 1267 -14 
Q 878 63 494 219 
L 494 1166 
Q 875 947 1217 837 
Q 1559 728 1863 728 
Q 2300 728 2551 942 
Q 2803 1156 2803 1522 
Q 2803 1891 2551 2103 
Q 2300 2316 1863 2316 
Q 1603 2316 1309 2248 
Q 1016 2181 678 2041 
L 678 4666 
z
" transform="scale(0.015625)"/>
      <path id="DejaVuSans-Bold-b0" d="M 1600 4288 
Q 1375 4288 1219 4131 
Q 1063 3975 1063 3750 
Q 1063 3525 1217 3372 
Q 1372 3219 1600 3219 
Q 1825 3219 1981 3373 
Q 2138 3528 2138 3750 
Q 2138 3975 1980 4131 
Q 1822 4288 1600 4288 
z
M 1600 4794 
Q 1806 4794 1997 4714 
Q 2188 4634 2338 4488 
Q 2484 4338 2561 4150 
Q 2638 3963 2638 3750 
Q 2638 3541 2561 3352 
Q 2484 3163 2344 3022 
Q 2194 2872 2000 2792 
Q 1806 2713 1594 2713 
Q 1153 2713 854 3011 
Q 556 3309 556 3750 
Q 556 4191 857 4492 
Q 1159 4794 1600 4794 
z
" transform="scale(0.015625)"/>
      <path id="DejaVuSans-Bold-43" d="M 4288 256 
Q 3956 84 3597 -3 
Q 3238 -91 2847 -91 
Q 1681 -91 1000 561 
Q 319 1213 319 2328 
Q 319 3447 1000 4098 
Q 1681 4750 2847 4750 
Q 3238 4750 3597 4662 
Q 3956 4575 4288 4403 
L 4288 3438 
Q 3953 3666 3628 3772 
Q 3303 3878 2944 3878 
Q 2300 3878 1931 3465 
Q 1563 3053 1563 2328 
Q 1563 1606 1931 1193 
Q 2300 781 2944 781 
Q 3303 781 3628 887 
Q 3953 994 4288 1222 
L 4288 256 
z
" transform="scale(0.015625)"/>
      <path id="DejaVuSans-Bold-29" d="M 513 -844 
Q 913 -100 1113 609 
Q 1313 1319 1313 2009 
Q 1313 2700 1113 3408 
Q 913 4116 513 4856 
L 1441 4856 
Q 1916 4091 2145 3389 
Q 2375 2688 2375 2003 
Q 2375 1319 2147 623 
Q 1919 -72 1441 -844 
L 513 -844 
z
" transform="scale(0.015625)"/>
     </defs>
     <use xlink:href="#DejaVuSans-Bold-3a6"/>
     <use xlink:href="#DejaVuSans-Bold-5f" transform="translate(85.009766 0)"/>
     <use xlink:href="#DejaVuSans-Bold-54" transform="translate(135.009766 0)"/>
     <use xlink:href="#DejaVuSans-Bold-20" transform="translate(203.222656 0)"/>
     <use xlink:href="#DejaVuSans-Bold-76" transform="translate(238.037109 0)"/>
     <use xlink:href="#DejaVuSans-Bold-73" transform="translate(303.222656 0)"/>
     <use xlink:href="#DejaVuSans-Bold-2e" transform="translate(362.744141 0)"/>
     <use xlink:href="#DejaVuSans-Bold-20" transform="translate(400.732422 0)"/>
     <use xlink:href="#DejaVuSans-Bold-394" transform="translate(435.546875 0)"/>
     <use xlink:href="#DejaVuSans-Bold-54" transform="translate(512.939453 0)"/>
     <use xlink:href="#DejaVuSans-Bold-20" transform="translate(581.152344 0)"/>
     <use xlink:href="#DejaVuSans-Bold-20" transform="translate(615.966797 0)"/>
     <use xlink:href="#DejaVuSans-Bold-28" transform="translate(650.78125 0)"/>
     <use xlink:href="#DejaVuSans-Bold-54" transform="translate(696.484375 0)"/>
     <use xlink:href="#DejaVuSans-Bold-5f" transform="translate(764.697266 0)"/>
     <use xlink:href="#DejaVuSans-Bold-73" transform="translate(814.697266 0)"/>
     <use xlink:href="#DejaVuSans-Bold-74" transform="translate(874.21875 0)"/>
     <use xlink:href="#DejaVuSans-Bold-61" transform="translate(922.021484 0)"/>
     <use xlink:href="#DejaVuSans-Bold-74" transform="translate(989.501953 0)"/>
     <use xlink:href="#DejaVuSans-Bold-69" transform="translate(1037.304688 0)"/>
     <use xlink:href="#DejaVuSans-Bold-63" transform="translate(1071.582031 0)"/>
     <use xlink:href="#DejaVuSans-Bold-20" transform="translate(1130.859375 0)"/>
     <use xlink:href="#DejaVuSans-Bold-3d" transform="translate(1165.673828 0)"/>
     <use xlink:href="#DejaVuSans-Bold-20" transform="translate(1249.462891 0)"/>
     <use xlink:href="#DejaVuSans-Bold-33" transform="translate(1284.277344 0)"/>
     <use xlink:href="#DejaVuSans-Bold-35" transform="translate(1353.857422 0)"/>
     <use xlink:href="#DejaVuSans-Bold-20" transform="translate(1423.4375 0)"/>
     <use xlink:href="#DejaVuSans-Bold-b0" transform="translate(1458.251953 0)"/>
     <use xlink:href="#DejaVuSans-Bold-43" transform="translate(1508.251953 0)"/>
     <use xlink:href="#DejaVuSans-Bold-29" transform="translate(1581.640625 0)"/>
    </g>
   </g>
   <g id="legend_1">
    <g id="patch_5">
     <path d="M 46.903125 99.547511 
L 140.161406 99.547511 
Q 141.961406 99.547511 141.961406 97.747511 
L 141.961406 45.806261 
Q 141.961406 44.006261 140.161406 44.006261 
L 46.903125 44.006261 
Q 45.103125 44.006261 45.103125 45.806261 
L 45.103125 97.747511 
Q 45.103125 99.547511 46.903125 99.547511 
z
" style="fill: #ffffff; opacity: 0.85; stroke: #cccccc; stroke-linejoin: miter"/>
    </g>
    <g id="line2d_32">
     <path d="M 48.703125 51.294855 
L 57.703125 51.294855 
L 66.703125 51.294855 
" style="fill: none; stroke: #1f77b4; stroke-width: 1.5; stroke-linecap: square"/>
    </g>
    <g id="text_17">
     <!-- Eₐ = 30 kJ/mol -->
     <g transform="translate(73.903125 54.444855) scale(0.09 -0.09)">
      <defs>
       <path id="DejaVuSans-45" d="M 628 4666 
L 3578 4666 
L 3578 4134 
L 1259 4134 
L 1259 2753 
L 3481 2753 
L 3481 2222 
L 1259 2222 
L 1259 531 
L 3634 531 
L 3634 0 
L 628 0 
L 628 4666 
z
" transform="scale(0.015625)"/>
       <path id="DejaVuSans-2090" d="M 1381 960 
Q 944 960 775 872 
Q 603 782 603 566 
Q 603 394 731 294 
Q 859 194 1078 194 
Q 1378 194 1559 385 
Q 1744 576 1744 888 
L 1744 960 
L 1381 960 
z
M 2103 1094 
L 2103 -24 
L 1744 -24 
L 1744 272 
Q 1619 94 1434 10 
Q 1247 -74 981 -74 
Q 641 -74 441 94 
Q 241 263 241 547 
Q 241 876 491 1044 
Q 741 1213 1234 1213 
L 1744 1213 
L 1744 1244 
Q 1744 1466 1578 1588 
Q 1413 1710 1116 1710 
Q 928 1710 747 1669 
Q 569 1629 403 1547 
L 403 1847 
Q 603 1913 791 1947 
Q 975 1982 1153 1982 
Q 1631 1982 1869 1763 
Q 2103 1541 2103 1094 
z
" transform="scale(0.015625)"/>
       <path id="DejaVuSans-6b" d="M 581 4863 
L 1159 4863 
L 1159 1991 
L 2875 3500 
L 3609 3500 
L 1753 1863 
L 3688 0 
L 2938 0 
L 1159 1709 
L 1159 0 
L 581 0 
L 581 4863 
z
" transform="scale(0.015625)"/>
       <path id="DejaVuSans-4a" d="M 628 4666 
L 1259 4666 
L 1259 325 
Q 1259 -519 939 -900 
Q 619 -1281 -91 -1281 
L -331 -1281 
L -331 -750 
L -134 -750 
Q 284 -750 456 -515 
Q 628 -281 628 325 
L 628 4666 
z
" transform="scale(0.015625)"/>
       <path id="DejaVuSans-2f" d="M 1625 4666 
L 2156 4666 
L 531 -594 
L 0 -594 
L 1625 4666 
z
" transform="scale(0.015625)"/>
       <path id="DejaVuSans-6d" d="M 3328 2828 
Q 3544 3216 3844 3400 
Q 4144 3584 4550 3584 
Q 5097 3584 5394 3201 
Q 5691 2819 5691 2113 
L 5691 0 
L 5113 0 
L 5113 2094 
Q 5113 2597 4934 2840 
Q 4756 3084 4391 3084 
Q 3944 3084 3684 2787 
Q 3425 2491 3425 1978 
L 3425 0 
L 2847 0 
L 2847 2094 
Q 2847 2600 2669 2842 
Q 2491 3084 2119 3084 
Q 1678 3084 1418 2786 
Q 1159 2488 1159 1978 
L 1159 0 
L 581 0 
L 581 3500 
L 1159 3500 
L 1159 2956 
Q 1356 3278 1631 3431 
Q 1906 3584 2284 3584 
Q 2666 3584 2933 3390 
Q 3200 3197 3328 2828 
z
" transform="scale(0.015625)"/>
       <path id="DejaVuSans-6f" d="M 1959 3097 
Q 1497 3097 1228 2736 
Q 959 2375 959 1747 
Q 959 1119 1226 758 
Q 1494 397 1959 397 
Q 2419 397 2687 759 
Q 2956 1122 2956 1747 
Q 2956 2369 2687 2733 
Q 2419 3097 1959 3097 
z
M 1959 3584 
Q 2709 3584 3137 3096 
Q 3566 2609 3566 1747 
Q 3566 888 3137 398 
Q 2709 -91 1959 -91 
Q 1206 -91 779 398 
Q 353 888 353 1747 
Q 353 2609 779 3096 
Q 1206 3584 1959 3584 
z
" transform="scale(0.015625)"/>
       <path id="DejaVuSans-6c" d="M 603 4863 
L 1178 4863 
L 1178 0 
L 603 0 
L 603 4863 
z
" transform="scale(0.015625)"/>
      </defs>
      <use xlink:href="#DejaVuSans-45"/>
      <use xlink:href="#DejaVuSans-2090" transform="translate(63.183594 0)"/>
      <use xlink:href="#DejaVuSans-20" transform="translate(102.34375 0)"/>
      <use xlink:href="#DejaVuSans-3d" transform="translate(134.130859 0)"/>
      <use xlink:href="#DejaVuSans-20" transform="translate(217.919922 0)"/>
      <use xlink:href="#DejaVuSans-33" transform="translate(249.707031 0)"/>
      <use xlink:href="#DejaVuSans-30" transform="translate(313.330078 0)"/>
      <use xlink:href="#DejaVuSans-20" transform="translate(376.953125 0)"/>
      <use xlink:href="#DejaVuSans-6b" transform="translate(408.740234 0)"/>
      <use xlink:href="#DejaVuSans-4a" transform="translate(466.650391 0)"/>
      <use xlink:href="#DejaVuSans-2f" transform="translate(496.142578 0)"/>
      <use xlink:href="#DejaVuSans-6d" transform="translate(529.833984 0)"/>
      <use xlink:href="#DejaVuSans-6f" transform="translate(627.246094 0)"/>
      <use xlink:href="#DejaVuSans-6c" transform="translate(688.427734 0)"/>
     </g>
    </g>
    <g id="line2d_33">
     <path d="M 48.703125 64.505167 
L 57.703125 64.505167 
L 66.703125 64.505167 
" style="fill: none; stroke: #ff7f0e; stroke-width: 1.5; stroke-linecap: square"/>
    </g>
    <g id="text_18">
     <!-- Eₐ = 50 kJ/mol -->
     <g transform="translate(73.903125 67.655167) scale(0.09 -0.09)">
      <use xlink:href="#DejaVuSans-45"/>
      <use xlink:href="#DejaVuSans-2090" transform="translate(63.183594 0)"/>
      <use xlink:href="#DejaVuSans-20" transform="translate(102.34375 0)"/>
      <use xlink:href="#DejaVuSans-3d" transform="translate(134.130859 0)"/>
      <use xlink:href="#DejaVuSans-20" transform="translate(217.919922 0)"/>
      <use xlink:href="#DejaVuSans-35" transform="translate(249.707031 0)"/>
      <use xlink:href="#DejaVuSans-30" transform="translate(313.330078 0)"/>
      <use xlink:href="#DejaVuSans-20" transform="translate(376.953125 0)"/>
      <use xlink:href="#DejaVuSans-6b" transform="translate(408.740234 0)"/>
      <use xlink:href="#DejaVuSans-4a" transform="translate(466.650391 0)"/>
      <use xlink:href="#DejaVuSans-2f" transform="translate(496.142578 0)"/>
      <use xlink:href="#DejaVuSans-6d" transform="translate(529.833984 0)"/>
      <use xlink:href="#DejaVuSans-6f" transform="translate(627.246094 0)"/>
      <use xlink:href="#DejaVuSans-6c" transform="translate(688.427734 0)"/>
     </g>
    </g>
    <g id="line2d_34">
     <path d="M 48.703125 77.71548 
L 57.703125 77.71548 
L 66.703125 77.71548 
" style="fill: none; stroke: #2ca02c; stroke-width: 1.5; stroke-linecap: square"/>
    </g>
    <g id="text_19">
     <!-- Eₐ = 70 kJ/mol -->
     <g transform="translate(73.903125 80.86548) scale(0.09 -0.09)">
      <defs>
       <path id="DejaVuSans-37" d="M 525 4666 
L 3525 4666 
L 3525 4397 
L 1831 0 
L 1172 0 
L 2766 4134 
L 525 4134 
L 525 4666 
z
" transform="scale(0.015625)"/>
      </defs>
      <use xlink:href="#DejaVuSans-45"/>
      <use xlink:href="#DejaVuSans-2090" transform="translate(63.183594 0)"/>
      <use xlink:href="#DejaVuSans-20" transform="translate(102.34375 0)"/>
      <use xlink:href="#DejaVuSans-3d" transform="translate(134.130859 0)"/>
      <use xlink:href="#DejaVuSans-20" transform="translate(217.919922 0)"/>
      <use xlink:href="#DejaVuSans-37" transform="translate(249.707031 0)"/>
      <use xlink:href="#DejaVuSans-30" transform="translate(313.330078 0)"/>
      <use xlink:href="#DejaVuSans-20" transform="translate(376.953125 0)"/>
      <use xlink:href="#DejaVuSans-6b" transform="translate(408.740234 0)"/>
      <use xlink:href="#DejaVuSans-4a" transform="translate(466.650391 0)"/>
      <use xlink:href="#DejaVuSans-2f" transform="translate(496.142578 0)"/>
      <use xlink:href="#DejaVuSans-6d" transform="translate(529.833984 0)"/>
      <use xlink:href="#DejaVuSans-6f" transform="translate(627.246094 0)"/>
      <use xlink:href="#DejaVuSans-6c" transform="translate(688.427734 0)"/>
     </g>
    </g>
    <g id="line2d_35">
     <path d="M 48.703125 90.925792 
L 57.703125 90.925792 
L 66.703125 90.925792 
" style="fill: none; stroke: #d62728; stroke-width: 1.5; stroke-linecap: square"/>
    </g>
    <g id="text_20">
     <!-- Eₐ = 90 kJ/mol -->
     <g transform="translate(73.903125 94.075792) scale(0.09 -0.09)">
      <defs>
       <path id="DejaVuSans-39" d="M 703 97 
L 703 672 
Q 941 559 1184 500 
Q 1428 441 1663 441 
Q 2288 441 2617 861 
Q 2947 1281 2994 2138 
Q 2813 1869 2534 1725 
Q 2256 1581 1919 1581 
Q 1219 1581 811 2004 
Q 403 2428 403 3163 
Q 403 3881 828 4315 
Q 1253 4750 1959 4750 
Q 2769 4750 3195 4129 
Q 3622 3509 3622 2328 
Q 3622 1225 3098 567 
Q 2575 -91 1691 -91 
Q 1453 -91 1209 -44 
Q 966 3 703 97 
z
M 1959 2075 
Q 2384 2075 2632 2365 
Q 2881 2656 2881 3163 
Q 2881 3666 2632 3958 
Q 2384 4250 1959 4250 
Q 1534 4250 1286 3958 
Q 1038 3666 1038 3163 
Q 1038 2656 1286 2365 
Q 1534 2075 1959 2075 
z
" transform="scale(0.015625)"/>
      </defs>
      <use xlink:href="#DejaVuSans-45"/>
      <use xlink:href="#DejaVuSans-2090" transform="translate(63.183594 0)"/>
      <use xlink:href="#DejaVuSans-20" transform="translate(102.34375 0)"/>
      <use xlink:href="#DejaVuSans-3d" transform="translate(134.130859 0)"/>
      <use xlink:href="#DejaVuSans-20" transform="translate(217.919922 0)"/>
      <use xlink:href="#DejaVuSans-39" transform="translate(249.707031 0)"/>
      <use xlink:href="#DejaVuSans-30" transform="translate(313.330078 0)"/>
      <use xlink:href="#DejaVuSans-20" transform="translate(376.953125 0)"/>
      <use xlink:href="#DejaVuSans-6b" transform="translate(408.740234 0)"/>
      <use xlink:href="#DejaVuSans-4a" transform="translate(466.650391 0)"/>
      <use xlink:href="#DejaVuSans-2f" transform="translate(496.142578 0)"/>
      <use xlink:href="#DejaVuSans-6d" transform="translate(529.833984 0)"/>
      <use xlink:href="#DejaVuSans-6f" transform="translate(627.246094 0)"/>
      <use xlink:href="#DejaVuSans-6c" transform="translate(688.427734 0)"/>
     </g>
    </g>
   </g>
  </g>
  <g id="axes_2">
   <g id="patch_6">
    <path d="M 510.282885 330.565145 
L 937.19952 330.565145 
L 937.19952 39.506261 
L 510.282885 39.506261 
z
" style="fill: #ffffff"/>
   </g>
   <g id="matplotlib.axis_3">
    <g id="xtick_9">
     <g id="line2d_36">
      <path d="M 530.746658 330.565145 
L 530.746658 39.506261 
" clip-path="url(#p026d71246f)" style="fill: none; stroke-dasharray: 2.96,1.28; stroke-dashoffset: 0; stroke: #b0b0b0; stroke-opacity: 0.3; stroke-width: 0.8"/>
     </g>
     <g id="line2d_37">
      <g>
       <use xlink:href="#m71bbce4e26" x="530.746658" y="330.565145" style="stroke: #000000; stroke-width: 0.8"/>
      </g>
     </g>
     <g id="text_21">
      <!-- −10 -->
      <g transform="translate(520.194314 345.163582) scale(0.1 -0.1)">
       <use xlink:href="#DejaVuSans-2212"/>
       <use xlink:href="#DejaVuSans-31" transform="translate(83.789062 0)"/>
       <use xlink:href="#DejaVuSans-30" transform="translate(147.412109 0)"/>
      </g>
     </g>
    </g>
    <g id="xtick_10">
     <g id="line2d_38">
      <path d="M 601.311391 330.565145 
L 601.311391 39.506261 
" clip-path="url(#p026d71246f)" style="fill: none; stroke-dasharray: 2.96,1.28; stroke-dashoffset: 0; stroke: #b0b0b0; stroke-opacity: 0.3; stroke-width: 0.8"/>
     </g>
     <g id="line2d_39">
      <g>
       <use xlink:href="#m71bbce4e26" x="601.311391" y="330.565145" style="stroke: #000000; stroke-width: 0.8"/>
      </g>
     </g>
     <g id="text_22">
      <!-- 0 -->
      <g transform="translate(598.130141 345.163582) scale(0.1 -0.1)">
       <use xlink:href="#DejaVuSans-30"/>
      </g>
     </g>
    </g>
    <g id="xtick_11">
     <g id="line2d_40">
      <path d="M 671.876124 330.565145 
L 671.876124 39.506261 
" clip-path="url(#p026d71246f)" style="fill: none; stroke-dasharray: 2.96,1.28; stroke-dashoffset: 0; stroke: #b0b0b0; stroke-opacity: 0.3; stroke-width: 0.8"/>
     </g>
     <g id="line2d_41">
      <g>
       <use xlink:href="#m71bbce4e26" x="671.876124" y="330.565145" style="stroke: #000000; stroke-width: 0.8"/>
      </g>
     </g>
     <g id="text_23">
      <!-- 10 -->
      <g transform="translate(665.513624 345.163582) scale(0.1 -0.1)">
       <use xlink:href="#DejaVuSans-31"/>
       <use xlink:href="#DejaVuSans-30" transform="translate(63.623047 0)"/>
      </g>
     </g>
    </g>
    <g id="xtick_12">
     <g id="line2d_42">
      <path d="M 742.440857 330.565145 
L 742.440857 39.506261 
" clip-path="url(#p026d71246f)" style="fill: none; stroke-dasharray: 2.96,1.28; stroke-dashoffset: 0; stroke: #b0b0b0; stroke-opacity: 0.3; stroke-width: 0.8"/>
     </g>
     <g id="line2d_43">
      <g>
       <use xlink:href="#m71bbce4e26" x="742.440857" y="330.565145" style="stroke: #000000; stroke-width: 0.8"/>
      </g>
     </g>
     <g id="text_24">
      <!-- 20 -->
      <g transform="translate(736.078357 345.163582) scale(0.1 -0.1)">
       <use xlink:href="#DejaVuSans-32"/>
       <use xlink:href="#DejaVuSans-30" transform="translate(63.623047 0)"/>
      </g>
     </g>
    </g>
    <g id="xtick_13">
     <g id="line2d_44">
      <path d="M 813.00559 330.565145 
L 813.00559 39.506261 
" clip-path="url(#p026d71246f)" style="fill: none; stroke-dasharray: 2.96,1.28; stroke-dashoffset: 0; stroke: #b0b0b0; stroke-opacity: 0.3; stroke-width: 0.8"/>
     </g>
     <g id="line2d_45">
      <g>
       <use xlink:href="#m71bbce4e26" x="813.00559" y="330.565145" style="stroke: #000000; stroke-width: 0.8"/>
      </g>
     </g>
     <g id="text_25">
      <!-- 30 -->
      <g transform="translate(806.64309 345.163582) scale(0.1 -0.1)">
       <use xlink:href="#DejaVuSans-33"/>
       <use xlink:href="#DejaVuSans-30" transform="translate(63.623047 0)"/>
      </g>
     </g>
    </g>
    <g id="xtick_14">
     <g id="line2d_46">
      <path d="M 883.570323 330.565145 
L 883.570323 39.506261 
" clip-path="url(#p026d71246f)" style="fill: none; stroke-dasharray: 2.96,1.28; stroke-dashoffset: 0; stroke: #b0b0b0; stroke-opacity: 0.3; stroke-width: 0.8"/>
     </g>
     <g id="line2d_47">
      <g>
       <use xlink:href="#m71bbce4e26" x="883.570323" y="330.565145" style="stroke: #000000; stroke-width: 0.8"/>
      </g>
     </g>
     <g id="text_26">
      <!-- 40 -->
      <g transform="translate(877.207823 345.163582) scale(0.1 -0.1)">
       <use xlink:href="#DejaVuSans-34"/>
       <use xlink:href="#DejaVuSans-30" transform="translate(63.623047 0)"/>
      </g>
     </g>
    </g>
    <g id="text_27">
     <!-- T_AI [°C] -->
     <g transform="translate(701.809952 358.841707) scale(0.1 -0.1)">
      <defs>
       <path id="DejaVuSans-b0" d="M 1600 4347 
Q 1350 4347 1178 4173 
Q 1006 4000 1006 3750 
Q 1006 3503 1178 3333 
Q 1350 3163 1600 3163 
Q 1850 3163 2022 3333 
Q 2194 3503 2194 3750 
Q 2194 3997 2020 4172 
Q 1847 4347 1600 4347 
z
M 1600 4750 
Q 1800 4750 1984 4673 
Q 2169 4597 2303 4453 
Q 2447 4313 2519 4134 
Q 2591 3956 2591 3750 
Q 2591 3338 2302 3052 
Q 2013 2766 1594 2766 
Q 1172 2766 890 3047 
Q 609 3328 609 3750 
Q 609 4169 896 4459 
Q 1184 4750 1600 4750 
z
" transform="scale(0.015625)"/>
       <path id="DejaVuSans-43" d="M 4122 4306 
L 4122 3641 
Q 3803 3938 3442 4084 
Q 3081 4231 2675 4231 
Q 1875 4231 1450 3742 
Q 1025 3253 1025 2328 
Q 1025 1406 1450 917 
Q 1875 428 2675 428 
Q 3081 428 3442 575 
Q 3803 722 4122 1019 
L 4122 359 
Q 3791 134 3420 21 
Q 3050 -91 2638 -91 
Q 1578 -91 968 557 
Q 359 1206 359 2328 
Q 359 3453 968 4101 
Q 1578 4750 2638 4750 
Q 3056 4750 3426 4639 
Q 3797 4528 4122 4306 
z
" transform="scale(0.015625)"/>
      </defs>
      <use xlink:href="#DejaVuSans-54"/>
      <use xlink:href="#DejaVuSans-5f" transform="translate(61.083984 0)"/>
      <use xlink:href="#DejaVuSans-41" transform="translate(111.083984 0)"/>
      <use xlink:href="#DejaVuSans-49" transform="translate(179.492188 0)"/>
      <use xlink:href="#DejaVuSans-20" transform="translate(208.984375 0)"/>
      <use xlink:href="#DejaVuSans-5b" transform="translate(240.771484 0)"/>
      <use xlink:href="#DejaVuSans-b0" transform="translate(279.785156 0)"/>
      <use xlink:href="#DejaVuSans-43" transform="translate(329.785156 0)"/>
      <use xlink:href="#DejaVuSans-5d" transform="translate(399.609375 0)"/>
     </g>
    </g>
   </g>
   <g id="matplotlib.axis_4">
    <g id="ytick_6">
     <g id="line2d_48">
      <path d="M 510.282885 318.767704 
L 937.19952 318.767704 
" clip-path="url(#p026d71246f)" style="fill: none; stroke-dasharray: 2.96,1.28; stroke-dashoffset: 0; stroke: #b0b0b0; stroke-opacity: 0.3; stroke-width: 0.8"/>
     </g>
     <g id="line2d_49">
      <g>
       <use xlink:href="#md0a9dd9d5e" x="510.282885" y="318.767704" style="stroke: #000000; stroke-width: 0.8"/>
      </g>
     </g>
     <g id="text_28">
      <!-- 0 -->
      <g transform="translate(496.920385 322.566923) scale(0.1 -0.1)">
       <use xlink:href="#DejaVuSans-30"/>
      </g>
     </g>
    </g>
    <g id="ytick_7">
     <g id="line2d_50">
      <path d="M 510.282885 267.79651 
L 937.19952 267.79651 
" clip-path="url(#p026d71246f)" style="fill: none; stroke-dasharray: 2.96,1.28; stroke-dashoffset: 0; stroke: #b0b0b0; stroke-opacity: 0.3; stroke-width: 0.8"/>
     </g>
     <g id="line2d_51">
      <g>
       <use xlink:href="#md0a9dd9d5e" x="510.282885" y="267.79651" style="stroke: #000000; stroke-width: 0.8"/>
      </g>
     </g>
     <g id="text_29">
      <!-- 10 -->
      <g transform="translate(490.557885 271.595729) scale(0.1 -0.1)">
       <use xlink:href="#DejaVuSans-31"/>
       <use xlink:href="#DejaVuSans-30" transform="translate(63.623047 0)"/>
      </g>
     </g>
    </g>
    <g id="ytick_8">
     <g id="line2d_52">
      <path d="M 510.282885 216.825316 
L 937.19952 216.825316 
" clip-path="url(#p026d71246f)" style="fill: none; stroke-dasharray: 2.96,1.28; stroke-dashoffset: 0; stroke: #b0b0b0; stroke-opacity: 0.3; stroke-width: 0.8"/>
     </g>
     <g id="line2d_53">
      <g>
       <use xlink:href="#md0a9dd9d5e" x="510.282885" y="216.825316" style="stroke: #000000; stroke-width: 0.8"/>
      </g>
     </g>
     <g id="text_30">
      <!-- 20 -->
      <g transform="translate(490.557885 220.624535) scale(0.1 -0.1)">
       <use xlink:href="#DejaVuSans-32"/>
       <use xlink:href="#DejaVuSans-30" transform="translate(63.623047 0)"/>
      </g>
     </g>
    </g>
    <g id="ytick_9">
     <g id="line2d_54">
      <path d="M 510.282885 165.854122 
L 937.19952 165.854122 
" clip-path="url(#p026d71246f)" style="fill: none; stroke-dasharray: 2.96,1.28; stroke-dashoffset: 0; stroke: #b0b0b0; stroke-opacity: 0.3; stroke-width: 0.8"/>
     </g>
     <g id="line2d_55">
      <g>
       <use xlink:href="#md0a9dd9d5e" x="510.282885" y="165.854122" style="stroke: #000000; stroke-width: 0.8"/>
      </g>
     </g>
     <g id="text_31">
      <!-- 30 -->
      <g transform="translate(490.557885 169.653341) scale(0.1 -0.1)">
       <use xlink:href="#DejaVuSans-33"/>
       <use xlink:href="#DejaVuSans-30" transform="translate(63.623047 0)"/>
      </g>
     </g>
    </g>
    <g id="ytick_10">
     <g id="line2d_56">
      <path d="M 510.282885 114.882928 
L 937.19952 114.882928 
" clip-path="url(#p026d71246f)" style="fill: none; stroke-dasharray: 2.96,1.28; stroke-dashoffset: 0; stroke: #b0b0b0; stroke-opacity: 0.3; stroke-width: 0.8"/>
     </g>
     <g id="line2d_57">
      <g>
       <use xlink:href="#md0a9dd9d5e" x="510.282885" y="114.882928" style="stroke: #000000; stroke-width: 0.8"/>
      </g>
     </g>
     <g id="text_32">
      <!-- 40 -->
      <g transform="translate(490.557885 118.682147) scale(0.1 -0.1)">
       <use xlink:href="#DejaVuSans-34"/>
       <use xlink:href="#DejaVuSans-30" transform="translate(63.623047 0)"/>
      </g>
     </g>
    </g>
    <g id="ytick_11">
     <g id="line2d_58">
      <path d="M 510.282885 63.911734 
L 937.19952 63.911734 
" clip-path="url(#p026d71246f)" style="fill: none; stroke-dasharray: 2.96,1.28; stroke-dashoffset: 0; stroke: #b0b0b0; stroke-opacity: 0.3; stroke-width: 0.8"/>
     </g>
     <g id="line2d_59">
      <g>
       <use xlink:href="#md0a9dd9d5e" x="510.282885" y="63.911734" style="stroke: #000000; stroke-width: 0.8"/>
      </g>
     </g>
     <g id="text_33">
      <!-- 50 -->
      <g transform="translate(490.557885 67.710953) scale(0.1 -0.1)">
       <use xlink:href="#DejaVuSans-35"/>
       <use xlink:href="#DejaVuSans-30" transform="translate(63.623047 0)"/>
      </g>
     </g>
    </g>
    <g id="text_34">
     <!-- Φ_T -->
     <g transform="translate(484.200072 194.525547) rotate(-90) scale(0.1 -0.1)">
      <use xlink:href="#DejaVuSans-3a6"/>
      <use xlink:href="#DejaVuSans-5f" transform="translate(78.710938 0)"/>
      <use xlink:href="#DejaVuSans-54" transform="translate(128.710938 0)"/>
     </g>
    </g>
   </g>
   <g id="line2d_60">
    <path d="M 529.688187 244.001469 
L 534.880241 248.622224 
L 540.072294 252.934039 
L 545.264348 256.959054 
L 550.456402 260.717723 
L 555.648456 264.228943 
L 560.84051 267.510187 
L 567.330578 271.312838 
L 573.820645 274.810238 
L 580.310712 278.028653 
L 586.80078 280.991942 
L 593.290847 283.721794 
L 599.780915 286.237933 
L 607.568996 289.000359 
L 615.357077 291.5088 
L 623.145157 293.788294 
L 632.231252 296.188107 
L 641.317346 298.338317 
L 650.403441 300.266753 
L 660.787549 302.230449 
L 671.171656 303.968462 
L 682.853778 305.688437 
L 694.535899 307.191991 
L 707.516034 308.64413 
L 721.794182 310.014826 
L 737.370344 311.282197 
L 754.244519 312.432238 
L 773.714722 313.524006 
L 794.482937 314.465577 
L 819.145194 315.349691 
L 846.403477 316.100928 
L 878.853814 316.767183 
L 917.794218 317.335196 
L 917.794218 317.335196 
" clip-path="url(#p026d71246f)" style="fill: none; stroke: #1f77b4; stroke-width: 1.5; stroke-linecap: square"/>
   </g>
   <g id="line2d_61">
    <path d="M 529.688187 174.799104 
L 533.582227 181.529851 
L 537.476267 187.919747 
L 541.370308 193.987317 
L 546.562362 201.60603 
L 551.754416 208.721237 
L 556.94647 215.368623 
L 562.138524 221.581178 
L 567.330578 227.389415 
L 572.522632 232.821569 
L 577.714686 237.903772 
L 582.906739 242.660223 
L 588.098793 247.113339 
L 593.290847 251.28389 
L 598.482901 255.191134 
L 603.674955 258.852927 
L 608.867009 262.285836 
L 615.357077 266.278418 
L 621.847144 269.964939 
L 628.337211 273.370592 
L 634.827279 276.51836 
L 641.317346 279.429221 
L 647.807414 282.122334 
L 655.595495 285.091186 
L 663.383575 287.799037 
L 671.171656 290.270533 
L 678.959737 292.52784 
L 688.045832 294.917158 
L 697.131926 297.070314 
L 706.21802 299.012384 
L 716.602128 301.001829 
L 726.986236 302.773766 
L 738.668358 304.538882 
L 751.648492 306.253325 
L 764.628627 307.743633 
L 778.906776 309.161488 
L 794.482937 310.483601 
L 811.357113 311.694156 
L 830.827315 312.854703 
L 851.595531 313.866262 
L 874.959773 314.782117 
L 902.218057 315.619452 
L 917.794218 316.00929 
L 917.794218 316.00929 
" clip-path="url(#p026d71246f)" style="fill: none; stroke: #ff7f0e; stroke-width: 1.5; stroke-linecap: square"/>
   </g>
   <g id="line2d_62">
    <path d="M 529.688187 52.736211 
L 533.582227 65.17358 
L 537.476267 76.981111 
L 541.370308 88.193032 
L 545.264348 98.841592 
L 549.158389 108.957177 
L 553.052429 118.568429 
L 556.94647 127.702347 
L 560.84051 136.38439 
L 564.734551 144.63857 
L 568.628591 152.487537 
L 572.522632 159.952665 
L 576.416672 167.054124 
L 581.608726 175.98978 
L 586.80078 184.354859 
L 591.992834 192.188479 
L 597.184888 199.526903 
L 602.376942 206.403754 
L 607.568996 212.850222 
L 612.76105 218.895251 
L 617.953104 224.565708 
L 623.145157 229.886542 
L 628.337211 234.880929 
L 633.529265 239.570407 
L 638.721319 243.974997 
L 643.913373 248.113318 
L 649.105427 252.002687 
L 654.297481 255.659222 
L 660.787549 259.925225 
L 667.277616 263.877844 
L 673.767683 267.541841 
L 680.257751 270.93989 
L 686.747818 274.092761 
L 693.237886 277.019495 
L 701.025967 280.257558 
L 708.814047 283.222512 
L 716.602128 285.939141 
L 724.390209 288.429829 
L 733.476304 291.076945 
L 742.562398 293.472811 
L 751.648492 295.643085 
L 762.0326 297.87638 
L 772.416708 299.875011 
L 784.09883 301.875881 
L 795.780951 303.646218 
L 808.761086 305.377502 
L 823.039234 307.033983 
L 837.317382 308.467605 
L 852.893544 309.815129 
L 869.767719 311.059469 
L 889.237922 312.263514 
L 910.006138 313.323557 
L 917.794218 313.670585 
L 917.794218 313.670585 
" clip-path="url(#p026d71246f)" style="fill: none; stroke: #2ca02c; stroke-width: 1.5; stroke-linecap: square"/>
   </g>
   <g id="line2d_63">
    <path d="M 510.282885 313.670585 
L 937.19952 313.670585 
" clip-path="url(#p026d71246f)" style="fill: none; stroke-dasharray: 3.33,1.44; stroke-dashoffset: 0; stroke: #808080; stroke-width: 0.9"/>
   </g>
   <g id="patch_7">
    <path d="M 510.282885 330.565145 
L 510.282885 39.506261 
" style="fill: none; stroke: #000000; stroke-width: 0.8; stroke-linejoin: miter; stroke-linecap: square"/>
   </g>
   <g id="patch_8">
    <path d="M 510.282885 330.565145 
L 937.19952 330.565145 
" style="fill: none; stroke: #000000; stroke-width: 0.8; stroke-linejoin: miter; stroke-linecap: square"/>
   </g>
   <g id="text_35">
    <!-- Φ_T vs. T_AI  (Eₐ = 50 kJ/mol) -->
    <g transform="translate(634.736593 33.506261) scale(0.11 -0.11)">
     <defs>
      <path id="DejaVuSans-Bold-41" d="M 3419 850 
L 1538 850 
L 1241 0 
L 31 0 
L 1759 4666 
L 3194 4666 
L 4922 0 
L 3713 0 
L 3419 850 
z
M 1838 1716 
L 3116 1716 
L 2478 3572 
L 1838 1716 
z
" transform="scale(0.015625)"/>
      <path id="DejaVuSans-Bold-49" d="M 588 4666 
L 1791 4666 
L 1791 0 
L 588 0 
L 588 4666 
z
" transform="scale(0.015625)"/>
      <path id="DejaVuSans-Bold-45" d="M 588 4666 
L 3834 4666 
L 3834 3756 
L 1791 3756 
L 1791 2888 
L 3713 2888 
L 3713 1978 
L 1791 1978 
L 1791 909 
L 3903 909 
L 3903 0 
L 588 0 
L 588 4666 
z
" transform="scale(0.015625)"/>
      <path id="DejaVuSans-Bold-2090" d="M 1494 857 
Q 1275 857 1162 791 
Q 1050 726 1050 594 
Q 1050 476 1141 410 
Q 1231 341 1391 341 
Q 1588 341 1725 469 
Q 1859 594 1859 785 
L 1859 857 
L 1494 857 
z
M 2572 1094 
L 2572 -24 
L 1859 -24 
L 1859 266 
Q 1719 88 1541 7 
Q 1366 -74 1109 -74 
Q 769 -74 553 104 
Q 341 279 341 563 
Q 341 907 606 1069 
Q 875 1232 1444 1232 
L 1859 1232 
L 1859 1279 
Q 1859 1429 1728 1497 
Q 1597 1566 1316 1566 
Q 1091 1566 897 1526 
Q 700 1485 534 1407 
L 534 1882 
Q 759 1932 987 1957 
Q 1216 1982 1444 1982 
Q 2041 1982 2306 1772 
Q 2572 1563 2572 1094 
z
" transform="scale(0.015625)"/>
      <path id="DejaVuSans-Bold-30" d="M 2944 2338 
Q 2944 3213 2780 3570 
Q 2616 3928 2228 3928 
Q 1841 3928 1675 3570 
Q 1509 3213 1509 2338 
Q 1509 1453 1675 1090 
Q 1841 728 2228 728 
Q 2613 728 2778 1090 
Q 2944 1453 2944 2338 
z
M 4147 2328 
Q 4147 1169 3647 539 
Q 3147 -91 2228 -91 
Q 1306 -91 806 539 
Q 306 1169 306 2328 
Q 306 3491 806 4120 
Q 1306 4750 2228 4750 
Q 3147 4750 3647 4120 
Q 4147 3491 4147 2328 
z
" transform="scale(0.015625)"/>
      <path id="DejaVuSans-Bold-6b" d="M 538 4863 
L 1656 4863 
L 1656 2216 
L 2944 3500 
L 4244 3500 
L 2534 1894 
L 4378 0 
L 3022 0 
L 1656 1459 
L 1656 0 
L 538 0 
L 538 4863 
z
" transform="scale(0.015625)"/>
      <path id="DejaVuSans-Bold-4a" d="M 588 4666 
L 1791 4666 
L 1791 453 
Q 1791 -419 1317 -850 
Q 844 -1281 -116 -1281 
L -359 -1281 
L -359 -372 
L -172 -372 
Q 203 -372 395 -162 
Q 588 47 588 453 
L 588 4666 
z
" transform="scale(0.015625)"/>
      <path id="DejaVuSans-Bold-2f" d="M 1644 4666 
L 2338 4666 
L 691 -594 
L 0 -594 
L 1644 4666 
z
" transform="scale(0.015625)"/>
      <path id="DejaVuSans-Bold-6d" d="M 3781 2919 
Q 3994 3244 4286 3414 
Q 4578 3584 4928 3584 
Q 5531 3584 5847 3212 
Q 6163 2841 6163 2131 
L 6163 0 
L 5038 0 
L 5038 1825 
Q 5041 1866 5042 1909 
Q 5044 1953 5044 2034 
Q 5044 2406 4934 2573 
Q 4825 2741 4581 2741 
Q 4263 2741 4089 2478 
Q 3916 2216 3909 1719 
L 3909 0 
L 2784 0 
L 2784 1825 
Q 2784 2406 2684 2573 
Q 2584 2741 2328 2741 
Q 2006 2741 1831 2477 
Q 1656 2213 1656 1722 
L 1656 0 
L 531 0 
L 531 3500 
L 1656 3500 
L 1656 2988 
Q 1863 3284 2130 3434 
Q 2397 3584 2719 3584 
Q 3081 3584 3359 3409 
Q 3638 3234 3781 2919 
z
" transform="scale(0.015625)"/>
      <path id="DejaVuSans-Bold-6f" d="M 2203 2784 
Q 1831 2784 1636 2517 
Q 1441 2250 1441 1747 
Q 1441 1244 1636 976 
Q 1831 709 2203 709 
Q 2569 709 2762 976 
Q 2956 1244 2956 1747 
Q 2956 2250 2762 2517 
Q 2569 2784 2203 2784 
z
M 2203 3584 
Q 3106 3584 3614 3096 
Q 4122 2609 4122 1747 
Q 4122 884 3614 396 
Q 3106 -91 2203 -91 
Q 1297 -91 786 396 
Q 275 884 275 1747 
Q 275 2609 786 3096 
Q 1297 3584 2203 3584 
z
" transform="scale(0.015625)"/>
      <path id="DejaVuSans-Bold-6c" d="M 538 4863 
L 1656 4863 
L 1656 0 
L 538 0 
L 538 4863 
z
" transform="scale(0.015625)"/>
     </defs>
     <use xlink:href="#DejaVuSans-Bold-3a6"/>
     <use xlink:href="#DejaVuSans-Bold-5f" transform="translate(85.009766 0)"/>
     <use xlink:href="#DejaVuSans-Bold-54" transform="translate(135.009766 0)"/>
     <use xlink:href="#DejaVuSans-Bold-20" transform="translate(203.222656 0)"/>
     <use xlink:href="#DejaVuSans-Bold-76" transform="translate(238.037109 0)"/>
     <use xlink:href="#DejaVuSans-Bold-73" transform="translate(303.222656 0)"/>
     <use xlink:href="#DejaVuSans-Bold-2e" transform="translate(362.744141 0)"/>
     <use xlink:href="#DejaVuSans-Bold-20" transform="translate(400.732422 0)"/>
     <use xlink:href="#DejaVuSans-Bold-54" transform="translate(435.546875 0)"/>
     <use xlink:href="#DejaVuSans-Bold-5f" transform="translate(503.759766 0)"/>
     <use xlink:href="#DejaVuSans-Bold-41" transform="translate(553.759766 0)"/>
     <use xlink:href="#DejaVuSans-Bold-49" transform="translate(631.152344 0)"/>
     <use xlink:href="#DejaVuSans-Bold-20" transform="translate(668.359375 0)"/>
     <use xlink:href="#DejaVuSans-Bold-20" transform="translate(703.173828 0)"/>
     <use xlink:href="#DejaVuSans-Bold-28" transform="translate(737.988281 0)"/>
     <use xlink:href="#DejaVuSans-Bold-45" transform="translate(783.691406 0)"/>
     <use xlink:href="#DejaVuSans-Bold-2090" transform="translate(852.001953 0)"/>
     <use xlink:href="#DejaVuSans-Bold-20" transform="translate(897.753906 0)"/>
     <use xlink:href="#DejaVuSans-Bold-3d" transform="translate(932.568359 0)"/>
     <use xlink:href="#DejaVuSans-Bold-20" transform="translate(1016.357422 0)"/>
     <use xlink:href="#DejaVuSans-Bold-35" transform="translate(1051.171875 0)"/>
     <use xlink:href="#DejaVuSans-Bold-30" transform="translate(1120.751953 0)"/>
     <use xlink:href="#DejaVuSans-Bold-20" transform="translate(1190.332031 0)"/>
     <use xlink:href="#DejaVuSans-Bold-6b" transform="translate(1225.146484 0)"/>
     <use xlink:href="#DejaVuSans-Bold-4a" transform="translate(1291.650391 0)"/>
     <use xlink:href="#DejaVuSans-Bold-2f" transform="translate(1328.857422 0)"/>
     <use xlink:href="#DejaVuSans-Bold-6d" transform="translate(1365.380859 0)"/>
     <use xlink:href="#DejaVuSans-Bold-6f" transform="translate(1469.580078 0)"/>
     <use xlink:href="#DejaVuSans-Bold-6c" transform="translate(1538.28125 0)"/>
     <use xlink:href="#DejaVuSans-Bold-29" transform="translate(1572.558594 0)"/>
    </g>
   </g>
   <g id="legend_2">
    <g id="patch_9">
     <path d="M 829.033582 87.088136 
L 930.89952 87.088136 
Q 932.69952 87.088136 932.69952 85.288136 
L 932.69952 45.806261 
Q 932.69952 44.006261 930.89952 44.006261 
L 829.033582 44.006261 
Q 827.233582 44.006261 827.233582 45.806261 
L 827.233582 85.288136 
Q 827.233582 87.088136 829.033582 87.088136 
z
" style="fill: #ffffff; opacity: 0.85; stroke: #cccccc; stroke-linejoin: miter"/>
    </g>
    <g id="line2d_64">
     <path d="M 830.833582 51.294855 
L 839.833582 51.294855 
L 848.833582 51.294855 
" style="fill: none; stroke: #1f77b4; stroke-width: 1.5; stroke-linecap: square"/>
    </g>
    <g id="text_36">
     <!-- T_static = 25 °C -->
     <g transform="translate(856.033582 54.444855) scale(0.09 -0.09)">
      <use xlink:href="#DejaVuSans-54"/>
      <use xlink:href="#DejaVuSans-5f" transform="translate(61.083984 0)"/>
      <use xlink:href="#DejaVuSans-73" transform="translate(111.083984 0)"/>
      <use xlink:href="#DejaVuSans-74" transform="translate(163.183594 0)"/>
      <use xlink:href="#DejaVuSans-61" transform="translate(202.392578 0)"/>
      <use xlink:href="#DejaVuSans-74" transform="translate(263.671875 0)"/>
      <use xlink:href="#DejaVuSans-69" transform="translate(302.880859 0)"/>
      <use xlink:href="#DejaVuSans-63" transform="translate(330.664062 0)"/>
      <use xlink:href="#DejaVuSans-20" transform="translate(385.644531 0)"/>
      <use xlink:href="#DejaVuSans-3d" transform="translate(417.431641 0)"/>
      <use xlink:href="#DejaVuSans-20" transform="translate(501.220703 0)"/>
      <use xlink:href="#DejaVuSans-32" transform="translate(533.007812 0)"/>
      <use xlink:href="#DejaVuSans-35" transform="translate(596.630859 0)"/>
      <use xlink:href="#DejaVuSans-20" transform="translate(660.253906 0)"/>
      <use xlink:href="#DejaVuSans-b0" transform="translate(692.041016 0)"/>
      <use xlink:href="#DejaVuSans-43" transform="translate(742.041016 0)"/>
     </g>
    </g>
    <g id="line2d_65">
     <path d="M 830.833582 64.75548 
L 839.833582 64.75548 
L 848.833582 64.75548 
" style="fill: none; stroke: #ff7f0e; stroke-width: 1.5; stroke-linecap: square"/>
    </g>
    <g id="text_37">
     <!-- T_static = 35 °C -->
     <g transform="translate(856.033582 67.90548) scale(0.09 -0.09)">
      <use xlink:href="#DejaVuSans-54"/>
      <use xlink:href="#DejaVuSans-5f" transform="translate(61.083984 0)"/>
      <use xlink:href="#DejaVuSans-73" transform="translate(111.083984 0)"/>
      <use xlink:href="#DejaVuSans-74" transform="translate(163.183594 0)"/>
      <use xlink:href="#DejaVuSans-61" transform="translate(202.392578 0)"/>
      <use xlink:href="#DejaVuSans-74" transform="translate(263.671875 0)"/>
      <use xlink:href="#DejaVuSans-69" transform="translate(302.880859 0)"/>
      <use xlink:href="#DejaVuSans-63" transform="translate(330.664062 0)"/>
      <use xlink:href="#DejaVuSans-20" transform="translate(385.644531 0)"/>
      <use xlink:href="#DejaVuSans-3d" transform="translate(417.431641 0)"/>
      <use xlink:href="#DejaVuSans-20" transform="translate(501.220703 0)"/>
      <use xlink:href="#DejaVuSans-33" transform="translate(533.007812 0)"/>
      <use xlink:href="#DejaVuSans-35" transform="translate(596.630859 0)"/>
      <use xlink:href="#DejaVuSans-20" transform="translate(660.253906 0)"/>
      <use xlink:href="#DejaVuSans-b0" transform="translate(692.041016 0)"/>
      <use xlink:href="#DejaVuSans-43" transform="translate(742.041016 0)"/>
     </g>
    </g>
    <g id="line2d_66">
     <path d="M 830.833582 78.216105 
L 839.833582 78.216105 
L 848.833582 78.216105 
" style="fill: none; stroke: #2ca02c; stroke-width: 1.5; stroke-linecap: square"/>
    </g>
    <g id="text_38">
     <!-- T_static = 45 °C -->
     <g transform="translate(856.033582 81.366105) scale(0.09 -0.09)">
      <use xlink:href="#DejaVuSans-54"/>
      <use xlink:href="#DejaVuSans-5f" transform="translate(61.083984 0)"/>
      <use xlink:href="#DejaVuSans-73" transform="translate(111.083984 0)"/>
      <use xlink:href="#DejaVuSans-74" transform="translate(163.183594 0)"/>
      <use xlink:href="#DejaVuSans-61" transform="translate(202.392578 0)"/>
      <use xlink:href="#DejaVuSans-74" transform="translate(263.671875 0)"/>
      <use xlink:href="#DejaVuSans-69" transform="translate(302.880859 0)"/>
      <use xlink:href="#DejaVuSans-63" transform="translate(330.664062 0)"/>
      <use xlink:href="#DejaVuSans-20" transform="translate(385.644531 0)"/>
      <use xlink:href="#DejaVuSans-3d" transform="translate(417.431641 0)"/>
      <use xlink:href="#DejaVuSans-20" transform="translate(501.220703 0)"/>
      <use xlink:href="#DejaVuSans-34" transform="translate(533.007812 0)"/>
      <use xlink:href="#DejaVuSans-35" transform="translate(596.630859 0)"/>
      <use xlink:href="#DejaVuSans-20" transform="translate(660.253906 0)"/>
      <use xlink:href="#DejaVuSans-b0" transform="translate(692.041016 0)"/>
      <use xlink:href="#DejaVuSans-43" transform="translate(742.041016 0)"/>
     </g>
    </g>
   </g>
  </g>
  <g id="text_39">
   <!-- Exp 04 – Thermischer Verbesserungsfaktor Φ_T -->
   <g transform="translate(312.93726 16.318125) scale(0.12 -0.12)">
    <defs>
     <path id="DejaVuSans-Bold-78" d="M 1422 1791 
L 159 3500 
L 1344 3500 
L 2059 2463 
L 2784 3500 
L 3969 3500 
L 2706 1797 
L 4031 0 
L 2847 0 
L 2059 1106 
L 1281 0 
L 97 0 
L 1422 1791 
z
" transform="scale(0.015625)"/>
     <path id="DejaVuSans-Bold-70" d="M 1656 506 
L 1656 -1331 
L 538 -1331 
L 538 3500 
L 1656 3500 
L 1656 2988 
Q 1888 3294 2169 3439 
Q 2450 3584 2816 3584 
Q 3463 3584 3878 3070 
Q 4294 2556 4294 1747 
Q 4294 938 3878 423 
Q 3463 -91 2816 -91 
Q 2450 -91 2169 54 
Q 1888 200 1656 506 
z
M 2400 2772 
Q 2041 2772 1848 2508 
Q 1656 2244 1656 1747 
Q 1656 1250 1848 986 
Q 2041 722 2400 722 
Q 2759 722 2948 984 
Q 3138 1247 3138 1747 
Q 3138 2247 2948 2509 
Q 2759 2772 2400 2772 
z
" transform="scale(0.015625)"/>
     <path id="DejaVuSans-Bold-34" d="M 2356 3675 
L 1038 1722 
L 2356 1722 
L 2356 3675 
z
M 2156 4666 
L 3494 4666 
L 3494 1722 
L 4159 1722 
L 4159 850 
L 3494 850 
L 3494 0 
L 2356 0 
L 2356 850 
L 288 850 
L 288 1881 
L 2156 4666 
z
" transform="scale(0.015625)"/>
     <path id="DejaVuSans-Bold-2013" d="M 344 2156 
L 2856 2156 
L 2856 1350 
L 344 1350 
L 344 2156 
z
" transform="scale(0.015625)"/>
     <path id="DejaVuSans-Bold-68" d="M 4056 2131 
L 4056 0 
L 2931 0 
L 2931 347 
L 2931 1625 
Q 2931 2084 2911 2256 
Q 2891 2428 2841 2509 
Q 2775 2619 2662 2680 
Q 2550 2741 2406 2741 
Q 2056 2741 1856 2470 
Q 1656 2200 1656 1722 
L 1656 0 
L 538 0 
L 538 4863 
L 1656 4863 
L 1656 2988 
Q 1909 3294 2193 3439 
Q 2478 3584 2822 3584 
Q 3428 3584 3742 3212 
Q 4056 2841 4056 2131 
z
" transform="scale(0.015625)"/>
     <path id="DejaVuSans-Bold-65" d="M 4031 1759 
L 4031 1441 
L 1416 1441 
Q 1456 1047 1700 850 
Q 1944 653 2381 653 
Q 2734 653 3104 758 
Q 3475 863 3866 1075 
L 3866 213 
Q 3469 63 3072 -14 
Q 2675 -91 2278 -91 
Q 1328 -91 801 392 
Q 275 875 275 1747 
Q 275 2603 792 3093 
Q 1309 3584 2216 3584 
Q 3041 3584 3536 3087 
Q 4031 2591 4031 1759 
z
M 2881 2131 
Q 2881 2450 2695 2645 
Q 2509 2841 2209 2841 
Q 1884 2841 1681 2658 
Q 1478 2475 1428 2131 
L 2881 2131 
z
" transform="scale(0.015625)"/>
     <path id="DejaVuSans-Bold-72" d="M 3138 2547 
Q 2991 2616 2845 2648 
Q 2700 2681 2553 2681 
Q 2122 2681 1889 2404 
Q 1656 2128 1656 1613 
L 1656 0 
L 538 0 
L 538 3500 
L 1656 3500 
L 1656 2925 
Q 1872 3269 2151 3426 
Q 2431 3584 2822 3584 
Q 2878 3584 2943 3579 
Q 3009 3575 3134 3559 
L 3138 2547 
z
" transform="scale(0.015625)"/>
     <path id="DejaVuSans-Bold-56" d="M 31 4666 
L 1241 4666 
L 2478 1222 
L 3713 4666 
L 4922 4666 
L 3194 0 
L 1759 0 
L 31 4666 
z
" transform="scale(0.015625)"/>
     <path id="DejaVuSans-Bold-62" d="M 2400 722 
Q 2759 722 2948 984 
Q 3138 1247 3138 1747 
Q 3138 2247 2948 2509 
Q 2759 2772 2400 2772 
Q 2041 2772 1848 2508 
Q 1656 2244 1656 1747 
Q 1656 1250 1848 986 
Q 2041 722 2400 722 
z
M 1656 2988 
Q 1888 3294 2169 3439 
Q 2450 3584 2816 3584 
Q 3463 3584 3878 3070 
Q 4294 2556 4294 1747 
Q 4294 938 3878 423 
Q 3463 -91 2816 -91 
Q 2450 -91 2169 54 
Q 1888 200 1656 506 
L 1656 0 
L 538 0 
L 538 4863 
L 1656 4863 
L 1656 2988 
z
" transform="scale(0.015625)"/>
     <path id="DejaVuSans-Bold-75" d="M 500 1363 
L 500 3500 
L 1625 3500 
L 1625 3150 
Q 1625 2866 1622 2436 
Q 1619 2006 1619 1863 
Q 1619 1441 1641 1255 
Q 1663 1069 1716 984 
Q 1784 875 1895 815 
Q 2006 756 2150 756 
Q 2500 756 2700 1025 
Q 2900 1294 2900 1772 
L 2900 3500 
L 4019 3500 
L 4019 0 
L 2900 0 
L 2900 506 
Q 2647 200 2364 54 
Q 2081 -91 1741 -91 
Q 1134 -91 817 281 
Q 500 653 500 1363 
z
" transform="scale(0.015625)"/>
     <path id="DejaVuSans-Bold-6e" d="M 4056 2131 
L 4056 0 
L 2931 0 
L 2931 347 
L 2931 1631 
Q 2931 2084 2911 2256 
Q 2891 2428 2841 2509 
Q 2775 2619 2662 2680 
Q 2550 2741 2406 2741 
Q 2056 2741 1856 2470 
Q 1656 2200 1656 1722 
L 1656 0 
L 538 0 
L 538 3500 
L 1656 3500 
L 1656 2988 
Q 1909 3294 2193 3439 
Q 2478 3584 2822 3584 
Q 3428 3584 3742 3212 
Q 4056 2841 4056 2131 
z
" transform="scale(0.015625)"/>
     <path id="DejaVuSans-Bold-67" d="M 2919 594 
Q 2688 288 2409 144 
Q 2131 0 1766 0 
Q 1125 0 706 504 
Q 288 1009 288 1791 
Q 288 2575 706 3076 
Q 1125 3578 1766 3578 
Q 2131 3578 2409 3434 
Q 2688 3291 2919 2981 
L 2919 3500 
L 4044 3500 
L 4044 353 
Q 4044 -491 3511 -936 
Q 2978 -1381 1966 -1381 
Q 1638 -1381 1331 -1331 
Q 1025 -1281 716 -1178 
L 716 -306 
Q 1009 -475 1290 -558 
Q 1572 -641 1856 -641 
Q 2406 -641 2662 -400 
Q 2919 -159 2919 353 
L 2919 594 
z
M 2181 2772 
Q 1834 2772 1640 2515 
Q 1447 2259 1447 1791 
Q 1447 1309 1634 1061 
Q 1822 813 2181 813 
Q 2531 813 2725 1069 
Q 2919 1325 2919 1791 
Q 2919 2259 2725 2515 
Q 2531 2772 2181 2772 
z
" transform="scale(0.015625)"/>
     <path id="DejaVuSans-Bold-66" d="M 2841 4863 
L 2841 4128 
L 2222 4128 
Q 1984 4128 1890 4042 
Q 1797 3956 1797 3744 
L 1797 3500 
L 2753 3500 
L 2753 2700 
L 1797 2700 
L 1797 0 
L 678 0 
L 678 2700 
L 122 2700 
L 122 3500 
L 678 3500 
L 678 3744 
Q 678 4316 997 4589 
Q 1316 4863 1984 4863 
L 2841 4863 
z
" transform="scale(0.015625)"/>
    </defs>
    <use xlink:href="#DejaVuSans-Bold-45"/>
    <use xlink:href="#DejaVuSans-Bold-78" transform="translate(68.310547 0)"/>
    <use xlink:href="#DejaVuSans-Bold-70" transform="translate(132.8125 0)"/>
    <use xlink:href="#DejaVuSans-Bold-20" transform="translate(204.394531 0)"/>
    <use xlink:href="#DejaVuSans-Bold-30" transform="translate(239.208984 0)"/>
    <use xlink:href="#DejaVuSans-Bold-34" transform="translate(308.789062 0)"/>
    <use xlink:href="#DejaVuSans-Bold-20" transform="translate(378.369141 0)"/>
    <use xlink:href="#DejaVuSans-Bold-2013" transform="translate(413.183594 0)"/>
    <use xlink:href="#DejaVuSans-Bold-20" transform="translate(463.183594 0)"/>
    <use xlink:href="#DejaVuSans-Bold-54" transform="translate(497.998047 0)"/>
    <use xlink:href="#DejaVuSans-Bold-68" transform="translate(566.210938 0)"/>
    <use xlink:href="#DejaVuSans-Bold-65" transform="translate(637.402344 0)"/>
    <use xlink:href="#DejaVuSans-Bold-72" transform="translate(705.224609 0)"/>
    <use xlink:href="#DejaVuSans-Bold-6d" transform="translate(754.541016 0)"/>
    <use xlink:href="#DejaVuSans-Bold-69" transform="translate(858.740234 0)"/>
    <use xlink:href="#DejaVuSans-Bold-73" transform="translate(893.017578 0)"/>
    <use xlink:href="#DejaVuSans-Bold-63" transform="translate(952.539062 0)"/>
    <use xlink:href="#DejaVuSans-Bold-68" transform="translate(1011.816406 0)"/>
    <use xlink:href="#DejaVuSans-Bold-65" transform="translate(1083.007812 0)"/>
    <use xlink:href="#DejaVuSans-Bold-72" transform="translate(1150.830078 0)"/>
    <use xlink:href="#DejaVuSans-Bold-20" transform="translate(1200.146484 0)"/>
    <use xlink:href="#DejaVuSans-Bold-56" transform="translate(1234.960938 0)"/>
    <use xlink:href="#DejaVuSans-Bold-65" transform="translate(1306.853516 0)"/>
    <use xlink:href="#DejaVuSans-Bold-72" transform="translate(1374.675781 0)"/>
    <use xlink:href="#DejaVuSans-Bold-62" transform="translate(1423.992188 0)"/>
    <use xlink:href="#DejaVuSans-Bold-65" transform="translate(1495.574219 0)"/>
    <use xlink:href="#DejaVuSans-Bold-73" transform="translate(1563.396484 0)"/>
    <use xlink:href="#DejaVuSans-Bold-73" transform="translate(1622.917969 0)"/>
    <use xlink:href="#DejaVuSans-Bold-65" transform="translate(1682.439453 0)"/>
    <use xlink:href="#DejaVuSans-Bold-72" transform="translate(1750.261719 0)"/>
    <use xlink:href="#DejaVuSans-Bold-75" transform="translate(1799.578125 0)"/>
    <use xlink:href="#DejaVuSans-Bold-6e" transform="translate(1870.769531 0)"/>
    <use xlink:href="#DejaVuSans-Bold-67" transform="translate(1941.960938 0)"/>
    <use xlink:href="#DejaVuSans-Bold-73" transform="translate(2013.542969 0)"/>
    <use xlink:href="#DejaVuSans-Bold-66" transform="translate(2073.064453 0)"/>
    <use xlink:href="#DejaVuSans-Bold-61" transform="translate(2116.570312 0)"/>
    <use xlink:href="#DejaVuSans-Bold-6b" transform="translate(2184.050781 0)"/>
    <use xlink:href="#DejaVuSans-Bold-74" transform="translate(2250.554688 0)"/>
    <use xlink:href="#DejaVuSans-Bold-6f" transform="translate(2298.357422 0)"/>
    <use xlink:href="#DejaVuSans-Bold-72" transform="translate(2367.058594 0)"/>
    <use xlink:href="#DejaVuSans-Bold-20" transform="translate(2416.375 0)"/>
    <use xlink:href="#DejaVuSans-Bold-3a6" transform="translate(2451.189453 0)"/>
    <use xlink:href="#DejaVuSans-Bold-5f" transform="translate(2536.199219 0)"/>
    <use xlink:href="#DejaVuSans-Bold-54" transform="translate(2586.199219 0)"/>
   </g>
  </g>
 </g>
 <defs>
  <clipPath id="p314afa3e10">
   <rect x="40.603125" y="39.506261" width="426.916635" height="291.058884"/>
  </clipPath>
  <clipPath id="p026d71246f">
   <rect x="510.282885" y="39.506261" width="426.916635" height="291.058884"/>
  </clipPath>
 </defs>
</svg>
