<?xml version="1.0" encoding="utf-8" standalone="no"?>
<!DOCTYPE svg PUBLIC "-//W3C//DTD SVG 1.1//EN"
  "http://www.w3.org/Graphics/SVG/1.1/DTD/svg11.dtd">
<svg xmlns:xlink="http://www.w3.org/1999/xlink" width="944.39952pt" height="368.39952pt" viewBox="0 0 944.39952 368.39952" xmlns="http://www.w3.org/2000/svg" version="1.1">
 <metadata>
  <rdf:RDF xmlns:dc="http://purl.org/dc/elements/1.1/" xmlns:cc="http://creativecommons.org/ns#" xmlns:rdf="http://www.w3.org/1999/02/22-rdf-syntax-ns#">
   <cc:Work>
    <dc:type rdf:resource="http://purl.org/dc/dcmitype/StillImage"/>
    <dc:date>2026-03-08T05:20:57.409718</dc:date>
    <dc:format>image/svg+xml</dc:format>
    <dc:creator>
     <cc:Agent>
      <dc:title>Matplotlib v3.10.8, https://matplotlib.org/</dc:title>
     </cc:Agent>
    </dc:creator>
   </cc:Work>
  </rdf:RDF>
 </metadata>
 <defs>
  <style type="text/css">*{stroke-linejoin: round; stroke-linecap: butt}</style>
 </defs>
 <g id="figure_1">
  <g id="patch_1">
   <path d="M 0 368.39952 
L 944.39952 368.39952 
L 944.39952 0 
L 0 0 
z
" style="fill: #ffffff"/>
  </g>
  <g id="axes_1">
   <g id="patch_2">
    <path d="M 51.378125 330.84327 
L 468.136947 330.84327 
L 468.136947 39.266261 
L 51.378125 39.266261 
z
" style="fill: #ffffff"/>
   </g>
   <g id="matplotlib.axis_1">
    <g id="xtick_1">
     <g id="line2d_1">
      <path d="M 115.563441 330.84327 
L 115.563441 39.266261 
" clip-path="url(#pdee3f39f43)" style="fill: none; stroke-dasharray: 2.96,1.28; stroke-dashoffset: 0; stroke: #b0b0b0; stroke-opacity: 0.3; stroke-width: 0.8"/>
     </g>
     <g id="line2d_2">
      <defs>
       <path id="m820ef0aebc" d="M 0 0 
L 0 3.5 
" style="stroke: #000000; stroke-width: 0.8"/>
      </defs>
      <g>
       <use xlink:href="#m820ef0aebc" x="115.563441" y="330.84327" style="stroke: #000000; stroke-width: 0.8"/>
      </g>
     </g>
     <g id="text_1">
      <!-- 0 -->
      <g transform="translate(112.382191 345.441707) scale(0.1 -0.1)">
       <defs>
        <path id="DejaVuSans-30" d="M 2034 4250 
Q 1547 4250 1301 3770 
Q 1056 3291 1056 2328 
Q 1056 1369 1301 889 
Q 1547 409 2034 409 
Q 2525 409 2770 889 
Q 3016 1369 3016 2328 
Q 3016 3291 2770 3770 
Q 2525 4250 2034 4250 
z
M 2034 4750 
Q 2819 4750 3233 4129 
Q 3647 3509 3647 2328 
Q 3647 1150 3233 529 
Q 2819 -91 2034 -91 
Q 1250 -91 836 529 
Q 422 1150 422 2328 
Q 422 3509 836 4129 
Q 1250 4750 2034 4750 
z
" transform="scale(0.015625)"/>
       </defs>
       <use xlink:href="#DejaVuSans-30"/>
      </g>
     </g>
    </g>
    <g id="xtick_2">
     <g id="line2d_3">
      <path d="M 204.709713 330.84327 
L 204.709713 39.266261 
" clip-path="url(#pdee3f39f43)" style="fill: none; stroke-dasharray: 2.96,1.28; stroke-dashoffset: 0; stroke: #b0b0b0; stroke-opacity: 0.3; stroke-width: 0.8"/>
     </g>
     <g id="line2d_4">
      <g>
       <use xlink:href="#m820ef0aebc" x="204.709713" y="330.84327" style="stroke: #000000; stroke-width: 0.8"/>
      </g>
     </g>
     <g id="text_2">
      <!-- 20 -->
      <g transform="translate(198.347213 345.441707) scale(0.1 -0.1)">
       <defs>
        <path id="DejaVuSans-32" d="M 1228 531 
L 3431 531 
L 3431 0 
L 469 0 
L 469 531 
Q 828 903 1448 1529 
Q 2069 2156 2228 2338 
Q 2531 2678 2651 2914 
Q 2772 3150 2772 3378 
Q 2772 3750 2511 3984 
Q 2250 4219 1831 4219 
Q 1534 4219 1204 4116 
Q 875 4013 500 3803 
L 500 4441 
Q 881 4594 1212 4672 
Q 1544 4750 1819 4750 
Q 2544 4750 2975 4387 
Q 3406 4025 3406 3419 
Q 3406 3131 3298 2873 
Q 3191 2616 2906 2266 
Q 2828 2175 2409 1742 
Q 1991 1309 1228 531 
z
" transform="scale(0.015625)"/>
       </defs>
       <use xlink:href="#DejaVuSans-32"/>
       <use xlink:href="#DejaVuSans-30" transform="translate(63.623047 0)"/>
      </g>
     </g>
    </g>
    <g id="xtick_3">
     <g id="line2d_5">
      <path d="M 293.855985 330.84327 
L 293.855985 39.266261 
" clip-path="url(#pdee3f39f43)" style="fill: none; stroke-dasharray: 2.96,1.28; stroke-dashoffset: 0; stroke: #b0b0b0; stroke-opacity: 0.3; stroke-width: 0.8"/>
     </g>
     <g id="line2d_6">
      <g>
       <use xlink:href="#m820ef0aebc" x="293.855985" y="330.84327" style="stroke: #000000; stroke-width: 0.8"/>
      </g>
     </g>
     <g id="text_3">
      <!-- 40 -->
      <g transform="translate(287.493485 345.441707) scale(0.1 -0.1)">
       <defs>
        <path id="DejaVuSans-34" d="M 2419 4116 
L 825 1625 
L 2419 1625 
L 2419 4116 
z
M 2253 4666 
L 3047 4666 
L 3047 1625 
L 3713 1625 
L 3713 1100 
L 3047 1100 
L 3047 0 
L 2419 0 
L 2419 1100 
L 313 1100 
L 313 1709 
L 2253 4666 
z
" transform="scale(0.015625)"/>
       </defs>
       <use xlink:href="#DejaVuSans-34"/>
       <use xlink:href="#DejaVuSans-30" transform="translate(63.623047 0)"/>
      </g>
     </g>
    </g>
    <g id="xtick_4">
     <g id="line2d_7">
      <path d="M 383.002258 330.84327 
L 383.002258 39.266261 
" clip-path="url(#pdee3f39f43)" style="fill: none; stroke-dasharray: 2.96,1.28; stroke-dashoffset: 0; stroke: #b0b0b0; stroke-opacity: 0.3; stroke-width: 0.8"/>
     </g>
     <g id="line2d_8">
      <g>
       <use xlink:href="#m820ef0aebc" x="383.002258" y="330.84327" style="stroke: #000000; stroke-width: 0.8"/>
      </g>
     </g>
     <g id="text_4">
      <!-- 60 -->
      <g transform="translate(376.639758 345.441707) scale(0.1 -0.1)">
       <defs>
        <path id="DejaVuSans-36" d="M 2113 2584 
Q 1688 2584 1439 2293 
Q 1191 2003 1191 1497 
Q 1191 994 1439 701 
Q 1688 409 2113 409 
Q 2538 409 2786 701 
Q 3034 994 3034 1497 
Q 3034 2003 2786 2293 
Q 2538 2584 2113 2584 
z
M 3366 4563 
L 3366 3988 
Q 3128 4100 2886 4159 
Q 2644 4219 2406 4219 
Q 1781 4219 1451 3797 
Q 1122 3375 1075 2522 
Q 1259 2794 1537 2939 
Q 1816 3084 2150 3084 
Q 2853 3084 3261 2657 
Q 3669 2231 3669 1497 
Q 3669 778 3244 343 
Q 2819 -91 2113 -91 
Q 1303 -91 875 529 
Q 447 1150 447 2328 
Q 447 3434 972 4092 
Q 1497 4750 2381 4750 
Q 2619 4750 2861 4703 
Q 3103 4656 3366 4563 
z
" transform="scale(0.015625)"/>
       </defs>
       <use xlink:href="#DejaVuSans-36"/>
       <use xlink:href="#DejaVuSans-30" transform="translate(63.623047 0)"/>
      </g>
     </g>
    </g>
    <g id="text_5">
     <!-- Temperatur [°C] -->
     <g transform="translate(219.570036 359.119832) scale(0.1 -0.1)">
      <defs>
       <path id="DejaVuSans-54" d="M -19 4666 
L 3928 4666 
L 3928 4134 
L 2272 4134 
L 2272 0 
L 1638 0 
L 1638 4134 
L -19 4134 
L -19 4666 
z
" transform="scale(0.015625)"/>
       <path id="DejaVuSans-65" d="M 3597 1894 
L 3597 1613 
L 953 1613 
Q 991 1019 1311 708 
Q 1631 397 2203 397 
Q 2534 397 2845 478 
Q 3156 559 3463 722 
L 3463 178 
Q 3153 47 2828 -22 
Q 2503 -91 2169 -91 
Q 1331 -91 842 396 
Q 353 884 353 1716 
Q 353 2575 817 3079 
Q 1281 3584 2069 3584 
Q 2775 3584 3186 3129 
Q 3597 2675 3597 1894 
z
M 3022 2063 
Q 3016 2534 2758 2815 
Q 2500 3097 2075 3097 
Q 1594 3097 1305 2825 
Q 1016 2553 972 2059 
L 3022 2063 
z
" transform="scale(0.015625)"/>
       <path id="DejaVuSans-6d" d="M 3328 2828 
Q 3544 3216 3844 3400 
Q 4144 3584 4550 3584 
Q 5097 3584 5394 3201 
Q 5691 2819 5691 2113 
L 5691 0 
L 5113 0 
L 5113 2094 
Q 5113 2597 4934 2840 
Q 4756 3084 4391 3084 
Q 3944 3084 3684 2787 
Q 3425 2491 3425 1978 
L 3425 0 
L 2847 0 
L 2847 2094 
Q 2847 2600 2669 2842 
Q 2491 3084 2119 3084 
Q 1678 3084 1418 2786 
Q 1159 2488 1159 1978 
L 1159 0 
L 581 0 
L 581 3500 
L 1159 3500 
L 1159 2956 
Q 1356 3278 1631 3431 
Q 1906 3584 2284 3584 
Q 2666 3584 2933 3390 
Q 3200 3197 3328 2828 
z
" transform="scale(0.015625)"/>
       <path id="DejaVuSans-70" d="M 1159 525 
L 1159 -1331 
L 581 -1331 
L 581 3500 
L 1159 3500 
L 1159 2969 
Q 1341 3281 1617 3432 
Q 1894 3584 2278 3584 
Q 2916 3584 3314 3078 
Q 3713 2572 3713 1747 
Q 3713 922 3314 415 
Q 2916 -91 2278 -91 
Q 1894 -91 1617 61 
Q 1341 213 1159 525 
z
M 3116 1747 
Q 3116 2381 2855 2742 
Q 2594 3103 2138 3103 
Q 1681 3103 1420 2742 
Q 1159 2381 1159 1747 
Q 1159 1113 1420 752 
Q 1681 391 2138 391 
Q 2594 391 2855 752 
Q 3116 1113 3116 1747 
z
" transform="scale(0.015625)"/>
       <path id="DejaVuSans-72" d="M 2631 2963 
Q 2534 3019 2420 3045 
Q 2306 3072 2169 3072 
Q 1681 3072 1420 2755 
Q 1159 2438 1159 1844 
L 1159 0 
L 581 0 
L 581 3500 
L 1159 3500 
L 1159 2956 
Q 1341 3275 1631 3429 
Q 1922 3584 2338 3584 
Q 2397 3584 2469 3576 
Q 2541 3569 2628 3553 
L 2631 2963 
z
" transform="scale(0.015625)"/>
       <path id="DejaVuSans-61" d="M 2194 1759 
Q 1497 1759 1228 1600 
Q 959 1441 959 1056 
Q 959 750 1161 570 
Q 1363 391 1709 391 
Q 2188 391 2477 730 
Q 2766 1069 2766 1631 
L 2766 1759 
L 2194 1759 
z
M 3341 1997 
L 3341 0 
L 2766 0 
L 2766 531 
Q 2569 213 2275 61 
Q 1981 -91 1556 -91 
Q 1019 -91 701 211 
Q 384 513 384 1019 
Q 384 1609 779 1909 
Q 1175 2209 1959 2209 
L 2766 2209 
L 2766 2266 
Q 2766 2663 2505 2880 
Q 2244 3097 1772 3097 
Q 1472 3097 1187 3025 
Q 903 2953 641 2809 
L 641 3341 
Q 956 3463 1253 3523 
Q 1550 3584 1831 3584 
Q 2591 3584 2966 3190 
Q 3341 2797 3341 1997 
z
" transform="scale(0.015625)"/>
       <path id="DejaVuSans-74" d="M 1172 4494 
L 1172 3500 
L 2356 3500 
L 2356 3053 
L 1172 3053 
L 1172 1153 
Q 1172 725 1289 603 
Q 1406 481 1766 481 
L 2356 481 
L 2356 0 
L 1766 0 
Q 1100 0 847 248 
Q 594 497 594 1153 
L 594 3053 
L 172 3053 
L 172 3500 
L 594 3500 
L 594 4494 
L 1172 4494 
z
" transform="scale(0.015625)"/>
       <path id="DejaVuSans-75" d="M 544 1381 
L 544 3500 
L 1119 3500 
L 1119 1403 
Q 1119 906 1312 657 
Q 1506 409 1894 409 
Q 2359 409 2629 706 
Q 2900 1003 2900 1516 
L 2900 3500 
L 3475 3500 
L 3475 0 
L 2900 0 
L 2900 538 
Q 2691 219 2414 64 
Q 2138 -91 1772 -91 
Q 1169 -91 856 284 
Q 544 659 544 1381 
z
M 1991 3584 
L 1991 3584 
z
" transform="scale(0.015625)"/>
       <path id="DejaVuSans-20" transform="scale(0.015625)"/>
       <path id="DejaVuSans-5b" d="M 550 4863 
L 1875 4863 
L 1875 4416 
L 1125 4416 
L 1125 -397 
L 1875 -397 
L 1875 -844 
L 550 -844 
L 550 4863 
z
" transform="scale(0.015625)"/>
       <path id="DejaVuSans-b0" d="M 1600 4347 
Q 1350 4347 1178 4173 
Q 1006 4000 1006 3750 
Q 1006 3503 1178 3333 
Q 1350 3163 1600 3163 
Q 1850 3163 2022 3333 
Q 2194 3503 2194 3750 
Q 2194 3997 2020 4172 
Q 1847 4347 1600 4347 
z
M 1600 4750 
Q 1800 4750 1984 4673 
Q 2169 4597 2303 4453 
Q 2447 4313 2519 4134 
Q 2591 3956 2591 3750 
Q 2591 3338 2302 3052 
Q 2013 2766 1594 2766 
Q 1172 2766 890 3047 
Q 609 3328 609 3750 
Q 609 4169 896 4459 
Q 1184 4750 1600 4750 
z
" transform="scale(0.015625)"/>
       <path id="DejaVuSans-43" d="M 4122 4306 
L 4122 3641 
Q 3803 3938 3442 4084 
Q 3081 4231 2675 4231 
Q 1875 4231 1450 3742 
Q 1025 3253 1025 2328 
Q 1025 1406 1450 917 
Q 1875 428 2675 428 
Q 3081 428 3442 575 
Q 3803 722 4122 1019 
L 4122 359 
Q 3791 134 3420 21 
Q 3050 -91 2638 -91 
Q 1578 -91 968 557 
Q 359 1206 359 2328 
Q 359 3453 968 4101 
Q 1578 4750 2638 4750 
Q 3056 4750 3426 4639 
Q 3797 4528 4122 4306 
z
" transform="scale(0.015625)"/>
       <path id="DejaVuSans-5d" d="M 1947 4863 
L 1947 -844 
L 622 -844 
L 622 -397 
L 1369 -397 
L 1369 4416 
L 622 4416 
L 622 4863 
L 1947 4863 
z
" transform="scale(0.015625)"/>
      </defs>
      <use xlink:href="#DejaVuSans-54"/>
      <use xlink:href="#DejaVuSans-65" transform="translate(44.083984 0)"/>
      <use xlink:href="#DejaVuSans-6d" transform="translate(105.607422 0)"/>
      <use xlink:href="#DejaVuSans-70" transform="translate(203.019531 0)"/>
      <use xlink:href="#DejaVuSans-65" transform="translate(266.496094 0)"/>
      <use xlink:href="#DejaVuSans-72" transform="translate(328.019531 0)"/>
      <use xlink:href="#DejaVuSans-61" transform="translate(369.132812 0)"/>
      <use xlink:href="#DejaVuSans-74" transform="translate(430.412109 0)"/>
      <use xlink:href="#DejaVuSans-75" transform="translate(469.621094 0)"/>
      <use xlink:href="#DejaVuSans-72" transform="translate(533 0)"/>
      <use xlink:href="#DejaVuSans-20" transform="translate(574.113281 0)"/>
      <use xlink:href="#DejaVuSans-5b" transform="translate(605.900391 0)"/>
      <use xlink:href="#DejaVuSans-b0" transform="translate(644.914062 0)"/>
      <use xlink:href="#DejaVuSans-43" transform="translate(694.914062 0)"/>
      <use xlink:href="#DejaVuSans-5d" transform="translate(764.738281 0)"/>
     </g>
    </g>
   </g>
   <g id="matplotlib.axis_2">
    <g id="ytick_1">
     <g id="line2d_9">
      <path d="M 51.378125 311.550024 
L 468.136947 311.550024 
" clip-path="url(#pdee3f39f43)" style="fill: none; stroke-dasharray: 2.96,1.28; stroke-dashoffset: 0; stroke: #b0b0b0; stroke-opacity: 0.3; stroke-width: 0.8"/>
     </g>
     <g id="line2d_10">
      <defs>
       <path id="m26ce8b1fab" d="M 0 0 
L -3.5 0 
" style="stroke: #000000; stroke-width: 0.8"/>
      </defs>
      <g>
       <use xlink:href="#m26ce8b1fab" x="51.378125" y="311.550024" style="stroke: #000000; stroke-width: 0.8"/>
      </g>
     </g>
     <g id="text_6">
      <!-- $\mathdefault{10^{-2}}$ -->
      <g transform="translate(20.878125 315.349243) scale(0.1 -0.1)">
       <defs>
        <path id="DejaVuSans-31" d="M 794 531 
L 1825 531 
L 1825 4091 
L 703 3866 
L 703 4441 
L 1819 4666 
L 2450 4666 
L 2450 531 
L 3481 531 
L 3481 0 
L 794 0 
L 794 531 
z
" transform="scale(0.015625)"/>
        <path id="DejaVuSans-2212" d="M 678 2272 
L 4684 2272 
L 4684 1741 
L 678 1741 
L 678 2272 
z
" transform="scale(0.015625)"/>
       </defs>
       <use xlink:href="#DejaVuSans-31" transform="translate(0 0.765625)"/>
       <use xlink:href="#DejaVuSans-30" transform="translate(63.623047 0.765625)"/>
       <use xlink:href="#DejaVuSans-2212" transform="translate(128.203125 39.046875) scale(0.7)"/>
       <use xlink:href="#DejaVuSans-32" transform="translate(186.855469 39.046875) scale(0.7)"/>
      </g>
     </g>
    </g>
    <g id="ytick_2">
     <g id="line2d_11">
      <path d="M 51.378125 250.840076 
L 468.136947 250.840076 
" clip-path="url(#pdee3f39f43)" style="fill: none; stroke-dasharray: 2.96,1.28; stroke-dashoffset: 0; stroke: #b0b0b0; stroke-opacity: 0.3; stroke-width: 0.8"/>
     </g>
     <g id="line2d_12">
      <g>
       <use xlink:href="#m26ce8b1fab" x="51.378125" y="250.840076" style="stroke: #000000; stroke-width: 0.8"/>
      </g>
     </g>
     <g id="text_7">
      <!-- $\mathdefault{10^{-1}}$ -->
      <g transform="translate(20.878125 254.639295) scale(0.1 -0.1)">
       <use xlink:href="#DejaVuSans-31" transform="translate(0 0.684375)"/>
       <use xlink:href="#DejaVuSans-30" transform="translate(63.623047 0.684375)"/>
       <use xlink:href="#DejaVuSans-2212" transform="translate(128.203125 38.965625) scale(0.7)"/>
       <use xlink:href="#DejaVuSans-31" transform="translate(186.855469 38.965625) scale(0.7)"/>
      </g>
     </g>
    </g>
    <g id="ytick_3">
     <g id="line2d_13">
      <path d="M 51.378125 190.130129 
L 468.136947 190.130129 
" clip-path="url(#pdee3f39f43)" style="fill: none; stroke-dasharray: 2.96,1.28; stroke-dashoffset: 0; stroke: #b0b0b0; stroke-opacity: 0.3; stroke-width: 0.8"/>
     </g>
     <g id="line2d_14">
      <g>
       <use xlink:href="#m26ce8b1fab" x="51.378125" y="190.130129" style="stroke: #000000; stroke-width: 0.8"/>
      </g>
     </g>
     <g id="text_8">
      <!-- $\mathdefault{10^{0}}$ -->
      <g transform="translate(26.778125 193.929348) scale(0.1 -0.1)">
       <use xlink:href="#DejaVuSans-31" transform="translate(0 0.765625)"/>
       <use xlink:href="#DejaVuSans-30" transform="translate(63.623047 0.765625)"/>
       <use xlink:href="#DejaVuSans-30" transform="translate(128.203125 39.046875) scale(0.7)"/>
      </g>
     </g>
    </g>
    <g id="ytick_4">
     <g id="line2d_15">
      <path d="M 51.378125 129.420181 
L 468.136947 129.420181 
" clip-path="url(#pdee3f39f43)" style="fill: none; stroke-dasharray: 2.96,1.28; stroke-dashoffset: 0; stroke: #b0b0b0; stroke-opacity: 0.3; stroke-width: 0.8"/>
     </g>
     <g id="line2d_16">
      <g>
       <use xlink:href="#m26ce8b1fab" x="51.378125" y="129.420181" style="stroke: #000000; stroke-width: 0.8"/>
      </g>
     </g>
     <g id="text_9">
      <!-- $\mathdefault{10^{1}}$ -->
      <g transform="translate(26.778125 133.2194) scale(0.1 -0.1)">
       <use xlink:href="#DejaVuSans-31" transform="translate(0 0.684375)"/>
       <use xlink:href="#DejaVuSans-30" transform="translate(63.623047 0.684375)"/>
       <use xlink:href="#DejaVuSans-31" transform="translate(128.203125 38.965625) scale(0.7)"/>
      </g>
     </g>
    </g>
    <g id="ytick_5">
     <g id="line2d_17">
      <path d="M 51.378125 68.710234 
L 468.136947 68.710234 
" clip-path="url(#pdee3f39f43)" style="fill: none; stroke-dasharray: 2.96,1.28; stroke-dashoffset: 0; stroke: #b0b0b0; stroke-opacity: 0.3; stroke-width: 0.8"/>
     </g>
     <g id="line2d_18">
      <g>
       <use xlink:href="#m26ce8b1fab" x="51.378125" y="68.710234" style="stroke: #000000; stroke-width: 0.8"/>
      </g>
     </g>
     <g id="text_10">
      <!-- $\mathdefault{10^{2}}$ -->
      <g transform="translate(26.778125 72.509453) scale(0.1 -0.1)">
       <use xlink:href="#DejaVuSans-31" transform="translate(0 0.765625)"/>
       <use xlink:href="#DejaVuSans-30" transform="translate(63.623047 0.765625)"/>
       <use xlink:href="#DejaVuSans-32" transform="translate(128.203125 39.046875) scale(0.7)"/>
      </g>
     </g>
    </g>
    <g id="ytick_6">
     <g id="line2d_19">
      <defs>
       <path id="mda4c710770" d="M 0 0 
L -2 0 
" style="stroke: #000000; stroke-width: 0.6"/>
      </defs>
      <g>
       <use xlink:href="#mda4c710770" x="51.378125" y="329.825539" style="stroke: #000000; stroke-width: 0.6"/>
      </g>
     </g>
    </g>
    <g id="ytick_7">
     <g id="line2d_20">
      <g>
       <use xlink:href="#mda4c710770" x="51.378125" y="325.01845" style="stroke: #000000; stroke-width: 0.6"/>
      </g>
     </g>
    </g>
    <g id="ytick_8">
     <g id="line2d_21">
      <g>
       <use xlink:href="#mda4c710770" x="51.378125" y="320.954114" style="stroke: #000000; stroke-width: 0.6"/>
      </g>
     </g>
    </g>
    <g id="ytick_9">
     <g id="line2d_22">
      <g>
       <use xlink:href="#mda4c710770" x="51.378125" y="317.433426" style="stroke: #000000; stroke-width: 0.6"/>
      </g>
     </g>
    </g>
    <g id="ytick_10">
     <g id="line2d_23">
      <g>
       <use xlink:href="#mda4c710770" x="51.378125" y="314.327959" style="stroke: #000000; stroke-width: 0.6"/>
      </g>
     </g>
    </g>
    <g id="ytick_11">
     <g id="line2d_24">
      <g>
       <use xlink:href="#mda4c710770" x="51.378125" y="293.274509" style="stroke: #000000; stroke-width: 0.6"/>
      </g>
     </g>
    </g>
    <g id="ytick_12">
     <g id="line2d_25">
      <g>
       <use xlink:href="#mda4c710770" x="51.378125" y="282.584018" style="stroke: #000000; stroke-width: 0.6"/>
      </g>
     </g>
    </g>
    <g id="ytick_13">
     <g id="line2d_26">
      <g>
       <use xlink:href="#mda4c710770" x="51.378125" y="274.998994" style="stroke: #000000; stroke-width: 0.6"/>
      </g>
     </g>
    </g>
    <g id="ytick_14">
     <g id="line2d_27">
      <g>
       <use xlink:href="#mda4c710770" x="51.378125" y="269.115592" style="stroke: #000000; stroke-width: 0.6"/>
      </g>
     </g>
    </g>
    <g id="ytick_15">
     <g id="line2d_28">
      <g>
       <use xlink:href="#mda4c710770" x="51.378125" y="264.308502" style="stroke: #000000; stroke-width: 0.6"/>
      </g>
     </g>
    </g>
    <g id="ytick_16">
     <g id="line2d_29">
      <g>
       <use xlink:href="#mda4c710770" x="51.378125" y="260.244166" style="stroke: #000000; stroke-width: 0.6"/>
      </g>
     </g>
    </g>
    <g id="ytick_17">
     <g id="line2d_30">
      <g>
       <use xlink:href="#mda4c710770" x="51.378125" y="256.723478" style="stroke: #000000; stroke-width: 0.6"/>
      </g>
     </g>
    </g>
    <g id="ytick_18">
     <g id="line2d_31">
      <g>
       <use xlink:href="#mda4c710770" x="51.378125" y="253.618011" style="stroke: #000000; stroke-width: 0.6"/>
      </g>
     </g>
    </g>
    <g id="ytick_19">
     <g id="line2d_32">
      <g>
       <use xlink:href="#mda4c710770" x="51.378125" y="232.564561" style="stroke: #000000; stroke-width: 0.6"/>
      </g>
     </g>
    </g>
    <g id="ytick_20">
     <g id="line2d_33">
      <g>
       <use xlink:href="#mda4c710770" x="51.378125" y="221.87407" style="stroke: #000000; stroke-width: 0.6"/>
      </g>
     </g>
    </g>
    <g id="ytick_21">
     <g id="line2d_34">
      <g>
       <use xlink:href="#mda4c710770" x="51.378125" y="214.289046" style="stroke: #000000; stroke-width: 0.6"/>
      </g>
     </g>
    </g>
    <g id="ytick_22">
     <g id="line2d_35">
      <g>
       <use xlink:href="#mda4c710770" x="51.378125" y="208.405644" style="stroke: #000000; stroke-width: 0.6"/>
      </g>
     </g>
    </g>
    <g id="ytick_23">
     <g id="line2d_36">
      <g>
       <use xlink:href="#mda4c710770" x="51.378125" y="203.598555" style="stroke: #000000; stroke-width: 0.6"/>
      </g>
     </g>
    </g>
    <g id="ytick_24">
     <g id="line2d_37">
      <g>
       <use xlink:href="#mda4c710770" x="51.378125" y="199.534219" style="stroke: #000000; stroke-width: 0.6"/>
      </g>
     </g>
    </g>
    <g id="ytick_25">
     <g id="line2d_38">
      <g>
       <use xlink:href="#mda4c710770" x="51.378125" y="196.013531" style="stroke: #000000; stroke-width: 0.6"/>
      </g>
     </g>
    </g>
    <g id="ytick_26">
     <g id="line2d_39">
      <g>
       <use xlink:href="#mda4c710770" x="51.378125" y="192.908064" style="stroke: #000000; stroke-width: 0.6"/>
      </g>
     </g>
    </g>
    <g id="ytick_27">
     <g id="line2d_40">
      <g>
       <use xlink:href="#mda4c710770" x="51.378125" y="171.854614" style="stroke: #000000; stroke-width: 0.6"/>
      </g>
     </g>
    </g>
    <g id="ytick_28">
     <g id="line2d_41">
      <g>
       <use xlink:href="#mda4c710770" x="51.378125" y="161.164123" style="stroke: #000000; stroke-width: 0.6"/>
      </g>
     </g>
    </g>
    <g id="ytick_29">
     <g id="line2d_42">
      <g>
       <use xlink:href="#mda4c710770" x="51.378125" y="153.579099" style="stroke: #000000; stroke-width: 0.6"/>
      </g>
     </g>
    </g>
    <g id="ytick_30">
     <g id="line2d_43">
      <g>
       <use xlink:href="#mda4c710770" x="51.378125" y="147.695697" style="stroke: #000000; stroke-width: 0.6"/>
      </g>
     </g>
    </g>
    <g id="ytick_31">
     <g id="line2d_44">
      <g>
       <use xlink:href="#mda4c710770" x="51.378125" y="142.888607" style="stroke: #000000; stroke-width: 0.6"/>
      </g>
     </g>
    </g>
    <g id="ytick_32">
     <g id="line2d_45">
      <g>
       <use xlink:href="#mda4c710770" x="51.378125" y="138.824271" style="stroke: #000000; stroke-width: 0.6"/>
      </g>
     </g>
    </g>
    <g id="ytick_33">
     <g id="line2d_46">
      <g>
       <use xlink:href="#mda4c710770" x="51.378125" y="135.303583" style="stroke: #000000; stroke-width: 0.6"/>
      </g>
     </g>
    </g>
    <g id="ytick_34">
     <g id="line2d_47">
      <g>
       <use xlink:href="#mda4c710770" x="51.378125" y="132.198116" style="stroke: #000000; stroke-width: 0.6"/>
      </g>
     </g>
    </g>
    <g id="ytick_35">
     <g id="line2d_48">
      <g>
       <use xlink:href="#mda4c710770" x="51.378125" y="111.144666" style="stroke: #000000; stroke-width: 0.6"/>
      </g>
     </g>
    </g>
    <g id="ytick_36">
     <g id="line2d_49">
      <g>
       <use xlink:href="#mda4c710770" x="51.378125" y="100.454175" style="stroke: #000000; stroke-width: 0.6"/>
      </g>
     </g>
    </g>
    <g id="ytick_37">
     <g id="line2d_50">
      <g>
       <use xlink:href="#mda4c710770" x="51.378125" y="92.869151" style="stroke: #000000; stroke-width: 0.6"/>
      </g>
     </g>
    </g>
    <g id="ytick_38">
     <g id="line2d_51">
      <g>
       <use xlink:href="#mda4c710770" x="51.378125" y="86.985749" style="stroke: #000000; stroke-width: 0.6"/>
      </g>
     </g>
    </g>
    <g id="ytick_39">
     <g id="line2d_52">
      <g>
       <use xlink:href="#mda4c710770" x="51.378125" y="82.17866" style="stroke: #000000; stroke-width: 0.6"/>
      </g>
     </g>
    </g>
    <g id="ytick_40">
     <g id="line2d_53">
      <g>
       <use xlink:href="#mda4c710770" x="51.378125" y="78.114324" style="stroke: #000000; stroke-width: 0.6"/>
      </g>
     </g>
    </g>
    <g id="ytick_41">
     <g id="line2d_54">
      <g>
       <use xlink:href="#mda4c710770" x="51.378125" y="74.593636" style="stroke: #000000; stroke-width: 0.6"/>
      </g>
     </g>
    </g>
    <g id="ytick_42">
     <g id="line2d_55">
      <g>
       <use xlink:href="#mda4c710770" x="51.378125" y="71.488169" style="stroke: #000000; stroke-width: 0.6"/>
      </g>
     </g>
    </g>
    <g id="ytick_43">
     <g id="line2d_56">
      <g>
       <use xlink:href="#mda4c710770" x="51.378125" y="50.434719" style="stroke: #000000; stroke-width: 0.6"/>
      </g>
     </g>
    </g>
    <g id="ytick_44">
     <g id="line2d_57">
      <g>
       <use xlink:href="#mda4c710770" x="51.378125" y="39.744228" style="stroke: #000000; stroke-width: 0.6"/>
      </g>
     </g>
    </g>
    <g id="text_11">
     <!-- k(T) / k(T₀)  [log] -->
     <g transform="translate(14.798438 226.325859) rotate(-90) scale(0.1 -0.1)">
      <defs>
       <path id="DejaVuSans-6b" d="M 581 4863 
L 1159 4863 
L 1159 1991 
L 2875 3500 
L 3609 3500 
L 1753 1863 
L 3688 0 
L 2938 0 
L 1159 1709 
L 1159 0 
L 581 0 
L 581 4863 
z
" transform="scale(0.015625)"/>
       <path id="DejaVuSans-28" d="M 1984 4856 
Q 1566 4138 1362 3434 
Q 1159 2731 1159 2009 
Q 1159 1288 1364 580 
Q 1569 -128 1984 -844 
L 1484 -844 
Q 1016 -109 783 600 
Q 550 1309 550 2009 
Q 550 2706 781 3412 
Q 1013 4119 1484 4856 
L 1984 4856 
z
" transform="scale(0.015625)"/>
       <path id="DejaVuSans-29" d="M 513 4856 
L 1013 4856 
Q 1481 4119 1714 3412 
Q 1947 2706 1947 2009 
Q 1947 1309 1714 600 
Q 1481 -109 1013 -844 
L 513 -844 
Q 928 -128 1133 580 
Q 1338 1288 1338 2009 
Q 1338 2731 1133 3434 
Q 928 4138 513 4856 
z
" transform="scale(0.015625)"/>
       <path id="DejaVuSans-2f" d="M 1625 4666 
L 2156 4666 
L 531 -594 
L 0 -594 
L 1625 4666 
z
" transform="scale(0.015625)"/>
       <path id="DejaVuSans-2080" d="M 1781 2091 
Q 1625 2360 1309 2360 
Q 994 2360 838 2091 
Q 678 1822 678 1285 
Q 678 744 838 476 
Q 994 207 1309 207 
Q 1625 207 1781 476 
Q 1941 744 1941 1285 
Q 1941 1822 1781 2091 
z
M 1309 2638 
Q 1813 2638 2078 2291 
Q 2344 1944 2344 1285 
Q 2344 622 2078 275 
Q 1813 -71 1309 -71 
Q 803 -71 537 275 
Q 272 622 272 1285 
Q 272 1944 537 2291 
Q 803 2638 1309 2638 
z
" transform="scale(0.015625)"/>
       <path id="DejaVuSans-6c" d="M 603 4863 
L 1178 4863 
L 1178 0 
L 603 0 
L 603 4863 
z
" transform="scale(0.015625)"/>
       <path id="DejaVuSans-6f" d="M 1959 3097 
Q 1497 3097 1228 2736 
Q 959 2375 959 1747 
Q 959 1119 1226 758 
Q 1494 397 1959 397 
Q 2419 397 2687 759 
Q 2956 1122 2956 1747 
Q 2956 2369 2687 2733 
Q 2419 3097 1959 3097 
z
M 1959 3584 
Q 2709 3584 3137 3096 
Q 3566 2609 3566 1747 
Q 3566 888 3137 398 
Q 2709 -91 1959 -91 
Q 1206 -91 779 398 
Q 353 888 353 1747 
Q 353 2609 779 3096 
Q 1206 3584 1959 3584 
z
" transform="scale(0.015625)"/>
       <path id="DejaVuSans-67" d="M 2906 1791 
Q 2906 2416 2648 2759 
Q 2391 3103 1925 3103 
Q 1463 3103 1205 2759 
Q 947 2416 947 1791 
Q 947 1169 1205 825 
Q 1463 481 1925 481 
Q 2391 481 2648 825 
Q 2906 1169 2906 1791 
z
M 3481 434 
Q 3481 -459 3084 -895 
Q 2688 -1331 1869 -1331 
Q 1566 -1331 1297 -1286 
Q 1028 -1241 775 -1147 
L 775 -588 
Q 1028 -725 1275 -790 
Q 1522 -856 1778 -856 
Q 2344 -856 2625 -561 
Q 2906 -266 2906 331 
L 2906 616 
Q 2728 306 2450 153 
Q 2172 0 1784 0 
Q 1141 0 747 490 
Q 353 981 353 1791 
Q 353 2603 747 3093 
Q 1141 3584 1784 3584 
Q 2172 3584 2450 3431 
Q 2728 3278 2906 2969 
L 2906 3500 
L 3481 3500 
L 3481 434 
z
" transform="scale(0.015625)"/>
      </defs>
      <use xlink:href="#DejaVuSans-6b"/>
      <use xlink:href="#DejaVuSans-28" transform="translate(57.910156 0)"/>
      <use xlink:href="#DejaVuSans-54" transform="translate(96.923828 0)"/>
      <use xlink:href="#DejaVuSans-29" transform="translate(158.007812 0)"/>
      <use xlink:href="#DejaVuSans-20" transform="translate(197.021484 0)"/>
      <use xlink:href="#DejaVuSans-2f" transform="translate(228.808594 0)"/>
      <use xlink:href="#DejaVuSans-20" transform="translate(262.5 0)"/>
      <use xlink:href="#DejaVuSans-6b" transform="translate(294.287109 0)"/>
      <use xlink:href="#DejaVuSans-28" transform="translate(352.197266 0)"/>
      <use xlink:href="#DejaVuSans-54" transform="translate(391.210938 0)"/>
      <use xlink:href="#DejaVuSans-2080" transform="translate(452.294922 0)"/>
      <use xlink:href="#DejaVuSans-29" transform="translate(492.382812 0)"/>
      <use xlink:href="#DejaVuSans-20" transform="translate(531.396484 0)"/>
      <use xlink:href="#DejaVuSans-20" transform="translate(563.183594 0)"/>
      <use xlink:href="#DejaVuSans-5b" transform="translate(594.970703 0)"/>
      <use xlink:href="#DejaVuSans-6c" transform="translate(633.984375 0)"/>
      <use xlink:href="#DejaVuSans-6f" transform="translate(661.767578 0)"/>
      <use xlink:href="#DejaVuSans-67" transform="translate(722.949219 0)"/>
      <use xlink:href="#DejaVuSans-5d" transform="translate(786.425781 0)"/>
     </g>
    </g>
   </g>
   <g id="line2d_58">
    <path d="M 70.321708 232.616676 
L 91.211874 226.283208 
L 113.051594 219.894719 
L 135.840867 213.468823 
L 158.630139 207.275267 
L 182.368965 201.057374 
L 206.10779 195.065167 
L 230.796169 189.059716 
L 256.434101 183.054337 
L 283.021585 177.061379 
L 309.60907 171.294181 
L 337.146108 165.545663 
L 365.632698 159.825932 
L 395.068842 154.144228 
L 425.454539 148.508949 
L 449.193365 144.260007 
L 449.193365 144.260007 
" clip-path="url(#pdee3f39f43)" style="fill: none; stroke: #1f77b4; stroke-width: 1.5; stroke-linecap: square"/>
   </g>
   <g id="line2d_59">
    <path d="M 70.321708 260.94104 
L 87.413662 252.276913 
L 104.505617 243.858277 
L 122.547124 235.226906 
L 140.588632 226.846187 
L 158.630139 218.705359 
L 177.6212 210.384073 
L 196.61226 202.30618 
L 216.552874 194.074834 
L 236.493487 186.088756 
L 256.434101 178.337143 
L 277.324267 170.456804 
L 298.214434 162.81161 
L 320.054153 155.059081 
L 341.893873 147.541083 
L 364.683145 139.934931 
L 387.472418 132.561538 
L 411.211244 125.11709 
L 434.950069 117.902615 
L 449.193365 113.679925 
L 449.193365 113.679925 
" clip-path="url(#pdee3f39f43)" style="fill: none; stroke: #ff7f0e; stroke-width: 1.5; stroke-linecap: square"/>
   </g>
   <g id="line2d_60">
    <path d="M 70.321708 289.265405 
L 85.514556 278.466136 
L 100.707405 267.939716 
L 115.900253 257.675932 
L 132.042654 247.047583 
L 148.185056 236.693712 
L 164.327457 226.60382 
L 180.469859 216.767941 
L 197.561813 206.619824 
L 214.653768 196.73519 
L 231.745722 187.103908 
L 249.787229 177.201792 
L 267.828737 167.560519 
L 285.870244 158.169917 
L 303.911752 149.020334 
L 322.902812 139.639512 
L 341.893873 130.505465 
L 361.834486 121.169795 
L 381.7751 112.08506 
L 401.715713 103.241276 
L 422.60588 94.224493 
L 443.496047 85.451474 
L 449.193365 83.099843 
L 449.193365 83.099843 
" clip-path="url(#pdee3f39f43)" style="fill: none; stroke: #2ca02c; stroke-width: 1.5; stroke-linecap: square"/>
   </g>
   <g id="line2d_61">
    <path d="M 70.321708 317.58977 
L 84.565003 304.562377 
L 98.808299 291.844043 
L 113.051594 279.4239 
L 127.294889 267.291581 
L 141.538185 255.437197 
L 156.731033 243.088234 
L 171.923881 231.033831 
L 187.11673 219.263572 
L 202.309578 207.767527 
L 217.502427 196.536225 
L 233.644828 184.88294 
L 249.787229 173.507981 
L 265.929631 162.401494 
L 282.072032 151.554086 
L 299.163987 140.34103 
L 316.255941 129.398249 
L 333.347896 118.716087 
L 350.43985 108.285344 
L 368.481358 97.538185 
L 386.522865 87.051555 
L 404.564373 76.816093 
L 423.555433 66.303472 
L 442.546493 56.049376 
L 449.193365 52.519762 
L 449.193365 52.519762 
" clip-path="url(#pdee3f39f43)" style="fill: none; stroke: #d62728; stroke-width: 1.5; stroke-linecap: square"/>
   </g>
   <g id="line2d_62">
    <path d="M 226.327684 330.84327 
L 226.327684 39.266261 
" clip-path="url(#pdee3f39f43)" style="fill: none; stroke-dasharray: 3.33,1.44; stroke-dashoffset: 0; stroke: #808080; stroke-width: 0.9"/>
   </g>
   <g id="patch_3">
    <path d="M 51.378125 330.84327 
L 51.378125 39.266261 
" style="fill: none; stroke: #000000; stroke-width: 0.8; stroke-linejoin: miter; stroke-linecap: square"/>
   </g>
   <g id="patch_4">
    <path d="M 51.378125 330.84327 
L 468.136947 330.84327 
" style="fill: none; stroke: #000000; stroke-width: 0.8; stroke-linejoin: miter; stroke-linecap: square"/>
   </g>
   <g id="text_12">
    <!-- Arrhenius-Ratenverhältnis k(T)/k(T₀) -->
    <g transform="translate(146.487614 33.266261) scale(0.11 -0.11)">
     <defs>
      <path id="DejaVuSans-Bold-41" d="M 3419 850 
L 1538 850 
L 1241 0 
L 31 0 
L 1759 4666 
L 3194 4666 
L 4922 0 
L 3713 0 
L 3419 850 
z
M 1838 1716 
L 3116 1716 
L 2478 3572 
L 1838 1716 
z
" transform="scale(0.015625)"/>
      <path id="DejaVuSans-Bold-72" d="M 3138 2547 
Q 2991 2616 2845 2648 
Q 2700 2681 2553 2681 
Q 2122 2681 1889 2404 
Q 1656 2128 1656 1613 
L 1656 0 
L 538 0 
L 538 3500 
L 1656 3500 
L 1656 2925 
Q 1872 3269 2151 3426 
Q 2431 3584 2822 3584 
Q 2878 3584 2943 3579 
Q 3009 3575 3134 3559 
L 3138 2547 
z
" transform="scale(0.015625)"/>
      <path id="DejaVuSans-Bold-68" d="M 4056 2131 
L 4056 0 
L 2931 0 
L 2931 347 
L 2931 1625 
Q 2931 2084 2911 2256 
Q 2891 2428 2841 2509 
Q 2775 2619 2662 2680 
Q 2550 2741 2406 2741 
Q 2056 2741 1856 2470 
Q 1656 2200 1656 1722 
L 1656 0 
L 538 0 
L 538 4863 
L 1656 4863 
L 1656 2988 
Q 1909 3294 2193 3439 
Q 2478 3584 2822 3584 
Q 3428 3584 3742 3212 
Q 4056 2841 4056 2131 
z
" transform="scale(0.015625)"/>
      <path id="DejaVuSans-Bold-65" d="M 4031 1759 
L 4031 1441 
L 1416 1441 
Q 1456 1047 1700 850 
Q 1944 653 2381 653 
Q 2734 653 3104 758 
Q 3475 863 3866 1075 
L 3866 213 
Q 3469 63 3072 -14 
Q 2675 -91 2278 -91 
Q 1328 -91 801 392 
Q 275 875 275 1747 
Q 275 2603 792 3093 
Q 1309 3584 2216 3584 
Q 3041 3584 3536 3087 
Q 4031 2591 4031 1759 
z
M 2881 2131 
Q 2881 2450 2695 2645 
Q 2509 2841 2209 2841 
Q 1884 2841 1681 2658 
Q 1478 2475 1428 2131 
L 2881 2131 
z
" transform="scale(0.015625)"/>
      <path id="DejaVuSans-Bold-6e" d="M 4056 2131 
L 4056 0 
L 2931 0 
L 2931 347 
L 2931 1631 
Q 2931 2084 2911 2256 
Q 2891 2428 2841 2509 
Q 2775 2619 2662 2680 
Q 2550 2741 2406 2741 
Q 2056 2741 1856 2470 
Q 1656 2200 1656 1722 
L 1656 0 
L 538 0 
L 538 3500 
L 1656 3500 
L 1656 2988 
Q 1909 3294 2193 3439 
Q 2478 3584 2822 3584 
Q 3428 3584 3742 3212 
Q 4056 2841 4056 2131 
z
" transform="scale(0.015625)"/>
      <path id="DejaVuSans-Bold-69" d="M 538 3500 
L 1656 3500 
L 1656 0 
L 538 0 
L 538 3500 
z
M 538 4863 
L 1656 4863 
L 1656 3950 
L 538 3950 
L 538 4863 
z
" transform="scale(0.015625)"/>
      <path id="DejaVuSans-Bold-75" d="M 500 1363 
L 500 3500 
L 1625 3500 
L 1625 3150 
Q 1625 2866 1622 2436 
Q 1619 2006 1619 1863 
Q 1619 1441 1641 1255 
Q 1663 1069 1716 984 
Q 1784 875 1895 815 
Q 2006 756 2150 756 
Q 2500 756 2700 1025 
Q 2900 1294 2900 1772 
L 2900 3500 
L 4019 3500 
L 4019 0 
L 2900 0 
L 2900 506 
Q 2647 200 2364 54 
Q 2081 -91 1741 -91 
Q 1134 -91 817 281 
Q 500 653 500 1363 
z
" transform="scale(0.015625)"/>
      <path id="DejaVuSans-Bold-73" d="M 3272 3391 
L 3272 2541 
Q 2913 2691 2578 2766 
Q 2244 2841 1947 2841 
Q 1628 2841 1473 2761 
Q 1319 2681 1319 2516 
Q 1319 2381 1436 2309 
Q 1553 2238 1856 2203 
L 2053 2175 
Q 2913 2066 3209 1816 
Q 3506 1566 3506 1031 
Q 3506 472 3093 190 
Q 2681 -91 1863 -91 
Q 1516 -91 1145 -36 
Q 775 19 384 128 
L 384 978 
Q 719 816 1070 734 
Q 1422 653 1784 653 
Q 2113 653 2278 743 
Q 2444 834 2444 1013 
Q 2444 1163 2330 1236 
Q 2216 1309 1875 1350 
L 1678 1375 
Q 931 1469 631 1722 
Q 331 1975 331 2491 
Q 331 3047 712 3315 
Q 1094 3584 1881 3584 
Q 2191 3584 2531 3537 
Q 2872 3491 3272 3391 
z
" transform="scale(0.015625)"/>
      <path id="DejaVuSans-Bold-2d" d="M 347 2297 
L 2309 2297 
L 2309 1388 
L 347 1388 
L 347 2297 
z
" transform="scale(0.015625)"/>
      <path id="DejaVuSans-Bold-52" d="M 2297 2597 
Q 2675 2597 2839 2737 
Q 3003 2878 3003 3200 
Q 3003 3519 2839 3656 
Q 2675 3794 2297 3794 
L 1791 3794 
L 1791 2597 
L 2297 2597 
z
M 1791 1766 
L 1791 0 
L 588 0 
L 588 4666 
L 2425 4666 
Q 3347 4666 3776 4356 
Q 4206 4047 4206 3378 
Q 4206 2916 3982 2619 
Q 3759 2322 3309 2181 
Q 3556 2125 3751 1926 
Q 3947 1728 4147 1325 
L 4800 0 
L 3519 0 
L 2950 1159 
Q 2778 1509 2601 1637 
Q 2425 1766 2131 1766 
L 1791 1766 
z
" transform="scale(0.015625)"/>
      <path id="DejaVuSans-Bold-61" d="M 2106 1575 
Q 1756 1575 1579 1456 
Q 1403 1338 1403 1106 
Q 1403 894 1545 773 
Q 1688 653 1941 653 
Q 2256 653 2472 879 
Q 2688 1106 2688 1447 
L 2688 1575 
L 2106 1575 
z
M 3816 1997 
L 3816 0 
L 2688 0 
L 2688 519 
Q 2463 200 2181 54 
Q 1900 -91 1497 -91 
Q 953 -91 614 226 
Q 275 544 275 1050 
Q 275 1666 698 1953 
Q 1122 2241 2028 2241 
L 2688 2241 
L 2688 2328 
Q 2688 2594 2478 2717 
Q 2269 2841 1825 2841 
Q 1466 2841 1156 2769 
Q 847 2697 581 2553 
L 581 3406 
Q 941 3494 1303 3539 
Q 1666 3584 2028 3584 
Q 2975 3584 3395 3211 
Q 3816 2838 3816 1997 
z
" transform="scale(0.015625)"/>
      <path id="DejaVuSans-Bold-74" d="M 1759 4494 
L 1759 3500 
L 2913 3500 
L 2913 2700 
L 1759 2700 
L 1759 1216 
Q 1759 972 1856 886 
Q 1953 800 2241 800 
L 2816 800 
L 2816 0 
L 1856 0 
Q 1194 0 917 276 
Q 641 553 641 1216 
L 641 2700 
L 84 2700 
L 84 3500 
L 641 3500 
L 641 4494 
L 1759 4494 
z
" transform="scale(0.015625)"/>
      <path id="DejaVuSans-Bold-76" d="M 97 3500 
L 1216 3500 
L 2088 1081 
L 2956 3500 
L 4078 3500 
L 2700 0 
L 1472 0 
L 97 3500 
z
" transform="scale(0.015625)"/>
      <path id="DejaVuSans-Bold-e4" d="M 2106 1575 
Q 1756 1575 1579 1456 
Q 1403 1338 1403 1106 
Q 1403 894 1545 773 
Q 1688 653 1941 653 
Q 2256 653 2472 879 
Q 2688 1106 2688 1447 
L 2688 1575 
L 2106 1575 
z
M 3816 1997 
L 3816 0 
L 2688 0 
L 2688 519 
Q 2463 200 2181 54 
Q 1900 -91 1497 -91 
Q 953 -91 614 226 
Q 275 544 275 1050 
Q 275 1666 698 1953 
Q 1122 2241 2028 2241 
L 2688 2241 
L 2688 2328 
Q 2688 2594 2478 2717 
Q 2269 2841 1825 2841 
Q 1466 2841 1156 2769 
Q 847 2697 581 2553 
L 581 3406 
Q 941 3494 1303 3539 
Q 1666 3584 2028 3584 
Q 2975 3584 3395 3211 
Q 3816 2838 3816 1997 
z
M 1200 4953 
L 1934 4953 
L 1934 4184 
L 1200 4184 
L 1200 4953 
z
M 2434 4953 
L 3168 4953 
L 3168 4184 
L 2434 4184 
L 2434 4953 
z
" transform="scale(0.015625)"/>
      <path id="DejaVuSans-Bold-6c" d="M 538 4863 
L 1656 4863 
L 1656 0 
L 538 0 
L 538 4863 
z
" transform="scale(0.015625)"/>
      <path id="DejaVuSans-Bold-20" transform="scale(0.015625)"/>
      <path id="DejaVuSans-Bold-6b" d="M 538 4863 
L 1656 4863 
L 1656 2216 
L 2944 3500 
L 4244 3500 
L 2534 1894 
L 4378 0 
L 3022 0 
L 1656 1459 
L 1656 0 
L 538 0 
L 538 4863 
z
" transform="scale(0.015625)"/>
      <path id="DejaVuSans-Bold-28" d="M 2413 -844 
L 1484 -844 
Q 1006 -72 778 623 
Q 550 1319 550 2003 
Q 550 2688 779 3389 
Q 1009 4091 1484 4856 
L 2413 4856 
Q 2013 4116 1813 3408 
Q 1613 2700 1613 2009 
Q 1613 1319 1811 609 
Q 2009 -100 2413 -844 
z
" transform="scale(0.015625)"/>
      <path id="DejaVuSans-Bold-54" d="M 31 4666 
L 4331 4666 
L 4331 3756 
L 2784 3756 
L 2784 0 
L 1581 0 
L 1581 3756 
L 31 3756 
L 31 4666 
z
" transform="scale(0.015625)"/>
      <path id="DejaVuSans-Bold-29" d="M 513 -844 
Q 913 -100 1113 609 
Q 1313 1319 1313 2009 
Q 1313 2700 1113 3408 
Q 913 4116 513 4856 
L 1441 4856 
Q 1916 4091 2145 3389 
Q 2375 2688 2375 2003 
Q 2375 1319 2147 623 
Q 1919 -72 1441 -844 
L 513 -844 
z
" transform="scale(0.015625)"/>
      <path id="DejaVuSans-Bold-2f" d="M 1644 4666 
L 2338 4666 
L 691 -594 
L 0 -594 
L 1644 4666 
z
" transform="scale(0.015625)"/>
      <path id="DejaVuSans-Bold-2080" d="M 1806 1288 
Q 1806 1779 1706 1979 
Q 1606 2179 1368 2179 
Q 1131 2179 1028 1979 
Q 928 1779 928 1288 
Q 928 791 1028 588 
Q 1131 385 1369 385 
Q 1603 385 1706 588 
Q 1806 791 1806 1288 
z
M 2547 1285 
Q 2547 626 2241 279 
Q 1931 -71 1369 -71 
Q 797 -71 494 279 
Q 188 632 188 1285 
Q 188 1935 494 2285 
Q 803 2638 1369 2638 
Q 1931 2638 2241 2285 
Q 2547 1935 2547 1285 
z
" transform="scale(0.015625)"/>
     </defs>
     <use xlink:href="#DejaVuSans-Bold-41"/>
     <use xlink:href="#DejaVuSans-Bold-72" transform="translate(77.392578 0)"/>
     <use xlink:href="#DejaVuSans-Bold-72" transform="translate(126.708984 0)"/>
     <use xlink:href="#DejaVuSans-Bold-68" transform="translate(176.025391 0)"/>
     <use xlink:href="#DejaVuSans-Bold-65" transform="translate(247.216797 0)"/>
     <use xlink:href="#DejaVuSans-Bold-6e" transform="translate(315.039062 0)"/>
     <use xlink:href="#DejaVuSans-Bold-69" transform="translate(386.230469 0)"/>
     <use xlink:href="#DejaVuSans-Bold-75" transform="translate(420.507812 0)"/>
     <use xlink:href="#DejaVuSans-Bold-73" transform="translate(491.699219 0)"/>
     <use xlink:href="#DejaVuSans-Bold-2d" transform="translate(551.220703 0)"/>
     <use xlink:href="#DejaVuSans-Bold-52" transform="translate(592.724609 0)"/>
     <use xlink:href="#DejaVuSans-Bold-61" transform="translate(669.726562 0)"/>
     <use xlink:href="#DejaVuSans-Bold-74" transform="translate(737.207031 0)"/>
     <use xlink:href="#DejaVuSans-Bold-65" transform="translate(785.009766 0)"/>
     <use xlink:href="#DejaVuSans-Bold-6e" transform="translate(852.832031 0)"/>
     <use xlink:href="#DejaVuSans-Bold-76" transform="translate(924.023438 0)"/>
     <use xlink:href="#DejaVuSans-Bold-65" transform="translate(989.208984 0)"/>
     <use xlink:href="#DejaVuSans-Bold-72" transform="translate(1057.03125 0)"/>
     <use xlink:href="#DejaVuSans-Bold-68" transform="translate(1106.347656 0)"/>
     <use xlink:href="#DejaVuSans-Bold-e4" transform="translate(1177.539062 0)"/>
     <use xlink:href="#DejaVuSans-Bold-6c" transform="translate(1245.019531 0)"/>
     <use xlink:href="#DejaVuSans-Bold-74" transform="translate(1279.296875 0)"/>
     <use xlink:href="#DejaVuSans-Bold-6e" transform="translate(1327.099609 0)"/>
     <use xlink:href="#DejaVuSans-Bold-69" transform="translate(1398.291016 0)"/>
     <use xlink:href="#DejaVuSans-Bold-73" transform="translate(1432.568359 0)"/>
     <use xlink:href="#DejaVuSans-Bold-20" transform="translate(1492.089844 0)"/>
     <use xlink:href="#DejaVuSans-Bold-6b" transform="translate(1526.904297 0)"/>
     <use xlink:href="#DejaVuSans-Bold-28" transform="translate(1593.408203 0)"/>
     <use xlink:href="#DejaVuSans-Bold-54" transform="translate(1639.111328 0)"/>
     <use xlink:href="#DejaVuSans-Bold-29" transform="translate(1707.324219 0)"/>
     <use xlink:href="#DejaVuSans-Bold-2f" transform="translate(1753.027344 0)"/>
     <use xlink:href="#DejaVuSans-Bold-6b" transform="translate(1789.550781 0)"/>
     <use xlink:href="#DejaVuSans-Bold-28" transform="translate(1856.054688 0)"/>
     <use xlink:href="#DejaVuSans-Bold-54" transform="translate(1901.757812 0)"/>
     <use xlink:href="#DejaVuSans-Bold-2080" transform="translate(1969.970703 0)"/>
     <use xlink:href="#DejaVuSans-Bold-29" transform="translate(2013.769531 0)"/>
    </g>
   </g>
   <g id="legend_1">
    <g id="patch_5">
     <path d="M 57.678125 112.517824 
L 150.936406 112.517824 
Q 152.736406 112.517824 152.736406 110.717824 
L 152.736406 45.566261 
Q 152.736406 43.766261 150.936406 43.766261 
L 57.678125 43.766261 
Q 55.878125 43.766261 55.878125 45.566261 
L 55.878125 110.717824 
Q 55.878125 112.517824 57.678125 112.517824 
z
" style="fill: #ffffff; opacity: 0.85; stroke: #cccccc; stroke-linejoin: miter"/>
    </g>
    <g id="line2d_63">
     <path d="M 59.478125 51.054855 
L 68.478125 51.054855 
L 77.478125 51.054855 
" style="fill: none; stroke: #1f77b4; stroke-width: 1.5; stroke-linecap: square"/>
    </g>
    <g id="text_13">
     <!-- Eₐ = 30 kJ/mol -->
     <g transform="translate(84.678125 54.204855) scale(0.09 -0.09)">
      <defs>
       <path id="DejaVuSans-45" d="M 628 4666 
L 3578 4666 
L 3578 4134 
L 1259 4134 
L 1259 2753 
L 3481 2753 
L 3481 2222 
L 1259 2222 
L 1259 531 
L 3634 531 
L 3634 0 
L 628 0 
L 628 4666 
z
" transform="scale(0.015625)"/>
       <path id="DejaVuSans-2090" d="M 1381 960 
Q 944 960 775 872 
Q 603 782 603 566 
Q 603 394 731 294 
Q 859 194 1078 194 
Q 1378 194 1559 385 
Q 1744 576 1744 888 
L 1744 960 
L 1381 960 
z
M 2103 1094 
L 2103 -24 
L 1744 -24 
L 1744 272 
Q 1619 94 1434 10 
Q 1247 -74 981 -74 
Q 641 -74 441 94 
Q 241 263 241 547 
Q 241 876 491 1044 
Q 741 1213 1234 1213 
L 1744 1213 
L 1744 1244 
Q 1744 1466 1578 1588 
Q 1413 1710 1116 1710 
Q 928 1710 747 1669 
Q 569 1629 403 1547 
L 403 1847 
Q 603 1913 791 1947 
Q 975 1982 1153 1982 
Q 1631 1982 1869 1763 
Q 2103 1541 2103 1094 
z
" transform="scale(0.015625)"/>
       <path id="DejaVuSans-3d" d="M 678 2906 
L 4684 2906 
L 4684 2381 
L 678 2381 
L 678 2906 
z
M 678 1631 
L 4684 1631 
L 4684 1100 
L 678 1100 
L 678 1631 
z
" transform="scale(0.015625)"/>
       <path id="DejaVuSans-33" d="M 2597 2516 
Q 3050 2419 3304 2112 
Q 3559 1806 3559 1356 
Q 3559 666 3084 287 
Q 2609 -91 1734 -91 
Q 1441 -91 1130 -33 
Q 819 25 488 141 
L 488 750 
Q 750 597 1062 519 
Q 1375 441 1716 441 
Q 2309 441 2620 675 
Q 2931 909 2931 1356 
Q 2931 1769 2642 2001 
Q 2353 2234 1838 2234 
L 1294 2234 
L 1294 2753 
L 1863 2753 
Q 2328 2753 2575 2939 
Q 2822 3125 2822 3475 
Q 2822 3834 2567 4026 
Q 2313 4219 1838 4219 
Q 1578 4219 1281 4162 
Q 984 4106 628 3988 
L 628 4550 
Q 988 4650 1302 4700 
Q 1616 4750 1894 4750 
Q 2613 4750 3031 4423 
Q 3450 4097 3450 3541 
Q 3450 3153 3228 2886 
Q 3006 2619 2597 2516 
z
" transform="scale(0.015625)"/>
       <path id="DejaVuSans-4a" d="M 628 4666 
L 1259 4666 
L 1259 325 
Q 1259 -519 939 -900 
Q 619 -1281 -91 -1281 
L -331 -1281 
L -331 -750 
L -134 -750 
Q 284 -750 456 -515 
Q 628 -281 628 325 
L 628 4666 
z
" transform="scale(0.015625)"/>
      </defs>
      <use xlink:href="#DejaVuSans-45"/>
      <use xlink:href="#DejaVuSans-2090" transform="translate(63.183594 0)"/>
      <use xlink:href="#DejaVuSans-20" transform="translate(102.34375 0)"/>
      <use xlink:href="#DejaVuSans-3d" transform="translate(134.130859 0)"/>
      <use xlink:href="#DejaVuSans-20" transform="translate(217.919922 0)"/>
      <use xlink:href="#DejaVuSans-33" transform="translate(249.707031 0)"/>
      <use xlink:href="#DejaVuSans-30" transform="translate(313.330078 0)"/>
      <use xlink:href="#DejaVuSans-20" transform="translate(376.953125 0)"/>
      <use xlink:href="#DejaVuSans-6b" transform="translate(408.740234 0)"/>
      <use xlink:href="#DejaVuSans-4a" transform="translate(466.650391 0)"/>
      <use xlink:href="#DejaVuSans-2f" transform="translate(496.142578 0)"/>
      <use xlink:href="#DejaVuSans-6d" transform="translate(529.833984 0)"/>
      <use xlink:href="#DejaVuSans-6f" transform="translate(627.246094 0)"/>
      <use xlink:href="#DejaVuSans-6c" transform="translate(688.427734 0)"/>
     </g>
    </g>
    <g id="line2d_64">
     <path d="M 59.478125 64.265167 
L 68.478125 64.265167 
L 77.478125 64.265167 
" style="fill: none; stroke: #ff7f0e; stroke-width: 1.5; stroke-linecap: square"/>
    </g>
    <g id="text_14">
     <!-- Eₐ = 50 kJ/mol -->
     <g transform="translate(84.678125 67.415167) scale(0.09 -0.09)">
      <defs>
       <path id="DejaVuSans-35" d="M 691 4666 
L 3169 4666 
L 3169 4134 
L 1269 4134 
L 1269 2991 
Q 1406 3038 1543 3061 
Q 1681 3084 1819 3084 
Q 2600 3084 3056 2656 
Q 3513 2228 3513 1497 
Q 3513 744 3044 326 
Q 2575 -91 1722 -91 
Q 1428 -91 1123 -41 
Q 819 9 494 109 
L 494 744 
Q 775 591 1075 516 
Q 1375 441 1709 441 
Q 2250 441 2565 725 
Q 2881 1009 2881 1497 
Q 2881 1984 2565 2268 
Q 2250 2553 1709 2553 
Q 1456 2553 1204 2497 
Q 953 2441 691 2322 
L 691 4666 
z
" transform="scale(0.015625)"/>
      </defs>
      <use xlink:href="#DejaVuSans-45"/>
      <use xlink:href="#DejaVuSans-2090" transform="translate(63.183594 0)"/>
      <use xlink:href="#DejaVuSans-20" transform="translate(102.34375 0)"/>
      <use xlink:href="#DejaVuSans-3d" transform="translate(134.130859 0)"/>
      <use xlink:href="#DejaVuSans-20" transform="translate(217.919922 0)"/>
      <use xlink:href="#DejaVuSans-35" transform="translate(249.707031 0)"/>
      <use xlink:href="#DejaVuSans-30" transform="translate(313.330078 0)"/>
      <use xlink:href="#DejaVuSans-20" transform="translate(376.953125 0)"/>
      <use xlink:href="#DejaVuSans-6b" transform="translate(408.740234 0)"/>
      <use xlink:href="#DejaVuSans-4a" transform="translate(466.650391 0)"/>
      <use xlink:href="#DejaVuSans-2f" transform="translate(496.142578 0)"/>
      <use xlink:href="#DejaVuSans-6d" transform="translate(529.833984 0)"/>
      <use xlink:href="#DejaVuSans-6f" transform="translate(627.246094 0)"/>
      <use xlink:href="#DejaVuSans-6c" transform="translate(688.427734 0)"/>
     </g>
    </g>
    <g id="line2d_65">
     <path d="M 59.478125 77.47548 
L 68.478125 77.47548 
L 77.478125 77.47548 
" style="fill: none; stroke: #2ca02c; stroke-width: 1.5; stroke-linecap: square"/>
    </g>
    <g id="text_15">
     <!-- Eₐ = 70 kJ/mol -->
     <g transform="translate(84.678125 80.62548) scale(0.09 -0.09)">
      <defs>
       <path id="DejaVuSans-37" d="M 525 4666 
L 3525 4666 
L 3525 4397 
L 1831 0 
L 1172 0 
L 2766 4134 
L 525 4134 
L 525 4666 
z
" transform="scale(0.015625)"/>
      </defs>
      <use xlink:href="#DejaVuSans-45"/>
      <use xlink:href="#DejaVuSans-2090" transform="translate(63.183594 0)"/>
      <use xlink:href="#DejaVuSans-20" transform="translate(102.34375 0)"/>
      <use xlink:href="#DejaVuSans-3d" transform="translate(134.130859 0)"/>
      <use xlink:href="#DejaVuSans-20" transform="translate(217.919922 0)"/>
      <use xlink:href="#DejaVuSans-37" transform="translate(249.707031 0)"/>
      <use xlink:href="#DejaVuSans-30" transform="translate(313.330078 0)"/>
      <use xlink:href="#DejaVuSans-20" transform="translate(376.953125 0)"/>
      <use xlink:href="#DejaVuSans-6b" transform="translate(408.740234 0)"/>
      <use xlink:href="#DejaVuSans-4a" transform="translate(466.650391 0)"/>
      <use xlink:href="#DejaVuSans-2f" transform="translate(496.142578 0)"/>
      <use xlink:href="#DejaVuSans-6d" transform="translate(529.833984 0)"/>
      <use xlink:href="#DejaVuSans-6f" transform="translate(627.246094 0)"/>
      <use xlink:href="#DejaVuSans-6c" transform="translate(688.427734 0)"/>
     </g>
    </g>
    <g id="line2d_66">
     <path d="M 59.478125 90.685792 
L 68.478125 90.685792 
L 77.478125 90.685792 
" style="fill: none; stroke: #d62728; stroke-width: 1.5; stroke-linecap: square"/>
    </g>
    <g id="text_16">
     <!-- Eₐ = 90 kJ/mol -->
     <g transform="translate(84.678125 93.835792) scale(0.09 -0.09)">
      <defs>
       <path id="DejaVuSans-39" d="M 703 97 
L 703 672 
Q 941 559 1184 500 
Q 1428 441 1663 441 
Q 2288 441 2617 861 
Q 2947 1281 2994 2138 
Q 2813 1869 2534 1725 
Q 2256 1581 1919 1581 
Q 1219 1581 811 2004 
Q 403 2428 403 3163 
Q 403 3881 828 4315 
Q 1253 4750 1959 4750 
Q 2769 4750 3195 4129 
Q 3622 3509 3622 2328 
Q 3622 1225 3098 567 
Q 2575 -91 1691 -91 
Q 1453 -91 1209 -44 
Q 966 3 703 97 
z
M 1959 2075 
Q 2384 2075 2632 2365 
Q 2881 2656 2881 3163 
Q 2881 3666 2632 3958 
Q 2384 4250 1959 4250 
Q 1534 4250 1286 3958 
Q 1038 3666 1038 3163 
Q 1038 2656 1286 2365 
Q 1534 2075 1959 2075 
z
" transform="scale(0.015625)"/>
      </defs>
      <use xlink:href="#DejaVuSans-45"/>
      <use xlink:href="#DejaVuSans-2090" transform="translate(63.183594 0)"/>
      <use xlink:href="#DejaVuSans-20" transform="translate(102.34375 0)"/>
      <use xlink:href="#DejaVuSans-3d" transform="translate(134.130859 0)"/>
      <use xlink:href="#DejaVuSans-20" transform="translate(217.919922 0)"/>
      <use xlink:href="#DejaVuSans-39" transform="translate(249.707031 0)"/>
      <use xlink:href="#DejaVuSans-30" transform="translate(313.330078 0)"/>
      <use xlink:href="#DejaVuSans-20" transform="translate(376.953125 0)"/>
      <use xlink:href="#DejaVuSans-6b" transform="translate(408.740234 0)"/>
      <use xlink:href="#DejaVuSans-4a" transform="translate(466.650391 0)"/>
      <use xlink:href="#DejaVuSans-2f" transform="translate(496.142578 0)"/>
      <use xlink:href="#DejaVuSans-6d" transform="translate(529.833984 0)"/>
      <use xlink:href="#DejaVuSans-6f" transform="translate(627.246094 0)"/>
      <use xlink:href="#DejaVuSans-6c" transform="translate(688.427734 0)"/>
     </g>
    </g>
    <g id="line2d_67">
     <path d="M 59.478125 103.896105 
L 68.478125 103.896105 
L 77.478125 103.896105 
" style="fill: none; stroke-dasharray: 3.33,1.44; stroke-dashoffset: 0; stroke: #808080; stroke-width: 0.9"/>
    </g>
    <g id="text_17">
     <!-- T₀ = 25 °C -->
     <g transform="translate(84.678125 107.046105) scale(0.09 -0.09)">
      <use xlink:href="#DejaVuSans-54"/>
      <use xlink:href="#DejaVuSans-2080" transform="translate(61.083984 0)"/>
      <use xlink:href="#DejaVuSans-20" transform="translate(101.171875 0)"/>
      <use xlink:href="#DejaVuSans-3d" transform="translate(132.958984 0)"/>
      <use xlink:href="#DejaVuSans-20" transform="translate(216.748047 0)"/>
      <use xlink:href="#DejaVuSans-32" transform="translate(248.535156 0)"/>
      <use xlink:href="#DejaVuSans-35" transform="translate(312.158203 0)"/>
      <use xlink:href="#DejaVuSans-20" transform="translate(375.78125 0)"/>
      <use xlink:href="#DejaVuSans-b0" transform="translate(407.568359 0)"/>
      <use xlink:href="#DejaVuSans-43" transform="translate(457.568359 0)"/>
     </g>
    </g>
   </g>
  </g>
  <g id="axes_2">
   <g id="patch_6">
    <path d="M 520.440697 330.84327 
L 937.19952 330.84327 
L 937.19952 39.266261 
L 520.440697 39.266261 
z
" style="fill: #ffffff"/>
   </g>
   <g id="matplotlib.axis_3">
    <g id="xtick_5">
     <g id="line2d_68">
      <path d="M 539.38428 330.84327 
L 539.38428 39.266261 
" clip-path="url(#p3e1c119bb1)" style="fill: none; stroke-dasharray: 2.96,1.28; stroke-dashoffset: 0; stroke: #b0b0b0; stroke-opacity: 0.3; stroke-width: 0.8"/>
     </g>
     <g id="line2d_69">
      <g>
       <use xlink:href="#m820ef0aebc" x="539.38428" y="330.84327" style="stroke: #000000; stroke-width: 0.8"/>
      </g>
     </g>
     <g id="text_18">
      <!-- 0 -->
      <g transform="translate(536.20303 345.441707) scale(0.1 -0.1)">
       <use xlink:href="#DejaVuSans-30"/>
      </g>
     </g>
    </g>
    <g id="xtick_6">
     <g id="line2d_70">
      <path d="M 591.343822 330.84327 
L 591.343822 39.266261 
" clip-path="url(#p3e1c119bb1)" style="fill: none; stroke-dasharray: 2.96,1.28; stroke-dashoffset: 0; stroke: #b0b0b0; stroke-opacity: 0.3; stroke-width: 0.8"/>
     </g>
     <g id="line2d_71">
      <g>
       <use xlink:href="#m820ef0aebc" x="591.343822" y="330.84327" style="stroke: #000000; stroke-width: 0.8"/>
      </g>
     </g>
     <g id="text_19">
      <!-- 50 -->
      <g transform="translate(584.981322 345.441707) scale(0.1 -0.1)">
       <use xlink:href="#DejaVuSans-35"/>
       <use xlink:href="#DejaVuSans-30" transform="translate(63.623047 0)"/>
      </g>
     </g>
    </g>
    <g id="xtick_7">
     <g id="line2d_72">
      <path d="M 643.303363 330.84327 
L 643.303363 39.266261 
" clip-path="url(#p3e1c119bb1)" style="fill: none; stroke-dasharray: 2.96,1.28; stroke-dashoffset: 0; stroke: #b0b0b0; stroke-opacity: 0.3; stroke-width: 0.8"/>
     </g>
     <g id="line2d_73">
      <g>
       <use xlink:href="#m820ef0aebc" x="643.303363" y="330.84327" style="stroke: #000000; stroke-width: 0.8"/>
      </g>
     </g>
     <g id="text_20">
      <!-- 100 -->
      <g transform="translate(633.759613 345.441707) scale(0.1 -0.1)">
       <use xlink:href="#DejaVuSans-31"/>
       <use xlink:href="#DejaVuSans-30" transform="translate(63.623047 0)"/>
       <use xlink:href="#DejaVuSans-30" transform="translate(127.246094 0)"/>
      </g>
     </g>
    </g>
    <g id="xtick_8">
     <g id="line2d_74">
      <path d="M 695.262905 330.84327 
L 695.262905 39.266261 
" clip-path="url(#p3e1c119bb1)" style="fill: none; stroke-dasharray: 2.96,1.28; stroke-dashoffset: 0; stroke: #b0b0b0; stroke-opacity: 0.3; stroke-width: 0.8"/>
     </g>
     <g id="line2d_75">
      <g>
       <use xlink:href="#m820ef0aebc" x="695.262905" y="330.84327" style="stroke: #000000; stroke-width: 0.8"/>
      </g>
     </g>
     <g id="text_21">
      <!-- 150 -->
      <g transform="translate(685.719155 345.441707) scale(0.1 -0.1)">
       <use xlink:href="#DejaVuSans-31"/>
       <use xlink:href="#DejaVuSans-35" transform="translate(63.623047 0)"/>
       <use xlink:href="#DejaVuSans-30" transform="translate(127.246094 0)"/>
      </g>
     </g>
    </g>
    <g id="xtick_9">
     <g id="line2d_76">
      <path d="M 747.222446 330.84327 
L 747.222446 39.266261 
" clip-path="url(#p3e1c119bb1)" style="fill: none; stroke-dasharray: 2.96,1.28; stroke-dashoffset: 0; stroke: #b0b0b0; stroke-opacity: 0.3; stroke-width: 0.8"/>
     </g>
     <g id="line2d_77">
      <g>
       <use xlink:href="#m820ef0aebc" x="747.222446" y="330.84327" style="stroke: #000000; stroke-width: 0.8"/>
      </g>
     </g>
     <g id="text_22">
      <!-- 200 -->
      <g transform="translate(737.678696 345.441707) scale(0.1 -0.1)">
       <use xlink:href="#DejaVuSans-32"/>
       <use xlink:href="#DejaVuSans-30" transform="translate(63.623047 0)"/>
       <use xlink:href="#DejaVuSans-30" transform="translate(127.246094 0)"/>
      </g>
     </g>
    </g>
    <g id="xtick_10">
     <g id="line2d_78">
      <path d="M 799.181988 330.84327 
L 799.181988 39.266261 
" clip-path="url(#p3e1c119bb1)" style="fill: none; stroke-dasharray: 2.96,1.28; stroke-dashoffset: 0; stroke: #b0b0b0; stroke-opacity: 0.3; stroke-width: 0.8"/>
     </g>
     <g id="line2d_79">
      <g>
       <use xlink:href="#m820ef0aebc" x="799.181988" y="330.84327" style="stroke: #000000; stroke-width: 0.8"/>
      </g>
     </g>
     <g id="text_23">
      <!-- 250 -->
      <g transform="translate(789.638238 345.441707) scale(0.1 -0.1)">
       <use xlink:href="#DejaVuSans-32"/>
       <use xlink:href="#DejaVuSans-35" transform="translate(63.623047 0)"/>
       <use xlink:href="#DejaVuSans-30" transform="translate(127.246094 0)"/>
      </g>
     </g>
    </g>
    <g id="xtick_11">
     <g id="line2d_80">
      <path d="M 851.141529 330.84327 
L 851.141529 39.266261 
" clip-path="url(#p3e1c119bb1)" style="fill: none; stroke-dasharray: 2.96,1.28; stroke-dashoffset: 0; stroke: #b0b0b0; stroke-opacity: 0.3; stroke-width: 0.8"/>
     </g>
     <g id="line2d_81">
      <g>
       <use xlink:href="#m820ef0aebc" x="851.141529" y="330.84327" style="stroke: #000000; stroke-width: 0.8"/>
      </g>
     </g>
     <g id="text_24">
      <!-- 300 -->
      <g transform="translate(841.597779 345.441707) scale(0.1 -0.1)">
       <use xlink:href="#DejaVuSans-33"/>
       <use xlink:href="#DejaVuSans-30" transform="translate(63.623047 0)"/>
       <use xlink:href="#DejaVuSans-30" transform="translate(127.246094 0)"/>
      </g>
     </g>
    </g>
    <g id="xtick_12">
     <g id="line2d_82">
      <path d="M 903.101071 330.84327 
L 903.101071 39.266261 
" clip-path="url(#p3e1c119bb1)" style="fill: none; stroke-dasharray: 2.96,1.28; stroke-dashoffset: 0; stroke: #b0b0b0; stroke-opacity: 0.3; stroke-width: 0.8"/>
     </g>
     <g id="line2d_83">
      <g>
       <use xlink:href="#m820ef0aebc" x="903.101071" y="330.84327" style="stroke: #000000; stroke-width: 0.8"/>
      </g>
     </g>
     <g id="text_25">
      <!-- 350 -->
      <g transform="translate(893.557321 345.441707) scale(0.1 -0.1)">
       <use xlink:href="#DejaVuSans-33"/>
       <use xlink:href="#DejaVuSans-35" transform="translate(63.623047 0)"/>
       <use xlink:href="#DejaVuSans-30" transform="translate(127.246094 0)"/>
      </g>
     </g>
    </g>
    <g id="text_26">
     <!-- Zeit [Tage] -->
     <g transform="translate(701.934952 359.119832) scale(0.1 -0.1)">
      <defs>
       <path id="DejaVuSans-5a" d="M 359 4666 
L 4025 4666 
L 4025 4184 
L 1075 531 
L 4097 531 
L 4097 0 
L 288 0 
L 288 481 
L 3238 4134 
L 359 4134 
L 359 4666 
z
" transform="scale(0.015625)"/>
       <path id="DejaVuSans-69" d="M 603 3500 
L 1178 3500 
L 1178 0 
L 603 0 
L 603 3500 
z
M 603 4863 
L 1178 4863 
L 1178 4134 
L 603 4134 
L 603 4863 
z
" transform="scale(0.015625)"/>
      </defs>
      <use xlink:href="#DejaVuSans-5a"/>
      <use xlink:href="#DejaVuSans-65" transform="translate(68.505859 0)"/>
      <use xlink:href="#DejaVuSans-69" transform="translate(130.029297 0)"/>
      <use xlink:href="#DejaVuSans-74" transform="translate(157.8125 0)"/>
      <use xlink:href="#DejaVuSans-20" transform="translate(197.021484 0)"/>
      <use xlink:href="#DejaVuSans-5b" transform="translate(228.808594 0)"/>
      <use xlink:href="#DejaVuSans-54" transform="translate(267.822266 0)"/>
      <use xlink:href="#DejaVuSans-61" transform="translate(312.40625 0)"/>
      <use xlink:href="#DejaVuSans-67" transform="translate(373.685547 0)"/>
      <use xlink:href="#DejaVuSans-65" transform="translate(437.162109 0)"/>
      <use xlink:href="#DejaVuSans-5d" transform="translate(498.685547 0)"/>
     </g>
    </g>
   </g>
   <g id="matplotlib.axis_4">
    <g id="ytick_45">
     <g id="line2d_84">
      <path d="M 520.440697 317.58977 
L 937.19952 317.58977 
" clip-path="url(#p3e1c119bb1)" style="fill: none; stroke-dasharray: 2.96,1.28; stroke-dashoffset: 0; stroke: #b0b0b0; stroke-opacity: 0.3; stroke-width: 0.8"/>
     </g>
     <g id="line2d_85">
      <g>
       <use xlink:href="#m26ce8b1fab" x="520.440697" y="317.58977" style="stroke: #000000; stroke-width: 0.8"/>
      </g>
     </g>
     <g id="text_27">
      <!-- 0.00 -->
      <g transform="translate(491.175072 321.388988) scale(0.1 -0.1)">
       <defs>
        <path id="DejaVuSans-2e" d="M 684 794 
L 1344 794 
L 1344 0 
L 684 0 
L 684 794 
z
" transform="scale(0.015625)"/>
       </defs>
       <use xlink:href="#DejaVuSans-30"/>
       <use xlink:href="#DejaVuSans-2e" transform="translate(63.623047 0)"/>
       <use xlink:href="#DejaVuSans-30" transform="translate(95.410156 0)"/>
       <use xlink:href="#DejaVuSans-30" transform="translate(159.033203 0)"/>
      </g>
     </g>
    </g>
    <g id="ytick_46">
     <g id="line2d_86">
      <path d="M 520.440697 283.839636 
L 937.19952 283.839636 
" clip-path="url(#p3e1c119bb1)" style="fill: none; stroke-dasharray: 2.96,1.28; stroke-dashoffset: 0; stroke: #b0b0b0; stroke-opacity: 0.3; stroke-width: 0.8"/>
     </g>
     <g id="line2d_87">
      <g>
       <use xlink:href="#m26ce8b1fab" x="520.440697" y="283.839636" style="stroke: #000000; stroke-width: 0.8"/>
      </g>
     </g>
     <g id="text_28">
      <!-- 0.25 -->
      <g transform="translate(491.175072 287.638855) scale(0.1 -0.1)">
       <use xlink:href="#DejaVuSans-30"/>
       <use xlink:href="#DejaVuSans-2e" transform="translate(63.623047 0)"/>
       <use xlink:href="#DejaVuSans-32" transform="translate(95.410156 0)"/>
       <use xlink:href="#DejaVuSans-35" transform="translate(159.033203 0)"/>
      </g>
     </g>
    </g>
    <g id="ytick_47">
     <g id="line2d_88">
      <path d="M 520.440697 250.089503 
L 937.19952 250.089503 
" clip-path="url(#p3e1c119bb1)" style="fill: none; stroke-dasharray: 2.96,1.28; stroke-dashoffset: 0; stroke: #b0b0b0; stroke-opacity: 0.3; stroke-width: 0.8"/>
     </g>
     <g id="line2d_89">
      <g>
       <use xlink:href="#m26ce8b1fab" x="520.440697" y="250.089503" style="stroke: #000000; stroke-width: 0.8"/>
      </g>
     </g>
     <g id="text_29">
      <!-- 0.50 -->
      <g transform="translate(491.175072 253.888721) scale(0.1 -0.1)">
       <use xlink:href="#DejaVuSans-30"/>
       <use xlink:href="#DejaVuSans-2e" transform="translate(63.623047 0)"/>
       <use xlink:href="#DejaVuSans-35" transform="translate(95.410156 0)"/>
       <use xlink:href="#DejaVuSans-30" transform="translate(159.033203 0)"/>
      </g>
     </g>
    </g>
    <g id="ytick_48">
     <g id="line2d_90">
      <path d="M 520.440697 216.339369 
L 937.19952 216.339369 
" clip-path="url(#p3e1c119bb1)" style="fill: none; stroke-dasharray: 2.96,1.28; stroke-dashoffset: 0; stroke: #b0b0b0; stroke-opacity: 0.3; stroke-width: 0.8"/>
     </g>
     <g id="line2d_91">
      <g>
       <use xlink:href="#m26ce8b1fab" x="520.440697" y="216.339369" style="stroke: #000000; stroke-width: 0.8"/>
      </g>
     </g>
     <g id="text_30">
      <!-- 0.75 -->
      <g transform="translate(491.175072 220.138588) scale(0.1 -0.1)">
       <use xlink:href="#DejaVuSans-30"/>
       <use xlink:href="#DejaVuSans-2e" transform="translate(63.623047 0)"/>
       <use xlink:href="#DejaVuSans-37" transform="translate(95.410156 0)"/>
       <use xlink:href="#DejaVuSans-35" transform="translate(159.033203 0)"/>
      </g>
     </g>
    </g>
    <g id="ytick_49">
     <g id="line2d_92">
      <path d="M 520.440697 182.589235 
L 937.19952 182.589235 
" clip-path="url(#p3e1c119bb1)" style="fill: none; stroke-dasharray: 2.96,1.28; stroke-dashoffset: 0; stroke: #b0b0b0; stroke-opacity: 0.3; stroke-width: 0.8"/>
     </g>
     <g id="line2d_93">
      <g>
       <use xlink:href="#m26ce8b1fab" x="520.440697" y="182.589235" style="stroke: #000000; stroke-width: 0.8"/>
      </g>
     </g>
     <g id="text_31">
      <!-- 1.00 -->
      <g transform="translate(491.175072 186.388454) scale(0.1 -0.1)">
       <use xlink:href="#DejaVuSans-31"/>
       <use xlink:href="#DejaVuSans-2e" transform="translate(63.623047 0)"/>
       <use xlink:href="#DejaVuSans-30" transform="translate(95.410156 0)"/>
       <use xlink:href="#DejaVuSans-30" transform="translate(159.033203 0)"/>
      </g>
     </g>
    </g>
    <g id="ytick_50">
     <g id="line2d_94">
      <path d="M 520.440697 148.839102 
L 937.19952 148.839102 
" clip-path="url(#p3e1c119bb1)" style="fill: none; stroke-dasharray: 2.96,1.28; stroke-dashoffset: 0; stroke: #b0b0b0; stroke-opacity: 0.3; stroke-width: 0.8"/>
     </g>
     <g id="line2d_95">
      <g>
       <use xlink:href="#m26ce8b1fab" x="520.440697" y="148.839102" style="stroke: #000000; stroke-width: 0.8"/>
      </g>
     </g>
     <g id="text_32">
      <!-- 1.25 -->
      <g transform="translate(491.175072 152.638321) scale(0.1 -0.1)">
       <use xlink:href="#DejaVuSans-31"/>
       <use xlink:href="#DejaVuSans-2e" transform="translate(63.623047 0)"/>
       <use xlink:href="#DejaVuSans-32" transform="translate(95.410156 0)"/>
       <use xlink:href="#DejaVuSans-35" transform="translate(159.033203 0)"/>
      </g>
     </g>
    </g>
    <g id="ytick_51">
     <g id="line2d_96">
      <path d="M 520.440697 115.088968 
L 937.19952 115.088968 
" clip-path="url(#p3e1c119bb1)" style="fill: none; stroke-dasharray: 2.96,1.28; stroke-dashoffset: 0; stroke: #b0b0b0; stroke-opacity: 0.3; stroke-width: 0.8"/>
     </g>
     <g id="line2d_97">
      <g>
       <use xlink:href="#m26ce8b1fab" x="520.440697" y="115.088968" style="stroke: #000000; stroke-width: 0.8"/>
      </g>
     </g>
     <g id="text_33">
      <!-- 1.50 -->
      <g transform="translate(491.175072 118.888187) scale(0.1 -0.1)">
       <use xlink:href="#DejaVuSans-31"/>
       <use xlink:href="#DejaVuSans-2e" transform="translate(63.623047 0)"/>
       <use xlink:href="#DejaVuSans-35" transform="translate(95.410156 0)"/>
       <use xlink:href="#DejaVuSans-30" transform="translate(159.033203 0)"/>
      </g>
     </g>
    </g>
    <g id="ytick_52">
     <g id="line2d_98">
      <path d="M 520.440697 81.338835 
L 937.19952 81.338835 
" clip-path="url(#p3e1c119bb1)" style="fill: none; stroke-dasharray: 2.96,1.28; stroke-dashoffset: 0; stroke: #b0b0b0; stroke-opacity: 0.3; stroke-width: 0.8"/>
     </g>
     <g id="line2d_99">
      <g>
       <use xlink:href="#m26ce8b1fab" x="520.440697" y="81.338835" style="stroke: #000000; stroke-width: 0.8"/>
      </g>
     </g>
     <g id="text_34">
      <!-- 1.75 -->
      <g transform="translate(491.175072 85.138054) scale(0.1 -0.1)">
       <use xlink:href="#DejaVuSans-31"/>
       <use xlink:href="#DejaVuSans-2e" transform="translate(63.623047 0)"/>
       <use xlink:href="#DejaVuSans-37" transform="translate(95.410156 0)"/>
       <use xlink:href="#DejaVuSans-35" transform="translate(159.033203 0)"/>
      </g>
     </g>
    </g>
    <g id="ytick_53">
     <g id="line2d_100">
      <path d="M 520.440697 47.588701 
L 937.19952 47.588701 
" clip-path="url(#p3e1c119bb1)" style="fill: none; stroke-dasharray: 2.96,1.28; stroke-dashoffset: 0; stroke: #b0b0b0; stroke-opacity: 0.3; stroke-width: 0.8"/>
     </g>
     <g id="line2d_101">
      <g>
       <use xlink:href="#m26ce8b1fab" x="520.440697" y="47.588701" style="stroke: #000000; stroke-width: 0.8"/>
      </g>
     </g>
     <g id="text_35">
      <!-- 2.00 -->
      <g transform="translate(491.175072 51.38792) scale(0.1 -0.1)">
       <use xlink:href="#DejaVuSans-32"/>
       <use xlink:href="#DejaVuSans-2e" transform="translate(63.623047 0)"/>
       <use xlink:href="#DejaVuSans-30" transform="translate(95.410156 0)"/>
       <use xlink:href="#DejaVuSans-30" transform="translate(159.033203 0)"/>
      </g>
     </g>
    </g>
    <g id="text_36">
     <!-- SEI-Dicke δ [nm] -->
     <g transform="translate(485.095385 226.624297) rotate(-90) scale(0.1 -0.1)">
      <defs>
       <path id="DejaVuSans-53" d="M 3425 4513 
L 3425 3897 
Q 3066 4069 2747 4153 
Q 2428 4238 2131 4238 
Q 1616 4238 1336 4038 
Q 1056 3838 1056 3469 
Q 1056 3159 1242 3001 
Q 1428 2844 1947 2747 
L 2328 2669 
Q 3034 2534 3370 2195 
Q 3706 1856 3706 1288 
Q 3706 609 3251 259 
Q 2797 -91 1919 -91 
Q 1588 -91 1214 -16 
Q 841 59 441 206 
L 441 856 
Q 825 641 1194 531 
Q 1563 422 1919 422 
Q 2459 422 2753 634 
Q 3047 847 3047 1241 
Q 3047 1584 2836 1778 
Q 2625 1972 2144 2069 
L 1759 2144 
Q 1053 2284 737 2584 
Q 422 2884 422 3419 
Q 422 4038 858 4394 
Q 1294 4750 2059 4750 
Q 2388 4750 2728 4690 
Q 3069 4631 3425 4513 
z
" transform="scale(0.015625)"/>
       <path id="DejaVuSans-49" d="M 628 4666 
L 1259 4666 
L 1259 0 
L 628 0 
L 628 4666 
z
" transform="scale(0.015625)"/>
       <path id="DejaVuSans-2d" d="M 313 2009 
L 1997 2009 
L 1997 1497 
L 313 1497 
L 313 2009 
z
" transform="scale(0.015625)"/>
       <path id="DejaVuSans-44" d="M 1259 4147 
L 1259 519 
L 2022 519 
Q 2988 519 3436 956 
Q 3884 1394 3884 2338 
Q 3884 3275 3436 3711 
Q 2988 4147 2022 4147 
L 1259 4147 
z
M 628 4666 
L 1925 4666 
Q 3281 4666 3915 4102 
Q 4550 3538 4550 2338 
Q 4550 1131 3912 565 
Q 3275 0 1925 0 
L 628 0 
L 628 4666 
z
" transform="scale(0.015625)"/>
       <path id="DejaVuSans-63" d="M 3122 3366 
L 3122 2828 
Q 2878 2963 2633 3030 
Q 2388 3097 2138 3097 
Q 1578 3097 1268 2742 
Q 959 2388 959 1747 
Q 959 1106 1268 751 
Q 1578 397 2138 397 
Q 2388 397 2633 464 
Q 2878 531 3122 666 
L 3122 134 
Q 2881 22 2623 -34 
Q 2366 -91 2075 -91 
Q 1284 -91 818 406 
Q 353 903 353 1747 
Q 353 2603 823 3093 
Q 1294 3584 2113 3584 
Q 2378 3584 2631 3529 
Q 2884 3475 3122 3366 
z
" transform="scale(0.015625)"/>
       <path id="DejaVuSans-3b4" d="M 3138 4053 
Q 2819 4272 2072 4272 
Q 1281 4272 1281 3906 
Q 1281 3619 2106 3469 
Q 2756 3353 3122 3003 
Q 3566 2581 3566 1716 
Q 3566 888 3138 400 
Q 2709 -91 1959 -91 
Q 1213 -91 781 400 
Q 353 888 353 1747 
Q 353 2384 781 2900 
Q 947 3100 1181 3213 
Q 694 3459 694 3900 
Q 694 4750 2072 4750 
Q 2763 4750 3138 4531 
L 3138 4053 
z
M 1613 3056 
Q 1400 2966 1228 2738 
Q 959 2384 959 1747 
Q 959 1113 1225 756 
Q 1494 397 1959 397 
Q 2419 397 2687 759 
Q 2956 1122 2956 1716 
Q 2956 2338 2672 2638 
Q 2369 2959 1975 2994 
Q 1775 3013 1613 3056 
z
" transform="scale(0.015625)"/>
       <path id="DejaVuSans-6e" d="M 3513 2113 
L 3513 0 
L 2938 0 
L 2938 2094 
Q 2938 2591 2744 2837 
Q 2550 3084 2163 3084 
Q 1697 3084 1428 2787 
Q 1159 2491 1159 1978 
L 1159 0 
L 581 0 
L 581 3500 
L 1159 3500 
L 1159 2956 
Q 1366 3272 1645 3428 
Q 1925 3584 2291 3584 
Q 2894 3584 3203 3211 
Q 3513 2838 3513 2113 
z
" transform="scale(0.015625)"/>
      </defs>
      <use xlink:href="#DejaVuSans-53"/>
      <use xlink:href="#DejaVuSans-45" transform="translate(63.476562 0)"/>
      <use xlink:href="#DejaVuSans-49" transform="translate(126.660156 0)"/>
      <use xlink:href="#DejaVuSans-2d" transform="translate(156.152344 0)"/>
      <use xlink:href="#DejaVuSans-44" transform="translate(192.236328 0)"/>
      <use xlink:href="#DejaVuSans-69" transform="translate(269.238281 0)"/>
      <use xlink:href="#DejaVuSans-63" transform="translate(297.021484 0)"/>
      <use xlink:href="#DejaVuSans-6b" transform="translate(352.001953 0)"/>
      <use xlink:href="#DejaVuSans-65" transform="translate(406.287109 0)"/>
      <use xlink:href="#DejaVuSans-20" transform="translate(467.810547 0)"/>
      <use xlink:href="#DejaVuSans-3b4" transform="translate(499.597656 0)"/>
      <use xlink:href="#DejaVuSans-20" transform="translate(560.779297 0)"/>
      <use xlink:href="#DejaVuSans-5b" transform="translate(592.566406 0)"/>
      <use xlink:href="#DejaVuSans-6e" transform="translate(631.580078 0)"/>
      <use xlink:href="#DejaVuSans-6d" transform="translate(694.958984 0)"/>
      <use xlink:href="#DejaVuSans-5d" transform="translate(792.371094 0)"/>
     </g>
    </g>
   </g>
   <g id="line2d_102">
    <path d="M 539.38428 317.58977 
L 540.016787 314.811573 
L 540.649294 313.660806 
L 541.914308 312.033376 
L 543.179322 310.784605 
L 545.076843 309.25518 
L 547.606871 307.572839 
L 550.769405 305.802879 
L 554.564447 303.979441 
L 558.991995 302.121425 
L 564.052051 300.239937 
L 570.37712 298.142393 
L 577.334697 296.069951 
L 585.557287 293.852847 
L 595.044891 291.527975 
L 605.797509 289.121725 
L 618.447648 286.528587 
L 632.3628 283.905925 
L 648.175474 281.154062 
L 665.885668 278.300136 
L 685.493383 275.364836 
L 707.631126 272.278754 
L 732.298897 269.070651 
L 759.496695 265.763183 
L 789.224521 262.374203 
L 822.114882 258.852096 
L 858.167778 255.21941 
L 897.383208 251.494375 
L 918.255937 249.594861 
L 918.255937 249.594861 
" clip-path="url(#p3e1c119bb1)" style="fill: none; stroke: #1f77b4; stroke-width: 1.5; stroke-linecap: square"/>
   </g>
   <g id="line2d_103">
    <path d="M 539.38428 317.58977 
L 540.016787 313.545206 
L 540.649294 311.869893 
L 541.914308 309.500643 
L 543.179322 307.682653 
L 545.076843 305.45608 
L 546.974364 303.578991 
L 549.504391 301.411516 
L 552.666926 299.055252 
L 555.829461 296.966462 
L 559.624502 294.710264 
L 564.052051 292.33148 
L 569.112107 289.86164 
L 574.804669 287.323029 
L 581.762245 284.483592 
L 589.352329 281.640904 
L 597.574919 278.795681 
L 607.062523 275.752481 
L 617.815141 272.551418 
L 629.200266 269.393235 
L 641.850405 266.110883 
L 655.765557 262.726643 
L 671.578231 259.118196 
L 688.655918 255.456009 
L 706.998619 251.749049 
L 727.238841 247.887027 
L 749.376584 243.894318 
L 773.411848 239.79104 
L 799.344633 235.593791 
L 827.174938 231.316285 
L 857.535271 226.879672 
L 889.793125 222.392055 
L 918.255937 218.601199 
L 918.255937 218.601199 
" clip-path="url(#p3e1c119bb1)" style="fill: none; stroke: #ff7f0e; stroke-width: 1.5; stroke-linecap: square"/>
   </g>
   <g id="line2d_104">
    <path d="M 539.38428 317.58977 
L 540.016787 311.848163 
L 540.649294 309.469912 
L 541.914308 306.106557 
L 543.179322 303.525764 
L 545.076843 300.364951 
L 546.974364 297.700262 
L 549.504391 294.623344 
L 552.034419 291.912526 
L 555.196954 288.881738 
L 558.359489 286.141697 
L 562.15453 283.140132 
L 566.582079 279.939539 
L 571.642134 276.586499 
L 577.334697 273.115478 
L 583.659766 269.552045 
L 590.617342 265.915313 
L 598.207426 262.219724 
L 606.430016 258.476315 
L 615.285113 254.693624 
L 624.772717 250.878333 
L 635.525335 246.802493 
L 646.91046 242.728382 
L 659.560599 238.447188 
L 672.843245 234.188121 
L 687.390904 229.760082 
L 703.203578 225.187361 
L 720.281265 220.490396 
L 738.623966 215.686367 
L 758.231681 210.789719 
L 779.10441 205.812624 
L 801.242153 200.765364 
L 824.64491 195.656651 
L 849.945188 190.364273 
L 876.510479 185.034495 
L 904.973291 179.552192 
L 918.255937 177.066961 
L 918.255937 177.066961 
" clip-path="url(#p3e1c119bb1)" style="fill: none; stroke: #2ca02c; stroke-width: 1.5; stroke-linecap: square"/>
   </g>
   <g id="line2d_105">
    <path d="M 539.38428 317.58977 
L 540.016787 309.622408 
L 540.649294 306.322218 
L 541.914308 301.655046 
L 543.179322 298.073798 
L 544.444336 295.054667 
L 546.341857 291.16502 
L 548.239377 287.778631 
L 550.769405 283.787116 
L 553.299433 280.21953 
L 556.461968 276.190143 
L 559.624502 272.519565 
L 563.419544 268.475652 
L 567.214586 264.74027 
L 571.642134 260.691425 
L 576.70219 256.391302 
L 581.762245 252.374102 
L 587.454808 248.131919 
L 593.779877 243.703495 
L 600.737453 239.120355 
L 608.327537 234.408069 
L 616.550127 229.587381 
L 625.405224 224.675162 
L 634.892828 219.685187 
L 645.012939 214.628763 
L 655.765557 209.515215 
L 667.150682 204.352281 
L 679.168314 199.14642 
L 691.818453 193.903052 
L 705.733605 188.380873 
L 720.281265 182.849454 
L 736.093939 177.083812 
L 752.539119 171.328447 
L 770.249313 165.373534 
L 788.592015 159.442151 
L 808.19973 153.338396 
L 829.072459 147.080779 
L 850.577695 140.865134 
L 873.347944 134.513731 
L 897.383208 128.040219 
L 918.255937 122.592758 
L 918.255937 122.592758 
" clip-path="url(#p3e1c119bb1)" style="fill: none; stroke: #d62728; stroke-width: 1.5; stroke-linecap: square"/>
   </g>
   <g id="line2d_106">
    <path d="M 539.38428 317.58977 
L 540.016787 306.759303 
L 540.649294 302.273176 
L 541.914308 295.928836 
L 543.179322 291.060652 
L 544.444336 286.956583 
L 546.341857 281.669175 
L 548.239377 277.065873 
L 550.769405 271.63999 
L 553.299433 266.790377 
L 555.829461 262.365007 
L 558.991995 257.288282 
L 562.15453 252.606968 
L 565.949572 247.400322 
L 569.744613 242.554094 
L 574.172162 237.268877 
L 578.599711 232.310588 
L 583.659766 226.975582 
L 589.352329 221.326474 
L 595.044891 215.990984 
L 601.36996 210.373617 
L 608.327537 204.516375 
L 615.285113 198.947949 
L 622.875196 193.157178 
L 631.097787 187.173678 
L 639.952884 181.022778 
L 648.807981 175.137218 
L 658.295585 169.089889 
L 668.415696 162.899761 
L 679.168314 156.583304 
L 690.553439 150.154814 
L 702.571071 143.626712 
L 715.22121 137.009799 
L 728.503855 130.31349 
L 742.419008 123.546003 
L 756.966668 116.714533 
L 772.146834 109.825391 
L 788.592015 102.61114 
L 805.669702 95.367168 
L 823.379896 88.09629 
L 842.355104 80.553427 
L 861.96282 73.00339 
L 882.203042 65.446823 
L 903.708278 57.658564 
L 918.255937 52.519762 
L 918.255937 52.519762 
" clip-path="url(#p3e1c119bb1)" style="fill: none; stroke: #9467bd; stroke-width: 1.5; stroke-linecap: square"/>
   </g>
   <g id="patch_7">
    <path d="M 520.440697 330.84327 
L 520.440697 39.266261 
" style="fill: none; stroke: #000000; stroke-width: 0.8; stroke-linejoin: miter; stroke-linecap: square"/>
   </g>
   <g id="patch_8">
    <path d="M 520.440697 330.84327 
L 937.19952 330.84327 
" style="fill: none; stroke: #000000; stroke-width: 0.8; stroke-linejoin: miter; stroke-linecap: square"/>
   </g>
   <g id="text_37">
    <!-- SEI-Schichtdickenwachstum δ(t) -->
    <g transform="translate(628.837843 33.266261) scale(0.11 -0.11)">
     <defs>
      <path id="DejaVuSans-Bold-53" d="M 3834 4519 
L 3834 3531 
Q 3450 3703 3084 3790 
Q 2719 3878 2394 3878 
Q 1963 3878 1756 3759 
Q 1550 3641 1550 3391 
Q 1550 3203 1689 3098 
Q 1828 2994 2194 2919 
L 2706 2816 
Q 3484 2659 3812 2340 
Q 4141 2022 4141 1434 
Q 4141 663 3683 286 
Q 3225 -91 2284 -91 
Q 1841 -91 1394 -6 
Q 947 78 500 244 
L 500 1259 
Q 947 1022 1364 901 
Q 1781 781 2169 781 
Q 2563 781 2772 912 
Q 2981 1044 2981 1288 
Q 2981 1506 2839 1625 
Q 2697 1744 2272 1838 
L 1806 1941 
Q 1106 2091 782 2419 
Q 459 2747 459 3303 
Q 459 4000 909 4375 
Q 1359 4750 2203 4750 
Q 2588 4750 2994 4692 
Q 3400 4634 3834 4519 
z
" transform="scale(0.015625)"/>
      <path id="DejaVuSans-Bold-45" d="M 588 4666 
L 3834 4666 
L 3834 3756 
L 1791 3756 
L 1791 2888 
L 3713 2888 
L 3713 1978 
L 1791 1978 
L 1791 909 
L 3903 909 
L 3903 0 
L 588 0 
L 588 4666 
z
" transform="scale(0.015625)"/>
      <path id="DejaVuSans-Bold-49" d="M 588 4666 
L 1791 4666 
L 1791 0 
L 588 0 
L 588 4666 
z
" transform="scale(0.015625)"/>
      <path id="DejaVuSans-Bold-63" d="M 3366 3391 
L 3366 2478 
Q 3138 2634 2908 2709 
Q 2678 2784 2431 2784 
Q 1963 2784 1702 2511 
Q 1441 2238 1441 1747 
Q 1441 1256 1702 982 
Q 1963 709 2431 709 
Q 2694 709 2930 787 
Q 3166 866 3366 1019 
L 3366 103 
Q 3103 6 2833 -42 
Q 2563 -91 2291 -91 
Q 1344 -91 809 395 
Q 275 881 275 1747 
Q 275 2613 809 3098 
Q 1344 3584 2291 3584 
Q 2566 3584 2833 3536 
Q 3100 3488 3366 3391 
z
" transform="scale(0.015625)"/>
      <path id="DejaVuSans-Bold-64" d="M 2919 2988 
L 2919 4863 
L 4044 4863 
L 4044 0 
L 2919 0 
L 2919 506 
Q 2688 197 2409 53 
Q 2131 -91 1766 -91 
Q 1119 -91 703 423 
Q 288 938 288 1747 
Q 288 2556 703 3070 
Q 1119 3584 1766 3584 
Q 2128 3584 2408 3439 
Q 2688 3294 2919 2988 
z
M 2181 722 
Q 2541 722 2730 984 
Q 2919 1247 2919 1747 
Q 2919 2247 2730 2509 
Q 2541 2772 2181 2772 
Q 1825 2772 1636 2509 
Q 1447 2247 1447 1747 
Q 1447 1247 1636 984 
Q 1825 722 2181 722 
z
" transform="scale(0.015625)"/>
      <path id="DejaVuSans-Bold-77" d="M 225 3500 
L 1313 3500 
L 1900 1088 
L 2491 3500 
L 3425 3500 
L 4013 1113 
L 4603 3500 
L 5691 3500 
L 4769 0 
L 3547 0 
L 2956 2406 
L 2369 0 
L 1147 0 
L 225 3500 
z
" transform="scale(0.015625)"/>
      <path id="DejaVuSans-Bold-6d" d="M 3781 2919 
Q 3994 3244 4286 3414 
Q 4578 3584 4928 3584 
Q 5531 3584 5847 3212 
Q 6163 2841 6163 2131 
L 6163 0 
L 5038 0 
L 5038 1825 
Q 5041 1866 5042 1909 
Q 5044 1953 5044 2034 
Q 5044 2406 4934 2573 
Q 4825 2741 4581 2741 
Q 4263 2741 4089 2478 
Q 3916 2216 3909 1719 
L 3909 0 
L 2784 0 
L 2784 1825 
Q 2784 2406 2684 2573 
Q 2584 2741 2328 2741 
Q 2006 2741 1831 2477 
Q 1656 2213 1656 1722 
L 1656 0 
L 531 0 
L 531 3500 
L 1656 3500 
L 1656 2988 
Q 1863 3284 2130 3434 
Q 2397 3584 2719 3584 
Q 3081 3584 3359 3409 
Q 3638 3234 3781 2919 
z
" transform="scale(0.015625)"/>
      <path id="DejaVuSans-Bold-3b4" d="M 3613 3950 
Q 3231 4169 2234 4169 
Q 1703 4169 1703 3863 
Q 1703 3572 2431 3463 
Q 3156 3353 3594 3003 
Q 4125 2581 4125 1734 
Q 4125 888 3612 398 
Q 3100 -91 2206 -91 
Q 1309 -91 793 398 
Q 278 888 278 1747 
Q 278 2397 791 2900 
Q 950 3056 1150 3156 
Q 688 3403 688 3900 
Q 688 4913 2338 4913 
Q 3166 4913 3613 4694 
L 3613 3950 
z
M 1938 2750 
Q 1772 2681 1641 2506 
Q 1434 2234 1434 1744 
Q 1434 1253 1639 978 
Q 1844 703 2200 703 
Q 2553 703 2759 983 
Q 2966 1263 2966 1731 
Q 2966 2197 2744 2433 
Q 2522 2669 2213 2703 
Q 2069 2719 1938 2750 
z
" transform="scale(0.015625)"/>
     </defs>
     <use xlink:href="#DejaVuSans-Bold-53"/>
     <use xlink:href="#DejaVuSans-Bold-45" transform="translate(72.021484 0)"/>
     <use xlink:href="#DejaVuSans-Bold-49" transform="translate(140.332031 0)"/>
     <use xlink:href="#DejaVuSans-Bold-2d" transform="translate(177.539062 0)"/>
     <use xlink:href="#DejaVuSans-Bold-53" transform="translate(219.042969 0)"/>
     <use xlink:href="#DejaVuSans-Bold-63" transform="translate(291.064453 0)"/>
     <use xlink:href="#DejaVuSans-Bold-68" transform="translate(350.341797 0)"/>
     <use xlink:href="#DejaVuSans-Bold-69" transform="translate(421.533203 0)"/>
     <use xlink:href="#DejaVuSans-Bold-63" transform="translate(455.810547 0)"/>
     <use xlink:href="#DejaVuSans-Bold-68" transform="translate(515.087891 0)"/>
     <use xlink:href="#DejaVuSans-Bold-74" transform="translate(586.279297 0)"/>
     <use xlink:href="#DejaVuSans-Bold-64" transform="translate(634.082031 0)"/>
     <use xlink:href="#DejaVuSans-Bold-69" transform="translate(705.664062 0)"/>
     <use xlink:href="#DejaVuSans-Bold-63" transform="translate(739.941406 0)"/>
     <use xlink:href="#DejaVuSans-Bold-6b" transform="translate(799.21875 0)"/>
     <use xlink:href="#DejaVuSans-Bold-65" transform="translate(863.097656 0)"/>
     <use xlink:href="#DejaVuSans-Bold-6e" transform="translate(930.919922 0)"/>
     <use xlink:href="#DejaVuSans-Bold-77" transform="translate(1002.111328 0)"/>
     <use xlink:href="#DejaVuSans-Bold-61" transform="translate(1094.494141 0)"/>
     <use xlink:href="#DejaVuSans-Bold-63" transform="translate(1161.974609 0)"/>
     <use xlink:href="#DejaVuSans-Bold-68" transform="translate(1221.251953 0)"/>
     <use xlink:href="#DejaVuSans-Bold-73" transform="translate(1292.443359 0)"/>
     <use xlink:href="#DejaVuSans-Bold-74" transform="translate(1351.964844 0)"/>
     <use xlink:href="#DejaVuSans-Bold-75" transform="translate(1399.767578 0)"/>
     <use xlink:href="#DejaVuSans-Bold-6d" transform="translate(1470.958984 0)"/>
     <use xlink:href="#DejaVuSans-Bold-20" transform="translate(1575.158203 0)"/>
     <use xlink:href="#DejaVuSans-Bold-3b4" transform="translate(1609.972656 0)"/>
     <use xlink:href="#DejaVuSans-Bold-28" transform="translate(1678.673828 0)"/>
     <use xlink:href="#DejaVuSans-Bold-74" transform="translate(1724.376953 0)"/>
     <use xlink:href="#DejaVuSans-Bold-29" transform="translate(1772.179688 0)"/>
    </g>
   </g>
   <g id="legend_2">
    <g id="patch_9">
     <path d="M 526.740697 112.517824 
L 599.397416 112.517824 
Q 601.197416 112.517824 601.197416 110.717824 
L 601.197416 45.566261 
Q 601.197416 43.766261 599.397416 43.766261 
L 526.740697 43.766261 
Q 524.940697 43.766261 524.940697 45.566261 
L 524.940697 110.717824 
Q 524.940697 112.517824 526.740697 112.517824 
z
" style="fill: #ffffff; opacity: 0.85; stroke: #cccccc; stroke-linejoin: miter"/>
    </g>
    <g id="line2d_107">
     <path d="M 528.540697 51.054855 
L 537.540697 51.054855 
L 546.540697 51.054855 
" style="fill: none; stroke: #1f77b4; stroke-width: 1.5; stroke-linecap: square"/>
    </g>
    <g id="text_38">
     <!-- T = 5 °C -->
     <g transform="translate(553.740697 54.204855) scale(0.09 -0.09)">
      <use xlink:href="#DejaVuSans-54"/>
      <use xlink:href="#DejaVuSans-20" transform="translate(61.083984 0)"/>
      <use xlink:href="#DejaVuSans-3d" transform="translate(92.871094 0)"/>
      <use xlink:href="#DejaVuSans-20" transform="translate(176.660156 0)"/>
      <use xlink:href="#DejaVuSans-35" transform="translate(208.447266 0)"/>
      <use xlink:href="#DejaVuSans-20" transform="translate(272.070312 0)"/>
      <use xlink:href="#DejaVuSans-b0" transform="translate(303.857422 0)"/>
      <use xlink:href="#DejaVuSans-43" transform="translate(353.857422 0)"/>
     </g>
    </g>
    <g id="line2d_108">
     <path d="M 528.540697 64.265167 
L 537.540697 64.265167 
L 546.540697 64.265167 
" style="fill: none; stroke: #ff7f0e; stroke-width: 1.5; stroke-linecap: square"/>
    </g>
    <g id="text_39">
     <!-- T = 15 °C -->
     <g transform="translate(553.740697 67.415167) scale(0.09 -0.09)">
      <use xlink:href="#DejaVuSans-54"/>
      <use xlink:href="#DejaVuSans-20" transform="translate(61.083984 0)"/>
      <use xlink:href="#DejaVuSans-3d" transform="translate(92.871094 0)"/>
      <use xlink:href="#DejaVuSans-20" transform="translate(176.660156 0)"/>
      <use xlink:href="#DejaVuSans-31" transform="translate(208.447266 0)"/>
      <use xlink:href="#DejaVuSans-35" transform="translate(272.070312 0)"/>
      <use xlink:href="#DejaVuSans-20" transform="translate(335.693359 0)"/>
      <use xlink:href="#DejaVuSans-b0" transform="translate(367.480469 0)"/>
      <use xlink:href="#DejaVuSans-43" transform="translate(417.480469 0)"/>
     </g>
    </g>
    <g id="line2d_109">
     <path d="M 528.540697 77.47548 
L 537.540697 77.47548 
L 546.540697 77.47548 
" style="fill: none; stroke: #2ca02c; stroke-width: 1.5; stroke-linecap: square"/>
    </g>
    <g id="text_40">
     <!-- T = 25 °C -->
     <g transform="translate(553.740697 80.62548) scale(0.09 -0.09)">
      <use xlink:href="#DejaVuSans-54"/>
      <use xlink:href="#DejaVuSans-20" transform="translate(61.083984 0)"/>
      <use xlink:href="#DejaVuSans-3d" transform="translate(92.871094 0)"/>
      <use xlink:href="#DejaVuSans-20" transform="translate(176.660156 0)"/>
      <use xlink:href="#DejaVuSans-32" transform="translate(208.447266 0)"/>
      <use xlink:href="#DejaVuSans-35" transform="translate(272.070312 0)"/>
      <use xlink:href="#DejaVuSans-20" transform="translate(335.693359 0)"/>
      <use xlink:href="#DejaVuSans-b0" transform="translate(367.480469 0)"/>
      <use xlink:href="#DejaVuSans-43" transform="translate(417.480469 0)"/>
     </g>
    </g>
    <g id="line2d_110">
     <path d="M 528.540697 90.685792 
L 537.540697 90.685792 
L 546.540697 90.685792 
" style="fill: none; stroke: #d62728; stroke-width: 1.5; stroke-linecap: square"/>
    </g>
    <g id="text_41">
     <!-- T = 35 °C -->
     <g transform="translate(553.740697 93.835792) scale(0.09 -0.09)">
      <use xlink:href="#DejaVuSans-54"/>
      <use xlink:href="#DejaVuSans-20" transform="translate(61.083984 0)"/>
      <use xlink:href="#DejaVuSans-3d" transform="translate(92.871094 0)"/>
      <use xlink:href="#DejaVuSans-20" transform="translate(176.660156 0)"/>
      <use xlink:href="#DejaVuSans-33" transform="translate(208.447266 0)"/>
      <use xlink:href="#DejaVuSans-35" transform="translate(272.070312 0)"/>
      <use xlink:href="#DejaVuSans-20" transform="translate(335.693359 0)"/>
      <use xlink:href="#DejaVuSans-b0" transform="translate(367.480469 0)"/>
      <use xlink:href="#DejaVuSans-43" transform="translate(417.480469 0)"/>
     </g>
    </g>
    <g id="line2d_111">
     <path d="M 528.540697 103.896105 
L 537.540697 103.896105 
L 546.540697 103.896105 
" style="fill: none; stroke: #9467bd; stroke-width: 1.5; stroke-linecap: square"/>
    </g>
    <g id="text_42">
     <!-- T = 45 °C -->
     <g transform="translate(553.740697 107.046105) scale(0.09 -0.09)">
      <use xlink:href="#DejaVuSans-54"/>
      <use xlink:href="#DejaVuSans-20" transform="translate(61.083984 0)"/>
      <use xlink:href="#DejaVuSans-3d" transform="translate(92.871094 0)"/>
      <use xlink:href="#DejaVuSans-20" transform="translate(176.660156 0)"/>
      <use xlink:href="#DejaVuSans-34" transform="translate(208.447266 0)"/>
      <use xlink:href="#DejaVuSans-35" transform="translate(272.070312 0)"/>
      <use xlink:href="#DejaVuSans-20" transform="translate(335.693359 0)"/>
      <use xlink:href="#DejaVuSans-b0" transform="translate(367.480469 0)"/>
      <use xlink:href="#DejaVuSans-43" transform="translate(417.480469 0)"/>
     </g>
    </g>
   </g>
  </g>
  <g id="text_43">
   <!-- Exp 01 – Arrhenius-Beschleunigung &amp; SEI-Wachstum -->
   <g transform="translate(295.337572 16.318125) scale(0.12 -0.12)">
    <defs>
     <path id="DejaVuSans-Bold-78" d="M 1422 1791 
L 159 3500 
L 1344 3500 
L 2059 2463 
L 2784 3500 
L 3969 3500 
L 2706 1797 
L 4031 0 
L 2847 0 
L 2059 1106 
L 1281 0 
L 97 0 
L 1422 1791 
z
" transform="scale(0.015625)"/>
     <path id="DejaVuSans-Bold-70" d="M 1656 506 
L 1656 -1331 
L 538 -1331 
L 538 3500 
L 1656 3500 
L 1656 2988 
Q 1888 3294 2169 3439 
Q 2450 3584 2816 3584 
Q 3463 3584 3878 3070 
Q 4294 2556 4294 1747 
Q 4294 938 3878 423 
Q 3463 -91 2816 -91 
Q 2450 -91 2169 54 
Q 1888 200 1656 506 
z
M 2400 2772 
Q 2041 2772 1848 2508 
Q 1656 2244 1656 1747 
Q 1656 1250 1848 986 
Q 2041 722 2400 722 
Q 2759 722 2948 984 
Q 3138 1247 3138 1747 
Q 3138 2247 2948 2509 
Q 2759 2772 2400 2772 
z
" transform="scale(0.015625)"/>
     <path id="DejaVuSans-Bold-30" d="M 2944 2338 
Q 2944 3213 2780 3570 
Q 2616 3928 2228 3928 
Q 1841 3928 1675 3570 
Q 1509 3213 1509 2338 
Q 1509 1453 1675 1090 
Q 1841 728 2228 728 
Q 2613 728 2778 1090 
Q 2944 1453 2944 2338 
z
M 4147 2328 
Q 4147 1169 3647 539 
Q 3147 -91 2228 -91 
Q 1306 -91 806 539 
Q 306 1169 306 2328 
Q 306 3491 806 4120 
Q 1306 4750 2228 4750 
Q 3147 4750 3647 4120 
Q 4147 3491 4147 2328 
z
" transform="scale(0.015625)"/>
     <path id="DejaVuSans-Bold-31" d="M 750 831 
L 1813 831 
L 1813 3847 
L 722 3622 
L 722 4441 
L 1806 4666 
L 2950 4666 
L 2950 831 
L 4013 831 
L 4013 0 
L 750 0 
L 750 831 
z
" transform="scale(0.015625)"/>
     <path id="DejaVuSans-Bold-2013" d="M 344 2156 
L 2856 2156 
L 2856 1350 
L 344 1350 
L 344 2156 
z
" transform="scale(0.015625)"/>
     <path id="DejaVuSans-Bold-42" d="M 2456 2859 
Q 2741 2859 2887 2984 
Q 3034 3109 3034 3353 
Q 3034 3594 2887 3720 
Q 2741 3847 2456 3847 
L 1791 3847 
L 1791 2859 
L 2456 2859 
z
M 2497 819 
Q 2859 819 3042 972 
Q 3225 1125 3225 1434 
Q 3225 1738 3044 1889 
Q 2863 2041 2497 2041 
L 1791 2041 
L 1791 819 
L 2497 819 
z
M 3616 2497 
Q 4003 2384 4215 2081 
Q 4428 1778 4428 1338 
Q 4428 663 3972 331 
Q 3516 0 2584 0 
L 588 0 
L 588 4666 
L 2394 4666 
Q 3366 4666 3802 4372 
Q 4238 4078 4238 3431 
Q 4238 3091 4078 2852 
Q 3919 2613 3616 2497 
z
" transform="scale(0.015625)"/>
     <path id="DejaVuSans-Bold-67" d="M 2919 594 
Q 2688 288 2409 144 
Q 2131 0 1766 0 
Q 1125 0 706 504 
Q 288 1009 288 1791 
Q 288 2575 706 3076 
Q 1125 3578 1766 3578 
Q 2131 3578 2409 3434 
Q 2688 3291 2919 2981 
L 2919 3500 
L 4044 3500 
L 4044 353 
Q 4044 -491 3511 -936 
Q 2978 -1381 1966 -1381 
Q 1638 -1381 1331 -1331 
Q 1025 -1281 716 -1178 
L 716 -306 
Q 1009 -475 1290 -558 
Q 1572 -641 1856 -641 
Q 2406 -641 2662 -400 
Q 2919 -159 2919 353 
L 2919 594 
z
M 2181 2772 
Q 1834 2772 1640 2515 
Q 1447 2259 1447 1791 
Q 1447 1309 1634 1061 
Q 1822 813 2181 813 
Q 2531 813 2725 1069 
Q 2919 1325 2919 1791 
Q 2919 2259 2725 2515 
Q 2531 2772 2181 2772 
z
" transform="scale(0.015625)"/>
     <path id="DejaVuSans-Bold-26" d="M 2497 3097 
L 3775 1691 
Q 3941 1909 4027 2181 
Q 4113 2453 4128 2797 
L 5100 2797 
Q 5053 2228 4879 1784 
Q 4706 1341 4397 1006 
L 5313 0 
L 3988 0 
L 3681 341 
Q 3353 122 2990 15 
Q 2628 -91 2222 -91 
Q 1400 -91 892 342 
Q 384 775 384 1459 
Q 384 1916 607 2267 
Q 831 2619 1338 2950 
Q 1206 3116 1143 3281 
Q 1081 3447 1081 3628 
Q 1081 4138 1478 4444 
Q 1875 4750 2534 4750 
Q 2819 4750 3126 4704 
Q 3434 4659 3769 4569 
L 3769 3700 
Q 3475 3850 3212 3922 
Q 2950 3994 2700 3994 
Q 2459 3994 2326 3901 
Q 2194 3809 2194 3641 
Q 2194 3534 2270 3398 
Q 2347 3263 2497 3097 
z
M 1875 2322 
Q 1672 2175 1569 1989 
Q 1466 1803 1466 1581 
Q 1466 1222 1731 969 
Q 1997 716 2369 716 
Q 2578 716 2759 780 
Q 2941 844 3097 972 
L 1875 2322 
z
" transform="scale(0.015625)"/>
     <path id="DejaVuSans-Bold-57" d="M 191 4666 
L 1344 4666 
L 2150 1275 
L 2950 4666 
L 4109 4666 
L 4909 1275 
L 5716 4666 
L 6859 4666 
L 5759 0 
L 4372 0 
L 3525 3547 
L 2688 0 
L 1300 0 
L 191 4666 
z
" transform="scale(0.015625)"/>
    </defs>
    <use xlink:href="#DejaVuSans-Bold-45"/>
    <use xlink:href="#DejaVuSans-Bold-78" transform="translate(68.310547 0)"/>
    <use xlink:href="#DejaVuSans-Bold-70" transform="translate(132.8125 0)"/>
    <use xlink:href="#DejaVuSans-Bold-20" transform="translate(204.394531 0)"/>
    <use xlink:href="#DejaVuSans-Bold-30" transform="translate(239.208984 0)"/>
    <use xlink:href="#DejaVuSans-Bold-31" transform="translate(308.789062 0)"/>
    <use xlink:href="#DejaVuSans-Bold-20" transform="translate(378.369141 0)"/>
    <use xlink:href="#DejaVuSans-Bold-2013" transform="translate(413.183594 0)"/>
    <use xlink:href="#DejaVuSans-Bold-20" transform="translate(463.183594 0)"/>
    <use xlink:href="#DejaVuSans-Bold-41" transform="translate(497.998047 0)"/>
    <use xlink:href="#DejaVuSans-Bold-72" transform="translate(575.390625 0)"/>
    <use xlink:href="#DejaVuSans-Bold-72" transform="translate(624.707031 0)"/>
    <use xlink:href="#DejaVuSans-Bold-68" transform="translate(674.023438 0)"/>
    <use xlink:href="#DejaVuSans-Bold-65" transform="translate(745.214844 0)"/>
    <use xlink:href="#DejaVuSans-Bold-6e" transform="translate(813.037109 0)"/>
    <use xlink:href="#DejaVuSans-Bold-69" transform="translate(884.228516 0)"/>
    <use xlink:href="#DejaVuSans-Bold-75" transform="translate(918.505859 0)"/>
    <use xlink:href="#DejaVuSans-Bold-73" transform="translate(989.697266 0)"/>
    <use xlink:href="#DejaVuSans-Bold-2d" transform="translate(1049.21875 0)"/>
    <use xlink:href="#DejaVuSans-Bold-42" transform="translate(1090.722656 0)"/>
    <use xlink:href="#DejaVuSans-Bold-65" transform="translate(1166.943359 0)"/>
    <use xlink:href="#DejaVuSans-Bold-73" transform="translate(1234.765625 0)"/>
    <use xlink:href="#DejaVuSans-Bold-63" transform="translate(1294.287109 0)"/>
    <use xlink:href="#DejaVuSans-Bold-68" transform="translate(1353.564453 0)"/>
    <use xlink:href="#DejaVuSans-Bold-6c" transform="translate(1424.755859 0)"/>
    <use xlink:href="#DejaVuSans-Bold-65" transform="translate(1459.033203 0)"/>
    <use xlink:href="#DejaVuSans-Bold-75" transform="translate(1526.855469 0)"/>
    <use xlink:href="#DejaVuSans-Bold-6e" transform="translate(1598.046875 0)"/>
    <use xlink:href="#DejaVuSans-Bold-69" transform="translate(1669.238281 0)"/>
    <use xlink:href="#DejaVuSans-Bold-67" transform="translate(1703.515625 0)"/>
    <use xlink:href="#DejaVuSans-Bold-75" transform="translate(1775.097656 0)"/>
    <use xlink:href="#DejaVuSans-Bold-6e" transform="translate(1846.289062 0)"/>
    <use xlink:href="#DejaVuSans-Bold-67" transform="translate(1917.480469 0)"/>
    <use xlink:href="#DejaVuSans-Bold-20" transform="translate(1989.0625 0)"/>
    <use xlink:href="#DejaVuSans-Bold-26" transform="translate(2023.876953 0)"/>
    <use xlink:href="#DejaVuSans-Bold-20" transform="translate(2111.083984 0)"/>
    <use xlink:href="#DejaVuSans-Bold-53" transform="translate(2145.898438 0)"/>
    <use xlink:href="#DejaVuSans-Bold-45" transform="translate(2217.919922 0)"/>
    <use xlink:href="#DejaVuSans-Bold-49" transform="translate(2286.230469 0)"/>
    <use xlink:href="#DejaVuSans-Bold-2d" transform="translate(2323.4375 0)"/>
    <use xlink:href="#DejaVuSans-Bold-57" transform="translate(2360.441406 0)"/>
    <use xlink:href="#DejaVuSans-Bold-61" transform="translate(2467.119141 0)"/>
    <use xlink:href="#DejaVuSans-Bold-63" transform="translate(2534.599609 0)"/>
    <use xlink:href="#DejaVuSans-Bold-68" transform="translate(2593.876953 0)"/>
    <use xlink:href="#DejaVuSans-Bold-73" transform="translate(2665.068359 0)"/>
    <use xlink:href="#DejaVuSans-Bold-74" transform="translate(2724.589844 0)"/>
    <use xlink:href="#DejaVuSans-Bold-75" transform="translate(2772.392578 0)"/>
    <use xlink:href="#DejaVuSans-Bold-6d" transform="translate(2843.583984 0)"/>
   </g>
  </g>
 </g>
 <defs>
  <clipPath id="pdee3f39f43">
   <rect x="51.378125" y="39.266261" width="416.758822" height="291.577009"/>
  </clipPath>
  <clipPath id="p3e1c119bb1">
   <rect x="520.440697" y="39.266261" width="416.758822" height="291.577009"/>
  </clipPath>
 </defs>
</svg>
