<?xml version="1.0" encoding="utf-8" standalone="no"?>
<!DOCTYPE svg PUBLIC "-//W3C//DTD SVG 1.1//EN"
  "http://www.w3.org/Graphics/SVG/1.1/DTD/svg11.dtd">
<svg xmlns:xlink="http://www.w3.org/1999/xlink" width="944.39952pt" height="368.39952pt" viewBox="0 0 944.39952 368.39952" xmlns="http://www.w3.org/2000/svg" version="1.1">
 <metadata>
  <rdf:RDF xmlns:dc="http://purl.org/dc/elements/1.1/" xmlns:cc="http://creativecommons.org/ns#" xmlns:rdf="http://www.w3.org/1999/02/22-rdf-syntax-ns#">
   <cc:Work>
    <dc:type rdf:resource="http://purl.org/dc/dcmitype/StillImage"/>
    <dc:date>2026-03-08T05:20:58.291939</dc:date>
    <dc:format>image/svg+xml</dc:format>
    <dc:creator>
     <cc:Agent>
      <dc:title>Matplotlib v3.10.8, https://matplotlib.org/</dc:title>
     </cc:Agent>
    </dc:creator>
   </cc:Work>
  </rdf:RDF>
 </metadata>
 <defs>
  <style type="text/css">*{stroke-linejoin: round; stroke-linecap: butt}</style>
 </defs>
 <g id="figure_1">
  <g id="patch_1">
   <path d="M 0 368.39952 
L 944.39952 368.39952 
L 944.39952 0 
L 0 0 
z
" style="fill: #ffffff"/>
  </g>
  <g id="axes_1">
   <g id="patch_2">
    <path d="M 50.14375 330.84327 
L 470.561948 330.84327 
L 470.561948 39.327199 
L 50.14375 39.327199 
z
" style="fill: #ffffff"/>
   </g>
   <g id="matplotlib.axis_1">
    <g id="xtick_1">
     <g id="line2d_1">
      <path d="M 69.253668 330.84327 
L 69.253668 39.327199 
" clip-path="url(#p407bbdeb68)" style="fill: none; stroke-dasharray: 2.96,1.28; stroke-dashoffset: 0; stroke: #b0b0b0; stroke-opacity: 0.3; stroke-width: 0.8"/>
     </g>
     <g id="line2d_2">
      <defs>
       <path id="m9530235a7c" d="M 0 0 
L 0 3.5 
" style="stroke: #000000; stroke-width: 0.8"/>
      </defs>
      <g>
       <use xlink:href="#m9530235a7c" x="69.253668" y="330.84327" style="stroke: #000000; stroke-width: 0.8"/>
      </g>
     </g>
     <g id="text_1">
      <!-- 0 -->
      <g transform="translate(66.072418 345.441707) scale(0.1 -0.1)">
       <defs>
        <path id="DejaVuSans-30" d="M 2034 4250 
Q 1547 4250 1301 3770 
Q 1056 3291 1056 2328 
Q 1056 1369 1301 889 
Q 1547 409 2034 409 
Q 2525 409 2770 889 
Q 3016 1369 3016 2328 
Q 3016 3291 2770 3770 
Q 2525 4250 2034 4250 
z
M 2034 4750 
Q 2819 4750 3233 4129 
Q 3647 3509 3647 2328 
Q 3647 1150 3233 529 
Q 2819 -91 2034 -91 
Q 1250 -91 836 529 
Q 422 1150 422 2328 
Q 422 3509 836 4129 
Q 1250 4750 2034 4750 
z
" transform="scale(0.015625)"/>
       </defs>
       <use xlink:href="#DejaVuSans-30"/>
      </g>
     </g>
    </g>
    <g id="xtick_2">
     <g id="line2d_3">
      <path d="M 132.953395 330.84327 
L 132.953395 39.327199 
" clip-path="url(#p407bbdeb68)" style="fill: none; stroke-dasharray: 2.96,1.28; stroke-dashoffset: 0; stroke: #b0b0b0; stroke-opacity: 0.3; stroke-width: 0.8"/>
     </g>
     <g id="line2d_4">
      <g>
       <use xlink:href="#m9530235a7c" x="132.953395" y="330.84327" style="stroke: #000000; stroke-width: 0.8"/>
      </g>
     </g>
     <g id="text_2">
      <!-- 10 -->
      <g transform="translate(126.590895 345.441707) scale(0.1 -0.1)">
       <defs>
        <path id="DejaVuSans-31" d="M 794 531 
L 1825 531 
L 1825 4091 
L 703 3866 
L 703 4441 
L 1819 4666 
L 2450 4666 
L 2450 531 
L 3481 531 
L 3481 0 
L 794 0 
L 794 531 
z
" transform="scale(0.015625)"/>
       </defs>
       <use xlink:href="#DejaVuSans-31"/>
       <use xlink:href="#DejaVuSans-30" transform="translate(63.623047 0)"/>
      </g>
     </g>
    </g>
    <g id="xtick_3">
     <g id="line2d_5">
      <path d="M 196.653122 330.84327 
L 196.653122 39.327199 
" clip-path="url(#p407bbdeb68)" style="fill: none; stroke-dasharray: 2.96,1.28; stroke-dashoffset: 0; stroke: #b0b0b0; stroke-opacity: 0.3; stroke-width: 0.8"/>
     </g>
     <g id="line2d_6">
      <g>
       <use xlink:href="#m9530235a7c" x="196.653122" y="330.84327" style="stroke: #000000; stroke-width: 0.8"/>
      </g>
     </g>
     <g id="text_3">
      <!-- 20 -->
      <g transform="translate(190.290622 345.441707) scale(0.1 -0.1)">
       <defs>
        <path id="DejaVuSans-32" d="M 1228 531 
L 3431 531 
L 3431 0 
L 469 0 
L 469 531 
Q 828 903 1448 1529 
Q 2069 2156 2228 2338 
Q 2531 2678 2651 2914 
Q 2772 3150 2772 3378 
Q 2772 3750 2511 3984 
Q 2250 4219 1831 4219 
Q 1534 4219 1204 4116 
Q 875 4013 500 3803 
L 500 4441 
Q 881 4594 1212 4672 
Q 1544 4750 1819 4750 
Q 2544 4750 2975 4387 
Q 3406 4025 3406 3419 
Q 3406 3131 3298 2873 
Q 3191 2616 2906 2266 
Q 2828 2175 2409 1742 
Q 1991 1309 1228 531 
z
" transform="scale(0.015625)"/>
       </defs>
       <use xlink:href="#DejaVuSans-32"/>
       <use xlink:href="#DejaVuSans-30" transform="translate(63.623047 0)"/>
      </g>
     </g>
    </g>
    <g id="xtick_4">
     <g id="line2d_7">
      <path d="M 260.352849 330.84327 
L 260.352849 39.327199 
" clip-path="url(#p407bbdeb68)" style="fill: none; stroke-dasharray: 2.96,1.28; stroke-dashoffset: 0; stroke: #b0b0b0; stroke-opacity: 0.3; stroke-width: 0.8"/>
     </g>
     <g id="line2d_8">
      <g>
       <use xlink:href="#m9530235a7c" x="260.352849" y="330.84327" style="stroke: #000000; stroke-width: 0.8"/>
      </g>
     </g>
     <g id="text_4">
      <!-- 30 -->
      <g transform="translate(253.990349 345.441707) scale(0.1 -0.1)">
       <defs>
        <path id="DejaVuSans-33" d="M 2597 2516 
Q 3050 2419 3304 2112 
Q 3559 1806 3559 1356 
Q 3559 666 3084 287 
Q 2609 -91 1734 -91 
Q 1441 -91 1130 -33 
Q 819 25 488 141 
L 488 750 
Q 750 597 1062 519 
Q 1375 441 1716 441 
Q 2309 441 2620 675 
Q 2931 909 2931 1356 
Q 2931 1769 2642 2001 
Q 2353 2234 1838 2234 
L 1294 2234 
L 1294 2753 
L 1863 2753 
Q 2328 2753 2575 2939 
Q 2822 3125 2822 3475 
Q 2822 3834 2567 4026 
Q 2313 4219 1838 4219 
Q 1578 4219 1281 4162 
Q 984 4106 628 3988 
L 628 4550 
Q 988 4650 1302 4700 
Q 1616 4750 1894 4750 
Q 2613 4750 3031 4423 
Q 3450 4097 3450 3541 
Q 3450 3153 3228 2886 
Q 3006 2619 2597 2516 
z
" transform="scale(0.015625)"/>
       </defs>
       <use xlink:href="#DejaVuSans-33"/>
       <use xlink:href="#DejaVuSans-30" transform="translate(63.623047 0)"/>
      </g>
     </g>
    </g>
    <g id="xtick_5">
     <g id="line2d_9">
      <path d="M 324.052576 330.84327 
L 324.052576 39.327199 
" clip-path="url(#p407bbdeb68)" style="fill: none; stroke-dasharray: 2.96,1.28; stroke-dashoffset: 0; stroke: #b0b0b0; stroke-opacity: 0.3; stroke-width: 0.8"/>
     </g>
     <g id="line2d_10">
      <g>
       <use xlink:href="#m9530235a7c" x="324.052576" y="330.84327" style="stroke: #000000; stroke-width: 0.8"/>
      </g>
     </g>
     <g id="text_5">
      <!-- 40 -->
      <g transform="translate(317.690076 345.441707) scale(0.1 -0.1)">
       <defs>
        <path id="DejaVuSans-34" d="M 2419 4116 
L 825 1625 
L 2419 1625 
L 2419 4116 
z
M 2253 4666 
L 3047 4666 
L 3047 1625 
L 3713 1625 
L 3713 1100 
L 3047 1100 
L 3047 0 
L 2419 0 
L 2419 1100 
L 313 1100 
L 313 1709 
L 2253 4666 
z
" transform="scale(0.015625)"/>
       </defs>
       <use xlink:href="#DejaVuSans-34"/>
       <use xlink:href="#DejaVuSans-30" transform="translate(63.623047 0)"/>
      </g>
     </g>
    </g>
    <g id="xtick_6">
     <g id="line2d_11">
      <path d="M 387.752303 330.84327 
L 387.752303 39.327199 
" clip-path="url(#p407bbdeb68)" style="fill: none; stroke-dasharray: 2.96,1.28; stroke-dashoffset: 0; stroke: #b0b0b0; stroke-opacity: 0.3; stroke-width: 0.8"/>
     </g>
     <g id="line2d_12">
      <g>
       <use xlink:href="#m9530235a7c" x="387.752303" y="330.84327" style="stroke: #000000; stroke-width: 0.8"/>
      </g>
     </g>
     <g id="text_6">
      <!-- 50 -->
      <g transform="translate(381.389803 345.441707) scale(0.1 -0.1)">
       <defs>
        <path id="DejaVuSans-35" d="M 691 4666 
L 3169 4666 
L 3169 4134 
L 1269 4134 
L 1269 2991 
Q 1406 3038 1543 3061 
Q 1681 3084 1819 3084 
Q 2600 3084 3056 2656 
Q 3513 2228 3513 1497 
Q 3513 744 3044 326 
Q 2575 -91 1722 -91 
Q 1428 -91 1123 -41 
Q 819 9 494 109 
L 494 744 
Q 775 591 1075 516 
Q 1375 441 1709 441 
Q 2250 441 2565 725 
Q 2881 1009 2881 1497 
Q 2881 1984 2565 2268 
Q 2250 2553 1709 2553 
Q 1456 2553 1204 2497 
Q 953 2441 691 2322 
L 691 4666 
z
" transform="scale(0.015625)"/>
       </defs>
       <use xlink:href="#DejaVuSans-35"/>
       <use xlink:href="#DejaVuSans-30" transform="translate(63.623047 0)"/>
      </g>
     </g>
    </g>
    <g id="xtick_7">
     <g id="line2d_13">
      <path d="M 451.452029 330.84327 
L 451.452029 39.327199 
" clip-path="url(#p407bbdeb68)" style="fill: none; stroke-dasharray: 2.96,1.28; stroke-dashoffset: 0; stroke: #b0b0b0; stroke-opacity: 0.3; stroke-width: 0.8"/>
     </g>
     <g id="line2d_14">
      <g>
       <use xlink:href="#m9530235a7c" x="451.452029" y="330.84327" style="stroke: #000000; stroke-width: 0.8"/>
      </g>
     </g>
     <g id="text_7">
      <!-- 60 -->
      <g transform="translate(445.089529 345.441707) scale(0.1 -0.1)">
       <defs>
        <path id="DejaVuSans-36" d="M 2113 2584 
Q 1688 2584 1439 2293 
Q 1191 2003 1191 1497 
Q 1191 994 1439 701 
Q 1688 409 2113 409 
Q 2538 409 2786 701 
Q 3034 994 3034 1497 
Q 3034 2003 2786 2293 
Q 2538 2584 2113 2584 
z
M 3366 4563 
L 3366 3988 
Q 3128 4100 2886 4159 
Q 2644 4219 2406 4219 
Q 1781 4219 1451 3797 
Q 1122 3375 1075 2522 
Q 1259 2794 1537 2939 
Q 1816 3084 2150 3084 
Q 2853 3084 3261 2657 
Q 3669 2231 3669 1497 
Q 3669 778 3244 343 
Q 2819 -91 2113 -91 
Q 1303 -91 875 529 
Q 447 1150 447 2328 
Q 447 3434 972 4092 
Q 1497 4750 2381 4750 
Q 2619 4750 2861 4703 
Q 3103 4656 3366 4563 
z
" transform="scale(0.015625)"/>
       </defs>
       <use xlink:href="#DejaVuSans-36"/>
       <use xlink:href="#DejaVuSans-30" transform="translate(63.623047 0)"/>
      </g>
     </g>
    </g>
    <g id="text_8">
     <!-- Zeit [min] -->
     <g transform="translate(235.583318 359.119832) scale(0.1 -0.1)">
      <defs>
       <path id="DejaVuSans-5a" d="M 359 4666 
L 4025 4666 
L 4025 4184 
L 1075 531 
L 4097 531 
L 4097 0 
L 288 0 
L 288 481 
L 3238 4134 
L 359 4134 
L 359 4666 
z
" transform="scale(0.015625)"/>
       <path id="DejaVuSans-65" d="M 3597 1894 
L 3597 1613 
L 953 1613 
Q 991 1019 1311 708 
Q 1631 397 2203 397 
Q 2534 397 2845 478 
Q 3156 559 3463 722 
L 3463 178 
Q 3153 47 2828 -22 
Q 2503 -91 2169 -91 
Q 1331 -91 842 396 
Q 353 884 353 1716 
Q 353 2575 817 3079 
Q 1281 3584 2069 3584 
Q 2775 3584 3186 3129 
Q 3597 2675 3597 1894 
z
M 3022 2063 
Q 3016 2534 2758 2815 
Q 2500 3097 2075 3097 
Q 1594 3097 1305 2825 
Q 1016 2553 972 2059 
L 3022 2063 
z
" transform="scale(0.015625)"/>
       <path id="DejaVuSans-69" d="M 603 3500 
L 1178 3500 
L 1178 0 
L 603 0 
L 603 3500 
z
M 603 4863 
L 1178 4863 
L 1178 4134 
L 603 4134 
L 603 4863 
z
" transform="scale(0.015625)"/>
       <path id="DejaVuSans-74" d="M 1172 4494 
L 1172 3500 
L 2356 3500 
L 2356 3053 
L 1172 3053 
L 1172 1153 
Q 1172 725 1289 603 
Q 1406 481 1766 481 
L 2356 481 
L 2356 0 
L 1766 0 
Q 1100 0 847 248 
Q 594 497 594 1153 
L 594 3053 
L 172 3053 
L 172 3500 
L 594 3500 
L 594 4494 
L 1172 4494 
z
" transform="scale(0.015625)"/>
       <path id="DejaVuSans-20" transform="scale(0.015625)"/>
       <path id="DejaVuSans-5b" d="M 550 4863 
L 1875 4863 
L 1875 4416 
L 1125 4416 
L 1125 -397 
L 1875 -397 
L 1875 -844 
L 550 -844 
L 550 4863 
z
" transform="scale(0.015625)"/>
       <path id="DejaVuSans-6d" d="M 3328 2828 
Q 3544 3216 3844 3400 
Q 4144 3584 4550 3584 
Q 5097 3584 5394 3201 
Q 5691 2819 5691 2113 
L 5691 0 
L 5113 0 
L 5113 2094 
Q 5113 2597 4934 2840 
Q 4756 3084 4391 3084 
Q 3944 3084 3684 2787 
Q 3425 2491 3425 1978 
L 3425 0 
L 2847 0 
L 2847 2094 
Q 2847 2600 2669 2842 
Q 2491 3084 2119 3084 
Q 1678 3084 1418 2786 
Q 1159 2488 1159 1978 
L 1159 0 
L 581 0 
L 581 3500 
L 1159 3500 
L 1159 2956 
Q 1356 3278 1631 3431 
Q 1906 3584 2284 3584 
Q 2666 3584 2933 3390 
Q 3200 3197 3328 2828 
z
" transform="scale(0.015625)"/>
       <path id="DejaVuSans-6e" d="M 3513 2113 
L 3513 0 
L 2938 0 
L 2938 2094 
Q 2938 2591 2744 2837 
Q 2550 3084 2163 3084 
Q 1697 3084 1428 2787 
Q 1159 2491 1159 1978 
L 1159 0 
L 581 0 
L 581 3500 
L 1159 3500 
L 1159 2956 
Q 1366 3272 1645 3428 
Q 1925 3584 2291 3584 
Q 2894 3584 3203 3211 
Q 3513 2838 3513 2113 
z
" transform="scale(0.015625)"/>
       <path id="DejaVuSans-5d" d="M 1947 4863 
L 1947 -844 
L 622 -844 
L 622 -397 
L 1369 -397 
L 1369 4416 
L 622 4416 
L 622 4863 
L 1947 4863 
z
" transform="scale(0.015625)"/>
      </defs>
      <use xlink:href="#DejaVuSans-5a"/>
      <use xlink:href="#DejaVuSans-65" transform="translate(68.505859 0)"/>
      <use xlink:href="#DejaVuSans-69" transform="translate(130.029297 0)"/>
      <use xlink:href="#DejaVuSans-74" transform="translate(157.8125 0)"/>
      <use xlink:href="#DejaVuSans-20" transform="translate(197.021484 0)"/>
      <use xlink:href="#DejaVuSans-5b" transform="translate(228.808594 0)"/>
      <use xlink:href="#DejaVuSans-6d" transform="translate(267.822266 0)"/>
      <use xlink:href="#DejaVuSans-69" transform="translate(365.234375 0)"/>
      <use xlink:href="#DejaVuSans-6e" transform="translate(393.017578 0)"/>
      <use xlink:href="#DejaVuSans-5d" transform="translate(456.396484 0)"/>
     </g>
    </g>
   </g>
   <g id="matplotlib.axis_2">
    <g id="ytick_1">
     <g id="line2d_15">
      <path d="M 50.14375 306.703795 
L 470.561948 306.703795 
" clip-path="url(#p407bbdeb68)" style="fill: none; stroke-dasharray: 2.96,1.28; stroke-dashoffset: 0; stroke: #b0b0b0; stroke-opacity: 0.3; stroke-width: 0.8"/>
     </g>
     <g id="line2d_16">
      <defs>
       <path id="mb973d5b93d" d="M 0 0 
L -3.5 0 
" style="stroke: #000000; stroke-width: 0.8"/>
      </defs>
      <g>
       <use xlink:href="#mb973d5b93d" x="50.14375" y="306.703795" style="stroke: #000000; stroke-width: 0.8"/>
      </g>
     </g>
     <g id="text_9">
      <!-- 25.0 -->
      <g transform="translate(20.878125 310.503014) scale(0.1 -0.1)">
       <defs>
        <path id="DejaVuSans-2e" d="M 684 794 
L 1344 794 
L 1344 0 
L 684 0 
L 684 794 
z
" transform="scale(0.015625)"/>
       </defs>
       <use xlink:href="#DejaVuSans-32"/>
       <use xlink:href="#DejaVuSans-35" transform="translate(63.623047 0)"/>
       <use xlink:href="#DejaVuSans-2e" transform="translate(127.246094 0)"/>
       <use xlink:href="#DejaVuSans-30" transform="translate(159.033203 0)"/>
      </g>
     </g>
    </g>
    <g id="ytick_2">
     <g id="line2d_17">
      <path d="M 50.14375 272.332439 
L 470.561948 272.332439 
" clip-path="url(#p407bbdeb68)" style="fill: none; stroke-dasharray: 2.96,1.28; stroke-dashoffset: 0; stroke: #b0b0b0; stroke-opacity: 0.3; stroke-width: 0.8"/>
     </g>
     <g id="line2d_18">
      <g>
       <use xlink:href="#mb973d5b93d" x="50.14375" y="272.332439" style="stroke: #000000; stroke-width: 0.8"/>
      </g>
     </g>
     <g id="text_10">
      <!-- 25.5 -->
      <g transform="translate(20.878125 276.131658) scale(0.1 -0.1)">
       <use xlink:href="#DejaVuSans-32"/>
       <use xlink:href="#DejaVuSans-35" transform="translate(63.623047 0)"/>
       <use xlink:href="#DejaVuSans-2e" transform="translate(127.246094 0)"/>
       <use xlink:href="#DejaVuSans-35" transform="translate(159.033203 0)"/>
      </g>
     </g>
    </g>
    <g id="ytick_3">
     <g id="line2d_19">
      <path d="M 50.14375 237.961084 
L 470.561948 237.961084 
" clip-path="url(#p407bbdeb68)" style="fill: none; stroke-dasharray: 2.96,1.28; stroke-dashoffset: 0; stroke: #b0b0b0; stroke-opacity: 0.3; stroke-width: 0.8"/>
     </g>
     <g id="line2d_20">
      <g>
       <use xlink:href="#mb973d5b93d" x="50.14375" y="237.961084" style="stroke: #000000; stroke-width: 0.8"/>
      </g>
     </g>
     <g id="text_11">
      <!-- 26.0 -->
      <g transform="translate(20.878125 241.760303) scale(0.1 -0.1)">
       <use xlink:href="#DejaVuSans-32"/>
       <use xlink:href="#DejaVuSans-36" transform="translate(63.623047 0)"/>
       <use xlink:href="#DejaVuSans-2e" transform="translate(127.246094 0)"/>
       <use xlink:href="#DejaVuSans-30" transform="translate(159.033203 0)"/>
      </g>
     </g>
    </g>
    <g id="ytick_4">
     <g id="line2d_21">
      <path d="M 50.14375 203.589728 
L 470.561948 203.589728 
" clip-path="url(#p407bbdeb68)" style="fill: none; stroke-dasharray: 2.96,1.28; stroke-dashoffset: 0; stroke: #b0b0b0; stroke-opacity: 0.3; stroke-width: 0.8"/>
     </g>
     <g id="line2d_22">
      <g>
       <use xlink:href="#mb973d5b93d" x="50.14375" y="203.589728" style="stroke: #000000; stroke-width: 0.8"/>
      </g>
     </g>
     <g id="text_12">
      <!-- 26.5 -->
      <g transform="translate(20.878125 207.388947) scale(0.1 -0.1)">
       <use xlink:href="#DejaVuSans-32"/>
       <use xlink:href="#DejaVuSans-36" transform="translate(63.623047 0)"/>
       <use xlink:href="#DejaVuSans-2e" transform="translate(127.246094 0)"/>
       <use xlink:href="#DejaVuSans-35" transform="translate(159.033203 0)"/>
      </g>
     </g>
    </g>
    <g id="ytick_5">
     <g id="line2d_23">
      <path d="M 50.14375 169.218373 
L 470.561948 169.218373 
" clip-path="url(#p407bbdeb68)" style="fill: none; stroke-dasharray: 2.96,1.28; stroke-dashoffset: 0; stroke: #b0b0b0; stroke-opacity: 0.3; stroke-width: 0.8"/>
     </g>
     <g id="line2d_24">
      <g>
       <use xlink:href="#mb973d5b93d" x="50.14375" y="169.218373" style="stroke: #000000; stroke-width: 0.8"/>
      </g>
     </g>
     <g id="text_13">
      <!-- 27.0 -->
      <g transform="translate(20.878125 173.017591) scale(0.1 -0.1)">
       <defs>
        <path id="DejaVuSans-37" d="M 525 4666 
L 3525 4666 
L 3525 4397 
L 1831 0 
L 1172 0 
L 2766 4134 
L 525 4134 
L 525 4666 
z
" transform="scale(0.015625)"/>
       </defs>
       <use xlink:href="#DejaVuSans-32"/>
       <use xlink:href="#DejaVuSans-37" transform="translate(63.623047 0)"/>
       <use xlink:href="#DejaVuSans-2e" transform="translate(127.246094 0)"/>
       <use xlink:href="#DejaVuSans-30" transform="translate(159.033203 0)"/>
      </g>
     </g>
    </g>
    <g id="ytick_6">
     <g id="line2d_25">
      <path d="M 50.14375 134.847017 
L 470.561948 134.847017 
" clip-path="url(#p407bbdeb68)" style="fill: none; stroke-dasharray: 2.96,1.28; stroke-dashoffset: 0; stroke: #b0b0b0; stroke-opacity: 0.3; stroke-width: 0.8"/>
     </g>
     <g id="line2d_26">
      <g>
       <use xlink:href="#mb973d5b93d" x="50.14375" y="134.847017" style="stroke: #000000; stroke-width: 0.8"/>
      </g>
     </g>
     <g id="text_14">
      <!-- 27.5 -->
      <g transform="translate(20.878125 138.646236) scale(0.1 -0.1)">
       <use xlink:href="#DejaVuSans-32"/>
       <use xlink:href="#DejaVuSans-37" transform="translate(63.623047 0)"/>
       <use xlink:href="#DejaVuSans-2e" transform="translate(127.246094 0)"/>
       <use xlink:href="#DejaVuSans-35" transform="translate(159.033203 0)"/>
      </g>
     </g>
    </g>
    <g id="ytick_7">
     <g id="line2d_27">
      <path d="M 50.14375 100.475661 
L 470.561948 100.475661 
" clip-path="url(#p407bbdeb68)" style="fill: none; stroke-dasharray: 2.96,1.28; stroke-dashoffset: 0; stroke: #b0b0b0; stroke-opacity: 0.3; stroke-width: 0.8"/>
     </g>
     <g id="line2d_28">
      <g>
       <use xlink:href="#mb973d5b93d" x="50.14375" y="100.475661" style="stroke: #000000; stroke-width: 0.8"/>
      </g>
     </g>
     <g id="text_15">
      <!-- 28.0 -->
      <g transform="translate(20.878125 104.27488) scale(0.1 -0.1)">
       <defs>
        <path id="DejaVuSans-38" d="M 2034 2216 
Q 1584 2216 1326 1975 
Q 1069 1734 1069 1313 
Q 1069 891 1326 650 
Q 1584 409 2034 409 
Q 2484 409 2743 651 
Q 3003 894 3003 1313 
Q 3003 1734 2745 1975 
Q 2488 2216 2034 2216 
z
M 1403 2484 
Q 997 2584 770 2862 
Q 544 3141 544 3541 
Q 544 4100 942 4425 
Q 1341 4750 2034 4750 
Q 2731 4750 3128 4425 
Q 3525 4100 3525 3541 
Q 3525 3141 3298 2862 
Q 3072 2584 2669 2484 
Q 3125 2378 3379 2068 
Q 3634 1759 3634 1313 
Q 3634 634 3220 271 
Q 2806 -91 2034 -91 
Q 1263 -91 848 271 
Q 434 634 434 1313 
Q 434 1759 690 2068 
Q 947 2378 1403 2484 
z
M 1172 3481 
Q 1172 3119 1398 2916 
Q 1625 2713 2034 2713 
Q 2441 2713 2670 2916 
Q 2900 3119 2900 3481 
Q 2900 3844 2670 4047 
Q 2441 4250 2034 4250 
Q 1625 4250 1398 4047 
Q 1172 3844 1172 3481 
z
" transform="scale(0.015625)"/>
       </defs>
       <use xlink:href="#DejaVuSans-32"/>
       <use xlink:href="#DejaVuSans-38" transform="translate(63.623047 0)"/>
       <use xlink:href="#DejaVuSans-2e" transform="translate(127.246094 0)"/>
       <use xlink:href="#DejaVuSans-30" transform="translate(159.033203 0)"/>
      </g>
     </g>
    </g>
    <g id="ytick_8">
     <g id="line2d_29">
      <path d="M 50.14375 66.104306 
L 470.561948 66.104306 
" clip-path="url(#p407bbdeb68)" style="fill: none; stroke-dasharray: 2.96,1.28; stroke-dashoffset: 0; stroke: #b0b0b0; stroke-opacity: 0.3; stroke-width: 0.8"/>
     </g>
     <g id="line2d_30">
      <g>
       <use xlink:href="#mb973d5b93d" x="50.14375" y="66.104306" style="stroke: #000000; stroke-width: 0.8"/>
      </g>
     </g>
     <g id="text_16">
      <!-- 28.5 -->
      <g transform="translate(20.878125 69.903524) scale(0.1 -0.1)">
       <use xlink:href="#DejaVuSans-32"/>
       <use xlink:href="#DejaVuSans-38" transform="translate(63.623047 0)"/>
       <use xlink:href="#DejaVuSans-2e" transform="translate(127.246094 0)"/>
       <use xlink:href="#DejaVuSans-35" transform="translate(159.033203 0)"/>
      </g>
     </g>
    </g>
    <g id="text_17">
     <!-- Zelltemperatur [°C] -->
     <g transform="translate(14.798438 234.308672) rotate(-90) scale(0.1 -0.1)">
      <defs>
       <path id="DejaVuSans-6c" d="M 603 4863 
L 1178 4863 
L 1178 0 
L 603 0 
L 603 4863 
z
" transform="scale(0.015625)"/>
       <path id="DejaVuSans-70" d="M 1159 525 
L 1159 -1331 
L 581 -1331 
L 581 3500 
L 1159 3500 
L 1159 2969 
Q 1341 3281 1617 3432 
Q 1894 3584 2278 3584 
Q 2916 3584 3314 3078 
Q 3713 2572 3713 1747 
Q 3713 922 3314 415 
Q 2916 -91 2278 -91 
Q 1894 -91 1617 61 
Q 1341 213 1159 525 
z
M 3116 1747 
Q 3116 2381 2855 2742 
Q 2594 3103 2138 3103 
Q 1681 3103 1420 2742 
Q 1159 2381 1159 1747 
Q 1159 1113 1420 752 
Q 1681 391 2138 391 
Q 2594 391 2855 752 
Q 3116 1113 3116 1747 
z
" transform="scale(0.015625)"/>
       <path id="DejaVuSans-72" d="M 2631 2963 
Q 2534 3019 2420 3045 
Q 2306 3072 2169 3072 
Q 1681 3072 1420 2755 
Q 1159 2438 1159 1844 
L 1159 0 
L 581 0 
L 581 3500 
L 1159 3500 
L 1159 2956 
Q 1341 3275 1631 3429 
Q 1922 3584 2338 3584 
Q 2397 3584 2469 3576 
Q 2541 3569 2628 3553 
L 2631 2963 
z
" transform="scale(0.015625)"/>
       <path id="DejaVuSans-61" d="M 2194 1759 
Q 1497 1759 1228 1600 
Q 959 1441 959 1056 
Q 959 750 1161 570 
Q 1363 391 1709 391 
Q 2188 391 2477 730 
Q 2766 1069 2766 1631 
L 2766 1759 
L 2194 1759 
z
M 3341 1997 
L 3341 0 
L 2766 0 
L 2766 531 
Q 2569 213 2275 61 
Q 1981 -91 1556 -91 
Q 1019 -91 701 211 
Q 384 513 384 1019 
Q 384 1609 779 1909 
Q 1175 2209 1959 2209 
L 2766 2209 
L 2766 2266 
Q 2766 2663 2505 2880 
Q 2244 3097 1772 3097 
Q 1472 3097 1187 3025 
Q 903 2953 641 2809 
L 641 3341 
Q 956 3463 1253 3523 
Q 1550 3584 1831 3584 
Q 2591 3584 2966 3190 
Q 3341 2797 3341 1997 
z
" transform="scale(0.015625)"/>
       <path id="DejaVuSans-75" d="M 544 1381 
L 544 3500 
L 1119 3500 
L 1119 1403 
Q 1119 906 1312 657 
Q 1506 409 1894 409 
Q 2359 409 2629 706 
Q 2900 1003 2900 1516 
L 2900 3500 
L 3475 3500 
L 3475 0 
L 2900 0 
L 2900 538 
Q 2691 219 2414 64 
Q 2138 -91 1772 -91 
Q 1169 -91 856 284 
Q 544 659 544 1381 
z
M 1991 3584 
L 1991 3584 
z
" transform="scale(0.015625)"/>
       <path id="DejaVuSans-b0" d="M 1600 4347 
Q 1350 4347 1178 4173 
Q 1006 4000 1006 3750 
Q 1006 3503 1178 3333 
Q 1350 3163 1600 3163 
Q 1850 3163 2022 3333 
Q 2194 3503 2194 3750 
Q 2194 3997 2020 4172 
Q 1847 4347 1600 4347 
z
M 1600 4750 
Q 1800 4750 1984 4673 
Q 2169 4597 2303 4453 
Q 2447 4313 2519 4134 
Q 2591 3956 2591 3750 
Q 2591 3338 2302 3052 
Q 2013 2766 1594 2766 
Q 1172 2766 890 3047 
Q 609 3328 609 3750 
Q 609 4169 896 4459 
Q 1184 4750 1600 4750 
z
" transform="scale(0.015625)"/>
       <path id="DejaVuSans-43" d="M 4122 4306 
L 4122 3641 
Q 3803 3938 3442 4084 
Q 3081 4231 2675 4231 
Q 1875 4231 1450 3742 
Q 1025 3253 1025 2328 
Q 1025 1406 1450 917 
Q 1875 428 2675 428 
Q 3081 428 3442 575 
Q 3803 722 4122 1019 
L 4122 359 
Q 3791 134 3420 21 
Q 3050 -91 2638 -91 
Q 1578 -91 968 557 
Q 359 1206 359 2328 
Q 359 3453 968 4101 
Q 1578 4750 2638 4750 
Q 3056 4750 3426 4639 
Q 3797 4528 4122 4306 
z
" transform="scale(0.015625)"/>
      </defs>
      <use xlink:href="#DejaVuSans-5a"/>
      <use xlink:href="#DejaVuSans-65" transform="translate(68.505859 0)"/>
      <use xlink:href="#DejaVuSans-6c" transform="translate(130.029297 0)"/>
      <use xlink:href="#DejaVuSans-6c" transform="translate(157.8125 0)"/>
      <use xlink:href="#DejaVuSans-74" transform="translate(185.595703 0)"/>
      <use xlink:href="#DejaVuSans-65" transform="translate(224.804688 0)"/>
      <use xlink:href="#DejaVuSans-6d" transform="translate(286.328125 0)"/>
      <use xlink:href="#DejaVuSans-70" transform="translate(383.740234 0)"/>
      <use xlink:href="#DejaVuSans-65" transform="translate(447.216797 0)"/>
      <use xlink:href="#DejaVuSans-72" transform="translate(508.740234 0)"/>
      <use xlink:href="#DejaVuSans-61" transform="translate(549.853516 0)"/>
      <use xlink:href="#DejaVuSans-74" transform="translate(611.132812 0)"/>
      <use xlink:href="#DejaVuSans-75" transform="translate(650.341797 0)"/>
      <use xlink:href="#DejaVuSans-72" transform="translate(713.720703 0)"/>
      <use xlink:href="#DejaVuSans-20" transform="translate(754.833984 0)"/>
      <use xlink:href="#DejaVuSans-5b" transform="translate(786.621094 0)"/>
      <use xlink:href="#DejaVuSans-b0" transform="translate(825.634766 0)"/>
      <use xlink:href="#DejaVuSans-43" transform="translate(875.634766 0)"/>
      <use xlink:href="#DejaVuSans-5d" transform="translate(945.458984 0)"/>
     </g>
    </g>
   </g>
   <g id="line2d_31">
    <path d="M 69.253668 317.015202 
L 80.825785 317.30423 
L 98.024711 317.48982 
L 130.405406 317.577823 
L 273.305127 317.592537 
L 451.452029 317.592539 
L 451.452029 317.592539 
" clip-path="url(#p407bbdeb68)" style="fill: none; stroke: #1f77b4; stroke-width: 1.5; stroke-linecap: square"/>
   </g>
   <g id="line2d_32">
    <path d="M 69.253668 317.015202 
L 73.075652 316.019353 
L 77.3223 315.150352 
L 82.09978 314.40411 
L 87.620423 313.770299 
L 94.202728 313.243731 
L 102.377526 312.822267 
L 113.100313 312.506452 
L 128.388248 312.296484 
L 154.929801 312.185196 
L 236.890116 312.157 
L 451.452029 312.156793 
L 451.452029 312.156793 
" clip-path="url(#p407bbdeb68)" style="fill: none; stroke: #ff7f0e; stroke-width: 1.5; stroke-linecap: square"/>
   </g>
   <g id="line2d_33">
    <path d="M 69.253668 317.015202 
L 71.376992 312.974963 
L 73.500317 309.418291 
L 75.623641 306.287308 
L 77.853131 303.402261 
L 80.082622 300.878655 
L 82.418278 298.573283 
L 84.860101 296.484969 
L 87.40809 294.608843 
L 90.062246 292.936957 
L 92.822567 291.458905 
L 95.795221 290.11857 
L 98.980207 288.924622 
L 102.483692 287.849842 
L 106.411842 286.885285 
L 110.764657 286.051257 
L 115.754469 285.328349 
L 121.59361 284.716321 
L 128.60058 284.215763 
L 137.30621 283.826166 
L 148.984493 283.540158 
L 166.395752 283.357631 
L 199.51961 283.27221 
L 353.248284 283.258664 
L 451.452029 283.258663 
L 451.452029 283.258663 
" clip-path="url(#p407bbdeb68)" style="fill: none; stroke: #2ca02c; stroke-width: 1.5; stroke-linecap: square"/>
   </g>
   <g id="line2d_34">
    <path d="M 69.253668 317.015202 
L 71.270826 307.126572 
L 73.287984 298.366198 
L 75.305142 290.605351 
L 77.3223 283.729986 
L 79.339458 277.639076 
L 81.356616 272.243115 
L 83.373774 267.462814 
L 85.390932 263.227927 
L 87.514256 259.291077 
L 89.637581 255.825574 
L 91.760905 252.774986 
L 93.990395 249.964147 
L 96.219886 247.505568 
L 98.555542 245.259706 
L 100.997365 243.225403 
L 103.545354 241.397895 
L 106.19951 239.769424 
L 109.065997 238.279091 
L 112.144818 236.939834 
L 115.43597 235.757222 
L 119.045621 234.702578 
L 123.079937 233.765159 
L 127.538918 232.961875 
L 132.634896 232.272196 
L 138.68637 231.685254 
L 146.011839 231.208577 
L 155.248299 230.84133 
L 167.775912 230.579435 
L 187.204329 230.4187 
L 227.972154 230.352309 
L 451.452029 230.346029 
L 451.452029 230.346029 
" clip-path="url(#p407bbdeb68)" style="fill: none; stroke: #d62728; stroke-width: 1.5; stroke-linecap: square"/>
   </g>
   <g id="line2d_35">
    <path d="M 69.253668 317.015202 
L 71.16466 288.323403 
L 73.075652 262.744702 
L 75.09281 238.749634 
L 77.109968 217.494121 
L 79.127126 198.665382 
L 81.144284 181.98635 
L 83.161442 167.211589 
L 85.1786 154.123686 
L 87.195758 142.530049 
L 89.212916 132.260075 
L 91.230074 123.16264 
L 93.247232 115.103874 
L 95.26439 107.965189 
L 97.281548 101.64154 
L 99.298706 96.039871 
L 101.315864 91.077753 
L 103.333022 86.682168 
L 105.456346 82.596286 
L 107.57967 78.999915 
L 109.702995 75.834411 
L 111.932485 72.917954 
L 114.161976 70.367233 
L 116.497632 68.037426 
L 118.939455 65.927297 
L 121.381278 64.105187 
L 124.035433 62.405569 
L 126.795755 60.903257 
L 129.768409 59.541168 
L 132.953395 58.328078 
L 136.45688 57.236296 
L 140.278864 56.280259 
L 144.631678 55.428036 
L 149.515324 54.70309 
L 155.248299 54.083683 
L 162.149103 53.572496 
L 170.748566 53.171097 
L 182.108351 52.877619 
L 198.882612 52.687285 
L 229.883146 52.5949 
L 355.796273 52.577938 
L 451.452029 52.577929 
L 451.452029 52.577929 
" clip-path="url(#p407bbdeb68)" style="fill: none; stroke: #9467bd; stroke-width: 1.5; stroke-linecap: square"/>
   </g>
   <g id="line2d_36">
    <path d="M 50.14375 317.015202 
L 470.561948 317.015202 
" clip-path="url(#p407bbdeb68)" style="fill: none; stroke-dasharray: 3.33,1.44; stroke-dashoffset: 0; stroke: #808080; stroke-width: 0.9"/>
   </g>
   <g id="patch_3">
    <path d="M 50.14375 330.84327 
L 50.14375 39.327199 
" style="fill: none; stroke: #000000; stroke-width: 0.8; stroke-linejoin: miter; stroke-linecap: square"/>
   </g>
   <g id="patch_4">
    <path d="M 50.14375 330.84327 
L 470.561948 330.84327 
" style="fill: none; stroke: #000000; stroke-width: 0.8; stroke-linejoin: miter; stroke-linecap: square"/>
   </g>
   <g id="text_18">
    <!-- Temperaturverlauf bei konstantem Strom (1 h) -->
    <g transform="translate(115.053161 33.327199) scale(0.11 -0.11)">
     <defs>
      <path id="DejaVuSans-Bold-54" d="M 31 4666 
L 4331 4666 
L 4331 3756 
L 2784 3756 
L 2784 0 
L 1581 0 
L 1581 3756 
L 31 3756 
L 31 4666 
z
" transform="scale(0.015625)"/>
      <path id="DejaVuSans-Bold-65" d="M 4031 1759 
L 4031 1441 
L 1416 1441 
Q 1456 1047 1700 850 
Q 1944 653 2381 653 
Q 2734 653 3104 758 
Q 3475 863 3866 1075 
L 3866 213 
Q 3469 63 3072 -14 
Q 2675 -91 2278 -91 
Q 1328 -91 801 392 
Q 275 875 275 1747 
Q 275 2603 792 3093 
Q 1309 3584 2216 3584 
Q 3041 3584 3536 3087 
Q 4031 2591 4031 1759 
z
M 2881 2131 
Q 2881 2450 2695 2645 
Q 2509 2841 2209 2841 
Q 1884 2841 1681 2658 
Q 1478 2475 1428 2131 
L 2881 2131 
z
" transform="scale(0.015625)"/>
      <path id="DejaVuSans-Bold-6d" d="M 3781 2919 
Q 3994 3244 4286 3414 
Q 4578 3584 4928 3584 
Q 5531 3584 5847 3212 
Q 6163 2841 6163 2131 
L 6163 0 
L 5038 0 
L 5038 1825 
Q 5041 1866 5042 1909 
Q 5044 1953 5044 2034 
Q 5044 2406 4934 2573 
Q 4825 2741 4581 2741 
Q 4263 2741 4089 2478 
Q 3916 2216 3909 1719 
L 3909 0 
L 2784 0 
L 2784 1825 
Q 2784 2406 2684 2573 
Q 2584 2741 2328 2741 
Q 2006 2741 1831 2477 
Q 1656 2213 1656 1722 
L 1656 0 
L 531 0 
L 531 3500 
L 1656 3500 
L 1656 2988 
Q 1863 3284 2130 3434 
Q 2397 3584 2719 3584 
Q 3081 3584 3359 3409 
Q 3638 3234 3781 2919 
z
" transform="scale(0.015625)"/>
      <path id="DejaVuSans-Bold-70" d="M 1656 506 
L 1656 -1331 
L 538 -1331 
L 538 3500 
L 1656 3500 
L 1656 2988 
Q 1888 3294 2169 3439 
Q 2450 3584 2816 3584 
Q 3463 3584 3878 3070 
Q 4294 2556 4294 1747 
Q 4294 938 3878 423 
Q 3463 -91 2816 -91 
Q 2450 -91 2169 54 
Q 1888 200 1656 506 
z
M 2400 2772 
Q 2041 2772 1848 2508 
Q 1656 2244 1656 1747 
Q 1656 1250 1848 986 
Q 2041 722 2400 722 
Q 2759 722 2948 984 
Q 3138 1247 3138 1747 
Q 3138 2247 2948 2509 
Q 2759 2772 2400 2772 
z
" transform="scale(0.015625)"/>
      <path id="DejaVuSans-Bold-72" d="M 3138 2547 
Q 2991 2616 2845 2648 
Q 2700 2681 2553 2681 
Q 2122 2681 1889 2404 
Q 1656 2128 1656 1613 
L 1656 0 
L 538 0 
L 538 3500 
L 1656 3500 
L 1656 2925 
Q 1872 3269 2151 3426 
Q 2431 3584 2822 3584 
Q 2878 3584 2943 3579 
Q 3009 3575 3134 3559 
L 3138 2547 
z
" transform="scale(0.015625)"/>
      <path id="DejaVuSans-Bold-61" d="M 2106 1575 
Q 1756 1575 1579 1456 
Q 1403 1338 1403 1106 
Q 1403 894 1545 773 
Q 1688 653 1941 653 
Q 2256 653 2472 879 
Q 2688 1106 2688 1447 
L 2688 1575 
L 2106 1575 
z
M 3816 1997 
L 3816 0 
L 2688 0 
L 2688 519 
Q 2463 200 2181 54 
Q 1900 -91 1497 -91 
Q 953 -91 614 226 
Q 275 544 275 1050 
Q 275 1666 698 1953 
Q 1122 2241 2028 2241 
L 2688 2241 
L 2688 2328 
Q 2688 2594 2478 2717 
Q 2269 2841 1825 2841 
Q 1466 2841 1156 2769 
Q 847 2697 581 2553 
L 581 3406 
Q 941 3494 1303 3539 
Q 1666 3584 2028 3584 
Q 2975 3584 3395 3211 
Q 3816 2838 3816 1997 
z
" transform="scale(0.015625)"/>
      <path id="DejaVuSans-Bold-74" d="M 1759 4494 
L 1759 3500 
L 2913 3500 
L 2913 2700 
L 1759 2700 
L 1759 1216 
Q 1759 972 1856 886 
Q 1953 800 2241 800 
L 2816 800 
L 2816 0 
L 1856 0 
Q 1194 0 917 276 
Q 641 553 641 1216 
L 641 2700 
L 84 2700 
L 84 3500 
L 641 3500 
L 641 4494 
L 1759 4494 
z
" transform="scale(0.015625)"/>
      <path id="DejaVuSans-Bold-75" d="M 500 1363 
L 500 3500 
L 1625 3500 
L 1625 3150 
Q 1625 2866 1622 2436 
Q 1619 2006 1619 1863 
Q 1619 1441 1641 1255 
Q 1663 1069 1716 984 
Q 1784 875 1895 815 
Q 2006 756 2150 756 
Q 2500 756 2700 1025 
Q 2900 1294 2900 1772 
L 2900 3500 
L 4019 3500 
L 4019 0 
L 2900 0 
L 2900 506 
Q 2647 200 2364 54 
Q 2081 -91 1741 -91 
Q 1134 -91 817 281 
Q 500 653 500 1363 
z
" transform="scale(0.015625)"/>
      <path id="DejaVuSans-Bold-76" d="M 97 3500 
L 1216 3500 
L 2088 1081 
L 2956 3500 
L 4078 3500 
L 2700 0 
L 1472 0 
L 97 3500 
z
" transform="scale(0.015625)"/>
      <path id="DejaVuSans-Bold-6c" d="M 538 4863 
L 1656 4863 
L 1656 0 
L 538 0 
L 538 4863 
z
" transform="scale(0.015625)"/>
      <path id="DejaVuSans-Bold-66" d="M 2841 4863 
L 2841 4128 
L 2222 4128 
Q 1984 4128 1890 4042 
Q 1797 3956 1797 3744 
L 1797 3500 
L 2753 3500 
L 2753 2700 
L 1797 2700 
L 1797 0 
L 678 0 
L 678 2700 
L 122 2700 
L 122 3500 
L 678 3500 
L 678 3744 
Q 678 4316 997 4589 
Q 1316 4863 1984 4863 
L 2841 4863 
z
" transform="scale(0.015625)"/>
      <path id="DejaVuSans-Bold-20" transform="scale(0.015625)"/>
      <path id="DejaVuSans-Bold-62" d="M 2400 722 
Q 2759 722 2948 984 
Q 3138 1247 3138 1747 
Q 3138 2247 2948 2509 
Q 2759 2772 2400 2772 
Q 2041 2772 1848 2508 
Q 1656 2244 1656 1747 
Q 1656 1250 1848 986 
Q 2041 722 2400 722 
z
M 1656 2988 
Q 1888 3294 2169 3439 
Q 2450 3584 2816 3584 
Q 3463 3584 3878 3070 
Q 4294 2556 4294 1747 
Q 4294 938 3878 423 
Q 3463 -91 2816 -91 
Q 2450 -91 2169 54 
Q 1888 200 1656 506 
L 1656 0 
L 538 0 
L 538 4863 
L 1656 4863 
L 1656 2988 
z
" transform="scale(0.015625)"/>
      <path id="DejaVuSans-Bold-69" d="M 538 3500 
L 1656 3500 
L 1656 0 
L 538 0 
L 538 3500 
z
M 538 4863 
L 1656 4863 
L 1656 3950 
L 538 3950 
L 538 4863 
z
" transform="scale(0.015625)"/>
      <path id="DejaVuSans-Bold-6b" d="M 538 4863 
L 1656 4863 
L 1656 2216 
L 2944 3500 
L 4244 3500 
L 2534 1894 
L 4378 0 
L 3022 0 
L 1656 1459 
L 1656 0 
L 538 0 
L 538 4863 
z
" transform="scale(0.015625)"/>
      <path id="DejaVuSans-Bold-6f" d="M 2203 2784 
Q 1831 2784 1636 2517 
Q 1441 2250 1441 1747 
Q 1441 1244 1636 976 
Q 1831 709 2203 709 
Q 2569 709 2762 976 
Q 2956 1244 2956 1747 
Q 2956 2250 2762 2517 
Q 2569 2784 2203 2784 
z
M 2203 3584 
Q 3106 3584 3614 3096 
Q 4122 2609 4122 1747 
Q 4122 884 3614 396 
Q 3106 -91 2203 -91 
Q 1297 -91 786 396 
Q 275 884 275 1747 
Q 275 2609 786 3096 
Q 1297 3584 2203 3584 
z
" transform="scale(0.015625)"/>
      <path id="DejaVuSans-Bold-6e" d="M 4056 2131 
L 4056 0 
L 2931 0 
L 2931 347 
L 2931 1631 
Q 2931 2084 2911 2256 
Q 2891 2428 2841 2509 
Q 2775 2619 2662 2680 
Q 2550 2741 2406 2741 
Q 2056 2741 1856 2470 
Q 1656 2200 1656 1722 
L 1656 0 
L 538 0 
L 538 3500 
L 1656 3500 
L 1656 2988 
Q 1909 3294 2193 3439 
Q 2478 3584 2822 3584 
Q 3428 3584 3742 3212 
Q 4056 2841 4056 2131 
z
" transform="scale(0.015625)"/>
      <path id="DejaVuSans-Bold-73" d="M 3272 3391 
L 3272 2541 
Q 2913 2691 2578 2766 
Q 2244 2841 1947 2841 
Q 1628 2841 1473 2761 
Q 1319 2681 1319 2516 
Q 1319 2381 1436 2309 
Q 1553 2238 1856 2203 
L 2053 2175 
Q 2913 2066 3209 1816 
Q 3506 1566 3506 1031 
Q 3506 472 3093 190 
Q 2681 -91 1863 -91 
Q 1516 -91 1145 -36 
Q 775 19 384 128 
L 384 978 
Q 719 816 1070 734 
Q 1422 653 1784 653 
Q 2113 653 2278 743 
Q 2444 834 2444 1013 
Q 2444 1163 2330 1236 
Q 2216 1309 1875 1350 
L 1678 1375 
Q 931 1469 631 1722 
Q 331 1975 331 2491 
Q 331 3047 712 3315 
Q 1094 3584 1881 3584 
Q 2191 3584 2531 3537 
Q 2872 3491 3272 3391 
z
" transform="scale(0.015625)"/>
      <path id="DejaVuSans-Bold-53" d="M 3834 4519 
L 3834 3531 
Q 3450 3703 3084 3790 
Q 2719 3878 2394 3878 
Q 1963 3878 1756 3759 
Q 1550 3641 1550 3391 
Q 1550 3203 1689 3098 
Q 1828 2994 2194 2919 
L 2706 2816 
Q 3484 2659 3812 2340 
Q 4141 2022 4141 1434 
Q 4141 663 3683 286 
Q 3225 -91 2284 -91 
Q 1841 -91 1394 -6 
Q 947 78 500 244 
L 500 1259 
Q 947 1022 1364 901 
Q 1781 781 2169 781 
Q 2563 781 2772 912 
Q 2981 1044 2981 1288 
Q 2981 1506 2839 1625 
Q 2697 1744 2272 1838 
L 1806 1941 
Q 1106 2091 782 2419 
Q 459 2747 459 3303 
Q 459 4000 909 4375 
Q 1359 4750 2203 4750 
Q 2588 4750 2994 4692 
Q 3400 4634 3834 4519 
z
" transform="scale(0.015625)"/>
      <path id="DejaVuSans-Bold-28" d="M 2413 -844 
L 1484 -844 
Q 1006 -72 778 623 
Q 550 1319 550 2003 
Q 550 2688 779 3389 
Q 1009 4091 1484 4856 
L 2413 4856 
Q 2013 4116 1813 3408 
Q 1613 2700 1613 2009 
Q 1613 1319 1811 609 
Q 2009 -100 2413 -844 
z
" transform="scale(0.015625)"/>
      <path id="DejaVuSans-Bold-31" d="M 750 831 
L 1813 831 
L 1813 3847 
L 722 3622 
L 722 4441 
L 1806 4666 
L 2950 4666 
L 2950 831 
L 4013 831 
L 4013 0 
L 750 0 
L 750 831 
z
" transform="scale(0.015625)"/>
      <path id="DejaVuSans-Bold-68" d="M 4056 2131 
L 4056 0 
L 2931 0 
L 2931 347 
L 2931 1625 
Q 2931 2084 2911 2256 
Q 2891 2428 2841 2509 
Q 2775 2619 2662 2680 
Q 2550 2741 2406 2741 
Q 2056 2741 1856 2470 
Q 1656 2200 1656 1722 
L 1656 0 
L 538 0 
L 538 4863 
L 1656 4863 
L 1656 2988 
Q 1909 3294 2193 3439 
Q 2478 3584 2822 3584 
Q 3428 3584 3742 3212 
Q 4056 2841 4056 2131 
z
" transform="scale(0.015625)"/>
      <path id="DejaVuSans-Bold-29" d="M 513 -844 
Q 913 -100 1113 609 
Q 1313 1319 1313 2009 
Q 1313 2700 1113 3408 
Q 913 4116 513 4856 
L 1441 4856 
Q 1916 4091 2145 3389 
Q 2375 2688 2375 2003 
Q 2375 1319 2147 623 
Q 1919 -72 1441 -844 
L 513 -844 
z
" transform="scale(0.015625)"/>
     </defs>
     <use xlink:href="#DejaVuSans-Bold-54"/>
     <use xlink:href="#DejaVuSans-Bold-65" transform="translate(54.962891 0)"/>
     <use xlink:href="#DejaVuSans-Bold-6d" transform="translate(122.785156 0)"/>
     <use xlink:href="#DejaVuSans-Bold-70" transform="translate(226.984375 0)"/>
     <use xlink:href="#DejaVuSans-Bold-65" transform="translate(298.566406 0)"/>
     <use xlink:href="#DejaVuSans-Bold-72" transform="translate(366.388672 0)"/>
     <use xlink:href="#DejaVuSans-Bold-61" transform="translate(415.705078 0)"/>
     <use xlink:href="#DejaVuSans-Bold-74" transform="translate(483.185547 0)"/>
     <use xlink:href="#DejaVuSans-Bold-75" transform="translate(530.988281 0)"/>
     <use xlink:href="#DejaVuSans-Bold-72" transform="translate(602.179688 0)"/>
     <use xlink:href="#DejaVuSans-Bold-76" transform="translate(651.496094 0)"/>
     <use xlink:href="#DejaVuSans-Bold-65" transform="translate(716.681641 0)"/>
     <use xlink:href="#DejaVuSans-Bold-72" transform="translate(784.503906 0)"/>
     <use xlink:href="#DejaVuSans-Bold-6c" transform="translate(833.820312 0)"/>
     <use xlink:href="#DejaVuSans-Bold-61" transform="translate(868.097656 0)"/>
     <use xlink:href="#DejaVuSans-Bold-75" transform="translate(935.578125 0)"/>
     <use xlink:href="#DejaVuSans-Bold-66" transform="translate(1006.769531 0)"/>
     <use xlink:href="#DejaVuSans-Bold-20" transform="translate(1050.275391 0)"/>
     <use xlink:href="#DejaVuSans-Bold-62" transform="translate(1085.089844 0)"/>
     <use xlink:href="#DejaVuSans-Bold-65" transform="translate(1156.671875 0)"/>
     <use xlink:href="#DejaVuSans-Bold-69" transform="translate(1224.494141 0)"/>
     <use xlink:href="#DejaVuSans-Bold-20" transform="translate(1258.771484 0)"/>
     <use xlink:href="#DejaVuSans-Bold-6b" transform="translate(1293.585938 0)"/>
     <use xlink:href="#DejaVuSans-Bold-6f" transform="translate(1357.464844 0)"/>
     <use xlink:href="#DejaVuSans-Bold-6e" transform="translate(1426.166016 0)"/>
     <use xlink:href="#DejaVuSans-Bold-73" transform="translate(1497.357422 0)"/>
     <use xlink:href="#DejaVuSans-Bold-74" transform="translate(1556.878906 0)"/>
     <use xlink:href="#DejaVuSans-Bold-61" transform="translate(1604.681641 0)"/>
     <use xlink:href="#DejaVuSans-Bold-6e" transform="translate(1672.162109 0)"/>
     <use xlink:href="#DejaVuSans-Bold-74" transform="translate(1743.353516 0)"/>
     <use xlink:href="#DejaVuSans-Bold-65" transform="translate(1791.15625 0)"/>
     <use xlink:href="#DejaVuSans-Bold-6d" transform="translate(1858.978516 0)"/>
     <use xlink:href="#DejaVuSans-Bold-20" transform="translate(1963.177734 0)"/>
     <use xlink:href="#DejaVuSans-Bold-53" transform="translate(1997.992188 0)"/>
     <use xlink:href="#DejaVuSans-Bold-74" transform="translate(2070.013672 0)"/>
     <use xlink:href="#DejaVuSans-Bold-72" transform="translate(2117.816406 0)"/>
     <use xlink:href="#DejaVuSans-Bold-6f" transform="translate(2167.132812 0)"/>
     <use xlink:href="#DejaVuSans-Bold-6d" transform="translate(2235.833984 0)"/>
     <use xlink:href="#DejaVuSans-Bold-20" transform="translate(2340.033203 0)"/>
     <use xlink:href="#DejaVuSans-Bold-28" transform="translate(2374.847656 0)"/>
     <use xlink:href="#DejaVuSans-Bold-31" transform="translate(2420.550781 0)"/>
     <use xlink:href="#DejaVuSans-Bold-20" transform="translate(2490.130859 0)"/>
     <use xlink:href="#DejaVuSans-Bold-68" transform="translate(2524.945312 0)"/>
     <use xlink:href="#DejaVuSans-Bold-29" transform="translate(2596.136719 0)"/>
    </g>
   </g>
   <g id="legend_1">
    <g id="patch_5">
     <path d="M 367.10976 226.191328 
L 464.261948 226.191328 
Q 466.061948 226.191328 466.061948 224.391328 
L 466.061948 145.779141 
Q 466.061948 143.979141 464.261948 143.979141 
L 367.10976 143.979141 
Q 365.30976 143.979141 365.30976 145.779141 
L 365.30976 224.391328 
Q 365.30976 226.191328 367.10976 226.191328 
z
" style="fill: #ffffff; opacity: 0.85; stroke: #cccccc; stroke-linejoin: miter"/>
    </g>
    <g id="line2d_37">
     <path d="M 368.90976 151.267734 
L 377.90976 151.267734 
L 386.90976 151.267734 
" style="fill: none; stroke: #1f77b4; stroke-width: 1.5; stroke-linecap: square"/>
    </g>
    <g id="text_19">
     <!-- I = 0.5 A -->
     <g transform="translate(394.10976 154.417734) scale(0.09 -0.09)">
      <defs>
       <path id="DejaVuSans-49" d="M 628 4666 
L 1259 4666 
L 1259 0 
L 628 0 
L 628 4666 
z
" transform="scale(0.015625)"/>
       <path id="DejaVuSans-3d" d="M 678 2906 
L 4684 2906 
L 4684 2381 
L 678 2381 
L 678 2906 
z
M 678 1631 
L 4684 1631 
L 4684 1100 
L 678 1100 
L 678 1631 
z
" transform="scale(0.015625)"/>
       <path id="DejaVuSans-41" d="M 2188 4044 
L 1331 1722 
L 3047 1722 
L 2188 4044 
z
M 1831 4666 
L 2547 4666 
L 4325 0 
L 3669 0 
L 3244 1197 
L 1141 1197 
L 716 0 
L 50 0 
L 1831 4666 
z
" transform="scale(0.015625)"/>
      </defs>
      <use xlink:href="#DejaVuSans-49"/>
      <use xlink:href="#DejaVuSans-20" transform="translate(29.492188 0)"/>
      <use xlink:href="#DejaVuSans-3d" transform="translate(61.279297 0)"/>
      <use xlink:href="#DejaVuSans-20" transform="translate(145.068359 0)"/>
      <use xlink:href="#DejaVuSans-30" transform="translate(176.855469 0)"/>
      <use xlink:href="#DejaVuSans-2e" transform="translate(240.478516 0)"/>
      <use xlink:href="#DejaVuSans-35" transform="translate(272.265625 0)"/>
      <use xlink:href="#DejaVuSans-20" transform="translate(335.888672 0)"/>
      <use xlink:href="#DejaVuSans-41" transform="translate(367.675781 0)"/>
     </g>
    </g>
    <g id="line2d_38">
     <path d="M 368.90976 164.478047 
L 377.90976 164.478047 
L 386.90976 164.478047 
" style="fill: none; stroke: #ff7f0e; stroke-width: 1.5; stroke-linecap: square"/>
    </g>
    <g id="text_20">
     <!-- I = 1.0 A -->
     <g transform="translate(394.10976 167.628047) scale(0.09 -0.09)">
      <use xlink:href="#DejaVuSans-49"/>
      <use xlink:href="#DejaVuSans-20" transform="translate(29.492188 0)"/>
      <use xlink:href="#DejaVuSans-3d" transform="translate(61.279297 0)"/>
      <use xlink:href="#DejaVuSans-20" transform="translate(145.068359 0)"/>
      <use xlink:href="#DejaVuSans-31" transform="translate(176.855469 0)"/>
      <use xlink:href="#DejaVuSans-2e" transform="translate(240.478516 0)"/>
      <use xlink:href="#DejaVuSans-30" transform="translate(272.265625 0)"/>
      <use xlink:href="#DejaVuSans-20" transform="translate(335.888672 0)"/>
      <use xlink:href="#DejaVuSans-41" transform="translate(367.675781 0)"/>
     </g>
    </g>
    <g id="line2d_39">
     <path d="M 368.90976 177.688359 
L 377.90976 177.688359 
L 386.90976 177.688359 
" style="fill: none; stroke: #2ca02c; stroke-width: 1.5; stroke-linecap: square"/>
    </g>
    <g id="text_21">
     <!-- I = 2.0 A -->
     <g transform="translate(394.10976 180.838359) scale(0.09 -0.09)">
      <use xlink:href="#DejaVuSans-49"/>
      <use xlink:href="#DejaVuSans-20" transform="translate(29.492188 0)"/>
      <use xlink:href="#DejaVuSans-3d" transform="translate(61.279297 0)"/>
      <use xlink:href="#DejaVuSans-20" transform="translate(145.068359 0)"/>
      <use xlink:href="#DejaVuSans-32" transform="translate(176.855469 0)"/>
      <use xlink:href="#DejaVuSans-2e" transform="translate(240.478516 0)"/>
      <use xlink:href="#DejaVuSans-30" transform="translate(272.265625 0)"/>
      <use xlink:href="#DejaVuSans-20" transform="translate(335.888672 0)"/>
      <use xlink:href="#DejaVuSans-41" transform="translate(367.675781 0)"/>
     </g>
    </g>
    <g id="line2d_40">
     <path d="M 368.90976 190.898672 
L 377.90976 190.898672 
L 386.90976 190.898672 
" style="fill: none; stroke: #d62728; stroke-width: 1.5; stroke-linecap: square"/>
    </g>
    <g id="text_22">
     <!-- I = 3.0 A -->
     <g transform="translate(394.10976 194.048672) scale(0.09 -0.09)">
      <use xlink:href="#DejaVuSans-49"/>
      <use xlink:href="#DejaVuSans-20" transform="translate(29.492188 0)"/>
      <use xlink:href="#DejaVuSans-3d" transform="translate(61.279297 0)"/>
      <use xlink:href="#DejaVuSans-20" transform="translate(145.068359 0)"/>
      <use xlink:href="#DejaVuSans-33" transform="translate(176.855469 0)"/>
      <use xlink:href="#DejaVuSans-2e" transform="translate(240.478516 0)"/>
      <use xlink:href="#DejaVuSans-30" transform="translate(272.265625 0)"/>
      <use xlink:href="#DejaVuSans-20" transform="translate(335.888672 0)"/>
      <use xlink:href="#DejaVuSans-41" transform="translate(367.675781 0)"/>
     </g>
    </g>
    <g id="line2d_41">
     <path d="M 368.90976 204.108984 
L 377.90976 204.108984 
L 386.90976 204.108984 
" style="fill: none; stroke: #9467bd; stroke-width: 1.5; stroke-linecap: square"/>
    </g>
    <g id="text_23">
     <!-- I = 5.0 A -->
     <g transform="translate(394.10976 207.258984) scale(0.09 -0.09)">
      <use xlink:href="#DejaVuSans-49"/>
      <use xlink:href="#DejaVuSans-20" transform="translate(29.492188 0)"/>
      <use xlink:href="#DejaVuSans-3d" transform="translate(61.279297 0)"/>
      <use xlink:href="#DejaVuSans-20" transform="translate(145.068359 0)"/>
      <use xlink:href="#DejaVuSans-35" transform="translate(176.855469 0)"/>
      <use xlink:href="#DejaVuSans-2e" transform="translate(240.478516 0)"/>
      <use xlink:href="#DejaVuSans-30" transform="translate(272.265625 0)"/>
      <use xlink:href="#DejaVuSans-20" transform="translate(335.888672 0)"/>
      <use xlink:href="#DejaVuSans-41" transform="translate(367.675781 0)"/>
     </g>
    </g>
    <g id="line2d_42">
     <path d="M 368.90976 217.319297 
L 377.90976 217.319297 
L 386.90976 217.319297 
" style="fill: none; stroke-dasharray: 3.33,1.44; stroke-dashoffset: 0; stroke: #808080; stroke-width: 0.9"/>
    </g>
    <g id="text_24">
     <!-- T_amb = 25 °C -->
     <g transform="translate(394.10976 220.469297) scale(0.09 -0.09)">
      <defs>
       <path id="DejaVuSans-54" d="M -19 4666 
L 3928 4666 
L 3928 4134 
L 2272 4134 
L 2272 0 
L 1638 0 
L 1638 4134 
L -19 4134 
L -19 4666 
z
" transform="scale(0.015625)"/>
       <path id="DejaVuSans-5f" d="M 3263 -1063 
L 3263 -1509 
L -63 -1509 
L -63 -1063 
L 3263 -1063 
z
" transform="scale(0.015625)"/>
       <path id="DejaVuSans-62" d="M 3116 1747 
Q 3116 2381 2855 2742 
Q 2594 3103 2138 3103 
Q 1681 3103 1420 2742 
Q 1159 2381 1159 1747 
Q 1159 1113 1420 752 
Q 1681 391 2138 391 
Q 2594 391 2855 752 
Q 3116 1113 3116 1747 
z
M 1159 2969 
Q 1341 3281 1617 3432 
Q 1894 3584 2278 3584 
Q 2916 3584 3314 3078 
Q 3713 2572 3713 1747 
Q 3713 922 3314 415 
Q 2916 -91 2278 -91 
Q 1894 -91 1617 61 
Q 1341 213 1159 525 
L 1159 0 
L 581 0 
L 581 4863 
L 1159 4863 
L 1159 2969 
z
" transform="scale(0.015625)"/>
      </defs>
      <use xlink:href="#DejaVuSans-54"/>
      <use xlink:href="#DejaVuSans-5f" transform="translate(61.083984 0)"/>
      <use xlink:href="#DejaVuSans-61" transform="translate(111.083984 0)"/>
      <use xlink:href="#DejaVuSans-6d" transform="translate(172.363281 0)"/>
      <use xlink:href="#DejaVuSans-62" transform="translate(269.775391 0)"/>
      <use xlink:href="#DejaVuSans-20" transform="translate(333.251953 0)"/>
      <use xlink:href="#DejaVuSans-3d" transform="translate(365.039062 0)"/>
      <use xlink:href="#DejaVuSans-20" transform="translate(448.828125 0)"/>
      <use xlink:href="#DejaVuSans-32" transform="translate(480.615234 0)"/>
      <use xlink:href="#DejaVuSans-35" transform="translate(544.238281 0)"/>
      <use xlink:href="#DejaVuSans-20" transform="translate(607.861328 0)"/>
      <use xlink:href="#DejaVuSans-b0" transform="translate(639.648438 0)"/>
      <use xlink:href="#DejaVuSans-43" transform="translate(689.648438 0)"/>
     </g>
    </g>
   </g>
  </g>
  <g id="axes_2">
   <g id="patch_6">
    <path d="M 516.781322 330.84327 
L 937.19952 330.84327 
L 937.19952 39.327199 
L 516.781322 39.327199 
z
" style="fill: #ffffff"/>
   </g>
   <g id="matplotlib.axis_3">
    <g id="xtick_8">
     <g id="line2d_43">
      <path d="M 535.891241 330.84327 
L 535.891241 39.327199 
" clip-path="url(#p79a3a0922e)" style="fill: none; stroke-dasharray: 2.96,1.28; stroke-dashoffset: 0; stroke: #b0b0b0; stroke-opacity: 0.3; stroke-width: 0.8"/>
     </g>
     <g id="line2d_44">
      <g>
       <use xlink:href="#m9530235a7c" x="535.891241" y="330.84327" style="stroke: #000000; stroke-width: 0.8"/>
      </g>
     </g>
     <g id="text_25">
      <!-- 0 -->
      <g transform="translate(532.709991 345.441707) scale(0.1 -0.1)">
       <use xlink:href="#DejaVuSans-30"/>
      </g>
     </g>
    </g>
    <g id="xtick_9">
     <g id="line2d_45">
      <path d="M 583.666036 330.84327 
L 583.666036 39.327199 
" clip-path="url(#p79a3a0922e)" style="fill: none; stroke-dasharray: 2.96,1.28; stroke-dashoffset: 0; stroke: #b0b0b0; stroke-opacity: 0.3; stroke-width: 0.8"/>
     </g>
     <g id="line2d_46">
      <g>
       <use xlink:href="#m9530235a7c" x="583.666036" y="330.84327" style="stroke: #000000; stroke-width: 0.8"/>
      </g>
     </g>
     <g id="text_26">
      <!-- 1 -->
      <g transform="translate(580.484786 345.441707) scale(0.1 -0.1)">
       <use xlink:href="#DejaVuSans-31"/>
      </g>
     </g>
    </g>
    <g id="xtick_10">
     <g id="line2d_47">
      <path d="M 631.440831 330.84327 
L 631.440831 39.327199 
" clip-path="url(#p79a3a0922e)" style="fill: none; stroke-dasharray: 2.96,1.28; stroke-dashoffset: 0; stroke: #b0b0b0; stroke-opacity: 0.3; stroke-width: 0.8"/>
     </g>
     <g id="line2d_48">
      <g>
       <use xlink:href="#m9530235a7c" x="631.440831" y="330.84327" style="stroke: #000000; stroke-width: 0.8"/>
      </g>
     </g>
     <g id="text_27">
      <!-- 2 -->
      <g transform="translate(628.259581 345.441707) scale(0.1 -0.1)">
       <use xlink:href="#DejaVuSans-32"/>
      </g>
     </g>
    </g>
    <g id="xtick_11">
     <g id="line2d_49">
      <path d="M 679.215626 330.84327 
L 679.215626 39.327199 
" clip-path="url(#p79a3a0922e)" style="fill: none; stroke-dasharray: 2.96,1.28; stroke-dashoffset: 0; stroke: #b0b0b0; stroke-opacity: 0.3; stroke-width: 0.8"/>
     </g>
     <g id="line2d_50">
      <g>
       <use xlink:href="#m9530235a7c" x="679.215626" y="330.84327" style="stroke: #000000; stroke-width: 0.8"/>
      </g>
     </g>
     <g id="text_28">
      <!-- 3 -->
      <g transform="translate(676.034376 345.441707) scale(0.1 -0.1)">
       <use xlink:href="#DejaVuSans-33"/>
      </g>
     </g>
    </g>
    <g id="xtick_12">
     <g id="line2d_51">
      <path d="M 726.990421 330.84327 
L 726.990421 39.327199 
" clip-path="url(#p79a3a0922e)" style="fill: none; stroke-dasharray: 2.96,1.28; stroke-dashoffset: 0; stroke: #b0b0b0; stroke-opacity: 0.3; stroke-width: 0.8"/>
     </g>
     <g id="line2d_52">
      <g>
       <use xlink:href="#m9530235a7c" x="726.990421" y="330.84327" style="stroke: #000000; stroke-width: 0.8"/>
      </g>
     </g>
     <g id="text_29">
      <!-- 4 -->
      <g transform="translate(723.809171 345.441707) scale(0.1 -0.1)">
       <use xlink:href="#DejaVuSans-34"/>
      </g>
     </g>
    </g>
    <g id="xtick_13">
     <g id="line2d_53">
      <path d="M 774.765216 330.84327 
L 774.765216 39.327199 
" clip-path="url(#p79a3a0922e)" style="fill: none; stroke-dasharray: 2.96,1.28; stroke-dashoffset: 0; stroke: #b0b0b0; stroke-opacity: 0.3; stroke-width: 0.8"/>
     </g>
     <g id="line2d_54">
      <g>
       <use xlink:href="#m9530235a7c" x="774.765216" y="330.84327" style="stroke: #000000; stroke-width: 0.8"/>
      </g>
     </g>
     <g id="text_30">
      <!-- 5 -->
      <g transform="translate(771.583966 345.441707) scale(0.1 -0.1)">
       <use xlink:href="#DejaVuSans-35"/>
      </g>
     </g>
    </g>
    <g id="xtick_14">
     <g id="line2d_55">
      <path d="M 822.540012 330.84327 
L 822.540012 39.327199 
" clip-path="url(#p79a3a0922e)" style="fill: none; stroke-dasharray: 2.96,1.28; stroke-dashoffset: 0; stroke: #b0b0b0; stroke-opacity: 0.3; stroke-width: 0.8"/>
     </g>
     <g id="line2d_56">
      <g>
       <use xlink:href="#m9530235a7c" x="822.540012" y="330.84327" style="stroke: #000000; stroke-width: 0.8"/>
      </g>
     </g>
     <g id="text_31">
      <!-- 6 -->
      <g transform="translate(819.358762 345.441707) scale(0.1 -0.1)">
       <use xlink:href="#DejaVuSans-36"/>
      </g>
     </g>
    </g>
    <g id="xtick_15">
     <g id="line2d_57">
      <path d="M 870.314807 330.84327 
L 870.314807 39.327199 
" clip-path="url(#p79a3a0922e)" style="fill: none; stroke-dasharray: 2.96,1.28; stroke-dashoffset: 0; stroke: #b0b0b0; stroke-opacity: 0.3; stroke-width: 0.8"/>
     </g>
     <g id="line2d_58">
      <g>
       <use xlink:href="#m9530235a7c" x="870.314807" y="330.84327" style="stroke: #000000; stroke-width: 0.8"/>
      </g>
     </g>
     <g id="text_32">
      <!-- 7 -->
      <g transform="translate(867.133557 345.441707) scale(0.1 -0.1)">
       <use xlink:href="#DejaVuSans-37"/>
      </g>
     </g>
    </g>
    <g id="xtick_16">
     <g id="line2d_59">
      <path d="M 918.089602 330.84327 
L 918.089602 39.327199 
" clip-path="url(#p79a3a0922e)" style="fill: none; stroke-dasharray: 2.96,1.28; stroke-dashoffset: 0; stroke: #b0b0b0; stroke-opacity: 0.3; stroke-width: 0.8"/>
     </g>
     <g id="line2d_60">
      <g>
       <use xlink:href="#m9530235a7c" x="918.089602" y="330.84327" style="stroke: #000000; stroke-width: 0.8"/>
      </g>
     </g>
     <g id="text_33">
      <!-- 8 -->
      <g transform="translate(914.908352 345.441707) scale(0.1 -0.1)">
       <use xlink:href="#DejaVuSans-38"/>
      </g>
     </g>
    </g>
    <g id="text_34">
     <!-- Strom I [A] -->
     <g transform="translate(700.00839 359.119832) scale(0.1 -0.1)">
      <defs>
       <path id="DejaVuSans-53" d="M 3425 4513 
L 3425 3897 
Q 3066 4069 2747 4153 
Q 2428 4238 2131 4238 
Q 1616 4238 1336 4038 
Q 1056 3838 1056 3469 
Q 1056 3159 1242 3001 
Q 1428 2844 1947 2747 
L 2328 2669 
Q 3034 2534 3370 2195 
Q 3706 1856 3706 1288 
Q 3706 609 3251 259 
Q 2797 -91 1919 -91 
Q 1588 -91 1214 -16 
Q 841 59 441 206 
L 441 856 
Q 825 641 1194 531 
Q 1563 422 1919 422 
Q 2459 422 2753 634 
Q 3047 847 3047 1241 
Q 3047 1584 2836 1778 
Q 2625 1972 2144 2069 
L 1759 2144 
Q 1053 2284 737 2584 
Q 422 2884 422 3419 
Q 422 4038 858 4394 
Q 1294 4750 2059 4750 
Q 2388 4750 2728 4690 
Q 3069 4631 3425 4513 
z
" transform="scale(0.015625)"/>
       <path id="DejaVuSans-6f" d="M 1959 3097 
Q 1497 3097 1228 2736 
Q 959 2375 959 1747 
Q 959 1119 1226 758 
Q 1494 397 1959 397 
Q 2419 397 2687 759 
Q 2956 1122 2956 1747 
Q 2956 2369 2687 2733 
Q 2419 3097 1959 3097 
z
M 1959 3584 
Q 2709 3584 3137 3096 
Q 3566 2609 3566 1747 
Q 3566 888 3137 398 
Q 2709 -91 1959 -91 
Q 1206 -91 779 398 
Q 353 888 353 1747 
Q 353 2609 779 3096 
Q 1206 3584 1959 3584 
z
" transform="scale(0.015625)"/>
      </defs>
      <use xlink:href="#DejaVuSans-53"/>
      <use xlink:href="#DejaVuSans-74" transform="translate(63.476562 0)"/>
      <use xlink:href="#DejaVuSans-72" transform="translate(102.685547 0)"/>
      <use xlink:href="#DejaVuSans-6f" transform="translate(141.548828 0)"/>
      <use xlink:href="#DejaVuSans-6d" transform="translate(202.730469 0)"/>
      <use xlink:href="#DejaVuSans-20" transform="translate(300.142578 0)"/>
      <use xlink:href="#DejaVuSans-49" transform="translate(331.929688 0)"/>
      <use xlink:href="#DejaVuSans-20" transform="translate(361.421875 0)"/>
      <use xlink:href="#DejaVuSans-5b" transform="translate(393.208984 0)"/>
      <use xlink:href="#DejaVuSans-41" transform="translate(432.222656 0)"/>
      <use xlink:href="#DejaVuSans-5d" transform="translate(500.630859 0)"/>
     </g>
    </g>
   </g>
   <g id="matplotlib.axis_4">
    <g id="ytick_9">
     <g id="line2d_61">
      <path d="M 516.781322 317.11613 
L 937.19952 317.11613 
" clip-path="url(#p79a3a0922e)" style="fill: none; stroke-dasharray: 2.96,1.28; stroke-dashoffset: 0; stroke: #b0b0b0; stroke-opacity: 0.3; stroke-width: 0.8"/>
     </g>
     <g id="line2d_62">
      <g>
       <use xlink:href="#mb973d5b93d" x="516.781322" y="317.11613" style="stroke: #000000; stroke-width: 0.8"/>
      </g>
     </g>
     <g id="text_35">
      <!-- 0.0 -->
      <g transform="translate(493.878197 320.915349) scale(0.1 -0.1)">
       <use xlink:href="#DejaVuSans-30"/>
       <use xlink:href="#DejaVuSans-2e" transform="translate(63.623047 0)"/>
       <use xlink:href="#DejaVuSans-30" transform="translate(95.410156 0)"/>
      </g>
     </g>
    </g>
    <g id="ytick_10">
     <g id="line2d_63">
      <path d="M 516.781322 272.813778 
L 937.19952 272.813778 
" clip-path="url(#p79a3a0922e)" style="fill: none; stroke-dasharray: 2.96,1.28; stroke-dashoffset: 0; stroke: #b0b0b0; stroke-opacity: 0.3; stroke-width: 0.8"/>
     </g>
     <g id="line2d_64">
      <g>
       <use xlink:href="#mb973d5b93d" x="516.781322" y="272.813778" style="stroke: #000000; stroke-width: 0.8"/>
      </g>
     </g>
     <g id="text_36">
      <!-- 0.5 -->
      <g transform="translate(493.878197 276.612997) scale(0.1 -0.1)">
       <use xlink:href="#DejaVuSans-30"/>
       <use xlink:href="#DejaVuSans-2e" transform="translate(63.623047 0)"/>
       <use xlink:href="#DejaVuSans-35" transform="translate(95.410156 0)"/>
      </g>
     </g>
    </g>
    <g id="ytick_11">
     <g id="line2d_65">
      <path d="M 516.781322 228.511427 
L 937.19952 228.511427 
" clip-path="url(#p79a3a0922e)" style="fill: none; stroke-dasharray: 2.96,1.28; stroke-dashoffset: 0; stroke: #b0b0b0; stroke-opacity: 0.3; stroke-width: 0.8"/>
     </g>
     <g id="line2d_66">
      <g>
       <use xlink:href="#mb973d5b93d" x="516.781322" y="228.511427" style="stroke: #000000; stroke-width: 0.8"/>
      </g>
     </g>
     <g id="text_37">
      <!-- 1.0 -->
      <g transform="translate(493.878197 232.310646) scale(0.1 -0.1)">
       <use xlink:href="#DejaVuSans-31"/>
       <use xlink:href="#DejaVuSans-2e" transform="translate(63.623047 0)"/>
       <use xlink:href="#DejaVuSans-30" transform="translate(95.410156 0)"/>
      </g>
     </g>
    </g>
    <g id="ytick_12">
     <g id="line2d_67">
      <path d="M 516.781322 184.209076 
L 937.19952 184.209076 
" clip-path="url(#p79a3a0922e)" style="fill: none; stroke-dasharray: 2.96,1.28; stroke-dashoffset: 0; stroke: #b0b0b0; stroke-opacity: 0.3; stroke-width: 0.8"/>
     </g>
     <g id="line2d_68">
      <g>
       <use xlink:href="#mb973d5b93d" x="516.781322" y="184.209076" style="stroke: #000000; stroke-width: 0.8"/>
      </g>
     </g>
     <g id="text_38">
      <!-- 1.5 -->
      <g transform="translate(493.878197 188.008294) scale(0.1 -0.1)">
       <use xlink:href="#DejaVuSans-31"/>
       <use xlink:href="#DejaVuSans-2e" transform="translate(63.623047 0)"/>
       <use xlink:href="#DejaVuSans-35" transform="translate(95.410156 0)"/>
      </g>
     </g>
    </g>
    <g id="ytick_13">
     <g id="line2d_69">
      <path d="M 516.781322 139.906724 
L 937.19952 139.906724 
" clip-path="url(#p79a3a0922e)" style="fill: none; stroke-dasharray: 2.96,1.28; stroke-dashoffset: 0; stroke: #b0b0b0; stroke-opacity: 0.3; stroke-width: 0.8"/>
     </g>
     <g id="line2d_70">
      <g>
       <use xlink:href="#mb973d5b93d" x="516.781322" y="139.906724" style="stroke: #000000; stroke-width: 0.8"/>
      </g>
     </g>
     <g id="text_39">
      <!-- 2.0 -->
      <g transform="translate(493.878197 143.705943) scale(0.1 -0.1)">
       <use xlink:href="#DejaVuSans-32"/>
       <use xlink:href="#DejaVuSans-2e" transform="translate(63.623047 0)"/>
       <use xlink:href="#DejaVuSans-30" transform="translate(95.410156 0)"/>
      </g>
     </g>
    </g>
    <g id="ytick_14">
     <g id="line2d_71">
      <path d="M 516.781322 95.604373 
L 937.19952 95.604373 
" clip-path="url(#p79a3a0922e)" style="fill: none; stroke-dasharray: 2.96,1.28; stroke-dashoffset: 0; stroke: #b0b0b0; stroke-opacity: 0.3; stroke-width: 0.8"/>
     </g>
     <g id="line2d_72">
      <g>
       <use xlink:href="#mb973d5b93d" x="516.781322" y="95.604373" style="stroke: #000000; stroke-width: 0.8"/>
      </g>
     </g>
     <g id="text_40">
      <!-- 2.5 -->
      <g transform="translate(493.878197 99.403592) scale(0.1 -0.1)">
       <use xlink:href="#DejaVuSans-32"/>
       <use xlink:href="#DejaVuSans-2e" transform="translate(63.623047 0)"/>
       <use xlink:href="#DejaVuSans-35" transform="translate(95.410156 0)"/>
      </g>
     </g>
    </g>
    <g id="ytick_15">
     <g id="line2d_73">
      <path d="M 516.781322 51.302022 
L 937.19952 51.302022 
" clip-path="url(#p79a3a0922e)" style="fill: none; stroke-dasharray: 2.96,1.28; stroke-dashoffset: 0; stroke: #b0b0b0; stroke-opacity: 0.3; stroke-width: 0.8"/>
     </g>
     <g id="line2d_74">
      <g>
       <use xlink:href="#mb973d5b93d" x="516.781322" y="51.302022" style="stroke: #000000; stroke-width: 0.8"/>
      </g>
     </g>
     <g id="text_41">
      <!-- 3.0 -->
      <g transform="translate(493.878197 55.10124) scale(0.1 -0.1)">
       <use xlink:href="#DejaVuSans-33"/>
       <use xlink:href="#DejaVuSans-2e" transform="translate(63.623047 0)"/>
       <use xlink:href="#DejaVuSans-30" transform="translate(95.410156 0)"/>
      </g>
     </g>
    </g>
    <g id="text_42">
     <!-- Wärmegeneration Q̇_gen [W] -->
     <g transform="translate(487.520385 257.761016) rotate(-90) scale(0.1 -0.1)">
      <defs>
       <path id="DejaVuSans-57" d="M 213 4666 
L 850 4666 
L 1831 722 
L 2809 4666 
L 3519 4666 
L 4500 722 
L 5478 4666 
L 6119 4666 
L 4947 0 
L 4153 0 
L 3169 4050 
L 2175 0 
L 1381 0 
L 213 4666 
z
" transform="scale(0.015625)"/>
       <path id="DejaVuSans-e4" d="M 2194 1759 
Q 1497 1759 1228 1600 
Q 959 1441 959 1056 
Q 959 750 1161 570 
Q 1363 391 1709 391 
Q 2188 391 2477 730 
Q 2766 1069 2766 1631 
L 2766 1759 
L 2194 1759 
z
M 3341 1997 
L 3341 0 
L 2766 0 
L 2766 531 
Q 2569 213 2275 61 
Q 1981 -91 1556 -91 
Q 1019 -91 701 211 
Q 384 513 384 1019 
Q 384 1609 779 1909 
Q 1175 2209 1959 2209 
L 2766 2209 
L 2766 2266 
Q 2766 2663 2505 2880 
Q 2244 3097 1772 3097 
Q 1472 3097 1187 3025 
Q 903 2953 641 2809 
L 641 3341 
Q 956 3463 1253 3523 
Q 1550 3584 1831 3584 
Q 2591 3584 2966 3190 
Q 3341 2797 3341 1997 
z
M 2150 4850 
L 2784 4850 
L 2784 4219 
L 2150 4219 
L 2150 4850 
z
M 928 4850 
L 1562 4850 
L 1562 4219 
L 928 4219 
L 928 4850 
z
" transform="scale(0.015625)"/>
       <path id="DejaVuSans-67" d="M 2906 1791 
Q 2906 2416 2648 2759 
Q 2391 3103 1925 3103 
Q 1463 3103 1205 2759 
Q 947 2416 947 1791 
Q 947 1169 1205 825 
Q 1463 481 1925 481 
Q 2391 481 2648 825 
Q 2906 1169 2906 1791 
z
M 3481 434 
Q 3481 -459 3084 -895 
Q 2688 -1331 1869 -1331 
Q 1566 -1331 1297 -1286 
Q 1028 -1241 775 -1147 
L 775 -588 
Q 1028 -725 1275 -790 
Q 1522 -856 1778 -856 
Q 2344 -856 2625 -561 
Q 2906 -266 2906 331 
L 2906 616 
Q 2728 306 2450 153 
Q 2172 0 1784 0 
Q 1141 0 747 490 
Q 353 981 353 1791 
Q 353 2603 747 3093 
Q 1141 3584 1784 3584 
Q 2172 3584 2450 3431 
Q 2728 3278 2906 2969 
L 2906 3500 
L 3481 3500 
L 3481 434 
z
" transform="scale(0.015625)"/>
       <path id="DejaVuSans-51" d="M 2522 4238 
Q 1834 4238 1429 3725 
Q 1025 3213 1025 2328 
Q 1025 1447 1429 934 
Q 1834 422 2522 422 
Q 3209 422 3611 934 
Q 4013 1447 4013 2328 
Q 4013 3213 3611 3725 
Q 3209 4238 2522 4238 
z
M 3406 84 
L 4238 -825 
L 3475 -825 
L 2784 -78 
Q 2681 -84 2626 -87 
Q 2572 -91 2522 -91 
Q 1538 -91 948 567 
Q 359 1225 359 2328 
Q 359 3434 948 4092 
Q 1538 4750 2522 4750 
Q 3503 4750 4090 4092 
Q 4678 3434 4678 2328 
Q 4678 1516 4351 937 
Q 4025 359 3406 84 
z
" transform="scale(0.015625)"/>
       <path id="DejaVuSans-307" d="M -1894 4863 
L -1319 4863 
L -1319 4134 
L -1894 4134 
L -1894 4863 
z
M -1600 3584 
L -1600 3584 
z
" transform="scale(0.015625)"/>
      </defs>
      <use xlink:href="#DejaVuSans-57"/>
      <use xlink:href="#DejaVuSans-e4" transform="translate(92.501953 0)"/>
      <use xlink:href="#DejaVuSans-72" transform="translate(153.78125 0)"/>
      <use xlink:href="#DejaVuSans-6d" transform="translate(193.144531 0)"/>
      <use xlink:href="#DejaVuSans-65" transform="translate(290.556641 0)"/>
      <use xlink:href="#DejaVuSans-67" transform="translate(352.080078 0)"/>
      <use xlink:href="#DejaVuSans-65" transform="translate(415.556641 0)"/>
      <use xlink:href="#DejaVuSans-6e" transform="translate(477.080078 0)"/>
      <use xlink:href="#DejaVuSans-65" transform="translate(540.458984 0)"/>
      <use xlink:href="#DejaVuSans-72" transform="translate(601.982422 0)"/>
      <use xlink:href="#DejaVuSans-61" transform="translate(643.095703 0)"/>
      <use xlink:href="#DejaVuSans-74" transform="translate(704.375 0)"/>
      <use xlink:href="#DejaVuSans-69" transform="translate(743.583984 0)"/>
      <use xlink:href="#DejaVuSans-6f" transform="translate(771.367188 0)"/>
      <use xlink:href="#DejaVuSans-6e" transform="translate(832.548828 0)"/>
      <use xlink:href="#DejaVuSans-20" transform="translate(895.927734 0)"/>
      <use xlink:href="#DejaVuSans-51" transform="translate(927.714844 0)"/>
      <use xlink:href="#DejaVuSans-307" transform="translate(1006.425781 0)"/>
      <use xlink:href="#DejaVuSans-5f" transform="translate(1006.425781 0)"/>
      <use xlink:href="#DejaVuSans-67" transform="translate(1056.425781 0)"/>
      <use xlink:href="#DejaVuSans-65" transform="translate(1119.902344 0)"/>
      <use xlink:href="#DejaVuSans-6e" transform="translate(1181.425781 0)"/>
      <use xlink:href="#DejaVuSans-20" transform="translate(1244.804688 0)"/>
      <use xlink:href="#DejaVuSans-5b" transform="translate(1276.591797 0)"/>
      <use xlink:href="#DejaVuSans-57" transform="translate(1315.605469 0)"/>
      <use xlink:href="#DejaVuSans-5d" transform="translate(1414.482422 0)"/>
     </g>
    </g>
   </g>
   <g id="line2d_75">
    <path d="M 535.891241 317.11613 
L 543.560773 317.383164 
L 551.230305 317.421849 
L 558.899838 317.232188 
L 566.56937 316.814178 
L 574.238902 316.16782 
L 581.908435 315.293115 
L 589.577967 314.190062 
L 597.247499 312.858661 
L 604.917032 311.298912 
L 612.586564 309.510815 
L 620.256096 307.494371 
L 627.925629 305.249579 
L 635.595161 302.776439 
L 643.264693 300.074951 
L 650.934226 297.145115 
L 658.603758 293.986931 
L 666.27329 290.6004 
L 673.942823 286.985521 
L 681.612355 283.142294 
L 689.281887 279.070719 
L 696.95142 274.770796 
L 704.620952 270.242526 
L 712.290484 265.485907 
L 719.960017 260.500941 
L 728.907804 254.396541 
L 737.855592 247.981334 
L 746.80338 241.255321 
L 755.751168 234.2185 
L 764.698955 226.870873 
L 773.646743 219.212439 
L 782.594531 211.243199 
L 791.542318 202.963151 
L 800.490106 194.372297 
L 809.437894 185.470636 
L 818.385682 176.258169 
L 827.333469 166.734894 
L 836.281257 156.900813 
L 845.229045 146.755925 
L 854.176832 136.300231 
L 863.12462 125.533729 
L 872.072408 114.456421 
L 882.298451 101.41606 
L 892.524494 87.969748 
L 902.750537 74.117484 
L 912.97658 59.859269 
L 918.089602 52.577929 
L 918.089602 52.577929 
" clip-path="url(#p79a3a0922e)" style="fill: none; stroke: #1f77b4; stroke-width: 1.5; stroke-linecap: square"/>
   </g>
   <g id="line2d_76">
    <path d="M 535.891241 317.11613 
L 543.560773 317.4045 
L 551.230305 317.464522 
L 558.899838 317.296196 
L 566.56937 316.899523 
L 574.238902 316.274502 
L 581.908435 315.421132 
L 589.577967 314.339416 
L 597.247499 313.029351 
L 604.917032 311.490938 
L 612.586564 309.724178 
L 620.256096 307.72907 
L 627.925629 305.505614 
L 635.595161 303.05381 
L 643.264693 300.373658 
L 650.934226 297.465159 
L 658.603758 294.328311 
L 666.27329 290.963116 
L 673.942823 287.369573 
L 681.612355 283.547682 
L 689.281887 279.497444 
L 696.95142 275.218857 
L 704.620952 270.711923 
L 712.290484 265.976641 
L 719.960017 261.013011 
L 728.907804 254.933503 
L 737.855592 248.543189 
L 746.80338 241.842068 
L 755.751168 234.83014 
L 764.698955 227.507405 
L 773.646743 219.873863 
L 782.594531 211.929515 
L 791.542318 203.67436 
L 800.490106 195.108398 
L 809.437894 186.231629 
L 818.385682 177.044054 
L 827.333469 167.545672 
L 836.281257 157.736483 
L 845.229045 147.616487 
L 854.176832 137.185685 
L 863.12462 126.444076 
L 872.072408 115.39166 
L 882.298451 102.379748 
L 892.524494 88.961884 
L 902.750537 75.138068 
L 912.97658 60.908301 
L 918.089602 53.641186 
L 918.089602 53.641186 
" clip-path="url(#p79a3a0922e)" style="fill: none; stroke: #ff7f0e; stroke-width: 1.5; stroke-linecap: square"/>
   </g>
   <g id="line2d_77">
    <path d="M 535.891241 317.11613 
L 543.560773 317.425836 
L 551.230305 317.507194 
L 558.899838 317.360205 
L 566.56937 316.984868 
L 574.238902 316.381183 
L 581.908435 315.54915 
L 589.577967 314.488769 
L 597.247499 313.200041 
L 604.917032 311.682964 
L 612.586564 309.93754 
L 620.256096 307.963768 
L 627.925629 305.761649 
L 635.595161 303.331181 
L 643.264693 300.672366 
L 650.934226 297.785202 
L 658.603758 294.669691 
L 666.27329 291.325832 
L 673.942823 287.753626 
L 681.612355 283.953071 
L 689.281887 279.924169 
L 696.95142 275.666919 
L 704.620952 271.181321 
L 712.290484 266.467375 
L 719.960017 261.525081 
L 728.907804 255.470466 
L 737.855592 249.105043 
L 746.80338 242.428814 
L 755.751168 235.441779 
L 764.698955 228.143936 
L 773.646743 220.535287 
L 782.594531 212.615831 
L 791.542318 204.385568 
L 800.490106 195.844498 
L 809.437894 186.992622 
L 818.385682 177.829939 
L 827.333469 168.356449 
L 836.281257 158.572153 
L 845.229045 148.477049 
L 854.176832 138.071139 
L 863.12462 127.354422 
L 872.072408 116.326899 
L 882.298451 103.343435 
L 892.524494 89.954019 
L 902.750537 76.158652 
L 912.97658 61.957333 
L 918.089602 54.704442 
L 918.089602 54.704442 
" clip-path="url(#p79a3a0922e)" style="fill: none; stroke: #2ca02c; stroke-width: 1.5; stroke-linecap: square"/>
   </g>
   <g id="line2d_78">
    <path d="M 535.891241 317.11613 
L 543.560773 317.447172 
L 551.230305 317.549867 
L 558.899838 317.424214 
L 566.56937 317.070213 
L 574.238902 316.487864 
L 581.908435 315.677167 
L 589.577967 314.638123 
L 597.247499 313.370731 
L 604.917032 311.874991 
L 612.586564 310.150903 
L 620.256096 308.198467 
L 627.925629 306.017684 
L 635.595161 303.608552 
L 643.264693 300.971073 
L 650.934226 298.105246 
L 658.603758 295.011071 
L 666.27329 291.688549 
L 673.942823 288.137678 
L 681.612355 284.35846 
L 689.281887 280.350894 
L 696.95142 276.11498 
L 704.620952 271.650718 
L 712.290484 266.958109 
L 719.960017 262.037151 
L 727.629549 256.887846 
L 736.577337 250.591717 
L 745.525124 243.984781 
L 754.472912 237.067039 
L 763.4207 229.838489 
L 772.368488 222.299133 
L 781.316275 214.448971 
L 790.264063 206.288001 
L 799.211851 197.816225 
L 808.159638 189.033642 
L 817.107426 179.940252 
L 826.055214 170.536055 
L 835.003002 160.821052 
L 843.950789 150.795242 
L 852.898577 140.458625 
L 861.846365 129.811202 
L 870.794153 118.852971 
L 879.74194 107.583934 
L 889.967983 94.324455 
L 900.194026 80.659024 
L 910.42007 66.587641 
L 918.089602 55.767699 
L 918.089602 55.767699 
" clip-path="url(#p79a3a0922e)" style="fill: none; stroke: #d62728; stroke-width: 1.5; stroke-linecap: square"/>
   </g>
   <g id="line2d_79">
    <path d="M 535.891241 317.11613 
L 543.560773 317.468509 
L 551.230305 317.592539 
L 558.899838 317.488223 
L 566.56937 317.155558 
L 574.238902 316.594545 
L 581.908435 315.805185 
L 589.577967 314.787477 
L 597.247499 313.541421 
L 604.917032 312.067017 
L 612.586564 310.364265 
L 620.256096 308.433166 
L 627.925629 306.273719 
L 635.595161 303.885923 
L 643.264693 301.269781 
L 650.934226 298.42529 
L 658.603758 295.352451 
L 666.27329 292.051265 
L 673.942823 288.521731 
L 681.612355 284.763849 
L 689.281887 280.777619 
L 696.95142 276.563041 
L 704.620952 272.120116 
L 712.290484 267.448842 
L 719.960017 262.549221 
L 727.629549 257.421252 
L 736.577337 251.150016 
L 745.525124 244.567972 
L 754.472912 237.675122 
L 763.4207 230.471465 
L 772.368488 222.957001 
L 781.316275 215.131731 
L 790.264063 206.995653 
L 799.211851 198.548769 
L 808.159638 189.791079 
L 817.107426 180.722581 
L 826.055214 171.343277 
L 835.003002 161.653166 
L 843.950789 151.652248 
L 852.898577 141.340523 
L 861.846365 130.717992 
L 870.794153 119.784654 
L 879.74194 108.540509 
L 889.967983 95.309478 
L 900.194026 81.672496 
L 910.42007 67.629561 
L 918.089602 56.830955 
L 918.089602 56.830955 
" clip-path="url(#p79a3a0922e)" style="fill: none; stroke: #9467bd; stroke-width: 1.5; stroke-linecap: square"/>
   </g>
   <g id="patch_7">
    <path d="M 516.781322 330.84327 
L 516.781322 39.327199 
" style="fill: none; stroke: #000000; stroke-width: 0.8; stroke-linejoin: miter; stroke-linecap: square"/>
   </g>
   <g id="patch_8">
    <path d="M 516.781322 330.84327 
L 937.19952 330.84327 
" style="fill: none; stroke: #000000; stroke-width: 0.8; stroke-linejoin: miter; stroke-linecap: square"/>
   </g>
   <g id="text_43">
    <!-- Wärmegeneration Q̇(I) bei verschiedenen Temperaturen -->
    <g transform="translate(553.531593 33.327199) scale(0.11 -0.11)">
     <defs>
      <path id="DejaVuSans-Bold-57" d="M 191 4666 
L 1344 4666 
L 2150 1275 
L 2950 4666 
L 4109 4666 
L 4909 1275 
L 5716 4666 
L 6859 4666 
L 5759 0 
L 4372 0 
L 3525 3547 
L 2688 0 
L 1300 0 
L 191 4666 
z
" transform="scale(0.015625)"/>
      <path id="DejaVuSans-Bold-e4" d="M 2106 1575 
Q 1756 1575 1579 1456 
Q 1403 1338 1403 1106 
Q 1403 894 1545 773 
Q 1688 653 1941 653 
Q 2256 653 2472 879 
Q 2688 1106 2688 1447 
L 2688 1575 
L 2106 1575 
z
M 3816 1997 
L 3816 0 
L 2688 0 
L 2688 519 
Q 2463 200 2181 54 
Q 1900 -91 1497 -91 
Q 953 -91 614 226 
Q 275 544 275 1050 
Q 275 1666 698 1953 
Q 1122 2241 2028 2241 
L 2688 2241 
L 2688 2328 
Q 2688 2594 2478 2717 
Q 2269 2841 1825 2841 
Q 1466 2841 1156 2769 
Q 847 2697 581 2553 
L 581 3406 
Q 941 3494 1303 3539 
Q 1666 3584 2028 3584 
Q 2975 3584 3395 3211 
Q 3816 2838 3816 1997 
z
M 1200 4953 
L 1934 4953 
L 1934 4184 
L 1200 4184 
L 1200 4953 
z
M 2434 4953 
L 3168 4953 
L 3168 4184 
L 2434 4184 
L 2434 4953 
z
" transform="scale(0.015625)"/>
      <path id="DejaVuSans-Bold-67" d="M 2919 594 
Q 2688 288 2409 144 
Q 2131 0 1766 0 
Q 1125 0 706 504 
Q 288 1009 288 1791 
Q 288 2575 706 3076 
Q 1125 3578 1766 3578 
Q 2131 3578 2409 3434 
Q 2688 3291 2919 2981 
L 2919 3500 
L 4044 3500 
L 4044 353 
Q 4044 -491 3511 -936 
Q 2978 -1381 1966 -1381 
Q 1638 -1381 1331 -1331 
Q 1025 -1281 716 -1178 
L 716 -306 
Q 1009 -475 1290 -558 
Q 1572 -641 1856 -641 
Q 2406 -641 2662 -400 
Q 2919 -159 2919 353 
L 2919 594 
z
M 2181 2772 
Q 1834 2772 1640 2515 
Q 1447 2259 1447 1791 
Q 1447 1309 1634 1061 
Q 1822 813 2181 813 
Q 2531 813 2725 1069 
Q 2919 1325 2919 1791 
Q 2919 2259 2725 2515 
Q 2531 2772 2181 2772 
z
" transform="scale(0.015625)"/>
      <path id="DejaVuSans-Bold-51" d="M 2847 -84 
L 2753 -84 
Q 1600 -84 959 553 
Q 319 1191 319 2328 
Q 319 3463 958 4106 
Q 1597 4750 2719 4750 
Q 3853 4750 4486 4112 
Q 5119 3475 5119 2328 
Q 5119 1541 4783 972 
Q 4447 403 3816 116 
L 4756 -934 
L 3609 -934 
L 2847 -84 
z
M 2719 3878 
Q 2169 3878 1866 3472 
Q 1563 3066 1563 2328 
Q 1563 1578 1859 1179 
Q 2156 781 2719 781 
Q 3272 781 3575 1187 
Q 3878 1594 3878 2328 
Q 3878 3066 3575 3472 
Q 3272 3878 2719 3878 
z
" transform="scale(0.015625)"/>
      <path id="DejaVuSans-Bold-307" d="M -2166 4863 
L -1047 4863 
L -1047 3950 
L -2166 3950 
L -2166 4863 
z
" transform="scale(0.015625)"/>
      <path id="DejaVuSans-Bold-49" d="M 588 4666 
L 1791 4666 
L 1791 0 
L 588 0 
L 588 4666 
z
" transform="scale(0.015625)"/>
      <path id="DejaVuSans-Bold-63" d="M 3366 3391 
L 3366 2478 
Q 3138 2634 2908 2709 
Q 2678 2784 2431 2784 
Q 1963 2784 1702 2511 
Q 1441 2238 1441 1747 
Q 1441 1256 1702 982 
Q 1963 709 2431 709 
Q 2694 709 2930 787 
Q 3166 866 3366 1019 
L 3366 103 
Q 3103 6 2833 -42 
Q 2563 -91 2291 -91 
Q 1344 -91 809 395 
Q 275 881 275 1747 
Q 275 2613 809 3098 
Q 1344 3584 2291 3584 
Q 2566 3584 2833 3536 
Q 3100 3488 3366 3391 
z
" transform="scale(0.015625)"/>
      <path id="DejaVuSans-Bold-64" d="M 2919 2988 
L 2919 4863 
L 4044 4863 
L 4044 0 
L 2919 0 
L 2919 506 
Q 2688 197 2409 53 
Q 2131 -91 1766 -91 
Q 1119 -91 703 423 
Q 288 938 288 1747 
Q 288 2556 703 3070 
Q 1119 3584 1766 3584 
Q 2128 3584 2408 3439 
Q 2688 3294 2919 2988 
z
M 2181 722 
Q 2541 722 2730 984 
Q 2919 1247 2919 1747 
Q 2919 2247 2730 2509 
Q 2541 2772 2181 2772 
Q 1825 2772 1636 2509 
Q 1447 2247 1447 1747 
Q 1447 1247 1636 984 
Q 1825 722 2181 722 
z
" transform="scale(0.015625)"/>
     </defs>
     <use xlink:href="#DejaVuSans-Bold-57"/>
     <use xlink:href="#DejaVuSans-Bold-e4" transform="translate(106.677734 0)"/>
     <use xlink:href="#DejaVuSans-Bold-72" transform="translate(174.158203 0)"/>
     <use xlink:href="#DejaVuSans-Bold-6d" transform="translate(223.474609 0)"/>
     <use xlink:href="#DejaVuSans-Bold-65" transform="translate(327.673828 0)"/>
     <use xlink:href="#DejaVuSans-Bold-67" transform="translate(395.496094 0)"/>
     <use xlink:href="#DejaVuSans-Bold-65" transform="translate(467.078125 0)"/>
     <use xlink:href="#DejaVuSans-Bold-6e" transform="translate(534.900391 0)"/>
     <use xlink:href="#DejaVuSans-Bold-65" transform="translate(606.091797 0)"/>
     <use xlink:href="#DejaVuSans-Bold-72" transform="translate(673.914062 0)"/>
     <use xlink:href="#DejaVuSans-Bold-61" transform="translate(723.230469 0)"/>
     <use xlink:href="#DejaVuSans-Bold-74" transform="translate(790.710938 0)"/>
     <use xlink:href="#DejaVuSans-Bold-69" transform="translate(838.513672 0)"/>
     <use xlink:href="#DejaVuSans-Bold-6f" transform="translate(872.791016 0)"/>
     <use xlink:href="#DejaVuSans-Bold-6e" transform="translate(941.492188 0)"/>
     <use xlink:href="#DejaVuSans-Bold-20" transform="translate(1012.683594 0)"/>
     <use xlink:href="#DejaVuSans-Bold-51" transform="translate(1047.498047 0)"/>
     <use xlink:href="#DejaVuSans-Bold-307" transform="translate(1132.507812 0)"/>
     <use xlink:href="#DejaVuSans-Bold-28" transform="translate(1132.507812 0)"/>
     <use xlink:href="#DejaVuSans-Bold-49" transform="translate(1178.210938 0)"/>
     <use xlink:href="#DejaVuSans-Bold-29" transform="translate(1215.417969 0)"/>
     <use xlink:href="#DejaVuSans-Bold-20" transform="translate(1261.121094 0)"/>
     <use xlink:href="#DejaVuSans-Bold-62" transform="translate(1295.935547 0)"/>
     <use xlink:href="#DejaVuSans-Bold-65" transform="translate(1367.517578 0)"/>
     <use xlink:href="#DejaVuSans-Bold-69" transform="translate(1435.339844 0)"/>
     <use xlink:href="#DejaVuSans-Bold-20" transform="translate(1469.617188 0)"/>
     <use xlink:href="#DejaVuSans-Bold-76" transform="translate(1504.431641 0)"/>
     <use xlink:href="#DejaVuSans-Bold-65" transform="translate(1569.617188 0)"/>
     <use xlink:href="#DejaVuSans-Bold-72" transform="translate(1637.439453 0)"/>
     <use xlink:href="#DejaVuSans-Bold-73" transform="translate(1686.755859 0)"/>
     <use xlink:href="#DejaVuSans-Bold-63" transform="translate(1746.277344 0)"/>
     <use xlink:href="#DejaVuSans-Bold-68" transform="translate(1805.554688 0)"/>
     <use xlink:href="#DejaVuSans-Bold-69" transform="translate(1876.746094 0)"/>
     <use xlink:href="#DejaVuSans-Bold-65" transform="translate(1911.023438 0)"/>
     <use xlink:href="#DejaVuSans-Bold-64" transform="translate(1978.845703 0)"/>
     <use xlink:href="#DejaVuSans-Bold-65" transform="translate(2050.427734 0)"/>
     <use xlink:href="#DejaVuSans-Bold-6e" transform="translate(2118.25 0)"/>
     <use xlink:href="#DejaVuSans-Bold-65" transform="translate(2189.441406 0)"/>
     <use xlink:href="#DejaVuSans-Bold-6e" transform="translate(2257.263672 0)"/>
     <use xlink:href="#DejaVuSans-Bold-20" transform="translate(2328.455078 0)"/>
     <use xlink:href="#DejaVuSans-Bold-54" transform="translate(2363.269531 0)"/>
     <use xlink:href="#DejaVuSans-Bold-65" transform="translate(2418.232422 0)"/>
     <use xlink:href="#DejaVuSans-Bold-6d" transform="translate(2486.054688 0)"/>
     <use xlink:href="#DejaVuSans-Bold-70" transform="translate(2590.253906 0)"/>
     <use xlink:href="#DejaVuSans-Bold-65" transform="translate(2661.835938 0)"/>
     <use xlink:href="#DejaVuSans-Bold-72" transform="translate(2729.658203 0)"/>
     <use xlink:href="#DejaVuSans-Bold-61" transform="translate(2778.974609 0)"/>
     <use xlink:href="#DejaVuSans-Bold-74" transform="translate(2846.455078 0)"/>
     <use xlink:href="#DejaVuSans-Bold-75" transform="translate(2894.257812 0)"/>
     <use xlink:href="#DejaVuSans-Bold-72" transform="translate(2965.449219 0)"/>
     <use xlink:href="#DejaVuSans-Bold-65" transform="translate(3014.765625 0)"/>
     <use xlink:href="#DejaVuSans-Bold-6e" transform="translate(3082.587891 0)"/>
    </g>
   </g>
   <g id="legend_2">
    <g id="patch_9">
     <path d="M 523.081322 112.578761 
L 595.738041 112.578761 
Q 597.538041 112.578761 597.538041 110.778761 
L 597.538041 45.627199 
Q 597.538041 43.827199 595.738041 43.827199 
L 523.081322 43.827199 
Q 521.281322 43.827199 521.281322 45.627199 
L 521.281322 110.778761 
Q 521.281322 112.578761 523.081322 112.578761 
z
" style="fill: #ffffff; opacity: 0.85; stroke: #cccccc; stroke-linejoin: miter"/>
    </g>
    <g id="line2d_80">
     <path d="M 524.881323 51.115792 
L 533.881323 51.115792 
L 542.881323 51.115792 
" style="fill: none; stroke: #1f77b4; stroke-width: 1.5; stroke-linecap: square"/>
    </g>
    <g id="text_44">
     <!-- T = -5 °C -->
     <g transform="translate(550.081323 54.265792) scale(0.09 -0.09)">
      <defs>
       <path id="DejaVuSans-2d" d="M 313 2009 
L 1997 2009 
L 1997 1497 
L 313 1497 
L 313 2009 
z
" transform="scale(0.015625)"/>
      </defs>
      <use xlink:href="#DejaVuSans-54"/>
      <use xlink:href="#DejaVuSans-20" transform="translate(61.083984 0)"/>
      <use xlink:href="#DejaVuSans-3d" transform="translate(92.871094 0)"/>
      <use xlink:href="#DejaVuSans-20" transform="translate(176.660156 0)"/>
      <use xlink:href="#DejaVuSans-2d" transform="translate(208.447266 0)"/>
      <use xlink:href="#DejaVuSans-35" transform="translate(244.53125 0)"/>
      <use xlink:href="#DejaVuSans-20" transform="translate(308.154297 0)"/>
      <use xlink:href="#DejaVuSans-b0" transform="translate(339.941406 0)"/>
      <use xlink:href="#DejaVuSans-43" transform="translate(389.941406 0)"/>
     </g>
    </g>
    <g id="line2d_81">
     <path d="M 524.881323 64.326105 
L 533.881323 64.326105 
L 542.881323 64.326105 
" style="fill: none; stroke: #ff7f0e; stroke-width: 1.5; stroke-linecap: square"/>
    </g>
    <g id="text_45">
     <!-- T = 10 °C -->
     <g transform="translate(550.081323 67.476105) scale(0.09 -0.09)">
      <use xlink:href="#DejaVuSans-54"/>
      <use xlink:href="#DejaVuSans-20" transform="translate(61.083984 0)"/>
      <use xlink:href="#DejaVuSans-3d" transform="translate(92.871094 0)"/>
      <use xlink:href="#DejaVuSans-20" transform="translate(176.660156 0)"/>
      <use xlink:href="#DejaVuSans-31" transform="translate(208.447266 0)"/>
      <use xlink:href="#DejaVuSans-30" transform="translate(272.070312 0)"/>
      <use xlink:href="#DejaVuSans-20" transform="translate(335.693359 0)"/>
      <use xlink:href="#DejaVuSans-b0" transform="translate(367.480469 0)"/>
      <use xlink:href="#DejaVuSans-43" transform="translate(417.480469 0)"/>
     </g>
    </g>
    <g id="line2d_82">
     <path d="M 524.881323 77.536417 
L 533.881323 77.536417 
L 542.881323 77.536417 
" style="fill: none; stroke: #2ca02c; stroke-width: 1.5; stroke-linecap: square"/>
    </g>
    <g id="text_46">
     <!-- T = 25 °C -->
     <g transform="translate(550.081323 80.686417) scale(0.09 -0.09)">
      <use xlink:href="#DejaVuSans-54"/>
      <use xlink:href="#DejaVuSans-20" transform="translate(61.083984 0)"/>
      <use xlink:href="#DejaVuSans-3d" transform="translate(92.871094 0)"/>
      <use xlink:href="#DejaVuSans-20" transform="translate(176.660156 0)"/>
      <use xlink:href="#DejaVuSans-32" transform="translate(208.447266 0)"/>
      <use xlink:href="#DejaVuSans-35" transform="translate(272.070312 0)"/>
      <use xlink:href="#DejaVuSans-20" transform="translate(335.693359 0)"/>
      <use xlink:href="#DejaVuSans-b0" transform="translate(367.480469 0)"/>
      <use xlink:href="#DejaVuSans-43" transform="translate(417.480469 0)"/>
     </g>
    </g>
    <g id="line2d_83">
     <path d="M 524.881323 90.74673 
L 533.881323 90.74673 
L 542.881323 90.74673 
" style="fill: none; stroke: #d62728; stroke-width: 1.5; stroke-linecap: square"/>
    </g>
    <g id="text_47">
     <!-- T = 40 °C -->
     <g transform="translate(550.081323 93.89673) scale(0.09 -0.09)">
      <use xlink:href="#DejaVuSans-54"/>
      <use xlink:href="#DejaVuSans-20" transform="translate(61.083984 0)"/>
      <use xlink:href="#DejaVuSans-3d" transform="translate(92.871094 0)"/>
      <use xlink:href="#DejaVuSans-20" transform="translate(176.660156 0)"/>
      <use xlink:href="#DejaVuSans-34" transform="translate(208.447266 0)"/>
      <use xlink:href="#DejaVuSans-30" transform="translate(272.070312 0)"/>
      <use xlink:href="#DejaVuSans-20" transform="translate(335.693359 0)"/>
      <use xlink:href="#DejaVuSans-b0" transform="translate(367.480469 0)"/>
      <use xlink:href="#DejaVuSans-43" transform="translate(417.480469 0)"/>
     </g>
    </g>
    <g id="line2d_84">
     <path d="M 524.881323 103.957042 
L 533.881323 103.957042 
L 542.881323 103.957042 
" style="fill: none; stroke: #9467bd; stroke-width: 1.5; stroke-linecap: square"/>
    </g>
    <g id="text_48">
     <!-- T = 55 °C -->
     <g transform="translate(550.081323 107.107042) scale(0.09 -0.09)">
      <use xlink:href="#DejaVuSans-54"/>
      <use xlink:href="#DejaVuSans-20" transform="translate(61.083984 0)"/>
      <use xlink:href="#DejaVuSans-3d" transform="translate(92.871094 0)"/>
      <use xlink:href="#DejaVuSans-20" transform="translate(176.660156 0)"/>
      <use xlink:href="#DejaVuSans-35" transform="translate(208.447266 0)"/>
      <use xlink:href="#DejaVuSans-35" transform="translate(272.070312 0)"/>
      <use xlink:href="#DejaVuSans-20" transform="translate(335.693359 0)"/>
      <use xlink:href="#DejaVuSans-b0" transform="translate(367.480469 0)"/>
      <use xlink:href="#DejaVuSans-43" transform="translate(417.480469 0)"/>
     </g>
    </g>
   </g>
  </g>
  <g id="text_49">
   <!-- Exp 03 – Thermisches Zellmodell -->
   <g transform="translate(362.10351 16.318125) scale(0.12 -0.12)">
    <defs>
     <path id="DejaVuSans-Bold-45" d="M 588 4666 
L 3834 4666 
L 3834 3756 
L 1791 3756 
L 1791 2888 
L 3713 2888 
L 3713 1978 
L 1791 1978 
L 1791 909 
L 3903 909 
L 3903 0 
L 588 0 
L 588 4666 
z
" transform="scale(0.015625)"/>
     <path id="DejaVuSans-Bold-78" d="M 1422 1791 
L 159 3500 
L 1344 3500 
L 2059 2463 
L 2784 3500 
L 3969 3500 
L 2706 1797 
L 4031 0 
L 2847 0 
L 2059 1106 
L 1281 0 
L 97 0 
L 1422 1791 
z
" transform="scale(0.015625)"/>
     <path id="DejaVuSans-Bold-30" d="M 2944 2338 
Q 2944 3213 2780 3570 
Q 2616 3928 2228 3928 
Q 1841 3928 1675 3570 
Q 1509 3213 1509 2338 
Q 1509 1453 1675 1090 
Q 1841 728 2228 728 
Q 2613 728 2778 1090 
Q 2944 1453 2944 2338 
z
M 4147 2328 
Q 4147 1169 3647 539 
Q 3147 -91 2228 -91 
Q 1306 -91 806 539 
Q 306 1169 306 2328 
Q 306 3491 806 4120 
Q 1306 4750 2228 4750 
Q 3147 4750 3647 4120 
Q 4147 3491 4147 2328 
z
" transform="scale(0.015625)"/>
     <path id="DejaVuSans-Bold-33" d="M 2981 2516 
Q 3453 2394 3698 2092 
Q 3944 1791 3944 1325 
Q 3944 631 3412 270 
Q 2881 -91 1863 -91 
Q 1503 -91 1142 -33 
Q 781 25 428 141 
L 428 1069 
Q 766 900 1098 814 
Q 1431 728 1753 728 
Q 2231 728 2486 893 
Q 2741 1059 2741 1369 
Q 2741 1688 2480 1852 
Q 2219 2016 1709 2016 
L 1228 2016 
L 1228 2791 
L 1734 2791 
Q 2188 2791 2409 2933 
Q 2631 3075 2631 3366 
Q 2631 3634 2415 3781 
Q 2200 3928 1806 3928 
Q 1516 3928 1219 3862 
Q 922 3797 628 3669 
L 628 4550 
Q 984 4650 1334 4700 
Q 1684 4750 2022 4750 
Q 2931 4750 3382 4451 
Q 3834 4153 3834 3553 
Q 3834 3144 3618 2883 
Q 3403 2622 2981 2516 
z
" transform="scale(0.015625)"/>
     <path id="DejaVuSans-Bold-2013" d="M 344 2156 
L 2856 2156 
L 2856 1350 
L 344 1350 
L 344 2156 
z
" transform="scale(0.015625)"/>
     <path id="DejaVuSans-Bold-5a" d="M 359 4666 
L 4281 4666 
L 4281 3938 
L 1778 909 
L 4353 909 
L 4353 0 
L 288 0 
L 288 728 
L 2791 3756 
L 359 3756 
L 359 4666 
z
" transform="scale(0.015625)"/>
    </defs>
    <use xlink:href="#DejaVuSans-Bold-45"/>
    <use xlink:href="#DejaVuSans-Bold-78" transform="translate(68.310547 0)"/>
    <use xlink:href="#DejaVuSans-Bold-70" transform="translate(132.8125 0)"/>
    <use xlink:href="#DejaVuSans-Bold-20" transform="translate(204.394531 0)"/>
    <use xlink:href="#DejaVuSans-Bold-30" transform="translate(239.208984 0)"/>
    <use xlink:href="#DejaVuSans-Bold-33" transform="translate(308.789062 0)"/>
    <use xlink:href="#DejaVuSans-Bold-20" transform="translate(378.369141 0)"/>
    <use xlink:href="#DejaVuSans-Bold-2013" transform="translate(413.183594 0)"/>
    <use xlink:href="#DejaVuSans-Bold-20" transform="translate(463.183594 0)"/>
    <use xlink:href="#DejaVuSans-Bold-54" transform="translate(497.998047 0)"/>
    <use xlink:href="#DejaVuSans-Bold-68" transform="translate(566.210938 0)"/>
    <use xlink:href="#DejaVuSans-Bold-65" transform="translate(637.402344 0)"/>
    <use xlink:href="#DejaVuSans-Bold-72" transform="translate(705.224609 0)"/>
    <use xlink:href="#DejaVuSans-Bold-6d" transform="translate(754.541016 0)"/>
    <use xlink:href="#DejaVuSans-Bold-69" transform="translate(858.740234 0)"/>
    <use xlink:href="#DejaVuSans-Bold-73" transform="translate(893.017578 0)"/>
    <use xlink:href="#DejaVuSans-Bold-63" transform="translate(952.539062 0)"/>
    <use xlink:href="#DejaVuSans-Bold-68" transform="translate(1011.816406 0)"/>
    <use xlink:href="#DejaVuSans-Bold-65" transform="translate(1083.007812 0)"/>
    <use xlink:href="#DejaVuSans-Bold-73" transform="translate(1150.830078 0)"/>
    <use xlink:href="#DejaVuSans-Bold-20" transform="translate(1210.351562 0)"/>
    <use xlink:href="#DejaVuSans-Bold-5a" transform="translate(1245.166016 0)"/>
    <use xlink:href="#DejaVuSans-Bold-65" transform="translate(1317.675781 0)"/>
    <use xlink:href="#DejaVuSans-Bold-6c" transform="translate(1385.498047 0)"/>
    <use xlink:href="#DejaVuSans-Bold-6c" transform="translate(1419.775391 0)"/>
    <use xlink:href="#DejaVuSans-Bold-6d" transform="translate(1454.052734 0)"/>
    <use xlink:href="#DejaVuSans-Bold-6f" transform="translate(1558.251953 0)"/>
    <use xlink:href="#DejaVuSans-Bold-64" transform="translate(1626.953125 0)"/>
    <use xlink:href="#DejaVuSans-Bold-65" transform="translate(1698.535156 0)"/>
    <use xlink:href="#DejaVuSans-Bold-6c" transform="translate(1766.357422 0)"/>
    <use xlink:href="#DejaVuSans-Bold-6c" transform="translate(1800.634766 0)"/>
   </g>
  </g>
 </g>
 <defs>
  <clipPath id="p407bbdeb68">
   <rect x="50.14375" y="39.327199" width="420.418198" height="291.516071"/>
  </clipPath>
  <clipPath id="p79a3a0922e">
   <rect x="516.781322" y="39.327199" width="420.418197" height="291.516071"/>
  </clipPath>
 </defs>
</svg>
