<?xml version="1.0" encoding="utf-8" standalone="no"?>
<!DOCTYPE svg PUBLIC "-//W3C//DTD SVG 1.1//EN"
  "http://www.w3.org/Graphics/SVG/1.1/DTD/svg11.dtd">
<svg xmlns:xlink="http://www.w3.org/1999/xlink" width="944.39952pt" height="368.39952pt" viewBox="0 0 944.39952 368.39952" xmlns="http://www.w3.org/2000/svg" version="1.1">
 <metadata>
  <rdf:RDF xmlns:dc="http://purl.org/dc/elements/1.1/" xmlns:cc="http://creativecommons.org/ns#" xmlns:rdf="http://www.w3.org/1999/02/22-rdf-syntax-ns#">
   <cc:Work>
    <dc:type rdf:resource="http://purl.org/dc/dcmitype/StillImage"/>
    <dc:date>2026-03-08T05:20:59.010582</dc:date>
    <dc:format>image/svg+xml</dc:format>
    <dc:creator>
     <cc:Agent>
      <dc:title>Matplotlib v3.10.8, https://matplotlib.org/</dc:title>
     </cc:Agent>
    </dc:creator>
   </cc:Work>
  </rdf:RDF>
 </metadata>
 <defs>
  <style type="text/css">*{stroke-linejoin: round; stroke-linecap: butt}</style>
 </defs>
 <g id="figure_1">
  <g id="patch_1">
   <path d="M 0 368.39952 
L 944.39952 368.39952 
L 944.39952 0 
L 0 0 
z
" style="fill: #ffffff"/>
  </g>
  <g id="axes_1">
   <g id="patch_2">
    <path d="M 46.965625 330.565145 
L 470.70101 330.565145 
L 470.70101 39.589699 
L 46.965625 39.589699 
z
" style="fill: #ffffff"/>
   </g>
   <g id="matplotlib.axis_1">
    <g id="xtick_1">
     <g id="line2d_1">
      <path d="M 66.226324 330.565145 
L 66.226324 39.589699 
" clip-path="url(#p31eb3c1446)" style="fill: none; stroke-dasharray: 2.96,1.28; stroke-dashoffset: 0; stroke: #b0b0b0; stroke-opacity: 0.3; stroke-width: 0.8"/>
     </g>
     <g id="line2d_2">
      <defs>
       <path id="m703e82af0b" d="M 0 0 
L 0 3.5 
" style="stroke: #000000; stroke-width: 0.8"/>
      </defs>
      <g>
       <use xlink:href="#m703e82af0b" x="66.226324" y="330.565145" style="stroke: #000000; stroke-width: 0.8"/>
      </g>
     </g>
     <g id="text_1">
      <!-- 0 -->
      <g transform="translate(63.045074 345.163582) scale(0.1 -0.1)">
       <defs>
        <path id="DejaVuSans-30" d="M 2034 4250 
Q 1547 4250 1301 3770 
Q 1056 3291 1056 2328 
Q 1056 1369 1301 889 
Q 1547 409 2034 409 
Q 2525 409 2770 889 
Q 3016 1369 3016 2328 
Q 3016 3291 2770 3770 
Q 2525 4250 2034 4250 
z
M 2034 4750 
Q 2819 4750 3233 4129 
Q 3647 3509 3647 2328 
Q 3647 1150 3233 529 
Q 2819 -91 2034 -91 
Q 1250 -91 836 529 
Q 422 1150 422 2328 
Q 422 3509 836 4129 
Q 1250 4750 2034 4750 
z
" transform="scale(0.015625)"/>
       </defs>
       <use xlink:href="#DejaVuSans-30"/>
      </g>
     </g>
    </g>
    <g id="xtick_2">
     <g id="line2d_3">
      <path d="M 117.588189 330.565145 
L 117.588189 39.589699 
" clip-path="url(#p31eb3c1446)" style="fill: none; stroke-dasharray: 2.96,1.28; stroke-dashoffset: 0; stroke: #b0b0b0; stroke-opacity: 0.3; stroke-width: 0.8"/>
     </g>
     <g id="line2d_4">
      <g>
       <use xlink:href="#m703e82af0b" x="117.588189" y="330.565145" style="stroke: #000000; stroke-width: 0.8"/>
      </g>
     </g>
     <g id="text_2">
      <!-- 200 -->
      <g transform="translate(108.044439 345.163582) scale(0.1 -0.1)">
       <defs>
        <path id="DejaVuSans-32" d="M 1228 531 
L 3431 531 
L 3431 0 
L 469 0 
L 469 531 
Q 828 903 1448 1529 
Q 2069 2156 2228 2338 
Q 2531 2678 2651 2914 
Q 2772 3150 2772 3378 
Q 2772 3750 2511 3984 
Q 2250 4219 1831 4219 
Q 1534 4219 1204 4116 
Q 875 4013 500 3803 
L 500 4441 
Q 881 4594 1212 4672 
Q 1544 4750 1819 4750 
Q 2544 4750 2975 4387 
Q 3406 4025 3406 3419 
Q 3406 3131 3298 2873 
Q 3191 2616 2906 2266 
Q 2828 2175 2409 1742 
Q 1991 1309 1228 531 
z
" transform="scale(0.015625)"/>
       </defs>
       <use xlink:href="#DejaVuSans-32"/>
       <use xlink:href="#DejaVuSans-30" transform="translate(63.623047 0)"/>
       <use xlink:href="#DejaVuSans-30" transform="translate(127.246094 0)"/>
      </g>
     </g>
    </g>
    <g id="xtick_3">
     <g id="line2d_5">
      <path d="M 168.950054 330.565145 
L 168.950054 39.589699 
" clip-path="url(#p31eb3c1446)" style="fill: none; stroke-dasharray: 2.96,1.28; stroke-dashoffset: 0; stroke: #b0b0b0; stroke-opacity: 0.3; stroke-width: 0.8"/>
     </g>
     <g id="line2d_6">
      <g>
       <use xlink:href="#m703e82af0b" x="168.950054" y="330.565145" style="stroke: #000000; stroke-width: 0.8"/>
      </g>
     </g>
     <g id="text_3">
      <!-- 400 -->
      <g transform="translate(159.406304 345.163582) scale(0.1 -0.1)">
       <defs>
        <path id="DejaVuSans-34" d="M 2419 4116 
L 825 1625 
L 2419 1625 
L 2419 4116 
z
M 2253 4666 
L 3047 4666 
L 3047 1625 
L 3713 1625 
L 3713 1100 
L 3047 1100 
L 3047 0 
L 2419 0 
L 2419 1100 
L 313 1100 
L 313 1709 
L 2253 4666 
z
" transform="scale(0.015625)"/>
       </defs>
       <use xlink:href="#DejaVuSans-34"/>
       <use xlink:href="#DejaVuSans-30" transform="translate(63.623047 0)"/>
       <use xlink:href="#DejaVuSans-30" transform="translate(127.246094 0)"/>
      </g>
     </g>
    </g>
    <g id="xtick_4">
     <g id="line2d_7">
      <path d="M 220.311919 330.565145 
L 220.311919 39.589699 
" clip-path="url(#p31eb3c1446)" style="fill: none; stroke-dasharray: 2.96,1.28; stroke-dashoffset: 0; stroke: #b0b0b0; stroke-opacity: 0.3; stroke-width: 0.8"/>
     </g>
     <g id="line2d_8">
      <g>
       <use xlink:href="#m703e82af0b" x="220.311919" y="330.565145" style="stroke: #000000; stroke-width: 0.8"/>
      </g>
     </g>
     <g id="text_4">
      <!-- 600 -->
      <g transform="translate(210.768169 345.163582) scale(0.1 -0.1)">
       <defs>
        <path id="DejaVuSans-36" d="M 2113 2584 
Q 1688 2584 1439 2293 
Q 1191 2003 1191 1497 
Q 1191 994 1439 701 
Q 1688 409 2113 409 
Q 2538 409 2786 701 
Q 3034 994 3034 1497 
Q 3034 2003 2786 2293 
Q 2538 2584 2113 2584 
z
M 3366 4563 
L 3366 3988 
Q 3128 4100 2886 4159 
Q 2644 4219 2406 4219 
Q 1781 4219 1451 3797 
Q 1122 3375 1075 2522 
Q 1259 2794 1537 2939 
Q 1816 3084 2150 3084 
Q 2853 3084 3261 2657 
Q 3669 2231 3669 1497 
Q 3669 778 3244 343 
Q 2819 -91 2113 -91 
Q 1303 -91 875 529 
Q 447 1150 447 2328 
Q 447 3434 972 4092 
Q 1497 4750 2381 4750 
Q 2619 4750 2861 4703 
Q 3103 4656 3366 4563 
z
" transform="scale(0.015625)"/>
       </defs>
       <use xlink:href="#DejaVuSans-36"/>
       <use xlink:href="#DejaVuSans-30" transform="translate(63.623047 0)"/>
       <use xlink:href="#DejaVuSans-30" transform="translate(127.246094 0)"/>
      </g>
     </g>
    </g>
    <g id="xtick_5">
     <g id="line2d_9">
      <path d="M 271.673784 330.565145 
L 271.673784 39.589699 
" clip-path="url(#p31eb3c1446)" style="fill: none; stroke-dasharray: 2.96,1.28; stroke-dashoffset: 0; stroke: #b0b0b0; stroke-opacity: 0.3; stroke-width: 0.8"/>
     </g>
     <g id="line2d_10">
      <g>
       <use xlink:href="#m703e82af0b" x="271.673784" y="330.565145" style="stroke: #000000; stroke-width: 0.8"/>
      </g>
     </g>
     <g id="text_5">
      <!-- 800 -->
      <g transform="translate(262.130034 345.163582) scale(0.1 -0.1)">
       <defs>
        <path id="DejaVuSans-38" d="M 2034 2216 
Q 1584 2216 1326 1975 
Q 1069 1734 1069 1313 
Q 1069 891 1326 650 
Q 1584 409 2034 409 
Q 2484 409 2743 651 
Q 3003 894 3003 1313 
Q 3003 1734 2745 1975 
Q 2488 2216 2034 2216 
z
M 1403 2484 
Q 997 2584 770 2862 
Q 544 3141 544 3541 
Q 544 4100 942 4425 
Q 1341 4750 2034 4750 
Q 2731 4750 3128 4425 
Q 3525 4100 3525 3541 
Q 3525 3141 3298 2862 
Q 3072 2584 2669 2484 
Q 3125 2378 3379 2068 
Q 3634 1759 3634 1313 
Q 3634 634 3220 271 
Q 2806 -91 2034 -91 
Q 1263 -91 848 271 
Q 434 634 434 1313 
Q 434 1759 690 2068 
Q 947 2378 1403 2484 
z
M 1172 3481 
Q 1172 3119 1398 2916 
Q 1625 2713 2034 2713 
Q 2441 2713 2670 2916 
Q 2900 3119 2900 3481 
Q 2900 3844 2670 4047 
Q 2441 4250 2034 4250 
Q 1625 4250 1398 4047 
Q 1172 3844 1172 3481 
z
" transform="scale(0.015625)"/>
       </defs>
       <use xlink:href="#DejaVuSans-38"/>
       <use xlink:href="#DejaVuSans-30" transform="translate(63.623047 0)"/>
       <use xlink:href="#DejaVuSans-30" transform="translate(127.246094 0)"/>
      </g>
     </g>
    </g>
    <g id="xtick_6">
     <g id="line2d_11">
      <path d="M 323.035649 330.565145 
L 323.035649 39.589699 
" clip-path="url(#p31eb3c1446)" style="fill: none; stroke-dasharray: 2.96,1.28; stroke-dashoffset: 0; stroke: #b0b0b0; stroke-opacity: 0.3; stroke-width: 0.8"/>
     </g>
     <g id="line2d_12">
      <g>
       <use xlink:href="#m703e82af0b" x="323.035649" y="330.565145" style="stroke: #000000; stroke-width: 0.8"/>
      </g>
     </g>
     <g id="text_6">
      <!-- 1000 -->
      <g transform="translate(310.310649 345.163582) scale(0.1 -0.1)">
       <defs>
        <path id="DejaVuSans-31" d="M 794 531 
L 1825 531 
L 1825 4091 
L 703 3866 
L 703 4441 
L 1819 4666 
L 2450 4666 
L 2450 531 
L 3481 531 
L 3481 0 
L 794 0 
L 794 531 
z
" transform="scale(0.015625)"/>
       </defs>
       <use xlink:href="#DejaVuSans-31"/>
       <use xlink:href="#DejaVuSans-30" transform="translate(63.623047 0)"/>
       <use xlink:href="#DejaVuSans-30" transform="translate(127.246094 0)"/>
       <use xlink:href="#DejaVuSans-30" transform="translate(190.869141 0)"/>
      </g>
     </g>
    </g>
    <g id="xtick_7">
     <g id="line2d_13">
      <path d="M 374.397513 330.565145 
L 374.397513 39.589699 
" clip-path="url(#p31eb3c1446)" style="fill: none; stroke-dasharray: 2.96,1.28; stroke-dashoffset: 0; stroke: #b0b0b0; stroke-opacity: 0.3; stroke-width: 0.8"/>
     </g>
     <g id="line2d_14">
      <g>
       <use xlink:href="#m703e82af0b" x="374.397513" y="330.565145" style="stroke: #000000; stroke-width: 0.8"/>
      </g>
     </g>
     <g id="text_7">
      <!-- 1200 -->
      <g transform="translate(361.672513 345.163582) scale(0.1 -0.1)">
       <use xlink:href="#DejaVuSans-31"/>
       <use xlink:href="#DejaVuSans-32" transform="translate(63.623047 0)"/>
       <use xlink:href="#DejaVuSans-30" transform="translate(127.246094 0)"/>
       <use xlink:href="#DejaVuSans-30" transform="translate(190.869141 0)"/>
      </g>
     </g>
    </g>
    <g id="xtick_8">
     <g id="line2d_15">
      <path d="M 425.759378 330.565145 
L 425.759378 39.589699 
" clip-path="url(#p31eb3c1446)" style="fill: none; stroke-dasharray: 2.96,1.28; stroke-dashoffset: 0; stroke: #b0b0b0; stroke-opacity: 0.3; stroke-width: 0.8"/>
     </g>
     <g id="line2d_16">
      <g>
       <use xlink:href="#m703e82af0b" x="425.759378" y="330.565145" style="stroke: #000000; stroke-width: 0.8"/>
      </g>
     </g>
     <g id="text_8">
      <!-- 1400 -->
      <g transform="translate(413.034378 345.163582) scale(0.1 -0.1)">
       <use xlink:href="#DejaVuSans-31"/>
       <use xlink:href="#DejaVuSans-34" transform="translate(63.623047 0)"/>
       <use xlink:href="#DejaVuSans-30" transform="translate(127.246094 0)"/>
       <use xlink:href="#DejaVuSans-30" transform="translate(190.869141 0)"/>
      </g>
     </g>
    </g>
    <g id="text_9">
     <!-- Zyklenzahl n -->
     <g transform="translate(226.915349 358.841707) scale(0.1 -0.1)">
      <defs>
       <path id="DejaVuSans-5a" d="M 359 4666 
L 4025 4666 
L 4025 4184 
L 1075 531 
L 4097 531 
L 4097 0 
L 288 0 
L 288 481 
L 3238 4134 
L 359 4134 
L 359 4666 
z
" transform="scale(0.015625)"/>
       <path id="DejaVuSans-79" d="M 2059 -325 
Q 1816 -950 1584 -1140 
Q 1353 -1331 966 -1331 
L 506 -1331 
L 506 -850 
L 844 -850 
Q 1081 -850 1212 -737 
Q 1344 -625 1503 -206 
L 1606 56 
L 191 3500 
L 800 3500 
L 1894 763 
L 2988 3500 
L 3597 3500 
L 2059 -325 
z
" transform="scale(0.015625)"/>
       <path id="DejaVuSans-6b" d="M 581 4863 
L 1159 4863 
L 1159 1991 
L 2875 3500 
L 3609 3500 
L 1753 1863 
L 3688 0 
L 2938 0 
L 1159 1709 
L 1159 0 
L 581 0 
L 581 4863 
z
" transform="scale(0.015625)"/>
       <path id="DejaVuSans-6c" d="M 603 4863 
L 1178 4863 
L 1178 0 
L 603 0 
L 603 4863 
z
" transform="scale(0.015625)"/>
       <path id="DejaVuSans-65" d="M 3597 1894 
L 3597 1613 
L 953 1613 
Q 991 1019 1311 708 
Q 1631 397 2203 397 
Q 2534 397 2845 478 
Q 3156 559 3463 722 
L 3463 178 
Q 3153 47 2828 -22 
Q 2503 -91 2169 -91 
Q 1331 -91 842 396 
Q 353 884 353 1716 
Q 353 2575 817 3079 
Q 1281 3584 2069 3584 
Q 2775 3584 3186 3129 
Q 3597 2675 3597 1894 
z
M 3022 2063 
Q 3016 2534 2758 2815 
Q 2500 3097 2075 3097 
Q 1594 3097 1305 2825 
Q 1016 2553 972 2059 
L 3022 2063 
z
" transform="scale(0.015625)"/>
       <path id="DejaVuSans-6e" d="M 3513 2113 
L 3513 0 
L 2938 0 
L 2938 2094 
Q 2938 2591 2744 2837 
Q 2550 3084 2163 3084 
Q 1697 3084 1428 2787 
Q 1159 2491 1159 1978 
L 1159 0 
L 581 0 
L 581 3500 
L 1159 3500 
L 1159 2956 
Q 1366 3272 1645 3428 
Q 1925 3584 2291 3584 
Q 2894 3584 3203 3211 
Q 3513 2838 3513 2113 
z
" transform="scale(0.015625)"/>
       <path id="DejaVuSans-7a" d="M 353 3500 
L 3084 3500 
L 3084 2975 
L 922 459 
L 3084 459 
L 3084 0 
L 275 0 
L 275 525 
L 2438 3041 
L 353 3041 
L 353 3500 
z
" transform="scale(0.015625)"/>
       <path id="DejaVuSans-61" d="M 2194 1759 
Q 1497 1759 1228 1600 
Q 959 1441 959 1056 
Q 959 750 1161 570 
Q 1363 391 1709 391 
Q 2188 391 2477 730 
Q 2766 1069 2766 1631 
L 2766 1759 
L 2194 1759 
z
M 3341 1997 
L 3341 0 
L 2766 0 
L 2766 531 
Q 2569 213 2275 61 
Q 1981 -91 1556 -91 
Q 1019 -91 701 211 
Q 384 513 384 1019 
Q 384 1609 779 1909 
Q 1175 2209 1959 2209 
L 2766 2209 
L 2766 2266 
Q 2766 2663 2505 2880 
Q 2244 3097 1772 3097 
Q 1472 3097 1187 3025 
Q 903 2953 641 2809 
L 641 3341 
Q 956 3463 1253 3523 
Q 1550 3584 1831 3584 
Q 2591 3584 2966 3190 
Q 3341 2797 3341 1997 
z
" transform="scale(0.015625)"/>
       <path id="DejaVuSans-68" d="M 3513 2113 
L 3513 0 
L 2938 0 
L 2938 2094 
Q 2938 2591 2744 2837 
Q 2550 3084 2163 3084 
Q 1697 3084 1428 2787 
Q 1159 2491 1159 1978 
L 1159 0 
L 581 0 
L 581 4863 
L 1159 4863 
L 1159 2956 
Q 1366 3272 1645 3428 
Q 1925 3584 2291 3584 
Q 2894 3584 3203 3211 
Q 3513 2838 3513 2113 
z
" transform="scale(0.015625)"/>
       <path id="DejaVuSans-20" transform="scale(0.015625)"/>
      </defs>
      <use xlink:href="#DejaVuSans-5a"/>
      <use xlink:href="#DejaVuSans-79" transform="translate(68.505859 0)"/>
      <use xlink:href="#DejaVuSans-6b" transform="translate(127.685547 0)"/>
      <use xlink:href="#DejaVuSans-6c" transform="translate(185.595703 0)"/>
      <use xlink:href="#DejaVuSans-65" transform="translate(213.378906 0)"/>
      <use xlink:href="#DejaVuSans-6e" transform="translate(274.902344 0)"/>
      <use xlink:href="#DejaVuSans-7a" transform="translate(338.28125 0)"/>
      <use xlink:href="#DejaVuSans-61" transform="translate(390.771484 0)"/>
      <use xlink:href="#DejaVuSans-68" transform="translate(452.050781 0)"/>
      <use xlink:href="#DejaVuSans-6c" transform="translate(515.429688 0)"/>
      <use xlink:href="#DejaVuSans-20" transform="translate(543.212891 0)"/>
      <use xlink:href="#DejaVuSans-6e" transform="translate(575 0)"/>
     </g>
    </g>
   </g>
   <g id="matplotlib.axis_2">
    <g id="ytick_1">
     <g id="line2d_17">
      <path d="M 46.965625 322.793647 
L 470.70101 322.793647 
" clip-path="url(#p31eb3c1446)" style="fill: none; stroke-dasharray: 2.96,1.28; stroke-dashoffset: 0; stroke: #b0b0b0; stroke-opacity: 0.3; stroke-width: 0.8"/>
     </g>
     <g id="line2d_18">
      <defs>
       <path id="m17e223bfee" d="M 0 0 
L -3.5 0 
" style="stroke: #000000; stroke-width: 0.8"/>
      </defs>
      <g>
       <use xlink:href="#m17e223bfee" x="46.965625" y="322.793647" style="stroke: #000000; stroke-width: 0.8"/>
      </g>
     </g>
     <g id="text_10">
      <!-- 300 -->
      <g transform="translate(20.878125 326.592866) scale(0.1 -0.1)">
       <defs>
        <path id="DejaVuSans-33" d="M 2597 2516 
Q 3050 2419 3304 2112 
Q 3559 1806 3559 1356 
Q 3559 666 3084 287 
Q 2609 -91 1734 -91 
Q 1441 -91 1130 -33 
Q 819 25 488 141 
L 488 750 
Q 750 597 1062 519 
Q 1375 441 1716 441 
Q 2309 441 2620 675 
Q 2931 909 2931 1356 
Q 2931 1769 2642 2001 
Q 2353 2234 1838 2234 
L 1294 2234 
L 1294 2753 
L 1863 2753 
Q 2328 2753 2575 2939 
Q 2822 3125 2822 3475 
Q 2822 3834 2567 4026 
Q 2313 4219 1838 4219 
Q 1578 4219 1281 4162 
Q 984 4106 628 3988 
L 628 4550 
Q 988 4650 1302 4700 
Q 1616 4750 1894 4750 
Q 2613 4750 3031 4423 
Q 3450 4097 3450 3541 
Q 3450 3153 3228 2886 
Q 3006 2619 2597 2516 
z
" transform="scale(0.015625)"/>
       </defs>
       <use xlink:href="#DejaVuSans-33"/>
       <use xlink:href="#DejaVuSans-30" transform="translate(63.623047 0)"/>
       <use xlink:href="#DejaVuSans-30" transform="translate(127.246094 0)"/>
      </g>
     </g>
    </g>
    <g id="ytick_2">
     <g id="line2d_19">
      <path d="M 46.965625 268.798089 
L 470.70101 268.798089 
" clip-path="url(#p31eb3c1446)" style="fill: none; stroke-dasharray: 2.96,1.28; stroke-dashoffset: 0; stroke: #b0b0b0; stroke-opacity: 0.3; stroke-width: 0.8"/>
     </g>
     <g id="line2d_20">
      <g>
       <use xlink:href="#m17e223bfee" x="46.965625" y="268.798089" style="stroke: #000000; stroke-width: 0.8"/>
      </g>
     </g>
     <g id="text_11">
      <!-- 320 -->
      <g transform="translate(20.878125 272.597308) scale(0.1 -0.1)">
       <use xlink:href="#DejaVuSans-33"/>
       <use xlink:href="#DejaVuSans-32" transform="translate(63.623047 0)"/>
       <use xlink:href="#DejaVuSans-30" transform="translate(127.246094 0)"/>
      </g>
     </g>
    </g>
    <g id="ytick_3">
     <g id="line2d_21">
      <path d="M 46.965625 214.802531 
L 470.70101 214.802531 
" clip-path="url(#p31eb3c1446)" style="fill: none; stroke-dasharray: 2.96,1.28; stroke-dashoffset: 0; stroke: #b0b0b0; stroke-opacity: 0.3; stroke-width: 0.8"/>
     </g>
     <g id="line2d_22">
      <g>
       <use xlink:href="#m17e223bfee" x="46.965625" y="214.802531" style="stroke: #000000; stroke-width: 0.8"/>
      </g>
     </g>
     <g id="text_12">
      <!-- 340 -->
      <g transform="translate(20.878125 218.601749) scale(0.1 -0.1)">
       <use xlink:href="#DejaVuSans-33"/>
       <use xlink:href="#DejaVuSans-34" transform="translate(63.623047 0)"/>
       <use xlink:href="#DejaVuSans-30" transform="translate(127.246094 0)"/>
      </g>
     </g>
    </g>
    <g id="ytick_4">
     <g id="line2d_23">
      <path d="M 46.965625 160.806972 
L 470.70101 160.806972 
" clip-path="url(#p31eb3c1446)" style="fill: none; stroke-dasharray: 2.96,1.28; stroke-dashoffset: 0; stroke: #b0b0b0; stroke-opacity: 0.3; stroke-width: 0.8"/>
     </g>
     <g id="line2d_24">
      <g>
       <use xlink:href="#m17e223bfee" x="46.965625" y="160.806972" style="stroke: #000000; stroke-width: 0.8"/>
      </g>
     </g>
     <g id="text_13">
      <!-- 360 -->
      <g transform="translate(20.878125 164.606191) scale(0.1 -0.1)">
       <use xlink:href="#DejaVuSans-33"/>
       <use xlink:href="#DejaVuSans-36" transform="translate(63.623047 0)"/>
       <use xlink:href="#DejaVuSans-30" transform="translate(127.246094 0)"/>
      </g>
     </g>
    </g>
    <g id="ytick_5">
     <g id="line2d_25">
      <path d="M 46.965625 106.811414 
L 470.70101 106.811414 
" clip-path="url(#p31eb3c1446)" style="fill: none; stroke-dasharray: 2.96,1.28; stroke-dashoffset: 0; stroke: #b0b0b0; stroke-opacity: 0.3; stroke-width: 0.8"/>
     </g>
     <g id="line2d_26">
      <g>
       <use xlink:href="#m17e223bfee" x="46.965625" y="106.811414" style="stroke: #000000; stroke-width: 0.8"/>
      </g>
     </g>
     <g id="text_14">
      <!-- 380 -->
      <g transform="translate(20.878125 110.610633) scale(0.1 -0.1)">
       <use xlink:href="#DejaVuSans-33"/>
       <use xlink:href="#DejaVuSans-38" transform="translate(63.623047 0)"/>
       <use xlink:href="#DejaVuSans-30" transform="translate(127.246094 0)"/>
      </g>
     </g>
    </g>
    <g id="ytick_6">
     <g id="line2d_27">
      <path d="M 46.965625 52.815855 
L 470.70101 52.815855 
" clip-path="url(#p31eb3c1446)" style="fill: none; stroke-dasharray: 2.96,1.28; stroke-dashoffset: 0; stroke: #b0b0b0; stroke-opacity: 0.3; stroke-width: 0.8"/>
     </g>
     <g id="line2d_28">
      <g>
       <use xlink:href="#m17e223bfee" x="46.965625" y="52.815855" style="stroke: #000000; stroke-width: 0.8"/>
      </g>
     </g>
     <g id="text_15">
      <!-- 400 -->
      <g transform="translate(20.878125 56.615074) scale(0.1 -0.1)">
       <use xlink:href="#DejaVuSans-34"/>
       <use xlink:href="#DejaVuSans-30" transform="translate(63.623047 0)"/>
       <use xlink:href="#DejaVuSans-30" transform="translate(127.246094 0)"/>
      </g>
     </g>
    </g>
    <g id="text_16">
     <!-- Reichweite R(n) [km] -->
     <g transform="translate(14.798438 237.691484) rotate(-90) scale(0.1 -0.1)">
      <defs>
       <path id="DejaVuSans-52" d="M 2841 2188 
Q 3044 2119 3236 1894 
Q 3428 1669 3622 1275 
L 4263 0 
L 3584 0 
L 2988 1197 
Q 2756 1666 2539 1819 
Q 2322 1972 1947 1972 
L 1259 1972 
L 1259 0 
L 628 0 
L 628 4666 
L 2053 4666 
Q 2853 4666 3247 4331 
Q 3641 3997 3641 3322 
Q 3641 2881 3436 2590 
Q 3231 2300 2841 2188 
z
M 1259 4147 
L 1259 2491 
L 2053 2491 
Q 2509 2491 2742 2702 
Q 2975 2913 2975 3322 
Q 2975 3731 2742 3939 
Q 2509 4147 2053 4147 
L 1259 4147 
z
" transform="scale(0.015625)"/>
       <path id="DejaVuSans-69" d="M 603 3500 
L 1178 3500 
L 1178 0 
L 603 0 
L 603 3500 
z
M 603 4863 
L 1178 4863 
L 1178 4134 
L 603 4134 
L 603 4863 
z
" transform="scale(0.015625)"/>
       <path id="DejaVuSans-63" d="M 3122 3366 
L 3122 2828 
Q 2878 2963 2633 3030 
Q 2388 3097 2138 3097 
Q 1578 3097 1268 2742 
Q 959 2388 959 1747 
Q 959 1106 1268 751 
Q 1578 397 2138 397 
Q 2388 397 2633 464 
Q 2878 531 3122 666 
L 3122 134 
Q 2881 22 2623 -34 
Q 2366 -91 2075 -91 
Q 1284 -91 818 406 
Q 353 903 353 1747 
Q 353 2603 823 3093 
Q 1294 3584 2113 3584 
Q 2378 3584 2631 3529 
Q 2884 3475 3122 3366 
z
" transform="scale(0.015625)"/>
       <path id="DejaVuSans-77" d="M 269 3500 
L 844 3500 
L 1563 769 
L 2278 3500 
L 2956 3500 
L 3675 769 
L 4391 3500 
L 4966 3500 
L 4050 0 
L 3372 0 
L 2619 2869 
L 1863 0 
L 1184 0 
L 269 3500 
z
" transform="scale(0.015625)"/>
       <path id="DejaVuSans-74" d="M 1172 4494 
L 1172 3500 
L 2356 3500 
L 2356 3053 
L 1172 3053 
L 1172 1153 
Q 1172 725 1289 603 
Q 1406 481 1766 481 
L 2356 481 
L 2356 0 
L 1766 0 
Q 1100 0 847 248 
Q 594 497 594 1153 
L 594 3053 
L 172 3053 
L 172 3500 
L 594 3500 
L 594 4494 
L 1172 4494 
z
" transform="scale(0.015625)"/>
       <path id="DejaVuSans-28" d="M 1984 4856 
Q 1566 4138 1362 3434 
Q 1159 2731 1159 2009 
Q 1159 1288 1364 580 
Q 1569 -128 1984 -844 
L 1484 -844 
Q 1016 -109 783 600 
Q 550 1309 550 2009 
Q 550 2706 781 3412 
Q 1013 4119 1484 4856 
L 1984 4856 
z
" transform="scale(0.015625)"/>
       <path id="DejaVuSans-29" d="M 513 4856 
L 1013 4856 
Q 1481 4119 1714 3412 
Q 1947 2706 1947 2009 
Q 1947 1309 1714 600 
Q 1481 -109 1013 -844 
L 513 -844 
Q 928 -128 1133 580 
Q 1338 1288 1338 2009 
Q 1338 2731 1133 3434 
Q 928 4138 513 4856 
z
" transform="scale(0.015625)"/>
       <path id="DejaVuSans-5b" d="M 550 4863 
L 1875 4863 
L 1875 4416 
L 1125 4416 
L 1125 -397 
L 1875 -397 
L 1875 -844 
L 550 -844 
L 550 4863 
z
" transform="scale(0.015625)"/>
       <path id="DejaVuSans-6d" d="M 3328 2828 
Q 3544 3216 3844 3400 
Q 4144 3584 4550 3584 
Q 5097 3584 5394 3201 
Q 5691 2819 5691 2113 
L 5691 0 
L 5113 0 
L 5113 2094 
Q 5113 2597 4934 2840 
Q 4756 3084 4391 3084 
Q 3944 3084 3684 2787 
Q 3425 2491 3425 1978 
L 3425 0 
L 2847 0 
L 2847 2094 
Q 2847 2600 2669 2842 
Q 2491 3084 2119 3084 
Q 1678 3084 1418 2786 
Q 1159 2488 1159 1978 
L 1159 0 
L 581 0 
L 581 3500 
L 1159 3500 
L 1159 2956 
Q 1356 3278 1631 3431 
Q 1906 3584 2284 3584 
Q 2666 3584 2933 3390 
Q 3200 3197 3328 2828 
z
" transform="scale(0.015625)"/>
       <path id="DejaVuSans-5d" d="M 1947 4863 
L 1947 -844 
L 622 -844 
L 622 -397 
L 1369 -397 
L 1369 4416 
L 622 4416 
L 622 4863 
L 1947 4863 
z
" transform="scale(0.015625)"/>
      </defs>
      <use xlink:href="#DejaVuSans-52"/>
      <use xlink:href="#DejaVuSans-65" transform="translate(64.982422 0)"/>
      <use xlink:href="#DejaVuSans-69" transform="translate(126.505859 0)"/>
      <use xlink:href="#DejaVuSans-63" transform="translate(154.289062 0)"/>
      <use xlink:href="#DejaVuSans-68" transform="translate(209.269531 0)"/>
      <use xlink:href="#DejaVuSans-77" transform="translate(272.648438 0)"/>
      <use xlink:href="#DejaVuSans-65" transform="translate(354.435547 0)"/>
      <use xlink:href="#DejaVuSans-69" transform="translate(415.958984 0)"/>
      <use xlink:href="#DejaVuSans-74" transform="translate(443.742188 0)"/>
      <use xlink:href="#DejaVuSans-65" transform="translate(482.951172 0)"/>
      <use xlink:href="#DejaVuSans-20" transform="translate(544.474609 0)"/>
      <use xlink:href="#DejaVuSans-52" transform="translate(576.261719 0)"/>
      <use xlink:href="#DejaVuSans-28" transform="translate(645.744141 0)"/>
      <use xlink:href="#DejaVuSans-6e" transform="translate(684.757812 0)"/>
      <use xlink:href="#DejaVuSans-29" transform="translate(748.136719 0)"/>
      <use xlink:href="#DejaVuSans-20" transform="translate(787.150391 0)"/>
      <use xlink:href="#DejaVuSans-5b" transform="translate(818.9375 0)"/>
      <use xlink:href="#DejaVuSans-6b" transform="translate(857.951172 0)"/>
      <use xlink:href="#DejaVuSans-6d" transform="translate(915.861328 0)"/>
      <use xlink:href="#DejaVuSans-5d" transform="translate(1013.273438 0)"/>
     </g>
    </g>
   </g>
   <g id="line2d_29">
    <path d="M 66.226324 52.815855 
L 66.998296 64.657537 
L 67.770268 69.562522 
L 68.54224 73.32625 
L 70.086184 79.294661 
L 71.630128 84.146 
L 73.174072 88.340901 
L 75.489987 93.836644 
L 77.805903 98.678492 
L 80.121819 103.055856 
L 83.209706 108.358266 
L 86.297594 113.196822 
L 89.385482 117.675418 
L 93.245341 122.872189 
L 97.105201 127.709227 
L 101.737032 133.130049 
L 106.368864 138.207437 
L 111.772667 143.773539 
L 117.176471 149.018133 
L 123.352246 154.681853 
L 129.528021 160.046844 
L 136.475769 165.7783 
L 143.423516 171.232673 
L 151.143235 177.012461 
L 159.634926 183.074355 
L 168.126617 188.866421 
L 177.39028 194.916036 
L 187.425915 201.191702 
L 197.46155 207.212496 
L 208.269157 213.444242 
L 219.848736 219.863333 
L 232.200286 226.448994 
L 245.323809 233.182978 
L 259.219303 240.049284 
L 273.88677 247.033877 
L 288.554236 253.775859 
L 303.993675 260.636527 
L 320.205085 267.604508 
L 337.188467 274.669692 
L 355.715793 282.129036 
L 375.015091 289.64949 
L 395.086361 297.225413 
L 415.929603 304.851802 
L 437.544816 312.524211 
L 451.440311 317.338988 
L 451.440311 317.338988 
" clip-path="url(#p31eb3c1446)" style="fill: none; stroke: #1f77b4; stroke-width: 1.5; stroke-linecap: square"/>
   </g>
   <g id="line2d_30">
    <path d="M 66.226324 52.815855 
L 66.998296 62.484548 
L 67.770268 66.489452 
L 68.54224 69.562522 
L 70.086184 74.435709 
L 71.630128 78.396812 
L 73.174072 81.821933 
L 75.489987 86.309189 
L 77.805903 90.262541 
L 80.121819 93.836644 
L 83.209706 98.166044 
L 86.297594 102.116708 
L 90.157454 106.648858 
L 94.017313 110.828011 
L 98.649145 115.476145 
L 103.280976 119.802523 
L 108.68478 124.520799 
L 114.088583 128.947218 
L 120.264358 133.709942 
L 126.440134 138.207437 
L 133.387881 142.999417 
L 141.1076 148.041435 
L 149.599291 153.295857 
L 158.090982 158.28884 
L 167.354645 163.479101 
L 177.39028 168.840167 
L 188.197887 174.349438 
L 199.777466 179.987652 
L 212.129017 185.738403 
L 225.252539 191.587701 
L 239.148034 197.523597 
L 253.8155 203.535858 
L 269.254938 209.615701 
L 285.466349 215.75556 
L 302.449731 221.948901 
L 320.205085 228.190056 
L 339.504383 234.731222 
L 359.575653 241.293373 
L 380.418894 247.874391 
L 402.80608 254.704085 
L 425.965237 261.534244 
L 450.668339 268.581565 
L 451.440311 268.798089 
L 451.440311 268.798089 
" clip-path="url(#p31eb3c1446)" style="fill: none; stroke: #ff7f0e; stroke-width: 1.5; stroke-linecap: square"/>
   </g>
   <g id="line2d_31">
    <path d="M 66.226324 52.815855 
L 66.998296 61.189189 
L 67.770268 64.657537 
L 68.54224 67.318894 
L 70.086184 71.539198 
L 71.630128 74.969613 
L 73.174072 77.935856 
L 75.489987 81.821933 
L 77.805903 85.245636 
L 80.893791 89.31437 
L 83.981678 92.972952 
L 87.069566 96.324972 
L 90.929426 100.182582 
L 94.789285 103.748854 
L 99.421117 107.723475 
L 104.82492 112.024264 
L 110.228724 116.033137 
L 116.404499 120.323828 
L 123.352246 124.845993 
L 130.299993 129.100554 
L 138.019713 133.565359 
L 146.511404 138.207437 
L 155.775067 142.999417 
L 165.810702 147.918642 
L 176.618308 152.94636 
L 188.197887 158.067025 
L 200.549438 163.26771 
L 213.67296 168.537626 
L 227.568455 173.867733 
L 242.235921 179.250418 
L 257.67536 184.679243 
L 273.88677 190.148735 
L 291.642124 195.89944 
L 310.16945 201.663487 
L 329.468748 207.439383 
L 350.31199 213.444242 
L 371.927203 219.443087 
L 395.086361 225.639511 
L 419.789462 232.013017 
L 445.264535 238.356531 
L 451.440311 239.861956 
L 451.440311 239.861956 
" clip-path="url(#p31eb3c1446)" style="fill: none; stroke: #2ca02c; stroke-width: 1.5; stroke-linecap: square"/>
   </g>
   <g id="line2d_32">
    <path d="M 66.226324 52.815855 
L 66.998296 59.652654 
L 67.770268 62.484548 
L 68.54224 64.657537 
L 70.086184 68.103401 
L 71.630128 70.904323 
L 73.174072 73.32625 
L 75.489987 76.499219 
L 77.805903 79.294661 
L 80.893791 82.616768 
L 83.981678 85.603987 
L 87.841538 88.992791 
L 91.701398 92.090271 
L 96.333229 95.511646 
L 101.737032 99.185276 
L 107.140836 102.588497 
L 113.316611 106.212956 
L 120.264358 110.016613 
L 127.984078 113.966037 
L 136.475769 118.034753 
L 145.739432 122.201778 
L 155.775067 126.450425 
L 166.582673 130.767348 
L 178.162252 135.141807 
L 190.513803 139.565099 
L 203.637325 144.03012 
L 218.304792 148.77489 
L 233.74423 153.528181 
L 249.95564 158.28884 
L 267.710995 163.26771 
L 286.238321 168.234292 
L 306.30959 173.384104 
L 327.924804 178.694659 
L 351.083962 184.146459 
L 375.015091 189.551818 
L 400.490164 195.080409 
L 427.509181 200.718413 
L 451.440311 205.538357 
L 451.440311 205.538357 
" clip-path="url(#p31eb3c1446)" style="fill: none; stroke: #d62728; stroke-width: 1.5; stroke-linecap: square"/>
   </g>
   <g id="patch_3">
    <path d="M 46.965625 330.565145 
L 46.965625 39.589699 
" style="fill: none; stroke: #000000; stroke-width: 0.8; stroke-linejoin: miter; stroke-linecap: square"/>
   </g>
   <g id="patch_4">
    <path d="M 46.965625 330.565145 
L 470.70101 330.565145 
" style="fill: none; stroke: #000000; stroke-width: 0.8; stroke-linejoin: miter; stroke-linecap: square"/>
   </g>
   <g id="text_17">
    <!-- Reichweitenentwicklung R(n)  (R₀ = 400 km, n_EoL_base = 1000) -->
    <g transform="translate(58.349724 33.589699) scale(0.11 -0.11)">
     <defs>
      <path id="DejaVuSans-Bold-52" d="M 2297 2597 
Q 2675 2597 2839 2737 
Q 3003 2878 3003 3200 
Q 3003 3519 2839 3656 
Q 2675 3794 2297 3794 
L 1791 3794 
L 1791 2597 
L 2297 2597 
z
M 1791 1766 
L 1791 0 
L 588 0 
L 588 4666 
L 2425 4666 
Q 3347 4666 3776 4356 
Q 4206 4047 4206 3378 
Q 4206 2916 3982 2619 
Q 3759 2322 3309 2181 
Q 3556 2125 3751 1926 
Q 3947 1728 4147 1325 
L 4800 0 
L 3519 0 
L 2950 1159 
Q 2778 1509 2601 1637 
Q 2425 1766 2131 1766 
L 1791 1766 
z
" transform="scale(0.015625)"/>
      <path id="DejaVuSans-Bold-65" d="M 4031 1759 
L 4031 1441 
L 1416 1441 
Q 1456 1047 1700 850 
Q 1944 653 2381 653 
Q 2734 653 3104 758 
Q 3475 863 3866 1075 
L 3866 213 
Q 3469 63 3072 -14 
Q 2675 -91 2278 -91 
Q 1328 -91 801 392 
Q 275 875 275 1747 
Q 275 2603 792 3093 
Q 1309 3584 2216 3584 
Q 3041 3584 3536 3087 
Q 4031 2591 4031 1759 
z
M 2881 2131 
Q 2881 2450 2695 2645 
Q 2509 2841 2209 2841 
Q 1884 2841 1681 2658 
Q 1478 2475 1428 2131 
L 2881 2131 
z
" transform="scale(0.015625)"/>
      <path id="DejaVuSans-Bold-69" d="M 538 3500 
L 1656 3500 
L 1656 0 
L 538 0 
L 538 3500 
z
M 538 4863 
L 1656 4863 
L 1656 3950 
L 538 3950 
L 538 4863 
z
" transform="scale(0.015625)"/>
      <path id="DejaVuSans-Bold-63" d="M 3366 3391 
L 3366 2478 
Q 3138 2634 2908 2709 
Q 2678 2784 2431 2784 
Q 1963 2784 1702 2511 
Q 1441 2238 1441 1747 
Q 1441 1256 1702 982 
Q 1963 709 2431 709 
Q 2694 709 2930 787 
Q 3166 866 3366 1019 
L 3366 103 
Q 3103 6 2833 -42 
Q 2563 -91 2291 -91 
Q 1344 -91 809 395 
Q 275 881 275 1747 
Q 275 2613 809 3098 
Q 1344 3584 2291 3584 
Q 2566 3584 2833 3536 
Q 3100 3488 3366 3391 
z
" transform="scale(0.015625)"/>
      <path id="DejaVuSans-Bold-68" d="M 4056 2131 
L 4056 0 
L 2931 0 
L 2931 347 
L 2931 1625 
Q 2931 2084 2911 2256 
Q 2891 2428 2841 2509 
Q 2775 2619 2662 2680 
Q 2550 2741 2406 2741 
Q 2056 2741 1856 2470 
Q 1656 2200 1656 1722 
L 1656 0 
L 538 0 
L 538 4863 
L 1656 4863 
L 1656 2988 
Q 1909 3294 2193 3439 
Q 2478 3584 2822 3584 
Q 3428 3584 3742 3212 
Q 4056 2841 4056 2131 
z
" transform="scale(0.015625)"/>
      <path id="DejaVuSans-Bold-77" d="M 225 3500 
L 1313 3500 
L 1900 1088 
L 2491 3500 
L 3425 3500 
L 4013 1113 
L 4603 3500 
L 5691 3500 
L 4769 0 
L 3547 0 
L 2956 2406 
L 2369 0 
L 1147 0 
L 225 3500 
z
" transform="scale(0.015625)"/>
      <path id="DejaVuSans-Bold-74" d="M 1759 4494 
L 1759 3500 
L 2913 3500 
L 2913 2700 
L 1759 2700 
L 1759 1216 
Q 1759 972 1856 886 
Q 1953 800 2241 800 
L 2816 800 
L 2816 0 
L 1856 0 
Q 1194 0 917 276 
Q 641 553 641 1216 
L 641 2700 
L 84 2700 
L 84 3500 
L 641 3500 
L 641 4494 
L 1759 4494 
z
" transform="scale(0.015625)"/>
      <path id="DejaVuSans-Bold-6e" d="M 4056 2131 
L 4056 0 
L 2931 0 
L 2931 347 
L 2931 1631 
Q 2931 2084 2911 2256 
Q 2891 2428 2841 2509 
Q 2775 2619 2662 2680 
Q 2550 2741 2406 2741 
Q 2056 2741 1856 2470 
Q 1656 2200 1656 1722 
L 1656 0 
L 538 0 
L 538 3500 
L 1656 3500 
L 1656 2988 
Q 1909 3294 2193 3439 
Q 2478 3584 2822 3584 
Q 3428 3584 3742 3212 
Q 4056 2841 4056 2131 
z
" transform="scale(0.015625)"/>
      <path id="DejaVuSans-Bold-6b" d="M 538 4863 
L 1656 4863 
L 1656 2216 
L 2944 3500 
L 4244 3500 
L 2534 1894 
L 4378 0 
L 3022 0 
L 1656 1459 
L 1656 0 
L 538 0 
L 538 4863 
z
" transform="scale(0.015625)"/>
      <path id="DejaVuSans-Bold-6c" d="M 538 4863 
L 1656 4863 
L 1656 0 
L 538 0 
L 538 4863 
z
" transform="scale(0.015625)"/>
      <path id="DejaVuSans-Bold-75" d="M 500 1363 
L 500 3500 
L 1625 3500 
L 1625 3150 
Q 1625 2866 1622 2436 
Q 1619 2006 1619 1863 
Q 1619 1441 1641 1255 
Q 1663 1069 1716 984 
Q 1784 875 1895 815 
Q 2006 756 2150 756 
Q 2500 756 2700 1025 
Q 2900 1294 2900 1772 
L 2900 3500 
L 4019 3500 
L 4019 0 
L 2900 0 
L 2900 506 
Q 2647 200 2364 54 
Q 2081 -91 1741 -91 
Q 1134 -91 817 281 
Q 500 653 500 1363 
z
" transform="scale(0.015625)"/>
      <path id="DejaVuSans-Bold-67" d="M 2919 594 
Q 2688 288 2409 144 
Q 2131 0 1766 0 
Q 1125 0 706 504 
Q 288 1009 288 1791 
Q 288 2575 706 3076 
Q 1125 3578 1766 3578 
Q 2131 3578 2409 3434 
Q 2688 3291 2919 2981 
L 2919 3500 
L 4044 3500 
L 4044 353 
Q 4044 -491 3511 -936 
Q 2978 -1381 1966 -1381 
Q 1638 -1381 1331 -1331 
Q 1025 -1281 716 -1178 
L 716 -306 
Q 1009 -475 1290 -558 
Q 1572 -641 1856 -641 
Q 2406 -641 2662 -400 
Q 2919 -159 2919 353 
L 2919 594 
z
M 2181 2772 
Q 1834 2772 1640 2515 
Q 1447 2259 1447 1791 
Q 1447 1309 1634 1061 
Q 1822 813 2181 813 
Q 2531 813 2725 1069 
Q 2919 1325 2919 1791 
Q 2919 2259 2725 2515 
Q 2531 2772 2181 2772 
z
" transform="scale(0.015625)"/>
      <path id="DejaVuSans-Bold-20" transform="scale(0.015625)"/>
      <path id="DejaVuSans-Bold-28" d="M 2413 -844 
L 1484 -844 
Q 1006 -72 778 623 
Q 550 1319 550 2003 
Q 550 2688 779 3389 
Q 1009 4091 1484 4856 
L 2413 4856 
Q 2013 4116 1813 3408 
Q 1613 2700 1613 2009 
Q 1613 1319 1811 609 
Q 2009 -100 2413 -844 
z
" transform="scale(0.015625)"/>
      <path id="DejaVuSans-Bold-29" d="M 513 -844 
Q 913 -100 1113 609 
Q 1313 1319 1313 2009 
Q 1313 2700 1113 3408 
Q 913 4116 513 4856 
L 1441 4856 
Q 1916 4091 2145 3389 
Q 2375 2688 2375 2003 
Q 2375 1319 2147 623 
Q 1919 -72 1441 -844 
L 513 -844 
z
" transform="scale(0.015625)"/>
      <path id="DejaVuSans-Bold-2080" d="M 1806 1288 
Q 1806 1779 1706 1979 
Q 1606 2179 1368 2179 
Q 1131 2179 1028 1979 
Q 928 1779 928 1288 
Q 928 791 1028 588 
Q 1131 385 1369 385 
Q 1603 385 1706 588 
Q 1806 791 1806 1288 
z
M 2547 1285 
Q 2547 626 2241 279 
Q 1931 -71 1369 -71 
Q 797 -71 494 279 
Q 188 632 188 1285 
Q 188 1935 494 2285 
Q 803 2638 1369 2638 
Q 1931 2638 2241 2285 
Q 2547 1935 2547 1285 
z
" transform="scale(0.015625)"/>
      <path id="DejaVuSans-Bold-3d" d="M 678 3084 
L 4684 3084 
L 4684 2350 
L 678 2350 
L 678 3084 
z
M 678 1663 
L 4684 1663 
L 4684 922 
L 678 922 
L 678 1663 
z
" transform="scale(0.015625)"/>
      <path id="DejaVuSans-Bold-34" d="M 2356 3675 
L 1038 1722 
L 2356 1722 
L 2356 3675 
z
M 2156 4666 
L 3494 4666 
L 3494 1722 
L 4159 1722 
L 4159 850 
L 3494 850 
L 3494 0 
L 2356 0 
L 2356 850 
L 288 850 
L 288 1881 
L 2156 4666 
z
" transform="scale(0.015625)"/>
      <path id="DejaVuSans-Bold-30" d="M 2944 2338 
Q 2944 3213 2780 3570 
Q 2616 3928 2228 3928 
Q 1841 3928 1675 3570 
Q 1509 3213 1509 2338 
Q 1509 1453 1675 1090 
Q 1841 728 2228 728 
Q 2613 728 2778 1090 
Q 2944 1453 2944 2338 
z
M 4147 2328 
Q 4147 1169 3647 539 
Q 3147 -91 2228 -91 
Q 1306 -91 806 539 
Q 306 1169 306 2328 
Q 306 3491 806 4120 
Q 1306 4750 2228 4750 
Q 3147 4750 3647 4120 
Q 4147 3491 4147 2328 
z
" transform="scale(0.015625)"/>
      <path id="DejaVuSans-Bold-6d" d="M 3781 2919 
Q 3994 3244 4286 3414 
Q 4578 3584 4928 3584 
Q 5531 3584 5847 3212 
Q 6163 2841 6163 2131 
L 6163 0 
L 5038 0 
L 5038 1825 
Q 5041 1866 5042 1909 
Q 5044 1953 5044 2034 
Q 5044 2406 4934 2573 
Q 4825 2741 4581 2741 
Q 4263 2741 4089 2478 
Q 3916 2216 3909 1719 
L 3909 0 
L 2784 0 
L 2784 1825 
Q 2784 2406 2684 2573 
Q 2584 2741 2328 2741 
Q 2006 2741 1831 2477 
Q 1656 2213 1656 1722 
L 1656 0 
L 531 0 
L 531 3500 
L 1656 3500 
L 1656 2988 
Q 1863 3284 2130 3434 
Q 2397 3584 2719 3584 
Q 3081 3584 3359 3409 
Q 3638 3234 3781 2919 
z
" transform="scale(0.015625)"/>
      <path id="DejaVuSans-Bold-2c" d="M 653 1209 
L 1778 1209 
L 1778 256 
L 1006 -909 
L 341 -909 
L 653 256 
L 653 1209 
z
" transform="scale(0.015625)"/>
      <path id="DejaVuSans-Bold-5f" d="M 3200 -916 
L 3200 -1509 
L 0 -1509 
L 0 -916 
L 3200 -916 
z
" transform="scale(0.015625)"/>
      <path id="DejaVuSans-Bold-45" d="M 588 4666 
L 3834 4666 
L 3834 3756 
L 1791 3756 
L 1791 2888 
L 3713 2888 
L 3713 1978 
L 1791 1978 
L 1791 909 
L 3903 909 
L 3903 0 
L 588 0 
L 588 4666 
z
" transform="scale(0.015625)"/>
      <path id="DejaVuSans-Bold-6f" d="M 2203 2784 
Q 1831 2784 1636 2517 
Q 1441 2250 1441 1747 
Q 1441 1244 1636 976 
Q 1831 709 2203 709 
Q 2569 709 2762 976 
Q 2956 1244 2956 1747 
Q 2956 2250 2762 2517 
Q 2569 2784 2203 2784 
z
M 2203 3584 
Q 3106 3584 3614 3096 
Q 4122 2609 4122 1747 
Q 4122 884 3614 396 
Q 3106 -91 2203 -91 
Q 1297 -91 786 396 
Q 275 884 275 1747 
Q 275 2609 786 3096 
Q 1297 3584 2203 3584 
z
" transform="scale(0.015625)"/>
      <path id="DejaVuSans-Bold-4c" d="M 588 4666 
L 1791 4666 
L 1791 909 
L 3903 909 
L 3903 0 
L 588 0 
L 588 4666 
z
" transform="scale(0.015625)"/>
      <path id="DejaVuSans-Bold-62" d="M 2400 722 
Q 2759 722 2948 984 
Q 3138 1247 3138 1747 
Q 3138 2247 2948 2509 
Q 2759 2772 2400 2772 
Q 2041 2772 1848 2508 
Q 1656 2244 1656 1747 
Q 1656 1250 1848 986 
Q 2041 722 2400 722 
z
M 1656 2988 
Q 1888 3294 2169 3439 
Q 2450 3584 2816 3584 
Q 3463 3584 3878 3070 
Q 4294 2556 4294 1747 
Q 4294 938 3878 423 
Q 3463 -91 2816 -91 
Q 2450 -91 2169 54 
Q 1888 200 1656 506 
L 1656 0 
L 538 0 
L 538 4863 
L 1656 4863 
L 1656 2988 
z
" transform="scale(0.015625)"/>
      <path id="DejaVuSans-Bold-61" d="M 2106 1575 
Q 1756 1575 1579 1456 
Q 1403 1338 1403 1106 
Q 1403 894 1545 773 
Q 1688 653 1941 653 
Q 2256 653 2472 879 
Q 2688 1106 2688 1447 
L 2688 1575 
L 2106 1575 
z
M 3816 1997 
L 3816 0 
L 2688 0 
L 2688 519 
Q 2463 200 2181 54 
Q 1900 -91 1497 -91 
Q 953 -91 614 226 
Q 275 544 275 1050 
Q 275 1666 698 1953 
Q 1122 2241 2028 2241 
L 2688 2241 
L 2688 2328 
Q 2688 2594 2478 2717 
Q 2269 2841 1825 2841 
Q 1466 2841 1156 2769 
Q 847 2697 581 2553 
L 581 3406 
Q 941 3494 1303 3539 
Q 1666 3584 2028 3584 
Q 2975 3584 3395 3211 
Q 3816 2838 3816 1997 
z
" transform="scale(0.015625)"/>
      <path id="DejaVuSans-Bold-73" d="M 3272 3391 
L 3272 2541 
Q 2913 2691 2578 2766 
Q 2244 2841 1947 2841 
Q 1628 2841 1473 2761 
Q 1319 2681 1319 2516 
Q 1319 2381 1436 2309 
Q 1553 2238 1856 2203 
L 2053 2175 
Q 2913 2066 3209 1816 
Q 3506 1566 3506 1031 
Q 3506 472 3093 190 
Q 2681 -91 1863 -91 
Q 1516 -91 1145 -36 
Q 775 19 384 128 
L 384 978 
Q 719 816 1070 734 
Q 1422 653 1784 653 
Q 2113 653 2278 743 
Q 2444 834 2444 1013 
Q 2444 1163 2330 1236 
Q 2216 1309 1875 1350 
L 1678 1375 
Q 931 1469 631 1722 
Q 331 1975 331 2491 
Q 331 3047 712 3315 
Q 1094 3584 1881 3584 
Q 2191 3584 2531 3537 
Q 2872 3491 3272 3391 
z
" transform="scale(0.015625)"/>
      <path id="DejaVuSans-Bold-31" d="M 750 831 
L 1813 831 
L 1813 3847 
L 722 3622 
L 722 4441 
L 1806 4666 
L 2950 4666 
L 2950 831 
L 4013 831 
L 4013 0 
L 750 0 
L 750 831 
z
" transform="scale(0.015625)"/>
     </defs>
     <use xlink:href="#DejaVuSans-Bold-52"/>
     <use xlink:href="#DejaVuSans-Bold-65" transform="translate(77.001953 0)"/>
     <use xlink:href="#DejaVuSans-Bold-69" transform="translate(144.824219 0)"/>
     <use xlink:href="#DejaVuSans-Bold-63" transform="translate(179.101562 0)"/>
     <use xlink:href="#DejaVuSans-Bold-68" transform="translate(238.378906 0)"/>
     <use xlink:href="#DejaVuSans-Bold-77" transform="translate(309.570312 0)"/>
     <use xlink:href="#DejaVuSans-Bold-65" transform="translate(401.953125 0)"/>
     <use xlink:href="#DejaVuSans-Bold-69" transform="translate(469.775391 0)"/>
     <use xlink:href="#DejaVuSans-Bold-74" transform="translate(504.052734 0)"/>
     <use xlink:href="#DejaVuSans-Bold-65" transform="translate(551.855469 0)"/>
     <use xlink:href="#DejaVuSans-Bold-6e" transform="translate(619.677734 0)"/>
     <use xlink:href="#DejaVuSans-Bold-65" transform="translate(690.869141 0)"/>
     <use xlink:href="#DejaVuSans-Bold-6e" transform="translate(758.691406 0)"/>
     <use xlink:href="#DejaVuSans-Bold-74" transform="translate(829.882812 0)"/>
     <use xlink:href="#DejaVuSans-Bold-77" transform="translate(877.685547 0)"/>
     <use xlink:href="#DejaVuSans-Bold-69" transform="translate(970.068359 0)"/>
     <use xlink:href="#DejaVuSans-Bold-63" transform="translate(1004.345703 0)"/>
     <use xlink:href="#DejaVuSans-Bold-6b" transform="translate(1063.623047 0)"/>
     <use xlink:href="#DejaVuSans-Bold-6c" transform="translate(1130.126953 0)"/>
     <use xlink:href="#DejaVuSans-Bold-75" transform="translate(1164.404297 0)"/>
     <use xlink:href="#DejaVuSans-Bold-6e" transform="translate(1235.595703 0)"/>
     <use xlink:href="#DejaVuSans-Bold-67" transform="translate(1306.787109 0)"/>
     <use xlink:href="#DejaVuSans-Bold-20" transform="translate(1378.369141 0)"/>
     <use xlink:href="#DejaVuSans-Bold-52" transform="translate(1413.183594 0)"/>
     <use xlink:href="#DejaVuSans-Bold-28" transform="translate(1490.185547 0)"/>
     <use xlink:href="#DejaVuSans-Bold-6e" transform="translate(1535.888672 0)"/>
     <use xlink:href="#DejaVuSans-Bold-29" transform="translate(1607.080078 0)"/>
     <use xlink:href="#DejaVuSans-Bold-20" transform="translate(1652.783203 0)"/>
     <use xlink:href="#DejaVuSans-Bold-20" transform="translate(1687.597656 0)"/>
     <use xlink:href="#DejaVuSans-Bold-28" transform="translate(1722.412109 0)"/>
     <use xlink:href="#DejaVuSans-Bold-52" transform="translate(1768.115234 0)"/>
     <use xlink:href="#DejaVuSans-Bold-2080" transform="translate(1845.117188 0)"/>
     <use xlink:href="#DejaVuSans-Bold-20" transform="translate(1888.916016 0)"/>
     <use xlink:href="#DejaVuSans-Bold-3d" transform="translate(1923.730469 0)"/>
     <use xlink:href="#DejaVuSans-Bold-20" transform="translate(2007.519531 0)"/>
     <use xlink:href="#DejaVuSans-Bold-34" transform="translate(2042.333984 0)"/>
     <use xlink:href="#DejaVuSans-Bold-30" transform="translate(2111.914062 0)"/>
     <use xlink:href="#DejaVuSans-Bold-30" transform="translate(2181.494141 0)"/>
     <use xlink:href="#DejaVuSans-Bold-20" transform="translate(2251.074219 0)"/>
     <use xlink:href="#DejaVuSans-Bold-6b" transform="translate(2285.888672 0)"/>
     <use xlink:href="#DejaVuSans-Bold-6d" transform="translate(2352.392578 0)"/>
     <use xlink:href="#DejaVuSans-Bold-2c" transform="translate(2456.591797 0)"/>
     <use xlink:href="#DejaVuSans-Bold-20" transform="translate(2494.580078 0)"/>
     <use xlink:href="#DejaVuSans-Bold-6e" transform="translate(2529.394531 0)"/>
     <use xlink:href="#DejaVuSans-Bold-5f" transform="translate(2600.585938 0)"/>
     <use xlink:href="#DejaVuSans-Bold-45" transform="translate(2650.585938 0)"/>
     <use xlink:href="#DejaVuSans-Bold-6f" transform="translate(2718.896484 0)"/>
     <use xlink:href="#DejaVuSans-Bold-4c" transform="translate(2787.597656 0)"/>
     <use xlink:href="#DejaVuSans-Bold-5f" transform="translate(2851.318359 0)"/>
     <use xlink:href="#DejaVuSans-Bold-62" transform="translate(2901.318359 0)"/>
     <use xlink:href="#DejaVuSans-Bold-61" transform="translate(2972.900391 0)"/>
     <use xlink:href="#DejaVuSans-Bold-73" transform="translate(3040.380859 0)"/>
     <use xlink:href="#DejaVuSans-Bold-65" transform="translate(3099.902344 0)"/>
     <use xlink:href="#DejaVuSans-Bold-20" transform="translate(3167.724609 0)"/>
     <use xlink:href="#DejaVuSans-Bold-3d" transform="translate(3202.539062 0)"/>
     <use xlink:href="#DejaVuSans-Bold-20" transform="translate(3286.328125 0)"/>
     <use xlink:href="#DejaVuSans-Bold-31" transform="translate(3321.142578 0)"/>
     <use xlink:href="#DejaVuSans-Bold-30" transform="translate(3390.722656 0)"/>
     <use xlink:href="#DejaVuSans-Bold-30" transform="translate(3460.302734 0)"/>
     <use xlink:href="#DejaVuSans-Bold-30" transform="translate(3529.882812 0)"/>
     <use xlink:href="#DejaVuSans-Bold-29" transform="translate(3599.462891 0)"/>
    </g>
   </g>
   <g id="legend_1">
    <g id="patch_5">
     <path d="M 358.296635 99.630949 
L 464.40101 99.630949 
Q 466.20101 99.630949 466.20101 97.830949 
L 466.20101 45.889699 
Q 466.20101 44.089699 464.40101 44.089699 
L 358.296635 44.089699 
Q 356.496635 44.089699 356.496635 45.889699 
L 356.496635 97.830949 
Q 356.496635 99.630949 358.296635 99.630949 
z
" style="fill: #ffffff; opacity: 0.85; stroke: #cccccc; stroke-linejoin: miter"/>
    </g>
    <g id="line2d_33">
     <path d="M 360.096635 51.378292 
L 369.096635 51.378292 
L 378.096635 51.378292 
" style="fill: none; stroke: #1f77b4; stroke-width: 1.5; stroke-linecap: square"/>
    </g>
    <g id="text_18">
     <!-- Statisch (Φ = 1) -->
     <g transform="translate(385.296635 54.528292) scale(0.09 -0.09)">
      <defs>
       <path id="DejaVuSans-53" d="M 3425 4513 
L 3425 3897 
Q 3066 4069 2747 4153 
Q 2428 4238 2131 4238 
Q 1616 4238 1336 4038 
Q 1056 3838 1056 3469 
Q 1056 3159 1242 3001 
Q 1428 2844 1947 2747 
L 2328 2669 
Q 3034 2534 3370 2195 
Q 3706 1856 3706 1288 
Q 3706 609 3251 259 
Q 2797 -91 1919 -91 
Q 1588 -91 1214 -16 
Q 841 59 441 206 
L 441 856 
Q 825 641 1194 531 
Q 1563 422 1919 422 
Q 2459 422 2753 634 
Q 3047 847 3047 1241 
Q 3047 1584 2836 1778 
Q 2625 1972 2144 2069 
L 1759 2144 
Q 1053 2284 737 2584 
Q 422 2884 422 3419 
Q 422 4038 858 4394 
Q 1294 4750 2059 4750 
Q 2388 4750 2728 4690 
Q 3069 4631 3425 4513 
z
" transform="scale(0.015625)"/>
       <path id="DejaVuSans-73" d="M 2834 3397 
L 2834 2853 
Q 2591 2978 2328 3040 
Q 2066 3103 1784 3103 
Q 1356 3103 1142 2972 
Q 928 2841 928 2578 
Q 928 2378 1081 2264 
Q 1234 2150 1697 2047 
L 1894 2003 
Q 2506 1872 2764 1633 
Q 3022 1394 3022 966 
Q 3022 478 2636 193 
Q 2250 -91 1575 -91 
Q 1294 -91 989 -36 
Q 684 19 347 128 
L 347 722 
Q 666 556 975 473 
Q 1284 391 1588 391 
Q 1994 391 2212 530 
Q 2431 669 2431 922 
Q 2431 1156 2273 1281 
Q 2116 1406 1581 1522 
L 1381 1569 
Q 847 1681 609 1914 
Q 372 2147 372 2553 
Q 372 3047 722 3315 
Q 1072 3584 1716 3584 
Q 2034 3584 2315 3537 
Q 2597 3491 2834 3397 
z
" transform="scale(0.015625)"/>
       <path id="DejaVuSans-3a6" d="M 2206 3644 
Q 1738 3578 1431 3306 
Q 1025 2947 1025 2328 
Q 1025 1713 1431 1353 
Q 1738 1081 2206 1016 
L 2206 3644 
z
M 2838 1016 
Q 3306 1081 3613 1353 
Q 4013 1713 4013 2328 
Q 4013 2947 3613 3306 
Q 3306 3578 2838 3644 
L 2838 1016 
z
M 2206 494 
Q 1444 563 950 981 
Q 359 1481 359 2328 
Q 359 3175 950 3678 
Q 1441 4100 2206 4169 
L 2206 4666 
L 2838 4666 
L 2838 4169 
Q 3600 4097 4091 3678 
Q 4678 3175 4678 2328 
Q 4678 1484 4091 981 
Q 3600 563 2838 491 
L 2838 0 
L 2206 0 
L 2206 494 
z
" transform="scale(0.015625)"/>
       <path id="DejaVuSans-3d" d="M 678 2906 
L 4684 2906 
L 4684 2381 
L 678 2381 
L 678 2906 
z
M 678 1631 
L 4684 1631 
L 4684 1100 
L 678 1100 
L 678 1631 
z
" transform="scale(0.015625)"/>
      </defs>
      <use xlink:href="#DejaVuSans-53"/>
      <use xlink:href="#DejaVuSans-74" transform="translate(63.476562 0)"/>
      <use xlink:href="#DejaVuSans-61" transform="translate(102.685547 0)"/>
      <use xlink:href="#DejaVuSans-74" transform="translate(163.964844 0)"/>
      <use xlink:href="#DejaVuSans-69" transform="translate(203.173828 0)"/>
      <use xlink:href="#DejaVuSans-73" transform="translate(230.957031 0)"/>
      <use xlink:href="#DejaVuSans-63" transform="translate(283.056641 0)"/>
      <use xlink:href="#DejaVuSans-68" transform="translate(338.037109 0)"/>
      <use xlink:href="#DejaVuSans-20" transform="translate(401.416016 0)"/>
      <use xlink:href="#DejaVuSans-28" transform="translate(433.203125 0)"/>
      <use xlink:href="#DejaVuSans-3a6" transform="translate(472.216797 0)"/>
      <use xlink:href="#DejaVuSans-20" transform="translate(550.927734 0)"/>
      <use xlink:href="#DejaVuSans-3d" transform="translate(582.714844 0)"/>
      <use xlink:href="#DejaVuSans-20" transform="translate(666.503906 0)"/>
      <use xlink:href="#DejaVuSans-31" transform="translate(698.291016 0)"/>
      <use xlink:href="#DejaVuSans-29" transform="translate(761.914062 0)"/>
     </g>
    </g>
    <g id="line2d_34">
     <path d="M 360.096635 64.588605 
L 369.096635 64.588605 
L 378.096635 64.588605 
" style="fill: none; stroke: #ff7f0e; stroke-width: 1.5; stroke-linecap: square"/>
    </g>
    <g id="text_19">
     <!-- KI-PMM (Φ = 1.5) -->
     <g transform="translate(385.296635 67.738605) scale(0.09 -0.09)">
      <defs>
       <path id="DejaVuSans-4b" d="M 628 4666 
L 1259 4666 
L 1259 2694 
L 3353 4666 
L 4166 4666 
L 1850 2491 
L 4331 0 
L 3500 0 
L 1259 2247 
L 1259 0 
L 628 0 
L 628 4666 
z
" transform="scale(0.015625)"/>
       <path id="DejaVuSans-49" d="M 628 4666 
L 1259 4666 
L 1259 0 
L 628 0 
L 628 4666 
z
" transform="scale(0.015625)"/>
       <path id="DejaVuSans-2d" d="M 313 2009 
L 1997 2009 
L 1997 1497 
L 313 1497 
L 313 2009 
z
" transform="scale(0.015625)"/>
       <path id="DejaVuSans-50" d="M 1259 4147 
L 1259 2394 
L 2053 2394 
Q 2494 2394 2734 2622 
Q 2975 2850 2975 3272 
Q 2975 3691 2734 3919 
Q 2494 4147 2053 4147 
L 1259 4147 
z
M 628 4666 
L 2053 4666 
Q 2838 4666 3239 4311 
Q 3641 3956 3641 3272 
Q 3641 2581 3239 2228 
Q 2838 1875 2053 1875 
L 1259 1875 
L 1259 0 
L 628 0 
L 628 4666 
z
" transform="scale(0.015625)"/>
       <path id="DejaVuSans-4d" d="M 628 4666 
L 1569 4666 
L 2759 1491 
L 3956 4666 
L 4897 4666 
L 4897 0 
L 4281 0 
L 4281 4097 
L 3078 897 
L 2444 897 
L 1241 4097 
L 1241 0 
L 628 0 
L 628 4666 
z
" transform="scale(0.015625)"/>
       <path id="DejaVuSans-2e" d="M 684 794 
L 1344 794 
L 1344 0 
L 684 0 
L 684 794 
z
" transform="scale(0.015625)"/>
       <path id="DejaVuSans-35" d="M 691 4666 
L 3169 4666 
L 3169 4134 
L 1269 4134 
L 1269 2991 
Q 1406 3038 1543 3061 
Q 1681 3084 1819 3084 
Q 2600 3084 3056 2656 
Q 3513 2228 3513 1497 
Q 3513 744 3044 326 
Q 2575 -91 1722 -91 
Q 1428 -91 1123 -41 
Q 819 9 494 109 
L 494 744 
Q 775 591 1075 516 
Q 1375 441 1709 441 
Q 2250 441 2565 725 
Q 2881 1009 2881 1497 
Q 2881 1984 2565 2268 
Q 2250 2553 1709 2553 
Q 1456 2553 1204 2497 
Q 953 2441 691 2322 
L 691 4666 
z
" transform="scale(0.015625)"/>
      </defs>
      <use xlink:href="#DejaVuSans-4b"/>
      <use xlink:href="#DejaVuSans-49" transform="translate(65.576172 0)"/>
      <use xlink:href="#DejaVuSans-2d" transform="translate(95.068359 0)"/>
      <use xlink:href="#DejaVuSans-50" transform="translate(131.152344 0)"/>
      <use xlink:href="#DejaVuSans-4d" transform="translate(191.455078 0)"/>
      <use xlink:href="#DejaVuSans-4d" transform="translate(277.734375 0)"/>
      <use xlink:href="#DejaVuSans-20" transform="translate(364.013672 0)"/>
      <use xlink:href="#DejaVuSans-28" transform="translate(395.800781 0)"/>
      <use xlink:href="#DejaVuSans-3a6" transform="translate(434.814453 0)"/>
      <use xlink:href="#DejaVuSans-20" transform="translate(513.525391 0)"/>
      <use xlink:href="#DejaVuSans-3d" transform="translate(545.3125 0)"/>
      <use xlink:href="#DejaVuSans-20" transform="translate(629.101562 0)"/>
      <use xlink:href="#DejaVuSans-31" transform="translate(660.888672 0)"/>
      <use xlink:href="#DejaVuSans-2e" transform="translate(724.511719 0)"/>
      <use xlink:href="#DejaVuSans-35" transform="translate(756.298828 0)"/>
      <use xlink:href="#DejaVuSans-29" transform="translate(819.921875 0)"/>
     </g>
    </g>
    <g id="line2d_35">
     <path d="M 360.096635 77.798917 
L 369.096635 77.798917 
L 378.096635 77.798917 
" style="fill: none; stroke: #2ca02c; stroke-width: 1.5; stroke-linecap: square"/>
    </g>
    <g id="text_20">
     <!-- KI-PMM (Φ = 2.0) -->
     <g transform="translate(385.296635 80.948917) scale(0.09 -0.09)">
      <use xlink:href="#DejaVuSans-4b"/>
      <use xlink:href="#DejaVuSans-49" transform="translate(65.576172 0)"/>
      <use xlink:href="#DejaVuSans-2d" transform="translate(95.068359 0)"/>
      <use xlink:href="#DejaVuSans-50" transform="translate(131.152344 0)"/>
      <use xlink:href="#DejaVuSans-4d" transform="translate(191.455078 0)"/>
      <use xlink:href="#DejaVuSans-4d" transform="translate(277.734375 0)"/>
      <use xlink:href="#DejaVuSans-20" transform="translate(364.013672 0)"/>
      <use xlink:href="#DejaVuSans-28" transform="translate(395.800781 0)"/>
      <use xlink:href="#DejaVuSans-3a6" transform="translate(434.814453 0)"/>
      <use xlink:href="#DejaVuSans-20" transform="translate(513.525391 0)"/>
      <use xlink:href="#DejaVuSans-3d" transform="translate(545.3125 0)"/>
      <use xlink:href="#DejaVuSans-20" transform="translate(629.101562 0)"/>
      <use xlink:href="#DejaVuSans-32" transform="translate(660.888672 0)"/>
      <use xlink:href="#DejaVuSans-2e" transform="translate(724.511719 0)"/>
      <use xlink:href="#DejaVuSans-30" transform="translate(756.298828 0)"/>
      <use xlink:href="#DejaVuSans-29" transform="translate(819.921875 0)"/>
     </g>
    </g>
    <g id="line2d_36">
     <path d="M 360.096635 91.00923 
L 369.096635 91.00923 
L 378.096635 91.00923 
" style="fill: none; stroke: #d62728; stroke-width: 1.5; stroke-linecap: square"/>
    </g>
    <g id="text_21">
     <!-- KI-PMM (Φ = 3.0) -->
     <g transform="translate(385.296635 94.15923) scale(0.09 -0.09)">
      <use xlink:href="#DejaVuSans-4b"/>
      <use xlink:href="#DejaVuSans-49" transform="translate(65.576172 0)"/>
      <use xlink:href="#DejaVuSans-2d" transform="translate(95.068359 0)"/>
      <use xlink:href="#DejaVuSans-50" transform="translate(131.152344 0)"/>
      <use xlink:href="#DejaVuSans-4d" transform="translate(191.455078 0)"/>
      <use xlink:href="#DejaVuSans-4d" transform="translate(277.734375 0)"/>
      <use xlink:href="#DejaVuSans-20" transform="translate(364.013672 0)"/>
      <use xlink:href="#DejaVuSans-28" transform="translate(395.800781 0)"/>
      <use xlink:href="#DejaVuSans-3a6" transform="translate(434.814453 0)"/>
      <use xlink:href="#DejaVuSans-20" transform="translate(513.525391 0)"/>
      <use xlink:href="#DejaVuSans-3d" transform="translate(545.3125 0)"/>
      <use xlink:href="#DejaVuSans-20" transform="translate(629.101562 0)"/>
      <use xlink:href="#DejaVuSans-33" transform="translate(660.888672 0)"/>
      <use xlink:href="#DejaVuSans-2e" transform="translate(724.511719 0)"/>
      <use xlink:href="#DejaVuSans-30" transform="translate(756.298828 0)"/>
      <use xlink:href="#DejaVuSans-29" transform="translate(819.921875 0)"/>
     </g>
    </g>
   </g>
  </g>
  <g id="axes_2">
   <g id="patch_6">
    <path d="M 513.464135 330.565145 
L 937.19952 330.565145 
L 937.19952 39.589699 
L 513.464135 39.589699 
z
" style="fill: #ffffff"/>
   </g>
   <g id="matplotlib.axis_3">
    <g id="xtick_9">
     <g id="line2d_37">
      <path d="M 533.447111 330.565145 
L 533.447111 39.589699 
" clip-path="url(#pe57c4826a0)" style="fill: none; stroke-dasharray: 2.96,1.28; stroke-dashoffset: 0; stroke: #b0b0b0; stroke-opacity: 0.3; stroke-width: 0.8"/>
     </g>
     <g id="line2d_38">
      <g>
       <use xlink:href="#m703e82af0b" x="533.447111" y="330.565145" style="stroke: #000000; stroke-width: 0.8"/>
      </g>
     </g>
     <g id="text_22">
      <!-- −40 -->
      <g transform="translate(522.894767 345.163582) scale(0.1 -0.1)">
       <defs>
        <path id="DejaVuSans-2212" d="M 678 2272 
L 4684 2272 
L 4684 1741 
L 678 1741 
L 678 2272 
z
" transform="scale(0.015625)"/>
       </defs>
       <use xlink:href="#DejaVuSans-2212"/>
       <use xlink:href="#DejaVuSans-34" transform="translate(83.789062 0)"/>
       <use xlink:href="#DejaVuSans-30" transform="translate(147.412109 0)"/>
      </g>
     </g>
    </g>
    <g id="xtick_10">
     <g id="line2d_39">
      <path d="M 581.598859 330.565145 
L 581.598859 39.589699 
" clip-path="url(#pe57c4826a0)" style="fill: none; stroke-dasharray: 2.96,1.28; stroke-dashoffset: 0; stroke: #b0b0b0; stroke-opacity: 0.3; stroke-width: 0.8"/>
     </g>
     <g id="line2d_40">
      <g>
       <use xlink:href="#m703e82af0b" x="581.598859" y="330.565145" style="stroke: #000000; stroke-width: 0.8"/>
      </g>
     </g>
     <g id="text_23">
      <!-- −30 -->
      <g transform="translate(571.046515 345.163582) scale(0.1 -0.1)">
       <use xlink:href="#DejaVuSans-2212"/>
       <use xlink:href="#DejaVuSans-33" transform="translate(83.789062 0)"/>
       <use xlink:href="#DejaVuSans-30" transform="translate(147.412109 0)"/>
      </g>
     </g>
    </g>
    <g id="xtick_11">
     <g id="line2d_41">
      <path d="M 629.750607 330.565145 
L 629.750607 39.589699 
" clip-path="url(#pe57c4826a0)" style="fill: none; stroke-dasharray: 2.96,1.28; stroke-dashoffset: 0; stroke: #b0b0b0; stroke-opacity: 0.3; stroke-width: 0.8"/>
     </g>
     <g id="line2d_42">
      <g>
       <use xlink:href="#m703e82af0b" x="629.750607" y="330.565145" style="stroke: #000000; stroke-width: 0.8"/>
      </g>
     </g>
     <g id="text_24">
      <!-- −20 -->
      <g transform="translate(619.198263 345.163582) scale(0.1 -0.1)">
       <use xlink:href="#DejaVuSans-2212"/>
       <use xlink:href="#DejaVuSans-32" transform="translate(83.789062 0)"/>
       <use xlink:href="#DejaVuSans-30" transform="translate(147.412109 0)"/>
      </g>
     </g>
    </g>
    <g id="xtick_12">
     <g id="line2d_43">
      <path d="M 677.902355 330.565145 
L 677.902355 39.589699 
" clip-path="url(#pe57c4826a0)" style="fill: none; stroke-dasharray: 2.96,1.28; stroke-dashoffset: 0; stroke: #b0b0b0; stroke-opacity: 0.3; stroke-width: 0.8"/>
     </g>
     <g id="line2d_44">
      <g>
       <use xlink:href="#m703e82af0b" x="677.902355" y="330.565145" style="stroke: #000000; stroke-width: 0.8"/>
      </g>
     </g>
     <g id="text_25">
      <!-- −10 -->
      <g transform="translate(667.350012 345.163582) scale(0.1 -0.1)">
       <use xlink:href="#DejaVuSans-2212"/>
       <use xlink:href="#DejaVuSans-31" transform="translate(83.789062 0)"/>
       <use xlink:href="#DejaVuSans-30" transform="translate(147.412109 0)"/>
      </g>
     </g>
    </g>
    <g id="xtick_13">
     <g id="line2d_45">
      <path d="M 726.054104 330.565145 
L 726.054104 39.589699 
" clip-path="url(#pe57c4826a0)" style="fill: none; stroke-dasharray: 2.96,1.28; stroke-dashoffset: 0; stroke: #b0b0b0; stroke-opacity: 0.3; stroke-width: 0.8"/>
     </g>
     <g id="line2d_46">
      <g>
       <use xlink:href="#m703e82af0b" x="726.054104" y="330.565145" style="stroke: #000000; stroke-width: 0.8"/>
      </g>
     </g>
     <g id="text_26">
      <!-- 0 -->
      <g transform="translate(722.872854 345.163582) scale(0.1 -0.1)">
       <use xlink:href="#DejaVuSans-30"/>
      </g>
     </g>
    </g>
    <g id="xtick_14">
     <g id="line2d_47">
      <path d="M 774.205852 330.565145 
L 774.205852 39.589699 
" clip-path="url(#pe57c4826a0)" style="fill: none; stroke-dasharray: 2.96,1.28; stroke-dashoffset: 0; stroke: #b0b0b0; stroke-opacity: 0.3; stroke-width: 0.8"/>
     </g>
     <g id="line2d_48">
      <g>
       <use xlink:href="#m703e82af0b" x="774.205852" y="330.565145" style="stroke: #000000; stroke-width: 0.8"/>
      </g>
     </g>
     <g id="text_27">
      <!-- 10 -->
      <g transform="translate(767.843352 345.163582) scale(0.1 -0.1)">
       <use xlink:href="#DejaVuSans-31"/>
       <use xlink:href="#DejaVuSans-30" transform="translate(63.623047 0)"/>
      </g>
     </g>
    </g>
    <g id="xtick_15">
     <g id="line2d_49">
      <path d="M 822.3576 330.565145 
L 822.3576 39.589699 
" clip-path="url(#pe57c4826a0)" style="fill: none; stroke-dasharray: 2.96,1.28; stroke-dashoffset: 0; stroke: #b0b0b0; stroke-opacity: 0.3; stroke-width: 0.8"/>
     </g>
     <g id="line2d_50">
      <g>
       <use xlink:href="#m703e82af0b" x="822.3576" y="330.565145" style="stroke: #000000; stroke-width: 0.8"/>
      </g>
     </g>
     <g id="text_28">
      <!-- 20 -->
      <g transform="translate(815.9951 345.163582) scale(0.1 -0.1)">
       <use xlink:href="#DejaVuSans-32"/>
       <use xlink:href="#DejaVuSans-30" transform="translate(63.623047 0)"/>
      </g>
     </g>
    </g>
    <g id="xtick_16">
     <g id="line2d_51">
      <path d="M 870.509349 330.565145 
L 870.509349 39.589699 
" clip-path="url(#pe57c4826a0)" style="fill: none; stroke-dasharray: 2.96,1.28; stroke-dashoffset: 0; stroke: #b0b0b0; stroke-opacity: 0.3; stroke-width: 0.8"/>
     </g>
     <g id="line2d_52">
      <g>
       <use xlink:href="#m703e82af0b" x="870.509349" y="330.565145" style="stroke: #000000; stroke-width: 0.8"/>
      </g>
     </g>
     <g id="text_29">
      <!-- 30 -->
      <g transform="translate(864.146849 345.163582) scale(0.1 -0.1)">
       <use xlink:href="#DejaVuSans-33"/>
       <use xlink:href="#DejaVuSans-30" transform="translate(63.623047 0)"/>
      </g>
     </g>
    </g>
    <g id="xtick_17">
     <g id="line2d_53">
      <path d="M 918.661097 330.565145 
L 918.661097 39.589699 
" clip-path="url(#pe57c4826a0)" style="fill: none; stroke-dasharray: 2.96,1.28; stroke-dashoffset: 0; stroke: #b0b0b0; stroke-opacity: 0.3; stroke-width: 0.8"/>
     </g>
     <g id="line2d_54">
      <g>
       <use xlink:href="#m703e82af0b" x="918.661097" y="330.565145" style="stroke: #000000; stroke-width: 0.8"/>
      </g>
     </g>
     <g id="text_30">
      <!-- 40 -->
      <g transform="translate(912.298597 345.163582) scale(0.1 -0.1)">
       <use xlink:href="#DejaVuSans-34"/>
       <use xlink:href="#DejaVuSans-30" transform="translate(63.623047 0)"/>
      </g>
     </g>
    </g>
    <g id="text_31">
     <!-- Umgebungstemperatur T_amb [°C] -->
     <g transform="translate(637.065421 358.841707) scale(0.1 -0.1)">
      <defs>
       <path id="DejaVuSans-55" d="M 556 4666 
L 1191 4666 
L 1191 1831 
Q 1191 1081 1462 751 
Q 1734 422 2344 422 
Q 2950 422 3222 751 
Q 3494 1081 3494 1831 
L 3494 4666 
L 4128 4666 
L 4128 1753 
Q 4128 841 3676 375 
Q 3225 -91 2344 -91 
Q 1459 -91 1007 375 
Q 556 841 556 1753 
L 556 4666 
z
" transform="scale(0.015625)"/>
       <path id="DejaVuSans-67" d="M 2906 1791 
Q 2906 2416 2648 2759 
Q 2391 3103 1925 3103 
Q 1463 3103 1205 2759 
Q 947 2416 947 1791 
Q 947 1169 1205 825 
Q 1463 481 1925 481 
Q 2391 481 2648 825 
Q 2906 1169 2906 1791 
z
M 3481 434 
Q 3481 -459 3084 -895 
Q 2688 -1331 1869 -1331 
Q 1566 -1331 1297 -1286 
Q 1028 -1241 775 -1147 
L 775 -588 
Q 1028 -725 1275 -790 
Q 1522 -856 1778 -856 
Q 2344 -856 2625 -561 
Q 2906 -266 2906 331 
L 2906 616 
Q 2728 306 2450 153 
Q 2172 0 1784 0 
Q 1141 0 747 490 
Q 353 981 353 1791 
Q 353 2603 747 3093 
Q 1141 3584 1784 3584 
Q 2172 3584 2450 3431 
Q 2728 3278 2906 2969 
L 2906 3500 
L 3481 3500 
L 3481 434 
z
" transform="scale(0.015625)"/>
       <path id="DejaVuSans-62" d="M 3116 1747 
Q 3116 2381 2855 2742 
Q 2594 3103 2138 3103 
Q 1681 3103 1420 2742 
Q 1159 2381 1159 1747 
Q 1159 1113 1420 752 
Q 1681 391 2138 391 
Q 2594 391 2855 752 
Q 3116 1113 3116 1747 
z
M 1159 2969 
Q 1341 3281 1617 3432 
Q 1894 3584 2278 3584 
Q 2916 3584 3314 3078 
Q 3713 2572 3713 1747 
Q 3713 922 3314 415 
Q 2916 -91 2278 -91 
Q 1894 -91 1617 61 
Q 1341 213 1159 525 
L 1159 0 
L 581 0 
L 581 4863 
L 1159 4863 
L 1159 2969 
z
" transform="scale(0.015625)"/>
       <path id="DejaVuSans-75" d="M 544 1381 
L 544 3500 
L 1119 3500 
L 1119 1403 
Q 1119 906 1312 657 
Q 1506 409 1894 409 
Q 2359 409 2629 706 
Q 2900 1003 2900 1516 
L 2900 3500 
L 3475 3500 
L 3475 0 
L 2900 0 
L 2900 538 
Q 2691 219 2414 64 
Q 2138 -91 1772 -91 
Q 1169 -91 856 284 
Q 544 659 544 1381 
z
M 1991 3584 
L 1991 3584 
z
" transform="scale(0.015625)"/>
       <path id="DejaVuSans-70" d="M 1159 525 
L 1159 -1331 
L 581 -1331 
L 581 3500 
L 1159 3500 
L 1159 2969 
Q 1341 3281 1617 3432 
Q 1894 3584 2278 3584 
Q 2916 3584 3314 3078 
Q 3713 2572 3713 1747 
Q 3713 922 3314 415 
Q 2916 -91 2278 -91 
Q 1894 -91 1617 61 
Q 1341 213 1159 525 
z
M 3116 1747 
Q 3116 2381 2855 2742 
Q 2594 3103 2138 3103 
Q 1681 3103 1420 2742 
Q 1159 2381 1159 1747 
Q 1159 1113 1420 752 
Q 1681 391 2138 391 
Q 2594 391 2855 752 
Q 3116 1113 3116 1747 
z
" transform="scale(0.015625)"/>
       <path id="DejaVuSans-72" d="M 2631 2963 
Q 2534 3019 2420 3045 
Q 2306 3072 2169 3072 
Q 1681 3072 1420 2755 
Q 1159 2438 1159 1844 
L 1159 0 
L 581 0 
L 581 3500 
L 1159 3500 
L 1159 2956 
Q 1341 3275 1631 3429 
Q 1922 3584 2338 3584 
Q 2397 3584 2469 3576 
Q 2541 3569 2628 3553 
L 2631 2963 
z
" transform="scale(0.015625)"/>
       <path id="DejaVuSans-54" d="M -19 4666 
L 3928 4666 
L 3928 4134 
L 2272 4134 
L 2272 0 
L 1638 0 
L 1638 4134 
L -19 4134 
L -19 4666 
z
" transform="scale(0.015625)"/>
       <path id="DejaVuSans-5f" d="M 3263 -1063 
L 3263 -1509 
L -63 -1509 
L -63 -1063 
L 3263 -1063 
z
" transform="scale(0.015625)"/>
       <path id="DejaVuSans-b0" d="M 1600 4347 
Q 1350 4347 1178 4173 
Q 1006 4000 1006 3750 
Q 1006 3503 1178 3333 
Q 1350 3163 1600 3163 
Q 1850 3163 2022 3333 
Q 2194 3503 2194 3750 
Q 2194 3997 2020 4172 
Q 1847 4347 1600 4347 
z
M 1600 4750 
Q 1800 4750 1984 4673 
Q 2169 4597 2303 4453 
Q 2447 4313 2519 4134 
Q 2591 3956 2591 3750 
Q 2591 3338 2302 3052 
Q 2013 2766 1594 2766 
Q 1172 2766 890 3047 
Q 609 3328 609 3750 
Q 609 4169 896 4459 
Q 1184 4750 1600 4750 
z
" transform="scale(0.015625)"/>
       <path id="DejaVuSans-43" d="M 4122 4306 
L 4122 3641 
Q 3803 3938 3442 4084 
Q 3081 4231 2675 4231 
Q 1875 4231 1450 3742 
Q 1025 3253 1025 2328 
Q 1025 1406 1450 917 
Q 1875 428 2675 428 
Q 3081 428 3442 575 
Q 3803 722 4122 1019 
L 4122 359 
Q 3791 134 3420 21 
Q 3050 -91 2638 -91 
Q 1578 -91 968 557 
Q 359 1206 359 2328 
Q 359 3453 968 4101 
Q 1578 4750 2638 4750 
Q 3056 4750 3426 4639 
Q 3797 4528 4122 4306 
z
" transform="scale(0.015625)"/>
      </defs>
      <use xlink:href="#DejaVuSans-55"/>
      <use xlink:href="#DejaVuSans-6d" transform="translate(73.193359 0)"/>
      <use xlink:href="#DejaVuSans-67" transform="translate(170.605469 0)"/>
      <use xlink:href="#DejaVuSans-65" transform="translate(234.082031 0)"/>
      <use xlink:href="#DejaVuSans-62" transform="translate(295.605469 0)"/>
      <use xlink:href="#DejaVuSans-75" transform="translate(359.082031 0)"/>
      <use xlink:href="#DejaVuSans-6e" transform="translate(422.460938 0)"/>
      <use xlink:href="#DejaVuSans-67" transform="translate(485.839844 0)"/>
      <use xlink:href="#DejaVuSans-73" transform="translate(549.316406 0)"/>
      <use xlink:href="#DejaVuSans-74" transform="translate(601.416016 0)"/>
      <use xlink:href="#DejaVuSans-65" transform="translate(640.625 0)"/>
      <use xlink:href="#DejaVuSans-6d" transform="translate(702.148438 0)"/>
      <use xlink:href="#DejaVuSans-70" transform="translate(799.560547 0)"/>
      <use xlink:href="#DejaVuSans-65" transform="translate(863.037109 0)"/>
      <use xlink:href="#DejaVuSans-72" transform="translate(924.560547 0)"/>
      <use xlink:href="#DejaVuSans-61" transform="translate(965.673828 0)"/>
      <use xlink:href="#DejaVuSans-74" transform="translate(1026.953125 0)"/>
      <use xlink:href="#DejaVuSans-75" transform="translate(1066.162109 0)"/>
      <use xlink:href="#DejaVuSans-72" transform="translate(1129.541016 0)"/>
      <use xlink:href="#DejaVuSans-20" transform="translate(1170.654297 0)"/>
      <use xlink:href="#DejaVuSans-54" transform="translate(1202.441406 0)"/>
      <use xlink:href="#DejaVuSans-5f" transform="translate(1263.525391 0)"/>
      <use xlink:href="#DejaVuSans-61" transform="translate(1313.525391 0)"/>
      <use xlink:href="#DejaVuSans-6d" transform="translate(1374.804688 0)"/>
      <use xlink:href="#DejaVuSans-62" transform="translate(1472.216797 0)"/>
      <use xlink:href="#DejaVuSans-20" transform="translate(1535.693359 0)"/>
      <use xlink:href="#DejaVuSans-5b" transform="translate(1567.480469 0)"/>
      <use xlink:href="#DejaVuSans-b0" transform="translate(1606.494141 0)"/>
      <use xlink:href="#DejaVuSans-43" transform="translate(1656.494141 0)"/>
      <use xlink:href="#DejaVuSans-5d" transform="translate(1726.318359 0)"/>
     </g>
    </g>
   </g>
   <g id="matplotlib.axis_4">
    <g id="ytick_7">
     <g id="line2d_55">
      <path d="M 513.464135 292.203306 
L 937.19952 292.203306 
" clip-path="url(#pe57c4826a0)" style="fill: none; stroke-dasharray: 2.96,1.28; stroke-dashoffset: 0; stroke: #b0b0b0; stroke-opacity: 0.3; stroke-width: 0.8"/>
     </g>
     <g id="line2d_56">
      <g>
       <use xlink:href="#m17e223bfee" x="513.464135" y="292.203306" style="stroke: #000000; stroke-width: 0.8"/>
      </g>
     </g>
     <g id="text_32">
      <!-- 2 -->
      <g transform="translate(500.101635 296.002525) scale(0.1 -0.1)">
       <use xlink:href="#DejaVuSans-32"/>
      </g>
     </g>
    </g>
    <g id="ytick_8">
     <g id="line2d_57">
      <path d="M 513.464135 232.356443 
L 937.19952 232.356443 
" clip-path="url(#pe57c4826a0)" style="fill: none; stroke-dasharray: 2.96,1.28; stroke-dashoffset: 0; stroke: #b0b0b0; stroke-opacity: 0.3; stroke-width: 0.8"/>
     </g>
     <g id="line2d_58">
      <g>
       <use xlink:href="#m17e223bfee" x="513.464135" y="232.356443" style="stroke: #000000; stroke-width: 0.8"/>
      </g>
     </g>
     <g id="text_33">
      <!-- 4 -->
      <g transform="translate(500.101635 236.155662) scale(0.1 -0.1)">
       <use xlink:href="#DejaVuSans-34"/>
      </g>
     </g>
    </g>
    <g id="ytick_9">
     <g id="line2d_59">
      <path d="M 513.464135 172.509581 
L 937.19952 172.509581 
" clip-path="url(#pe57c4826a0)" style="fill: none; stroke-dasharray: 2.96,1.28; stroke-dashoffset: 0; stroke: #b0b0b0; stroke-opacity: 0.3; stroke-width: 0.8"/>
     </g>
     <g id="line2d_60">
      <g>
       <use xlink:href="#m17e223bfee" x="513.464135" y="172.509581" style="stroke: #000000; stroke-width: 0.8"/>
      </g>
     </g>
     <g id="text_34">
      <!-- 6 -->
      <g transform="translate(500.101635 176.308799) scale(0.1 -0.1)">
       <use xlink:href="#DejaVuSans-36"/>
      </g>
     </g>
    </g>
    <g id="ytick_10">
     <g id="line2d_61">
      <path d="M 513.464135 112.662718 
L 937.19952 112.662718 
" clip-path="url(#pe57c4826a0)" style="fill: none; stroke-dasharray: 2.96,1.28; stroke-dashoffset: 0; stroke: #b0b0b0; stroke-opacity: 0.3; stroke-width: 0.8"/>
     </g>
     <g id="line2d_62">
      <g>
       <use xlink:href="#m17e223bfee" x="513.464135" y="112.662718" style="stroke: #000000; stroke-width: 0.8"/>
      </g>
     </g>
     <g id="text_35">
      <!-- 8 -->
      <g transform="translate(500.101635 116.461937) scale(0.1 -0.1)">
       <use xlink:href="#DejaVuSans-38"/>
      </g>
     </g>
    </g>
    <g id="ytick_11">
     <g id="line2d_63">
      <path d="M 513.464135 52.815855 
L 937.19952 52.815855 
" clip-path="url(#pe57c4826a0)" style="fill: none; stroke-dasharray: 2.96,1.28; stroke-dashoffset: 0; stroke: #b0b0b0; stroke-opacity: 0.3; stroke-width: 0.8"/>
     </g>
     <g id="line2d_64">
      <g>
       <use xlink:href="#m17e223bfee" x="513.464135" y="52.815855" style="stroke: #000000; stroke-width: 0.8"/>
      </g>
     </g>
     <g id="text_36">
      <!-- 10 -->
      <g transform="translate(493.739135 56.615074) scale(0.1 -0.1)">
       <use xlink:href="#DejaVuSans-31"/>
       <use xlink:href="#DejaVuSans-30" transform="translate(63.623047 0)"/>
      </g>
     </g>
    </g>
    <g id="text_37">
     <!-- Verfügbare Kapazität Q(T) [Ah] -->
     <g transform="translate(487.659447 262.243828) rotate(-90) scale(0.1 -0.1)">
      <defs>
       <path id="DejaVuSans-56" d="M 1831 0 
L 50 4666 
L 709 4666 
L 2188 738 
L 3669 4666 
L 4325 4666 
L 2547 0 
L 1831 0 
z
" transform="scale(0.015625)"/>
       <path id="DejaVuSans-66" d="M 2375 4863 
L 2375 4384 
L 1825 4384 
Q 1516 4384 1395 4259 
Q 1275 4134 1275 3809 
L 1275 3500 
L 2222 3500 
L 2222 3053 
L 1275 3053 
L 1275 0 
L 697 0 
L 697 3053 
L 147 3053 
L 147 3500 
L 697 3500 
L 697 3744 
Q 697 4328 969 4595 
Q 1241 4863 1831 4863 
L 2375 4863 
z
" transform="scale(0.015625)"/>
       <path id="DejaVuSans-fc" d="M 544 1381 
L 544 3500 
L 1119 3500 
L 1119 1403 
Q 1119 906 1312 657 
Q 1506 409 1894 409 
Q 2359 409 2629 706 
Q 2900 1003 2900 1516 
L 2900 3500 
L 3475 3500 
L 3475 0 
L 2900 0 
L 2900 538 
Q 2691 219 2414 64 
Q 2138 -91 1772 -91 
Q 1169 -91 856 284 
Q 544 659 544 1381 
z
M 1991 3584 
L 1991 3584 
z
M 2278 4850 
L 2912 4850 
L 2912 4219 
L 2278 4219 
L 2278 4850 
z
M 1056 4850 
L 1690 4850 
L 1690 4219 
L 1056 4219 
L 1056 4850 
z
" transform="scale(0.015625)"/>
       <path id="DejaVuSans-e4" d="M 2194 1759 
Q 1497 1759 1228 1600 
Q 959 1441 959 1056 
Q 959 750 1161 570 
Q 1363 391 1709 391 
Q 2188 391 2477 730 
Q 2766 1069 2766 1631 
L 2766 1759 
L 2194 1759 
z
M 3341 1997 
L 3341 0 
L 2766 0 
L 2766 531 
Q 2569 213 2275 61 
Q 1981 -91 1556 -91 
Q 1019 -91 701 211 
Q 384 513 384 1019 
Q 384 1609 779 1909 
Q 1175 2209 1959 2209 
L 2766 2209 
L 2766 2266 
Q 2766 2663 2505 2880 
Q 2244 3097 1772 3097 
Q 1472 3097 1187 3025 
Q 903 2953 641 2809 
L 641 3341 
Q 956 3463 1253 3523 
Q 1550 3584 1831 3584 
Q 2591 3584 2966 3190 
Q 3341 2797 3341 1997 
z
M 2150 4850 
L 2784 4850 
L 2784 4219 
L 2150 4219 
L 2150 4850 
z
M 928 4850 
L 1562 4850 
L 1562 4219 
L 928 4219 
L 928 4850 
z
" transform="scale(0.015625)"/>
       <path id="DejaVuSans-51" d="M 2522 4238 
Q 1834 4238 1429 3725 
Q 1025 3213 1025 2328 
Q 1025 1447 1429 934 
Q 1834 422 2522 422 
Q 3209 422 3611 934 
Q 4013 1447 4013 2328 
Q 4013 3213 3611 3725 
Q 3209 4238 2522 4238 
z
M 3406 84 
L 4238 -825 
L 3475 -825 
L 2784 -78 
Q 2681 -84 2626 -87 
Q 2572 -91 2522 -91 
Q 1538 -91 948 567 
Q 359 1225 359 2328 
Q 359 3434 948 4092 
Q 1538 4750 2522 4750 
Q 3503 4750 4090 4092 
Q 4678 3434 4678 2328 
Q 4678 1516 4351 937 
Q 4025 359 3406 84 
z
" transform="scale(0.015625)"/>
       <path id="DejaVuSans-41" d="M 2188 4044 
L 1331 1722 
L 3047 1722 
L 2188 4044 
z
M 1831 4666 
L 2547 4666 
L 4325 0 
L 3669 0 
L 3244 1197 
L 1141 1197 
L 716 0 
L 50 0 
L 1831 4666 
z
" transform="scale(0.015625)"/>
      </defs>
      <use xlink:href="#DejaVuSans-56"/>
      <use xlink:href="#DejaVuSans-65" transform="translate(60.658203 0)"/>
      <use xlink:href="#DejaVuSans-72" transform="translate(122.181641 0)"/>
      <use xlink:href="#DejaVuSans-66" transform="translate(163.294922 0)"/>
      <use xlink:href="#DejaVuSans-fc" transform="translate(198.5 0)"/>
      <use xlink:href="#DejaVuSans-67" transform="translate(261.878906 0)"/>
      <use xlink:href="#DejaVuSans-62" transform="translate(325.355469 0)"/>
      <use xlink:href="#DejaVuSans-61" transform="translate(388.832031 0)"/>
      <use xlink:href="#DejaVuSans-72" transform="translate(450.111328 0)"/>
      <use xlink:href="#DejaVuSans-65" transform="translate(488.974609 0)"/>
      <use xlink:href="#DejaVuSans-20" transform="translate(550.498047 0)"/>
      <use xlink:href="#DejaVuSans-4b" transform="translate(582.285156 0)"/>
      <use xlink:href="#DejaVuSans-61" transform="translate(646.111328 0)"/>
      <use xlink:href="#DejaVuSans-70" transform="translate(707.390625 0)"/>
      <use xlink:href="#DejaVuSans-61" transform="translate(770.867188 0)"/>
      <use xlink:href="#DejaVuSans-7a" transform="translate(832.146484 0)"/>
      <use xlink:href="#DejaVuSans-69" transform="translate(884.636719 0)"/>
      <use xlink:href="#DejaVuSans-74" transform="translate(912.419922 0)"/>
      <use xlink:href="#DejaVuSans-e4" transform="translate(951.628906 0)"/>
      <use xlink:href="#DejaVuSans-74" transform="translate(1012.908203 0)"/>
      <use xlink:href="#DejaVuSans-20" transform="translate(1052.117188 0)"/>
      <use xlink:href="#DejaVuSans-51" transform="translate(1083.904297 0)"/>
      <use xlink:href="#DejaVuSans-28" transform="translate(1162.615234 0)"/>
      <use xlink:href="#DejaVuSans-54" transform="translate(1201.628906 0)"/>
      <use xlink:href="#DejaVuSans-29" transform="translate(1262.712891 0)"/>
      <use xlink:href="#DejaVuSans-20" transform="translate(1301.726562 0)"/>
      <use xlink:href="#DejaVuSans-5b" transform="translate(1333.513672 0)"/>
      <use xlink:href="#DejaVuSans-41" transform="translate(1372.527344 0)"/>
      <use xlink:href="#DejaVuSans-68" transform="translate(1440.935547 0)"/>
      <use xlink:href="#DejaVuSans-5d" transform="translate(1504.314453 0)"/>
     </g>
    </g>
   </g>
   <g id="line2d_65">
    <path d="M 532.724834 317.338988 
L 822.60158 292.203306 
L 917.938821 292.203306 
L 917.938821 292.203306 
" clip-path="url(#pe57c4826a0)" style="fill: none; stroke: #1f77b4; stroke-width: 1.5; stroke-linecap: square"/>
   </g>
   <g id="line2d_66">
    <path d="M 532.724834 299.983398 
L 821.313239 262.321908 
L 825.178262 262.279875 
L 917.938821 262.279875 
L 917.938821 262.279875 
" clip-path="url(#pe57c4826a0)" style="fill: none; stroke: #ff7f0e; stroke-width: 1.5; stroke-linecap: square"/>
   </g>
   <g id="line2d_67">
    <path d="M 532.724834 265.272218 
L 821.313239 202.503067 
L 823.889921 202.433012 
L 917.938821 202.433012 
L 917.938821 202.433012 
" clip-path="url(#pe57c4826a0)" style="fill: none; stroke: #2ca02c; stroke-width: 1.5; stroke-linecap: square"/>
   </g>
   <g id="line2d_68">
    <path d="M 532.724834 178.494267 
L 821.313239 52.955965 
L 822.60158 52.815855 
L 917.938821 52.815855 
L 917.938821 52.815855 
" clip-path="url(#pe57c4826a0)" style="fill: none; stroke: #d62728; stroke-width: 1.5; stroke-linecap: square"/>
   </g>
   <g id="line2d_69">
    <path d="M 821.635324 330.565145 
L 821.635324 39.589699 
" clip-path="url(#pe57c4826a0)" style="fill: none; stroke-dasharray: 3.33,1.44; stroke-dashoffset: 0; stroke: #808080; stroke-width: 0.9"/>
   </g>
   <g id="patch_7">
    <path d="M 513.464135 330.565145 
L 513.464135 39.589699 
" style="fill: none; stroke: #000000; stroke-width: 0.8; stroke-linejoin: miter; stroke-linecap: square"/>
   </g>
   <g id="patch_8">
    <path d="M 513.464135 330.565145 
L 937.19952 330.565145 
" style="fill: none; stroke: #000000; stroke-width: 0.8; stroke-linejoin: miter; stroke-linecap: square"/>
   </g>
   <g id="text_38">
    <!-- Kältebedingte Kapazitätsreduktion Q(T_amb) -->
    <g transform="translate(584.886749 33.589699) scale(0.11 -0.11)">
     <defs>
      <path id="DejaVuSans-Bold-4b" d="M 588 4666 
L 1791 4666 
L 1791 2963 
L 3525 4666 
L 4922 4666 
L 2675 2456 
L 5153 0 
L 3647 0 
L 1791 1838 
L 1791 0 
L 588 0 
L 588 4666 
z
" transform="scale(0.015625)"/>
      <path id="DejaVuSans-Bold-e4" d="M 2106 1575 
Q 1756 1575 1579 1456 
Q 1403 1338 1403 1106 
Q 1403 894 1545 773 
Q 1688 653 1941 653 
Q 2256 653 2472 879 
Q 2688 1106 2688 1447 
L 2688 1575 
L 2106 1575 
z
M 3816 1997 
L 3816 0 
L 2688 0 
L 2688 519 
Q 2463 200 2181 54 
Q 1900 -91 1497 -91 
Q 953 -91 614 226 
Q 275 544 275 1050 
Q 275 1666 698 1953 
Q 1122 2241 2028 2241 
L 2688 2241 
L 2688 2328 
Q 2688 2594 2478 2717 
Q 2269 2841 1825 2841 
Q 1466 2841 1156 2769 
Q 847 2697 581 2553 
L 581 3406 
Q 941 3494 1303 3539 
Q 1666 3584 2028 3584 
Q 2975 3584 3395 3211 
Q 3816 2838 3816 1997 
z
M 1200 4953 
L 1934 4953 
L 1934 4184 
L 1200 4184 
L 1200 4953 
z
M 2434 4953 
L 3168 4953 
L 3168 4184 
L 2434 4184 
L 2434 4953 
z
" transform="scale(0.015625)"/>
      <path id="DejaVuSans-Bold-64" d="M 2919 2988 
L 2919 4863 
L 4044 4863 
L 4044 0 
L 2919 0 
L 2919 506 
Q 2688 197 2409 53 
Q 2131 -91 1766 -91 
Q 1119 -91 703 423 
Q 288 938 288 1747 
Q 288 2556 703 3070 
Q 1119 3584 1766 3584 
Q 2128 3584 2408 3439 
Q 2688 3294 2919 2988 
z
M 2181 722 
Q 2541 722 2730 984 
Q 2919 1247 2919 1747 
Q 2919 2247 2730 2509 
Q 2541 2772 2181 2772 
Q 1825 2772 1636 2509 
Q 1447 2247 1447 1747 
Q 1447 1247 1636 984 
Q 1825 722 2181 722 
z
" transform="scale(0.015625)"/>
      <path id="DejaVuSans-Bold-70" d="M 1656 506 
L 1656 -1331 
L 538 -1331 
L 538 3500 
L 1656 3500 
L 1656 2988 
Q 1888 3294 2169 3439 
Q 2450 3584 2816 3584 
Q 3463 3584 3878 3070 
Q 4294 2556 4294 1747 
Q 4294 938 3878 423 
Q 3463 -91 2816 -91 
Q 2450 -91 2169 54 
Q 1888 200 1656 506 
z
M 2400 2772 
Q 2041 2772 1848 2508 
Q 1656 2244 1656 1747 
Q 1656 1250 1848 986 
Q 2041 722 2400 722 
Q 2759 722 2948 984 
Q 3138 1247 3138 1747 
Q 3138 2247 2948 2509 
Q 2759 2772 2400 2772 
z
" transform="scale(0.015625)"/>
      <path id="DejaVuSans-Bold-7a" d="M 366 3500 
L 3419 3500 
L 3419 2719 
L 1575 800 
L 3419 800 
L 3419 0 
L 288 0 
L 288 781 
L 2131 2700 
L 366 2700 
L 366 3500 
z
" transform="scale(0.015625)"/>
      <path id="DejaVuSans-Bold-72" d="M 3138 2547 
Q 2991 2616 2845 2648 
Q 2700 2681 2553 2681 
Q 2122 2681 1889 2404 
Q 1656 2128 1656 1613 
L 1656 0 
L 538 0 
L 538 3500 
L 1656 3500 
L 1656 2925 
Q 1872 3269 2151 3426 
Q 2431 3584 2822 3584 
Q 2878 3584 2943 3579 
Q 3009 3575 3134 3559 
L 3138 2547 
z
" transform="scale(0.015625)"/>
      <path id="DejaVuSans-Bold-51" d="M 2847 -84 
L 2753 -84 
Q 1600 -84 959 553 
Q 319 1191 319 2328 
Q 319 3463 958 4106 
Q 1597 4750 2719 4750 
Q 3853 4750 4486 4112 
Q 5119 3475 5119 2328 
Q 5119 1541 4783 972 
Q 4447 403 3816 116 
L 4756 -934 
L 3609 -934 
L 2847 -84 
z
M 2719 3878 
Q 2169 3878 1866 3472 
Q 1563 3066 1563 2328 
Q 1563 1578 1859 1179 
Q 2156 781 2719 781 
Q 3272 781 3575 1187 
Q 3878 1594 3878 2328 
Q 3878 3066 3575 3472 
Q 3272 3878 2719 3878 
z
" transform="scale(0.015625)"/>
      <path id="DejaVuSans-Bold-54" d="M 31 4666 
L 4331 4666 
L 4331 3756 
L 2784 3756 
L 2784 0 
L 1581 0 
L 1581 3756 
L 31 3756 
L 31 4666 
z
" transform="scale(0.015625)"/>
     </defs>
     <use xlink:href="#DejaVuSans-Bold-4b"/>
     <use xlink:href="#DejaVuSans-Bold-e4" transform="translate(77.490234 0)"/>
     <use xlink:href="#DejaVuSans-Bold-6c" transform="translate(144.970703 0)"/>
     <use xlink:href="#DejaVuSans-Bold-74" transform="translate(179.248047 0)"/>
     <use xlink:href="#DejaVuSans-Bold-65" transform="translate(227.050781 0)"/>
     <use xlink:href="#DejaVuSans-Bold-62" transform="translate(294.873047 0)"/>
     <use xlink:href="#DejaVuSans-Bold-65" transform="translate(366.455078 0)"/>
     <use xlink:href="#DejaVuSans-Bold-64" transform="translate(434.277344 0)"/>
     <use xlink:href="#DejaVuSans-Bold-69" transform="translate(505.859375 0)"/>
     <use xlink:href="#DejaVuSans-Bold-6e" transform="translate(540.136719 0)"/>
     <use xlink:href="#DejaVuSans-Bold-67" transform="translate(611.328125 0)"/>
     <use xlink:href="#DejaVuSans-Bold-74" transform="translate(682.910156 0)"/>
     <use xlink:href="#DejaVuSans-Bold-65" transform="translate(730.712891 0)"/>
     <use xlink:href="#DejaVuSans-Bold-20" transform="translate(798.535156 0)"/>
     <use xlink:href="#DejaVuSans-Bold-4b" transform="translate(833.349609 0)"/>
     <use xlink:href="#DejaVuSans-Bold-61" transform="translate(910.839844 0)"/>
     <use xlink:href="#DejaVuSans-Bold-70" transform="translate(978.320312 0)"/>
     <use xlink:href="#DejaVuSans-Bold-61" transform="translate(1049.902344 0)"/>
     <use xlink:href="#DejaVuSans-Bold-7a" transform="translate(1117.382812 0)"/>
     <use xlink:href="#DejaVuSans-Bold-69" transform="translate(1175.585938 0)"/>
     <use xlink:href="#DejaVuSans-Bold-74" transform="translate(1209.863281 0)"/>
     <use xlink:href="#DejaVuSans-Bold-e4" transform="translate(1257.666016 0)"/>
     <use xlink:href="#DejaVuSans-Bold-74" transform="translate(1325.146484 0)"/>
     <use xlink:href="#DejaVuSans-Bold-73" transform="translate(1372.949219 0)"/>
     <use xlink:href="#DejaVuSans-Bold-72" transform="translate(1432.470703 0)"/>
     <use xlink:href="#DejaVuSans-Bold-65" transform="translate(1481.787109 0)"/>
     <use xlink:href="#DejaVuSans-Bold-64" transform="translate(1549.609375 0)"/>
     <use xlink:href="#DejaVuSans-Bold-75" transform="translate(1621.191406 0)"/>
     <use xlink:href="#DejaVuSans-Bold-6b" transform="translate(1692.382812 0)"/>
     <use xlink:href="#DejaVuSans-Bold-74" transform="translate(1758.886719 0)"/>
     <use xlink:href="#DejaVuSans-Bold-69" transform="translate(1806.689453 0)"/>
     <use xlink:href="#DejaVuSans-Bold-6f" transform="translate(1840.966797 0)"/>
     <use xlink:href="#DejaVuSans-Bold-6e" transform="translate(1909.667969 0)"/>
     <use xlink:href="#DejaVuSans-Bold-20" transform="translate(1980.859375 0)"/>
     <use xlink:href="#DejaVuSans-Bold-51" transform="translate(2015.673828 0)"/>
     <use xlink:href="#DejaVuSans-Bold-28" transform="translate(2100.683594 0)"/>
     <use xlink:href="#DejaVuSans-Bold-54" transform="translate(2146.386719 0)"/>
     <use xlink:href="#DejaVuSans-Bold-5f" transform="translate(2214.599609 0)"/>
     <use xlink:href="#DejaVuSans-Bold-61" transform="translate(2264.599609 0)"/>
     <use xlink:href="#DejaVuSans-Bold-6d" transform="translate(2332.080078 0)"/>
     <use xlink:href="#DejaVuSans-Bold-62" transform="translate(2436.279297 0)"/>
     <use xlink:href="#DejaVuSans-Bold-29" transform="translate(2507.861328 0)"/>
    </g>
   </g>
   <g id="legend_2">
    <g id="patch_9">
     <path d="M 519.764135 113.091574 
L 609.124291 113.091574 
Q 610.924291 113.091574 610.924291 111.291574 
L 610.924291 45.889699 
Q 610.924291 44.089699 609.124291 44.089699 
L 519.764135 44.089699 
Q 517.964135 44.089699 517.964135 45.889699 
L 517.964135 111.291574 
Q 517.964135 113.091574 519.764135 113.091574 
z
" style="fill: #ffffff; opacity: 0.85; stroke: #cccccc; stroke-linejoin: miter"/>
    </g>
    <g id="line2d_70">
     <path d="M 521.564135 51.378292 
L 530.564135 51.378292 
L 539.564135 51.378292 
" style="fill: none; stroke: #1f77b4; stroke-width: 1.5; stroke-linecap: square"/>
    </g>
    <g id="text_39">
     <!-- Q₀ = 2 Ah -->
     <g transform="translate(546.764135 54.528292) scale(0.09 -0.09)">
      <defs>
       <path id="DejaVuSans-2080" d="M 1781 2091 
Q 1625 2360 1309 2360 
Q 994 2360 838 2091 
Q 678 1822 678 1285 
Q 678 744 838 476 
Q 994 207 1309 207 
Q 1625 207 1781 476 
Q 1941 744 1941 1285 
Q 1941 1822 1781 2091 
z
M 1309 2638 
Q 1813 2638 2078 2291 
Q 2344 1944 2344 1285 
Q 2344 622 2078 275 
Q 1813 -71 1309 -71 
Q 803 -71 537 275 
Q 272 622 272 1285 
Q 272 1944 537 2291 
Q 803 2638 1309 2638 
z
" transform="scale(0.015625)"/>
      </defs>
      <use xlink:href="#DejaVuSans-51"/>
      <use xlink:href="#DejaVuSans-2080" transform="translate(78.710938 0)"/>
      <use xlink:href="#DejaVuSans-20" transform="translate(118.798828 0)"/>
      <use xlink:href="#DejaVuSans-3d" transform="translate(150.585938 0)"/>
      <use xlink:href="#DejaVuSans-20" transform="translate(234.375 0)"/>
      <use xlink:href="#DejaVuSans-32" transform="translate(266.162109 0)"/>
      <use xlink:href="#DejaVuSans-20" transform="translate(329.785156 0)"/>
      <use xlink:href="#DejaVuSans-41" transform="translate(361.572266 0)"/>
      <use xlink:href="#DejaVuSans-68" transform="translate(429.980469 0)"/>
     </g>
    </g>
    <g id="line2d_71">
     <path d="M 521.564135 64.588605 
L 530.564135 64.588605 
L 539.564135 64.588605 
" style="fill: none; stroke: #ff7f0e; stroke-width: 1.5; stroke-linecap: square"/>
    </g>
    <g id="text_40">
     <!-- Q₀ = 3 Ah -->
     <g transform="translate(546.764135 67.738605) scale(0.09 -0.09)">
      <use xlink:href="#DejaVuSans-51"/>
      <use xlink:href="#DejaVuSans-2080" transform="translate(78.710938 0)"/>
      <use xlink:href="#DejaVuSans-20" transform="translate(118.798828 0)"/>
      <use xlink:href="#DejaVuSans-3d" transform="translate(150.585938 0)"/>
      <use xlink:href="#DejaVuSans-20" transform="translate(234.375 0)"/>
      <use xlink:href="#DejaVuSans-33" transform="translate(266.162109 0)"/>
      <use xlink:href="#DejaVuSans-20" transform="translate(329.785156 0)"/>
      <use xlink:href="#DejaVuSans-41" transform="translate(361.572266 0)"/>
      <use xlink:href="#DejaVuSans-68" transform="translate(429.980469 0)"/>
     </g>
    </g>
    <g id="line2d_72">
     <path d="M 521.564135 77.798917 
L 530.564135 77.798917 
L 539.564135 77.798917 
" style="fill: none; stroke: #2ca02c; stroke-width: 1.5; stroke-linecap: square"/>
    </g>
    <g id="text_41">
     <!-- Q₀ = 5 Ah -->
     <g transform="translate(546.764135 80.948917) scale(0.09 -0.09)">
      <use xlink:href="#DejaVuSans-51"/>
      <use xlink:href="#DejaVuSans-2080" transform="translate(78.710938 0)"/>
      <use xlink:href="#DejaVuSans-20" transform="translate(118.798828 0)"/>
      <use xlink:href="#DejaVuSans-3d" transform="translate(150.585938 0)"/>
      <use xlink:href="#DejaVuSans-20" transform="translate(234.375 0)"/>
      <use xlink:href="#DejaVuSans-35" transform="translate(266.162109 0)"/>
      <use xlink:href="#DejaVuSans-20" transform="translate(329.785156 0)"/>
      <use xlink:href="#DejaVuSans-41" transform="translate(361.572266 0)"/>
      <use xlink:href="#DejaVuSans-68" transform="translate(429.980469 0)"/>
     </g>
    </g>
    <g id="line2d_73">
     <path d="M 521.564135 91.00923 
L 530.564135 91.00923 
L 539.564135 91.00923 
" style="fill: none; stroke: #d62728; stroke-width: 1.5; stroke-linecap: square"/>
    </g>
    <g id="text_42">
     <!-- Q₀ = 10 Ah -->
     <g transform="translate(546.764135 94.15923) scale(0.09 -0.09)">
      <use xlink:href="#DejaVuSans-51"/>
      <use xlink:href="#DejaVuSans-2080" transform="translate(78.710938 0)"/>
      <use xlink:href="#DejaVuSans-20" transform="translate(118.798828 0)"/>
      <use xlink:href="#DejaVuSans-3d" transform="translate(150.585938 0)"/>
      <use xlink:href="#DejaVuSans-20" transform="translate(234.375 0)"/>
      <use xlink:href="#DejaVuSans-31" transform="translate(266.162109 0)"/>
      <use xlink:href="#DejaVuSans-30" transform="translate(329.785156 0)"/>
      <use xlink:href="#DejaVuSans-20" transform="translate(393.408203 0)"/>
      <use xlink:href="#DejaVuSans-41" transform="translate(425.195312 0)"/>
      <use xlink:href="#DejaVuSans-68" transform="translate(493.603516 0)"/>
     </g>
    </g>
    <g id="line2d_74">
     <path d="M 521.564135 104.219542 
L 530.564135 104.219542 
L 539.564135 104.219542 
" style="fill: none; stroke-dasharray: 3.33,1.44; stroke-dashoffset: 0; stroke: #808080; stroke-width: 0.9"/>
    </g>
    <g id="text_43">
     <!-- T_ref = 20 °C -->
     <g transform="translate(546.764135 107.369542) scale(0.09 -0.09)">
      <use xlink:href="#DejaVuSans-54"/>
      <use xlink:href="#DejaVuSans-5f" transform="translate(61.083984 0)"/>
      <use xlink:href="#DejaVuSans-72" transform="translate(111.083984 0)"/>
      <use xlink:href="#DejaVuSans-65" transform="translate(149.947266 0)"/>
      <use xlink:href="#DejaVuSans-66" transform="translate(211.470703 0)"/>
      <use xlink:href="#DejaVuSans-20" transform="translate(246.675781 0)"/>
      <use xlink:href="#DejaVuSans-3d" transform="translate(278.462891 0)"/>
      <use xlink:href="#DejaVuSans-20" transform="translate(362.251953 0)"/>
      <use xlink:href="#DejaVuSans-32" transform="translate(394.039062 0)"/>
      <use xlink:href="#DejaVuSans-30" transform="translate(457.662109 0)"/>
      <use xlink:href="#DejaVuSans-20" transform="translate(521.285156 0)"/>
      <use xlink:href="#DejaVuSans-b0" transform="translate(553.072266 0)"/>
      <use xlink:href="#DejaVuSans-43" transform="translate(603.072266 0)"/>
     </g>
    </g>
   </g>
  </g>
  <g id="text_44">
   <!-- Exp 06 – Reichweite vs. Zyklen &amp; Kälteleistung -->
   <g transform="translate(313.988198 16.486875) scale(0.12 -0.12)">
    <defs>
     <path id="DejaVuSans-Bold-78" d="M 1422 1791 
L 159 3500 
L 1344 3500 
L 2059 2463 
L 2784 3500 
L 3969 3500 
L 2706 1797 
L 4031 0 
L 2847 0 
L 2059 1106 
L 1281 0 
L 97 0 
L 1422 1791 
z
" transform="scale(0.015625)"/>
     <path id="DejaVuSans-Bold-36" d="M 2316 2303 
Q 2000 2303 1842 2098 
Q 1684 1894 1684 1484 
Q 1684 1075 1842 870 
Q 2000 666 2316 666 
Q 2634 666 2792 870 
Q 2950 1075 2950 1484 
Q 2950 1894 2792 2098 
Q 2634 2303 2316 2303 
z
M 3803 4544 
L 3803 3681 
Q 3506 3822 3243 3889 
Q 2981 3956 2731 3956 
Q 2194 3956 1894 3657 
Q 1594 3359 1544 2772 
Q 1750 2925 1990 3001 
Q 2231 3078 2516 3078 
Q 3231 3078 3670 2659 
Q 4109 2241 4109 1563 
Q 4109 813 3618 361 
Q 3128 -91 2303 -91 
Q 1394 -91 895 523 
Q 397 1138 397 2266 
Q 397 3422 980 4083 
Q 1563 4744 2578 4744 
Q 2900 4744 3203 4694 
Q 3506 4644 3803 4544 
z
" transform="scale(0.015625)"/>
     <path id="DejaVuSans-Bold-2013" d="M 344 2156 
L 2856 2156 
L 2856 1350 
L 344 1350 
L 344 2156 
z
" transform="scale(0.015625)"/>
     <path id="DejaVuSans-Bold-76" d="M 97 3500 
L 1216 3500 
L 2088 1081 
L 2956 3500 
L 4078 3500 
L 2700 0 
L 1472 0 
L 97 3500 
z
" transform="scale(0.015625)"/>
     <path id="DejaVuSans-Bold-2e" d="M 653 1209 
L 1778 1209 
L 1778 0 
L 653 0 
L 653 1209 
z
" transform="scale(0.015625)"/>
     <path id="DejaVuSans-Bold-5a" d="M 359 4666 
L 4281 4666 
L 4281 3938 
L 1778 909 
L 4353 909 
L 4353 0 
L 288 0 
L 288 728 
L 2791 3756 
L 359 3756 
L 359 4666 
z
" transform="scale(0.015625)"/>
     <path id="DejaVuSans-Bold-79" d="M 78 3500 
L 1197 3500 
L 2138 1125 
L 2938 3500 
L 4056 3500 
L 2584 -331 
Q 2363 -916 2067 -1148 
Q 1772 -1381 1288 -1381 
L 641 -1381 
L 641 -647 
L 991 -647 
Q 1275 -647 1404 -556 
Q 1534 -466 1606 -231 
L 1638 -134 
L 78 3500 
z
" transform="scale(0.015625)"/>
     <path id="DejaVuSans-Bold-26" d="M 2497 3097 
L 3775 1691 
Q 3941 1909 4027 2181 
Q 4113 2453 4128 2797 
L 5100 2797 
Q 5053 2228 4879 1784 
Q 4706 1341 4397 1006 
L 5313 0 
L 3988 0 
L 3681 341 
Q 3353 122 2990 15 
Q 2628 -91 2222 -91 
Q 1400 -91 892 342 
Q 384 775 384 1459 
Q 384 1916 607 2267 
Q 831 2619 1338 2950 
Q 1206 3116 1143 3281 
Q 1081 3447 1081 3628 
Q 1081 4138 1478 4444 
Q 1875 4750 2534 4750 
Q 2819 4750 3126 4704 
Q 3434 4659 3769 4569 
L 3769 3700 
Q 3475 3850 3212 3922 
Q 2950 3994 2700 3994 
Q 2459 3994 2326 3901 
Q 2194 3809 2194 3641 
Q 2194 3534 2270 3398 
Q 2347 3263 2497 3097 
z
M 1875 2322 
Q 1672 2175 1569 1989 
Q 1466 1803 1466 1581 
Q 1466 1222 1731 969 
Q 1997 716 2369 716 
Q 2578 716 2759 780 
Q 2941 844 3097 972 
L 1875 2322 
z
" transform="scale(0.015625)"/>
    </defs>
    <use xlink:href="#DejaVuSans-Bold-45"/>
    <use xlink:href="#DejaVuSans-Bold-78" transform="translate(68.310547 0)"/>
    <use xlink:href="#DejaVuSans-Bold-70" transform="translate(132.8125 0)"/>
    <use xlink:href="#DejaVuSans-Bold-20" transform="translate(204.394531 0)"/>
    <use xlink:href="#DejaVuSans-Bold-30" transform="translate(239.208984 0)"/>
    <use xlink:href="#DejaVuSans-Bold-36" transform="translate(308.789062 0)"/>
    <use xlink:href="#DejaVuSans-Bold-20" transform="translate(378.369141 0)"/>
    <use xlink:href="#DejaVuSans-Bold-2013" transform="translate(413.183594 0)"/>
    <use xlink:href="#DejaVuSans-Bold-20" transform="translate(463.183594 0)"/>
    <use xlink:href="#DejaVuSans-Bold-52" transform="translate(497.998047 0)"/>
    <use xlink:href="#DejaVuSans-Bold-65" transform="translate(575 0)"/>
    <use xlink:href="#DejaVuSans-Bold-69" transform="translate(642.822266 0)"/>
    <use xlink:href="#DejaVuSans-Bold-63" transform="translate(677.099609 0)"/>
    <use xlink:href="#DejaVuSans-Bold-68" transform="translate(736.376953 0)"/>
    <use xlink:href="#DejaVuSans-Bold-77" transform="translate(807.568359 0)"/>
    <use xlink:href="#DejaVuSans-Bold-65" transform="translate(899.951172 0)"/>
    <use xlink:href="#DejaVuSans-Bold-69" transform="translate(967.773438 0)"/>
    <use xlink:href="#DejaVuSans-Bold-74" transform="translate(1002.050781 0)"/>
    <use xlink:href="#DejaVuSans-Bold-65" transform="translate(1049.853516 0)"/>
    <use xlink:href="#DejaVuSans-Bold-20" transform="translate(1117.675781 0)"/>
    <use xlink:href="#DejaVuSans-Bold-76" transform="translate(1152.490234 0)"/>
    <use xlink:href="#DejaVuSans-Bold-73" transform="translate(1217.675781 0)"/>
    <use xlink:href="#DejaVuSans-Bold-2e" transform="translate(1277.197266 0)"/>
    <use xlink:href="#DejaVuSans-Bold-20" transform="translate(1315.185547 0)"/>
    <use xlink:href="#DejaVuSans-Bold-5a" transform="translate(1350 0)"/>
    <use xlink:href="#DejaVuSans-Bold-79" transform="translate(1422.509766 0)"/>
    <use xlink:href="#DejaVuSans-Bold-6b" transform="translate(1487.695312 0)"/>
    <use xlink:href="#DejaVuSans-Bold-6c" transform="translate(1554.199219 0)"/>
    <use xlink:href="#DejaVuSans-Bold-65" transform="translate(1588.476562 0)"/>
    <use xlink:href="#DejaVuSans-Bold-6e" transform="translate(1656.298828 0)"/>
    <use xlink:href="#DejaVuSans-Bold-20" transform="translate(1727.490234 0)"/>
    <use xlink:href="#DejaVuSans-Bold-26" transform="translate(1762.304688 0)"/>
    <use xlink:href="#DejaVuSans-Bold-20" transform="translate(1849.511719 0)"/>
    <use xlink:href="#DejaVuSans-Bold-4b" transform="translate(1884.326172 0)"/>
    <use xlink:href="#DejaVuSans-Bold-e4" transform="translate(1961.816406 0)"/>
    <use xlink:href="#DejaVuSans-Bold-6c" transform="translate(2029.296875 0)"/>
    <use xlink:href="#DejaVuSans-Bold-74" transform="translate(2063.574219 0)"/>
    <use xlink:href="#DejaVuSans-Bold-65" transform="translate(2111.376953 0)"/>
    <use xlink:href="#DejaVuSans-Bold-6c" transform="translate(2179.199219 0)"/>
    <use xlink:href="#DejaVuSans-Bold-65" transform="translate(2213.476562 0)"/>
    <use xlink:href="#DejaVuSans-Bold-69" transform="translate(2281.298828 0)"/>
    <use xlink:href="#DejaVuSans-Bold-73" transform="translate(2315.576172 0)"/>
    <use xlink:href="#DejaVuSans-Bold-74" transform="translate(2375.097656 0)"/>
    <use xlink:href="#DejaVuSans-Bold-75" transform="translate(2422.900391 0)"/>
    <use xlink:href="#DejaVuSans-Bold-6e" transform="translate(2494.091797 0)"/>
    <use xlink:href="#DejaVuSans-Bold-67" transform="translate(2565.283203 0)"/>
   </g>
  </g>
 </g>
 <defs>
  <clipPath id="p31eb3c1446">
   <rect x="46.965625" y="39.589699" width="423.735385" height="290.975446"/>
  </clipPath>
  <clipPath id="pe57c4826a0">
   <rect x="513.464135" y="39.589699" width="423.735385" height="290.975446"/>
  </clipPath>
 </defs>
</svg>
