<?xml version="1.0" encoding="utf-8" standalone="no"?>
<!DOCTYPE svg PUBLIC "-//W3C//DTD SVG 1.1//EN"
  "http://www.w3.org/Graphics/SVG/1.1/DTD/svg11.dtd">
<svg xmlns:xlink="http://www.w3.org/1999/xlink" width="944.39952pt" height="368.39952pt" viewBox="0 0 944.39952 368.39952" xmlns="http://www.w3.org/2000/svg" version="1.1">
 <metadata>
  <rdf:RDF xmlns:dc="http://purl.org/dc/elements/1.1/" xmlns:cc="http://creativecommons.org/ns#" xmlns:rdf="http://www.w3.org/1999/02/22-rdf-syntax-ns#">
   <cc:Work>
    <dc:type rdf:resource="http://purl.org/dc/dcmitype/StillImage"/>
    <dc:date>2026-03-08T05:20:59.566029</dc:date>
    <dc:format>image/svg+xml</dc:format>
    <dc:creator>
     <cc:Agent>
      <dc:title>Matplotlib v3.10.8, https://matplotlib.org/</dc:title>
     </cc:Agent>
    </dc:creator>
   </cc:Work>
  </rdf:RDF>
 </metadata>
 <defs>
  <style type="text/css">*{stroke-linejoin: round; stroke-linecap: butt}</style>
 </defs>
 <g id="figure_1">
  <g id="patch_1">
   <path d="M 0 368.39952 
L 944.39952 368.39952 
L 944.39952 0 
L 0 0 
z
" style="fill: #ffffff"/>
  </g>
  <g id="axes_1">
   <g id="patch_2">
    <path d="M 40.603125 330.565145 
L 465.930697 330.565145 
L 465.930697 39.506261 
L 40.603125 39.506261 
z
" style="fill: #ffffff"/>
   </g>
   <g id="matplotlib.axis_1">
    <g id="xtick_1">
     <g id="line2d_1">
      <path d="M 59.936196 330.565145 
L 59.936196 39.506261 
" clip-path="url(#p0361f43baa)" style="fill: none; stroke-dasharray: 2.96,1.28; stroke-dashoffset: 0; stroke: #b0b0b0; stroke-opacity: 0.3; stroke-width: 0.8"/>
     </g>
     <g id="line2d_2">
      <defs>
       <path id="m0af7787c0b" d="M 0 0 
L 0 3.5 
" style="stroke: #000000; stroke-width: 0.8"/>
      </defs>
      <g>
       <use xlink:href="#m0af7787c0b" x="59.936196" y="330.565145" style="stroke: #000000; stroke-width: 0.8"/>
      </g>
     </g>
     <g id="text_1">
      <!-- 0.0 -->
      <g transform="translate(51.984634 345.163582) scale(0.1 -0.1)">
       <defs>
        <path id="DejaVuSans-30" d="M 2034 4250 
Q 1547 4250 1301 3770 
Q 1056 3291 1056 2328 
Q 1056 1369 1301 889 
Q 1547 409 2034 409 
Q 2525 409 2770 889 
Q 3016 1369 3016 2328 
Q 3016 3291 2770 3770 
Q 2525 4250 2034 4250 
z
M 2034 4750 
Q 2819 4750 3233 4129 
Q 3647 3509 3647 2328 
Q 3647 1150 3233 529 
Q 2819 -91 2034 -91 
Q 1250 -91 836 529 
Q 422 1150 422 2328 
Q 422 3509 836 4129 
Q 1250 4750 2034 4750 
z
" transform="scale(0.015625)"/>
        <path id="DejaVuSans-2e" d="M 684 794 
L 1344 794 
L 1344 0 
L 684 0 
L 684 794 
z
" transform="scale(0.015625)"/>
       </defs>
       <use xlink:href="#DejaVuSans-30"/>
       <use xlink:href="#DejaVuSans-2e" transform="translate(63.623047 0)"/>
       <use xlink:href="#DejaVuSans-30" transform="translate(95.410156 0)"/>
      </g>
     </g>
    </g>
    <g id="xtick_2">
     <g id="line2d_3">
      <path d="M 137.268482 330.565145 
L 137.268482 39.506261 
" clip-path="url(#p0361f43baa)" style="fill: none; stroke-dasharray: 2.96,1.28; stroke-dashoffset: 0; stroke: #b0b0b0; stroke-opacity: 0.3; stroke-width: 0.8"/>
     </g>
     <g id="line2d_4">
      <g>
       <use xlink:href="#m0af7787c0b" x="137.268482" y="330.565145" style="stroke: #000000; stroke-width: 0.8"/>
      </g>
     </g>
     <g id="text_2">
      <!-- 0.2 -->
      <g transform="translate(129.31692 345.163582) scale(0.1 -0.1)">
       <defs>
        <path id="DejaVuSans-32" d="M 1228 531 
L 3431 531 
L 3431 0 
L 469 0 
L 469 531 
Q 828 903 1448 1529 
Q 2069 2156 2228 2338 
Q 2531 2678 2651 2914 
Q 2772 3150 2772 3378 
Q 2772 3750 2511 3984 
Q 2250 4219 1831 4219 
Q 1534 4219 1204 4116 
Q 875 4013 500 3803 
L 500 4441 
Q 881 4594 1212 4672 
Q 1544 4750 1819 4750 
Q 2544 4750 2975 4387 
Q 3406 4025 3406 3419 
Q 3406 3131 3298 2873 
Q 3191 2616 2906 2266 
Q 2828 2175 2409 1742 
Q 1991 1309 1228 531 
z
" transform="scale(0.015625)"/>
       </defs>
       <use xlink:href="#DejaVuSans-30"/>
       <use xlink:href="#DejaVuSans-2e" transform="translate(63.623047 0)"/>
       <use xlink:href="#DejaVuSans-32" transform="translate(95.410156 0)"/>
      </g>
     </g>
    </g>
    <g id="xtick_3">
     <g id="line2d_5">
      <path d="M 214.600768 330.565145 
L 214.600768 39.506261 
" clip-path="url(#p0361f43baa)" style="fill: none; stroke-dasharray: 2.96,1.28; stroke-dashoffset: 0; stroke: #b0b0b0; stroke-opacity: 0.3; stroke-width: 0.8"/>
     </g>
     <g id="line2d_6">
      <g>
       <use xlink:href="#m0af7787c0b" x="214.600768" y="330.565145" style="stroke: #000000; stroke-width: 0.8"/>
      </g>
     </g>
     <g id="text_3">
      <!-- 0.4 -->
      <g transform="translate(206.649206 345.163582) scale(0.1 -0.1)">
       <defs>
        <path id="DejaVuSans-34" d="M 2419 4116 
L 825 1625 
L 2419 1625 
L 2419 4116 
z
M 2253 4666 
L 3047 4666 
L 3047 1625 
L 3713 1625 
L 3713 1100 
L 3047 1100 
L 3047 0 
L 2419 0 
L 2419 1100 
L 313 1100 
L 313 1709 
L 2253 4666 
z
" transform="scale(0.015625)"/>
       </defs>
       <use xlink:href="#DejaVuSans-30"/>
       <use xlink:href="#DejaVuSans-2e" transform="translate(63.623047 0)"/>
       <use xlink:href="#DejaVuSans-34" transform="translate(95.410156 0)"/>
      </g>
     </g>
    </g>
    <g id="xtick_4">
     <g id="line2d_7">
      <path d="M 291.933054 330.565145 
L 291.933054 39.506261 
" clip-path="url(#p0361f43baa)" style="fill: none; stroke-dasharray: 2.96,1.28; stroke-dashoffset: 0; stroke: #b0b0b0; stroke-opacity: 0.3; stroke-width: 0.8"/>
     </g>
     <g id="line2d_8">
      <g>
       <use xlink:href="#m0af7787c0b" x="291.933054" y="330.565145" style="stroke: #000000; stroke-width: 0.8"/>
      </g>
     </g>
     <g id="text_4">
      <!-- 0.6 -->
      <g transform="translate(283.981492 345.163582) scale(0.1 -0.1)">
       <defs>
        <path id="DejaVuSans-36" d="M 2113 2584 
Q 1688 2584 1439 2293 
Q 1191 2003 1191 1497 
Q 1191 994 1439 701 
Q 1688 409 2113 409 
Q 2538 409 2786 701 
Q 3034 994 3034 1497 
Q 3034 2003 2786 2293 
Q 2538 2584 2113 2584 
z
M 3366 4563 
L 3366 3988 
Q 3128 4100 2886 4159 
Q 2644 4219 2406 4219 
Q 1781 4219 1451 3797 
Q 1122 3375 1075 2522 
Q 1259 2794 1537 2939 
Q 1816 3084 2150 3084 
Q 2853 3084 3261 2657 
Q 3669 2231 3669 1497 
Q 3669 778 3244 343 
Q 2819 -91 2113 -91 
Q 1303 -91 875 529 
Q 447 1150 447 2328 
Q 447 3434 972 4092 
Q 1497 4750 2381 4750 
Q 2619 4750 2861 4703 
Q 3103 4656 3366 4563 
z
" transform="scale(0.015625)"/>
       </defs>
       <use xlink:href="#DejaVuSans-30"/>
       <use xlink:href="#DejaVuSans-2e" transform="translate(63.623047 0)"/>
       <use xlink:href="#DejaVuSans-36" transform="translate(95.410156 0)"/>
      </g>
     </g>
    </g>
    <g id="xtick_5">
     <g id="line2d_9">
      <path d="M 369.26534 330.565145 
L 369.26534 39.506261 
" clip-path="url(#p0361f43baa)" style="fill: none; stroke-dasharray: 2.96,1.28; stroke-dashoffset: 0; stroke: #b0b0b0; stroke-opacity: 0.3; stroke-width: 0.8"/>
     </g>
     <g id="line2d_10">
      <g>
       <use xlink:href="#m0af7787c0b" x="369.26534" y="330.565145" style="stroke: #000000; stroke-width: 0.8"/>
      </g>
     </g>
     <g id="text_5">
      <!-- 0.8 -->
      <g transform="translate(361.313778 345.163582) scale(0.1 -0.1)">
       <defs>
        <path id="DejaVuSans-38" d="M 2034 2216 
Q 1584 2216 1326 1975 
Q 1069 1734 1069 1313 
Q 1069 891 1326 650 
Q 1584 409 2034 409 
Q 2484 409 2743 651 
Q 3003 894 3003 1313 
Q 3003 1734 2745 1975 
Q 2488 2216 2034 2216 
z
M 1403 2484 
Q 997 2584 770 2862 
Q 544 3141 544 3541 
Q 544 4100 942 4425 
Q 1341 4750 2034 4750 
Q 2731 4750 3128 4425 
Q 3525 4100 3525 3541 
Q 3525 3141 3298 2862 
Q 3072 2584 2669 2484 
Q 3125 2378 3379 2068 
Q 3634 1759 3634 1313 
Q 3634 634 3220 271 
Q 2806 -91 2034 -91 
Q 1263 -91 848 271 
Q 434 634 434 1313 
Q 434 1759 690 2068 
Q 947 2378 1403 2484 
z
M 1172 3481 
Q 1172 3119 1398 2916 
Q 1625 2713 2034 2713 
Q 2441 2713 2670 2916 
Q 2900 3119 2900 3481 
Q 2900 3844 2670 4047 
Q 2441 4250 2034 4250 
Q 1625 4250 1398 4047 
Q 1172 3844 1172 3481 
z
" transform="scale(0.015625)"/>
       </defs>
       <use xlink:href="#DejaVuSans-30"/>
       <use xlink:href="#DejaVuSans-2e" transform="translate(63.623047 0)"/>
       <use xlink:href="#DejaVuSans-38" transform="translate(95.410156 0)"/>
      </g>
     </g>
    </g>
    <g id="xtick_6">
     <g id="line2d_11">
      <path d="M 446.597626 330.565145 
L 446.597626 39.506261 
" clip-path="url(#p0361f43baa)" style="fill: none; stroke-dasharray: 2.96,1.28; stroke-dashoffset: 0; stroke: #b0b0b0; stroke-opacity: 0.3; stroke-width: 0.8"/>
     </g>
     <g id="line2d_12">
      <g>
       <use xlink:href="#m0af7787c0b" x="446.597626" y="330.565145" style="stroke: #000000; stroke-width: 0.8"/>
      </g>
     </g>
     <g id="text_6">
      <!-- 1.0 -->
      <g transform="translate(438.646064 345.163582) scale(0.1 -0.1)">
       <defs>
        <path id="DejaVuSans-31" d="M 794 531 
L 1825 531 
L 1825 4091 
L 703 3866 
L 703 4441 
L 1819 4666 
L 2450 4666 
L 2450 531 
L 3481 531 
L 3481 0 
L 794 0 
L 794 531 
z
" transform="scale(0.015625)"/>
       </defs>
       <use xlink:href="#DejaVuSans-31"/>
       <use xlink:href="#DejaVuSans-2e" transform="translate(63.623047 0)"/>
       <use xlink:href="#DejaVuSans-30" transform="translate(95.410156 0)"/>
      </g>
     </g>
    </g>
    <g id="text_7">
     <!-- ρ_M – mechanischer Degradationsanteil -->
     <g transform="translate(153.181755 358.841707) scale(0.1 -0.1)">
      <defs>
       <path id="DejaVuSans-3c1" d="M 863 2875 
Q 1053 3194 1525 3475 
Q 1709 3584 2278 3584 
Q 2916 3584 3314 3078 
Q 3713 2572 3713 1747 
Q 3713 922 3314 415 
Q 2916 -91 2278 -91 
Q 1894 -91 1617 61 
Q 1341 213 1159 525 
L 1159 -1331 
L 581 -1331 
L 581 1716 
Q 581 2438 863 2875 
z
M 3116 1747 
Q 3116 2381 2855 2742 
Q 2594 3103 2138 3103 
Q 1681 3103 1420 2742 
Q 1159 2381 1159 1747 
Q 1159 1113 1420 752 
Q 1681 391 2138 391 
Q 2594 391 2855 752 
Q 3116 1113 3116 1747 
z
" transform="scale(0.015625)"/>
       <path id="DejaVuSans-5f" d="M 3263 -1063 
L 3263 -1509 
L -63 -1509 
L -63 -1063 
L 3263 -1063 
z
" transform="scale(0.015625)"/>
       <path id="DejaVuSans-4d" d="M 628 4666 
L 1569 4666 
L 2759 1491 
L 3956 4666 
L 4897 4666 
L 4897 0 
L 4281 0 
L 4281 4097 
L 3078 897 
L 2444 897 
L 1241 4097 
L 1241 0 
L 628 0 
L 628 4666 
z
" transform="scale(0.015625)"/>
       <path id="DejaVuSans-20" transform="scale(0.015625)"/>
       <path id="DejaVuSans-2013" d="M 313 1978 
L 2888 1978 
L 2888 1528 
L 313 1528 
L 313 1978 
z
" transform="scale(0.015625)"/>
       <path id="DejaVuSans-6d" d="M 3328 2828 
Q 3544 3216 3844 3400 
Q 4144 3584 4550 3584 
Q 5097 3584 5394 3201 
Q 5691 2819 5691 2113 
L 5691 0 
L 5113 0 
L 5113 2094 
Q 5113 2597 4934 2840 
Q 4756 3084 4391 3084 
Q 3944 3084 3684 2787 
Q 3425 2491 3425 1978 
L 3425 0 
L 2847 0 
L 2847 2094 
Q 2847 2600 2669 2842 
Q 2491 3084 2119 3084 
Q 1678 3084 1418 2786 
Q 1159 2488 1159 1978 
L 1159 0 
L 581 0 
L 581 3500 
L 1159 3500 
L 1159 2956 
Q 1356 3278 1631 3431 
Q 1906 3584 2284 3584 
Q 2666 3584 2933 3390 
Q 3200 3197 3328 2828 
z
" transform="scale(0.015625)"/>
       <path id="DejaVuSans-65" d="M 3597 1894 
L 3597 1613 
L 953 1613 
Q 991 1019 1311 708 
Q 1631 397 2203 397 
Q 2534 397 2845 478 
Q 3156 559 3463 722 
L 3463 178 
Q 3153 47 2828 -22 
Q 2503 -91 2169 -91 
Q 1331 -91 842 396 
Q 353 884 353 1716 
Q 353 2575 817 3079 
Q 1281 3584 2069 3584 
Q 2775 3584 3186 3129 
Q 3597 2675 3597 1894 
z
M 3022 2063 
Q 3016 2534 2758 2815 
Q 2500 3097 2075 3097 
Q 1594 3097 1305 2825 
Q 1016 2553 972 2059 
L 3022 2063 
z
" transform="scale(0.015625)"/>
       <path id="DejaVuSans-63" d="M 3122 3366 
L 3122 2828 
Q 2878 2963 2633 3030 
Q 2388 3097 2138 3097 
Q 1578 3097 1268 2742 
Q 959 2388 959 1747 
Q 959 1106 1268 751 
Q 1578 397 2138 397 
Q 2388 397 2633 464 
Q 2878 531 3122 666 
L 3122 134 
Q 2881 22 2623 -34 
Q 2366 -91 2075 -91 
Q 1284 -91 818 406 
Q 353 903 353 1747 
Q 353 2603 823 3093 
Q 1294 3584 2113 3584 
Q 2378 3584 2631 3529 
Q 2884 3475 3122 3366 
z
" transform="scale(0.015625)"/>
       <path id="DejaVuSans-68" d="M 3513 2113 
L 3513 0 
L 2938 0 
L 2938 2094 
Q 2938 2591 2744 2837 
Q 2550 3084 2163 3084 
Q 1697 3084 1428 2787 
Q 1159 2491 1159 1978 
L 1159 0 
L 581 0 
L 581 4863 
L 1159 4863 
L 1159 2956 
Q 1366 3272 1645 3428 
Q 1925 3584 2291 3584 
Q 2894 3584 3203 3211 
Q 3513 2838 3513 2113 
z
" transform="scale(0.015625)"/>
       <path id="DejaVuSans-61" d="M 2194 1759 
Q 1497 1759 1228 1600 
Q 959 1441 959 1056 
Q 959 750 1161 570 
Q 1363 391 1709 391 
Q 2188 391 2477 730 
Q 2766 1069 2766 1631 
L 2766 1759 
L 2194 1759 
z
M 3341 1997 
L 3341 0 
L 2766 0 
L 2766 531 
Q 2569 213 2275 61 
Q 1981 -91 1556 -91 
Q 1019 -91 701 211 
Q 384 513 384 1019 
Q 384 1609 779 1909 
Q 1175 2209 1959 2209 
L 2766 2209 
L 2766 2266 
Q 2766 2663 2505 2880 
Q 2244 3097 1772 3097 
Q 1472 3097 1187 3025 
Q 903 2953 641 2809 
L 641 3341 
Q 956 3463 1253 3523 
Q 1550 3584 1831 3584 
Q 2591 3584 2966 3190 
Q 3341 2797 3341 1997 
z
" transform="scale(0.015625)"/>
       <path id="DejaVuSans-6e" d="M 3513 2113 
L 3513 0 
L 2938 0 
L 2938 2094 
Q 2938 2591 2744 2837 
Q 2550 3084 2163 3084 
Q 1697 3084 1428 2787 
Q 1159 2491 1159 1978 
L 1159 0 
L 581 0 
L 581 3500 
L 1159 3500 
L 1159 2956 
Q 1366 3272 1645 3428 
Q 1925 3584 2291 3584 
Q 2894 3584 3203 3211 
Q 3513 2838 3513 2113 
z
" transform="scale(0.015625)"/>
       <path id="DejaVuSans-69" d="M 603 3500 
L 1178 3500 
L 1178 0 
L 603 0 
L 603 3500 
z
M 603 4863 
L 1178 4863 
L 1178 4134 
L 603 4134 
L 603 4863 
z
" transform="scale(0.015625)"/>
       <path id="DejaVuSans-73" d="M 2834 3397 
L 2834 2853 
Q 2591 2978 2328 3040 
Q 2066 3103 1784 3103 
Q 1356 3103 1142 2972 
Q 928 2841 928 2578 
Q 928 2378 1081 2264 
Q 1234 2150 1697 2047 
L 1894 2003 
Q 2506 1872 2764 1633 
Q 3022 1394 3022 966 
Q 3022 478 2636 193 
Q 2250 -91 1575 -91 
Q 1294 -91 989 -36 
Q 684 19 347 128 
L 347 722 
Q 666 556 975 473 
Q 1284 391 1588 391 
Q 1994 391 2212 530 
Q 2431 669 2431 922 
Q 2431 1156 2273 1281 
Q 2116 1406 1581 1522 
L 1381 1569 
Q 847 1681 609 1914 
Q 372 2147 372 2553 
Q 372 3047 722 3315 
Q 1072 3584 1716 3584 
Q 2034 3584 2315 3537 
Q 2597 3491 2834 3397 
z
" transform="scale(0.015625)"/>
       <path id="DejaVuSans-72" d="M 2631 2963 
Q 2534 3019 2420 3045 
Q 2306 3072 2169 3072 
Q 1681 3072 1420 2755 
Q 1159 2438 1159 1844 
L 1159 0 
L 581 0 
L 581 3500 
L 1159 3500 
L 1159 2956 
Q 1341 3275 1631 3429 
Q 1922 3584 2338 3584 
Q 2397 3584 2469 3576 
Q 2541 3569 2628 3553 
L 2631 2963 
z
" transform="scale(0.015625)"/>
       <path id="DejaVuSans-44" d="M 1259 4147 
L 1259 519 
L 2022 519 
Q 2988 519 3436 956 
Q 3884 1394 3884 2338 
Q 3884 3275 3436 3711 
Q 2988 4147 2022 4147 
L 1259 4147 
z
M 628 4666 
L 1925 4666 
Q 3281 4666 3915 4102 
Q 4550 3538 4550 2338 
Q 4550 1131 3912 565 
Q 3275 0 1925 0 
L 628 0 
L 628 4666 
z
" transform="scale(0.015625)"/>
       <path id="DejaVuSans-67" d="M 2906 1791 
Q 2906 2416 2648 2759 
Q 2391 3103 1925 3103 
Q 1463 3103 1205 2759 
Q 947 2416 947 1791 
Q 947 1169 1205 825 
Q 1463 481 1925 481 
Q 2391 481 2648 825 
Q 2906 1169 2906 1791 
z
M 3481 434 
Q 3481 -459 3084 -895 
Q 2688 -1331 1869 -1331 
Q 1566 -1331 1297 -1286 
Q 1028 -1241 775 -1147 
L 775 -588 
Q 1028 -725 1275 -790 
Q 1522 -856 1778 -856 
Q 2344 -856 2625 -561 
Q 2906 -266 2906 331 
L 2906 616 
Q 2728 306 2450 153 
Q 2172 0 1784 0 
Q 1141 0 747 490 
Q 353 981 353 1791 
Q 353 2603 747 3093 
Q 1141 3584 1784 3584 
Q 2172 3584 2450 3431 
Q 2728 3278 2906 2969 
L 2906 3500 
L 3481 3500 
L 3481 434 
z
" transform="scale(0.015625)"/>
       <path id="DejaVuSans-64" d="M 2906 2969 
L 2906 4863 
L 3481 4863 
L 3481 0 
L 2906 0 
L 2906 525 
Q 2725 213 2448 61 
Q 2172 -91 1784 -91 
Q 1150 -91 751 415 
Q 353 922 353 1747 
Q 353 2572 751 3078 
Q 1150 3584 1784 3584 
Q 2172 3584 2448 3432 
Q 2725 3281 2906 2969 
z
M 947 1747 
Q 947 1113 1208 752 
Q 1469 391 1925 391 
Q 2381 391 2643 752 
Q 2906 1113 2906 1747 
Q 2906 2381 2643 2742 
Q 2381 3103 1925 3103 
Q 1469 3103 1208 2742 
Q 947 2381 947 1747 
z
" transform="scale(0.015625)"/>
       <path id="DejaVuSans-74" d="M 1172 4494 
L 1172 3500 
L 2356 3500 
L 2356 3053 
L 1172 3053 
L 1172 1153 
Q 1172 725 1289 603 
Q 1406 481 1766 481 
L 2356 481 
L 2356 0 
L 1766 0 
Q 1100 0 847 248 
Q 594 497 594 1153 
L 594 3053 
L 172 3053 
L 172 3500 
L 594 3500 
L 594 4494 
L 1172 4494 
z
" transform="scale(0.015625)"/>
       <path id="DejaVuSans-6f" d="M 1959 3097 
Q 1497 3097 1228 2736 
Q 959 2375 959 1747 
Q 959 1119 1226 758 
Q 1494 397 1959 397 
Q 2419 397 2687 759 
Q 2956 1122 2956 1747 
Q 2956 2369 2687 2733 
Q 2419 3097 1959 3097 
z
M 1959 3584 
Q 2709 3584 3137 3096 
Q 3566 2609 3566 1747 
Q 3566 888 3137 398 
Q 2709 -91 1959 -91 
Q 1206 -91 779 398 
Q 353 888 353 1747 
Q 353 2609 779 3096 
Q 1206 3584 1959 3584 
z
" transform="scale(0.015625)"/>
       <path id="DejaVuSans-6c" d="M 603 4863 
L 1178 4863 
L 1178 0 
L 603 0 
L 603 4863 
z
" transform="scale(0.015625)"/>
      </defs>
      <use xlink:href="#DejaVuSans-3c1"/>
      <use xlink:href="#DejaVuSans-5f" transform="translate(63.476562 0)"/>
      <use xlink:href="#DejaVuSans-4d" transform="translate(113.476562 0)"/>
      <use xlink:href="#DejaVuSans-20" transform="translate(199.755859 0)"/>
      <use xlink:href="#DejaVuSans-2013" transform="translate(231.542969 0)"/>
      <use xlink:href="#DejaVuSans-20" transform="translate(281.542969 0)"/>
      <use xlink:href="#DejaVuSans-6d" transform="translate(313.330078 0)"/>
      <use xlink:href="#DejaVuSans-65" transform="translate(410.742188 0)"/>
      <use xlink:href="#DejaVuSans-63" transform="translate(472.265625 0)"/>
      <use xlink:href="#DejaVuSans-68" transform="translate(527.246094 0)"/>
      <use xlink:href="#DejaVuSans-61" transform="translate(590.625 0)"/>
      <use xlink:href="#DejaVuSans-6e" transform="translate(651.904297 0)"/>
      <use xlink:href="#DejaVuSans-69" transform="translate(715.283203 0)"/>
      <use xlink:href="#DejaVuSans-73" transform="translate(743.066406 0)"/>
      <use xlink:href="#DejaVuSans-63" transform="translate(795.166016 0)"/>
      <use xlink:href="#DejaVuSans-68" transform="translate(850.146484 0)"/>
      <use xlink:href="#DejaVuSans-65" transform="translate(913.525391 0)"/>
      <use xlink:href="#DejaVuSans-72" transform="translate(975.048828 0)"/>
      <use xlink:href="#DejaVuSans-20" transform="translate(1016.162109 0)"/>
      <use xlink:href="#DejaVuSans-44" transform="translate(1047.949219 0)"/>
      <use xlink:href="#DejaVuSans-65" transform="translate(1124.951172 0)"/>
      <use xlink:href="#DejaVuSans-67" transform="translate(1186.474609 0)"/>
      <use xlink:href="#DejaVuSans-72" transform="translate(1249.951172 0)"/>
      <use xlink:href="#DejaVuSans-61" transform="translate(1291.064453 0)"/>
      <use xlink:href="#DejaVuSans-64" transform="translate(1352.34375 0)"/>
      <use xlink:href="#DejaVuSans-61" transform="translate(1415.820312 0)"/>
      <use xlink:href="#DejaVuSans-74" transform="translate(1477.099609 0)"/>
      <use xlink:href="#DejaVuSans-69" transform="translate(1516.308594 0)"/>
      <use xlink:href="#DejaVuSans-6f" transform="translate(1544.091797 0)"/>
      <use xlink:href="#DejaVuSans-6e" transform="translate(1605.273438 0)"/>
      <use xlink:href="#DejaVuSans-73" transform="translate(1668.652344 0)"/>
      <use xlink:href="#DejaVuSans-61" transform="translate(1720.751953 0)"/>
      <use xlink:href="#DejaVuSans-6e" transform="translate(1782.03125 0)"/>
      <use xlink:href="#DejaVuSans-74" transform="translate(1845.410156 0)"/>
      <use xlink:href="#DejaVuSans-65" transform="translate(1884.619141 0)"/>
      <use xlink:href="#DejaVuSans-69" transform="translate(1946.142578 0)"/>
      <use xlink:href="#DejaVuSans-6c" transform="translate(1973.925781 0)"/>
     </g>
    </g>
   </g>
   <g id="matplotlib.axis_2">
    <g id="ytick_1">
     <g id="line2d_13">
      <path d="M 40.603125 317.335196 
L 465.930697 317.335196 
" clip-path="url(#p0361f43baa)" style="fill: none; stroke-dasharray: 2.96,1.28; stroke-dashoffset: 0; stroke: #b0b0b0; stroke-opacity: 0.3; stroke-width: 0.8"/>
     </g>
     <g id="line2d_14">
      <defs>
       <path id="m6bda3fe867" d="M 0 0 
L -3.5 0 
" style="stroke: #000000; stroke-width: 0.8"/>
      </defs>
      <g>
       <use xlink:href="#m6bda3fe867" x="40.603125" y="317.335196" style="stroke: #000000; stroke-width: 0.8"/>
      </g>
     </g>
     <g id="text_8">
      <!-- 2 -->
      <g transform="translate(27.240625 321.134414) scale(0.1 -0.1)">
       <use xlink:href="#DejaVuSans-32"/>
      </g>
     </g>
    </g>
    <g id="ytick_2">
     <g id="line2d_15">
      <path d="M 40.603125 284.260323 
L 465.930697 284.260323 
" clip-path="url(#p0361f43baa)" style="fill: none; stroke-dasharray: 2.96,1.28; stroke-dashoffset: 0; stroke: #b0b0b0; stroke-opacity: 0.3; stroke-width: 0.8"/>
     </g>
     <g id="line2d_16">
      <g>
       <use xlink:href="#m6bda3fe867" x="40.603125" y="284.260323" style="stroke: #000000; stroke-width: 0.8"/>
      </g>
     </g>
     <g id="text_9">
      <!-- 3 -->
      <g transform="translate(27.240625 288.059541) scale(0.1 -0.1)">
       <defs>
        <path id="DejaVuSans-33" d="M 2597 2516 
Q 3050 2419 3304 2112 
Q 3559 1806 3559 1356 
Q 3559 666 3084 287 
Q 2609 -91 1734 -91 
Q 1441 -91 1130 -33 
Q 819 25 488 141 
L 488 750 
Q 750 597 1062 519 
Q 1375 441 1716 441 
Q 2309 441 2620 675 
Q 2931 909 2931 1356 
Q 2931 1769 2642 2001 
Q 2353 2234 1838 2234 
L 1294 2234 
L 1294 2753 
L 1863 2753 
Q 2328 2753 2575 2939 
Q 2822 3125 2822 3475 
Q 2822 3834 2567 4026 
Q 2313 4219 1838 4219 
Q 1578 4219 1281 4162 
Q 984 4106 628 3988 
L 628 4550 
Q 988 4650 1302 4700 
Q 1616 4750 1894 4750 
Q 2613 4750 3031 4423 
Q 3450 4097 3450 3541 
Q 3450 3153 3228 2886 
Q 3006 2619 2597 2516 
z
" transform="scale(0.015625)"/>
       </defs>
       <use xlink:href="#DejaVuSans-33"/>
      </g>
     </g>
    </g>
    <g id="ytick_3">
     <g id="line2d_17">
      <path d="M 40.603125 251.185449 
L 465.930697 251.185449 
" clip-path="url(#p0361f43baa)" style="fill: none; stroke-dasharray: 2.96,1.28; stroke-dashoffset: 0; stroke: #b0b0b0; stroke-opacity: 0.3; stroke-width: 0.8"/>
     </g>
     <g id="line2d_18">
      <g>
       <use xlink:href="#m6bda3fe867" x="40.603125" y="251.185449" style="stroke: #000000; stroke-width: 0.8"/>
      </g>
     </g>
     <g id="text_10">
      <!-- 4 -->
      <g transform="translate(27.240625 254.984668) scale(0.1 -0.1)">
       <use xlink:href="#DejaVuSans-34"/>
      </g>
     </g>
    </g>
    <g id="ytick_4">
     <g id="line2d_19">
      <path d="M 40.603125 218.110576 
L 465.930697 218.110576 
" clip-path="url(#p0361f43baa)" style="fill: none; stroke-dasharray: 2.96,1.28; stroke-dashoffset: 0; stroke: #b0b0b0; stroke-opacity: 0.3; stroke-width: 0.8"/>
     </g>
     <g id="line2d_20">
      <g>
       <use xlink:href="#m6bda3fe867" x="40.603125" y="218.110576" style="stroke: #000000; stroke-width: 0.8"/>
      </g>
     </g>
     <g id="text_11">
      <!-- 5 -->
      <g transform="translate(27.240625 221.909795) scale(0.1 -0.1)">
       <defs>
        <path id="DejaVuSans-35" d="M 691 4666 
L 3169 4666 
L 3169 4134 
L 1269 4134 
L 1269 2991 
Q 1406 3038 1543 3061 
Q 1681 3084 1819 3084 
Q 2600 3084 3056 2656 
Q 3513 2228 3513 1497 
Q 3513 744 3044 326 
Q 2575 -91 1722 -91 
Q 1428 -91 1123 -41 
Q 819 9 494 109 
L 494 744 
Q 775 591 1075 516 
Q 1375 441 1709 441 
Q 2250 441 2565 725 
Q 2881 1009 2881 1497 
Q 2881 1984 2565 2268 
Q 2250 2553 1709 2553 
Q 1456 2553 1204 2497 
Q 953 2441 691 2322 
L 691 4666 
z
" transform="scale(0.015625)"/>
       </defs>
       <use xlink:href="#DejaVuSans-35"/>
      </g>
     </g>
    </g>
    <g id="ytick_5">
     <g id="line2d_21">
      <path d="M 40.603125 185.035703 
L 465.930697 185.035703 
" clip-path="url(#p0361f43baa)" style="fill: none; stroke-dasharray: 2.96,1.28; stroke-dashoffset: 0; stroke: #b0b0b0; stroke-opacity: 0.3; stroke-width: 0.8"/>
     </g>
     <g id="line2d_22">
      <g>
       <use xlink:href="#m6bda3fe867" x="40.603125" y="185.035703" style="stroke: #000000; stroke-width: 0.8"/>
      </g>
     </g>
     <g id="text_12">
      <!-- 6 -->
      <g transform="translate(27.240625 188.834922) scale(0.1 -0.1)">
       <use xlink:href="#DejaVuSans-36"/>
      </g>
     </g>
    </g>
    <g id="ytick_6">
     <g id="line2d_23">
      <path d="M 40.603125 151.96083 
L 465.930697 151.96083 
" clip-path="url(#p0361f43baa)" style="fill: none; stroke-dasharray: 2.96,1.28; stroke-dashoffset: 0; stroke: #b0b0b0; stroke-opacity: 0.3; stroke-width: 0.8"/>
     </g>
     <g id="line2d_24">
      <g>
       <use xlink:href="#m6bda3fe867" x="40.603125" y="151.96083" style="stroke: #000000; stroke-width: 0.8"/>
      </g>
     </g>
     <g id="text_13">
      <!-- 7 -->
      <g transform="translate(27.240625 155.760049) scale(0.1 -0.1)">
       <defs>
        <path id="DejaVuSans-37" d="M 525 4666 
L 3525 4666 
L 3525 4397 
L 1831 0 
L 1172 0 
L 2766 4134 
L 525 4134 
L 525 4666 
z
" transform="scale(0.015625)"/>
       </defs>
       <use xlink:href="#DejaVuSans-37"/>
      </g>
     </g>
    </g>
    <g id="ytick_7">
     <g id="line2d_25">
      <path d="M 40.603125 118.885957 
L 465.930697 118.885957 
" clip-path="url(#p0361f43baa)" style="fill: none; stroke-dasharray: 2.96,1.28; stroke-dashoffset: 0; stroke: #b0b0b0; stroke-opacity: 0.3; stroke-width: 0.8"/>
     </g>
     <g id="line2d_26">
      <g>
       <use xlink:href="#m6bda3fe867" x="40.603125" y="118.885957" style="stroke: #000000; stroke-width: 0.8"/>
      </g>
     </g>
     <g id="text_14">
      <!-- 8 -->
      <g transform="translate(27.240625 122.685176) scale(0.1 -0.1)">
       <use xlink:href="#DejaVuSans-38"/>
      </g>
     </g>
    </g>
    <g id="ytick_8">
     <g id="line2d_27">
      <path d="M 40.603125 85.811084 
L 465.930697 85.811084 
" clip-path="url(#p0361f43baa)" style="fill: none; stroke-dasharray: 2.96,1.28; stroke-dashoffset: 0; stroke: #b0b0b0; stroke-opacity: 0.3; stroke-width: 0.8"/>
     </g>
     <g id="line2d_28">
      <g>
       <use xlink:href="#m6bda3fe867" x="40.603125" y="85.811084" style="stroke: #000000; stroke-width: 0.8"/>
      </g>
     </g>
     <g id="text_15">
      <!-- 9 -->
      <g transform="translate(27.240625 89.610302) scale(0.1 -0.1)">
       <defs>
        <path id="DejaVuSans-39" d="M 703 97 
L 703 672 
Q 941 559 1184 500 
Q 1428 441 1663 441 
Q 2288 441 2617 861 
Q 2947 1281 2994 2138 
Q 2813 1869 2534 1725 
Q 2256 1581 1919 1581 
Q 1219 1581 811 2004 
Q 403 2428 403 3163 
Q 403 3881 828 4315 
Q 1253 4750 1959 4750 
Q 2769 4750 3195 4129 
Q 3622 3509 3622 2328 
Q 3622 1225 3098 567 
Q 2575 -91 1691 -91 
Q 1453 -91 1209 -44 
Q 966 3 703 97 
z
M 1959 2075 
Q 2384 2075 2632 2365 
Q 2881 2656 2881 3163 
Q 2881 3666 2632 3958 
Q 2384 4250 1959 4250 
Q 1534 4250 1286 3958 
Q 1038 3666 1038 3163 
Q 1038 2656 1286 2365 
Q 1534 2075 1959 2075 
z
" transform="scale(0.015625)"/>
       </defs>
       <use xlink:href="#DejaVuSans-39"/>
      </g>
     </g>
    </g>
    <g id="ytick_9">
     <g id="line2d_29">
      <path d="M 40.603125 52.736211 
L 465.930697 52.736211 
" clip-path="url(#p0361f43baa)" style="fill: none; stroke-dasharray: 2.96,1.28; stroke-dashoffset: 0; stroke: #b0b0b0; stroke-opacity: 0.3; stroke-width: 0.8"/>
     </g>
     <g id="line2d_30">
      <g>
       <use xlink:href="#m6bda3fe867" x="40.603125" y="52.736211" style="stroke: #000000; stroke-width: 0.8"/>
      </g>
     </g>
     <g id="text_16">
      <!-- 10 -->
      <g transform="translate(20.878125 56.535429) scale(0.1 -0.1)">
       <use xlink:href="#DejaVuSans-31"/>
       <use xlink:href="#DejaVuSans-30" transform="translate(63.623047 0)"/>
      </g>
     </g>
    </g>
    <g id="text_17">
     <!-- Φ_ges -->
     <g transform="translate(14.520313 200.327109) rotate(-90) scale(0.1 -0.1)">
      <defs>
       <path id="DejaVuSans-3a6" d="M 2206 3644 
Q 1738 3578 1431 3306 
Q 1025 2947 1025 2328 
Q 1025 1713 1431 1353 
Q 1738 1081 2206 1016 
L 2206 3644 
z
M 2838 1016 
Q 3306 1081 3613 1353 
Q 4013 1713 4013 2328 
Q 4013 2947 3613 3306 
Q 3306 3578 2838 3644 
L 2838 1016 
z
M 2206 494 
Q 1444 563 950 981 
Q 359 1481 359 2328 
Q 359 3175 950 3678 
Q 1441 4100 2206 4169 
L 2206 4666 
L 2838 4666 
L 2838 4169 
Q 3600 4097 4091 3678 
Q 4678 3175 4678 2328 
Q 4678 1484 4091 981 
Q 3600 563 2838 491 
L 2838 0 
L 2206 0 
L 2206 494 
z
" transform="scale(0.015625)"/>
      </defs>
      <use xlink:href="#DejaVuSans-3a6"/>
      <use xlink:href="#DejaVuSans-5f" transform="translate(78.710938 0)"/>
      <use xlink:href="#DejaVuSans-67" transform="translate(128.710938 0)"/>
      <use xlink:href="#DejaVuSans-65" transform="translate(192.1875 0)"/>
      <use xlink:href="#DejaVuSans-73" transform="translate(253.710938 0)"/>
     </g>
    </g>
   </g>
   <g id="line2d_31">
    <path d="M 59.936196 317.335196 
L 79.333927 314.569353 
L 97.438476 311.77075 
L 114.249842 308.960548 
L 131.061209 305.921122 
L 146.579393 302.88684 
L 160.804395 299.889109 
L 175.029398 296.65977 
L 187.961218 293.499618 
L 200.893039 290.100739 
L 212.531677 286.814492 
L 224.170315 283.288518 
L 234.515772 279.931151 
L 244.861228 276.340987 
L 255.206684 272.492943 
L 264.258959 268.891813 
L 273.311233 265.049169 
L 282.363507 260.939873 
L 290.122599 257.183702 
L 297.881692 253.189987 
L 305.640784 248.935458 
L 313.399876 244.393703 
L 319.865786 240.367908 
L 326.331696 236.102124 
L 332.797607 231.574234 
L 339.263517 226.759315 
L 345.729427 221.62918 
L 350.902155 217.276756 
L 356.074883 212.683784 
L 361.247611 207.829754 
L 366.42034 202.69176 
L 371.593068 197.244131 
L 376.765796 191.458009 
L 381.938524 185.300832 
L 387.111252 178.735727 
L 392.28398 171.720765 
L 396.163527 166.135776 
L 400.043073 160.248214 
L 403.922619 154.032806 
L 407.802165 147.461384 
L 411.681711 140.502459 
L 415.561257 133.120712 
L 419.440803 125.276402 
L 423.320349 116.924644 
L 427.199895 108.01455 
L 431.079442 98.488196 
L 434.958988 88.279358 
L 438.838534 77.311968 
L 442.71808 65.498219 
L 446.597626 52.736211 
L 446.597626 52.736211 
" clip-path="url(#p0361f43baa)" style="fill: none; stroke: #1f77b4; stroke-width: 1.5; stroke-linecap: square"/>
   </g>
   <g id="line2d_32">
    <path d="M 59.936196 317.335196 
L 85.799837 314.569353 
L 110.370296 311.718708 
L 133.647573 308.791686 
L 155.631667 305.799262 
L 176.32258 302.755252 
L 195.720311 299.676577 
L 213.824859 296.583474 
L 230.636226 293.499618 
L 247.447592 290.188838 
L 262.965777 286.908896 
L 278.483961 283.389931 
L 292.708963 279.931151 
L 305.640784 276.572649 
L 318.572604 272.988997 
L 330.211243 269.551911 
L 341.849881 265.894133 
L 353.488519 261.9937 
L 363.833976 258.302827 
L 374.179432 254.380672 
L 384.524888 250.204793 
L 393.577162 246.322847 
L 402.629437 242.207984 
L 411.681711 237.838593 
L 420.733985 233.190306 
L 428.493077 228.963269 
L 436.25217 224.491581 
L 444.011262 219.753368 
L 446.597626 218.110576 
L 446.597626 218.110576 
" clip-path="url(#p0361f43baa)" style="fill: none; stroke: #ff7f0e; stroke-width: 1.5; stroke-linecap: square"/>
   </g>
   <g id="line2d_33">
    <path d="M 59.936196 317.335196 
L 98.731658 314.569353 
L 134.940755 311.77075 
L 169.85667 308.848058 
L 202.186221 305.921122 
L 233.22259 302.88684 
L 261.672595 299.889109 
L 288.829417 296.811962 
L 314.693058 293.663079 
L 339.263517 290.452138 
L 362.540794 287.191008 
L 384.524888 283.893934 
L 405.215801 280.577688 
L 425.906713 277.032982 
L 445.304444 273.480636 
L 446.597626 273.235365 
L 446.597626 273.235365 
" clip-path="url(#p0361f43baa)" style="fill: none; stroke: #2ca02c; stroke-width: 1.5; stroke-linecap: square"/>
   </g>
   <g id="line2d_34">
    <path d="M 59.936196 317.335196 
L 446.597626 317.335196 
L 446.597626 317.335196 
" clip-path="url(#p0361f43baa)" style="fill: none; stroke: #d62728; stroke-width: 1.5; stroke-linecap: square"/>
   </g>
   <g id="line2d_35">
    <path d="M 40.603125 317.335196 
L 465.930697 317.335196 
" clip-path="url(#p0361f43baa)" style="fill: none; stroke-dasharray: 3.33,1.44; stroke-dashoffset: 0; stroke: #808080; stroke-width: 0.9"/>
   </g>
   <g id="patch_3">
    <path d="M 40.603125 330.565145 
L 40.603125 39.506261 
" style="fill: none; stroke: #000000; stroke-width: 0.8; stroke-linejoin: miter; stroke-linecap: square"/>
   </g>
   <g id="patch_4">
    <path d="M 40.603125 330.565145 
L 465.930697 330.565145 
" style="fill: none; stroke: #000000; stroke-width: 0.8; stroke-linejoin: miter; stroke-linecap: square"/>
   </g>
   <g id="text_18">
    <!-- Φ_ges vs. ρ_M  (Φ = 2.0) -->
    <g transform="translate(178.249489 33.506261) scale(0.11 -0.11)">
     <defs>
      <path id="DejaVuSans-Bold-3a6" d="M 2119 3213 
Q 1975 3153 1866 3059 
Q 1563 2800 1563 2328 
Q 1563 1847 1866 1600 
Q 1972 1506 2119 1447 
L 2119 3213 
z
M 3322 1447 
Q 3469 1506 3575 1600 
Q 3878 1884 3878 2328 
Q 3878 2788 3575 3059 
Q 3472 3153 3322 3213 
L 3322 1447 
z
M 2119 506 
Q 1416 606 956 963 
Q 319 1456 319 2328 
Q 319 3203 956 3697 
Q 1416 4053 2119 4153 
L 2119 4666 
L 3322 4666 
L 3322 4153 
Q 4025 4053 4481 3697 
Q 5119 3203 5119 2328 
Q 5119 1456 4481 963 
Q 4025 609 3322 506 
L 3322 0 
L 2119 0 
L 2119 506 
z
" transform="scale(0.015625)"/>
      <path id="DejaVuSans-Bold-5f" d="M 3200 -916 
L 3200 -1509 
L 0 -1509 
L 0 -916 
L 3200 -916 
z
" transform="scale(0.015625)"/>
      <path id="DejaVuSans-Bold-67" d="M 2919 594 
Q 2688 288 2409 144 
Q 2131 0 1766 0 
Q 1125 0 706 504 
Q 288 1009 288 1791 
Q 288 2575 706 3076 
Q 1125 3578 1766 3578 
Q 2131 3578 2409 3434 
Q 2688 3291 2919 2981 
L 2919 3500 
L 4044 3500 
L 4044 353 
Q 4044 -491 3511 -936 
Q 2978 -1381 1966 -1381 
Q 1638 -1381 1331 -1331 
Q 1025 -1281 716 -1178 
L 716 -306 
Q 1009 -475 1290 -558 
Q 1572 -641 1856 -641 
Q 2406 -641 2662 -400 
Q 2919 -159 2919 353 
L 2919 594 
z
M 2181 2772 
Q 1834 2772 1640 2515 
Q 1447 2259 1447 1791 
Q 1447 1309 1634 1061 
Q 1822 813 2181 813 
Q 2531 813 2725 1069 
Q 2919 1325 2919 1791 
Q 2919 2259 2725 2515 
Q 2531 2772 2181 2772 
z
" transform="scale(0.015625)"/>
      <path id="DejaVuSans-Bold-65" d="M 4031 1759 
L 4031 1441 
L 1416 1441 
Q 1456 1047 1700 850 
Q 1944 653 2381 653 
Q 2734 653 3104 758 
Q 3475 863 3866 1075 
L 3866 213 
Q 3469 63 3072 -14 
Q 2675 -91 2278 -91 
Q 1328 -91 801 392 
Q 275 875 275 1747 
Q 275 2603 792 3093 
Q 1309 3584 2216 3584 
Q 3041 3584 3536 3087 
Q 4031 2591 4031 1759 
z
M 2881 2131 
Q 2881 2450 2695 2645 
Q 2509 2841 2209 2841 
Q 1884 2841 1681 2658 
Q 1478 2475 1428 2131 
L 2881 2131 
z
" transform="scale(0.015625)"/>
      <path id="DejaVuSans-Bold-73" d="M 3272 3391 
L 3272 2541 
Q 2913 2691 2578 2766 
Q 2244 2841 1947 2841 
Q 1628 2841 1473 2761 
Q 1319 2681 1319 2516 
Q 1319 2381 1436 2309 
Q 1553 2238 1856 2203 
L 2053 2175 
Q 2913 2066 3209 1816 
Q 3506 1566 3506 1031 
Q 3506 472 3093 190 
Q 2681 -91 1863 -91 
Q 1516 -91 1145 -36 
Q 775 19 384 128 
L 384 978 
Q 719 816 1070 734 
Q 1422 653 1784 653 
Q 2113 653 2278 743 
Q 2444 834 2444 1013 
Q 2444 1163 2330 1236 
Q 2216 1309 1875 1350 
L 1678 1375 
Q 931 1469 631 1722 
Q 331 1975 331 2491 
Q 331 3047 712 3315 
Q 1094 3584 1881 3584 
Q 2191 3584 2531 3537 
Q 2872 3491 3272 3391 
z
" transform="scale(0.015625)"/>
      <path id="DejaVuSans-Bold-20" transform="scale(0.015625)"/>
      <path id="DejaVuSans-Bold-76" d="M 97 3500 
L 1216 3500 
L 2088 1081 
L 2956 3500 
L 4078 3500 
L 2700 0 
L 1472 0 
L 97 3500 
z
" transform="scale(0.015625)"/>
      <path id="DejaVuSans-Bold-2e" d="M 653 1209 
L 1778 1209 
L 1778 0 
L 653 0 
L 653 1209 
z
" transform="scale(0.015625)"/>
      <path id="DejaVuSans-Bold-3c1" d="M 1003 3013 
Q 1425 3413 1809 3500 
Q 2203 3594 2581 3594 
Q 2700 3594 2816 3584 
Q 3425 3538 3878 3069 
Q 4294 2631 4294 1747 
Q 4294 938 3878 423 
Q 3463 -91 2816 -91 
Q 2450 -91 2169 54 
Q 1888 200 1656 506 
L 1656 -1331 
L 538 -1331 
L 538 1688 
Q 538 2566 1003 3013 
z
M 2400 2772 
Q 2041 2772 1848 2508 
Q 1656 2244 1656 1747 
Q 1656 1250 1848 986 
Q 2041 722 2400 722 
Q 2759 722 2948 984 
Q 3138 1247 3138 1747 
Q 3138 2247 2948 2509 
Q 2759 2772 2400 2772 
z
" transform="scale(0.015625)"/>
      <path id="DejaVuSans-Bold-4d" d="M 588 4666 
L 2119 4666 
L 3181 2169 
L 4250 4666 
L 5778 4666 
L 5778 0 
L 4641 0 
L 4641 3413 
L 3566 897 
L 2803 897 
L 1728 3413 
L 1728 0 
L 588 0 
L 588 4666 
z
" transform="scale(0.015625)"/>
      <path id="DejaVuSans-Bold-28" d="M 2413 -844 
L 1484 -844 
Q 1006 -72 778 623 
Q 550 1319 550 2003 
Q 550 2688 779 3389 
Q 1009 4091 1484 4856 
L 2413 4856 
Q 2013 4116 1813 3408 
Q 1613 2700 1613 2009 
Q 1613 1319 1811 609 
Q 2009 -100 2413 -844 
z
" transform="scale(0.015625)"/>
      <path id="DejaVuSans-Bold-3d" d="M 678 3084 
L 4684 3084 
L 4684 2350 
L 678 2350 
L 678 3084 
z
M 678 1663 
L 4684 1663 
L 4684 922 
L 678 922 
L 678 1663 
z
" transform="scale(0.015625)"/>
      <path id="DejaVuSans-Bold-32" d="M 1844 884 
L 3897 884 
L 3897 0 
L 506 0 
L 506 884 
L 2209 2388 
Q 2438 2594 2547 2791 
Q 2656 2988 2656 3200 
Q 2656 3528 2436 3728 
Q 2216 3928 1850 3928 
Q 1569 3928 1234 3808 
Q 900 3688 519 3450 
L 519 4475 
Q 925 4609 1322 4679 
Q 1719 4750 2100 4750 
Q 2938 4750 3402 4381 
Q 3866 4013 3866 3353 
Q 3866 2972 3669 2642 
Q 3472 2313 2841 1759 
L 1844 884 
z
" transform="scale(0.015625)"/>
      <path id="DejaVuSans-Bold-30" d="M 2944 2338 
Q 2944 3213 2780 3570 
Q 2616 3928 2228 3928 
Q 1841 3928 1675 3570 
Q 1509 3213 1509 2338 
Q 1509 1453 1675 1090 
Q 1841 728 2228 728 
Q 2613 728 2778 1090 
Q 2944 1453 2944 2338 
z
M 4147 2328 
Q 4147 1169 3647 539 
Q 3147 -91 2228 -91 
Q 1306 -91 806 539 
Q 306 1169 306 2328 
Q 306 3491 806 4120 
Q 1306 4750 2228 4750 
Q 3147 4750 3647 4120 
Q 4147 3491 4147 2328 
z
" transform="scale(0.015625)"/>
      <path id="DejaVuSans-Bold-29" d="M 513 -844 
Q 913 -100 1113 609 
Q 1313 1319 1313 2009 
Q 1313 2700 1113 3408 
Q 913 4116 513 4856 
L 1441 4856 
Q 1916 4091 2145 3389 
Q 2375 2688 2375 2003 
Q 2375 1319 2147 623 
Q 1919 -72 1441 -844 
L 513 -844 
z
" transform="scale(0.015625)"/>
     </defs>
     <use xlink:href="#DejaVuSans-Bold-3a6"/>
     <use xlink:href="#DejaVuSans-Bold-5f" transform="translate(85.009766 0)"/>
     <use xlink:href="#DejaVuSans-Bold-67" transform="translate(135.009766 0)"/>
     <use xlink:href="#DejaVuSans-Bold-65" transform="translate(206.591797 0)"/>
     <use xlink:href="#DejaVuSans-Bold-73" transform="translate(274.414062 0)"/>
     <use xlink:href="#DejaVuSans-Bold-20" transform="translate(333.935547 0)"/>
     <use xlink:href="#DejaVuSans-Bold-76" transform="translate(368.75 0)"/>
     <use xlink:href="#DejaVuSans-Bold-73" transform="translate(433.935547 0)"/>
     <use xlink:href="#DejaVuSans-Bold-2e" transform="translate(493.457031 0)"/>
     <use xlink:href="#DejaVuSans-Bold-20" transform="translate(531.445312 0)"/>
     <use xlink:href="#DejaVuSans-Bold-3c1" transform="translate(566.259766 0)"/>
     <use xlink:href="#DejaVuSans-Bold-5f" transform="translate(637.841797 0)"/>
     <use xlink:href="#DejaVuSans-Bold-4d" transform="translate(687.841797 0)"/>
     <use xlink:href="#DejaVuSans-Bold-20" transform="translate(787.353516 0)"/>
     <use xlink:href="#DejaVuSans-Bold-20" transform="translate(822.167969 0)"/>
     <use xlink:href="#DejaVuSans-Bold-28" transform="translate(856.982422 0)"/>
     <use xlink:href="#DejaVuSans-Bold-3a6" transform="translate(902.685547 0)"/>
     <use xlink:href="#DejaVuSans-Bold-20" transform="translate(987.695312 0)"/>
     <use xlink:href="#DejaVuSans-Bold-3d" transform="translate(1022.509766 0)"/>
     <use xlink:href="#DejaVuSans-Bold-20" transform="translate(1106.298828 0)"/>
     <use xlink:href="#DejaVuSans-Bold-32" transform="translate(1141.113281 0)"/>
     <use xlink:href="#DejaVuSans-Bold-2e" transform="translate(1210.693359 0)"/>
     <use xlink:href="#DejaVuSans-Bold-30" transform="translate(1248.681641 0)"/>
     <use xlink:href="#DejaVuSans-Bold-29" transform="translate(1318.261719 0)"/>
    </g>
   </g>
   <g id="legend_1">
    <g id="patch_5">
     <path d="M 46.903125 113.759074 
L 188.445 113.759074 
Q 190.245 113.759074 190.245 111.959074 
L 190.245 45.806261 
Q 190.245 44.006261 188.445 44.006261 
L 46.903125 44.006261 
Q 45.103125 44.006261 45.103125 45.806261 
L 45.103125 111.959074 
Q 45.103125 113.759074 46.903125 113.759074 
z
" style="fill: #ffffff; opacity: 0.85; stroke: #cccccc; stroke-linejoin: miter"/>
    </g>
    <g id="line2d_36">
     <path d="M 48.703125 51.294855 
L 57.703125 51.294855 
L 66.703125 51.294855 
" style="fill: none; stroke: #1f77b4; stroke-width: 1.5; stroke-linecap: square"/>
    </g>
    <g id="text_19">
     <!-- η_M = 0.1 -->
     <g transform="translate(73.903125 54.444855) scale(0.09 -0.09)">
      <defs>
       <path id="DejaVuSans-3b7" d="M 3513 2113 
L 3513 -1331 
L 2938 -1331 
L 2938 2094 
Q 2938 2591 2744 2837 
Q 2550 3084 2163 3084 
Q 1697 3084 1428 2787 
Q 1159 2491 1159 1978 
L 1159 0 
L 581 0 
L 581 3500 
L 1159 3500 
L 1159 2956 
Q 1366 3272 1644 3428 
Q 1925 3584 2291 3584 
Q 2894 3584 3203 3213 
Q 3513 2838 3513 2113 
z
" transform="scale(0.015625)"/>
       <path id="DejaVuSans-3d" d="M 678 2906 
L 4684 2906 
L 4684 2381 
L 678 2381 
L 678 2906 
z
M 678 1631 
L 4684 1631 
L 4684 1100 
L 678 1100 
L 678 1631 
z
" transform="scale(0.015625)"/>
      </defs>
      <use xlink:href="#DejaVuSans-3b7"/>
      <use xlink:href="#DejaVuSans-5f" transform="translate(63.378906 0)"/>
      <use xlink:href="#DejaVuSans-4d" transform="translate(113.378906 0)"/>
      <use xlink:href="#DejaVuSans-20" transform="translate(199.658203 0)"/>
      <use xlink:href="#DejaVuSans-3d" transform="translate(231.445312 0)"/>
      <use xlink:href="#DejaVuSans-20" transform="translate(315.234375 0)"/>
      <use xlink:href="#DejaVuSans-30" transform="translate(347.021484 0)"/>
      <use xlink:href="#DejaVuSans-2e" transform="translate(410.644531 0)"/>
      <use xlink:href="#DejaVuSans-31" transform="translate(442.431641 0)"/>
     </g>
    </g>
    <g id="line2d_37">
     <path d="M 48.703125 64.75548 
L 57.703125 64.75548 
L 66.703125 64.75548 
" style="fill: none; stroke: #ff7f0e; stroke-width: 1.5; stroke-linecap: square"/>
    </g>
    <g id="text_20">
     <!-- η_M = 0.2 -->
     <g transform="translate(73.903125 67.90548) scale(0.09 -0.09)">
      <use xlink:href="#DejaVuSans-3b7"/>
      <use xlink:href="#DejaVuSans-5f" transform="translate(63.378906 0)"/>
      <use xlink:href="#DejaVuSans-4d" transform="translate(113.378906 0)"/>
      <use xlink:href="#DejaVuSans-20" transform="translate(199.658203 0)"/>
      <use xlink:href="#DejaVuSans-3d" transform="translate(231.445312 0)"/>
      <use xlink:href="#DejaVuSans-20" transform="translate(315.234375 0)"/>
      <use xlink:href="#DejaVuSans-30" transform="translate(347.021484 0)"/>
      <use xlink:href="#DejaVuSans-2e" transform="translate(410.644531 0)"/>
      <use xlink:href="#DejaVuSans-32" transform="translate(442.431641 0)"/>
     </g>
    </g>
    <g id="line2d_38">
     <path d="M 48.703125 78.216105 
L 57.703125 78.216105 
L 66.703125 78.216105 
" style="fill: none; stroke: #2ca02c; stroke-width: 1.5; stroke-linecap: square"/>
    </g>
    <g id="text_21">
     <!-- η_M = 0.3 -->
     <g transform="translate(73.903125 81.366105) scale(0.09 -0.09)">
      <use xlink:href="#DejaVuSans-3b7"/>
      <use xlink:href="#DejaVuSans-5f" transform="translate(63.378906 0)"/>
      <use xlink:href="#DejaVuSans-4d" transform="translate(113.378906 0)"/>
      <use xlink:href="#DejaVuSans-20" transform="translate(199.658203 0)"/>
      <use xlink:href="#DejaVuSans-3d" transform="translate(231.445312 0)"/>
      <use xlink:href="#DejaVuSans-20" transform="translate(315.234375 0)"/>
      <use xlink:href="#DejaVuSans-30" transform="translate(347.021484 0)"/>
      <use xlink:href="#DejaVuSans-2e" transform="translate(410.644531 0)"/>
      <use xlink:href="#DejaVuSans-33" transform="translate(442.431641 0)"/>
     </g>
    </g>
    <g id="line2d_39">
     <path d="M 48.703125 91.67673 
L 57.703125 91.67673 
L 66.703125 91.67673 
" style="fill: none; stroke: #d62728; stroke-width: 1.5; stroke-linecap: square"/>
    </g>
    <g id="text_22">
     <!-- η_M = 0.5 -->
     <g transform="translate(73.903125 94.82673) scale(0.09 -0.09)">
      <use xlink:href="#DejaVuSans-3b7"/>
      <use xlink:href="#DejaVuSans-5f" transform="translate(63.378906 0)"/>
      <use xlink:href="#DejaVuSans-4d" transform="translate(113.378906 0)"/>
      <use xlink:href="#DejaVuSans-20" transform="translate(199.658203 0)"/>
      <use xlink:href="#DejaVuSans-3d" transform="translate(231.445312 0)"/>
      <use xlink:href="#DejaVuSans-20" transform="translate(315.234375 0)"/>
      <use xlink:href="#DejaVuSans-30" transform="translate(347.021484 0)"/>
      <use xlink:href="#DejaVuSans-2e" transform="translate(410.644531 0)"/>
      <use xlink:href="#DejaVuSans-35" transform="translate(442.431641 0)"/>
     </g>
    </g>
    <g id="line2d_40">
     <path d="M 48.703125 105.137355 
L 57.703125 105.137355 
L 66.703125 105.137355 
" style="fill: none; stroke-dasharray: 3.33,1.44; stroke-dashoffset: 0; stroke: #808080; stroke-width: 0.9"/>
    </g>
    <g id="text_23">
     <!-- Φ (ohne Mechanik) = 2.0 -->
     <g transform="translate(73.903125 108.287355) scale(0.09 -0.09)">
      <defs>
       <path id="DejaVuSans-28" d="M 1984 4856 
Q 1566 4138 1362 3434 
Q 1159 2731 1159 2009 
Q 1159 1288 1364 580 
Q 1569 -128 1984 -844 
L 1484 -844 
Q 1016 -109 783 600 
Q 550 1309 550 2009 
Q 550 2706 781 3412 
Q 1013 4119 1484 4856 
L 1984 4856 
z
" transform="scale(0.015625)"/>
       <path id="DejaVuSans-6b" d="M 581 4863 
L 1159 4863 
L 1159 1991 
L 2875 3500 
L 3609 3500 
L 1753 1863 
L 3688 0 
L 2938 0 
L 1159 1709 
L 1159 0 
L 581 0 
L 581 4863 
z
" transform="scale(0.015625)"/>
       <path id="DejaVuSans-29" d="M 513 4856 
L 1013 4856 
Q 1481 4119 1714 3412 
Q 1947 2706 1947 2009 
Q 1947 1309 1714 600 
Q 1481 -109 1013 -844 
L 513 -844 
Q 928 -128 1133 580 
Q 1338 1288 1338 2009 
Q 1338 2731 1133 3434 
Q 928 4138 513 4856 
z
" transform="scale(0.015625)"/>
      </defs>
      <use xlink:href="#DejaVuSans-3a6"/>
      <use xlink:href="#DejaVuSans-20" transform="translate(78.710938 0)"/>
      <use xlink:href="#DejaVuSans-28" transform="translate(110.498047 0)"/>
      <use xlink:href="#DejaVuSans-6f" transform="translate(149.511719 0)"/>
      <use xlink:href="#DejaVuSans-68" transform="translate(210.693359 0)"/>
      <use xlink:href="#DejaVuSans-6e" transform="translate(274.072266 0)"/>
      <use xlink:href="#DejaVuSans-65" transform="translate(337.451172 0)"/>
      <use xlink:href="#DejaVuSans-20" transform="translate(398.974609 0)"/>
      <use xlink:href="#DejaVuSans-4d" transform="translate(430.761719 0)"/>
      <use xlink:href="#DejaVuSans-65" transform="translate(517.041016 0)"/>
      <use xlink:href="#DejaVuSans-63" transform="translate(578.564453 0)"/>
      <use xlink:href="#DejaVuSans-68" transform="translate(633.544922 0)"/>
      <use xlink:href="#DejaVuSans-61" transform="translate(696.923828 0)"/>
      <use xlink:href="#DejaVuSans-6e" transform="translate(758.203125 0)"/>
      <use xlink:href="#DejaVuSans-69" transform="translate(821.582031 0)"/>
      <use xlink:href="#DejaVuSans-6b" transform="translate(849.365234 0)"/>
      <use xlink:href="#DejaVuSans-29" transform="translate(907.275391 0)"/>
      <use xlink:href="#DejaVuSans-20" transform="translate(946.289062 0)"/>
      <use xlink:href="#DejaVuSans-3d" transform="translate(978.076172 0)"/>
      <use xlink:href="#DejaVuSans-20" transform="translate(1061.865234 0)"/>
      <use xlink:href="#DejaVuSans-32" transform="translate(1093.652344 0)"/>
      <use xlink:href="#DejaVuSans-2e" transform="translate(1157.275391 0)"/>
      <use xlink:href="#DejaVuSans-30" transform="translate(1189.0625 0)"/>
     </g>
    </g>
   </g>
  </g>
  <g id="axes_2">
   <g id="patch_6">
    <path d="M 511.871947 330.565145 
L 937.19952 330.565145 
L 937.19952 39.506261 
L 511.871947 39.506261 
z
" style="fill: #ffffff"/>
   </g>
   <g id="matplotlib.axis_3">
    <g id="xtick_7">
     <g id="line2d_41">
      <path d="M 531.205019 330.565145 
L 531.205019 39.506261 
" clip-path="url(#p572ba452c0)" style="fill: none; stroke-dasharray: 2.96,1.28; stroke-dashoffset: 0; stroke: #b0b0b0; stroke-opacity: 0.3; stroke-width: 0.8"/>
     </g>
     <g id="line2d_42">
      <g>
       <use xlink:href="#m0af7787c0b" x="531.205019" y="330.565145" style="stroke: #000000; stroke-width: 0.8"/>
      </g>
     </g>
     <g id="text_24">
      <!-- 1.0 -->
      <g transform="translate(523.253456 345.163582) scale(0.1 -0.1)">
       <use xlink:href="#DejaVuSans-31"/>
       <use xlink:href="#DejaVuSans-2e" transform="translate(63.623047 0)"/>
       <use xlink:href="#DejaVuSans-30" transform="translate(95.410156 0)"/>
      </g>
     </g>
    </g>
    <g id="xtick_8">
     <g id="line2d_43">
      <path d="M 579.537698 330.565145 
L 579.537698 39.506261 
" clip-path="url(#p572ba452c0)" style="fill: none; stroke-dasharray: 2.96,1.28; stroke-dashoffset: 0; stroke: #b0b0b0; stroke-opacity: 0.3; stroke-width: 0.8"/>
     </g>
     <g id="line2d_44">
      <g>
       <use xlink:href="#m0af7787c0b" x="579.537698" y="330.565145" style="stroke: #000000; stroke-width: 0.8"/>
      </g>
     </g>
     <g id="text_25">
      <!-- 1.5 -->
      <g transform="translate(571.586135 345.163582) scale(0.1 -0.1)">
       <use xlink:href="#DejaVuSans-31"/>
       <use xlink:href="#DejaVuSans-2e" transform="translate(63.623047 0)"/>
       <use xlink:href="#DejaVuSans-35" transform="translate(95.410156 0)"/>
      </g>
     </g>
    </g>
    <g id="xtick_9">
     <g id="line2d_45">
      <path d="M 627.870376 330.565145 
L 627.870376 39.506261 
" clip-path="url(#p572ba452c0)" style="fill: none; stroke-dasharray: 2.96,1.28; stroke-dashoffset: 0; stroke: #b0b0b0; stroke-opacity: 0.3; stroke-width: 0.8"/>
     </g>
     <g id="line2d_46">
      <g>
       <use xlink:href="#m0af7787c0b" x="627.870376" y="330.565145" style="stroke: #000000; stroke-width: 0.8"/>
      </g>
     </g>
     <g id="text_26">
      <!-- 2.0 -->
      <g transform="translate(619.918814 345.163582) scale(0.1 -0.1)">
       <use xlink:href="#DejaVuSans-32"/>
       <use xlink:href="#DejaVuSans-2e" transform="translate(63.623047 0)"/>
       <use xlink:href="#DejaVuSans-30" transform="translate(95.410156 0)"/>
      </g>
     </g>
    </g>
    <g id="xtick_10">
     <g id="line2d_47">
      <path d="M 676.203055 330.565145 
L 676.203055 39.506261 
" clip-path="url(#p572ba452c0)" style="fill: none; stroke-dasharray: 2.96,1.28; stroke-dashoffset: 0; stroke: #b0b0b0; stroke-opacity: 0.3; stroke-width: 0.8"/>
     </g>
     <g id="line2d_48">
      <g>
       <use xlink:href="#m0af7787c0b" x="676.203055" y="330.565145" style="stroke: #000000; stroke-width: 0.8"/>
      </g>
     </g>
     <g id="text_27">
      <!-- 2.5 -->
      <g transform="translate(668.251493 345.163582) scale(0.1 -0.1)">
       <use xlink:href="#DejaVuSans-32"/>
       <use xlink:href="#DejaVuSans-2e" transform="translate(63.623047 0)"/>
       <use xlink:href="#DejaVuSans-35" transform="translate(95.410156 0)"/>
      </g>
     </g>
    </g>
    <g id="xtick_11">
     <g id="line2d_49">
      <path d="M 724.535734 330.565145 
L 724.535734 39.506261 
" clip-path="url(#p572ba452c0)" style="fill: none; stroke-dasharray: 2.96,1.28; stroke-dashoffset: 0; stroke: #b0b0b0; stroke-opacity: 0.3; stroke-width: 0.8"/>
     </g>
     <g id="line2d_50">
      <g>
       <use xlink:href="#m0af7787c0b" x="724.535734" y="330.565145" style="stroke: #000000; stroke-width: 0.8"/>
      </g>
     </g>
     <g id="text_28">
      <!-- 3.0 -->
      <g transform="translate(716.584171 345.163582) scale(0.1 -0.1)">
       <use xlink:href="#DejaVuSans-33"/>
       <use xlink:href="#DejaVuSans-2e" transform="translate(63.623047 0)"/>
       <use xlink:href="#DejaVuSans-30" transform="translate(95.410156 0)"/>
      </g>
     </g>
    </g>
    <g id="xtick_12">
     <g id="line2d_51">
      <path d="M 772.868412 330.565145 
L 772.868412 39.506261 
" clip-path="url(#p572ba452c0)" style="fill: none; stroke-dasharray: 2.96,1.28; stroke-dashoffset: 0; stroke: #b0b0b0; stroke-opacity: 0.3; stroke-width: 0.8"/>
     </g>
     <g id="line2d_52">
      <g>
       <use xlink:href="#m0af7787c0b" x="772.868412" y="330.565145" style="stroke: #000000; stroke-width: 0.8"/>
      </g>
     </g>
     <g id="text_29">
      <!-- 3.5 -->
      <g transform="translate(764.91685 345.163582) scale(0.1 -0.1)">
       <use xlink:href="#DejaVuSans-33"/>
       <use xlink:href="#DejaVuSans-2e" transform="translate(63.623047 0)"/>
       <use xlink:href="#DejaVuSans-35" transform="translate(95.410156 0)"/>
      </g>
     </g>
    </g>
    <g id="xtick_13">
     <g id="line2d_53">
      <path d="M 821.201091 330.565145 
L 821.201091 39.506261 
" clip-path="url(#p572ba452c0)" style="fill: none; stroke-dasharray: 2.96,1.28; stroke-dashoffset: 0; stroke: #b0b0b0; stroke-opacity: 0.3; stroke-width: 0.8"/>
     </g>
     <g id="line2d_54">
      <g>
       <use xlink:href="#m0af7787c0b" x="821.201091" y="330.565145" style="stroke: #000000; stroke-width: 0.8"/>
      </g>
     </g>
     <g id="text_30">
      <!-- 4.0 -->
      <g transform="translate(813.249529 345.163582) scale(0.1 -0.1)">
       <use xlink:href="#DejaVuSans-34"/>
       <use xlink:href="#DejaVuSans-2e" transform="translate(63.623047 0)"/>
       <use xlink:href="#DejaVuSans-30" transform="translate(95.410156 0)"/>
      </g>
     </g>
    </g>
    <g id="xtick_14">
     <g id="line2d_55">
      <path d="M 869.53377 330.565145 
L 869.53377 39.506261 
" clip-path="url(#p572ba452c0)" style="fill: none; stroke-dasharray: 2.96,1.28; stroke-dashoffset: 0; stroke: #b0b0b0; stroke-opacity: 0.3; stroke-width: 0.8"/>
     </g>
     <g id="line2d_56">
      <g>
       <use xlink:href="#m0af7787c0b" x="869.53377" y="330.565145" style="stroke: #000000; stroke-width: 0.8"/>
      </g>
     </g>
     <g id="text_31">
      <!-- 4.5 -->
      <g transform="translate(861.582207 345.163582) scale(0.1 -0.1)">
       <use xlink:href="#DejaVuSans-34"/>
       <use xlink:href="#DejaVuSans-2e" transform="translate(63.623047 0)"/>
       <use xlink:href="#DejaVuSans-35" transform="translate(95.410156 0)"/>
      </g>
     </g>
    </g>
    <g id="xtick_15">
     <g id="line2d_57">
      <path d="M 917.866449 330.565145 
L 917.866449 39.506261 
" clip-path="url(#p572ba452c0)" style="fill: none; stroke-dasharray: 2.96,1.28; stroke-dashoffset: 0; stroke: #b0b0b0; stroke-opacity: 0.3; stroke-width: 0.8"/>
     </g>
     <g id="line2d_58">
      <g>
       <use xlink:href="#m0af7787c0b" x="917.866449" y="330.565145" style="stroke: #000000; stroke-width: 0.8"/>
      </g>
     </g>
     <g id="text_32">
      <!-- 5.0 -->
      <g transform="translate(909.914886 345.163582) scale(0.1 -0.1)">
       <use xlink:href="#DejaVuSans-35"/>
       <use xlink:href="#DejaVuSans-2e" transform="translate(63.623047 0)"/>
       <use xlink:href="#DejaVuSans-30" transform="translate(95.410156 0)"/>
      </g>
     </g>
    </g>
    <g id="text_33">
     <!-- Basis-Verbesserungsfaktor Φ -->
     <g transform="translate(652.73964 358.841707) scale(0.1 -0.1)">
      <defs>
       <path id="DejaVuSans-42" d="M 1259 2228 
L 1259 519 
L 2272 519 
Q 2781 519 3026 730 
Q 3272 941 3272 1375 
Q 3272 1813 3026 2020 
Q 2781 2228 2272 2228 
L 1259 2228 
z
M 1259 4147 
L 1259 2741 
L 2194 2741 
Q 2656 2741 2882 2914 
Q 3109 3088 3109 3444 
Q 3109 3797 2882 3972 
Q 2656 4147 2194 4147 
L 1259 4147 
z
M 628 4666 
L 2241 4666 
Q 2963 4666 3353 4366 
Q 3744 4066 3744 3513 
Q 3744 3084 3544 2831 
Q 3344 2578 2956 2516 
Q 3422 2416 3680 2098 
Q 3938 1781 3938 1306 
Q 3938 681 3513 340 
Q 3088 0 2303 0 
L 628 0 
L 628 4666 
z
" transform="scale(0.015625)"/>
       <path id="DejaVuSans-2d" d="M 313 2009 
L 1997 2009 
L 1997 1497 
L 313 1497 
L 313 2009 
z
" transform="scale(0.015625)"/>
       <path id="DejaVuSans-56" d="M 1831 0 
L 50 4666 
L 709 4666 
L 2188 738 
L 3669 4666 
L 4325 4666 
L 2547 0 
L 1831 0 
z
" transform="scale(0.015625)"/>
       <path id="DejaVuSans-62" d="M 3116 1747 
Q 3116 2381 2855 2742 
Q 2594 3103 2138 3103 
Q 1681 3103 1420 2742 
Q 1159 2381 1159 1747 
Q 1159 1113 1420 752 
Q 1681 391 2138 391 
Q 2594 391 2855 752 
Q 3116 1113 3116 1747 
z
M 1159 2969 
Q 1341 3281 1617 3432 
Q 1894 3584 2278 3584 
Q 2916 3584 3314 3078 
Q 3713 2572 3713 1747 
Q 3713 922 3314 415 
Q 2916 -91 2278 -91 
Q 1894 -91 1617 61 
Q 1341 213 1159 525 
L 1159 0 
L 581 0 
L 581 4863 
L 1159 4863 
L 1159 2969 
z
" transform="scale(0.015625)"/>
       <path id="DejaVuSans-75" d="M 544 1381 
L 544 3500 
L 1119 3500 
L 1119 1403 
Q 1119 906 1312 657 
Q 1506 409 1894 409 
Q 2359 409 2629 706 
Q 2900 1003 2900 1516 
L 2900 3500 
L 3475 3500 
L 3475 0 
L 2900 0 
L 2900 538 
Q 2691 219 2414 64 
Q 2138 -91 1772 -91 
Q 1169 -91 856 284 
Q 544 659 544 1381 
z
M 1991 3584 
L 1991 3584 
z
" transform="scale(0.015625)"/>
       <path id="DejaVuSans-66" d="M 2375 4863 
L 2375 4384 
L 1825 4384 
Q 1516 4384 1395 4259 
Q 1275 4134 1275 3809 
L 1275 3500 
L 2222 3500 
L 2222 3053 
L 1275 3053 
L 1275 0 
L 697 0 
L 697 3053 
L 147 3053 
L 147 3500 
L 697 3500 
L 697 3744 
Q 697 4328 969 4595 
Q 1241 4863 1831 4863 
L 2375 4863 
z
" transform="scale(0.015625)"/>
      </defs>
      <use xlink:href="#DejaVuSans-42"/>
      <use xlink:href="#DejaVuSans-61" transform="translate(68.603516 0)"/>
      <use xlink:href="#DejaVuSans-73" transform="translate(129.882812 0)"/>
      <use xlink:href="#DejaVuSans-69" transform="translate(181.982422 0)"/>
      <use xlink:href="#DejaVuSans-73" transform="translate(209.765625 0)"/>
      <use xlink:href="#DejaVuSans-2d" transform="translate(261.865234 0)"/>
      <use xlink:href="#DejaVuSans-56" transform="translate(292.074219 0)"/>
      <use xlink:href="#DejaVuSans-65" transform="translate(352.732422 0)"/>
      <use xlink:href="#DejaVuSans-72" transform="translate(414.255859 0)"/>
      <use xlink:href="#DejaVuSans-62" transform="translate(455.369141 0)"/>
      <use xlink:href="#DejaVuSans-65" transform="translate(518.845703 0)"/>
      <use xlink:href="#DejaVuSans-73" transform="translate(580.369141 0)"/>
      <use xlink:href="#DejaVuSans-73" transform="translate(632.46875 0)"/>
      <use xlink:href="#DejaVuSans-65" transform="translate(684.568359 0)"/>
      <use xlink:href="#DejaVuSans-72" transform="translate(746.091797 0)"/>
      <use xlink:href="#DejaVuSans-75" transform="translate(787.205078 0)"/>
      <use xlink:href="#DejaVuSans-6e" transform="translate(850.583984 0)"/>
      <use xlink:href="#DejaVuSans-67" transform="translate(913.962891 0)"/>
      <use xlink:href="#DejaVuSans-73" transform="translate(977.439453 0)"/>
      <use xlink:href="#DejaVuSans-66" transform="translate(1029.539062 0)"/>
      <use xlink:href="#DejaVuSans-61" transform="translate(1064.744141 0)"/>
      <use xlink:href="#DejaVuSans-6b" transform="translate(1126.023438 0)"/>
      <use xlink:href="#DejaVuSans-74" transform="translate(1183.933594 0)"/>
      <use xlink:href="#DejaVuSans-6f" transform="translate(1223.142578 0)"/>
      <use xlink:href="#DejaVuSans-72" transform="translate(1284.324219 0)"/>
      <use xlink:href="#DejaVuSans-20" transform="translate(1325.4375 0)"/>
      <use xlink:href="#DejaVuSans-3a6" transform="translate(1357.224609 0)"/>
     </g>
    </g>
   </g>
   <g id="matplotlib.axis_4">
    <g id="ytick_10">
     <g id="line2d_59">
      <path d="M 511.871947 317.335196 
L 937.19952 317.335196 
" clip-path="url(#p572ba452c0)" style="fill: none; stroke-dasharray: 2.96,1.28; stroke-dashoffset: 0; stroke: #b0b0b0; stroke-opacity: 0.3; stroke-width: 0.8"/>
     </g>
     <g id="line2d_60">
      <g>
       <use xlink:href="#m6bda3fe867" x="511.871947" y="317.335196" style="stroke: #000000; stroke-width: 0.8"/>
      </g>
     </g>
     <g id="text_34">
      <!-- 1.0 -->
      <g transform="translate(488.968822 321.134414) scale(0.1 -0.1)">
       <use xlink:href="#DejaVuSans-31"/>
       <use xlink:href="#DejaVuSans-2e" transform="translate(63.623047 0)"/>
       <use xlink:href="#DejaVuSans-30" transform="translate(95.410156 0)"/>
      </g>
     </g>
    </g>
    <g id="ytick_11">
     <g id="line2d_61">
      <path d="M 511.871947 284.260323 
L 937.19952 284.260323 
" clip-path="url(#p572ba452c0)" style="fill: none; stroke-dasharray: 2.96,1.28; stroke-dashoffset: 0; stroke: #b0b0b0; stroke-opacity: 0.3; stroke-width: 0.8"/>
     </g>
     <g id="line2d_62">
      <g>
       <use xlink:href="#m6bda3fe867" x="511.871947" y="284.260323" style="stroke: #000000; stroke-width: 0.8"/>
      </g>
     </g>
     <g id="text_35">
      <!-- 1.5 -->
      <g transform="translate(488.968822 288.059541) scale(0.1 -0.1)">
       <use xlink:href="#DejaVuSans-31"/>
       <use xlink:href="#DejaVuSans-2e" transform="translate(63.623047 0)"/>
       <use xlink:href="#DejaVuSans-35" transform="translate(95.410156 0)"/>
      </g>
     </g>
    </g>
    <g id="ytick_12">
     <g id="line2d_63">
      <path d="M 511.871947 251.185449 
L 937.19952 251.185449 
" clip-path="url(#p572ba452c0)" style="fill: none; stroke-dasharray: 2.96,1.28; stroke-dashoffset: 0; stroke: #b0b0b0; stroke-opacity: 0.3; stroke-width: 0.8"/>
     </g>
     <g id="line2d_64">
      <g>
       <use xlink:href="#m6bda3fe867" x="511.871947" y="251.185449" style="stroke: #000000; stroke-width: 0.8"/>
      </g>
     </g>
     <g id="text_36">
      <!-- 2.0 -->
      <g transform="translate(488.968822 254.984668) scale(0.1 -0.1)">
       <use xlink:href="#DejaVuSans-32"/>
       <use xlink:href="#DejaVuSans-2e" transform="translate(63.623047 0)"/>
       <use xlink:href="#DejaVuSans-30" transform="translate(95.410156 0)"/>
      </g>
     </g>
    </g>
    <g id="ytick_13">
     <g id="line2d_65">
      <path d="M 511.871947 218.110576 
L 937.19952 218.110576 
" clip-path="url(#p572ba452c0)" style="fill: none; stroke-dasharray: 2.96,1.28; stroke-dashoffset: 0; stroke: #b0b0b0; stroke-opacity: 0.3; stroke-width: 0.8"/>
     </g>
     <g id="line2d_66">
      <g>
       <use xlink:href="#m6bda3fe867" x="511.871947" y="218.110576" style="stroke: #000000; stroke-width: 0.8"/>
      </g>
     </g>
     <g id="text_37">
      <!-- 2.5 -->
      <g transform="translate(488.968822 221.909795) scale(0.1 -0.1)">
       <use xlink:href="#DejaVuSans-32"/>
       <use xlink:href="#DejaVuSans-2e" transform="translate(63.623047 0)"/>
       <use xlink:href="#DejaVuSans-35" transform="translate(95.410156 0)"/>
      </g>
     </g>
    </g>
    <g id="ytick_14">
     <g id="line2d_67">
      <path d="M 511.871947 185.035703 
L 937.19952 185.035703 
" clip-path="url(#p572ba452c0)" style="fill: none; stroke-dasharray: 2.96,1.28; stroke-dashoffset: 0; stroke: #b0b0b0; stroke-opacity: 0.3; stroke-width: 0.8"/>
     </g>
     <g id="line2d_68">
      <g>
       <use xlink:href="#m6bda3fe867" x="511.871947" y="185.035703" style="stroke: #000000; stroke-width: 0.8"/>
      </g>
     </g>
     <g id="text_38">
      <!-- 3.0 -->
      <g transform="translate(488.968822 188.834922) scale(0.1 -0.1)">
       <use xlink:href="#DejaVuSans-33"/>
       <use xlink:href="#DejaVuSans-2e" transform="translate(63.623047 0)"/>
       <use xlink:href="#DejaVuSans-30" transform="translate(95.410156 0)"/>
      </g>
     </g>
    </g>
    <g id="ytick_15">
     <g id="line2d_69">
      <path d="M 511.871947 151.96083 
L 937.19952 151.96083 
" clip-path="url(#p572ba452c0)" style="fill: none; stroke-dasharray: 2.96,1.28; stroke-dashoffset: 0; stroke: #b0b0b0; stroke-opacity: 0.3; stroke-width: 0.8"/>
     </g>
     <g id="line2d_70">
      <g>
       <use xlink:href="#m6bda3fe867" x="511.871947" y="151.96083" style="stroke: #000000; stroke-width: 0.8"/>
      </g>
     </g>
     <g id="text_39">
      <!-- 3.5 -->
      <g transform="translate(488.968822 155.760049) scale(0.1 -0.1)">
       <use xlink:href="#DejaVuSans-33"/>
       <use xlink:href="#DejaVuSans-2e" transform="translate(63.623047 0)"/>
       <use xlink:href="#DejaVuSans-35" transform="translate(95.410156 0)"/>
      </g>
     </g>
    </g>
    <g id="ytick_16">
     <g id="line2d_71">
      <path d="M 511.871947 118.885957 
L 937.19952 118.885957 
" clip-path="url(#p572ba452c0)" style="fill: none; stroke-dasharray: 2.96,1.28; stroke-dashoffset: 0; stroke: #b0b0b0; stroke-opacity: 0.3; stroke-width: 0.8"/>
     </g>
     <g id="line2d_72">
      <g>
       <use xlink:href="#m6bda3fe867" x="511.871947" y="118.885957" style="stroke: #000000; stroke-width: 0.8"/>
      </g>
     </g>
     <g id="text_40">
      <!-- 4.0 -->
      <g transform="translate(488.968822 122.685176) scale(0.1 -0.1)">
       <use xlink:href="#DejaVuSans-34"/>
       <use xlink:href="#DejaVuSans-2e" transform="translate(63.623047 0)"/>
       <use xlink:href="#DejaVuSans-30" transform="translate(95.410156 0)"/>
      </g>
     </g>
    </g>
    <g id="ytick_17">
     <g id="line2d_73">
      <path d="M 511.871947 85.811084 
L 937.19952 85.811084 
" clip-path="url(#p572ba452c0)" style="fill: none; stroke-dasharray: 2.96,1.28; stroke-dashoffset: 0; stroke: #b0b0b0; stroke-opacity: 0.3; stroke-width: 0.8"/>
     </g>
     <g id="line2d_74">
      <g>
       <use xlink:href="#m6bda3fe867" x="511.871947" y="85.811084" style="stroke: #000000; stroke-width: 0.8"/>
      </g>
     </g>
     <g id="text_41">
      <!-- 4.5 -->
      <g transform="translate(488.968822 89.610302) scale(0.1 -0.1)">
       <use xlink:href="#DejaVuSans-34"/>
       <use xlink:href="#DejaVuSans-2e" transform="translate(63.623047 0)"/>
       <use xlink:href="#DejaVuSans-35" transform="translate(95.410156 0)"/>
      </g>
     </g>
    </g>
    <g id="ytick_18">
     <g id="line2d_75">
      <path d="M 511.871947 52.736211 
L 937.19952 52.736211 
" clip-path="url(#p572ba452c0)" style="fill: none; stroke-dasharray: 2.96,1.28; stroke-dashoffset: 0; stroke: #b0b0b0; stroke-opacity: 0.3; stroke-width: 0.8"/>
     </g>
     <g id="line2d_76">
      <g>
       <use xlink:href="#m6bda3fe867" x="511.871947" y="52.736211" style="stroke: #000000; stroke-width: 0.8"/>
      </g>
     </g>
     <g id="text_42">
      <!-- 5.0 -->
      <g transform="translate(488.968822 56.535429) scale(0.1 -0.1)">
       <use xlink:href="#DejaVuSans-35"/>
       <use xlink:href="#DejaVuSans-2e" transform="translate(63.623047 0)"/>
       <use xlink:href="#DejaVuSans-30" transform="translate(95.410156 0)"/>
      </g>
     </g>
    </g>
    <g id="text_43">
     <!-- Φ_ges -->
     <g transform="translate(482.61101 200.327109) rotate(-90) scale(0.1 -0.1)">
      <use xlink:href="#DejaVuSans-3a6"/>
      <use xlink:href="#DejaVuSans-5f" transform="translate(78.710938 0)"/>
      <use xlink:href="#DejaVuSans-67" transform="translate(128.710938 0)"/>
      <use xlink:href="#DejaVuSans-65" transform="translate(192.1875 0)"/>
      <use xlink:href="#DejaVuSans-73" transform="translate(253.710938 0)"/>
     </g>
    </g>
   </g>
   <g id="line2d_77">
    <path d="M 531.205019 314.686626 
L 571.293662 286.635376 
L 611.382305 258.859727 
L 651.470949 231.35564 
L 691.559592 204.11915 
L 731.648235 177.146371 
L 773.03006 149.57607 
L 814.411885 122.278597 
L 855.793711 95.249921 
L 897.175536 68.486092 
L 917.866449 55.202282 
L 917.866449 55.202282 
" clip-path="url(#p572ba452c0)" style="fill: none; stroke: #1f77b4; stroke-width: 1.5; stroke-linecap: square"/>
   </g>
   <g id="line2d_78">
    <path d="M 531.205019 311.817118 
L 558.361842 292.321343 
L 585.518665 273.094816 
L 612.675487 254.131998 
L 641.125492 234.543164 
L 669.575497 215.231816 
L 698.025502 196.192099 
L 726.475507 177.418322 
L 754.925512 158.904952 
L 783.375517 140.646608 
L 813.118703 121.825337 
L 842.86189 103.271272 
L 872.605077 84.97876 
L 902.348264 66.94231 
L 917.866449 57.631851 
L 917.866449 57.631851 
" clip-path="url(#p572ba452c0)" style="fill: none; stroke: #ff7f0e; stroke-width: 1.5; stroke-linecap: square"/>
   </g>
   <g id="line2d_79">
    <path d="M 531.205019 308.697824 
L 553.189114 292.496676 
L 575.173208 276.578005 
L 597.157303 260.934488 
L 619.141398 245.559051 
L 641.125492 230.444861 
L 664.402769 214.719019 
L 687.680046 199.271096 
L 710.957322 184.09379 
L 734.234599 169.18005 
L 757.511876 154.523072 
L 782.082334 139.323109 
L 806.652793 124.394444 
L 831.223252 109.729875 
L 855.793711 95.322457 
L 880.364169 81.165485 
L 906.22781 66.52686 
L 917.866449 60.025723 
L 917.866449 60.025723 
" clip-path="url(#p572ba452c0)" style="fill: none; stroke: #2ca02c; stroke-width: 1.5; stroke-linecap: square"/>
   </g>
   <g id="line2d_80">
    <path d="M 531.205019 301.566973 
L 546.723203 289.490944 
L 562.241388 277.684884 
L 577.759572 266.139841 
L 594.570939 253.917341 
L 611.382305 241.980735 
L 628.193672 230.320108 
L 645.005038 218.926 
L 661.816405 207.789375 
L 679.920953 196.074151 
L 698.025502 184.637259 
L 716.13005 173.468895 
L 734.234599 162.559712 
L 752.339148 151.900793 
L 771.736878 140.748571 
L 791.134609 129.863887 
L 810.532339 119.237225 
L 829.93007 108.85952 
L 849.3278 98.722124 
L 870.018713 88.164485 
L 890.709626 77.861334 
L 911.400538 67.803579 
L 917.866449 64.709475 
L 917.866449 64.709475 
" clip-path="url(#p572ba452c0)" style="fill: none; stroke: #d62728; stroke-width: 1.5; stroke-linecap: square"/>
   </g>
   <g id="line2d_81">
    <path d="M 531.205019 317.335196 
L 917.866449 52.736211 
L 917.866449 52.736211 
" clip-path="url(#p572ba452c0)" style="fill: none; stroke-dasharray: 3.33,1.44; stroke-dashoffset: 0; stroke: #000000; stroke-width: 0.9"/>
   </g>
   <g id="patch_7">
    <path d="M 511.871947 330.565145 
L 511.871947 39.506261 
" style="fill: none; stroke: #000000; stroke-width: 0.8; stroke-linejoin: miter; stroke-linecap: square"/>
   </g>
   <g id="patch_8">
    <path d="M 511.871947 330.565145 
L 937.19952 330.565145 
" style="fill: none; stroke: #000000; stroke-width: 0.8; stroke-linejoin: miter; stroke-linecap: square"/>
   </g>
   <g id="text_44">
    <!-- Φ_ges vs. Φ  (η_M = 0.230, NMC/Graphit) -->
    <g transform="translate(598.455968 33.506261) scale(0.11 -0.11)">
     <defs>
      <path id="DejaVuSans-Bold-3b7" d="M 4056 2131 
L 4056 -1331 
L 2931 -1331 
L 2931 347 
L 2931 1631 
Q 2931 2084 2911 2256 
Q 2891 2428 2841 2509 
Q 2775 2619 2662 2680 
Q 2550 2741 2406 2741 
Q 2056 2741 1856 2470 
Q 1656 2200 1656 1722 
L 1656 0 
L 538 0 
L 538 3500 
L 1656 3500 
L 1656 2988 
Q 1909 3294 2193 3439 
Q 2478 3584 2822 3584 
Q 3428 3584 3742 3212 
Q 4056 2841 4056 2131 
z
" transform="scale(0.015625)"/>
      <path id="DejaVuSans-Bold-33" d="M 2981 2516 
Q 3453 2394 3698 2092 
Q 3944 1791 3944 1325 
Q 3944 631 3412 270 
Q 2881 -91 1863 -91 
Q 1503 -91 1142 -33 
Q 781 25 428 141 
L 428 1069 
Q 766 900 1098 814 
Q 1431 728 1753 728 
Q 2231 728 2486 893 
Q 2741 1059 2741 1369 
Q 2741 1688 2480 1852 
Q 2219 2016 1709 2016 
L 1228 2016 
L 1228 2791 
L 1734 2791 
Q 2188 2791 2409 2933 
Q 2631 3075 2631 3366 
Q 2631 3634 2415 3781 
Q 2200 3928 1806 3928 
Q 1516 3928 1219 3862 
Q 922 3797 628 3669 
L 628 4550 
Q 984 4650 1334 4700 
Q 1684 4750 2022 4750 
Q 2931 4750 3382 4451 
Q 3834 4153 3834 3553 
Q 3834 3144 3618 2883 
Q 3403 2622 2981 2516 
z
" transform="scale(0.015625)"/>
      <path id="DejaVuSans-Bold-2c" d="M 653 1209 
L 1778 1209 
L 1778 256 
L 1006 -909 
L 341 -909 
L 653 256 
L 653 1209 
z
" transform="scale(0.015625)"/>
      <path id="DejaVuSans-Bold-4e" d="M 588 4666 
L 1931 4666 
L 3628 1466 
L 3628 4666 
L 4769 4666 
L 4769 0 
L 3425 0 
L 1728 3200 
L 1728 0 
L 588 0 
L 588 4666 
z
" transform="scale(0.015625)"/>
      <path id="DejaVuSans-Bold-43" d="M 4288 256 
Q 3956 84 3597 -3 
Q 3238 -91 2847 -91 
Q 1681 -91 1000 561 
Q 319 1213 319 2328 
Q 319 3447 1000 4098 
Q 1681 4750 2847 4750 
Q 3238 4750 3597 4662 
Q 3956 4575 4288 4403 
L 4288 3438 
Q 3953 3666 3628 3772 
Q 3303 3878 2944 3878 
Q 2300 3878 1931 3465 
Q 1563 3053 1563 2328 
Q 1563 1606 1931 1193 
Q 2300 781 2944 781 
Q 3303 781 3628 887 
Q 3953 994 4288 1222 
L 4288 256 
z
" transform="scale(0.015625)"/>
      <path id="DejaVuSans-Bold-2f" d="M 1644 4666 
L 2338 4666 
L 691 -594 
L 0 -594 
L 1644 4666 
z
" transform="scale(0.015625)"/>
      <path id="DejaVuSans-Bold-47" d="M 4781 347 
Q 4331 128 3847 18 
Q 3363 -91 2847 -91 
Q 1681 -91 1000 561 
Q 319 1213 319 2328 
Q 319 3456 1012 4103 
Q 1706 4750 2913 4750 
Q 3378 4750 3804 4662 
Q 4231 4575 4609 4403 
L 4609 3438 
Q 4219 3659 3833 3768 
Q 3447 3878 3059 3878 
Q 2341 3878 1952 3476 
Q 1563 3075 1563 2328 
Q 1563 1588 1938 1184 
Q 2313 781 3003 781 
Q 3191 781 3352 804 
Q 3513 828 3641 878 
L 3641 1784 
L 2906 1784 
L 2906 2591 
L 4781 2591 
L 4781 347 
z
" transform="scale(0.015625)"/>
      <path id="DejaVuSans-Bold-72" d="M 3138 2547 
Q 2991 2616 2845 2648 
Q 2700 2681 2553 2681 
Q 2122 2681 1889 2404 
Q 1656 2128 1656 1613 
L 1656 0 
L 538 0 
L 538 3500 
L 1656 3500 
L 1656 2925 
Q 1872 3269 2151 3426 
Q 2431 3584 2822 3584 
Q 2878 3584 2943 3579 
Q 3009 3575 3134 3559 
L 3138 2547 
z
" transform="scale(0.015625)"/>
      <path id="DejaVuSans-Bold-61" d="M 2106 1575 
Q 1756 1575 1579 1456 
Q 1403 1338 1403 1106 
Q 1403 894 1545 773 
Q 1688 653 1941 653 
Q 2256 653 2472 879 
Q 2688 1106 2688 1447 
L 2688 1575 
L 2106 1575 
z
M 3816 1997 
L 3816 0 
L 2688 0 
L 2688 519 
Q 2463 200 2181 54 
Q 1900 -91 1497 -91 
Q 953 -91 614 226 
Q 275 544 275 1050 
Q 275 1666 698 1953 
Q 1122 2241 2028 2241 
L 2688 2241 
L 2688 2328 
Q 2688 2594 2478 2717 
Q 2269 2841 1825 2841 
Q 1466 2841 1156 2769 
Q 847 2697 581 2553 
L 581 3406 
Q 941 3494 1303 3539 
Q 1666 3584 2028 3584 
Q 2975 3584 3395 3211 
Q 3816 2838 3816 1997 
z
" transform="scale(0.015625)"/>
      <path id="DejaVuSans-Bold-70" d="M 1656 506 
L 1656 -1331 
L 538 -1331 
L 538 3500 
L 1656 3500 
L 1656 2988 
Q 1888 3294 2169 3439 
Q 2450 3584 2816 3584 
Q 3463 3584 3878 3070 
Q 4294 2556 4294 1747 
Q 4294 938 3878 423 
Q 3463 -91 2816 -91 
Q 2450 -91 2169 54 
Q 1888 200 1656 506 
z
M 2400 2772 
Q 2041 2772 1848 2508 
Q 1656 2244 1656 1747 
Q 1656 1250 1848 986 
Q 2041 722 2400 722 
Q 2759 722 2948 984 
Q 3138 1247 3138 1747 
Q 3138 2247 2948 2509 
Q 2759 2772 2400 2772 
z
" transform="scale(0.015625)"/>
      <path id="DejaVuSans-Bold-68" d="M 4056 2131 
L 4056 0 
L 2931 0 
L 2931 347 
L 2931 1625 
Q 2931 2084 2911 2256 
Q 2891 2428 2841 2509 
Q 2775 2619 2662 2680 
Q 2550 2741 2406 2741 
Q 2056 2741 1856 2470 
Q 1656 2200 1656 1722 
L 1656 0 
L 538 0 
L 538 4863 
L 1656 4863 
L 1656 2988 
Q 1909 3294 2193 3439 
Q 2478 3584 2822 3584 
Q 3428 3584 3742 3212 
Q 4056 2841 4056 2131 
z
" transform="scale(0.015625)"/>
      <path id="DejaVuSans-Bold-69" d="M 538 3500 
L 1656 3500 
L 1656 0 
L 538 0 
L 538 3500 
z
M 538 4863 
L 1656 4863 
L 1656 3950 
L 538 3950 
L 538 4863 
z
" transform="scale(0.015625)"/>
      <path id="DejaVuSans-Bold-74" d="M 1759 4494 
L 1759 3500 
L 2913 3500 
L 2913 2700 
L 1759 2700 
L 1759 1216 
Q 1759 972 1856 886 
Q 1953 800 2241 800 
L 2816 800 
L 2816 0 
L 1856 0 
Q 1194 0 917 276 
Q 641 553 641 1216 
L 641 2700 
L 84 2700 
L 84 3500 
L 641 3500 
L 641 4494 
L 1759 4494 
z
" transform="scale(0.015625)"/>
     </defs>
     <use xlink:href="#DejaVuSans-Bold-3a6"/>
     <use xlink:href="#DejaVuSans-Bold-5f" transform="translate(85.009766 0)"/>
     <use xlink:href="#DejaVuSans-Bold-67" transform="translate(135.009766 0)"/>
     <use xlink:href="#DejaVuSans-Bold-65" transform="translate(206.591797 0)"/>
     <use xlink:href="#DejaVuSans-Bold-73" transform="translate(274.414062 0)"/>
     <use xlink:href="#DejaVuSans-Bold-20" transform="translate(333.935547 0)"/>
     <use xlink:href="#DejaVuSans-Bold-76" transform="translate(368.75 0)"/>
     <use xlink:href="#DejaVuSans-Bold-73" transform="translate(433.935547 0)"/>
     <use xlink:href="#DejaVuSans-Bold-2e" transform="translate(493.457031 0)"/>
     <use xlink:href="#DejaVuSans-Bold-20" transform="translate(531.445312 0)"/>
     <use xlink:href="#DejaVuSans-Bold-3a6" transform="translate(566.259766 0)"/>
     <use xlink:href="#DejaVuSans-Bold-20" transform="translate(651.269531 0)"/>
     <use xlink:href="#DejaVuSans-Bold-20" transform="translate(686.083984 0)"/>
     <use xlink:href="#DejaVuSans-Bold-28" transform="translate(720.898438 0)"/>
     <use xlink:href="#DejaVuSans-Bold-3b7" transform="translate(766.601562 0)"/>
     <use xlink:href="#DejaVuSans-Bold-5f" transform="translate(837.792969 0)"/>
     <use xlink:href="#DejaVuSans-Bold-4d" transform="translate(887.792969 0)"/>
     <use xlink:href="#DejaVuSans-Bold-20" transform="translate(987.304688 0)"/>
     <use xlink:href="#DejaVuSans-Bold-3d" transform="translate(1022.119141 0)"/>
     <use xlink:href="#DejaVuSans-Bold-20" transform="translate(1105.908203 0)"/>
     <use xlink:href="#DejaVuSans-Bold-30" transform="translate(1140.722656 0)"/>
     <use xlink:href="#DejaVuSans-Bold-2e" transform="translate(1210.302734 0)"/>
     <use xlink:href="#DejaVuSans-Bold-32" transform="translate(1248.291016 0)"/>
     <use xlink:href="#DejaVuSans-Bold-33" transform="translate(1317.871094 0)"/>
     <use xlink:href="#DejaVuSans-Bold-30" transform="translate(1387.451172 0)"/>
     <use xlink:href="#DejaVuSans-Bold-2c" transform="translate(1457.03125 0)"/>
     <use xlink:href="#DejaVuSans-Bold-20" transform="translate(1495.019531 0)"/>
     <use xlink:href="#DejaVuSans-Bold-4e" transform="translate(1529.833984 0)"/>
     <use xlink:href="#DejaVuSans-Bold-4d" transform="translate(1613.525391 0)"/>
     <use xlink:href="#DejaVuSans-Bold-43" transform="translate(1713.037109 0)"/>
     <use xlink:href="#DejaVuSans-Bold-2f" transform="translate(1786.425781 0)"/>
     <use xlink:href="#DejaVuSans-Bold-47" transform="translate(1822.949219 0)"/>
     <use xlink:href="#DejaVuSans-Bold-72" transform="translate(1905.029297 0)"/>
     <use xlink:href="#DejaVuSans-Bold-61" transform="translate(1954.345703 0)"/>
     <use xlink:href="#DejaVuSans-Bold-70" transform="translate(2021.826172 0)"/>
     <use xlink:href="#DejaVuSans-Bold-68" transform="translate(2093.408203 0)"/>
     <use xlink:href="#DejaVuSans-Bold-69" transform="translate(2164.599609 0)"/>
     <use xlink:href="#DejaVuSans-Bold-74" transform="translate(2198.876953 0)"/>
     <use xlink:href="#DejaVuSans-Bold-29" transform="translate(2246.679688 0)"/>
    </g>
   </g>
   <g id="legend_2">
    <g id="patch_9">
     <path d="M 518.171947 114.009386 
L 644.281635 114.009386 
Q 646.081635 114.009386 646.081635 112.209386 
L 646.081635 45.806261 
Q 646.081635 44.006261 644.281635 44.006261 
L 518.171947 44.006261 
Q 516.371947 44.006261 516.371947 45.806261 
L 516.371947 112.209386 
Q 516.371947 114.009386 518.171947 114.009386 
z
" style="fill: #ffffff; opacity: 0.85; stroke: #cccccc; stroke-linejoin: miter"/>
    </g>
    <g id="line2d_82">
     <path d="M 519.971947 51.294855 
L 528.971947 51.294855 
L 537.971947 51.294855 
" style="fill: none; stroke: #1f77b4; stroke-width: 1.5; stroke-linecap: square"/>
    </g>
    <g id="text_45">
     <!-- ρ_M = 0.05 -->
     <g transform="translate(545.171947 54.444855) scale(0.09 -0.09)">
      <use xlink:href="#DejaVuSans-3c1"/>
      <use xlink:href="#DejaVuSans-5f" transform="translate(63.476562 0)"/>
      <use xlink:href="#DejaVuSans-4d" transform="translate(113.476562 0)"/>
      <use xlink:href="#DejaVuSans-20" transform="translate(199.755859 0)"/>
      <use xlink:href="#DejaVuSans-3d" transform="translate(231.542969 0)"/>
      <use xlink:href="#DejaVuSans-20" transform="translate(315.332031 0)"/>
      <use xlink:href="#DejaVuSans-30" transform="translate(347.119141 0)"/>
      <use xlink:href="#DejaVuSans-2e" transform="translate(410.742188 0)"/>
      <use xlink:href="#DejaVuSans-30" transform="translate(442.529297 0)"/>
      <use xlink:href="#DejaVuSans-35" transform="translate(506.152344 0)"/>
     </g>
    </g>
    <g id="line2d_83">
     <path d="M 519.971947 64.75548 
L 528.971947 64.75548 
L 537.971947 64.75548 
" style="fill: none; stroke: #ff7f0e; stroke-width: 1.5; stroke-linecap: square"/>
    </g>
    <g id="text_46">
     <!-- ρ_M = 0.1 -->
     <g transform="translate(545.171947 67.90548) scale(0.09 -0.09)">
      <use xlink:href="#DejaVuSans-3c1"/>
      <use xlink:href="#DejaVuSans-5f" transform="translate(63.476562 0)"/>
      <use xlink:href="#DejaVuSans-4d" transform="translate(113.476562 0)"/>
      <use xlink:href="#DejaVuSans-20" transform="translate(199.755859 0)"/>
      <use xlink:href="#DejaVuSans-3d" transform="translate(231.542969 0)"/>
      <use xlink:href="#DejaVuSans-20" transform="translate(315.332031 0)"/>
      <use xlink:href="#DejaVuSans-30" transform="translate(347.119141 0)"/>
      <use xlink:href="#DejaVuSans-2e" transform="translate(410.742188 0)"/>
      <use xlink:href="#DejaVuSans-31" transform="translate(442.529297 0)"/>
     </g>
    </g>
    <g id="line2d_84">
     <path d="M 519.971947 78.216105 
L 528.971947 78.216105 
L 537.971947 78.216105 
" style="fill: none; stroke: #2ca02c; stroke-width: 1.5; stroke-linecap: square"/>
    </g>
    <g id="text_47">
     <!-- ρ_M = 0.15 -->
     <g transform="translate(545.171947 81.366105) scale(0.09 -0.09)">
      <use xlink:href="#DejaVuSans-3c1"/>
      <use xlink:href="#DejaVuSans-5f" transform="translate(63.476562 0)"/>
      <use xlink:href="#DejaVuSans-4d" transform="translate(113.476562 0)"/>
      <use xlink:href="#DejaVuSans-20" transform="translate(199.755859 0)"/>
      <use xlink:href="#DejaVuSans-3d" transform="translate(231.542969 0)"/>
      <use xlink:href="#DejaVuSans-20" transform="translate(315.332031 0)"/>
      <use xlink:href="#DejaVuSans-30" transform="translate(347.119141 0)"/>
      <use xlink:href="#DejaVuSans-2e" transform="translate(410.742188 0)"/>
      <use xlink:href="#DejaVuSans-31" transform="translate(442.529297 0)"/>
      <use xlink:href="#DejaVuSans-35" transform="translate(506.152344 0)"/>
     </g>
    </g>
    <g id="line2d_85">
     <path d="M 519.971947 91.67673 
L 528.971947 91.67673 
L 537.971947 91.67673 
" style="fill: none; stroke: #d62728; stroke-width: 1.5; stroke-linecap: square"/>
    </g>
    <g id="text_48">
     <!-- ρ_M = 0.25 -->
     <g transform="translate(545.171947 94.82673) scale(0.09 -0.09)">
      <use xlink:href="#DejaVuSans-3c1"/>
      <use xlink:href="#DejaVuSans-5f" transform="translate(63.476562 0)"/>
      <use xlink:href="#DejaVuSans-4d" transform="translate(113.476562 0)"/>
      <use xlink:href="#DejaVuSans-20" transform="translate(199.755859 0)"/>
      <use xlink:href="#DejaVuSans-3d" transform="translate(231.542969 0)"/>
      <use xlink:href="#DejaVuSans-20" transform="translate(315.332031 0)"/>
      <use xlink:href="#DejaVuSans-30" transform="translate(347.119141 0)"/>
      <use xlink:href="#DejaVuSans-2e" transform="translate(410.742188 0)"/>
      <use xlink:href="#DejaVuSans-32" transform="translate(442.529297 0)"/>
      <use xlink:href="#DejaVuSans-35" transform="translate(506.152344 0)"/>
     </g>
    </g>
    <g id="line2d_86">
     <path d="M 519.971947 105.137355 
L 528.971947 105.137355 
L 537.971947 105.137355 
" style="fill: none; stroke-dasharray: 3.33,1.44; stroke-dashoffset: 0; stroke: #000000; stroke-width: 0.9"/>
    </g>
    <g id="text_49">
     <!-- Φ_ges = Φ (Referenz) -->
     <g transform="translate(545.171947 108.287355) scale(0.09 -0.09)">
      <defs>
       <path id="DejaVuSans-52" d="M 2841 2188 
Q 3044 2119 3236 1894 
Q 3428 1669 3622 1275 
L 4263 0 
L 3584 0 
L 2988 1197 
Q 2756 1666 2539 1819 
Q 2322 1972 1947 1972 
L 1259 1972 
L 1259 0 
L 628 0 
L 628 4666 
L 2053 4666 
Q 2853 4666 3247 4331 
Q 3641 3997 3641 3322 
Q 3641 2881 3436 2590 
Q 3231 2300 2841 2188 
z
M 1259 4147 
L 1259 2491 
L 2053 2491 
Q 2509 2491 2742 2702 
Q 2975 2913 2975 3322 
Q 2975 3731 2742 3939 
Q 2509 4147 2053 4147 
L 1259 4147 
z
" transform="scale(0.015625)"/>
       <path id="DejaVuSans-7a" d="M 353 3500 
L 3084 3500 
L 3084 2975 
L 922 459 
L 3084 459 
L 3084 0 
L 275 0 
L 275 525 
L 2438 3041 
L 353 3041 
L 353 3500 
z
" transform="scale(0.015625)"/>
      </defs>
      <use xlink:href="#DejaVuSans-3a6"/>
      <use xlink:href="#DejaVuSans-5f" transform="translate(78.710938 0)"/>
      <use xlink:href="#DejaVuSans-67" transform="translate(128.710938 0)"/>
      <use xlink:href="#DejaVuSans-65" transform="translate(192.1875 0)"/>
      <use xlink:href="#DejaVuSans-73" transform="translate(253.710938 0)"/>
      <use xlink:href="#DejaVuSans-20" transform="translate(305.810547 0)"/>
      <use xlink:href="#DejaVuSans-3d" transform="translate(337.597656 0)"/>
      <use xlink:href="#DejaVuSans-20" transform="translate(421.386719 0)"/>
      <use xlink:href="#DejaVuSans-3a6" transform="translate(453.173828 0)"/>
      <use xlink:href="#DejaVuSans-20" transform="translate(531.884766 0)"/>
      <use xlink:href="#DejaVuSans-28" transform="translate(563.671875 0)"/>
      <use xlink:href="#DejaVuSans-52" transform="translate(602.685547 0)"/>
      <use xlink:href="#DejaVuSans-65" transform="translate(667.667969 0)"/>
      <use xlink:href="#DejaVuSans-66" transform="translate(729.191406 0)"/>
      <use xlink:href="#DejaVuSans-65" transform="translate(764.396484 0)"/>
      <use xlink:href="#DejaVuSans-72" transform="translate(825.919922 0)"/>
      <use xlink:href="#DejaVuSans-65" transform="translate(864.783203 0)"/>
      <use xlink:href="#DejaVuSans-6e" transform="translate(926.306641 0)"/>
      <use xlink:href="#DejaVuSans-7a" transform="translate(989.685547 0)"/>
      <use xlink:href="#DejaVuSans-29" transform="translate(1042.175781 0)"/>
     </g>
    </g>
   </g>
  </g>
  <g id="text_50">
   <!-- Exp 08 – Erweiterter Verbesserungsfaktor Φ_ges -->
   <g transform="translate(308.704448 16.318125) scale(0.12 -0.12)">
    <defs>
     <path id="DejaVuSans-Bold-45" d="M 588 4666 
L 3834 4666 
L 3834 3756 
L 1791 3756 
L 1791 2888 
L 3713 2888 
L 3713 1978 
L 1791 1978 
L 1791 909 
L 3903 909 
L 3903 0 
L 588 0 
L 588 4666 
z
" transform="scale(0.015625)"/>
     <path id="DejaVuSans-Bold-78" d="M 1422 1791 
L 159 3500 
L 1344 3500 
L 2059 2463 
L 2784 3500 
L 3969 3500 
L 2706 1797 
L 4031 0 
L 2847 0 
L 2059 1106 
L 1281 0 
L 97 0 
L 1422 1791 
z
" transform="scale(0.015625)"/>
     <path id="DejaVuSans-Bold-38" d="M 2228 2088 
Q 1891 2088 1709 1903 
Q 1528 1719 1528 1375 
Q 1528 1031 1709 848 
Q 1891 666 2228 666 
Q 2563 666 2741 848 
Q 2919 1031 2919 1375 
Q 2919 1722 2741 1905 
Q 2563 2088 2228 2088 
z
M 1350 2484 
Q 925 2613 709 2878 
Q 494 3144 494 3541 
Q 494 4131 934 4440 
Q 1375 4750 2228 4750 
Q 3075 4750 3515 4442 
Q 3956 4134 3956 3541 
Q 3956 3144 3739 2878 
Q 3522 2613 3097 2484 
Q 3572 2353 3814 2058 
Q 4056 1763 4056 1313 
Q 4056 619 3595 264 
Q 3134 -91 2228 -91 
Q 1319 -91 855 264 
Q 391 619 391 1313 
Q 391 1763 633 2058 
Q 875 2353 1350 2484 
z
M 1631 3419 
Q 1631 3141 1786 2991 
Q 1941 2841 2228 2841 
Q 2509 2841 2662 2991 
Q 2816 3141 2816 3419 
Q 2816 3697 2662 3845 
Q 2509 3994 2228 3994 
Q 1941 3994 1786 3844 
Q 1631 3694 1631 3419 
z
" transform="scale(0.015625)"/>
     <path id="DejaVuSans-Bold-2013" d="M 344 2156 
L 2856 2156 
L 2856 1350 
L 344 1350 
L 344 2156 
z
" transform="scale(0.015625)"/>
     <path id="DejaVuSans-Bold-77" d="M 225 3500 
L 1313 3500 
L 1900 1088 
L 2491 3500 
L 3425 3500 
L 4013 1113 
L 4603 3500 
L 5691 3500 
L 4769 0 
L 3547 0 
L 2956 2406 
L 2369 0 
L 1147 0 
L 225 3500 
z
" transform="scale(0.015625)"/>
     <path id="DejaVuSans-Bold-56" d="M 31 4666 
L 1241 4666 
L 2478 1222 
L 3713 4666 
L 4922 4666 
L 3194 0 
L 1759 0 
L 31 4666 
z
" transform="scale(0.015625)"/>
     <path id="DejaVuSans-Bold-62" d="M 2400 722 
Q 2759 722 2948 984 
Q 3138 1247 3138 1747 
Q 3138 2247 2948 2509 
Q 2759 2772 2400 2772 
Q 2041 2772 1848 2508 
Q 1656 2244 1656 1747 
Q 1656 1250 1848 986 
Q 2041 722 2400 722 
z
M 1656 2988 
Q 1888 3294 2169 3439 
Q 2450 3584 2816 3584 
Q 3463 3584 3878 3070 
Q 4294 2556 4294 1747 
Q 4294 938 3878 423 
Q 3463 -91 2816 -91 
Q 2450 -91 2169 54 
Q 1888 200 1656 506 
L 1656 0 
L 538 0 
L 538 4863 
L 1656 4863 
L 1656 2988 
z
" transform="scale(0.015625)"/>
     <path id="DejaVuSans-Bold-75" d="M 500 1363 
L 500 3500 
L 1625 3500 
L 1625 3150 
Q 1625 2866 1622 2436 
Q 1619 2006 1619 1863 
Q 1619 1441 1641 1255 
Q 1663 1069 1716 984 
Q 1784 875 1895 815 
Q 2006 756 2150 756 
Q 2500 756 2700 1025 
Q 2900 1294 2900 1772 
L 2900 3500 
L 4019 3500 
L 4019 0 
L 2900 0 
L 2900 506 
Q 2647 200 2364 54 
Q 2081 -91 1741 -91 
Q 1134 -91 817 281 
Q 500 653 500 1363 
z
" transform="scale(0.015625)"/>
     <path id="DejaVuSans-Bold-6e" d="M 4056 2131 
L 4056 0 
L 2931 0 
L 2931 347 
L 2931 1631 
Q 2931 2084 2911 2256 
Q 2891 2428 2841 2509 
Q 2775 2619 2662 2680 
Q 2550 2741 2406 2741 
Q 2056 2741 1856 2470 
Q 1656 2200 1656 1722 
L 1656 0 
L 538 0 
L 538 3500 
L 1656 3500 
L 1656 2988 
Q 1909 3294 2193 3439 
Q 2478 3584 2822 3584 
Q 3428 3584 3742 3212 
Q 4056 2841 4056 2131 
z
" transform="scale(0.015625)"/>
     <path id="DejaVuSans-Bold-66" d="M 2841 4863 
L 2841 4128 
L 2222 4128 
Q 1984 4128 1890 4042 
Q 1797 3956 1797 3744 
L 1797 3500 
L 2753 3500 
L 2753 2700 
L 1797 2700 
L 1797 0 
L 678 0 
L 678 2700 
L 122 2700 
L 122 3500 
L 678 3500 
L 678 3744 
Q 678 4316 997 4589 
Q 1316 4863 1984 4863 
L 2841 4863 
z
" transform="scale(0.015625)"/>
     <path id="DejaVuSans-Bold-6b" d="M 538 4863 
L 1656 4863 
L 1656 2216 
L 2944 3500 
L 4244 3500 
L 2534 1894 
L 4378 0 
L 3022 0 
L 1656 1459 
L 1656 0 
L 538 0 
L 538 4863 
z
" transform="scale(0.015625)"/>
     <path id="DejaVuSans-Bold-6f" d="M 2203 2784 
Q 1831 2784 1636 2517 
Q 1441 2250 1441 1747 
Q 1441 1244 1636 976 
Q 1831 709 2203 709 
Q 2569 709 2762 976 
Q 2956 1244 2956 1747 
Q 2956 2250 2762 2517 
Q 2569 2784 2203 2784 
z
M 2203 3584 
Q 3106 3584 3614 3096 
Q 4122 2609 4122 1747 
Q 4122 884 3614 396 
Q 3106 -91 2203 -91 
Q 1297 -91 786 396 
Q 275 884 275 1747 
Q 275 2609 786 3096 
Q 1297 3584 2203 3584 
z
" transform="scale(0.015625)"/>
    </defs>
    <use xlink:href="#DejaVuSans-Bold-45"/>
    <use xlink:href="#DejaVuSans-Bold-78" transform="translate(68.310547 0)"/>
    <use xlink:href="#DejaVuSans-Bold-70" transform="translate(132.8125 0)"/>
    <use xlink:href="#DejaVuSans-Bold-20" transform="translate(204.394531 0)"/>
    <use xlink:href="#DejaVuSans-Bold-30" transform="translate(239.208984 0)"/>
    <use xlink:href="#DejaVuSans-Bold-38" transform="translate(308.789062 0)"/>
    <use xlink:href="#DejaVuSans-Bold-20" transform="translate(378.369141 0)"/>
    <use xlink:href="#DejaVuSans-Bold-2013" transform="translate(413.183594 0)"/>
    <use xlink:href="#DejaVuSans-Bold-20" transform="translate(463.183594 0)"/>
    <use xlink:href="#DejaVuSans-Bold-45" transform="translate(497.998047 0)"/>
    <use xlink:href="#DejaVuSans-Bold-72" transform="translate(566.308594 0)"/>
    <use xlink:href="#DejaVuSans-Bold-77" transform="translate(615.625 0)"/>
    <use xlink:href="#DejaVuSans-Bold-65" transform="translate(708.007812 0)"/>
    <use xlink:href="#DejaVuSans-Bold-69" transform="translate(775.830078 0)"/>
    <use xlink:href="#DejaVuSans-Bold-74" transform="translate(810.107422 0)"/>
    <use xlink:href="#DejaVuSans-Bold-65" transform="translate(857.910156 0)"/>
    <use xlink:href="#DejaVuSans-Bold-72" transform="translate(925.732422 0)"/>
    <use xlink:href="#DejaVuSans-Bold-74" transform="translate(975.048828 0)"/>
    <use xlink:href="#DejaVuSans-Bold-65" transform="translate(1022.851562 0)"/>
    <use xlink:href="#DejaVuSans-Bold-72" transform="translate(1090.673828 0)"/>
    <use xlink:href="#DejaVuSans-Bold-20" transform="translate(1139.990234 0)"/>
    <use xlink:href="#DejaVuSans-Bold-56" transform="translate(1174.804688 0)"/>
    <use xlink:href="#DejaVuSans-Bold-65" transform="translate(1246.697266 0)"/>
    <use xlink:href="#DejaVuSans-Bold-72" transform="translate(1314.519531 0)"/>
    <use xlink:href="#DejaVuSans-Bold-62" transform="translate(1363.835938 0)"/>
    <use xlink:href="#DejaVuSans-Bold-65" transform="translate(1435.417969 0)"/>
    <use xlink:href="#DejaVuSans-Bold-73" transform="translate(1503.240234 0)"/>
    <use xlink:href="#DejaVuSans-Bold-73" transform="translate(1562.761719 0)"/>
    <use xlink:href="#DejaVuSans-Bold-65" transform="translate(1622.283203 0)"/>
    <use xlink:href="#DejaVuSans-Bold-72" transform="translate(1690.105469 0)"/>
    <use xlink:href="#DejaVuSans-Bold-75" transform="translate(1739.421875 0)"/>
    <use xlink:href="#DejaVuSans-Bold-6e" transform="translate(1810.613281 0)"/>
    <use xlink:href="#DejaVuSans-Bold-67" transform="translate(1881.804688 0)"/>
    <use xlink:href="#DejaVuSans-Bold-73" transform="translate(1953.386719 0)"/>
    <use xlink:href="#DejaVuSans-Bold-66" transform="translate(2012.908203 0)"/>
    <use xlink:href="#DejaVuSans-Bold-61" transform="translate(2056.414062 0)"/>
    <use xlink:href="#DejaVuSans-Bold-6b" transform="translate(2123.894531 0)"/>
    <use xlink:href="#DejaVuSans-Bold-74" transform="translate(2190.398438 0)"/>
    <use xlink:href="#DejaVuSans-Bold-6f" transform="translate(2238.201172 0)"/>
    <use xlink:href="#DejaVuSans-Bold-72" transform="translate(2306.902344 0)"/>
    <use xlink:href="#DejaVuSans-Bold-20" transform="translate(2356.21875 0)"/>
    <use xlink:href="#DejaVuSans-Bold-3a6" transform="translate(2391.033203 0)"/>
    <use xlink:href="#DejaVuSans-Bold-5f" transform="translate(2476.042969 0)"/>
    <use xlink:href="#DejaVuSans-Bold-67" transform="translate(2526.042969 0)"/>
    <use xlink:href="#DejaVuSans-Bold-65" transform="translate(2597.625 0)"/>
    <use xlink:href="#DejaVuSans-Bold-73" transform="translate(2665.447266 0)"/>
   </g>
  </g>
 </g>
 <defs>
  <clipPath id="p0361f43baa">
   <rect x="40.603125" y="39.506261" width="425.327572" height="291.058884"/>
  </clipPath>
  <clipPath id="p572ba452c0">
   <rect x="511.871947" y="39.506261" width="425.327573" height="291.058884"/>
  </clipPath>
 </defs>
</svg>
