<?xml version="1.0" encoding="utf-8" standalone="no"?>
<!DOCTYPE svg PUBLIC "-//W3C//DTD SVG 1.1//EN"
  "http://www.w3.org/Graphics/SVG/1.1/DTD/svg11.dtd">
<svg xmlns:xlink="http://www.w3.org/1999/xlink" width="944.39952pt" height="368.39952pt" viewBox="0 0 944.39952 368.39952" xmlns="http://www.w3.org/2000/svg" version="1.1">
 <metadata>
  <rdf:RDF xmlns:dc="http://purl.org/dc/elements/1.1/" xmlns:cc="http://creativecommons.org/ns#" xmlns:rdf="http://www.w3.org/1999/02/22-rdf-syntax-ns#">
   <cc:Work>
    <dc:type rdf:resource="http://purl.org/dc/dcmitype/StillImage"/>
    <dc:date>2026-03-08T05:21:00.753185</dc:date>
    <dc:format>image/svg+xml</dc:format>
    <dc:creator>
     <cc:Agent>
      <dc:title>Matplotlib v3.10.8, https://matplotlib.org/</dc:title>
     </cc:Agent>
    </dc:creator>
   </cc:Work>
  </rdf:RDF>
 </metadata>
 <defs>
  <style type="text/css">*{stroke-linejoin: round; stroke-linecap: butt}</style>
 </defs>
 <g id="figure_1">
  <g id="patch_1">
   <path d="M 0 368.39952 
L 944.39952 368.39952 
L 944.39952 0 
L 0 0 
z
" style="fill: #ffffff"/>
  </g>
  <g id="axes_1">
   <g id="patch_2">
    <path d="M 40.603125 333.107924 
L 453.041635 333.107924 
L 453.041635 41.378217 
L 40.603125 41.378217 
z
" style="fill: #ffffff"/>
   </g>
   <g id="patch_3">
    <path d="M 59.35033 333.107924 
L 107.954195 333.107924 
L 107.954195 108.11781 
L 59.35033 108.11781 
z
" clip-path="url(#p20ab4512d1)" style="fill: #1f77b4"/>
   </g>
   <g id="patch_4">
    <path d="M 198.218515 333.107924 
L 246.82238 333.107924 
L 246.82238 55.270108 
L 198.218515 55.270108 
z
" clip-path="url(#p20ab4512d1)" style="fill: #1f77b4"/>
   </g>
   <g id="patch_5">
    <path d="M 337.0867 333.107924 
L 385.690565 333.107924 
L 385.690565 153.229875 
L 337.0867 153.229875 
z
" clip-path="url(#p20ab4512d1)" style="fill: #1f77b4"/>
   </g>
   <g id="patch_6">
    <path d="M 107.954195 333.107924 
L 156.55806 333.107924 
L 156.55806 108.11781 
L 107.954195 108.11781 
z
" clip-path="url(#p20ab4512d1)" style="fill: #ff7f0e"/>
   </g>
   <g id="patch_7">
    <path d="M 246.82238 333.107924 
L 295.426245 333.107924 
L 295.426245 60.224231 
L 246.82238 60.224231 
z
" clip-path="url(#p20ab4512d1)" style="fill: #ff7f0e"/>
   </g>
   <g id="patch_8">
    <path d="M 385.690565 333.107924 
L 434.29443 333.107924 
L 434.29443 153.229875 
L 385.690565 153.229875 
z
" clip-path="url(#p20ab4512d1)" style="fill: #ff7f0e"/>
   </g>
   <g id="matplotlib.axis_1">
    <g id="xtick_1">
     <g id="line2d_1">
      <path d="M 107.954195 333.107924 
L 107.954195 41.378217 
" clip-path="url(#p20ab4512d1)" style="fill: none; stroke-dasharray: 2.96,1.28; stroke-dashoffset: 0; stroke: #b0b0b0; stroke-opacity: 0.3; stroke-width: 0.8"/>
     </g>
     <g id="line2d_2">
      <defs>
       <path id="m0e9a7545a5" d="M 0 0 
L 0 3.5 
" style="stroke: #000000; stroke-width: 0.8"/>
      </defs>
      <g>
       <use xlink:href="#m0e9a7545a5" x="107.954195" y="333.107924" style="stroke: #000000; stroke-width: 0.8"/>
      </g>
     </g>
     <g id="text_1">
      <!-- LP1 Smartphone -->
      <g transform="translate(67.397604 359.140072) rotate(-8) scale(0.1 -0.1)">
       <defs>
        <path id="DejaVuSans-4c" d="M 628 4666 
L 1259 4666 
L 1259 531 
L 3531 531 
L 3531 0 
L 628 0 
L 628 4666 
z
" transform="scale(0.015625)"/>
        <path id="DejaVuSans-50" d="M 1259 4147 
L 1259 2394 
L 2053 2394 
Q 2494 2394 2734 2622 
Q 2975 2850 2975 3272 
Q 2975 3691 2734 3919 
Q 2494 4147 2053 4147 
L 1259 4147 
z
M 628 4666 
L 2053 4666 
Q 2838 4666 3239 4311 
Q 3641 3956 3641 3272 
Q 3641 2581 3239 2228 
Q 2838 1875 2053 1875 
L 1259 1875 
L 1259 0 
L 628 0 
L 628 4666 
z
" transform="scale(0.015625)"/>
        <path id="DejaVuSans-31" d="M 794 531 
L 1825 531 
L 1825 4091 
L 703 3866 
L 703 4441 
L 1819 4666 
L 2450 4666 
L 2450 531 
L 3481 531 
L 3481 0 
L 794 0 
L 794 531 
z
" transform="scale(0.015625)"/>
        <path id="DejaVuSans-20" transform="scale(0.015625)"/>
        <path id="DejaVuSans-53" d="M 3425 4513 
L 3425 3897 
Q 3066 4069 2747 4153 
Q 2428 4238 2131 4238 
Q 1616 4238 1336 4038 
Q 1056 3838 1056 3469 
Q 1056 3159 1242 3001 
Q 1428 2844 1947 2747 
L 2328 2669 
Q 3034 2534 3370 2195 
Q 3706 1856 3706 1288 
Q 3706 609 3251 259 
Q 2797 -91 1919 -91 
Q 1588 -91 1214 -16 
Q 841 59 441 206 
L 441 856 
Q 825 641 1194 531 
Q 1563 422 1919 422 
Q 2459 422 2753 634 
Q 3047 847 3047 1241 
Q 3047 1584 2836 1778 
Q 2625 1972 2144 2069 
L 1759 2144 
Q 1053 2284 737 2584 
Q 422 2884 422 3419 
Q 422 4038 858 4394 
Q 1294 4750 2059 4750 
Q 2388 4750 2728 4690 
Q 3069 4631 3425 4513 
z
" transform="scale(0.015625)"/>
        <path id="DejaVuSans-6d" d="M 3328 2828 
Q 3544 3216 3844 3400 
Q 4144 3584 4550 3584 
Q 5097 3584 5394 3201 
Q 5691 2819 5691 2113 
L 5691 0 
L 5113 0 
L 5113 2094 
Q 5113 2597 4934 2840 
Q 4756 3084 4391 3084 
Q 3944 3084 3684 2787 
Q 3425 2491 3425 1978 
L 3425 0 
L 2847 0 
L 2847 2094 
Q 2847 2600 2669 2842 
Q 2491 3084 2119 3084 
Q 1678 3084 1418 2786 
Q 1159 2488 1159 1978 
L 1159 0 
L 581 0 
L 581 3500 
L 1159 3500 
L 1159 2956 
Q 1356 3278 1631 3431 
Q 1906 3584 2284 3584 
Q 2666 3584 2933 3390 
Q 3200 3197 3328 2828 
z
" transform="scale(0.015625)"/>
        <path id="DejaVuSans-61" d="M 2194 1759 
Q 1497 1759 1228 1600 
Q 959 1441 959 1056 
Q 959 750 1161 570 
Q 1363 391 1709 391 
Q 2188 391 2477 730 
Q 2766 1069 2766 1631 
L 2766 1759 
L 2194 1759 
z
M 3341 1997 
L 3341 0 
L 2766 0 
L 2766 531 
Q 2569 213 2275 61 
Q 1981 -91 1556 -91 
Q 1019 -91 701 211 
Q 384 513 384 1019 
Q 384 1609 779 1909 
Q 1175 2209 1959 2209 
L 2766 2209 
L 2766 2266 
Q 2766 2663 2505 2880 
Q 2244 3097 1772 3097 
Q 1472 3097 1187 3025 
Q 903 2953 641 2809 
L 641 3341 
Q 956 3463 1253 3523 
Q 1550 3584 1831 3584 
Q 2591 3584 2966 3190 
Q 3341 2797 3341 1997 
z
" transform="scale(0.015625)"/>
        <path id="DejaVuSans-72" d="M 2631 2963 
Q 2534 3019 2420 3045 
Q 2306 3072 2169 3072 
Q 1681 3072 1420 2755 
Q 1159 2438 1159 1844 
L 1159 0 
L 581 0 
L 581 3500 
L 1159 3500 
L 1159 2956 
Q 1341 3275 1631 3429 
Q 1922 3584 2338 3584 
Q 2397 3584 2469 3576 
Q 2541 3569 2628 3553 
L 2631 2963 
z
" transform="scale(0.015625)"/>
        <path id="DejaVuSans-74" d="M 1172 4494 
L 1172 3500 
L 2356 3500 
L 2356 3053 
L 1172 3053 
L 1172 1153 
Q 1172 725 1289 603 
Q 1406 481 1766 481 
L 2356 481 
L 2356 0 
L 1766 0 
Q 1100 0 847 248 
Q 594 497 594 1153 
L 594 3053 
L 172 3053 
L 172 3500 
L 594 3500 
L 594 4494 
L 1172 4494 
z
" transform="scale(0.015625)"/>
        <path id="DejaVuSans-70" d="M 1159 525 
L 1159 -1331 
L 581 -1331 
L 581 3500 
L 1159 3500 
L 1159 2969 
Q 1341 3281 1617 3432 
Q 1894 3584 2278 3584 
Q 2916 3584 3314 3078 
Q 3713 2572 3713 1747 
Q 3713 922 3314 415 
Q 2916 -91 2278 -91 
Q 1894 -91 1617 61 
Q 1341 213 1159 525 
z
M 3116 1747 
Q 3116 2381 2855 2742 
Q 2594 3103 2138 3103 
Q 1681 3103 1420 2742 
Q 1159 2381 1159 1747 
Q 1159 1113 1420 752 
Q 1681 391 2138 391 
Q 2594 391 2855 752 
Q 3116 1113 3116 1747 
z
" transform="scale(0.015625)"/>
        <path id="DejaVuSans-68" d="M 3513 2113 
L 3513 0 
L 2938 0 
L 2938 2094 
Q 2938 2591 2744 2837 
Q 2550 3084 2163 3084 
Q 1697 3084 1428 2787 
Q 1159 2491 1159 1978 
L 1159 0 
L 581 0 
L 581 4863 
L 1159 4863 
L 1159 2956 
Q 1366 3272 1645 3428 
Q 1925 3584 2291 3584 
Q 2894 3584 3203 3211 
Q 3513 2838 3513 2113 
z
" transform="scale(0.015625)"/>
        <path id="DejaVuSans-6f" d="M 1959 3097 
Q 1497 3097 1228 2736 
Q 959 2375 959 1747 
Q 959 1119 1226 758 
Q 1494 397 1959 397 
Q 2419 397 2687 759 
Q 2956 1122 2956 1747 
Q 2956 2369 2687 2733 
Q 2419 3097 1959 3097 
z
M 1959 3584 
Q 2709 3584 3137 3096 
Q 3566 2609 3566 1747 
Q 3566 888 3137 398 
Q 2709 -91 1959 -91 
Q 1206 -91 779 398 
Q 353 888 353 1747 
Q 353 2609 779 3096 
Q 1206 3584 1959 3584 
z
" transform="scale(0.015625)"/>
        <path id="DejaVuSans-6e" d="M 3513 2113 
L 3513 0 
L 2938 0 
L 2938 2094 
Q 2938 2591 2744 2837 
Q 2550 3084 2163 3084 
Q 1697 3084 1428 2787 
Q 1159 2491 1159 1978 
L 1159 0 
L 581 0 
L 581 3500 
L 1159 3500 
L 1159 2956 
Q 1366 3272 1645 3428 
Q 1925 3584 2291 3584 
Q 2894 3584 3203 3211 
Q 3513 2838 3513 2113 
z
" transform="scale(0.015625)"/>
        <path id="DejaVuSans-65" d="M 3597 1894 
L 3597 1613 
L 953 1613 
Q 991 1019 1311 708 
Q 1631 397 2203 397 
Q 2534 397 2845 478 
Q 3156 559 3463 722 
L 3463 178 
Q 3153 47 2828 -22 
Q 2503 -91 2169 -91 
Q 1331 -91 842 396 
Q 353 884 353 1716 
Q 353 2575 817 3079 
Q 1281 3584 2069 3584 
Q 2775 3584 3186 3129 
Q 3597 2675 3597 1894 
z
M 3022 2063 
Q 3016 2534 2758 2815 
Q 2500 3097 2075 3097 
Q 1594 3097 1305 2825 
Q 1016 2553 972 2059 
L 3022 2063 
z
" transform="scale(0.015625)"/>
       </defs>
       <use xlink:href="#DejaVuSans-4c"/>
       <use xlink:href="#DejaVuSans-50" transform="translate(55.712891 0)"/>
       <use xlink:href="#DejaVuSans-31" transform="translate(116.015625 0)"/>
       <use xlink:href="#DejaVuSans-20" transform="translate(179.638672 0)"/>
       <use xlink:href="#DejaVuSans-53" transform="translate(211.425781 0)"/>
       <use xlink:href="#DejaVuSans-6d" transform="translate(274.902344 0)"/>
       <use xlink:href="#DejaVuSans-61" transform="translate(372.314453 0)"/>
       <use xlink:href="#DejaVuSans-72" transform="translate(433.59375 0)"/>
       <use xlink:href="#DejaVuSans-74" transform="translate(474.707031 0)"/>
       <use xlink:href="#DejaVuSans-70" transform="translate(513.916016 0)"/>
       <use xlink:href="#DejaVuSans-68" transform="translate(577.392578 0)"/>
       <use xlink:href="#DejaVuSans-6f" transform="translate(640.771484 0)"/>
       <use xlink:href="#DejaVuSans-6e" transform="translate(701.953125 0)"/>
       <use xlink:href="#DejaVuSans-65" transform="translate(765.332031 0)"/>
      </g>
     </g>
    </g>
    <g id="xtick_2">
     <g id="line2d_3">
      <path d="M 246.82238 333.107924 
L 246.82238 41.378217 
" clip-path="url(#p20ab4512d1)" style="fill: none; stroke-dasharray: 2.96,1.28; stroke-dashoffset: 0; stroke: #b0b0b0; stroke-opacity: 0.3; stroke-width: 0.8"/>
     </g>
     <g id="line2d_4">
      <g>
       <use xlink:href="#m0e9a7545a5" x="246.82238" y="333.107924" style="stroke: #000000; stroke-width: 0.8"/>
      </g>
     </g>
     <g id="text_2">
      <!-- LP2 E-Bike -->
      <g transform="translate(221.495802 354.859194) rotate(-8) scale(0.1 -0.1)">
       <defs>
        <path id="DejaVuSans-32" d="M 1228 531 
L 3431 531 
L 3431 0 
L 469 0 
L 469 531 
Q 828 903 1448 1529 
Q 2069 2156 2228 2338 
Q 2531 2678 2651 2914 
Q 2772 3150 2772 3378 
Q 2772 3750 2511 3984 
Q 2250 4219 1831 4219 
Q 1534 4219 1204 4116 
Q 875 4013 500 3803 
L 500 4441 
Q 881 4594 1212 4672 
Q 1544 4750 1819 4750 
Q 2544 4750 2975 4387 
Q 3406 4025 3406 3419 
Q 3406 3131 3298 2873 
Q 3191 2616 2906 2266 
Q 2828 2175 2409 1742 
Q 1991 1309 1228 531 
z
" transform="scale(0.015625)"/>
        <path id="DejaVuSans-45" d="M 628 4666 
L 3578 4666 
L 3578 4134 
L 1259 4134 
L 1259 2753 
L 3481 2753 
L 3481 2222 
L 1259 2222 
L 1259 531 
L 3634 531 
L 3634 0 
L 628 0 
L 628 4666 
z
" transform="scale(0.015625)"/>
        <path id="DejaVuSans-2d" d="M 313 2009 
L 1997 2009 
L 1997 1497 
L 313 1497 
L 313 2009 
z
" transform="scale(0.015625)"/>
        <path id="DejaVuSans-42" d="M 1259 2228 
L 1259 519 
L 2272 519 
Q 2781 519 3026 730 
Q 3272 941 3272 1375 
Q 3272 1813 3026 2020 
Q 2781 2228 2272 2228 
L 1259 2228 
z
M 1259 4147 
L 1259 2741 
L 2194 2741 
Q 2656 2741 2882 2914 
Q 3109 3088 3109 3444 
Q 3109 3797 2882 3972 
Q 2656 4147 2194 4147 
L 1259 4147 
z
M 628 4666 
L 2241 4666 
Q 2963 4666 3353 4366 
Q 3744 4066 3744 3513 
Q 3744 3084 3544 2831 
Q 3344 2578 2956 2516 
Q 3422 2416 3680 2098 
Q 3938 1781 3938 1306 
Q 3938 681 3513 340 
Q 3088 0 2303 0 
L 628 0 
L 628 4666 
z
" transform="scale(0.015625)"/>
        <path id="DejaVuSans-69" d="M 603 3500 
L 1178 3500 
L 1178 0 
L 603 0 
L 603 3500 
z
M 603 4863 
L 1178 4863 
L 1178 4134 
L 603 4134 
L 603 4863 
z
" transform="scale(0.015625)"/>
        <path id="DejaVuSans-6b" d="M 581 4863 
L 1159 4863 
L 1159 1991 
L 2875 3500 
L 3609 3500 
L 1753 1863 
L 3688 0 
L 2938 0 
L 1159 1709 
L 1159 0 
L 581 0 
L 581 4863 
z
" transform="scale(0.015625)"/>
       </defs>
       <use xlink:href="#DejaVuSans-4c"/>
       <use xlink:href="#DejaVuSans-50" transform="translate(55.712891 0)"/>
       <use xlink:href="#DejaVuSans-32" transform="translate(116.015625 0)"/>
       <use xlink:href="#DejaVuSans-20" transform="translate(179.638672 0)"/>
       <use xlink:href="#DejaVuSans-45" transform="translate(211.425781 0)"/>
       <use xlink:href="#DejaVuSans-2d" transform="translate(274.609375 0)"/>
       <use xlink:href="#DejaVuSans-42" transform="translate(307.068359 0)"/>
       <use xlink:href="#DejaVuSans-69" transform="translate(375.671875 0)"/>
       <use xlink:href="#DejaVuSans-6b" transform="translate(403.455078 0)"/>
       <use xlink:href="#DejaVuSans-65" transform="translate(457.740234 0)"/>
      </g>
     </g>
    </g>
    <g id="xtick_3">
     <g id="line2d_5">
      <path d="M 385.690565 333.107924 
L 385.690565 41.378217 
" clip-path="url(#p20ab4512d1)" style="fill: none; stroke-dasharray: 2.96,1.28; stroke-dashoffset: 0; stroke: #b0b0b0; stroke-opacity: 0.3; stroke-width: 0.8"/>
     </g>
     <g id="line2d_6">
      <g>
       <use xlink:href="#m0e9a7545a5" x="385.690565" y="333.107924" style="stroke: #000000; stroke-width: 0.8"/>
      </g>
     </g>
     <g id="text_3">
      <!-- LP3 Stationär -->
      <g transform="translate(352.933882 356.947661) rotate(-8) scale(0.1 -0.1)">
       <defs>
        <path id="DejaVuSans-33" d="M 2597 2516 
Q 3050 2419 3304 2112 
Q 3559 1806 3559 1356 
Q 3559 666 3084 287 
Q 2609 -91 1734 -91 
Q 1441 -91 1130 -33 
Q 819 25 488 141 
L 488 750 
Q 750 597 1062 519 
Q 1375 441 1716 441 
Q 2309 441 2620 675 
Q 2931 909 2931 1356 
Q 2931 1769 2642 2001 
Q 2353 2234 1838 2234 
L 1294 2234 
L 1294 2753 
L 1863 2753 
Q 2328 2753 2575 2939 
Q 2822 3125 2822 3475 
Q 2822 3834 2567 4026 
Q 2313 4219 1838 4219 
Q 1578 4219 1281 4162 
Q 984 4106 628 3988 
L 628 4550 
Q 988 4650 1302 4700 
Q 1616 4750 1894 4750 
Q 2613 4750 3031 4423 
Q 3450 4097 3450 3541 
Q 3450 3153 3228 2886 
Q 3006 2619 2597 2516 
z
" transform="scale(0.015625)"/>
        <path id="DejaVuSans-e4" d="M 2194 1759 
Q 1497 1759 1228 1600 
Q 959 1441 959 1056 
Q 959 750 1161 570 
Q 1363 391 1709 391 
Q 2188 391 2477 730 
Q 2766 1069 2766 1631 
L 2766 1759 
L 2194 1759 
z
M 3341 1997 
L 3341 0 
L 2766 0 
L 2766 531 
Q 2569 213 2275 61 
Q 1981 -91 1556 -91 
Q 1019 -91 701 211 
Q 384 513 384 1019 
Q 384 1609 779 1909 
Q 1175 2209 1959 2209 
L 2766 2209 
L 2766 2266 
Q 2766 2663 2505 2880 
Q 2244 3097 1772 3097 
Q 1472 3097 1187 3025 
Q 903 2953 641 2809 
L 641 3341 
Q 956 3463 1253 3523 
Q 1550 3584 1831 3584 
Q 2591 3584 2966 3190 
Q 3341 2797 3341 1997 
z
M 2150 4850 
L 2784 4850 
L 2784 4219 
L 2150 4219 
L 2150 4850 
z
M 928 4850 
L 1562 4850 
L 1562 4219 
L 928 4219 
L 928 4850 
z
" transform="scale(0.015625)"/>
       </defs>
       <use xlink:href="#DejaVuSans-4c"/>
       <use xlink:href="#DejaVuSans-50" transform="translate(55.712891 0)"/>
       <use xlink:href="#DejaVuSans-33" transform="translate(116.015625 0)"/>
       <use xlink:href="#DejaVuSans-20" transform="translate(179.638672 0)"/>
       <use xlink:href="#DejaVuSans-53" transform="translate(211.425781 0)"/>
       <use xlink:href="#DejaVuSans-74" transform="translate(274.902344 0)"/>
       <use xlink:href="#DejaVuSans-61" transform="translate(314.111328 0)"/>
       <use xlink:href="#DejaVuSans-74" transform="translate(375.390625 0)"/>
       <use xlink:href="#DejaVuSans-69" transform="translate(414.599609 0)"/>
       <use xlink:href="#DejaVuSans-6f" transform="translate(442.382812 0)"/>
       <use xlink:href="#DejaVuSans-6e" transform="translate(503.564453 0)"/>
       <use xlink:href="#DejaVuSans-e4" transform="translate(566.943359 0)"/>
       <use xlink:href="#DejaVuSans-72" transform="translate(628.222656 0)"/>
      </g>
     </g>
    </g>
   </g>
   <g id="matplotlib.axis_2">
    <g id="ytick_1">
     <g id="line2d_7">
      <path d="M 40.603125 333.107924 
L 453.041635 333.107924 
" clip-path="url(#p20ab4512d1)" style="fill: none; stroke-dasharray: 2.96,1.28; stroke-dashoffset: 0; stroke: #b0b0b0; stroke-opacity: 0.3; stroke-width: 0.8"/>
     </g>
     <g id="line2d_8">
      <defs>
       <path id="m521cacd6ba" d="M 0 0 
L -3.5 0 
" style="stroke: #000000; stroke-width: 0.8"/>
      </defs>
      <g>
       <use xlink:href="#m521cacd6ba" x="40.603125" y="333.107924" style="stroke: #000000; stroke-width: 0.8"/>
      </g>
     </g>
     <g id="text_4">
      <!-- 0 -->
      <g transform="translate(27.240625 336.907142) scale(0.1 -0.1)">
       <defs>
        <path id="DejaVuSans-30" d="M 2034 4250 
Q 1547 4250 1301 3770 
Q 1056 3291 1056 2328 
Q 1056 1369 1301 889 
Q 1547 409 2034 409 
Q 2525 409 2770 889 
Q 3016 1369 3016 2328 
Q 3016 3291 2770 3770 
Q 2525 4250 2034 4250 
z
M 2034 4750 
Q 2819 4750 3233 4129 
Q 3647 3509 3647 2328 
Q 3647 1150 3233 529 
Q 2819 -91 2034 -91 
Q 1250 -91 836 529 
Q 422 1150 422 2328 
Q 422 3509 836 4129 
Q 1250 4750 2034 4750 
z
" transform="scale(0.015625)"/>
       </defs>
       <use xlink:href="#DejaVuSans-30"/>
      </g>
     </g>
    </g>
    <g id="ytick_2">
     <g id="line2d_9">
      <path d="M 40.603125 288.013076 
L 453.041635 288.013076 
" clip-path="url(#p20ab4512d1)" style="fill: none; stroke-dasharray: 2.96,1.28; stroke-dashoffset: 0; stroke: #b0b0b0; stroke-opacity: 0.3; stroke-width: 0.8"/>
     </g>
     <g id="line2d_10">
      <g>
       <use xlink:href="#m521cacd6ba" x="40.603125" y="288.013076" style="stroke: #000000; stroke-width: 0.8"/>
      </g>
     </g>
     <g id="text_5">
      <!-- 5 -->
      <g transform="translate(27.240625 291.812295) scale(0.1 -0.1)">
       <defs>
        <path id="DejaVuSans-35" d="M 691 4666 
L 3169 4666 
L 3169 4134 
L 1269 4134 
L 1269 2991 
Q 1406 3038 1543 3061 
Q 1681 3084 1819 3084 
Q 2600 3084 3056 2656 
Q 3513 2228 3513 1497 
Q 3513 744 3044 326 
Q 2575 -91 1722 -91 
Q 1428 -91 1123 -41 
Q 819 9 494 109 
L 494 744 
Q 775 591 1075 516 
Q 1375 441 1709 441 
Q 2250 441 2565 725 
Q 2881 1009 2881 1497 
Q 2881 1984 2565 2268 
Q 2250 2553 1709 2553 
Q 1456 2553 1204 2497 
Q 953 2441 691 2322 
L 691 4666 
z
" transform="scale(0.015625)"/>
       </defs>
       <use xlink:href="#DejaVuSans-35"/>
      </g>
     </g>
    </g>
    <g id="ytick_3">
     <g id="line2d_11">
      <path d="M 40.603125 242.918228 
L 453.041635 242.918228 
" clip-path="url(#p20ab4512d1)" style="fill: none; stroke-dasharray: 2.96,1.28; stroke-dashoffset: 0; stroke: #b0b0b0; stroke-opacity: 0.3; stroke-width: 0.8"/>
     </g>
     <g id="line2d_12">
      <g>
       <use xlink:href="#m521cacd6ba" x="40.603125" y="242.918228" style="stroke: #000000; stroke-width: 0.8"/>
      </g>
     </g>
     <g id="text_6">
      <!-- 10 -->
      <g transform="translate(20.878125 246.717447) scale(0.1 -0.1)">
       <use xlink:href="#DejaVuSans-31"/>
       <use xlink:href="#DejaVuSans-30" transform="translate(63.623047 0)"/>
      </g>
     </g>
    </g>
    <g id="ytick_4">
     <g id="line2d_13">
      <path d="M 40.603125 197.82338 
L 453.041635 197.82338 
" clip-path="url(#p20ab4512d1)" style="fill: none; stroke-dasharray: 2.96,1.28; stroke-dashoffset: 0; stroke: #b0b0b0; stroke-opacity: 0.3; stroke-width: 0.8"/>
     </g>
     <g id="line2d_14">
      <g>
       <use xlink:href="#m521cacd6ba" x="40.603125" y="197.82338" style="stroke: #000000; stroke-width: 0.8"/>
      </g>
     </g>
     <g id="text_7">
      <!-- 15 -->
      <g transform="translate(20.878125 201.622599) scale(0.1 -0.1)">
       <use xlink:href="#DejaVuSans-31"/>
       <use xlink:href="#DejaVuSans-35" transform="translate(63.623047 0)"/>
      </g>
     </g>
    </g>
    <g id="ytick_5">
     <g id="line2d_15">
      <path d="M 40.603125 152.728533 
L 453.041635 152.728533 
" clip-path="url(#p20ab4512d1)" style="fill: none; stroke-dasharray: 2.96,1.28; stroke-dashoffset: 0; stroke: #b0b0b0; stroke-opacity: 0.3; stroke-width: 0.8"/>
     </g>
     <g id="line2d_16">
      <g>
       <use xlink:href="#m521cacd6ba" x="40.603125" y="152.728533" style="stroke: #000000; stroke-width: 0.8"/>
      </g>
     </g>
     <g id="text_8">
      <!-- 20 -->
      <g transform="translate(20.878125 156.527751) scale(0.1 -0.1)">
       <use xlink:href="#DejaVuSans-32"/>
       <use xlink:href="#DejaVuSans-30" transform="translate(63.623047 0)"/>
      </g>
     </g>
    </g>
    <g id="ytick_6">
     <g id="line2d_17">
      <path d="M 40.603125 107.633685 
L 453.041635 107.633685 
" clip-path="url(#p20ab4512d1)" style="fill: none; stroke-dasharray: 2.96,1.28; stroke-dashoffset: 0; stroke: #b0b0b0; stroke-opacity: 0.3; stroke-width: 0.8"/>
     </g>
     <g id="line2d_18">
      <g>
       <use xlink:href="#m521cacd6ba" x="40.603125" y="107.633685" style="stroke: #000000; stroke-width: 0.8"/>
      </g>
     </g>
     <g id="text_9">
      <!-- 25 -->
      <g transform="translate(20.878125 111.432904) scale(0.1 -0.1)">
       <use xlink:href="#DejaVuSans-32"/>
       <use xlink:href="#DejaVuSans-35" transform="translate(63.623047 0)"/>
      </g>
     </g>
    </g>
    <g id="ytick_7">
     <g id="line2d_19">
      <path d="M 40.603125 62.538837 
L 453.041635 62.538837 
" clip-path="url(#p20ab4512d1)" style="fill: none; stroke-dasharray: 2.96,1.28; stroke-dashoffset: 0; stroke: #b0b0b0; stroke-opacity: 0.3; stroke-width: 0.8"/>
     </g>
     <g id="line2d_20">
      <g>
       <use xlink:href="#m521cacd6ba" x="40.603125" y="62.538837" style="stroke: #000000; stroke-width: 0.8"/>
      </g>
     </g>
     <g id="text_10">
      <!-- 30 -->
      <g transform="translate(20.878125 66.338056) scale(0.1 -0.1)">
       <use xlink:href="#DejaVuSans-33"/>
       <use xlink:href="#DejaVuSans-30" transform="translate(63.623047 0)"/>
      </g>
     </g>
    </g>
    <g id="text_11">
     <!-- Mittlere Zelltemperatur [°C] -->
     <g transform="translate(14.798438 257.164164) rotate(-90) scale(0.1 -0.1)">
      <defs>
       <path id="DejaVuSans-4d" d="M 628 4666 
L 1569 4666 
L 2759 1491 
L 3956 4666 
L 4897 4666 
L 4897 0 
L 4281 0 
L 4281 4097 
L 3078 897 
L 2444 897 
L 1241 4097 
L 1241 0 
L 628 0 
L 628 4666 
z
" transform="scale(0.015625)"/>
       <path id="DejaVuSans-6c" d="M 603 4863 
L 1178 4863 
L 1178 0 
L 603 0 
L 603 4863 
z
" transform="scale(0.015625)"/>
       <path id="DejaVuSans-5a" d="M 359 4666 
L 4025 4666 
L 4025 4184 
L 1075 531 
L 4097 531 
L 4097 0 
L 288 0 
L 288 481 
L 3238 4134 
L 359 4134 
L 359 4666 
z
" transform="scale(0.015625)"/>
       <path id="DejaVuSans-75" d="M 544 1381 
L 544 3500 
L 1119 3500 
L 1119 1403 
Q 1119 906 1312 657 
Q 1506 409 1894 409 
Q 2359 409 2629 706 
Q 2900 1003 2900 1516 
L 2900 3500 
L 3475 3500 
L 3475 0 
L 2900 0 
L 2900 538 
Q 2691 219 2414 64 
Q 2138 -91 1772 -91 
Q 1169 -91 856 284 
Q 544 659 544 1381 
z
M 1991 3584 
L 1991 3584 
z
" transform="scale(0.015625)"/>
       <path id="DejaVuSans-5b" d="M 550 4863 
L 1875 4863 
L 1875 4416 
L 1125 4416 
L 1125 -397 
L 1875 -397 
L 1875 -844 
L 550 -844 
L 550 4863 
z
" transform="scale(0.015625)"/>
       <path id="DejaVuSans-b0" d="M 1600 4347 
Q 1350 4347 1178 4173 
Q 1006 4000 1006 3750 
Q 1006 3503 1178 3333 
Q 1350 3163 1600 3163 
Q 1850 3163 2022 3333 
Q 2194 3503 2194 3750 
Q 2194 3997 2020 4172 
Q 1847 4347 1600 4347 
z
M 1600 4750 
Q 1800 4750 1984 4673 
Q 2169 4597 2303 4453 
Q 2447 4313 2519 4134 
Q 2591 3956 2591 3750 
Q 2591 3338 2302 3052 
Q 2013 2766 1594 2766 
Q 1172 2766 890 3047 
Q 609 3328 609 3750 
Q 609 4169 896 4459 
Q 1184 4750 1600 4750 
z
" transform="scale(0.015625)"/>
       <path id="DejaVuSans-43" d="M 4122 4306 
L 4122 3641 
Q 3803 3938 3442 4084 
Q 3081 4231 2675 4231 
Q 1875 4231 1450 3742 
Q 1025 3253 1025 2328 
Q 1025 1406 1450 917 
Q 1875 428 2675 428 
Q 3081 428 3442 575 
Q 3803 722 4122 1019 
L 4122 359 
Q 3791 134 3420 21 
Q 3050 -91 2638 -91 
Q 1578 -91 968 557 
Q 359 1206 359 2328 
Q 359 3453 968 4101 
Q 1578 4750 2638 4750 
Q 3056 4750 3426 4639 
Q 3797 4528 4122 4306 
z
" transform="scale(0.015625)"/>
       <path id="DejaVuSans-5d" d="M 1947 4863 
L 1947 -844 
L 622 -844 
L 622 -397 
L 1369 -397 
L 1369 4416 
L 622 4416 
L 622 4863 
L 1947 4863 
z
" transform="scale(0.015625)"/>
      </defs>
      <use xlink:href="#DejaVuSans-4d"/>
      <use xlink:href="#DejaVuSans-69" transform="translate(86.279297 0)"/>
      <use xlink:href="#DejaVuSans-74" transform="translate(114.0625 0)"/>
      <use xlink:href="#DejaVuSans-74" transform="translate(153.271484 0)"/>
      <use xlink:href="#DejaVuSans-6c" transform="translate(192.480469 0)"/>
      <use xlink:href="#DejaVuSans-65" transform="translate(220.263672 0)"/>
      <use xlink:href="#DejaVuSans-72" transform="translate(281.787109 0)"/>
      <use xlink:href="#DejaVuSans-65" transform="translate(320.650391 0)"/>
      <use xlink:href="#DejaVuSans-20" transform="translate(382.173828 0)"/>
      <use xlink:href="#DejaVuSans-5a" transform="translate(413.960938 0)"/>
      <use xlink:href="#DejaVuSans-65" transform="translate(482.466797 0)"/>
      <use xlink:href="#DejaVuSans-6c" transform="translate(543.990234 0)"/>
      <use xlink:href="#DejaVuSans-6c" transform="translate(571.773438 0)"/>
      <use xlink:href="#DejaVuSans-74" transform="translate(599.556641 0)"/>
      <use xlink:href="#DejaVuSans-65" transform="translate(638.765625 0)"/>
      <use xlink:href="#DejaVuSans-6d" transform="translate(700.289062 0)"/>
      <use xlink:href="#DejaVuSans-70" transform="translate(797.701172 0)"/>
      <use xlink:href="#DejaVuSans-65" transform="translate(861.177734 0)"/>
      <use xlink:href="#DejaVuSans-72" transform="translate(922.701172 0)"/>
      <use xlink:href="#DejaVuSans-61" transform="translate(963.814453 0)"/>
      <use xlink:href="#DejaVuSans-74" transform="translate(1025.09375 0)"/>
      <use xlink:href="#DejaVuSans-75" transform="translate(1064.302734 0)"/>
      <use xlink:href="#DejaVuSans-72" transform="translate(1127.681641 0)"/>
      <use xlink:href="#DejaVuSans-20" transform="translate(1168.794922 0)"/>
      <use xlink:href="#DejaVuSans-5b" transform="translate(1200.582031 0)"/>
      <use xlink:href="#DejaVuSans-b0" transform="translate(1239.595703 0)"/>
      <use xlink:href="#DejaVuSans-43" transform="translate(1289.595703 0)"/>
      <use xlink:href="#DejaVuSans-5d" transform="translate(1359.419922 0)"/>
     </g>
    </g>
   </g>
   <g id="patch_9">
    <path d="M 40.603125 333.107924 
L 40.603125 41.378217 
" style="fill: none; stroke: #000000; stroke-width: 0.8; stroke-linejoin: miter; stroke-linecap: square"/>
   </g>
   <g id="patch_10">
    <path d="M 40.603125 333.107924 
L 453.041635 333.107924 
" style="fill: none; stroke: #000000; stroke-width: 0.8; stroke-linejoin: miter; stroke-linecap: square"/>
   </g>
   <g id="text_12">
    <!-- Mittlere Zelltemperatur je Lastprofil -->
    <g transform="translate(134.149724 35.378217) scale(0.11 -0.11)">
     <defs>
      <path id="DejaVuSans-Bold-4d" d="M 588 4666 
L 2119 4666 
L 3181 2169 
L 4250 4666 
L 5778 4666 
L 5778 0 
L 4641 0 
L 4641 3413 
L 3566 897 
L 2803 897 
L 1728 3413 
L 1728 0 
L 588 0 
L 588 4666 
z
" transform="scale(0.015625)"/>
      <path id="DejaVuSans-Bold-69" d="M 538 3500 
L 1656 3500 
L 1656 0 
L 538 0 
L 538 3500 
z
M 538 4863 
L 1656 4863 
L 1656 3950 
L 538 3950 
L 538 4863 
z
" transform="scale(0.015625)"/>
      <path id="DejaVuSans-Bold-74" d="M 1759 4494 
L 1759 3500 
L 2913 3500 
L 2913 2700 
L 1759 2700 
L 1759 1216 
Q 1759 972 1856 886 
Q 1953 800 2241 800 
L 2816 800 
L 2816 0 
L 1856 0 
Q 1194 0 917 276 
Q 641 553 641 1216 
L 641 2700 
L 84 2700 
L 84 3500 
L 641 3500 
L 641 4494 
L 1759 4494 
z
" transform="scale(0.015625)"/>
      <path id="DejaVuSans-Bold-6c" d="M 538 4863 
L 1656 4863 
L 1656 0 
L 538 0 
L 538 4863 
z
" transform="scale(0.015625)"/>
      <path id="DejaVuSans-Bold-65" d="M 4031 1759 
L 4031 1441 
L 1416 1441 
Q 1456 1047 1700 850 
Q 1944 653 2381 653 
Q 2734 653 3104 758 
Q 3475 863 3866 1075 
L 3866 213 
Q 3469 63 3072 -14 
Q 2675 -91 2278 -91 
Q 1328 -91 801 392 
Q 275 875 275 1747 
Q 275 2603 792 3093 
Q 1309 3584 2216 3584 
Q 3041 3584 3536 3087 
Q 4031 2591 4031 1759 
z
M 2881 2131 
Q 2881 2450 2695 2645 
Q 2509 2841 2209 2841 
Q 1884 2841 1681 2658 
Q 1478 2475 1428 2131 
L 2881 2131 
z
" transform="scale(0.015625)"/>
      <path id="DejaVuSans-Bold-72" d="M 3138 2547 
Q 2991 2616 2845 2648 
Q 2700 2681 2553 2681 
Q 2122 2681 1889 2404 
Q 1656 2128 1656 1613 
L 1656 0 
L 538 0 
L 538 3500 
L 1656 3500 
L 1656 2925 
Q 1872 3269 2151 3426 
Q 2431 3584 2822 3584 
Q 2878 3584 2943 3579 
Q 3009 3575 3134 3559 
L 3138 2547 
z
" transform="scale(0.015625)"/>
      <path id="DejaVuSans-Bold-20" transform="scale(0.015625)"/>
      <path id="DejaVuSans-Bold-5a" d="M 359 4666 
L 4281 4666 
L 4281 3938 
L 1778 909 
L 4353 909 
L 4353 0 
L 288 0 
L 288 728 
L 2791 3756 
L 359 3756 
L 359 4666 
z
" transform="scale(0.015625)"/>
      <path id="DejaVuSans-Bold-6d" d="M 3781 2919 
Q 3994 3244 4286 3414 
Q 4578 3584 4928 3584 
Q 5531 3584 5847 3212 
Q 6163 2841 6163 2131 
L 6163 0 
L 5038 0 
L 5038 1825 
Q 5041 1866 5042 1909 
Q 5044 1953 5044 2034 
Q 5044 2406 4934 2573 
Q 4825 2741 4581 2741 
Q 4263 2741 4089 2478 
Q 3916 2216 3909 1719 
L 3909 0 
L 2784 0 
L 2784 1825 
Q 2784 2406 2684 2573 
Q 2584 2741 2328 2741 
Q 2006 2741 1831 2477 
Q 1656 2213 1656 1722 
L 1656 0 
L 531 0 
L 531 3500 
L 1656 3500 
L 1656 2988 
Q 1863 3284 2130 3434 
Q 2397 3584 2719 3584 
Q 3081 3584 3359 3409 
Q 3638 3234 3781 2919 
z
" transform="scale(0.015625)"/>
      <path id="DejaVuSans-Bold-70" d="M 1656 506 
L 1656 -1331 
L 538 -1331 
L 538 3500 
L 1656 3500 
L 1656 2988 
Q 1888 3294 2169 3439 
Q 2450 3584 2816 3584 
Q 3463 3584 3878 3070 
Q 4294 2556 4294 1747 
Q 4294 938 3878 423 
Q 3463 -91 2816 -91 
Q 2450 -91 2169 54 
Q 1888 200 1656 506 
z
M 2400 2772 
Q 2041 2772 1848 2508 
Q 1656 2244 1656 1747 
Q 1656 1250 1848 986 
Q 2041 722 2400 722 
Q 2759 722 2948 984 
Q 3138 1247 3138 1747 
Q 3138 2247 2948 2509 
Q 2759 2772 2400 2772 
z
" transform="scale(0.015625)"/>
      <path id="DejaVuSans-Bold-61" d="M 2106 1575 
Q 1756 1575 1579 1456 
Q 1403 1338 1403 1106 
Q 1403 894 1545 773 
Q 1688 653 1941 653 
Q 2256 653 2472 879 
Q 2688 1106 2688 1447 
L 2688 1575 
L 2106 1575 
z
M 3816 1997 
L 3816 0 
L 2688 0 
L 2688 519 
Q 2463 200 2181 54 
Q 1900 -91 1497 -91 
Q 953 -91 614 226 
Q 275 544 275 1050 
Q 275 1666 698 1953 
Q 1122 2241 2028 2241 
L 2688 2241 
L 2688 2328 
Q 2688 2594 2478 2717 
Q 2269 2841 1825 2841 
Q 1466 2841 1156 2769 
Q 847 2697 581 2553 
L 581 3406 
Q 941 3494 1303 3539 
Q 1666 3584 2028 3584 
Q 2975 3584 3395 3211 
Q 3816 2838 3816 1997 
z
" transform="scale(0.015625)"/>
      <path id="DejaVuSans-Bold-75" d="M 500 1363 
L 500 3500 
L 1625 3500 
L 1625 3150 
Q 1625 2866 1622 2436 
Q 1619 2006 1619 1863 
Q 1619 1441 1641 1255 
Q 1663 1069 1716 984 
Q 1784 875 1895 815 
Q 2006 756 2150 756 
Q 2500 756 2700 1025 
Q 2900 1294 2900 1772 
L 2900 3500 
L 4019 3500 
L 4019 0 
L 2900 0 
L 2900 506 
Q 2647 200 2364 54 
Q 2081 -91 1741 -91 
Q 1134 -91 817 281 
Q 500 653 500 1363 
z
" transform="scale(0.015625)"/>
      <path id="DejaVuSans-Bold-6a" d="M 538 3500 
L 1656 3500 
L 1656 63 
Q 1656 -641 1318 -1011 
Q 981 -1381 341 -1381 
L -213 -1381 
L -213 -647 
L -19 -647 
Q 300 -647 419 -503 
Q 538 -359 538 63 
L 538 3500 
z
M 538 4863 
L 1656 4863 
L 1656 3950 
L 538 3950 
L 538 4863 
z
" transform="scale(0.015625)"/>
      <path id="DejaVuSans-Bold-4c" d="M 588 4666 
L 1791 4666 
L 1791 909 
L 3903 909 
L 3903 0 
L 588 0 
L 588 4666 
z
" transform="scale(0.015625)"/>
      <path id="DejaVuSans-Bold-73" d="M 3272 3391 
L 3272 2541 
Q 2913 2691 2578 2766 
Q 2244 2841 1947 2841 
Q 1628 2841 1473 2761 
Q 1319 2681 1319 2516 
Q 1319 2381 1436 2309 
Q 1553 2238 1856 2203 
L 2053 2175 
Q 2913 2066 3209 1816 
Q 3506 1566 3506 1031 
Q 3506 472 3093 190 
Q 2681 -91 1863 -91 
Q 1516 -91 1145 -36 
Q 775 19 384 128 
L 384 978 
Q 719 816 1070 734 
Q 1422 653 1784 653 
Q 2113 653 2278 743 
Q 2444 834 2444 1013 
Q 2444 1163 2330 1236 
Q 2216 1309 1875 1350 
L 1678 1375 
Q 931 1469 631 1722 
Q 331 1975 331 2491 
Q 331 3047 712 3315 
Q 1094 3584 1881 3584 
Q 2191 3584 2531 3537 
Q 2872 3491 3272 3391 
z
" transform="scale(0.015625)"/>
      <path id="DejaVuSans-Bold-6f" d="M 2203 2784 
Q 1831 2784 1636 2517 
Q 1441 2250 1441 1747 
Q 1441 1244 1636 976 
Q 1831 709 2203 709 
Q 2569 709 2762 976 
Q 2956 1244 2956 1747 
Q 2956 2250 2762 2517 
Q 2569 2784 2203 2784 
z
M 2203 3584 
Q 3106 3584 3614 3096 
Q 4122 2609 4122 1747 
Q 4122 884 3614 396 
Q 3106 -91 2203 -91 
Q 1297 -91 786 396 
Q 275 884 275 1747 
Q 275 2609 786 3096 
Q 1297 3584 2203 3584 
z
" transform="scale(0.015625)"/>
      <path id="DejaVuSans-Bold-66" d="M 2841 4863 
L 2841 4128 
L 2222 4128 
Q 1984 4128 1890 4042 
Q 1797 3956 1797 3744 
L 1797 3500 
L 2753 3500 
L 2753 2700 
L 1797 2700 
L 1797 0 
L 678 0 
L 678 2700 
L 122 2700 
L 122 3500 
L 678 3500 
L 678 3744 
Q 678 4316 997 4589 
Q 1316 4863 1984 4863 
L 2841 4863 
z
" transform="scale(0.015625)"/>
     </defs>
     <use xlink:href="#DejaVuSans-Bold-4d"/>
     <use xlink:href="#DejaVuSans-Bold-69" transform="translate(99.511719 0)"/>
     <use xlink:href="#DejaVuSans-Bold-74" transform="translate(133.789062 0)"/>
     <use xlink:href="#DejaVuSans-Bold-74" transform="translate(181.591797 0)"/>
     <use xlink:href="#DejaVuSans-Bold-6c" transform="translate(229.394531 0)"/>
     <use xlink:href="#DejaVuSans-Bold-65" transform="translate(263.671875 0)"/>
     <use xlink:href="#DejaVuSans-Bold-72" transform="translate(331.494141 0)"/>
     <use xlink:href="#DejaVuSans-Bold-65" transform="translate(380.810547 0)"/>
     <use xlink:href="#DejaVuSans-Bold-20" transform="translate(448.632812 0)"/>
     <use xlink:href="#DejaVuSans-Bold-5a" transform="translate(483.447266 0)"/>
     <use xlink:href="#DejaVuSans-Bold-65" transform="translate(555.957031 0)"/>
     <use xlink:href="#DejaVuSans-Bold-6c" transform="translate(623.779297 0)"/>
     <use xlink:href="#DejaVuSans-Bold-6c" transform="translate(658.056641 0)"/>
     <use xlink:href="#DejaVuSans-Bold-74" transform="translate(692.333984 0)"/>
     <use xlink:href="#DejaVuSans-Bold-65" transform="translate(740.136719 0)"/>
     <use xlink:href="#DejaVuSans-Bold-6d" transform="translate(807.958984 0)"/>
     <use xlink:href="#DejaVuSans-Bold-70" transform="translate(912.158203 0)"/>
     <use xlink:href="#DejaVuSans-Bold-65" transform="translate(983.740234 0)"/>
     <use xlink:href="#DejaVuSans-Bold-72" transform="translate(1051.5625 0)"/>
     <use xlink:href="#DejaVuSans-Bold-61" transform="translate(1100.878906 0)"/>
     <use xlink:href="#DejaVuSans-Bold-74" transform="translate(1168.359375 0)"/>
     <use xlink:href="#DejaVuSans-Bold-75" transform="translate(1216.162109 0)"/>
     <use xlink:href="#DejaVuSans-Bold-72" transform="translate(1287.353516 0)"/>
     <use xlink:href="#DejaVuSans-Bold-20" transform="translate(1336.669922 0)"/>
     <use xlink:href="#DejaVuSans-Bold-6a" transform="translate(1371.484375 0)"/>
     <use xlink:href="#DejaVuSans-Bold-65" transform="translate(1405.761719 0)"/>
     <use xlink:href="#DejaVuSans-Bold-20" transform="translate(1473.583984 0)"/>
     <use xlink:href="#DejaVuSans-Bold-4c" transform="translate(1508.398438 0)"/>
     <use xlink:href="#DejaVuSans-Bold-61" transform="translate(1572.119141 0)"/>
     <use xlink:href="#DejaVuSans-Bold-73" transform="translate(1639.599609 0)"/>
     <use xlink:href="#DejaVuSans-Bold-74" transform="translate(1699.121094 0)"/>
     <use xlink:href="#DejaVuSans-Bold-70" transform="translate(1746.923828 0)"/>
     <use xlink:href="#DejaVuSans-Bold-72" transform="translate(1818.505859 0)"/>
     <use xlink:href="#DejaVuSans-Bold-6f" transform="translate(1867.822266 0)"/>
     <use xlink:href="#DejaVuSans-Bold-66" transform="translate(1936.523438 0)"/>
     <use xlink:href="#DejaVuSans-Bold-69" transform="translate(1980.029297 0)"/>
     <use xlink:href="#DejaVuSans-Bold-6c" transform="translate(2014.306641 0)"/>
    </g>
   </g>
   <g id="legend_1">
    <g id="patch_11">
     <path d="M 349.822885 74.998842 
L 446.741635 74.998842 
Q 448.541635 74.998842 448.541635 73.198842 
L 448.541635 47.678217 
Q 448.541635 45.878217 446.741635 45.878217 
L 349.822885 45.878217 
Q 348.022885 45.878217 348.022885 47.678217 
L 348.022885 73.198842 
Q 348.022885 74.998842 349.822885 74.998842 
z
" style="fill: #ffffff; opacity: 0.85; stroke: #cccccc; stroke-linejoin: miter"/>
    </g>
    <g id="patch_12">
     <path d="M 351.622885 56.316811 
L 369.622885 56.316811 
L 369.622885 50.016811 
L 351.622885 50.016811 
z
" style="fill: #1f77b4"/>
    </g>
    <g id="text_13">
     <!-- Statisches PMS -->
     <g transform="translate(376.822885 56.316811) scale(0.09 -0.09)">
      <defs>
       <path id="DejaVuSans-73" d="M 2834 3397 
L 2834 2853 
Q 2591 2978 2328 3040 
Q 2066 3103 1784 3103 
Q 1356 3103 1142 2972 
Q 928 2841 928 2578 
Q 928 2378 1081 2264 
Q 1234 2150 1697 2047 
L 1894 2003 
Q 2506 1872 2764 1633 
Q 3022 1394 3022 966 
Q 3022 478 2636 193 
Q 2250 -91 1575 -91 
Q 1294 -91 989 -36 
Q 684 19 347 128 
L 347 722 
Q 666 556 975 473 
Q 1284 391 1588 391 
Q 1994 391 2212 530 
Q 2431 669 2431 922 
Q 2431 1156 2273 1281 
Q 2116 1406 1581 1522 
L 1381 1569 
Q 847 1681 609 1914 
Q 372 2147 372 2553 
Q 372 3047 722 3315 
Q 1072 3584 1716 3584 
Q 2034 3584 2315 3537 
Q 2597 3491 2834 3397 
z
" transform="scale(0.015625)"/>
       <path id="DejaVuSans-63" d="M 3122 3366 
L 3122 2828 
Q 2878 2963 2633 3030 
Q 2388 3097 2138 3097 
Q 1578 3097 1268 2742 
Q 959 2388 959 1747 
Q 959 1106 1268 751 
Q 1578 397 2138 397 
Q 2388 397 2633 464 
Q 2878 531 3122 666 
L 3122 134 
Q 2881 22 2623 -34 
Q 2366 -91 2075 -91 
Q 1284 -91 818 406 
Q 353 903 353 1747 
Q 353 2603 823 3093 
Q 1294 3584 2113 3584 
Q 2378 3584 2631 3529 
Q 2884 3475 3122 3366 
z
" transform="scale(0.015625)"/>
      </defs>
      <use xlink:href="#DejaVuSans-53"/>
      <use xlink:href="#DejaVuSans-74" transform="translate(63.476562 0)"/>
      <use xlink:href="#DejaVuSans-61" transform="translate(102.685547 0)"/>
      <use xlink:href="#DejaVuSans-74" transform="translate(163.964844 0)"/>
      <use xlink:href="#DejaVuSans-69" transform="translate(203.173828 0)"/>
      <use xlink:href="#DejaVuSans-73" transform="translate(230.957031 0)"/>
      <use xlink:href="#DejaVuSans-63" transform="translate(283.056641 0)"/>
      <use xlink:href="#DejaVuSans-68" transform="translate(338.037109 0)"/>
      <use xlink:href="#DejaVuSans-65" transform="translate(401.416016 0)"/>
      <use xlink:href="#DejaVuSans-73" transform="translate(462.939453 0)"/>
      <use xlink:href="#DejaVuSans-20" transform="translate(515.039062 0)"/>
      <use xlink:href="#DejaVuSans-50" transform="translate(546.826172 0)"/>
      <use xlink:href="#DejaVuSans-4d" transform="translate(607.128906 0)"/>
      <use xlink:href="#DejaVuSans-53" transform="translate(693.408203 0)"/>
     </g>
    </g>
    <g id="patch_13">
     <path d="M 351.622885 69.527124 
L 369.622885 69.527124 
L 369.622885 63.227124 
L 351.622885 63.227124 
z
" style="fill: #ff7f0e"/>
    </g>
    <g id="text_14">
     <!-- KI-PMM -->
     <g transform="translate(376.822885 69.527124) scale(0.09 -0.09)">
      <defs>
       <path id="DejaVuSans-4b" d="M 628 4666 
L 1259 4666 
L 1259 2694 
L 3353 4666 
L 4166 4666 
L 1850 2491 
L 4331 0 
L 3500 0 
L 1259 2247 
L 1259 0 
L 628 0 
L 628 4666 
z
" transform="scale(0.015625)"/>
       <path id="DejaVuSans-49" d="M 628 4666 
L 1259 4666 
L 1259 0 
L 628 0 
L 628 4666 
z
" transform="scale(0.015625)"/>
      </defs>
      <use xlink:href="#DejaVuSans-4b"/>
      <use xlink:href="#DejaVuSans-49" transform="translate(65.576172 0)"/>
      <use xlink:href="#DejaVuSans-2d" transform="translate(95.068359 0)"/>
      <use xlink:href="#DejaVuSans-50" transform="translate(131.152344 0)"/>
      <use xlink:href="#DejaVuSans-4d" transform="translate(191.455078 0)"/>
      <use xlink:href="#DejaVuSans-4d" transform="translate(277.734375 0)"/>
     </g>
    </g>
   </g>
  </g>
  <g id="axes_2">
   <g id="patch_14">
    <path d="M 524.76101 333.107924 
L 937.19952 333.107924 
L 937.19952 41.378217 
L 524.76101 41.378217 
z
" style="fill: #ffffff"/>
   </g>
   <g id="patch_15">
    <path d="M 543.508215 385188.267944 
L 592.11208 385188.267944 
L 592.11208 247.959088 
L 543.508215 247.959088 
z
" clip-path="url(#p2e78125b89)" style="fill: #1f77b4"/>
   </g>
   <g id="patch_16">
    <path d="M 682.3764 385188.267944 
L 730.980265 385188.267944 
L 730.980265 54.638659 
L 682.3764 54.638659 
z
" clip-path="url(#p2e78125b89)" style="fill: #1f77b4"/>
   </g>
   <g id="patch_17">
    <path d="M 821.244585 385188.267944 
L 869.84845 385188.267944 
L 869.84845 319.847482 
L 821.244585 319.847482 
z
" clip-path="url(#p2e78125b89)" style="fill: #1f77b4"/>
   </g>
   <g id="patch_18">
    <path d="M 592.11208 385188.267944 
L 640.715945 385188.267944 
L 640.715945 247.959088 
L 592.11208 247.959088 
z
" clip-path="url(#p2e78125b89)" style="fill: #ff7f0e"/>
   </g>
   <g id="patch_19">
    <path d="M 730.980265 385188.267944 
L 779.58413 385188.267944 
L 779.58413 162.986829 
L 730.980265 162.986829 
z
" clip-path="url(#p2e78125b89)" style="fill: #ff7f0e"/>
   </g>
   <g id="patch_20">
    <path d="M 869.84845 385188.267944 
L 918.452315 385188.267944 
L 918.452315 319.847482 
L 869.84845 319.847482 
z
" clip-path="url(#p2e78125b89)" style="fill: #ff7f0e"/>
   </g>
   <g id="matplotlib.axis_3">
    <g id="xtick_4">
     <g id="line2d_21">
      <path d="M 592.11208 333.107924 
L 592.11208 41.378217 
" clip-path="url(#p2e78125b89)" style="fill: none; stroke-dasharray: 2.96,1.28; stroke-dashoffset: 0; stroke: #b0b0b0; stroke-opacity: 0.3; stroke-width: 0.8"/>
     </g>
     <g id="line2d_22">
      <g>
       <use xlink:href="#m0e9a7545a5" x="592.11208" y="333.107924" style="stroke: #000000; stroke-width: 0.8"/>
      </g>
     </g>
     <g id="text_15">
      <!-- LP1 Smartphone -->
      <g transform="translate(551.555489 359.140072) rotate(-8) scale(0.1 -0.1)">
       <use xlink:href="#DejaVuSans-4c"/>
       <use xlink:href="#DejaVuSans-50" transform="translate(55.712891 0)"/>
       <use xlink:href="#DejaVuSans-31" transform="translate(116.015625 0)"/>
       <use xlink:href="#DejaVuSans-20" transform="translate(179.638672 0)"/>
       <use xlink:href="#DejaVuSans-53" transform="translate(211.425781 0)"/>
       <use xlink:href="#DejaVuSans-6d" transform="translate(274.902344 0)"/>
       <use xlink:href="#DejaVuSans-61" transform="translate(372.314453 0)"/>
       <use xlink:href="#DejaVuSans-72" transform="translate(433.59375 0)"/>
       <use xlink:href="#DejaVuSans-74" transform="translate(474.707031 0)"/>
       <use xlink:href="#DejaVuSans-70" transform="translate(513.916016 0)"/>
       <use xlink:href="#DejaVuSans-68" transform="translate(577.392578 0)"/>
       <use xlink:href="#DejaVuSans-6f" transform="translate(640.771484 0)"/>
       <use xlink:href="#DejaVuSans-6e" transform="translate(701.953125 0)"/>
       <use xlink:href="#DejaVuSans-65" transform="translate(765.332031 0)"/>
      </g>
     </g>
    </g>
    <g id="xtick_5">
     <g id="line2d_23">
      <path d="M 730.980265 333.107924 
L 730.980265 41.378217 
" clip-path="url(#p2e78125b89)" style="fill: none; stroke-dasharray: 2.96,1.28; stroke-dashoffset: 0; stroke: #b0b0b0; stroke-opacity: 0.3; stroke-width: 0.8"/>
     </g>
     <g id="line2d_24">
      <g>
       <use xlink:href="#m0e9a7545a5" x="730.980265" y="333.107924" style="stroke: #000000; stroke-width: 0.8"/>
      </g>
     </g>
     <g id="text_16">
      <!-- LP2 E-Bike -->
      <g transform="translate(705.653687 354.859194) rotate(-8) scale(0.1 -0.1)">
       <use xlink:href="#DejaVuSans-4c"/>
       <use xlink:href="#DejaVuSans-50" transform="translate(55.712891 0)"/>
       <use xlink:href="#DejaVuSans-32" transform="translate(116.015625 0)"/>
       <use xlink:href="#DejaVuSans-20" transform="translate(179.638672 0)"/>
       <use xlink:href="#DejaVuSans-45" transform="translate(211.425781 0)"/>
       <use xlink:href="#DejaVuSans-2d" transform="translate(274.609375 0)"/>
       <use xlink:href="#DejaVuSans-42" transform="translate(307.068359 0)"/>
       <use xlink:href="#DejaVuSans-69" transform="translate(375.671875 0)"/>
       <use xlink:href="#DejaVuSans-6b" transform="translate(403.455078 0)"/>
       <use xlink:href="#DejaVuSans-65" transform="translate(457.740234 0)"/>
      </g>
     </g>
    </g>
    <g id="xtick_6">
     <g id="line2d_25">
      <path d="M 869.84845 333.107924 
L 869.84845 41.378217 
" clip-path="url(#p2e78125b89)" style="fill: none; stroke-dasharray: 2.96,1.28; stroke-dashoffset: 0; stroke: #b0b0b0; stroke-opacity: 0.3; stroke-width: 0.8"/>
     </g>
     <g id="line2d_26">
      <g>
       <use xlink:href="#m0e9a7545a5" x="869.84845" y="333.107924" style="stroke: #000000; stroke-width: 0.8"/>
      </g>
     </g>
     <g id="text_17">
      <!-- LP3 Stationär -->
      <g transform="translate(837.091767 356.947661) rotate(-8) scale(0.1 -0.1)">
       <use xlink:href="#DejaVuSans-4c"/>
       <use xlink:href="#DejaVuSans-50" transform="translate(55.712891 0)"/>
       <use xlink:href="#DejaVuSans-33" transform="translate(116.015625 0)"/>
       <use xlink:href="#DejaVuSans-20" transform="translate(179.638672 0)"/>
       <use xlink:href="#DejaVuSans-53" transform="translate(211.425781 0)"/>
       <use xlink:href="#DejaVuSans-74" transform="translate(274.902344 0)"/>
       <use xlink:href="#DejaVuSans-61" transform="translate(314.111328 0)"/>
       <use xlink:href="#DejaVuSans-74" transform="translate(375.390625 0)"/>
       <use xlink:href="#DejaVuSans-69" transform="translate(414.599609 0)"/>
       <use xlink:href="#DejaVuSans-6f" transform="translate(442.382812 0)"/>
       <use xlink:href="#DejaVuSans-6e" transform="translate(503.564453 0)"/>
       <use xlink:href="#DejaVuSans-e4" transform="translate(566.943359 0)"/>
       <use xlink:href="#DejaVuSans-72" transform="translate(628.222656 0)"/>
      </g>
     </g>
    </g>
   </g>
   <g id="matplotlib.axis_4">
    <g id="ytick_8">
     <g id="line2d_27">
      <path d="M 524.76101 151.537394 
L 937.19952 151.537394 
" clip-path="url(#p2e78125b89)" style="fill: none; stroke-dasharray: 2.96,1.28; stroke-dashoffset: 0; stroke: #b0b0b0; stroke-opacity: 0.3; stroke-width: 0.8"/>
     </g>
     <g id="line2d_28">
      <g>
       <use xlink:href="#m521cacd6ba" x="524.76101" y="151.537394" style="stroke: #000000; stroke-width: 0.8"/>
      </g>
     </g>
     <g id="text_18">
      <!-- $\mathdefault{10^{-4}}$ -->
      <g transform="translate(494.26101 155.336613) scale(0.1 -0.1)">
       <defs>
        <path id="DejaVuSans-2212" d="M 678 2272 
L 4684 2272 
L 4684 1741 
L 678 1741 
L 678 2272 
z
" transform="scale(0.015625)"/>
        <path id="DejaVuSans-34" d="M 2419 4116 
L 825 1625 
L 2419 1625 
L 2419 4116 
z
M 2253 4666 
L 3047 4666 
L 3047 1625 
L 3713 1625 
L 3713 1100 
L 3047 1100 
L 3047 0 
L 2419 0 
L 2419 1100 
L 313 1100 
L 313 1709 
L 2253 4666 
z
" transform="scale(0.015625)"/>
       </defs>
       <use xlink:href="#DejaVuSans-31" transform="translate(0 0.684375)"/>
       <use xlink:href="#DejaVuSans-30" transform="translate(63.623047 0.684375)"/>
       <use xlink:href="#DejaVuSans-2212" transform="translate(128.203125 38.965625) scale(0.7)"/>
       <use xlink:href="#DejaVuSans-34" transform="translate(186.855469 38.965625) scale(0.7)"/>
      </g>
     </g>
    </g>
    <g id="ytick_9">
     <g id="line2d_29">
      <defs>
       <path id="m8288394e63" d="M 0 0 
L -2 0 
" style="stroke: #000000; stroke-width: 0.6"/>
      </defs>
      <g>
       <use xlink:href="#m8288394e63" x="524.76101" y="305.374262" style="stroke: #000000; stroke-width: 0.6"/>
      </g>
     </g>
     <g id="text_19">
      <!-- $\mathdefault{4\times10^{-5}}$ -->
      <g transform="translate(477.26101 309.17348) scale(0.1 -0.1)">
       <defs>
        <path id="DejaVuSans-d7" d="M 4488 3438 
L 3059 2003 
L 4488 575 
L 4116 197 
L 2681 1631 
L 1247 197 
L 878 575 
L 2303 2003 
L 878 3438 
L 1247 3816 
L 2681 2381 
L 4116 3816 
L 4488 3438 
z
" transform="scale(0.015625)"/>
       </defs>
       <use xlink:href="#DejaVuSans-34" transform="translate(0 0.684375)"/>
       <use xlink:href="#DejaVuSans-d7" transform="translate(83.105469 0.684375)"/>
       <use xlink:href="#DejaVuSans-31" transform="translate(186.376953 0.684375)"/>
       <use xlink:href="#DejaVuSans-30" transform="translate(250 0.684375)"/>
       <use xlink:href="#DejaVuSans-2212" transform="translate(314.580078 38.965625) scale(0.7)"/>
       <use xlink:href="#DejaVuSans-35" transform="translate(373.232422 38.965625) scale(0.7)"/>
      </g>
     </g>
    </g>
    <g id="ytick_10">
     <g id="line2d_30">
      <g>
       <use xlink:href="#m8288394e63" x="524.76101" y="267.910492" style="stroke: #000000; stroke-width: 0.6"/>
      </g>
     </g>
    </g>
    <g id="ytick_11">
     <g id="line2d_31">
      <g>
       <use xlink:href="#m8288394e63" x="524.76101" y="237.300363" style="stroke: #000000; stroke-width: 0.6"/>
      </g>
     </g>
     <g id="text_20">
      <!-- $\mathdefault{6\times10^{-5}}$ -->
      <g transform="translate(477.26101 241.099582) scale(0.1 -0.1)">
       <defs>
        <path id="DejaVuSans-36" d="M 2113 2584 
Q 1688 2584 1439 2293 
Q 1191 2003 1191 1497 
Q 1191 994 1439 701 
Q 1688 409 2113 409 
Q 2538 409 2786 701 
Q 3034 994 3034 1497 
Q 3034 2003 2786 2293 
Q 2538 2584 2113 2584 
z
M 3366 4563 
L 3366 3988 
Q 3128 4100 2886 4159 
Q 2644 4219 2406 4219 
Q 1781 4219 1451 3797 
Q 1122 3375 1075 2522 
Q 1259 2794 1537 2939 
Q 1816 3084 2150 3084 
Q 2853 3084 3261 2657 
Q 3669 2231 3669 1497 
Q 3669 778 3244 343 
Q 2819 -91 2113 -91 
Q 1303 -91 875 529 
Q 447 1150 447 2328 
Q 447 3434 972 4092 
Q 1497 4750 2381 4750 
Q 2619 4750 2861 4703 
Q 3103 4656 3366 4563 
z
" transform="scale(0.015625)"/>
       </defs>
       <use xlink:href="#DejaVuSans-36" transform="translate(0 0.684375)"/>
       <use xlink:href="#DejaVuSans-d7" transform="translate(83.105469 0.684375)"/>
       <use xlink:href="#DejaVuSans-31" transform="translate(186.376953 0.684375)"/>
       <use xlink:href="#DejaVuSans-30" transform="translate(250 0.684375)"/>
       <use xlink:href="#DejaVuSans-2212" transform="translate(314.580078 38.965625) scale(0.7)"/>
       <use xlink:href="#DejaVuSans-35" transform="translate(373.232422 38.965625) scale(0.7)"/>
      </g>
     </g>
    </g>
    <g id="ytick_12">
     <g id="line2d_32">
      <g>
       <use xlink:href="#m8288394e63" x="524.76101" y="211.419868" style="stroke: #000000; stroke-width: 0.6"/>
      </g>
     </g>
    </g>
    <g id="ytick_13">
     <g id="line2d_33">
      <g>
       <use xlink:href="#m8288394e63" x="524.76101" y="189.001164" style="stroke: #000000; stroke-width: 0.6"/>
      </g>
     </g>
    </g>
    <g id="ytick_14">
     <g id="line2d_34">
      <g>
       <use xlink:href="#m8288394e63" x="524.76101" y="169.226465" style="stroke: #000000; stroke-width: 0.6"/>
      </g>
     </g>
    </g>
    <g id="text_21">
     <!-- Mittlere Degradationsrate D̊ [1/s] -->
     <g transform="translate(471.181322 270.137602) rotate(-90) scale(0.1 -0.1)">
      <defs>
       <path id="DejaVuSans-44" d="M 1259 4147 
L 1259 519 
L 2022 519 
Q 2988 519 3436 956 
Q 3884 1394 3884 2338 
Q 3884 3275 3436 3711 
Q 2988 4147 2022 4147 
L 1259 4147 
z
M 628 4666 
L 1925 4666 
Q 3281 4666 3915 4102 
Q 4550 3538 4550 2338 
Q 4550 1131 3912 565 
Q 3275 0 1925 0 
L 628 0 
L 628 4666 
z
" transform="scale(0.015625)"/>
       <path id="DejaVuSans-67" d="M 2906 1791 
Q 2906 2416 2648 2759 
Q 2391 3103 1925 3103 
Q 1463 3103 1205 2759 
Q 947 2416 947 1791 
Q 947 1169 1205 825 
Q 1463 481 1925 481 
Q 2391 481 2648 825 
Q 2906 1169 2906 1791 
z
M 3481 434 
Q 3481 -459 3084 -895 
Q 2688 -1331 1869 -1331 
Q 1566 -1331 1297 -1286 
Q 1028 -1241 775 -1147 
L 775 -588 
Q 1028 -725 1275 -790 
Q 1522 -856 1778 -856 
Q 2344 -856 2625 -561 
Q 2906 -266 2906 331 
L 2906 616 
Q 2728 306 2450 153 
Q 2172 0 1784 0 
Q 1141 0 747 490 
Q 353 981 353 1791 
Q 353 2603 747 3093 
Q 1141 3584 1784 3584 
Q 2172 3584 2450 3431 
Q 2728 3278 2906 2969 
L 2906 3500 
L 3481 3500 
L 3481 434 
z
" transform="scale(0.015625)"/>
       <path id="DejaVuSans-64" d="M 2906 2969 
L 2906 4863 
L 3481 4863 
L 3481 0 
L 2906 0 
L 2906 525 
Q 2725 213 2448 61 
Q 2172 -91 1784 -91 
Q 1150 -91 751 415 
Q 353 922 353 1747 
Q 353 2572 751 3078 
Q 1150 3584 1784 3584 
Q 2172 3584 2448 3432 
Q 2725 3281 2906 2969 
z
M 947 1747 
Q 947 1113 1208 752 
Q 1469 391 1925 391 
Q 2381 391 2643 752 
Q 2906 1113 2906 1747 
Q 2906 2381 2643 2742 
Q 2381 3103 1925 3103 
Q 1469 3103 1208 2742 
Q 947 2381 947 1747 
z
" transform="scale(0.015625)"/>
       <path id="DejaVuSans-30a" d="M -1133 4763 
Q -1133 4959 -1270 5096 
Q -1408 5234 -1608 5234 
Q -1811 5234 -1947 5098 
Q -2083 4963 -2083 4763 
Q -2083 4559 -1947 4423 
Q -1811 4288 -1608 4288 
Q -1408 4288 -1270 4425 
Q -1133 4563 -1133 4763 
z
M -752 4763 
Q -752 4403 -1000 4153 
Q -1249 3903 -1608 3903 
Q -1967 3903 -2215 4153 
Q -2464 4403 -2464 4763 
Q -2464 5122 -2215 5370 
Q -1967 5619 -1608 5619 
Q -1249 5619 -1000 5370 
Q -752 5122 -752 4763 
z
" transform="scale(0.015625)"/>
       <path id="DejaVuSans-2f" d="M 1625 4666 
L 2156 4666 
L 531 -594 
L 0 -594 
L 1625 4666 
z
" transform="scale(0.015625)"/>
      </defs>
      <use xlink:href="#DejaVuSans-4d"/>
      <use xlink:href="#DejaVuSans-69" transform="translate(86.279297 0)"/>
      <use xlink:href="#DejaVuSans-74" transform="translate(114.0625 0)"/>
      <use xlink:href="#DejaVuSans-74" transform="translate(153.271484 0)"/>
      <use xlink:href="#DejaVuSans-6c" transform="translate(192.480469 0)"/>
      <use xlink:href="#DejaVuSans-65" transform="translate(220.263672 0)"/>
      <use xlink:href="#DejaVuSans-72" transform="translate(281.787109 0)"/>
      <use xlink:href="#DejaVuSans-65" transform="translate(320.650391 0)"/>
      <use xlink:href="#DejaVuSans-20" transform="translate(382.173828 0)"/>
      <use xlink:href="#DejaVuSans-44" transform="translate(413.960938 0)"/>
      <use xlink:href="#DejaVuSans-65" transform="translate(490.962891 0)"/>
      <use xlink:href="#DejaVuSans-67" transform="translate(552.486328 0)"/>
      <use xlink:href="#DejaVuSans-72" transform="translate(615.962891 0)"/>
      <use xlink:href="#DejaVuSans-61" transform="translate(657.076172 0)"/>
      <use xlink:href="#DejaVuSans-64" transform="translate(718.355469 0)"/>
      <use xlink:href="#DejaVuSans-61" transform="translate(781.832031 0)"/>
      <use xlink:href="#DejaVuSans-74" transform="translate(843.111328 0)"/>
      <use xlink:href="#DejaVuSans-69" transform="translate(882.320312 0)"/>
      <use xlink:href="#DejaVuSans-6f" transform="translate(910.103516 0)"/>
      <use xlink:href="#DejaVuSans-6e" transform="translate(971.285156 0)"/>
      <use xlink:href="#DejaVuSans-73" transform="translate(1034.664062 0)"/>
      <use xlink:href="#DejaVuSans-72" transform="translate(1086.763672 0)"/>
      <use xlink:href="#DejaVuSans-61" transform="translate(1127.876953 0)"/>
      <use xlink:href="#DejaVuSans-74" transform="translate(1189.15625 0)"/>
      <use xlink:href="#DejaVuSans-65" transform="translate(1228.365234 0)"/>
      <use xlink:href="#DejaVuSans-20" transform="translate(1289.888672 0)"/>
      <use xlink:href="#DejaVuSans-44" transform="translate(1321.675781 0)"/>
      <use xlink:href="#DejaVuSans-30a" transform="translate(1398.677734 0)"/>
      <use xlink:href="#DejaVuSans-20" transform="translate(1398.677734 0)"/>
      <use xlink:href="#DejaVuSans-5b" transform="translate(1430.464844 0)"/>
      <use xlink:href="#DejaVuSans-31" transform="translate(1469.478516 0)"/>
      <use xlink:href="#DejaVuSans-2f" transform="translate(1533.101562 0)"/>
      <use xlink:href="#DejaVuSans-73" transform="translate(1566.792969 0)"/>
      <use xlink:href="#DejaVuSans-5d" transform="translate(1618.892578 0)"/>
     </g>
    </g>
   </g>
   <g id="patch_21">
    <path d="M 524.76101 333.107924 
L 524.76101 41.378217 
" style="fill: none; stroke: #000000; stroke-width: 0.8; stroke-linejoin: miter; stroke-linecap: square"/>
   </g>
   <g id="patch_22">
    <path d="M 524.76101 333.107924 
L 937.19952 333.107924 
" style="fill: none; stroke: #000000; stroke-width: 0.8; stroke-linejoin: miter; stroke-linecap: square"/>
   </g>
   <g id="text_22">
    <!-- Φ=1.00 -->
    <g transform="translate(576.705205 224.494331) scale(0.08 -0.08)">
     <defs>
      <path id="DejaVuSans-3a6" d="M 2206 3644 
Q 1738 3578 1431 3306 
Q 1025 2947 1025 2328 
Q 1025 1713 1431 1353 
Q 1738 1081 2206 1016 
L 2206 3644 
z
M 2838 1016 
Q 3306 1081 3613 1353 
Q 4013 1713 4013 2328 
Q 4013 2947 3613 3306 
Q 3306 3578 2838 3644 
L 2838 1016 
z
M 2206 494 
Q 1444 563 950 981 
Q 359 1481 359 2328 
Q 359 3175 950 3678 
Q 1441 4100 2206 4169 
L 2206 4666 
L 2838 4666 
L 2838 4169 
Q 3600 4097 4091 3678 
Q 4678 3175 4678 2328 
Q 4678 1484 4091 981 
Q 3600 563 2838 491 
L 2838 0 
L 2206 0 
L 2206 494 
z
" transform="scale(0.015625)"/>
      <path id="DejaVuSans-3d" d="M 678 2906 
L 4684 2906 
L 4684 2381 
L 678 2381 
L 678 2906 
z
M 678 1631 
L 4684 1631 
L 4684 1100 
L 678 1100 
L 678 1631 
z
" transform="scale(0.015625)"/>
      <path id="DejaVuSans-2e" d="M 684 794 
L 1344 794 
L 1344 0 
L 684 0 
L 684 794 
z
" transform="scale(0.015625)"/>
     </defs>
     <use xlink:href="#DejaVuSans-3a6"/>
     <use xlink:href="#DejaVuSans-3d" transform="translate(78.710938 0)"/>
     <use xlink:href="#DejaVuSans-31" transform="translate(162.5 0)"/>
     <use xlink:href="#DejaVuSans-2e" transform="translate(226.123047 0)"/>
     <use xlink:href="#DejaVuSans-30" transform="translate(257.910156 0)"/>
     <use xlink:href="#DejaVuSans-30" transform="translate(321.533203 0)"/>
    </g>
   </g>
   <g id="text_23">
    <!-- Φ=1.91 -->
    <g transform="translate(715.57339 31.173902) scale(0.08 -0.08)">
     <defs>
      <path id="DejaVuSans-39" d="M 703 97 
L 703 672 
Q 941 559 1184 500 
Q 1428 441 1663 441 
Q 2288 441 2617 861 
Q 2947 1281 2994 2138 
Q 2813 1869 2534 1725 
Q 2256 1581 1919 1581 
Q 1219 1581 811 2004 
Q 403 2428 403 3163 
Q 403 3881 828 4315 
Q 1253 4750 1959 4750 
Q 2769 4750 3195 4129 
Q 3622 3509 3622 2328 
Q 3622 1225 3098 567 
Q 2575 -91 1691 -91 
Q 1453 -91 1209 -44 
Q 966 3 703 97 
z
M 1959 2075 
Q 2384 2075 2632 2365 
Q 2881 2656 2881 3163 
Q 2881 3666 2632 3958 
Q 2384 4250 1959 4250 
Q 1534 4250 1286 3958 
Q 1038 3666 1038 3163 
Q 1038 2656 1286 2365 
Q 1534 2075 1959 2075 
z
" transform="scale(0.015625)"/>
     </defs>
     <use xlink:href="#DejaVuSans-3a6"/>
     <use xlink:href="#DejaVuSans-3d" transform="translate(78.710938 0)"/>
     <use xlink:href="#DejaVuSans-31" transform="translate(162.5 0)"/>
     <use xlink:href="#DejaVuSans-2e" transform="translate(226.123047 0)"/>
     <use xlink:href="#DejaVuSans-39" transform="translate(257.910156 0)"/>
     <use xlink:href="#DejaVuSans-31" transform="translate(321.533203 0)"/>
    </g>
   </g>
   <g id="text_24">
    <!-- Φ=1.00 -->
    <g transform="translate(854.441575 296.382725) scale(0.08 -0.08)">
     <use xlink:href="#DejaVuSans-3a6"/>
     <use xlink:href="#DejaVuSans-3d" transform="translate(78.710938 0)"/>
     <use xlink:href="#DejaVuSans-31" transform="translate(162.5 0)"/>
     <use xlink:href="#DejaVuSans-2e" transform="translate(226.123047 0)"/>
     <use xlink:href="#DejaVuSans-30" transform="translate(257.910156 0)"/>
     <use xlink:href="#DejaVuSans-30" transform="translate(321.533203 0)"/>
    </g>
   </g>
   <g id="text_25">
    <!-- Mittlere Degradationsrate &amp; Φ_sim je Lastprofil -->
    <g transform="translate(583.723781 35.378217) scale(0.11 -0.11)">
     <defs>
      <path id="DejaVuSans-Bold-44" d="M 1791 3756 
L 1791 909 
L 2222 909 
Q 2959 909 3348 1275 
Q 3738 1641 3738 2338 
Q 3738 3031 3350 3393 
Q 2963 3756 2222 3756 
L 1791 3756 
z
M 588 4666 
L 1856 4666 
Q 2919 4666 3439 4514 
Q 3959 4363 4331 4000 
Q 4659 3684 4818 3271 
Q 4978 2859 4978 2338 
Q 4978 1809 4818 1395 
Q 4659 981 4331 666 
Q 3956 303 3431 151 
Q 2906 0 1856 0 
L 588 0 
L 588 4666 
z
" transform="scale(0.015625)"/>
      <path id="DejaVuSans-Bold-67" d="M 2919 594 
Q 2688 288 2409 144 
Q 2131 0 1766 0 
Q 1125 0 706 504 
Q 288 1009 288 1791 
Q 288 2575 706 3076 
Q 1125 3578 1766 3578 
Q 2131 3578 2409 3434 
Q 2688 3291 2919 2981 
L 2919 3500 
L 4044 3500 
L 4044 353 
Q 4044 -491 3511 -936 
Q 2978 -1381 1966 -1381 
Q 1638 -1381 1331 -1331 
Q 1025 -1281 716 -1178 
L 716 -306 
Q 1009 -475 1290 -558 
Q 1572 -641 1856 -641 
Q 2406 -641 2662 -400 
Q 2919 -159 2919 353 
L 2919 594 
z
M 2181 2772 
Q 1834 2772 1640 2515 
Q 1447 2259 1447 1791 
Q 1447 1309 1634 1061 
Q 1822 813 2181 813 
Q 2531 813 2725 1069 
Q 2919 1325 2919 1791 
Q 2919 2259 2725 2515 
Q 2531 2772 2181 2772 
z
" transform="scale(0.015625)"/>
      <path id="DejaVuSans-Bold-64" d="M 2919 2988 
L 2919 4863 
L 4044 4863 
L 4044 0 
L 2919 0 
L 2919 506 
Q 2688 197 2409 53 
Q 2131 -91 1766 -91 
Q 1119 -91 703 423 
Q 288 938 288 1747 
Q 288 2556 703 3070 
Q 1119 3584 1766 3584 
Q 2128 3584 2408 3439 
Q 2688 3294 2919 2988 
z
M 2181 722 
Q 2541 722 2730 984 
Q 2919 1247 2919 1747 
Q 2919 2247 2730 2509 
Q 2541 2772 2181 2772 
Q 1825 2772 1636 2509 
Q 1447 2247 1447 1747 
Q 1447 1247 1636 984 
Q 1825 722 2181 722 
z
" transform="scale(0.015625)"/>
      <path id="DejaVuSans-Bold-6e" d="M 4056 2131 
L 4056 0 
L 2931 0 
L 2931 347 
L 2931 1631 
Q 2931 2084 2911 2256 
Q 2891 2428 2841 2509 
Q 2775 2619 2662 2680 
Q 2550 2741 2406 2741 
Q 2056 2741 1856 2470 
Q 1656 2200 1656 1722 
L 1656 0 
L 538 0 
L 538 3500 
L 1656 3500 
L 1656 2988 
Q 1909 3294 2193 3439 
Q 2478 3584 2822 3584 
Q 3428 3584 3742 3212 
Q 4056 2841 4056 2131 
z
" transform="scale(0.015625)"/>
      <path id="DejaVuSans-Bold-26" d="M 2497 3097 
L 3775 1691 
Q 3941 1909 4027 2181 
Q 4113 2453 4128 2797 
L 5100 2797 
Q 5053 2228 4879 1784 
Q 4706 1341 4397 1006 
L 5313 0 
L 3988 0 
L 3681 341 
Q 3353 122 2990 15 
Q 2628 -91 2222 -91 
Q 1400 -91 892 342 
Q 384 775 384 1459 
Q 384 1916 607 2267 
Q 831 2619 1338 2950 
Q 1206 3116 1143 3281 
Q 1081 3447 1081 3628 
Q 1081 4138 1478 4444 
Q 1875 4750 2534 4750 
Q 2819 4750 3126 4704 
Q 3434 4659 3769 4569 
L 3769 3700 
Q 3475 3850 3212 3922 
Q 2950 3994 2700 3994 
Q 2459 3994 2326 3901 
Q 2194 3809 2194 3641 
Q 2194 3534 2270 3398 
Q 2347 3263 2497 3097 
z
M 1875 2322 
Q 1672 2175 1569 1989 
Q 1466 1803 1466 1581 
Q 1466 1222 1731 969 
Q 1997 716 2369 716 
Q 2578 716 2759 780 
Q 2941 844 3097 972 
L 1875 2322 
z
" transform="scale(0.015625)"/>
      <path id="DejaVuSans-Bold-3a6" d="M 2119 3213 
Q 1975 3153 1866 3059 
Q 1563 2800 1563 2328 
Q 1563 1847 1866 1600 
Q 1972 1506 2119 1447 
L 2119 3213 
z
M 3322 1447 
Q 3469 1506 3575 1600 
Q 3878 1884 3878 2328 
Q 3878 2788 3575 3059 
Q 3472 3153 3322 3213 
L 3322 1447 
z
M 2119 506 
Q 1416 606 956 963 
Q 319 1456 319 2328 
Q 319 3203 956 3697 
Q 1416 4053 2119 4153 
L 2119 4666 
L 3322 4666 
L 3322 4153 
Q 4025 4053 4481 3697 
Q 5119 3203 5119 2328 
Q 5119 1456 4481 963 
Q 4025 609 3322 506 
L 3322 0 
L 2119 0 
L 2119 506 
z
" transform="scale(0.015625)"/>
      <path id="DejaVuSans-Bold-5f" d="M 3200 -916 
L 3200 -1509 
L 0 -1509 
L 0 -916 
L 3200 -916 
z
" transform="scale(0.015625)"/>
     </defs>
     <use xlink:href="#DejaVuSans-Bold-4d"/>
     <use xlink:href="#DejaVuSans-Bold-69" transform="translate(99.511719 0)"/>
     <use xlink:href="#DejaVuSans-Bold-74" transform="translate(133.789062 0)"/>
     <use xlink:href="#DejaVuSans-Bold-74" transform="translate(181.591797 0)"/>
     <use xlink:href="#DejaVuSans-Bold-6c" transform="translate(229.394531 0)"/>
     <use xlink:href="#DejaVuSans-Bold-65" transform="translate(263.671875 0)"/>
     <use xlink:href="#DejaVuSans-Bold-72" transform="translate(331.494141 0)"/>
     <use xlink:href="#DejaVuSans-Bold-65" transform="translate(380.810547 0)"/>
     <use xlink:href="#DejaVuSans-Bold-20" transform="translate(448.632812 0)"/>
     <use xlink:href="#DejaVuSans-Bold-44" transform="translate(483.447266 0)"/>
     <use xlink:href="#DejaVuSans-Bold-65" transform="translate(566.455078 0)"/>
     <use xlink:href="#DejaVuSans-Bold-67" transform="translate(634.277344 0)"/>
     <use xlink:href="#DejaVuSans-Bold-72" transform="translate(705.859375 0)"/>
     <use xlink:href="#DejaVuSans-Bold-61" transform="translate(755.175781 0)"/>
     <use xlink:href="#DejaVuSans-Bold-64" transform="translate(822.65625 0)"/>
     <use xlink:href="#DejaVuSans-Bold-61" transform="translate(894.238281 0)"/>
     <use xlink:href="#DejaVuSans-Bold-74" transform="translate(961.71875 0)"/>
     <use xlink:href="#DejaVuSans-Bold-69" transform="translate(1009.521484 0)"/>
     <use xlink:href="#DejaVuSans-Bold-6f" transform="translate(1043.798828 0)"/>
     <use xlink:href="#DejaVuSans-Bold-6e" transform="translate(1112.5 0)"/>
     <use xlink:href="#DejaVuSans-Bold-73" transform="translate(1183.691406 0)"/>
     <use xlink:href="#DejaVuSans-Bold-72" transform="translate(1243.212891 0)"/>
     <use xlink:href="#DejaVuSans-Bold-61" transform="translate(1292.529297 0)"/>
     <use xlink:href="#DejaVuSans-Bold-74" transform="translate(1360.009766 0)"/>
     <use xlink:href="#DejaVuSans-Bold-65" transform="translate(1407.8125 0)"/>
     <use xlink:href="#DejaVuSans-Bold-20" transform="translate(1475.634766 0)"/>
     <use xlink:href="#DejaVuSans-Bold-26" transform="translate(1510.449219 0)"/>
     <use xlink:href="#DejaVuSans-Bold-20" transform="translate(1597.65625 0)"/>
     <use xlink:href="#DejaVuSans-Bold-3a6" transform="translate(1632.470703 0)"/>
     <use xlink:href="#DejaVuSans-Bold-5f" transform="translate(1717.480469 0)"/>
     <use xlink:href="#DejaVuSans-Bold-73" transform="translate(1767.480469 0)"/>
     <use xlink:href="#DejaVuSans-Bold-69" transform="translate(1827.001953 0)"/>
     <use xlink:href="#DejaVuSans-Bold-6d" transform="translate(1861.279297 0)"/>
     <use xlink:href="#DejaVuSans-Bold-20" transform="translate(1965.478516 0)"/>
     <use xlink:href="#DejaVuSans-Bold-6a" transform="translate(2000.292969 0)"/>
     <use xlink:href="#DejaVuSans-Bold-65" transform="translate(2034.570312 0)"/>
     <use xlink:href="#DejaVuSans-Bold-20" transform="translate(2102.392578 0)"/>
     <use xlink:href="#DejaVuSans-Bold-4c" transform="translate(2137.207031 0)"/>
     <use xlink:href="#DejaVuSans-Bold-61" transform="translate(2200.927734 0)"/>
     <use xlink:href="#DejaVuSans-Bold-73" transform="translate(2268.408203 0)"/>
     <use xlink:href="#DejaVuSans-Bold-74" transform="translate(2327.929688 0)"/>
     <use xlink:href="#DejaVuSans-Bold-70" transform="translate(2375.732422 0)"/>
     <use xlink:href="#DejaVuSans-Bold-72" transform="translate(2447.314453 0)"/>
     <use xlink:href="#DejaVuSans-Bold-6f" transform="translate(2496.630859 0)"/>
     <use xlink:href="#DejaVuSans-Bold-66" transform="translate(2565.332031 0)"/>
     <use xlink:href="#DejaVuSans-Bold-69" transform="translate(2608.837891 0)"/>
     <use xlink:href="#DejaVuSans-Bold-6c" transform="translate(2643.115234 0)"/>
    </g>
   </g>
   <g id="legend_2">
    <g id="patch_23">
     <path d="M 833.98077 74.998842 
L 930.89952 74.998842 
Q 932.69952 74.998842 932.69952 73.198842 
L 932.69952 47.678217 
Q 932.69952 45.878217 930.89952 45.878217 
L 833.98077 45.878217 
Q 832.18077 45.878217 832.18077 47.678217 
L 832.18077 73.198842 
Q 832.18077 74.998842 833.98077 74.998842 
z
" style="fill: #ffffff; opacity: 0.85; stroke: #cccccc; stroke-linejoin: miter"/>
    </g>
    <g id="patch_24">
     <path d="M 835.78077 56.316811 
L 853.78077 56.316811 
L 853.78077 50.016811 
L 835.78077 50.016811 
z
" style="fill: #1f77b4"/>
    </g>
    <g id="text_26">
     <!-- Statisches PMS -->
     <g transform="translate(860.98077 56.316811) scale(0.09 -0.09)">
      <use xlink:href="#DejaVuSans-53"/>
      <use xlink:href="#DejaVuSans-74" transform="translate(63.476562 0)"/>
      <use xlink:href="#DejaVuSans-61" transform="translate(102.685547 0)"/>
      <use xlink:href="#DejaVuSans-74" transform="translate(163.964844 0)"/>
      <use xlink:href="#DejaVuSans-69" transform="translate(203.173828 0)"/>
      <use xlink:href="#DejaVuSans-73" transform="translate(230.957031 0)"/>
      <use xlink:href="#DejaVuSans-63" transform="translate(283.056641 0)"/>
      <use xlink:href="#DejaVuSans-68" transform="translate(338.037109 0)"/>
      <use xlink:href="#DejaVuSans-65" transform="translate(401.416016 0)"/>
      <use xlink:href="#DejaVuSans-73" transform="translate(462.939453 0)"/>
      <use xlink:href="#DejaVuSans-20" transform="translate(515.039062 0)"/>
      <use xlink:href="#DejaVuSans-50" transform="translate(546.826172 0)"/>
      <use xlink:href="#DejaVuSans-4d" transform="translate(607.128906 0)"/>
      <use xlink:href="#DejaVuSans-53" transform="translate(693.408203 0)"/>
     </g>
    </g>
    <g id="patch_25">
     <path d="M 835.78077 69.527124 
L 853.78077 69.527124 
L 853.78077 63.227124 
L 835.78077 63.227124 
z
" style="fill: #ff7f0e"/>
    </g>
    <g id="text_27">
     <!-- KI-PMM -->
     <g transform="translate(860.98077 69.527124) scale(0.09 -0.09)">
      <use xlink:href="#DejaVuSans-4b"/>
      <use xlink:href="#DejaVuSans-49" transform="translate(65.576172 0)"/>
      <use xlink:href="#DejaVuSans-2d" transform="translate(95.068359 0)"/>
      <use xlink:href="#DejaVuSans-50" transform="translate(131.152344 0)"/>
      <use xlink:href="#DejaVuSans-4d" transform="translate(191.455078 0)"/>
      <use xlink:href="#DejaVuSans-4d" transform="translate(277.734375 0)"/>
     </g>
    </g>
   </g>
  </g>
  <g id="text_28">
   <!-- Exp 12 – Lastprofilvergleich: Mittlere Kenngrößen -->
   <g transform="translate(303.981323 16.486875) scale(0.12 -0.12)">
    <defs>
     <path id="DejaVuSans-Bold-45" d="M 588 4666 
L 3834 4666 
L 3834 3756 
L 1791 3756 
L 1791 2888 
L 3713 2888 
L 3713 1978 
L 1791 1978 
L 1791 909 
L 3903 909 
L 3903 0 
L 588 0 
L 588 4666 
z
" transform="scale(0.015625)"/>
     <path id="DejaVuSans-Bold-78" d="M 1422 1791 
L 159 3500 
L 1344 3500 
L 2059 2463 
L 2784 3500 
L 3969 3500 
L 2706 1797 
L 4031 0 
L 2847 0 
L 2059 1106 
L 1281 0 
L 97 0 
L 1422 1791 
z
" transform="scale(0.015625)"/>
     <path id="DejaVuSans-Bold-31" d="M 750 831 
L 1813 831 
L 1813 3847 
L 722 3622 
L 722 4441 
L 1806 4666 
L 2950 4666 
L 2950 831 
L 4013 831 
L 4013 0 
L 750 0 
L 750 831 
z
" transform="scale(0.015625)"/>
     <path id="DejaVuSans-Bold-32" d="M 1844 884 
L 3897 884 
L 3897 0 
L 506 0 
L 506 884 
L 2209 2388 
Q 2438 2594 2547 2791 
Q 2656 2988 2656 3200 
Q 2656 3528 2436 3728 
Q 2216 3928 1850 3928 
Q 1569 3928 1234 3808 
Q 900 3688 519 3450 
L 519 4475 
Q 925 4609 1322 4679 
Q 1719 4750 2100 4750 
Q 2938 4750 3402 4381 
Q 3866 4013 3866 3353 
Q 3866 2972 3669 2642 
Q 3472 2313 2841 1759 
L 1844 884 
z
" transform="scale(0.015625)"/>
     <path id="DejaVuSans-Bold-2013" d="M 344 2156 
L 2856 2156 
L 2856 1350 
L 344 1350 
L 344 2156 
z
" transform="scale(0.015625)"/>
     <path id="DejaVuSans-Bold-76" d="M 97 3500 
L 1216 3500 
L 2088 1081 
L 2956 3500 
L 4078 3500 
L 2700 0 
L 1472 0 
L 97 3500 
z
" transform="scale(0.015625)"/>
     <path id="DejaVuSans-Bold-63" d="M 3366 3391 
L 3366 2478 
Q 3138 2634 2908 2709 
Q 2678 2784 2431 2784 
Q 1963 2784 1702 2511 
Q 1441 2238 1441 1747 
Q 1441 1256 1702 982 
Q 1963 709 2431 709 
Q 2694 709 2930 787 
Q 3166 866 3366 1019 
L 3366 103 
Q 3103 6 2833 -42 
Q 2563 -91 2291 -91 
Q 1344 -91 809 395 
Q 275 881 275 1747 
Q 275 2613 809 3098 
Q 1344 3584 2291 3584 
Q 2566 3584 2833 3536 
Q 3100 3488 3366 3391 
z
" transform="scale(0.015625)"/>
     <path id="DejaVuSans-Bold-68" d="M 4056 2131 
L 4056 0 
L 2931 0 
L 2931 347 
L 2931 1625 
Q 2931 2084 2911 2256 
Q 2891 2428 2841 2509 
Q 2775 2619 2662 2680 
Q 2550 2741 2406 2741 
Q 2056 2741 1856 2470 
Q 1656 2200 1656 1722 
L 1656 0 
L 538 0 
L 538 4863 
L 1656 4863 
L 1656 2988 
Q 1909 3294 2193 3439 
Q 2478 3584 2822 3584 
Q 3428 3584 3742 3212 
Q 4056 2841 4056 2131 
z
" transform="scale(0.015625)"/>
     <path id="DejaVuSans-Bold-3a" d="M 716 3500 
L 1844 3500 
L 1844 2291 
L 716 2291 
L 716 3500 
z
M 716 1209 
L 1844 1209 
L 1844 0 
L 716 0 
L 716 1209 
z
" transform="scale(0.015625)"/>
     <path id="DejaVuSans-Bold-4b" d="M 588 4666 
L 1791 4666 
L 1791 2963 
L 3525 4666 
L 4922 4666 
L 2675 2456 
L 5153 0 
L 3647 0 
L 1791 1838 
L 1791 0 
L 588 0 
L 588 4666 
z
" transform="scale(0.015625)"/>
     <path id="DejaVuSans-Bold-f6" d="M 2203 2784 
Q 1831 2784 1636 2517 
Q 1441 2250 1441 1747 
Q 1441 1244 1636 976 
Q 1831 709 2203 709 
Q 2569 709 2762 976 
Q 2956 1244 2956 1747 
Q 2956 2250 2762 2517 
Q 2569 2784 2203 2784 
z
M 2203 3584 
Q 3106 3584 3614 3096 
Q 4122 2609 4122 1747 
Q 4122 884 3614 396 
Q 3106 -91 2203 -91 
Q 1297 -91 786 396 
Q 275 884 275 1747 
Q 275 2609 786 3096 
Q 1297 3584 2203 3584 
z
M 1208 4953 
L 1942 4953 
L 1942 4184 
L 1208 4184 
L 1208 4953 
z
M 2442 4953 
L 3176 4953 
L 3176 4184 
L 2442 4184 
L 2442 4953 
z
" transform="scale(0.015625)"/>
     <path id="DejaVuSans-Bold-df" d="M 538 3481 
Q 538 4175 959 4519 
Q 1381 4863 2234 4863 
Q 3053 4863 3472 4513 
Q 3891 4163 3891 3481 
L 3891 3259 
Q 3419 3228 3194 3106 
Q 2969 2984 2969 2753 
Q 2969 2638 3045 2548 
Q 3122 2459 3413 2297 
L 3628 2181 
Q 3991 1981 4158 1717 
Q 4325 1453 4325 1088 
Q 4325 497 3967 203 
Q 3609 -91 2888 -91 
Q 2684 -91 2468 -52 
Q 2253 -13 2022 63 
L 2022 825 
Q 2197 741 2376 697 
Q 2556 653 2725 653 
Q 2950 653 3087 765 
Q 3225 878 3225 1056 
Q 3225 1203 3139 1309 
Q 3053 1416 2747 1588 
L 2528 1709 
Q 2253 1863 2122 2073 
Q 1991 2284 1991 2566 
Q 1991 2928 2208 3175 
Q 2425 3422 2878 3578 
Q 2875 3844 2725 3983 
Q 2575 4122 2291 4122 
Q 1975 4122 1815 3950 
Q 1656 3778 1656 3438 
L 1656 0 
L 538 0 
L 538 3481 
z
" transform="scale(0.015625)"/>
    </defs>
    <use xlink:href="#DejaVuSans-Bold-45"/>
    <use xlink:href="#DejaVuSans-Bold-78" transform="translate(68.310547 0)"/>
    <use xlink:href="#DejaVuSans-Bold-70" transform="translate(132.8125 0)"/>
    <use xlink:href="#DejaVuSans-Bold-20" transform="translate(204.394531 0)"/>
    <use xlink:href="#DejaVuSans-Bold-31" transform="translate(239.208984 0)"/>
    <use xlink:href="#DejaVuSans-Bold-32" transform="translate(308.789062 0)"/>
    <use xlink:href="#DejaVuSans-Bold-20" transform="translate(378.369141 0)"/>
    <use xlink:href="#DejaVuSans-Bold-2013" transform="translate(413.183594 0)"/>
    <use xlink:href="#DejaVuSans-Bold-20" transform="translate(463.183594 0)"/>
    <use xlink:href="#DejaVuSans-Bold-4c" transform="translate(497.998047 0)"/>
    <use xlink:href="#DejaVuSans-Bold-61" transform="translate(561.71875 0)"/>
    <use xlink:href="#DejaVuSans-Bold-73" transform="translate(629.199219 0)"/>
    <use xlink:href="#DejaVuSans-Bold-74" transform="translate(688.720703 0)"/>
    <use xlink:href="#DejaVuSans-Bold-70" transform="translate(736.523438 0)"/>
    <use xlink:href="#DejaVuSans-Bold-72" transform="translate(808.105469 0)"/>
    <use xlink:href="#DejaVuSans-Bold-6f" transform="translate(857.421875 0)"/>
    <use xlink:href="#DejaVuSans-Bold-66" transform="translate(926.123047 0)"/>
    <use xlink:href="#DejaVuSans-Bold-69" transform="translate(969.628906 0)"/>
    <use xlink:href="#DejaVuSans-Bold-6c" transform="translate(1003.90625 0)"/>
    <use xlink:href="#DejaVuSans-Bold-76" transform="translate(1038.183594 0)"/>
    <use xlink:href="#DejaVuSans-Bold-65" transform="translate(1103.369141 0)"/>
    <use xlink:href="#DejaVuSans-Bold-72" transform="translate(1171.191406 0)"/>
    <use xlink:href="#DejaVuSans-Bold-67" transform="translate(1220.507812 0)"/>
    <use xlink:href="#DejaVuSans-Bold-6c" transform="translate(1292.089844 0)"/>
    <use xlink:href="#DejaVuSans-Bold-65" transform="translate(1326.367188 0)"/>
    <use xlink:href="#DejaVuSans-Bold-69" transform="translate(1394.189453 0)"/>
    <use xlink:href="#DejaVuSans-Bold-63" transform="translate(1428.466797 0)"/>
    <use xlink:href="#DejaVuSans-Bold-68" transform="translate(1487.744141 0)"/>
    <use xlink:href="#DejaVuSans-Bold-3a" transform="translate(1558.935547 0)"/>
    <use xlink:href="#DejaVuSans-Bold-20" transform="translate(1598.925781 0)"/>
    <use xlink:href="#DejaVuSans-Bold-4d" transform="translate(1633.740234 0)"/>
    <use xlink:href="#DejaVuSans-Bold-69" transform="translate(1733.251953 0)"/>
    <use xlink:href="#DejaVuSans-Bold-74" transform="translate(1767.529297 0)"/>
    <use xlink:href="#DejaVuSans-Bold-74" transform="translate(1815.332031 0)"/>
    <use xlink:href="#DejaVuSans-Bold-6c" transform="translate(1863.134766 0)"/>
    <use xlink:href="#DejaVuSans-Bold-65" transform="translate(1897.412109 0)"/>
    <use xlink:href="#DejaVuSans-Bold-72" transform="translate(1965.234375 0)"/>
    <use xlink:href="#DejaVuSans-Bold-65" transform="translate(2014.550781 0)"/>
    <use xlink:href="#DejaVuSans-Bold-20" transform="translate(2082.373047 0)"/>
    <use xlink:href="#DejaVuSans-Bold-4b" transform="translate(2117.1875 0)"/>
    <use xlink:href="#DejaVuSans-Bold-65" transform="translate(2192.927734 0)"/>
    <use xlink:href="#DejaVuSans-Bold-6e" transform="translate(2260.75 0)"/>
    <use xlink:href="#DejaVuSans-Bold-6e" transform="translate(2331.941406 0)"/>
    <use xlink:href="#DejaVuSans-Bold-67" transform="translate(2403.132812 0)"/>
    <use xlink:href="#DejaVuSans-Bold-72" transform="translate(2474.714844 0)"/>
    <use xlink:href="#DejaVuSans-Bold-f6" transform="translate(2524.03125 0)"/>
    <use xlink:href="#DejaVuSans-Bold-df" transform="translate(2592.732422 0)"/>
    <use xlink:href="#DejaVuSans-Bold-65" transform="translate(2664.65625 0)"/>
    <use xlink:href="#DejaVuSans-Bold-6e" transform="translate(2732.478516 0)"/>
   </g>
  </g>
 </g>
 <defs>
  <clipPath id="p20ab4512d1">
   <rect x="40.603125" y="41.378217" width="412.43851" height="291.729706"/>
  </clipPath>
  <clipPath id="p2e78125b89">
   <rect x="524.76101" y="41.378217" width="412.43851" height="291.729706"/>
  </clipPath>
 </defs>
</svg>
