<?xml version="1.0" encoding="utf-8" standalone="no"?>
<!DOCTYPE svg PUBLIC "-//W3C//DTD SVG 1.1//EN"
  "http://www.w3.org/Graphics/SVG/1.1/DTD/svg11.dtd">
<svg xmlns:xlink="http://www.w3.org/1999/xlink" width="730.11375pt" height="395.969687pt" viewBox="0 0 730.11375 395.969687" xmlns="http://www.w3.org/2000/svg" version="1.1">
 <metadata>
  <rdf:RDF xmlns:dc="http://purl.org/dc/elements/1.1/" xmlns:cc="http://creativecommons.org/ns#" xmlns:rdf="http://www.w3.org/1999/02/22-rdf-syntax-ns#">
   <cc:Work>
    <dc:type rdf:resource="http://purl.org/dc/dcmitype/StillImage"/>
    <dc:date>2026-02-22T23:29:59.887024</dc:date>
    <dc:format>image/svg+xml</dc:format>
    <dc:creator>
     <cc:Agent>
      <dc:title>Matplotlib v3.10.8, https://matplotlib.org/</dc:title>
     </cc:Agent>
    </dc:creator>
   </cc:Work>
  </rdf:RDF>
 </metadata>
 <defs>
  <style type="text/css">*{stroke-linejoin: round; stroke-linecap: butt}</style>
 </defs>
 <g id="figure_1">
  <g id="patch_1">
   <path d="M 0 395.969687 
L 730.11375 395.969687 
L 730.11375 0 
L 0 0 
z
" style="fill: #ffffff"/>
  </g>
  <g id="axes_1">
   <g id="patch_2">
    <path d="M 53.31375 356.477812 
L 722.91375 356.477812 
L 722.91375 23.837812 
L 53.31375 23.837812 
z
" style="fill: #ffffff"/>
   </g>
   <g id="matplotlib.axis_1">
    <g id="xtick_1">
     <g id="line2d_1">
      <path d="M 83.750114 356.477812 
L 83.750114 23.837812 
" clip-path="url(#p2d1dd3d567)" style="fill: none; stroke: #b0b0b0; stroke-opacity: 0.3; stroke-width: 0.8; stroke-linecap: square"/>
     </g>
     <g id="line2d_2">
      <defs>
       <path id="m071ead508d" d="M 0 0 
L 0 3.5 
" style="stroke: #000000; stroke-width: 0.8"/>
      </defs>
      <g>
       <use xlink:href="#m071ead508d" x="83.750114" y="356.477812" style="stroke: #000000; stroke-width: 0.8"/>
      </g>
     </g>
     <g id="text_1">
      <!-- $\mathdefault{2^{3}}$ -->
      <g transform="translate(78.150114 371.07625) scale(0.1 -0.1)">
       <defs>
        <path id="DejaVuSans-32" d="M 1228 531 
L 3431 531 
L 3431 0 
L 469 0 
L 469 531 
Q 828 903 1448 1529 
Q 2069 2156 2228 2338 
Q 2531 2678 2651 2914 
Q 2772 3150 2772 3378 
Q 2772 3750 2511 3984 
Q 2250 4219 1831 4219 
Q 1534 4219 1204 4116 
Q 875 4013 500 3803 
L 500 4441 
Q 881 4594 1212 4672 
Q 1544 4750 1819 4750 
Q 2544 4750 2975 4387 
Q 3406 4025 3406 3419 
Q 3406 3131 3298 2873 
Q 3191 2616 2906 2266 
Q 2828 2175 2409 1742 
Q 1991 1309 1228 531 
z
" transform="scale(0.015625)"/>
        <path id="DejaVuSans-33" d="M 2597 2516 
Q 3050 2419 3304 2112 
Q 3559 1806 3559 1356 
Q 3559 666 3084 287 
Q 2609 -91 1734 -91 
Q 1441 -91 1130 -33 
Q 819 25 488 141 
L 488 750 
Q 750 597 1062 519 
Q 1375 441 1716 441 
Q 2309 441 2620 675 
Q 2931 909 2931 1356 
Q 2931 1769 2642 2001 
Q 2353 2234 1838 2234 
L 1294 2234 
L 1294 2753 
L 1863 2753 
Q 2328 2753 2575 2939 
Q 2822 3125 2822 3475 
Q 2822 3834 2567 4026 
Q 2313 4219 1838 4219 
Q 1578 4219 1281 4162 
Q 984 4106 628 3988 
L 628 4550 
Q 988 4650 1302 4700 
Q 1616 4750 1894 4750 
Q 2613 4750 3031 4423 
Q 3450 4097 3450 3541 
Q 3450 3153 3228 2886 
Q 3006 2619 2597 2516 
z
" transform="scale(0.015625)"/>
       </defs>
       <use xlink:href="#DejaVuSans-32" transform="translate(0 0.765625)"/>
       <use xlink:href="#DejaVuSans-33" transform="translate(64.580078 39.046875) scale(0.7)"/>
      </g>
     </g>
    </g>
    <g id="xtick_2">
     <g id="line2d_3">
      <path d="M 235.931932 356.477812 
L 235.931932 23.837812 
" clip-path="url(#p2d1dd3d567)" style="fill: none; stroke: #b0b0b0; stroke-opacity: 0.3; stroke-width: 0.8; stroke-linecap: square"/>
     </g>
     <g id="line2d_4">
      <g>
       <use xlink:href="#m071ead508d" x="235.931932" y="356.477812" style="stroke: #000000; stroke-width: 0.8"/>
      </g>
     </g>
     <g id="text_2">
      <!-- $\mathdefault{2^{4}}$ -->
      <g transform="translate(230.331932 371.07625) scale(0.1 -0.1)">
       <defs>
        <path id="DejaVuSans-34" d="M 2419 4116 
L 825 1625 
L 2419 1625 
L 2419 4116 
z
M 2253 4666 
L 3047 4666 
L 3047 1625 
L 3713 1625 
L 3713 1100 
L 3047 1100 
L 3047 0 
L 2419 0 
L 2419 1100 
L 313 1100 
L 313 1709 
L 2253 4666 
z
" transform="scale(0.015625)"/>
       </defs>
       <use xlink:href="#DejaVuSans-32" transform="translate(0 0.684375)"/>
       <use xlink:href="#DejaVuSans-34" transform="translate(64.580078 38.965625) scale(0.7)"/>
      </g>
     </g>
    </g>
    <g id="xtick_3">
     <g id="line2d_5">
      <path d="M 388.11375 356.477812 
L 388.11375 23.837812 
" clip-path="url(#p2d1dd3d567)" style="fill: none; stroke: #b0b0b0; stroke-opacity: 0.3; stroke-width: 0.8; stroke-linecap: square"/>
     </g>
     <g id="line2d_6">
      <g>
       <use xlink:href="#m071ead508d" x="388.11375" y="356.477812" style="stroke: #000000; stroke-width: 0.8"/>
      </g>
     </g>
     <g id="text_3">
      <!-- $\mathdefault{2^{5}}$ -->
      <g transform="translate(382.51375 371.07625) scale(0.1 -0.1)">
       <defs>
        <path id="DejaVuSans-35" d="M 691 4666 
L 3169 4666 
L 3169 4134 
L 1269 4134 
L 1269 2991 
Q 1406 3038 1543 3061 
Q 1681 3084 1819 3084 
Q 2600 3084 3056 2656 
Q 3513 2228 3513 1497 
Q 3513 744 3044 326 
Q 2575 -91 1722 -91 
Q 1428 -91 1123 -41 
Q 819 9 494 109 
L 494 744 
Q 775 591 1075 516 
Q 1375 441 1709 441 
Q 2250 441 2565 725 
Q 2881 1009 2881 1497 
Q 2881 1984 2565 2268 
Q 2250 2553 1709 2553 
Q 1456 2553 1204 2497 
Q 953 2441 691 2322 
L 691 4666 
z
" transform="scale(0.015625)"/>
       </defs>
       <use xlink:href="#DejaVuSans-32" transform="translate(0 0.684375)"/>
       <use xlink:href="#DejaVuSans-35" transform="translate(64.580078 38.965625) scale(0.7)"/>
      </g>
     </g>
    </g>
    <g id="xtick_4">
     <g id="line2d_7">
      <path d="M 540.295568 356.477812 
L 540.295568 23.837812 
" clip-path="url(#p2d1dd3d567)" style="fill: none; stroke: #b0b0b0; stroke-opacity: 0.3; stroke-width: 0.8; stroke-linecap: square"/>
     </g>
     <g id="line2d_8">
      <g>
       <use xlink:href="#m071ead508d" x="540.295568" y="356.477812" style="stroke: #000000; stroke-width: 0.8"/>
      </g>
     </g>
     <g id="text_4">
      <!-- $\mathdefault{2^{6}}$ -->
      <g transform="translate(534.695568 371.07625) scale(0.1 -0.1)">
       <defs>
        <path id="DejaVuSans-36" d="M 2113 2584 
Q 1688 2584 1439 2293 
Q 1191 2003 1191 1497 
Q 1191 994 1439 701 
Q 1688 409 2113 409 
Q 2538 409 2786 701 
Q 3034 994 3034 1497 
Q 3034 2003 2786 2293 
Q 2538 2584 2113 2584 
z
M 3366 4563 
L 3366 3988 
Q 3128 4100 2886 4159 
Q 2644 4219 2406 4219 
Q 1781 4219 1451 3797 
Q 1122 3375 1075 2522 
Q 1259 2794 1537 2939 
Q 1816 3084 2150 3084 
Q 2853 3084 3261 2657 
Q 3669 2231 3669 1497 
Q 3669 778 3244 343 
Q 2819 -91 2113 -91 
Q 1303 -91 875 529 
Q 447 1150 447 2328 
Q 447 3434 972 4092 
Q 1497 4750 2381 4750 
Q 2619 4750 2861 4703 
Q 3103 4656 3366 4563 
z
" transform="scale(0.015625)"/>
       </defs>
       <use xlink:href="#DejaVuSans-32" transform="translate(0 0.765625)"/>
       <use xlink:href="#DejaVuSans-36" transform="translate(64.580078 39.046875) scale(0.7)"/>
      </g>
     </g>
    </g>
    <g id="xtick_5">
     <g id="line2d_9">
      <path d="M 692.477386 356.477812 
L 692.477386 23.837812 
" clip-path="url(#p2d1dd3d567)" style="fill: none; stroke: #b0b0b0; stroke-opacity: 0.3; stroke-width: 0.8; stroke-linecap: square"/>
     </g>
     <g id="line2d_10">
      <g>
       <use xlink:href="#m071ead508d" x="692.477386" y="356.477812" style="stroke: #000000; stroke-width: 0.8"/>
      </g>
     </g>
     <g id="text_5">
      <!-- $\mathdefault{2^{7}}$ -->
      <g transform="translate(686.877386 371.07625) scale(0.1 -0.1)">
       <defs>
        <path id="DejaVuSans-37" d="M 525 4666 
L 3525 4666 
L 3525 4397 
L 1831 0 
L 1172 0 
L 2766 4134 
L 525 4134 
L 525 4666 
z
" transform="scale(0.015625)"/>
       </defs>
       <use xlink:href="#DejaVuSans-32" transform="translate(0 0.684375)"/>
       <use xlink:href="#DejaVuSans-37" transform="translate(64.580078 38.965625) scale(0.7)"/>
      </g>
     </g>
    </g>
    <g id="text_6">
     <!-- Matrixgröße n -->
     <g transform="translate(346.230938 386.274062) scale(0.12 -0.12)">
      <defs>
       <path id="DejaVuSans-4d" d="M 628 4666 
L 1569 4666 
L 2759 1491 
L 3956 4666 
L 4897 4666 
L 4897 0 
L 4281 0 
L 4281 4097 
L 3078 897 
L 2444 897 
L 1241 4097 
L 1241 0 
L 628 0 
L 628 4666 
z
" transform="scale(0.015625)"/>
       <path id="DejaVuSans-61" d="M 2194 1759 
Q 1497 1759 1228 1600 
Q 959 1441 959 1056 
Q 959 750 1161 570 
Q 1363 391 1709 391 
Q 2188 391 2477 730 
Q 2766 1069 2766 1631 
L 2766 1759 
L 2194 1759 
z
M 3341 1997 
L 3341 0 
L 2766 0 
L 2766 531 
Q 2569 213 2275 61 
Q 1981 -91 1556 -91 
Q 1019 -91 701 211 
Q 384 513 384 1019 
Q 384 1609 779 1909 
Q 1175 2209 1959 2209 
L 2766 2209 
L 2766 2266 
Q 2766 2663 2505 2880 
Q 2244 3097 1772 3097 
Q 1472 3097 1187 3025 
Q 903 2953 641 2809 
L 641 3341 
Q 956 3463 1253 3523 
Q 1550 3584 1831 3584 
Q 2591 3584 2966 3190 
Q 3341 2797 3341 1997 
z
" transform="scale(0.015625)"/>
       <path id="DejaVuSans-74" d="M 1172 4494 
L 1172 3500 
L 2356 3500 
L 2356 3053 
L 1172 3053 
L 1172 1153 
Q 1172 725 1289 603 
Q 1406 481 1766 481 
L 2356 481 
L 2356 0 
L 1766 0 
Q 1100 0 847 248 
Q 594 497 594 1153 
L 594 3053 
L 172 3053 
L 172 3500 
L 594 3500 
L 594 4494 
L 1172 4494 
z
" transform="scale(0.015625)"/>
       <path id="DejaVuSans-72" d="M 2631 2963 
Q 2534 3019 2420 3045 
Q 2306 3072 2169 3072 
Q 1681 3072 1420 2755 
Q 1159 2438 1159 1844 
L 1159 0 
L 581 0 
L 581 3500 
L 1159 3500 
L 1159 2956 
Q 1341 3275 1631 3429 
Q 1922 3584 2338 3584 
Q 2397 3584 2469 3576 
Q 2541 3569 2628 3553 
L 2631 2963 
z
" transform="scale(0.015625)"/>
       <path id="DejaVuSans-69" d="M 603 3500 
L 1178 3500 
L 1178 0 
L 603 0 
L 603 3500 
z
M 603 4863 
L 1178 4863 
L 1178 4134 
L 603 4134 
L 603 4863 
z
" transform="scale(0.015625)"/>
       <path id="DejaVuSans-78" d="M 3513 3500 
L 2247 1797 
L 3578 0 
L 2900 0 
L 1881 1375 
L 863 0 
L 184 0 
L 1544 1831 
L 300 3500 
L 978 3500 
L 1906 2253 
L 2834 3500 
L 3513 3500 
z
" transform="scale(0.015625)"/>
       <path id="DejaVuSans-67" d="M 2906 1791 
Q 2906 2416 2648 2759 
Q 2391 3103 1925 3103 
Q 1463 3103 1205 2759 
Q 947 2416 947 1791 
Q 947 1169 1205 825 
Q 1463 481 1925 481 
Q 2391 481 2648 825 
Q 2906 1169 2906 1791 
z
M 3481 434 
Q 3481 -459 3084 -895 
Q 2688 -1331 1869 -1331 
Q 1566 -1331 1297 -1286 
Q 1028 -1241 775 -1147 
L 775 -588 
Q 1028 -725 1275 -790 
Q 1522 -856 1778 -856 
Q 2344 -856 2625 -561 
Q 2906 -266 2906 331 
L 2906 616 
Q 2728 306 2450 153 
Q 2172 0 1784 0 
Q 1141 0 747 490 
Q 353 981 353 1791 
Q 353 2603 747 3093 
Q 1141 3584 1784 3584 
Q 2172 3584 2450 3431 
Q 2728 3278 2906 2969 
L 2906 3500 
L 3481 3500 
L 3481 434 
z
" transform="scale(0.015625)"/>
       <path id="DejaVuSans-f6" d="M 1959 3097 
Q 1497 3097 1228 2736 
Q 959 2375 959 1747 
Q 959 1119 1226 758 
Q 1494 397 1959 397 
Q 2419 397 2687 759 
Q 2956 1122 2956 1747 
Q 2956 2369 2687 2733 
Q 2419 3097 1959 3097 
z
M 1959 3584 
Q 2709 3584 3137 3096 
Q 3566 2609 3566 1747 
Q 3566 888 3137 398 
Q 2709 -91 1959 -91 
Q 1206 -91 779 398 
Q 353 888 353 1747 
Q 353 2609 779 3096 
Q 1206 3584 1959 3584 
z
M 2254 4850 
L 2888 4850 
L 2888 4219 
L 2254 4219 
L 2254 4850 
z
M 1032 4850 
L 1666 4850 
L 1666 4219 
L 1032 4219 
L 1032 4850 
z
" transform="scale(0.015625)"/>
       <path id="DejaVuSans-df" d="M 581 3553 
Q 581 4178 954 4520 
Q 1328 4863 2009 4863 
Q 2659 4863 3001 4500 
Q 3344 4138 3353 3438 
Q 2881 3413 2618 3233 
Q 2356 3053 2356 2753 
Q 2356 2606 2447 2479 
Q 2538 2353 2741 2222 
L 2919 2106 
Q 3438 1775 3588 1553 
Q 3738 1331 3738 1019 
Q 3738 481 3386 195 
Q 3034 -91 2375 -91 
Q 2175 -91 1962 -52 
Q 1750 -13 1522 63 
L 1522 575 
Q 1772 481 1990 436 
Q 2209 391 2413 391 
Q 2775 391 2962 539 
Q 3150 688 3150 972 
Q 3150 1169 3058 1300 
Q 2966 1431 2650 1625 
L 2363 1797 
Q 2063 1981 1927 2192 
Q 1791 2403 1791 2688 
Q 1791 3084 2052 3353 
Q 2313 3622 2784 3713 
Q 2759 4034 2554 4209 
Q 2350 4384 1997 4384 
Q 1591 4384 1378 4167 
Q 1166 3950 1166 3541 
L 1166 0 
L 581 0 
L 581 3553 
z
" transform="scale(0.015625)"/>
       <path id="DejaVuSans-65" d="M 3597 1894 
L 3597 1613 
L 953 1613 
Q 991 1019 1311 708 
Q 1631 397 2203 397 
Q 2534 397 2845 478 
Q 3156 559 3463 722 
L 3463 178 
Q 3153 47 2828 -22 
Q 2503 -91 2169 -91 
Q 1331 -91 842 396 
Q 353 884 353 1716 
Q 353 2575 817 3079 
Q 1281 3584 2069 3584 
Q 2775 3584 3186 3129 
Q 3597 2675 3597 1894 
z
M 3022 2063 
Q 3016 2534 2758 2815 
Q 2500 3097 2075 3097 
Q 1594 3097 1305 2825 
Q 1016 2553 972 2059 
L 3022 2063 
z
" transform="scale(0.015625)"/>
       <path id="DejaVuSans-20" transform="scale(0.015625)"/>
       <path id="DejaVuSans-6e" d="M 3513 2113 
L 3513 0 
L 2938 0 
L 2938 2094 
Q 2938 2591 2744 2837 
Q 2550 3084 2163 3084 
Q 1697 3084 1428 2787 
Q 1159 2491 1159 1978 
L 1159 0 
L 581 0 
L 581 3500 
L 1159 3500 
L 1159 2956 
Q 1366 3272 1645 3428 
Q 1925 3584 2291 3584 
Q 2894 3584 3203 3211 
Q 3513 2838 3513 2113 
z
" transform="scale(0.015625)"/>
      </defs>
      <use xlink:href="#DejaVuSans-4d"/>
      <use xlink:href="#DejaVuSans-61" transform="translate(86.279297 0)"/>
      <use xlink:href="#DejaVuSans-74" transform="translate(147.558594 0)"/>
      <use xlink:href="#DejaVuSans-72" transform="translate(186.767578 0)"/>
      <use xlink:href="#DejaVuSans-69" transform="translate(227.880859 0)"/>
      <use xlink:href="#DejaVuSans-78" transform="translate(255.664062 0)"/>
      <use xlink:href="#DejaVuSans-67" transform="translate(314.84375 0)"/>
      <use xlink:href="#DejaVuSans-72" transform="translate(378.320312 0)"/>
      <use xlink:href="#DejaVuSans-f6" transform="translate(417.183594 0)"/>
      <use xlink:href="#DejaVuSans-df" transform="translate(478.365234 0)"/>
      <use xlink:href="#DejaVuSans-65" transform="translate(541.353516 0)"/>
      <use xlink:href="#DejaVuSans-20" transform="translate(602.876953 0)"/>
      <use xlink:href="#DejaVuSans-6e" transform="translate(634.664062 0)"/>
     </g>
    </g>
   </g>
   <g id="matplotlib.axis_2">
    <g id="ytick_1">
     <g id="line2d_11">
      <path d="M 53.31375 317.541818 
L 722.91375 317.541818 
" clip-path="url(#p2d1dd3d567)" style="fill: none; stroke: #b0b0b0; stroke-opacity: 0.3; stroke-width: 0.8; stroke-linecap: square"/>
     </g>
     <g id="line2d_12">
      <defs>
       <path id="m3b48e5120f" d="M 0 0 
L -3.5 0 
" style="stroke: #000000; stroke-width: 0.8"/>
      </defs>
      <g>
       <use xlink:href="#m3b48e5120f" x="53.31375" y="317.541818" style="stroke: #000000; stroke-width: 0.8"/>
      </g>
     </g>
     <g id="text_7">
      <!-- $\mathdefault{10^{-2}}$ -->
      <g transform="translate(22.81375 321.341037) scale(0.1 -0.1)">
       <defs>
        <path id="DejaVuSans-31" d="M 794 531 
L 1825 531 
L 1825 4091 
L 703 3866 
L 703 4441 
L 1819 4666 
L 2450 4666 
L 2450 531 
L 3481 531 
L 3481 0 
L 794 0 
L 794 531 
z
" transform="scale(0.015625)"/>
        <path id="DejaVuSans-30" d="M 2034 4250 
Q 1547 4250 1301 3770 
Q 1056 3291 1056 2328 
Q 1056 1369 1301 889 
Q 1547 409 2034 409 
Q 2525 409 2770 889 
Q 3016 1369 3016 2328 
Q 3016 3291 2770 3770 
Q 2525 4250 2034 4250 
z
M 2034 4750 
Q 2819 4750 3233 4129 
Q 3647 3509 3647 2328 
Q 3647 1150 3233 529 
Q 2819 -91 2034 -91 
Q 1250 -91 836 529 
Q 422 1150 422 2328 
Q 422 3509 836 4129 
Q 1250 4750 2034 4750 
z
" transform="scale(0.015625)"/>
        <path id="DejaVuSans-2212" d="M 678 2272 
L 4684 2272 
L 4684 1741 
L 678 1741 
L 678 2272 
z
" transform="scale(0.015625)"/>
       </defs>
       <use xlink:href="#DejaVuSans-31" transform="translate(0 0.765625)"/>
       <use xlink:href="#DejaVuSans-30" transform="translate(63.623047 0.765625)"/>
       <use xlink:href="#DejaVuSans-2212" transform="translate(128.203125 39.046875) scale(0.7)"/>
       <use xlink:href="#DejaVuSans-32" transform="translate(186.855469 39.046875) scale(0.7)"/>
      </g>
     </g>
    </g>
    <g id="ytick_2">
     <g id="line2d_13">
      <path d="M 53.31375 254.897245 
L 722.91375 254.897245 
" clip-path="url(#p2d1dd3d567)" style="fill: none; stroke: #b0b0b0; stroke-opacity: 0.3; stroke-width: 0.8; stroke-linecap: square"/>
     </g>
     <g id="line2d_14">
      <g>
       <use xlink:href="#m3b48e5120f" x="53.31375" y="254.897245" style="stroke: #000000; stroke-width: 0.8"/>
      </g>
     </g>
     <g id="text_8">
      <!-- $\mathdefault{10^{-1}}$ -->
      <g transform="translate(22.81375 258.696464) scale(0.1 -0.1)">
       <use xlink:href="#DejaVuSans-31" transform="translate(0 0.684375)"/>
       <use xlink:href="#DejaVuSans-30" transform="translate(63.623047 0.684375)"/>
       <use xlink:href="#DejaVuSans-2212" transform="translate(128.203125 38.965625) scale(0.7)"/>
       <use xlink:href="#DejaVuSans-31" transform="translate(186.855469 38.965625) scale(0.7)"/>
      </g>
     </g>
    </g>
    <g id="ytick_3">
     <g id="line2d_15">
      <path d="M 53.31375 192.252672 
L 722.91375 192.252672 
" clip-path="url(#p2d1dd3d567)" style="fill: none; stroke: #b0b0b0; stroke-opacity: 0.3; stroke-width: 0.8; stroke-linecap: square"/>
     </g>
     <g id="line2d_16">
      <g>
       <use xlink:href="#m3b48e5120f" x="53.31375" y="192.252672" style="stroke: #000000; stroke-width: 0.8"/>
      </g>
     </g>
     <g id="text_9">
      <!-- $\mathdefault{10^{0}}$ -->
      <g transform="translate(28.71375 196.051891) scale(0.1 -0.1)">
       <use xlink:href="#DejaVuSans-31" transform="translate(0 0.765625)"/>
       <use xlink:href="#DejaVuSans-30" transform="translate(63.623047 0.765625)"/>
       <use xlink:href="#DejaVuSans-30" transform="translate(128.203125 39.046875) scale(0.7)"/>
      </g>
     </g>
    </g>
    <g id="ytick_4">
     <g id="line2d_17">
      <path d="M 53.31375 129.608099 
L 722.91375 129.608099 
" clip-path="url(#p2d1dd3d567)" style="fill: none; stroke: #b0b0b0; stroke-opacity: 0.3; stroke-width: 0.8; stroke-linecap: square"/>
     </g>
     <g id="line2d_18">
      <g>
       <use xlink:href="#m3b48e5120f" x="53.31375" y="129.608099" style="stroke: #000000; stroke-width: 0.8"/>
      </g>
     </g>
     <g id="text_10">
      <!-- $\mathdefault{10^{1}}$ -->
      <g transform="translate(28.71375 133.407318) scale(0.1 -0.1)">
       <use xlink:href="#DejaVuSans-31" transform="translate(0 0.684375)"/>
       <use xlink:href="#DejaVuSans-30" transform="translate(63.623047 0.684375)"/>
       <use xlink:href="#DejaVuSans-31" transform="translate(128.203125 38.965625) scale(0.7)"/>
      </g>
     </g>
    </g>
    <g id="ytick_5">
     <g id="line2d_19">
      <path d="M 53.31375 66.963526 
L 722.91375 66.963526 
" clip-path="url(#p2d1dd3d567)" style="fill: none; stroke: #b0b0b0; stroke-opacity: 0.3; stroke-width: 0.8; stroke-linecap: square"/>
     </g>
     <g id="line2d_20">
      <g>
       <use xlink:href="#m3b48e5120f" x="53.31375" y="66.963526" style="stroke: #000000; stroke-width: 0.8"/>
      </g>
     </g>
     <g id="text_11">
      <!-- $\mathdefault{10^{2}}$ -->
      <g transform="translate(28.71375 70.762745) scale(0.1 -0.1)">
       <use xlink:href="#DejaVuSans-31" transform="translate(0 0.765625)"/>
       <use xlink:href="#DejaVuSans-30" transform="translate(63.623047 0.765625)"/>
       <use xlink:href="#DejaVuSans-32" transform="translate(128.203125 39.046875) scale(0.7)"/>
      </g>
     </g>
    </g>
    <g id="ytick_6">
     <g id="line2d_21">
      <defs>
       <path id="m9eaf547a2b" d="M 0 0 
L -2 0 
" style="stroke: #000000; stroke-width: 0.6"/>
      </defs>
      <g>
       <use xlink:href="#m9eaf547a2b" x="53.31375" y="350.297334" style="stroke: #000000; stroke-width: 0.6"/>
      </g>
     </g>
    </g>
    <g id="ytick_7">
     <g id="line2d_22">
      <g>
       <use xlink:href="#m9eaf547a2b" x="53.31375" y="342.4706" style="stroke: #000000; stroke-width: 0.6"/>
      </g>
     </g>
    </g>
    <g id="ytick_8">
     <g id="line2d_23">
      <g>
       <use xlink:href="#m9eaf547a2b" x="53.31375" y="336.399714" style="stroke: #000000; stroke-width: 0.6"/>
      </g>
     </g>
    </g>
    <g id="ytick_9">
     <g id="line2d_24">
      <g>
       <use xlink:href="#m9eaf547a2b" x="53.31375" y="331.439438" style="stroke: #000000; stroke-width: 0.6"/>
      </g>
     </g>
    </g>
    <g id="ytick_10">
     <g id="line2d_25">
      <g>
       <use xlink:href="#m9eaf547a2b" x="53.31375" y="327.245585" style="stroke: #000000; stroke-width: 0.6"/>
      </g>
     </g>
    </g>
    <g id="ytick_11">
     <g id="line2d_26">
      <g>
       <use xlink:href="#m9eaf547a2b" x="53.31375" y="323.612705" style="stroke: #000000; stroke-width: 0.6"/>
      </g>
     </g>
    </g>
    <g id="ytick_12">
     <g id="line2d_27">
      <g>
       <use xlink:href="#m9eaf547a2b" x="53.31375" y="320.408277" style="stroke: #000000; stroke-width: 0.6"/>
      </g>
     </g>
    </g>
    <g id="ytick_13">
     <g id="line2d_28">
      <g>
       <use xlink:href="#m9eaf547a2b" x="53.31375" y="298.683923" style="stroke: #000000; stroke-width: 0.6"/>
      </g>
     </g>
    </g>
    <g id="ytick_14">
     <g id="line2d_29">
      <g>
       <use xlink:href="#m9eaf547a2b" x="53.31375" y="287.652761" style="stroke: #000000; stroke-width: 0.6"/>
      </g>
     </g>
    </g>
    <g id="ytick_15">
     <g id="line2d_30">
      <g>
       <use xlink:href="#m9eaf547a2b" x="53.31375" y="279.826027" style="stroke: #000000; stroke-width: 0.6"/>
      </g>
     </g>
    </g>
    <g id="ytick_16">
     <g id="line2d_31">
      <g>
       <use xlink:href="#m9eaf547a2b" x="53.31375" y="273.755141" style="stroke: #000000; stroke-width: 0.6"/>
      </g>
     </g>
    </g>
    <g id="ytick_17">
     <g id="line2d_32">
      <g>
       <use xlink:href="#m9eaf547a2b" x="53.31375" y="268.794865" style="stroke: #000000; stroke-width: 0.6"/>
      </g>
     </g>
    </g>
    <g id="ytick_18">
     <g id="line2d_33">
      <g>
       <use xlink:href="#m9eaf547a2b" x="53.31375" y="264.601012" style="stroke: #000000; stroke-width: 0.6"/>
      </g>
     </g>
    </g>
    <g id="ytick_19">
     <g id="line2d_34">
      <g>
       <use xlink:href="#m9eaf547a2b" x="53.31375" y="260.968132" style="stroke: #000000; stroke-width: 0.6"/>
      </g>
     </g>
    </g>
    <g id="ytick_20">
     <g id="line2d_35">
      <g>
       <use xlink:href="#m9eaf547a2b" x="53.31375" y="257.763704" style="stroke: #000000; stroke-width: 0.6"/>
      </g>
     </g>
    </g>
    <g id="ytick_21">
     <g id="line2d_36">
      <g>
       <use xlink:href="#m9eaf547a2b" x="53.31375" y="236.03935" style="stroke: #000000; stroke-width: 0.6"/>
      </g>
     </g>
    </g>
    <g id="ytick_22">
     <g id="line2d_37">
      <g>
       <use xlink:href="#m9eaf547a2b" x="53.31375" y="225.008188" style="stroke: #000000; stroke-width: 0.6"/>
      </g>
     </g>
    </g>
    <g id="ytick_23">
     <g id="line2d_38">
      <g>
       <use xlink:href="#m9eaf547a2b" x="53.31375" y="217.181454" style="stroke: #000000; stroke-width: 0.6"/>
      </g>
     </g>
    </g>
    <g id="ytick_24">
     <g id="line2d_39">
      <g>
       <use xlink:href="#m9eaf547a2b" x="53.31375" y="211.110568" style="stroke: #000000; stroke-width: 0.6"/>
      </g>
     </g>
    </g>
    <g id="ytick_25">
     <g id="line2d_40">
      <g>
       <use xlink:href="#m9eaf547a2b" x="53.31375" y="206.150292" style="stroke: #000000; stroke-width: 0.6"/>
      </g>
     </g>
    </g>
    <g id="ytick_26">
     <g id="line2d_41">
      <g>
       <use xlink:href="#m9eaf547a2b" x="53.31375" y="201.956439" style="stroke: #000000; stroke-width: 0.6"/>
      </g>
     </g>
    </g>
    <g id="ytick_27">
     <g id="line2d_42">
      <g>
       <use xlink:href="#m9eaf547a2b" x="53.31375" y="198.323559" style="stroke: #000000; stroke-width: 0.6"/>
      </g>
     </g>
    </g>
    <g id="ytick_28">
     <g id="line2d_43">
      <g>
       <use xlink:href="#m9eaf547a2b" x="53.31375" y="195.119131" style="stroke: #000000; stroke-width: 0.6"/>
      </g>
     </g>
    </g>
    <g id="ytick_29">
     <g id="line2d_44">
      <g>
       <use xlink:href="#m9eaf547a2b" x="53.31375" y="173.394777" style="stroke: #000000; stroke-width: 0.6"/>
      </g>
     </g>
    </g>
    <g id="ytick_30">
     <g id="line2d_45">
      <g>
       <use xlink:href="#m9eaf547a2b" x="53.31375" y="162.363615" style="stroke: #000000; stroke-width: 0.6"/>
      </g>
     </g>
    </g>
    <g id="ytick_31">
     <g id="line2d_46">
      <g>
       <use xlink:href="#m9eaf547a2b" x="53.31375" y="154.536881" style="stroke: #000000; stroke-width: 0.6"/>
      </g>
     </g>
    </g>
    <g id="ytick_32">
     <g id="line2d_47">
      <g>
       <use xlink:href="#m9eaf547a2b" x="53.31375" y="148.465995" style="stroke: #000000; stroke-width: 0.6"/>
      </g>
     </g>
    </g>
    <g id="ytick_33">
     <g id="line2d_48">
      <g>
       <use xlink:href="#m9eaf547a2b" x="53.31375" y="143.505719" style="stroke: #000000; stroke-width: 0.6"/>
      </g>
     </g>
    </g>
    <g id="ytick_34">
     <g id="line2d_49">
      <g>
       <use xlink:href="#m9eaf547a2b" x="53.31375" y="139.311866" style="stroke: #000000; stroke-width: 0.6"/>
      </g>
     </g>
    </g>
    <g id="ytick_35">
     <g id="line2d_50">
      <g>
       <use xlink:href="#m9eaf547a2b" x="53.31375" y="135.678986" style="stroke: #000000; stroke-width: 0.6"/>
      </g>
     </g>
    </g>
    <g id="ytick_36">
     <g id="line2d_51">
      <g>
       <use xlink:href="#m9eaf547a2b" x="53.31375" y="132.474558" style="stroke: #000000; stroke-width: 0.6"/>
      </g>
     </g>
    </g>
    <g id="ytick_37">
     <g id="line2d_52">
      <g>
       <use xlink:href="#m9eaf547a2b" x="53.31375" y="110.750204" style="stroke: #000000; stroke-width: 0.6"/>
      </g>
     </g>
    </g>
    <g id="ytick_38">
     <g id="line2d_53">
      <g>
       <use xlink:href="#m9eaf547a2b" x="53.31375" y="99.719042" style="stroke: #000000; stroke-width: 0.6"/>
      </g>
     </g>
    </g>
    <g id="ytick_39">
     <g id="line2d_54">
      <g>
       <use xlink:href="#m9eaf547a2b" x="53.31375" y="91.892308" style="stroke: #000000; stroke-width: 0.6"/>
      </g>
     </g>
    </g>
    <g id="ytick_40">
     <g id="line2d_55">
      <g>
       <use xlink:href="#m9eaf547a2b" x="53.31375" y="85.821422" style="stroke: #000000; stroke-width: 0.6"/>
      </g>
     </g>
    </g>
    <g id="ytick_41">
     <g id="line2d_56">
      <g>
       <use xlink:href="#m9eaf547a2b" x="53.31375" y="80.861146" style="stroke: #000000; stroke-width: 0.6"/>
      </g>
     </g>
    </g>
    <g id="ytick_42">
     <g id="line2d_57">
      <g>
       <use xlink:href="#m9eaf547a2b" x="53.31375" y="76.667293" style="stroke: #000000; stroke-width: 0.6"/>
      </g>
     </g>
    </g>
    <g id="ytick_43">
     <g id="line2d_58">
      <g>
       <use xlink:href="#m9eaf547a2b" x="53.31375" y="73.034413" style="stroke: #000000; stroke-width: 0.6"/>
      </g>
     </g>
    </g>
    <g id="ytick_44">
     <g id="line2d_59">
      <g>
       <use xlink:href="#m9eaf547a2b" x="53.31375" y="69.829985" style="stroke: #000000; stroke-width: 0.6"/>
      </g>
     </g>
    </g>
    <g id="ytick_45">
     <g id="line2d_60">
      <g>
       <use xlink:href="#m9eaf547a2b" x="53.31375" y="48.105631" style="stroke: #000000; stroke-width: 0.6"/>
      </g>
     </g>
    </g>
    <g id="ytick_46">
     <g id="line2d_61">
      <g>
       <use xlink:href="#m9eaf547a2b" x="53.31375" y="37.074469" style="stroke: #000000; stroke-width: 0.6"/>
      </g>
     </g>
    </g>
    <g id="ytick_47">
     <g id="line2d_62">
      <g>
       <use xlink:href="#m9eaf547a2b" x="53.31375" y="29.247735" style="stroke: #000000; stroke-width: 0.6"/>
      </g>
     </g>
    </g>
    <g id="text_12">
     <!-- Laufzeit (ms) -->
     <g transform="translate(16.318125 229.51125) rotate(-90) scale(0.12 -0.12)">
      <defs>
       <path id="DejaVuSans-4c" d="M 628 4666 
L 1259 4666 
L 1259 531 
L 3531 531 
L 3531 0 
L 628 0 
L 628 4666 
z
" transform="scale(0.015625)"/>
       <path id="DejaVuSans-75" d="M 544 1381 
L 544 3500 
L 1119 3500 
L 1119 1403 
Q 1119 906 1312 657 
Q 1506 409 1894 409 
Q 2359 409 2629 706 
Q 2900 1003 2900 1516 
L 2900 3500 
L 3475 3500 
L 3475 0 
L 2900 0 
L 2900 538 
Q 2691 219 2414 64 
Q 2138 -91 1772 -91 
Q 1169 -91 856 284 
Q 544 659 544 1381 
z
M 1991 3584 
L 1991 3584 
z
" transform="scale(0.015625)"/>
       <path id="DejaVuSans-66" d="M 2375 4863 
L 2375 4384 
L 1825 4384 
Q 1516 4384 1395 4259 
Q 1275 4134 1275 3809 
L 1275 3500 
L 2222 3500 
L 2222 3053 
L 1275 3053 
L 1275 0 
L 697 0 
L 697 3053 
L 147 3053 
L 147 3500 
L 697 3500 
L 697 3744 
Q 697 4328 969 4595 
Q 1241 4863 1831 4863 
L 2375 4863 
z
" transform="scale(0.015625)"/>
       <path id="DejaVuSans-7a" d="M 353 3500 
L 3084 3500 
L 3084 2975 
L 922 459 
L 3084 459 
L 3084 0 
L 275 0 
L 275 525 
L 2438 3041 
L 353 3041 
L 353 3500 
z
" transform="scale(0.015625)"/>
       <path id="DejaVuSans-28" d="M 1984 4856 
Q 1566 4138 1362 3434 
Q 1159 2731 1159 2009 
Q 1159 1288 1364 580 
Q 1569 -128 1984 -844 
L 1484 -844 
Q 1016 -109 783 600 
Q 550 1309 550 2009 
Q 550 2706 781 3412 
Q 1013 4119 1484 4856 
L 1984 4856 
z
" transform="scale(0.015625)"/>
       <path id="DejaVuSans-6d" d="M 3328 2828 
Q 3544 3216 3844 3400 
Q 4144 3584 4550 3584 
Q 5097 3584 5394 3201 
Q 5691 2819 5691 2113 
L 5691 0 
L 5113 0 
L 5113 2094 
Q 5113 2597 4934 2840 
Q 4756 3084 4391 3084 
Q 3944 3084 3684 2787 
Q 3425 2491 3425 1978 
L 3425 0 
L 2847 0 
L 2847 2094 
Q 2847 2600 2669 2842 
Q 2491 3084 2119 3084 
Q 1678 3084 1418 2786 
Q 1159 2488 1159 1978 
L 1159 0 
L 581 0 
L 581 3500 
L 1159 3500 
L 1159 2956 
Q 1356 3278 1631 3431 
Q 1906 3584 2284 3584 
Q 2666 3584 2933 3390 
Q 3200 3197 3328 2828 
z
" transform="scale(0.015625)"/>
       <path id="DejaVuSans-73" d="M 2834 3397 
L 2834 2853 
Q 2591 2978 2328 3040 
Q 2066 3103 1784 3103 
Q 1356 3103 1142 2972 
Q 928 2841 928 2578 
Q 928 2378 1081 2264 
Q 1234 2150 1697 2047 
L 1894 2003 
Q 2506 1872 2764 1633 
Q 3022 1394 3022 966 
Q 3022 478 2636 193 
Q 2250 -91 1575 -91 
Q 1294 -91 989 -36 
Q 684 19 347 128 
L 347 722 
Q 666 556 975 473 
Q 1284 391 1588 391 
Q 1994 391 2212 530 
Q 2431 669 2431 922 
Q 2431 1156 2273 1281 
Q 2116 1406 1581 1522 
L 1381 1569 
Q 847 1681 609 1914 
Q 372 2147 372 2553 
Q 372 3047 722 3315 
Q 1072 3584 1716 3584 
Q 2034 3584 2315 3537 
Q 2597 3491 2834 3397 
z
" transform="scale(0.015625)"/>
       <path id="DejaVuSans-29" d="M 513 4856 
L 1013 4856 
Q 1481 4119 1714 3412 
Q 1947 2706 1947 2009 
Q 1947 1309 1714 600 
Q 1481 -109 1013 -844 
L 513 -844 
Q 928 -128 1133 580 
Q 1338 1288 1338 2009 
Q 1338 2731 1133 3434 
Q 928 4138 513 4856 
z
" transform="scale(0.015625)"/>
      </defs>
      <use xlink:href="#DejaVuSans-4c"/>
      <use xlink:href="#DejaVuSans-61" transform="translate(55.712891 0)"/>
      <use xlink:href="#DejaVuSans-75" transform="translate(116.992188 0)"/>
      <use xlink:href="#DejaVuSans-66" transform="translate(180.371094 0)"/>
      <use xlink:href="#DejaVuSans-7a" transform="translate(215.576172 0)"/>
      <use xlink:href="#DejaVuSans-65" transform="translate(268.066406 0)"/>
      <use xlink:href="#DejaVuSans-69" transform="translate(329.589844 0)"/>
      <use xlink:href="#DejaVuSans-74" transform="translate(357.373047 0)"/>
      <use xlink:href="#DejaVuSans-20" transform="translate(396.582031 0)"/>
      <use xlink:href="#DejaVuSans-28" transform="translate(428.369141 0)"/>
      <use xlink:href="#DejaVuSans-6d" transform="translate(467.382812 0)"/>
      <use xlink:href="#DejaVuSans-73" transform="translate(564.794922 0)"/>
      <use xlink:href="#DejaVuSans-29" transform="translate(616.894531 0)"/>
     </g>
    </g>
   </g>
   <g id="line2d_63">
    <path d="M 83.750114 241.560148 
L 235.931932 206.804887 
L 388.11375 166.969438 
L 540.295568 124.638956 
L 692.477386 80.386645 
" clip-path="url(#p2d1dd3d567)" style="fill: none; stroke: #1f77b4; stroke-width: 2; stroke-linecap: square"/>
    <defs>
     <path id="m5d2484b7db" d="M 0 4 
C 1.060812 4 2.078319 3.578535 2.828427 2.828427 
C 3.578535 2.078319 4 1.060812 4 0 
C 4 -1.060812 3.578535 -2.078319 2.828427 -2.828427 
C 2.078319 -3.578535 1.060812 -4 0 -4 
C -1.060812 -4 -2.078319 -3.578535 -2.828427 -2.828427 
C -3.578535 -2.078319 -4 -1.060812 -4 0 
C -4 1.060812 -3.578535 2.078319 -2.828427 2.828427 
C -2.078319 3.578535 -1.060812 4 0 4 
z
" style="stroke: #1f77b4"/>
    </defs>
    <g clip-path="url(#p2d1dd3d567)">
     <use xlink:href="#m5d2484b7db" x="83.750114" y="241.560148" style="fill: #1f77b4; stroke: #1f77b4"/>
     <use xlink:href="#m5d2484b7db" x="235.931932" y="206.804887" style="fill: #1f77b4; stroke: #1f77b4"/>
     <use xlink:href="#m5d2484b7db" x="388.11375" y="166.969438" style="fill: #1f77b4; stroke: #1f77b4"/>
     <use xlink:href="#m5d2484b7db" x="540.295568" y="124.638956" style="fill: #1f77b4; stroke: #1f77b4"/>
     <use xlink:href="#m5d2484b7db" x="692.477386" y="80.386645" style="fill: #1f77b4; stroke: #1f77b4"/>
    </g>
   </g>
   <g id="line2d_64">
    <path d="M 83.750114 311.551581 
L 235.931932 322.395655 
L 388.11375 295.247122 
L 540.295568 236.879811 
L 692.477386 183.477235 
" clip-path="url(#p2d1dd3d567)" style="fill: none; stroke-dasharray: 7.4,3.2; stroke-dashoffset: 0; stroke: #1f77b4; stroke-opacity: 0.7; stroke-width: 2"/>
    <defs>
     <path id="m76214b56d8" d="M 0 4 
C 1.060812 4 2.078319 3.578535 2.828427 2.828427 
C 3.578535 2.078319 4 1.060812 4 0 
C 4 -1.060812 3.578535 -2.078319 2.828427 -2.828427 
C 2.078319 -3.578535 1.060812 -4 0 -4 
C -1.060812 -4 -2.078319 -3.578535 -2.828427 -2.828427 
C -3.578535 -2.078319 -4 -1.060812 -4 0 
C -4 1.060812 -3.578535 2.078319 -2.828427 2.828427 
C -2.078319 3.578535 -1.060812 4 0 4 
z
" style="stroke: #1f77b4; stroke-opacity: 0.7"/>
    </defs>
    <g clip-path="url(#p2d1dd3d567)">
     <use xlink:href="#m76214b56d8" x="83.750114" y="311.551581" style="fill: #1f77b4; fill-opacity: 0.7; stroke: #1f77b4; stroke-opacity: 0.7"/>
     <use xlink:href="#m76214b56d8" x="235.931932" y="322.395655" style="fill: #1f77b4; fill-opacity: 0.7; stroke: #1f77b4; stroke-opacity: 0.7"/>
     <use xlink:href="#m76214b56d8" x="388.11375" y="295.247122" style="fill: #1f77b4; fill-opacity: 0.7; stroke: #1f77b4; stroke-opacity: 0.7"/>
     <use xlink:href="#m76214b56d8" x="540.295568" y="236.879811" style="fill: #1f77b4; fill-opacity: 0.7; stroke: #1f77b4; stroke-opacity: 0.7"/>
     <use xlink:href="#m76214b56d8" x="692.477386" y="183.477235" style="fill: #1f77b4; fill-opacity: 0.7; stroke: #1f77b4; stroke-opacity: 0.7"/>
    </g>
   </g>
   <g id="line2d_65">
    <path d="M 83.750114 229.652752 
L 235.931932 191.878318 
L 388.11375 150.74434 
L 540.295568 107.952328 
L 692.477386 62.724976 
" clip-path="url(#p2d1dd3d567)" style="fill: none; stroke: #ff7f0e; stroke-width: 2; stroke-linecap: square"/>
    <defs>
     <path id="mf7cbe53c79" d="M -4 4 
L 4 4 
L 4 -4 
L -4 -4 
z
" style="stroke: #ff7f0e; stroke-linejoin: miter"/>
    </defs>
    <g clip-path="url(#p2d1dd3d567)">
     <use xlink:href="#mf7cbe53c79" x="83.750114" y="229.652752" style="fill: #ff7f0e; stroke: #ff7f0e; stroke-linejoin: miter"/>
     <use xlink:href="#mf7cbe53c79" x="235.931932" y="191.878318" style="fill: #ff7f0e; stroke: #ff7f0e; stroke-linejoin: miter"/>
     <use xlink:href="#mf7cbe53c79" x="388.11375" y="150.74434" style="fill: #ff7f0e; stroke: #ff7f0e; stroke-linejoin: miter"/>
     <use xlink:href="#mf7cbe53c79" x="540.295568" y="107.952328" style="fill: #ff7f0e; stroke: #ff7f0e; stroke-linejoin: miter"/>
     <use xlink:href="#mf7cbe53c79" x="692.477386" y="62.724976" style="fill: #ff7f0e; stroke: #ff7f0e; stroke-linejoin: miter"/>
    </g>
   </g>
   <g id="line2d_66">
    <path d="M 83.750114 338.321478 
L 235.931932 330.670496 
L 388.11375 296.363078 
L 540.295568 237.480991 
L 692.477386 184.390709 
" clip-path="url(#p2d1dd3d567)" style="fill: none; stroke-dasharray: 7.4,3.2; stroke-dashoffset: 0; stroke: #ff7f0e; stroke-opacity: 0.7; stroke-width: 2"/>
    <defs>
     <path id="mc61061f42b" d="M -4 4 
L 4 4 
L 4 -4 
L -4 -4 
z
" style="stroke: #ff7f0e; stroke-opacity: 0.7; stroke-linejoin: miter"/>
    </defs>
    <g clip-path="url(#p2d1dd3d567)">
     <use xlink:href="#mc61061f42b" x="83.750114" y="338.321478" style="fill: #ff7f0e; fill-opacity: 0.7; stroke: #ff7f0e; stroke-opacity: 0.7; stroke-linejoin: miter"/>
     <use xlink:href="#mc61061f42b" x="235.931932" y="330.670496" style="fill: #ff7f0e; fill-opacity: 0.7; stroke: #ff7f0e; stroke-opacity: 0.7; stroke-linejoin: miter"/>
     <use xlink:href="#mc61061f42b" x="388.11375" y="296.363078" style="fill: #ff7f0e; fill-opacity: 0.7; stroke: #ff7f0e; stroke-opacity: 0.7; stroke-linejoin: miter"/>
     <use xlink:href="#mc61061f42b" x="540.295568" y="237.480991" style="fill: #ff7f0e; fill-opacity: 0.7; stroke: #ff7f0e; stroke-opacity: 0.7; stroke-linejoin: miter"/>
     <use xlink:href="#mc61061f42b" x="692.477386" y="184.390709" style="fill: #ff7f0e; fill-opacity: 0.7; stroke: #ff7f0e; stroke-opacity: 0.7; stroke-linejoin: miter"/>
    </g>
   </g>
   <g id="line2d_67">
    <path d="M 83.750114 210.065452 
L 235.931932 171.149581 
L 388.11375 129.067089 
L 540.295568 84.711593 
L 692.477386 38.957812 
" clip-path="url(#p2d1dd3d567)" style="fill: none; stroke: #2ca02c; stroke-width: 2; stroke-linecap: square"/>
    <defs>
     <path id="m81e3bc231f" d="M 0 -4 
L -4 4 
L 4 4 
z
" style="stroke: #2ca02c; stroke-linejoin: miter"/>
    </defs>
    <g clip-path="url(#p2d1dd3d567)">
     <use xlink:href="#m81e3bc231f" x="83.750114" y="210.065452" style="fill: #2ca02c; stroke: #2ca02c; stroke-linejoin: miter"/>
     <use xlink:href="#m81e3bc231f" x="235.931932" y="171.149581" style="fill: #2ca02c; stroke: #2ca02c; stroke-linejoin: miter"/>
     <use xlink:href="#m81e3bc231f" x="388.11375" y="129.067089" style="fill: #2ca02c; stroke: #2ca02c; stroke-linejoin: miter"/>
     <use xlink:href="#m81e3bc231f" x="540.295568" y="84.711593" style="fill: #2ca02c; stroke: #2ca02c; stroke-linejoin: miter"/>
     <use xlink:href="#m81e3bc231f" x="692.477386" y="38.957812" style="fill: #2ca02c; stroke: #2ca02c; stroke-linejoin: miter"/>
    </g>
   </g>
   <g id="line2d_68">
    <path d="M 83.750114 341.357812 
L 235.931932 329.675088 
L 388.11375 295.428756 
L 540.295568 237.263414 
L 692.477386 184.069213 
" clip-path="url(#p2d1dd3d567)" style="fill: none; stroke-dasharray: 7.4,3.2; stroke-dashoffset: 0; stroke: #2ca02c; stroke-opacity: 0.7; stroke-width: 2"/>
    <defs>
     <path id="maf021dc335" d="M 0 -4 
L -4 4 
L 4 4 
z
" style="stroke: #2ca02c; stroke-opacity: 0.7; stroke-linejoin: miter"/>
    </defs>
    <g clip-path="url(#p2d1dd3d567)">
     <use xlink:href="#maf021dc335" x="83.750114" y="341.357812" style="fill: #2ca02c; fill-opacity: 0.7; stroke: #2ca02c; stroke-opacity: 0.7; stroke-linejoin: miter"/>
     <use xlink:href="#maf021dc335" x="235.931932" y="329.675088" style="fill: #2ca02c; fill-opacity: 0.7; stroke: #2ca02c; stroke-opacity: 0.7; stroke-linejoin: miter"/>
     <use xlink:href="#maf021dc335" x="388.11375" y="295.428756" style="fill: #2ca02c; fill-opacity: 0.7; stroke: #2ca02c; stroke-opacity: 0.7; stroke-linejoin: miter"/>
     <use xlink:href="#maf021dc335" x="540.295568" y="237.263414" style="fill: #2ca02c; fill-opacity: 0.7; stroke: #2ca02c; stroke-opacity: 0.7; stroke-linejoin: miter"/>
     <use xlink:href="#maf021dc335" x="692.477386" y="184.069213" style="fill: #2ca02c; fill-opacity: 0.7; stroke: #2ca02c; stroke-opacity: 0.7; stroke-linejoin: miter"/>
    </g>
   </g>
   <g id="patch_3">
    <path d="M 53.31375 356.477812 
L 53.31375 23.837812 
" style="fill: none; stroke: #000000; stroke-width: 0.8; stroke-linejoin: miter; stroke-linecap: square"/>
   </g>
   <g id="patch_4">
    <path d="M 722.91375 356.477812 
L 722.91375 23.837812 
" style="fill: none; stroke: #000000; stroke-width: 0.8; stroke-linejoin: miter; stroke-linecap: square"/>
   </g>
   <g id="patch_5">
    <path d="M 53.31375 356.477812 
L 722.91375 356.477812 
" style="fill: none; stroke: #000000; stroke-width: 0.8; stroke-linejoin: miter; stroke-linecap: square"/>
   </g>
   <g id="patch_6">
    <path d="M 53.31375 23.837812 
L 722.91375 23.837812 
" style="fill: none; stroke: #000000; stroke-width: 0.8; stroke-linejoin: miter; stroke-linecap: square"/>
   </g>
   <g id="text_13">
    <!-- k-beschränkte Matrixmultiplikation: Schichten-Signaturen vs. Strassen -->
    <g transform="translate(141.41625 17.837812) scale(0.14 -0.14)">
     <defs>
      <path id="DejaVuSans-6b" d="M 581 4863 
L 1159 4863 
L 1159 1991 
L 2875 3500 
L 3609 3500 
L 1753 1863 
L 3688 0 
L 2938 0 
L 1159 1709 
L 1159 0 
L 581 0 
L 581 4863 
z
" transform="scale(0.015625)"/>
      <path id="DejaVuSans-2d" d="M 313 2009 
L 1997 2009 
L 1997 1497 
L 313 1497 
L 313 2009 
z
" transform="scale(0.015625)"/>
      <path id="DejaVuSans-62" d="M 3116 1747 
Q 3116 2381 2855 2742 
Q 2594 3103 2138 3103 
Q 1681 3103 1420 2742 
Q 1159 2381 1159 1747 
Q 1159 1113 1420 752 
Q 1681 391 2138 391 
Q 2594 391 2855 752 
Q 3116 1113 3116 1747 
z
M 1159 2969 
Q 1341 3281 1617 3432 
Q 1894 3584 2278 3584 
Q 2916 3584 3314 3078 
Q 3713 2572 3713 1747 
Q 3713 922 3314 415 
Q 2916 -91 2278 -91 
Q 1894 -91 1617 61 
Q 1341 213 1159 525 
L 1159 0 
L 581 0 
L 581 4863 
L 1159 4863 
L 1159 2969 
z
" transform="scale(0.015625)"/>
      <path id="DejaVuSans-63" d="M 3122 3366 
L 3122 2828 
Q 2878 2963 2633 3030 
Q 2388 3097 2138 3097 
Q 1578 3097 1268 2742 
Q 959 2388 959 1747 
Q 959 1106 1268 751 
Q 1578 397 2138 397 
Q 2388 397 2633 464 
Q 2878 531 3122 666 
L 3122 134 
Q 2881 22 2623 -34 
Q 2366 -91 2075 -91 
Q 1284 -91 818 406 
Q 353 903 353 1747 
Q 353 2603 823 3093 
Q 1294 3584 2113 3584 
Q 2378 3584 2631 3529 
Q 2884 3475 3122 3366 
z
" transform="scale(0.015625)"/>
      <path id="DejaVuSans-68" d="M 3513 2113 
L 3513 0 
L 2938 0 
L 2938 2094 
Q 2938 2591 2744 2837 
Q 2550 3084 2163 3084 
Q 1697 3084 1428 2787 
Q 1159 2491 1159 1978 
L 1159 0 
L 581 0 
L 581 4863 
L 1159 4863 
L 1159 2956 
Q 1366 3272 1645 3428 
Q 1925 3584 2291 3584 
Q 2894 3584 3203 3211 
Q 3513 2838 3513 2113 
z
" transform="scale(0.015625)"/>
      <path id="DejaVuSans-e4" d="M 2194 1759 
Q 1497 1759 1228 1600 
Q 959 1441 959 1056 
Q 959 750 1161 570 
Q 1363 391 1709 391 
Q 2188 391 2477 730 
Q 2766 1069 2766 1631 
L 2766 1759 
L 2194 1759 
z
M 3341 1997 
L 3341 0 
L 2766 0 
L 2766 531 
Q 2569 213 2275 61 
Q 1981 -91 1556 -91 
Q 1019 -91 701 211 
Q 384 513 384 1019 
Q 384 1609 779 1909 
Q 1175 2209 1959 2209 
L 2766 2209 
L 2766 2266 
Q 2766 2663 2505 2880 
Q 2244 3097 1772 3097 
Q 1472 3097 1187 3025 
Q 903 2953 641 2809 
L 641 3341 
Q 956 3463 1253 3523 
Q 1550 3584 1831 3584 
Q 2591 3584 2966 3190 
Q 3341 2797 3341 1997 
z
M 2150 4850 
L 2784 4850 
L 2784 4219 
L 2150 4219 
L 2150 4850 
z
M 928 4850 
L 1562 4850 
L 1562 4219 
L 928 4219 
L 928 4850 
z
" transform="scale(0.015625)"/>
      <path id="DejaVuSans-6c" d="M 603 4863 
L 1178 4863 
L 1178 0 
L 603 0 
L 603 4863 
z
" transform="scale(0.015625)"/>
      <path id="DejaVuSans-70" d="M 1159 525 
L 1159 -1331 
L 581 -1331 
L 581 3500 
L 1159 3500 
L 1159 2969 
Q 1341 3281 1617 3432 
Q 1894 3584 2278 3584 
Q 2916 3584 3314 3078 
Q 3713 2572 3713 1747 
Q 3713 922 3314 415 
Q 2916 -91 2278 -91 
Q 1894 -91 1617 61 
Q 1341 213 1159 525 
z
M 3116 1747 
Q 3116 2381 2855 2742 
Q 2594 3103 2138 3103 
Q 1681 3103 1420 2742 
Q 1159 2381 1159 1747 
Q 1159 1113 1420 752 
Q 1681 391 2138 391 
Q 2594 391 2855 752 
Q 3116 1113 3116 1747 
z
" transform="scale(0.015625)"/>
      <path id="DejaVuSans-6f" d="M 1959 3097 
Q 1497 3097 1228 2736 
Q 959 2375 959 1747 
Q 959 1119 1226 758 
Q 1494 397 1959 397 
Q 2419 397 2687 759 
Q 2956 1122 2956 1747 
Q 2956 2369 2687 2733 
Q 2419 3097 1959 3097 
z
M 1959 3584 
Q 2709 3584 3137 3096 
Q 3566 2609 3566 1747 
Q 3566 888 3137 398 
Q 2709 -91 1959 -91 
Q 1206 -91 779 398 
Q 353 888 353 1747 
Q 353 2609 779 3096 
Q 1206 3584 1959 3584 
z
" transform="scale(0.015625)"/>
      <path id="DejaVuSans-3a" d="M 750 794 
L 1409 794 
L 1409 0 
L 750 0 
L 750 794 
z
M 750 3309 
L 1409 3309 
L 1409 2516 
L 750 2516 
L 750 3309 
z
" transform="scale(0.015625)"/>
      <path id="DejaVuSans-53" d="M 3425 4513 
L 3425 3897 
Q 3066 4069 2747 4153 
Q 2428 4238 2131 4238 
Q 1616 4238 1336 4038 
Q 1056 3838 1056 3469 
Q 1056 3159 1242 3001 
Q 1428 2844 1947 2747 
L 2328 2669 
Q 3034 2534 3370 2195 
Q 3706 1856 3706 1288 
Q 3706 609 3251 259 
Q 2797 -91 1919 -91 
Q 1588 -91 1214 -16 
Q 841 59 441 206 
L 441 856 
Q 825 641 1194 531 
Q 1563 422 1919 422 
Q 2459 422 2753 634 
Q 3047 847 3047 1241 
Q 3047 1584 2836 1778 
Q 2625 1972 2144 2069 
L 1759 2144 
Q 1053 2284 737 2584 
Q 422 2884 422 3419 
Q 422 4038 858 4394 
Q 1294 4750 2059 4750 
Q 2388 4750 2728 4690 
Q 3069 4631 3425 4513 
z
" transform="scale(0.015625)"/>
      <path id="DejaVuSans-76" d="M 191 3500 
L 800 3500 
L 1894 563 
L 2988 3500 
L 3597 3500 
L 2284 0 
L 1503 0 
L 191 3500 
z
" transform="scale(0.015625)"/>
      <path id="DejaVuSans-2e" d="M 684 794 
L 1344 794 
L 1344 0 
L 684 0 
L 684 794 
z
" transform="scale(0.015625)"/>
     </defs>
     <use xlink:href="#DejaVuSans-6b"/>
     <use xlink:href="#DejaVuSans-2d" transform="translate(57.910156 0)"/>
     <use xlink:href="#DejaVuSans-62" transform="translate(93.994141 0)"/>
     <use xlink:href="#DejaVuSans-65" transform="translate(157.470703 0)"/>
     <use xlink:href="#DejaVuSans-73" transform="translate(218.994141 0)"/>
     <use xlink:href="#DejaVuSans-63" transform="translate(271.09375 0)"/>
     <use xlink:href="#DejaVuSans-68" transform="translate(326.074219 0)"/>
     <use xlink:href="#DejaVuSans-72" transform="translate(389.453125 0)"/>
     <use xlink:href="#DejaVuSans-e4" transform="translate(430.566406 0)"/>
     <use xlink:href="#DejaVuSans-6e" transform="translate(491.845703 0)"/>
     <use xlink:href="#DejaVuSans-6b" transform="translate(555.224609 0)"/>
     <use xlink:href="#DejaVuSans-74" transform="translate(613.134766 0)"/>
     <use xlink:href="#DejaVuSans-65" transform="translate(652.34375 0)"/>
     <use xlink:href="#DejaVuSans-20" transform="translate(713.867188 0)"/>
     <use xlink:href="#DejaVuSans-4d" transform="translate(745.654297 0)"/>
     <use xlink:href="#DejaVuSans-61" transform="translate(831.933594 0)"/>
     <use xlink:href="#DejaVuSans-74" transform="translate(893.212891 0)"/>
     <use xlink:href="#DejaVuSans-72" transform="translate(932.421875 0)"/>
     <use xlink:href="#DejaVuSans-69" transform="translate(973.535156 0)"/>
     <use xlink:href="#DejaVuSans-78" transform="translate(1001.318359 0)"/>
     <use xlink:href="#DejaVuSans-6d" transform="translate(1060.498047 0)"/>
     <use xlink:href="#DejaVuSans-75" transform="translate(1157.910156 0)"/>
     <use xlink:href="#DejaVuSans-6c" transform="translate(1221.289062 0)"/>
     <use xlink:href="#DejaVuSans-74" transform="translate(1249.072266 0)"/>
     <use xlink:href="#DejaVuSans-69" transform="translate(1288.28125 0)"/>
     <use xlink:href="#DejaVuSans-70" transform="translate(1316.064453 0)"/>
     <use xlink:href="#DejaVuSans-6c" transform="translate(1379.541016 0)"/>
     <use xlink:href="#DejaVuSans-69" transform="translate(1407.324219 0)"/>
     <use xlink:href="#DejaVuSans-6b" transform="translate(1435.107422 0)"/>
     <use xlink:href="#DejaVuSans-61" transform="translate(1491.267578 0)"/>
     <use xlink:href="#DejaVuSans-74" transform="translate(1552.546875 0)"/>
     <use xlink:href="#DejaVuSans-69" transform="translate(1591.755859 0)"/>
     <use xlink:href="#DejaVuSans-6f" transform="translate(1619.539062 0)"/>
     <use xlink:href="#DejaVuSans-6e" transform="translate(1680.720703 0)"/>
     <use xlink:href="#DejaVuSans-3a" transform="translate(1744.099609 0)"/>
     <use xlink:href="#DejaVuSans-20" transform="translate(1777.791016 0)"/>
     <use xlink:href="#DejaVuSans-53" transform="translate(1809.578125 0)"/>
     <use xlink:href="#DejaVuSans-63" transform="translate(1873.054688 0)"/>
     <use xlink:href="#DejaVuSans-68" transform="translate(1928.035156 0)"/>
     <use xlink:href="#DejaVuSans-69" transform="translate(1991.414062 0)"/>
     <use xlink:href="#DejaVuSans-63" transform="translate(2019.197266 0)"/>
     <use xlink:href="#DejaVuSans-68" transform="translate(2074.177734 0)"/>
     <use xlink:href="#DejaVuSans-74" transform="translate(2137.556641 0)"/>
     <use xlink:href="#DejaVuSans-65" transform="translate(2176.765625 0)"/>
     <use xlink:href="#DejaVuSans-6e" transform="translate(2238.289062 0)"/>
     <use xlink:href="#DejaVuSans-2d" transform="translate(2301.667969 0)"/>
     <use xlink:href="#DejaVuSans-53" transform="translate(2337.751953 0)"/>
     <use xlink:href="#DejaVuSans-69" transform="translate(2401.228516 0)"/>
     <use xlink:href="#DejaVuSans-67" transform="translate(2429.011719 0)"/>
     <use xlink:href="#DejaVuSans-6e" transform="translate(2492.488281 0)"/>
     <use xlink:href="#DejaVuSans-61" transform="translate(2555.867188 0)"/>
     <use xlink:href="#DejaVuSans-74" transform="translate(2617.146484 0)"/>
     <use xlink:href="#DejaVuSans-75" transform="translate(2656.355469 0)"/>
     <use xlink:href="#DejaVuSans-72" transform="translate(2719.734375 0)"/>
     <use xlink:href="#DejaVuSans-65" transform="translate(2758.597656 0)"/>
     <use xlink:href="#DejaVuSans-6e" transform="translate(2820.121094 0)"/>
     <use xlink:href="#DejaVuSans-20" transform="translate(2883.5 0)"/>
     <use xlink:href="#DejaVuSans-76" transform="translate(2915.287109 0)"/>
     <use xlink:href="#DejaVuSans-73" transform="translate(2974.466797 0)"/>
     <use xlink:href="#DejaVuSans-2e" transform="translate(3026.566406 0)"/>
     <use xlink:href="#DejaVuSans-20" transform="translate(3058.353516 0)"/>
     <use xlink:href="#DejaVuSans-53" transform="translate(3090.140625 0)"/>
     <use xlink:href="#DejaVuSans-74" transform="translate(3153.617188 0)"/>
     <use xlink:href="#DejaVuSans-72" transform="translate(3192.826172 0)"/>
     <use xlink:href="#DejaVuSans-61" transform="translate(3233.939453 0)"/>
     <use xlink:href="#DejaVuSans-73" transform="translate(3295.21875 0)"/>
     <use xlink:href="#DejaVuSans-73" transform="translate(3347.318359 0)"/>
     <use xlink:href="#DejaVuSans-65" transform="translate(3399.417969 0)"/>
     <use xlink:href="#DejaVuSans-6e" transform="translate(3460.941406 0)"/>
    </g>
   </g>
   <g id="legend_1">
    <g id="patch_7">
     <path d="M 59.61375 70.66875 
L 381.645 70.66875 
Q 383.445 70.66875 383.445 68.86875 
L 383.445 30.137812 
Q 383.445 28.337812 381.645 28.337812 
L 59.61375 28.337812 
Q 57.81375 28.337812 57.81375 30.137812 
L 57.81375 68.86875 
Q 57.81375 70.66875 59.61375 70.66875 
z
" style="fill: #ffffff; opacity: 0.8; stroke: #cccccc; stroke-linejoin: miter"/>
    </g>
    <g id="line2d_69">
     <path d="M 61.41375 35.626406 
L 70.41375 35.626406 
L 79.41375 35.626406 
" style="fill: none; stroke: #1f77b4; stroke-width: 2; stroke-linecap: square"/>
     <g>
      <use xlink:href="#m5d2484b7db" x="70.41375" y="35.626406" style="fill: #1f77b4; stroke: #1f77b4"/>
     </g>
    </g>
    <g id="text_14">
     <!-- Schichten-Signaturen (k=2) -->
     <g transform="translate(86.61375 38.776406) scale(0.09 -0.09)">
      <defs>
       <path id="DejaVuSans-3d" d="M 678 2906 
L 4684 2906 
L 4684 2381 
L 678 2381 
L 678 2906 
z
M 678 1631 
L 4684 1631 
L 4684 1100 
L 678 1100 
L 678 1631 
z
" transform="scale(0.015625)"/>
      </defs>
      <use xlink:href="#DejaVuSans-53"/>
      <use xlink:href="#DejaVuSans-63" transform="translate(63.476562 0)"/>
      <use xlink:href="#DejaVuSans-68" transform="translate(118.457031 0)"/>
      <use xlink:href="#DejaVuSans-69" transform="translate(181.835938 0)"/>
      <use xlink:href="#DejaVuSans-63" transform="translate(209.619141 0)"/>
      <use xlink:href="#DejaVuSans-68" transform="translate(264.599609 0)"/>
      <use xlink:href="#DejaVuSans-74" transform="translate(327.978516 0)"/>
      <use xlink:href="#DejaVuSans-65" transform="translate(367.1875 0)"/>
      <use xlink:href="#DejaVuSans-6e" transform="translate(428.710938 0)"/>
      <use xlink:href="#DejaVuSans-2d" transform="translate(492.089844 0)"/>
      <use xlink:href="#DejaVuSans-53" transform="translate(528.173828 0)"/>
      <use xlink:href="#DejaVuSans-69" transform="translate(591.650391 0)"/>
      <use xlink:href="#DejaVuSans-67" transform="translate(619.433594 0)"/>
      <use xlink:href="#DejaVuSans-6e" transform="translate(682.910156 0)"/>
      <use xlink:href="#DejaVuSans-61" transform="translate(746.289062 0)"/>
      <use xlink:href="#DejaVuSans-74" transform="translate(807.568359 0)"/>
      <use xlink:href="#DejaVuSans-75" transform="translate(846.777344 0)"/>
      <use xlink:href="#DejaVuSans-72" transform="translate(910.15625 0)"/>
      <use xlink:href="#DejaVuSans-65" transform="translate(949.019531 0)"/>
      <use xlink:href="#DejaVuSans-6e" transform="translate(1010.542969 0)"/>
      <use xlink:href="#DejaVuSans-20" transform="translate(1073.921875 0)"/>
      <use xlink:href="#DejaVuSans-28" transform="translate(1105.708984 0)"/>
      <use xlink:href="#DejaVuSans-6b" transform="translate(1144.722656 0)"/>
      <use xlink:href="#DejaVuSans-3d" transform="translate(1202.632812 0)"/>
      <use xlink:href="#DejaVuSans-32" transform="translate(1286.421875 0)"/>
      <use xlink:href="#DejaVuSans-29" transform="translate(1350.044922 0)"/>
     </g>
    </g>
    <g id="line2d_70">
     <path d="M 61.41375 48.836719 
L 70.41375 48.836719 
L 79.41375 48.836719 
" style="fill: none; stroke-dasharray: 7.4,3.2; stroke-dashoffset: 0; stroke: #1f77b4; stroke-opacity: 0.7; stroke-width: 2"/>
     <g>
      <use xlink:href="#m76214b56d8" x="70.41375" y="48.836719" style="fill: #1f77b4; fill-opacity: 0.7; stroke: #1f77b4; stroke-opacity: 0.7"/>
     </g>
    </g>
    <g id="text_15">
     <!-- Strassen (k=2) -->
     <g transform="translate(86.61375 51.986719) scale(0.09 -0.09)">
      <use xlink:href="#DejaVuSans-53"/>
      <use xlink:href="#DejaVuSans-74" transform="translate(63.476562 0)"/>
      <use xlink:href="#DejaVuSans-72" transform="translate(102.685547 0)"/>
      <use xlink:href="#DejaVuSans-61" transform="translate(143.798828 0)"/>
      <use xlink:href="#DejaVuSans-73" transform="translate(205.078125 0)"/>
      <use xlink:href="#DejaVuSans-73" transform="translate(257.177734 0)"/>
      <use xlink:href="#DejaVuSans-65" transform="translate(309.277344 0)"/>
      <use xlink:href="#DejaVuSans-6e" transform="translate(370.800781 0)"/>
      <use xlink:href="#DejaVuSans-20" transform="translate(434.179688 0)"/>
      <use xlink:href="#DejaVuSans-28" transform="translate(465.966797 0)"/>
      <use xlink:href="#DejaVuSans-6b" transform="translate(504.980469 0)"/>
      <use xlink:href="#DejaVuSans-3d" transform="translate(562.890625 0)"/>
      <use xlink:href="#DejaVuSans-32" transform="translate(646.679688 0)"/>
      <use xlink:href="#DejaVuSans-29" transform="translate(710.302734 0)"/>
     </g>
    </g>
    <g id="line2d_71">
     <path d="M 61.41375 62.047031 
L 70.41375 62.047031 
L 79.41375 62.047031 
" style="fill: none; stroke: #ff7f0e; stroke-width: 2; stroke-linecap: square"/>
     <g>
      <use xlink:href="#mf7cbe53c79" x="70.41375" y="62.047031" style="fill: #ff7f0e; stroke: #ff7f0e; stroke-linejoin: miter"/>
     </g>
    </g>
    <g id="text_16">
     <!-- Schichten-Signaturen (k=3) -->
     <g transform="translate(86.61375 65.197031) scale(0.09 -0.09)">
      <use xlink:href="#DejaVuSans-53"/>
      <use xlink:href="#DejaVuSans-63" transform="translate(63.476562 0)"/>
      <use xlink:href="#DejaVuSans-68" transform="translate(118.457031 0)"/>
      <use xlink:href="#DejaVuSans-69" transform="translate(181.835938 0)"/>
      <use xlink:href="#DejaVuSans-63" transform="translate(209.619141 0)"/>
      <use xlink:href="#DejaVuSans-68" transform="translate(264.599609 0)"/>
      <use xlink:href="#DejaVuSans-74" transform="translate(327.978516 0)"/>
      <use xlink:href="#DejaVuSans-65" transform="translate(367.1875 0)"/>
      <use xlink:href="#DejaVuSans-6e" transform="translate(428.710938 0)"/>
      <use xlink:href="#DejaVuSans-2d" transform="translate(492.089844 0)"/>
      <use xlink:href="#DejaVuSans-53" transform="translate(528.173828 0)"/>
      <use xlink:href="#DejaVuSans-69" transform="translate(591.650391 0)"/>
      <use xlink:href="#DejaVuSans-67" transform="translate(619.433594 0)"/>
      <use xlink:href="#DejaVuSans-6e" transform="translate(682.910156 0)"/>
      <use xlink:href="#DejaVuSans-61" transform="translate(746.289062 0)"/>
      <use xlink:href="#DejaVuSans-74" transform="translate(807.568359 0)"/>
      <use xlink:href="#DejaVuSans-75" transform="translate(846.777344 0)"/>
      <use xlink:href="#DejaVuSans-72" transform="translate(910.15625 0)"/>
      <use xlink:href="#DejaVuSans-65" transform="translate(949.019531 0)"/>
      <use xlink:href="#DejaVuSans-6e" transform="translate(1010.542969 0)"/>
      <use xlink:href="#DejaVuSans-20" transform="translate(1073.921875 0)"/>
      <use xlink:href="#DejaVuSans-28" transform="translate(1105.708984 0)"/>
      <use xlink:href="#DejaVuSans-6b" transform="translate(1144.722656 0)"/>
      <use xlink:href="#DejaVuSans-3d" transform="translate(1202.632812 0)"/>
      <use xlink:href="#DejaVuSans-33" transform="translate(1286.421875 0)"/>
      <use xlink:href="#DejaVuSans-29" transform="translate(1350.044922 0)"/>
     </g>
    </g>
    <g id="line2d_72">
     <path d="M 229.629375 35.626406 
L 238.629375 35.626406 
L 247.629375 35.626406 
" style="fill: none; stroke-dasharray: 7.4,3.2; stroke-dashoffset: 0; stroke: #ff7f0e; stroke-opacity: 0.7; stroke-width: 2"/>
     <g>
      <use xlink:href="#mc61061f42b" x="238.629375" y="35.626406" style="fill: #ff7f0e; fill-opacity: 0.7; stroke: #ff7f0e; stroke-opacity: 0.7; stroke-linejoin: miter"/>
     </g>
    </g>
    <g id="text_17">
     <!-- Strassen (k=3) -->
     <g transform="translate(254.829375 38.776406) scale(0.09 -0.09)">
      <use xlink:href="#DejaVuSans-53"/>
      <use xlink:href="#DejaVuSans-74" transform="translate(63.476562 0)"/>
      <use xlink:href="#DejaVuSans-72" transform="translate(102.685547 0)"/>
      <use xlink:href="#DejaVuSans-61" transform="translate(143.798828 0)"/>
      <use xlink:href="#DejaVuSans-73" transform="translate(205.078125 0)"/>
      <use xlink:href="#DejaVuSans-73" transform="translate(257.177734 0)"/>
      <use xlink:href="#DejaVuSans-65" transform="translate(309.277344 0)"/>
      <use xlink:href="#DejaVuSans-6e" transform="translate(370.800781 0)"/>
      <use xlink:href="#DejaVuSans-20" transform="translate(434.179688 0)"/>
      <use xlink:href="#DejaVuSans-28" transform="translate(465.966797 0)"/>
      <use xlink:href="#DejaVuSans-6b" transform="translate(504.980469 0)"/>
      <use xlink:href="#DejaVuSans-3d" transform="translate(562.890625 0)"/>
      <use xlink:href="#DejaVuSans-33" transform="translate(646.679688 0)"/>
      <use xlink:href="#DejaVuSans-29" transform="translate(710.302734 0)"/>
     </g>
    </g>
    <g id="line2d_73">
     <path d="M 229.629375 48.836719 
L 238.629375 48.836719 
L 247.629375 48.836719 
" style="fill: none; stroke: #2ca02c; stroke-width: 2; stroke-linecap: square"/>
     <g>
      <use xlink:href="#m81e3bc231f" x="238.629375" y="48.836719" style="fill: #2ca02c; stroke: #2ca02c; stroke-linejoin: miter"/>
     </g>
    </g>
    <g id="text_18">
     <!-- Schichten-Signaturen (k=5) -->
     <g transform="translate(254.829375 51.986719) scale(0.09 -0.09)">
      <use xlink:href="#DejaVuSans-53"/>
      <use xlink:href="#DejaVuSans-63" transform="translate(63.476562 0)"/>
      <use xlink:href="#DejaVuSans-68" transform="translate(118.457031 0)"/>
      <use xlink:href="#DejaVuSans-69" transform="translate(181.835938 0)"/>
      <use xlink:href="#DejaVuSans-63" transform="translate(209.619141 0)"/>
      <use xlink:href="#DejaVuSans-68" transform="translate(264.599609 0)"/>
      <use xlink:href="#DejaVuSans-74" transform="translate(327.978516 0)"/>
      <use xlink:href="#DejaVuSans-65" transform="translate(367.1875 0)"/>
      <use xlink:href="#DejaVuSans-6e" transform="translate(428.710938 0)"/>
      <use xlink:href="#DejaVuSans-2d" transform="translate(492.089844 0)"/>
      <use xlink:href="#DejaVuSans-53" transform="translate(528.173828 0)"/>
      <use xlink:href="#DejaVuSans-69" transform="translate(591.650391 0)"/>
      <use xlink:href="#DejaVuSans-67" transform="translate(619.433594 0)"/>
      <use xlink:href="#DejaVuSans-6e" transform="translate(682.910156 0)"/>
      <use xlink:href="#DejaVuSans-61" transform="translate(746.289062 0)"/>
      <use xlink:href="#DejaVuSans-74" transform="translate(807.568359 0)"/>
      <use xlink:href="#DejaVuSans-75" transform="translate(846.777344 0)"/>
      <use xlink:href="#DejaVuSans-72" transform="translate(910.15625 0)"/>
      <use xlink:href="#DejaVuSans-65" transform="translate(949.019531 0)"/>
      <use xlink:href="#DejaVuSans-6e" transform="translate(1010.542969 0)"/>
      <use xlink:href="#DejaVuSans-20" transform="translate(1073.921875 0)"/>
      <use xlink:href="#DejaVuSans-28" transform="translate(1105.708984 0)"/>
      <use xlink:href="#DejaVuSans-6b" transform="translate(1144.722656 0)"/>
      <use xlink:href="#DejaVuSans-3d" transform="translate(1202.632812 0)"/>
      <use xlink:href="#DejaVuSans-35" transform="translate(1286.421875 0)"/>
      <use xlink:href="#DejaVuSans-29" transform="translate(1350.044922 0)"/>
     </g>
    </g>
    <g id="line2d_74">
     <path d="M 229.629375 62.047031 
L 238.629375 62.047031 
L 247.629375 62.047031 
" style="fill: none; stroke-dasharray: 7.4,3.2; stroke-dashoffset: 0; stroke: #2ca02c; stroke-opacity: 0.7; stroke-width: 2"/>
     <g>
      <use xlink:href="#maf021dc335" x="238.629375" y="62.047031" style="fill: #2ca02c; fill-opacity: 0.7; stroke: #2ca02c; stroke-opacity: 0.7; stroke-linejoin: miter"/>
     </g>
    </g>
    <g id="text_19">
     <!-- Strassen (k=5) -->
     <g transform="translate(254.829375 65.197031) scale(0.09 -0.09)">
      <use xlink:href="#DejaVuSans-53"/>
      <use xlink:href="#DejaVuSans-74" transform="translate(63.476562 0)"/>
      <use xlink:href="#DejaVuSans-72" transform="translate(102.685547 0)"/>
      <use xlink:href="#DejaVuSans-61" transform="translate(143.798828 0)"/>
      <use xlink:href="#DejaVuSans-73" transform="translate(205.078125 0)"/>
      <use xlink:href="#DejaVuSans-73" transform="translate(257.177734 0)"/>
      <use xlink:href="#DejaVuSans-65" transform="translate(309.277344 0)"/>
      <use xlink:href="#DejaVuSans-6e" transform="translate(370.800781 0)"/>
      <use xlink:href="#DejaVuSans-20" transform="translate(434.179688 0)"/>
      <use xlink:href="#DejaVuSans-28" transform="translate(465.966797 0)"/>
      <use xlink:href="#DejaVuSans-6b" transform="translate(504.980469 0)"/>
      <use xlink:href="#DejaVuSans-3d" transform="translate(562.890625 0)"/>
      <use xlink:href="#DejaVuSans-35" transform="translate(646.679688 0)"/>
      <use xlink:href="#DejaVuSans-29" transform="translate(710.302734 0)"/>
     </g>
    </g>
   </g>
  </g>
 </g>
 <defs>
  <clipPath id="p2d1dd3d567">
   <rect x="53.31375" y="23.837812" width="669.6" height="332.64"/>
  </clipPath>
 </defs>
</svg>
