<?xml version="1.0" encoding="utf-8" standalone="no"?>
<!DOCTYPE svg PUBLIC "-//W3C//DTD SVG 1.1//EN"
  "http://www.w3.org/Graphics/SVG/1.1/DTD/svg11.dtd">
<svg xmlns:xlink="http://www.w3.org/1999/xlink" width="855.825387pt" height="367.531641pt" viewBox="0 0 855.825387 367.531641" xmlns="http://www.w3.org/2000/svg" version="1.1">
 <metadata>
  <rdf:RDF xmlns:dc="http://purl.org/dc/elements/1.1/" xmlns:cc="http://creativecommons.org/ns#" xmlns:rdf="http://www.w3.org/1999/02/22-rdf-syntax-ns#">
   <cc:Work>
    <dc:type rdf:resource="http://purl.org/dc/dcmitype/StillImage"/>
    <dc:date>2026-04-05T17:55:45.892418</dc:date>
    <dc:format>image/svg+xml</dc:format>
    <dc:creator>
     <cc:Agent>
      <dc:title>Matplotlib v3.10.8, https://matplotlib.org/</dc:title>
     </cc:Agent>
    </dc:creator>
   </cc:Work>
  </rdf:RDF>
 </metadata>
 <defs>
  <style type="text/css">*{stroke-linejoin: round; stroke-linecap: butt}</style>
 </defs>
 <g id="figure_1">
  <g id="patch_1">
   <path d="M 0 367.531641 
L 855.825387 367.531641 
L 855.825387 -0 
L 0 -0 
z
" style="fill: #ffffff"/>
  </g>
  <g id="axes_1">
   <g id="patch_2">
    <path d="M 37.090313 309.536922 
L 410.366871 309.536922 
L 410.366871 52.8825 
L 37.090313 52.8825 
z
" style="fill: #ffffff"/>
   </g>
   <g id="patch_3">
    <path d="M 59.225078 309.536922 
L 71.282928 309.536922 
L 71.282928 93.947208 
L 59.225078 93.947208 
z
" clip-path="url(#pe2015a7b98)" style="fill: #c0392b; opacity: 0.85"/>
   </g>
   <g id="patch_4">
    <path d="M 93.676076 309.536922 
L 105.733925 309.536922 
L 105.733925 176.076623 
L 93.676076 176.076623 
z
" clip-path="url(#pe2015a7b98)" style="fill: #c0392b; opacity: 0.85"/>
   </g>
   <g id="patch_5">
    <path d="M 128.127074 309.536922 
L 140.184923 309.536922 
L 140.184923 255.639494 
L 128.127074 255.639494 
z
" clip-path="url(#pe2015a7b98)" style="fill: #e67e22; opacity: 0.85"/>
   </g>
   <g id="patch_6">
    <path d="M 162.578071 309.536922 
L 174.63592 309.536922 
L 174.63592 268.472215 
L 162.578071 268.472215 
z
" clip-path="url(#pe2015a7b98)" style="fill: #1a4e8a; opacity: 0.85"/>
   </g>
   <g id="patch_7">
    <path d="M 197.029069 309.536922 
L 209.086918 309.536922 
L 209.086918 286.438024 
L 197.029069 286.438024 
z
" clip-path="url(#pe2015a7b98)" style="fill: #1a4e8a; opacity: 0.85"/>
   </g>
   <g id="patch_8">
    <path d="M 231.480066 309.536922 
L 243.537915 309.536922 
L 243.537915 263.339126 
L 231.480066 263.339126 
z
" clip-path="url(#pe2015a7b98)" style="fill: #1a4e8a; opacity: 0.85"/>
   </g>
   <g id="patch_9">
    <path d="M 265.931064 309.536922 
L 277.988913 309.536922 
L 277.988913 229.974051 
L 265.931064 229.974051 
z
" clip-path="url(#pe2015a7b98)" style="fill: #1a4e8a; opacity: 0.85"/>
   </g>
   <g id="patch_10">
    <path d="M 300.382061 309.536922 
L 312.43991 309.536922 
L 312.43991 176.076623 
L 300.382061 176.076623 
z
" clip-path="url(#pe2015a7b98)" style="fill: #1a4e8a; opacity: 0.85"/>
   </g>
   <g id="patch_11">
    <path d="M 334.833059 309.536922 
L 346.890908 309.536922 
L 346.890908 186.3428 
L 334.833059 186.3428 
z
" clip-path="url(#pe2015a7b98)" style="fill: #1a4e8a; opacity: 0.85"/>
   </g>
   <g id="patch_12">
    <path d="M 369.284056 309.536922 
L 381.341906 309.536922 
L 381.341906 127.312283 
L 369.284056 127.312283 
z
" clip-path="url(#pe2015a7b98)" style="fill: #1a4e8a; opacity: 0.85"/>
   </g>
   <g id="patch_13">
    <path d="M 71.282928 309.536922 
L 83.340777 309.536922 
L 83.340777 135.011915 
L 71.282928 135.011915 
z
" clip-path="url(#pe2015a7b98)" style="fill: #c0392b; opacity: 0.6"/>
   </g>
   <g id="patch_14">
    <path d="M 105.733925 309.536922 
L 117.791774 309.536922 
L 117.791774 183.776255 
L 105.733925 183.776255 
z
" clip-path="url(#pe2015a7b98)" style="fill: #c0392b; opacity: 0.6"/>
   </g>
   <g id="patch_15">
    <path d="M 140.184923 309.536922 
L 152.242772 309.536922 
L 152.242772 263.339126 
L 140.184923 263.339126 
z
" clip-path="url(#pe2015a7b98)" style="fill: #e67e22; opacity: 0.6"/>
   </g>
   <g id="patch_16">
    <path d="M 174.63592 309.536922 
L 186.693769 309.536922 
L 186.693769 273.605303 
L 174.63592 273.605303 
z
" clip-path="url(#pe2015a7b98)" style="fill: #27ae60; opacity: 0.6"/>
   </g>
   <g id="patch_17">
    <path d="M 209.086918 309.536922 
L 221.144767 309.536922 
L 221.144767 283.87148 
L 209.086918 283.87148 
z
" clip-path="url(#pe2015a7b98)" style="fill: #27ae60; opacity: 0.6"/>
   </g>
   <g id="patch_18">
    <path d="M 243.537915 309.536922 
L 255.595764 309.536922 
L 255.595764 271.038759 
L 243.537915 271.038759 
z
" clip-path="url(#pe2015a7b98)" style="fill: #27ae60; opacity: 0.6"/>
   </g>
   <g id="patch_19">
    <path d="M 277.988913 309.536922 
L 290.046762 309.536922 
L 290.046762 237.673684 
L 277.988913 237.673684 
z
" clip-path="url(#pe2015a7b98)" style="fill: #27ae60; opacity: 0.6"/>
   </g>
   <g id="patch_20">
    <path d="M 312.43991 309.536922 
L 324.49776 309.536922 
L 324.49776 247.939861 
L 312.43991 247.939861 
z
" clip-path="url(#pe2015a7b98)" style="fill: #27ae60; opacity: 0.6"/>
   </g>
   <g id="patch_21">
    <path d="M 346.890908 309.536922 
L 358.948757 309.536922 
L 358.948757 178.643167 
L 346.890908 178.643167 
z
" clip-path="url(#pe2015a7b98)" style="fill: #27ae60; opacity: 0.6"/>
   </g>
   <g id="patch_22">
    <path d="M 381.341906 309.536922 
L 393.399755 309.536922 
L 393.399755 142.711548 
L 381.341906 142.711548 
z
" clip-path="url(#pe2015a7b98)" style="fill: #27ae60; opacity: 0.6"/>
   </g>
   <g id="patch_23">
    <path d="M 54.057429 309.536922 
L 122.959424 309.536922 
L 122.959424 52.8825 
L 54.057429 52.8825 
z
" clip-path="url(#pe2015a7b98)" style="fill: #c0392b; opacity: 0.08; stroke: #c0392b; stroke-linejoin: miter"/>
   </g>
   <g id="matplotlib.axis_1">
    <g id="xtick_1">
     <g id="line2d_1">
      <defs>
       <path id="m55ace1eca0" d="M 0 0 
L 0 3.5 
" style="stroke: #000000; stroke-width: 0.8"/>
      </defs>
      <g>
       <use xlink:href="#m55ace1eca0" x="71.282928" y="309.536922" style="stroke: #000000; stroke-width: 0.8"/>
      </g>
     </g>
     <g id="text_1">
      <!-- Finger​/Daumen -->
      <g transform="translate(24.645903 359.055099) rotate(-40) scale(0.075 -0.075)">
       <defs>
        <path id="DejaVuSerif-46" d="M 353 0 
L 353 331 
L 947 331 
L 947 4331 
L 353 4331 
L 353 4666 
L 4172 4666 
L 4172 3628 
L 3788 3628 
L 3788 4281 
L 1581 4281 
L 1581 2719 
L 3175 2719 
L 3175 3303 
L 3559 3303 
L 3559 1753 
L 3175 1753 
L 3175 2338 
L 1581 2338 
L 1581 331 
L 2328 331 
L 2328 0 
L 353 0 
z
" transform="scale(0.015625)"/>
        <path id="DejaVuSerif-69" d="M 622 4353 
Q 622 4497 726 4603 
Q 831 4709 978 4709 
Q 1122 4709 1226 4603 
Q 1331 4497 1331 4353 
Q 1331 4206 1228 4103 
Q 1125 4000 978 4000 
Q 831 4000 726 4103 
Q 622 4206 622 4353 
z
M 1356 331 
L 1900 331 
L 1900 0 
L 231 0 
L 231 331 
L 781 331 
L 781 2988 
L 231 2988 
L 231 3322 
L 1356 3322 
L 1356 331 
z
" transform="scale(0.015625)"/>
        <path id="DejaVuSerif-6e" d="M 263 0 
L 263 331 
L 781 331 
L 781 2988 
L 231 2988 
L 231 3322 
L 1356 3322 
L 1356 2731 
Q 1516 3069 1770 3241 
Q 2025 3413 2363 3413 
Q 2913 3413 3172 3097 
Q 3431 2781 3431 2113 
L 3431 331 
L 3944 331 
L 3944 0 
L 2356 0 
L 2356 331 
L 2853 331 
L 2853 1931 
Q 2853 2541 2703 2767 
Q 2553 2994 2175 2994 
Q 1775 2994 1565 2701 
Q 1356 2409 1356 1850 
L 1356 331 
L 1856 331 
L 1856 0 
L 263 0 
z
" transform="scale(0.015625)"/>
        <path id="DejaVuSerif-67" d="M 3359 2988 
L 3359 72 
Q 3359 -644 2965 -1033 
Q 2572 -1422 1844 -1422 
Q 1516 -1422 1216 -1362 
Q 916 -1303 641 -1184 
L 641 -488 
L 941 -488 
Q 997 -813 1206 -963 
Q 1416 -1113 1806 -1113 
Q 2313 -1113 2548 -827 
Q 2784 -541 2784 72 
L 2784 519 
Q 2616 206 2355 57 
Q 2094 -91 1709 -91 
Q 1097 -91 708 395 
Q 319 881 319 1663 
Q 319 2444 706 2928 
Q 1094 3413 1709 3413 
Q 2094 3413 2355 3264 
Q 2616 3116 2784 2803 
L 2784 3322 
L 3909 3322 
L 3909 2988 
L 3359 2988 
z
M 2784 1825 
Q 2784 2422 2554 2737 
Q 2325 3053 1888 3053 
Q 1444 3053 1217 2703 
Q 991 2353 991 1663 
Q 991 975 1217 622 
Q 1444 269 1888 269 
Q 2325 269 2554 583 
Q 2784 897 2784 1497 
L 2784 1825 
z
" transform="scale(0.015625)"/>
        <path id="DejaVuSerif-65" d="M 3469 1600 
L 991 1600 
L 991 1575 
Q 991 903 1244 561 
Q 1497 219 1991 219 
Q 2369 219 2611 417 
Q 2853 616 2950 1006 
L 3413 1006 
Q 3275 459 2904 184 
Q 2534 -91 1931 -91 
Q 1203 -91 761 389 
Q 319 869 319 1663 
Q 319 2450 753 2931 
Q 1188 3413 1894 3413 
Q 2647 3413 3050 2948 
Q 3453 2484 3469 1600 
z
M 2791 1931 
Q 2772 2513 2545 2808 
Q 2319 3103 1894 3103 
Q 1497 3103 1269 2806 
Q 1041 2509 991 1931 
L 2791 1931 
z
" transform="scale(0.015625)"/>
        <path id="DejaVuSerif-72" d="M 3059 3328 
L 3059 2497 
L 2728 2497 
Q 2713 2744 2591 2866 
Q 2469 2988 2234 2988 
Q 1809 2988 1582 2694 
Q 1356 2400 1356 1850 
L 1356 331 
L 2022 331 
L 2022 0 
L 263 0 
L 263 331 
L 781 331 
L 781 2994 
L 231 2994 
L 231 3322 
L 1356 3322 
L 1356 2731 
Q 1525 3078 1790 3245 
Q 2056 3413 2438 3413 
Q 2578 3413 2733 3391 
Q 2888 3369 3059 3328 
z
" transform="scale(0.015625)"/>
        <path id="DejaVuSerif-200b" transform="scale(0.015625)"/>
        <path id="DejaVuSerif-2f" d="M 1656 4666 
L 2156 4666 
L 500 -594 
L 0 -594 
L 1656 4666 
z
" transform="scale(0.015625)"/>
        <path id="DejaVuSerif-44" d="M 1581 331 
L 2163 331 
Q 3072 331 3558 850 
Q 4044 1369 4044 2338 
Q 4044 3306 3559 3818 
Q 3075 4331 2163 4331 
L 1581 4331 
L 1581 331 
z
M 353 0 
L 353 331 
L 947 331 
L 947 4331 
L 353 4331 
L 353 4666 
L 2209 4666 
Q 3416 4666 4089 4050 
Q 4763 3434 4763 2338 
Q 4763 1238 4088 619 
Q 3413 0 2209 0 
L 353 0 
z
" transform="scale(0.015625)"/>
        <path id="DejaVuSerif-61" d="M 2547 1044 
L 2547 1747 
L 1806 1747 
Q 1378 1747 1168 1562 
Q 959 1378 959 997 
Q 959 650 1171 447 
Q 1384 244 1747 244 
Q 2106 244 2326 466 
Q 2547 688 2547 1044 
z
M 3122 2075 
L 3122 331 
L 3634 331 
L 3634 0 
L 2547 0 
L 2547 359 
Q 2356 128 2106 18 
Q 1856 -91 1522 -91 
Q 969 -91 644 203 
Q 319 497 319 997 
Q 319 1513 691 1797 
Q 1063 2081 1741 2081 
L 2547 2081 
L 2547 2309 
Q 2547 2688 2317 2895 
Q 2088 3103 1672 3103 
Q 1328 3103 1125 2947 
Q 922 2791 872 2484 
L 575 2484 
L 575 3156 
Q 875 3284 1158 3348 
Q 1441 3413 1709 3413 
Q 2400 3413 2761 3070 
Q 3122 2728 3122 2075 
z
" transform="scale(0.015625)"/>
        <path id="DejaVuSerif-75" d="M 2266 3322 
L 3341 3322 
L 3341 331 
L 3884 331 
L 3884 0 
L 2766 0 
L 2766 588 
Q 2606 256 2353 82 
Q 2100 -91 1766 -91 
Q 1213 -91 952 223 
Q 691 538 691 1209 
L 691 2988 
L 172 2988 
L 172 3322 
L 1269 3322 
L 1269 1388 
Q 1269 781 1417 556 
Q 1566 331 1947 331 
Q 2347 331 2556 625 
Q 2766 919 2766 1478 
L 2766 2988 
L 2266 2988 
L 2266 3322 
z
" transform="scale(0.015625)"/>
        <path id="DejaVuSerif-6d" d="M 3316 2675 
Q 3481 3041 3739 3227 
Q 3997 3413 4341 3413 
Q 4863 3413 5119 3089 
Q 5375 2766 5375 2113 
L 5375 331 
L 5894 331 
L 5894 0 
L 4300 0 
L 4300 331 
L 4800 331 
L 4800 2047 
Q 4800 2556 4650 2772 
Q 4500 2988 4153 2988 
Q 3769 2988 3567 2697 
Q 3366 2406 3366 1850 
L 3366 331 
L 3866 331 
L 3866 0 
L 2291 0 
L 2291 331 
L 2791 331 
L 2791 2069 
Q 2791 2566 2641 2777 
Q 2491 2988 2144 2988 
Q 1759 2988 1557 2697 
Q 1356 2406 1356 1850 
L 1356 331 
L 1856 331 
L 1856 0 
L 263 0 
L 263 331 
L 781 331 
L 781 2994 
L 231 2994 
L 231 3322 
L 1356 3322 
L 1356 2731 
Q 1516 3063 1762 3238 
Q 2009 3413 2322 3413 
Q 2709 3413 2968 3220 
Q 3228 3028 3316 2675 
z
" transform="scale(0.015625)"/>
       </defs>
       <use xlink:href="#DejaVuSerif-46"/>
       <use xlink:href="#DejaVuSerif-69" transform="translate(69.384766 0)"/>
       <use xlink:href="#DejaVuSerif-6e" transform="translate(101.367188 0)"/>
       <use xlink:href="#DejaVuSerif-67" transform="translate(165.771484 0)"/>
       <use xlink:href="#DejaVuSerif-65" transform="translate(229.785156 0)"/>
       <use xlink:href="#DejaVuSerif-72" transform="translate(288.964844 0)"/>
       <use xlink:href="#DejaVuSerif-200b" transform="translate(336.767578 0)"/>
       <use xlink:href="#DejaVuSerif-2f" transform="translate(336.767578 0)"/>
       <use xlink:href="#DejaVuSerif-44" transform="translate(370.458984 0)"/>
       <use xlink:href="#DejaVuSerif-61" transform="translate(450.634766 0)"/>
       <use xlink:href="#DejaVuSerif-75" transform="translate(510.253906 0)"/>
       <use xlink:href="#DejaVuSerif-6d" transform="translate(574.658203 0)"/>
       <use xlink:href="#DejaVuSerif-65" transform="translate(669.482422 0)"/>
       <use xlink:href="#DejaVuSerif-6e" transform="translate(728.662109 0)"/>
      </g>
     </g>
    </g>
    <g id="xtick_2">
     <g id="line2d_2">
      <g>
       <use xlink:href="#m55ace1eca0" x="105.733925" y="309.536922" style="stroke: #000000; stroke-width: 0.8"/>
      </g>
     </g>
     <g id="text_2">
      <!-- Hand -->
      <g transform="translate(88.917297 334.172025) rotate(-40) scale(0.075 -0.075)">
       <defs>
        <path id="DejaVuSerif-48" d="M 353 0 
L 353 331 
L 947 331 
L 947 4331 
L 353 4331 
L 353 4666 
L 2175 4666 
L 2175 4331 
L 1581 4331 
L 1581 2719 
L 4000 2719 
L 4000 4331 
L 3406 4331 
L 3406 4666 
L 5228 4666 
L 5228 4331 
L 4634 4331 
L 4634 331 
L 5228 331 
L 5228 0 
L 3406 0 
L 3406 331 
L 4000 331 
L 4000 2338 
L 1581 2338 
L 1581 331 
L 2175 331 
L 2175 0 
L 353 0 
z
" transform="scale(0.015625)"/>
        <path id="DejaVuSerif-64" d="M 3359 331 
L 3909 331 
L 3909 0 
L 2784 0 
L 2784 519 
Q 2616 206 2355 57 
Q 2094 -91 1709 -91 
Q 1097 -91 708 395 
Q 319 881 319 1663 
Q 319 2444 706 2928 
Q 1094 3413 1709 3413 
Q 2094 3413 2355 3264 
Q 2616 3116 2784 2803 
L 2784 4531 
L 2241 4531 
L 2241 4863 
L 3359 4863 
L 3359 331 
z
M 2784 1497 
L 2784 1825 
Q 2784 2422 2554 2737 
Q 2325 3053 1888 3053 
Q 1444 3053 1217 2703 
Q 991 2353 991 1663 
Q 991 975 1217 622 
Q 1444 269 1888 269 
Q 2325 269 2554 583 
Q 2784 897 2784 1497 
z
" transform="scale(0.015625)"/>
       </defs>
       <use xlink:href="#DejaVuSerif-48"/>
       <use xlink:href="#DejaVuSerif-61" transform="translate(87.207031 0)"/>
       <use xlink:href="#DejaVuSerif-6e" transform="translate(146.826172 0)"/>
       <use xlink:href="#DejaVuSerif-64" transform="translate(211.230469 0)"/>
      </g>
     </g>
    </g>
    <g id="xtick_3">
     <g id="line2d_3">
      <g>
       <use xlink:href="#m55ace1eca0" x="140.184923" y="309.536922" style="stroke: #000000; stroke-width: 0.8"/>
      </g>
     </g>
     <g id="text_3">
      <!-- Handgelenk/ -->
      <g transform="translate(96.467702 352.157021) rotate(-40) scale(0.075 -0.075)">
       <defs>
        <path id="DejaVuSerif-6c" d="M 1313 331 
L 1856 331 
L 1856 0 
L 184 0 
L 184 331 
L 738 331 
L 738 4531 
L 184 4531 
L 184 4863 
L 1313 4863 
L 1313 331 
z
" transform="scale(0.015625)"/>
        <path id="DejaVuSerif-6b" d="M 1831 0 
L 219 0 
L 219 331 
L 738 331 
L 738 4531 
L 184 4531 
L 184 4863 
L 1313 4863 
L 1313 1697 
L 2713 2988 
L 2234 2988 
L 2234 3322 
L 3738 3322 
L 3738 2988 
L 3169 2988 
L 2181 2075 
L 3444 331 
L 3922 331 
L 3922 0 
L 2284 0 
L 2284 331 
L 2759 331 
L 1766 1697 
L 1313 1275 
L 1313 331 
L 1831 331 
L 1831 0 
z
" transform="scale(0.015625)"/>
       </defs>
       <use xlink:href="#DejaVuSerif-48"/>
       <use xlink:href="#DejaVuSerif-61" transform="translate(87.207031 0)"/>
       <use xlink:href="#DejaVuSerif-6e" transform="translate(146.826172 0)"/>
       <use xlink:href="#DejaVuSerif-64" transform="translate(211.230469 0)"/>
       <use xlink:href="#DejaVuSerif-67" transform="translate(275.244141 0)"/>
       <use xlink:href="#DejaVuSerif-65" transform="translate(339.257812 0)"/>
       <use xlink:href="#DejaVuSerif-6c" transform="translate(398.4375 0)"/>
       <use xlink:href="#DejaVuSerif-65" transform="translate(430.419922 0)"/>
       <use xlink:href="#DejaVuSerif-6e" transform="translate(489.599609 0)"/>
       <use xlink:href="#DejaVuSerif-6b" transform="translate(554.003906 0)"/>
       <use xlink:href="#DejaVuSerif-2f" transform="translate(614.599609 0)"/>
      </g>
      <!-- Unterarm -->
      <g transform="translate(110.564281 351.431076) rotate(-40) scale(0.075 -0.075)">
       <defs>
        <path id="DejaVuSerif-55" d="M 897 4331 
L 300 4331 
L 300 4666 
L 2125 4666 
L 2125 4331 
L 1528 4331 
L 1528 1919 
Q 1528 1025 1820 672 
Q 2113 319 2828 319 
Q 3544 319 3836 672 
Q 4128 1025 4128 1919 
L 4128 4331 
L 3531 4331 
L 3531 4666 
L 5106 4666 
L 5106 4331 
L 4513 4331 
L 4513 1856 
Q 4513 791 4103 350 
Q 3694 -91 2713 -91 
Q 1731 -91 1314 353 
Q 897 797 897 1856 
L 897 4331 
z
" transform="scale(0.015625)"/>
        <path id="DejaVuSerif-74" d="M 691 2988 
L 184 2988 
L 184 3322 
L 691 3322 
L 691 4353 
L 1269 4353 
L 1269 3322 
L 2350 3322 
L 2350 2988 
L 1269 2988 
L 1269 878 
Q 1269 456 1350 337 
Q 1431 219 1650 219 
Q 1875 219 1978 351 
Q 2081 484 2088 781 
L 2522 781 
Q 2497 328 2275 118 
Q 2053 -91 1600 -91 
Q 1103 -91 897 129 
Q 691 350 691 878 
L 691 2988 
z
" transform="scale(0.015625)"/>
       </defs>
       <use xlink:href="#DejaVuSerif-55"/>
       <use xlink:href="#DejaVuSerif-6e" transform="translate(84.277344 0)"/>
       <use xlink:href="#DejaVuSerif-74" transform="translate(148.681641 0)"/>
       <use xlink:href="#DejaVuSerif-65" transform="translate(188.867188 0)"/>
       <use xlink:href="#DejaVuSerif-72" transform="translate(248.046875 0)"/>
       <use xlink:href="#DejaVuSerif-61" transform="translate(295.849609 0)"/>
       <use xlink:href="#DejaVuSerif-72" transform="translate(355.46875 0)"/>
       <use xlink:href="#DejaVuSerif-6d" transform="translate(403.271484 0)"/>
      </g>
     </g>
    </g>
    <g id="xtick_4">
     <g id="line2d_4">
      <g>
       <use xlink:href="#m55ace1eca0" x="174.63592" y="309.536922" style="stroke: #000000; stroke-width: 0.8"/>
      </g>
     </g>
     <g id="text_4">
      <!-- Arm -->
      <g transform="translate(161.289833 331.259896) rotate(-40) scale(0.075 -0.075)">
       <defs>
        <path id="DejaVuSerif-41" d="M 1281 1691 
L 2994 1691 
L 2138 3909 
L 1281 1691 
z
M -38 0 
L -38 331 
L 372 331 
L 2034 4666 
L 2559 4666 
L 4225 331 
L 4684 331 
L 4684 0 
L 2988 0 
L 2988 331 
L 3506 331 
L 3116 1356 
L 1153 1356 
L 763 331 
L 1275 331 
L 1275 0 
L -38 0 
z
" transform="scale(0.015625)"/>
       </defs>
       <use xlink:href="#DejaVuSerif-41"/>
       <use xlink:href="#DejaVuSerif-72" transform="translate(72.216797 0)"/>
       <use xlink:href="#DejaVuSerif-6d" transform="translate(120.019531 0)"/>
      </g>
     </g>
    </g>
    <g id="xtick_5">
     <g id="line2d_5">
      <g>
       <use xlink:href="#m55ace1eca0" x="209.086918" y="309.536922" style="stroke: #000000; stroke-width: 0.8"/>
      </g>
     </g>
     <g id="text_5">
      <!-- Schulter -->
      <g transform="translate(183.237549 341.751395) rotate(-40) scale(0.075 -0.075)">
       <defs>
        <path id="DejaVuSerif-53" d="M 594 225 
L 594 1288 
L 953 1284 
Q 969 753 1261 498 
Q 1553 244 2150 244 
Q 2706 244 2998 464 
Q 3291 684 3291 1106 
Q 3291 1444 3114 1625 
Q 2938 1806 2369 1978 
L 1753 2163 
Q 1084 2366 811 2669 
Q 538 2972 538 3500 
Q 538 4094 959 4422 
Q 1381 4750 2144 4750 
Q 2469 4750 2856 4679 
Q 3244 4609 3681 4475 
L 3681 3481 
L 3328 3481 
Q 3275 3975 2998 4195 
Q 2722 4416 2156 4416 
Q 1663 4416 1405 4214 
Q 1147 4013 1147 3628 
Q 1147 3294 1340 3103 
Q 1534 2913 2163 2725 
L 2741 2553 
Q 3375 2363 3645 2067 
Q 3916 1772 3916 1275 
Q 3916 597 3481 253 
Q 3047 -91 2188 -91 
Q 1803 -91 1404 -12 
Q 1006 66 594 225 
z
" transform="scale(0.015625)"/>
        <path id="DejaVuSerif-63" d="M 3291 997 
Q 3169 466 2822 187 
Q 2475 -91 1925 -91 
Q 1200 -91 759 389 
Q 319 869 319 1663 
Q 319 2459 759 2936 
Q 1200 3413 1925 3413 
Q 2241 3413 2553 3339 
Q 2866 3266 3181 3116 
L 3181 2266 
L 2847 2266 
Q 2781 2703 2561 2903 
Q 2341 3103 1931 3103 
Q 1466 3103 1228 2742 
Q 991 2381 991 1663 
Q 991 944 1227 581 
Q 1463 219 1931 219 
Q 2303 219 2525 412 
Q 2747 606 2828 997 
L 3291 997 
z
" transform="scale(0.015625)"/>
        <path id="DejaVuSerif-68" d="M 263 0 
L 263 331 
L 781 331 
L 781 4531 
L 231 4531 
L 231 4863 
L 1356 4863 
L 1356 2731 
Q 1516 3069 1770 3241 
Q 2025 3413 2363 3413 
Q 2913 3413 3172 3097 
Q 3431 2781 3431 2113 
L 3431 331 
L 3944 331 
L 3944 0 
L 2356 0 
L 2356 331 
L 2853 331 
L 2853 1931 
Q 2853 2541 2704 2764 
Q 2556 2988 2175 2988 
Q 1775 2988 1565 2697 
Q 1356 2406 1356 1850 
L 1356 331 
L 1856 331 
L 1856 0 
L 263 0 
z
" transform="scale(0.015625)"/>
       </defs>
       <use xlink:href="#DejaVuSerif-53"/>
       <use xlink:href="#DejaVuSerif-63" transform="translate(68.505859 0)"/>
       <use xlink:href="#DejaVuSerif-68" transform="translate(124.511719 0)"/>
       <use xlink:href="#DejaVuSerif-75" transform="translate(188.916016 0)"/>
       <use xlink:href="#DejaVuSerif-6c" transform="translate(253.320312 0)"/>
       <use xlink:href="#DejaVuSerif-74" transform="translate(285.302734 0)"/>
       <use xlink:href="#DejaVuSerif-65" transform="translate(325.488281 0)"/>
       <use xlink:href="#DejaVuSerif-72" transform="translate(384.667969 0)"/>
      </g>
     </g>
    </g>
    <g id="xtick_6">
     <g id="line2d_6">
      <g>
       <use xlink:href="#m55ace1eca0" x="243.537915" y="309.536922" style="stroke: #000000; stroke-width: 0.8"/>
      </g>
     </g>
     <g id="text_6">
      <!-- Rumpf -->
      <g transform="translate(223.256133 337.079634) rotate(-40) scale(0.075 -0.075)">
       <defs>
        <path id="DejaVuSerif-52" d="M 3066 2316 
Q 3284 2256 3442 2114 
Q 3600 1972 3725 1716 
L 4403 331 
L 4972 331 
L 4972 0 
L 3872 0 
L 3144 1484 
Q 2934 1916 2759 2042 
Q 2584 2169 2278 2169 
L 1581 2169 
L 1581 331 
L 2241 331 
L 2241 0 
L 353 0 
L 353 331 
L 947 331 
L 947 4331 
L 353 4331 
L 353 4666 
L 2719 4666 
Q 3400 4666 3770 4341 
Q 4141 4016 4141 3419 
Q 4141 2938 3870 2661 
Q 3600 2384 3066 2316 
z
M 1581 2503 
L 2503 2503 
Q 2975 2503 3200 2726 
Q 3425 2950 3425 3419 
Q 3425 3888 3200 4109 
Q 2975 4331 2503 4331 
L 1581 4331 
L 1581 2503 
z
" transform="scale(0.015625)"/>
        <path id="DejaVuSerif-70" d="M 1313 1825 
L 1313 1497 
Q 1313 897 1542 583 
Q 1772 269 2209 269 
Q 2650 269 2876 622 
Q 3103 975 3103 1663 
Q 3103 2353 2876 2703 
Q 2650 3053 2209 3053 
Q 1772 3053 1542 2737 
Q 1313 2422 1313 1825 
z
M 738 2988 
L 184 2988 
L 184 3322 
L 1313 3322 
L 1313 2803 
Q 1481 3116 1742 3264 
Q 2003 3413 2388 3413 
Q 3000 3413 3387 2928 
Q 3775 2444 3775 1663 
Q 3775 881 3387 395 
Q 3000 -91 2388 -91 
Q 2003 -91 1742 57 
Q 1481 206 1313 519 
L 1313 -997 
L 1856 -997 
L 1856 -1331 
L 184 -1331 
L 184 -997 
L 738 -997 
L 738 2988 
z
" transform="scale(0.015625)"/>
        <path id="DejaVuSerif-66" d="M 2753 4078 
L 2450 4078 
Q 2447 4313 2317 4434 
Q 2188 4556 1941 4556 
Q 1619 4556 1487 4379 
Q 1356 4203 1356 3750 
L 1356 3322 
L 2284 3322 
L 2284 2988 
L 1356 2988 
L 1356 331 
L 2094 331 
L 2094 0 
L 231 0 
L 231 331 
L 781 331 
L 781 2988 
L 231 2988 
L 231 3322 
L 781 3322 
L 781 3738 
Q 781 4294 1070 4578 
Q 1359 4863 1919 4863 
Q 2128 4863 2337 4825 
Q 2547 4788 2753 4709 
L 2753 4078 
z
" transform="scale(0.015625)"/>
       </defs>
       <use xlink:href="#DejaVuSerif-52"/>
       <use xlink:href="#DejaVuSerif-75" transform="translate(75.292969 0)"/>
       <use xlink:href="#DejaVuSerif-6d" transform="translate(139.697266 0)"/>
       <use xlink:href="#DejaVuSerif-70" transform="translate(234.521484 0)"/>
       <use xlink:href="#DejaVuSerif-66" transform="translate(298.535156 0)"/>
      </g>
     </g>
    </g>
    <g id="xtick_7">
     <g id="line2d_7">
      <g>
       <use xlink:href="#m55ace1eca0" x="277.988913" y="309.536922" style="stroke: #000000; stroke-width: 0.8"/>
      </g>
     </g>
     <g id="text_7">
      <!-- Hüfte/Bein -->
      <g transform="translate(245.343892 347.453624) rotate(-40) scale(0.075 -0.075)">
       <defs>
        <path id="DejaVuSerif-fc" d="M 2266 3322 
L 3341 3322 
L 3341 331 
L 3884 331 
L 3884 0 
L 2766 0 
L 2766 588 
Q 2606 256 2353 82 
Q 2100 -91 1766 -91 
Q 1213 -91 952 223 
Q 691 538 691 1209 
L 691 2988 
L 172 2988 
L 172 3322 
L 1269 3322 
L 1269 1388 
Q 1269 781 1417 556 
Q 1566 331 1947 331 
Q 2347 331 2556 625 
Q 2766 919 2766 1478 
L 2766 2988 
L 2266 2988 
L 2266 3322 
z
M 1215 4903 
Q 1365 4903 1472 4795 
Q 1580 4688 1580 4538 
Q 1580 4378 1477 4275 
Q 1374 4172 1215 4172 
Q 1058 4172 955 4275 
Q 852 4378 852 4538 
Q 852 4688 960 4795 
Q 1068 4903 1215 4903 
z
M 2433 4903 
Q 2580 4903 2688 4795 
Q 2796 4688 2796 4538 
Q 2796 4378 2693 4275 
Q 2590 4172 2433 4172 
Q 2274 4172 2171 4275 
Q 2068 4378 2068 4538 
Q 2068 4688 2175 4795 
Q 2283 4903 2433 4903 
z
" transform="scale(0.015625)"/>
        <path id="DejaVuSerif-42" d="M 1581 331 
L 2516 331 
Q 3078 331 3337 575 
Q 3597 819 3597 1350 
Q 3597 1878 3339 2120 
Q 3081 2363 2516 2363 
L 1581 2363 
L 1581 331 
z
M 1581 2694 
L 2375 2694 
Q 2888 2694 3123 2891 
Q 3359 3088 3359 3513 
Q 3359 3941 3123 4136 
Q 2888 4331 2375 4331 
L 1581 4331 
L 1581 2694 
z
M 353 0 
L 353 331 
L 947 331 
L 947 4331 
L 353 4331 
L 353 4666 
L 2656 4666 
Q 3363 4666 3720 4377 
Q 4078 4088 4078 3513 
Q 4078 3097 3829 2850 
Q 3581 2603 3103 2547 
Q 3697 2472 4005 2167 
Q 4313 1863 4313 1350 
Q 4313 656 3875 328 
Q 3438 0 2509 0 
L 353 0 
z
" transform="scale(0.015625)"/>
       </defs>
       <use xlink:href="#DejaVuSerif-48"/>
       <use xlink:href="#DejaVuSerif-fc" transform="translate(87.207031 0)"/>
       <use xlink:href="#DejaVuSerif-66" transform="translate(151.611328 0)"/>
       <use xlink:href="#DejaVuSerif-74" transform="translate(188.623047 0)"/>
       <use xlink:href="#DejaVuSerif-65" transform="translate(228.808594 0)"/>
       <use xlink:href="#DejaVuSerif-2f" transform="translate(287.988281 0)"/>
       <use xlink:href="#DejaVuSerif-42" transform="translate(321.679688 0)"/>
       <use xlink:href="#DejaVuSerif-65" transform="translate(395.166016 0)"/>
       <use xlink:href="#DejaVuSerif-69" transform="translate(454.345703 0)"/>
       <use xlink:href="#DejaVuSerif-6e" transform="translate(486.328125 0)"/>
      </g>
     </g>
    </g>
    <g id="xtick_8">
     <g id="line2d_8">
      <g>
       <use xlink:href="#m55ace1eca0" x="312.43991" y="309.536922" style="stroke: #000000; stroke-width: 0.8"/>
      </g>
     </g>
     <g id="text_8">
      <!-- Fuß -->
      <g transform="translate(299.912533 330.572916) rotate(-40) scale(0.075 -0.075)">
       <defs>
        <path id="DejaVuSerif-df" d="M 2938 3781 
Q 2913 4153 2695 4354 
Q 2478 4556 2106 4556 
Q 1694 4556 1503 4354 
Q 1313 4153 1313 3719 
L 1313 0 
L 184 0 
L 184 331 
L 738 331 
L 738 3706 
Q 738 4256 1095 4559 
Q 1453 4863 2106 4863 
Q 2772 4863 3120 4538 
Q 3469 4213 3506 3553 
L 3438 3553 
Q 2984 3553 2723 3384 
Q 2463 3216 2463 2925 
Q 2463 2763 2547 2642 
Q 2631 2522 2859 2375 
L 3138 2203 
Q 3622 1894 3808 1628 
Q 3994 1363 3994 1006 
Q 3994 522 3633 215 
Q 3272 -91 2694 -91 
Q 2428 -91 2165 -33 
Q 1903 25 1656 134 
L 1656 863 
L 1997 863 
Q 2009 547 2182 383 
Q 2356 219 2675 219 
Q 3022 219 3220 408 
Q 3419 597 3419 922 
Q 3419 1184 3294 1367 
Q 3169 1550 2803 1778 
L 2534 1947 
Q 2209 2150 2070 2351 
Q 1931 2553 1931 2809 
Q 1931 3191 2195 3447 
Q 2459 3703 2938 3781 
z
" transform="scale(0.015625)"/>
       </defs>
       <use xlink:href="#DejaVuSerif-46"/>
       <use xlink:href="#DejaVuSerif-75" transform="translate(69.384766 0)"/>
       <use xlink:href="#DejaVuSerif-df" transform="translate(133.789062 0)"/>
      </g>
     </g>
    </g>
    <g id="xtick_9">
     <g id="line2d_9">
      <g>
       <use xlink:href="#m55ace1eca0" x="346.890908" y="309.536922" style="stroke: #000000; stroke-width: 0.8"/>
      </g>
     </g>
     <g id="text_9">
      <!-- Gesicht -->
      <g transform="translate(323.885479 339.365046) rotate(-40) scale(0.075 -0.075)">
       <defs>
        <path id="DejaVuSerif-47" d="M 4097 3272 
Q 3988 3856 3641 4136 
Q 3294 4416 2675 4416 
Q 1869 4416 1472 3897 
Q 1075 3378 1075 2328 
Q 1075 1300 1484 772 
Q 1894 244 2688 244 
Q 3041 244 3362 331 
Q 3684 419 3975 594 
L 3975 1797 
L 3097 1797 
L 3097 2131 
L 4609 2131 
L 4609 391 
Q 4194 150 3714 29 
Q 3234 -91 2688 -91 
Q 1631 -91 995 570 
Q 359 1231 359 2328 
Q 359 3434 996 4092 
Q 1634 4750 2713 4750 
Q 3113 4750 3539 4658 
Q 3966 4566 4447 4378 
L 4447 3272 
L 4097 3272 
z
" transform="scale(0.015625)"/>
        <path id="DejaVuSerif-73" d="M 359 184 
L 359 959 
L 691 959 
Q 703 588 923 403 
Q 1144 219 1575 219 
Q 1963 219 2166 364 
Q 2369 509 2369 788 
Q 2369 1006 2220 1140 
Q 2072 1275 1594 1428 
L 1178 1569 
Q 750 1706 558 1912 
Q 366 2119 366 2438 
Q 366 2894 700 3153 
Q 1034 3413 1625 3413 
Q 1888 3413 2178 3344 
Q 2469 3275 2778 3144 
L 2778 2419 
L 2447 2419 
Q 2434 2741 2221 2922 
Q 2009 3103 1644 3103 
Q 1281 3103 1095 2975 
Q 909 2847 909 2591 
Q 909 2381 1050 2254 
Q 1191 2128 1613 1997 
L 2069 1856 
Q 2541 1709 2748 1489 
Q 2956 1269 2956 922 
Q 2956 450 2595 179 
Q 2234 -91 1600 -91 
Q 1278 -91 972 -22 
Q 666 47 359 184 
z
" transform="scale(0.015625)"/>
       </defs>
       <use xlink:href="#DejaVuSerif-47"/>
       <use xlink:href="#DejaVuSerif-65" transform="translate(79.882812 0)"/>
       <use xlink:href="#DejaVuSerif-73" transform="translate(139.0625 0)"/>
       <use xlink:href="#DejaVuSerif-69" transform="translate(190.380859 0)"/>
       <use xlink:href="#DejaVuSerif-63" transform="translate(222.363281 0)"/>
       <use xlink:href="#DejaVuSerif-68" transform="translate(278.369141 0)"/>
       <use xlink:href="#DejaVuSerif-74" transform="translate(342.773438 0)"/>
      </g>
     </g>
    </g>
    <g id="xtick_10">
     <g id="line2d_10">
      <g>
       <use xlink:href="#m55ace1eca0" x="381.341906" y="309.536922" style="stroke: #000000; stroke-width: 0.8"/>
      </g>
     </g>
     <g id="text_10">
      <!-- Lippen/Zunge -->
      <g transform="translate(339.75449 354.817974) rotate(-40) scale(0.075 -0.075)">
       <defs>
        <path id="DejaVuSerif-4c" d="M 353 0 
L 353 331 
L 947 331 
L 947 4331 
L 353 4331 
L 353 4666 
L 2175 4666 
L 2175 4331 
L 1581 4331 
L 1581 384 
L 3713 384 
L 3713 1166 
L 4097 1166 
L 4097 0 
L 353 0 
z
" transform="scale(0.015625)"/>
        <path id="DejaVuSerif-5a" d="M 288 0 
L 288 225 
L 3194 4281 
L 781 4281 
L 781 3584 
L 397 3584 
L 397 4666 
L 4084 4666 
L 4084 4441 
L 1178 384 
L 3816 384 
L 3816 1038 
L 4197 1038 
L 4197 0 
L 288 0 
z
" transform="scale(0.015625)"/>
       </defs>
       <use xlink:href="#DejaVuSerif-4c"/>
       <use xlink:href="#DejaVuSerif-69" transform="translate(66.40625 0)"/>
       <use xlink:href="#DejaVuSerif-70" transform="translate(98.388672 0)"/>
       <use xlink:href="#DejaVuSerif-70" transform="translate(162.402344 0)"/>
       <use xlink:href="#DejaVuSerif-65" transform="translate(226.416016 0)"/>
       <use xlink:href="#DejaVuSerif-6e" transform="translate(285.595703 0)"/>
       <use xlink:href="#DejaVuSerif-2f" transform="translate(350 0)"/>
       <use xlink:href="#DejaVuSerif-5a" transform="translate(383.691406 0)"/>
       <use xlink:href="#DejaVuSerif-75" transform="translate(453.173828 0)"/>
       <use xlink:href="#DejaVuSerif-6e" transform="translate(517.578125 0)"/>
       <use xlink:href="#DejaVuSerif-67" transform="translate(581.982422 0)"/>
       <use xlink:href="#DejaVuSerif-65" transform="translate(645.996094 0)"/>
      </g>
     </g>
    </g>
   </g>
   <g id="matplotlib.axis_2">
    <g id="ytick_1">
     <g id="line2d_11">
      <path d="M 37.090313 309.536922 
L 410.366871 309.536922 
" clip-path="url(#pe2015a7b98)" style="fill: none; stroke: #b0b0b0; stroke-opacity: 0.3; stroke-width: 0.8; stroke-linecap: square"/>
     </g>
     <g id="line2d_12">
      <defs>
       <path id="m544258783e" d="M 0 0 
L -3.5 0 
" style="stroke: #000000; stroke-width: 0.8"/>
      </defs>
      <g>
       <use xlink:href="#m544258783e" x="37.090313" y="309.536922" style="stroke: #000000; stroke-width: 0.8"/>
      </g>
     </g>
     <g id="text_11">
      <!-- 0 -->
      <g transform="translate(25.000313 312.576297) scale(0.08 -0.08)">
       <defs>
        <path id="DejaVuSerif-30" d="M 2034 219 
Q 2513 219 2750 744 
Q 2988 1269 2988 2328 
Q 2988 3391 2750 3916 
Q 2513 4441 2034 4441 
Q 1556 4441 1318 3916 
Q 1081 3391 1081 2328 
Q 1081 1269 1318 744 
Q 1556 219 2034 219 
z
M 2034 -91 
Q 1275 -91 848 546 
Q 422 1184 422 2328 
Q 422 3475 848 4112 
Q 1275 4750 2034 4750 
Q 2797 4750 3222 4112 
Q 3647 3475 3647 2328 
Q 3647 1184 3222 546 
Q 2797 -91 2034 -91 
z
" transform="scale(0.015625)"/>
       </defs>
       <use xlink:href="#DejaVuSerif-30"/>
      </g>
     </g>
    </g>
    <g id="ytick_2">
     <g id="line2d_13">
      <path d="M 37.090313 258.206038 
L 410.366871 258.206038 
" clip-path="url(#pe2015a7b98)" style="fill: none; stroke: #b0b0b0; stroke-opacity: 0.3; stroke-width: 0.8; stroke-linecap: square"/>
     </g>
     <g id="line2d_14">
      <g>
       <use xlink:href="#m544258783e" x="37.090313" y="258.206038" style="stroke: #000000; stroke-width: 0.8"/>
      </g>
     </g>
     <g id="text_12">
      <!-- 2 -->
      <g transform="translate(25.000313 261.245413) scale(0.08 -0.08)">
       <defs>
        <path id="DejaVuSerif-32" d="M 819 3553 
L 469 3553 
L 469 4384 
Q 803 4563 1142 4656 
Q 1481 4750 1806 4750 
Q 2534 4750 2956 4397 
Q 3378 4044 3378 3438 
Q 3378 2753 2422 1800 
Q 2347 1728 2309 1691 
L 1131 513 
L 3078 513 
L 3078 1088 
L 3444 1088 
L 3444 0 
L 434 0 
L 434 341 
L 1850 1753 
Q 2319 2222 2519 2614 
Q 2719 3006 2719 3438 
Q 2719 3909 2473 4175 
Q 2228 4441 1797 4441 
Q 1350 4441 1106 4219 
Q 863 3997 819 3553 
z
" transform="scale(0.015625)"/>
       </defs>
       <use xlink:href="#DejaVuSerif-32"/>
      </g>
     </g>
    </g>
    <g id="ytick_3">
     <g id="line2d_15">
      <path d="M 37.090313 206.875153 
L 410.366871 206.875153 
" clip-path="url(#pe2015a7b98)" style="fill: none; stroke: #b0b0b0; stroke-opacity: 0.3; stroke-width: 0.8; stroke-linecap: square"/>
     </g>
     <g id="line2d_16">
      <g>
       <use xlink:href="#m544258783e" x="37.090313" y="206.875153" style="stroke: #000000; stroke-width: 0.8"/>
      </g>
     </g>
     <g id="text_13">
      <!-- 4 -->
      <g transform="translate(25.000313 209.914528) scale(0.08 -0.08)">
       <defs>
        <path id="DejaVuSerif-34" d="M 2234 1581 
L 2234 4063 
L 641 1581 
L 2234 1581 
z
M 3609 0 
L 1484 0 
L 1484 331 
L 2234 331 
L 2234 1247 
L 197 1247 
L 197 1588 
L 2241 4750 
L 2859 4750 
L 2859 1581 
L 3750 1581 
L 3750 1247 
L 2859 1247 
L 2859 331 
L 3609 331 
L 3609 0 
z
" transform="scale(0.015625)"/>
       </defs>
       <use xlink:href="#DejaVuSerif-34"/>
      </g>
     </g>
    </g>
    <g id="ytick_4">
     <g id="line2d_17">
      <path d="M 37.090313 155.544269 
L 410.366871 155.544269 
" clip-path="url(#pe2015a7b98)" style="fill: none; stroke: #b0b0b0; stroke-opacity: 0.3; stroke-width: 0.8; stroke-linecap: square"/>
     </g>
     <g id="line2d_18">
      <g>
       <use xlink:href="#m544258783e" x="37.090313" y="155.544269" style="stroke: #000000; stroke-width: 0.8"/>
      </g>
     </g>
     <g id="text_14">
      <!-- 6 -->
      <g transform="translate(25.000313 158.583644) scale(0.08 -0.08)">
       <defs>
        <path id="DejaVuSerif-36" d="M 2094 219 
Q 2534 219 2771 542 
Q 3009 866 3009 1472 
Q 3009 2078 2771 2401 
Q 2534 2725 2094 2725 
Q 1647 2725 1412 2412 
Q 1178 2100 1178 1509 
Q 1178 888 1415 553 
Q 1653 219 2094 219 
z
M 1075 2569 
Q 1288 2803 1556 2918 
Q 1825 3034 2163 3034 
Q 2859 3034 3264 2615 
Q 3669 2197 3669 1472 
Q 3669 763 3233 336 
Q 2797 -91 2069 -91 
Q 1278 -91 853 498 
Q 428 1088 428 2181 
Q 428 3406 931 4078 
Q 1434 4750 2350 4750 
Q 2597 4750 2869 4703 
Q 3141 4656 3425 4563 
L 3425 3794 
L 3072 3794 
Q 3034 4109 2831 4275 
Q 2628 4441 2284 4441 
Q 1678 4441 1381 3981 
Q 1084 3522 1075 2569 
z
" transform="scale(0.015625)"/>
       </defs>
       <use xlink:href="#DejaVuSerif-36"/>
      </g>
     </g>
    </g>
    <g id="ytick_5">
     <g id="line2d_19">
      <path d="M 37.090313 104.213384 
L 410.366871 104.213384 
" clip-path="url(#pe2015a7b98)" style="fill: none; stroke: #b0b0b0; stroke-opacity: 0.3; stroke-width: 0.8; stroke-linecap: square"/>
     </g>
     <g id="line2d_20">
      <g>
       <use xlink:href="#m544258783e" x="37.090313" y="104.213384" style="stroke: #000000; stroke-width: 0.8"/>
      </g>
     </g>
     <g id="text_15">
      <!-- 8 -->
      <g transform="translate(25.000313 107.252759) scale(0.08 -0.08)">
       <defs>
        <path id="DejaVuSerif-38" d="M 2981 1275 
Q 2981 1775 2732 2051 
Q 2484 2328 2034 2328 
Q 1584 2328 1336 2051 
Q 1088 1775 1088 1275 
Q 1088 772 1336 495 
Q 1584 219 2034 219 
Q 2484 219 2732 495 
Q 2981 772 2981 1275 
z
M 2853 3541 
Q 2853 3966 2637 4203 
Q 2422 4441 2034 4441 
Q 1650 4441 1433 4203 
Q 1216 3966 1216 3541 
Q 1216 3113 1433 2875 
Q 1650 2638 2034 2638 
Q 2422 2638 2637 2875 
Q 2853 3113 2853 3541 
z
M 2516 2484 
Q 3047 2413 3344 2092 
Q 3641 1772 3641 1275 
Q 3641 619 3225 264 
Q 2809 -91 2034 -91 
Q 1263 -91 845 264 
Q 428 619 428 1275 
Q 428 1772 725 2092 
Q 1022 2413 1556 2484 
Q 1084 2569 832 2842 
Q 581 3116 581 3541 
Q 581 4103 968 4426 
Q 1356 4750 2034 4750 
Q 2713 4750 3100 4426 
Q 3488 4103 3488 3541 
Q 3488 3116 3236 2842 
Q 2984 2569 2516 2484 
z
" transform="scale(0.015625)"/>
       </defs>
       <use xlink:href="#DejaVuSerif-38"/>
      </g>
     </g>
    </g>
    <g id="ytick_6">
     <g id="line2d_21">
      <path d="M 37.090313 52.8825 
L 410.366871 52.8825 
" clip-path="url(#pe2015a7b98)" style="fill: none; stroke: #b0b0b0; stroke-opacity: 0.3; stroke-width: 0.8; stroke-linecap: square"/>
     </g>
     <g id="line2d_22">
      <g>
       <use xlink:href="#m544258783e" x="37.090313" y="52.8825" style="stroke: #000000; stroke-width: 0.8"/>
      </g>
     </g>
     <g id="text_16">
      <!-- 10 -->
      <g transform="translate(19.910313 55.921875) scale(0.08 -0.08)">
       <defs>
        <path id="DejaVuSerif-31" d="M 909 0 
L 909 331 
L 1722 331 
L 1722 4213 
L 781 3603 
L 781 4013 
L 1919 4750 
L 2350 4750 
L 2350 331 
L 3163 331 
L 3163 0 
L 909 0 
z
" transform="scale(0.015625)"/>
       </defs>
       <use xlink:href="#DejaVuSerif-31"/>
       <use xlink:href="#DejaVuSerif-30" transform="translate(63.623047 0)"/>
      </g>
     </g>
    </g>
    <g id="text_17">
     <!-- Kortikale Fläche [rel. Einheiten] -->
     <g transform="translate(14.038594 254.879633) rotate(-90) scale(0.09 -0.09)">
      <defs>
       <path id="DejaVuSerif-4b" d="M 353 0 
L 353 331 
L 947 331 
L 947 4331 
L 353 4331 
L 353 4666 
L 2175 4666 
L 2175 4331 
L 1581 4331 
L 1581 2566 
L 3591 4331 
L 3084 4331 
L 3084 4666 
L 4634 4666 
L 4634 4331 
L 4109 4331 
L 2106 2572 
L 4347 331 
L 4878 331 
L 4878 0 
L 3794 0 
L 1581 2216 
L 1581 331 
L 2175 331 
L 2175 0 
L 353 0 
z
" transform="scale(0.015625)"/>
       <path id="DejaVuSerif-6f" d="M 1925 219 
Q 2388 219 2623 584 
Q 2859 950 2859 1663 
Q 2859 2375 2623 2739 
Q 2388 3103 1925 3103 
Q 1463 3103 1227 2739 
Q 991 2375 991 1663 
Q 991 950 1228 584 
Q 1466 219 1925 219 
z
M 1925 -91 
Q 1200 -91 759 389 
Q 319 869 319 1663 
Q 319 2456 758 2934 
Q 1197 3413 1925 3413 
Q 2653 3413 3092 2934 
Q 3531 2456 3531 1663 
Q 3531 869 3092 389 
Q 2653 -91 1925 -91 
z
" transform="scale(0.015625)"/>
       <path id="DejaVuSerif-20" transform="scale(0.015625)"/>
       <path id="DejaVuSerif-e4" d="M 2547 1044 
L 2547 1747 
L 1806 1747 
Q 1378 1747 1168 1562 
Q 959 1378 959 997 
Q 959 650 1171 447 
Q 1384 244 1747 244 
Q 2106 244 2326 466 
Q 2547 688 2547 1044 
z
M 3122 2075 
L 3122 331 
L 3634 331 
L 3634 0 
L 2547 0 
L 2547 359 
Q 2356 128 2106 18 
Q 1856 -91 1522 -91 
Q 969 -91 644 203 
Q 319 497 319 997 
Q 319 1513 691 1797 
Q 1063 2081 1741 2081 
L 2547 2081 
L 2547 2309 
Q 2547 2688 2317 2895 
Q 2088 3103 1672 3103 
Q 1328 3103 1125 2947 
Q 922 2791 872 2484 
L 575 2484 
L 575 3156 
Q 875 3284 1158 3348 
Q 1441 3413 1709 3413 
Q 2400 3413 2761 3070 
Q 3122 2728 3122 2075 
z
M 1167 4903 
Q 1317 4903 1424 4795 
Q 1532 4688 1532 4538 
Q 1532 4378 1429 4275 
Q 1326 4172 1167 4172 
Q 1010 4172 907 4275 
Q 804 4378 804 4538 
Q 804 4688 912 4795 
Q 1020 4903 1167 4903 
z
M 2385 4903 
Q 2532 4903 2640 4795 
Q 2748 4688 2748 4538 
Q 2748 4378 2645 4275 
Q 2542 4172 2385 4172 
Q 2226 4172 2123 4275 
Q 2020 4378 2020 4538 
Q 2020 4688 2127 4795 
Q 2235 4903 2385 4903 
z
" transform="scale(0.015625)"/>
       <path id="DejaVuSerif-5b" d="M 550 4863 
L 2003 4863 
L 2003 4531 
L 1147 4531 
L 1147 -513 
L 2003 -513 
L 2003 -844 
L 550 -844 
L 550 4863 
z
" transform="scale(0.015625)"/>
       <path id="DejaVuSerif-2e" d="M 603 325 
Q 603 500 722 622 
Q 841 744 1019 744 
Q 1191 744 1312 622 
Q 1434 500 1434 325 
Q 1434 153 1312 31 
Q 1191 -91 1019 -91 
Q 841 -91 722 29 
Q 603 150 603 325 
z
" transform="scale(0.015625)"/>
       <path id="DejaVuSerif-45" d="M 353 0 
L 353 331 
L 947 331 
L 947 4331 
L 353 4331 
L 353 4666 
L 4109 4666 
L 4109 3628 
L 3725 3628 
L 3725 4281 
L 1581 4281 
L 1581 2719 
L 3109 2719 
L 3109 3303 
L 3494 3303 
L 3494 1753 
L 3109 1753 
L 3109 2338 
L 1581 2338 
L 1581 384 
L 3775 384 
L 3775 1038 
L 4159 1038 
L 4159 0 
L 353 0 
z
" transform="scale(0.015625)"/>
       <path id="DejaVuSerif-5d" d="M 1947 4863 
L 1947 -844 
L 494 -844 
L 494 -513 
L 1350 -513 
L 1350 4531 
L 494 4531 
L 494 4863 
L 1947 4863 
z
" transform="scale(0.015625)"/>
      </defs>
      <use xlink:href="#DejaVuSerif-4b"/>
      <use xlink:href="#DejaVuSerif-6f" transform="translate(72.082031 0)"/>
      <use xlink:href="#DejaVuSerif-72" transform="translate(132.287109 0)"/>
      <use xlink:href="#DejaVuSerif-74" transform="translate(180.089844 0)"/>
      <use xlink:href="#DejaVuSerif-69" transform="translate(220.275391 0)"/>
      <use xlink:href="#DejaVuSerif-6b" transform="translate(252.257812 0)"/>
      <use xlink:href="#DejaVuSerif-61" transform="translate(312.853516 0)"/>
      <use xlink:href="#DejaVuSerif-6c" transform="translate(372.472656 0)"/>
      <use xlink:href="#DejaVuSerif-65" transform="translate(404.455078 0)"/>
      <use xlink:href="#DejaVuSerif-20" transform="translate(463.634766 0)"/>
      <use xlink:href="#DejaVuSerif-46" transform="translate(495.421875 0)"/>
      <use xlink:href="#DejaVuSerif-6c" transform="translate(564.806641 0)"/>
      <use xlink:href="#DejaVuSerif-e4" transform="translate(596.789062 0)"/>
      <use xlink:href="#DejaVuSerif-63" transform="translate(656.408203 0)"/>
      <use xlink:href="#DejaVuSerif-68" transform="translate(712.414062 0)"/>
      <use xlink:href="#DejaVuSerif-65" transform="translate(776.818359 0)"/>
      <use xlink:href="#DejaVuSerif-20" transform="translate(835.998047 0)"/>
      <use xlink:href="#DejaVuSerif-5b" transform="translate(867.785156 0)"/>
      <use xlink:href="#DejaVuSerif-72" transform="translate(906.798828 0)"/>
      <use xlink:href="#DejaVuSerif-65" transform="translate(954.601562 0)"/>
      <use xlink:href="#DejaVuSerif-6c" transform="translate(1013.78125 0)"/>
      <use xlink:href="#DejaVuSerif-2e" transform="translate(1045.763672 0)"/>
      <use xlink:href="#DejaVuSerif-20" transform="translate(1077.550781 0)"/>
      <use xlink:href="#DejaVuSerif-45" transform="translate(1109.337891 0)"/>
      <use xlink:href="#DejaVuSerif-69" transform="translate(1182.335938 0)"/>
      <use xlink:href="#DejaVuSerif-6e" transform="translate(1214.318359 0)"/>
      <use xlink:href="#DejaVuSerif-68" transform="translate(1278.722656 0)"/>
      <use xlink:href="#DejaVuSerif-65" transform="translate(1343.126953 0)"/>
      <use xlink:href="#DejaVuSerif-69" transform="translate(1402.306641 0)"/>
      <use xlink:href="#DejaVuSerif-74" transform="translate(1434.289062 0)"/>
      <use xlink:href="#DejaVuSerif-65" transform="translate(1474.474609 0)"/>
      <use xlink:href="#DejaVuSerif-6e" transform="translate(1533.654297 0)"/>
      <use xlink:href="#DejaVuSerif-5d" transform="translate(1598.058594 0)"/>
     </g>
    </g>
   </g>
   <g id="patch_24">
    <path d="M 37.090313 309.536922 
L 37.090313 52.8825 
" style="fill: none; stroke: #000000; stroke-width: 0.8; stroke-linejoin: miter; stroke-linecap: square"/>
   </g>
   <g id="patch_25">
    <path d="M 410.366871 309.536922 
L 410.366871 52.8825 
" style="fill: none; stroke: #000000; stroke-width: 0.8; stroke-linejoin: miter; stroke-linecap: square"/>
   </g>
   <g id="patch_26">
    <path d="M 37.090313 309.536922 
L 410.366871 309.536922 
" style="fill: none; stroke: #000000; stroke-width: 0.8; stroke-linejoin: miter; stroke-linecap: square"/>
   </g>
   <g id="patch_27">
    <path d="M 37.090313 52.8825 
L 410.366871 52.8825 
" style="fill: none; stroke: #000000; stroke-width: 0.8; stroke-linejoin: miter; stroke-linecap: square"/>
   </g>
   <g id="patch_28">
    <path d="M 57.732066 88.814119 
Q 88.508798 88.814119 119.285531 88.814119 
" style="fill: none; stroke: #c0392b; stroke-width: 1.5; stroke-linecap: round"/>
    <path d="M 61.332066 90.614119 
L 57.732066 88.814119 
L 61.332066 87.014119 
" style="fill: none; stroke: #c0392b; stroke-width: 1.5; stroke-linecap: round"/>
    <path d="M 115.685531 87.014119 
L 119.285531 88.814119 
L 115.685531 90.614119 
" style="fill: none; stroke: #c0392b; stroke-width: 1.5; stroke-linecap: round"/>
   </g>
   <g id="text_18">
    <!-- Hand-Areale -->
    <g style="fill: #c0392b" transform="translate(62.946551 83.681031) scale(0.08 -0.08)">
     <defs>
      <path id="DejaVuSerif-2d" d="M 281 1959 
L 1881 1959 
L 1881 1472 
L 281 1472 
L 281 1959 
z
" transform="scale(0.015625)"/>
     </defs>
     <use xlink:href="#DejaVuSerif-48"/>
     <use xlink:href="#DejaVuSerif-61" transform="translate(87.207031 0)"/>
     <use xlink:href="#DejaVuSerif-6e" transform="translate(146.826172 0)"/>
     <use xlink:href="#DejaVuSerif-64" transform="translate(211.230469 0)"/>
     <use xlink:href="#DejaVuSerif-2d" transform="translate(275.244141 0)"/>
     <use xlink:href="#DejaVuSerif-41" transform="translate(309.033203 0)"/>
     <use xlink:href="#DejaVuSerif-72" transform="translate(381.25 0)"/>
     <use xlink:href="#DejaVuSerif-65" transform="translate(429.052734 0)"/>
     <use xlink:href="#DejaVuSerif-61" transform="translate(488.232422 0)"/>
     <use xlink:href="#DejaVuSerif-6c" transform="translate(547.851562 0)"/>
     <use xlink:href="#DejaVuSerif-65" transform="translate(579.833984 0)"/>
    </g>
   </g>
   <g id="text_19">
    <!-- Kortikale Repräsentationsflächen im Homunkulus -->
    <g transform="translate(97.183279 46.8825) scale(0.1 -0.1)">
     <use xlink:href="#DejaVuSerif-4b"/>
     <use xlink:href="#DejaVuSerif-6f" transform="translate(72.082031 0)"/>
     <use xlink:href="#DejaVuSerif-72" transform="translate(132.287109 0)"/>
     <use xlink:href="#DejaVuSerif-74" transform="translate(180.089844 0)"/>
     <use xlink:href="#DejaVuSerif-69" transform="translate(220.275391 0)"/>
     <use xlink:href="#DejaVuSerif-6b" transform="translate(252.257812 0)"/>
     <use xlink:href="#DejaVuSerif-61" transform="translate(312.853516 0)"/>
     <use xlink:href="#DejaVuSerif-6c" transform="translate(372.472656 0)"/>
     <use xlink:href="#DejaVuSerif-65" transform="translate(404.455078 0)"/>
     <use xlink:href="#DejaVuSerif-20" transform="translate(463.634766 0)"/>
     <use xlink:href="#DejaVuSerif-52" transform="translate(495.421875 0)"/>
     <use xlink:href="#DejaVuSerif-65" transform="translate(570.714844 0)"/>
     <use xlink:href="#DejaVuSerif-70" transform="translate(629.894531 0)"/>
     <use xlink:href="#DejaVuSerif-72" transform="translate(693.908203 0)"/>
     <use xlink:href="#DejaVuSerif-e4" transform="translate(741.710938 0)"/>
     <use xlink:href="#DejaVuSerif-73" transform="translate(801.330078 0)"/>
     <use xlink:href="#DejaVuSerif-65" transform="translate(852.648438 0)"/>
     <use xlink:href="#DejaVuSerif-6e" transform="translate(911.828125 0)"/>
     <use xlink:href="#DejaVuSerif-74" transform="translate(976.232422 0)"/>
     <use xlink:href="#DejaVuSerif-61" transform="translate(1016.417969 0)"/>
     <use xlink:href="#DejaVuSerif-74" transform="translate(1076.037109 0)"/>
     <use xlink:href="#DejaVuSerif-69" transform="translate(1116.222656 0)"/>
     <use xlink:href="#DejaVuSerif-6f" transform="translate(1148.205078 0)"/>
     <use xlink:href="#DejaVuSerif-6e" transform="translate(1208.410156 0)"/>
     <use xlink:href="#DejaVuSerif-73" transform="translate(1272.814453 0)"/>
     <use xlink:href="#DejaVuSerif-66" transform="translate(1324.132812 0)"/>
     <use xlink:href="#DejaVuSerif-6c" transform="translate(1361.144531 0)"/>
     <use xlink:href="#DejaVuSerif-e4" transform="translate(1393.126953 0)"/>
     <use xlink:href="#DejaVuSerif-63" transform="translate(1452.746094 0)"/>
     <use xlink:href="#DejaVuSerif-68" transform="translate(1508.751953 0)"/>
     <use xlink:href="#DejaVuSerif-65" transform="translate(1573.15625 0)"/>
     <use xlink:href="#DejaVuSerif-6e" transform="translate(1632.335938 0)"/>
     <use xlink:href="#DejaVuSerif-20" transform="translate(1696.740234 0)"/>
     <use xlink:href="#DejaVuSerif-69" transform="translate(1728.527344 0)"/>
     <use xlink:href="#DejaVuSerif-6d" transform="translate(1760.509766 0)"/>
     <use xlink:href="#DejaVuSerif-20" transform="translate(1855.333984 0)"/>
     <use xlink:href="#DejaVuSerif-48" transform="translate(1887.121094 0)"/>
     <use xlink:href="#DejaVuSerif-6f" transform="translate(1974.328125 0)"/>
     <use xlink:href="#DejaVuSerif-6d" transform="translate(2034.533203 0)"/>
     <use xlink:href="#DejaVuSerif-75" transform="translate(2129.357422 0)"/>
     <use xlink:href="#DejaVuSerif-6e" transform="translate(2193.761719 0)"/>
     <use xlink:href="#DejaVuSerif-6b" transform="translate(2258.166016 0)"/>
     <use xlink:href="#DejaVuSerif-75" transform="translate(2318.761719 0)"/>
     <use xlink:href="#DejaVuSerif-6c" transform="translate(2383.166016 0)"/>
     <use xlink:href="#DejaVuSerif-75" transform="translate(2415.148438 0)"/>
     <use xlink:href="#DejaVuSerif-73" transform="translate(2479.552734 0)"/>
    </g>
   </g>
   <g id="legend_1">
    <g id="patch_29">
     <path d="M 316.546871 82.7675 
L 404.766871 82.7675 
Q 406.366871 82.7675 406.366871 81.1675 
L 406.366871 58.4825 
Q 406.366871 56.8825 404.766871 56.8825 
L 316.546871 56.8825 
Q 314.946871 56.8825 314.946871 58.4825 
L 314.946871 81.1675 
Q 314.946871 82.7675 316.546871 82.7675 
z
" style="fill: #ffffff; opacity: 0.8; stroke: #cccccc; stroke-linejoin: miter"/>
    </g>
    <g id="patch_30">
     <path d="M 318.146871 66.16125 
L 334.146871 66.16125 
L 334.146871 60.56125 
L 318.146871 60.56125 
z
" style="fill: #c0392b; opacity: 0.85"/>
    </g>
    <g id="text_20">
     <!-- S1 (sensorisch) -->
     <g transform="translate(340.546871 66.16125) scale(0.08 -0.08)">
      <defs>
       <path id="DejaVuSerif-28" d="M 2041 -997 
Q 1281 -656 893 83 
Q 506 822 506 1931 
Q 506 3044 893 3783 
Q 1281 4522 2041 4863 
L 2041 4556 
Q 1559 4225 1350 3623 
Q 1141 3022 1141 1931 
Q 1141 844 1350 242 
Q 1559 -359 2041 -691 
L 2041 -997 
z
" transform="scale(0.015625)"/>
       <path id="DejaVuSerif-29" d="M 453 -997 
L 453 -691 
Q 934 -359 1145 242 
Q 1356 844 1356 1931 
Q 1356 3022 1145 3623 
Q 934 4225 453 4556 
L 453 4863 
Q 1216 4522 1603 3783 
Q 1991 3044 1991 1931 
Q 1991 822 1603 83 
Q 1216 -656 453 -997 
z
" transform="scale(0.015625)"/>
      </defs>
      <use xlink:href="#DejaVuSerif-53"/>
      <use xlink:href="#DejaVuSerif-31" transform="translate(68.505859 0)"/>
      <use xlink:href="#DejaVuSerif-20" transform="translate(132.128906 0)"/>
      <use xlink:href="#DejaVuSerif-28" transform="translate(163.916016 0)"/>
      <use xlink:href="#DejaVuSerif-73" transform="translate(202.929688 0)"/>
      <use xlink:href="#DejaVuSerif-65" transform="translate(254.248047 0)"/>
      <use xlink:href="#DejaVuSerif-6e" transform="translate(313.427734 0)"/>
      <use xlink:href="#DejaVuSerif-73" transform="translate(377.832031 0)"/>
      <use xlink:href="#DejaVuSerif-6f" transform="translate(429.150391 0)"/>
      <use xlink:href="#DejaVuSerif-72" transform="translate(489.355469 0)"/>
      <use xlink:href="#DejaVuSerif-69" transform="translate(537.158203 0)"/>
      <use xlink:href="#DejaVuSerif-73" transform="translate(569.140625 0)"/>
      <use xlink:href="#DejaVuSerif-63" transform="translate(620.458984 0)"/>
      <use xlink:href="#DejaVuSerif-68" transform="translate(676.464844 0)"/>
      <use xlink:href="#DejaVuSerif-29" transform="translate(740.869141 0)"/>
     </g>
    </g>
    <g id="patch_31">
     <path d="M 318.146871 77.90375 
L 334.146871 77.90375 
L 334.146871 72.30375 
L 318.146871 72.30375 
z
" style="fill: #c0392b; opacity: 0.6"/>
    </g>
    <g id="text_21">
     <!-- M1 (motorisch) -->
     <g transform="translate(340.546871 77.90375) scale(0.08 -0.08)">
      <defs>
       <path id="DejaVuSerif-4d" d="M 353 0 
L 353 331 
L 947 331 
L 947 4331 
L 319 4331 
L 319 4666 
L 1678 4666 
L 3316 1344 
L 4953 4666 
L 6228 4666 
L 6228 4331 
L 5606 4331 
L 5606 331 
L 6203 331 
L 6203 0 
L 4378 0 
L 4378 331 
L 4972 331 
L 4972 3938 
L 3372 684 
L 2931 684 
L 1331 3938 
L 1331 331 
L 1925 331 
L 1925 0 
L 353 0 
z
" transform="scale(0.015625)"/>
      </defs>
      <use xlink:href="#DejaVuSerif-4d"/>
      <use xlink:href="#DejaVuSerif-31" transform="translate(102.392578 0)"/>
      <use xlink:href="#DejaVuSerif-20" transform="translate(166.015625 0)"/>
      <use xlink:href="#DejaVuSerif-28" transform="translate(197.802734 0)"/>
      <use xlink:href="#DejaVuSerif-6d" transform="translate(236.816406 0)"/>
      <use xlink:href="#DejaVuSerif-6f" transform="translate(331.640625 0)"/>
      <use xlink:href="#DejaVuSerif-74" transform="translate(391.845703 0)"/>
      <use xlink:href="#DejaVuSerif-6f" transform="translate(432.03125 0)"/>
      <use xlink:href="#DejaVuSerif-72" transform="translate(492.236328 0)"/>
      <use xlink:href="#DejaVuSerif-69" transform="translate(540.039062 0)"/>
      <use xlink:href="#DejaVuSerif-73" transform="translate(572.021484 0)"/>
      <use xlink:href="#DejaVuSerif-63" transform="translate(623.339844 0)"/>
      <use xlink:href="#DejaVuSerif-68" transform="translate(679.345703 0)"/>
      <use xlink:href="#DejaVuSerif-29" transform="translate(743.75 0)"/>
     </g>
    </g>
   </g>
  </g>
  <g id="axes_2">
   <g id="patch_32">
    <path d="M 466.806871 309.536922 
L 840.083429 309.536922 
L 840.083429 52.8825 
L 466.806871 52.8825 
z
" style="fill: #ffffff"/>
   </g>
   <g id="patch_33">
    <path d="M 466.806871 297.870812 
L 822.308355 297.870812 
L 822.308355 278.824102 
L 466.806871 278.824102 
z
" clip-path="url(#pf1ff447990)" style="fill: #c0392b; opacity: 0.85"/>
   </g>
   <g id="patch_34">
    <path d="M 466.806871 274.062424 
L 509.598716 274.062424 
L 509.598716 255.015714 
L 466.806871 255.015714 
z
" clip-path="url(#pf1ff447990)" style="fill: #c0392b; opacity: 0.85"/>
   </g>
   <g id="patch_35">
    <path d="M 466.806871 250.254036 
L 482.360061 250.254036 
L 482.360061 231.207326 
L 466.806871 231.207326 
z
" clip-path="url(#pf1ff447990)" style="fill: #e67e22; opacity: 0.85"/>
   </g>
   <g id="patch_36">
    <path d="M 466.806871 226.445648 
L 470.192599 226.445648 
L 470.192599 207.398938 
L 466.806871 207.398938 
z
" clip-path="url(#pf1ff447990)" style="fill: #1a4e8a; opacity: 0.85"/>
   </g>
   <g id="patch_37">
    <path d="M 466.806871 202.63726 
L 470.139697 202.63726 
L 470.139697 183.59055 
L 466.806871 183.59055 
z
" clip-path="url(#pf1ff447990)" style="fill: #1a4e8a; opacity: 0.85"/>
   </g>
   <g id="patch_38">
    <path d="M 466.806871 178.828872 
L 467.56866 178.828872 
L 467.56866 159.782162 
L 466.806871 159.782162 
z
" clip-path="url(#pf1ff447990)" style="fill: #1a4e8a; opacity: 0.85"/>
   </g>
   <g id="patch_39">
    <path d="M 466.806871 155.020484 
L 470.633449 155.020484 
L 470.633449 135.973774 
L 466.806871 135.973774 
z
" clip-path="url(#pf1ff447990)" style="fill: #27ae60; opacity: 0.85"/>
   </g>
   <g id="patch_40">
    <path d="M 466.806871 131.212096 
L 518.157085 131.212096 
L 518.157085 112.165386 
L 466.806871 112.165386 
z
" clip-path="url(#pf1ff447990)" style="fill: #27ae60; opacity: 0.85"/>
   </g>
   <g id="patch_41">
    <path d="M 466.806871 107.403708 
L 484.581945 107.403708 
L 484.581945 88.356998 
L 466.806871 88.356998 
z
" clip-path="url(#pf1ff447990)" style="fill: #27ae60; opacity: 0.85"/>
   </g>
   <g id="patch_42">
    <path d="M 466.806871 83.59532 
L 817.370835 83.59532 
L 817.370835 64.54861 
L 466.806871 64.54861 
z
" clip-path="url(#pf1ff447990)" style="fill: #27ae60; opacity: 0.85"/>
   </g>
   <g id="matplotlib.axis_3">
    <g id="xtick_11">
     <g id="line2d_23">
      <path d="M 466.806871 309.536922 
L 466.806871 52.8825 
" clip-path="url(#pf1ff447990)" style="fill: none; stroke: #b0b0b0; stroke-opacity: 0.3; stroke-width: 0.8; stroke-linecap: square"/>
     </g>
     <g id="line2d_24">
      <g>
       <use xlink:href="#m55ace1eca0" x="466.806871" y="309.536922" style="stroke: #000000; stroke-width: 0.8"/>
      </g>
     </g>
     <g id="text_22">
      <!-- 0 -->
      <g transform="translate(464.261871 322.615672) scale(0.08 -0.08)">
       <use xlink:href="#DejaVuSerif-30"/>
      </g>
     </g>
    </g>
    <g id="xtick_12">
     <g id="line2d_25">
      <path d="M 540.86968 309.536922 
L 540.86968 52.8825 
" clip-path="url(#pf1ff447990)" style="fill: none; stroke: #b0b0b0; stroke-opacity: 0.3; stroke-width: 0.8; stroke-linecap: square"/>
     </g>
     <g id="line2d_26">
      <g>
       <use xlink:href="#m55ace1eca0" x="540.86968" y="309.536922" style="stroke: #000000; stroke-width: 0.8"/>
      </g>
     </g>
     <g id="text_23">
      <!-- 50 -->
      <g transform="translate(535.77968 322.615672) scale(0.08 -0.08)">
       <defs>
        <path id="DejaVuSerif-35" d="M 3219 4666 
L 3219 4153 
L 1081 4153 
L 1081 2816 
Q 1244 2928 1461 2984 
Q 1678 3041 1947 3041 
Q 2703 3041 3140 2622 
Q 3578 2203 3578 1478 
Q 3578 738 3136 323 
Q 2694 -91 1894 -91 
Q 1572 -91 1234 -12 
Q 897 66 544 225 
L 544 1131 
L 897 1131 
Q 925 688 1179 453 
Q 1434 219 1894 219 
Q 2388 219 2653 544 
Q 2919 869 2919 1478 
Q 2919 2084 2655 2407 
Q 2391 2731 1894 2731 
Q 1613 2731 1398 2631 
Q 1184 2531 1019 2322 
L 750 2322 
L 750 4666 
L 3219 4666 
z
" transform="scale(0.015625)"/>
       </defs>
       <use xlink:href="#DejaVuSerif-35"/>
       <use xlink:href="#DejaVuSerif-30" transform="translate(63.623047 0)"/>
      </g>
     </g>
    </g>
    <g id="xtick_13">
     <g id="line2d_27">
      <path d="M 614.932489 309.536922 
L 614.932489 52.8825 
" clip-path="url(#pf1ff447990)" style="fill: none; stroke: #b0b0b0; stroke-opacity: 0.3; stroke-width: 0.8; stroke-linecap: square"/>
     </g>
     <g id="line2d_28">
      <g>
       <use xlink:href="#m55ace1eca0" x="614.932489" y="309.536922" style="stroke: #000000; stroke-width: 0.8"/>
      </g>
     </g>
     <g id="text_24">
      <!-- 100 -->
      <g transform="translate(607.297489 322.615672) scale(0.08 -0.08)">
       <use xlink:href="#DejaVuSerif-31"/>
       <use xlink:href="#DejaVuSerif-30" transform="translate(63.623047 0)"/>
       <use xlink:href="#DejaVuSerif-30" transform="translate(127.246094 0)"/>
      </g>
     </g>
    </g>
    <g id="xtick_14">
     <g id="line2d_29">
      <path d="M 688.995299 309.536922 
L 688.995299 52.8825 
" clip-path="url(#pf1ff447990)" style="fill: none; stroke: #b0b0b0; stroke-opacity: 0.3; stroke-width: 0.8; stroke-linecap: square"/>
     </g>
     <g id="line2d_30">
      <g>
       <use xlink:href="#m55ace1eca0" x="688.995299" y="309.536922" style="stroke: #000000; stroke-width: 0.8"/>
      </g>
     </g>
     <g id="text_25">
      <!-- 150 -->
      <g transform="translate(681.360299 322.615672) scale(0.08 -0.08)">
       <use xlink:href="#DejaVuSerif-31"/>
       <use xlink:href="#DejaVuSerif-35" transform="translate(63.623047 0)"/>
       <use xlink:href="#DejaVuSerif-30" transform="translate(127.246094 0)"/>
      </g>
     </g>
    </g>
    <g id="xtick_15">
     <g id="line2d_31">
      <path d="M 763.058108 309.536922 
L 763.058108 52.8825 
" clip-path="url(#pf1ff447990)" style="fill: none; stroke: #b0b0b0; stroke-opacity: 0.3; stroke-width: 0.8; stroke-linecap: square"/>
     </g>
     <g id="line2d_32">
      <g>
       <use xlink:href="#m55ace1eca0" x="763.058108" y="309.536922" style="stroke: #000000; stroke-width: 0.8"/>
      </g>
     </g>
     <g id="text_26">
      <!-- 200 -->
      <g transform="translate(755.423108 322.615672) scale(0.08 -0.08)">
       <use xlink:href="#DejaVuSerif-32"/>
       <use xlink:href="#DejaVuSerif-30" transform="translate(63.623047 0)"/>
       <use xlink:href="#DejaVuSerif-30" transform="translate(127.246094 0)"/>
      </g>
     </g>
    </g>
    <g id="xtick_16">
     <g id="line2d_33">
      <path d="M 837.120917 309.536922 
L 837.120917 52.8825 
" clip-path="url(#pf1ff447990)" style="fill: none; stroke: #b0b0b0; stroke-opacity: 0.3; stroke-width: 0.8; stroke-linecap: square"/>
     </g>
     <g id="line2d_34">
      <g>
       <use xlink:href="#m55ace1eca0" x="837.120917" y="309.536922" style="stroke: #000000; stroke-width: 0.8"/>
      </g>
     </g>
     <g id="text_27">
      <!-- 250 -->
      <g transform="translate(829.485917 322.615672) scale(0.08 -0.08)">
       <use xlink:href="#DejaVuSerif-32"/>
       <use xlink:href="#DejaVuSerif-35" transform="translate(63.623047 0)"/>
       <use xlink:href="#DejaVuSerif-30" transform="translate(127.246094 0)"/>
      </g>
     </g>
    </g>
    <g id="text_28">
     <!-- Kortikaler Magnifikationsfaktor [rel.E./cm² × 10⁻³] -->
     <g transform="translate(537.083588 335.118016) scale(0.09 -0.09)">
      <defs>
       <path id="DejaVuSerif-b2" d="M 531 4050 
L 313 4050 
L 313 4544 
Q 519 4644 737 4697 
Q 956 4750 1172 4750 
Q 1603 4750 1870 4544 
Q 2138 4338 2138 4013 
Q 2138 3631 1531 3088 
L 1472 3034 
L 728 2363 
L 1931 2363 
L 1931 2700 
L 2163 2700 
L 2163 2088 
L 281 2088 
L 281 2322 
L 1172 3116 
Q 1441 3356 1556 3547 
Q 1672 3738 1672 3944 
Q 1672 4209 1520 4364 
Q 1369 4519 1106 4519 
Q 863 4519 716 4400 
Q 569 4281 531 4050 
z
" transform="scale(0.015625)"/>
       <path id="DejaVuSerif-d7" d="M 4481 3450 
L 3034 2003 
L 4481 563 
L 4122 213 
L 2681 1650 
L 1241 213 
L 884 563 
L 2322 2003 
L 884 3450 
L 1241 3803 
L 2681 2363 
L 4122 3803 
L 4481 3450 
z
" transform="scale(0.015625)"/>
       <path id="DejaVuSerif-207b" d="M 428 3353 
L 2950 3353 
L 2950 3069 
L 428 3069 
L 428 3353 
z
" transform="scale(0.015625)"/>
       <path id="DejaVuSerif-b3" d="M 391 4588 
Q 619 4669 828 4709 
Q 1038 4750 1222 4750 
Q 1653 4750 1886 4581 
Q 2119 4413 2119 4103 
Q 2119 3878 1953 3722 
Q 1788 3566 1491 3513 
Q 1863 3463 2052 3277 
Q 2241 3091 2241 2778 
Q 2241 2422 1967 2231 
Q 1694 2041 1184 2041 
Q 959 2041 742 2084 
Q 525 2128 313 2216 
L 313 2747 
L 531 2744 
Q 547 2513 700 2392 
Q 853 2272 1141 2272 
Q 1434 2272 1593 2409 
Q 1753 2547 1753 2803 
Q 1753 3094 1593 3242 
Q 1434 3391 1119 3391 
L 953 3391 
L 953 3622 
L 1038 3622 
Q 1341 3622 1495 3737 
Q 1650 3853 1650 4084 
Q 1650 4294 1523 4406 
Q 1397 4519 1159 4519 
Q 903 4519 767 4419 
Q 631 4319 609 4116 
L 391 4116 
L 391 4588 
z
" transform="scale(0.015625)"/>
      </defs>
      <use xlink:href="#DejaVuSerif-4b"/>
      <use xlink:href="#DejaVuSerif-6f" transform="translate(72.082031 0)"/>
      <use xlink:href="#DejaVuSerif-72" transform="translate(132.287109 0)"/>
      <use xlink:href="#DejaVuSerif-74" transform="translate(180.089844 0)"/>
      <use xlink:href="#DejaVuSerif-69" transform="translate(220.275391 0)"/>
      <use xlink:href="#DejaVuSerif-6b" transform="translate(252.257812 0)"/>
      <use xlink:href="#DejaVuSerif-61" transform="translate(312.853516 0)"/>
      <use xlink:href="#DejaVuSerif-6c" transform="translate(372.472656 0)"/>
      <use xlink:href="#DejaVuSerif-65" transform="translate(404.455078 0)"/>
      <use xlink:href="#DejaVuSerif-72" transform="translate(463.634766 0)"/>
      <use xlink:href="#DejaVuSerif-20" transform="translate(511.4375 0)"/>
      <use xlink:href="#DejaVuSerif-4d" transform="translate(543.224609 0)"/>
      <use xlink:href="#DejaVuSerif-61" transform="translate(645.617188 0)"/>
      <use xlink:href="#DejaVuSerif-67" transform="translate(705.236328 0)"/>
      <use xlink:href="#DejaVuSerif-6e" transform="translate(769.25 0)"/>
      <use xlink:href="#DejaVuSerif-69" transform="translate(833.654297 0)"/>
      <use xlink:href="#DejaVuSerif-66" transform="translate(865.636719 0)"/>
      <use xlink:href="#DejaVuSerif-69" transform="translate(902.648438 0)"/>
      <use xlink:href="#DejaVuSerif-6b" transform="translate(934.630859 0)"/>
      <use xlink:href="#DejaVuSerif-61" transform="translate(995.226562 0)"/>
      <use xlink:href="#DejaVuSerif-74" transform="translate(1054.845703 0)"/>
      <use xlink:href="#DejaVuSerif-69" transform="translate(1095.03125 0)"/>
      <use xlink:href="#DejaVuSerif-6f" transform="translate(1127.013672 0)"/>
      <use xlink:href="#DejaVuSerif-6e" transform="translate(1187.21875 0)"/>
      <use xlink:href="#DejaVuSerif-73" transform="translate(1251.623047 0)"/>
      <use xlink:href="#DejaVuSerif-66" transform="translate(1302.941406 0)"/>
      <use xlink:href="#DejaVuSerif-61" transform="translate(1339.953125 0)"/>
      <use xlink:href="#DejaVuSerif-6b" transform="translate(1399.572266 0)"/>
      <use xlink:href="#DejaVuSerif-74" transform="translate(1460.167969 0)"/>
      <use xlink:href="#DejaVuSerif-6f" transform="translate(1500.353516 0)"/>
      <use xlink:href="#DejaVuSerif-72" transform="translate(1560.558594 0)"/>
      <use xlink:href="#DejaVuSerif-20" transform="translate(1608.361328 0)"/>
      <use xlink:href="#DejaVuSerif-5b" transform="translate(1640.148438 0)"/>
      <use xlink:href="#DejaVuSerif-72" transform="translate(1679.162109 0)"/>
      <use xlink:href="#DejaVuSerif-65" transform="translate(1726.964844 0)"/>
      <use xlink:href="#DejaVuSerif-6c" transform="translate(1786.144531 0)"/>
      <use xlink:href="#DejaVuSerif-2e" transform="translate(1818.126953 0)"/>
      <use xlink:href="#DejaVuSerif-45" transform="translate(1849.914062 0)"/>
      <use xlink:href="#DejaVuSerif-2e" transform="translate(1922.912109 0)"/>
      <use xlink:href="#DejaVuSerif-2f" transform="translate(1954.699219 0)"/>
      <use xlink:href="#DejaVuSerif-63" transform="translate(1988.390625 0)"/>
      <use xlink:href="#DejaVuSerif-6d" transform="translate(2044.396484 0)"/>
      <use xlink:href="#DejaVuSerif-b2" transform="translate(2139.220703 0)"/>
      <use xlink:href="#DejaVuSerif-20" transform="translate(2179.308594 0)"/>
      <use xlink:href="#DejaVuSerif-d7" transform="translate(2211.095703 0)"/>
      <use xlink:href="#DejaVuSerif-20" transform="translate(2294.884766 0)"/>
      <use xlink:href="#DejaVuSerif-31" transform="translate(2326.671875 0)"/>
      <use xlink:href="#DejaVuSerif-30" transform="translate(2390.294922 0)"/>
      <use xlink:href="#DejaVuSerif-207b" transform="translate(2453.917969 0)"/>
      <use xlink:href="#DejaVuSerif-b3" transform="translate(2506.701172 0)"/>
      <use xlink:href="#DejaVuSerif-5d" transform="translate(2546.789062 0)"/>
     </g>
    </g>
   </g>
   <g id="matplotlib.axis_4">
    <g id="ytick_7">
     <g id="line2d_35">
      <g>
       <use xlink:href="#m544258783e" x="466.806871" y="288.347457" style="stroke: #000000; stroke-width: 0.8"/>
      </g>
     </g>
     <g id="text_29">
      <!-- Finger -->
      <g transform="translate(432.864371 291.329957) scale(0.08 -0.08)">
       <use xlink:href="#DejaVuSerif-46"/>
       <use xlink:href="#DejaVuSerif-69" transform="translate(69.384766 0)"/>
       <use xlink:href="#DejaVuSerif-6e" transform="translate(101.367188 0)"/>
       <use xlink:href="#DejaVuSerif-67" transform="translate(165.771484 0)"/>
       <use xlink:href="#DejaVuSerif-65" transform="translate(229.785156 0)"/>
       <use xlink:href="#DejaVuSerif-72" transform="translate(288.964844 0)"/>
      </g>
     </g>
    </g>
    <g id="ytick_8">
     <g id="line2d_36">
      <g>
       <use xlink:href="#m544258783e" x="466.806871" y="264.539069" style="stroke: #000000; stroke-width: 0.8"/>
      </g>
     </g>
     <g id="text_30">
      <!-- Hand -->
      <g transform="translate(437.786871 267.578444) scale(0.08 -0.08)">
       <use xlink:href="#DejaVuSerif-48"/>
       <use xlink:href="#DejaVuSerif-61" transform="translate(87.207031 0)"/>
       <use xlink:href="#DejaVuSerif-6e" transform="translate(146.826172 0)"/>
       <use xlink:href="#DejaVuSerif-64" transform="translate(211.230469 0)"/>
      </g>
     </g>
    </g>
    <g id="ytick_9">
     <g id="line2d_37">
      <g>
       <use xlink:href="#m544258783e" x="466.806871" y="240.730681" style="stroke: #000000; stroke-width: 0.8"/>
      </g>
     </g>
     <g id="text_31">
      <!-- Unterarm -->
      <g transform="translate(419.958121 243.770056) scale(0.08 -0.08)">
       <use xlink:href="#DejaVuSerif-55"/>
       <use xlink:href="#DejaVuSerif-6e" transform="translate(84.277344 0)"/>
       <use xlink:href="#DejaVuSerif-74" transform="translate(148.681641 0)"/>
       <use xlink:href="#DejaVuSerif-65" transform="translate(188.867188 0)"/>
       <use xlink:href="#DejaVuSerif-72" transform="translate(248.046875 0)"/>
       <use xlink:href="#DejaVuSerif-61" transform="translate(295.849609 0)"/>
       <use xlink:href="#DejaVuSerif-72" transform="translate(355.46875 0)"/>
       <use xlink:href="#DejaVuSerif-6d" transform="translate(403.271484 0)"/>
      </g>
     </g>
    </g>
    <g id="ytick_10">
     <g id="line2d_38">
      <g>
       <use xlink:href="#m544258783e" x="466.806871" y="216.922293" style="stroke: #000000; stroke-width: 0.8"/>
      </g>
     </g>
     <g id="text_32">
      <!-- Arm -->
      <g transform="translate(442.619371 219.961668) scale(0.08 -0.08)">
       <use xlink:href="#DejaVuSerif-41"/>
       <use xlink:href="#DejaVuSerif-72" transform="translate(72.216797 0)"/>
       <use xlink:href="#DejaVuSerif-6d" transform="translate(120.019531 0)"/>
      </g>
     </g>
    </g>
    <g id="ytick_11">
     <g id="line2d_39">
      <g>
       <use xlink:href="#m544258783e" x="466.806871" y="193.113905" style="stroke: #000000; stroke-width: 0.8"/>
      </g>
     </g>
     <g id="text_33">
      <!-- Schulter -->
      <g transform="translate(425.209371 196.15328) scale(0.08 -0.08)">
       <use xlink:href="#DejaVuSerif-53"/>
       <use xlink:href="#DejaVuSerif-63" transform="translate(68.505859 0)"/>
       <use xlink:href="#DejaVuSerif-68" transform="translate(124.511719 0)"/>
       <use xlink:href="#DejaVuSerif-75" transform="translate(188.916016 0)"/>
       <use xlink:href="#DejaVuSerif-6c" transform="translate(253.320312 0)"/>
       <use xlink:href="#DejaVuSerif-74" transform="translate(285.302734 0)"/>
       <use xlink:href="#DejaVuSerif-65" transform="translate(325.488281 0)"/>
       <use xlink:href="#DejaVuSerif-72" transform="translate(384.667969 0)"/>
      </g>
     </g>
    </g>
    <g id="ytick_12">
     <g id="line2d_40">
      <g>
       <use xlink:href="#m544258783e" x="466.806871" y="169.305517" style="stroke: #000000; stroke-width: 0.8"/>
      </g>
     </g>
     <g id="text_34">
      <!-- Rumpf -->
      <g transform="translate(432.961871 172.344892) scale(0.08 -0.08)">
       <use xlink:href="#DejaVuSerif-52"/>
       <use xlink:href="#DejaVuSerif-75" transform="translate(75.292969 0)"/>
       <use xlink:href="#DejaVuSerif-6d" transform="translate(139.697266 0)"/>
       <use xlink:href="#DejaVuSerif-70" transform="translate(234.521484 0)"/>
       <use xlink:href="#DejaVuSerif-66" transform="translate(298.535156 0)"/>
      </g>
     </g>
    </g>
    <g id="ytick_13">
     <g id="line2d_41">
      <g>
       <use xlink:href="#m544258783e" x="466.806871" y="145.497129" style="stroke: #000000; stroke-width: 0.8"/>
      </g>
     </g>
     <g id="text_35">
      <!-- Bein -->
      <g transform="translate(441.481871 148.536504) scale(0.08 -0.08)">
       <use xlink:href="#DejaVuSerif-42"/>
       <use xlink:href="#DejaVuSerif-65" transform="translate(73.486328 0)"/>
       <use xlink:href="#DejaVuSerif-69" transform="translate(132.666016 0)"/>
       <use xlink:href="#DejaVuSerif-6e" transform="translate(164.648438 0)"/>
      </g>
     </g>
    </g>
    <g id="ytick_14">
     <g id="line2d_42">
      <g>
       <use xlink:href="#m544258783e" x="466.806871" y="121.688741" style="stroke: #000000; stroke-width: 0.8"/>
      </g>
     </g>
     <g id="text_36">
      <!-- Fuß -->
      <g transform="translate(443.759371 124.728116) scale(0.08 -0.08)">
       <use xlink:href="#DejaVuSerif-46"/>
       <use xlink:href="#DejaVuSerif-75" transform="translate(69.384766 0)"/>
       <use xlink:href="#DejaVuSerif-df" transform="translate(133.789062 0)"/>
      </g>
     </g>
    </g>
    <g id="ytick_15">
     <g id="line2d_43">
      <g>
       <use xlink:href="#m544258783e" x="466.806871" y="97.880353" style="stroke: #000000; stroke-width: 0.8"/>
      </g>
     </g>
     <g id="text_37">
      <!-- Gesicht -->
      <g transform="translate(429.169371 100.919728) scale(0.08 -0.08)">
       <use xlink:href="#DejaVuSerif-47"/>
       <use xlink:href="#DejaVuSerif-65" transform="translate(79.882812 0)"/>
       <use xlink:href="#DejaVuSerif-73" transform="translate(139.0625 0)"/>
       <use xlink:href="#DejaVuSerif-69" transform="translate(190.380859 0)"/>
       <use xlink:href="#DejaVuSerif-63" transform="translate(222.363281 0)"/>
       <use xlink:href="#DejaVuSerif-68" transform="translate(278.369141 0)"/>
       <use xlink:href="#DejaVuSerif-74" transform="translate(342.773438 0)"/>
      </g>
     </g>
    </g>
    <g id="ytick_16">
     <g id="line2d_44">
      <g>
       <use xlink:href="#m544258783e" x="466.806871" y="74.071965" style="stroke: #000000; stroke-width: 0.8"/>
      </g>
     </g>
     <g id="text_38">
      <!-- Lippen -->
      <g transform="translate(431.805621 77.11134) scale(0.08 -0.08)">
       <use xlink:href="#DejaVuSerif-4c"/>
       <use xlink:href="#DejaVuSerif-69" transform="translate(66.40625 0)"/>
       <use xlink:href="#DejaVuSerif-70" transform="translate(98.388672 0)"/>
       <use xlink:href="#DejaVuSerif-70" transform="translate(162.402344 0)"/>
       <use xlink:href="#DejaVuSerif-65" transform="translate(226.416016 0)"/>
       <use xlink:href="#DejaVuSerif-6e" transform="translate(285.595703 0)"/>
      </g>
     </g>
    </g>
   </g>
   <g id="line2d_45">
    <path d="M 822.308355 309.536922 
L 822.308355 52.8825 
" clip-path="url(#pf1ff447990)" style="fill: none; stroke-dasharray: 4.44,1.92; stroke-dashoffset: 0; stroke: #c0392b; stroke-opacity: 0.6; stroke-width: 1.2"/>
   </g>
   <g id="patch_43">
    <path d="M 466.806871 309.536922 
L 466.806871 52.8825 
" style="fill: none; stroke: #000000; stroke-width: 0.8; stroke-linejoin: miter; stroke-linecap: square"/>
   </g>
   <g id="patch_44">
    <path d="M 840.083429 309.536922 
L 840.083429 52.8825 
" style="fill: none; stroke: #000000; stroke-width: 0.8; stroke-linejoin: miter; stroke-linecap: square"/>
   </g>
   <g id="patch_45">
    <path d="M 466.806871 309.536922 
L 840.083429 309.536922 
" style="fill: none; stroke: #000000; stroke-width: 0.8; stroke-linejoin: miter; stroke-linecap: square"/>
   </g>
   <g id="patch_46">
    <path d="M 466.806871 52.8825 
L 840.083429 52.8825 
" style="fill: none; stroke: #000000; stroke-width: 0.8; stroke-linejoin: miter; stroke-linecap: square"/>
   </g>
   <g id="text_39">
    <!-- 240.00 -->
    <g transform="translate(822.382418 290.416988) scale(0.075 -0.075)">
     <use xlink:href="#DejaVuSerif-32"/>
     <use xlink:href="#DejaVuSerif-34" transform="translate(63.623047 0)"/>
     <use xlink:href="#DejaVuSerif-30" transform="translate(127.246094 0)"/>
     <use xlink:href="#DejaVuSerif-2e" transform="translate(190.869141 0)"/>
     <use xlink:href="#DejaVuSerif-30" transform="translate(222.65625 0)"/>
     <use xlink:href="#DejaVuSerif-30" transform="translate(286.279297 0)"/>
    </g>
   </g>
   <g id="text_40">
    <!-- 28.89 -->
    <g transform="translate(509.672779 266.6086) scale(0.075 -0.075)">
     <defs>
      <path id="DejaVuSerif-39" d="M 2994 2091 
Q 2784 1856 2512 1740 
Q 2241 1625 1900 1625 
Q 1206 1625 804 2044 
Q 403 2463 403 3188 
Q 403 3897 839 4323 
Q 1275 4750 2003 4750 
Q 2794 4750 3217 4161 
Q 3641 3572 3641 2478 
Q 3641 1253 3137 581 
Q 2634 -91 1722 -91 
Q 1475 -91 1203 -44 
Q 931 3 647 97 
L 647 872 
L 997 872 
Q 1038 556 1241 387 
Q 1444 219 1784 219 
Q 2391 219 2687 676 
Q 2984 1134 2994 2091 
z
M 1978 4441 
Q 1534 4441 1298 4117 
Q 1063 3794 1063 3188 
Q 1063 2581 1298 2256 
Q 1534 1931 1978 1931 
Q 2422 1931 2658 2245 
Q 2894 2559 2894 3150 
Q 2894 3772 2656 4106 
Q 2419 4441 1978 4441 
z
" transform="scale(0.015625)"/>
     </defs>
     <use xlink:href="#DejaVuSerif-32"/>
     <use xlink:href="#DejaVuSerif-38" transform="translate(63.623047 0)"/>
     <use xlink:href="#DejaVuSerif-2e" transform="translate(127.246094 0)"/>
     <use xlink:href="#DejaVuSerif-38" transform="translate(159.033203 0)"/>
     <use xlink:href="#DejaVuSerif-39" transform="translate(222.65625 0)"/>
    </g>
   </g>
   <g id="text_41">
    <!-- 10.50 -->
    <g transform="translate(482.434124 242.800212) scale(0.075 -0.075)">
     <use xlink:href="#DejaVuSerif-31"/>
     <use xlink:href="#DejaVuSerif-30" transform="translate(63.623047 0)"/>
     <use xlink:href="#DejaVuSerif-2e" transform="translate(127.246094 0)"/>
     <use xlink:href="#DejaVuSerif-35" transform="translate(159.033203 0)"/>
     <use xlink:href="#DejaVuSerif-30" transform="translate(222.65625 0)"/>
    </g>
   </g>
   <g id="text_42">
    <!-- 2.29 -->
    <g transform="translate(470.266662 218.991824) scale(0.075 -0.075)">
     <use xlink:href="#DejaVuSerif-32"/>
     <use xlink:href="#DejaVuSerif-2e" transform="translate(63.623047 0)"/>
     <use xlink:href="#DejaVuSerif-32" transform="translate(95.410156 0)"/>
     <use xlink:href="#DejaVuSerif-39" transform="translate(159.033203 0)"/>
    </g>
   </g>
   <g id="text_43">
    <!-- 2.25 -->
    <g transform="translate(470.21376 195.183436) scale(0.075 -0.075)">
     <use xlink:href="#DejaVuSerif-32"/>
     <use xlink:href="#DejaVuSerif-2e" transform="translate(63.623047 0)"/>
     <use xlink:href="#DejaVuSerif-32" transform="translate(95.410156 0)"/>
     <use xlink:href="#DejaVuSerif-35" transform="translate(159.033203 0)"/>
    </g>
   </g>
   <g id="text_44">
    <!-- 0.51 -->
    <g transform="translate(467.642723 171.375048) scale(0.075 -0.075)">
     <use xlink:href="#DejaVuSerif-30"/>
     <use xlink:href="#DejaVuSerif-2e" transform="translate(63.623047 0)"/>
     <use xlink:href="#DejaVuSerif-35" transform="translate(95.410156 0)"/>
     <use xlink:href="#DejaVuSerif-31" transform="translate(159.033203 0)"/>
    </g>
   </g>
   <g id="text_45">
    <!-- 2.58 -->
    <g transform="translate(470.707512 147.56666) scale(0.075 -0.075)">
     <use xlink:href="#DejaVuSerif-32"/>
     <use xlink:href="#DejaVuSerif-2e" transform="translate(63.623047 0)"/>
     <use xlink:href="#DejaVuSerif-35" transform="translate(95.410156 0)"/>
     <use xlink:href="#DejaVuSerif-38" transform="translate(159.033203 0)"/>
    </g>
   </g>
   <g id="text_46">
    <!-- 34.67 -->
    <g transform="translate(518.231148 123.758273) scale(0.075 -0.075)">
     <defs>
      <path id="DejaVuSerif-33" d="M 622 4469 
Q 988 4606 1323 4678 
Q 1659 4750 1953 4750 
Q 2638 4750 3022 4454 
Q 3406 4159 3406 3634 
Q 3406 3213 3140 2930 
Q 2875 2647 2388 2547 
Q 2963 2466 3280 2130 
Q 3597 1794 3597 1259 
Q 3597 606 3158 257 
Q 2719 -91 1894 -91 
Q 1528 -91 1179 -12 
Q 831 66 488 225 
L 488 1131 
L 838 1131 
Q 869 681 1141 450 
Q 1413 219 1906 219 
Q 2384 219 2661 495 
Q 2938 772 2938 1253 
Q 2938 1803 2653 2086 
Q 2369 2369 1819 2369 
L 1522 2369 
L 1522 2688 
L 1678 2688 
Q 2225 2688 2498 2914 
Q 2772 3141 2772 3597 
Q 2772 4006 2547 4223 
Q 2322 4441 1900 4441 
Q 1478 4441 1245 4241 
Q 1013 4041 972 3647 
L 622 3647 
L 622 4469 
z
" transform="scale(0.015625)"/>
      <path id="DejaVuSerif-37" d="M 3609 4347 
L 1784 0 
L 1319 0 
L 3059 4153 
L 903 4153 
L 903 3578 
L 538 3578 
L 538 4666 
L 3609 4666 
L 3609 4347 
z
" transform="scale(0.015625)"/>
     </defs>
     <use xlink:href="#DejaVuSerif-33"/>
     <use xlink:href="#DejaVuSerif-34" transform="translate(63.623047 0)"/>
     <use xlink:href="#DejaVuSerif-2e" transform="translate(127.246094 0)"/>
     <use xlink:href="#DejaVuSerif-36" transform="translate(159.033203 0)"/>
     <use xlink:href="#DejaVuSerif-37" transform="translate(222.65625 0)"/>
    </g>
   </g>
   <g id="text_47">
    <!-- 12.00 -->
    <g transform="translate(484.656008 99.949885) scale(0.075 -0.075)">
     <use xlink:href="#DejaVuSerif-31"/>
     <use xlink:href="#DejaVuSerif-32" transform="translate(63.623047 0)"/>
     <use xlink:href="#DejaVuSerif-2e" transform="translate(127.246094 0)"/>
     <use xlink:href="#DejaVuSerif-30" transform="translate(159.033203 0)"/>
     <use xlink:href="#DejaVuSerif-30" transform="translate(222.65625 0)"/>
    </g>
   </g>
   <g id="text_48">
    <!-- 236.67 -->
    <g transform="translate(817.444897 76.141497) scale(0.075 -0.075)">
     <use xlink:href="#DejaVuSerif-32"/>
     <use xlink:href="#DejaVuSerif-33" transform="translate(63.623047 0)"/>
     <use xlink:href="#DejaVuSerif-36" transform="translate(127.246094 0)"/>
     <use xlink:href="#DejaVuSerif-2e" transform="translate(190.869141 0)"/>
     <use xlink:href="#DejaVuSerif-36" transform="translate(222.65625 0)"/>
     <use xlink:href="#DejaVuSerif-37" transform="translate(286.279297 0)"/>
    </g>
   </g>
   <g id="text_49">
    <!-- Kortikaler Magnifikationsfaktor ρ(S1) nach Körperregion -->
    <g transform="translate(508.656088 46.8825) scale(0.1 -0.1)">
     <defs>
      <path id="DejaVuSerif-3c1" d="M 978 1825 
L 978 1497 
Q 978 897 1208 583 
Q 1438 269 1875 269 
Q 2316 269 2542 622 
Q 2769 975 2769 1663 
Q 2769 2378 2544 2703 
Q 2272 3084 1875 3084 
Q 1459 3084 1206 2738 
Q 978 2422 978 1825 
z
M 978 -1331 
L 403 -1331 
L 403 1638 
Q 403 2422 675 2803 
Q 978 3159 1188 3269 
Q 1463 3413 1866 3413 
Q 2666 3413 3053 2928 
Q 3441 2444 3441 1662 
Q 3441 881 3053 395 
Q 2666 -91 2053 -91 
Q 1669 -91 1408 57 
Q 1147 206 978 519 
L 978 -1331 
z
" transform="scale(0.015625)"/>
      <path id="DejaVuSerif-f6" d="M 1925 219 
Q 2388 219 2623 584 
Q 2859 950 2859 1663 
Q 2859 2375 2623 2739 
Q 2388 3103 1925 3103 
Q 1463 3103 1227 2739 
Q 991 2375 991 1663 
Q 991 950 1228 584 
Q 1466 219 1925 219 
z
M 1925 -91 
Q 1200 -91 759 389 
Q 319 869 319 1663 
Q 319 2456 758 2934 
Q 1197 3413 1925 3413 
Q 2653 3413 3092 2934 
Q 3531 2456 3531 1663 
Q 3531 869 3092 389 
Q 2653 -91 1925 -91 
z
M 1319 4903 
Q 1469 4903 1576 4795 
Q 1684 4688 1684 4538 
Q 1684 4378 1581 4275 
Q 1478 4172 1319 4172 
Q 1162 4172 1059 4275 
Q 956 4378 956 4538 
Q 956 4688 1064 4795 
Q 1172 4903 1319 4903 
z
M 2537 4903 
Q 2684 4903 2792 4795 
Q 2900 4688 2900 4538 
Q 2900 4378 2797 4275 
Q 2694 4172 2537 4172 
Q 2378 4172 2275 4275 
Q 2172 4378 2172 4538 
Q 2172 4688 2279 4795 
Q 2387 4903 2537 4903 
z
" transform="scale(0.015625)"/>
     </defs>
     <use xlink:href="#DejaVuSerif-4b"/>
     <use xlink:href="#DejaVuSerif-6f" transform="translate(72.082031 0)"/>
     <use xlink:href="#DejaVuSerif-72" transform="translate(132.287109 0)"/>
     <use xlink:href="#DejaVuSerif-74" transform="translate(180.089844 0)"/>
     <use xlink:href="#DejaVuSerif-69" transform="translate(220.275391 0)"/>
     <use xlink:href="#DejaVuSerif-6b" transform="translate(252.257812 0)"/>
     <use xlink:href="#DejaVuSerif-61" transform="translate(312.853516 0)"/>
     <use xlink:href="#DejaVuSerif-6c" transform="translate(372.472656 0)"/>
     <use xlink:href="#DejaVuSerif-65" transform="translate(404.455078 0)"/>
     <use xlink:href="#DejaVuSerif-72" transform="translate(463.634766 0)"/>
     <use xlink:href="#DejaVuSerif-20" transform="translate(511.4375 0)"/>
     <use xlink:href="#DejaVuSerif-4d" transform="translate(543.224609 0)"/>
     <use xlink:href="#DejaVuSerif-61" transform="translate(645.617188 0)"/>
     <use xlink:href="#DejaVuSerif-67" transform="translate(705.236328 0)"/>
     <use xlink:href="#DejaVuSerif-6e" transform="translate(769.25 0)"/>
     <use xlink:href="#DejaVuSerif-69" transform="translate(833.654297 0)"/>
     <use xlink:href="#DejaVuSerif-66" transform="translate(865.636719 0)"/>
     <use xlink:href="#DejaVuSerif-69" transform="translate(902.648438 0)"/>
     <use xlink:href="#DejaVuSerif-6b" transform="translate(934.630859 0)"/>
     <use xlink:href="#DejaVuSerif-61" transform="translate(995.226562 0)"/>
     <use xlink:href="#DejaVuSerif-74" transform="translate(1054.845703 0)"/>
     <use xlink:href="#DejaVuSerif-69" transform="translate(1095.03125 0)"/>
     <use xlink:href="#DejaVuSerif-6f" transform="translate(1127.013672 0)"/>
     <use xlink:href="#DejaVuSerif-6e" transform="translate(1187.21875 0)"/>
     <use xlink:href="#DejaVuSerif-73" transform="translate(1251.623047 0)"/>
     <use xlink:href="#DejaVuSerif-66" transform="translate(1302.941406 0)"/>
     <use xlink:href="#DejaVuSerif-61" transform="translate(1339.953125 0)"/>
     <use xlink:href="#DejaVuSerif-6b" transform="translate(1399.572266 0)"/>
     <use xlink:href="#DejaVuSerif-74" transform="translate(1460.167969 0)"/>
     <use xlink:href="#DejaVuSerif-6f" transform="translate(1500.353516 0)"/>
     <use xlink:href="#DejaVuSerif-72" transform="translate(1560.558594 0)"/>
     <use xlink:href="#DejaVuSerif-20" transform="translate(1608.361328 0)"/>
     <use xlink:href="#DejaVuSerif-3c1" transform="translate(1640.148438 0)"/>
     <use xlink:href="#DejaVuSerif-28" transform="translate(1698.9375 0)"/>
     <use xlink:href="#DejaVuSerif-53" transform="translate(1737.951172 0)"/>
     <use xlink:href="#DejaVuSerif-31" transform="translate(1806.457031 0)"/>
     <use xlink:href="#DejaVuSerif-29" transform="translate(1870.080078 0)"/>
     <use xlink:href="#DejaVuSerif-20" transform="translate(1909.09375 0)"/>
     <use xlink:href="#DejaVuSerif-6e" transform="translate(1940.880859 0)"/>
     <use xlink:href="#DejaVuSerif-61" transform="translate(2005.285156 0)"/>
     <use xlink:href="#DejaVuSerif-63" transform="translate(2064.904297 0)"/>
     <use xlink:href="#DejaVuSerif-68" transform="translate(2120.910156 0)"/>
     <use xlink:href="#DejaVuSerif-20" transform="translate(2185.314453 0)"/>
     <use xlink:href="#DejaVuSerif-4b" transform="translate(2217.101562 0)"/>
     <use xlink:href="#DejaVuSerif-f6" transform="translate(2289.183594 0)"/>
     <use xlink:href="#DejaVuSerif-72" transform="translate(2349.388672 0)"/>
     <use xlink:href="#DejaVuSerif-70" transform="translate(2397.191406 0)"/>
     <use xlink:href="#DejaVuSerif-65" transform="translate(2461.205078 0)"/>
     <use xlink:href="#DejaVuSerif-72" transform="translate(2520.384766 0)"/>
     <use xlink:href="#DejaVuSerif-72" transform="translate(2568.1875 0)"/>
     <use xlink:href="#DejaVuSerif-65" transform="translate(2615.990234 0)"/>
     <use xlink:href="#DejaVuSerif-67" transform="translate(2675.169922 0)"/>
     <use xlink:href="#DejaVuSerif-69" transform="translate(2739.183594 0)"/>
     <use xlink:href="#DejaVuSerif-6f" transform="translate(2771.166016 0)"/>
     <use xlink:href="#DejaVuSerif-6e" transform="translate(2831.371094 0)"/>
    </g>
   </g>
   <g id="legend_2">
    <g id="patch_47">
     <path d="M 746.328429 305.536922 
L 834.483429 305.536922 
Q 836.083429 305.536922 836.083429 303.936922 
L 836.083429 268.018172 
Q 836.083429 266.418172 834.483429 266.418172 
L 746.328429 266.418172 
Q 744.728429 266.418172 744.728429 268.018172 
L 744.728429 303.936922 
Q 744.728429 305.536922 746.328429 305.536922 
z
" style="fill: #ffffff; opacity: 0.8; stroke: #cccccc; stroke-linejoin: miter"/>
    </g>
    <g id="patch_48">
     <path d="M 747.928429 275.696922 
L 763.928429 275.696922 
L 763.928429 270.096922 
L 747.928429 270.096922 
z
" style="fill: #c0392b; opacity: 0.85; stroke: #c0392b; stroke-linejoin: miter"/>
    </g>
    <g id="text_50">
     <!-- Finger / Hand -->
     <g transform="translate(770.328429 275.696922) scale(0.08 -0.08)">
      <use xlink:href="#DejaVuSerif-46"/>
      <use xlink:href="#DejaVuSerif-69" transform="translate(69.384766 0)"/>
      <use xlink:href="#DejaVuSerif-6e" transform="translate(101.367188 0)"/>
      <use xlink:href="#DejaVuSerif-67" transform="translate(165.771484 0)"/>
      <use xlink:href="#DejaVuSerif-65" transform="translate(229.785156 0)"/>
      <use xlink:href="#DejaVuSerif-72" transform="translate(288.964844 0)"/>
      <use xlink:href="#DejaVuSerif-20" transform="translate(336.767578 0)"/>
      <use xlink:href="#DejaVuSerif-2f" transform="translate(368.554688 0)"/>
      <use xlink:href="#DejaVuSerif-20" transform="translate(402.246094 0)"/>
      <use xlink:href="#DejaVuSerif-48" transform="translate(434.033203 0)"/>
      <use xlink:href="#DejaVuSerif-61" transform="translate(521.240234 0)"/>
      <use xlink:href="#DejaVuSerif-6e" transform="translate(580.859375 0)"/>
      <use xlink:href="#DejaVuSerif-64" transform="translate(645.263672 0)"/>
     </g>
    </g>
    <g id="patch_49">
     <path d="M 747.928429 287.553172 
L 763.928429 287.553172 
L 763.928429 281.953172 
L 747.928429 281.953172 
z
" style="fill: #e67e22; opacity: 0.85; stroke: #e67e22; stroke-linejoin: miter"/>
    </g>
    <g id="text_51">
     <!-- Unterarm -->
     <g transform="translate(770.328429 287.553172) scale(0.08 -0.08)">
      <use xlink:href="#DejaVuSerif-55"/>
      <use xlink:href="#DejaVuSerif-6e" transform="translate(84.277344 0)"/>
      <use xlink:href="#DejaVuSerif-74" transform="translate(148.681641 0)"/>
      <use xlink:href="#DejaVuSerif-65" transform="translate(188.867188 0)"/>
      <use xlink:href="#DejaVuSerif-72" transform="translate(248.046875 0)"/>
      <use xlink:href="#DejaVuSerif-61" transform="translate(295.849609 0)"/>
      <use xlink:href="#DejaVuSerif-72" transform="translate(355.46875 0)"/>
      <use xlink:href="#DejaVuSerif-6d" transform="translate(403.271484 0)"/>
     </g>
    </g>
    <g id="patch_50">
     <path d="M 747.928429 300.559422 
L 763.928429 300.559422 
L 763.928429 294.959422 
L 747.928429 294.959422 
z
" style="fill: #1a4e8a; opacity: 0.85; stroke: #1a4e8a; stroke-linejoin: miter"/>
    </g>
    <g id="text_52">
     <!-- Übriger Körper -->
     <g transform="translate(770.328429 300.559422) scale(0.08 -0.08)">
      <defs>
       <path id="DejaVuSerif-dc" d="M 897 4331 
L 300 4331 
L 300 4666 
L 2125 4666 
L 2125 4331 
L 1528 4331 
L 1528 1919 
Q 1528 1025 1820 672 
Q 2113 319 2828 319 
Q 3544 319 3836 672 
Q 4128 1025 4128 1919 
L 4128 4331 
L 3531 4331 
L 3531 4666 
L 5106 4666 
L 5106 4331 
L 4513 4331 
L 4513 1856 
Q 4513 791 4103 350 
Q 3694 -91 2713 -91 
Q 1731 -91 1314 353 
Q 897 797 897 1856 
L 897 4331 
z
M 2215 5874 
Q 2365 5874 2472 5764 
Q 2580 5655 2580 5511 
Q 2580 5355 2475 5250 
Q 2371 5146 2215 5146 
Q 2062 5146 1957 5250 
Q 1852 5355 1852 5511 
Q 1852 5655 1960 5764 
Q 2068 5874 2215 5874 
z
M 3433 5874 
Q 3580 5874 3688 5764 
Q 3796 5655 3796 5511 
Q 3796 5355 3691 5250 
Q 3587 5146 3433 5146 
Q 3277 5146 3172 5250 
Q 3068 5355 3068 5511 
Q 3068 5655 3175 5764 
Q 3283 5874 3433 5874 
z
" transform="scale(0.015625)"/>
       <path id="DejaVuSerif-62" d="M 738 331 
L 738 4531 
L 184 4531 
L 184 4863 
L 1313 4863 
L 1313 2803 
Q 1481 3116 1742 3264 
Q 2003 3413 2388 3413 
Q 3000 3413 3387 2928 
Q 3775 2444 3775 1663 
Q 3775 881 3387 395 
Q 3000 -91 2388 -91 
Q 2003 -91 1742 57 
Q 1481 206 1313 519 
L 1313 0 
L 184 0 
L 184 331 
L 738 331 
z
M 1313 1497 
Q 1313 897 1542 583 
Q 1772 269 2209 269 
Q 2650 269 2876 622 
Q 3103 975 3103 1663 
Q 3103 2353 2876 2703 
Q 2650 3053 2209 3053 
Q 1772 3053 1542 2737 
Q 1313 2422 1313 1825 
L 1313 1497 
z
" transform="scale(0.015625)"/>
      </defs>
      <use xlink:href="#DejaVuSerif-dc"/>
      <use xlink:href="#DejaVuSerif-62" transform="translate(84.277344 0)"/>
      <use xlink:href="#DejaVuSerif-72" transform="translate(148.291016 0)"/>
      <use xlink:href="#DejaVuSerif-69" transform="translate(196.09375 0)"/>
      <use xlink:href="#DejaVuSerif-67" transform="translate(228.076172 0)"/>
      <use xlink:href="#DejaVuSerif-65" transform="translate(292.089844 0)"/>
      <use xlink:href="#DejaVuSerif-72" transform="translate(351.269531 0)"/>
      <use xlink:href="#DejaVuSerif-20" transform="translate(399.072266 0)"/>
      <use xlink:href="#DejaVuSerif-4b" transform="translate(430.859375 0)"/>
      <use xlink:href="#DejaVuSerif-f6" transform="translate(502.941406 0)"/>
      <use xlink:href="#DejaVuSerif-72" transform="translate(563.146484 0)"/>
      <use xlink:href="#DejaVuSerif-70" transform="translate(610.949219 0)"/>
      <use xlink:href="#DejaVuSerif-65" transform="translate(674.962891 0)"/>
      <use xlink:href="#DejaVuSerif-72" transform="translate(734.142578 0)"/>
     </g>
    </g>
   </g>
  </g>
  <g id="text_53">
   <!-- Abbildung 1 – Kortikale Dominanz der Hand im somatosensorischen Homunkulus -->
   <g transform="translate(222.662344 14.798437) scale(0.1 -0.1)">
    <defs>
     <path id="DejaVuSerif-2013" d="M 281 1906 
L 2919 1906 
L 2919 1491 
L 281 1491 
L 281 1906 
z
" transform="scale(0.015625)"/>
     <path id="DejaVuSerif-7a" d="M 256 0 
L 256 269 
L 2338 2988 
L 691 2988 
L 691 2413 
L 359 2413 
L 359 3322 
L 3078 3322 
L 3078 3053 
L 997 331 
L 2803 331 
L 2803 934 
L 3138 934 
L 3138 0 
L 256 0 
z
" transform="scale(0.015625)"/>
    </defs>
    <use xlink:href="#DejaVuSerif-41"/>
    <use xlink:href="#DejaVuSerif-62" transform="translate(72.216797 0)"/>
    <use xlink:href="#DejaVuSerif-62" transform="translate(136.230469 0)"/>
    <use xlink:href="#DejaVuSerif-69" transform="translate(200.244141 0)"/>
    <use xlink:href="#DejaVuSerif-6c" transform="translate(232.226562 0)"/>
    <use xlink:href="#DejaVuSerif-64" transform="translate(264.208984 0)"/>
    <use xlink:href="#DejaVuSerif-75" transform="translate(328.222656 0)"/>
    <use xlink:href="#DejaVuSerif-6e" transform="translate(392.626953 0)"/>
    <use xlink:href="#DejaVuSerif-67" transform="translate(457.03125 0)"/>
    <use xlink:href="#DejaVuSerif-20" transform="translate(521.044922 0)"/>
    <use xlink:href="#DejaVuSerif-31" transform="translate(552.832031 0)"/>
    <use xlink:href="#DejaVuSerif-20" transform="translate(616.455078 0)"/>
    <use xlink:href="#DejaVuSerif-2013" transform="translate(648.242188 0)"/>
    <use xlink:href="#DejaVuSerif-20" transform="translate(698.242188 0)"/>
    <use xlink:href="#DejaVuSerif-4b" transform="translate(730.029297 0)"/>
    <use xlink:href="#DejaVuSerif-6f" transform="translate(802.111328 0)"/>
    <use xlink:href="#DejaVuSerif-72" transform="translate(862.316406 0)"/>
    <use xlink:href="#DejaVuSerif-74" transform="translate(910.119141 0)"/>
    <use xlink:href="#DejaVuSerif-69" transform="translate(950.304688 0)"/>
    <use xlink:href="#DejaVuSerif-6b" transform="translate(982.287109 0)"/>
    <use xlink:href="#DejaVuSerif-61" transform="translate(1042.882812 0)"/>
    <use xlink:href="#DejaVuSerif-6c" transform="translate(1102.501953 0)"/>
    <use xlink:href="#DejaVuSerif-65" transform="translate(1134.484375 0)"/>
    <use xlink:href="#DejaVuSerif-20" transform="translate(1193.664062 0)"/>
    <use xlink:href="#DejaVuSerif-44" transform="translate(1225.451172 0)"/>
    <use xlink:href="#DejaVuSerif-6f" transform="translate(1305.626953 0)"/>
    <use xlink:href="#DejaVuSerif-6d" transform="translate(1365.832031 0)"/>
    <use xlink:href="#DejaVuSerif-69" transform="translate(1460.65625 0)"/>
    <use xlink:href="#DejaVuSerif-6e" transform="translate(1492.638672 0)"/>
    <use xlink:href="#DejaVuSerif-61" transform="translate(1557.042969 0)"/>
    <use xlink:href="#DejaVuSerif-6e" transform="translate(1616.662109 0)"/>
    <use xlink:href="#DejaVuSerif-7a" transform="translate(1681.066406 0)"/>
    <use xlink:href="#DejaVuSerif-20" transform="translate(1733.751953 0)"/>
    <use xlink:href="#DejaVuSerif-64" transform="translate(1765.539062 0)"/>
    <use xlink:href="#DejaVuSerif-65" transform="translate(1829.552734 0)"/>
    <use xlink:href="#DejaVuSerif-72" transform="translate(1888.732422 0)"/>
    <use xlink:href="#DejaVuSerif-20" transform="translate(1936.535156 0)"/>
    <use xlink:href="#DejaVuSerif-48" transform="translate(1968.322266 0)"/>
    <use xlink:href="#DejaVuSerif-61" transform="translate(2055.529297 0)"/>
    <use xlink:href="#DejaVuSerif-6e" transform="translate(2115.148438 0)"/>
    <use xlink:href="#DejaVuSerif-64" transform="translate(2179.552734 0)"/>
    <use xlink:href="#DejaVuSerif-20" transform="translate(2243.566406 0)"/>
    <use xlink:href="#DejaVuSerif-69" transform="translate(2275.353516 0)"/>
    <use xlink:href="#DejaVuSerif-6d" transform="translate(2307.335938 0)"/>
    <use xlink:href="#DejaVuSerif-20" transform="translate(2402.160156 0)"/>
    <use xlink:href="#DejaVuSerif-73" transform="translate(2433.947266 0)"/>
    <use xlink:href="#DejaVuSerif-6f" transform="translate(2485.265625 0)"/>
    <use xlink:href="#DejaVuSerif-6d" transform="translate(2545.470703 0)"/>
    <use xlink:href="#DejaVuSerif-61" transform="translate(2640.294922 0)"/>
    <use xlink:href="#DejaVuSerif-74" transform="translate(2699.914062 0)"/>
    <use xlink:href="#DejaVuSerif-6f" transform="translate(2740.099609 0)"/>
    <use xlink:href="#DejaVuSerif-73" transform="translate(2800.304688 0)"/>
    <use xlink:href="#DejaVuSerif-65" transform="translate(2851.623047 0)"/>
    <use xlink:href="#DejaVuSerif-6e" transform="translate(2910.802734 0)"/>
    <use xlink:href="#DejaVuSerif-73" transform="translate(2975.207031 0)"/>
    <use xlink:href="#DejaVuSerif-6f" transform="translate(3026.525391 0)"/>
    <use xlink:href="#DejaVuSerif-72" transform="translate(3086.730469 0)"/>
    <use xlink:href="#DejaVuSerif-69" transform="translate(3134.533203 0)"/>
    <use xlink:href="#DejaVuSerif-73" transform="translate(3166.515625 0)"/>
    <use xlink:href="#DejaVuSerif-63" transform="translate(3217.833984 0)"/>
    <use xlink:href="#DejaVuSerif-68" transform="translate(3273.839844 0)"/>
    <use xlink:href="#DejaVuSerif-65" transform="translate(3338.244141 0)"/>
    <use xlink:href="#DejaVuSerif-6e" transform="translate(3397.423828 0)"/>
    <use xlink:href="#DejaVuSerif-20" transform="translate(3461.828125 0)"/>
    <use xlink:href="#DejaVuSerif-48" transform="translate(3493.615234 0)"/>
    <use xlink:href="#DejaVuSerif-6f" transform="translate(3580.822266 0)"/>
    <use xlink:href="#DejaVuSerif-6d" transform="translate(3641.027344 0)"/>
    <use xlink:href="#DejaVuSerif-75" transform="translate(3735.851562 0)"/>
    <use xlink:href="#DejaVuSerif-6e" transform="translate(3800.255859 0)"/>
    <use xlink:href="#DejaVuSerif-6b" transform="translate(3864.660156 0)"/>
    <use xlink:href="#DejaVuSerif-75" transform="translate(3925.255859 0)"/>
    <use xlink:href="#DejaVuSerif-6c" transform="translate(3989.660156 0)"/>
    <use xlink:href="#DejaVuSerif-75" transform="translate(4021.642578 0)"/>
    <use xlink:href="#DejaVuSerif-73" transform="translate(4086.046875 0)"/>
   </g>
  </g>
 </g>
 <defs>
  <clipPath id="pe2015a7b98">
   <rect x="37.090313" y="52.8825" width="373.276558" height="256.654422"/>
  </clipPath>
  <clipPath id="pf1ff447990">
   <rect x="466.806871" y="52.8825" width="373.276558" height="256.654422"/>
  </clipPath>
 </defs>
</svg>
