<?xml version="1.0" encoding="utf-8" standalone="no"?>
<!DOCTYPE svg PUBLIC "-//W3C//DTD SVG 1.1//EN"
  "http://www.w3.org/Graphics/SVG/1.1/DTD/svg11.dtd">
<svg xmlns:xlink="http://www.w3.org/1999/xlink" width="859.128281pt" height="368.060781pt" viewBox="0 0 859.128281 368.060781" xmlns="http://www.w3.org/2000/svg" version="1.1">
 <metadata>
  <rdf:RDF xmlns:dc="http://purl.org/dc/elements/1.1/" xmlns:cc="http://creativecommons.org/ns#" xmlns:rdf="http://www.w3.org/1999/02/22-rdf-syntax-ns#">
   <cc:Work>
    <dc:type rdf:resource="http://purl.org/dc/dcmitype/StillImage"/>
    <dc:date>2026-04-05T17:55:46.465785</dc:date>
    <dc:format>image/svg+xml</dc:format>
    <dc:creator>
     <cc:Agent>
      <dc:title>Matplotlib v3.10.8, https://matplotlib.org/</dc:title>
     </cc:Agent>
    </dc:creator>
   </cc:Work>
  </rdf:RDF>
 </metadata>
 <defs>
  <style type="text/css">*{stroke-linejoin: round; stroke-linecap: butt}</style>
 </defs>
 <g id="figure_1">
  <g id="patch_1">
   <path d="M 0 368.060781 
L 859.128281 368.060781 
L 859.128281 0 
L 0 0 
z
" style="fill: #ffffff"/>
  </g>
  <g id="axes_1">
   <g id="patch_2">
    <path d="M 42.308281 333.28 
L 419.101918 333.28 
L 419.101918 52.8825 
L 42.308281 52.8825 
z
" style="fill: #ffffff"/>
   </g>
   <g id="matplotlib.axis_1">
    <g id="xtick_1">
     <g id="line2d_1">
      <path d="M 59.435265 333.28 
L 59.435265 52.8825 
" clip-path="url(#pdb48b21201)" style="fill: none; stroke: #b0b0b0; stroke-opacity: 0.3; stroke-width: 0.8; stroke-linecap: square"/>
     </g>
     <g id="line2d_2">
      <defs>
       <path id="mf255996af3" d="M 0 0 
L 0 3.5 
" style="stroke: #000000; stroke-width: 0.8"/>
      </defs>
      <g>
       <use xlink:href="#mf255996af3" x="59.435265" y="333.28" style="stroke: #000000; stroke-width: 0.8"/>
      </g>
     </g>
     <g id="text_1">
      <!-- 40 -->
      <g transform="translate(54.345265 346.35875) scale(0.08 -0.08)">
       <defs>
        <path id="DejaVuSerif-34" d="M 2234 1581 
L 2234 4063 
L 641 1581 
L 2234 1581 
z
M 3609 0 
L 1484 0 
L 1484 331 
L 2234 331 
L 2234 1247 
L 197 1247 
L 197 1588 
L 2241 4750 
L 2859 4750 
L 2859 1581 
L 3750 1581 
L 3750 1247 
L 2859 1247 
L 2859 331 
L 3609 331 
L 3609 0 
z
" transform="scale(0.015625)"/>
        <path id="DejaVuSerif-30" d="M 2034 219 
Q 2513 219 2750 744 
Q 2988 1269 2988 2328 
Q 2988 3391 2750 3916 
Q 2513 4441 2034 4441 
Q 1556 4441 1318 3916 
Q 1081 3391 1081 2328 
Q 1081 1269 1318 744 
Q 1556 219 2034 219 
z
M 2034 -91 
Q 1275 -91 848 546 
Q 422 1184 422 2328 
Q 422 3475 848 4112 
Q 1275 4750 2034 4750 
Q 2797 4750 3222 4112 
Q 3647 3475 3647 2328 
Q 3647 1184 3222 546 
Q 2797 -91 2034 -91 
z
" transform="scale(0.015625)"/>
       </defs>
       <use xlink:href="#DejaVuSerif-34"/>
       <use xlink:href="#DejaVuSerif-30" transform="translate(63.623047 0)"/>
      </g>
     </g>
    </g>
    <g id="xtick_2">
     <g id="line2d_3">
      <path d="M 102.252723 333.28 
L 102.252723 52.8825 
" clip-path="url(#pdb48b21201)" style="fill: none; stroke: #b0b0b0; stroke-opacity: 0.3; stroke-width: 0.8; stroke-linecap: square"/>
     </g>
     <g id="line2d_4">
      <g>
       <use xlink:href="#mf255996af3" x="102.252723" y="333.28" style="stroke: #000000; stroke-width: 0.8"/>
      </g>
     </g>
     <g id="text_2">
      <!-- 45 -->
      <g transform="translate(97.162723 346.35875) scale(0.08 -0.08)">
       <defs>
        <path id="DejaVuSerif-35" d="M 3219 4666 
L 3219 4153 
L 1081 4153 
L 1081 2816 
Q 1244 2928 1461 2984 
Q 1678 3041 1947 3041 
Q 2703 3041 3140 2622 
Q 3578 2203 3578 1478 
Q 3578 738 3136 323 
Q 2694 -91 1894 -91 
Q 1572 -91 1234 -12 
Q 897 66 544 225 
L 544 1131 
L 897 1131 
Q 925 688 1179 453 
Q 1434 219 1894 219 
Q 2388 219 2653 544 
Q 2919 869 2919 1478 
Q 2919 2084 2655 2407 
Q 2391 2731 1894 2731 
Q 1613 2731 1398 2631 
Q 1184 2531 1019 2322 
L 750 2322 
L 750 4666 
L 3219 4666 
z
" transform="scale(0.015625)"/>
       </defs>
       <use xlink:href="#DejaVuSerif-34"/>
       <use xlink:href="#DejaVuSerif-35" transform="translate(63.623047 0)"/>
      </g>
     </g>
    </g>
    <g id="xtick_3">
     <g id="line2d_5">
      <path d="M 145.070182 333.28 
L 145.070182 52.8825 
" clip-path="url(#pdb48b21201)" style="fill: none; stroke: #b0b0b0; stroke-opacity: 0.3; stroke-width: 0.8; stroke-linecap: square"/>
     </g>
     <g id="line2d_6">
      <g>
       <use xlink:href="#mf255996af3" x="145.070182" y="333.28" style="stroke: #000000; stroke-width: 0.8"/>
      </g>
     </g>
     <g id="text_3">
      <!-- 50 -->
      <g transform="translate(139.980182 346.35875) scale(0.08 -0.08)">
       <use xlink:href="#DejaVuSerif-35"/>
       <use xlink:href="#DejaVuSerif-30" transform="translate(63.623047 0)"/>
      </g>
     </g>
    </g>
    <g id="xtick_4">
     <g id="line2d_7">
      <path d="M 187.887641 333.28 
L 187.887641 52.8825 
" clip-path="url(#pdb48b21201)" style="fill: none; stroke: #b0b0b0; stroke-opacity: 0.3; stroke-width: 0.8; stroke-linecap: square"/>
     </g>
     <g id="line2d_8">
      <g>
       <use xlink:href="#mf255996af3" x="187.887641" y="333.28" style="stroke: #000000; stroke-width: 0.8"/>
      </g>
     </g>
     <g id="text_4">
      <!-- 55 -->
      <g transform="translate(182.797641 346.35875) scale(0.08 -0.08)">
       <use xlink:href="#DejaVuSerif-35"/>
       <use xlink:href="#DejaVuSerif-35" transform="translate(63.623047 0)"/>
      </g>
     </g>
    </g>
    <g id="xtick_5">
     <g id="line2d_9">
      <path d="M 230.705099 333.28 
L 230.705099 52.8825 
" clip-path="url(#pdb48b21201)" style="fill: none; stroke: #b0b0b0; stroke-opacity: 0.3; stroke-width: 0.8; stroke-linecap: square"/>
     </g>
     <g id="line2d_10">
      <g>
       <use xlink:href="#mf255996af3" x="230.705099" y="333.28" style="stroke: #000000; stroke-width: 0.8"/>
      </g>
     </g>
     <g id="text_5">
      <!-- 60 -->
      <g transform="translate(225.615099 346.35875) scale(0.08 -0.08)">
       <defs>
        <path id="DejaVuSerif-36" d="M 2094 219 
Q 2534 219 2771 542 
Q 3009 866 3009 1472 
Q 3009 2078 2771 2401 
Q 2534 2725 2094 2725 
Q 1647 2725 1412 2412 
Q 1178 2100 1178 1509 
Q 1178 888 1415 553 
Q 1653 219 2094 219 
z
M 1075 2569 
Q 1288 2803 1556 2918 
Q 1825 3034 2163 3034 
Q 2859 3034 3264 2615 
Q 3669 2197 3669 1472 
Q 3669 763 3233 336 
Q 2797 -91 2069 -91 
Q 1278 -91 853 498 
Q 428 1088 428 2181 
Q 428 3406 931 4078 
Q 1434 4750 2350 4750 
Q 2597 4750 2869 4703 
Q 3141 4656 3425 4563 
L 3425 3794 
L 3072 3794 
Q 3034 4109 2831 4275 
Q 2628 4441 2284 4441 
Q 1678 4441 1381 3981 
Q 1084 3522 1075 2569 
z
" transform="scale(0.015625)"/>
       </defs>
       <use xlink:href="#DejaVuSerif-36"/>
       <use xlink:href="#DejaVuSerif-30" transform="translate(63.623047 0)"/>
      </g>
     </g>
    </g>
    <g id="xtick_6">
     <g id="line2d_11">
      <path d="M 273.522558 333.28 
L 273.522558 52.8825 
" clip-path="url(#pdb48b21201)" style="fill: none; stroke: #b0b0b0; stroke-opacity: 0.3; stroke-width: 0.8; stroke-linecap: square"/>
     </g>
     <g id="line2d_12">
      <g>
       <use xlink:href="#mf255996af3" x="273.522558" y="333.28" style="stroke: #000000; stroke-width: 0.8"/>
      </g>
     </g>
     <g id="text_6">
      <!-- 65 -->
      <g transform="translate(268.432558 346.35875) scale(0.08 -0.08)">
       <use xlink:href="#DejaVuSerif-36"/>
       <use xlink:href="#DejaVuSerif-35" transform="translate(63.623047 0)"/>
      </g>
     </g>
    </g>
    <g id="xtick_7">
     <g id="line2d_13">
      <path d="M 316.340017 333.28 
L 316.340017 52.8825 
" clip-path="url(#pdb48b21201)" style="fill: none; stroke: #b0b0b0; stroke-opacity: 0.3; stroke-width: 0.8; stroke-linecap: square"/>
     </g>
     <g id="line2d_14">
      <g>
       <use xlink:href="#mf255996af3" x="316.340017" y="333.28" style="stroke: #000000; stroke-width: 0.8"/>
      </g>
     </g>
     <g id="text_7">
      <!-- 70 -->
      <g transform="translate(311.250017 346.35875) scale(0.08 -0.08)">
       <defs>
        <path id="DejaVuSerif-37" d="M 3609 4347 
L 1784 0 
L 1319 0 
L 3059 4153 
L 903 4153 
L 903 3578 
L 538 3578 
L 538 4666 
L 3609 4666 
L 3609 4347 
z
" transform="scale(0.015625)"/>
       </defs>
       <use xlink:href="#DejaVuSerif-37"/>
       <use xlink:href="#DejaVuSerif-30" transform="translate(63.623047 0)"/>
      </g>
     </g>
    </g>
    <g id="xtick_8">
     <g id="line2d_15">
      <path d="M 359.157475 333.28 
L 359.157475 52.8825 
" clip-path="url(#pdb48b21201)" style="fill: none; stroke: #b0b0b0; stroke-opacity: 0.3; stroke-width: 0.8; stroke-linecap: square"/>
     </g>
     <g id="line2d_16">
      <g>
       <use xlink:href="#mf255996af3" x="359.157475" y="333.28" style="stroke: #000000; stroke-width: 0.8"/>
      </g>
     </g>
     <g id="text_8">
      <!-- 75 -->
      <g transform="translate(354.067475 346.35875) scale(0.08 -0.08)">
       <use xlink:href="#DejaVuSerif-37"/>
       <use xlink:href="#DejaVuSerif-35" transform="translate(63.623047 0)"/>
      </g>
     </g>
    </g>
    <g id="xtick_9">
     <g id="line2d_17">
      <path d="M 401.974934 333.28 
L 401.974934 52.8825 
" clip-path="url(#pdb48b21201)" style="fill: none; stroke: #b0b0b0; stroke-opacity: 0.3; stroke-width: 0.8; stroke-linecap: square"/>
     </g>
     <g id="line2d_18">
      <g>
       <use xlink:href="#mf255996af3" x="401.974934" y="333.28" style="stroke: #000000; stroke-width: 0.8"/>
      </g>
     </g>
     <g id="text_9">
      <!-- 80 -->
      <g transform="translate(396.884934 346.35875) scale(0.08 -0.08)">
       <defs>
        <path id="DejaVuSerif-38" d="M 2981 1275 
Q 2981 1775 2732 2051 
Q 2484 2328 2034 2328 
Q 1584 2328 1336 2051 
Q 1088 1775 1088 1275 
Q 1088 772 1336 495 
Q 1584 219 2034 219 
Q 2484 219 2732 495 
Q 2981 772 2981 1275 
z
M 2853 3541 
Q 2853 3966 2637 4203 
Q 2422 4441 2034 4441 
Q 1650 4441 1433 4203 
Q 1216 3966 1216 3541 
Q 1216 3113 1433 2875 
Q 1650 2638 2034 2638 
Q 2422 2638 2637 2875 
Q 2853 3113 2853 3541 
z
M 2516 2484 
Q 3047 2413 3344 2092 
Q 3641 1772 3641 1275 
Q 3641 619 3225 264 
Q 2809 -91 2034 -91 
Q 1263 -91 845 264 
Q 428 619 428 1275 
Q 428 1772 725 2092 
Q 1022 2413 1556 2484 
Q 1084 2569 832 2842 
Q 581 3116 581 3541 
Q 581 4103 968 4426 
Q 1356 4750 2034 4750 
Q 2713 4750 3100 4426 
Q 3488 4103 3488 3541 
Q 3488 3116 3236 2842 
Q 2984 2569 2516 2484 
z
" transform="scale(0.015625)"/>
       </defs>
       <use xlink:href="#DejaVuSerif-38"/>
       <use xlink:href="#DejaVuSerif-30" transform="translate(63.623047 0)"/>
      </g>
     </g>
    </g>
    <g id="text_10">
     <!-- Leitungsgeschwindigkeit [m/s] -->
     <g transform="translate(160.486115 358.861094) scale(0.09 -0.09)">
      <defs>
       <path id="DejaVuSerif-4c" d="M 353 0 
L 353 331 
L 947 331 
L 947 4331 
L 353 4331 
L 353 4666 
L 2175 4666 
L 2175 4331 
L 1581 4331 
L 1581 384 
L 3713 384 
L 3713 1166 
L 4097 1166 
L 4097 0 
L 353 0 
z
" transform="scale(0.015625)"/>
       <path id="DejaVuSerif-65" d="M 3469 1600 
L 991 1600 
L 991 1575 
Q 991 903 1244 561 
Q 1497 219 1991 219 
Q 2369 219 2611 417 
Q 2853 616 2950 1006 
L 3413 1006 
Q 3275 459 2904 184 
Q 2534 -91 1931 -91 
Q 1203 -91 761 389 
Q 319 869 319 1663 
Q 319 2450 753 2931 
Q 1188 3413 1894 3413 
Q 2647 3413 3050 2948 
Q 3453 2484 3469 1600 
z
M 2791 1931 
Q 2772 2513 2545 2808 
Q 2319 3103 1894 3103 
Q 1497 3103 1269 2806 
Q 1041 2509 991 1931 
L 2791 1931 
z
" transform="scale(0.015625)"/>
       <path id="DejaVuSerif-69" d="M 622 4353 
Q 622 4497 726 4603 
Q 831 4709 978 4709 
Q 1122 4709 1226 4603 
Q 1331 4497 1331 4353 
Q 1331 4206 1228 4103 
Q 1125 4000 978 4000 
Q 831 4000 726 4103 
Q 622 4206 622 4353 
z
M 1356 331 
L 1900 331 
L 1900 0 
L 231 0 
L 231 331 
L 781 331 
L 781 2988 
L 231 2988 
L 231 3322 
L 1356 3322 
L 1356 331 
z
" transform="scale(0.015625)"/>
       <path id="DejaVuSerif-74" d="M 691 2988 
L 184 2988 
L 184 3322 
L 691 3322 
L 691 4353 
L 1269 4353 
L 1269 3322 
L 2350 3322 
L 2350 2988 
L 1269 2988 
L 1269 878 
Q 1269 456 1350 337 
Q 1431 219 1650 219 
Q 1875 219 1978 351 
Q 2081 484 2088 781 
L 2522 781 
Q 2497 328 2275 118 
Q 2053 -91 1600 -91 
Q 1103 -91 897 129 
Q 691 350 691 878 
L 691 2988 
z
" transform="scale(0.015625)"/>
       <path id="DejaVuSerif-75" d="M 2266 3322 
L 3341 3322 
L 3341 331 
L 3884 331 
L 3884 0 
L 2766 0 
L 2766 588 
Q 2606 256 2353 82 
Q 2100 -91 1766 -91 
Q 1213 -91 952 223 
Q 691 538 691 1209 
L 691 2988 
L 172 2988 
L 172 3322 
L 1269 3322 
L 1269 1388 
Q 1269 781 1417 556 
Q 1566 331 1947 331 
Q 2347 331 2556 625 
Q 2766 919 2766 1478 
L 2766 2988 
L 2266 2988 
L 2266 3322 
z
" transform="scale(0.015625)"/>
       <path id="DejaVuSerif-6e" d="M 263 0 
L 263 331 
L 781 331 
L 781 2988 
L 231 2988 
L 231 3322 
L 1356 3322 
L 1356 2731 
Q 1516 3069 1770 3241 
Q 2025 3413 2363 3413 
Q 2913 3413 3172 3097 
Q 3431 2781 3431 2113 
L 3431 331 
L 3944 331 
L 3944 0 
L 2356 0 
L 2356 331 
L 2853 331 
L 2853 1931 
Q 2853 2541 2703 2767 
Q 2553 2994 2175 2994 
Q 1775 2994 1565 2701 
Q 1356 2409 1356 1850 
L 1356 331 
L 1856 331 
L 1856 0 
L 263 0 
z
" transform="scale(0.015625)"/>
       <path id="DejaVuSerif-67" d="M 3359 2988 
L 3359 72 
Q 3359 -644 2965 -1033 
Q 2572 -1422 1844 -1422 
Q 1516 -1422 1216 -1362 
Q 916 -1303 641 -1184 
L 641 -488 
L 941 -488 
Q 997 -813 1206 -963 
Q 1416 -1113 1806 -1113 
Q 2313 -1113 2548 -827 
Q 2784 -541 2784 72 
L 2784 519 
Q 2616 206 2355 57 
Q 2094 -91 1709 -91 
Q 1097 -91 708 395 
Q 319 881 319 1663 
Q 319 2444 706 2928 
Q 1094 3413 1709 3413 
Q 2094 3413 2355 3264 
Q 2616 3116 2784 2803 
L 2784 3322 
L 3909 3322 
L 3909 2988 
L 3359 2988 
z
M 2784 1825 
Q 2784 2422 2554 2737 
Q 2325 3053 1888 3053 
Q 1444 3053 1217 2703 
Q 991 2353 991 1663 
Q 991 975 1217 622 
Q 1444 269 1888 269 
Q 2325 269 2554 583 
Q 2784 897 2784 1497 
L 2784 1825 
z
" transform="scale(0.015625)"/>
       <path id="DejaVuSerif-73" d="M 359 184 
L 359 959 
L 691 959 
Q 703 588 923 403 
Q 1144 219 1575 219 
Q 1963 219 2166 364 
Q 2369 509 2369 788 
Q 2369 1006 2220 1140 
Q 2072 1275 1594 1428 
L 1178 1569 
Q 750 1706 558 1912 
Q 366 2119 366 2438 
Q 366 2894 700 3153 
Q 1034 3413 1625 3413 
Q 1888 3413 2178 3344 
Q 2469 3275 2778 3144 
L 2778 2419 
L 2447 2419 
Q 2434 2741 2221 2922 
Q 2009 3103 1644 3103 
Q 1281 3103 1095 2975 
Q 909 2847 909 2591 
Q 909 2381 1050 2254 
Q 1191 2128 1613 1997 
L 2069 1856 
Q 2541 1709 2748 1489 
Q 2956 1269 2956 922 
Q 2956 450 2595 179 
Q 2234 -91 1600 -91 
Q 1278 -91 972 -22 
Q 666 47 359 184 
z
" transform="scale(0.015625)"/>
       <path id="DejaVuSerif-63" d="M 3291 997 
Q 3169 466 2822 187 
Q 2475 -91 1925 -91 
Q 1200 -91 759 389 
Q 319 869 319 1663 
Q 319 2459 759 2936 
Q 1200 3413 1925 3413 
Q 2241 3413 2553 3339 
Q 2866 3266 3181 3116 
L 3181 2266 
L 2847 2266 
Q 2781 2703 2561 2903 
Q 2341 3103 1931 3103 
Q 1466 3103 1228 2742 
Q 991 2381 991 1663 
Q 991 944 1227 581 
Q 1463 219 1931 219 
Q 2303 219 2525 412 
Q 2747 606 2828 997 
L 3291 997 
z
" transform="scale(0.015625)"/>
       <path id="DejaVuSerif-68" d="M 263 0 
L 263 331 
L 781 331 
L 781 4531 
L 231 4531 
L 231 4863 
L 1356 4863 
L 1356 2731 
Q 1516 3069 1770 3241 
Q 2025 3413 2363 3413 
Q 2913 3413 3172 3097 
Q 3431 2781 3431 2113 
L 3431 331 
L 3944 331 
L 3944 0 
L 2356 0 
L 2356 331 
L 2853 331 
L 2853 1931 
Q 2853 2541 2704 2764 
Q 2556 2988 2175 2988 
Q 1775 2988 1565 2697 
Q 1356 2406 1356 1850 
L 1356 331 
L 1856 331 
L 1856 0 
L 263 0 
z
" transform="scale(0.015625)"/>
       <path id="DejaVuSerif-77" d="M 3072 3322 
L 3922 728 
L 4672 2988 
L 4191 2988 
L 4191 3322 
L 5394 3322 
L 5394 2988 
L 5025 2988 
L 4038 0 
L 3559 0 
L 2741 2484 
L 1919 0 
L 1459 0 
L 475 2988 
L 103 2988 
L 103 3322 
L 1606 3322 
L 1606 2988 
L 1069 2988 
L 1813 728 
L 2669 3322 
L 3072 3322 
z
" transform="scale(0.015625)"/>
       <path id="DejaVuSerif-64" d="M 3359 331 
L 3909 331 
L 3909 0 
L 2784 0 
L 2784 519 
Q 2616 206 2355 57 
Q 2094 -91 1709 -91 
Q 1097 -91 708 395 
Q 319 881 319 1663 
Q 319 2444 706 2928 
Q 1094 3413 1709 3413 
Q 2094 3413 2355 3264 
Q 2616 3116 2784 2803 
L 2784 4531 
L 2241 4531 
L 2241 4863 
L 3359 4863 
L 3359 331 
z
M 2784 1497 
L 2784 1825 
Q 2784 2422 2554 2737 
Q 2325 3053 1888 3053 
Q 1444 3053 1217 2703 
Q 991 2353 991 1663 
Q 991 975 1217 622 
Q 1444 269 1888 269 
Q 2325 269 2554 583 
Q 2784 897 2784 1497 
z
" transform="scale(0.015625)"/>
       <path id="DejaVuSerif-6b" d="M 1831 0 
L 219 0 
L 219 331 
L 738 331 
L 738 4531 
L 184 4531 
L 184 4863 
L 1313 4863 
L 1313 1697 
L 2713 2988 
L 2234 2988 
L 2234 3322 
L 3738 3322 
L 3738 2988 
L 3169 2988 
L 2181 2075 
L 3444 331 
L 3922 331 
L 3922 0 
L 2284 0 
L 2284 331 
L 2759 331 
L 1766 1697 
L 1313 1275 
L 1313 331 
L 1831 331 
L 1831 0 
z
" transform="scale(0.015625)"/>
       <path id="DejaVuSerif-20" transform="scale(0.015625)"/>
       <path id="DejaVuSerif-5b" d="M 550 4863 
L 2003 4863 
L 2003 4531 
L 1147 4531 
L 1147 -513 
L 2003 -513 
L 2003 -844 
L 550 -844 
L 550 4863 
z
" transform="scale(0.015625)"/>
       <path id="DejaVuSerif-6d" d="M 3316 2675 
Q 3481 3041 3739 3227 
Q 3997 3413 4341 3413 
Q 4863 3413 5119 3089 
Q 5375 2766 5375 2113 
L 5375 331 
L 5894 331 
L 5894 0 
L 4300 0 
L 4300 331 
L 4800 331 
L 4800 2047 
Q 4800 2556 4650 2772 
Q 4500 2988 4153 2988 
Q 3769 2988 3567 2697 
Q 3366 2406 3366 1850 
L 3366 331 
L 3866 331 
L 3866 0 
L 2291 0 
L 2291 331 
L 2791 331 
L 2791 2069 
Q 2791 2566 2641 2777 
Q 2491 2988 2144 2988 
Q 1759 2988 1557 2697 
Q 1356 2406 1356 1850 
L 1356 331 
L 1856 331 
L 1856 0 
L 263 0 
L 263 331 
L 781 331 
L 781 2994 
L 231 2994 
L 231 3322 
L 1356 3322 
L 1356 2731 
Q 1516 3063 1762 3238 
Q 2009 3413 2322 3413 
Q 2709 3413 2968 3220 
Q 3228 3028 3316 2675 
z
" transform="scale(0.015625)"/>
       <path id="DejaVuSerif-2f" d="M 1656 4666 
L 2156 4666 
L 500 -594 
L 0 -594 
L 1656 4666 
z
" transform="scale(0.015625)"/>
       <path id="DejaVuSerif-5d" d="M 1947 4863 
L 1947 -844 
L 494 -844 
L 494 -513 
L 1350 -513 
L 1350 4531 
L 494 4531 
L 494 4863 
L 1947 4863 
z
" transform="scale(0.015625)"/>
      </defs>
      <use xlink:href="#DejaVuSerif-4c"/>
      <use xlink:href="#DejaVuSerif-65" transform="translate(66.40625 0)"/>
      <use xlink:href="#DejaVuSerif-69" transform="translate(125.585938 0)"/>
      <use xlink:href="#DejaVuSerif-74" transform="translate(157.568359 0)"/>
      <use xlink:href="#DejaVuSerif-75" transform="translate(197.753906 0)"/>
      <use xlink:href="#DejaVuSerif-6e" transform="translate(262.158203 0)"/>
      <use xlink:href="#DejaVuSerif-67" transform="translate(326.5625 0)"/>
      <use xlink:href="#DejaVuSerif-73" transform="translate(390.576172 0)"/>
      <use xlink:href="#DejaVuSerif-67" transform="translate(441.894531 0)"/>
      <use xlink:href="#DejaVuSerif-65" transform="translate(505.908203 0)"/>
      <use xlink:href="#DejaVuSerif-73" transform="translate(565.087891 0)"/>
      <use xlink:href="#DejaVuSerif-63" transform="translate(616.40625 0)"/>
      <use xlink:href="#DejaVuSerif-68" transform="translate(672.412109 0)"/>
      <use xlink:href="#DejaVuSerif-77" transform="translate(736.816406 0)"/>
      <use xlink:href="#DejaVuSerif-69" transform="translate(822.412109 0)"/>
      <use xlink:href="#DejaVuSerif-6e" transform="translate(854.394531 0)"/>
      <use xlink:href="#DejaVuSerif-64" transform="translate(918.798828 0)"/>
      <use xlink:href="#DejaVuSerif-69" transform="translate(982.8125 0)"/>
      <use xlink:href="#DejaVuSerif-67" transform="translate(1014.794922 0)"/>
      <use xlink:href="#DejaVuSerif-6b" transform="translate(1078.808594 0)"/>
      <use xlink:href="#DejaVuSerif-65" transform="translate(1139.404297 0)"/>
      <use xlink:href="#DejaVuSerif-69" transform="translate(1198.583984 0)"/>
      <use xlink:href="#DejaVuSerif-74" transform="translate(1230.566406 0)"/>
      <use xlink:href="#DejaVuSerif-20" transform="translate(1270.751953 0)"/>
      <use xlink:href="#DejaVuSerif-5b" transform="translate(1302.539062 0)"/>
      <use xlink:href="#DejaVuSerif-6d" transform="translate(1341.552734 0)"/>
      <use xlink:href="#DejaVuSerif-2f" transform="translate(1436.376953 0)"/>
      <use xlink:href="#DejaVuSerif-73" transform="translate(1470.068359 0)"/>
      <use xlink:href="#DejaVuSerif-5d" transform="translate(1521.386719 0)"/>
     </g>
    </g>
   </g>
   <g id="matplotlib.axis_2">
    <g id="ytick_1">
     <g id="line2d_19">
      <path d="M 42.308281 327.817711 
L 419.101918 327.817711 
" clip-path="url(#pdb48b21201)" style="fill: none; stroke: #b0b0b0; stroke-opacity: 0.3; stroke-width: 0.8; stroke-linecap: square"/>
     </g>
     <g id="line2d_20">
      <defs>
       <path id="mc1540863eb" d="M 0 0 
L -3.5 0 
" style="stroke: #000000; stroke-width: 0.8"/>
      </defs>
      <g>
       <use xlink:href="#mc1540863eb" x="42.308281" y="327.817711" style="stroke: #000000; stroke-width: 0.8"/>
      </g>
     </g>
     <g id="text_11">
      <!-- 0 -->
      <g transform="translate(30.218281 330.857086) scale(0.08 -0.08)">
       <use xlink:href="#DejaVuSerif-30"/>
      </g>
     </g>
    </g>
    <g id="ytick_2">
     <g id="line2d_21">
      <path d="M 42.308281 291.402451 
L 419.101918 291.402451 
" clip-path="url(#pdb48b21201)" style="fill: none; stroke: #b0b0b0; stroke-opacity: 0.3; stroke-width: 0.8; stroke-linecap: square"/>
     </g>
     <g id="line2d_22">
      <g>
       <use xlink:href="#mc1540863eb" x="42.308281" y="291.402451" style="stroke: #000000; stroke-width: 0.8"/>
      </g>
     </g>
     <g id="text_12">
      <!-- 25 -->
      <g transform="translate(25.128281 294.441826) scale(0.08 -0.08)">
       <defs>
        <path id="DejaVuSerif-32" d="M 819 3553 
L 469 3553 
L 469 4384 
Q 803 4563 1142 4656 
Q 1481 4750 1806 4750 
Q 2534 4750 2956 4397 
Q 3378 4044 3378 3438 
Q 3378 2753 2422 1800 
Q 2347 1728 2309 1691 
L 1131 513 
L 3078 513 
L 3078 1088 
L 3444 1088 
L 3444 0 
L 434 0 
L 434 341 
L 1850 1753 
Q 2319 2222 2519 2614 
Q 2719 3006 2719 3438 
Q 2719 3909 2473 4175 
Q 2228 4441 1797 4441 
Q 1350 4441 1106 4219 
Q 863 3997 819 3553 
z
" transform="scale(0.015625)"/>
       </defs>
       <use xlink:href="#DejaVuSerif-32"/>
       <use xlink:href="#DejaVuSerif-35" transform="translate(63.623047 0)"/>
      </g>
     </g>
    </g>
    <g id="ytick_3">
     <g id="line2d_23">
      <path d="M 42.308281 254.987192 
L 419.101918 254.987192 
" clip-path="url(#pdb48b21201)" style="fill: none; stroke: #b0b0b0; stroke-opacity: 0.3; stroke-width: 0.8; stroke-linecap: square"/>
     </g>
     <g id="line2d_24">
      <g>
       <use xlink:href="#mc1540863eb" x="42.308281" y="254.987192" style="stroke: #000000; stroke-width: 0.8"/>
      </g>
     </g>
     <g id="text_13">
      <!-- 50 -->
      <g transform="translate(25.128281 258.026567) scale(0.08 -0.08)">
       <use xlink:href="#DejaVuSerif-35"/>
       <use xlink:href="#DejaVuSerif-30" transform="translate(63.623047 0)"/>
      </g>
     </g>
    </g>
    <g id="ytick_4">
     <g id="line2d_25">
      <path d="M 42.308281 218.571932 
L 419.101918 218.571932 
" clip-path="url(#pdb48b21201)" style="fill: none; stroke: #b0b0b0; stroke-opacity: 0.3; stroke-width: 0.8; stroke-linecap: square"/>
     </g>
     <g id="line2d_26">
      <g>
       <use xlink:href="#mc1540863eb" x="42.308281" y="218.571932" style="stroke: #000000; stroke-width: 0.8"/>
      </g>
     </g>
     <g id="text_14">
      <!-- 75 -->
      <g transform="translate(25.128281 221.611307) scale(0.08 -0.08)">
       <use xlink:href="#DejaVuSerif-37"/>
       <use xlink:href="#DejaVuSerif-35" transform="translate(63.623047 0)"/>
      </g>
     </g>
    </g>
    <g id="ytick_5">
     <g id="line2d_27">
      <path d="M 42.308281 182.156672 
L 419.101918 182.156672 
" clip-path="url(#pdb48b21201)" style="fill: none; stroke: #b0b0b0; stroke-opacity: 0.3; stroke-width: 0.8; stroke-linecap: square"/>
     </g>
     <g id="line2d_28">
      <g>
       <use xlink:href="#mc1540863eb" x="42.308281" y="182.156672" style="stroke: #000000; stroke-width: 0.8"/>
      </g>
     </g>
     <g id="text_15">
      <!-- 100 -->
      <g transform="translate(20.038281 185.196047) scale(0.08 -0.08)">
       <defs>
        <path id="DejaVuSerif-31" d="M 909 0 
L 909 331 
L 1722 331 
L 1722 4213 
L 781 3603 
L 781 4013 
L 1919 4750 
L 2350 4750 
L 2350 331 
L 3163 331 
L 3163 0 
L 909 0 
z
" transform="scale(0.015625)"/>
       </defs>
       <use xlink:href="#DejaVuSerif-31"/>
       <use xlink:href="#DejaVuSerif-30" transform="translate(63.623047 0)"/>
       <use xlink:href="#DejaVuSerif-30" transform="translate(127.246094 0)"/>
      </g>
     </g>
    </g>
    <g id="ytick_6">
     <g id="line2d_29">
      <path d="M 42.308281 145.741412 
L 419.101918 145.741412 
" clip-path="url(#pdb48b21201)" style="fill: none; stroke: #b0b0b0; stroke-opacity: 0.3; stroke-width: 0.8; stroke-linecap: square"/>
     </g>
     <g id="line2d_30">
      <g>
       <use xlink:href="#mc1540863eb" x="42.308281" y="145.741412" style="stroke: #000000; stroke-width: 0.8"/>
      </g>
     </g>
     <g id="text_16">
      <!-- 125 -->
      <g transform="translate(20.038281 148.780787) scale(0.08 -0.08)">
       <use xlink:href="#DejaVuSerif-31"/>
       <use xlink:href="#DejaVuSerif-32" transform="translate(63.623047 0)"/>
       <use xlink:href="#DejaVuSerif-35" transform="translate(127.246094 0)"/>
      </g>
     </g>
    </g>
    <g id="ytick_7">
     <g id="line2d_31">
      <path d="M 42.308281 109.326153 
L 419.101918 109.326153 
" clip-path="url(#pdb48b21201)" style="fill: none; stroke: #b0b0b0; stroke-opacity: 0.3; stroke-width: 0.8; stroke-linecap: square"/>
     </g>
     <g id="line2d_32">
      <g>
       <use xlink:href="#mc1540863eb" x="42.308281" y="109.326153" style="stroke: #000000; stroke-width: 0.8"/>
      </g>
     </g>
     <g id="text_17">
      <!-- 150 -->
      <g transform="translate(20.038281 112.365528) scale(0.08 -0.08)">
       <use xlink:href="#DejaVuSerif-31"/>
       <use xlink:href="#DejaVuSerif-35" transform="translate(63.623047 0)"/>
       <use xlink:href="#DejaVuSerif-30" transform="translate(127.246094 0)"/>
      </g>
     </g>
    </g>
    <g id="ytick_8">
     <g id="line2d_33">
      <path d="M 42.308281 72.910893 
L 419.101918 72.910893 
" clip-path="url(#pdb48b21201)" style="fill: none; stroke: #b0b0b0; stroke-opacity: 0.3; stroke-width: 0.8; stroke-linecap: square"/>
     </g>
     <g id="line2d_34">
      <g>
       <use xlink:href="#mc1540863eb" x="42.308281" y="72.910893" style="stroke: #000000; stroke-width: 0.8"/>
      </g>
     </g>
     <g id="text_18">
      <!-- 175 -->
      <g transform="translate(20.038281 75.950268) scale(0.08 -0.08)">
       <use xlink:href="#DejaVuSerif-31"/>
       <use xlink:href="#DejaVuSerif-37" transform="translate(63.623047 0)"/>
       <use xlink:href="#DejaVuSerif-35" transform="translate(127.246094 0)"/>
      </g>
     </g>
    </g>
    <g id="text_19">
     <!-- Rezeptordichte [Rez./cm²] an der Fingerkuppe -->
     <g transform="translate(14.038594 299.600469) rotate(-90) scale(0.09 -0.09)">
      <defs>
       <path id="DejaVuSerif-52" d="M 3066 2316 
Q 3284 2256 3442 2114 
Q 3600 1972 3725 1716 
L 4403 331 
L 4972 331 
L 4972 0 
L 3872 0 
L 3144 1484 
Q 2934 1916 2759 2042 
Q 2584 2169 2278 2169 
L 1581 2169 
L 1581 331 
L 2241 331 
L 2241 0 
L 353 0 
L 353 331 
L 947 331 
L 947 4331 
L 353 4331 
L 353 4666 
L 2719 4666 
Q 3400 4666 3770 4341 
Q 4141 4016 4141 3419 
Q 4141 2938 3870 2661 
Q 3600 2384 3066 2316 
z
M 1581 2503 
L 2503 2503 
Q 2975 2503 3200 2726 
Q 3425 2950 3425 3419 
Q 3425 3888 3200 4109 
Q 2975 4331 2503 4331 
L 1581 4331 
L 1581 2503 
z
" transform="scale(0.015625)"/>
       <path id="DejaVuSerif-7a" d="M 256 0 
L 256 269 
L 2338 2988 
L 691 2988 
L 691 2413 
L 359 2413 
L 359 3322 
L 3078 3322 
L 3078 3053 
L 997 331 
L 2803 331 
L 2803 934 
L 3138 934 
L 3138 0 
L 256 0 
z
" transform="scale(0.015625)"/>
       <path id="DejaVuSerif-70" d="M 1313 1825 
L 1313 1497 
Q 1313 897 1542 583 
Q 1772 269 2209 269 
Q 2650 269 2876 622 
Q 3103 975 3103 1663 
Q 3103 2353 2876 2703 
Q 2650 3053 2209 3053 
Q 1772 3053 1542 2737 
Q 1313 2422 1313 1825 
z
M 738 2988 
L 184 2988 
L 184 3322 
L 1313 3322 
L 1313 2803 
Q 1481 3116 1742 3264 
Q 2003 3413 2388 3413 
Q 3000 3413 3387 2928 
Q 3775 2444 3775 1663 
Q 3775 881 3387 395 
Q 3000 -91 2388 -91 
Q 2003 -91 1742 57 
Q 1481 206 1313 519 
L 1313 -997 
L 1856 -997 
L 1856 -1331 
L 184 -1331 
L 184 -997 
L 738 -997 
L 738 2988 
z
" transform="scale(0.015625)"/>
       <path id="DejaVuSerif-6f" d="M 1925 219 
Q 2388 219 2623 584 
Q 2859 950 2859 1663 
Q 2859 2375 2623 2739 
Q 2388 3103 1925 3103 
Q 1463 3103 1227 2739 
Q 991 2375 991 1663 
Q 991 950 1228 584 
Q 1466 219 1925 219 
z
M 1925 -91 
Q 1200 -91 759 389 
Q 319 869 319 1663 
Q 319 2456 758 2934 
Q 1197 3413 1925 3413 
Q 2653 3413 3092 2934 
Q 3531 2456 3531 1663 
Q 3531 869 3092 389 
Q 2653 -91 1925 -91 
z
" transform="scale(0.015625)"/>
       <path id="DejaVuSerif-72" d="M 3059 3328 
L 3059 2497 
L 2728 2497 
Q 2713 2744 2591 2866 
Q 2469 2988 2234 2988 
Q 1809 2988 1582 2694 
Q 1356 2400 1356 1850 
L 1356 331 
L 2022 331 
L 2022 0 
L 263 0 
L 263 331 
L 781 331 
L 781 2994 
L 231 2994 
L 231 3322 
L 1356 3322 
L 1356 2731 
Q 1525 3078 1790 3245 
Q 2056 3413 2438 3413 
Q 2578 3413 2733 3391 
Q 2888 3369 3059 3328 
z
" transform="scale(0.015625)"/>
       <path id="DejaVuSerif-2e" d="M 603 325 
Q 603 500 722 622 
Q 841 744 1019 744 
Q 1191 744 1312 622 
Q 1434 500 1434 325 
Q 1434 153 1312 31 
Q 1191 -91 1019 -91 
Q 841 -91 722 29 
Q 603 150 603 325 
z
" transform="scale(0.015625)"/>
       <path id="DejaVuSerif-b2" d="M 531 4050 
L 313 4050 
L 313 4544 
Q 519 4644 737 4697 
Q 956 4750 1172 4750 
Q 1603 4750 1870 4544 
Q 2138 4338 2138 4013 
Q 2138 3631 1531 3088 
L 1472 3034 
L 728 2363 
L 1931 2363 
L 1931 2700 
L 2163 2700 
L 2163 2088 
L 281 2088 
L 281 2322 
L 1172 3116 
Q 1441 3356 1556 3547 
Q 1672 3738 1672 3944 
Q 1672 4209 1520 4364 
Q 1369 4519 1106 4519 
Q 863 4519 716 4400 
Q 569 4281 531 4050 
z
" transform="scale(0.015625)"/>
       <path id="DejaVuSerif-61" d="M 2547 1044 
L 2547 1747 
L 1806 1747 
Q 1378 1747 1168 1562 
Q 959 1378 959 997 
Q 959 650 1171 447 
Q 1384 244 1747 244 
Q 2106 244 2326 466 
Q 2547 688 2547 1044 
z
M 3122 2075 
L 3122 331 
L 3634 331 
L 3634 0 
L 2547 0 
L 2547 359 
Q 2356 128 2106 18 
Q 1856 -91 1522 -91 
Q 969 -91 644 203 
Q 319 497 319 997 
Q 319 1513 691 1797 
Q 1063 2081 1741 2081 
L 2547 2081 
L 2547 2309 
Q 2547 2688 2317 2895 
Q 2088 3103 1672 3103 
Q 1328 3103 1125 2947 
Q 922 2791 872 2484 
L 575 2484 
L 575 3156 
Q 875 3284 1158 3348 
Q 1441 3413 1709 3413 
Q 2400 3413 2761 3070 
Q 3122 2728 3122 2075 
z
" transform="scale(0.015625)"/>
       <path id="DejaVuSerif-46" d="M 353 0 
L 353 331 
L 947 331 
L 947 4331 
L 353 4331 
L 353 4666 
L 4172 4666 
L 4172 3628 
L 3788 3628 
L 3788 4281 
L 1581 4281 
L 1581 2719 
L 3175 2719 
L 3175 3303 
L 3559 3303 
L 3559 1753 
L 3175 1753 
L 3175 2338 
L 1581 2338 
L 1581 331 
L 2328 331 
L 2328 0 
L 353 0 
z
" transform="scale(0.015625)"/>
      </defs>
      <use xlink:href="#DejaVuSerif-52"/>
      <use xlink:href="#DejaVuSerif-65" transform="translate(75.292969 0)"/>
      <use xlink:href="#DejaVuSerif-7a" transform="translate(134.472656 0)"/>
      <use xlink:href="#DejaVuSerif-65" transform="translate(187.158203 0)"/>
      <use xlink:href="#DejaVuSerif-70" transform="translate(246.337891 0)"/>
      <use xlink:href="#DejaVuSerif-74" transform="translate(310.351562 0)"/>
      <use xlink:href="#DejaVuSerif-6f" transform="translate(350.537109 0)"/>
      <use xlink:href="#DejaVuSerif-72" transform="translate(410.742188 0)"/>
      <use xlink:href="#DejaVuSerif-64" transform="translate(458.544922 0)"/>
      <use xlink:href="#DejaVuSerif-69" transform="translate(522.558594 0)"/>
      <use xlink:href="#DejaVuSerif-63" transform="translate(554.541016 0)"/>
      <use xlink:href="#DejaVuSerif-68" transform="translate(610.546875 0)"/>
      <use xlink:href="#DejaVuSerif-74" transform="translate(674.951172 0)"/>
      <use xlink:href="#DejaVuSerif-65" transform="translate(715.136719 0)"/>
      <use xlink:href="#DejaVuSerif-20" transform="translate(774.316406 0)"/>
      <use xlink:href="#DejaVuSerif-5b" transform="translate(806.103516 0)"/>
      <use xlink:href="#DejaVuSerif-52" transform="translate(845.117188 0)"/>
      <use xlink:href="#DejaVuSerif-65" transform="translate(920.410156 0)"/>
      <use xlink:href="#DejaVuSerif-7a" transform="translate(979.589844 0)"/>
      <use xlink:href="#DejaVuSerif-2e" transform="translate(1032.275391 0)"/>
      <use xlink:href="#DejaVuSerif-2f" transform="translate(1064.0625 0)"/>
      <use xlink:href="#DejaVuSerif-63" transform="translate(1097.753906 0)"/>
      <use xlink:href="#DejaVuSerif-6d" transform="translate(1153.759766 0)"/>
      <use xlink:href="#DejaVuSerif-b2" transform="translate(1248.583984 0)"/>
      <use xlink:href="#DejaVuSerif-5d" transform="translate(1288.671875 0)"/>
      <use xlink:href="#DejaVuSerif-20" transform="translate(1327.685547 0)"/>
      <use xlink:href="#DejaVuSerif-61" transform="translate(1359.472656 0)"/>
      <use xlink:href="#DejaVuSerif-6e" transform="translate(1419.091797 0)"/>
      <use xlink:href="#DejaVuSerif-20" transform="translate(1483.496094 0)"/>
      <use xlink:href="#DejaVuSerif-64" transform="translate(1515.283203 0)"/>
      <use xlink:href="#DejaVuSerif-65" transform="translate(1579.296875 0)"/>
      <use xlink:href="#DejaVuSerif-72" transform="translate(1638.476562 0)"/>
      <use xlink:href="#DejaVuSerif-20" transform="translate(1686.279297 0)"/>
      <use xlink:href="#DejaVuSerif-46" transform="translate(1718.066406 0)"/>
      <use xlink:href="#DejaVuSerif-69" transform="translate(1787.451172 0)"/>
      <use xlink:href="#DejaVuSerif-6e" transform="translate(1819.433594 0)"/>
      <use xlink:href="#DejaVuSerif-67" transform="translate(1883.837891 0)"/>
      <use xlink:href="#DejaVuSerif-65" transform="translate(1947.851562 0)"/>
      <use xlink:href="#DejaVuSerif-72" transform="translate(2007.03125 0)"/>
      <use xlink:href="#DejaVuSerif-6b" transform="translate(2054.833984 0)"/>
      <use xlink:href="#DejaVuSerif-75" transform="translate(2115.429688 0)"/>
      <use xlink:href="#DejaVuSerif-70" transform="translate(2179.833984 0)"/>
      <use xlink:href="#DejaVuSerif-70" transform="translate(2243.847656 0)"/>
      <use xlink:href="#DejaVuSerif-65" transform="translate(2307.861328 0)"/>
     </g>
    </g>
   </g>
   <g id="patch_3">
    <path d="M 42.308281 333.28 
L 42.308281 52.8825 
" style="fill: none; stroke: #000000; stroke-width: 0.8; stroke-linejoin: miter; stroke-linecap: square"/>
   </g>
   <g id="patch_4">
    <path d="M 419.101918 333.28 
L 419.101918 52.8825 
" style="fill: none; stroke: #000000; stroke-width: 0.8; stroke-linejoin: miter; stroke-linecap: square"/>
   </g>
   <g id="patch_5">
    <path d="M 42.308281 333.28 
L 419.101918 333.28 
" style="fill: none; stroke: #000000; stroke-width: 0.8; stroke-linejoin: miter; stroke-linecap: square"/>
   </g>
   <g id="patch_6">
    <path d="M 42.308281 52.8825 
L 419.101918 52.8825 
" style="fill: none; stroke: #000000; stroke-width: 0.8; stroke-linejoin: miter; stroke-linecap: square"/>
   </g>
   <g id="PathCollection_1">
    <defs>
     <path id="mf9ab89e80b" d="M 0 2.291288 
C 0.607657 2.291288 1.190507 2.049863 1.620185 1.620185 
C 2.049863 1.190507 2.291288 0.607657 2.291288 0 
C 2.291288 -0.607657 2.049863 -1.190507 1.620185 -1.620185 
C 1.190507 -2.049863 0.607657 -2.291288 0 -2.291288 
C -0.607657 -2.291288 -1.190507 -2.049863 -1.620185 -1.620185 
C -2.049863 -1.190507 -2.291288 -0.607657 -2.291288 0 
C -2.291288 0.607657 -2.049863 1.190507 -1.620185 1.620185 
C -1.190507 2.049863 -0.607657 2.291288 0 2.291288 
z
" style="stroke: #c0392b; stroke-opacity: 0.85"/>
    </defs>
    <g clip-path="url(#pdb48b21201)">
     <use xlink:href="#mf9ab89e80b" x="145.070182" y="123.892256" style="fill: #c0392b; fill-opacity: 0.85; stroke: #c0392b; stroke-opacity: 0.85"/>
    </g>
   </g>
   <g id="PathCollection_2">
    <defs>
     <path id="m2aafa6130e" d="M -6.614378 6.614378 
L 6.614378 6.614378 
L 6.614378 -6.614378 
L -6.614378 -6.614378 
z
" style="stroke: #e67e22; stroke-opacity: 0.85"/>
    </defs>
    <g clip-path="url(#pdb48b21201)">
     <use xlink:href="#m2aafa6130e" x="359.157475" y="291.402451" style="fill: #e67e22; fill-opacity: 0.85; stroke: #e67e22; stroke-opacity: 0.85"/>
    </g>
   </g>
   <g id="PathCollection_3">
    <defs>
     <path id="mec10f12353" d="M 0 -0.935414 
L -0.935414 0.935414 
L 0.935414 0.935414 
z
" style="stroke: #1a4e8a; stroke-opacity: 0.85"/>
    </defs>
    <g clip-path="url(#pdb48b21201)">
     <use xlink:href="#mec10f12353" x="187.887641" y="65.627841" style="fill: #1a4e8a; fill-opacity: 0.85; stroke: #1a4e8a; stroke-opacity: 0.85"/>
    </g>
   </g>
   <g id="PathCollection_4">
    <defs>
     <path id="me75cfdc8f6" d="M -0 0.83666 
L 0.83666 0 
L 0 -0.83666 
L -0.83666 -0 
z
" style="stroke: #27ae60; stroke-opacity: 0.85"/>
    </defs>
    <g clip-path="url(#pdb48b21201)">
     <use xlink:href="#me75cfdc8f6" x="59.435265" y="284.119399" style="fill: #27ae60; fill-opacity: 0.85; stroke: #27ae60; stroke-opacity: 0.85"/>
    </g>
   </g>
   <g id="PathCollection_5">
    <defs>
     <path id="mdfbea5cc3a" d="M -1.394433 4.1833 
L 1.394433 4.1833 
L 1.394433 1.394433 
L 4.1833 1.394433 
L 4.1833 -1.394433 
L 1.394433 -1.394433 
L 1.394433 -4.1833 
L -1.394433 -4.1833 
L -1.394433 -1.394433 
L -4.1833 -1.394433 
L -4.1833 1.394433 
L -1.394433 1.394433 
z
" style="stroke: #8e44ad; stroke-opacity: 0.85"/>
    </defs>
    <g clip-path="url(#pdb48b21201)">
     <use xlink:href="#mdfbea5cc3a" x="401.974934" y="316.164828" style="fill: #8e44ad; fill-opacity: 0.85; stroke: #8e44ad; stroke-opacity: 0.85"/>
    </g>
   </g>
   <g id="PathCollection_6">
    <defs>
     <path id="m2dce6303b3" d="M 0 -3.741657 
L -0.840054 -1.156236 
L -3.558528 -1.156236 
L -1.359237 0.441643 
L -2.199291 3.027064 
L -0 1.429186 
L 2.199291 3.027064 
L 1.359237 0.441643 
L 3.558528 -1.156236 
L 0.840054 -1.156236 
z
" style="stroke: #7f8c8d; stroke-opacity: 0.85"/>
    </defs>
    <g clip-path="url(#pdb48b21201)">
     <use xlink:href="#m2dce6303b3" x="359.157475" y="320.534659" style="fill: #7f8c8d; fill-opacity: 0.85; stroke: #7f8c8d; stroke-opacity: 0.85"/>
    </g>
   </g>
   <g id="text_20">
    <!-- Punktgröße ∝ Best-Frequenz [Hz] -->
    <g style="fill: #7f8c8d" transform="translate(287.224145 75.3143) scale(0.07 -0.07)">
     <defs>
      <path id="DejaVuSerif-50" d="M 1581 2375 
L 2406 2375 
Q 2872 2375 3115 2626 
Q 3359 2878 3359 3353 
Q 3359 3831 3115 4081 
Q 2872 4331 2406 4331 
L 1581 4331 
L 1581 2375 
z
M 353 0 
L 353 331 
L 947 331 
L 947 4331 
L 353 4331 
L 353 4666 
L 2559 4666 
Q 3259 4666 3668 4311 
Q 4078 3956 4078 3353 
Q 4078 2753 3668 2397 
Q 3259 2041 2559 2041 
L 1581 2041 
L 1581 331 
L 2303 331 
L 2303 0 
L 353 0 
z
" transform="scale(0.015625)"/>
      <path id="DejaVuSerif-f6" d="M 1925 219 
Q 2388 219 2623 584 
Q 2859 950 2859 1663 
Q 2859 2375 2623 2739 
Q 2388 3103 1925 3103 
Q 1463 3103 1227 2739 
Q 991 2375 991 1663 
Q 991 950 1228 584 
Q 1466 219 1925 219 
z
M 1925 -91 
Q 1200 -91 759 389 
Q 319 869 319 1663 
Q 319 2456 758 2934 
Q 1197 3413 1925 3413 
Q 2653 3413 3092 2934 
Q 3531 2456 3531 1663 
Q 3531 869 3092 389 
Q 2653 -91 1925 -91 
z
M 1319 4903 
Q 1469 4903 1576 4795 
Q 1684 4688 1684 4538 
Q 1684 4378 1581 4275 
Q 1478 4172 1319 4172 
Q 1162 4172 1059 4275 
Q 956 4378 956 4538 
Q 956 4688 1064 4795 
Q 1172 4903 1319 4903 
z
M 2537 4903 
Q 2684 4903 2792 4795 
Q 2900 4688 2900 4538 
Q 2900 4378 2797 4275 
Q 2694 4172 2537 4172 
Q 2378 4172 2275 4275 
Q 2172 4378 2172 4538 
Q 2172 4688 2279 4795 
Q 2387 4903 2537 4903 
z
" transform="scale(0.015625)"/>
      <path id="DejaVuSerif-df" d="M 2938 3781 
Q 2913 4153 2695 4354 
Q 2478 4556 2106 4556 
Q 1694 4556 1503 4354 
Q 1313 4153 1313 3719 
L 1313 0 
L 184 0 
L 184 331 
L 738 331 
L 738 3706 
Q 738 4256 1095 4559 
Q 1453 4863 2106 4863 
Q 2772 4863 3120 4538 
Q 3469 4213 3506 3553 
L 3438 3553 
Q 2984 3553 2723 3384 
Q 2463 3216 2463 2925 
Q 2463 2763 2547 2642 
Q 2631 2522 2859 2375 
L 3138 2203 
Q 3622 1894 3808 1628 
Q 3994 1363 3994 1006 
Q 3994 522 3633 215 
Q 3272 -91 2694 -91 
Q 2428 -91 2165 -33 
Q 1903 25 1656 134 
L 1656 863 
L 1997 863 
Q 2009 547 2182 383 
Q 2356 219 2675 219 
Q 3022 219 3220 408 
Q 3419 597 3419 922 
Q 3419 1184 3294 1367 
Q 3169 1550 2803 1778 
L 2534 1947 
Q 2209 2150 2070 2351 
Q 1931 2553 1931 2809 
Q 1931 3191 2195 3447 
Q 2459 3703 2938 3781 
z
" transform="scale(0.015625)"/>
      <path id="DejaVuSerif-221d" d="M 2478 2081 
Q 2325 2356 2117 2493 
Q 1909 2631 1644 2631 
Q 1328 2631 1128 2423 
Q 928 2216 928 1888 
Q 928 1572 1112 1362 
Q 1297 1153 1575 1153 
Q 1828 1153 2033 1359 
Q 2238 1566 2478 2081 
z
M 3641 703 
Q 3409 703 3179 886 
Q 2950 1069 2700 1509 
Q 2478 1084 2236 887 
Q 1994 691 1697 691 
Q 1275 691 983 1041 
Q 691 1391 691 1906 
Q 691 2453 952 2790 
Q 1213 3128 1631 3128 
Q 1928 3128 2162 2936 
Q 2397 2744 2631 2303 
Q 2844 2734 3091 2939 
Q 3338 3144 3641 3144 
L 3641 2675 
Q 3509 2675 3304 2467 
Q 3100 2259 2859 1747 
Q 3016 1469 3223 1330 
Q 3431 1191 3641 1191 
L 3641 703 
z
" transform="scale(0.015625)"/>
      <path id="DejaVuSerif-42" d="M 1581 331 
L 2516 331 
Q 3078 331 3337 575 
Q 3597 819 3597 1350 
Q 3597 1878 3339 2120 
Q 3081 2363 2516 2363 
L 1581 2363 
L 1581 331 
z
M 1581 2694 
L 2375 2694 
Q 2888 2694 3123 2891 
Q 3359 3088 3359 3513 
Q 3359 3941 3123 4136 
Q 2888 4331 2375 4331 
L 1581 4331 
L 1581 2694 
z
M 353 0 
L 353 331 
L 947 331 
L 947 4331 
L 353 4331 
L 353 4666 
L 2656 4666 
Q 3363 4666 3720 4377 
Q 4078 4088 4078 3513 
Q 4078 3097 3829 2850 
Q 3581 2603 3103 2547 
Q 3697 2472 4005 2167 
Q 4313 1863 4313 1350 
Q 4313 656 3875 328 
Q 3438 0 2509 0 
L 353 0 
z
" transform="scale(0.015625)"/>
      <path id="DejaVuSerif-2d" d="M 281 1959 
L 1881 1959 
L 1881 1472 
L 281 1472 
L 281 1959 
z
" transform="scale(0.015625)"/>
      <path id="DejaVuSerif-71" d="M 3359 2988 
L 3359 -997 
L 3909 -997 
L 3909 -1331 
L 2241 -1331 
L 2241 -997 
L 2784 -997 
L 2784 519 
Q 2616 206 2355 57 
Q 2094 -91 1709 -91 
Q 1097 -91 708 395 
Q 319 881 319 1663 
Q 319 2444 706 2928 
Q 1094 3413 1709 3413 
Q 2094 3413 2355 3264 
Q 2616 3116 2784 2803 
L 2784 3322 
L 3909 3322 
L 3909 2988 
L 3359 2988 
z
M 2784 1825 
Q 2784 2422 2554 2737 
Q 2325 3053 1888 3053 
Q 1444 3053 1217 2703 
Q 991 2353 991 1663 
Q 991 975 1217 622 
Q 1444 269 1888 269 
Q 2325 269 2554 583 
Q 2784 897 2784 1497 
L 2784 1825 
z
" transform="scale(0.015625)"/>
      <path id="DejaVuSerif-48" d="M 353 0 
L 353 331 
L 947 331 
L 947 4331 
L 353 4331 
L 353 4666 
L 2175 4666 
L 2175 4331 
L 1581 4331 
L 1581 2719 
L 4000 2719 
L 4000 4331 
L 3406 4331 
L 3406 4666 
L 5228 4666 
L 5228 4331 
L 4634 4331 
L 4634 331 
L 5228 331 
L 5228 0 
L 3406 0 
L 3406 331 
L 4000 331 
L 4000 2338 
L 1581 2338 
L 1581 331 
L 2175 331 
L 2175 0 
L 353 0 
z
" transform="scale(0.015625)"/>
     </defs>
     <use xlink:href="#DejaVuSerif-50"/>
     <use xlink:href="#DejaVuSerif-75" transform="translate(67.285156 0)"/>
     <use xlink:href="#DejaVuSerif-6e" transform="translate(131.689453 0)"/>
     <use xlink:href="#DejaVuSerif-6b" transform="translate(196.09375 0)"/>
     <use xlink:href="#DejaVuSerif-74" transform="translate(256.689453 0)"/>
     <use xlink:href="#DejaVuSerif-67" transform="translate(296.875 0)"/>
     <use xlink:href="#DejaVuSerif-72" transform="translate(360.888672 0)"/>
     <use xlink:href="#DejaVuSerif-f6" transform="translate(408.691406 0)"/>
     <use xlink:href="#DejaVuSerif-df" transform="translate(468.896484 0)"/>
     <use xlink:href="#DejaVuSerif-65" transform="translate(535.693359 0)"/>
     <use xlink:href="#DejaVuSerif-20" transform="translate(594.873047 0)"/>
     <use xlink:href="#DejaVuSerif-221d" transform="translate(626.660156 0)"/>
     <use xlink:href="#DejaVuSerif-20" transform="translate(694.335938 0)"/>
     <use xlink:href="#DejaVuSerif-42" transform="translate(726.123047 0)"/>
     <use xlink:href="#DejaVuSerif-65" transform="translate(799.609375 0)"/>
     <use xlink:href="#DejaVuSerif-73" transform="translate(858.789062 0)"/>
     <use xlink:href="#DejaVuSerif-74" transform="translate(910.107422 0)"/>
     <use xlink:href="#DejaVuSerif-2d" transform="translate(950.292969 0)"/>
     <use xlink:href="#DejaVuSerif-46" transform="translate(984.082031 0)"/>
     <use xlink:href="#DejaVuSerif-72" transform="translate(1053.466797 0)"/>
     <use xlink:href="#DejaVuSerif-65" transform="translate(1101.269531 0)"/>
     <use xlink:href="#DejaVuSerif-71" transform="translate(1160.449219 0)"/>
     <use xlink:href="#DejaVuSerif-75" transform="translate(1224.462891 0)"/>
     <use xlink:href="#DejaVuSerif-65" transform="translate(1288.867188 0)"/>
     <use xlink:href="#DejaVuSerif-6e" transform="translate(1348.046875 0)"/>
     <use xlink:href="#DejaVuSerif-7a" transform="translate(1412.451172 0)"/>
     <use xlink:href="#DejaVuSerif-20" transform="translate(1465.136719 0)"/>
     <use xlink:href="#DejaVuSerif-5b" transform="translate(1496.923828 0)"/>
     <use xlink:href="#DejaVuSerif-48" transform="translate(1535.9375 0)"/>
     <use xlink:href="#DejaVuSerif-7a" transform="translate(1623.144531 0)"/>
     <use xlink:href="#DejaVuSerif-5d" transform="translate(1675.830078 0)"/>
    </g>
   </g>
   <g id="text_21">
    <!-- Nervenfaserklassen der Hand: Leitungsgeschwindigkeit × Dichte -->
    <g transform="translate(64.040256 46.8825) scale(0.1 -0.1)">
     <defs>
      <path id="DejaVuSerif-4e" d="M 313 0 
L 313 331 
L 941 331 
L 941 4331 
L 313 4331 
L 313 4666 
L 1509 4666 
L 4306 984 
L 4306 4331 
L 3681 4331 
L 3681 4666 
L 5319 4666 
L 5319 4331 
L 4691 4331 
L 4691 -91 
L 4313 -91 
L 1325 3841 
L 1325 331 
L 1953 331 
L 1953 0 
L 313 0 
z
" transform="scale(0.015625)"/>
      <path id="DejaVuSerif-76" d="M 1581 0 
L 359 2988 
L -19 2988 
L -19 3322 
L 1509 3322 
L 1509 2988 
L 978 2988 
L 1913 703 
L 2847 2988 
L 2350 2988 
L 2350 3322 
L 3597 3322 
L 3597 2988 
L 3225 2988 
L 2003 0 
L 1581 0 
z
" transform="scale(0.015625)"/>
      <path id="DejaVuSerif-66" d="M 2753 4078 
L 2450 4078 
Q 2447 4313 2317 4434 
Q 2188 4556 1941 4556 
Q 1619 4556 1487 4379 
Q 1356 4203 1356 3750 
L 1356 3322 
L 2284 3322 
L 2284 2988 
L 1356 2988 
L 1356 331 
L 2094 331 
L 2094 0 
L 231 0 
L 231 331 
L 781 331 
L 781 2988 
L 231 2988 
L 231 3322 
L 781 3322 
L 781 3738 
Q 781 4294 1070 4578 
Q 1359 4863 1919 4863 
Q 2128 4863 2337 4825 
Q 2547 4788 2753 4709 
L 2753 4078 
z
" transform="scale(0.015625)"/>
      <path id="DejaVuSerif-6c" d="M 1313 331 
L 1856 331 
L 1856 0 
L 184 0 
L 184 331 
L 738 331 
L 738 4531 
L 184 4531 
L 184 4863 
L 1313 4863 
L 1313 331 
z
" transform="scale(0.015625)"/>
      <path id="DejaVuSerif-3a" d="M 666 325 
Q 666 500 786 622 
Q 906 744 1081 744 
Q 1256 744 1376 622 
Q 1497 500 1497 325 
Q 1497 150 1378 29 
Q 1259 -91 1081 -91 
Q 903 -91 784 29 
Q 666 150 666 325 
z
M 666 2363 
Q 666 2538 786 2658 
Q 906 2778 1081 2778 
Q 1259 2778 1378 2659 
Q 1497 2541 1497 2363 
Q 1497 2184 1378 2065 
Q 1259 1947 1081 1947 
Q 906 1947 786 2067 
Q 666 2188 666 2363 
z
" transform="scale(0.015625)"/>
      <path id="DejaVuSerif-d7" d="M 4481 3450 
L 3034 2003 
L 4481 563 
L 4122 213 
L 2681 1650 
L 1241 213 
L 884 563 
L 2322 2003 
L 884 3450 
L 1241 3803 
L 2681 2363 
L 4122 3803 
L 4481 3450 
z
" transform="scale(0.015625)"/>
      <path id="DejaVuSerif-44" d="M 1581 331 
L 2163 331 
Q 3072 331 3558 850 
Q 4044 1369 4044 2338 
Q 4044 3306 3559 3818 
Q 3075 4331 2163 4331 
L 1581 4331 
L 1581 331 
z
M 353 0 
L 353 331 
L 947 331 
L 947 4331 
L 353 4331 
L 353 4666 
L 2209 4666 
Q 3416 4666 4089 4050 
Q 4763 3434 4763 2338 
Q 4763 1238 4088 619 
Q 3413 0 2209 0 
L 353 0 
z
" transform="scale(0.015625)"/>
     </defs>
     <use xlink:href="#DejaVuSerif-4e"/>
     <use xlink:href="#DejaVuSerif-65" transform="translate(87.5 0)"/>
     <use xlink:href="#DejaVuSerif-72" transform="translate(146.679688 0)"/>
     <use xlink:href="#DejaVuSerif-76" transform="translate(194.482422 0)"/>
     <use xlink:href="#DejaVuSerif-65" transform="translate(250.976562 0)"/>
     <use xlink:href="#DejaVuSerif-6e" transform="translate(310.15625 0)"/>
     <use xlink:href="#DejaVuSerif-66" transform="translate(374.560547 0)"/>
     <use xlink:href="#DejaVuSerif-61" transform="translate(411.572266 0)"/>
     <use xlink:href="#DejaVuSerif-73" transform="translate(471.191406 0)"/>
     <use xlink:href="#DejaVuSerif-65" transform="translate(522.509766 0)"/>
     <use xlink:href="#DejaVuSerif-72" transform="translate(581.689453 0)"/>
     <use xlink:href="#DejaVuSerif-6b" transform="translate(629.492188 0)"/>
     <use xlink:href="#DejaVuSerif-6c" transform="translate(690.087891 0)"/>
     <use xlink:href="#DejaVuSerif-61" transform="translate(722.070312 0)"/>
     <use xlink:href="#DejaVuSerif-73" transform="translate(781.689453 0)"/>
     <use xlink:href="#DejaVuSerif-73" transform="translate(833.007812 0)"/>
     <use xlink:href="#DejaVuSerif-65" transform="translate(884.326172 0)"/>
     <use xlink:href="#DejaVuSerif-6e" transform="translate(943.505859 0)"/>
     <use xlink:href="#DejaVuSerif-20" transform="translate(1007.910156 0)"/>
     <use xlink:href="#DejaVuSerif-64" transform="translate(1039.697266 0)"/>
     <use xlink:href="#DejaVuSerif-65" transform="translate(1103.710938 0)"/>
     <use xlink:href="#DejaVuSerif-72" transform="translate(1162.890625 0)"/>
     <use xlink:href="#DejaVuSerif-20" transform="translate(1210.693359 0)"/>
     <use xlink:href="#DejaVuSerif-48" transform="translate(1242.480469 0)"/>
     <use xlink:href="#DejaVuSerif-61" transform="translate(1329.6875 0)"/>
     <use xlink:href="#DejaVuSerif-6e" transform="translate(1389.306641 0)"/>
     <use xlink:href="#DejaVuSerif-64" transform="translate(1453.710938 0)"/>
     <use xlink:href="#DejaVuSerif-3a" transform="translate(1517.724609 0)"/>
     <use xlink:href="#DejaVuSerif-20" transform="translate(1551.416016 0)"/>
     <use xlink:href="#DejaVuSerif-4c" transform="translate(1583.203125 0)"/>
     <use xlink:href="#DejaVuSerif-65" transform="translate(1649.609375 0)"/>
     <use xlink:href="#DejaVuSerif-69" transform="translate(1708.789062 0)"/>
     <use xlink:href="#DejaVuSerif-74" transform="translate(1740.771484 0)"/>
     <use xlink:href="#DejaVuSerif-75" transform="translate(1780.957031 0)"/>
     <use xlink:href="#DejaVuSerif-6e" transform="translate(1845.361328 0)"/>
     <use xlink:href="#DejaVuSerif-67" transform="translate(1909.765625 0)"/>
     <use xlink:href="#DejaVuSerif-73" transform="translate(1973.779297 0)"/>
     <use xlink:href="#DejaVuSerif-67" transform="translate(2025.097656 0)"/>
     <use xlink:href="#DejaVuSerif-65" transform="translate(2089.111328 0)"/>
     <use xlink:href="#DejaVuSerif-73" transform="translate(2148.291016 0)"/>
     <use xlink:href="#DejaVuSerif-63" transform="translate(2199.609375 0)"/>
     <use xlink:href="#DejaVuSerif-68" transform="translate(2255.615234 0)"/>
     <use xlink:href="#DejaVuSerif-77" transform="translate(2320.019531 0)"/>
     <use xlink:href="#DejaVuSerif-69" transform="translate(2405.615234 0)"/>
     <use xlink:href="#DejaVuSerif-6e" transform="translate(2437.597656 0)"/>
     <use xlink:href="#DejaVuSerif-64" transform="translate(2502.001953 0)"/>
     <use xlink:href="#DejaVuSerif-69" transform="translate(2566.015625 0)"/>
     <use xlink:href="#DejaVuSerif-67" transform="translate(2597.998047 0)"/>
     <use xlink:href="#DejaVuSerif-6b" transform="translate(2662.011719 0)"/>
     <use xlink:href="#DejaVuSerif-65" transform="translate(2722.607422 0)"/>
     <use xlink:href="#DejaVuSerif-69" transform="translate(2781.787109 0)"/>
     <use xlink:href="#DejaVuSerif-74" transform="translate(2813.769531 0)"/>
     <use xlink:href="#DejaVuSerif-20" transform="translate(2853.955078 0)"/>
     <use xlink:href="#DejaVuSerif-d7" transform="translate(2885.742188 0)"/>
     <use xlink:href="#DejaVuSerif-20" transform="translate(2969.53125 0)"/>
     <use xlink:href="#DejaVuSerif-44" transform="translate(3001.318359 0)"/>
     <use xlink:href="#DejaVuSerif-69" transform="translate(3081.494141 0)"/>
     <use xlink:href="#DejaVuSerif-63" transform="translate(3113.476562 0)"/>
     <use xlink:href="#DejaVuSerif-68" transform="translate(3169.482422 0)"/>
     <use xlink:href="#DejaVuSerif-74" transform="translate(3233.886719 0)"/>
     <use xlink:href="#DejaVuSerif-65" transform="translate(3274.072266 0)"/>
    </g>
   </g>
   <g id="legend_1">
    <g id="patch_7">
     <path d="M 47.558281 125.040703 
L 130.698125 125.040703 
Q 132.198125 125.040703 132.198125 123.540703 
L 132.198125 58.1325 
Q 132.198125 56.6325 130.698125 56.6325 
L 47.558281 56.6325 
Q 46.058281 56.6325 46.058281 58.1325 
L 46.058281 123.540703 
Q 46.058281 125.040703 47.558281 125.040703 
z
" style="fill: #ffffff; opacity: 0.8; stroke: #cccccc; stroke-linejoin: miter"/>
    </g>
    <g id="PathCollection_7">
     <g>
      <use xlink:href="#mf9ab89e80b" x="56.558281" y="63.362578" style="fill: #c0392b; fill-opacity: 0.85; stroke: #c0392b; stroke-opacity: 0.85"/>
     </g>
    </g>
    <g id="text_22">
     <!-- Meissner (RA1) -->
     <g transform="translate(70.058281 65.331328) scale(0.075 -0.075)">
      <defs>
       <path id="DejaVuSerif-4d" d="M 353 0 
L 353 331 
L 947 331 
L 947 4331 
L 319 4331 
L 319 4666 
L 1678 4666 
L 3316 1344 
L 4953 4666 
L 6228 4666 
L 6228 4331 
L 5606 4331 
L 5606 331 
L 6203 331 
L 6203 0 
L 4378 0 
L 4378 331 
L 4972 331 
L 4972 3938 
L 3372 684 
L 2931 684 
L 1331 3938 
L 1331 331 
L 1925 331 
L 1925 0 
L 353 0 
z
" transform="scale(0.015625)"/>
       <path id="DejaVuSerif-28" d="M 2041 -997 
Q 1281 -656 893 83 
Q 506 822 506 1931 
Q 506 3044 893 3783 
Q 1281 4522 2041 4863 
L 2041 4556 
Q 1559 4225 1350 3623 
Q 1141 3022 1141 1931 
Q 1141 844 1350 242 
Q 1559 -359 2041 -691 
L 2041 -997 
z
" transform="scale(0.015625)"/>
       <path id="DejaVuSerif-41" d="M 1281 1691 
L 2994 1691 
L 2138 3909 
L 1281 1691 
z
M -38 0 
L -38 331 
L 372 331 
L 2034 4666 
L 2559 4666 
L 4225 331 
L 4684 331 
L 4684 0 
L 2988 0 
L 2988 331 
L 3506 331 
L 3116 1356 
L 1153 1356 
L 763 331 
L 1275 331 
L 1275 0 
L -38 0 
z
" transform="scale(0.015625)"/>
       <path id="DejaVuSerif-29" d="M 453 -997 
L 453 -691 
Q 934 -359 1145 242 
Q 1356 844 1356 1931 
Q 1356 3022 1145 3623 
Q 934 4225 453 4556 
L 453 4863 
Q 1216 4522 1603 3783 
Q 1991 3044 1991 1931 
Q 1991 822 1603 83 
Q 1216 -656 453 -997 
z
" transform="scale(0.015625)"/>
      </defs>
      <use xlink:href="#DejaVuSerif-4d"/>
      <use xlink:href="#DejaVuSerif-65" transform="translate(102.392578 0)"/>
      <use xlink:href="#DejaVuSerif-69" transform="translate(161.572266 0)"/>
      <use xlink:href="#DejaVuSerif-73" transform="translate(193.554688 0)"/>
      <use xlink:href="#DejaVuSerif-73" transform="translate(244.873047 0)"/>
      <use xlink:href="#DejaVuSerif-6e" transform="translate(296.191406 0)"/>
      <use xlink:href="#DejaVuSerif-65" transform="translate(360.595703 0)"/>
      <use xlink:href="#DejaVuSerif-72" transform="translate(419.775391 0)"/>
      <use xlink:href="#DejaVuSerif-20" transform="translate(467.578125 0)"/>
      <use xlink:href="#DejaVuSerif-28" transform="translate(499.365234 0)"/>
      <use xlink:href="#DejaVuSerif-52" transform="translate(538.378906 0)"/>
      <use xlink:href="#DejaVuSerif-41" transform="translate(613.671875 0)"/>
      <use xlink:href="#DejaVuSerif-31" transform="translate(685.888672 0)"/>
      <use xlink:href="#DejaVuSerif-29" transform="translate(749.511719 0)"/>
     </g>
    </g>
    <g id="PathCollection_8">
     <g>
      <use xlink:href="#m2aafa6130e" x="56.558281" y="74.371172" style="fill: #e67e22; fill-opacity: 0.85; stroke: #e67e22; stroke-opacity: 0.85"/>
     </g>
    </g>
    <g id="text_23">
     <!-- Pacini (RA2) -->
     <g transform="translate(70.058281 76.339922) scale(0.075 -0.075)">
      <use xlink:href="#DejaVuSerif-50"/>
      <use xlink:href="#DejaVuSerif-61" transform="translate(62.785156 0)"/>
      <use xlink:href="#DejaVuSerif-63" transform="translate(122.404297 0)"/>
      <use xlink:href="#DejaVuSerif-69" transform="translate(178.410156 0)"/>
      <use xlink:href="#DejaVuSerif-6e" transform="translate(210.392578 0)"/>
      <use xlink:href="#DejaVuSerif-69" transform="translate(274.796875 0)"/>
      <use xlink:href="#DejaVuSerif-20" transform="translate(306.779297 0)"/>
      <use xlink:href="#DejaVuSerif-28" transform="translate(338.566406 0)"/>
      <use xlink:href="#DejaVuSerif-52" transform="translate(377.580078 0)"/>
      <use xlink:href="#DejaVuSerif-41" transform="translate(452.873047 0)"/>
      <use xlink:href="#DejaVuSerif-32" transform="translate(525.089844 0)"/>
      <use xlink:href="#DejaVuSerif-29" transform="translate(588.712891 0)"/>
     </g>
    </g>
    <g id="PathCollection_9">
     <g>
      <use xlink:href="#mec10f12353" x="56.558281" y="85.379766" style="fill: #1a4e8a; fill-opacity: 0.85; stroke: #1a4e8a; stroke-opacity: 0.85"/>
     </g>
    </g>
    <g id="text_24">
     <!-- Merkel (SA1) -->
     <g transform="translate(70.058281 87.348516) scale(0.075 -0.075)">
      <defs>
       <path id="DejaVuSerif-53" d="M 594 225 
L 594 1288 
L 953 1284 
Q 969 753 1261 498 
Q 1553 244 2150 244 
Q 2706 244 2998 464 
Q 3291 684 3291 1106 
Q 3291 1444 3114 1625 
Q 2938 1806 2369 1978 
L 1753 2163 
Q 1084 2366 811 2669 
Q 538 2972 538 3500 
Q 538 4094 959 4422 
Q 1381 4750 2144 4750 
Q 2469 4750 2856 4679 
Q 3244 4609 3681 4475 
L 3681 3481 
L 3328 3481 
Q 3275 3975 2998 4195 
Q 2722 4416 2156 4416 
Q 1663 4416 1405 4214 
Q 1147 4013 1147 3628 
Q 1147 3294 1340 3103 
Q 1534 2913 2163 2725 
L 2741 2553 
Q 3375 2363 3645 2067 
Q 3916 1772 3916 1275 
Q 3916 597 3481 253 
Q 3047 -91 2188 -91 
Q 1803 -91 1404 -12 
Q 1006 66 594 225 
z
" transform="scale(0.015625)"/>
      </defs>
      <use xlink:href="#DejaVuSerif-4d"/>
      <use xlink:href="#DejaVuSerif-65" transform="translate(102.392578 0)"/>
      <use xlink:href="#DejaVuSerif-72" transform="translate(161.572266 0)"/>
      <use xlink:href="#DejaVuSerif-6b" transform="translate(209.375 0)"/>
      <use xlink:href="#DejaVuSerif-65" transform="translate(269.970703 0)"/>
      <use xlink:href="#DejaVuSerif-6c" transform="translate(329.150391 0)"/>
      <use xlink:href="#DejaVuSerif-20" transform="translate(361.132812 0)"/>
      <use xlink:href="#DejaVuSerif-28" transform="translate(392.919922 0)"/>
      <use xlink:href="#DejaVuSerif-53" transform="translate(431.933594 0)"/>
      <use xlink:href="#DejaVuSerif-41" transform="translate(500.439453 0)"/>
      <use xlink:href="#DejaVuSerif-31" transform="translate(572.65625 0)"/>
      <use xlink:href="#DejaVuSerif-29" transform="translate(636.279297 0)"/>
     </g>
    </g>
    <g id="PathCollection_10">
     <g>
      <use xlink:href="#me75cfdc8f6" x="56.558281" y="96.388359" style="fill: #27ae60; fill-opacity: 0.85; stroke: #27ae60; stroke-opacity: 0.85"/>
     </g>
    </g>
    <g id="text_25">
     <!-- Ruffini (SA2) -->
     <g transform="translate(70.058281 98.357109) scale(0.075 -0.075)">
      <use xlink:href="#DejaVuSerif-52"/>
      <use xlink:href="#DejaVuSerif-75" transform="translate(75.292969 0)"/>
      <use xlink:href="#DejaVuSerif-66" transform="translate(139.697266 0)"/>
      <use xlink:href="#DejaVuSerif-66" transform="translate(176.708984 0)"/>
      <use xlink:href="#DejaVuSerif-69" transform="translate(213.720703 0)"/>
      <use xlink:href="#DejaVuSerif-6e" transform="translate(245.703125 0)"/>
      <use xlink:href="#DejaVuSerif-69" transform="translate(310.107422 0)"/>
      <use xlink:href="#DejaVuSerif-20" transform="translate(342.089844 0)"/>
      <use xlink:href="#DejaVuSerif-28" transform="translate(373.876953 0)"/>
      <use xlink:href="#DejaVuSerif-53" transform="translate(412.890625 0)"/>
      <use xlink:href="#DejaVuSerif-41" transform="translate(481.396484 0)"/>
      <use xlink:href="#DejaVuSerif-32" transform="translate(553.613281 0)"/>
      <use xlink:href="#DejaVuSerif-29" transform="translate(617.236328 0)"/>
     </g>
    </g>
    <g id="PathCollection_11">
     <g>
      <use xlink:href="#mdfbea5cc3a" x="56.558281" y="107.396953" style="fill: #8e44ad; fill-opacity: 0.85; stroke: #8e44ad; stroke-opacity: 0.85"/>
     </g>
    </g>
    <g id="text_26">
     <!-- Ia (Muskelsp.) -->
     <g transform="translate(70.058281 109.365703) scale(0.075 -0.075)">
      <defs>
       <path id="DejaVuSerif-49" d="M 1581 331 
L 2175 331 
L 2175 0 
L 353 0 
L 353 331 
L 947 331 
L 947 4331 
L 353 4331 
L 353 4666 
L 2175 4666 
L 2175 4331 
L 1581 4331 
L 1581 331 
z
" transform="scale(0.015625)"/>
      </defs>
      <use xlink:href="#DejaVuSerif-49"/>
      <use xlink:href="#DejaVuSerif-61" transform="translate(39.501953 0)"/>
      <use xlink:href="#DejaVuSerif-20" transform="translate(99.121094 0)"/>
      <use xlink:href="#DejaVuSerif-28" transform="translate(130.908203 0)"/>
      <use xlink:href="#DejaVuSerif-4d" transform="translate(169.921875 0)"/>
      <use xlink:href="#DejaVuSerif-75" transform="translate(272.314453 0)"/>
      <use xlink:href="#DejaVuSerif-73" transform="translate(336.71875 0)"/>
      <use xlink:href="#DejaVuSerif-6b" transform="translate(388.037109 0)"/>
      <use xlink:href="#DejaVuSerif-65" transform="translate(448.632812 0)"/>
      <use xlink:href="#DejaVuSerif-6c" transform="translate(507.8125 0)"/>
      <use xlink:href="#DejaVuSerif-73" transform="translate(539.794922 0)"/>
      <use xlink:href="#DejaVuSerif-70" transform="translate(591.113281 0)"/>
      <use xlink:href="#DejaVuSerif-2e" transform="translate(655.126953 0)"/>
      <use xlink:href="#DejaVuSerif-29" transform="translate(686.914062 0)"/>
     </g>
    </g>
    <g id="PathCollection_12">
     <g>
      <use xlink:href="#m2dce6303b3" x="56.558281" y="118.405547" style="fill: #7f8c8d; fill-opacity: 0.85; stroke: #7f8c8d; stroke-opacity: 0.85"/>
     </g>
    </g>
    <g id="text_27">
     <!-- Ib (Golgi) -->
     <g transform="translate(70.058281 120.374297) scale(0.075 -0.075)">
      <defs>
       <path id="DejaVuSerif-62" d="M 738 331 
L 738 4531 
L 184 4531 
L 184 4863 
L 1313 4863 
L 1313 2803 
Q 1481 3116 1742 3264 
Q 2003 3413 2388 3413 
Q 3000 3413 3387 2928 
Q 3775 2444 3775 1663 
Q 3775 881 3387 395 
Q 3000 -91 2388 -91 
Q 2003 -91 1742 57 
Q 1481 206 1313 519 
L 1313 0 
L 184 0 
L 184 331 
L 738 331 
z
M 1313 1497 
Q 1313 897 1542 583 
Q 1772 269 2209 269 
Q 2650 269 2876 622 
Q 3103 975 3103 1663 
Q 3103 2353 2876 2703 
Q 2650 3053 2209 3053 
Q 1772 3053 1542 2737 
Q 1313 2422 1313 1825 
L 1313 1497 
z
" transform="scale(0.015625)"/>
       <path id="DejaVuSerif-47" d="M 4097 3272 
Q 3988 3856 3641 4136 
Q 3294 4416 2675 4416 
Q 1869 4416 1472 3897 
Q 1075 3378 1075 2328 
Q 1075 1300 1484 772 
Q 1894 244 2688 244 
Q 3041 244 3362 331 
Q 3684 419 3975 594 
L 3975 1797 
L 3097 1797 
L 3097 2131 
L 4609 2131 
L 4609 391 
Q 4194 150 3714 29 
Q 3234 -91 2688 -91 
Q 1631 -91 995 570 
Q 359 1231 359 2328 
Q 359 3434 996 4092 
Q 1634 4750 2713 4750 
Q 3113 4750 3539 4658 
Q 3966 4566 4447 4378 
L 4447 3272 
L 4097 3272 
z
" transform="scale(0.015625)"/>
      </defs>
      <use xlink:href="#DejaVuSerif-49"/>
      <use xlink:href="#DejaVuSerif-62" transform="translate(39.501953 0)"/>
      <use xlink:href="#DejaVuSerif-20" transform="translate(103.515625 0)"/>
      <use xlink:href="#DejaVuSerif-28" transform="translate(135.302734 0)"/>
      <use xlink:href="#DejaVuSerif-47" transform="translate(174.316406 0)"/>
      <use xlink:href="#DejaVuSerif-6f" transform="translate(254.199219 0)"/>
      <use xlink:href="#DejaVuSerif-6c" transform="translate(314.404297 0)"/>
      <use xlink:href="#DejaVuSerif-67" transform="translate(346.386719 0)"/>
      <use xlink:href="#DejaVuSerif-69" transform="translate(410.400391 0)"/>
      <use xlink:href="#DejaVuSerif-29" transform="translate(442.382812 0)"/>
     </g>
    </g>
   </g>
  </g>
  <g id="axes_2">
   <g id="patch_8">
    <path d="M 475.134645 333.28 
L 851.928281 333.28 
L 851.928281 52.8825 
L 475.134645 52.8825 
z
" style="fill: #ffffff"/>
   </g>
   <g id="matplotlib.axis_3">
    <g id="xtick_10">
     <g id="line2d_35">
      <path d="M 492.261628 333.28 
L 492.261628 52.8825 
" clip-path="url(#pfe38b0747d)" style="fill: none; stroke: #b0b0b0; stroke-opacity: 0.3; stroke-width: 0.8; stroke-linecap: square"/>
     </g>
     <g id="line2d_36">
      <g>
       <use xlink:href="#mf255996af3" x="492.261628" y="333.28" style="stroke: #000000; stroke-width: 0.8"/>
      </g>
     </g>
     <g id="text_28">
      <!-- 0.0 -->
      <g transform="translate(485.900378 346.35875) scale(0.08 -0.08)">
       <use xlink:href="#DejaVuSerif-30"/>
       <use xlink:href="#DejaVuSerif-2e" transform="translate(63.623047 0)"/>
       <use xlink:href="#DejaVuSerif-30" transform="translate(95.410156 0)"/>
      </g>
     </g>
    </g>
    <g id="xtick_11">
     <g id="line2d_37">
      <path d="M 537.933584 333.28 
L 537.933584 52.8825 
" clip-path="url(#pfe38b0747d)" style="fill: none; stroke: #b0b0b0; stroke-opacity: 0.3; stroke-width: 0.8; stroke-linecap: square"/>
     </g>
     <g id="line2d_38">
      <g>
       <use xlink:href="#mf255996af3" x="537.933584" y="333.28" style="stroke: #000000; stroke-width: 0.8"/>
      </g>
     </g>
     <g id="text_29">
      <!-- 0.2 -->
      <g transform="translate(531.572334 346.35875) scale(0.08 -0.08)">
       <use xlink:href="#DejaVuSerif-30"/>
       <use xlink:href="#DejaVuSerif-2e" transform="translate(63.623047 0)"/>
       <use xlink:href="#DejaVuSerif-32" transform="translate(95.410156 0)"/>
      </g>
     </g>
    </g>
    <g id="xtick_12">
     <g id="line2d_39">
      <path d="M 583.60554 333.28 
L 583.60554 52.8825 
" clip-path="url(#pfe38b0747d)" style="fill: none; stroke: #b0b0b0; stroke-opacity: 0.3; stroke-width: 0.8; stroke-linecap: square"/>
     </g>
     <g id="line2d_40">
      <g>
       <use xlink:href="#mf255996af3" x="583.60554" y="333.28" style="stroke: #000000; stroke-width: 0.8"/>
      </g>
     </g>
     <g id="text_30">
      <!-- 0.4 -->
      <g transform="translate(577.24429 346.35875) scale(0.08 -0.08)">
       <use xlink:href="#DejaVuSerif-30"/>
       <use xlink:href="#DejaVuSerif-2e" transform="translate(63.623047 0)"/>
       <use xlink:href="#DejaVuSerif-34" transform="translate(95.410156 0)"/>
      </g>
     </g>
    </g>
    <g id="xtick_13">
     <g id="line2d_41">
      <path d="M 629.277496 333.28 
L 629.277496 52.8825 
" clip-path="url(#pfe38b0747d)" style="fill: none; stroke: #b0b0b0; stroke-opacity: 0.3; stroke-width: 0.8; stroke-linecap: square"/>
     </g>
     <g id="line2d_42">
      <g>
       <use xlink:href="#mf255996af3" x="629.277496" y="333.28" style="stroke: #000000; stroke-width: 0.8"/>
      </g>
     </g>
     <g id="text_31">
      <!-- 0.6 -->
      <g transform="translate(622.916246 346.35875) scale(0.08 -0.08)">
       <use xlink:href="#DejaVuSerif-30"/>
       <use xlink:href="#DejaVuSerif-2e" transform="translate(63.623047 0)"/>
       <use xlink:href="#DejaVuSerif-36" transform="translate(95.410156 0)"/>
      </g>
     </g>
    </g>
    <g id="xtick_14">
     <g id="line2d_43">
      <path d="M 674.949452 333.28 
L 674.949452 52.8825 
" clip-path="url(#pfe38b0747d)" style="fill: none; stroke: #b0b0b0; stroke-opacity: 0.3; stroke-width: 0.8; stroke-linecap: square"/>
     </g>
     <g id="line2d_44">
      <g>
       <use xlink:href="#mf255996af3" x="674.949452" y="333.28" style="stroke: #000000; stroke-width: 0.8"/>
      </g>
     </g>
     <g id="text_32">
      <!-- 0.8 -->
      <g transform="translate(668.588202 346.35875) scale(0.08 -0.08)">
       <use xlink:href="#DejaVuSerif-30"/>
       <use xlink:href="#DejaVuSerif-2e" transform="translate(63.623047 0)"/>
       <use xlink:href="#DejaVuSerif-38" transform="translate(95.410156 0)"/>
      </g>
     </g>
    </g>
    <g id="xtick_15">
     <g id="line2d_45">
      <path d="M 720.621408 333.28 
L 720.621408 52.8825 
" clip-path="url(#pfe38b0747d)" style="fill: none; stroke: #b0b0b0; stroke-opacity: 0.3; stroke-width: 0.8; stroke-linecap: square"/>
     </g>
     <g id="line2d_46">
      <g>
       <use xlink:href="#mf255996af3" x="720.621408" y="333.28" style="stroke: #000000; stroke-width: 0.8"/>
      </g>
     </g>
     <g id="text_33">
      <!-- 1.0 -->
      <g transform="translate(714.260158 346.35875) scale(0.08 -0.08)">
       <use xlink:href="#DejaVuSerif-31"/>
       <use xlink:href="#DejaVuSerif-2e" transform="translate(63.623047 0)"/>
       <use xlink:href="#DejaVuSerif-30" transform="translate(95.410156 0)"/>
      </g>
     </g>
    </g>
    <g id="xtick_16">
     <g id="line2d_47">
      <path d="M 766.293364 333.28 
L 766.293364 52.8825 
" clip-path="url(#pfe38b0747d)" style="fill: none; stroke: #b0b0b0; stroke-opacity: 0.3; stroke-width: 0.8; stroke-linecap: square"/>
     </g>
     <g id="line2d_48">
      <g>
       <use xlink:href="#mf255996af3" x="766.293364" y="333.28" style="stroke: #000000; stroke-width: 0.8"/>
      </g>
     </g>
     <g id="text_34">
      <!-- 1.2 -->
      <g transform="translate(759.932114 346.35875) scale(0.08 -0.08)">
       <use xlink:href="#DejaVuSerif-31"/>
       <use xlink:href="#DejaVuSerif-2e" transform="translate(63.623047 0)"/>
       <use xlink:href="#DejaVuSerif-32" transform="translate(95.410156 0)"/>
      </g>
     </g>
    </g>
    <g id="xtick_17">
     <g id="line2d_49">
      <path d="M 811.96532 333.28 
L 811.96532 52.8825 
" clip-path="url(#pfe38b0747d)" style="fill: none; stroke: #b0b0b0; stroke-opacity: 0.3; stroke-width: 0.8; stroke-linecap: square"/>
     </g>
     <g id="line2d_50">
      <g>
       <use xlink:href="#mf255996af3" x="811.96532" y="333.28" style="stroke: #000000; stroke-width: 0.8"/>
      </g>
     </g>
     <g id="text_35">
      <!-- 1.4 -->
      <g transform="translate(805.60407 346.35875) scale(0.08 -0.08)">
       <use xlink:href="#DejaVuSerif-31"/>
       <use xlink:href="#DejaVuSerif-2e" transform="translate(63.623047 0)"/>
       <use xlink:href="#DejaVuSerif-34" transform="translate(95.410156 0)"/>
      </g>
     </g>
    </g>
    <g id="text_36">
     <!-- Zeit [s] -->
     <g transform="translate(647.242869 358.861094) scale(0.09 -0.09)">
      <defs>
       <path id="DejaVuSerif-5a" d="M 288 0 
L 288 225 
L 3194 4281 
L 781 4281 
L 781 3584 
L 397 3584 
L 397 4666 
L 4084 4666 
L 4084 4441 
L 1178 384 
L 3816 384 
L 3816 1038 
L 4197 1038 
L 4197 0 
L 288 0 
z
" transform="scale(0.015625)"/>
      </defs>
      <use xlink:href="#DejaVuSerif-5a"/>
      <use xlink:href="#DejaVuSerif-65" transform="translate(69.482422 0)"/>
      <use xlink:href="#DejaVuSerif-69" transform="translate(128.662109 0)"/>
      <use xlink:href="#DejaVuSerif-74" transform="translate(160.644531 0)"/>
      <use xlink:href="#DejaVuSerif-20" transform="translate(200.830078 0)"/>
      <use xlink:href="#DejaVuSerif-5b" transform="translate(232.617188 0)"/>
      <use xlink:href="#DejaVuSerif-73" transform="translate(271.630859 0)"/>
      <use xlink:href="#DejaVuSerif-5d" transform="translate(322.949219 0)"/>
     </g>
    </g>
   </g>
   <g id="matplotlib.axis_4">
    <g id="ytick_9">
     <g id="line2d_51">
      <path d="M 475.134645 299.6323 
L 851.928281 299.6323 
" clip-path="url(#pfe38b0747d)" style="fill: none; stroke: #b0b0b0; stroke-opacity: 0.3; stroke-width: 0.8; stroke-linecap: square"/>
     </g>
     <g id="line2d_52">
      <g>
       <use xlink:href="#mc1540863eb" x="475.134645" y="299.6323" style="stroke: #000000; stroke-width: 0.8"/>
      </g>
     </g>
     <g id="text_37">
      <!-- 0.0 -->
      <g transform="translate(455.412145 302.671675) scale(0.08 -0.08)">
       <use xlink:href="#DejaVuSerif-30"/>
       <use xlink:href="#DejaVuSerif-2e" transform="translate(63.623047 0)"/>
       <use xlink:href="#DejaVuSerif-30" transform="translate(95.410156 0)"/>
      </g>
     </g>
    </g>
    <g id="ytick_10">
     <g id="line2d_53">
      <path d="M 475.134645 254.7687 
L 851.928281 254.7687 
" clip-path="url(#pfe38b0747d)" style="fill: none; stroke: #b0b0b0; stroke-opacity: 0.3; stroke-width: 0.8; stroke-linecap: square"/>
     </g>
     <g id="line2d_54">
      <g>
       <use xlink:href="#mc1540863eb" x="475.134645" y="254.7687" style="stroke: #000000; stroke-width: 0.8"/>
      </g>
     </g>
     <g id="text_38">
      <!-- 0.2 -->
      <g transform="translate(455.412145 257.808075) scale(0.08 -0.08)">
       <use xlink:href="#DejaVuSerif-30"/>
       <use xlink:href="#DejaVuSerif-2e" transform="translate(63.623047 0)"/>
       <use xlink:href="#DejaVuSerif-32" transform="translate(95.410156 0)"/>
      </g>
     </g>
    </g>
    <g id="ytick_11">
     <g id="line2d_55">
      <path d="M 475.134645 209.9051 
L 851.928281 209.9051 
" clip-path="url(#pfe38b0747d)" style="fill: none; stroke: #b0b0b0; stroke-opacity: 0.3; stroke-width: 0.8; stroke-linecap: square"/>
     </g>
     <g id="line2d_56">
      <g>
       <use xlink:href="#mc1540863eb" x="475.134645" y="209.9051" style="stroke: #000000; stroke-width: 0.8"/>
      </g>
     </g>
     <g id="text_39">
      <!-- 0.4 -->
      <g transform="translate(455.412145 212.944475) scale(0.08 -0.08)">
       <use xlink:href="#DejaVuSerif-30"/>
       <use xlink:href="#DejaVuSerif-2e" transform="translate(63.623047 0)"/>
       <use xlink:href="#DejaVuSerif-34" transform="translate(95.410156 0)"/>
      </g>
     </g>
    </g>
    <g id="ytick_12">
     <g id="line2d_57">
      <path d="M 475.134645 165.0415 
L 851.928281 165.0415 
" clip-path="url(#pfe38b0747d)" style="fill: none; stroke: #b0b0b0; stroke-opacity: 0.3; stroke-width: 0.8; stroke-linecap: square"/>
     </g>
     <g id="line2d_58">
      <g>
       <use xlink:href="#mc1540863eb" x="475.134645" y="165.0415" style="stroke: #000000; stroke-width: 0.8"/>
      </g>
     </g>
     <g id="text_40">
      <!-- 0.6 -->
      <g transform="translate(455.412145 168.080875) scale(0.08 -0.08)">
       <use xlink:href="#DejaVuSerif-30"/>
       <use xlink:href="#DejaVuSerif-2e" transform="translate(63.623047 0)"/>
       <use xlink:href="#DejaVuSerif-36" transform="translate(95.410156 0)"/>
      </g>
     </g>
    </g>
    <g id="ytick_13">
     <g id="line2d_59">
      <path d="M 475.134645 120.1779 
L 851.928281 120.1779 
" clip-path="url(#pfe38b0747d)" style="fill: none; stroke: #b0b0b0; stroke-opacity: 0.3; stroke-width: 0.8; stroke-linecap: square"/>
     </g>
     <g id="line2d_60">
      <g>
       <use xlink:href="#mc1540863eb" x="475.134645" y="120.1779" style="stroke: #000000; stroke-width: 0.8"/>
      </g>
     </g>
     <g id="text_41">
      <!-- 0.8 -->
      <g transform="translate(455.412145 123.217275) scale(0.08 -0.08)">
       <use xlink:href="#DejaVuSerif-30"/>
       <use xlink:href="#DejaVuSerif-2e" transform="translate(63.623047 0)"/>
       <use xlink:href="#DejaVuSerif-38" transform="translate(95.410156 0)"/>
      </g>
     </g>
    </g>
    <g id="ytick_14">
     <g id="line2d_61">
      <path d="M 475.134645 75.3143 
L 851.928281 75.3143 
" clip-path="url(#pfe38b0747d)" style="fill: none; stroke: #b0b0b0; stroke-opacity: 0.3; stroke-width: 0.8; stroke-linecap: square"/>
     </g>
     <g id="line2d_62">
      <g>
       <use xlink:href="#mc1540863eb" x="475.134645" y="75.3143" style="stroke: #000000; stroke-width: 0.8"/>
      </g>
     </g>
     <g id="text_42">
      <!-- 1.0 -->
      <g transform="translate(455.412145 78.353675) scale(0.08 -0.08)">
       <use xlink:href="#DejaVuSerif-31"/>
       <use xlink:href="#DejaVuSerif-2e" transform="translate(63.623047 0)"/>
       <use xlink:href="#DejaVuSerif-30" transform="translate(95.410156 0)"/>
      </g>
     </g>
    </g>
    <g id="text_43">
     <!-- Normierte Entladungsrate -->
     <g transform="translate(449.412457 253.588672) rotate(-90) scale(0.09 -0.09)">
      <defs>
       <path id="DejaVuSerif-45" d="M 353 0 
L 353 331 
L 947 331 
L 947 4331 
L 353 4331 
L 353 4666 
L 4109 4666 
L 4109 3628 
L 3725 3628 
L 3725 4281 
L 1581 4281 
L 1581 2719 
L 3109 2719 
L 3109 3303 
L 3494 3303 
L 3494 1753 
L 3109 1753 
L 3109 2338 
L 1581 2338 
L 1581 384 
L 3775 384 
L 3775 1038 
L 4159 1038 
L 4159 0 
L 353 0 
z
" transform="scale(0.015625)"/>
      </defs>
      <use xlink:href="#DejaVuSerif-4e"/>
      <use xlink:href="#DejaVuSerif-6f" transform="translate(87.5 0)"/>
      <use xlink:href="#DejaVuSerif-72" transform="translate(147.705078 0)"/>
      <use xlink:href="#DejaVuSerif-6d" transform="translate(195.507812 0)"/>
      <use xlink:href="#DejaVuSerif-69" transform="translate(290.332031 0)"/>
      <use xlink:href="#DejaVuSerif-65" transform="translate(322.314453 0)"/>
      <use xlink:href="#DejaVuSerif-72" transform="translate(381.494141 0)"/>
      <use xlink:href="#DejaVuSerif-74" transform="translate(429.296875 0)"/>
      <use xlink:href="#DejaVuSerif-65" transform="translate(469.482422 0)"/>
      <use xlink:href="#DejaVuSerif-20" transform="translate(528.662109 0)"/>
      <use xlink:href="#DejaVuSerif-45" transform="translate(560.449219 0)"/>
      <use xlink:href="#DejaVuSerif-6e" transform="translate(633.447266 0)"/>
      <use xlink:href="#DejaVuSerif-74" transform="translate(697.851562 0)"/>
      <use xlink:href="#DejaVuSerif-6c" transform="translate(738.037109 0)"/>
      <use xlink:href="#DejaVuSerif-61" transform="translate(770.019531 0)"/>
      <use xlink:href="#DejaVuSerif-64" transform="translate(829.638672 0)"/>
      <use xlink:href="#DejaVuSerif-75" transform="translate(893.652344 0)"/>
      <use xlink:href="#DejaVuSerif-6e" transform="translate(958.056641 0)"/>
      <use xlink:href="#DejaVuSerif-67" transform="translate(1022.460938 0)"/>
      <use xlink:href="#DejaVuSerif-73" transform="translate(1086.474609 0)"/>
      <use xlink:href="#DejaVuSerif-72" transform="translate(1137.792969 0)"/>
      <use xlink:href="#DejaVuSerif-61" transform="translate(1185.595703 0)"/>
      <use xlink:href="#DejaVuSerif-74" transform="translate(1245.214844 0)"/>
      <use xlink:href="#DejaVuSerif-65" transform="translate(1285.400391 0)"/>
     </g>
    </g>
   </g>
   <g id="line2d_63">
    <path d="M 492.261628 322.0641 
L 514.884328 322.0641 
L 515.11284 265.9846 
L 720.545237 265.9846 
L 720.773749 322.0641 
L 834.801298 322.0641 
L 834.801298 322.0641 
" clip-path="url(#pfe38b0747d)" style="fill: none; stroke-dasharray: 5.55,2.4; stroke-dashoffset: 0; stroke: #7f8c8d; stroke-width: 1.5"/>
   </g>
   <g id="line2d_64">
    <path d="M 492.261628 299.6323 
L 514.884328 299.6323 
L 515.11284 75.493802 
L 517.16945 98.453894 
L 519.226059 119.062021 
L 521.282668 137.559112 
L 523.339277 154.161415 
L 525.395886 169.063027 
L 527.452495 182.438161 
L 529.509104 194.443186 
L 531.565713 205.218451 
L 533.622322 214.889929 
L 535.678931 223.57069 
L 537.73554 231.362218 
L 539.79215 238.355606 
L 541.848759 244.632611 
L 542.305783 245.937749 
L 542.534295 299.6323 
L 720.545237 299.6323 
L 720.773749 143.861701 
L 722.830358 159.818385 
L 724.886968 174.140513 
L 726.943577 186.995525 
L 729.000186 198.533706 
L 731.056795 208.88995 
L 733.113404 218.185331 
L 735.170013 226.52852 
L 737.226622 234.017058 
L 739.283231 240.738491 
L 741.33984 246.7714 
L 743.396449 252.186316 
L 745.681571 257.554856 
L 747.966692 262.315942 
L 748.195204 299.6323 
L 834.801298 299.6323 
L 834.801298 299.6323 
" clip-path="url(#pfe38b0747d)" style="fill: none; stroke: #c0392b; stroke-width: 1.2; stroke-linecap: square"/>
   </g>
   <g id="line2d_65">
    <path d="M 492.261628 299.6323 
L 514.884328 299.6323 
L 515.11284 265.715418 
L 516.712425 239.359446 
L 518.31201 216.448804 
L 519.911595 196.533109 
L 521.51118 179.220853 
L 523.110765 164.171705 
L 524.71035 151.089827 
L 526.309934 139.718051 
L 527.909519 129.832827 
L 529.509104 121.239828 
L 531.108689 113.770132 
L 532.708274 107.276896 
L 534.307859 101.632476 
L 535.907443 96.72591 
L 537.507028 92.460746 
L 539.106613 88.753136 
L 540.93471 85.105538 
L 542.762807 81.997591 
L 544.590904 79.349457 
L 546.419001 77.093106 
L 548.247098 75.170576 
L 550.303707 73.345549 
L 552.360316 71.82134 
L 554.645437 70.420565 
L 556.930559 69.273861 
L 559.444192 68.251195 
L 562.186337 67.364581 
L 565.385507 66.566466 
L 569.041701 65.890201 
L 573.383431 65.323433 
L 578.63921 64.871506 
L 585.494574 64.52252 
L 594.863571 64.285094 
L 610.173883 64.147241 
L 647.421359 64.100271 
L 720.545237 64.098403 
L 720.773749 299.6323 
L 834.801298 299.6323 
L 834.801298 299.6323 
" clip-path="url(#pfe38b0747d)" style="fill: none; stroke: #1a4e8a; stroke-width: 1.2; stroke-linecap: square"/>
   </g>
   <g id="line2d_66">
    <path d="M 492.261628 299.6323 
L 515.11284 299.566474 
L 517.626474 289.172397 
L 520.140107 279.654466 
L 522.65374 270.938829 
L 525.167374 262.957859 
L 527.681007 255.649627 
L 530.423153 248.377763 
L 533.165298 241.771958 
L 535.907443 235.771207 
L 538.649589 230.32009 
L 541.391734 225.368263 
L 544.13388 220.869995 
L 546.876025 216.783742 
L 549.618171 213.071765 
L 552.588828 209.433135 
L 555.559486 206.154138 
L 558.530143 203.199227 
L 561.729313 200.342786 
L 564.928483 197.789192 
L 568.356165 195.352858 
L 571.783846 193.192196 
L 575.44004 191.156265 
L 579.324746 189.260585 
L 583.437965 187.515617 
L 587.779695 185.927096 
L 592.349937 184.496492 
L 597.377204 183.166039 
L 602.632983 182.004239 
L 608.574298 180.924375 
L 615.201149 179.957487 
L 622.513537 179.121304 
L 630.968486 178.387115 
L 640.794507 177.76687 
L 652.448625 177.260893 
L 667.073401 176.858584 
L 686.496931 176.561832 
L 715.060946 176.369319 
L 720.545237 176.349756 
L 720.773749 299.6323 
L 834.801298 299.6323 
L 834.801298 299.6323 
" clip-path="url(#pfe38b0747d)" style="fill: none; stroke: #27ae60; stroke-width: 1.2; stroke-linecap: square"/>
   </g>
   <g id="line2d_67">
    <path d="M 475.134645 299.6323 
L 851.928281 299.6323 
" clip-path="url(#pfe38b0747d)" style="fill: none; stroke: #000000; stroke-width: 0.6; stroke-linecap: square"/>
   </g>
   <g id="patch_9">
    <path d="M 475.134645 333.28 
L 475.134645 52.8825 
" style="fill: none; stroke: #000000; stroke-width: 0.8; stroke-linejoin: miter; stroke-linecap: square"/>
   </g>
   <g id="patch_10">
    <path d="M 851.928281 333.28 
L 851.928281 52.8825 
" style="fill: none; stroke: #000000; stroke-width: 0.8; stroke-linejoin: miter; stroke-linecap: square"/>
   </g>
   <g id="patch_11">
    <path d="M 475.134645 333.28 
L 851.928281 333.28 
" style="fill: none; stroke: #000000; stroke-width: 0.8; stroke-linejoin: miter; stroke-linecap: square"/>
   </g>
   <g id="patch_12">
    <path d="M 475.134645 52.8825 
L 851.928281 52.8825 
" style="fill: none; stroke: #000000; stroke-width: 0.8; stroke-linejoin: miter; stroke-linecap: square"/>
   </g>
   <g id="text_44">
    <!-- Adaptationsverhalten der Hauptrezeptorklassen (Stufenreiz) -->
    <g transform="translate(509.245526 46.8825) scale(0.1 -0.1)">
     <use xlink:href="#DejaVuSerif-41"/>
     <use xlink:href="#DejaVuSerif-64" transform="translate(72.216797 0)"/>
     <use xlink:href="#DejaVuSerif-61" transform="translate(136.230469 0)"/>
     <use xlink:href="#DejaVuSerif-70" transform="translate(195.849609 0)"/>
     <use xlink:href="#DejaVuSerif-74" transform="translate(259.863281 0)"/>
     <use xlink:href="#DejaVuSerif-61" transform="translate(300.048828 0)"/>
     <use xlink:href="#DejaVuSerif-74" transform="translate(359.667969 0)"/>
     <use xlink:href="#DejaVuSerif-69" transform="translate(399.853516 0)"/>
     <use xlink:href="#DejaVuSerif-6f" transform="translate(431.835938 0)"/>
     <use xlink:href="#DejaVuSerif-6e" transform="translate(492.041016 0)"/>
     <use xlink:href="#DejaVuSerif-73" transform="translate(556.445312 0)"/>
     <use xlink:href="#DejaVuSerif-76" transform="translate(607.763672 0)"/>
     <use xlink:href="#DejaVuSerif-65" transform="translate(664.257812 0)"/>
     <use xlink:href="#DejaVuSerif-72" transform="translate(723.4375 0)"/>
     <use xlink:href="#DejaVuSerif-68" transform="translate(771.240234 0)"/>
     <use xlink:href="#DejaVuSerif-61" transform="translate(835.644531 0)"/>
     <use xlink:href="#DejaVuSerif-6c" transform="translate(895.263672 0)"/>
     <use xlink:href="#DejaVuSerif-74" transform="translate(927.246094 0)"/>
     <use xlink:href="#DejaVuSerif-65" transform="translate(967.431641 0)"/>
     <use xlink:href="#DejaVuSerif-6e" transform="translate(1026.611328 0)"/>
     <use xlink:href="#DejaVuSerif-20" transform="translate(1091.015625 0)"/>
     <use xlink:href="#DejaVuSerif-64" transform="translate(1122.802734 0)"/>
     <use xlink:href="#DejaVuSerif-65" transform="translate(1186.816406 0)"/>
     <use xlink:href="#DejaVuSerif-72" transform="translate(1245.996094 0)"/>
     <use xlink:href="#DejaVuSerif-20" transform="translate(1293.798828 0)"/>
     <use xlink:href="#DejaVuSerif-48" transform="translate(1325.585938 0)"/>
     <use xlink:href="#DejaVuSerif-61" transform="translate(1412.792969 0)"/>
     <use xlink:href="#DejaVuSerif-75" transform="translate(1472.412109 0)"/>
     <use xlink:href="#DejaVuSerif-70" transform="translate(1536.816406 0)"/>
     <use xlink:href="#DejaVuSerif-74" transform="translate(1600.830078 0)"/>
     <use xlink:href="#DejaVuSerif-72" transform="translate(1641.015625 0)"/>
     <use xlink:href="#DejaVuSerif-65" transform="translate(1688.818359 0)"/>
     <use xlink:href="#DejaVuSerif-7a" transform="translate(1747.998047 0)"/>
     <use xlink:href="#DejaVuSerif-65" transform="translate(1800.683594 0)"/>
     <use xlink:href="#DejaVuSerif-70" transform="translate(1859.863281 0)"/>
     <use xlink:href="#DejaVuSerif-74" transform="translate(1923.876953 0)"/>
     <use xlink:href="#DejaVuSerif-6f" transform="translate(1964.0625 0)"/>
     <use xlink:href="#DejaVuSerif-72" transform="translate(2024.267578 0)"/>
     <use xlink:href="#DejaVuSerif-6b" transform="translate(2072.070312 0)"/>
     <use xlink:href="#DejaVuSerif-6c" transform="translate(2132.666016 0)"/>
     <use xlink:href="#DejaVuSerif-61" transform="translate(2164.648438 0)"/>
     <use xlink:href="#DejaVuSerif-73" transform="translate(2224.267578 0)"/>
     <use xlink:href="#DejaVuSerif-73" transform="translate(2275.585938 0)"/>
     <use xlink:href="#DejaVuSerif-65" transform="translate(2326.904297 0)"/>
     <use xlink:href="#DejaVuSerif-6e" transform="translate(2386.083984 0)"/>
     <use xlink:href="#DejaVuSerif-20" transform="translate(2450.488281 0)"/>
     <use xlink:href="#DejaVuSerif-28" transform="translate(2482.275391 0)"/>
     <use xlink:href="#DejaVuSerif-53" transform="translate(2521.289062 0)"/>
     <use xlink:href="#DejaVuSerif-74" transform="translate(2589.794922 0)"/>
     <use xlink:href="#DejaVuSerif-75" transform="translate(2629.980469 0)"/>
     <use xlink:href="#DejaVuSerif-66" transform="translate(2694.384766 0)"/>
     <use xlink:href="#DejaVuSerif-65" transform="translate(2731.396484 0)"/>
     <use xlink:href="#DejaVuSerif-6e" transform="translate(2790.576172 0)"/>
     <use xlink:href="#DejaVuSerif-72" transform="translate(2854.980469 0)"/>
     <use xlink:href="#DejaVuSerif-65" transform="translate(2902.783203 0)"/>
     <use xlink:href="#DejaVuSerif-69" transform="translate(2961.962891 0)"/>
     <use xlink:href="#DejaVuSerif-7a" transform="translate(2993.945312 0)"/>
     <use xlink:href="#DejaVuSerif-29" transform="translate(3046.630859 0)"/>
    </g>
   </g>
   <g id="legend_2">
    <g id="patch_13">
     <path d="M 763.888281 106.2525 
L 846.328281 106.2525 
Q 847.928281 106.2525 847.928281 104.6525 
L 847.928281 58.4825 
Q 847.928281 56.8825 846.328281 56.8825 
L 763.888281 56.8825 
Q 762.288281 56.8825 762.288281 58.4825 
L 762.288281 104.6525 
Q 762.288281 106.2525 763.888281 106.2525 
z
" style="fill: #ffffff; opacity: 0.8; stroke: #cccccc; stroke-linejoin: miter"/>
    </g>
    <g id="line2d_68">
     <path d="M 765.488281 63.36125 
L 773.488281 63.36125 
L 781.488281 63.36125 
" style="fill: none; stroke-dasharray: 5.55,2.4; stroke-dashoffset: 0; stroke: #7f8c8d; stroke-width: 1.5"/>
    </g>
    <g id="text_45">
     <!-- Stimulus -->
     <g transform="translate(787.888281 66.16125) scale(0.08 -0.08)">
      <use xlink:href="#DejaVuSerif-53"/>
      <use xlink:href="#DejaVuSerif-74" transform="translate(68.505859 0)"/>
      <use xlink:href="#DejaVuSerif-69" transform="translate(108.691406 0)"/>
      <use xlink:href="#DejaVuSerif-6d" transform="translate(140.673828 0)"/>
      <use xlink:href="#DejaVuSerif-75" transform="translate(235.498047 0)"/>
      <use xlink:href="#DejaVuSerif-6c" transform="translate(299.902344 0)"/>
      <use xlink:href="#DejaVuSerif-75" transform="translate(331.884766 0)"/>
      <use xlink:href="#DejaVuSerif-73" transform="translate(396.289062 0)"/>
     </g>
    </g>
    <g id="line2d_69">
     <path d="M 765.488281 75.10375 
L 773.488281 75.10375 
L 781.488281 75.10375 
" style="fill: none; stroke: #c0392b; stroke-width: 1.2; stroke-linecap: square"/>
    </g>
    <g id="text_46">
     <!-- Meissner RA1 -->
     <g transform="translate(787.888281 77.90375) scale(0.08 -0.08)">
      <use xlink:href="#DejaVuSerif-4d"/>
      <use xlink:href="#DejaVuSerif-65" transform="translate(102.392578 0)"/>
      <use xlink:href="#DejaVuSerif-69" transform="translate(161.572266 0)"/>
      <use xlink:href="#DejaVuSerif-73" transform="translate(193.554688 0)"/>
      <use xlink:href="#DejaVuSerif-73" transform="translate(244.873047 0)"/>
      <use xlink:href="#DejaVuSerif-6e" transform="translate(296.191406 0)"/>
      <use xlink:href="#DejaVuSerif-65" transform="translate(360.595703 0)"/>
      <use xlink:href="#DejaVuSerif-72" transform="translate(419.775391 0)"/>
      <use xlink:href="#DejaVuSerif-20" transform="translate(467.578125 0)"/>
      <use xlink:href="#DejaVuSerif-52" transform="translate(499.365234 0)"/>
      <use xlink:href="#DejaVuSerif-41" transform="translate(574.658203 0)"/>
      <use xlink:href="#DejaVuSerif-31" transform="translate(646.875 0)"/>
     </g>
    </g>
    <g id="line2d_70">
     <path d="M 765.488281 86.84625 
L 773.488281 86.84625 
L 781.488281 86.84625 
" style="fill: none; stroke: #1a4e8a; stroke-width: 1.2; stroke-linecap: square"/>
    </g>
    <g id="text_47">
     <!-- Merkel SA1 -->
     <g transform="translate(787.888281 89.64625) scale(0.08 -0.08)">
      <use xlink:href="#DejaVuSerif-4d"/>
      <use xlink:href="#DejaVuSerif-65" transform="translate(102.392578 0)"/>
      <use xlink:href="#DejaVuSerif-72" transform="translate(161.572266 0)"/>
      <use xlink:href="#DejaVuSerif-6b" transform="translate(209.375 0)"/>
      <use xlink:href="#DejaVuSerif-65" transform="translate(269.970703 0)"/>
      <use xlink:href="#DejaVuSerif-6c" transform="translate(329.150391 0)"/>
      <use xlink:href="#DejaVuSerif-20" transform="translate(361.132812 0)"/>
      <use xlink:href="#DejaVuSerif-53" transform="translate(392.919922 0)"/>
      <use xlink:href="#DejaVuSerif-41" transform="translate(461.425781 0)"/>
      <use xlink:href="#DejaVuSerif-31" transform="translate(533.642578 0)"/>
     </g>
    </g>
    <g id="line2d_71">
     <path d="M 765.488281 98.58875 
L 773.488281 98.58875 
L 781.488281 98.58875 
" style="fill: none; stroke: #27ae60; stroke-width: 1.2; stroke-linecap: square"/>
    </g>
    <g id="text_48">
     <!-- Ruffini SA2 -->
     <g transform="translate(787.888281 101.38875) scale(0.08 -0.08)">
      <use xlink:href="#DejaVuSerif-52"/>
      <use xlink:href="#DejaVuSerif-75" transform="translate(75.292969 0)"/>
      <use xlink:href="#DejaVuSerif-66" transform="translate(139.697266 0)"/>
      <use xlink:href="#DejaVuSerif-66" transform="translate(176.708984 0)"/>
      <use xlink:href="#DejaVuSerif-69" transform="translate(213.720703 0)"/>
      <use xlink:href="#DejaVuSerif-6e" transform="translate(245.703125 0)"/>
      <use xlink:href="#DejaVuSerif-69" transform="translate(310.107422 0)"/>
      <use xlink:href="#DejaVuSerif-20" transform="translate(342.089844 0)"/>
      <use xlink:href="#DejaVuSerif-53" transform="translate(373.876953 0)"/>
      <use xlink:href="#DejaVuSerif-41" transform="translate(442.382812 0)"/>
      <use xlink:href="#DejaVuSerif-32" transform="translate(514.599609 0)"/>
     </g>
    </g>
   </g>
  </g>
  <g id="text_49">
   <!-- Abbildung 2 – Mechanorezeptoren der menschlichen Hand -->
   <g transform="translate(280.117812 14.798437) scale(0.1 -0.1)">
    <defs>
     <path id="DejaVuSerif-2013" d="M 281 1906 
L 2919 1906 
L 2919 1491 
L 281 1491 
L 281 1906 
z
" transform="scale(0.015625)"/>
    </defs>
    <use xlink:href="#DejaVuSerif-41"/>
    <use xlink:href="#DejaVuSerif-62" transform="translate(72.216797 0)"/>
    <use xlink:href="#DejaVuSerif-62" transform="translate(136.230469 0)"/>
    <use xlink:href="#DejaVuSerif-69" transform="translate(200.244141 0)"/>
    <use xlink:href="#DejaVuSerif-6c" transform="translate(232.226562 0)"/>
    <use xlink:href="#DejaVuSerif-64" transform="translate(264.208984 0)"/>
    <use xlink:href="#DejaVuSerif-75" transform="translate(328.222656 0)"/>
    <use xlink:href="#DejaVuSerif-6e" transform="translate(392.626953 0)"/>
    <use xlink:href="#DejaVuSerif-67" transform="translate(457.03125 0)"/>
    <use xlink:href="#DejaVuSerif-20" transform="translate(521.044922 0)"/>
    <use xlink:href="#DejaVuSerif-32" transform="translate(552.832031 0)"/>
    <use xlink:href="#DejaVuSerif-20" transform="translate(616.455078 0)"/>
    <use xlink:href="#DejaVuSerif-2013" transform="translate(648.242188 0)"/>
    <use xlink:href="#DejaVuSerif-20" transform="translate(698.242188 0)"/>
    <use xlink:href="#DejaVuSerif-4d" transform="translate(730.029297 0)"/>
    <use xlink:href="#DejaVuSerif-65" transform="translate(832.421875 0)"/>
    <use xlink:href="#DejaVuSerif-63" transform="translate(891.601562 0)"/>
    <use xlink:href="#DejaVuSerif-68" transform="translate(947.607422 0)"/>
    <use xlink:href="#DejaVuSerif-61" transform="translate(1012.011719 0)"/>
    <use xlink:href="#DejaVuSerif-6e" transform="translate(1071.630859 0)"/>
    <use xlink:href="#DejaVuSerif-6f" transform="translate(1136.035156 0)"/>
    <use xlink:href="#DejaVuSerif-72" transform="translate(1196.240234 0)"/>
    <use xlink:href="#DejaVuSerif-65" transform="translate(1244.042969 0)"/>
    <use xlink:href="#DejaVuSerif-7a" transform="translate(1303.222656 0)"/>
    <use xlink:href="#DejaVuSerif-65" transform="translate(1355.908203 0)"/>
    <use xlink:href="#DejaVuSerif-70" transform="translate(1415.087891 0)"/>
    <use xlink:href="#DejaVuSerif-74" transform="translate(1479.101562 0)"/>
    <use xlink:href="#DejaVuSerif-6f" transform="translate(1519.287109 0)"/>
    <use xlink:href="#DejaVuSerif-72" transform="translate(1579.492188 0)"/>
    <use xlink:href="#DejaVuSerif-65" transform="translate(1627.294922 0)"/>
    <use xlink:href="#DejaVuSerif-6e" transform="translate(1686.474609 0)"/>
    <use xlink:href="#DejaVuSerif-20" transform="translate(1750.878906 0)"/>
    <use xlink:href="#DejaVuSerif-64" transform="translate(1782.666016 0)"/>
    <use xlink:href="#DejaVuSerif-65" transform="translate(1846.679688 0)"/>
    <use xlink:href="#DejaVuSerif-72" transform="translate(1905.859375 0)"/>
    <use xlink:href="#DejaVuSerif-20" transform="translate(1953.662109 0)"/>
    <use xlink:href="#DejaVuSerif-6d" transform="translate(1985.449219 0)"/>
    <use xlink:href="#DejaVuSerif-65" transform="translate(2080.273438 0)"/>
    <use xlink:href="#DejaVuSerif-6e" transform="translate(2139.453125 0)"/>
    <use xlink:href="#DejaVuSerif-73" transform="translate(2203.857422 0)"/>
    <use xlink:href="#DejaVuSerif-63" transform="translate(2255.175781 0)"/>
    <use xlink:href="#DejaVuSerif-68" transform="translate(2311.181641 0)"/>
    <use xlink:href="#DejaVuSerif-6c" transform="translate(2375.585938 0)"/>
    <use xlink:href="#DejaVuSerif-69" transform="translate(2407.568359 0)"/>
    <use xlink:href="#DejaVuSerif-63" transform="translate(2439.550781 0)"/>
    <use xlink:href="#DejaVuSerif-68" transform="translate(2495.556641 0)"/>
    <use xlink:href="#DejaVuSerif-65" transform="translate(2559.960938 0)"/>
    <use xlink:href="#DejaVuSerif-6e" transform="translate(2619.140625 0)"/>
    <use xlink:href="#DejaVuSerif-20" transform="translate(2683.544922 0)"/>
    <use xlink:href="#DejaVuSerif-48" transform="translate(2715.332031 0)"/>
    <use xlink:href="#DejaVuSerif-61" transform="translate(2802.539062 0)"/>
    <use xlink:href="#DejaVuSerif-6e" transform="translate(2862.158203 0)"/>
    <use xlink:href="#DejaVuSerif-64" transform="translate(2926.5625 0)"/>
   </g>
  </g>
 </g>
 <defs>
  <clipPath id="pdb48b21201">
   <rect x="42.308281" y="52.8825" width="376.793636" height="280.3975"/>
  </clipPath>
  <clipPath id="pfe38b0747d">
   <rect x="475.134645" y="52.8825" width="376.793636" height="280.3975"/>
  </clipPath>
 </defs>
</svg>
