<?xml version="1.0" encoding="utf-8" standalone="no"?>
<!DOCTYPE svg PUBLIC "-//W3C//DTD SVG 1.1//EN"
  "http://www.w3.org/Graphics/SVG/1.1/DTD/svg11.dtd">
<svg xmlns:xlink="http://www.w3.org/1999/xlink" width="857.768256pt" height="368.117031pt" viewBox="0 0 857.768256 368.117031" xmlns="http://www.w3.org/2000/svg" version="1.1">
 <metadata>
  <rdf:RDF xmlns:dc="http://purl.org/dc/elements/1.1/" xmlns:cc="http://creativecommons.org/ns#" xmlns:rdf="http://www.w3.org/1999/02/22-rdf-syntax-ns#">
   <cc:Work>
    <dc:type rdf:resource="http://purl.org/dc/dcmitype/StillImage"/>
    <dc:date>2026-04-05T17:55:51.741997</dc:date>
    <dc:format>image/svg+xml</dc:format>
    <dc:creator>
     <cc:Agent>
      <dc:title>Matplotlib v3.10.8, https://matplotlib.org/</dc:title>
     </cc:Agent>
    </dc:creator>
   </cc:Work>
  </rdf:RDF>
 </metadata>
 <defs>
  <style type="text/css">*{stroke-linejoin: round; stroke-linecap: butt}</style>
 </defs>
 <g id="figure_1">
  <g id="patch_1">
   <path d="M 0 368.117031 
L 857.768256 368.117031 
L 857.768256 0 
L 0 0 
z
" style="fill: #ffffff"/>
  </g>
  <g id="axes_1">
   <g id="patch_2">
    <path d="M 69.89 333.28 
L 435.605124 333.28 
L 435.605124 52.56 
L 69.89 52.56 
z
" style="fill: #ffffff"/>
   </g>
   <g id="patch_3">
    <path d="M 69.89 320.52 
L 187.251996 320.52 
L 187.251996 290.496471 
L 69.89 290.496471 
z
" clip-path="url(#p91b4be8a02)" style="fill: #c0392b; opacity: 0.85"/>
   </g>
   <g id="patch_4">
    <path d="M 69.89 282.990588 
L 217.538963 282.990588 
L 217.538963 252.967059 
L 69.89 252.967059 
z
" clip-path="url(#p91b4be8a02)" style="fill: #c0392b; opacity: 0.85"/>
   </g>
   <g id="patch_5">
    <path d="M 69.89 245.461176 
L 192.930803 245.461176 
L 192.930803 215.437647 
L 69.89 215.437647 
z
" clip-path="url(#p91b4be8a02)" style="fill: #c0392b; opacity: 0.85"/>
   </g>
   <g id="patch_6">
    <path d="M 69.89 207.931765 
L 166.429707 207.931765 
L 166.429707 177.908235 
L 69.89 177.908235 
z
" clip-path="url(#p91b4be8a02)" style="fill: #c0392b; opacity: 0.85"/>
   </g>
   <g id="patch_7">
    <path d="M 69.89 170.402353 
L 206.181351 170.402353 
L 206.181351 140.378824 
L 69.89 140.378824 
z
" clip-path="url(#p91b4be8a02)" style="fill: #c0392b; opacity: 0.85"/>
   </g>
   <g id="patch_8">
    <path d="M 69.89 132.872941 
L 198.609609 132.872941 
L 198.609609 102.849412 
L 69.89 102.849412 
z
" clip-path="url(#p91b4be8a02)" style="fill: #c0392b; opacity: 0.85"/>
   </g>
   <g id="patch_9">
    <path d="M 69.89 95.343529 
L 151.286223 95.343529 
L 151.286223 65.32 
L 69.89 65.32 
z
" clip-path="url(#p91b4be8a02)" style="fill: #c0392b; opacity: 0.85"/>
   </g>
   <g id="patch_10">
    <path d="M 187.251996 320.52 
L 264.862349 320.52 
L 264.862349 290.496471 
L 187.251996 290.496471 
z
" clip-path="url(#p91b4be8a02)" style="fill: #e67e22; opacity: 0.85"/>
   </g>
   <g id="patch_11">
    <path d="M 217.538963 282.990588 
L 283.791703 282.990588 
L 283.791703 252.967059 
L 217.538963 252.967059 
z
" clip-path="url(#p91b4be8a02)" style="fill: #e67e22; opacity: 0.85"/>
   </g>
   <g id="patch_12">
    <path d="M 192.930803 245.461176 
L 327.329218 245.461176 
L 327.329218 215.437647 
L 192.930803 215.437647 
z
" clip-path="url(#p91b4be8a02)" style="fill: #e67e22; opacity: 0.85"/>
   </g>
   <g id="patch_13">
    <path d="M 166.429707 207.931765 
L 219.431899 207.931765 
L 219.431899 177.908235 
L 166.429707 177.908235 
z
" clip-path="url(#p91b4be8a02)" style="fill: #e67e22; opacity: 0.85"/>
   </g>
   <g id="patch_14">
    <path d="M 206.181351 170.402353 
L 325.436282 170.402353 
L 325.436282 140.378824 
L 206.181351 140.378824 
z
" clip-path="url(#p91b4be8a02)" style="fill: #e67e22; opacity: 0.85"/>
   </g>
   <g id="patch_15">
    <path d="M 198.609609 132.872941 
L 310.292799 132.872941 
L 310.292799 102.849412 
L 198.609609 102.849412 
z
" clip-path="url(#p91b4be8a02)" style="fill: #e67e22; opacity: 0.85"/>
   </g>
   <g id="patch_16">
    <path d="M 151.286223 95.343529 
L 189.144932 95.343529 
L 189.144932 65.32 
L 151.286223 65.32 
z
" clip-path="url(#p91b4be8a02)" style="fill: #e67e22; opacity: 0.85"/>
   </g>
   <g id="patch_17">
    <path d="M 264.862349 320.52 
L 308.399863 320.52 
L 308.399863 290.496471 
L 264.862349 290.496471 
z
" clip-path="url(#p91b4be8a02)" style="fill: #8e44ad; opacity: 0.85"/>
   </g>
   <g id="patch_18">
    <path d="M 283.791703 282.990588 
L 336.793895 282.990588 
L 336.793895 252.967059 
L 283.791703 252.967059 
z
" clip-path="url(#p91b4be8a02)" style="fill: #8e44ad; opacity: 0.85"/>
   </g>
   <g id="patch_19">
    <path d="M 327.329218 245.461176 
L 418.190118 245.461176 
L 418.190118 215.437647 
L 327.329218 215.437647 
z
" clip-path="url(#p91b4be8a02)" style="fill: #8e44ad; opacity: 0.85"/>
   </g>
   <g id="patch_20">
    <path d="M 219.431899 207.931765 
L 247.82593 207.931765 
L 247.82593 177.908235 
L 219.431899 177.908235 
z
" clip-path="url(#p91b4be8a02)" style="fill: #8e44ad; opacity: 0.85"/>
   </g>
   <g id="patch_21">
    <path d="M 325.436282 170.402353 
L 395.474893 170.402353 
L 395.474893 140.378824 
L 325.436282 140.378824 
z
" clip-path="url(#p91b4be8a02)" style="fill: #8e44ad; opacity: 0.85"/>
   </g>
   <g id="patch_22">
    <path d="M 310.292799 132.872941 
L 395.474893 132.872941 
L 395.474893 102.849412 
L 310.292799 102.849412 
z
" clip-path="url(#p91b4be8a02)" style="fill: #8e44ad; opacity: 0.85"/>
   </g>
   <g id="patch_23">
    <path d="M 189.144932 95.343529 
L 211.860157 95.343529 
L 211.860157 65.32 
L 189.144932 65.32 
z
" clip-path="url(#p91b4be8a02)" style="fill: #8e44ad; opacity: 0.85"/>
   </g>
   <g id="matplotlib.axis_1">
    <g id="xtick_1">
     <g id="line2d_1">
      <path d="M 69.89 333.28 
L 69.89 52.56 
" clip-path="url(#p91b4be8a02)" style="fill: none; stroke: #b0b0b0; stroke-opacity: 0.3; stroke-width: 0.8; stroke-linecap: square"/>
     </g>
     <g id="line2d_2">
      <defs>
       <path id="m0e0a48d867" d="M 0 0 
L 0 3.5 
" style="stroke: #000000; stroke-width: 0.8"/>
      </defs>
      <g>
       <use xlink:href="#m0e0a48d867" x="69.89" y="333.28" style="stroke: #000000; stroke-width: 0.8"/>
      </g>
     </g>
     <g id="text_1">
      <!-- 0.0 -->
      <g transform="translate(63.52875 346.35875) scale(0.08 -0.08)">
       <defs>
        <path id="DejaVuSerif-30" d="M 2034 219 
Q 2513 219 2750 744 
Q 2988 1269 2988 2328 
Q 2988 3391 2750 3916 
Q 2513 4441 2034 4441 
Q 1556 4441 1318 3916 
Q 1081 3391 1081 2328 
Q 1081 1269 1318 744 
Q 1556 219 2034 219 
z
M 2034 -91 
Q 1275 -91 848 546 
Q 422 1184 422 2328 
Q 422 3475 848 4112 
Q 1275 4750 2034 4750 
Q 2797 4750 3222 4112 
Q 3647 3475 3647 2328 
Q 3647 1184 3222 546 
Q 2797 -91 2034 -91 
z
" transform="scale(0.015625)"/>
        <path id="DejaVuSerif-2e" d="M 603 325 
Q 603 500 722 622 
Q 841 744 1019 744 
Q 1191 744 1312 622 
Q 1434 500 1434 325 
Q 1434 153 1312 31 
Q 1191 -91 1019 -91 
Q 841 -91 722 29 
Q 603 150 603 325 
z
" transform="scale(0.015625)"/>
       </defs>
       <use xlink:href="#DejaVuSerif-30"/>
       <use xlink:href="#DejaVuSerif-2e" transform="translate(63.623047 0)"/>
       <use xlink:href="#DejaVuSerif-30" transform="translate(95.410156 0)"/>
      </g>
     </g>
    </g>
    <g id="xtick_2">
     <g id="line2d_3">
      <path d="M 117.213386 333.28 
L 117.213386 52.56 
" clip-path="url(#p91b4be8a02)" style="fill: none; stroke: #b0b0b0; stroke-opacity: 0.3; stroke-width: 0.8; stroke-linecap: square"/>
     </g>
     <g id="line2d_4">
      <g>
       <use xlink:href="#m0e0a48d867" x="117.213386" y="333.28" style="stroke: #000000; stroke-width: 0.8"/>
      </g>
     </g>
     <g id="text_2">
      <!-- 2.5 -->
      <g transform="translate(110.852136 346.35875) scale(0.08 -0.08)">
       <defs>
        <path id="DejaVuSerif-32" d="M 819 3553 
L 469 3553 
L 469 4384 
Q 803 4563 1142 4656 
Q 1481 4750 1806 4750 
Q 2534 4750 2956 4397 
Q 3378 4044 3378 3438 
Q 3378 2753 2422 1800 
Q 2347 1728 2309 1691 
L 1131 513 
L 3078 513 
L 3078 1088 
L 3444 1088 
L 3444 0 
L 434 0 
L 434 341 
L 1850 1753 
Q 2319 2222 2519 2614 
Q 2719 3006 2719 3438 
Q 2719 3909 2473 4175 
Q 2228 4441 1797 4441 
Q 1350 4441 1106 4219 
Q 863 3997 819 3553 
z
" transform="scale(0.015625)"/>
        <path id="DejaVuSerif-35" d="M 3219 4666 
L 3219 4153 
L 1081 4153 
L 1081 2816 
Q 1244 2928 1461 2984 
Q 1678 3041 1947 3041 
Q 2703 3041 3140 2622 
Q 3578 2203 3578 1478 
Q 3578 738 3136 323 
Q 2694 -91 1894 -91 
Q 1572 -91 1234 -12 
Q 897 66 544 225 
L 544 1131 
L 897 1131 
Q 925 688 1179 453 
Q 1434 219 1894 219 
Q 2388 219 2653 544 
Q 2919 869 2919 1478 
Q 2919 2084 2655 2407 
Q 2391 2731 1894 2731 
Q 1613 2731 1398 2631 
Q 1184 2531 1019 2322 
L 750 2322 
L 750 4666 
L 3219 4666 
z
" transform="scale(0.015625)"/>
       </defs>
       <use xlink:href="#DejaVuSerif-32"/>
       <use xlink:href="#DejaVuSerif-2e" transform="translate(63.623047 0)"/>
       <use xlink:href="#DejaVuSerif-35" transform="translate(95.410156 0)"/>
      </g>
     </g>
    </g>
    <g id="xtick_3">
     <g id="line2d_5">
      <path d="M 164.536771 333.28 
L 164.536771 52.56 
" clip-path="url(#p91b4be8a02)" style="fill: none; stroke: #b0b0b0; stroke-opacity: 0.3; stroke-width: 0.8; stroke-linecap: square"/>
     </g>
     <g id="line2d_6">
      <g>
       <use xlink:href="#m0e0a48d867" x="164.536771" y="333.28" style="stroke: #000000; stroke-width: 0.8"/>
      </g>
     </g>
     <g id="text_3">
      <!-- 5.0 -->
      <g transform="translate(158.175521 346.35875) scale(0.08 -0.08)">
       <use xlink:href="#DejaVuSerif-35"/>
       <use xlink:href="#DejaVuSerif-2e" transform="translate(63.623047 0)"/>
       <use xlink:href="#DejaVuSerif-30" transform="translate(95.410156 0)"/>
      </g>
     </g>
    </g>
    <g id="xtick_4">
     <g id="line2d_7">
      <path d="M 211.860157 333.28 
L 211.860157 52.56 
" clip-path="url(#p91b4be8a02)" style="fill: none; stroke: #b0b0b0; stroke-opacity: 0.3; stroke-width: 0.8; stroke-linecap: square"/>
     </g>
     <g id="line2d_8">
      <g>
       <use xlink:href="#m0e0a48d867" x="211.860157" y="333.28" style="stroke: #000000; stroke-width: 0.8"/>
      </g>
     </g>
     <g id="text_4">
      <!-- 7.5 -->
      <g transform="translate(205.498907 346.35875) scale(0.08 -0.08)">
       <defs>
        <path id="DejaVuSerif-37" d="M 3609 4347 
L 1784 0 
L 1319 0 
L 3059 4153 
L 903 4153 
L 903 3578 
L 538 3578 
L 538 4666 
L 3609 4666 
L 3609 4347 
z
" transform="scale(0.015625)"/>
       </defs>
       <use xlink:href="#DejaVuSerif-37"/>
       <use xlink:href="#DejaVuSerif-2e" transform="translate(63.623047 0)"/>
       <use xlink:href="#DejaVuSerif-35" transform="translate(95.410156 0)"/>
      </g>
     </g>
    </g>
    <g id="xtick_5">
     <g id="line2d_9">
      <path d="M 259.183542 333.28 
L 259.183542 52.56 
" clip-path="url(#p91b4be8a02)" style="fill: none; stroke: #b0b0b0; stroke-opacity: 0.3; stroke-width: 0.8; stroke-linecap: square"/>
     </g>
     <g id="line2d_10">
      <g>
       <use xlink:href="#m0e0a48d867" x="259.183542" y="333.28" style="stroke: #000000; stroke-width: 0.8"/>
      </g>
     </g>
     <g id="text_5">
      <!-- 10.0 -->
      <g transform="translate(250.277292 346.35875) scale(0.08 -0.08)">
       <defs>
        <path id="DejaVuSerif-31" d="M 909 0 
L 909 331 
L 1722 331 
L 1722 4213 
L 781 3603 
L 781 4013 
L 1919 4750 
L 2350 4750 
L 2350 331 
L 3163 331 
L 3163 0 
L 909 0 
z
" transform="scale(0.015625)"/>
       </defs>
       <use xlink:href="#DejaVuSerif-31"/>
       <use xlink:href="#DejaVuSerif-30" transform="translate(63.623047 0)"/>
       <use xlink:href="#DejaVuSerif-2e" transform="translate(127.246094 0)"/>
       <use xlink:href="#DejaVuSerif-30" transform="translate(159.033203 0)"/>
      </g>
     </g>
    </g>
    <g id="xtick_6">
     <g id="line2d_11">
      <path d="M 306.506928 333.28 
L 306.506928 52.56 
" clip-path="url(#p91b4be8a02)" style="fill: none; stroke: #b0b0b0; stroke-opacity: 0.3; stroke-width: 0.8; stroke-linecap: square"/>
     </g>
     <g id="line2d_12">
      <g>
       <use xlink:href="#m0e0a48d867" x="306.506928" y="333.28" style="stroke: #000000; stroke-width: 0.8"/>
      </g>
     </g>
     <g id="text_6">
      <!-- 12.5 -->
      <g transform="translate(297.600678 346.35875) scale(0.08 -0.08)">
       <use xlink:href="#DejaVuSerif-31"/>
       <use xlink:href="#DejaVuSerif-32" transform="translate(63.623047 0)"/>
       <use xlink:href="#DejaVuSerif-2e" transform="translate(127.246094 0)"/>
       <use xlink:href="#DejaVuSerif-35" transform="translate(159.033203 0)"/>
      </g>
     </g>
    </g>
    <g id="xtick_7">
     <g id="line2d_13">
      <path d="M 353.830314 333.28 
L 353.830314 52.56 
" clip-path="url(#p91b4be8a02)" style="fill: none; stroke: #b0b0b0; stroke-opacity: 0.3; stroke-width: 0.8; stroke-linecap: square"/>
     </g>
     <g id="line2d_14">
      <g>
       <use xlink:href="#m0e0a48d867" x="353.830314" y="333.28" style="stroke: #000000; stroke-width: 0.8"/>
      </g>
     </g>
     <g id="text_7">
      <!-- 15.0 -->
      <g transform="translate(344.924064 346.35875) scale(0.08 -0.08)">
       <use xlink:href="#DejaVuSerif-31"/>
       <use xlink:href="#DejaVuSerif-35" transform="translate(63.623047 0)"/>
       <use xlink:href="#DejaVuSerif-2e" transform="translate(127.246094 0)"/>
       <use xlink:href="#DejaVuSerif-30" transform="translate(159.033203 0)"/>
      </g>
     </g>
    </g>
    <g id="xtick_8">
     <g id="line2d_15">
      <path d="M 401.153699 333.28 
L 401.153699 52.56 
" clip-path="url(#p91b4be8a02)" style="fill: none; stroke: #b0b0b0; stroke-opacity: 0.3; stroke-width: 0.8; stroke-linecap: square"/>
     </g>
     <g id="line2d_16">
      <g>
       <use xlink:href="#m0e0a48d867" x="401.153699" y="333.28" style="stroke: #000000; stroke-width: 0.8"/>
      </g>
     </g>
     <g id="text_8">
      <!-- 17.5 -->
      <g transform="translate(392.247449 346.35875) scale(0.08 -0.08)">
       <use xlink:href="#DejaVuSerif-31"/>
       <use xlink:href="#DejaVuSerif-37" transform="translate(63.623047 0)"/>
       <use xlink:href="#DejaVuSerif-2e" transform="translate(127.246094 0)"/>
       <use xlink:href="#DejaVuSerif-35" transform="translate(159.033203 0)"/>
      </g>
     </g>
    </g>
    <g id="text_9">
     <!-- Beeinträchtigungsindex [a.u.] -->
     <g transform="translate(184.798265 358.917344) scale(0.09 -0.09)">
      <defs>
       <path id="DejaVuSerif-42" d="M 1581 331 
L 2516 331 
Q 3078 331 3337 575 
Q 3597 819 3597 1350 
Q 3597 1878 3339 2120 
Q 3081 2363 2516 2363 
L 1581 2363 
L 1581 331 
z
M 1581 2694 
L 2375 2694 
Q 2888 2694 3123 2891 
Q 3359 3088 3359 3513 
Q 3359 3941 3123 4136 
Q 2888 4331 2375 4331 
L 1581 4331 
L 1581 2694 
z
M 353 0 
L 353 331 
L 947 331 
L 947 4331 
L 353 4331 
L 353 4666 
L 2656 4666 
Q 3363 4666 3720 4377 
Q 4078 4088 4078 3513 
Q 4078 3097 3829 2850 
Q 3581 2603 3103 2547 
Q 3697 2472 4005 2167 
Q 4313 1863 4313 1350 
Q 4313 656 3875 328 
Q 3438 0 2509 0 
L 353 0 
z
" transform="scale(0.015625)"/>
       <path id="DejaVuSerif-65" d="M 3469 1600 
L 991 1600 
L 991 1575 
Q 991 903 1244 561 
Q 1497 219 1991 219 
Q 2369 219 2611 417 
Q 2853 616 2950 1006 
L 3413 1006 
Q 3275 459 2904 184 
Q 2534 -91 1931 -91 
Q 1203 -91 761 389 
Q 319 869 319 1663 
Q 319 2450 753 2931 
Q 1188 3413 1894 3413 
Q 2647 3413 3050 2948 
Q 3453 2484 3469 1600 
z
M 2791 1931 
Q 2772 2513 2545 2808 
Q 2319 3103 1894 3103 
Q 1497 3103 1269 2806 
Q 1041 2509 991 1931 
L 2791 1931 
z
" transform="scale(0.015625)"/>
       <path id="DejaVuSerif-69" d="M 622 4353 
Q 622 4497 726 4603 
Q 831 4709 978 4709 
Q 1122 4709 1226 4603 
Q 1331 4497 1331 4353 
Q 1331 4206 1228 4103 
Q 1125 4000 978 4000 
Q 831 4000 726 4103 
Q 622 4206 622 4353 
z
M 1356 331 
L 1900 331 
L 1900 0 
L 231 0 
L 231 331 
L 781 331 
L 781 2988 
L 231 2988 
L 231 3322 
L 1356 3322 
L 1356 331 
z
" transform="scale(0.015625)"/>
       <path id="DejaVuSerif-6e" d="M 263 0 
L 263 331 
L 781 331 
L 781 2988 
L 231 2988 
L 231 3322 
L 1356 3322 
L 1356 2731 
Q 1516 3069 1770 3241 
Q 2025 3413 2363 3413 
Q 2913 3413 3172 3097 
Q 3431 2781 3431 2113 
L 3431 331 
L 3944 331 
L 3944 0 
L 2356 0 
L 2356 331 
L 2853 331 
L 2853 1931 
Q 2853 2541 2703 2767 
Q 2553 2994 2175 2994 
Q 1775 2994 1565 2701 
Q 1356 2409 1356 1850 
L 1356 331 
L 1856 331 
L 1856 0 
L 263 0 
z
" transform="scale(0.015625)"/>
       <path id="DejaVuSerif-74" d="M 691 2988 
L 184 2988 
L 184 3322 
L 691 3322 
L 691 4353 
L 1269 4353 
L 1269 3322 
L 2350 3322 
L 2350 2988 
L 1269 2988 
L 1269 878 
Q 1269 456 1350 337 
Q 1431 219 1650 219 
Q 1875 219 1978 351 
Q 2081 484 2088 781 
L 2522 781 
Q 2497 328 2275 118 
Q 2053 -91 1600 -91 
Q 1103 -91 897 129 
Q 691 350 691 878 
L 691 2988 
z
" transform="scale(0.015625)"/>
       <path id="DejaVuSerif-72" d="M 3059 3328 
L 3059 2497 
L 2728 2497 
Q 2713 2744 2591 2866 
Q 2469 2988 2234 2988 
Q 1809 2988 1582 2694 
Q 1356 2400 1356 1850 
L 1356 331 
L 2022 331 
L 2022 0 
L 263 0 
L 263 331 
L 781 331 
L 781 2994 
L 231 2994 
L 231 3322 
L 1356 3322 
L 1356 2731 
Q 1525 3078 1790 3245 
Q 2056 3413 2438 3413 
Q 2578 3413 2733 3391 
Q 2888 3369 3059 3328 
z
" transform="scale(0.015625)"/>
       <path id="DejaVuSerif-e4" d="M 2547 1044 
L 2547 1747 
L 1806 1747 
Q 1378 1747 1168 1562 
Q 959 1378 959 997 
Q 959 650 1171 447 
Q 1384 244 1747 244 
Q 2106 244 2326 466 
Q 2547 688 2547 1044 
z
M 3122 2075 
L 3122 331 
L 3634 331 
L 3634 0 
L 2547 0 
L 2547 359 
Q 2356 128 2106 18 
Q 1856 -91 1522 -91 
Q 969 -91 644 203 
Q 319 497 319 997 
Q 319 1513 691 1797 
Q 1063 2081 1741 2081 
L 2547 2081 
L 2547 2309 
Q 2547 2688 2317 2895 
Q 2088 3103 1672 3103 
Q 1328 3103 1125 2947 
Q 922 2791 872 2484 
L 575 2484 
L 575 3156 
Q 875 3284 1158 3348 
Q 1441 3413 1709 3413 
Q 2400 3413 2761 3070 
Q 3122 2728 3122 2075 
z
M 1167 4903 
Q 1317 4903 1424 4795 
Q 1532 4688 1532 4538 
Q 1532 4378 1429 4275 
Q 1326 4172 1167 4172 
Q 1010 4172 907 4275 
Q 804 4378 804 4538 
Q 804 4688 912 4795 
Q 1020 4903 1167 4903 
z
M 2385 4903 
Q 2532 4903 2640 4795 
Q 2748 4688 2748 4538 
Q 2748 4378 2645 4275 
Q 2542 4172 2385 4172 
Q 2226 4172 2123 4275 
Q 2020 4378 2020 4538 
Q 2020 4688 2127 4795 
Q 2235 4903 2385 4903 
z
" transform="scale(0.015625)"/>
       <path id="DejaVuSerif-63" d="M 3291 997 
Q 3169 466 2822 187 
Q 2475 -91 1925 -91 
Q 1200 -91 759 389 
Q 319 869 319 1663 
Q 319 2459 759 2936 
Q 1200 3413 1925 3413 
Q 2241 3413 2553 3339 
Q 2866 3266 3181 3116 
L 3181 2266 
L 2847 2266 
Q 2781 2703 2561 2903 
Q 2341 3103 1931 3103 
Q 1466 3103 1228 2742 
Q 991 2381 991 1663 
Q 991 944 1227 581 
Q 1463 219 1931 219 
Q 2303 219 2525 412 
Q 2747 606 2828 997 
L 3291 997 
z
" transform="scale(0.015625)"/>
       <path id="DejaVuSerif-68" d="M 263 0 
L 263 331 
L 781 331 
L 781 4531 
L 231 4531 
L 231 4863 
L 1356 4863 
L 1356 2731 
Q 1516 3069 1770 3241 
Q 2025 3413 2363 3413 
Q 2913 3413 3172 3097 
Q 3431 2781 3431 2113 
L 3431 331 
L 3944 331 
L 3944 0 
L 2356 0 
L 2356 331 
L 2853 331 
L 2853 1931 
Q 2853 2541 2704 2764 
Q 2556 2988 2175 2988 
Q 1775 2988 1565 2697 
Q 1356 2406 1356 1850 
L 1356 331 
L 1856 331 
L 1856 0 
L 263 0 
z
" transform="scale(0.015625)"/>
       <path id="DejaVuSerif-67" d="M 3359 2988 
L 3359 72 
Q 3359 -644 2965 -1033 
Q 2572 -1422 1844 -1422 
Q 1516 -1422 1216 -1362 
Q 916 -1303 641 -1184 
L 641 -488 
L 941 -488 
Q 997 -813 1206 -963 
Q 1416 -1113 1806 -1113 
Q 2313 -1113 2548 -827 
Q 2784 -541 2784 72 
L 2784 519 
Q 2616 206 2355 57 
Q 2094 -91 1709 -91 
Q 1097 -91 708 395 
Q 319 881 319 1663 
Q 319 2444 706 2928 
Q 1094 3413 1709 3413 
Q 2094 3413 2355 3264 
Q 2616 3116 2784 2803 
L 2784 3322 
L 3909 3322 
L 3909 2988 
L 3359 2988 
z
M 2784 1825 
Q 2784 2422 2554 2737 
Q 2325 3053 1888 3053 
Q 1444 3053 1217 2703 
Q 991 2353 991 1663 
Q 991 975 1217 622 
Q 1444 269 1888 269 
Q 2325 269 2554 583 
Q 2784 897 2784 1497 
L 2784 1825 
z
" transform="scale(0.015625)"/>
       <path id="DejaVuSerif-75" d="M 2266 3322 
L 3341 3322 
L 3341 331 
L 3884 331 
L 3884 0 
L 2766 0 
L 2766 588 
Q 2606 256 2353 82 
Q 2100 -91 1766 -91 
Q 1213 -91 952 223 
Q 691 538 691 1209 
L 691 2988 
L 172 2988 
L 172 3322 
L 1269 3322 
L 1269 1388 
Q 1269 781 1417 556 
Q 1566 331 1947 331 
Q 2347 331 2556 625 
Q 2766 919 2766 1478 
L 2766 2988 
L 2266 2988 
L 2266 3322 
z
" transform="scale(0.015625)"/>
       <path id="DejaVuSerif-73" d="M 359 184 
L 359 959 
L 691 959 
Q 703 588 923 403 
Q 1144 219 1575 219 
Q 1963 219 2166 364 
Q 2369 509 2369 788 
Q 2369 1006 2220 1140 
Q 2072 1275 1594 1428 
L 1178 1569 
Q 750 1706 558 1912 
Q 366 2119 366 2438 
Q 366 2894 700 3153 
Q 1034 3413 1625 3413 
Q 1888 3413 2178 3344 
Q 2469 3275 2778 3144 
L 2778 2419 
L 2447 2419 
Q 2434 2741 2221 2922 
Q 2009 3103 1644 3103 
Q 1281 3103 1095 2975 
Q 909 2847 909 2591 
Q 909 2381 1050 2254 
Q 1191 2128 1613 1997 
L 2069 1856 
Q 2541 1709 2748 1489 
Q 2956 1269 2956 922 
Q 2956 450 2595 179 
Q 2234 -91 1600 -91 
Q 1278 -91 972 -22 
Q 666 47 359 184 
z
" transform="scale(0.015625)"/>
       <path id="DejaVuSerif-64" d="M 3359 331 
L 3909 331 
L 3909 0 
L 2784 0 
L 2784 519 
Q 2616 206 2355 57 
Q 2094 -91 1709 -91 
Q 1097 -91 708 395 
Q 319 881 319 1663 
Q 319 2444 706 2928 
Q 1094 3413 1709 3413 
Q 2094 3413 2355 3264 
Q 2616 3116 2784 2803 
L 2784 4531 
L 2241 4531 
L 2241 4863 
L 3359 4863 
L 3359 331 
z
M 2784 1497 
L 2784 1825 
Q 2784 2422 2554 2737 
Q 2325 3053 1888 3053 
Q 1444 3053 1217 2703 
Q 991 2353 991 1663 
Q 991 975 1217 622 
Q 1444 269 1888 269 
Q 2325 269 2554 583 
Q 2784 897 2784 1497 
z
" transform="scale(0.015625)"/>
       <path id="DejaVuSerif-78" d="M 1863 2028 
L 2559 2988 
L 2113 2988 
L 2113 3322 
L 3391 3322 
L 3391 2988 
L 2950 2988 
L 2059 1759 
L 3097 331 
L 3531 331 
L 3531 0 
L 1997 0 
L 1997 331 
L 2419 331 
L 1697 1325 
L 972 331 
L 1403 331 
L 1403 0 
L 141 0 
L 141 331 
L 581 331 
L 1497 1594 
L 488 2988 
L 78 2988 
L 78 3322 
L 1563 3322 
L 1563 2988 
L 1166 2988 
L 1863 2028 
z
" transform="scale(0.015625)"/>
       <path id="DejaVuSerif-20" transform="scale(0.015625)"/>
       <path id="DejaVuSerif-5b" d="M 550 4863 
L 2003 4863 
L 2003 4531 
L 1147 4531 
L 1147 -513 
L 2003 -513 
L 2003 -844 
L 550 -844 
L 550 4863 
z
" transform="scale(0.015625)"/>
       <path id="DejaVuSerif-61" d="M 2547 1044 
L 2547 1747 
L 1806 1747 
Q 1378 1747 1168 1562 
Q 959 1378 959 997 
Q 959 650 1171 447 
Q 1384 244 1747 244 
Q 2106 244 2326 466 
Q 2547 688 2547 1044 
z
M 3122 2075 
L 3122 331 
L 3634 331 
L 3634 0 
L 2547 0 
L 2547 359 
Q 2356 128 2106 18 
Q 1856 -91 1522 -91 
Q 969 -91 644 203 
Q 319 497 319 997 
Q 319 1513 691 1797 
Q 1063 2081 1741 2081 
L 2547 2081 
L 2547 2309 
Q 2547 2688 2317 2895 
Q 2088 3103 1672 3103 
Q 1328 3103 1125 2947 
Q 922 2791 872 2484 
L 575 2484 
L 575 3156 
Q 875 3284 1158 3348 
Q 1441 3413 1709 3413 
Q 2400 3413 2761 3070 
Q 3122 2728 3122 2075 
z
" transform="scale(0.015625)"/>
       <path id="DejaVuSerif-5d" d="M 1947 4863 
L 1947 -844 
L 494 -844 
L 494 -513 
L 1350 -513 
L 1350 4531 
L 494 4531 
L 494 4863 
L 1947 4863 
z
" transform="scale(0.015625)"/>
      </defs>
      <use xlink:href="#DejaVuSerif-42"/>
      <use xlink:href="#DejaVuSerif-65" transform="translate(73.486328 0)"/>
      <use xlink:href="#DejaVuSerif-65" transform="translate(132.666016 0)"/>
      <use xlink:href="#DejaVuSerif-69" transform="translate(191.845703 0)"/>
      <use xlink:href="#DejaVuSerif-6e" transform="translate(223.828125 0)"/>
      <use xlink:href="#DejaVuSerif-74" transform="translate(288.232422 0)"/>
      <use xlink:href="#DejaVuSerif-72" transform="translate(328.417969 0)"/>
      <use xlink:href="#DejaVuSerif-e4" transform="translate(376.220703 0)"/>
      <use xlink:href="#DejaVuSerif-63" transform="translate(435.839844 0)"/>
      <use xlink:href="#DejaVuSerif-68" transform="translate(491.845703 0)"/>
      <use xlink:href="#DejaVuSerif-74" transform="translate(556.25 0)"/>
      <use xlink:href="#DejaVuSerif-69" transform="translate(596.435547 0)"/>
      <use xlink:href="#DejaVuSerif-67" transform="translate(628.417969 0)"/>
      <use xlink:href="#DejaVuSerif-75" transform="translate(692.431641 0)"/>
      <use xlink:href="#DejaVuSerif-6e" transform="translate(756.835938 0)"/>
      <use xlink:href="#DejaVuSerif-67" transform="translate(821.240234 0)"/>
      <use xlink:href="#DejaVuSerif-73" transform="translate(885.253906 0)"/>
      <use xlink:href="#DejaVuSerif-69" transform="translate(936.572266 0)"/>
      <use xlink:href="#DejaVuSerif-6e" transform="translate(968.554688 0)"/>
      <use xlink:href="#DejaVuSerif-64" transform="translate(1032.958984 0)"/>
      <use xlink:href="#DejaVuSerif-65" transform="translate(1096.972656 0)"/>
      <use xlink:href="#DejaVuSerif-78" transform="translate(1156.152344 0)"/>
      <use xlink:href="#DejaVuSerif-20" transform="translate(1212.548828 0)"/>
      <use xlink:href="#DejaVuSerif-5b" transform="translate(1244.335938 0)"/>
      <use xlink:href="#DejaVuSerif-61" transform="translate(1283.349609 0)"/>
      <use xlink:href="#DejaVuSerif-2e" transform="translate(1342.96875 0)"/>
      <use xlink:href="#DejaVuSerif-75" transform="translate(1374.755859 0)"/>
      <use xlink:href="#DejaVuSerif-2e" transform="translate(1439.160156 0)"/>
      <use xlink:href="#DejaVuSerif-5d" transform="translate(1470.947266 0)"/>
     </g>
    </g>
   </g>
   <g id="matplotlib.axis_2">
    <g id="ytick_1">
     <g id="line2d_17">
      <defs>
       <path id="me2c842f64b" d="M 0 0 
L -3.5 0 
" style="stroke: #000000; stroke-width: 0.8"/>
      </defs>
      <g>
       <use xlink:href="#me2c842f64b" x="69.89" y="305.508235" style="stroke: #000000; stroke-width: 0.8"/>
      </g>
     </g>
     <g id="text_10">
      <!-- Karpaltunnel- -->
      <g transform="translate(7.2 304.67636) scale(0.08 -0.08)">
       <defs>
        <path id="DejaVuSerif-4b" d="M 353 0 
L 353 331 
L 947 331 
L 947 4331 
L 353 4331 
L 353 4666 
L 2175 4666 
L 2175 4331 
L 1581 4331 
L 1581 2566 
L 3591 4331 
L 3084 4331 
L 3084 4666 
L 4634 4666 
L 4634 4331 
L 4109 4331 
L 2106 2572 
L 4347 331 
L 4878 331 
L 4878 0 
L 3794 0 
L 1581 2216 
L 1581 331 
L 2175 331 
L 2175 0 
L 353 0 
z
" transform="scale(0.015625)"/>
        <path id="DejaVuSerif-70" d="M 1313 1825 
L 1313 1497 
Q 1313 897 1542 583 
Q 1772 269 2209 269 
Q 2650 269 2876 622 
Q 3103 975 3103 1663 
Q 3103 2353 2876 2703 
Q 2650 3053 2209 3053 
Q 1772 3053 1542 2737 
Q 1313 2422 1313 1825 
z
M 738 2988 
L 184 2988 
L 184 3322 
L 1313 3322 
L 1313 2803 
Q 1481 3116 1742 3264 
Q 2003 3413 2388 3413 
Q 3000 3413 3387 2928 
Q 3775 2444 3775 1663 
Q 3775 881 3387 395 
Q 3000 -91 2388 -91 
Q 2003 -91 1742 57 
Q 1481 206 1313 519 
L 1313 -997 
L 1856 -997 
L 1856 -1331 
L 184 -1331 
L 184 -997 
L 738 -997 
L 738 2988 
z
" transform="scale(0.015625)"/>
        <path id="DejaVuSerif-6c" d="M 1313 331 
L 1856 331 
L 1856 0 
L 184 0 
L 184 331 
L 738 331 
L 738 4531 
L 184 4531 
L 184 4863 
L 1313 4863 
L 1313 331 
z
" transform="scale(0.015625)"/>
        <path id="DejaVuSerif-2d" d="M 281 1959 
L 1881 1959 
L 1881 1472 
L 281 1472 
L 281 1959 
z
" transform="scale(0.015625)"/>
       </defs>
       <use xlink:href="#DejaVuSerif-4b"/>
       <use xlink:href="#DejaVuSerif-61" transform="translate(74.707031 0)"/>
       <use xlink:href="#DejaVuSerif-72" transform="translate(134.326172 0)"/>
       <use xlink:href="#DejaVuSerif-70" transform="translate(182.128906 0)"/>
       <use xlink:href="#DejaVuSerif-61" transform="translate(246.142578 0)"/>
       <use xlink:href="#DejaVuSerif-6c" transform="translate(305.761719 0)"/>
       <use xlink:href="#DejaVuSerif-74" transform="translate(337.744141 0)"/>
       <use xlink:href="#DejaVuSerif-75" transform="translate(377.929688 0)"/>
       <use xlink:href="#DejaVuSerif-6e" transform="translate(442.333984 0)"/>
       <use xlink:href="#DejaVuSerif-6e" transform="translate(506.738281 0)"/>
       <use xlink:href="#DejaVuSerif-65" transform="translate(571.142578 0)"/>
       <use xlink:href="#DejaVuSerif-6c" transform="translate(630.322266 0)"/>
       <use xlink:href="#DejaVuSerif-2d" transform="translate(662.304688 0)"/>
      </g>
      <!-- syndrom -->
      <g transform="translate(27.765 313.63461) scale(0.08 -0.08)">
       <defs>
        <path id="DejaVuSerif-79" d="M 1381 -609 
L 1600 -56 
L 359 2988 
L -19 2988 
L -19 3322 
L 1509 3322 
L 1509 2988 
L 978 2988 
L 1913 703 
L 2847 2988 
L 2350 2988 
L 2350 3322 
L 3597 3322 
L 3597 2988 
L 3225 2988 
L 1703 -750 
Q 1547 -1138 1356 -1280 
Q 1166 -1422 819 -1422 
Q 672 -1422 517 -1397 
Q 363 -1372 206 -1325 
L 206 -691 
L 500 -691 
Q 519 -903 608 -995 
Q 697 -1088 884 -1088 
Q 1056 -1088 1161 -992 
Q 1266 -897 1381 -609 
z
" transform="scale(0.015625)"/>
        <path id="DejaVuSerif-6f" d="M 1925 219 
Q 2388 219 2623 584 
Q 2859 950 2859 1663 
Q 2859 2375 2623 2739 
Q 2388 3103 1925 3103 
Q 1463 3103 1227 2739 
Q 991 2375 991 1663 
Q 991 950 1228 584 
Q 1466 219 1925 219 
z
M 1925 -91 
Q 1200 -91 759 389 
Q 319 869 319 1663 
Q 319 2456 758 2934 
Q 1197 3413 1925 3413 
Q 2653 3413 3092 2934 
Q 3531 2456 3531 1663 
Q 3531 869 3092 389 
Q 2653 -91 1925 -91 
z
" transform="scale(0.015625)"/>
        <path id="DejaVuSerif-6d" d="M 3316 2675 
Q 3481 3041 3739 3227 
Q 3997 3413 4341 3413 
Q 4863 3413 5119 3089 
Q 5375 2766 5375 2113 
L 5375 331 
L 5894 331 
L 5894 0 
L 4300 0 
L 4300 331 
L 4800 331 
L 4800 2047 
Q 4800 2556 4650 2772 
Q 4500 2988 4153 2988 
Q 3769 2988 3567 2697 
Q 3366 2406 3366 1850 
L 3366 331 
L 3866 331 
L 3866 0 
L 2291 0 
L 2291 331 
L 2791 331 
L 2791 2069 
Q 2791 2566 2641 2777 
Q 2491 2988 2144 2988 
Q 1759 2988 1557 2697 
Q 1356 2406 1356 1850 
L 1356 331 
L 1856 331 
L 1856 0 
L 263 0 
L 263 331 
L 781 331 
L 781 2994 
L 231 2994 
L 231 3322 
L 1356 3322 
L 1356 2731 
Q 1516 3063 1762 3238 
Q 2009 3413 2322 3413 
Q 2709 3413 2968 3220 
Q 3228 3028 3316 2675 
z
" transform="scale(0.015625)"/>
       </defs>
       <use xlink:href="#DejaVuSerif-73"/>
       <use xlink:href="#DejaVuSerif-79" transform="translate(51.318359 0)"/>
       <use xlink:href="#DejaVuSerif-6e" transform="translate(107.8125 0)"/>
       <use xlink:href="#DejaVuSerif-64" transform="translate(172.216797 0)"/>
       <use xlink:href="#DejaVuSerif-72" transform="translate(236.230469 0)"/>
       <use xlink:href="#DejaVuSerif-6f" transform="translate(284.033203 0)"/>
       <use xlink:href="#DejaVuSerif-6d" transform="translate(344.238281 0)"/>
      </g>
     </g>
    </g>
    <g id="ytick_2">
     <g id="line2d_18">
      <g>
       <use xlink:href="#me2c842f64b" x="69.89" y="267.978824" style="stroke: #000000; stroke-width: 0.8"/>
      </g>
     </g>
     <g id="text_11">
      <!-- Rheumatoide -->
      <g transform="translate(9.02375 267.146949) scale(0.08 -0.08)">
       <defs>
        <path id="DejaVuSerif-52" d="M 3066 2316 
Q 3284 2256 3442 2114 
Q 3600 1972 3725 1716 
L 4403 331 
L 4972 331 
L 4972 0 
L 3872 0 
L 3144 1484 
Q 2934 1916 2759 2042 
Q 2584 2169 2278 2169 
L 1581 2169 
L 1581 331 
L 2241 331 
L 2241 0 
L 353 0 
L 353 331 
L 947 331 
L 947 4331 
L 353 4331 
L 353 4666 
L 2719 4666 
Q 3400 4666 3770 4341 
Q 4141 4016 4141 3419 
Q 4141 2938 3870 2661 
Q 3600 2384 3066 2316 
z
M 1581 2503 
L 2503 2503 
Q 2975 2503 3200 2726 
Q 3425 2950 3425 3419 
Q 3425 3888 3200 4109 
Q 2975 4331 2503 4331 
L 1581 4331 
L 1581 2503 
z
" transform="scale(0.015625)"/>
       </defs>
       <use xlink:href="#DejaVuSerif-52"/>
       <use xlink:href="#DejaVuSerif-68" transform="translate(75.292969 0)"/>
       <use xlink:href="#DejaVuSerif-65" transform="translate(139.697266 0)"/>
       <use xlink:href="#DejaVuSerif-75" transform="translate(198.876953 0)"/>
       <use xlink:href="#DejaVuSerif-6d" transform="translate(263.28125 0)"/>
       <use xlink:href="#DejaVuSerif-61" transform="translate(358.105469 0)"/>
       <use xlink:href="#DejaVuSerif-74" transform="translate(417.724609 0)"/>
       <use xlink:href="#DejaVuSerif-6f" transform="translate(457.910156 0)"/>
       <use xlink:href="#DejaVuSerif-69" transform="translate(518.115234 0)"/>
       <use xlink:href="#DejaVuSerif-64" transform="translate(550.097656 0)"/>
       <use xlink:href="#DejaVuSerif-65" transform="translate(614.111328 0)"/>
      </g>
      <!-- Arthritis -->
      <g transform="translate(28.66 276.105199) scale(0.08 -0.08)">
       <defs>
        <path id="DejaVuSerif-41" d="M 1281 1691 
L 2994 1691 
L 2138 3909 
L 1281 1691 
z
M -38 0 
L -38 331 
L 372 331 
L 2034 4666 
L 2559 4666 
L 4225 331 
L 4684 331 
L 4684 0 
L 2988 0 
L 2988 331 
L 3506 331 
L 3116 1356 
L 1153 1356 
L 763 331 
L 1275 331 
L 1275 0 
L -38 0 
z
" transform="scale(0.015625)"/>
       </defs>
       <use xlink:href="#DejaVuSerif-41"/>
       <use xlink:href="#DejaVuSerif-72" transform="translate(72.216797 0)"/>
       <use xlink:href="#DejaVuSerif-74" transform="translate(120.019531 0)"/>
       <use xlink:href="#DejaVuSerif-68" transform="translate(160.205078 0)"/>
       <use xlink:href="#DejaVuSerif-72" transform="translate(224.609375 0)"/>
       <use xlink:href="#DejaVuSerif-69" transform="translate(272.412109 0)"/>
       <use xlink:href="#DejaVuSerif-74" transform="translate(304.394531 0)"/>
       <use xlink:href="#DejaVuSerif-69" transform="translate(344.580078 0)"/>
       <use xlink:href="#DejaVuSerif-73" transform="translate(376.5625 0)"/>
      </g>
     </g>
    </g>
    <g id="ytick_3">
     <g id="line2d_19">
      <g>
       <use xlink:href="#me2c842f64b" x="69.89" y="230.449412" style="stroke: #000000; stroke-width: 0.8"/>
      </g>
     </g>
     <g id="text_12">
      <!-- Parkinson -->
      <g transform="translate(22.64125 229.617537) scale(0.08 -0.08)">
       <defs>
        <path id="DejaVuSerif-50" d="M 1581 2375 
L 2406 2375 
Q 2872 2375 3115 2626 
Q 3359 2878 3359 3353 
Q 3359 3831 3115 4081 
Q 2872 4331 2406 4331 
L 1581 4331 
L 1581 2375 
z
M 353 0 
L 353 331 
L 947 331 
L 947 4331 
L 353 4331 
L 353 4666 
L 2559 4666 
Q 3259 4666 3668 4311 
Q 4078 3956 4078 3353 
Q 4078 2753 3668 2397 
Q 3259 2041 2559 2041 
L 1581 2041 
L 1581 331 
L 2303 331 
L 2303 0 
L 353 0 
z
" transform="scale(0.015625)"/>
        <path id="DejaVuSerif-6b" d="M 1831 0 
L 219 0 
L 219 331 
L 738 331 
L 738 4531 
L 184 4531 
L 184 4863 
L 1313 4863 
L 1313 1697 
L 2713 2988 
L 2234 2988 
L 2234 3322 
L 3738 3322 
L 3738 2988 
L 3169 2988 
L 2181 2075 
L 3444 331 
L 3922 331 
L 3922 0 
L 2284 0 
L 2284 331 
L 2759 331 
L 1766 1697 
L 1313 1275 
L 1313 331 
L 1831 331 
L 1831 0 
z
" transform="scale(0.015625)"/>
       </defs>
       <use xlink:href="#DejaVuSerif-50"/>
       <use xlink:href="#DejaVuSerif-61" transform="translate(62.785156 0)"/>
       <use xlink:href="#DejaVuSerif-72" transform="translate(122.404297 0)"/>
       <use xlink:href="#DejaVuSerif-6b" transform="translate(170.207031 0)"/>
       <use xlink:href="#DejaVuSerif-69" transform="translate(230.802734 0)"/>
       <use xlink:href="#DejaVuSerif-6e" transform="translate(262.785156 0)"/>
       <use xlink:href="#DejaVuSerif-73" transform="translate(327.189453 0)"/>
       <use xlink:href="#DejaVuSerif-6f" transform="translate(378.507812 0)"/>
       <use xlink:href="#DejaVuSerif-6e" transform="translate(438.712891 0)"/>
      </g>
      <!-- (Tremor) -->
      <g transform="translate(26.52625 238.575787) scale(0.08 -0.08)">
       <defs>
        <path id="DejaVuSerif-28" d="M 2041 -997 
Q 1281 -656 893 83 
Q 506 822 506 1931 
Q 506 3044 893 3783 
Q 1281 4522 2041 4863 
L 2041 4556 
Q 1559 4225 1350 3623 
Q 1141 3022 1141 1931 
Q 1141 844 1350 242 
Q 1559 -359 2041 -691 
L 2041 -997 
z
" transform="scale(0.015625)"/>
        <path id="DejaVuSerif-54" d="M 1222 0 
L 1222 331 
L 1819 331 
L 1819 4294 
L 447 4294 
L 447 3566 
L 63 3566 
L 63 4666 
L 4206 4666 
L 4206 3566 
L 3822 3566 
L 3822 4294 
L 2450 4294 
L 2450 331 
L 3047 331 
L 3047 0 
L 1222 0 
z
" transform="scale(0.015625)"/>
        <path id="DejaVuSerif-29" d="M 453 -997 
L 453 -691 
Q 934 -359 1145 242 
Q 1356 844 1356 1931 
Q 1356 3022 1145 3623 
Q 934 4225 453 4556 
L 453 4863 
Q 1216 4522 1603 3783 
Q 1991 3044 1991 1931 
Q 1991 822 1603 83 
Q 1216 -656 453 -997 
z
" transform="scale(0.015625)"/>
       </defs>
       <use xlink:href="#DejaVuSerif-28"/>
       <use xlink:href="#DejaVuSerif-54" transform="translate(39.013672 0)"/>
       <use xlink:href="#DejaVuSerif-72" transform="translate(105.712891 0)"/>
       <use xlink:href="#DejaVuSerif-65" transform="translate(153.515625 0)"/>
       <use xlink:href="#DejaVuSerif-6d" transform="translate(212.695312 0)"/>
       <use xlink:href="#DejaVuSerif-6f" transform="translate(307.519531 0)"/>
       <use xlink:href="#DejaVuSerif-72" transform="translate(367.724609 0)"/>
       <use xlink:href="#DejaVuSerif-29" transform="translate(415.527344 0)"/>
      </g>
     </g>
    </g>
    <g id="ytick_4">
     <g id="line2d_20">
      <g>
       <use xlink:href="#me2c842f64b" x="69.89" y="192.92" style="stroke: #000000; stroke-width: 0.8"/>
      </g>
     </g>
     <g id="text_13">
      <!-- Dupuytren -->
      <g transform="translate(19.60375 191.974375) scale(0.08 -0.08)">
       <defs>
        <path id="DejaVuSerif-44" d="M 1581 331 
L 2163 331 
Q 3072 331 3558 850 
Q 4044 1369 4044 2338 
Q 4044 3306 3559 3818 
Q 3075 4331 2163 4331 
L 1581 4331 
L 1581 331 
z
M 353 0 
L 353 331 
L 947 331 
L 947 4331 
L 353 4331 
L 353 4666 
L 2209 4666 
Q 3416 4666 4089 4050 
Q 4763 3434 4763 2338 
Q 4763 1238 4088 619 
Q 3413 0 2209 0 
L 353 0 
z
" transform="scale(0.015625)"/>
       </defs>
       <use xlink:href="#DejaVuSerif-44"/>
       <use xlink:href="#DejaVuSerif-75" transform="translate(80.175781 0)"/>
       <use xlink:href="#DejaVuSerif-70" transform="translate(144.580078 0)"/>
       <use xlink:href="#DejaVuSerif-75" transform="translate(208.59375 0)"/>
       <use xlink:href="#DejaVuSerif-79" transform="translate(272.998047 0)"/>
       <use xlink:href="#DejaVuSerif-74" transform="translate(329.492188 0)"/>
       <use xlink:href="#DejaVuSerif-72" transform="translate(369.677734 0)"/>
       <use xlink:href="#DejaVuSerif-65" transform="translate(417.480469 0)"/>
       <use xlink:href="#DejaVuSerif-6e" transform="translate(476.660156 0)"/>
      </g>
      <!-- Kontr. -->
      <g transform="translate(38.45375 201.046375) scale(0.08 -0.08)">
       <use xlink:href="#DejaVuSerif-4b"/>
       <use xlink:href="#DejaVuSerif-6f" transform="translate(72.082031 0)"/>
       <use xlink:href="#DejaVuSerif-6e" transform="translate(132.287109 0)"/>
       <use xlink:href="#DejaVuSerif-74" transform="translate(196.691406 0)"/>
       <use xlink:href="#DejaVuSerif-72" transform="translate(236.876953 0)"/>
       <use xlink:href="#DejaVuSerif-2e" transform="translate(273.679688 0)"/>
      </g>
     </g>
    </g>
    <g id="ytick_5">
     <g id="line2d_21">
      <g>
       <use xlink:href="#me2c842f64b" x="69.89" y="155.390588" style="stroke: #000000; stroke-width: 0.8"/>
      </g>
     </g>
     <g id="text_14">
      <!-- Ulnaris- -->
      <g transform="translate(30.475 154.558713) scale(0.08 -0.08)">
       <defs>
        <path id="DejaVuSerif-55" d="M 897 4331 
L 300 4331 
L 300 4666 
L 2125 4666 
L 2125 4331 
L 1528 4331 
L 1528 1919 
Q 1528 1025 1820 672 
Q 2113 319 2828 319 
Q 3544 319 3836 672 
Q 4128 1025 4128 1919 
L 4128 4331 
L 3531 4331 
L 3531 4666 
L 5106 4666 
L 5106 4331 
L 4513 4331 
L 4513 1856 
Q 4513 791 4103 350 
Q 3694 -91 2713 -91 
Q 1731 -91 1314 353 
Q 897 797 897 1856 
L 897 4331 
z
" transform="scale(0.015625)"/>
       </defs>
       <use xlink:href="#DejaVuSerif-55"/>
       <use xlink:href="#DejaVuSerif-6c" transform="translate(84.277344 0)"/>
       <use xlink:href="#DejaVuSerif-6e" transform="translate(116.259766 0)"/>
       <use xlink:href="#DejaVuSerif-61" transform="translate(180.664062 0)"/>
       <use xlink:href="#DejaVuSerif-72" transform="translate(240.283203 0)"/>
       <use xlink:href="#DejaVuSerif-69" transform="translate(288.085938 0)"/>
       <use xlink:href="#DejaVuSerif-73" transform="translate(320.068359 0)"/>
       <use xlink:href="#DejaVuSerif-2d" transform="translate(371.386719 0)"/>
      </g>
      <!-- Parese -->
      <g transform="translate(35.69875 163.516963) scale(0.08 -0.08)">
       <use xlink:href="#DejaVuSerif-50"/>
       <use xlink:href="#DejaVuSerif-61" transform="translate(62.785156 0)"/>
       <use xlink:href="#DejaVuSerif-72" transform="translate(122.404297 0)"/>
       <use xlink:href="#DejaVuSerif-65" transform="translate(170.207031 0)"/>
       <use xlink:href="#DejaVuSerif-73" transform="translate(229.386719 0)"/>
       <use xlink:href="#DejaVuSerif-65" transform="translate(280.705078 0)"/>
      </g>
     </g>
    </g>
    <g id="ytick_6">
     <g id="line2d_22">
      <g>
       <use xlink:href="#me2c842f64b" x="69.89" y="117.861176" style="stroke: #000000; stroke-width: 0.8"/>
      </g>
     </g>
     <g id="text_15">
      <!-- Diabetische -->
      <g transform="translate(15.045 117.029301) scale(0.08 -0.08)">
       <defs>
        <path id="DejaVuSerif-62" d="M 738 331 
L 738 4531 
L 184 4531 
L 184 4863 
L 1313 4863 
L 1313 2803 
Q 1481 3116 1742 3264 
Q 2003 3413 2388 3413 
Q 3000 3413 3387 2928 
Q 3775 2444 3775 1663 
Q 3775 881 3387 395 
Q 3000 -91 2388 -91 
Q 2003 -91 1742 57 
Q 1481 206 1313 519 
L 1313 0 
L 184 0 
L 184 331 
L 738 331 
z
M 1313 1497 
Q 1313 897 1542 583 
Q 1772 269 2209 269 
Q 2650 269 2876 622 
Q 3103 975 3103 1663 
Q 3103 2353 2876 2703 
Q 2650 3053 2209 3053 
Q 1772 3053 1542 2737 
Q 1313 2422 1313 1825 
L 1313 1497 
z
" transform="scale(0.015625)"/>
       </defs>
       <use xlink:href="#DejaVuSerif-44"/>
       <use xlink:href="#DejaVuSerif-69" transform="translate(80.175781 0)"/>
       <use xlink:href="#DejaVuSerif-61" transform="translate(112.158203 0)"/>
       <use xlink:href="#DejaVuSerif-62" transform="translate(171.777344 0)"/>
       <use xlink:href="#DejaVuSerif-65" transform="translate(235.791016 0)"/>
       <use xlink:href="#DejaVuSerif-74" transform="translate(294.970703 0)"/>
       <use xlink:href="#DejaVuSerif-69" transform="translate(335.15625 0)"/>
       <use xlink:href="#DejaVuSerif-73" transform="translate(367.138672 0)"/>
       <use xlink:href="#DejaVuSerif-63" transform="translate(418.457031 0)"/>
       <use xlink:href="#DejaVuSerif-68" transform="translate(474.462891 0)"/>
       <use xlink:href="#DejaVuSerif-65" transform="translate(538.867188 0)"/>
      </g>
      <!-- Neuropathie -->
      <g transform="translate(11.81 125.987551) scale(0.08 -0.08)">
       <defs>
        <path id="DejaVuSerif-4e" d="M 313 0 
L 313 331 
L 941 331 
L 941 4331 
L 313 4331 
L 313 4666 
L 1509 4666 
L 4306 984 
L 4306 4331 
L 3681 4331 
L 3681 4666 
L 5319 4666 
L 5319 4331 
L 4691 4331 
L 4691 -91 
L 4313 -91 
L 1325 3841 
L 1325 331 
L 1953 331 
L 1953 0 
L 313 0 
z
" transform="scale(0.015625)"/>
       </defs>
       <use xlink:href="#DejaVuSerif-4e"/>
       <use xlink:href="#DejaVuSerif-65" transform="translate(87.5 0)"/>
       <use xlink:href="#DejaVuSerif-75" transform="translate(146.679688 0)"/>
       <use xlink:href="#DejaVuSerif-72" transform="translate(211.083984 0)"/>
       <use xlink:href="#DejaVuSerif-6f" transform="translate(258.886719 0)"/>
       <use xlink:href="#DejaVuSerif-70" transform="translate(319.091797 0)"/>
       <use xlink:href="#DejaVuSerif-61" transform="translate(383.105469 0)"/>
       <use xlink:href="#DejaVuSerif-74" transform="translate(442.724609 0)"/>
       <use xlink:href="#DejaVuSerif-68" transform="translate(482.910156 0)"/>
       <use xlink:href="#DejaVuSerif-69" transform="translate(547.314453 0)"/>
       <use xlink:href="#DejaVuSerif-65" transform="translate(579.296875 0)"/>
      </g>
     </g>
    </g>
    <g id="ytick_7">
     <g id="line2d_23">
      <g>
       <use xlink:href="#me2c842f64b" x="69.89" y="80.331765" style="stroke: #000000; stroke-width: 0.8"/>
      </g>
     </g>
     <g id="text_16">
      <!-- Trigger -->
      <g transform="translate(32.37 79.443015) scale(0.08 -0.08)">
       <use xlink:href="#DejaVuSerif-54"/>
       <use xlink:href="#DejaVuSerif-72" transform="translate(66.699219 0)"/>
       <use xlink:href="#DejaVuSerif-69" transform="translate(114.501953 0)"/>
       <use xlink:href="#DejaVuSerif-67" transform="translate(146.484375 0)"/>
       <use xlink:href="#DejaVuSerif-67" transform="translate(210.498047 0)"/>
       <use xlink:href="#DejaVuSerif-65" transform="translate(274.511719 0)"/>
       <use xlink:href="#DejaVuSerif-72" transform="translate(333.691406 0)"/>
      </g>
      <!-- Finger -->
      <g transform="translate(35.9475 88.515015) scale(0.08 -0.08)">
       <defs>
        <path id="DejaVuSerif-46" d="M 353 0 
L 353 331 
L 947 331 
L 947 4331 
L 353 4331 
L 353 4666 
L 4172 4666 
L 4172 3628 
L 3788 3628 
L 3788 4281 
L 1581 4281 
L 1581 2719 
L 3175 2719 
L 3175 3303 
L 3559 3303 
L 3559 1753 
L 3175 1753 
L 3175 2338 
L 1581 2338 
L 1581 331 
L 2328 331 
L 2328 0 
L 353 0 
z
" transform="scale(0.015625)"/>
       </defs>
       <use xlink:href="#DejaVuSerif-46"/>
       <use xlink:href="#DejaVuSerif-69" transform="translate(69.384766 0)"/>
       <use xlink:href="#DejaVuSerif-6e" transform="translate(101.367188 0)"/>
       <use xlink:href="#DejaVuSerif-67" transform="translate(165.771484 0)"/>
       <use xlink:href="#DejaVuSerif-65" transform="translate(229.785156 0)"/>
       <use xlink:href="#DejaVuSerif-72" transform="translate(288.964844 0)"/>
      </g>
     </g>
    </g>
   </g>
   <g id="patch_24">
    <path d="M 69.89 333.28 
L 69.89 52.56 
" style="fill: none; stroke: #000000; stroke-width: 0.8; stroke-linejoin: miter; stroke-linecap: square"/>
   </g>
   <g id="patch_25">
    <path d="M 435.605124 333.28 
L 435.605124 52.56 
" style="fill: none; stroke: #000000; stroke-width: 0.8; stroke-linejoin: miter; stroke-linecap: square"/>
   </g>
   <g id="patch_26">
    <path d="M 69.89 333.28 
L 435.605124 333.28 
" style="fill: none; stroke: #000000; stroke-width: 0.8; stroke-linejoin: miter; stroke-linecap: square"/>
   </g>
   <g id="patch_27">
    <path d="M 69.89 52.56 
L 435.605124 52.56 
" style="fill: none; stroke: #000000; stroke-width: 0.8; stroke-linejoin: miter; stroke-linecap: square"/>
   </g>
   <g id="text_17">
    <!-- Beeinträchtigungsindizes ausgewählter Handpathologien -->
    <g transform="translate(106.820999 46.56) scale(0.1 -0.1)">
     <defs>
      <path id="DejaVuSerif-7a" d="M 256 0 
L 256 269 
L 2338 2988 
L 691 2988 
L 691 2413 
L 359 2413 
L 359 3322 
L 3078 3322 
L 3078 3053 
L 997 331 
L 2803 331 
L 2803 934 
L 3138 934 
L 3138 0 
L 256 0 
z
" transform="scale(0.015625)"/>
      <path id="DejaVuSerif-77" d="M 3072 3322 
L 3922 728 
L 4672 2988 
L 4191 2988 
L 4191 3322 
L 5394 3322 
L 5394 2988 
L 5025 2988 
L 4038 0 
L 3559 0 
L 2741 2484 
L 1919 0 
L 1459 0 
L 475 2988 
L 103 2988 
L 103 3322 
L 1606 3322 
L 1606 2988 
L 1069 2988 
L 1813 728 
L 2669 3322 
L 3072 3322 
z
" transform="scale(0.015625)"/>
      <path id="DejaVuSerif-48" d="M 353 0 
L 353 331 
L 947 331 
L 947 4331 
L 353 4331 
L 353 4666 
L 2175 4666 
L 2175 4331 
L 1581 4331 
L 1581 2719 
L 4000 2719 
L 4000 4331 
L 3406 4331 
L 3406 4666 
L 5228 4666 
L 5228 4331 
L 4634 4331 
L 4634 331 
L 5228 331 
L 5228 0 
L 3406 0 
L 3406 331 
L 4000 331 
L 4000 2338 
L 1581 2338 
L 1581 331 
L 2175 331 
L 2175 0 
L 353 0 
z
" transform="scale(0.015625)"/>
     </defs>
     <use xlink:href="#DejaVuSerif-42"/>
     <use xlink:href="#DejaVuSerif-65" transform="translate(73.486328 0)"/>
     <use xlink:href="#DejaVuSerif-65" transform="translate(132.666016 0)"/>
     <use xlink:href="#DejaVuSerif-69" transform="translate(191.845703 0)"/>
     <use xlink:href="#DejaVuSerif-6e" transform="translate(223.828125 0)"/>
     <use xlink:href="#DejaVuSerif-74" transform="translate(288.232422 0)"/>
     <use xlink:href="#DejaVuSerif-72" transform="translate(328.417969 0)"/>
     <use xlink:href="#DejaVuSerif-e4" transform="translate(376.220703 0)"/>
     <use xlink:href="#DejaVuSerif-63" transform="translate(435.839844 0)"/>
     <use xlink:href="#DejaVuSerif-68" transform="translate(491.845703 0)"/>
     <use xlink:href="#DejaVuSerif-74" transform="translate(556.25 0)"/>
     <use xlink:href="#DejaVuSerif-69" transform="translate(596.435547 0)"/>
     <use xlink:href="#DejaVuSerif-67" transform="translate(628.417969 0)"/>
     <use xlink:href="#DejaVuSerif-75" transform="translate(692.431641 0)"/>
     <use xlink:href="#DejaVuSerif-6e" transform="translate(756.835938 0)"/>
     <use xlink:href="#DejaVuSerif-67" transform="translate(821.240234 0)"/>
     <use xlink:href="#DejaVuSerif-73" transform="translate(885.253906 0)"/>
     <use xlink:href="#DejaVuSerif-69" transform="translate(936.572266 0)"/>
     <use xlink:href="#DejaVuSerif-6e" transform="translate(968.554688 0)"/>
     <use xlink:href="#DejaVuSerif-64" transform="translate(1032.958984 0)"/>
     <use xlink:href="#DejaVuSerif-69" transform="translate(1096.972656 0)"/>
     <use xlink:href="#DejaVuSerif-7a" transform="translate(1128.955078 0)"/>
     <use xlink:href="#DejaVuSerif-65" transform="translate(1181.640625 0)"/>
     <use xlink:href="#DejaVuSerif-73" transform="translate(1240.820312 0)"/>
     <use xlink:href="#DejaVuSerif-20" transform="translate(1292.138672 0)"/>
     <use xlink:href="#DejaVuSerif-61" transform="translate(1323.925781 0)"/>
     <use xlink:href="#DejaVuSerif-75" transform="translate(1383.544922 0)"/>
     <use xlink:href="#DejaVuSerif-73" transform="translate(1447.949219 0)"/>
     <use xlink:href="#DejaVuSerif-67" transform="translate(1499.267578 0)"/>
     <use xlink:href="#DejaVuSerif-65" transform="translate(1563.28125 0)"/>
     <use xlink:href="#DejaVuSerif-77" transform="translate(1622.460938 0)"/>
     <use xlink:href="#DejaVuSerif-e4" transform="translate(1708.056641 0)"/>
     <use xlink:href="#DejaVuSerif-68" transform="translate(1767.675781 0)"/>
     <use xlink:href="#DejaVuSerif-6c" transform="translate(1832.080078 0)"/>
     <use xlink:href="#DejaVuSerif-74" transform="translate(1864.0625 0)"/>
     <use xlink:href="#DejaVuSerif-65" transform="translate(1904.248047 0)"/>
     <use xlink:href="#DejaVuSerif-72" transform="translate(1963.427734 0)"/>
     <use xlink:href="#DejaVuSerif-20" transform="translate(2011.230469 0)"/>
     <use xlink:href="#DejaVuSerif-48" transform="translate(2043.017578 0)"/>
     <use xlink:href="#DejaVuSerif-61" transform="translate(2130.224609 0)"/>
     <use xlink:href="#DejaVuSerif-6e" transform="translate(2189.84375 0)"/>
     <use xlink:href="#DejaVuSerif-64" transform="translate(2254.248047 0)"/>
     <use xlink:href="#DejaVuSerif-70" transform="translate(2318.261719 0)"/>
     <use xlink:href="#DejaVuSerif-61" transform="translate(2382.275391 0)"/>
     <use xlink:href="#DejaVuSerif-74" transform="translate(2441.894531 0)"/>
     <use xlink:href="#DejaVuSerif-68" transform="translate(2482.080078 0)"/>
     <use xlink:href="#DejaVuSerif-6f" transform="translate(2546.484375 0)"/>
     <use xlink:href="#DejaVuSerif-6c" transform="translate(2606.689453 0)"/>
     <use xlink:href="#DejaVuSerif-6f" transform="translate(2638.671875 0)"/>
     <use xlink:href="#DejaVuSerif-67" transform="translate(2698.876953 0)"/>
     <use xlink:href="#DejaVuSerif-69" transform="translate(2762.890625 0)"/>
     <use xlink:href="#DejaVuSerif-65" transform="translate(2794.873047 0)"/>
     <use xlink:href="#DejaVuSerif-6e" transform="translate(2854.052734 0)"/>
    </g>
   </g>
   <g id="legend_1">
    <g id="patch_28">
     <path d="M 308.328952 92.046328 
L 430.355124 92.046328 
Q 431.855124 92.046328 431.855124 90.546328 
L 431.855124 57.81 
Q 431.855124 56.31 430.355124 56.31 
L 308.328952 56.31 
Q 306.828952 56.31 306.828952 57.81 
L 306.828952 90.546328 
Q 306.828952 92.046328 308.328952 92.046328 
z
" style="fill: #ffffff; opacity: 0.8; stroke: #cccccc; stroke-linejoin: miter"/>
    </g>
    <g id="patch_29">
     <path d="M 309.828952 65.055703 
L 324.828952 65.055703 
L 324.828952 59.805703 
L 309.828952 59.805703 
z
" style="fill: #c0392b; opacity: 0.85"/>
    </g>
    <g id="text_18">
     <!-- Direkte Beeinträchtigung -->
     <g transform="translate(330.828952 65.055703) scale(0.075 -0.075)">
      <use xlink:href="#DejaVuSerif-44"/>
      <use xlink:href="#DejaVuSerif-69" transform="translate(80.175781 0)"/>
      <use xlink:href="#DejaVuSerif-72" transform="translate(112.158203 0)"/>
      <use xlink:href="#DejaVuSerif-65" transform="translate(159.960938 0)"/>
      <use xlink:href="#DejaVuSerif-6b" transform="translate(219.140625 0)"/>
      <use xlink:href="#DejaVuSerif-74" transform="translate(279.736328 0)"/>
      <use xlink:href="#DejaVuSerif-65" transform="translate(319.921875 0)"/>
      <use xlink:href="#DejaVuSerif-20" transform="translate(379.101562 0)"/>
      <use xlink:href="#DejaVuSerif-42" transform="translate(410.888672 0)"/>
      <use xlink:href="#DejaVuSerif-65" transform="translate(484.375 0)"/>
      <use xlink:href="#DejaVuSerif-65" transform="translate(543.554688 0)"/>
      <use xlink:href="#DejaVuSerif-69" transform="translate(602.734375 0)"/>
      <use xlink:href="#DejaVuSerif-6e" transform="translate(634.716797 0)"/>
      <use xlink:href="#DejaVuSerif-74" transform="translate(699.121094 0)"/>
      <use xlink:href="#DejaVuSerif-72" transform="translate(739.306641 0)"/>
      <use xlink:href="#DejaVuSerif-e4" transform="translate(787.109375 0)"/>
      <use xlink:href="#DejaVuSerif-63" transform="translate(846.728516 0)"/>
      <use xlink:href="#DejaVuSerif-68" transform="translate(902.734375 0)"/>
      <use xlink:href="#DejaVuSerif-74" transform="translate(967.138672 0)"/>
      <use xlink:href="#DejaVuSerif-69" transform="translate(1007.324219 0)"/>
      <use xlink:href="#DejaVuSerif-67" transform="translate(1039.306641 0)"/>
      <use xlink:href="#DejaVuSerif-75" transform="translate(1103.320312 0)"/>
      <use xlink:href="#DejaVuSerif-6e" transform="translate(1167.724609 0)"/>
      <use xlink:href="#DejaVuSerif-67" transform="translate(1232.128906 0)"/>
     </g>
    </g>
    <g id="patch_30">
     <path d="M 309.828952 76.217812 
L 324.828952 76.217812 
L 324.828952 70.967812 
L 309.828952 70.967812 
z
" style="fill: #e67e22; opacity: 0.85"/>
    </g>
    <g id="text_19">
     <!-- Neuronale Sekundärfolge -->
     <g transform="translate(330.828952 76.217812) scale(0.075 -0.075)">
      <defs>
       <path id="DejaVuSerif-53" d="M 594 225 
L 594 1288 
L 953 1284 
Q 969 753 1261 498 
Q 1553 244 2150 244 
Q 2706 244 2998 464 
Q 3291 684 3291 1106 
Q 3291 1444 3114 1625 
Q 2938 1806 2369 1978 
L 1753 2163 
Q 1084 2366 811 2669 
Q 538 2972 538 3500 
Q 538 4094 959 4422 
Q 1381 4750 2144 4750 
Q 2469 4750 2856 4679 
Q 3244 4609 3681 4475 
L 3681 3481 
L 3328 3481 
Q 3275 3975 2998 4195 
Q 2722 4416 2156 4416 
Q 1663 4416 1405 4214 
Q 1147 4013 1147 3628 
Q 1147 3294 1340 3103 
Q 1534 2913 2163 2725 
L 2741 2553 
Q 3375 2363 3645 2067 
Q 3916 1772 3916 1275 
Q 3916 597 3481 253 
Q 3047 -91 2188 -91 
Q 1803 -91 1404 -12 
Q 1006 66 594 225 
z
" transform="scale(0.015625)"/>
       <path id="DejaVuSerif-66" d="M 2753 4078 
L 2450 4078 
Q 2447 4313 2317 4434 
Q 2188 4556 1941 4556 
Q 1619 4556 1487 4379 
Q 1356 4203 1356 3750 
L 1356 3322 
L 2284 3322 
L 2284 2988 
L 1356 2988 
L 1356 331 
L 2094 331 
L 2094 0 
L 231 0 
L 231 331 
L 781 331 
L 781 2988 
L 231 2988 
L 231 3322 
L 781 3322 
L 781 3738 
Q 781 4294 1070 4578 
Q 1359 4863 1919 4863 
Q 2128 4863 2337 4825 
Q 2547 4788 2753 4709 
L 2753 4078 
z
" transform="scale(0.015625)"/>
      </defs>
      <use xlink:href="#DejaVuSerif-4e"/>
      <use xlink:href="#DejaVuSerif-65" transform="translate(87.5 0)"/>
      <use xlink:href="#DejaVuSerif-75" transform="translate(146.679688 0)"/>
      <use xlink:href="#DejaVuSerif-72" transform="translate(211.083984 0)"/>
      <use xlink:href="#DejaVuSerif-6f" transform="translate(258.886719 0)"/>
      <use xlink:href="#DejaVuSerif-6e" transform="translate(319.091797 0)"/>
      <use xlink:href="#DejaVuSerif-61" transform="translate(383.496094 0)"/>
      <use xlink:href="#DejaVuSerif-6c" transform="translate(443.115234 0)"/>
      <use xlink:href="#DejaVuSerif-65" transform="translate(475.097656 0)"/>
      <use xlink:href="#DejaVuSerif-20" transform="translate(534.277344 0)"/>
      <use xlink:href="#DejaVuSerif-53" transform="translate(566.064453 0)"/>
      <use xlink:href="#DejaVuSerif-65" transform="translate(634.570312 0)"/>
      <use xlink:href="#DejaVuSerif-6b" transform="translate(693.75 0)"/>
      <use xlink:href="#DejaVuSerif-75" transform="translate(754.345703 0)"/>
      <use xlink:href="#DejaVuSerif-6e" transform="translate(818.75 0)"/>
      <use xlink:href="#DejaVuSerif-64" transform="translate(883.154297 0)"/>
      <use xlink:href="#DejaVuSerif-e4" transform="translate(947.167969 0)"/>
      <use xlink:href="#DejaVuSerif-72" transform="translate(1006.787109 0)"/>
      <use xlink:href="#DejaVuSerif-66" transform="translate(1054.589844 0)"/>
      <use xlink:href="#DejaVuSerif-6f" transform="translate(1091.601562 0)"/>
      <use xlink:href="#DejaVuSerif-6c" transform="translate(1151.806641 0)"/>
      <use xlink:href="#DejaVuSerif-67" transform="translate(1183.789062 0)"/>
      <use xlink:href="#DejaVuSerif-65" transform="translate(1247.802734 0)"/>
     </g>
    </g>
    <g id="patch_31">
     <path d="M 309.828952 87.379922 
L 324.828952 87.379922 
L 324.828952 82.129922 
L 309.828952 82.129922 
z
" style="fill: #8e44ad; opacity: 0.85"/>
    </g>
    <g id="text_20">
     <!-- Kognitive Tertiärfolge -->
     <g transform="translate(330.828952 87.379922) scale(0.075 -0.075)">
      <defs>
       <path id="DejaVuSerif-76" d="M 1581 0 
L 359 2988 
L -19 2988 
L -19 3322 
L 1509 3322 
L 1509 2988 
L 978 2988 
L 1913 703 
L 2847 2988 
L 2350 2988 
L 2350 3322 
L 3597 3322 
L 3597 2988 
L 3225 2988 
L 2003 0 
L 1581 0 
z
" transform="scale(0.015625)"/>
      </defs>
      <use xlink:href="#DejaVuSerif-4b"/>
      <use xlink:href="#DejaVuSerif-6f" transform="translate(72.082031 0)"/>
      <use xlink:href="#DejaVuSerif-67" transform="translate(132.287109 0)"/>
      <use xlink:href="#DejaVuSerif-6e" transform="translate(196.300781 0)"/>
      <use xlink:href="#DejaVuSerif-69" transform="translate(260.705078 0)"/>
      <use xlink:href="#DejaVuSerif-74" transform="translate(292.6875 0)"/>
      <use xlink:href="#DejaVuSerif-69" transform="translate(332.873047 0)"/>
      <use xlink:href="#DejaVuSerif-76" transform="translate(364.855469 0)"/>
      <use xlink:href="#DejaVuSerif-65" transform="translate(421.349609 0)"/>
      <use xlink:href="#DejaVuSerif-20" transform="translate(480.529297 0)"/>
      <use xlink:href="#DejaVuSerif-54" transform="translate(512.316406 0)"/>
      <use xlink:href="#DejaVuSerif-65" transform="translate(571.265625 0)"/>
      <use xlink:href="#DejaVuSerif-72" transform="translate(630.445312 0)"/>
      <use xlink:href="#DejaVuSerif-74" transform="translate(678.248047 0)"/>
      <use xlink:href="#DejaVuSerif-69" transform="translate(718.433594 0)"/>
      <use xlink:href="#DejaVuSerif-e4" transform="translate(750.416016 0)"/>
      <use xlink:href="#DejaVuSerif-72" transform="translate(810.035156 0)"/>
      <use xlink:href="#DejaVuSerif-66" transform="translate(857.837891 0)"/>
      <use xlink:href="#DejaVuSerif-6f" transform="translate(894.849609 0)"/>
      <use xlink:href="#DejaVuSerif-6c" transform="translate(955.054688 0)"/>
      <use xlink:href="#DejaVuSerif-67" transform="translate(987.037109 0)"/>
      <use xlink:href="#DejaVuSerif-65" transform="translate(1051.050781 0)"/>
     </g>
    </g>
   </g>
  </g>
  <g id="axes_2">
   <g id="patch_32">
    <path d="M 470.065124 333.28 
L 835.780248 333.28 
L 835.780248 52.56 
L 470.065124 52.56 
z
" style="fill: #ffffff"/>
   </g>
   <g id="matplotlib.axis_3">
    <g id="xtick_9">
     <g id="line2d_24">
      <path d="M 486.688539 333.28 
L 486.688539 52.56 
" clip-path="url(#p84c785b9d2)" style="fill: none; stroke: #b0b0b0; stroke-opacity: 0.3; stroke-width: 0.8; stroke-linecap: square"/>
     </g>
     <g id="line2d_25">
      <g>
       <use xlink:href="#m0e0a48d867" x="486.688539" y="333.28" style="stroke: #000000; stroke-width: 0.8"/>
      </g>
     </g>
     <g id="text_21">
      <!-- 0 -->
      <g transform="translate(484.143539 346.35875) scale(0.08 -0.08)">
       <use xlink:href="#DejaVuSerif-30"/>
      </g>
     </g>
    </g>
    <g id="xtick_10">
     <g id="line2d_26">
      <path d="M 555.952767 333.28 
L 555.952767 52.56 
" clip-path="url(#p84c785b9d2)" style="fill: none; stroke: #b0b0b0; stroke-opacity: 0.3; stroke-width: 0.8; stroke-linecap: square"/>
     </g>
     <g id="line2d_27">
      <g>
       <use xlink:href="#m0e0a48d867" x="555.952767" y="333.28" style="stroke: #000000; stroke-width: 0.8"/>
      </g>
     </g>
     <g id="text_22">
      <!-- 5 -->
      <g transform="translate(553.407767 346.35875) scale(0.08 -0.08)">
       <use xlink:href="#DejaVuSerif-35"/>
      </g>
     </g>
    </g>
    <g id="xtick_11">
     <g id="line2d_28">
      <path d="M 625.216995 333.28 
L 625.216995 52.56 
" clip-path="url(#p84c785b9d2)" style="fill: none; stroke: #b0b0b0; stroke-opacity: 0.3; stroke-width: 0.8; stroke-linecap: square"/>
     </g>
     <g id="line2d_29">
      <g>
       <use xlink:href="#m0e0a48d867" x="625.216995" y="333.28" style="stroke: #000000; stroke-width: 0.8"/>
      </g>
     </g>
     <g id="text_23">
      <!-- 10 -->
      <g transform="translate(620.126995 346.35875) scale(0.08 -0.08)">
       <use xlink:href="#DejaVuSerif-31"/>
       <use xlink:href="#DejaVuSerif-30" transform="translate(63.623047 0)"/>
      </g>
     </g>
    </g>
    <g id="xtick_12">
     <g id="line2d_30">
      <path d="M 694.481223 333.28 
L 694.481223 52.56 
" clip-path="url(#p84c785b9d2)" style="fill: none; stroke: #b0b0b0; stroke-opacity: 0.3; stroke-width: 0.8; stroke-linecap: square"/>
     </g>
     <g id="line2d_31">
      <g>
       <use xlink:href="#m0e0a48d867" x="694.481223" y="333.28" style="stroke: #000000; stroke-width: 0.8"/>
      </g>
     </g>
     <g id="text_24">
      <!-- 15 -->
      <g transform="translate(689.391223 346.35875) scale(0.08 -0.08)">
       <use xlink:href="#DejaVuSerif-31"/>
       <use xlink:href="#DejaVuSerif-35" transform="translate(63.623047 0)"/>
      </g>
     </g>
    </g>
    <g id="xtick_13">
     <g id="line2d_32">
      <path d="M 763.745451 333.28 
L 763.745451 52.56 
" clip-path="url(#p84c785b9d2)" style="fill: none; stroke: #b0b0b0; stroke-opacity: 0.3; stroke-width: 0.8; stroke-linecap: square"/>
     </g>
     <g id="line2d_33">
      <g>
       <use xlink:href="#m0e0a48d867" x="763.745451" y="333.28" style="stroke: #000000; stroke-width: 0.8"/>
      </g>
     </g>
     <g id="text_25">
      <!-- 20 -->
      <g transform="translate(758.655451 346.35875) scale(0.08 -0.08)">
       <use xlink:href="#DejaVuSerif-32"/>
       <use xlink:href="#DejaVuSerif-30" transform="translate(63.623047 0)"/>
      </g>
     </g>
    </g>
    <g id="xtick_14">
     <g id="line2d_34">
      <path d="M 833.009679 333.28 
L 833.009679 52.56 
" clip-path="url(#p84c785b9d2)" style="fill: none; stroke: #b0b0b0; stroke-opacity: 0.3; stroke-width: 0.8; stroke-linecap: square"/>
     </g>
     <g id="line2d_35">
      <g>
       <use xlink:href="#m0e0a48d867" x="833.009679" y="333.28" style="stroke: #000000; stroke-width: 0.8"/>
      </g>
     </g>
     <g id="text_26">
      <!-- 25 -->
      <g transform="translate(827.919679 346.35875) scale(0.08 -0.08)">
       <use xlink:href="#DejaVuSerif-32"/>
       <use xlink:href="#DejaVuSerif-35" transform="translate(63.623047 0)"/>
      </g>
     </g>
    </g>
    <g id="text_27">
     <!-- Zeit [Monate] -->
     <g transform="translate(621.573155 358.861094) scale(0.09 -0.09)">
      <defs>
       <path id="DejaVuSerif-5a" d="M 288 0 
L 288 225 
L 3194 4281 
L 781 4281 
L 781 3584 
L 397 3584 
L 397 4666 
L 4084 4666 
L 4084 4441 
L 1178 384 
L 3816 384 
L 3816 1038 
L 4197 1038 
L 4197 0 
L 288 0 
z
" transform="scale(0.015625)"/>
       <path id="DejaVuSerif-4d" d="M 353 0 
L 353 331 
L 947 331 
L 947 4331 
L 319 4331 
L 319 4666 
L 1678 4666 
L 3316 1344 
L 4953 4666 
L 6228 4666 
L 6228 4331 
L 5606 4331 
L 5606 331 
L 6203 331 
L 6203 0 
L 4378 0 
L 4378 331 
L 4972 331 
L 4972 3938 
L 3372 684 
L 2931 684 
L 1331 3938 
L 1331 331 
L 1925 331 
L 1925 0 
L 353 0 
z
" transform="scale(0.015625)"/>
      </defs>
      <use xlink:href="#DejaVuSerif-5a"/>
      <use xlink:href="#DejaVuSerif-65" transform="translate(69.482422 0)"/>
      <use xlink:href="#DejaVuSerif-69" transform="translate(128.662109 0)"/>
      <use xlink:href="#DejaVuSerif-74" transform="translate(160.644531 0)"/>
      <use xlink:href="#DejaVuSerif-20" transform="translate(200.830078 0)"/>
      <use xlink:href="#DejaVuSerif-5b" transform="translate(232.617188 0)"/>
      <use xlink:href="#DejaVuSerif-4d" transform="translate(271.630859 0)"/>
      <use xlink:href="#DejaVuSerif-6f" transform="translate(374.023438 0)"/>
      <use xlink:href="#DejaVuSerif-6e" transform="translate(434.228516 0)"/>
      <use xlink:href="#DejaVuSerif-61" transform="translate(498.632812 0)"/>
      <use xlink:href="#DejaVuSerif-74" transform="translate(558.251953 0)"/>
      <use xlink:href="#DejaVuSerif-65" transform="translate(598.4375 0)"/>
      <use xlink:href="#DejaVuSerif-5d" transform="translate(657.617188 0)"/>
     </g>
    </g>
   </g>
   <g id="matplotlib.axis_4">
    <g id="ytick_8">
     <g id="line2d_36">
      <path d="M 470.065124 320.52 
L 835.780248 320.52 
" clip-path="url(#p84c785b9d2)" style="fill: none; stroke: #b0b0b0; stroke-opacity: 0.3; stroke-width: 0.8; stroke-linecap: square"/>
     </g>
     <g id="line2d_37">
      <g>
       <use xlink:href="#me2c842f64b" x="470.065124" y="320.52" style="stroke: #000000; stroke-width: 0.8"/>
      </g>
     </g>
     <g id="text_28">
      <!-- 0 -->
      <g transform="translate(457.975124 323.559375) scale(0.08 -0.08)">
       <use xlink:href="#DejaVuSerif-30"/>
      </g>
     </g>
    </g>
    <g id="ytick_9">
     <g id="line2d_38">
      <path d="M 470.065124 261.637237 
L 835.780248 261.637237 
" clip-path="url(#p84c785b9d2)" style="fill: none; stroke: #b0b0b0; stroke-opacity: 0.3; stroke-width: 0.8; stroke-linecap: square"/>
     </g>
     <g id="line2d_39">
      <g>
       <use xlink:href="#me2c842f64b" x="470.065124" y="261.637237" style="stroke: #000000; stroke-width: 0.8"/>
      </g>
     </g>
     <g id="text_29">
      <!-- 2 -->
      <g transform="translate(457.975124 264.676612) scale(0.08 -0.08)">
       <use xlink:href="#DejaVuSerif-32"/>
      </g>
     </g>
    </g>
    <g id="ytick_10">
     <g id="line2d_40">
      <path d="M 470.065124 202.754474 
L 835.780248 202.754474 
" clip-path="url(#p84c785b9d2)" style="fill: none; stroke: #b0b0b0; stroke-opacity: 0.3; stroke-width: 0.8; stroke-linecap: square"/>
     </g>
     <g id="line2d_41">
      <g>
       <use xlink:href="#me2c842f64b" x="470.065124" y="202.754474" style="stroke: #000000; stroke-width: 0.8"/>
      </g>
     </g>
     <g id="text_30">
      <!-- 4 -->
      <g transform="translate(457.975124 205.793849) scale(0.08 -0.08)">
       <defs>
        <path id="DejaVuSerif-34" d="M 2234 1581 
L 2234 4063 
L 641 1581 
L 2234 1581 
z
M 3609 0 
L 1484 0 
L 1484 331 
L 2234 331 
L 2234 1247 
L 197 1247 
L 197 1588 
L 2241 4750 
L 2859 4750 
L 2859 1581 
L 3750 1581 
L 3750 1247 
L 2859 1247 
L 2859 331 
L 3609 331 
L 3609 0 
z
" transform="scale(0.015625)"/>
       </defs>
       <use xlink:href="#DejaVuSerif-34"/>
      </g>
     </g>
    </g>
    <g id="ytick_11">
     <g id="line2d_42">
      <path d="M 470.065124 143.871712 
L 835.780248 143.871712 
" clip-path="url(#p84c785b9d2)" style="fill: none; stroke: #b0b0b0; stroke-opacity: 0.3; stroke-width: 0.8; stroke-linecap: square"/>
     </g>
     <g id="line2d_43">
      <g>
       <use xlink:href="#me2c842f64b" x="470.065124" y="143.871712" style="stroke: #000000; stroke-width: 0.8"/>
      </g>
     </g>
     <g id="text_31">
      <!-- 6 -->
      <g transform="translate(457.975124 146.911087) scale(0.08 -0.08)">
       <defs>
        <path id="DejaVuSerif-36" d="M 2094 219 
Q 2534 219 2771 542 
Q 3009 866 3009 1472 
Q 3009 2078 2771 2401 
Q 2534 2725 2094 2725 
Q 1647 2725 1412 2412 
Q 1178 2100 1178 1509 
Q 1178 888 1415 553 
Q 1653 219 2094 219 
z
M 1075 2569 
Q 1288 2803 1556 2918 
Q 1825 3034 2163 3034 
Q 2859 3034 3264 2615 
Q 3669 2197 3669 1472 
Q 3669 763 3233 336 
Q 2797 -91 2069 -91 
Q 1278 -91 853 498 
Q 428 1088 428 2181 
Q 428 3406 931 4078 
Q 1434 4750 2350 4750 
Q 2597 4750 2869 4703 
Q 3141 4656 3425 4563 
L 3425 3794 
L 3072 3794 
Q 3034 4109 2831 4275 
Q 2628 4441 2284 4441 
Q 1678 4441 1381 3981 
Q 1084 3522 1075 2569 
z
" transform="scale(0.015625)"/>
       </defs>
       <use xlink:href="#DejaVuSerif-36"/>
      </g>
     </g>
    </g>
    <g id="ytick_12">
     <g id="line2d_44">
      <path d="M 470.065124 84.988949 
L 835.780248 84.988949 
" clip-path="url(#p84c785b9d2)" style="fill: none; stroke: #b0b0b0; stroke-opacity: 0.3; stroke-width: 0.8; stroke-linecap: square"/>
     </g>
     <g id="line2d_45">
      <g>
       <use xlink:href="#me2c842f64b" x="470.065124" y="84.988949" style="stroke: #000000; stroke-width: 0.8"/>
      </g>
     </g>
     <g id="text_32">
      <!-- 8 -->
      <g transform="translate(457.975124 88.028324) scale(0.08 -0.08)">
       <defs>
        <path id="DejaVuSerif-38" d="M 2981 1275 
Q 2981 1775 2732 2051 
Q 2484 2328 2034 2328 
Q 1584 2328 1336 2051 
Q 1088 1775 1088 1275 
Q 1088 772 1336 495 
Q 1584 219 2034 219 
Q 2484 219 2732 495 
Q 2981 772 2981 1275 
z
M 2853 3541 
Q 2853 3966 2637 4203 
Q 2422 4441 2034 4441 
Q 1650 4441 1433 4203 
Q 1216 3966 1216 3541 
Q 1216 3113 1433 2875 
Q 1650 2638 2034 2638 
Q 2422 2638 2637 2875 
Q 2853 3113 2853 3541 
z
M 2516 2484 
Q 3047 2413 3344 2092 
Q 3641 1772 3641 1275 
Q 3641 619 3225 264 
Q 2809 -91 2034 -91 
Q 1263 -91 845 264 
Q 428 619 428 1275 
Q 428 1772 725 2092 
Q 1022 2413 1556 2484 
Q 1084 2569 832 2842 
Q 581 3116 581 3541 
Q 581 4103 968 4426 
Q 1356 4750 2034 4750 
Q 2713 4750 3100 4426 
Q 3488 4103 3488 3541 
Q 3488 3116 3236 2842 
Q 2984 2569 2516 2484 
z
" transform="scale(0.015625)"/>
       </defs>
       <use xlink:href="#DejaVuSerif-38"/>
      </g>
     </g>
    </g>
    <g id="text_33">
     <!-- Kumulativer Neuropathieindex [a.u.] -->
     <g transform="translate(452.103405 276.936406) rotate(-90) scale(0.09 -0.09)">
      <use xlink:href="#DejaVuSerif-4b"/>
      <use xlink:href="#DejaVuSerif-75" transform="translate(72.457031 0)"/>
      <use xlink:href="#DejaVuSerif-6d" transform="translate(136.861328 0)"/>
      <use xlink:href="#DejaVuSerif-75" transform="translate(231.685547 0)"/>
      <use xlink:href="#DejaVuSerif-6c" transform="translate(296.089844 0)"/>
      <use xlink:href="#DejaVuSerif-61" transform="translate(328.072266 0)"/>
      <use xlink:href="#DejaVuSerif-74" transform="translate(387.691406 0)"/>
      <use xlink:href="#DejaVuSerif-69" transform="translate(427.876953 0)"/>
      <use xlink:href="#DejaVuSerif-76" transform="translate(459.859375 0)"/>
      <use xlink:href="#DejaVuSerif-65" transform="translate(516.353516 0)"/>
      <use xlink:href="#DejaVuSerif-72" transform="translate(575.533203 0)"/>
      <use xlink:href="#DejaVuSerif-20" transform="translate(623.335938 0)"/>
      <use xlink:href="#DejaVuSerif-4e" transform="translate(655.123047 0)"/>
      <use xlink:href="#DejaVuSerif-65" transform="translate(742.623047 0)"/>
      <use xlink:href="#DejaVuSerif-75" transform="translate(801.802734 0)"/>
      <use xlink:href="#DejaVuSerif-72" transform="translate(866.207031 0)"/>
      <use xlink:href="#DejaVuSerif-6f" transform="translate(914.009766 0)"/>
      <use xlink:href="#DejaVuSerif-70" transform="translate(974.214844 0)"/>
      <use xlink:href="#DejaVuSerif-61" transform="translate(1038.228516 0)"/>
      <use xlink:href="#DejaVuSerif-74" transform="translate(1097.847656 0)"/>
      <use xlink:href="#DejaVuSerif-68" transform="translate(1138.033203 0)"/>
      <use xlink:href="#DejaVuSerif-69" transform="translate(1202.4375 0)"/>
      <use xlink:href="#DejaVuSerif-65" transform="translate(1234.419922 0)"/>
      <use xlink:href="#DejaVuSerif-69" transform="translate(1293.599609 0)"/>
      <use xlink:href="#DejaVuSerif-6e" transform="translate(1325.582031 0)"/>
      <use xlink:href="#DejaVuSerif-64" transform="translate(1389.986328 0)"/>
      <use xlink:href="#DejaVuSerif-65" transform="translate(1454 0)"/>
      <use xlink:href="#DejaVuSerif-78" transform="translate(1513.179688 0)"/>
      <use xlink:href="#DejaVuSerif-20" transform="translate(1569.576172 0)"/>
      <use xlink:href="#DejaVuSerif-5b" transform="translate(1601.363281 0)"/>
      <use xlink:href="#DejaVuSerif-61" transform="translate(1640.376953 0)"/>
      <use xlink:href="#DejaVuSerif-2e" transform="translate(1699.996094 0)"/>
      <use xlink:href="#DejaVuSerif-75" transform="translate(1731.783203 0)"/>
      <use xlink:href="#DejaVuSerif-2e" transform="translate(1796.1875 0)"/>
      <use xlink:href="#DejaVuSerif-5d" transform="translate(1827.974609 0)"/>
     </g>
    </g>
   </g>
   <g id="line2d_46">
    <path d="M 486.688539 320.52 
L 500.599346 314.485916 
L 514.510153 308.19956 
L 527.02988 302.313344 
L 539.549606 296.198344 
L 552.069333 289.842087 
L 564.58906 283.231491 
L 577.108786 276.352839 
L 588.237432 270.001834 
L 599.366078 263.417115 
L 610.494724 256.587667 
L 621.62337 249.502008 
L 632.752015 242.148164 
L 643.880661 234.513653 
L 655.009307 226.585465 
L 666.137953 218.350039 
L 675.875518 210.880912 
L 685.613083 203.155902 
L 695.350648 195.164806 
L 705.088213 186.897047 
L 714.825778 178.341661 
L 724.563344 169.487285 
L 734.300909 160.322141 
L 744.038474 150.834022 
L 753.776039 141.010279 
L 763.513604 130.837802 
L 773.251169 120.303007 
L 782.988734 109.391821 
L 791.335219 99.728758 
L 799.681703 89.768967 
L 808.028187 79.502666 
L 816.374672 68.919772 
L 819.156833 65.32 
L 819.156833 65.32 
" clip-path="url(#p84c785b9d2)" style="fill: none; stroke: #c0392b; stroke-width: 2; stroke-linecap: square"/>
   </g>
   <g id="line2d_47">
    <path d="M 486.688539 320.52 
L 510.336911 313.87666 
L 533.985284 307.004625 
L 556.242575 300.314531 
L 578.499867 293.395441 
L 600.757159 286.233465 
L 621.62337 279.285511 
L 642.48958 272.098523 
L 661.964711 265.163249 
L 681.439841 257.996764 
L 700.914971 250.587164 
L 718.999021 243.478252 
L 737.08307 236.138555 
L 755.16712 228.557199 
L 773.251169 220.722846 
L 789.944138 213.256361 
L 806.637107 205.554548 
L 819.156833 199.617714 
L 819.156833 199.617714 
" clip-path="url(#p84c785b9d2)" style="fill: none; stroke: #e67e22; stroke-width: 1.8; stroke-linecap: square"/>
   </g>
   <g id="line2d_48">
    <path d="M 486.688539 320.52 
L 546.50501 312.78015 
L 604.930401 304.994234 
L 660.57363 297.358074 
L 714.825778 289.692447 
L 767.686846 282.001725 
L 819.156833 274.291155 
L 819.156833 274.291155 
" clip-path="url(#p84c785b9d2)" style="fill: none; stroke: #1a4e8a; stroke-width: 1.8; stroke-linecap: square"/>
   </g>
   <g id="line2d_49">
    <path d="M 486.688539 320.52 
L 584.06419 311.096117 
L 678.657679 301.721331 
L 771.860088 292.261097 
L 819.156833 287.371982 
L 819.156833 287.371982 
" clip-path="url(#p84c785b9d2)" style="fill: none; stroke-dasharray: 7.4,3.2; stroke-dashoffset: 0; stroke: #27ae60; stroke-width: 2"/>
   </g>
   <g id="patch_33">
    <path d="M 470.065124 333.28 
L 470.065124 52.56 
" style="fill: none; stroke: #000000; stroke-width: 0.8; stroke-linejoin: miter; stroke-linecap: square"/>
   </g>
   <g id="patch_34">
    <path d="M 835.780248 333.28 
L 835.780248 52.56 
" style="fill: none; stroke: #000000; stroke-width: 0.8; stroke-linejoin: miter; stroke-linecap: square"/>
   </g>
   <g id="patch_35">
    <path d="M 470.065124 333.28 
L 835.780248 333.28 
" style="fill: none; stroke: #000000; stroke-width: 0.8; stroke-linejoin: miter; stroke-linecap: square"/>
   </g>
   <g id="patch_36">
    <path d="M 470.065124 52.56 
L 835.780248 52.56 
" style="fill: none; stroke: #000000; stroke-width: 0.8; stroke-linejoin: miter; stroke-linecap: square"/>
   </g>
   <g id="patch_37">
    <path d="M 819.156833 68.999503 
Q 819.156833 176.348305 819.156833 283.697106 
" style="fill: none; stroke: #27ae60; stroke-width: 1.5; stroke-linecap: round"/>
    <path d="M 817.356833 72.599503 
L 819.156833 68.999503 
L 820.956833 72.599503 
" style="fill: none; stroke: #27ae60; stroke-width: 1.5; stroke-linecap: round"/>
    <path d="M 820.956833 280.097106 
L 819.156833 283.697106 
L 817.356833 280.097106 
" style="fill: none; stroke: #27ae60; stroke-width: 1.5; stroke-linecap: round"/>
   </g>
   <g id="text_34">
    <!-- −87% -->
    <g style="fill: #27ae60" transform="translate(826.083256 178.553491) scale(0.08 -0.08)">
     <defs>
      <path id="DejaVuSerif-2212" d="M 678 2259 
L 4684 2259 
L 4684 1753 
L 678 1753 
L 678 2259 
z
" transform="scale(0.015625)"/>
      <path id="DejaVuSerif-25" d="M 1434 4459 
Q 1159 4459 1004 4200 
Q 850 3941 850 3475 
Q 850 3016 1008 2753 
Q 1166 2491 1434 2491 
Q 1700 2491 1854 2752 
Q 2009 3013 2009 3475 
Q 2009 3938 1854 4198 
Q 1700 4459 1434 4459 
z
M 4653 2169 
Q 4381 2169 4226 1906 
Q 4072 1644 4072 1178 
Q 4072 719 4228 458 
Q 4384 197 4653 197 
Q 4922 197 5075 458 
Q 5228 719 5228 1178 
Q 5228 1641 5073 1905 
Q 4919 2169 4653 2169 
z
M 4653 2450 
Q 5147 2450 5437 2106 
Q 5728 1763 5728 1178 
Q 5728 594 5436 251 
Q 5144 -91 4653 -91 
Q 4153 -91 3862 251 
Q 3572 594 3572 1178 
Q 3572 1766 3864 2108 
Q 4156 2450 4653 2450 
z
M 4263 4750 
L 4738 4750 
L 1819 -91 
L 1344 -91 
L 4263 4750 
z
M 1428 4750 
Q 1922 4750 2215 4408 
Q 2509 4066 2509 3481 
Q 2509 2891 2217 2550 
Q 1925 2209 1428 2209 
Q 931 2209 642 2551 
Q 353 2894 353 3481 
Q 353 4063 643 4406 
Q 934 4750 1428 4750 
z
" transform="scale(0.015625)"/>
     </defs>
     <use xlink:href="#DejaVuSerif-2212"/>
     <use xlink:href="#DejaVuSerif-38" transform="translate(83.789062 0)"/>
     <use xlink:href="#DejaVuSerif-37" transform="translate(147.412109 0)"/>
     <use xlink:href="#DejaVuSerif-25" transform="translate(211.035156 0)"/>
    </g>
   </g>
   <g id="text_35">
    <!-- Progression des Neuropathieindex unter verschiedenen Strategien -->
    <g transform="translate(482.820342 46.56) scale(0.1 -0.1)">
     <use xlink:href="#DejaVuSerif-50"/>
     <use xlink:href="#DejaVuSerif-72" transform="translate(67.285156 0)"/>
     <use xlink:href="#DejaVuSerif-6f" transform="translate(115.087891 0)"/>
     <use xlink:href="#DejaVuSerif-67" transform="translate(175.292969 0)"/>
     <use xlink:href="#DejaVuSerif-72" transform="translate(239.306641 0)"/>
     <use xlink:href="#DejaVuSerif-65" transform="translate(287.109375 0)"/>
     <use xlink:href="#DejaVuSerif-73" transform="translate(346.289062 0)"/>
     <use xlink:href="#DejaVuSerif-73" transform="translate(397.607422 0)"/>
     <use xlink:href="#DejaVuSerif-69" transform="translate(448.925781 0)"/>
     <use xlink:href="#DejaVuSerif-6f" transform="translate(480.908203 0)"/>
     <use xlink:href="#DejaVuSerif-6e" transform="translate(541.113281 0)"/>
     <use xlink:href="#DejaVuSerif-20" transform="translate(605.517578 0)"/>
     <use xlink:href="#DejaVuSerif-64" transform="translate(637.304688 0)"/>
     <use xlink:href="#DejaVuSerif-65" transform="translate(701.318359 0)"/>
     <use xlink:href="#DejaVuSerif-73" transform="translate(760.498047 0)"/>
     <use xlink:href="#DejaVuSerif-20" transform="translate(811.816406 0)"/>
     <use xlink:href="#DejaVuSerif-4e" transform="translate(843.603516 0)"/>
     <use xlink:href="#DejaVuSerif-65" transform="translate(931.103516 0)"/>
     <use xlink:href="#DejaVuSerif-75" transform="translate(990.283203 0)"/>
     <use xlink:href="#DejaVuSerif-72" transform="translate(1054.6875 0)"/>
     <use xlink:href="#DejaVuSerif-6f" transform="translate(1102.490234 0)"/>
     <use xlink:href="#DejaVuSerif-70" transform="translate(1162.695312 0)"/>
     <use xlink:href="#DejaVuSerif-61" transform="translate(1226.708984 0)"/>
     <use xlink:href="#DejaVuSerif-74" transform="translate(1286.328125 0)"/>
     <use xlink:href="#DejaVuSerif-68" transform="translate(1326.513672 0)"/>
     <use xlink:href="#DejaVuSerif-69" transform="translate(1390.917969 0)"/>
     <use xlink:href="#DejaVuSerif-65" transform="translate(1422.900391 0)"/>
     <use xlink:href="#DejaVuSerif-69" transform="translate(1482.080078 0)"/>
     <use xlink:href="#DejaVuSerif-6e" transform="translate(1514.0625 0)"/>
     <use xlink:href="#DejaVuSerif-64" transform="translate(1578.466797 0)"/>
     <use xlink:href="#DejaVuSerif-65" transform="translate(1642.480469 0)"/>
     <use xlink:href="#DejaVuSerif-78" transform="translate(1701.660156 0)"/>
     <use xlink:href="#DejaVuSerif-20" transform="translate(1758.056641 0)"/>
     <use xlink:href="#DejaVuSerif-75" transform="translate(1789.84375 0)"/>
     <use xlink:href="#DejaVuSerif-6e" transform="translate(1854.248047 0)"/>
     <use xlink:href="#DejaVuSerif-74" transform="translate(1918.652344 0)"/>
     <use xlink:href="#DejaVuSerif-65" transform="translate(1958.837891 0)"/>
     <use xlink:href="#DejaVuSerif-72" transform="translate(2018.017578 0)"/>
     <use xlink:href="#DejaVuSerif-20" transform="translate(2065.820312 0)"/>
     <use xlink:href="#DejaVuSerif-76" transform="translate(2097.607422 0)"/>
     <use xlink:href="#DejaVuSerif-65" transform="translate(2154.101562 0)"/>
     <use xlink:href="#DejaVuSerif-72" transform="translate(2213.28125 0)"/>
     <use xlink:href="#DejaVuSerif-73" transform="translate(2261.083984 0)"/>
     <use xlink:href="#DejaVuSerif-63" transform="translate(2312.402344 0)"/>
     <use xlink:href="#DejaVuSerif-68" transform="translate(2368.408203 0)"/>
     <use xlink:href="#DejaVuSerif-69" transform="translate(2432.8125 0)"/>
     <use xlink:href="#DejaVuSerif-65" transform="translate(2464.794922 0)"/>
     <use xlink:href="#DejaVuSerif-64" transform="translate(2523.974609 0)"/>
     <use xlink:href="#DejaVuSerif-65" transform="translate(2587.988281 0)"/>
     <use xlink:href="#DejaVuSerif-6e" transform="translate(2647.167969 0)"/>
     <use xlink:href="#DejaVuSerif-65" transform="translate(2711.572266 0)"/>
     <use xlink:href="#DejaVuSerif-6e" transform="translate(2770.751953 0)"/>
     <use xlink:href="#DejaVuSerif-20" transform="translate(2835.15625 0)"/>
     <use xlink:href="#DejaVuSerif-53" transform="translate(2866.943359 0)"/>
     <use xlink:href="#DejaVuSerif-74" transform="translate(2935.449219 0)"/>
     <use xlink:href="#DejaVuSerif-72" transform="translate(2975.634766 0)"/>
     <use xlink:href="#DejaVuSerif-61" transform="translate(3023.4375 0)"/>
     <use xlink:href="#DejaVuSerif-74" transform="translate(3083.056641 0)"/>
     <use xlink:href="#DejaVuSerif-65" transform="translate(3123.242188 0)"/>
     <use xlink:href="#DejaVuSerif-67" transform="translate(3182.421875 0)"/>
     <use xlink:href="#DejaVuSerif-69" transform="translate(3246.435547 0)"/>
     <use xlink:href="#DejaVuSerif-65" transform="translate(3278.417969 0)"/>
     <use xlink:href="#DejaVuSerif-6e" transform="translate(3337.597656 0)"/>
    </g>
   </g>
   <g id="legend_2">
    <g id="patch_38">
     <path d="M 475.665124 106.1575 
L 651.695124 106.1575 
Q 653.295124 106.1575 653.295124 104.5575 
L 653.295124 58.16 
Q 653.295124 56.56 651.695124 56.56 
L 475.665124 56.56 
Q 474.065124 56.56 474.065124 58.16 
L 474.065124 104.5575 
Q 474.065124 106.1575 475.665124 106.1575 
z
" style="fill: #ffffff; opacity: 0.8; stroke: #cccccc; stroke-linejoin: miter"/>
    </g>
    <g id="line2d_50">
     <path d="M 477.265124 63.03875 
L 485.265124 63.03875 
L 493.265124 63.03875 
" style="fill: none; stroke: #c0392b; stroke-width: 2; stroke-linecap: square"/>
    </g>
    <g id="text_36">
     <!-- Unbehandelt -->
     <g transform="translate(499.665124 65.83875) scale(0.08 -0.08)">
      <use xlink:href="#DejaVuSerif-55"/>
      <use xlink:href="#DejaVuSerif-6e" transform="translate(84.277344 0)"/>
      <use xlink:href="#DejaVuSerif-62" transform="translate(148.681641 0)"/>
      <use xlink:href="#DejaVuSerif-65" transform="translate(212.695312 0)"/>
      <use xlink:href="#DejaVuSerif-68" transform="translate(271.875 0)"/>
      <use xlink:href="#DejaVuSerif-61" transform="translate(336.279297 0)"/>
      <use xlink:href="#DejaVuSerif-6e" transform="translate(395.898438 0)"/>
      <use xlink:href="#DejaVuSerif-64" transform="translate(460.302734 0)"/>
      <use xlink:href="#DejaVuSerif-65" transform="translate(524.316406 0)"/>
      <use xlink:href="#DejaVuSerif-6c" transform="translate(583.496094 0)"/>
      <use xlink:href="#DejaVuSerif-74" transform="translate(615.478516 0)"/>
     </g>
    </g>
    <g id="line2d_51">
     <path d="M 477.265124 74.78125 
L 485.265124 74.78125 
L 493.265124 74.78125 
" style="fill: none; stroke: #e67e22; stroke-width: 1.8; stroke-linecap: square"/>
    </g>
    <g id="text_37">
     <!-- Medikation allein -->
     <g transform="translate(499.665124 77.58125) scale(0.08 -0.08)">
      <use xlink:href="#DejaVuSerif-4d"/>
      <use xlink:href="#DejaVuSerif-65" transform="translate(102.392578 0)"/>
      <use xlink:href="#DejaVuSerif-64" transform="translate(161.572266 0)"/>
      <use xlink:href="#DejaVuSerif-69" transform="translate(225.585938 0)"/>
      <use xlink:href="#DejaVuSerif-6b" transform="translate(257.568359 0)"/>
      <use xlink:href="#DejaVuSerif-61" transform="translate(318.164062 0)"/>
      <use xlink:href="#DejaVuSerif-74" transform="translate(377.783203 0)"/>
      <use xlink:href="#DejaVuSerif-69" transform="translate(417.96875 0)"/>
      <use xlink:href="#DejaVuSerif-6f" transform="translate(449.951172 0)"/>
      <use xlink:href="#DejaVuSerif-6e" transform="translate(510.15625 0)"/>
      <use xlink:href="#DejaVuSerif-20" transform="translate(574.560547 0)"/>
      <use xlink:href="#DejaVuSerif-61" transform="translate(606.347656 0)"/>
      <use xlink:href="#DejaVuSerif-6c" transform="translate(665.966797 0)"/>
      <use xlink:href="#DejaVuSerif-6c" transform="translate(697.949219 0)"/>
      <use xlink:href="#DejaVuSerif-65" transform="translate(729.931641 0)"/>
      <use xlink:href="#DejaVuSerif-69" transform="translate(789.111328 0)"/>
      <use xlink:href="#DejaVuSerif-6e" transform="translate(821.09375 0)"/>
     </g>
    </g>
    <g id="line2d_52">
     <path d="M 477.265124 86.52375 
L 485.265124 86.52375 
L 493.265124 86.52375 
" style="fill: none; stroke: #1a4e8a; stroke-width: 1.8; stroke-linecap: square"/>
    </g>
    <g id="text_38">
     <!-- Medikation + Physiotherapie -->
     <g transform="translate(499.665124 89.32375) scale(0.08 -0.08)">
      <defs>
       <path id="DejaVuSerif-2b" d="M 2931 4013 
L 2931 2259 
L 4684 2259 
L 4684 1753 
L 2931 1753 
L 2931 0 
L 2431 0 
L 2431 1753 
L 678 1753 
L 678 2259 
L 2431 2259 
L 2431 4013 
L 2931 4013 
z
" transform="scale(0.015625)"/>
      </defs>
      <use xlink:href="#DejaVuSerif-4d"/>
      <use xlink:href="#DejaVuSerif-65" transform="translate(102.392578 0)"/>
      <use xlink:href="#DejaVuSerif-64" transform="translate(161.572266 0)"/>
      <use xlink:href="#DejaVuSerif-69" transform="translate(225.585938 0)"/>
      <use xlink:href="#DejaVuSerif-6b" transform="translate(257.568359 0)"/>
      <use xlink:href="#DejaVuSerif-61" transform="translate(318.164062 0)"/>
      <use xlink:href="#DejaVuSerif-74" transform="translate(377.783203 0)"/>
      <use xlink:href="#DejaVuSerif-69" transform="translate(417.96875 0)"/>
      <use xlink:href="#DejaVuSerif-6f" transform="translate(449.951172 0)"/>
      <use xlink:href="#DejaVuSerif-6e" transform="translate(510.15625 0)"/>
      <use xlink:href="#DejaVuSerif-20" transform="translate(574.560547 0)"/>
      <use xlink:href="#DejaVuSerif-2b" transform="translate(606.347656 0)"/>
      <use xlink:href="#DejaVuSerif-20" transform="translate(690.136719 0)"/>
      <use xlink:href="#DejaVuSerif-50" transform="translate(721.923828 0)"/>
      <use xlink:href="#DejaVuSerif-68" transform="translate(789.208984 0)"/>
      <use xlink:href="#DejaVuSerif-79" transform="translate(853.613281 0)"/>
      <use xlink:href="#DejaVuSerif-73" transform="translate(910.107422 0)"/>
      <use xlink:href="#DejaVuSerif-69" transform="translate(961.425781 0)"/>
      <use xlink:href="#DejaVuSerif-6f" transform="translate(993.408203 0)"/>
      <use xlink:href="#DejaVuSerif-74" transform="translate(1053.613281 0)"/>
      <use xlink:href="#DejaVuSerif-68" transform="translate(1093.798828 0)"/>
      <use xlink:href="#DejaVuSerif-65" transform="translate(1158.203125 0)"/>
      <use xlink:href="#DejaVuSerif-72" transform="translate(1217.382812 0)"/>
      <use xlink:href="#DejaVuSerif-61" transform="translate(1265.185547 0)"/>
      <use xlink:href="#DejaVuSerif-70" transform="translate(1324.804688 0)"/>
      <use xlink:href="#DejaVuSerif-69" transform="translate(1388.818359 0)"/>
      <use xlink:href="#DejaVuSerif-65" transform="translate(1420.800781 0)"/>
     </g>
    </g>
    <g id="line2d_53">
     <path d="M 477.265124 98.38 
L 485.265124 98.38 
L 493.265124 98.38 
" style="fill: none; stroke-dasharray: 7.4,3.2; stroke-dashoffset: 0; stroke: #27ae60; stroke-width: 2"/>
    </g>
    <g id="text_39">
     <!-- Handtraining + Propriozeptionsstim. -->
     <g transform="translate(499.665124 101.18) scale(0.08 -0.08)">
      <use xlink:href="#DejaVuSerif-48"/>
      <use xlink:href="#DejaVuSerif-61" transform="translate(87.207031 0)"/>
      <use xlink:href="#DejaVuSerif-6e" transform="translate(146.826172 0)"/>
      <use xlink:href="#DejaVuSerif-64" transform="translate(211.230469 0)"/>
      <use xlink:href="#DejaVuSerif-74" transform="translate(275.244141 0)"/>
      <use xlink:href="#DejaVuSerif-72" transform="translate(315.429688 0)"/>
      <use xlink:href="#DejaVuSerif-61" transform="translate(363.232422 0)"/>
      <use xlink:href="#DejaVuSerif-69" transform="translate(422.851562 0)"/>
      <use xlink:href="#DejaVuSerif-6e" transform="translate(454.833984 0)"/>
      <use xlink:href="#DejaVuSerif-69" transform="translate(519.238281 0)"/>
      <use xlink:href="#DejaVuSerif-6e" transform="translate(551.220703 0)"/>
      <use xlink:href="#DejaVuSerif-67" transform="translate(615.625 0)"/>
      <use xlink:href="#DejaVuSerif-20" transform="translate(679.638672 0)"/>
      <use xlink:href="#DejaVuSerif-2b" transform="translate(711.425781 0)"/>
      <use xlink:href="#DejaVuSerif-20" transform="translate(795.214844 0)"/>
      <use xlink:href="#DejaVuSerif-50" transform="translate(827.001953 0)"/>
      <use xlink:href="#DejaVuSerif-72" transform="translate(894.287109 0)"/>
      <use xlink:href="#DejaVuSerif-6f" transform="translate(942.089844 0)"/>
      <use xlink:href="#DejaVuSerif-70" transform="translate(1002.294922 0)"/>
      <use xlink:href="#DejaVuSerif-72" transform="translate(1066.308594 0)"/>
      <use xlink:href="#DejaVuSerif-69" transform="translate(1114.111328 0)"/>
      <use xlink:href="#DejaVuSerif-6f" transform="translate(1146.09375 0)"/>
      <use xlink:href="#DejaVuSerif-7a" transform="translate(1206.298828 0)"/>
      <use xlink:href="#DejaVuSerif-65" transform="translate(1258.984375 0)"/>
      <use xlink:href="#DejaVuSerif-70" transform="translate(1318.164062 0)"/>
      <use xlink:href="#DejaVuSerif-74" transform="translate(1382.177734 0)"/>
      <use xlink:href="#DejaVuSerif-69" transform="translate(1422.363281 0)"/>
      <use xlink:href="#DejaVuSerif-6f" transform="translate(1454.345703 0)"/>
      <use xlink:href="#DejaVuSerif-6e" transform="translate(1514.550781 0)"/>
      <use xlink:href="#DejaVuSerif-73" transform="translate(1578.955078 0)"/>
      <use xlink:href="#DejaVuSerif-73" transform="translate(1630.273438 0)"/>
      <use xlink:href="#DejaVuSerif-74" transform="translate(1681.591797 0)"/>
      <use xlink:href="#DejaVuSerif-69" transform="translate(1721.777344 0)"/>
      <use xlink:href="#DejaVuSerif-6d" transform="translate(1753.759766 0)"/>
      <use xlink:href="#DejaVuSerif-2e" transform="translate(1848.583984 0)"/>
     </g>
    </g>
   </g>
  </g>
  <g id="text_40">
   <!-- Abbildung 8 – Handpathologien: Beeinträchtigungsindizes und Verlaufsdynamik -->
   <g transform="translate(226.494687 14.860937) scale(0.1 -0.1)">
    <defs>
     <path id="DejaVuSerif-2013" d="M 281 1906 
L 2919 1906 
L 2919 1491 
L 281 1491 
L 281 1906 
z
" transform="scale(0.015625)"/>
     <path id="DejaVuSerif-3a" d="M 666 325 
Q 666 500 786 622 
Q 906 744 1081 744 
Q 1256 744 1376 622 
Q 1497 500 1497 325 
Q 1497 150 1378 29 
Q 1259 -91 1081 -91 
Q 903 -91 784 29 
Q 666 150 666 325 
z
M 666 2363 
Q 666 2538 786 2658 
Q 906 2778 1081 2778 
Q 1259 2778 1378 2659 
Q 1497 2541 1497 2363 
Q 1497 2184 1378 2065 
Q 1259 1947 1081 1947 
Q 906 1947 786 2067 
Q 666 2188 666 2363 
z
" transform="scale(0.015625)"/>
     <path id="DejaVuSerif-56" d="M 1119 4331 
L 2497 750 
L 3872 4331 
L 3347 4331 
L 3347 4666 
L 4716 4666 
L 4716 4331 
L 4263 4331 
L 2597 0 
L 2059 0 
L 403 4331 
L -63 4331 
L -63 4666 
L 1638 4666 
L 1638 4331 
L 1119 4331 
z
" transform="scale(0.015625)"/>
    </defs>
    <use xlink:href="#DejaVuSerif-41"/>
    <use xlink:href="#DejaVuSerif-62" transform="translate(72.216797 0)"/>
    <use xlink:href="#DejaVuSerif-62" transform="translate(136.230469 0)"/>
    <use xlink:href="#DejaVuSerif-69" transform="translate(200.244141 0)"/>
    <use xlink:href="#DejaVuSerif-6c" transform="translate(232.226562 0)"/>
    <use xlink:href="#DejaVuSerif-64" transform="translate(264.208984 0)"/>
    <use xlink:href="#DejaVuSerif-75" transform="translate(328.222656 0)"/>
    <use xlink:href="#DejaVuSerif-6e" transform="translate(392.626953 0)"/>
    <use xlink:href="#DejaVuSerif-67" transform="translate(457.03125 0)"/>
    <use xlink:href="#DejaVuSerif-20" transform="translate(521.044922 0)"/>
    <use xlink:href="#DejaVuSerif-38" transform="translate(552.832031 0)"/>
    <use xlink:href="#DejaVuSerif-20" transform="translate(616.455078 0)"/>
    <use xlink:href="#DejaVuSerif-2013" transform="translate(648.242188 0)"/>
    <use xlink:href="#DejaVuSerif-20" transform="translate(698.242188 0)"/>
    <use xlink:href="#DejaVuSerif-48" transform="translate(730.029297 0)"/>
    <use xlink:href="#DejaVuSerif-61" transform="translate(817.236328 0)"/>
    <use xlink:href="#DejaVuSerif-6e" transform="translate(876.855469 0)"/>
    <use xlink:href="#DejaVuSerif-64" transform="translate(941.259766 0)"/>
    <use xlink:href="#DejaVuSerif-70" transform="translate(1005.273438 0)"/>
    <use xlink:href="#DejaVuSerif-61" transform="translate(1069.287109 0)"/>
    <use xlink:href="#DejaVuSerif-74" transform="translate(1128.90625 0)"/>
    <use xlink:href="#DejaVuSerif-68" transform="translate(1169.091797 0)"/>
    <use xlink:href="#DejaVuSerif-6f" transform="translate(1233.496094 0)"/>
    <use xlink:href="#DejaVuSerif-6c" transform="translate(1293.701172 0)"/>
    <use xlink:href="#DejaVuSerif-6f" transform="translate(1325.683594 0)"/>
    <use xlink:href="#DejaVuSerif-67" transform="translate(1385.888672 0)"/>
    <use xlink:href="#DejaVuSerif-69" transform="translate(1449.902344 0)"/>
    <use xlink:href="#DejaVuSerif-65" transform="translate(1481.884766 0)"/>
    <use xlink:href="#DejaVuSerif-6e" transform="translate(1541.064453 0)"/>
    <use xlink:href="#DejaVuSerif-3a" transform="translate(1605.46875 0)"/>
    <use xlink:href="#DejaVuSerif-20" transform="translate(1639.160156 0)"/>
    <use xlink:href="#DejaVuSerif-42" transform="translate(1670.947266 0)"/>
    <use xlink:href="#DejaVuSerif-65" transform="translate(1744.433594 0)"/>
    <use xlink:href="#DejaVuSerif-65" transform="translate(1803.613281 0)"/>
    <use xlink:href="#DejaVuSerif-69" transform="translate(1862.792969 0)"/>
    <use xlink:href="#DejaVuSerif-6e" transform="translate(1894.775391 0)"/>
    <use xlink:href="#DejaVuSerif-74" transform="translate(1959.179688 0)"/>
    <use xlink:href="#DejaVuSerif-72" transform="translate(1999.365234 0)"/>
    <use xlink:href="#DejaVuSerif-e4" transform="translate(2047.167969 0)"/>
    <use xlink:href="#DejaVuSerif-63" transform="translate(2106.787109 0)"/>
    <use xlink:href="#DejaVuSerif-68" transform="translate(2162.792969 0)"/>
    <use xlink:href="#DejaVuSerif-74" transform="translate(2227.197266 0)"/>
    <use xlink:href="#DejaVuSerif-69" transform="translate(2267.382812 0)"/>
    <use xlink:href="#DejaVuSerif-67" transform="translate(2299.365234 0)"/>
    <use xlink:href="#DejaVuSerif-75" transform="translate(2363.378906 0)"/>
    <use xlink:href="#DejaVuSerif-6e" transform="translate(2427.783203 0)"/>
    <use xlink:href="#DejaVuSerif-67" transform="translate(2492.1875 0)"/>
    <use xlink:href="#DejaVuSerif-73" transform="translate(2556.201172 0)"/>
    <use xlink:href="#DejaVuSerif-69" transform="translate(2607.519531 0)"/>
    <use xlink:href="#DejaVuSerif-6e" transform="translate(2639.501953 0)"/>
    <use xlink:href="#DejaVuSerif-64" transform="translate(2703.90625 0)"/>
    <use xlink:href="#DejaVuSerif-69" transform="translate(2767.919922 0)"/>
    <use xlink:href="#DejaVuSerif-7a" transform="translate(2799.902344 0)"/>
    <use xlink:href="#DejaVuSerif-65" transform="translate(2852.587891 0)"/>
    <use xlink:href="#DejaVuSerif-73" transform="translate(2911.767578 0)"/>
    <use xlink:href="#DejaVuSerif-20" transform="translate(2963.085938 0)"/>
    <use xlink:href="#DejaVuSerif-75" transform="translate(2994.873047 0)"/>
    <use xlink:href="#DejaVuSerif-6e" transform="translate(3059.277344 0)"/>
    <use xlink:href="#DejaVuSerif-64" transform="translate(3123.681641 0)"/>
    <use xlink:href="#DejaVuSerif-20" transform="translate(3187.695312 0)"/>
    <use xlink:href="#DejaVuSerif-56" transform="translate(3219.482422 0)"/>
    <use xlink:href="#DejaVuSerif-65" transform="translate(3282.574219 0)"/>
    <use xlink:href="#DejaVuSerif-72" transform="translate(3341.753906 0)"/>
    <use xlink:href="#DejaVuSerif-6c" transform="translate(3389.556641 0)"/>
    <use xlink:href="#DejaVuSerif-61" transform="translate(3421.539062 0)"/>
    <use xlink:href="#DejaVuSerif-75" transform="translate(3481.158203 0)"/>
    <use xlink:href="#DejaVuSerif-66" transform="translate(3545.5625 0)"/>
    <use xlink:href="#DejaVuSerif-73" transform="translate(3582.574219 0)"/>
    <use xlink:href="#DejaVuSerif-64" transform="translate(3633.892578 0)"/>
    <use xlink:href="#DejaVuSerif-79" transform="translate(3697.90625 0)"/>
    <use xlink:href="#DejaVuSerif-6e" transform="translate(3754.400391 0)"/>
    <use xlink:href="#DejaVuSerif-61" transform="translate(3818.804688 0)"/>
    <use xlink:href="#DejaVuSerif-6d" transform="translate(3878.423828 0)"/>
    <use xlink:href="#DejaVuSerif-69" transform="translate(3973.248047 0)"/>
    <use xlink:href="#DejaVuSerif-6b" transform="translate(4005.230469 0)"/>
   </g>
  </g>
 </g>
 <defs>
  <clipPath id="p91b4be8a02">
   <rect x="69.89" y="52.56" width="365.715124" height="280.72"/>
  </clipPath>
  <clipPath id="p84c785b9d2">
   <rect x="470.065124" y="52.56" width="365.715124" height="280.72"/>
  </clipPath>
 </defs>
</svg>
