<?xml version="1.0" encoding="utf-8" standalone="no"?>
<!DOCTYPE svg PUBLIC "-//W3C//DTD SVG 1.1//EN"
  "http://www.w3.org/Graphics/SVG/1.1/DTD/svg11.dtd">
<svg xmlns:xlink="http://www.w3.org/1999/xlink" width="786.20625pt" height="357.95625pt" viewBox="0 0 786.20625 357.95625" xmlns="http://www.w3.org/2000/svg" version="1.1">
 <metadata>
  <rdf:RDF xmlns:dc="http://purl.org/dc/elements/1.1/" xmlns:cc="http://creativecommons.org/ns#" xmlns:rdf="http://www.w3.org/1999/02/22-rdf-syntax-ns#">
   <cc:Work>
    <dc:type rdf:resource="http://purl.org/dc/dcmitype/StillImage"/>
    <dc:date>2026-03-02T09:31:43.645264</dc:date>
    <dc:format>image/svg+xml</dc:format>
    <dc:creator>
     <cc:Agent>
      <dc:title>Matplotlib v3.10.8, https://matplotlib.org/</dc:title>
     </cc:Agent>
    </dc:creator>
   </cc:Work>
  </rdf:RDF>
 </metadata>
 <defs>
  <style type="text/css">*{stroke-linejoin: round; stroke-linecap: butt}</style>
 </defs>
 <g id="figure_1">
  <g id="patch_1">
   <path d="M 0 357.95625 
L 786.20625 357.95625 
L 786.20625 0 
L 0 0 
z
" style="fill: #ffffff"/>
  </g>
  <g id="axes_1">
   <g id="patch_2">
    <path d="M 53.60625 320.4 
L 383.333523 320.4 
L 383.333523 43.2 
L 53.60625 43.2 
z
" style="fill: #ffffff"/>
   </g>
   <g id="matplotlib.axis_1">
    <g id="xtick_1">
     <g id="line2d_1">
      <path d="M 68.593853 320.4 
L 68.593853 43.2 
" clip-path="url(#p2b5e362178)" style="fill: none; stroke: #b0b0b0; stroke-opacity: 0.3; stroke-width: 0.8; stroke-linecap: square"/>
     </g>
     <g id="line2d_2">
      <defs>
       <path id="m1c692a646b" d="M 0 0 
L 0 3.5 
" style="stroke: #000000; stroke-width: 0.8"/>
      </defs>
      <g>
       <use xlink:href="#m1c692a646b" x="68.593853" y="320.4" style="stroke: #000000; stroke-width: 0.8"/>
      </g>
     </g>
     <g id="text_1">
      <!-- 0 -->
      <g transform="translate(65.412603 334.998437) scale(0.1 -0.1)">
       <defs>
        <path id="DejaVuSans-30" d="M 2034 4250 
Q 1547 4250 1301 3770 
Q 1056 3291 1056 2328 
Q 1056 1369 1301 889 
Q 1547 409 2034 409 
Q 2525 409 2770 889 
Q 3016 1369 3016 2328 
Q 3016 3291 2770 3770 
Q 2525 4250 2034 4250 
z
M 2034 4750 
Q 2819 4750 3233 4129 
Q 3647 3509 3647 2328 
Q 3647 1150 3233 529 
Q 2819 -91 2034 -91 
Q 1250 -91 836 529 
Q 422 1150 422 2328 
Q 422 3509 836 4129 
Q 1250 4750 2034 4750 
z
" transform="scale(0.015625)"/>
       </defs>
       <use xlink:href="#DejaVuSans-30"/>
      </g>
     </g>
    </g>
    <g id="xtick_2">
     <g id="line2d_3">
      <path d="M 128.544267 320.4 
L 128.544267 43.2 
" clip-path="url(#p2b5e362178)" style="fill: none; stroke: #b0b0b0; stroke-opacity: 0.3; stroke-width: 0.8; stroke-linecap: square"/>
     </g>
     <g id="line2d_4">
      <g>
       <use xlink:href="#m1c692a646b" x="128.544267" y="320.4" style="stroke: #000000; stroke-width: 0.8"/>
      </g>
     </g>
     <g id="text_2">
      <!-- 1000 -->
      <g transform="translate(115.819267 334.998437) scale(0.1 -0.1)">
       <defs>
        <path id="DejaVuSans-31" d="M 794 531 
L 1825 531 
L 1825 4091 
L 703 3866 
L 703 4441 
L 1819 4666 
L 2450 4666 
L 2450 531 
L 3481 531 
L 3481 0 
L 794 0 
L 794 531 
z
" transform="scale(0.015625)"/>
       </defs>
       <use xlink:href="#DejaVuSans-31"/>
       <use xlink:href="#DejaVuSans-30" transform="translate(63.623047 0)"/>
       <use xlink:href="#DejaVuSans-30" transform="translate(127.246094 0)"/>
       <use xlink:href="#DejaVuSans-30" transform="translate(190.869141 0)"/>
      </g>
     </g>
    </g>
    <g id="xtick_3">
     <g id="line2d_5">
      <path d="M 188.49468 320.4 
L 188.49468 43.2 
" clip-path="url(#p2b5e362178)" style="fill: none; stroke: #b0b0b0; stroke-opacity: 0.3; stroke-width: 0.8; stroke-linecap: square"/>
     </g>
     <g id="line2d_6">
      <g>
       <use xlink:href="#m1c692a646b" x="188.49468" y="320.4" style="stroke: #000000; stroke-width: 0.8"/>
      </g>
     </g>
     <g id="text_3">
      <!-- 2000 -->
      <g transform="translate(175.76968 334.998437) scale(0.1 -0.1)">
       <defs>
        <path id="DejaVuSans-32" d="M 1228 531 
L 3431 531 
L 3431 0 
L 469 0 
L 469 531 
Q 828 903 1448 1529 
Q 2069 2156 2228 2338 
Q 2531 2678 2651 2914 
Q 2772 3150 2772 3378 
Q 2772 3750 2511 3984 
Q 2250 4219 1831 4219 
Q 1534 4219 1204 4116 
Q 875 4013 500 3803 
L 500 4441 
Q 881 4594 1212 4672 
Q 1544 4750 1819 4750 
Q 2544 4750 2975 4387 
Q 3406 4025 3406 3419 
Q 3406 3131 3298 2873 
Q 3191 2616 2906 2266 
Q 2828 2175 2409 1742 
Q 1991 1309 1228 531 
z
" transform="scale(0.015625)"/>
       </defs>
       <use xlink:href="#DejaVuSans-32"/>
       <use xlink:href="#DejaVuSans-30" transform="translate(63.623047 0)"/>
       <use xlink:href="#DejaVuSans-30" transform="translate(127.246094 0)"/>
       <use xlink:href="#DejaVuSans-30" transform="translate(190.869141 0)"/>
      </g>
     </g>
    </g>
    <g id="xtick_4">
     <g id="line2d_7">
      <path d="M 248.445093 320.4 
L 248.445093 43.2 
" clip-path="url(#p2b5e362178)" style="fill: none; stroke: #b0b0b0; stroke-opacity: 0.3; stroke-width: 0.8; stroke-linecap: square"/>
     </g>
     <g id="line2d_8">
      <g>
       <use xlink:href="#m1c692a646b" x="248.445093" y="320.4" style="stroke: #000000; stroke-width: 0.8"/>
      </g>
     </g>
     <g id="text_4">
      <!-- 3000 -->
      <g transform="translate(235.720093 334.998437) scale(0.1 -0.1)">
       <defs>
        <path id="DejaVuSans-33" d="M 2597 2516 
Q 3050 2419 3304 2112 
Q 3559 1806 3559 1356 
Q 3559 666 3084 287 
Q 2609 -91 1734 -91 
Q 1441 -91 1130 -33 
Q 819 25 488 141 
L 488 750 
Q 750 597 1062 519 
Q 1375 441 1716 441 
Q 2309 441 2620 675 
Q 2931 909 2931 1356 
Q 2931 1769 2642 2001 
Q 2353 2234 1838 2234 
L 1294 2234 
L 1294 2753 
L 1863 2753 
Q 2328 2753 2575 2939 
Q 2822 3125 2822 3475 
Q 2822 3834 2567 4026 
Q 2313 4219 1838 4219 
Q 1578 4219 1281 4162 
Q 984 4106 628 3988 
L 628 4550 
Q 988 4650 1302 4700 
Q 1616 4750 1894 4750 
Q 2613 4750 3031 4423 
Q 3450 4097 3450 3541 
Q 3450 3153 3228 2886 
Q 3006 2619 2597 2516 
z
" transform="scale(0.015625)"/>
       </defs>
       <use xlink:href="#DejaVuSans-33"/>
       <use xlink:href="#DejaVuSans-30" transform="translate(63.623047 0)"/>
       <use xlink:href="#DejaVuSans-30" transform="translate(127.246094 0)"/>
       <use xlink:href="#DejaVuSans-30" transform="translate(190.869141 0)"/>
      </g>
     </g>
    </g>
    <g id="xtick_5">
     <g id="line2d_9">
      <path d="M 308.395506 320.4 
L 308.395506 43.2 
" clip-path="url(#p2b5e362178)" style="fill: none; stroke: #b0b0b0; stroke-opacity: 0.3; stroke-width: 0.8; stroke-linecap: square"/>
     </g>
     <g id="line2d_10">
      <g>
       <use xlink:href="#m1c692a646b" x="308.395506" y="320.4" style="stroke: #000000; stroke-width: 0.8"/>
      </g>
     </g>
     <g id="text_5">
      <!-- 4000 -->
      <g transform="translate(295.670506 334.998437) scale(0.1 -0.1)">
       <defs>
        <path id="DejaVuSans-34" d="M 2419 4116 
L 825 1625 
L 2419 1625 
L 2419 4116 
z
M 2253 4666 
L 3047 4666 
L 3047 1625 
L 3713 1625 
L 3713 1100 
L 3047 1100 
L 3047 0 
L 2419 0 
L 2419 1100 
L 313 1100 
L 313 1709 
L 2253 4666 
z
" transform="scale(0.015625)"/>
       </defs>
       <use xlink:href="#DejaVuSans-34"/>
       <use xlink:href="#DejaVuSans-30" transform="translate(63.623047 0)"/>
       <use xlink:href="#DejaVuSans-30" transform="translate(127.246094 0)"/>
       <use xlink:href="#DejaVuSans-30" transform="translate(190.869141 0)"/>
      </g>
     </g>
    </g>
    <g id="xtick_6">
     <g id="line2d_11">
      <path d="M 368.345919 320.4 
L 368.345919 43.2 
" clip-path="url(#p2b5e362178)" style="fill: none; stroke: #b0b0b0; stroke-opacity: 0.3; stroke-width: 0.8; stroke-linecap: square"/>
     </g>
     <g id="line2d_12">
      <g>
       <use xlink:href="#m1c692a646b" x="368.345919" y="320.4" style="stroke: #000000; stroke-width: 0.8"/>
      </g>
     </g>
     <g id="text_6">
      <!-- 5000 -->
      <g transform="translate(355.620919 334.998437) scale(0.1 -0.1)">
       <defs>
        <path id="DejaVuSans-35" d="M 691 4666 
L 3169 4666 
L 3169 4134 
L 1269 4134 
L 1269 2991 
Q 1406 3038 1543 3061 
Q 1681 3084 1819 3084 
Q 2600 3084 3056 2656 
Q 3513 2228 3513 1497 
Q 3513 744 3044 326 
Q 2575 -91 1722 -91 
Q 1428 -91 1123 -41 
Q 819 9 494 109 
L 494 744 
Q 775 591 1075 516 
Q 1375 441 1709 441 
Q 2250 441 2565 725 
Q 2881 1009 2881 1497 
Q 2881 1984 2565 2268 
Q 2250 2553 1709 2553 
Q 1456 2553 1204 2497 
Q 953 2441 691 2322 
L 691 4666 
z
" transform="scale(0.015625)"/>
       </defs>
       <use xlink:href="#DejaVuSans-35"/>
       <use xlink:href="#DejaVuSans-30" transform="translate(63.623047 0)"/>
       <use xlink:href="#DejaVuSans-30" transform="translate(127.246094 0)"/>
       <use xlink:href="#DejaVuSans-30" transform="translate(190.869141 0)"/>
      </g>
     </g>
    </g>
    <g id="text_7">
     <!-- Betriebszeit [h] -->
     <g transform="translate(179.993324 348.676562) scale(0.1 -0.1)">
      <defs>
       <path id="DejaVuSans-42" d="M 1259 2228 
L 1259 519 
L 2272 519 
Q 2781 519 3026 730 
Q 3272 941 3272 1375 
Q 3272 1813 3026 2020 
Q 2781 2228 2272 2228 
L 1259 2228 
z
M 1259 4147 
L 1259 2741 
L 2194 2741 
Q 2656 2741 2882 2914 
Q 3109 3088 3109 3444 
Q 3109 3797 2882 3972 
Q 2656 4147 2194 4147 
L 1259 4147 
z
M 628 4666 
L 2241 4666 
Q 2963 4666 3353 4366 
Q 3744 4066 3744 3513 
Q 3744 3084 3544 2831 
Q 3344 2578 2956 2516 
Q 3422 2416 3680 2098 
Q 3938 1781 3938 1306 
Q 3938 681 3513 340 
Q 3088 0 2303 0 
L 628 0 
L 628 4666 
z
" transform="scale(0.015625)"/>
       <path id="DejaVuSans-65" d="M 3597 1894 
L 3597 1613 
L 953 1613 
Q 991 1019 1311 708 
Q 1631 397 2203 397 
Q 2534 397 2845 478 
Q 3156 559 3463 722 
L 3463 178 
Q 3153 47 2828 -22 
Q 2503 -91 2169 -91 
Q 1331 -91 842 396 
Q 353 884 353 1716 
Q 353 2575 817 3079 
Q 1281 3584 2069 3584 
Q 2775 3584 3186 3129 
Q 3597 2675 3597 1894 
z
M 3022 2063 
Q 3016 2534 2758 2815 
Q 2500 3097 2075 3097 
Q 1594 3097 1305 2825 
Q 1016 2553 972 2059 
L 3022 2063 
z
" transform="scale(0.015625)"/>
       <path id="DejaVuSans-74" d="M 1172 4494 
L 1172 3500 
L 2356 3500 
L 2356 3053 
L 1172 3053 
L 1172 1153 
Q 1172 725 1289 603 
Q 1406 481 1766 481 
L 2356 481 
L 2356 0 
L 1766 0 
Q 1100 0 847 248 
Q 594 497 594 1153 
L 594 3053 
L 172 3053 
L 172 3500 
L 594 3500 
L 594 4494 
L 1172 4494 
z
" transform="scale(0.015625)"/>
       <path id="DejaVuSans-72" d="M 2631 2963 
Q 2534 3019 2420 3045 
Q 2306 3072 2169 3072 
Q 1681 3072 1420 2755 
Q 1159 2438 1159 1844 
L 1159 0 
L 581 0 
L 581 3500 
L 1159 3500 
L 1159 2956 
Q 1341 3275 1631 3429 
Q 1922 3584 2338 3584 
Q 2397 3584 2469 3576 
Q 2541 3569 2628 3553 
L 2631 2963 
z
" transform="scale(0.015625)"/>
       <path id="DejaVuSans-69" d="M 603 3500 
L 1178 3500 
L 1178 0 
L 603 0 
L 603 3500 
z
M 603 4863 
L 1178 4863 
L 1178 4134 
L 603 4134 
L 603 4863 
z
" transform="scale(0.015625)"/>
       <path id="DejaVuSans-62" d="M 3116 1747 
Q 3116 2381 2855 2742 
Q 2594 3103 2138 3103 
Q 1681 3103 1420 2742 
Q 1159 2381 1159 1747 
Q 1159 1113 1420 752 
Q 1681 391 2138 391 
Q 2594 391 2855 752 
Q 3116 1113 3116 1747 
z
M 1159 2969 
Q 1341 3281 1617 3432 
Q 1894 3584 2278 3584 
Q 2916 3584 3314 3078 
Q 3713 2572 3713 1747 
Q 3713 922 3314 415 
Q 2916 -91 2278 -91 
Q 1894 -91 1617 61 
Q 1341 213 1159 525 
L 1159 0 
L 581 0 
L 581 4863 
L 1159 4863 
L 1159 2969 
z
" transform="scale(0.015625)"/>
       <path id="DejaVuSans-73" d="M 2834 3397 
L 2834 2853 
Q 2591 2978 2328 3040 
Q 2066 3103 1784 3103 
Q 1356 3103 1142 2972 
Q 928 2841 928 2578 
Q 928 2378 1081 2264 
Q 1234 2150 1697 2047 
L 1894 2003 
Q 2506 1872 2764 1633 
Q 3022 1394 3022 966 
Q 3022 478 2636 193 
Q 2250 -91 1575 -91 
Q 1294 -91 989 -36 
Q 684 19 347 128 
L 347 722 
Q 666 556 975 473 
Q 1284 391 1588 391 
Q 1994 391 2212 530 
Q 2431 669 2431 922 
Q 2431 1156 2273 1281 
Q 2116 1406 1581 1522 
L 1381 1569 
Q 847 1681 609 1914 
Q 372 2147 372 2553 
Q 372 3047 722 3315 
Q 1072 3584 1716 3584 
Q 2034 3584 2315 3537 
Q 2597 3491 2834 3397 
z
" transform="scale(0.015625)"/>
       <path id="DejaVuSans-7a" d="M 353 3500 
L 3084 3500 
L 3084 2975 
L 922 459 
L 3084 459 
L 3084 0 
L 275 0 
L 275 525 
L 2438 3041 
L 353 3041 
L 353 3500 
z
" transform="scale(0.015625)"/>
       <path id="DejaVuSans-20" transform="scale(0.015625)"/>
       <path id="DejaVuSans-5b" d="M 550 4863 
L 1875 4863 
L 1875 4416 
L 1125 4416 
L 1125 -397 
L 1875 -397 
L 1875 -844 
L 550 -844 
L 550 4863 
z
" transform="scale(0.015625)"/>
       <path id="DejaVuSans-68" d="M 3513 2113 
L 3513 0 
L 2938 0 
L 2938 2094 
Q 2938 2591 2744 2837 
Q 2550 3084 2163 3084 
Q 1697 3084 1428 2787 
Q 1159 2491 1159 1978 
L 1159 0 
L 581 0 
L 581 4863 
L 1159 4863 
L 1159 2956 
Q 1366 3272 1645 3428 
Q 1925 3584 2291 3584 
Q 2894 3584 3203 3211 
Q 3513 2838 3513 2113 
z
" transform="scale(0.015625)"/>
       <path id="DejaVuSans-5d" d="M 1947 4863 
L 1947 -844 
L 622 -844 
L 622 -397 
L 1369 -397 
L 1369 4416 
L 622 4416 
L 622 4863 
L 1947 4863 
z
" transform="scale(0.015625)"/>
      </defs>
      <use xlink:href="#DejaVuSans-42"/>
      <use xlink:href="#DejaVuSans-65" transform="translate(68.603516 0)"/>
      <use xlink:href="#DejaVuSans-74" transform="translate(130.126953 0)"/>
      <use xlink:href="#DejaVuSans-72" transform="translate(169.335938 0)"/>
      <use xlink:href="#DejaVuSans-69" transform="translate(210.449219 0)"/>
      <use xlink:href="#DejaVuSans-65" transform="translate(238.232422 0)"/>
      <use xlink:href="#DejaVuSans-62" transform="translate(299.755859 0)"/>
      <use xlink:href="#DejaVuSans-73" transform="translate(363.232422 0)"/>
      <use xlink:href="#DejaVuSans-7a" transform="translate(415.332031 0)"/>
      <use xlink:href="#DejaVuSans-65" transform="translate(467.822266 0)"/>
      <use xlink:href="#DejaVuSans-69" transform="translate(529.345703 0)"/>
      <use xlink:href="#DejaVuSans-74" transform="translate(557.128906 0)"/>
      <use xlink:href="#DejaVuSans-20" transform="translate(596.337891 0)"/>
      <use xlink:href="#DejaVuSans-5b" transform="translate(628.125 0)"/>
      <use xlink:href="#DejaVuSans-68" transform="translate(667.138672 0)"/>
      <use xlink:href="#DejaVuSans-5d" transform="translate(730.517578 0)"/>
     </g>
    </g>
   </g>
   <g id="matplotlib.axis_2">
    <g id="ytick_1">
     <g id="line2d_13">
      <path d="M 53.60625 310.773274 
L 383.333523 310.773274 
" clip-path="url(#p2b5e362178)" style="fill: none; stroke: #b0b0b0; stroke-opacity: 0.3; stroke-width: 0.8; stroke-linecap: square"/>
     </g>
     <g id="line2d_14">
      <defs>
       <path id="mfaa2a9de21" d="M 0 0 
L -3.5 0 
" style="stroke: #000000; stroke-width: 0.8"/>
      </defs>
      <g>
       <use xlink:href="#mfaa2a9de21" x="53.60625" y="310.773274" style="stroke: #000000; stroke-width: 0.8"/>
      </g>
     </g>
     <g id="text_8">
      <!-- 200 -->
      <g transform="translate(27.51875 314.572493) scale(0.1 -0.1)">
       <use xlink:href="#DejaVuSans-32"/>
       <use xlink:href="#DejaVuSans-30" transform="translate(63.623047 0)"/>
       <use xlink:href="#DejaVuSans-30" transform="translate(127.246094 0)"/>
      </g>
     </g>
    </g>
    <g id="ytick_2">
     <g id="line2d_15">
      <path d="M 53.60625 271.546617 
L 383.333523 271.546617 
" clip-path="url(#p2b5e362178)" style="fill: none; stroke: #b0b0b0; stroke-opacity: 0.3; stroke-width: 0.8; stroke-linecap: square"/>
     </g>
     <g id="line2d_16">
      <g>
       <use xlink:href="#mfaa2a9de21" x="53.60625" y="271.546617" style="stroke: #000000; stroke-width: 0.8"/>
      </g>
     </g>
     <g id="text_9">
      <!-- 400 -->
      <g transform="translate(27.51875 275.345836) scale(0.1 -0.1)">
       <use xlink:href="#DejaVuSans-34"/>
       <use xlink:href="#DejaVuSans-30" transform="translate(63.623047 0)"/>
       <use xlink:href="#DejaVuSans-30" transform="translate(127.246094 0)"/>
      </g>
     </g>
    </g>
    <g id="ytick_3">
     <g id="line2d_17">
      <path d="M 53.60625 232.319959 
L 383.333523 232.319959 
" clip-path="url(#p2b5e362178)" style="fill: none; stroke: #b0b0b0; stroke-opacity: 0.3; stroke-width: 0.8; stroke-linecap: square"/>
     </g>
     <g id="line2d_18">
      <g>
       <use xlink:href="#mfaa2a9de21" x="53.60625" y="232.319959" style="stroke: #000000; stroke-width: 0.8"/>
      </g>
     </g>
     <g id="text_10">
      <!-- 600 -->
      <g transform="translate(27.51875 236.119178) scale(0.1 -0.1)">
       <defs>
        <path id="DejaVuSans-36" d="M 2113 2584 
Q 1688 2584 1439 2293 
Q 1191 2003 1191 1497 
Q 1191 994 1439 701 
Q 1688 409 2113 409 
Q 2538 409 2786 701 
Q 3034 994 3034 1497 
Q 3034 2003 2786 2293 
Q 2538 2584 2113 2584 
z
M 3366 4563 
L 3366 3988 
Q 3128 4100 2886 4159 
Q 2644 4219 2406 4219 
Q 1781 4219 1451 3797 
Q 1122 3375 1075 2522 
Q 1259 2794 1537 2939 
Q 1816 3084 2150 3084 
Q 2853 3084 3261 2657 
Q 3669 2231 3669 1497 
Q 3669 778 3244 343 
Q 2819 -91 2113 -91 
Q 1303 -91 875 529 
Q 447 1150 447 2328 
Q 447 3434 972 4092 
Q 1497 4750 2381 4750 
Q 2619 4750 2861 4703 
Q 3103 4656 3366 4563 
z
" transform="scale(0.015625)"/>
       </defs>
       <use xlink:href="#DejaVuSans-36"/>
       <use xlink:href="#DejaVuSans-30" transform="translate(63.623047 0)"/>
       <use xlink:href="#DejaVuSans-30" transform="translate(127.246094 0)"/>
      </g>
     </g>
    </g>
    <g id="ytick_4">
     <g id="line2d_19">
      <path d="M 53.60625 193.093302 
L 383.333523 193.093302 
" clip-path="url(#p2b5e362178)" style="fill: none; stroke: #b0b0b0; stroke-opacity: 0.3; stroke-width: 0.8; stroke-linecap: square"/>
     </g>
     <g id="line2d_20">
      <g>
       <use xlink:href="#mfaa2a9de21" x="53.60625" y="193.093302" style="stroke: #000000; stroke-width: 0.8"/>
      </g>
     </g>
     <g id="text_11">
      <!-- 800 -->
      <g transform="translate(27.51875 196.89252) scale(0.1 -0.1)">
       <defs>
        <path id="DejaVuSans-38" d="M 2034 2216 
Q 1584 2216 1326 1975 
Q 1069 1734 1069 1313 
Q 1069 891 1326 650 
Q 1584 409 2034 409 
Q 2484 409 2743 651 
Q 3003 894 3003 1313 
Q 3003 1734 2745 1975 
Q 2488 2216 2034 2216 
z
M 1403 2484 
Q 997 2584 770 2862 
Q 544 3141 544 3541 
Q 544 4100 942 4425 
Q 1341 4750 2034 4750 
Q 2731 4750 3128 4425 
Q 3525 4100 3525 3541 
Q 3525 3141 3298 2862 
Q 3072 2584 2669 2484 
Q 3125 2378 3379 2068 
Q 3634 1759 3634 1313 
Q 3634 634 3220 271 
Q 2806 -91 2034 -91 
Q 1263 -91 848 271 
Q 434 634 434 1313 
Q 434 1759 690 2068 
Q 947 2378 1403 2484 
z
M 1172 3481 
Q 1172 3119 1398 2916 
Q 1625 2713 2034 2713 
Q 2441 2713 2670 2916 
Q 2900 3119 2900 3481 
Q 2900 3844 2670 4047 
Q 2441 4250 2034 4250 
Q 1625 4250 1398 4047 
Q 1172 3844 1172 3481 
z
" transform="scale(0.015625)"/>
       </defs>
       <use xlink:href="#DejaVuSans-38"/>
       <use xlink:href="#DejaVuSans-30" transform="translate(63.623047 0)"/>
       <use xlink:href="#DejaVuSans-30" transform="translate(127.246094 0)"/>
      </g>
     </g>
    </g>
    <g id="ytick_5">
     <g id="line2d_21">
      <path d="M 53.60625 153.866644 
L 383.333523 153.866644 
" clip-path="url(#p2b5e362178)" style="fill: none; stroke: #b0b0b0; stroke-opacity: 0.3; stroke-width: 0.8; stroke-linecap: square"/>
     </g>
     <g id="line2d_22">
      <g>
       <use xlink:href="#mfaa2a9de21" x="53.60625" y="153.866644" style="stroke: #000000; stroke-width: 0.8"/>
      </g>
     </g>
     <g id="text_12">
      <!-- 1000 -->
      <g transform="translate(21.15625 157.665863) scale(0.1 -0.1)">
       <use xlink:href="#DejaVuSans-31"/>
       <use xlink:href="#DejaVuSans-30" transform="translate(63.623047 0)"/>
       <use xlink:href="#DejaVuSans-30" transform="translate(127.246094 0)"/>
       <use xlink:href="#DejaVuSans-30" transform="translate(190.869141 0)"/>
      </g>
     </g>
    </g>
    <g id="ytick_6">
     <g id="line2d_23">
      <path d="M 53.60625 114.639986 
L 383.333523 114.639986 
" clip-path="url(#p2b5e362178)" style="fill: none; stroke: #b0b0b0; stroke-opacity: 0.3; stroke-width: 0.8; stroke-linecap: square"/>
     </g>
     <g id="line2d_24">
      <g>
       <use xlink:href="#mfaa2a9de21" x="53.60625" y="114.639986" style="stroke: #000000; stroke-width: 0.8"/>
      </g>
     </g>
     <g id="text_13">
      <!-- 1200 -->
      <g transform="translate(21.15625 118.439205) scale(0.1 -0.1)">
       <use xlink:href="#DejaVuSans-31"/>
       <use xlink:href="#DejaVuSans-32" transform="translate(63.623047 0)"/>
       <use xlink:href="#DejaVuSans-30" transform="translate(127.246094 0)"/>
       <use xlink:href="#DejaVuSans-30" transform="translate(190.869141 0)"/>
      </g>
     </g>
    </g>
    <g id="ytick_7">
     <g id="line2d_25">
      <path d="M 53.60625 75.413329 
L 383.333523 75.413329 
" clip-path="url(#p2b5e362178)" style="fill: none; stroke: #b0b0b0; stroke-opacity: 0.3; stroke-width: 0.8; stroke-linecap: square"/>
     </g>
     <g id="line2d_26">
      <g>
       <use xlink:href="#mfaa2a9de21" x="53.60625" y="75.413329" style="stroke: #000000; stroke-width: 0.8"/>
      </g>
     </g>
     <g id="text_14">
      <!-- 1400 -->
      <g transform="translate(21.15625 79.212548) scale(0.1 -0.1)">
       <use xlink:href="#DejaVuSans-31"/>
       <use xlink:href="#DejaVuSans-34" transform="translate(63.623047 0)"/>
       <use xlink:href="#DejaVuSans-30" transform="translate(127.246094 0)"/>
       <use xlink:href="#DejaVuSans-30" transform="translate(190.869141 0)"/>
      </g>
     </g>
    </g>
    <g id="text_15">
     <!-- K_alt [MPa] -->
     <g transform="translate(14.798437 209.650781) rotate(-90) scale(0.1 -0.1)">
      <defs>
       <path id="DejaVuSans-4b" d="M 628 4666 
L 1259 4666 
L 1259 2694 
L 3353 4666 
L 4166 4666 
L 1850 2491 
L 4331 0 
L 3500 0 
L 1259 2247 
L 1259 0 
L 628 0 
L 628 4666 
z
" transform="scale(0.015625)"/>
       <path id="DejaVuSans-5f" d="M 3263 -1063 
L 3263 -1509 
L -63 -1509 
L -63 -1063 
L 3263 -1063 
z
" transform="scale(0.015625)"/>
       <path id="DejaVuSans-61" d="M 2194 1759 
Q 1497 1759 1228 1600 
Q 959 1441 959 1056 
Q 959 750 1161 570 
Q 1363 391 1709 391 
Q 2188 391 2477 730 
Q 2766 1069 2766 1631 
L 2766 1759 
L 2194 1759 
z
M 3341 1997 
L 3341 0 
L 2766 0 
L 2766 531 
Q 2569 213 2275 61 
Q 1981 -91 1556 -91 
Q 1019 -91 701 211 
Q 384 513 384 1019 
Q 384 1609 779 1909 
Q 1175 2209 1959 2209 
L 2766 2209 
L 2766 2266 
Q 2766 2663 2505 2880 
Q 2244 3097 1772 3097 
Q 1472 3097 1187 3025 
Q 903 2953 641 2809 
L 641 3341 
Q 956 3463 1253 3523 
Q 1550 3584 1831 3584 
Q 2591 3584 2966 3190 
Q 3341 2797 3341 1997 
z
" transform="scale(0.015625)"/>
       <path id="DejaVuSans-6c" d="M 603 4863 
L 1178 4863 
L 1178 0 
L 603 0 
L 603 4863 
z
" transform="scale(0.015625)"/>
       <path id="DejaVuSans-4d" d="M 628 4666 
L 1569 4666 
L 2759 1491 
L 3956 4666 
L 4897 4666 
L 4897 0 
L 4281 0 
L 4281 4097 
L 3078 897 
L 2444 897 
L 1241 4097 
L 1241 0 
L 628 0 
L 628 4666 
z
" transform="scale(0.015625)"/>
       <path id="DejaVuSans-50" d="M 1259 4147 
L 1259 2394 
L 2053 2394 
Q 2494 2394 2734 2622 
Q 2975 2850 2975 3272 
Q 2975 3691 2734 3919 
Q 2494 4147 2053 4147 
L 1259 4147 
z
M 628 4666 
L 2053 4666 
Q 2838 4666 3239 4311 
Q 3641 3956 3641 3272 
Q 3641 2581 3239 2228 
Q 2838 1875 2053 1875 
L 1259 1875 
L 1259 0 
L 628 0 
L 628 4666 
z
" transform="scale(0.015625)"/>
      </defs>
      <use xlink:href="#DejaVuSans-4b"/>
      <use xlink:href="#DejaVuSans-5f" transform="translate(65.576172 0)"/>
      <use xlink:href="#DejaVuSans-61" transform="translate(115.576172 0)"/>
      <use xlink:href="#DejaVuSans-6c" transform="translate(176.855469 0)"/>
      <use xlink:href="#DejaVuSans-74" transform="translate(204.638672 0)"/>
      <use xlink:href="#DejaVuSans-20" transform="translate(243.847656 0)"/>
      <use xlink:href="#DejaVuSans-5b" transform="translate(275.634766 0)"/>
      <use xlink:href="#DejaVuSans-4d" transform="translate(314.648438 0)"/>
      <use xlink:href="#DejaVuSans-50" transform="translate(400.927734 0)"/>
      <use xlink:href="#DejaVuSans-61" transform="translate(456.730469 0)"/>
      <use xlink:href="#DejaVuSans-5d" transform="translate(518.009766 0)"/>
     </g>
    </g>
   </g>
   <g id="line2d_27">
    <path d="M 68.593853 55.8 
L 69.194559 67.081069 
L 69.795264 71.753841 
L 70.996675 78.362139 
L 72.198087 83.432864 
L 73.399498 87.707682 
L 75.201614 93.215074 
L 77.003731 98.009896 
L 79.406553 103.661524 
L 81.809375 108.712905 
L 84.812903 114.418156 
L 87.816431 119.615365 
L 91.420664 125.341182 
L 95.024897 130.630148 
L 99.229836 136.362949 
L 103.434775 141.714064 
L 108.240419 147.44784 
L 113.046064 152.843428 
L 118.452413 158.575433 
L 124.459469 164.590693 
L 130.466524 170.290349 
L 137.074285 176.24886 
L 144.282752 182.429689 
L 151.491218 188.322558 
L 159.30039 194.424101 
L 167.710268 200.707959 
L 176.720851 207.151427 
L 186.33214 213.734971 
L 196.544134 220.441786 
L 206.756128 226.885887 
L 217.568828 233.454457 
L 228.982233 240.134192 
L 240.996344 246.913434 
L 253.611161 253.781963 
L 266.826683 260.730801 
L 280.64291 267.75205 
L 295.660549 275.129055 
L 311.278893 282.546687 
L 327.497942 290.001085 
L 344.317698 297.488847 
L 362.338864 305.262171 
L 368.345919 307.8 
L 368.345919 307.8 
" clip-path="url(#p2b5e362178)" style="fill: none; stroke: #4682b4; stroke-width: 2.5; stroke-linecap: square"/>
   </g>
   <g id="line2d_28">
    <path d="M 53.60625 85.219993 
L 383.333523 85.219993 
" clip-path="url(#p2b5e362178)" style="fill: none; stroke-dasharray: 5.55,2.4; stroke-dashoffset: 0; stroke: #ffa500; stroke-width: 1.5"/>
   </g>
   <g id="line2d_29">
    <path d="M 53.60625 114.639986 
L 383.333523 114.639986 
" clip-path="url(#p2b5e362178)" style="fill: none; stroke-dasharray: 5.55,2.4; stroke-dashoffset: 0; stroke: #ff0000; stroke-width: 1.5"/>
   </g>
   <g id="line2d_30">
    <path d="M 72.798792 320.4 
L 72.798792 43.2 
" clip-path="url(#p2b5e362178)" style="fill: none; stroke-dasharray: 1,1.65; stroke-dashoffset: 0; stroke: #ffa500"/>
   </g>
   <g id="line2d_31">
    <path d="M 85.413609 320.4 
L 85.413609 43.2 
" clip-path="url(#p2b5e362178)" style="fill: none; stroke-dasharray: 1,1.65; stroke-dashoffset: 0; stroke: #ff0000"/>
   </g>
   <g id="patch_3">
    <path d="M 53.60625 320.4 
L 53.60625 43.2 
" style="fill: none; stroke: #000000; stroke-width: 0.8; stroke-linejoin: miter; stroke-linecap: square"/>
   </g>
   <g id="patch_4">
    <path d="M 383.333523 320.4 
L 383.333523 43.2 
" style="fill: none; stroke: #000000; stroke-width: 0.8; stroke-linejoin: miter; stroke-linecap: square"/>
   </g>
   <g id="patch_5">
    <path d="M 53.60625 320.4 
L 383.333523 320.4 
" style="fill: none; stroke: #000000; stroke-width: 0.8; stroke-linejoin: miter; stroke-linecap: square"/>
   </g>
   <g id="patch_6">
    <path d="M 53.60625 43.2 
L 383.333523 43.2 
" style="fill: none; stroke: #000000; stroke-width: 0.8; stroke-linejoin: miter; stroke-linecap: square"/>
   </g>
   <g id="text_16">
    <!-- YELLOW -->
    <g style="fill: #ffa500" transform="translate(72.798792 90.97174) scale(0.08 -0.08)">
     <defs>
      <path id="DejaVuSans-59" d="M -13 4666 
L 666 4666 
L 1959 2747 
L 3244 4666 
L 3922 4666 
L 2272 2222 
L 2272 0 
L 1638 0 
L 1638 2222 
L -13 4666 
z
" transform="scale(0.015625)"/>
      <path id="DejaVuSans-45" d="M 628 4666 
L 3578 4666 
L 3578 4134 
L 1259 4134 
L 1259 2753 
L 3481 2753 
L 3481 2222 
L 1259 2222 
L 1259 531 
L 3634 531 
L 3634 0 
L 628 0 
L 628 4666 
z
" transform="scale(0.015625)"/>
      <path id="DejaVuSans-4c" d="M 628 4666 
L 1259 4666 
L 1259 531 
L 3531 531 
L 3531 0 
L 628 0 
L 628 4666 
z
" transform="scale(0.015625)"/>
      <path id="DejaVuSans-4f" d="M 2522 4238 
Q 1834 4238 1429 3725 
Q 1025 3213 1025 2328 
Q 1025 1447 1429 934 
Q 1834 422 2522 422 
Q 3209 422 3611 934 
Q 4013 1447 4013 2328 
Q 4013 3213 3611 3725 
Q 3209 4238 2522 4238 
z
M 2522 4750 
Q 3503 4750 4090 4092 
Q 4678 3434 4678 2328 
Q 4678 1225 4090 567 
Q 3503 -91 2522 -91 
Q 1538 -91 948 565 
Q 359 1222 359 2328 
Q 359 3434 948 4092 
Q 1538 4750 2522 4750 
z
" transform="scale(0.015625)"/>
      <path id="DejaVuSans-57" d="M 213 4666 
L 850 4666 
L 1831 722 
L 2809 4666 
L 3519 4666 
L 4500 722 
L 5478 4666 
L 6119 4666 
L 4947 0 
L 4153 0 
L 3169 4050 
L 2175 0 
L 1381 0 
L 213 4666 
z
" transform="scale(0.015625)"/>
     </defs>
     <use xlink:href="#DejaVuSans-59"/>
     <use xlink:href="#DejaVuSans-45" transform="translate(61.083984 0)"/>
     <use xlink:href="#DejaVuSans-4c" transform="translate(124.267578 0)"/>
     <use xlink:href="#DejaVuSans-4c" transform="translate(179.980469 0)"/>
     <use xlink:href="#DejaVuSans-4f" transform="translate(232.068359 0)"/>
     <use xlink:href="#DejaVuSans-57" transform="translate(310.779297 0)"/>
    </g>
    <!-- 70 h -->
    <g style="fill: #ffa500" transform="translate(72.798792 99.92999) scale(0.08 -0.08)">
     <defs>
      <path id="DejaVuSans-37" d="M 525 4666 
L 3525 4666 
L 3525 4397 
L 1831 0 
L 1172 0 
L 2766 4134 
L 525 4134 
L 525 4666 
z
" transform="scale(0.015625)"/>
     </defs>
     <use xlink:href="#DejaVuSans-37"/>
     <use xlink:href="#DejaVuSans-30" transform="translate(63.623047 0)"/>
     <use xlink:href="#DejaVuSans-20" transform="translate(127.246094 0)"/>
     <use xlink:href="#DejaVuSans-68" transform="translate(159.033203 0)"/>
    </g>
   </g>
   <g id="text_17">
    <!-- RED -->
    <g style="fill: #ff0000" transform="translate(85.413609 120.391733) scale(0.08 -0.08)">
     <defs>
      <path id="DejaVuSans-52" d="M 2841 2188 
Q 3044 2119 3236 1894 
Q 3428 1669 3622 1275 
L 4263 0 
L 3584 0 
L 2988 1197 
Q 2756 1666 2539 1819 
Q 2322 1972 1947 1972 
L 1259 1972 
L 1259 0 
L 628 0 
L 628 4666 
L 2053 4666 
Q 2853 4666 3247 4331 
Q 3641 3997 3641 3322 
Q 3641 2881 3436 2590 
Q 3231 2300 2841 2188 
z
M 1259 4147 
L 1259 2491 
L 2053 2491 
Q 2509 2491 2742 2702 
Q 2975 2913 2975 3322 
Q 2975 3731 2742 3939 
Q 2509 4147 2053 4147 
L 1259 4147 
z
" transform="scale(0.015625)"/>
      <path id="DejaVuSans-44" d="M 1259 4147 
L 1259 519 
L 2022 519 
Q 2988 519 3436 956 
Q 3884 1394 3884 2338 
Q 3884 3275 3436 3711 
Q 2988 4147 2022 4147 
L 1259 4147 
z
M 628 4666 
L 1925 4666 
Q 3281 4666 3915 4102 
Q 4550 3538 4550 2338 
Q 4550 1131 3912 565 
Q 3275 0 1925 0 
L 628 0 
L 628 4666 
z
" transform="scale(0.015625)"/>
     </defs>
     <use xlink:href="#DejaVuSans-52"/>
     <use xlink:href="#DejaVuSans-45" transform="translate(69.482422 0)"/>
     <use xlink:href="#DejaVuSans-44" transform="translate(132.666016 0)"/>
    </g>
    <!-- 281 h -->
    <g style="fill: #ff0000" transform="translate(85.413609 129.349983) scale(0.08 -0.08)">
     <use xlink:href="#DejaVuSans-32"/>
     <use xlink:href="#DejaVuSans-38" transform="translate(63.623047 0)"/>
     <use xlink:href="#DejaVuSans-31" transform="translate(127.246094 0)"/>
     <use xlink:href="#DejaVuSans-20" transform="translate(190.869141 0)"/>
     <use xlink:href="#DejaVuSans-68" transform="translate(222.65625 0)"/>
    </g>
   </g>
   <g id="text_18">
    <!-- Alterungsbedingter Rückgang des Kompressionsmoduls -->
    <g transform="translate(51.209574 37.2) scale(0.12 -0.12)">
     <defs>
      <path id="DejaVuSans-41" d="M 2188 4044 
L 1331 1722 
L 3047 1722 
L 2188 4044 
z
M 1831 4666 
L 2547 4666 
L 4325 0 
L 3669 0 
L 3244 1197 
L 1141 1197 
L 716 0 
L 50 0 
L 1831 4666 
z
" transform="scale(0.015625)"/>
      <path id="DejaVuSans-75" d="M 544 1381 
L 544 3500 
L 1119 3500 
L 1119 1403 
Q 1119 906 1312 657 
Q 1506 409 1894 409 
Q 2359 409 2629 706 
Q 2900 1003 2900 1516 
L 2900 3500 
L 3475 3500 
L 3475 0 
L 2900 0 
L 2900 538 
Q 2691 219 2414 64 
Q 2138 -91 1772 -91 
Q 1169 -91 856 284 
Q 544 659 544 1381 
z
M 1991 3584 
L 1991 3584 
z
" transform="scale(0.015625)"/>
      <path id="DejaVuSans-6e" d="M 3513 2113 
L 3513 0 
L 2938 0 
L 2938 2094 
Q 2938 2591 2744 2837 
Q 2550 3084 2163 3084 
Q 1697 3084 1428 2787 
Q 1159 2491 1159 1978 
L 1159 0 
L 581 0 
L 581 3500 
L 1159 3500 
L 1159 2956 
Q 1366 3272 1645 3428 
Q 1925 3584 2291 3584 
Q 2894 3584 3203 3211 
Q 3513 2838 3513 2113 
z
" transform="scale(0.015625)"/>
      <path id="DejaVuSans-67" d="M 2906 1791 
Q 2906 2416 2648 2759 
Q 2391 3103 1925 3103 
Q 1463 3103 1205 2759 
Q 947 2416 947 1791 
Q 947 1169 1205 825 
Q 1463 481 1925 481 
Q 2391 481 2648 825 
Q 2906 1169 2906 1791 
z
M 3481 434 
Q 3481 -459 3084 -895 
Q 2688 -1331 1869 -1331 
Q 1566 -1331 1297 -1286 
Q 1028 -1241 775 -1147 
L 775 -588 
Q 1028 -725 1275 -790 
Q 1522 -856 1778 -856 
Q 2344 -856 2625 -561 
Q 2906 -266 2906 331 
L 2906 616 
Q 2728 306 2450 153 
Q 2172 0 1784 0 
Q 1141 0 747 490 
Q 353 981 353 1791 
Q 353 2603 747 3093 
Q 1141 3584 1784 3584 
Q 2172 3584 2450 3431 
Q 2728 3278 2906 2969 
L 2906 3500 
L 3481 3500 
L 3481 434 
z
" transform="scale(0.015625)"/>
      <path id="DejaVuSans-64" d="M 2906 2969 
L 2906 4863 
L 3481 4863 
L 3481 0 
L 2906 0 
L 2906 525 
Q 2725 213 2448 61 
Q 2172 -91 1784 -91 
Q 1150 -91 751 415 
Q 353 922 353 1747 
Q 353 2572 751 3078 
Q 1150 3584 1784 3584 
Q 2172 3584 2448 3432 
Q 2725 3281 2906 2969 
z
M 947 1747 
Q 947 1113 1208 752 
Q 1469 391 1925 391 
Q 2381 391 2643 752 
Q 2906 1113 2906 1747 
Q 2906 2381 2643 2742 
Q 2381 3103 1925 3103 
Q 1469 3103 1208 2742 
Q 947 2381 947 1747 
z
" transform="scale(0.015625)"/>
      <path id="DejaVuSans-fc" d="M 544 1381 
L 544 3500 
L 1119 3500 
L 1119 1403 
Q 1119 906 1312 657 
Q 1506 409 1894 409 
Q 2359 409 2629 706 
Q 2900 1003 2900 1516 
L 2900 3500 
L 3475 3500 
L 3475 0 
L 2900 0 
L 2900 538 
Q 2691 219 2414 64 
Q 2138 -91 1772 -91 
Q 1169 -91 856 284 
Q 544 659 544 1381 
z
M 1991 3584 
L 1991 3584 
z
M 2278 4850 
L 2912 4850 
L 2912 4219 
L 2278 4219 
L 2278 4850 
z
M 1056 4850 
L 1690 4850 
L 1690 4219 
L 1056 4219 
L 1056 4850 
z
" transform="scale(0.015625)"/>
      <path id="DejaVuSans-63" d="M 3122 3366 
L 3122 2828 
Q 2878 2963 2633 3030 
Q 2388 3097 2138 3097 
Q 1578 3097 1268 2742 
Q 959 2388 959 1747 
Q 959 1106 1268 751 
Q 1578 397 2138 397 
Q 2388 397 2633 464 
Q 2878 531 3122 666 
L 3122 134 
Q 2881 22 2623 -34 
Q 2366 -91 2075 -91 
Q 1284 -91 818 406 
Q 353 903 353 1747 
Q 353 2603 823 3093 
Q 1294 3584 2113 3584 
Q 2378 3584 2631 3529 
Q 2884 3475 3122 3366 
z
" transform="scale(0.015625)"/>
      <path id="DejaVuSans-6b" d="M 581 4863 
L 1159 4863 
L 1159 1991 
L 2875 3500 
L 3609 3500 
L 1753 1863 
L 3688 0 
L 2938 0 
L 1159 1709 
L 1159 0 
L 581 0 
L 581 4863 
z
" transform="scale(0.015625)"/>
      <path id="DejaVuSans-6f" d="M 1959 3097 
Q 1497 3097 1228 2736 
Q 959 2375 959 1747 
Q 959 1119 1226 758 
Q 1494 397 1959 397 
Q 2419 397 2687 759 
Q 2956 1122 2956 1747 
Q 2956 2369 2687 2733 
Q 2419 3097 1959 3097 
z
M 1959 3584 
Q 2709 3584 3137 3096 
Q 3566 2609 3566 1747 
Q 3566 888 3137 398 
Q 2709 -91 1959 -91 
Q 1206 -91 779 398 
Q 353 888 353 1747 
Q 353 2609 779 3096 
Q 1206 3584 1959 3584 
z
" transform="scale(0.015625)"/>
      <path id="DejaVuSans-6d" d="M 3328 2828 
Q 3544 3216 3844 3400 
Q 4144 3584 4550 3584 
Q 5097 3584 5394 3201 
Q 5691 2819 5691 2113 
L 5691 0 
L 5113 0 
L 5113 2094 
Q 5113 2597 4934 2840 
Q 4756 3084 4391 3084 
Q 3944 3084 3684 2787 
Q 3425 2491 3425 1978 
L 3425 0 
L 2847 0 
L 2847 2094 
Q 2847 2600 2669 2842 
Q 2491 3084 2119 3084 
Q 1678 3084 1418 2786 
Q 1159 2488 1159 1978 
L 1159 0 
L 581 0 
L 581 3500 
L 1159 3500 
L 1159 2956 
Q 1356 3278 1631 3431 
Q 1906 3584 2284 3584 
Q 2666 3584 2933 3390 
Q 3200 3197 3328 2828 
z
" transform="scale(0.015625)"/>
      <path id="DejaVuSans-70" d="M 1159 525 
L 1159 -1331 
L 581 -1331 
L 581 3500 
L 1159 3500 
L 1159 2969 
Q 1341 3281 1617 3432 
Q 1894 3584 2278 3584 
Q 2916 3584 3314 3078 
Q 3713 2572 3713 1747 
Q 3713 922 3314 415 
Q 2916 -91 2278 -91 
Q 1894 -91 1617 61 
Q 1341 213 1159 525 
z
M 3116 1747 
Q 3116 2381 2855 2742 
Q 2594 3103 2138 3103 
Q 1681 3103 1420 2742 
Q 1159 2381 1159 1747 
Q 1159 1113 1420 752 
Q 1681 391 2138 391 
Q 2594 391 2855 752 
Q 3116 1113 3116 1747 
z
" transform="scale(0.015625)"/>
     </defs>
     <use xlink:href="#DejaVuSans-41"/>
     <use xlink:href="#DejaVuSans-6c" transform="translate(68.408203 0)"/>
     <use xlink:href="#DejaVuSans-74" transform="translate(96.191406 0)"/>
     <use xlink:href="#DejaVuSans-65" transform="translate(135.400391 0)"/>
     <use xlink:href="#DejaVuSans-72" transform="translate(196.923828 0)"/>
     <use xlink:href="#DejaVuSans-75" transform="translate(238.037109 0)"/>
     <use xlink:href="#DejaVuSans-6e" transform="translate(301.416016 0)"/>
     <use xlink:href="#DejaVuSans-67" transform="translate(364.794922 0)"/>
     <use xlink:href="#DejaVuSans-73" transform="translate(428.271484 0)"/>
     <use xlink:href="#DejaVuSans-62" transform="translate(480.371094 0)"/>
     <use xlink:href="#DejaVuSans-65" transform="translate(543.847656 0)"/>
     <use xlink:href="#DejaVuSans-64" transform="translate(605.371094 0)"/>
     <use xlink:href="#DejaVuSans-69" transform="translate(668.847656 0)"/>
     <use xlink:href="#DejaVuSans-6e" transform="translate(696.630859 0)"/>
     <use xlink:href="#DejaVuSans-67" transform="translate(760.009766 0)"/>
     <use xlink:href="#DejaVuSans-74" transform="translate(823.486328 0)"/>
     <use xlink:href="#DejaVuSans-65" transform="translate(862.695312 0)"/>
     <use xlink:href="#DejaVuSans-72" transform="translate(924.21875 0)"/>
     <use xlink:href="#DejaVuSans-20" transform="translate(965.332031 0)"/>
     <use xlink:href="#DejaVuSans-52" transform="translate(997.119141 0)"/>
     <use xlink:href="#DejaVuSans-fc" transform="translate(1062.101562 0)"/>
     <use xlink:href="#DejaVuSans-63" transform="translate(1125.480469 0)"/>
     <use xlink:href="#DejaVuSans-6b" transform="translate(1180.460938 0)"/>
     <use xlink:href="#DejaVuSans-67" transform="translate(1238.371094 0)"/>
     <use xlink:href="#DejaVuSans-61" transform="translate(1301.847656 0)"/>
     <use xlink:href="#DejaVuSans-6e" transform="translate(1363.126953 0)"/>
     <use xlink:href="#DejaVuSans-67" transform="translate(1426.505859 0)"/>
     <use xlink:href="#DejaVuSans-20" transform="translate(1489.982422 0)"/>
     <use xlink:href="#DejaVuSans-64" transform="translate(1521.769531 0)"/>
     <use xlink:href="#DejaVuSans-65" transform="translate(1585.246094 0)"/>
     <use xlink:href="#DejaVuSans-73" transform="translate(1646.769531 0)"/>
     <use xlink:href="#DejaVuSans-20" transform="translate(1698.869141 0)"/>
     <use xlink:href="#DejaVuSans-4b" transform="translate(1730.65625 0)"/>
     <use xlink:href="#DejaVuSans-6f" transform="translate(1791.232422 0)"/>
     <use xlink:href="#DejaVuSans-6d" transform="translate(1852.414062 0)"/>
     <use xlink:href="#DejaVuSans-70" transform="translate(1949.826172 0)"/>
     <use xlink:href="#DejaVuSans-72" transform="translate(2013.302734 0)"/>
     <use xlink:href="#DejaVuSans-65" transform="translate(2052.166016 0)"/>
     <use xlink:href="#DejaVuSans-73" transform="translate(2113.689453 0)"/>
     <use xlink:href="#DejaVuSans-73" transform="translate(2165.789062 0)"/>
     <use xlink:href="#DejaVuSans-69" transform="translate(2217.888672 0)"/>
     <use xlink:href="#DejaVuSans-6f" transform="translate(2245.671875 0)"/>
     <use xlink:href="#DejaVuSans-6e" transform="translate(2306.853516 0)"/>
     <use xlink:href="#DejaVuSans-73" transform="translate(2370.232422 0)"/>
     <use xlink:href="#DejaVuSans-6d" transform="translate(2422.332031 0)"/>
     <use xlink:href="#DejaVuSans-6f" transform="translate(2519.744141 0)"/>
     <use xlink:href="#DejaVuSans-64" transform="translate(2580.925781 0)"/>
     <use xlink:href="#DejaVuSans-75" transform="translate(2644.402344 0)"/>
     <use xlink:href="#DejaVuSans-6c" transform="translate(2707.78125 0)"/>
     <use xlink:href="#DejaVuSans-73" transform="translate(2735.564453 0)"/>
    </g>
   </g>
   <g id="legend_1">
    <g id="patch_7">
     <path d="M 227.883523 205.45625 
L 376.333523 205.45625 
Q 378.333523 205.45625 378.333523 203.45625 
L 378.333523 160.14375 
Q 378.333523 158.14375 376.333523 158.14375 
L 227.883523 158.14375 
Q 225.883523 158.14375 225.883523 160.14375 
L 225.883523 203.45625 
Q 225.883523 205.45625 227.883523 205.45625 
z
" style="fill: #ffffff; opacity: 0.8; stroke: #cccccc; stroke-linejoin: miter"/>
    </g>
    <g id="line2d_32">
     <path d="M 229.883523 166.242187 
L 239.883523 166.242187 
L 249.883523 166.242187 
" style="fill: none; stroke: #4682b4; stroke-width: 2.5; stroke-linecap: square"/>
    </g>
    <g id="text_19">
     <!-- K_alt(t) -->
     <g transform="translate(257.883523 169.742187) scale(0.1 -0.1)">
      <defs>
       <path id="DejaVuSans-28" d="M 1984 4856 
Q 1566 4138 1362 3434 
Q 1159 2731 1159 2009 
Q 1159 1288 1364 580 
Q 1569 -128 1984 -844 
L 1484 -844 
Q 1016 -109 783 600 
Q 550 1309 550 2009 
Q 550 2706 781 3412 
Q 1013 4119 1484 4856 
L 1984 4856 
z
" transform="scale(0.015625)"/>
       <path id="DejaVuSans-29" d="M 513 4856 
L 1013 4856 
Q 1481 4119 1714 3412 
Q 1947 2706 1947 2009 
Q 1947 1309 1714 600 
Q 1481 -109 1013 -844 
L 513 -844 
Q 928 -128 1133 580 
Q 1338 1288 1338 2009 
Q 1338 2731 1133 3434 
Q 928 4138 513 4856 
z
" transform="scale(0.015625)"/>
      </defs>
      <use xlink:href="#DejaVuSans-4b"/>
      <use xlink:href="#DejaVuSans-5f" transform="translate(65.576172 0)"/>
      <use xlink:href="#DejaVuSans-61" transform="translate(115.576172 0)"/>
      <use xlink:href="#DejaVuSans-6c" transform="translate(176.855469 0)"/>
      <use xlink:href="#DejaVuSans-74" transform="translate(204.638672 0)"/>
      <use xlink:href="#DejaVuSans-28" transform="translate(243.847656 0)"/>
      <use xlink:href="#DejaVuSans-74" transform="translate(282.861328 0)"/>
      <use xlink:href="#DejaVuSans-29" transform="translate(322.070312 0)"/>
     </g>
    </g>
    <g id="line2d_33">
     <path d="M 229.883523 181.198437 
L 239.883523 181.198437 
L 249.883523 181.198437 
" style="fill: none; stroke-dasharray: 5.55,2.4; stroke-dashoffset: 0; stroke: #ffa500; stroke-width: 1.5"/>
    </g>
    <g id="text_20">
     <!-- YELLOW-Grenze (90 %) -->
     <g transform="translate(257.883523 184.698437) scale(0.1 -0.1)">
      <defs>
       <path id="DejaVuSans-2d" d="M 313 2009 
L 1997 2009 
L 1997 1497 
L 313 1497 
L 313 2009 
z
" transform="scale(0.015625)"/>
       <path id="DejaVuSans-47" d="M 3809 666 
L 3809 1919 
L 2778 1919 
L 2778 2438 
L 4434 2438 
L 4434 434 
Q 4069 175 3628 42 
Q 3188 -91 2688 -91 
Q 1594 -91 976 548 
Q 359 1188 359 2328 
Q 359 3472 976 4111 
Q 1594 4750 2688 4750 
Q 3144 4750 3555 4637 
Q 3966 4525 4313 4306 
L 4313 3634 
Q 3963 3931 3569 4081 
Q 3175 4231 2741 4231 
Q 1884 4231 1454 3753 
Q 1025 3275 1025 2328 
Q 1025 1384 1454 906 
Q 1884 428 2741 428 
Q 3075 428 3337 486 
Q 3600 544 3809 666 
z
" transform="scale(0.015625)"/>
       <path id="DejaVuSans-39" d="M 703 97 
L 703 672 
Q 941 559 1184 500 
Q 1428 441 1663 441 
Q 2288 441 2617 861 
Q 2947 1281 2994 2138 
Q 2813 1869 2534 1725 
Q 2256 1581 1919 1581 
Q 1219 1581 811 2004 
Q 403 2428 403 3163 
Q 403 3881 828 4315 
Q 1253 4750 1959 4750 
Q 2769 4750 3195 4129 
Q 3622 3509 3622 2328 
Q 3622 1225 3098 567 
Q 2575 -91 1691 -91 
Q 1453 -91 1209 -44 
Q 966 3 703 97 
z
M 1959 2075 
Q 2384 2075 2632 2365 
Q 2881 2656 2881 3163 
Q 2881 3666 2632 3958 
Q 2384 4250 1959 4250 
Q 1534 4250 1286 3958 
Q 1038 3666 1038 3163 
Q 1038 2656 1286 2365 
Q 1534 2075 1959 2075 
z
" transform="scale(0.015625)"/>
       <path id="DejaVuSans-25" d="M 4653 2053 
Q 4381 2053 4226 1822 
Q 4072 1591 4072 1178 
Q 4072 772 4226 539 
Q 4381 306 4653 306 
Q 4919 306 5073 539 
Q 5228 772 5228 1178 
Q 5228 1588 5073 1820 
Q 4919 2053 4653 2053 
z
M 4653 2450 
Q 5147 2450 5437 2106 
Q 5728 1763 5728 1178 
Q 5728 594 5436 251 
Q 5144 -91 4653 -91 
Q 4153 -91 3862 251 
Q 3572 594 3572 1178 
Q 3572 1766 3864 2108 
Q 4156 2450 4653 2450 
z
M 1428 4353 
Q 1159 4353 1004 4120 
Q 850 3888 850 3481 
Q 850 3069 1003 2837 
Q 1156 2606 1428 2606 
Q 1700 2606 1854 2837 
Q 2009 3069 2009 3481 
Q 2009 3884 1853 4118 
Q 1697 4353 1428 4353 
z
M 4250 4750 
L 4750 4750 
L 1831 -91 
L 1331 -91 
L 4250 4750 
z
M 1428 4750 
Q 1922 4750 2215 4408 
Q 2509 4066 2509 3481 
Q 2509 2891 2217 2550 
Q 1925 2209 1428 2209 
Q 931 2209 642 2551 
Q 353 2894 353 3481 
Q 353 4063 643 4406 
Q 934 4750 1428 4750 
z
" transform="scale(0.015625)"/>
      </defs>
      <use xlink:href="#DejaVuSans-59"/>
      <use xlink:href="#DejaVuSans-45" transform="translate(61.083984 0)"/>
      <use xlink:href="#DejaVuSans-4c" transform="translate(124.267578 0)"/>
      <use xlink:href="#DejaVuSans-4c" transform="translate(179.980469 0)"/>
      <use xlink:href="#DejaVuSans-4f" transform="translate(232.068359 0)"/>
      <use xlink:href="#DejaVuSans-57" transform="translate(310.779297 0)"/>
      <use xlink:href="#DejaVuSans-2d" transform="translate(405.65625 0)"/>
      <use xlink:href="#DejaVuSans-47" transform="translate(445.365234 0)"/>
      <use xlink:href="#DejaVuSans-72" transform="translate(522.855469 0)"/>
      <use xlink:href="#DejaVuSans-65" transform="translate(561.71875 0)"/>
      <use xlink:href="#DejaVuSans-6e" transform="translate(623.242188 0)"/>
      <use xlink:href="#DejaVuSans-7a" transform="translate(686.621094 0)"/>
      <use xlink:href="#DejaVuSans-65" transform="translate(739.111328 0)"/>
      <use xlink:href="#DejaVuSans-20" transform="translate(800.634766 0)"/>
      <use xlink:href="#DejaVuSans-28" transform="translate(832.421875 0)"/>
      <use xlink:href="#DejaVuSans-39" transform="translate(871.435547 0)"/>
      <use xlink:href="#DejaVuSans-30" transform="translate(935.058594 0)"/>
      <use xlink:href="#DejaVuSans-20" transform="translate(998.681641 0)"/>
      <use xlink:href="#DejaVuSans-25" transform="translate(1030.46875 0)"/>
      <use xlink:href="#DejaVuSans-29" transform="translate(1125.488281 0)"/>
     </g>
    </g>
    <g id="line2d_34">
     <path d="M 229.883523 195.876562 
L 239.883523 195.876562 
L 249.883523 195.876562 
" style="fill: none; stroke-dasharray: 5.55,2.4; stroke-dashoffset: 0; stroke: #ff0000; stroke-width: 1.5"/>
    </g>
    <g id="text_21">
     <!-- RED-Grenze (80 %) -->
     <g transform="translate(257.883523 199.376562) scale(0.1 -0.1)">
      <use xlink:href="#DejaVuSans-52"/>
      <use xlink:href="#DejaVuSans-45" transform="translate(69.482422 0)"/>
      <use xlink:href="#DejaVuSans-44" transform="translate(132.666016 0)"/>
      <use xlink:href="#DejaVuSans-2d" transform="translate(209.667969 0)"/>
      <use xlink:href="#DejaVuSans-47" transform="translate(249.376953 0)"/>
      <use xlink:href="#DejaVuSans-72" transform="translate(326.867188 0)"/>
      <use xlink:href="#DejaVuSans-65" transform="translate(365.730469 0)"/>
      <use xlink:href="#DejaVuSans-6e" transform="translate(427.253906 0)"/>
      <use xlink:href="#DejaVuSans-7a" transform="translate(490.632812 0)"/>
      <use xlink:href="#DejaVuSans-65" transform="translate(543.123047 0)"/>
      <use xlink:href="#DejaVuSans-20" transform="translate(604.646484 0)"/>
      <use xlink:href="#DejaVuSans-28" transform="translate(636.433594 0)"/>
      <use xlink:href="#DejaVuSans-38" transform="translate(675.447266 0)"/>
      <use xlink:href="#DejaVuSans-30" transform="translate(739.070312 0)"/>
      <use xlink:href="#DejaVuSans-20" transform="translate(802.693359 0)"/>
      <use xlink:href="#DejaVuSans-25" transform="translate(834.480469 0)"/>
      <use xlink:href="#DejaVuSans-29" transform="translate(929.5 0)"/>
     </g>
    </g>
   </g>
  </g>
  <g id="axes_2">
   <g id="patch_8">
    <path d="M 449.278977 320.4 
L 779.00625 320.4 
L 779.00625 43.2 
L 449.278977 43.2 
z
" style="fill: #ffffff"/>
   </g>
   <g id="matplotlib.axis_3">
    <g id="xtick_7">
     <g id="line2d_35">
      <path d="M 464.266581 320.4 
L 464.266581 43.2 
" clip-path="url(#pdec12b7a4a)" style="fill: none; stroke: #b0b0b0; stroke-opacity: 0.3; stroke-width: 0.8; stroke-linecap: square"/>
     </g>
     <g id="line2d_36">
      <g>
       <use xlink:href="#m1c692a646b" x="464.266581" y="320.4" style="stroke: #000000; stroke-width: 0.8"/>
      </g>
     </g>
     <g id="text_22">
      <!-- 0 -->
      <g transform="translate(461.085331 334.998437) scale(0.1 -0.1)">
       <use xlink:href="#DejaVuSans-30"/>
      </g>
     </g>
    </g>
    <g id="xtick_8">
     <g id="line2d_37">
      <path d="M 524.216994 320.4 
L 524.216994 43.2 
" clip-path="url(#pdec12b7a4a)" style="fill: none; stroke: #b0b0b0; stroke-opacity: 0.3; stroke-width: 0.8; stroke-linecap: square"/>
     </g>
     <g id="line2d_38">
      <g>
       <use xlink:href="#m1c692a646b" x="524.216994" y="320.4" style="stroke: #000000; stroke-width: 0.8"/>
      </g>
     </g>
     <g id="text_23">
      <!-- 1000 -->
      <g transform="translate(511.491994 334.998437) scale(0.1 -0.1)">
       <use xlink:href="#DejaVuSans-31"/>
       <use xlink:href="#DejaVuSans-30" transform="translate(63.623047 0)"/>
       <use xlink:href="#DejaVuSans-30" transform="translate(127.246094 0)"/>
       <use xlink:href="#DejaVuSans-30" transform="translate(190.869141 0)"/>
      </g>
     </g>
    </g>
    <g id="xtick_9">
     <g id="line2d_39">
      <path d="M 584.167407 320.4 
L 584.167407 43.2 
" clip-path="url(#pdec12b7a4a)" style="fill: none; stroke: #b0b0b0; stroke-opacity: 0.3; stroke-width: 0.8; stroke-linecap: square"/>
     </g>
     <g id="line2d_40">
      <g>
       <use xlink:href="#m1c692a646b" x="584.167407" y="320.4" style="stroke: #000000; stroke-width: 0.8"/>
      </g>
     </g>
     <g id="text_24">
      <!-- 2000 -->
      <g transform="translate(571.442407 334.998437) scale(0.1 -0.1)">
       <use xlink:href="#DejaVuSans-32"/>
       <use xlink:href="#DejaVuSans-30" transform="translate(63.623047 0)"/>
       <use xlink:href="#DejaVuSans-30" transform="translate(127.246094 0)"/>
       <use xlink:href="#DejaVuSans-30" transform="translate(190.869141 0)"/>
      </g>
     </g>
    </g>
    <g id="xtick_10">
     <g id="line2d_41">
      <path d="M 644.11782 320.4 
L 644.11782 43.2 
" clip-path="url(#pdec12b7a4a)" style="fill: none; stroke: #b0b0b0; stroke-opacity: 0.3; stroke-width: 0.8; stroke-linecap: square"/>
     </g>
     <g id="line2d_42">
      <g>
       <use xlink:href="#m1c692a646b" x="644.11782" y="320.4" style="stroke: #000000; stroke-width: 0.8"/>
      </g>
     </g>
     <g id="text_25">
      <!-- 3000 -->
      <g transform="translate(631.39282 334.998437) scale(0.1 -0.1)">
       <use xlink:href="#DejaVuSans-33"/>
       <use xlink:href="#DejaVuSans-30" transform="translate(63.623047 0)"/>
       <use xlink:href="#DejaVuSans-30" transform="translate(127.246094 0)"/>
       <use xlink:href="#DejaVuSans-30" transform="translate(190.869141 0)"/>
      </g>
     </g>
    </g>
    <g id="xtick_11">
     <g id="line2d_43">
      <path d="M 704.068233 320.4 
L 704.068233 43.2 
" clip-path="url(#pdec12b7a4a)" style="fill: none; stroke: #b0b0b0; stroke-opacity: 0.3; stroke-width: 0.8; stroke-linecap: square"/>
     </g>
     <g id="line2d_44">
      <g>
       <use xlink:href="#m1c692a646b" x="704.068233" y="320.4" style="stroke: #000000; stroke-width: 0.8"/>
      </g>
     </g>
     <g id="text_26">
      <!-- 4000 -->
      <g transform="translate(691.343233 334.998437) scale(0.1 -0.1)">
       <use xlink:href="#DejaVuSans-34"/>
       <use xlink:href="#DejaVuSans-30" transform="translate(63.623047 0)"/>
       <use xlink:href="#DejaVuSans-30" transform="translate(127.246094 0)"/>
       <use xlink:href="#DejaVuSans-30" transform="translate(190.869141 0)"/>
      </g>
     </g>
    </g>
    <g id="xtick_12">
     <g id="line2d_45">
      <path d="M 764.018647 320.4 
L 764.018647 43.2 
" clip-path="url(#pdec12b7a4a)" style="fill: none; stroke: #b0b0b0; stroke-opacity: 0.3; stroke-width: 0.8; stroke-linecap: square"/>
     </g>
     <g id="line2d_46">
      <g>
       <use xlink:href="#m1c692a646b" x="764.018647" y="320.4" style="stroke: #000000; stroke-width: 0.8"/>
      </g>
     </g>
     <g id="text_27">
      <!-- 5000 -->
      <g transform="translate(751.293647 334.998437) scale(0.1 -0.1)">
       <use xlink:href="#DejaVuSans-35"/>
       <use xlink:href="#DejaVuSans-30" transform="translate(63.623047 0)"/>
       <use xlink:href="#DejaVuSans-30" transform="translate(127.246094 0)"/>
       <use xlink:href="#DejaVuSans-30" transform="translate(190.869141 0)"/>
      </g>
     </g>
    </g>
    <g id="text_28">
     <!-- Betriebszeit [h] -->
     <g transform="translate(575.666051 348.676562) scale(0.1 -0.1)">
      <use xlink:href="#DejaVuSans-42"/>
      <use xlink:href="#DejaVuSans-65" transform="translate(68.603516 0)"/>
      <use xlink:href="#DejaVuSans-74" transform="translate(130.126953 0)"/>
      <use xlink:href="#DejaVuSans-72" transform="translate(169.335938 0)"/>
      <use xlink:href="#DejaVuSans-69" transform="translate(210.449219 0)"/>
      <use xlink:href="#DejaVuSans-65" transform="translate(238.232422 0)"/>
      <use xlink:href="#DejaVuSans-62" transform="translate(299.755859 0)"/>
      <use xlink:href="#DejaVuSans-73" transform="translate(363.232422 0)"/>
      <use xlink:href="#DejaVuSans-7a" transform="translate(415.332031 0)"/>
      <use xlink:href="#DejaVuSans-65" transform="translate(467.822266 0)"/>
      <use xlink:href="#DejaVuSans-69" transform="translate(529.345703 0)"/>
      <use xlink:href="#DejaVuSans-74" transform="translate(557.128906 0)"/>
      <use xlink:href="#DejaVuSans-20" transform="translate(596.337891 0)"/>
      <use xlink:href="#DejaVuSans-5b" transform="translate(628.125 0)"/>
      <use xlink:href="#DejaVuSans-68" transform="translate(667.138672 0)"/>
      <use xlink:href="#DejaVuSans-5d" transform="translate(730.517578 0)"/>
     </g>
    </g>
   </g>
   <g id="matplotlib.axis_4">
    <g id="ytick_8">
     <g id="line2d_47">
      <path d="M 449.278977 289.18513 
L 779.00625 289.18513 
" clip-path="url(#pdec12b7a4a)" style="fill: none; stroke: #b0b0b0; stroke-opacity: 0.3; stroke-width: 0.8; stroke-linecap: square"/>
     </g>
     <g id="line2d_48">
      <g>
       <use xlink:href="#mfaa2a9de21" x="449.278977" y="289.18513" style="stroke: #000000; stroke-width: 0.8"/>
      </g>
     </g>
     <g id="text_29">
      <!-- $\mathdefault{10^{-81}}$ -->
      <g transform="translate(414.378977 292.984348) scale(0.1 -0.1)">
       <defs>
        <path id="DejaVuSans-2212" d="M 678 2272 
L 4684 2272 
L 4684 1741 
L 678 1741 
L 678 2272 
z
" transform="scale(0.015625)"/>
       </defs>
       <use xlink:href="#DejaVuSans-31" transform="translate(0 0.765625)"/>
       <use xlink:href="#DejaVuSans-30" transform="translate(63.623047 0.765625)"/>
       <use xlink:href="#DejaVuSans-2212" transform="translate(128.203125 39.046875) scale(0.7)"/>
       <use xlink:href="#DejaVuSans-38" transform="translate(186.855469 39.046875) scale(0.7)"/>
       <use xlink:href="#DejaVuSans-31" transform="translate(231.391602 39.046875) scale(0.7)"/>
      </g>
     </g>
    </g>
    <g id="ytick_9">
     <g id="line2d_49">
      <path d="M 449.278977 257.253174 
L 779.00625 257.253174 
" clip-path="url(#pdec12b7a4a)" style="fill: none; stroke: #b0b0b0; stroke-opacity: 0.3; stroke-width: 0.8; stroke-linecap: square"/>
     </g>
     <g id="line2d_50">
      <g>
       <use xlink:href="#mfaa2a9de21" x="449.278977" y="257.253174" style="stroke: #000000; stroke-width: 0.8"/>
      </g>
     </g>
     <g id="text_30">
      <!-- $\mathdefault{10^{-57}}$ -->
      <g transform="translate(414.878977 261.052393) scale(0.1 -0.1)">
       <use xlink:href="#DejaVuSans-31" transform="translate(0 0.684375)"/>
       <use xlink:href="#DejaVuSans-30" transform="translate(63.623047 0.684375)"/>
       <use xlink:href="#DejaVuSans-2212" transform="translate(128.203125 38.965625) scale(0.7)"/>
       <use xlink:href="#DejaVuSans-35" transform="translate(186.855469 38.965625) scale(0.7)"/>
       <use xlink:href="#DejaVuSans-37" transform="translate(226.316602 38.965625) scale(0.7)"/>
      </g>
     </g>
    </g>
    <g id="ytick_10">
     <g id="line2d_51">
      <path d="M 449.278977 225.321219 
L 779.00625 225.321219 
" clip-path="url(#pdec12b7a4a)" style="fill: none; stroke: #b0b0b0; stroke-opacity: 0.3; stroke-width: 0.8; stroke-linecap: square"/>
     </g>
     <g id="line2d_52">
      <g>
       <use xlink:href="#mfaa2a9de21" x="449.278977" y="225.321219" style="stroke: #000000; stroke-width: 0.8"/>
      </g>
     </g>
     <g id="text_31">
      <!-- $\mathdefault{10^{-33}}$ -->
      <g transform="translate(414.378977 229.120438) scale(0.1 -0.1)">
       <use xlink:href="#DejaVuSans-31" transform="translate(0 0.765625)"/>
       <use xlink:href="#DejaVuSans-30" transform="translate(63.623047 0.765625)"/>
       <use xlink:href="#DejaVuSans-2212" transform="translate(128.203125 39.046875) scale(0.7)"/>
       <use xlink:href="#DejaVuSans-33" transform="translate(186.855469 39.046875) scale(0.7)"/>
       <use xlink:href="#DejaVuSans-33" transform="translate(231.391602 39.046875) scale(0.7)"/>
      </g>
     </g>
    </g>
    <g id="ytick_11">
     <g id="line2d_53">
      <path d="M 449.278977 193.389264 
L 779.00625 193.389264 
" clip-path="url(#pdec12b7a4a)" style="fill: none; stroke: #b0b0b0; stroke-opacity: 0.3; stroke-width: 0.8; stroke-linecap: square"/>
     </g>
     <g id="line2d_54">
      <g>
       <use xlink:href="#mfaa2a9de21" x="449.278977" y="193.389264" style="stroke: #000000; stroke-width: 0.8"/>
      </g>
     </g>
     <g id="text_32">
      <!-- $\mathdefault{10^{-9}}$ -->
      <g transform="translate(418.778977 197.188483) scale(0.1 -0.1)">
       <use xlink:href="#DejaVuSans-31" transform="translate(0 0.765625)"/>
       <use xlink:href="#DejaVuSans-30" transform="translate(63.623047 0.765625)"/>
       <use xlink:href="#DejaVuSans-2212" transform="translate(128.203125 39.046875) scale(0.7)"/>
       <use xlink:href="#DejaVuSans-39" transform="translate(186.855469 39.046875) scale(0.7)"/>
      </g>
     </g>
    </g>
    <g id="ytick_12">
     <g id="line2d_55">
      <path d="M 449.278977 161.457309 
L 779.00625 161.457309 
" clip-path="url(#pdec12b7a4a)" style="fill: none; stroke: #b0b0b0; stroke-opacity: 0.3; stroke-width: 0.8; stroke-linecap: square"/>
     </g>
     <g id="line2d_56">
      <g>
       <use xlink:href="#mfaa2a9de21" x="449.278977" y="161.457309" style="stroke: #000000; stroke-width: 0.8"/>
      </g>
     </g>
     <g id="text_33">
      <!-- $\mathdefault{10^{15}}$ -->
      <g transform="translate(420.178977 165.256528) scale(0.1 -0.1)">
       <use xlink:href="#DejaVuSans-31" transform="translate(0 0.684375)"/>
       <use xlink:href="#DejaVuSans-30" transform="translate(63.623047 0.684375)"/>
       <use xlink:href="#DejaVuSans-31" transform="translate(128.203125 38.965625) scale(0.7)"/>
       <use xlink:href="#DejaVuSans-35" transform="translate(172.739258 38.965625) scale(0.7)"/>
      </g>
     </g>
    </g>
    <g id="ytick_13">
     <g id="line2d_57">
      <path d="M 449.278977 129.525354 
L 779.00625 129.525354 
" clip-path="url(#pdec12b7a4a)" style="fill: none; stroke: #b0b0b0; stroke-opacity: 0.3; stroke-width: 0.8; stroke-linecap: square"/>
     </g>
     <g id="line2d_58">
      <g>
       <use xlink:href="#mfaa2a9de21" x="449.278977" y="129.525354" style="stroke: #000000; stroke-width: 0.8"/>
      </g>
     </g>
     <g id="text_34">
      <!-- $\mathdefault{10^{39}}$ -->
      <g transform="translate(420.178977 133.324573) scale(0.1 -0.1)">
       <use xlink:href="#DejaVuSans-31" transform="translate(0 0.765625)"/>
       <use xlink:href="#DejaVuSans-30" transform="translate(63.623047 0.765625)"/>
       <use xlink:href="#DejaVuSans-33" transform="translate(128.203125 39.046875) scale(0.7)"/>
       <use xlink:href="#DejaVuSans-39" transform="translate(172.739258 39.046875) scale(0.7)"/>
      </g>
     </g>
    </g>
    <g id="ytick_14">
     <g id="line2d_59">
      <path d="M 449.278977 97.593399 
L 779.00625 97.593399 
" clip-path="url(#pdec12b7a4a)" style="fill: none; stroke: #b0b0b0; stroke-opacity: 0.3; stroke-width: 0.8; stroke-linecap: square"/>
     </g>
     <g id="line2d_60">
      <g>
       <use xlink:href="#mfaa2a9de21" x="449.278977" y="97.593399" style="stroke: #000000; stroke-width: 0.8"/>
      </g>
     </g>
     <g id="text_35">
      <!-- $\mathdefault{10^{63}}$ -->
      <g transform="translate(420.178977 101.392618) scale(0.1 -0.1)">
       <use xlink:href="#DejaVuSans-31" transform="translate(0 0.765625)"/>
       <use xlink:href="#DejaVuSans-30" transform="translate(63.623047 0.765625)"/>
       <use xlink:href="#DejaVuSans-36" transform="translate(128.203125 39.046875) scale(0.7)"/>
       <use xlink:href="#DejaVuSans-33" transform="translate(172.739258 39.046875) scale(0.7)"/>
      </g>
     </g>
    </g>
    <g id="ytick_15">
     <g id="line2d_61">
      <path d="M 449.278977 65.661444 
L 779.00625 65.661444 
" clip-path="url(#pdec12b7a4a)" style="fill: none; stroke: #b0b0b0; stroke-opacity: 0.3; stroke-width: 0.8; stroke-linecap: square"/>
     </g>
     <g id="line2d_62">
      <g>
       <use xlink:href="#mfaa2a9de21" x="449.278977" y="65.661444" style="stroke: #000000; stroke-width: 0.8"/>
      </g>
     </g>
     <g id="text_36">
      <!-- $\mathdefault{10^{87}}$ -->
      <g transform="translate(420.178977 69.460663) scale(0.1 -0.1)">
       <use xlink:href="#DejaVuSans-31" transform="translate(0 0.765625)"/>
       <use xlink:href="#DejaVuSans-30" transform="translate(63.623047 0.765625)"/>
       <use xlink:href="#DejaVuSans-38" transform="translate(128.203125 39.046875) scale(0.7)"/>
       <use xlink:href="#DejaVuSans-37" transform="translate(172.739258 39.046875) scale(0.7)"/>
      </g>
     </g>
    </g>
    <g id="text_37">
     <!-- Versagensrate λ [1/h] -->
     <g transform="translate(408.29929 235.8875) rotate(-90) scale(0.1 -0.1)">
      <defs>
       <path id="DejaVuSans-56" d="M 1831 0 
L 50 4666 
L 709 4666 
L 2188 738 
L 3669 4666 
L 4325 4666 
L 2547 0 
L 1831 0 
z
" transform="scale(0.015625)"/>
       <path id="DejaVuSans-3bb" d="M 1981 4316 
L 3597 0 
L 2988 0 
L 2006 2588 
L 800 0 
L 191 0 
L 1725 3356 
L 1494 3975 
Q 1347 4369 1013 4369 
L 713 4369 
L 713 4863 
L 1078 4856 
Q 1784 4847 1981 4316 
z
" transform="scale(0.015625)"/>
       <path id="DejaVuSans-2f" d="M 1625 4666 
L 2156 4666 
L 531 -594 
L 0 -594 
L 1625 4666 
z
" transform="scale(0.015625)"/>
      </defs>
      <use xlink:href="#DejaVuSans-56"/>
      <use xlink:href="#DejaVuSans-65" transform="translate(60.658203 0)"/>
      <use xlink:href="#DejaVuSans-72" transform="translate(122.181641 0)"/>
      <use xlink:href="#DejaVuSans-73" transform="translate(163.294922 0)"/>
      <use xlink:href="#DejaVuSans-61" transform="translate(215.394531 0)"/>
      <use xlink:href="#DejaVuSans-67" transform="translate(276.673828 0)"/>
      <use xlink:href="#DejaVuSans-65" transform="translate(340.150391 0)"/>
      <use xlink:href="#DejaVuSans-6e" transform="translate(401.673828 0)"/>
      <use xlink:href="#DejaVuSans-73" transform="translate(465.052734 0)"/>
      <use xlink:href="#DejaVuSans-72" transform="translate(517.152344 0)"/>
      <use xlink:href="#DejaVuSans-61" transform="translate(558.265625 0)"/>
      <use xlink:href="#DejaVuSans-74" transform="translate(619.544922 0)"/>
      <use xlink:href="#DejaVuSans-65" transform="translate(658.753906 0)"/>
      <use xlink:href="#DejaVuSans-20" transform="translate(720.277344 0)"/>
      <use xlink:href="#DejaVuSans-3bb" transform="translate(752.064453 0)"/>
      <use xlink:href="#DejaVuSans-20" transform="translate(811.244141 0)"/>
      <use xlink:href="#DejaVuSans-5b" transform="translate(843.03125 0)"/>
      <use xlink:href="#DejaVuSans-31" transform="translate(882.044922 0)"/>
      <use xlink:href="#DejaVuSans-2f" transform="translate(945.667969 0)"/>
      <use xlink:href="#DejaVuSans-68" transform="translate(979.359375 0)"/>
      <use xlink:href="#DejaVuSans-5d" transform="translate(1042.738281 0)"/>
     </g>
    </g>
   </g>
   <g id="line2d_63">
    <path d="M 464.266581 181.414781 
L 764.018647 55.8 
L 764.018647 55.8 
" clip-path="url(#pdec12b7a4a)" style="fill: none; stroke: #ff6347; stroke-width: 2; stroke-linecap: square"/>
   </g>
   <g id="line2d_64">
    <path d="M 464.266581 182.185219 
L 764.018647 307.8 
L 764.018647 307.8 
" clip-path="url(#pdec12b7a4a)" style="fill: none; stroke: #daa520; stroke-width: 2; stroke-linecap: square"/>
   </g>
   <g id="line2d_65">
    <path d="M 464.266581 182.569859 
L 764.018647 182.569859 
L 764.018647 182.569859 
" clip-path="url(#pdec12b7a4a)" style="fill: none; stroke-dasharray: 7.4,3.2; stroke-dashoffset: 0; stroke: #4682b4; stroke-width: 2"/>
   </g>
   <g id="line2d_66">
    <path d="M 464.266581 181.220743 
L 466.068697 180.628113 
L 472.676458 177.890342 
L 764.018647 55.8 
L 764.018647 55.8 
" clip-path="url(#pdec12b7a4a)" style="fill: none; stroke: #000000; stroke-width: 2.5; stroke-linecap: square"/>
   </g>
   <g id="patch_9">
    <path d="M 449.278977 320.4 
L 449.278977 43.2 
" style="fill: none; stroke: #000000; stroke-width: 0.8; stroke-linejoin: miter; stroke-linecap: square"/>
   </g>
   <g id="patch_10">
    <path d="M 779.00625 320.4 
L 779.00625 43.2 
" style="fill: none; stroke: #000000; stroke-width: 0.8; stroke-linejoin: miter; stroke-linecap: square"/>
   </g>
   <g id="patch_11">
    <path d="M 449.278977 320.4 
L 779.00625 320.4 
" style="fill: none; stroke: #000000; stroke-width: 0.8; stroke-linejoin: miter; stroke-linecap: square"/>
   </g>
   <g id="patch_12">
    <path d="M 449.278977 43.2 
L 779.00625 43.2 
" style="fill: none; stroke: #000000; stroke-width: 0.8; stroke-linejoin: miter; stroke-linecap: square"/>
   </g>
   <g id="text_38">
    <!-- Versagensraten-Akkumulation (drei Mechanismen) -->
    <g transform="translate(462.366051 37.2) scale(0.12 -0.12)">
     <use xlink:href="#DejaVuSans-56"/>
     <use xlink:href="#DejaVuSans-65" transform="translate(60.658203 0)"/>
     <use xlink:href="#DejaVuSans-72" transform="translate(122.181641 0)"/>
     <use xlink:href="#DejaVuSans-73" transform="translate(163.294922 0)"/>
     <use xlink:href="#DejaVuSans-61" transform="translate(215.394531 0)"/>
     <use xlink:href="#DejaVuSans-67" transform="translate(276.673828 0)"/>
     <use xlink:href="#DejaVuSans-65" transform="translate(340.150391 0)"/>
     <use xlink:href="#DejaVuSans-6e" transform="translate(401.673828 0)"/>
     <use xlink:href="#DejaVuSans-73" transform="translate(465.052734 0)"/>
     <use xlink:href="#DejaVuSans-72" transform="translate(517.152344 0)"/>
     <use xlink:href="#DejaVuSans-61" transform="translate(558.265625 0)"/>
     <use xlink:href="#DejaVuSans-74" transform="translate(619.544922 0)"/>
     <use xlink:href="#DejaVuSans-65" transform="translate(658.753906 0)"/>
     <use xlink:href="#DejaVuSans-6e" transform="translate(720.277344 0)"/>
     <use xlink:href="#DejaVuSans-2d" transform="translate(783.65625 0)"/>
     <use xlink:href="#DejaVuSans-41" transform="translate(817.490234 0)"/>
     <use xlink:href="#DejaVuSans-6b" transform="translate(885.898438 0)"/>
     <use xlink:href="#DejaVuSans-6b" transform="translate(943.808594 0)"/>
     <use xlink:href="#DejaVuSans-75" transform="translate(998.59375 0)"/>
     <use xlink:href="#DejaVuSans-6d" transform="translate(1061.972656 0)"/>
     <use xlink:href="#DejaVuSans-75" transform="translate(1159.384766 0)"/>
     <use xlink:href="#DejaVuSans-6c" transform="translate(1222.763672 0)"/>
     <use xlink:href="#DejaVuSans-61" transform="translate(1250.546875 0)"/>
     <use xlink:href="#DejaVuSans-74" transform="translate(1311.826172 0)"/>
     <use xlink:href="#DejaVuSans-69" transform="translate(1351.035156 0)"/>
     <use xlink:href="#DejaVuSans-6f" transform="translate(1378.818359 0)"/>
     <use xlink:href="#DejaVuSans-6e" transform="translate(1440 0)"/>
     <use xlink:href="#DejaVuSans-20" transform="translate(1503.378906 0)"/>
     <use xlink:href="#DejaVuSans-28" transform="translate(1535.166016 0)"/>
     <use xlink:href="#DejaVuSans-64" transform="translate(1574.179688 0)"/>
     <use xlink:href="#DejaVuSans-72" transform="translate(1637.65625 0)"/>
     <use xlink:href="#DejaVuSans-65" transform="translate(1676.519531 0)"/>
     <use xlink:href="#DejaVuSans-69" transform="translate(1738.042969 0)"/>
     <use xlink:href="#DejaVuSans-20" transform="translate(1765.826172 0)"/>
     <use xlink:href="#DejaVuSans-4d" transform="translate(1797.613281 0)"/>
     <use xlink:href="#DejaVuSans-65" transform="translate(1883.892578 0)"/>
     <use xlink:href="#DejaVuSans-63" transform="translate(1945.416016 0)"/>
     <use xlink:href="#DejaVuSans-68" transform="translate(2000.396484 0)"/>
     <use xlink:href="#DejaVuSans-61" transform="translate(2063.775391 0)"/>
     <use xlink:href="#DejaVuSans-6e" transform="translate(2125.054688 0)"/>
     <use xlink:href="#DejaVuSans-69" transform="translate(2188.433594 0)"/>
     <use xlink:href="#DejaVuSans-73" transform="translate(2216.216797 0)"/>
     <use xlink:href="#DejaVuSans-6d" transform="translate(2268.316406 0)"/>
     <use xlink:href="#DejaVuSans-65" transform="translate(2365.728516 0)"/>
     <use xlink:href="#DejaVuSans-6e" transform="translate(2427.251953 0)"/>
     <use xlink:href="#DejaVuSans-29" transform="translate(2490.630859 0)"/>
    </g>
   </g>
   <g id="legend_2">
    <g id="patch_13">
     <path d="M 456.278977 111.025 
L 590.782102 111.025 
Q 592.782102 111.025 592.782102 109.025 
L 592.782102 50.2 
Q 592.782102 48.2 590.782102 48.2 
L 456.278977 48.2 
Q 454.278977 48.2 454.278977 50.2 
L 454.278977 109.025 
Q 454.278977 111.025 456.278977 111.025 
z
" style="fill: #ffffff; opacity: 0.8; stroke: #cccccc; stroke-linejoin: miter"/>
    </g>
    <g id="line2d_67">
     <path d="M 458.278977 56.298437 
L 468.278977 56.298437 
L 478.278977 56.298437 
" style="fill: none; stroke: #ff6347; stroke-width: 2; stroke-linecap: square"/>
    </g>
    <g id="text_39">
     <!-- λ_Oxidation -->
     <g transform="translate(486.278977 59.798437) scale(0.1 -0.1)">
      <defs>
       <path id="DejaVuSans-78" d="M 3513 3500 
L 2247 1797 
L 3578 0 
L 2900 0 
L 1881 1375 
L 863 0 
L 184 0 
L 1544 1831 
L 300 3500 
L 978 3500 
L 1906 2253 
L 2834 3500 
L 3513 3500 
z
" transform="scale(0.015625)"/>
      </defs>
      <use xlink:href="#DejaVuSans-3bb"/>
      <use xlink:href="#DejaVuSans-5f" transform="translate(59.179688 0)"/>
      <use xlink:href="#DejaVuSans-4f" transform="translate(109.179688 0)"/>
      <use xlink:href="#DejaVuSans-78" transform="translate(187.890625 0)"/>
      <use xlink:href="#DejaVuSans-69" transform="translate(247.070312 0)"/>
      <use xlink:href="#DejaVuSans-64" transform="translate(274.853516 0)"/>
      <use xlink:href="#DejaVuSans-61" transform="translate(338.330078 0)"/>
      <use xlink:href="#DejaVuSans-74" transform="translate(399.609375 0)"/>
      <use xlink:href="#DejaVuSans-69" transform="translate(438.818359 0)"/>
      <use xlink:href="#DejaVuSans-6f" transform="translate(466.601562 0)"/>
      <use xlink:href="#DejaVuSans-6e" transform="translate(527.783203 0)"/>
     </g>
    </g>
    <g id="line2d_68">
     <path d="M 458.278977 71.254687 
L 468.278977 71.254687 
L 478.278977 71.254687 
" style="fill: none; stroke: #daa520; stroke-width: 2; stroke-linecap: square"/>
    </g>
    <g id="text_40">
     <!-- λ_Reibung -->
     <g transform="translate(486.278977 74.754687) scale(0.1 -0.1)">
      <use xlink:href="#DejaVuSans-3bb"/>
      <use xlink:href="#DejaVuSans-5f" transform="translate(59.179688 0)"/>
      <use xlink:href="#DejaVuSans-52" transform="translate(109.179688 0)"/>
      <use xlink:href="#DejaVuSans-65" transform="translate(174.162109 0)"/>
      <use xlink:href="#DejaVuSans-69" transform="translate(235.685547 0)"/>
      <use xlink:href="#DejaVuSans-62" transform="translate(263.46875 0)"/>
      <use xlink:href="#DejaVuSans-75" transform="translate(326.945312 0)"/>
      <use xlink:href="#DejaVuSans-6e" transform="translate(390.324219 0)"/>
      <use xlink:href="#DejaVuSans-67" transform="translate(453.703125 0)"/>
     </g>
    </g>
    <g id="line2d_69">
     <path d="M 458.278977 86.210937 
L 468.278977 86.210937 
L 478.278977 86.210937 
" style="fill: none; stroke-dasharray: 7.4,3.2; stroke-dashoffset: 0; stroke: #4682b4; stroke-width: 2"/>
    </g>
    <g id="text_41">
     <!-- λ_Kavitation (konst.) -->
     <g transform="translate(486.278977 89.710937) scale(0.1 -0.1)">
      <defs>
       <path id="DejaVuSans-76" d="M 191 3500 
L 800 3500 
L 1894 563 
L 2988 3500 
L 3597 3500 
L 2284 0 
L 1503 0 
L 191 3500 
z
" transform="scale(0.015625)"/>
       <path id="DejaVuSans-2e" d="M 684 794 
L 1344 794 
L 1344 0 
L 684 0 
L 684 794 
z
" transform="scale(0.015625)"/>
      </defs>
      <use xlink:href="#DejaVuSans-3bb"/>
      <use xlink:href="#DejaVuSans-5f" transform="translate(59.179688 0)"/>
      <use xlink:href="#DejaVuSans-4b" transform="translate(109.179688 0)"/>
      <use xlink:href="#DejaVuSans-61" transform="translate(173.005859 0)"/>
      <use xlink:href="#DejaVuSans-76" transform="translate(234.285156 0)"/>
      <use xlink:href="#DejaVuSans-69" transform="translate(293.464844 0)"/>
      <use xlink:href="#DejaVuSans-74" transform="translate(321.248047 0)"/>
      <use xlink:href="#DejaVuSans-61" transform="translate(360.457031 0)"/>
      <use xlink:href="#DejaVuSans-74" transform="translate(421.736328 0)"/>
      <use xlink:href="#DejaVuSans-69" transform="translate(460.945312 0)"/>
      <use xlink:href="#DejaVuSans-6f" transform="translate(488.728516 0)"/>
      <use xlink:href="#DejaVuSans-6e" transform="translate(549.910156 0)"/>
      <use xlink:href="#DejaVuSans-20" transform="translate(613.289062 0)"/>
      <use xlink:href="#DejaVuSans-28" transform="translate(645.076172 0)"/>
      <use xlink:href="#DejaVuSans-6b" transform="translate(684.089844 0)"/>
      <use xlink:href="#DejaVuSans-6f" transform="translate(738.375 0)"/>
      <use xlink:href="#DejaVuSans-6e" transform="translate(799.556641 0)"/>
      <use xlink:href="#DejaVuSans-73" transform="translate(862.935547 0)"/>
      <use xlink:href="#DejaVuSans-74" transform="translate(915.035156 0)"/>
      <use xlink:href="#DejaVuSans-2e" transform="translate(954.244141 0)"/>
      <use xlink:href="#DejaVuSans-29" transform="translate(986.03125 0)"/>
     </g>
    </g>
    <g id="line2d_70">
     <path d="M 458.278977 101.167187 
L 468.278977 101.167187 
L 478.278977 101.167187 
" style="fill: none; stroke: #000000; stroke-width: 2.5; stroke-linecap: square"/>
    </g>
    <g id="text_42">
     <!-- λ_gesamt -->
     <g transform="translate(486.278977 104.667187) scale(0.1 -0.1)">
      <use xlink:href="#DejaVuSans-3bb"/>
      <use xlink:href="#DejaVuSans-5f" transform="translate(59.179688 0)"/>
      <use xlink:href="#DejaVuSans-67" transform="translate(109.179688 0)"/>
      <use xlink:href="#DejaVuSans-65" transform="translate(172.65625 0)"/>
      <use xlink:href="#DejaVuSans-73" transform="translate(234.179688 0)"/>
      <use xlink:href="#DejaVuSans-61" transform="translate(286.279297 0)"/>
      <use xlink:href="#DejaVuSans-6d" transform="translate(347.558594 0)"/>
      <use xlink:href="#DejaVuSans-74" transform="translate(444.970703 0)"/>
     </g>
    </g>
   </g>
  </g>
  <g id="text_43">
   <!-- Experiment 8 – Modulalterung und Versagensraten im Betrieb -->
   <g transform="translate(203.140781 17.077969) scale(0.13 -0.13)">
    <defs>
     <path id="DejaVuSans-2013" d="M 313 1978 
L 2888 1978 
L 2888 1528 
L 313 1528 
L 313 1978 
z
" transform="scale(0.015625)"/>
    </defs>
    <use xlink:href="#DejaVuSans-45"/>
    <use xlink:href="#DejaVuSans-78" transform="translate(63.183594 0)"/>
    <use xlink:href="#DejaVuSans-70" transform="translate(122.363281 0)"/>
    <use xlink:href="#DejaVuSans-65" transform="translate(185.839844 0)"/>
    <use xlink:href="#DejaVuSans-72" transform="translate(247.363281 0)"/>
    <use xlink:href="#DejaVuSans-69" transform="translate(288.476562 0)"/>
    <use xlink:href="#DejaVuSans-6d" transform="translate(316.259766 0)"/>
    <use xlink:href="#DejaVuSans-65" transform="translate(413.671875 0)"/>
    <use xlink:href="#DejaVuSans-6e" transform="translate(475.195312 0)"/>
    <use xlink:href="#DejaVuSans-74" transform="translate(538.574219 0)"/>
    <use xlink:href="#DejaVuSans-20" transform="translate(577.783203 0)"/>
    <use xlink:href="#DejaVuSans-38" transform="translate(609.570312 0)"/>
    <use xlink:href="#DejaVuSans-20" transform="translate(673.193359 0)"/>
    <use xlink:href="#DejaVuSans-2013" transform="translate(704.980469 0)"/>
    <use xlink:href="#DejaVuSans-20" transform="translate(754.980469 0)"/>
    <use xlink:href="#DejaVuSans-4d" transform="translate(786.767578 0)"/>
    <use xlink:href="#DejaVuSans-6f" transform="translate(873.046875 0)"/>
    <use xlink:href="#DejaVuSans-64" transform="translate(934.228516 0)"/>
    <use xlink:href="#DejaVuSans-75" transform="translate(997.705078 0)"/>
    <use xlink:href="#DejaVuSans-6c" transform="translate(1061.083984 0)"/>
    <use xlink:href="#DejaVuSans-61" transform="translate(1088.867188 0)"/>
    <use xlink:href="#DejaVuSans-6c" transform="translate(1150.146484 0)"/>
    <use xlink:href="#DejaVuSans-74" transform="translate(1177.929688 0)"/>
    <use xlink:href="#DejaVuSans-65" transform="translate(1217.138672 0)"/>
    <use xlink:href="#DejaVuSans-72" transform="translate(1278.662109 0)"/>
    <use xlink:href="#DejaVuSans-75" transform="translate(1319.775391 0)"/>
    <use xlink:href="#DejaVuSans-6e" transform="translate(1383.154297 0)"/>
    <use xlink:href="#DejaVuSans-67" transform="translate(1446.533203 0)"/>
    <use xlink:href="#DejaVuSans-20" transform="translate(1510.009766 0)"/>
    <use xlink:href="#DejaVuSans-75" transform="translate(1541.796875 0)"/>
    <use xlink:href="#DejaVuSans-6e" transform="translate(1605.175781 0)"/>
    <use xlink:href="#DejaVuSans-64" transform="translate(1668.554688 0)"/>
    <use xlink:href="#DejaVuSans-20" transform="translate(1732.03125 0)"/>
    <use xlink:href="#DejaVuSans-56" transform="translate(1763.818359 0)"/>
    <use xlink:href="#DejaVuSans-65" transform="translate(1824.476562 0)"/>
    <use xlink:href="#DejaVuSans-72" transform="translate(1886 0)"/>
    <use xlink:href="#DejaVuSans-73" transform="translate(1927.113281 0)"/>
    <use xlink:href="#DejaVuSans-61" transform="translate(1979.212891 0)"/>
    <use xlink:href="#DejaVuSans-67" transform="translate(2040.492188 0)"/>
    <use xlink:href="#DejaVuSans-65" transform="translate(2103.96875 0)"/>
    <use xlink:href="#DejaVuSans-6e" transform="translate(2165.492188 0)"/>
    <use xlink:href="#DejaVuSans-73" transform="translate(2228.871094 0)"/>
    <use xlink:href="#DejaVuSans-72" transform="translate(2280.970703 0)"/>
    <use xlink:href="#DejaVuSans-61" transform="translate(2322.083984 0)"/>
    <use xlink:href="#DejaVuSans-74" transform="translate(2383.363281 0)"/>
    <use xlink:href="#DejaVuSans-65" transform="translate(2422.572266 0)"/>
    <use xlink:href="#DejaVuSans-6e" transform="translate(2484.095703 0)"/>
    <use xlink:href="#DejaVuSans-20" transform="translate(2547.474609 0)"/>
    <use xlink:href="#DejaVuSans-69" transform="translate(2579.261719 0)"/>
    <use xlink:href="#DejaVuSans-6d" transform="translate(2607.044922 0)"/>
    <use xlink:href="#DejaVuSans-20" transform="translate(2704.457031 0)"/>
    <use xlink:href="#DejaVuSans-42" transform="translate(2736.244141 0)"/>
    <use xlink:href="#DejaVuSans-65" transform="translate(2804.847656 0)"/>
    <use xlink:href="#DejaVuSans-74" transform="translate(2866.371094 0)"/>
    <use xlink:href="#DejaVuSans-72" transform="translate(2905.580078 0)"/>
    <use xlink:href="#DejaVuSans-69" transform="translate(2946.693359 0)"/>
    <use xlink:href="#DejaVuSans-65" transform="translate(2974.476562 0)"/>
    <use xlink:href="#DejaVuSans-62" transform="translate(3036 0)"/>
   </g>
  </g>
 </g>
 <defs>
  <clipPath id="p2b5e362178">
   <rect x="53.60625" y="43.2" width="329.727273" height="277.2"/>
  </clipPath>
  <clipPath id="pdec12b7a4a">
   <rect x="449.278977" y="43.2" width="329.727273" height="277.2"/>
  </clipPath>
 </defs>
</svg>
