<?xml version="1.0" encoding="utf-8" standalone="no"?>
<!DOCTYPE svg PUBLIC "-//W3C//DTD SVG 1.1//EN"
  "http://www.w3.org/Graphics/SVG/1.1/DTD/svg11.dtd">
<svg xmlns:xlink="http://www.w3.org/1999/xlink" width="789.3875pt" height="357.95625pt" viewBox="0 0 789.3875 357.95625" xmlns="http://www.w3.org/2000/svg" version="1.1">
 <metadata>
  <rdf:RDF xmlns:dc="http://purl.org/dc/elements/1.1/" xmlns:cc="http://creativecommons.org/ns#" xmlns:rdf="http://www.w3.org/1999/02/22-rdf-syntax-ns#">
   <cc:Work>
    <dc:type rdf:resource="http://purl.org/dc/dcmitype/StillImage"/>
    <dc:date>2026-03-02T09:31:41.957855</dc:date>
    <dc:format>image/svg+xml</dc:format>
    <dc:creator>
     <cc:Agent>
      <dc:title>Matplotlib v3.10.8, https://matplotlib.org/</dc:title>
     </cc:Agent>
    </dc:creator>
   </cc:Work>
  </rdf:RDF>
 </metadata>
 <defs>
  <style type="text/css">*{stroke-linejoin: round; stroke-linecap: butt}</style>
 </defs>
 <g id="figure_1">
  <g id="patch_1">
   <path d="M 0 357.95625 
L 789.3875 357.95625 
L 789.3875 0 
L 0 0 
z
" style="fill: #ffffff"/>
  </g>
  <g id="axes_1">
   <g id="patch_2">
    <path d="M 53.60625 320.4 
L 383.333523 320.4 
L 383.333523 43.2 
L 53.60625 43.2 
z
" style="fill: #ffffff"/>
   </g>
   <g id="matplotlib.axis_1">
    <g id="xtick_1">
     <g id="line2d_1">
      <path d="M 53.60625 320.4 
L 53.60625 43.2 
" clip-path="url(#p3fdf6dd58b)" style="fill: none; stroke: #b0b0b0; stroke-opacity: 0.3; stroke-width: 0.8; stroke-linecap: square"/>
     </g>
     <g id="line2d_2">
      <defs>
       <path id="m8c8dced3ef" d="M 0 0 
L 0 3.5 
" style="stroke: #000000; stroke-width: 0.8"/>
      </defs>
      <g>
       <use xlink:href="#m8c8dced3ef" x="53.60625" y="320.4" style="stroke: #000000; stroke-width: 0.8"/>
      </g>
     </g>
     <g id="text_1">
      <!-- 0 -->
      <g transform="translate(50.425 334.998437) scale(0.1 -0.1)">
       <defs>
        <path id="DejaVuSans-30" d="M 2034 4250 
Q 1547 4250 1301 3770 
Q 1056 3291 1056 2328 
Q 1056 1369 1301 889 
Q 1547 409 2034 409 
Q 2525 409 2770 889 
Q 3016 1369 3016 2328 
Q 3016 3291 2770 3770 
Q 2525 4250 2034 4250 
z
M 2034 4750 
Q 2819 4750 3233 4129 
Q 3647 3509 3647 2328 
Q 3647 1150 3233 529 
Q 2819 -91 2034 -91 
Q 1250 -91 836 529 
Q 422 1150 422 2328 
Q 422 3509 836 4129 
Q 1250 4750 2034 4750 
z
" transform="scale(0.015625)"/>
       </defs>
       <use xlink:href="#DejaVuSans-30"/>
      </g>
     </g>
    </g>
    <g id="xtick_2">
     <g id="line2d_3">
      <path d="M 119.551705 320.4 
L 119.551705 43.2 
" clip-path="url(#p3fdf6dd58b)" style="fill: none; stroke: #b0b0b0; stroke-opacity: 0.3; stroke-width: 0.8; stroke-linecap: square"/>
     </g>
     <g id="line2d_4">
      <g>
       <use xlink:href="#m8c8dced3ef" x="119.551705" y="320.4" style="stroke: #000000; stroke-width: 0.8"/>
      </g>
     </g>
     <g id="text_2">
      <!-- 1 -->
      <g transform="translate(116.370455 334.998437) scale(0.1 -0.1)">
       <defs>
        <path id="DejaVuSans-31" d="M 794 531 
L 1825 531 
L 1825 4091 
L 703 3866 
L 703 4441 
L 1819 4666 
L 2450 4666 
L 2450 531 
L 3481 531 
L 3481 0 
L 794 0 
L 794 531 
z
" transform="scale(0.015625)"/>
       </defs>
       <use xlink:href="#DejaVuSans-31"/>
      </g>
     </g>
    </g>
    <g id="xtick_3">
     <g id="line2d_5">
      <path d="M 185.497159 320.4 
L 185.497159 43.2 
" clip-path="url(#p3fdf6dd58b)" style="fill: none; stroke: #b0b0b0; stroke-opacity: 0.3; stroke-width: 0.8; stroke-linecap: square"/>
     </g>
     <g id="line2d_6">
      <g>
       <use xlink:href="#m8c8dced3ef" x="185.497159" y="320.4" style="stroke: #000000; stroke-width: 0.8"/>
      </g>
     </g>
     <g id="text_3">
      <!-- 2 -->
      <g transform="translate(182.315909 334.998437) scale(0.1 -0.1)">
       <defs>
        <path id="DejaVuSans-32" d="M 1228 531 
L 3431 531 
L 3431 0 
L 469 0 
L 469 531 
Q 828 903 1448 1529 
Q 2069 2156 2228 2338 
Q 2531 2678 2651 2914 
Q 2772 3150 2772 3378 
Q 2772 3750 2511 3984 
Q 2250 4219 1831 4219 
Q 1534 4219 1204 4116 
Q 875 4013 500 3803 
L 500 4441 
Q 881 4594 1212 4672 
Q 1544 4750 1819 4750 
Q 2544 4750 2975 4387 
Q 3406 4025 3406 3419 
Q 3406 3131 3298 2873 
Q 3191 2616 2906 2266 
Q 2828 2175 2409 1742 
Q 1991 1309 1228 531 
z
" transform="scale(0.015625)"/>
       </defs>
       <use xlink:href="#DejaVuSans-32"/>
      </g>
     </g>
    </g>
    <g id="xtick_4">
     <g id="line2d_7">
      <path d="M 251.442614 320.4 
L 251.442614 43.2 
" clip-path="url(#p3fdf6dd58b)" style="fill: none; stroke: #b0b0b0; stroke-opacity: 0.3; stroke-width: 0.8; stroke-linecap: square"/>
     </g>
     <g id="line2d_8">
      <g>
       <use xlink:href="#m8c8dced3ef" x="251.442614" y="320.4" style="stroke: #000000; stroke-width: 0.8"/>
      </g>
     </g>
     <g id="text_4">
      <!-- 3 -->
      <g transform="translate(248.261364 334.998437) scale(0.1 -0.1)">
       <defs>
        <path id="DejaVuSans-33" d="M 2597 2516 
Q 3050 2419 3304 2112 
Q 3559 1806 3559 1356 
Q 3559 666 3084 287 
Q 2609 -91 1734 -91 
Q 1441 -91 1130 -33 
Q 819 25 488 141 
L 488 750 
Q 750 597 1062 519 
Q 1375 441 1716 441 
Q 2309 441 2620 675 
Q 2931 909 2931 1356 
Q 2931 1769 2642 2001 
Q 2353 2234 1838 2234 
L 1294 2234 
L 1294 2753 
L 1863 2753 
Q 2328 2753 2575 2939 
Q 2822 3125 2822 3475 
Q 2822 3834 2567 4026 
Q 2313 4219 1838 4219 
Q 1578 4219 1281 4162 
Q 984 4106 628 3988 
L 628 4550 
Q 988 4650 1302 4700 
Q 1616 4750 1894 4750 
Q 2613 4750 3031 4423 
Q 3450 4097 3450 3541 
Q 3450 3153 3228 2886 
Q 3006 2619 2597 2516 
z
" transform="scale(0.015625)"/>
       </defs>
       <use xlink:href="#DejaVuSans-33"/>
      </g>
     </g>
    </g>
    <g id="xtick_5">
     <g id="line2d_9">
      <path d="M 317.388068 320.4 
L 317.388068 43.2 
" clip-path="url(#p3fdf6dd58b)" style="fill: none; stroke: #b0b0b0; stroke-opacity: 0.3; stroke-width: 0.8; stroke-linecap: square"/>
     </g>
     <g id="line2d_10">
      <g>
       <use xlink:href="#m8c8dced3ef" x="317.388068" y="320.4" style="stroke: #000000; stroke-width: 0.8"/>
      </g>
     </g>
     <g id="text_5">
      <!-- 4 -->
      <g transform="translate(314.206818 334.998437) scale(0.1 -0.1)">
       <defs>
        <path id="DejaVuSans-34" d="M 2419 4116 
L 825 1625 
L 2419 1625 
L 2419 4116 
z
M 2253 4666 
L 3047 4666 
L 3047 1625 
L 3713 1625 
L 3713 1100 
L 3047 1100 
L 3047 0 
L 2419 0 
L 2419 1100 
L 313 1100 
L 313 1709 
L 2253 4666 
z
" transform="scale(0.015625)"/>
       </defs>
       <use xlink:href="#DejaVuSans-34"/>
      </g>
     </g>
    </g>
    <g id="xtick_6">
     <g id="line2d_11">
      <path d="M 383.333523 320.4 
L 383.333523 43.2 
" clip-path="url(#p3fdf6dd58b)" style="fill: none; stroke: #b0b0b0; stroke-opacity: 0.3; stroke-width: 0.8; stroke-linecap: square"/>
     </g>
     <g id="line2d_12">
      <g>
       <use xlink:href="#m8c8dced3ef" x="383.333523" y="320.4" style="stroke: #000000; stroke-width: 0.8"/>
      </g>
     </g>
     <g id="text_6">
      <!-- 5 -->
      <g transform="translate(380.152273 334.998437) scale(0.1 -0.1)">
       <defs>
        <path id="DejaVuSans-35" d="M 691 4666 
L 3169 4666 
L 3169 4134 
L 1269 4134 
L 1269 2991 
Q 1406 3038 1543 3061 
Q 1681 3084 1819 3084 
Q 2600 3084 3056 2656 
Q 3513 2228 3513 1497 
Q 3513 744 3044 326 
Q 2575 -91 1722 -91 
Q 1428 -91 1123 -41 
Q 819 9 494 109 
L 494 744 
Q 775 591 1075 516 
Q 1375 441 1709 441 
Q 2250 441 2565 725 
Q 2881 1009 2881 1497 
Q 2881 1984 2565 2268 
Q 2250 2553 1709 2553 
Q 1456 2553 1204 2497 
Q 953 2441 691 2322 
L 691 4666 
z
" transform="scale(0.015625)"/>
       </defs>
       <use xlink:href="#DejaVuSans-35"/>
      </g>
     </g>
    </g>
    <g id="text_7">
     <!-- Luftgehalt α [%] -->
     <g transform="translate(178.010511 348.676562) scale(0.1 -0.1)">
      <defs>
       <path id="DejaVuSans-4c" d="M 628 4666 
L 1259 4666 
L 1259 531 
L 3531 531 
L 3531 0 
L 628 0 
L 628 4666 
z
" transform="scale(0.015625)"/>
       <path id="DejaVuSans-75" d="M 544 1381 
L 544 3500 
L 1119 3500 
L 1119 1403 
Q 1119 906 1312 657 
Q 1506 409 1894 409 
Q 2359 409 2629 706 
Q 2900 1003 2900 1516 
L 2900 3500 
L 3475 3500 
L 3475 0 
L 2900 0 
L 2900 538 
Q 2691 219 2414 64 
Q 2138 -91 1772 -91 
Q 1169 -91 856 284 
Q 544 659 544 1381 
z
M 1991 3584 
L 1991 3584 
z
" transform="scale(0.015625)"/>
       <path id="DejaVuSans-66" d="M 2375 4863 
L 2375 4384 
L 1825 4384 
Q 1516 4384 1395 4259 
Q 1275 4134 1275 3809 
L 1275 3500 
L 2222 3500 
L 2222 3053 
L 1275 3053 
L 1275 0 
L 697 0 
L 697 3053 
L 147 3053 
L 147 3500 
L 697 3500 
L 697 3744 
Q 697 4328 969 4595 
Q 1241 4863 1831 4863 
L 2375 4863 
z
" transform="scale(0.015625)"/>
       <path id="DejaVuSans-74" d="M 1172 4494 
L 1172 3500 
L 2356 3500 
L 2356 3053 
L 1172 3053 
L 1172 1153 
Q 1172 725 1289 603 
Q 1406 481 1766 481 
L 2356 481 
L 2356 0 
L 1766 0 
Q 1100 0 847 248 
Q 594 497 594 1153 
L 594 3053 
L 172 3053 
L 172 3500 
L 594 3500 
L 594 4494 
L 1172 4494 
z
" transform="scale(0.015625)"/>
       <path id="DejaVuSans-67" d="M 2906 1791 
Q 2906 2416 2648 2759 
Q 2391 3103 1925 3103 
Q 1463 3103 1205 2759 
Q 947 2416 947 1791 
Q 947 1169 1205 825 
Q 1463 481 1925 481 
Q 2391 481 2648 825 
Q 2906 1169 2906 1791 
z
M 3481 434 
Q 3481 -459 3084 -895 
Q 2688 -1331 1869 -1331 
Q 1566 -1331 1297 -1286 
Q 1028 -1241 775 -1147 
L 775 -588 
Q 1028 -725 1275 -790 
Q 1522 -856 1778 -856 
Q 2344 -856 2625 -561 
Q 2906 -266 2906 331 
L 2906 616 
Q 2728 306 2450 153 
Q 2172 0 1784 0 
Q 1141 0 747 490 
Q 353 981 353 1791 
Q 353 2603 747 3093 
Q 1141 3584 1784 3584 
Q 2172 3584 2450 3431 
Q 2728 3278 2906 2969 
L 2906 3500 
L 3481 3500 
L 3481 434 
z
" transform="scale(0.015625)"/>
       <path id="DejaVuSans-65" d="M 3597 1894 
L 3597 1613 
L 953 1613 
Q 991 1019 1311 708 
Q 1631 397 2203 397 
Q 2534 397 2845 478 
Q 3156 559 3463 722 
L 3463 178 
Q 3153 47 2828 -22 
Q 2503 -91 2169 -91 
Q 1331 -91 842 396 
Q 353 884 353 1716 
Q 353 2575 817 3079 
Q 1281 3584 2069 3584 
Q 2775 3584 3186 3129 
Q 3597 2675 3597 1894 
z
M 3022 2063 
Q 3016 2534 2758 2815 
Q 2500 3097 2075 3097 
Q 1594 3097 1305 2825 
Q 1016 2553 972 2059 
L 3022 2063 
z
" transform="scale(0.015625)"/>
       <path id="DejaVuSans-68" d="M 3513 2113 
L 3513 0 
L 2938 0 
L 2938 2094 
Q 2938 2591 2744 2837 
Q 2550 3084 2163 3084 
Q 1697 3084 1428 2787 
Q 1159 2491 1159 1978 
L 1159 0 
L 581 0 
L 581 4863 
L 1159 4863 
L 1159 2956 
Q 1366 3272 1645 3428 
Q 1925 3584 2291 3584 
Q 2894 3584 3203 3211 
Q 3513 2838 3513 2113 
z
" transform="scale(0.015625)"/>
       <path id="DejaVuSans-61" d="M 2194 1759 
Q 1497 1759 1228 1600 
Q 959 1441 959 1056 
Q 959 750 1161 570 
Q 1363 391 1709 391 
Q 2188 391 2477 730 
Q 2766 1069 2766 1631 
L 2766 1759 
L 2194 1759 
z
M 3341 1997 
L 3341 0 
L 2766 0 
L 2766 531 
Q 2569 213 2275 61 
Q 1981 -91 1556 -91 
Q 1019 -91 701 211 
Q 384 513 384 1019 
Q 384 1609 779 1909 
Q 1175 2209 1959 2209 
L 2766 2209 
L 2766 2266 
Q 2766 2663 2505 2880 
Q 2244 3097 1772 3097 
Q 1472 3097 1187 3025 
Q 903 2953 641 2809 
L 641 3341 
Q 956 3463 1253 3523 
Q 1550 3584 1831 3584 
Q 2591 3584 2966 3190 
Q 3341 2797 3341 1997 
z
" transform="scale(0.015625)"/>
       <path id="DejaVuSans-6c" d="M 603 4863 
L 1178 4863 
L 1178 0 
L 603 0 
L 603 4863 
z
" transform="scale(0.015625)"/>
       <path id="DejaVuSans-20" transform="scale(0.015625)"/>
       <path id="DejaVuSans-3b1" d="M 2644 1628 
L 2506 2350 
Q 2366 3091 1809 3091 
Q 1391 3091 1200 2747 
Q 959 2316 959 1747 
Q 959 1059 1194 731 
Q 1431 397 1809 397 
Q 2228 397 2453 1063 
L 2644 1628 
z
M 2966 2584 
L 3275 3500 
L 3788 3500 
L 3147 1603 
L 3272 919 
Q 3300 766 3409 638 
Q 3538 488 3638 488 
L 3913 488 
L 3913 0 
L 3569 0 
Q 3275 0 3013 263 
Q 2884 394 2831 669 
Q 2688 322 2394 50 
Q 2256 -78 1809 -78 
Q 1075 -78 719 397 
Q 353 888 353 1747 
Q 353 2666 750 3097 
Q 1191 3578 1809 3578 
Q 2781 3578 2966 2584 
z
" transform="scale(0.015625)"/>
       <path id="DejaVuSans-5b" d="M 550 4863 
L 1875 4863 
L 1875 4416 
L 1125 4416 
L 1125 -397 
L 1875 -397 
L 1875 -844 
L 550 -844 
L 550 4863 
z
" transform="scale(0.015625)"/>
       <path id="DejaVuSans-25" d="M 4653 2053 
Q 4381 2053 4226 1822 
Q 4072 1591 4072 1178 
Q 4072 772 4226 539 
Q 4381 306 4653 306 
Q 4919 306 5073 539 
Q 5228 772 5228 1178 
Q 5228 1588 5073 1820 
Q 4919 2053 4653 2053 
z
M 4653 2450 
Q 5147 2450 5437 2106 
Q 5728 1763 5728 1178 
Q 5728 594 5436 251 
Q 5144 -91 4653 -91 
Q 4153 -91 3862 251 
Q 3572 594 3572 1178 
Q 3572 1766 3864 2108 
Q 4156 2450 4653 2450 
z
M 1428 4353 
Q 1159 4353 1004 4120 
Q 850 3888 850 3481 
Q 850 3069 1003 2837 
Q 1156 2606 1428 2606 
Q 1700 2606 1854 2837 
Q 2009 3069 2009 3481 
Q 2009 3884 1853 4118 
Q 1697 4353 1428 4353 
z
M 4250 4750 
L 4750 4750 
L 1831 -91 
L 1331 -91 
L 4250 4750 
z
M 1428 4750 
Q 1922 4750 2215 4408 
Q 2509 4066 2509 3481 
Q 2509 2891 2217 2550 
Q 1925 2209 1428 2209 
Q 931 2209 642 2551 
Q 353 2894 353 3481 
Q 353 4063 643 4406 
Q 934 4750 1428 4750 
z
" transform="scale(0.015625)"/>
       <path id="DejaVuSans-5d" d="M 1947 4863 
L 1947 -844 
L 622 -844 
L 622 -397 
L 1369 -397 
L 1369 4416 
L 622 4416 
L 622 4863 
L 1947 4863 
z
" transform="scale(0.015625)"/>
      </defs>
      <use xlink:href="#DejaVuSans-4c"/>
      <use xlink:href="#DejaVuSans-75" transform="translate(53.962891 0)"/>
      <use xlink:href="#DejaVuSans-66" transform="translate(117.341797 0)"/>
      <use xlink:href="#DejaVuSans-74" transform="translate(150.796875 0)"/>
      <use xlink:href="#DejaVuSans-67" transform="translate(190.005859 0)"/>
      <use xlink:href="#DejaVuSans-65" transform="translate(253.482422 0)"/>
      <use xlink:href="#DejaVuSans-68" transform="translate(315.005859 0)"/>
      <use xlink:href="#DejaVuSans-61" transform="translate(378.384766 0)"/>
      <use xlink:href="#DejaVuSans-6c" transform="translate(439.664062 0)"/>
      <use xlink:href="#DejaVuSans-74" transform="translate(467.447266 0)"/>
      <use xlink:href="#DejaVuSans-20" transform="translate(506.65625 0)"/>
      <use xlink:href="#DejaVuSans-3b1" transform="translate(538.443359 0)"/>
      <use xlink:href="#DejaVuSans-20" transform="translate(604.361328 0)"/>
      <use xlink:href="#DejaVuSans-5b" transform="translate(636.148438 0)"/>
      <use xlink:href="#DejaVuSans-25" transform="translate(675.162109 0)"/>
      <use xlink:href="#DejaVuSans-5d" transform="translate(770.181641 0)"/>
     </g>
    </g>
   </g>
   <g id="matplotlib.axis_2">
    <g id="ytick_1">
     <g id="line2d_13">
      <path d="M 53.60625 310.491981 
L 383.333523 310.491981 
" clip-path="url(#p3fdf6dd58b)" style="fill: none; stroke: #b0b0b0; stroke-opacity: 0.3; stroke-width: 0.8; stroke-linecap: square"/>
     </g>
     <g id="line2d_14">
      <defs>
       <path id="m6c1be56877" d="M 0 0 
L -3.5 0 
" style="stroke: #000000; stroke-width: 0.8"/>
      </defs>
      <g>
       <use xlink:href="#m6c1be56877" x="53.60625" y="310.491981" style="stroke: #000000; stroke-width: 0.8"/>
      </g>
     </g>
     <g id="text_8">
      <!-- 0 -->
      <g transform="translate(40.24375 314.2912) scale(0.1 -0.1)">
       <use xlink:href="#DejaVuSans-30"/>
      </g>
     </g>
    </g>
    <g id="ytick_2">
     <g id="line2d_15">
      <path d="M 53.60625 276.396669 
L 383.333523 276.396669 
" clip-path="url(#p3fdf6dd58b)" style="fill: none; stroke: #b0b0b0; stroke-opacity: 0.3; stroke-width: 0.8; stroke-linecap: square"/>
     </g>
     <g id="line2d_16">
      <g>
       <use xlink:href="#m6c1be56877" x="53.60625" y="276.396669" style="stroke: #000000; stroke-width: 0.8"/>
      </g>
     </g>
     <g id="text_9">
      <!-- 250 -->
      <g transform="translate(27.51875 280.195888) scale(0.1 -0.1)">
       <use xlink:href="#DejaVuSans-32"/>
       <use xlink:href="#DejaVuSans-35" transform="translate(63.623047 0)"/>
       <use xlink:href="#DejaVuSans-30" transform="translate(127.246094 0)"/>
      </g>
     </g>
    </g>
    <g id="ytick_3">
     <g id="line2d_17">
      <path d="M 53.60625 242.301357 
L 383.333523 242.301357 
" clip-path="url(#p3fdf6dd58b)" style="fill: none; stroke: #b0b0b0; stroke-opacity: 0.3; stroke-width: 0.8; stroke-linecap: square"/>
     </g>
     <g id="line2d_18">
      <g>
       <use xlink:href="#m6c1be56877" x="53.60625" y="242.301357" style="stroke: #000000; stroke-width: 0.8"/>
      </g>
     </g>
     <g id="text_10">
      <!-- 500 -->
      <g transform="translate(27.51875 246.100576) scale(0.1 -0.1)">
       <use xlink:href="#DejaVuSans-35"/>
       <use xlink:href="#DejaVuSans-30" transform="translate(63.623047 0)"/>
       <use xlink:href="#DejaVuSans-30" transform="translate(127.246094 0)"/>
      </g>
     </g>
    </g>
    <g id="ytick_4">
     <g id="line2d_19">
      <path d="M 53.60625 208.206045 
L 383.333523 208.206045 
" clip-path="url(#p3fdf6dd58b)" style="fill: none; stroke: #b0b0b0; stroke-opacity: 0.3; stroke-width: 0.8; stroke-linecap: square"/>
     </g>
     <g id="line2d_20">
      <g>
       <use xlink:href="#m6c1be56877" x="53.60625" y="208.206045" style="stroke: #000000; stroke-width: 0.8"/>
      </g>
     </g>
     <g id="text_11">
      <!-- 750 -->
      <g transform="translate(27.51875 212.005264) scale(0.1 -0.1)">
       <defs>
        <path id="DejaVuSans-37" d="M 525 4666 
L 3525 4666 
L 3525 4397 
L 1831 0 
L 1172 0 
L 2766 4134 
L 525 4134 
L 525 4666 
z
" transform="scale(0.015625)"/>
       </defs>
       <use xlink:href="#DejaVuSans-37"/>
       <use xlink:href="#DejaVuSans-35" transform="translate(63.623047 0)"/>
       <use xlink:href="#DejaVuSans-30" transform="translate(127.246094 0)"/>
      </g>
     </g>
    </g>
    <g id="ytick_5">
     <g id="line2d_21">
      <path d="M 53.60625 174.110733 
L 383.333523 174.110733 
" clip-path="url(#p3fdf6dd58b)" style="fill: none; stroke: #b0b0b0; stroke-opacity: 0.3; stroke-width: 0.8; stroke-linecap: square"/>
     </g>
     <g id="line2d_22">
      <g>
       <use xlink:href="#m6c1be56877" x="53.60625" y="174.110733" style="stroke: #000000; stroke-width: 0.8"/>
      </g>
     </g>
     <g id="text_12">
      <!-- 1000 -->
      <g transform="translate(21.15625 177.909952) scale(0.1 -0.1)">
       <use xlink:href="#DejaVuSans-31"/>
       <use xlink:href="#DejaVuSans-30" transform="translate(63.623047 0)"/>
       <use xlink:href="#DejaVuSans-30" transform="translate(127.246094 0)"/>
       <use xlink:href="#DejaVuSans-30" transform="translate(190.869141 0)"/>
      </g>
     </g>
    </g>
    <g id="ytick_6">
     <g id="line2d_23">
      <path d="M 53.60625 140.015421 
L 383.333523 140.015421 
" clip-path="url(#p3fdf6dd58b)" style="fill: none; stroke: #b0b0b0; stroke-opacity: 0.3; stroke-width: 0.8; stroke-linecap: square"/>
     </g>
     <g id="line2d_24">
      <g>
       <use xlink:href="#m6c1be56877" x="53.60625" y="140.015421" style="stroke: #000000; stroke-width: 0.8"/>
      </g>
     </g>
     <g id="text_13">
      <!-- 1250 -->
      <g transform="translate(21.15625 143.81464) scale(0.1 -0.1)">
       <use xlink:href="#DejaVuSans-31"/>
       <use xlink:href="#DejaVuSans-32" transform="translate(63.623047 0)"/>
       <use xlink:href="#DejaVuSans-35" transform="translate(127.246094 0)"/>
       <use xlink:href="#DejaVuSans-30" transform="translate(190.869141 0)"/>
      </g>
     </g>
    </g>
    <g id="ytick_7">
     <g id="line2d_25">
      <path d="M 53.60625 105.920109 
L 383.333523 105.920109 
" clip-path="url(#p3fdf6dd58b)" style="fill: none; stroke: #b0b0b0; stroke-opacity: 0.3; stroke-width: 0.8; stroke-linecap: square"/>
     </g>
     <g id="line2d_26">
      <g>
       <use xlink:href="#m6c1be56877" x="53.60625" y="105.920109" style="stroke: #000000; stroke-width: 0.8"/>
      </g>
     </g>
     <g id="text_14">
      <!-- 1500 -->
      <g transform="translate(21.15625 109.719328) scale(0.1 -0.1)">
       <use xlink:href="#DejaVuSans-31"/>
       <use xlink:href="#DejaVuSans-35" transform="translate(63.623047 0)"/>
       <use xlink:href="#DejaVuSans-30" transform="translate(127.246094 0)"/>
       <use xlink:href="#DejaVuSans-30" transform="translate(190.869141 0)"/>
      </g>
     </g>
    </g>
    <g id="ytick_8">
     <g id="line2d_27">
      <path d="M 53.60625 71.824797 
L 383.333523 71.824797 
" clip-path="url(#p3fdf6dd58b)" style="fill: none; stroke: #b0b0b0; stroke-opacity: 0.3; stroke-width: 0.8; stroke-linecap: square"/>
     </g>
     <g id="line2d_28">
      <g>
       <use xlink:href="#m6c1be56877" x="53.60625" y="71.824797" style="stroke: #000000; stroke-width: 0.8"/>
      </g>
     </g>
     <g id="text_15">
      <!-- 1750 -->
      <g transform="translate(21.15625 75.624015) scale(0.1 -0.1)">
       <use xlink:href="#DejaVuSans-31"/>
       <use xlink:href="#DejaVuSans-37" transform="translate(63.623047 0)"/>
       <use xlink:href="#DejaVuSans-35" transform="translate(127.246094 0)"/>
       <use xlink:href="#DejaVuSans-30" transform="translate(190.869141 0)"/>
      </g>
     </g>
    </g>
    <g id="text_16">
     <!-- K_eff [MPa] -->
     <g transform="translate(14.798437 209.834375) rotate(-90) scale(0.1 -0.1)">
      <defs>
       <path id="DejaVuSans-4b" d="M 628 4666 
L 1259 4666 
L 1259 2694 
L 3353 4666 
L 4166 4666 
L 1850 2491 
L 4331 0 
L 3500 0 
L 1259 2247 
L 1259 0 
L 628 0 
L 628 4666 
z
" transform="scale(0.015625)"/>
       <path id="DejaVuSans-5f" d="M 3263 -1063 
L 3263 -1509 
L -63 -1509 
L -63 -1063 
L 3263 -1063 
z
" transform="scale(0.015625)"/>
       <path id="DejaVuSans-4d" d="M 628 4666 
L 1569 4666 
L 2759 1491 
L 3956 4666 
L 4897 4666 
L 4897 0 
L 4281 0 
L 4281 4097 
L 3078 897 
L 2444 897 
L 1241 4097 
L 1241 0 
L 628 0 
L 628 4666 
z
" transform="scale(0.015625)"/>
       <path id="DejaVuSans-50" d="M 1259 4147 
L 1259 2394 
L 2053 2394 
Q 2494 2394 2734 2622 
Q 2975 2850 2975 3272 
Q 2975 3691 2734 3919 
Q 2494 4147 2053 4147 
L 1259 4147 
z
M 628 4666 
L 2053 4666 
Q 2838 4666 3239 4311 
Q 3641 3956 3641 3272 
Q 3641 2581 3239 2228 
Q 2838 1875 2053 1875 
L 1259 1875 
L 1259 0 
L 628 0 
L 628 4666 
z
" transform="scale(0.015625)"/>
      </defs>
      <use xlink:href="#DejaVuSans-4b"/>
      <use xlink:href="#DejaVuSans-5f" transform="translate(65.576172 0)"/>
      <use xlink:href="#DejaVuSans-65" transform="translate(115.576172 0)"/>
      <use xlink:href="#DejaVuSans-66" transform="translate(177.099609 0)"/>
      <use xlink:href="#DejaVuSans-66" transform="translate(212.304688 0)"/>
      <use xlink:href="#DejaVuSans-20" transform="translate(247.509766 0)"/>
      <use xlink:href="#DejaVuSans-5b" transform="translate(279.296875 0)"/>
      <use xlink:href="#DejaVuSans-4d" transform="translate(318.310547 0)"/>
      <use xlink:href="#DejaVuSans-50" transform="translate(404.589844 0)"/>
      <use xlink:href="#DejaVuSans-61" transform="translate(460.392578 0)"/>
      <use xlink:href="#DejaVuSans-5d" transform="translate(521.671875 0)"/>
     </g>
    </g>
   </g>
   <g id="line2d_29">
    <path d="M 53.60625 104.488106 
L 54.267026 131.568638 
L 54.927802 152.356555 
L 55.588578 168.816849 
L 56.249354 182.173502 
L 57.570907 202.53007 
L 58.892459 217.312201 
L 60.214011 228.533892 
L 61.535563 237.343235 
L 62.857115 244.442613 
L 64.178668 250.285859 
L 65.50022 255.179256 
L 66.821772 259.337001 
L 68.143324 262.913386 
L 69.464876 266.022379 
L 71.447205 269.992042 
L 73.429533 273.311067 
L 75.411861 276.127299 
L 77.39419 278.546945 
L 79.376518 280.648265 
L 81.358846 282.490202 
L 84.00195 284.619328 
L 86.645055 286.447555 
L 89.288159 288.03446 
L 92.59204 289.745977 
L 95.89592 291.215093 
L 99.860577 292.724893 
L 104.48601 294.212441 
L 109.111442 295.470144 
L 114.397651 296.688867 
L 120.344636 297.843327 
L 127.613173 299.016403 
L 135.542486 300.070764 
L 144.793351 301.079684 
L 156.026545 302.069796 
L 169.242067 302.997313 
L 185.100693 303.872147 
L 204.2632 304.690431 
L 227.390364 305.44358 
L 255.803736 306.138002 
L 291.485645 306.779328 
L 337.079196 307.367411 
L 383.333523 307.8 
L 383.333523 307.8 
" clip-path="url(#p3fdf6dd58b)" style="fill: none; stroke: #482475; stroke-width: 2; stroke-linecap: square"/>
   </g>
   <g id="line2d_30">
    <path d="M 53.60625 98.760093 
L 54.927802 111.163216 
L 56.91013 127.263345 
L 58.892459 140.956981 
L 60.874787 152.746153 
L 62.857115 163.002329 
L 64.839444 172.006269 
L 66.821772 179.974116 
L 68.8041 187.074977 
L 70.786429 193.443056 
L 72.768757 199.186219 
L 74.751085 204.39215 
L 77.39419 210.620337 
L 80.037294 216.157863 
L 82.680398 221.113577 
L 85.323503 225.574595 
L 87.966607 229.61147 
L 90.609711 233.281946 
L 93.252816 236.633741 
L 96.556696 240.435314 
L 99.860577 243.8647 
L 103.164457 246.974006 
L 106.468338 249.806047 
L 110.432994 252.888071 
L 114.397651 255.672175 
L 118.362308 258.199565 
L 122.98774 260.86868 
L 127.613173 263.278552 
L 132.899382 265.761155 
L 138.18559 267.995717 
L 144.132575 270.256936 
L 150.07956 272.289674 
L 156.687321 274.320181 
L 163.955858 276.318204 
L 171.885171 278.260432 
L 180.475261 280.129831 
L 189.726126 281.914777 
L 200.298544 283.713912 
L 211.531737 285.392839 
L 224.086483 287.036462 
L 237.962781 288.619554 
L 253.160631 290.125101 
L 270.34081 291.595463 
L 289.503317 293.003688 
L 310.648152 294.332517 
L 335.096868 295.637572 
L 362.188688 296.857728 
L 383.333523 297.679159 
L 383.333523 297.679159 
" clip-path="url(#p3fdf6dd58b)" style="fill: none; stroke: #355f8d; stroke-width: 2; stroke-linecap: square"/>
   </g>
   <g id="line2d_31">
    <path d="M 53.60625 91.600078 
L 55.588578 101.674776 
L 57.570907 110.862885 
L 60.214011 121.925628 
L 62.857115 131.826634 
L 65.50022 140.739771 
L 68.143324 148.805859 
L 70.786429 156.140169 
L 73.429533 162.837963 
L 76.072637 168.978656 
L 78.715742 174.62898 
L 81.358846 179.845417 
L 84.662727 185.828461 
L 87.966607 191.287507 
L 91.270488 196.288505 
L 94.574368 200.886784 
L 97.878249 205.129105 
L 101.182129 209.055262 
L 105.146786 213.396946 
L 109.111442 217.382221 
L 113.076099 221.053242 
L 117.040755 224.445771 
L 121.666188 228.092223 
L 126.291621 231.442182 
L 130.917053 234.530398 
L 136.203262 237.776954 
L 141.489471 240.757373 
L 147.436456 243.831178 
L 153.383441 246.645444 
L 159.991202 249.5062 
L 166.598963 252.121587 
L 173.8675 254.751092 
L 181.796813 257.362103 
L 189.726126 259.73945 
L 198.316215 262.085923 
L 207.567081 264.381754 
L 217.478722 266.611594 
L 228.05114 268.76404 
L 239.284333 270.8311 
L 251.839079 272.91171 
L 265.054601 274.878333 
L 279.591675 276.816823 
L 295.450302 278.704353 
L 312.63048 280.524065 
L 331.792987 282.322708 
L 352.277046 284.021036 
L 375.40421 285.708064 
L 383.333523 286.238031 
L 383.333523 286.238031 
" clip-path="url(#p3fdf6dd58b)" style="fill: none; stroke: #21918c; stroke-width: 2; stroke-linecap: square"/>
   </g>
   <g id="line2d_32">
    <path d="M 53.60625 77.280047 
L 56.91013 86.859494 
L 60.214011 95.683019 
L 63.517891 103.8367 
L 66.821772 111.394025 
L 70.125652 118.418112 
L 73.429533 124.963475 
L 76.733413 131.077442 
L 80.69807 137.902525 
L 84.662727 144.227374 
L 88.627383 150.105039 
L 92.59204 155.581328 
L 96.556696 160.695997 
L 100.521353 165.483719 
L 105.146786 170.696492 
L 109.772218 175.54749 
L 114.397651 180.073114 
L 119.023084 184.305036 
L 124.309292 188.817249 
L 129.595501 193.017906 
L 134.88171 196.938199 
L 140.167919 200.605288 
L 146.114904 204.45758 
L 152.061889 208.048921 
L 158.66965 211.764326 
L 165.277411 215.219663 
L 172.545948 218.751536 
L 179.814485 222.030907 
L 187.743798 225.351049 
L 195.673111 228.430982 
L 204.2632 231.525601 
L 213.514066 234.607429 
L 222.764931 237.457743 
L 232.676572 240.283233 
L 243.24899 243.065671 
L 254.482184 245.790127 
L 266.376153 248.444712 
L 278.930899 251.020271 
L 292.146421 253.510059 
L 306.683495 256.018643 
L 321.881346 258.415479 
L 338.400748 260.792424 
L 356.241703 263.127259 
L 375.40421 265.402428 
L 383.333523 266.281188 
L 383.333523 266.281188 
" clip-path="url(#p3fdf6dd58b)" style="fill: none; stroke: #44bf70; stroke-width: 2; stroke-linecap: square"/>
   </g>
   <g id="line2d_33">
    <path d="M 53.60625 55.8 
L 57.570907 63.716183 
L 61.535563 71.155108 
L 65.50022 78.158672 
L 69.464876 84.764007 
L 74.090309 92.010774 
L 78.715742 98.806714 
L 83.341174 105.192627 
L 87.966607 111.204535 
L 92.59204 116.874359 
L 97.217472 122.23049 
L 102.503681 128.00004 
L 107.78989 133.426472 
L 113.076099 138.539512 
L 118.362308 143.365545 
L 124.309292 148.480938 
L 130.256277 153.292488 
L 136.203262 157.826486 
L 142.811023 162.56704 
L 149.418784 167.022053 
L 156.026545 171.216571 
L 163.295082 175.556088 
L 170.563619 179.633356 
L 178.492932 183.809235 
L 186.422246 187.726839 
L 195.012335 191.706344 
L 203.602424 195.435954 
L 212.85329 199.199104 
L 222.104155 202.723887 
L 232.015796 206.260812 
L 242.588214 209.786292 
L 253.160631 213.081087 
L 264.393825 216.353516 
L 276.287795 219.587024 
L 288.842541 222.767618 
L 302.058063 225.883706 
L 315.934361 228.925911 
L 330.471435 231.886853 
L 345.669285 234.760936 
L 362.188688 237.65567 
L 379.368866 240.440418 
L 383.333523 241.053077 
L 383.333523 241.053077 
" clip-path="url(#p3fdf6dd58b)" style="fill: none; stroke: #bddf26; stroke-width: 2; stroke-linecap: square"/>
   </g>
   <g id="patch_3">
    <path d="M 53.60625 320.4 
L 53.60625 43.2 
" style="fill: none; stroke: #000000; stroke-width: 0.8; stroke-linejoin: miter; stroke-linecap: square"/>
   </g>
   <g id="patch_4">
    <path d="M 383.333523 320.4 
L 383.333523 43.2 
" style="fill: none; stroke: #000000; stroke-width: 0.8; stroke-linejoin: miter; stroke-linecap: square"/>
   </g>
   <g id="patch_5">
    <path d="M 53.60625 320.4 
L 383.333523 320.4 
" style="fill: none; stroke: #000000; stroke-width: 0.8; stroke-linejoin: miter; stroke-linecap: square"/>
   </g>
   <g id="patch_6">
    <path d="M 53.60625 43.2 
L 383.333523 43.2 
" style="fill: none; stroke: #000000; stroke-width: 0.8; stroke-linejoin: miter; stroke-linecap: square"/>
   </g>
   <g id="text_17">
    <!-- K_eff(α) bei verschiedenen Systemdrücken -->
    <g transform="translate(89.497074 37.2) scale(0.12 -0.12)">
     <defs>
      <path id="DejaVuSans-28" d="M 1984 4856 
Q 1566 4138 1362 3434 
Q 1159 2731 1159 2009 
Q 1159 1288 1364 580 
Q 1569 -128 1984 -844 
L 1484 -844 
Q 1016 -109 783 600 
Q 550 1309 550 2009 
Q 550 2706 781 3412 
Q 1013 4119 1484 4856 
L 1984 4856 
z
" transform="scale(0.015625)"/>
      <path id="DejaVuSans-29" d="M 513 4856 
L 1013 4856 
Q 1481 4119 1714 3412 
Q 1947 2706 1947 2009 
Q 1947 1309 1714 600 
Q 1481 -109 1013 -844 
L 513 -844 
Q 928 -128 1133 580 
Q 1338 1288 1338 2009 
Q 1338 2731 1133 3434 
Q 928 4138 513 4856 
z
" transform="scale(0.015625)"/>
      <path id="DejaVuSans-62" d="M 3116 1747 
Q 3116 2381 2855 2742 
Q 2594 3103 2138 3103 
Q 1681 3103 1420 2742 
Q 1159 2381 1159 1747 
Q 1159 1113 1420 752 
Q 1681 391 2138 391 
Q 2594 391 2855 752 
Q 3116 1113 3116 1747 
z
M 1159 2969 
Q 1341 3281 1617 3432 
Q 1894 3584 2278 3584 
Q 2916 3584 3314 3078 
Q 3713 2572 3713 1747 
Q 3713 922 3314 415 
Q 2916 -91 2278 -91 
Q 1894 -91 1617 61 
Q 1341 213 1159 525 
L 1159 0 
L 581 0 
L 581 4863 
L 1159 4863 
L 1159 2969 
z
" transform="scale(0.015625)"/>
      <path id="DejaVuSans-69" d="M 603 3500 
L 1178 3500 
L 1178 0 
L 603 0 
L 603 3500 
z
M 603 4863 
L 1178 4863 
L 1178 4134 
L 603 4134 
L 603 4863 
z
" transform="scale(0.015625)"/>
      <path id="DejaVuSans-76" d="M 191 3500 
L 800 3500 
L 1894 563 
L 2988 3500 
L 3597 3500 
L 2284 0 
L 1503 0 
L 191 3500 
z
" transform="scale(0.015625)"/>
      <path id="DejaVuSans-72" d="M 2631 2963 
Q 2534 3019 2420 3045 
Q 2306 3072 2169 3072 
Q 1681 3072 1420 2755 
Q 1159 2438 1159 1844 
L 1159 0 
L 581 0 
L 581 3500 
L 1159 3500 
L 1159 2956 
Q 1341 3275 1631 3429 
Q 1922 3584 2338 3584 
Q 2397 3584 2469 3576 
Q 2541 3569 2628 3553 
L 2631 2963 
z
" transform="scale(0.015625)"/>
      <path id="DejaVuSans-73" d="M 2834 3397 
L 2834 2853 
Q 2591 2978 2328 3040 
Q 2066 3103 1784 3103 
Q 1356 3103 1142 2972 
Q 928 2841 928 2578 
Q 928 2378 1081 2264 
Q 1234 2150 1697 2047 
L 1894 2003 
Q 2506 1872 2764 1633 
Q 3022 1394 3022 966 
Q 3022 478 2636 193 
Q 2250 -91 1575 -91 
Q 1294 -91 989 -36 
Q 684 19 347 128 
L 347 722 
Q 666 556 975 473 
Q 1284 391 1588 391 
Q 1994 391 2212 530 
Q 2431 669 2431 922 
Q 2431 1156 2273 1281 
Q 2116 1406 1581 1522 
L 1381 1569 
Q 847 1681 609 1914 
Q 372 2147 372 2553 
Q 372 3047 722 3315 
Q 1072 3584 1716 3584 
Q 2034 3584 2315 3537 
Q 2597 3491 2834 3397 
z
" transform="scale(0.015625)"/>
      <path id="DejaVuSans-63" d="M 3122 3366 
L 3122 2828 
Q 2878 2963 2633 3030 
Q 2388 3097 2138 3097 
Q 1578 3097 1268 2742 
Q 959 2388 959 1747 
Q 959 1106 1268 751 
Q 1578 397 2138 397 
Q 2388 397 2633 464 
Q 2878 531 3122 666 
L 3122 134 
Q 2881 22 2623 -34 
Q 2366 -91 2075 -91 
Q 1284 -91 818 406 
Q 353 903 353 1747 
Q 353 2603 823 3093 
Q 1294 3584 2113 3584 
Q 2378 3584 2631 3529 
Q 2884 3475 3122 3366 
z
" transform="scale(0.015625)"/>
      <path id="DejaVuSans-64" d="M 2906 2969 
L 2906 4863 
L 3481 4863 
L 3481 0 
L 2906 0 
L 2906 525 
Q 2725 213 2448 61 
Q 2172 -91 1784 -91 
Q 1150 -91 751 415 
Q 353 922 353 1747 
Q 353 2572 751 3078 
Q 1150 3584 1784 3584 
Q 2172 3584 2448 3432 
Q 2725 3281 2906 2969 
z
M 947 1747 
Q 947 1113 1208 752 
Q 1469 391 1925 391 
Q 2381 391 2643 752 
Q 2906 1113 2906 1747 
Q 2906 2381 2643 2742 
Q 2381 3103 1925 3103 
Q 1469 3103 1208 2742 
Q 947 2381 947 1747 
z
" transform="scale(0.015625)"/>
      <path id="DejaVuSans-6e" d="M 3513 2113 
L 3513 0 
L 2938 0 
L 2938 2094 
Q 2938 2591 2744 2837 
Q 2550 3084 2163 3084 
Q 1697 3084 1428 2787 
Q 1159 2491 1159 1978 
L 1159 0 
L 581 0 
L 581 3500 
L 1159 3500 
L 1159 2956 
Q 1366 3272 1645 3428 
Q 1925 3584 2291 3584 
Q 2894 3584 3203 3211 
Q 3513 2838 3513 2113 
z
" transform="scale(0.015625)"/>
      <path id="DejaVuSans-53" d="M 3425 4513 
L 3425 3897 
Q 3066 4069 2747 4153 
Q 2428 4238 2131 4238 
Q 1616 4238 1336 4038 
Q 1056 3838 1056 3469 
Q 1056 3159 1242 3001 
Q 1428 2844 1947 2747 
L 2328 2669 
Q 3034 2534 3370 2195 
Q 3706 1856 3706 1288 
Q 3706 609 3251 259 
Q 2797 -91 1919 -91 
Q 1588 -91 1214 -16 
Q 841 59 441 206 
L 441 856 
Q 825 641 1194 531 
Q 1563 422 1919 422 
Q 2459 422 2753 634 
Q 3047 847 3047 1241 
Q 3047 1584 2836 1778 
Q 2625 1972 2144 2069 
L 1759 2144 
Q 1053 2284 737 2584 
Q 422 2884 422 3419 
Q 422 4038 858 4394 
Q 1294 4750 2059 4750 
Q 2388 4750 2728 4690 
Q 3069 4631 3425 4513 
z
" transform="scale(0.015625)"/>
      <path id="DejaVuSans-79" d="M 2059 -325 
Q 1816 -950 1584 -1140 
Q 1353 -1331 966 -1331 
L 506 -1331 
L 506 -850 
L 844 -850 
Q 1081 -850 1212 -737 
Q 1344 -625 1503 -206 
L 1606 56 
L 191 3500 
L 800 3500 
L 1894 763 
L 2988 3500 
L 3597 3500 
L 2059 -325 
z
" transform="scale(0.015625)"/>
      <path id="DejaVuSans-6d" d="M 3328 2828 
Q 3544 3216 3844 3400 
Q 4144 3584 4550 3584 
Q 5097 3584 5394 3201 
Q 5691 2819 5691 2113 
L 5691 0 
L 5113 0 
L 5113 2094 
Q 5113 2597 4934 2840 
Q 4756 3084 4391 3084 
Q 3944 3084 3684 2787 
Q 3425 2491 3425 1978 
L 3425 0 
L 2847 0 
L 2847 2094 
Q 2847 2600 2669 2842 
Q 2491 3084 2119 3084 
Q 1678 3084 1418 2786 
Q 1159 2488 1159 1978 
L 1159 0 
L 581 0 
L 581 3500 
L 1159 3500 
L 1159 2956 
Q 1356 3278 1631 3431 
Q 1906 3584 2284 3584 
Q 2666 3584 2933 3390 
Q 3200 3197 3328 2828 
z
" transform="scale(0.015625)"/>
      <path id="DejaVuSans-fc" d="M 544 1381 
L 544 3500 
L 1119 3500 
L 1119 1403 
Q 1119 906 1312 657 
Q 1506 409 1894 409 
Q 2359 409 2629 706 
Q 2900 1003 2900 1516 
L 2900 3500 
L 3475 3500 
L 3475 0 
L 2900 0 
L 2900 538 
Q 2691 219 2414 64 
Q 2138 -91 1772 -91 
Q 1169 -91 856 284 
Q 544 659 544 1381 
z
M 1991 3584 
L 1991 3584 
z
M 2278 4850 
L 2912 4850 
L 2912 4219 
L 2278 4219 
L 2278 4850 
z
M 1056 4850 
L 1690 4850 
L 1690 4219 
L 1056 4219 
L 1056 4850 
z
" transform="scale(0.015625)"/>
      <path id="DejaVuSans-6b" d="M 581 4863 
L 1159 4863 
L 1159 1991 
L 2875 3500 
L 3609 3500 
L 1753 1863 
L 3688 0 
L 2938 0 
L 1159 1709 
L 1159 0 
L 581 0 
L 581 4863 
z
" transform="scale(0.015625)"/>
     </defs>
     <use xlink:href="#DejaVuSans-4b"/>
     <use xlink:href="#DejaVuSans-5f" transform="translate(65.576172 0)"/>
     <use xlink:href="#DejaVuSans-65" transform="translate(115.576172 0)"/>
     <use xlink:href="#DejaVuSans-66" transform="translate(177.099609 0)"/>
     <use xlink:href="#DejaVuSans-66" transform="translate(212.304688 0)"/>
     <use xlink:href="#DejaVuSans-28" transform="translate(247.509766 0)"/>
     <use xlink:href="#DejaVuSans-3b1" transform="translate(286.523438 0)"/>
     <use xlink:href="#DejaVuSans-29" transform="translate(352.441406 0)"/>
     <use xlink:href="#DejaVuSans-20" transform="translate(391.455078 0)"/>
     <use xlink:href="#DejaVuSans-62" transform="translate(423.242188 0)"/>
     <use xlink:href="#DejaVuSans-65" transform="translate(486.71875 0)"/>
     <use xlink:href="#DejaVuSans-69" transform="translate(548.242188 0)"/>
     <use xlink:href="#DejaVuSans-20" transform="translate(576.025391 0)"/>
     <use xlink:href="#DejaVuSans-76" transform="translate(607.8125 0)"/>
     <use xlink:href="#DejaVuSans-65" transform="translate(666.992188 0)"/>
     <use xlink:href="#DejaVuSans-72" transform="translate(728.515625 0)"/>
     <use xlink:href="#DejaVuSans-73" transform="translate(769.628906 0)"/>
     <use xlink:href="#DejaVuSans-63" transform="translate(821.728516 0)"/>
     <use xlink:href="#DejaVuSans-68" transform="translate(876.708984 0)"/>
     <use xlink:href="#DejaVuSans-69" transform="translate(940.087891 0)"/>
     <use xlink:href="#DejaVuSans-65" transform="translate(967.871094 0)"/>
     <use xlink:href="#DejaVuSans-64" transform="translate(1029.394531 0)"/>
     <use xlink:href="#DejaVuSans-65" transform="translate(1092.871094 0)"/>
     <use xlink:href="#DejaVuSans-6e" transform="translate(1154.394531 0)"/>
     <use xlink:href="#DejaVuSans-65" transform="translate(1217.773438 0)"/>
     <use xlink:href="#DejaVuSans-6e" transform="translate(1279.296875 0)"/>
     <use xlink:href="#DejaVuSans-20" transform="translate(1342.675781 0)"/>
     <use xlink:href="#DejaVuSans-53" transform="translate(1374.462891 0)"/>
     <use xlink:href="#DejaVuSans-79" transform="translate(1437.939453 0)"/>
     <use xlink:href="#DejaVuSans-73" transform="translate(1497.119141 0)"/>
     <use xlink:href="#DejaVuSans-74" transform="translate(1549.21875 0)"/>
     <use xlink:href="#DejaVuSans-65" transform="translate(1588.427734 0)"/>
     <use xlink:href="#DejaVuSans-6d" transform="translate(1649.951172 0)"/>
     <use xlink:href="#DejaVuSans-64" transform="translate(1747.363281 0)"/>
     <use xlink:href="#DejaVuSans-72" transform="translate(1810.839844 0)"/>
     <use xlink:href="#DejaVuSans-fc" transform="translate(1851.953125 0)"/>
     <use xlink:href="#DejaVuSans-63" transform="translate(1915.332031 0)"/>
     <use xlink:href="#DejaVuSans-6b" transform="translate(1970.3125 0)"/>
     <use xlink:href="#DejaVuSans-65" transform="translate(2024.597656 0)"/>
     <use xlink:href="#DejaVuSans-6e" transform="translate(2086.121094 0)"/>
    </g>
   </g>
   <g id="legend_1">
    <g id="patch_7">
     <path d="M 305.480398 139.26875 
L 376.333523 139.26875 
Q 378.333523 139.26875 378.333523 137.26875 
L 378.333523 50.2 
Q 378.333523 48.2 376.333523 48.2 
L 305.480398 48.2 
Q 303.480398 48.2 303.480398 50.2 
L 303.480398 137.26875 
Q 303.480398 139.26875 305.480398 139.26875 
z
" style="fill: #ffffff; opacity: 0.8; stroke: #cccccc; stroke-linejoin: miter"/>
    </g>
    <g id="text_18">
     <!-- Druck -->
     <g transform="translate(326.18821 59.798437) scale(0.1 -0.1)">
      <defs>
       <path id="DejaVuSans-44" d="M 1259 4147 
L 1259 519 
L 2022 519 
Q 2988 519 3436 956 
Q 3884 1394 3884 2338 
Q 3884 3275 3436 3711 
Q 2988 4147 2022 4147 
L 1259 4147 
z
M 628 4666 
L 1925 4666 
Q 3281 4666 3915 4102 
Q 4550 3538 4550 2338 
Q 4550 1131 3912 565 
Q 3275 0 1925 0 
L 628 0 
L 628 4666 
z
" transform="scale(0.015625)"/>
      </defs>
      <use xlink:href="#DejaVuSans-44"/>
      <use xlink:href="#DejaVuSans-72" transform="translate(77.001953 0)"/>
      <use xlink:href="#DejaVuSans-75" transform="translate(118.115234 0)"/>
      <use xlink:href="#DejaVuSans-63" transform="translate(181.494141 0)"/>
      <use xlink:href="#DejaVuSans-6b" transform="translate(236.474609 0)"/>
     </g>
    </g>
    <g id="line2d_34">
     <path d="M 307.480398 70.976562 
L 317.480398 70.976562 
L 327.480398 70.976562 
" style="fill: none; stroke: #482475; stroke-width: 2; stroke-linecap: square"/>
    </g>
    <g id="text_19">
     <!-- 10 bar -->
     <g transform="translate(335.480398 74.476562) scale(0.1 -0.1)">
      <use xlink:href="#DejaVuSans-31"/>
      <use xlink:href="#DejaVuSans-30" transform="translate(63.623047 0)"/>
      <use xlink:href="#DejaVuSans-20" transform="translate(127.246094 0)"/>
      <use xlink:href="#DejaVuSans-62" transform="translate(159.033203 0)"/>
      <use xlink:href="#DejaVuSans-61" transform="translate(222.509766 0)"/>
      <use xlink:href="#DejaVuSans-72" transform="translate(283.789062 0)"/>
     </g>
    </g>
    <g id="line2d_35">
     <path d="M 307.480398 85.654687 
L 317.480398 85.654687 
L 327.480398 85.654687 
" style="fill: none; stroke: #355f8d; stroke-width: 2; stroke-linecap: square"/>
    </g>
    <g id="text_20">
     <!-- 50 bar -->
     <g transform="translate(335.480398 89.154687) scale(0.1 -0.1)">
      <use xlink:href="#DejaVuSans-35"/>
      <use xlink:href="#DejaVuSans-30" transform="translate(63.623047 0)"/>
      <use xlink:href="#DejaVuSans-20" transform="translate(127.246094 0)"/>
      <use xlink:href="#DejaVuSans-62" transform="translate(159.033203 0)"/>
      <use xlink:href="#DejaVuSans-61" transform="translate(222.509766 0)"/>
      <use xlink:href="#DejaVuSans-72" transform="translate(283.789062 0)"/>
     </g>
    </g>
    <g id="line2d_36">
     <path d="M 307.480398 100.332812 
L 317.480398 100.332812 
L 327.480398 100.332812 
" style="fill: none; stroke: #21918c; stroke-width: 2; stroke-linecap: square"/>
    </g>
    <g id="text_21">
     <!-- 100 bar -->
     <g transform="translate(335.480398 103.832812) scale(0.1 -0.1)">
      <use xlink:href="#DejaVuSans-31"/>
      <use xlink:href="#DejaVuSans-30" transform="translate(63.623047 0)"/>
      <use xlink:href="#DejaVuSans-30" transform="translate(127.246094 0)"/>
      <use xlink:href="#DejaVuSans-20" transform="translate(190.869141 0)"/>
      <use xlink:href="#DejaVuSans-62" transform="translate(222.65625 0)"/>
      <use xlink:href="#DejaVuSans-61" transform="translate(286.132812 0)"/>
      <use xlink:href="#DejaVuSans-72" transform="translate(347.412109 0)"/>
     </g>
    </g>
    <g id="line2d_37">
     <path d="M 307.480398 115.010937 
L 317.480398 115.010937 
L 327.480398 115.010937 
" style="fill: none; stroke: #44bf70; stroke-width: 2; stroke-linecap: square"/>
    </g>
    <g id="text_22">
     <!-- 200 bar -->
     <g transform="translate(335.480398 118.510937) scale(0.1 -0.1)">
      <use xlink:href="#DejaVuSans-32"/>
      <use xlink:href="#DejaVuSans-30" transform="translate(63.623047 0)"/>
      <use xlink:href="#DejaVuSans-30" transform="translate(127.246094 0)"/>
      <use xlink:href="#DejaVuSans-20" transform="translate(190.869141 0)"/>
      <use xlink:href="#DejaVuSans-62" transform="translate(222.65625 0)"/>
      <use xlink:href="#DejaVuSans-61" transform="translate(286.132812 0)"/>
      <use xlink:href="#DejaVuSans-72" transform="translate(347.412109 0)"/>
     </g>
    </g>
    <g id="line2d_38">
     <path d="M 307.480398 129.689062 
L 317.480398 129.689062 
L 327.480398 129.689062 
" style="fill: none; stroke: #bddf26; stroke-width: 2; stroke-linecap: square"/>
    </g>
    <g id="text_23">
     <!-- 350 bar -->
     <g transform="translate(335.480398 133.189062) scale(0.1 -0.1)">
      <use xlink:href="#DejaVuSans-33"/>
      <use xlink:href="#DejaVuSans-35" transform="translate(63.623047 0)"/>
      <use xlink:href="#DejaVuSans-30" transform="translate(127.246094 0)"/>
      <use xlink:href="#DejaVuSans-20" transform="translate(190.869141 0)"/>
      <use xlink:href="#DejaVuSans-62" transform="translate(222.65625 0)"/>
      <use xlink:href="#DejaVuSans-61" transform="translate(286.132812 0)"/>
      <use xlink:href="#DejaVuSans-72" transform="translate(347.412109 0)"/>
     </g>
    </g>
   </g>
  </g>
  <g id="axes_2">
   <g id="patch_8">
    <path d="M 449.278977 320.4 
L 779.00625 320.4 
L 779.00625 43.2 
L 449.278977 43.2 
z
" style="fill: #ffffff"/>
   </g>
   <g id="FillBetweenPolyCollection_1">
    <defs>
     <path id="mc921cd90e2" d="M 449.278977 -50.15625 
L 449.278977 -50.15625 
L 449.939753 -50.15625 
L 450.600529 -50.15625 
L 451.261306 -50.15625 
L 451.922082 -50.15625 
L 452.582858 -50.15625 
L 453.243634 -50.15625 
L 453.90441 -50.15625 
L 454.565186 -50.15625 
L 455.225962 -50.15625 
L 455.886738 -50.15625 
L 456.547514 -50.15625 
L 457.20829 -50.15625 
L 457.869067 -50.15625 
L 458.529843 -50.15625 
L 459.190619 -50.15625 
L 459.851395 -50.15625 
L 460.512171 -50.15625 
L 461.172947 -50.15625 
L 461.833723 -50.15625 
L 462.494499 -50.15625 
L 463.155275 -50.15625 
L 463.816051 -50.15625 
L 464.476828 -50.15625 
L 465.137604 -50.15625 
L 465.79838 -50.15625 
L 466.459156 -50.15625 
L 467.119932 -50.15625 
L 467.780708 -50.15625 
L 468.441484 -50.15625 
L 469.10226 -50.15625 
L 469.763036 -50.15625 
L 470.423812 -50.15625 
L 471.084588 -50.15625 
L 471.745365 -50.15625 
L 472.406141 -50.15625 
L 473.066917 -50.15625 
L 473.727693 -50.15625 
L 474.388469 -50.15625 
L 475.049245 -50.15625 
L 475.710021 -50.15625 
L 476.370797 -50.15625 
L 477.031573 -50.15625 
L 477.692349 -50.15625 
L 478.353126 -50.15625 
L 479.013902 -50.15625 
L 479.674678 -50.15625 
L 480.335454 -50.15625 
L 480.99623 -50.15625 
L 481.657006 -50.15625 
L 482.317782 -50.15625 
L 482.978558 -50.15625 
L 483.639334 -50.15625 
L 484.30011 -50.15625 
L 484.960887 -50.15625 
L 485.621663 -50.15625 
L 486.282439 -50.15625 
L 486.943215 -50.15625 
L 487.603991 -50.15625 
L 488.264767 -50.15625 
L 488.925543 -50.15625 
L 489.586319 -50.15625 
L 490.247095 -50.15625 
L 490.907871 -50.15625 
L 491.568648 -50.15625 
L 492.229424 -50.15625 
L 492.8902 -50.15625 
L 493.550976 -50.15625 
L 494.211752 -50.15625 
L 494.872528 -50.15625 
L 495.533304 -50.15625 
L 496.19408 -50.15625 
L 496.854856 -50.15625 
L 497.515632 -50.15625 
L 498.176408 -50.15625 
L 498.837185 -50.15625 
L 499.497961 -50.15625 
L 500.158737 -50.15625 
L 500.819513 -50.15625 
L 501.480289 -50.15625 
L 502.141065 -50.15625 
L 502.801841 -50.15625 
L 503.462617 -50.15625 
L 504.123393 -50.15625 
L 504.784169 -50.15625 
L 505.444946 -50.15625 
L 506.105722 -50.15625 
L 506.766498 -50.15625 
L 507.427274 -50.15625 
L 508.08805 -50.15625 
L 508.748826 -50.15625 
L 509.409602 -50.15625 
L 510.070378 -50.15625 
L 510.731154 -50.15625 
L 511.39193 -50.15625 
L 512.052707 -50.15625 
L 512.713483 -50.15625 
L 513.374259 -50.15625 
L 514.035035 -50.15625 
L 514.695811 -50.15625 
L 515.356587 -50.15625 
L 516.017363 -50.15625 
L 516.678139 -50.15625 
L 517.338915 -50.15625 
L 517.999691 -50.15625 
L 518.660468 -50.15625 
L 519.321244 -50.15625 
L 519.98202 -50.15625 
L 520.642796 -50.15625 
L 521.303572 -50.15625 
L 521.964348 -50.15625 
L 522.625124 -50.15625 
L 523.2859 -50.15625 
L 523.946676 -50.15625 
L 524.607452 -50.15625 
L 525.268229 -50.15625 
L 525.929005 -50.15625 
L 526.589781 -50.15625 
L 527.250557 -50.15625 
L 527.911333 -50.15625 
L 528.572109 -50.15625 
L 529.232885 -50.15625 
L 529.893661 -50.15625 
L 530.554437 -50.15625 
L 531.215213 -50.15625 
L 531.875989 -50.15625 
L 532.536766 -50.15625 
L 533.197542 -50.15625 
L 533.858318 -50.15625 
L 534.519094 -50.15625 
L 535.17987 -50.15625 
L 535.840646 -50.15625 
L 536.501422 -50.15625 
L 537.162198 -50.15625 
L 537.822974 -50.15625 
L 538.48375 -50.15625 
L 539.144527 -50.15625 
L 539.805303 -50.15625 
L 540.466079 -50.15625 
L 541.126855 -50.15625 
L 541.787631 -50.15625 
L 542.448407 -50.15625 
L 543.109183 -50.15625 
L 543.769959 -50.15625 
L 544.430735 -50.15625 
L 545.091511 -50.15625 
L 545.752288 -50.15625 
L 546.413064 -50.15625 
L 547.07384 -50.15625 
L 547.734616 -50.15625 
L 548.395392 -50.15625 
L 549.056168 -50.15625 
L 549.716944 -50.15625 
L 550.37772 -50.15625 
L 551.038496 -50.15625 
L 551.699272 -50.15625 
L 552.360049 -50.15625 
L 553.020825 -50.15625 
L 553.681601 -50.15625 
L 554.342377 -50.15625 
L 555.003153 -50.15625 
L 555.663929 -50.15625 
L 556.324705 -50.15625 
L 556.985481 -50.15625 
L 557.646257 -50.15625 
L 558.307033 -50.15625 
L 558.967809 -50.15625 
L 559.628586 -50.15625 
L 560.289362 -50.15625 
L 560.950138 -50.15625 
L 561.610914 -50.15625 
L 562.27169 -50.15625 
L 562.932466 -50.15625 
L 563.593242 -50.15625 
L 564.254018 -50.15625 
L 564.914794 -50.15625 
L 565.57557 -50.15625 
L 566.236347 -50.15625 
L 566.897123 -50.15625 
L 567.557899 -50.15625 
L 568.218675 -50.15625 
L 568.879451 -50.15625 
L 569.540227 -50.15625 
L 570.201003 -50.15625 
L 570.861779 -50.15625 
L 571.522555 -50.15625 
L 572.183331 -50.15625 
L 572.844108 -50.15625 
L 573.504884 -50.15625 
L 574.16566 -50.15625 
L 574.826436 -50.15625 
L 575.487212 -50.15625 
L 576.147988 -50.15625 
L 576.808764 -50.15625 
L 577.46954 -50.15625 
L 578.130316 -50.15625 
L 578.791092 -50.15625 
L 579.451869 -50.15625 
L 580.112645 -50.15625 
L 580.773421 -50.15625 
L 581.434197 -50.15625 
L 582.094973 -50.15625 
L 582.755749 -50.15625 
L 583.416525 -50.15625 
L 584.077301 -50.15625 
L 584.738077 -50.15625 
L 585.398853 -50.15625 
L 586.059629 -50.15625 
L 586.720406 -50.15625 
L 587.381182 -50.15625 
L 588.041958 -50.15625 
L 588.702734 -50.15625 
L 589.36351 -50.15625 
L 590.024286 -50.15625 
L 590.685062 -50.15625 
L 591.345838 -50.15625 
L 592.006614 -50.15625 
L 592.66739 -50.15625 
L 593.328167 -50.15625 
L 593.988943 -50.15625 
L 594.649719 -50.15625 
L 595.310495 -50.15625 
L 595.971271 -50.15625 
L 596.632047 -50.15625 
L 597.292823 -50.15625 
L 597.953599 -50.15625 
L 598.614375 -50.15625 
L 599.275151 -50.15625 
L 599.935928 -50.15625 
L 600.596704 -50.15625 
L 601.25748 -50.15625 
L 601.918256 -50.15625 
L 602.579032 -50.15625 
L 603.239808 -50.15625 
L 603.900584 -50.15625 
L 604.56136 -50.15625 
L 605.222136 -50.15625 
L 605.882912 -50.15625 
L 606.543689 -50.15625 
L 607.204465 -50.15625 
L 607.865241 -50.15625 
L 608.526017 -50.15625 
L 609.186793 -50.15625 
L 609.847569 -50.15625 
L 610.508345 -50.15625 
L 611.169121 -50.15625 
L 611.829897 -50.15625 
L 612.490673 -50.15625 
L 613.151449 -50.15625 
L 613.812226 -50.15625 
L 614.473002 -50.15625 
L 615.133778 -50.15625 
L 615.794554 -50.15625 
L 616.45533 -50.15625 
L 617.116106 -50.15625 
L 617.776882 -50.15625 
L 618.437658 -50.15625 
L 619.098434 -50.15625 
L 619.75921 -50.15625 
L 620.419987 -50.15625 
L 621.080763 -50.15625 
L 621.741539 -50.15625 
L 622.402315 -50.15625 
L 623.063091 -50.15625 
L 623.723867 -50.15625 
L 624.384643 -50.15625 
L 625.045419 -50.15625 
L 625.706195 -50.15625 
L 626.366971 -50.15625 
L 627.027748 -50.15625 
L 627.688524 -50.15625 
L 628.3493 -50.15625 
L 629.010076 -50.15625 
L 629.670852 -50.15625 
L 630.331628 -50.15625 
L 630.992404 -50.15625 
L 631.65318 -50.15625 
L 632.313956 -50.15625 
L 632.974732 -50.15625 
L 633.635509 -50.15625 
L 634.296285 -50.15625 
L 634.957061 -50.15625 
L 635.617837 -50.15625 
L 636.278613 -50.15625 
L 636.939389 -50.15625 
L 637.600165 -50.15625 
L 638.260941 -50.15625 
L 638.921717 -50.15625 
L 639.582493 -50.15625 
L 640.243269 -50.15625 
L 640.904046 -50.15625 
L 641.564822 -50.15625 
L 642.225598 -50.15625 
L 642.886374 -50.15625 
L 643.54715 -50.15625 
L 644.207926 -50.15625 
L 644.868702 -50.15625 
L 645.529478 -50.15625 
L 646.190254 -50.15625 
L 646.85103 -50.15625 
L 647.511807 -50.15625 
L 648.172583 -50.15625 
L 648.833359 -50.15625 
L 649.494135 -50.15625 
L 650.154911 -50.15625 
L 650.815687 -50.15625 
L 651.476463 -50.15625 
L 652.137239 -50.15625 
L 652.798015 -50.15625 
L 653.458791 -50.15625 
L 654.119568 -50.15625 
L 654.780344 -50.15625 
L 655.44112 -50.15625 
L 656.101896 -50.15625 
L 656.762672 -50.15625 
L 657.423448 -50.15625 
L 658.084224 -50.15625 
L 658.745 -50.15625 
L 659.405776 -50.15625 
L 660.066552 -50.15625 
L 660.727329 -50.15625 
L 661.388105 -50.15625 
L 662.048881 -50.15625 
L 662.709657 -50.15625 
L 663.370433 -50.15625 
L 664.031209 -50.15625 
L 664.691985 -50.15625 
L 665.352761 -50.15625 
L 666.013537 -50.15625 
L 666.674313 -50.15625 
L 667.335089 -50.15625 
L 667.995866 -50.15625 
L 668.656642 -50.15625 
L 669.317418 -50.15625 
L 669.978194 -50.15625 
L 670.63897 -50.15625 
L 671.299746 -50.15625 
L 671.960522 -50.15625 
L 672.621298 -50.15625 
L 673.282074 -50.15625 
L 673.94285 -50.15625 
L 674.603627 -50.15625 
L 675.264403 -50.15625 
L 675.925179 -50.15625 
L 676.585955 -50.15625 
L 677.246731 -50.15625 
L 677.907507 -50.15625 
L 678.568283 -50.15625 
L 679.229059 -50.15625 
L 679.889835 -50.15625 
L 680.550611 -50.15625 
L 681.211388 -50.15625 
L 681.872164 -50.15625 
L 682.53294 -50.15625 
L 683.193716 -50.15625 
L 683.854492 -50.15625 
L 684.515268 -50.15625 
L 685.176044 -50.15625 
L 685.83682 -50.15625 
L 686.497596 -50.15625 
L 687.158372 -50.15625 
L 687.819149 -50.15625 
L 688.479925 -50.15625 
L 689.140701 -50.15625 
L 689.801477 -50.15625 
L 690.462253 -50.15625 
L 691.123029 -50.15625 
L 691.783805 -50.15625 
L 692.444581 -50.15625 
L 693.105357 -50.15625 
L 693.766133 -50.15625 
L 694.42691 -50.15625 
L 695.087686 -50.15625 
L 695.748462 -50.15625 
L 696.409238 -50.15625 
L 697.070014 -50.15625 
L 697.73079 -50.15625 
L 698.391566 -50.15625 
L 699.052342 -50.15625 
L 699.713118 -50.15625 
L 700.373894 -50.15625 
L 701.03467 -50.15625 
L 701.695447 -50.15625 
L 702.356223 -50.15625 
L 703.016999 -50.15625 
L 703.677775 -50.15625 
L 704.338551 -50.15625 
L 704.999327 -50.15625 
L 705.660103 -50.15625 
L 706.320879 -50.15625 
L 706.981655 -50.15625 
L 707.642431 -50.15625 
L 708.303208 -50.15625 
L 708.963984 -50.15625 
L 709.62476 -50.15625 
L 710.285536 -50.15625 
L 710.946312 -50.15625 
L 711.607088 -50.15625 
L 712.267864 -50.15625 
L 712.92864 -50.15625 
L 713.589416 -50.15625 
L 714.250192 -50.15625 
L 714.910969 -50.15625 
L 715.571745 -50.15625 
L 716.232521 -50.15625 
L 716.893297 -50.15625 
L 717.554073 -50.15625 
L 718.214849 -50.15625 
L 718.875625 -50.15625 
L 719.536401 -50.15625 
L 720.197177 -50.15625 
L 720.857953 -50.15625 
L 721.51873 -50.15625 
L 722.179506 -50.15625 
L 722.840282 -50.15625 
L 723.501058 -50.15625 
L 724.161834 -50.15625 
L 724.82261 -50.15625 
L 725.483386 -50.15625 
L 726.144162 -50.15625 
L 726.804938 -50.15625 
L 727.465714 -50.15625 
L 728.12649 -50.15625 
L 728.787267 -50.15625 
L 729.448043 -50.15625 
L 730.108819 -50.15625 
L 730.769595 -50.15625 
L 731.430371 -50.15625 
L 732.091147 -50.15625 
L 732.751923 -50.15625 
L 733.412699 -50.15625 
L 734.073475 -50.15625 
L 734.734251 -50.15625 
L 735.395028 -50.15625 
L 736.055804 -50.15625 
L 736.71658 -50.15625 
L 737.377356 -50.15625 
L 738.038132 -50.15625 
L 738.698908 -50.15625 
L 739.359684 -50.15625 
L 740.02046 -50.15625 
L 740.681236 -50.15625 
L 741.342012 -50.15625 
L 742.002789 -50.15625 
L 742.663565 -50.15625 
L 743.324341 -50.15625 
L 743.985117 -50.15625 
L 744.645893 -50.15625 
L 745.306669 -50.15625 
L 745.967445 -50.15625 
L 746.628221 -50.15625 
L 747.288997 -50.15625 
L 747.949773 -50.15625 
L 748.61055 -50.15625 
L 749.271326 -50.15625 
L 749.932102 -50.15625 
L 750.592878 -50.15625 
L 751.253654 -50.15625 
L 751.91443 -50.15625 
L 752.575206 -50.15625 
L 753.235982 -50.15625 
L 753.896758 -50.15625 
L 754.557534 -50.15625 
L 755.21831 -50.15625 
L 755.879087 -50.15625 
L 756.539863 -50.15625 
L 757.200639 -50.15625 
L 757.861415 -50.15625 
L 758.522191 -50.15625 
L 759.182967 -50.15625 
L 759.843743 -50.15625 
L 760.504519 -50.15625 
L 761.165295 -50.15625 
L 761.826071 -50.15625 
L 762.486848 -50.15625 
L 763.147624 -50.15625 
L 763.8084 -50.15625 
L 764.469176 -50.15625 
L 765.129952 -50.15625 
L 765.790728 -50.15625 
L 766.451504 -50.15625 
L 767.11228 -50.15625 
L 767.773056 -50.15625 
L 768.433832 -50.15625 
L 769.094609 -50.15625 
L 769.755385 -50.15625 
L 770.416161 -50.15625 
L 771.076937 -50.15625 
L 771.737713 -50.15625 
L 772.398489 -50.15625 
L 773.059265 -50.15625 
L 773.720041 -50.15625 
L 774.380817 -50.15625 
L 775.041593 -50.15625 
L 775.70237 -50.15625 
L 776.363146 -50.15625 
L 777.023922 -50.15625 
L 777.684698 -50.15625 
L 778.345474 -50.15625 
L 779.00625 -50.15625 
L 779.00625 -302.15625 
L 779.00625 -302.15625 
L 778.345474 -302.100193 
L 777.684698 -302.043936 
L 777.023922 -301.987477 
L 776.363146 -301.930816 
L 775.70237 -301.873951 
L 775.041593 -301.816881 
L 774.380817 -301.759605 
L 773.720041 -301.702122 
L 773.059265 -301.644431 
L 772.398489 -301.58653 
L 771.737713 -301.528419 
L 771.076937 -301.470096 
L 770.416161 -301.411561 
L 769.755385 -301.352811 
L 769.094609 -301.293847 
L 768.433832 -301.234666 
L 767.773056 -301.175267 
L 767.11228 -301.11565 
L 766.451504 -301.055813 
L 765.790728 -300.995755 
L 765.129952 -300.935475 
L 764.469176 -300.874971 
L 763.8084 -300.814242 
L 763.147624 -300.753287 
L 762.486848 -300.692104 
L 761.826071 -300.630693 
L 761.165295 -300.569052 
L 760.504519 -300.50718 
L 759.843743 -300.445075 
L 759.182967 -300.382737 
L 758.522191 -300.320163 
L 757.861415 -300.257353 
L 757.200639 -300.194305 
L 756.539863 -300.131017 
L 755.879087 -300.06749 
L 755.21831 -300.00372 
L 754.557534 -299.939707 
L 753.896758 -299.875449 
L 753.235982 -299.810945 
L 752.575206 -299.746194 
L 751.91443 -299.681193 
L 751.253654 -299.615943 
L 750.592878 -299.55044 
L 749.932102 -299.484684 
L 749.271326 -299.418674 
L 748.61055 -299.352407 
L 747.949773 -299.285882 
L 747.288997 -299.219098 
L 746.628221 -299.152053 
L 745.967445 -299.084746 
L 745.306669 -299.017175 
L 744.645893 -298.949339 
L 743.985117 -298.881236 
L 743.324341 -298.812864 
L 742.663565 -298.744222 
L 742.002789 -298.675308 
L 741.342012 -298.606121 
L 740.681236 -298.536659 
L 740.02046 -298.46692 
L 739.359684 -298.396903 
L 738.698908 -298.326606 
L 738.038132 -298.256027 
L 737.377356 -298.185165 
L 736.71658 -298.114018 
L 736.055804 -298.042584 
L 735.395028 -297.970862 
L 734.734251 -297.898849 
L 734.073475 -297.826545 
L 733.412699 -297.753946 
L 732.751923 -297.681052 
L 732.091147 -297.60786 
L 731.430371 -297.53437 
L 730.769595 -297.460578 
L 730.108819 -297.386483 
L 729.448043 -297.312084 
L 728.787267 -297.237377 
L 728.12649 -297.162362 
L 727.465714 -297.087037 
L 726.804938 -297.011399 
L 726.144162 -296.935447 
L 725.483386 -296.859179 
L 724.82261 -296.782592 
L 724.161834 -296.705685 
L 723.501058 -296.628455 
L 722.840282 -296.550901 
L 722.179506 -296.473021 
L 721.51873 -296.394812 
L 720.857953 -296.316273 
L 720.197177 -296.237401 
L 719.536401 -296.158194 
L 718.875625 -296.07865 
L 718.214849 -295.998767 
L 717.554073 -295.918543 
L 716.893297 -295.837976 
L 716.232521 -295.757063 
L 715.571745 -295.675802 
L 714.910969 -295.59419 
L 714.250192 -295.512227 
L 713.589416 -295.429909 
L 712.92864 -295.347233 
L 712.267864 -295.264199 
L 711.607088 -295.180803 
L 710.946312 -295.097043 
L 710.285536 -295.012916 
L 709.62476 -294.92842 
L 708.963984 -294.843554 
L 708.303208 -294.758313 
L 707.642431 -294.672697 
L 706.981655 -294.586701 
L 706.320879 -294.500325 
L 705.660103 -294.413564 
L 704.999327 -294.326418 
L 704.338551 -294.238882 
L 703.677775 -294.150955 
L 703.016999 -294.062634 
L 702.356223 -293.973917 
L 701.695447 -293.884799 
L 701.03467 -293.79528 
L 700.373894 -293.705355 
L 699.713118 -293.615023 
L 699.052342 -293.524281 
L 698.391566 -293.433125 
L 697.73079 -293.341553 
L 697.070014 -293.249562 
L 696.409238 -293.15715 
L 695.748462 -293.064313 
L 695.087686 -292.971048 
L 694.42691 -292.877352 
L 693.766133 -292.783223 
L 693.105357 -292.688658 
L 692.444581 -292.593652 
L 691.783805 -292.498204 
L 691.123029 -292.40231 
L 690.462253 -292.305967 
L 689.801477 -292.209172 
L 689.140701 -292.111922 
L 688.479925 -292.014213 
L 687.819149 -291.916043 
L 687.158372 -291.817407 
L 686.497596 -291.718303 
L 685.83682 -291.618727 
L 685.176044 -291.518676 
L 684.515268 -291.418147 
L 683.854492 -291.317136 
L 683.193716 -291.215639 
L 682.53294 -291.113653 
L 681.872164 -291.011175 
L 681.211388 -290.908201 
L 680.550611 -290.804727 
L 679.889835 -290.70075 
L 679.229059 -290.596266 
L 678.568283 -290.491271 
L 677.907507 -290.385762 
L 677.246731 -290.279734 
L 676.585955 -290.173185 
L 675.925179 -290.066109 
L 675.264403 -289.958504 
L 674.603627 -289.850365 
L 673.94285 -289.741688 
L 673.282074 -289.632469 
L 672.621298 -289.522704 
L 671.960522 -289.41239 
L 671.299746 -289.301521 
L 670.63897 -289.190094 
L 669.978194 -289.078105 
L 669.317418 -288.965549 
L 668.656642 -288.852422 
L 667.995866 -288.738719 
L 667.335089 -288.624437 
L 666.674313 -288.50957 
L 666.013537 -288.394114 
L 665.352761 -288.278065 
L 664.691985 -288.161418 
L 664.031209 -288.044169 
L 663.370433 -287.926312 
L 662.709657 -287.807844 
L 662.048881 -287.688758 
L 661.388105 -287.569052 
L 660.727329 -287.448718 
L 660.066552 -287.327754 
L 659.405776 -287.206152 
L 658.745 -287.08391 
L 658.084224 -286.961021 
L 657.423448 -286.837481 
L 656.762672 -286.713283 
L 656.101896 -286.588424 
L 655.44112 -286.462897 
L 654.780344 -286.336698 
L 654.119568 -286.20982 
L 653.458791 -286.082259 
L 652.798015 -285.954008 
L 652.137239 -285.825063 
L 651.476463 -285.695417 
L 650.815687 -285.565065 
L 650.154911 -285.434001 
L 649.494135 -285.30222 
L 648.833359 -285.169714 
L 648.172583 -285.036479 
L 647.511807 -284.902508 
L 646.85103 -284.767796 
L 646.190254 -284.632335 
L 645.529478 -284.49612 
L 644.868702 -284.359145 
L 644.207926 -284.221402 
L 643.54715 -284.082886 
L 642.886374 -283.94359 
L 642.225598 -283.803508 
L 641.564822 -283.662632 
L 640.904046 -283.520956 
L 640.243269 -283.378473 
L 639.582493 -283.235177 
L 638.921717 -283.09106 
L 638.260941 -282.946115 
L 637.600165 -282.800335 
L 636.939389 -282.653712 
L 636.278613 -282.506241 
L 635.617837 -282.357912 
L 634.957061 -282.208719 
L 634.296285 -282.058653 
L 633.635509 -281.907709 
L 632.974732 -281.755876 
L 632.313956 -281.603149 
L 631.65318 -281.449518 
L 630.992404 -281.294976 
L 630.331628 -281.139514 
L 629.670852 -280.983125 
L 629.010076 -280.8258 
L 628.3493 -280.667531 
L 627.688524 -280.508309 
L 627.027748 -280.348125 
L 626.366971 -280.18697 
L 625.706195 -280.024837 
L 625.045419 -279.861716 
L 624.384643 -279.697597 
L 623.723867 -279.532472 
L 623.063091 -279.366332 
L 622.402315 -279.199167 
L 621.741539 -279.030967 
L 621.080763 -278.861723 
L 620.419987 -278.691425 
L 619.75921 -278.520063 
L 619.098434 -278.347628 
L 618.437658 -278.174109 
L 617.776882 -277.999495 
L 617.116106 -277.823777 
L 616.45533 -277.646944 
L 615.794554 -277.468985 
L 615.133778 -277.28989 
L 614.473002 -277.109648 
L 613.812226 -276.928247 
L 613.151449 -276.745676 
L 612.490673 -276.561925 
L 611.829897 -276.376981 
L 611.169121 -276.190832 
L 610.508345 -276.003468 
L 609.847569 -275.814876 
L 609.186793 -275.625044 
L 608.526017 -275.43396 
L 607.865241 -275.241611 
L 607.204465 -275.047985 
L 606.543689 -274.853068 
L 605.882912 -274.656849 
L 605.222136 -274.459313 
L 604.56136 -274.260448 
L 603.900584 -274.060241 
L 603.239808 -273.858676 
L 602.579032 -273.655742 
L 601.918256 -273.451423 
L 601.25748 -273.245705 
L 600.596704 -273.038575 
L 599.935928 -272.830016 
L 599.275151 -272.620016 
L 598.614375 -272.408558 
L 597.953599 -272.195627 
L 597.292823 -271.981209 
L 596.632047 -271.765286 
L 595.971271 -271.547844 
L 595.310495 -271.328866 
L 594.649719 -271.108337 
L 593.988943 -270.886238 
L 593.328167 -270.662554 
L 592.66739 -270.437268 
L 592.006614 -270.210362 
L 591.345838 -269.981819 
L 590.685062 -269.751621 
L 590.024286 -269.519749 
L 589.36351 -269.286187 
L 588.702734 -269.050914 
L 588.041958 -268.813913 
L 587.381182 -268.575163 
L 586.720406 -268.334647 
L 586.059629 -268.092343 
L 585.398853 -267.848232 
L 584.738077 -267.602294 
L 584.077301 -267.354509 
L 583.416525 -267.104854 
L 582.755749 -266.853309 
L 582.094973 -266.599853 
L 581.434197 -266.344463 
L 580.773421 -266.087117 
L 580.112645 -265.827794 
L 579.451869 -265.566469 
L 578.791092 -265.30312 
L 578.130316 -265.037723 
L 577.46954 -264.770254 
L 576.808764 -264.500689 
L 576.147988 -264.229002 
L 575.487212 -263.95517 
L 574.826436 -263.679165 
L 574.16566 -263.400963 
L 573.504884 -263.120537 
L 572.844108 -262.837861 
L 572.183331 -262.552906 
L 571.522555 -262.265646 
L 570.861779 -261.976052 
L 570.201003 -261.684095 
L 569.540227 -261.389747 
L 568.879451 -261.092979 
L 568.218675 -260.79376 
L 567.557899 -260.492059 
L 566.897123 -260.187846 
L 566.236347 -259.881089 
L 565.57557 -259.571757 
L 564.914794 -259.259816 
L 564.254018 -258.945234 
L 563.593242 -258.627976 
L 562.932466 -258.308009 
L 562.27169 -257.985297 
L 561.610914 -257.659806 
L 560.950138 -257.331498 
L 560.289362 -257.000338 
L 559.628586 -256.666288 
L 558.967809 -256.329311 
L 558.307033 -255.989366 
L 557.646257 -255.646416 
L 556.985481 -255.300419 
L 556.324705 -254.951336 
L 555.663929 -254.599125 
L 555.003153 -254.243743 
L 554.342377 -253.885148 
L 553.681601 -253.523295 
L 553.020825 -253.15814 
L 552.360049 -252.789639 
L 551.699272 -252.417743 
L 551.038496 -252.042407 
L 550.37772 -251.663583 
L 549.716944 -251.281221 
L 549.056168 -250.895272 
L 548.395392 -250.505685 
L 547.734616 -250.112408 
L 547.07384 -249.715389 
L 546.413064 -249.314574 
L 545.752288 -248.909909 
L 545.091511 -248.501337 
L 544.430735 -248.088802 
L 543.769959 -247.672245 
L 543.109183 -247.251609 
L 542.448407 -246.826832 
L 541.787631 -246.397852 
L 541.126855 -245.964609 
L 540.466079 -245.527037 
L 539.805303 -245.085071 
L 539.144527 -244.638644 
L 538.48375 -244.18769 
L 537.822974 -243.732138 
L 537.162198 -243.271919 
L 536.501422 -242.806959 
L 535.840646 -242.337186 
L 535.17987 -241.862523 
L 534.519094 -241.382895 
L 533.858318 -240.898224 
L 533.197542 -240.408428 
L 532.536766 -239.913426 
L 531.875989 -239.413136 
L 531.215213 -238.907471 
L 530.554437 -238.396346 
L 529.893661 -237.879669 
L 529.232885 -237.357352 
L 528.572109 -236.829301 
L 527.911333 -236.29542 
L 527.250557 -235.755614 
L 526.589781 -235.209782 
L 525.929005 -234.657824 
L 525.268229 -234.099635 
L 524.607452 -233.535109 
L 523.946676 -232.964139 
L 523.2859 -232.386612 
L 522.625124 -231.802416 
L 521.964348 -231.211434 
L 521.303572 -230.613547 
L 520.642796 -230.008633 
L 519.98202 -229.396569 
L 519.321244 -228.777226 
L 518.660468 -228.150473 
L 517.999691 -227.516178 
L 517.338915 -226.874203 
L 516.678139 -226.224407 
L 516.017363 -225.566647 
L 515.356587 -224.900776 
L 514.695811 -224.226642 
L 514.035035 -223.544091 
L 513.374259 -222.852964 
L 512.713483 -222.153099 
L 512.052707 -221.444328 
L 511.39193 -220.726482 
L 510.731154 -219.999383 
L 510.070378 -219.262853 
L 509.409602 -218.516706 
L 508.748826 -217.760754 
L 508.08805 -216.9948 
L 507.427274 -216.218646 
L 506.766498 -215.432087 
L 506.105722 -214.634911 
L 505.444946 -213.826903 
L 504.784169 -213.00784 
L 504.123393 -212.177493 
L 503.462617 -211.335629 
L 502.801841 -210.482004 
L 502.141065 -209.616373 
L 501.480289 -208.738478 
L 500.819513 -207.848059 
L 500.158737 -206.944844 
L 499.497961 -206.028556 
L 498.837185 -205.098909 
L 498.176408 -204.155609 
L 497.515632 -203.198354 
L 496.854856 -202.226829 
L 496.19408 -201.240716 
L 495.533304 -200.239682 
L 494.872528 -199.223385 
L 494.211752 -198.191475 
L 493.550976 -197.143589 
L 492.8902 -196.079353 
L 492.229424 -194.998381 
L 491.568648 -193.900275 
L 490.907871 -192.784625 
L 490.247095 -191.651007 
L 489.586319 -190.498983 
L 488.925543 -189.328101 
L 488.264767 -188.137895 
L 487.603991 -186.927881 
L 486.943215 -185.697563 
L 486.282439 -184.446423 
L 485.621663 -183.173929 
L 484.960887 -181.87953 
L 484.30011 -180.562655 
L 483.639334 -179.222713 
L 482.978558 -177.859093 
L 482.317782 -176.471163 
L 481.657006 -175.058265 
L 480.99623 -173.61972 
L 480.335454 -172.154823 
L 479.674678 -170.662844 
L 479.013902 -169.143025 
L 478.353126 -167.594579 
L 477.692349 -166.016689 
L 477.031573 -164.408508 
L 476.370797 -162.769154 
L 475.710021 -161.097713 
L 475.049245 -159.393234 
L 474.388469 -157.654726 
L 473.727693 -155.881161 
L 473.066917 -154.071468 
L 472.406141 -152.22453 
L 471.745365 -150.339187 
L 471.084588 -148.414228 
L 470.423812 -146.448391 
L 469.763036 -144.44036 
L 469.10226 -142.388761 
L 468.441484 -140.292162 
L 467.780708 -138.149065 
L 467.119932 -135.957906 
L 466.459156 -133.71705 
L 465.79838 -131.424787 
L 465.137604 -129.079327 
L 464.476828 -126.678797 
L 463.816051 -124.221234 
L 463.155275 -121.704582 
L 462.494499 -119.126682 
L 461.833723 -116.485273 
L 461.172947 -113.777977 
L 460.512171 -111.002298 
L 459.851395 -108.155612 
L 459.190619 -105.23516 
L 458.529843 -102.238036 
L 457.869067 -99.161181 
L 457.20829 -96.00137 
L 456.547514 -92.755203 
L 455.886738 -89.41909 
L 455.225962 -85.989241 
L 454.565186 -82.461648 
L 453.90441 -78.832073 
L 453.243634 -75.096029 
L 452.582858 -71.248761 
L 451.922082 -67.285228 
L 451.261306 -63.200077 
L 450.600529 -58.987626 
L 449.939753 -54.641828 
L 449.278977 -50.15625 
z
" style="stroke: #dc143c; stroke-opacity: 0.4"/>
    </defs>
    <g clip-path="url(#p3c77f25dc5)">
     <use xlink:href="#mc921cd90e2" x="0" y="357.95625" style="fill: #dc143c; fill-opacity: 0.4; stroke: #dc143c; stroke-opacity: 0.4"/>
    </g>
   </g>
   <g id="matplotlib.axis_3">
    <g id="xtick_7">
     <g id="line2d_39">
      <path d="M 449.278977 320.4 
L 449.278977 43.2 
" clip-path="url(#p3c77f25dc5)" style="fill: none; stroke: #b0b0b0; stroke-opacity: 0.3; stroke-width: 0.8; stroke-linecap: square"/>
     </g>
     <g id="line2d_40">
      <g>
       <use xlink:href="#m8c8dced3ef" x="449.278977" y="320.4" style="stroke: #000000; stroke-width: 0.8"/>
      </g>
     </g>
     <g id="text_24">
      <!-- 0 -->
      <g transform="translate(446.097727 334.998437) scale(0.1 -0.1)">
       <use xlink:href="#DejaVuSans-30"/>
      </g>
     </g>
    </g>
    <g id="xtick_8">
     <g id="line2d_41">
      <path d="M 515.224432 320.4 
L 515.224432 43.2 
" clip-path="url(#p3c77f25dc5)" style="fill: none; stroke: #b0b0b0; stroke-opacity: 0.3; stroke-width: 0.8; stroke-linecap: square"/>
     </g>
     <g id="line2d_42">
      <g>
       <use xlink:href="#m8c8dced3ef" x="515.224432" y="320.4" style="stroke: #000000; stroke-width: 0.8"/>
      </g>
     </g>
     <g id="text_25">
      <!-- 1 -->
      <g transform="translate(512.043182 334.998437) scale(0.1 -0.1)">
       <use xlink:href="#DejaVuSans-31"/>
      </g>
     </g>
    </g>
    <g id="xtick_9">
     <g id="line2d_43">
      <path d="M 581.169886 320.4 
L 581.169886 43.2 
" clip-path="url(#p3c77f25dc5)" style="fill: none; stroke: #b0b0b0; stroke-opacity: 0.3; stroke-width: 0.8; stroke-linecap: square"/>
     </g>
     <g id="line2d_44">
      <g>
       <use xlink:href="#m8c8dced3ef" x="581.169886" y="320.4" style="stroke: #000000; stroke-width: 0.8"/>
      </g>
     </g>
     <g id="text_26">
      <!-- 2 -->
      <g transform="translate(577.988636 334.998437) scale(0.1 -0.1)">
       <use xlink:href="#DejaVuSans-32"/>
      </g>
     </g>
    </g>
    <g id="xtick_10">
     <g id="line2d_45">
      <path d="M 647.115341 320.4 
L 647.115341 43.2 
" clip-path="url(#p3c77f25dc5)" style="fill: none; stroke: #b0b0b0; stroke-opacity: 0.3; stroke-width: 0.8; stroke-linecap: square"/>
     </g>
     <g id="line2d_46">
      <g>
       <use xlink:href="#m8c8dced3ef" x="647.115341" y="320.4" style="stroke: #000000; stroke-width: 0.8"/>
      </g>
     </g>
     <g id="text_27">
      <!-- 3 -->
      <g transform="translate(643.934091 334.998437) scale(0.1 -0.1)">
       <use xlink:href="#DejaVuSans-33"/>
      </g>
     </g>
    </g>
    <g id="xtick_11">
     <g id="line2d_47">
      <path d="M 713.060795 320.4 
L 713.060795 43.2 
" clip-path="url(#p3c77f25dc5)" style="fill: none; stroke: #b0b0b0; stroke-opacity: 0.3; stroke-width: 0.8; stroke-linecap: square"/>
     </g>
     <g id="line2d_48">
      <g>
       <use xlink:href="#m8c8dced3ef" x="713.060795" y="320.4" style="stroke: #000000; stroke-width: 0.8"/>
      </g>
     </g>
     <g id="text_28">
      <!-- 4 -->
      <g transform="translate(709.879545 334.998437) scale(0.1 -0.1)">
       <use xlink:href="#DejaVuSans-34"/>
      </g>
     </g>
    </g>
    <g id="xtick_12">
     <g id="line2d_49">
      <path d="M 779.00625 320.4 
L 779.00625 43.2 
" clip-path="url(#p3c77f25dc5)" style="fill: none; stroke: #b0b0b0; stroke-opacity: 0.3; stroke-width: 0.8; stroke-linecap: square"/>
     </g>
     <g id="line2d_50">
      <g>
       <use xlink:href="#m8c8dced3ef" x="779.00625" y="320.4" style="stroke: #000000; stroke-width: 0.8"/>
      </g>
     </g>
     <g id="text_29">
      <!-- 5 -->
      <g transform="translate(775.825 334.998437) scale(0.1 -0.1)">
       <use xlink:href="#DejaVuSans-35"/>
      </g>
     </g>
    </g>
    <g id="text_30">
     <!-- Luftgehalt α [%] -->
     <g transform="translate(573.683239 348.676562) scale(0.1 -0.1)">
      <use xlink:href="#DejaVuSans-4c"/>
      <use xlink:href="#DejaVuSans-75" transform="translate(53.962891 0)"/>
      <use xlink:href="#DejaVuSans-66" transform="translate(117.341797 0)"/>
      <use xlink:href="#DejaVuSans-74" transform="translate(150.796875 0)"/>
      <use xlink:href="#DejaVuSans-67" transform="translate(190.005859 0)"/>
      <use xlink:href="#DejaVuSans-65" transform="translate(253.482422 0)"/>
      <use xlink:href="#DejaVuSans-68" transform="translate(315.005859 0)"/>
      <use xlink:href="#DejaVuSans-61" transform="translate(378.384766 0)"/>
      <use xlink:href="#DejaVuSans-6c" transform="translate(439.664062 0)"/>
      <use xlink:href="#DejaVuSans-74" transform="translate(467.447266 0)"/>
      <use xlink:href="#DejaVuSans-20" transform="translate(506.65625 0)"/>
      <use xlink:href="#DejaVuSans-3b1" transform="translate(538.443359 0)"/>
      <use xlink:href="#DejaVuSans-20" transform="translate(604.361328 0)"/>
      <use xlink:href="#DejaVuSans-5b" transform="translate(636.148438 0)"/>
      <use xlink:href="#DejaVuSans-25" transform="translate(675.162109 0)"/>
      <use xlink:href="#DejaVuSans-5d" transform="translate(770.181641 0)"/>
     </g>
    </g>
   </g>
   <g id="matplotlib.axis_4">
    <g id="ytick_9">
     <g id="line2d_51">
      <path d="M 449.278977 307.8 
L 779.00625 307.8 
" clip-path="url(#p3c77f25dc5)" style="fill: none; stroke: #b0b0b0; stroke-opacity: 0.3; stroke-width: 0.8; stroke-linecap: square"/>
     </g>
     <g id="line2d_52">
      <g>
       <use xlink:href="#m6c1be56877" x="449.278977" y="307.8" style="stroke: #000000; stroke-width: 0.8"/>
      </g>
     </g>
     <g id="text_31">
      <!-- 0 -->
      <g transform="translate(435.916477 311.599219) scale(0.1 -0.1)">
       <use xlink:href="#DejaVuSans-30"/>
      </g>
     </g>
    </g>
    <g id="ytick_10">
     <g id="line2d_53">
      <path d="M 449.278977 251.119626 
L 779.00625 251.119626 
" clip-path="url(#p3c77f25dc5)" style="fill: none; stroke: #b0b0b0; stroke-opacity: 0.3; stroke-width: 0.8; stroke-linecap: square"/>
     </g>
     <g id="line2d_54">
      <g>
       <use xlink:href="#m6c1be56877" x="449.278977" y="251.119626" style="stroke: #000000; stroke-width: 0.8"/>
      </g>
     </g>
     <g id="text_32">
      <!-- 20 -->
      <g transform="translate(429.553977 254.918845) scale(0.1 -0.1)">
       <use xlink:href="#DejaVuSans-32"/>
       <use xlink:href="#DejaVuSans-30" transform="translate(63.623047 0)"/>
      </g>
     </g>
    </g>
    <g id="ytick_11">
     <g id="line2d_55">
      <path d="M 449.278977 194.439252 
L 779.00625 194.439252 
" clip-path="url(#p3c77f25dc5)" style="fill: none; stroke: #b0b0b0; stroke-opacity: 0.3; stroke-width: 0.8; stroke-linecap: square"/>
     </g>
     <g id="line2d_56">
      <g>
       <use xlink:href="#m6c1be56877" x="449.278977" y="194.439252" style="stroke: #000000; stroke-width: 0.8"/>
      </g>
     </g>
     <g id="text_33">
      <!-- 40 -->
      <g transform="translate(429.553977 198.238471) scale(0.1 -0.1)">
       <use xlink:href="#DejaVuSans-34"/>
       <use xlink:href="#DejaVuSans-30" transform="translate(63.623047 0)"/>
      </g>
     </g>
    </g>
    <g id="ytick_12">
     <g id="line2d_57">
      <path d="M 449.278977 137.758879 
L 779.00625 137.758879 
" clip-path="url(#p3c77f25dc5)" style="fill: none; stroke: #b0b0b0; stroke-opacity: 0.3; stroke-width: 0.8; stroke-linecap: square"/>
     </g>
     <g id="line2d_58">
      <g>
       <use xlink:href="#m6c1be56877" x="449.278977" y="137.758879" style="stroke: #000000; stroke-width: 0.8"/>
      </g>
     </g>
     <g id="text_34">
      <!-- 60 -->
      <g transform="translate(429.553977 141.558097) scale(0.1 -0.1)">
       <defs>
        <path id="DejaVuSans-36" d="M 2113 2584 
Q 1688 2584 1439 2293 
Q 1191 2003 1191 1497 
Q 1191 994 1439 701 
Q 1688 409 2113 409 
Q 2538 409 2786 701 
Q 3034 994 3034 1497 
Q 3034 2003 2786 2293 
Q 2538 2584 2113 2584 
z
M 3366 4563 
L 3366 3988 
Q 3128 4100 2886 4159 
Q 2644 4219 2406 4219 
Q 1781 4219 1451 3797 
Q 1122 3375 1075 2522 
Q 1259 2794 1537 2939 
Q 1816 3084 2150 3084 
Q 2853 3084 3261 2657 
Q 3669 2231 3669 1497 
Q 3669 778 3244 343 
Q 2819 -91 2113 -91 
Q 1303 -91 875 529 
Q 447 1150 447 2328 
Q 447 3434 972 4092 
Q 1497 4750 2381 4750 
Q 2619 4750 2861 4703 
Q 3103 4656 3366 4563 
z
" transform="scale(0.015625)"/>
       </defs>
       <use xlink:href="#DejaVuSans-36"/>
       <use xlink:href="#DejaVuSans-30" transform="translate(63.623047 0)"/>
      </g>
     </g>
    </g>
    <g id="ytick_13">
     <g id="line2d_59">
      <path d="M 449.278977 81.078505 
L 779.00625 81.078505 
" clip-path="url(#p3c77f25dc5)" style="fill: none; stroke: #b0b0b0; stroke-opacity: 0.3; stroke-width: 0.8; stroke-linecap: square"/>
     </g>
     <g id="line2d_60">
      <g>
       <use xlink:href="#m6c1be56877" x="449.278977" y="81.078505" style="stroke: #000000; stroke-width: 0.8"/>
      </g>
     </g>
     <g id="text_35">
      <!-- 80 -->
      <g transform="translate(429.553977 84.877723) scale(0.1 -0.1)">
       <defs>
        <path id="DejaVuSans-38" d="M 2034 2216 
Q 1584 2216 1326 1975 
Q 1069 1734 1069 1313 
Q 1069 891 1326 650 
Q 1584 409 2034 409 
Q 2484 409 2743 651 
Q 3003 894 3003 1313 
Q 3003 1734 2745 1975 
Q 2488 2216 2034 2216 
z
M 1403 2484 
Q 997 2584 770 2862 
Q 544 3141 544 3541 
Q 544 4100 942 4425 
Q 1341 4750 2034 4750 
Q 2731 4750 3128 4425 
Q 3525 4100 3525 3541 
Q 3525 3141 3298 2862 
Q 3072 2584 2669 2484 
Q 3125 2378 3379 2068 
Q 3634 1759 3634 1313 
Q 3634 634 3220 271 
Q 2806 -91 2034 -91 
Q 1263 -91 848 271 
Q 434 634 434 1313 
Q 434 1759 690 2068 
Q 947 2378 1403 2484 
z
M 1172 3481 
Q 1172 3119 1398 2916 
Q 1625 2713 2034 2713 
Q 2441 2713 2670 2916 
Q 2900 3119 2900 3481 
Q 2900 3844 2670 4047 
Q 2441 4250 2034 4250 
Q 1625 4250 1398 4047 
Q 1172 3844 1172 3481 
z
" transform="scale(0.015625)"/>
       </defs>
       <use xlink:href="#DejaVuSans-38"/>
       <use xlink:href="#DejaVuSans-30" transform="translate(63.623047 0)"/>
      </g>
     </g>
    </g>
    <g id="text_36">
     <!-- Modulrückgang [%] -->
     <g transform="translate(423.47429 230.596875) rotate(-90) scale(0.1 -0.1)">
      <defs>
       <path id="DejaVuSans-6f" d="M 1959 3097 
Q 1497 3097 1228 2736 
Q 959 2375 959 1747 
Q 959 1119 1226 758 
Q 1494 397 1959 397 
Q 2419 397 2687 759 
Q 2956 1122 2956 1747 
Q 2956 2369 2687 2733 
Q 2419 3097 1959 3097 
z
M 1959 3584 
Q 2709 3584 3137 3096 
Q 3566 2609 3566 1747 
Q 3566 888 3137 398 
Q 2709 -91 1959 -91 
Q 1206 -91 779 398 
Q 353 888 353 1747 
Q 353 2609 779 3096 
Q 1206 3584 1959 3584 
z
" transform="scale(0.015625)"/>
      </defs>
      <use xlink:href="#DejaVuSans-4d"/>
      <use xlink:href="#DejaVuSans-6f" transform="translate(86.279297 0)"/>
      <use xlink:href="#DejaVuSans-64" transform="translate(147.460938 0)"/>
      <use xlink:href="#DejaVuSans-75" transform="translate(210.9375 0)"/>
      <use xlink:href="#DejaVuSans-6c" transform="translate(274.316406 0)"/>
      <use xlink:href="#DejaVuSans-72" transform="translate(302.099609 0)"/>
      <use xlink:href="#DejaVuSans-fc" transform="translate(343.212891 0)"/>
      <use xlink:href="#DejaVuSans-63" transform="translate(406.591797 0)"/>
      <use xlink:href="#DejaVuSans-6b" transform="translate(461.572266 0)"/>
      <use xlink:href="#DejaVuSans-67" transform="translate(519.482422 0)"/>
      <use xlink:href="#DejaVuSans-61" transform="translate(582.958984 0)"/>
      <use xlink:href="#DejaVuSans-6e" transform="translate(644.238281 0)"/>
      <use xlink:href="#DejaVuSans-67" transform="translate(707.617188 0)"/>
      <use xlink:href="#DejaVuSans-20" transform="translate(771.09375 0)"/>
      <use xlink:href="#DejaVuSans-5b" transform="translate(802.880859 0)"/>
      <use xlink:href="#DejaVuSans-25" transform="translate(841.894531 0)"/>
      <use xlink:href="#DejaVuSans-5d" transform="translate(936.914062 0)"/>
     </g>
    </g>
   </g>
   <g id="line2d_61">
    <path d="M 449.278977 307.8 
L 451.261306 294.756173 
L 453.243634 282.860221 
L 455.886738 268.53716 
L 458.529843 255.718214 
L 461.172947 244.178273 
L 463.816051 233.735016 
L 466.459156 224.2392 
L 469.10226 215.567489 
L 471.745365 207.617063 
L 474.388469 200.301524 
L 477.031573 193.547742 
L 479.674678 187.293406 
L 482.978558 180.097157 
L 486.282439 173.509827 
L 489.586319 167.457267 
L 492.8902 161.876897 
L 496.19408 156.715534 
L 499.497961 151.927694 
L 502.801841 147.474246 
L 506.766498 142.524163 
L 510.731154 137.956867 
L 514.695811 133.729608 
L 518.660468 129.805777 
L 523.2859 125.569638 
L 527.911333 121.66083 
L 532.536766 118.042824 
L 537.162198 114.684331 
L 542.448407 111.129418 
L 547.734616 107.843842 
L 553.681601 104.432955 
L 559.628586 101.289962 
L 565.57557 98.384493 
L 572.183331 95.403344 
L 579.451869 92.389781 
L 586.720406 89.621603 
L 594.649719 86.847913 
L 603.239808 84.097574 
L 611.829897 81.579269 
L 621.080763 79.094527 
L 630.992404 76.661274 
L 641.564822 74.293618 
L 652.798015 72.002242 
L 665.352761 69.678185 
L 678.568283 67.464979 
L 693.105357 65.267592 
L 708.303208 63.197937 
L 724.82261 61.173658 
L 742.663565 59.212028 
L 762.486848 57.264146 
L 779.00625 55.8 
L 779.00625 55.8 
" clip-path="url(#p3c77f25dc5)" style="fill: none; stroke: #dc143c; stroke-width: 2; stroke-linecap: square"/>
   </g>
   <g id="line2d_62">
    <path d="M 449.278977 279.459813 
L 779.00625 279.459813 
" clip-path="url(#p3c77f25dc5)" style="fill: none; stroke-dasharray: 3.7,1.6; stroke-dashoffset: 0; stroke: #ffa500"/>
   </g>
   <g id="line2d_63">
    <path d="M 449.278977 166.099065 
L 779.00625 166.099065 
" clip-path="url(#p3c77f25dc5)" style="fill: none; stroke-dasharray: 3.7,1.6; stroke-dashoffset: 0; stroke: #ff0000"/>
   </g>
   <g id="patch_9">
    <path d="M 449.278977 320.4 
L 449.278977 43.2 
" style="fill: none; stroke: #000000; stroke-width: 0.8; stroke-linejoin: miter; stroke-linecap: square"/>
   </g>
   <g id="patch_10">
    <path d="M 779.00625 320.4 
L 779.00625 43.2 
" style="fill: none; stroke: #000000; stroke-width: 0.8; stroke-linejoin: miter; stroke-linecap: square"/>
   </g>
   <g id="patch_11">
    <path d="M 449.278977 320.4 
L 779.00625 320.4 
" style="fill: none; stroke: #000000; stroke-width: 0.8; stroke-linejoin: miter; stroke-linecap: square"/>
   </g>
   <g id="patch_12">
    <path d="M 449.278977 43.2 
L 779.00625 43.2 
" style="fill: none; stroke: #000000; stroke-width: 0.8; stroke-linejoin: miter; stroke-linecap: square"/>
   </g>
   <g id="text_37">
    <!-- Relativer K_eff-Rückgang bei 100 bar gegenüber α=0 -->
    <g transform="translate(453.831989 37.2) scale(0.12 -0.12)">
     <defs>
      <path id="DejaVuSans-52" d="M 2841 2188 
Q 3044 2119 3236 1894 
Q 3428 1669 3622 1275 
L 4263 0 
L 3584 0 
L 2988 1197 
Q 2756 1666 2539 1819 
Q 2322 1972 1947 1972 
L 1259 1972 
L 1259 0 
L 628 0 
L 628 4666 
L 2053 4666 
Q 2853 4666 3247 4331 
Q 3641 3997 3641 3322 
Q 3641 2881 3436 2590 
Q 3231 2300 2841 2188 
z
M 1259 4147 
L 1259 2491 
L 2053 2491 
Q 2509 2491 2742 2702 
Q 2975 2913 2975 3322 
Q 2975 3731 2742 3939 
Q 2509 4147 2053 4147 
L 1259 4147 
z
" transform="scale(0.015625)"/>
      <path id="DejaVuSans-2d" d="M 313 2009 
L 1997 2009 
L 1997 1497 
L 313 1497 
L 313 2009 
z
" transform="scale(0.015625)"/>
      <path id="DejaVuSans-3d" d="M 678 2906 
L 4684 2906 
L 4684 2381 
L 678 2381 
L 678 2906 
z
M 678 1631 
L 4684 1631 
L 4684 1100 
L 678 1100 
L 678 1631 
z
" transform="scale(0.015625)"/>
     </defs>
     <use xlink:href="#DejaVuSans-52"/>
     <use xlink:href="#DejaVuSans-65" transform="translate(64.982422 0)"/>
     <use xlink:href="#DejaVuSans-6c" transform="translate(126.505859 0)"/>
     <use xlink:href="#DejaVuSans-61" transform="translate(154.289062 0)"/>
     <use xlink:href="#DejaVuSans-74" transform="translate(215.568359 0)"/>
     <use xlink:href="#DejaVuSans-69" transform="translate(254.777344 0)"/>
     <use xlink:href="#DejaVuSans-76" transform="translate(282.560547 0)"/>
     <use xlink:href="#DejaVuSans-65" transform="translate(341.740234 0)"/>
     <use xlink:href="#DejaVuSans-72" transform="translate(403.263672 0)"/>
     <use xlink:href="#DejaVuSans-20" transform="translate(444.376953 0)"/>
     <use xlink:href="#DejaVuSans-4b" transform="translate(476.164062 0)"/>
     <use xlink:href="#DejaVuSans-5f" transform="translate(541.740234 0)"/>
     <use xlink:href="#DejaVuSans-65" transform="translate(591.740234 0)"/>
     <use xlink:href="#DejaVuSans-66" transform="translate(653.263672 0)"/>
     <use xlink:href="#DejaVuSans-66" transform="translate(688.46875 0)"/>
     <use xlink:href="#DejaVuSans-2d" transform="translate(718.173828 0)"/>
     <use xlink:href="#DejaVuSans-52" transform="translate(754.257812 0)"/>
     <use xlink:href="#DejaVuSans-fc" transform="translate(819.240234 0)"/>
     <use xlink:href="#DejaVuSans-63" transform="translate(882.619141 0)"/>
     <use xlink:href="#DejaVuSans-6b" transform="translate(937.599609 0)"/>
     <use xlink:href="#DejaVuSans-67" transform="translate(995.509766 0)"/>
     <use xlink:href="#DejaVuSans-61" transform="translate(1058.986328 0)"/>
     <use xlink:href="#DejaVuSans-6e" transform="translate(1120.265625 0)"/>
     <use xlink:href="#DejaVuSans-67" transform="translate(1183.644531 0)"/>
     <use xlink:href="#DejaVuSans-20" transform="translate(1247.121094 0)"/>
     <use xlink:href="#DejaVuSans-62" transform="translate(1278.908203 0)"/>
     <use xlink:href="#DejaVuSans-65" transform="translate(1342.384766 0)"/>
     <use xlink:href="#DejaVuSans-69" transform="translate(1403.908203 0)"/>
     <use xlink:href="#DejaVuSans-20" transform="translate(1431.691406 0)"/>
     <use xlink:href="#DejaVuSans-31" transform="translate(1463.478516 0)"/>
     <use xlink:href="#DejaVuSans-30" transform="translate(1527.101562 0)"/>
     <use xlink:href="#DejaVuSans-30" transform="translate(1590.724609 0)"/>
     <use xlink:href="#DejaVuSans-20" transform="translate(1654.347656 0)"/>
     <use xlink:href="#DejaVuSans-62" transform="translate(1686.134766 0)"/>
     <use xlink:href="#DejaVuSans-61" transform="translate(1749.611328 0)"/>
     <use xlink:href="#DejaVuSans-72" transform="translate(1810.890625 0)"/>
     <use xlink:href="#DejaVuSans-20" transform="translate(1852.003906 0)"/>
     <use xlink:href="#DejaVuSans-67" transform="translate(1883.791016 0)"/>
     <use xlink:href="#DejaVuSans-65" transform="translate(1947.267578 0)"/>
     <use xlink:href="#DejaVuSans-67" transform="translate(2008.791016 0)"/>
     <use xlink:href="#DejaVuSans-65" transform="translate(2072.267578 0)"/>
     <use xlink:href="#DejaVuSans-6e" transform="translate(2133.791016 0)"/>
     <use xlink:href="#DejaVuSans-fc" transform="translate(2197.169922 0)"/>
     <use xlink:href="#DejaVuSans-62" transform="translate(2260.548828 0)"/>
     <use xlink:href="#DejaVuSans-65" transform="translate(2324.025391 0)"/>
     <use xlink:href="#DejaVuSans-72" transform="translate(2385.548828 0)"/>
     <use xlink:href="#DejaVuSans-20" transform="translate(2426.662109 0)"/>
     <use xlink:href="#DejaVuSans-3b1" transform="translate(2458.449219 0)"/>
     <use xlink:href="#DejaVuSans-3d" transform="translate(2524.367188 0)"/>
     <use xlink:href="#DejaVuSans-30" transform="translate(2608.15625 0)"/>
    </g>
   </g>
   <g id="legend_2">
    <g id="patch_13">
     <path d="M 456.278977 80.55625 
L 553.18054 80.55625 
Q 555.18054 80.55625 555.18054 78.55625 
L 555.18054 50.2 
Q 555.18054 48.2 553.18054 48.2 
L 456.278977 48.2 
Q 454.278977 48.2 454.278977 50.2 
L 454.278977 78.55625 
Q 454.278977 80.55625 456.278977 80.55625 
z
" style="fill: #ffffff; opacity: 0.8; stroke: #cccccc; stroke-linejoin: miter"/>
    </g>
    <g id="line2d_64">
     <path d="M 458.278977 56.298437 
L 468.278977 56.298437 
L 478.278977 56.298437 
" style="fill: none; stroke-dasharray: 3.7,1.6; stroke-dashoffset: 0; stroke: #ffa500"/>
    </g>
    <g id="text_38">
     <!-- 10 %-Grenze -->
     <g transform="translate(486.278977 59.798437) scale(0.1 -0.1)">
      <defs>
       <path id="DejaVuSans-47" d="M 3809 666 
L 3809 1919 
L 2778 1919 
L 2778 2438 
L 4434 2438 
L 4434 434 
Q 4069 175 3628 42 
Q 3188 -91 2688 -91 
Q 1594 -91 976 548 
Q 359 1188 359 2328 
Q 359 3472 976 4111 
Q 1594 4750 2688 4750 
Q 3144 4750 3555 4637 
Q 3966 4525 4313 4306 
L 4313 3634 
Q 3963 3931 3569 4081 
Q 3175 4231 2741 4231 
Q 1884 4231 1454 3753 
Q 1025 3275 1025 2328 
Q 1025 1384 1454 906 
Q 1884 428 2741 428 
Q 3075 428 3337 486 
Q 3600 544 3809 666 
z
" transform="scale(0.015625)"/>
       <path id="DejaVuSans-7a" d="M 353 3500 
L 3084 3500 
L 3084 2975 
L 922 459 
L 3084 459 
L 3084 0 
L 275 0 
L 275 525 
L 2438 3041 
L 353 3041 
L 353 3500 
z
" transform="scale(0.015625)"/>
      </defs>
      <use xlink:href="#DejaVuSans-31"/>
      <use xlink:href="#DejaVuSans-30" transform="translate(63.623047 0)"/>
      <use xlink:href="#DejaVuSans-20" transform="translate(127.246094 0)"/>
      <use xlink:href="#DejaVuSans-25" transform="translate(159.033203 0)"/>
      <use xlink:href="#DejaVuSans-2d" transform="translate(254.052734 0)"/>
      <use xlink:href="#DejaVuSans-47" transform="translate(293.761719 0)"/>
      <use xlink:href="#DejaVuSans-72" transform="translate(371.251953 0)"/>
      <use xlink:href="#DejaVuSans-65" transform="translate(410.115234 0)"/>
      <use xlink:href="#DejaVuSans-6e" transform="translate(471.638672 0)"/>
      <use xlink:href="#DejaVuSans-7a" transform="translate(535.017578 0)"/>
      <use xlink:href="#DejaVuSans-65" transform="translate(587.507812 0)"/>
     </g>
    </g>
    <g id="line2d_65">
     <path d="M 458.278977 70.976562 
L 468.278977 70.976562 
L 478.278977 70.976562 
" style="fill: none; stroke-dasharray: 3.7,1.6; stroke-dashoffset: 0; stroke: #ff0000"/>
    </g>
    <g id="text_39">
     <!-- 50 %-Grenze -->
     <g transform="translate(486.278977 74.476562) scale(0.1 -0.1)">
      <use xlink:href="#DejaVuSans-35"/>
      <use xlink:href="#DejaVuSans-30" transform="translate(63.623047 0)"/>
      <use xlink:href="#DejaVuSans-20" transform="translate(127.246094 0)"/>
      <use xlink:href="#DejaVuSans-25" transform="translate(159.033203 0)"/>
      <use xlink:href="#DejaVuSans-2d" transform="translate(254.052734 0)"/>
      <use xlink:href="#DejaVuSans-47" transform="translate(293.761719 0)"/>
      <use xlink:href="#DejaVuSans-72" transform="translate(371.251953 0)"/>
      <use xlink:href="#DejaVuSans-65" transform="translate(410.115234 0)"/>
      <use xlink:href="#DejaVuSans-6e" transform="translate(471.638672 0)"/>
      <use xlink:href="#DejaVuSans-7a" transform="translate(535.017578 0)"/>
      <use xlink:href="#DejaVuSans-65" transform="translate(587.507812 0)"/>
     </g>
    </g>
   </g>
  </g>
  <g id="text_40">
   <!-- Experiment 3 – Gasgehalt und effektiver Kompressionsmodul -->
   <g transform="translate(205.384297 17.077969) scale(0.13 -0.13)">
    <defs>
     <path id="DejaVuSans-45" d="M 628 4666 
L 3578 4666 
L 3578 4134 
L 1259 4134 
L 1259 2753 
L 3481 2753 
L 3481 2222 
L 1259 2222 
L 1259 531 
L 3634 531 
L 3634 0 
L 628 0 
L 628 4666 
z
" transform="scale(0.015625)"/>
     <path id="DejaVuSans-78" d="M 3513 3500 
L 2247 1797 
L 3578 0 
L 2900 0 
L 1881 1375 
L 863 0 
L 184 0 
L 1544 1831 
L 300 3500 
L 978 3500 
L 1906 2253 
L 2834 3500 
L 3513 3500 
z
" transform="scale(0.015625)"/>
     <path id="DejaVuSans-70" d="M 1159 525 
L 1159 -1331 
L 581 -1331 
L 581 3500 
L 1159 3500 
L 1159 2969 
Q 1341 3281 1617 3432 
Q 1894 3584 2278 3584 
Q 2916 3584 3314 3078 
Q 3713 2572 3713 1747 
Q 3713 922 3314 415 
Q 2916 -91 2278 -91 
Q 1894 -91 1617 61 
Q 1341 213 1159 525 
z
M 3116 1747 
Q 3116 2381 2855 2742 
Q 2594 3103 2138 3103 
Q 1681 3103 1420 2742 
Q 1159 2381 1159 1747 
Q 1159 1113 1420 752 
Q 1681 391 2138 391 
Q 2594 391 2855 752 
Q 3116 1113 3116 1747 
z
" transform="scale(0.015625)"/>
     <path id="DejaVuSans-2013" d="M 313 1978 
L 2888 1978 
L 2888 1528 
L 313 1528 
L 313 1978 
z
" transform="scale(0.015625)"/>
    </defs>
    <use xlink:href="#DejaVuSans-45"/>
    <use xlink:href="#DejaVuSans-78" transform="translate(63.183594 0)"/>
    <use xlink:href="#DejaVuSans-70" transform="translate(122.363281 0)"/>
    <use xlink:href="#DejaVuSans-65" transform="translate(185.839844 0)"/>
    <use xlink:href="#DejaVuSans-72" transform="translate(247.363281 0)"/>
    <use xlink:href="#DejaVuSans-69" transform="translate(288.476562 0)"/>
    <use xlink:href="#DejaVuSans-6d" transform="translate(316.259766 0)"/>
    <use xlink:href="#DejaVuSans-65" transform="translate(413.671875 0)"/>
    <use xlink:href="#DejaVuSans-6e" transform="translate(475.195312 0)"/>
    <use xlink:href="#DejaVuSans-74" transform="translate(538.574219 0)"/>
    <use xlink:href="#DejaVuSans-20" transform="translate(577.783203 0)"/>
    <use xlink:href="#DejaVuSans-33" transform="translate(609.570312 0)"/>
    <use xlink:href="#DejaVuSans-20" transform="translate(673.193359 0)"/>
    <use xlink:href="#DejaVuSans-2013" transform="translate(704.980469 0)"/>
    <use xlink:href="#DejaVuSans-20" transform="translate(754.980469 0)"/>
    <use xlink:href="#DejaVuSans-47" transform="translate(786.767578 0)"/>
    <use xlink:href="#DejaVuSans-61" transform="translate(864.257812 0)"/>
    <use xlink:href="#DejaVuSans-73" transform="translate(925.537109 0)"/>
    <use xlink:href="#DejaVuSans-67" transform="translate(977.636719 0)"/>
    <use xlink:href="#DejaVuSans-65" transform="translate(1041.113281 0)"/>
    <use xlink:href="#DejaVuSans-68" transform="translate(1102.636719 0)"/>
    <use xlink:href="#DejaVuSans-61" transform="translate(1166.015625 0)"/>
    <use xlink:href="#DejaVuSans-6c" transform="translate(1227.294922 0)"/>
    <use xlink:href="#DejaVuSans-74" transform="translate(1255.078125 0)"/>
    <use xlink:href="#DejaVuSans-20" transform="translate(1294.287109 0)"/>
    <use xlink:href="#DejaVuSans-75" transform="translate(1326.074219 0)"/>
    <use xlink:href="#DejaVuSans-6e" transform="translate(1389.453125 0)"/>
    <use xlink:href="#DejaVuSans-64" transform="translate(1452.832031 0)"/>
    <use xlink:href="#DejaVuSans-20" transform="translate(1516.308594 0)"/>
    <use xlink:href="#DejaVuSans-65" transform="translate(1548.095703 0)"/>
    <use xlink:href="#DejaVuSans-66" transform="translate(1609.619141 0)"/>
    <use xlink:href="#DejaVuSans-66" transform="translate(1644.824219 0)"/>
    <use xlink:href="#DejaVuSans-65" transform="translate(1680.029297 0)"/>
    <use xlink:href="#DejaVuSans-6b" transform="translate(1741.552734 0)"/>
    <use xlink:href="#DejaVuSans-74" transform="translate(1799.462891 0)"/>
    <use xlink:href="#DejaVuSans-69" transform="translate(1838.671875 0)"/>
    <use xlink:href="#DejaVuSans-76" transform="translate(1866.455078 0)"/>
    <use xlink:href="#DejaVuSans-65" transform="translate(1925.634766 0)"/>
    <use xlink:href="#DejaVuSans-72" transform="translate(1987.158203 0)"/>
    <use xlink:href="#DejaVuSans-20" transform="translate(2028.271484 0)"/>
    <use xlink:href="#DejaVuSans-4b" transform="translate(2060.058594 0)"/>
    <use xlink:href="#DejaVuSans-6f" transform="translate(2120.634766 0)"/>
    <use xlink:href="#DejaVuSans-6d" transform="translate(2181.816406 0)"/>
    <use xlink:href="#DejaVuSans-70" transform="translate(2279.228516 0)"/>
    <use xlink:href="#DejaVuSans-72" transform="translate(2342.705078 0)"/>
    <use xlink:href="#DejaVuSans-65" transform="translate(2381.568359 0)"/>
    <use xlink:href="#DejaVuSans-73" transform="translate(2443.091797 0)"/>
    <use xlink:href="#DejaVuSans-73" transform="translate(2495.191406 0)"/>
    <use xlink:href="#DejaVuSans-69" transform="translate(2547.291016 0)"/>
    <use xlink:href="#DejaVuSans-6f" transform="translate(2575.074219 0)"/>
    <use xlink:href="#DejaVuSans-6e" transform="translate(2636.255859 0)"/>
    <use xlink:href="#DejaVuSans-73" transform="translate(2699.634766 0)"/>
    <use xlink:href="#DejaVuSans-6d" transform="translate(2751.734375 0)"/>
    <use xlink:href="#DejaVuSans-6f" transform="translate(2849.146484 0)"/>
    <use xlink:href="#DejaVuSans-64" transform="translate(2910.328125 0)"/>
    <use xlink:href="#DejaVuSans-75" transform="translate(2973.804688 0)"/>
    <use xlink:href="#DejaVuSans-6c" transform="translate(3037.183594 0)"/>
   </g>
  </g>
 </g>
 <defs>
  <clipPath id="p3fdf6dd58b">
   <rect x="53.60625" y="43.2" width="329.727273" height="277.2"/>
  </clipPath>
  <clipPath id="p3c77f25dc5">
   <rect x="449.278977" y="43.2" width="329.727273" height="277.2"/>
  </clipPath>
 </defs>
</svg>
