<?xml version="1.0" encoding="utf-8" standalone="no"?>
<!DOCTYPE svg PUBLIC "-//W3C//DTD SVG 1.1//EN"
  "http://www.w3.org/Graphics/SVG/1.1/DTD/svg11.dtd">
<svg xmlns:xlink="http://www.w3.org/1999/xlink" width="739.671875pt" height="357.95625pt" viewBox="0 0 739.671875 357.95625" xmlns="http://www.w3.org/2000/svg" version="1.1">
 <metadata>
  <rdf:RDF xmlns:dc="http://purl.org/dc/elements/1.1/" xmlns:cc="http://creativecommons.org/ns#" xmlns:rdf="http://www.w3.org/1999/02/22-rdf-syntax-ns#">
   <cc:Work>
    <dc:type rdf:resource="http://purl.org/dc/dcmitype/StillImage"/>
    <dc:date>2026-03-02T09:31:41.594207</dc:date>
    <dc:format>image/svg+xml</dc:format>
    <dc:creator>
     <cc:Agent>
      <dc:title>Matplotlib v3.10.8, https://matplotlib.org/</dc:title>
     </cc:Agent>
    </dc:creator>
   </cc:Work>
  </rdf:RDF>
 </metadata>
 <defs>
  <style type="text/css">*{stroke-linejoin: round; stroke-linecap: butt}</style>
 </defs>
 <g id="figure_1">
  <g id="patch_1">
   <path d="M 0 357.95625 
L 739.671875 357.95625 
L 739.671875 0 
L 0 0 
z
" style="fill: #ffffff"/>
  </g>
  <g id="axes_1">
   <g id="patch_2">
    <path d="M 53.328125 320.4 
L 357.691761 320.4 
L 357.691761 43.2 
L 53.328125 43.2 
z
" style="fill: #ffffff"/>
   </g>
   <g id="matplotlib.axis_1">
    <g id="xtick_1">
     <g id="line2d_1">
      <path d="M 53.328125 320.4 
L 53.328125 43.2 
" clip-path="url(#p4ef3b3ba4e)" style="fill: none; stroke: #b0b0b0; stroke-opacity: 0.3; stroke-width: 0.8; stroke-linecap: square"/>
     </g>
     <g id="line2d_2">
      <defs>
       <path id="mf837921fde" d="M 0 0 
L 0 3.5 
" style="stroke: #000000; stroke-width: 0.8"/>
      </defs>
      <g>
       <use xlink:href="#mf837921fde" x="53.328125" y="320.4" style="stroke: #000000; stroke-width: 0.8"/>
      </g>
     </g>
     <g id="text_1">
      <!-- 0 -->
      <g transform="translate(50.146875 334.998437) scale(0.1 -0.1)">
       <defs>
        <path id="DejaVuSans-30" d="M 2034 4250 
Q 1547 4250 1301 3770 
Q 1056 3291 1056 2328 
Q 1056 1369 1301 889 
Q 1547 409 2034 409 
Q 2525 409 2770 889 
Q 3016 1369 3016 2328 
Q 3016 3291 2770 3770 
Q 2525 4250 2034 4250 
z
M 2034 4750 
Q 2819 4750 3233 4129 
Q 3647 3509 3647 2328 
Q 3647 1150 3233 529 
Q 2819 -91 2034 -91 
Q 1250 -91 836 529 
Q 422 1150 422 2328 
Q 422 3509 836 4129 
Q 1250 4750 2034 4750 
z
" transform="scale(0.015625)"/>
       </defs>
       <use xlink:href="#DejaVuSans-30"/>
      </g>
     </g>
    </g>
    <g id="xtick_2">
     <g id="line2d_3">
      <path d="M 114.200852 320.4 
L 114.200852 43.2 
" clip-path="url(#p4ef3b3ba4e)" style="fill: none; stroke: #b0b0b0; stroke-opacity: 0.3; stroke-width: 0.8; stroke-linecap: square"/>
     </g>
     <g id="line2d_4">
      <g>
       <use xlink:href="#mf837921fde" x="114.200852" y="320.4" style="stroke: #000000; stroke-width: 0.8"/>
      </g>
     </g>
     <g id="text_2">
      <!-- 100 -->
      <g transform="translate(104.657102 334.998437) scale(0.1 -0.1)">
       <defs>
        <path id="DejaVuSans-31" d="M 794 531 
L 1825 531 
L 1825 4091 
L 703 3866 
L 703 4441 
L 1819 4666 
L 2450 4666 
L 2450 531 
L 3481 531 
L 3481 0 
L 794 0 
L 794 531 
z
" transform="scale(0.015625)"/>
       </defs>
       <use xlink:href="#DejaVuSans-31"/>
       <use xlink:href="#DejaVuSans-30" transform="translate(63.623047 0)"/>
       <use xlink:href="#DejaVuSans-30" transform="translate(127.246094 0)"/>
      </g>
     </g>
    </g>
    <g id="xtick_3">
     <g id="line2d_5">
      <path d="M 175.07358 320.4 
L 175.07358 43.2 
" clip-path="url(#p4ef3b3ba4e)" style="fill: none; stroke: #b0b0b0; stroke-opacity: 0.3; stroke-width: 0.8; stroke-linecap: square"/>
     </g>
     <g id="line2d_6">
      <g>
       <use xlink:href="#mf837921fde" x="175.07358" y="320.4" style="stroke: #000000; stroke-width: 0.8"/>
      </g>
     </g>
     <g id="text_3">
      <!-- 200 -->
      <g transform="translate(165.52983 334.998437) scale(0.1 -0.1)">
       <defs>
        <path id="DejaVuSans-32" d="M 1228 531 
L 3431 531 
L 3431 0 
L 469 0 
L 469 531 
Q 828 903 1448 1529 
Q 2069 2156 2228 2338 
Q 2531 2678 2651 2914 
Q 2772 3150 2772 3378 
Q 2772 3750 2511 3984 
Q 2250 4219 1831 4219 
Q 1534 4219 1204 4116 
Q 875 4013 500 3803 
L 500 4441 
Q 881 4594 1212 4672 
Q 1544 4750 1819 4750 
Q 2544 4750 2975 4387 
Q 3406 4025 3406 3419 
Q 3406 3131 3298 2873 
Q 3191 2616 2906 2266 
Q 2828 2175 2409 1742 
Q 1991 1309 1228 531 
z
" transform="scale(0.015625)"/>
       </defs>
       <use xlink:href="#DejaVuSans-32"/>
       <use xlink:href="#DejaVuSans-30" transform="translate(63.623047 0)"/>
       <use xlink:href="#DejaVuSans-30" transform="translate(127.246094 0)"/>
      </g>
     </g>
    </g>
    <g id="xtick_4">
     <g id="line2d_7">
      <path d="M 235.946307 320.4 
L 235.946307 43.2 
" clip-path="url(#p4ef3b3ba4e)" style="fill: none; stroke: #b0b0b0; stroke-opacity: 0.3; stroke-width: 0.8; stroke-linecap: square"/>
     </g>
     <g id="line2d_8">
      <g>
       <use xlink:href="#mf837921fde" x="235.946307" y="320.4" style="stroke: #000000; stroke-width: 0.8"/>
      </g>
     </g>
     <g id="text_4">
      <!-- 300 -->
      <g transform="translate(226.402557 334.998437) scale(0.1 -0.1)">
       <defs>
        <path id="DejaVuSans-33" d="M 2597 2516 
Q 3050 2419 3304 2112 
Q 3559 1806 3559 1356 
Q 3559 666 3084 287 
Q 2609 -91 1734 -91 
Q 1441 -91 1130 -33 
Q 819 25 488 141 
L 488 750 
Q 750 597 1062 519 
Q 1375 441 1716 441 
Q 2309 441 2620 675 
Q 2931 909 2931 1356 
Q 2931 1769 2642 2001 
Q 2353 2234 1838 2234 
L 1294 2234 
L 1294 2753 
L 1863 2753 
Q 2328 2753 2575 2939 
Q 2822 3125 2822 3475 
Q 2822 3834 2567 4026 
Q 2313 4219 1838 4219 
Q 1578 4219 1281 4162 
Q 984 4106 628 3988 
L 628 4550 
Q 988 4650 1302 4700 
Q 1616 4750 1894 4750 
Q 2613 4750 3031 4423 
Q 3450 4097 3450 3541 
Q 3450 3153 3228 2886 
Q 3006 2619 2597 2516 
z
" transform="scale(0.015625)"/>
       </defs>
       <use xlink:href="#DejaVuSans-33"/>
       <use xlink:href="#DejaVuSans-30" transform="translate(63.623047 0)"/>
       <use xlink:href="#DejaVuSans-30" transform="translate(127.246094 0)"/>
      </g>
     </g>
    </g>
    <g id="xtick_5">
     <g id="line2d_9">
      <path d="M 296.819034 320.4 
L 296.819034 43.2 
" clip-path="url(#p4ef3b3ba4e)" style="fill: none; stroke: #b0b0b0; stroke-opacity: 0.3; stroke-width: 0.8; stroke-linecap: square"/>
     </g>
     <g id="line2d_10">
      <g>
       <use xlink:href="#mf837921fde" x="296.819034" y="320.4" style="stroke: #000000; stroke-width: 0.8"/>
      </g>
     </g>
     <g id="text_5">
      <!-- 400 -->
      <g transform="translate(287.275284 334.998437) scale(0.1 -0.1)">
       <defs>
        <path id="DejaVuSans-34" d="M 2419 4116 
L 825 1625 
L 2419 1625 
L 2419 4116 
z
M 2253 4666 
L 3047 4666 
L 3047 1625 
L 3713 1625 
L 3713 1100 
L 3047 1100 
L 3047 0 
L 2419 0 
L 2419 1100 
L 313 1100 
L 313 1709 
L 2253 4666 
z
" transform="scale(0.015625)"/>
       </defs>
       <use xlink:href="#DejaVuSans-34"/>
       <use xlink:href="#DejaVuSans-30" transform="translate(63.623047 0)"/>
       <use xlink:href="#DejaVuSans-30" transform="translate(127.246094 0)"/>
      </g>
     </g>
    </g>
    <g id="xtick_6">
     <g id="line2d_11">
      <path d="M 357.691761 320.4 
L 357.691761 43.2 
" clip-path="url(#p4ef3b3ba4e)" style="fill: none; stroke: #b0b0b0; stroke-opacity: 0.3; stroke-width: 0.8; stroke-linecap: square"/>
     </g>
     <g id="line2d_12">
      <g>
       <use xlink:href="#mf837921fde" x="357.691761" y="320.4" style="stroke: #000000; stroke-width: 0.8"/>
      </g>
     </g>
     <g id="text_6">
      <!-- 500 -->
      <g transform="translate(348.148011 334.998437) scale(0.1 -0.1)">
       <defs>
        <path id="DejaVuSans-35" d="M 691 4666 
L 3169 4666 
L 3169 4134 
L 1269 4134 
L 1269 2991 
Q 1406 3038 1543 3061 
Q 1681 3084 1819 3084 
Q 2600 3084 3056 2656 
Q 3513 2228 3513 1497 
Q 3513 744 3044 326 
Q 2575 -91 1722 -91 
Q 1428 -91 1123 -41 
Q 819 9 494 109 
L 494 744 
Q 775 591 1075 516 
Q 1375 441 1709 441 
Q 2250 441 2565 725 
Q 2881 1009 2881 1497 
Q 2881 1984 2565 2268 
Q 2250 2553 1709 2553 
Q 1456 2553 1204 2497 
Q 953 2441 691 2322 
L 691 4666 
z
" transform="scale(0.015625)"/>
       </defs>
       <use xlink:href="#DejaVuSans-35"/>
       <use xlink:href="#DejaVuSans-30" transform="translate(63.623047 0)"/>
       <use xlink:href="#DejaVuSans-30" transform="translate(127.246094 0)"/>
      </g>
     </g>
    </g>
    <g id="text_7">
     <!-- Druck [bar] -->
     <g transform="translate(177.006818 348.676562) scale(0.1 -0.1)">
      <defs>
       <path id="DejaVuSans-44" d="M 1259 4147 
L 1259 519 
L 2022 519 
Q 2988 519 3436 956 
Q 3884 1394 3884 2338 
Q 3884 3275 3436 3711 
Q 2988 4147 2022 4147 
L 1259 4147 
z
M 628 4666 
L 1925 4666 
Q 3281 4666 3915 4102 
Q 4550 3538 4550 2338 
Q 4550 1131 3912 565 
Q 3275 0 1925 0 
L 628 0 
L 628 4666 
z
" transform="scale(0.015625)"/>
       <path id="DejaVuSans-72" d="M 2631 2963 
Q 2534 3019 2420 3045 
Q 2306 3072 2169 3072 
Q 1681 3072 1420 2755 
Q 1159 2438 1159 1844 
L 1159 0 
L 581 0 
L 581 3500 
L 1159 3500 
L 1159 2956 
Q 1341 3275 1631 3429 
Q 1922 3584 2338 3584 
Q 2397 3584 2469 3576 
Q 2541 3569 2628 3553 
L 2631 2963 
z
" transform="scale(0.015625)"/>
       <path id="DejaVuSans-75" d="M 544 1381 
L 544 3500 
L 1119 3500 
L 1119 1403 
Q 1119 906 1312 657 
Q 1506 409 1894 409 
Q 2359 409 2629 706 
Q 2900 1003 2900 1516 
L 2900 3500 
L 3475 3500 
L 3475 0 
L 2900 0 
L 2900 538 
Q 2691 219 2414 64 
Q 2138 -91 1772 -91 
Q 1169 -91 856 284 
Q 544 659 544 1381 
z
M 1991 3584 
L 1991 3584 
z
" transform="scale(0.015625)"/>
       <path id="DejaVuSans-63" d="M 3122 3366 
L 3122 2828 
Q 2878 2963 2633 3030 
Q 2388 3097 2138 3097 
Q 1578 3097 1268 2742 
Q 959 2388 959 1747 
Q 959 1106 1268 751 
Q 1578 397 2138 397 
Q 2388 397 2633 464 
Q 2878 531 3122 666 
L 3122 134 
Q 2881 22 2623 -34 
Q 2366 -91 2075 -91 
Q 1284 -91 818 406 
Q 353 903 353 1747 
Q 353 2603 823 3093 
Q 1294 3584 2113 3584 
Q 2378 3584 2631 3529 
Q 2884 3475 3122 3366 
z
" transform="scale(0.015625)"/>
       <path id="DejaVuSans-6b" d="M 581 4863 
L 1159 4863 
L 1159 1991 
L 2875 3500 
L 3609 3500 
L 1753 1863 
L 3688 0 
L 2938 0 
L 1159 1709 
L 1159 0 
L 581 0 
L 581 4863 
z
" transform="scale(0.015625)"/>
       <path id="DejaVuSans-20" transform="scale(0.015625)"/>
       <path id="DejaVuSans-5b" d="M 550 4863 
L 1875 4863 
L 1875 4416 
L 1125 4416 
L 1125 -397 
L 1875 -397 
L 1875 -844 
L 550 -844 
L 550 4863 
z
" transform="scale(0.015625)"/>
       <path id="DejaVuSans-62" d="M 3116 1747 
Q 3116 2381 2855 2742 
Q 2594 3103 2138 3103 
Q 1681 3103 1420 2742 
Q 1159 2381 1159 1747 
Q 1159 1113 1420 752 
Q 1681 391 2138 391 
Q 2594 391 2855 752 
Q 3116 1113 3116 1747 
z
M 1159 2969 
Q 1341 3281 1617 3432 
Q 1894 3584 2278 3584 
Q 2916 3584 3314 3078 
Q 3713 2572 3713 1747 
Q 3713 922 3314 415 
Q 2916 -91 2278 -91 
Q 1894 -91 1617 61 
Q 1341 213 1159 525 
L 1159 0 
L 581 0 
L 581 4863 
L 1159 4863 
L 1159 2969 
z
" transform="scale(0.015625)"/>
       <path id="DejaVuSans-61" d="M 2194 1759 
Q 1497 1759 1228 1600 
Q 959 1441 959 1056 
Q 959 750 1161 570 
Q 1363 391 1709 391 
Q 2188 391 2477 730 
Q 2766 1069 2766 1631 
L 2766 1759 
L 2194 1759 
z
M 3341 1997 
L 3341 0 
L 2766 0 
L 2766 531 
Q 2569 213 2275 61 
Q 1981 -91 1556 -91 
Q 1019 -91 701 211 
Q 384 513 384 1019 
Q 384 1609 779 1909 
Q 1175 2209 1959 2209 
L 2766 2209 
L 2766 2266 
Q 2766 2663 2505 2880 
Q 2244 3097 1772 3097 
Q 1472 3097 1187 3025 
Q 903 2953 641 2809 
L 641 3341 
Q 956 3463 1253 3523 
Q 1550 3584 1831 3584 
Q 2591 3584 2966 3190 
Q 3341 2797 3341 1997 
z
" transform="scale(0.015625)"/>
       <path id="DejaVuSans-5d" d="M 1947 4863 
L 1947 -844 
L 622 -844 
L 622 -397 
L 1369 -397 
L 1369 4416 
L 622 4416 
L 622 4863 
L 1947 4863 
z
" transform="scale(0.015625)"/>
      </defs>
      <use xlink:href="#DejaVuSans-44"/>
      <use xlink:href="#DejaVuSans-72" transform="translate(77.001953 0)"/>
      <use xlink:href="#DejaVuSans-75" transform="translate(118.115234 0)"/>
      <use xlink:href="#DejaVuSans-63" transform="translate(181.494141 0)"/>
      <use xlink:href="#DejaVuSans-6b" transform="translate(236.474609 0)"/>
      <use xlink:href="#DejaVuSans-20" transform="translate(294.384766 0)"/>
      <use xlink:href="#DejaVuSans-5b" transform="translate(326.171875 0)"/>
      <use xlink:href="#DejaVuSans-62" transform="translate(365.185547 0)"/>
      <use xlink:href="#DejaVuSans-61" transform="translate(428.662109 0)"/>
      <use xlink:href="#DejaVuSans-72" transform="translate(489.941406 0)"/>
      <use xlink:href="#DejaVuSans-5d" transform="translate(531.054688 0)"/>
     </g>
    </g>
   </g>
   <g id="matplotlib.axis_2">
    <g id="ytick_1">
     <g id="line2d_13">
      <path d="M 53.328125 307.8 
L 357.691761 307.8 
" clip-path="url(#p4ef3b3ba4e)" style="fill: none; stroke: #b0b0b0; stroke-opacity: 0.3; stroke-width: 0.8; stroke-linecap: square"/>
     </g>
     <g id="line2d_14">
      <defs>
       <path id="m38ef94e565" d="M 0 0 
L -3.5 0 
" style="stroke: #000000; stroke-width: 0.8"/>
      </defs>
      <g>
       <use xlink:href="#m38ef94e565" x="53.328125" y="307.8" style="stroke: #000000; stroke-width: 0.8"/>
      </g>
     </g>
     <g id="text_8">
      <!-- 1500 -->
      <g transform="translate(20.878125 311.599219) scale(0.1 -0.1)">
       <use xlink:href="#DejaVuSans-31"/>
       <use xlink:href="#DejaVuSans-35" transform="translate(63.623047 0)"/>
       <use xlink:href="#DejaVuSans-30" transform="translate(127.246094 0)"/>
       <use xlink:href="#DejaVuSans-30" transform="translate(190.869141 0)"/>
      </g>
     </g>
    </g>
    <g id="ytick_2">
     <g id="line2d_15">
      <path d="M 53.328125 267.710998 
L 357.691761 267.710998 
" clip-path="url(#p4ef3b3ba4e)" style="fill: none; stroke: #b0b0b0; stroke-opacity: 0.3; stroke-width: 0.8; stroke-linecap: square"/>
     </g>
     <g id="line2d_16">
      <g>
       <use xlink:href="#m38ef94e565" x="53.328125" y="267.710998" style="stroke: #000000; stroke-width: 0.8"/>
      </g>
     </g>
     <g id="text_9">
      <!-- 1600 -->
      <g transform="translate(20.878125 271.510216) scale(0.1 -0.1)">
       <defs>
        <path id="DejaVuSans-36" d="M 2113 2584 
Q 1688 2584 1439 2293 
Q 1191 2003 1191 1497 
Q 1191 994 1439 701 
Q 1688 409 2113 409 
Q 2538 409 2786 701 
Q 3034 994 3034 1497 
Q 3034 2003 2786 2293 
Q 2538 2584 2113 2584 
z
M 3366 4563 
L 3366 3988 
Q 3128 4100 2886 4159 
Q 2644 4219 2406 4219 
Q 1781 4219 1451 3797 
Q 1122 3375 1075 2522 
Q 1259 2794 1537 2939 
Q 1816 3084 2150 3084 
Q 2853 3084 3261 2657 
Q 3669 2231 3669 1497 
Q 3669 778 3244 343 
Q 2819 -91 2113 -91 
Q 1303 -91 875 529 
Q 447 1150 447 2328 
Q 447 3434 972 4092 
Q 1497 4750 2381 4750 
Q 2619 4750 2861 4703 
Q 3103 4656 3366 4563 
z
" transform="scale(0.015625)"/>
       </defs>
       <use xlink:href="#DejaVuSans-31"/>
       <use xlink:href="#DejaVuSans-36" transform="translate(63.623047 0)"/>
       <use xlink:href="#DejaVuSans-30" transform="translate(127.246094 0)"/>
       <use xlink:href="#DejaVuSans-30" transform="translate(190.869141 0)"/>
      </g>
     </g>
    </g>
    <g id="ytick_3">
     <g id="line2d_17">
      <path d="M 53.328125 227.621995 
L 357.691761 227.621995 
" clip-path="url(#p4ef3b3ba4e)" style="fill: none; stroke: #b0b0b0; stroke-opacity: 0.3; stroke-width: 0.8; stroke-linecap: square"/>
     </g>
     <g id="line2d_18">
      <g>
       <use xlink:href="#m38ef94e565" x="53.328125" y="227.621995" style="stroke: #000000; stroke-width: 0.8"/>
      </g>
     </g>
     <g id="text_10">
      <!-- 1700 -->
      <g transform="translate(20.878125 231.421214) scale(0.1 -0.1)">
       <defs>
        <path id="DejaVuSans-37" d="M 525 4666 
L 3525 4666 
L 3525 4397 
L 1831 0 
L 1172 0 
L 2766 4134 
L 525 4134 
L 525 4666 
z
" transform="scale(0.015625)"/>
       </defs>
       <use xlink:href="#DejaVuSans-31"/>
       <use xlink:href="#DejaVuSans-37" transform="translate(63.623047 0)"/>
       <use xlink:href="#DejaVuSans-30" transform="translate(127.246094 0)"/>
       <use xlink:href="#DejaVuSans-30" transform="translate(190.869141 0)"/>
      </g>
     </g>
    </g>
    <g id="ytick_4">
     <g id="line2d_19">
      <path d="M 53.328125 187.532993 
L 357.691761 187.532993 
" clip-path="url(#p4ef3b3ba4e)" style="fill: none; stroke: #b0b0b0; stroke-opacity: 0.3; stroke-width: 0.8; stroke-linecap: square"/>
     </g>
     <g id="line2d_20">
      <g>
       <use xlink:href="#m38ef94e565" x="53.328125" y="187.532993" style="stroke: #000000; stroke-width: 0.8"/>
      </g>
     </g>
     <g id="text_11">
      <!-- 1800 -->
      <g transform="translate(20.878125 191.332211) scale(0.1 -0.1)">
       <defs>
        <path id="DejaVuSans-38" d="M 2034 2216 
Q 1584 2216 1326 1975 
Q 1069 1734 1069 1313 
Q 1069 891 1326 650 
Q 1584 409 2034 409 
Q 2484 409 2743 651 
Q 3003 894 3003 1313 
Q 3003 1734 2745 1975 
Q 2488 2216 2034 2216 
z
M 1403 2484 
Q 997 2584 770 2862 
Q 544 3141 544 3541 
Q 544 4100 942 4425 
Q 1341 4750 2034 4750 
Q 2731 4750 3128 4425 
Q 3525 4100 3525 3541 
Q 3525 3141 3298 2862 
Q 3072 2584 2669 2484 
Q 3125 2378 3379 2068 
Q 3634 1759 3634 1313 
Q 3634 634 3220 271 
Q 2806 -91 2034 -91 
Q 1263 -91 848 271 
Q 434 634 434 1313 
Q 434 1759 690 2068 
Q 947 2378 1403 2484 
z
M 1172 3481 
Q 1172 3119 1398 2916 
Q 1625 2713 2034 2713 
Q 2441 2713 2670 2916 
Q 2900 3119 2900 3481 
Q 2900 3844 2670 4047 
Q 2441 4250 2034 4250 
Q 1625 4250 1398 4047 
Q 1172 3844 1172 3481 
z
" transform="scale(0.015625)"/>
       </defs>
       <use xlink:href="#DejaVuSans-31"/>
       <use xlink:href="#DejaVuSans-38" transform="translate(63.623047 0)"/>
       <use xlink:href="#DejaVuSans-30" transform="translate(127.246094 0)"/>
       <use xlink:href="#DejaVuSans-30" transform="translate(190.869141 0)"/>
      </g>
     </g>
    </g>
    <g id="ytick_5">
     <g id="line2d_21">
      <path d="M 53.328125 147.44399 
L 357.691761 147.44399 
" clip-path="url(#p4ef3b3ba4e)" style="fill: none; stroke: #b0b0b0; stroke-opacity: 0.3; stroke-width: 0.8; stroke-linecap: square"/>
     </g>
     <g id="line2d_22">
      <g>
       <use xlink:href="#m38ef94e565" x="53.328125" y="147.44399" style="stroke: #000000; stroke-width: 0.8"/>
      </g>
     </g>
     <g id="text_12">
      <!-- 1900 -->
      <g transform="translate(20.878125 151.243209) scale(0.1 -0.1)">
       <defs>
        <path id="DejaVuSans-39" d="M 703 97 
L 703 672 
Q 941 559 1184 500 
Q 1428 441 1663 441 
Q 2288 441 2617 861 
Q 2947 1281 2994 2138 
Q 2813 1869 2534 1725 
Q 2256 1581 1919 1581 
Q 1219 1581 811 2004 
Q 403 2428 403 3163 
Q 403 3881 828 4315 
Q 1253 4750 1959 4750 
Q 2769 4750 3195 4129 
Q 3622 3509 3622 2328 
Q 3622 1225 3098 567 
Q 2575 -91 1691 -91 
Q 1453 -91 1209 -44 
Q 966 3 703 97 
z
M 1959 2075 
Q 2384 2075 2632 2365 
Q 2881 2656 2881 3163 
Q 2881 3666 2632 3958 
Q 2384 4250 1959 4250 
Q 1534 4250 1286 3958 
Q 1038 3666 1038 3163 
Q 1038 2656 1286 2365 
Q 1534 2075 1959 2075 
z
" transform="scale(0.015625)"/>
       </defs>
       <use xlink:href="#DejaVuSans-31"/>
       <use xlink:href="#DejaVuSans-39" transform="translate(63.623047 0)"/>
       <use xlink:href="#DejaVuSans-30" transform="translate(127.246094 0)"/>
       <use xlink:href="#DejaVuSans-30" transform="translate(190.869141 0)"/>
      </g>
     </g>
    </g>
    <g id="ytick_6">
     <g id="line2d_23">
      <path d="M 53.328125 107.354988 
L 357.691761 107.354988 
" clip-path="url(#p4ef3b3ba4e)" style="fill: none; stroke: #b0b0b0; stroke-opacity: 0.3; stroke-width: 0.8; stroke-linecap: square"/>
     </g>
     <g id="line2d_24">
      <g>
       <use xlink:href="#m38ef94e565" x="53.328125" y="107.354988" style="stroke: #000000; stroke-width: 0.8"/>
      </g>
     </g>
     <g id="text_13">
      <!-- 2000 -->
      <g transform="translate(20.878125 111.154206) scale(0.1 -0.1)">
       <use xlink:href="#DejaVuSans-32"/>
       <use xlink:href="#DejaVuSans-30" transform="translate(63.623047 0)"/>
       <use xlink:href="#DejaVuSans-30" transform="translate(127.246094 0)"/>
       <use xlink:href="#DejaVuSans-30" transform="translate(190.869141 0)"/>
      </g>
     </g>
    </g>
    <g id="ytick_7">
     <g id="line2d_25">
      <path d="M 53.328125 67.265985 
L 357.691761 67.265985 
" clip-path="url(#p4ef3b3ba4e)" style="fill: none; stroke: #b0b0b0; stroke-opacity: 0.3; stroke-width: 0.8; stroke-linecap: square"/>
     </g>
     <g id="line2d_26">
      <g>
       <use xlink:href="#m38ef94e565" x="53.328125" y="67.265985" style="stroke: #000000; stroke-width: 0.8"/>
      </g>
     </g>
     <g id="text_14">
      <!-- 2100 -->
      <g transform="translate(20.878125 71.065204) scale(0.1 -0.1)">
       <use xlink:href="#DejaVuSans-32"/>
       <use xlink:href="#DejaVuSans-31" transform="translate(63.623047 0)"/>
       <use xlink:href="#DejaVuSans-30" transform="translate(127.246094 0)"/>
       <use xlink:href="#DejaVuSans-30" transform="translate(190.869141 0)"/>
      </g>
     </g>
    </g>
    <g id="text_15">
     <!-- Kompressionsmodul K [MPa] -->
     <g transform="translate(14.798438 252.571875) rotate(-90) scale(0.1 -0.1)">
      <defs>
       <path id="DejaVuSans-4b" d="M 628 4666 
L 1259 4666 
L 1259 2694 
L 3353 4666 
L 4166 4666 
L 1850 2491 
L 4331 0 
L 3500 0 
L 1259 2247 
L 1259 0 
L 628 0 
L 628 4666 
z
" transform="scale(0.015625)"/>
       <path id="DejaVuSans-6f" d="M 1959 3097 
Q 1497 3097 1228 2736 
Q 959 2375 959 1747 
Q 959 1119 1226 758 
Q 1494 397 1959 397 
Q 2419 397 2687 759 
Q 2956 1122 2956 1747 
Q 2956 2369 2687 2733 
Q 2419 3097 1959 3097 
z
M 1959 3584 
Q 2709 3584 3137 3096 
Q 3566 2609 3566 1747 
Q 3566 888 3137 398 
Q 2709 -91 1959 -91 
Q 1206 -91 779 398 
Q 353 888 353 1747 
Q 353 2609 779 3096 
Q 1206 3584 1959 3584 
z
" transform="scale(0.015625)"/>
       <path id="DejaVuSans-6d" d="M 3328 2828 
Q 3544 3216 3844 3400 
Q 4144 3584 4550 3584 
Q 5097 3584 5394 3201 
Q 5691 2819 5691 2113 
L 5691 0 
L 5113 0 
L 5113 2094 
Q 5113 2597 4934 2840 
Q 4756 3084 4391 3084 
Q 3944 3084 3684 2787 
Q 3425 2491 3425 1978 
L 3425 0 
L 2847 0 
L 2847 2094 
Q 2847 2600 2669 2842 
Q 2491 3084 2119 3084 
Q 1678 3084 1418 2786 
Q 1159 2488 1159 1978 
L 1159 0 
L 581 0 
L 581 3500 
L 1159 3500 
L 1159 2956 
Q 1356 3278 1631 3431 
Q 1906 3584 2284 3584 
Q 2666 3584 2933 3390 
Q 3200 3197 3328 2828 
z
" transform="scale(0.015625)"/>
       <path id="DejaVuSans-70" d="M 1159 525 
L 1159 -1331 
L 581 -1331 
L 581 3500 
L 1159 3500 
L 1159 2969 
Q 1341 3281 1617 3432 
Q 1894 3584 2278 3584 
Q 2916 3584 3314 3078 
Q 3713 2572 3713 1747 
Q 3713 922 3314 415 
Q 2916 -91 2278 -91 
Q 1894 -91 1617 61 
Q 1341 213 1159 525 
z
M 3116 1747 
Q 3116 2381 2855 2742 
Q 2594 3103 2138 3103 
Q 1681 3103 1420 2742 
Q 1159 2381 1159 1747 
Q 1159 1113 1420 752 
Q 1681 391 2138 391 
Q 2594 391 2855 752 
Q 3116 1113 3116 1747 
z
" transform="scale(0.015625)"/>
       <path id="DejaVuSans-65" d="M 3597 1894 
L 3597 1613 
L 953 1613 
Q 991 1019 1311 708 
Q 1631 397 2203 397 
Q 2534 397 2845 478 
Q 3156 559 3463 722 
L 3463 178 
Q 3153 47 2828 -22 
Q 2503 -91 2169 -91 
Q 1331 -91 842 396 
Q 353 884 353 1716 
Q 353 2575 817 3079 
Q 1281 3584 2069 3584 
Q 2775 3584 3186 3129 
Q 3597 2675 3597 1894 
z
M 3022 2063 
Q 3016 2534 2758 2815 
Q 2500 3097 2075 3097 
Q 1594 3097 1305 2825 
Q 1016 2553 972 2059 
L 3022 2063 
z
" transform="scale(0.015625)"/>
       <path id="DejaVuSans-73" d="M 2834 3397 
L 2834 2853 
Q 2591 2978 2328 3040 
Q 2066 3103 1784 3103 
Q 1356 3103 1142 2972 
Q 928 2841 928 2578 
Q 928 2378 1081 2264 
Q 1234 2150 1697 2047 
L 1894 2003 
Q 2506 1872 2764 1633 
Q 3022 1394 3022 966 
Q 3022 478 2636 193 
Q 2250 -91 1575 -91 
Q 1294 -91 989 -36 
Q 684 19 347 128 
L 347 722 
Q 666 556 975 473 
Q 1284 391 1588 391 
Q 1994 391 2212 530 
Q 2431 669 2431 922 
Q 2431 1156 2273 1281 
Q 2116 1406 1581 1522 
L 1381 1569 
Q 847 1681 609 1914 
Q 372 2147 372 2553 
Q 372 3047 722 3315 
Q 1072 3584 1716 3584 
Q 2034 3584 2315 3537 
Q 2597 3491 2834 3397 
z
" transform="scale(0.015625)"/>
       <path id="DejaVuSans-69" d="M 603 3500 
L 1178 3500 
L 1178 0 
L 603 0 
L 603 3500 
z
M 603 4863 
L 1178 4863 
L 1178 4134 
L 603 4134 
L 603 4863 
z
" transform="scale(0.015625)"/>
       <path id="DejaVuSans-6e" d="M 3513 2113 
L 3513 0 
L 2938 0 
L 2938 2094 
Q 2938 2591 2744 2837 
Q 2550 3084 2163 3084 
Q 1697 3084 1428 2787 
Q 1159 2491 1159 1978 
L 1159 0 
L 581 0 
L 581 3500 
L 1159 3500 
L 1159 2956 
Q 1366 3272 1645 3428 
Q 1925 3584 2291 3584 
Q 2894 3584 3203 3211 
Q 3513 2838 3513 2113 
z
" transform="scale(0.015625)"/>
       <path id="DejaVuSans-64" d="M 2906 2969 
L 2906 4863 
L 3481 4863 
L 3481 0 
L 2906 0 
L 2906 525 
Q 2725 213 2448 61 
Q 2172 -91 1784 -91 
Q 1150 -91 751 415 
Q 353 922 353 1747 
Q 353 2572 751 3078 
Q 1150 3584 1784 3584 
Q 2172 3584 2448 3432 
Q 2725 3281 2906 2969 
z
M 947 1747 
Q 947 1113 1208 752 
Q 1469 391 1925 391 
Q 2381 391 2643 752 
Q 2906 1113 2906 1747 
Q 2906 2381 2643 2742 
Q 2381 3103 1925 3103 
Q 1469 3103 1208 2742 
Q 947 2381 947 1747 
z
" transform="scale(0.015625)"/>
       <path id="DejaVuSans-6c" d="M 603 4863 
L 1178 4863 
L 1178 0 
L 603 0 
L 603 4863 
z
" transform="scale(0.015625)"/>
       <path id="DejaVuSans-4d" d="M 628 4666 
L 1569 4666 
L 2759 1491 
L 3956 4666 
L 4897 4666 
L 4897 0 
L 4281 0 
L 4281 4097 
L 3078 897 
L 2444 897 
L 1241 4097 
L 1241 0 
L 628 0 
L 628 4666 
z
" transform="scale(0.015625)"/>
       <path id="DejaVuSans-50" d="M 1259 4147 
L 1259 2394 
L 2053 2394 
Q 2494 2394 2734 2622 
Q 2975 2850 2975 3272 
Q 2975 3691 2734 3919 
Q 2494 4147 2053 4147 
L 1259 4147 
z
M 628 4666 
L 2053 4666 
Q 2838 4666 3239 4311 
Q 3641 3956 3641 3272 
Q 3641 2581 3239 2228 
Q 2838 1875 2053 1875 
L 1259 1875 
L 1259 0 
L 628 0 
L 628 4666 
z
" transform="scale(0.015625)"/>
      </defs>
      <use xlink:href="#DejaVuSans-4b"/>
      <use xlink:href="#DejaVuSans-6f" transform="translate(60.576172 0)"/>
      <use xlink:href="#DejaVuSans-6d" transform="translate(121.757812 0)"/>
      <use xlink:href="#DejaVuSans-70" transform="translate(219.169922 0)"/>
      <use xlink:href="#DejaVuSans-72" transform="translate(282.646484 0)"/>
      <use xlink:href="#DejaVuSans-65" transform="translate(321.509766 0)"/>
      <use xlink:href="#DejaVuSans-73" transform="translate(383.033203 0)"/>
      <use xlink:href="#DejaVuSans-73" transform="translate(435.132812 0)"/>
      <use xlink:href="#DejaVuSans-69" transform="translate(487.232422 0)"/>
      <use xlink:href="#DejaVuSans-6f" transform="translate(515.015625 0)"/>
      <use xlink:href="#DejaVuSans-6e" transform="translate(576.197266 0)"/>
      <use xlink:href="#DejaVuSans-73" transform="translate(639.576172 0)"/>
      <use xlink:href="#DejaVuSans-6d" transform="translate(691.675781 0)"/>
      <use xlink:href="#DejaVuSans-6f" transform="translate(789.087891 0)"/>
      <use xlink:href="#DejaVuSans-64" transform="translate(850.269531 0)"/>
      <use xlink:href="#DejaVuSans-75" transform="translate(913.746094 0)"/>
      <use xlink:href="#DejaVuSans-6c" transform="translate(977.125 0)"/>
      <use xlink:href="#DejaVuSans-20" transform="translate(1004.908203 0)"/>
      <use xlink:href="#DejaVuSans-4b" transform="translate(1036.695312 0)"/>
      <use xlink:href="#DejaVuSans-20" transform="translate(1102.271484 0)"/>
      <use xlink:href="#DejaVuSans-5b" transform="translate(1134.058594 0)"/>
      <use xlink:href="#DejaVuSans-4d" transform="translate(1173.072266 0)"/>
      <use xlink:href="#DejaVuSans-50" transform="translate(1259.351562 0)"/>
      <use xlink:href="#DejaVuSans-61" transform="translate(1315.154297 0)"/>
      <use xlink:href="#DejaVuSans-5d" transform="translate(1376.433594 0)"/>
     </g>
    </g>
   </g>
   <g id="line2d_27">
    <path d="M 53.328125 307.8 
L 357.691761 97.332737 
L 357.691761 97.332737 
" clip-path="url(#p4ef3b3ba4e)" style="fill: none; stroke: #0000ff; stroke-width: 2; stroke-linecap: square"/>
   </g>
   <g id="line2d_28">
    <path d="M 53.328125 307.8 
L 71.681711 294.973629 
L 90.035297 281.873674 
L 108.388883 268.494299 
L 126.742469 254.829545 
L 145.096056 240.873324 
L 163.449642 226.619419 
L 181.803228 212.06148 
L 198.627348 198.444082 
L 215.451469 184.560667 
L 232.27559 170.406039 
L 249.09971 155.974898 
L 265.923831 141.261843 
L 282.747951 126.261368 
L 299.572072 110.967857 
L 316.396193 95.375586 
L 333.220313 79.478718 
L 350.044434 63.271303 
L 357.691761 55.8 
L 357.691761 55.8 
" clip-path="url(#p4ef3b3ba4e)" style="fill: none; stroke-dasharray: 7.4,3.2; stroke-dashoffset: 0; stroke: #ff0000; stroke-width: 2"/>
   </g>
   <g id="patch_3">
    <path d="M 53.328125 320.4 
L 53.328125 43.2 
" style="fill: none; stroke: #000000; stroke-width: 0.8; stroke-linejoin: miter; stroke-linecap: square"/>
   </g>
   <g id="patch_4">
    <path d="M 357.691761 320.4 
L 357.691761 43.2 
" style="fill: none; stroke: #000000; stroke-width: 0.8; stroke-linejoin: miter; stroke-linecap: square"/>
   </g>
   <g id="patch_5">
    <path d="M 53.328125 320.4 
L 357.691761 320.4 
" style="fill: none; stroke: #000000; stroke-width: 0.8; stroke-linejoin: miter; stroke-linecap: square"/>
   </g>
   <g id="patch_6">
    <path d="M 53.328125 43.2 
L 357.691761 43.2 
" style="fill: none; stroke: #000000; stroke-width: 0.8; stroke-linejoin: miter; stroke-linecap: square"/>
   </g>
   <g id="text_16">
    <!-- Tait vs. Dowson-Higginson -->
    <g transform="translate(126.913693 37.2) scale(0.12 -0.12)">
     <defs>
      <path id="DejaVuSans-54" d="M -19 4666 
L 3928 4666 
L 3928 4134 
L 2272 4134 
L 2272 0 
L 1638 0 
L 1638 4134 
L -19 4134 
L -19 4666 
z
" transform="scale(0.015625)"/>
      <path id="DejaVuSans-74" d="M 1172 4494 
L 1172 3500 
L 2356 3500 
L 2356 3053 
L 1172 3053 
L 1172 1153 
Q 1172 725 1289 603 
Q 1406 481 1766 481 
L 2356 481 
L 2356 0 
L 1766 0 
Q 1100 0 847 248 
Q 594 497 594 1153 
L 594 3053 
L 172 3053 
L 172 3500 
L 594 3500 
L 594 4494 
L 1172 4494 
z
" transform="scale(0.015625)"/>
      <path id="DejaVuSans-76" d="M 191 3500 
L 800 3500 
L 1894 563 
L 2988 3500 
L 3597 3500 
L 2284 0 
L 1503 0 
L 191 3500 
z
" transform="scale(0.015625)"/>
      <path id="DejaVuSans-2e" d="M 684 794 
L 1344 794 
L 1344 0 
L 684 0 
L 684 794 
z
" transform="scale(0.015625)"/>
      <path id="DejaVuSans-77" d="M 269 3500 
L 844 3500 
L 1563 769 
L 2278 3500 
L 2956 3500 
L 3675 769 
L 4391 3500 
L 4966 3500 
L 4050 0 
L 3372 0 
L 2619 2869 
L 1863 0 
L 1184 0 
L 269 3500 
z
" transform="scale(0.015625)"/>
      <path id="DejaVuSans-2d" d="M 313 2009 
L 1997 2009 
L 1997 1497 
L 313 1497 
L 313 2009 
z
" transform="scale(0.015625)"/>
      <path id="DejaVuSans-48" d="M 628 4666 
L 1259 4666 
L 1259 2753 
L 3553 2753 
L 3553 4666 
L 4184 4666 
L 4184 0 
L 3553 0 
L 3553 2222 
L 1259 2222 
L 1259 0 
L 628 0 
L 628 4666 
z
" transform="scale(0.015625)"/>
      <path id="DejaVuSans-67" d="M 2906 1791 
Q 2906 2416 2648 2759 
Q 2391 3103 1925 3103 
Q 1463 3103 1205 2759 
Q 947 2416 947 1791 
Q 947 1169 1205 825 
Q 1463 481 1925 481 
Q 2391 481 2648 825 
Q 2906 1169 2906 1791 
z
M 3481 434 
Q 3481 -459 3084 -895 
Q 2688 -1331 1869 -1331 
Q 1566 -1331 1297 -1286 
Q 1028 -1241 775 -1147 
L 775 -588 
Q 1028 -725 1275 -790 
Q 1522 -856 1778 -856 
Q 2344 -856 2625 -561 
Q 2906 -266 2906 331 
L 2906 616 
Q 2728 306 2450 153 
Q 2172 0 1784 0 
Q 1141 0 747 490 
Q 353 981 353 1791 
Q 353 2603 747 3093 
Q 1141 3584 1784 3584 
Q 2172 3584 2450 3431 
Q 2728 3278 2906 2969 
L 2906 3500 
L 3481 3500 
L 3481 434 
z
" transform="scale(0.015625)"/>
     </defs>
     <use xlink:href="#DejaVuSans-54"/>
     <use xlink:href="#DejaVuSans-61" transform="translate(44.583984 0)"/>
     <use xlink:href="#DejaVuSans-69" transform="translate(105.863281 0)"/>
     <use xlink:href="#DejaVuSans-74" transform="translate(133.646484 0)"/>
     <use xlink:href="#DejaVuSans-20" transform="translate(172.855469 0)"/>
     <use xlink:href="#DejaVuSans-76" transform="translate(204.642578 0)"/>
     <use xlink:href="#DejaVuSans-73" transform="translate(263.822266 0)"/>
     <use xlink:href="#DejaVuSans-2e" transform="translate(315.921875 0)"/>
     <use xlink:href="#DejaVuSans-20" transform="translate(347.708984 0)"/>
     <use xlink:href="#DejaVuSans-44" transform="translate(379.496094 0)"/>
     <use xlink:href="#DejaVuSans-6f" transform="translate(456.498047 0)"/>
     <use xlink:href="#DejaVuSans-77" transform="translate(517.679688 0)"/>
     <use xlink:href="#DejaVuSans-73" transform="translate(599.466797 0)"/>
     <use xlink:href="#DejaVuSans-6f" transform="translate(651.566406 0)"/>
     <use xlink:href="#DejaVuSans-6e" transform="translate(712.748047 0)"/>
     <use xlink:href="#DejaVuSans-2d" transform="translate(776.126953 0)"/>
     <use xlink:href="#DejaVuSans-48" transform="translate(812.210938 0)"/>
     <use xlink:href="#DejaVuSans-69" transform="translate(887.40625 0)"/>
     <use xlink:href="#DejaVuSans-67" transform="translate(915.189453 0)"/>
     <use xlink:href="#DejaVuSans-67" transform="translate(978.666016 0)"/>
     <use xlink:href="#DejaVuSans-69" transform="translate(1042.142578 0)"/>
     <use xlink:href="#DejaVuSans-6e" transform="translate(1069.925781 0)"/>
     <use xlink:href="#DejaVuSans-73" transform="translate(1133.304688 0)"/>
     <use xlink:href="#DejaVuSans-6f" transform="translate(1185.404297 0)"/>
     <use xlink:href="#DejaVuSans-6e" transform="translate(1246.585938 0)"/>
    </g>
   </g>
   <g id="legend_1">
    <g id="patch_7">
     <path d="M 60.328125 80.55625 
L 219.601562 80.55625 
Q 221.601562 80.55625 221.601562 78.55625 
L 221.601562 50.2 
Q 221.601562 48.2 219.601562 48.2 
L 60.328125 48.2 
Q 58.328125 48.2 58.328125 50.2 
L 58.328125 78.55625 
Q 58.328125 80.55625 60.328125 80.55625 
z
" style="fill: #ffffff; opacity: 0.8; stroke: #cccccc; stroke-linejoin: miter"/>
    </g>
    <g id="line2d_29">
     <path d="M 62.328125 56.298437 
L 72.328125 56.298437 
L 82.328125 56.298437 
" style="fill: none; stroke: #0000ff; stroke-width: 2; stroke-linecap: square"/>
    </g>
    <g id="text_17">
     <!-- Tait linear (Gl. 4) -->
     <g transform="translate(90.328125 59.798437) scale(0.1 -0.1)">
      <defs>
       <path id="DejaVuSans-28" d="M 1984 4856 
Q 1566 4138 1362 3434 
Q 1159 2731 1159 2009 
Q 1159 1288 1364 580 
Q 1569 -128 1984 -844 
L 1484 -844 
Q 1016 -109 783 600 
Q 550 1309 550 2009 
Q 550 2706 781 3412 
Q 1013 4119 1484 4856 
L 1984 4856 
z
" transform="scale(0.015625)"/>
       <path id="DejaVuSans-47" d="M 3809 666 
L 3809 1919 
L 2778 1919 
L 2778 2438 
L 4434 2438 
L 4434 434 
Q 4069 175 3628 42 
Q 3188 -91 2688 -91 
Q 1594 -91 976 548 
Q 359 1188 359 2328 
Q 359 3472 976 4111 
Q 1594 4750 2688 4750 
Q 3144 4750 3555 4637 
Q 3966 4525 4313 4306 
L 4313 3634 
Q 3963 3931 3569 4081 
Q 3175 4231 2741 4231 
Q 1884 4231 1454 3753 
Q 1025 3275 1025 2328 
Q 1025 1384 1454 906 
Q 1884 428 2741 428 
Q 3075 428 3337 486 
Q 3600 544 3809 666 
z
" transform="scale(0.015625)"/>
       <path id="DejaVuSans-29" d="M 513 4856 
L 1013 4856 
Q 1481 4119 1714 3412 
Q 1947 2706 1947 2009 
Q 1947 1309 1714 600 
Q 1481 -109 1013 -844 
L 513 -844 
Q 928 -128 1133 580 
Q 1338 1288 1338 2009 
Q 1338 2731 1133 3434 
Q 928 4138 513 4856 
z
" transform="scale(0.015625)"/>
      </defs>
      <use xlink:href="#DejaVuSans-54"/>
      <use xlink:href="#DejaVuSans-61" transform="translate(44.583984 0)"/>
      <use xlink:href="#DejaVuSans-69" transform="translate(105.863281 0)"/>
      <use xlink:href="#DejaVuSans-74" transform="translate(133.646484 0)"/>
      <use xlink:href="#DejaVuSans-20" transform="translate(172.855469 0)"/>
      <use xlink:href="#DejaVuSans-6c" transform="translate(204.642578 0)"/>
      <use xlink:href="#DejaVuSans-69" transform="translate(232.425781 0)"/>
      <use xlink:href="#DejaVuSans-6e" transform="translate(260.208984 0)"/>
      <use xlink:href="#DejaVuSans-65" transform="translate(323.587891 0)"/>
      <use xlink:href="#DejaVuSans-61" transform="translate(385.111328 0)"/>
      <use xlink:href="#DejaVuSans-72" transform="translate(446.390625 0)"/>
      <use xlink:href="#DejaVuSans-20" transform="translate(487.503906 0)"/>
      <use xlink:href="#DejaVuSans-28" transform="translate(519.291016 0)"/>
      <use xlink:href="#DejaVuSans-47" transform="translate(558.304688 0)"/>
      <use xlink:href="#DejaVuSans-6c" transform="translate(635.794922 0)"/>
      <use xlink:href="#DejaVuSans-2e" transform="translate(663.578125 0)"/>
      <use xlink:href="#DejaVuSans-20" transform="translate(695.365234 0)"/>
      <use xlink:href="#DejaVuSans-34" transform="translate(727.152344 0)"/>
      <use xlink:href="#DejaVuSans-29" transform="translate(790.775391 0)"/>
     </g>
    </g>
    <g id="line2d_30">
     <path d="M 62.328125 70.976562 
L 72.328125 70.976562 
L 82.328125 70.976562 
" style="fill: none; stroke-dasharray: 7.4,3.2; stroke-dashoffset: 0; stroke: #ff0000; stroke-width: 2"/>
    </g>
    <g id="text_18">
     <!-- Dowson-Higginson (Gl. 5) -->
     <g transform="translate(90.328125 74.476562) scale(0.1 -0.1)">
      <use xlink:href="#DejaVuSans-44"/>
      <use xlink:href="#DejaVuSans-6f" transform="translate(77.001953 0)"/>
      <use xlink:href="#DejaVuSans-77" transform="translate(138.183594 0)"/>
      <use xlink:href="#DejaVuSans-73" transform="translate(219.970703 0)"/>
      <use xlink:href="#DejaVuSans-6f" transform="translate(272.070312 0)"/>
      <use xlink:href="#DejaVuSans-6e" transform="translate(333.251953 0)"/>
      <use xlink:href="#DejaVuSans-2d" transform="translate(396.630859 0)"/>
      <use xlink:href="#DejaVuSans-48" transform="translate(432.714844 0)"/>
      <use xlink:href="#DejaVuSans-69" transform="translate(507.910156 0)"/>
      <use xlink:href="#DejaVuSans-67" transform="translate(535.693359 0)"/>
      <use xlink:href="#DejaVuSans-67" transform="translate(599.169922 0)"/>
      <use xlink:href="#DejaVuSans-69" transform="translate(662.646484 0)"/>
      <use xlink:href="#DejaVuSans-6e" transform="translate(690.429688 0)"/>
      <use xlink:href="#DejaVuSans-73" transform="translate(753.808594 0)"/>
      <use xlink:href="#DejaVuSans-6f" transform="translate(805.908203 0)"/>
      <use xlink:href="#DejaVuSans-6e" transform="translate(867.089844 0)"/>
      <use xlink:href="#DejaVuSans-20" transform="translate(930.46875 0)"/>
      <use xlink:href="#DejaVuSans-28" transform="translate(962.255859 0)"/>
      <use xlink:href="#DejaVuSans-47" transform="translate(1001.269531 0)"/>
      <use xlink:href="#DejaVuSans-6c" transform="translate(1078.759766 0)"/>
      <use xlink:href="#DejaVuSans-2e" transform="translate(1106.542969 0)"/>
      <use xlink:href="#DejaVuSans-20" transform="translate(1138.330078 0)"/>
      <use xlink:href="#DejaVuSans-35" transform="translate(1170.117188 0)"/>
      <use xlink:href="#DejaVuSans-29" transform="translate(1233.740234 0)"/>
     </g>
    </g>
   </g>
  </g>
  <g id="axes_2">
   <g id="patch_8">
    <path d="M 418.564489 320.4 
L 722.928125 320.4 
L 722.928125 43.2 
L 418.564489 43.2 
z
" style="fill: #ffffff"/>
   </g>
   <g id="matplotlib.axis_3">
    <g id="xtick_7">
     <g id="line2d_31">
      <path d="M 418.564489 320.4 
L 418.564489 43.2 
" clip-path="url(#p7fb8b6556c)" style="fill: none; stroke: #b0b0b0; stroke-opacity: 0.3; stroke-width: 0.8; stroke-linecap: square"/>
     </g>
     <g id="line2d_32">
      <g>
       <use xlink:href="#mf837921fde" x="418.564489" y="320.4" style="stroke: #000000; stroke-width: 0.8"/>
      </g>
     </g>
     <g id="text_19">
      <!-- 0 -->
      <g transform="translate(415.383239 334.998437) scale(0.1 -0.1)">
       <use xlink:href="#DejaVuSans-30"/>
      </g>
     </g>
    </g>
    <g id="xtick_8">
     <g id="line2d_33">
      <path d="M 479.437216 320.4 
L 479.437216 43.2 
" clip-path="url(#p7fb8b6556c)" style="fill: none; stroke: #b0b0b0; stroke-opacity: 0.3; stroke-width: 0.8; stroke-linecap: square"/>
     </g>
     <g id="line2d_34">
      <g>
       <use xlink:href="#mf837921fde" x="479.437216" y="320.4" style="stroke: #000000; stroke-width: 0.8"/>
      </g>
     </g>
     <g id="text_20">
      <!-- 100 -->
      <g transform="translate(469.893466 334.998437) scale(0.1 -0.1)">
       <use xlink:href="#DejaVuSans-31"/>
       <use xlink:href="#DejaVuSans-30" transform="translate(63.623047 0)"/>
       <use xlink:href="#DejaVuSans-30" transform="translate(127.246094 0)"/>
      </g>
     </g>
    </g>
    <g id="xtick_9">
     <g id="line2d_35">
      <path d="M 540.309943 320.4 
L 540.309943 43.2 
" clip-path="url(#p7fb8b6556c)" style="fill: none; stroke: #b0b0b0; stroke-opacity: 0.3; stroke-width: 0.8; stroke-linecap: square"/>
     </g>
     <g id="line2d_36">
      <g>
       <use xlink:href="#mf837921fde" x="540.309943" y="320.4" style="stroke: #000000; stroke-width: 0.8"/>
      </g>
     </g>
     <g id="text_21">
      <!-- 200 -->
      <g transform="translate(530.766193 334.998437) scale(0.1 -0.1)">
       <use xlink:href="#DejaVuSans-32"/>
       <use xlink:href="#DejaVuSans-30" transform="translate(63.623047 0)"/>
       <use xlink:href="#DejaVuSans-30" transform="translate(127.246094 0)"/>
      </g>
     </g>
    </g>
    <g id="xtick_10">
     <g id="line2d_37">
      <path d="M 601.18267 320.4 
L 601.18267 43.2 
" clip-path="url(#p7fb8b6556c)" style="fill: none; stroke: #b0b0b0; stroke-opacity: 0.3; stroke-width: 0.8; stroke-linecap: square"/>
     </g>
     <g id="line2d_38">
      <g>
       <use xlink:href="#mf837921fde" x="601.18267" y="320.4" style="stroke: #000000; stroke-width: 0.8"/>
      </g>
     </g>
     <g id="text_22">
      <!-- 300 -->
      <g transform="translate(591.63892 334.998437) scale(0.1 -0.1)">
       <use xlink:href="#DejaVuSans-33"/>
       <use xlink:href="#DejaVuSans-30" transform="translate(63.623047 0)"/>
       <use xlink:href="#DejaVuSans-30" transform="translate(127.246094 0)"/>
      </g>
     </g>
    </g>
    <g id="xtick_11">
     <g id="line2d_39">
      <path d="M 662.055398 320.4 
L 662.055398 43.2 
" clip-path="url(#p7fb8b6556c)" style="fill: none; stroke: #b0b0b0; stroke-opacity: 0.3; stroke-width: 0.8; stroke-linecap: square"/>
     </g>
     <g id="line2d_40">
      <g>
       <use xlink:href="#mf837921fde" x="662.055398" y="320.4" style="stroke: #000000; stroke-width: 0.8"/>
      </g>
     </g>
     <g id="text_23">
      <!-- 400 -->
      <g transform="translate(652.511648 334.998437) scale(0.1 -0.1)">
       <use xlink:href="#DejaVuSans-34"/>
       <use xlink:href="#DejaVuSans-30" transform="translate(63.623047 0)"/>
       <use xlink:href="#DejaVuSans-30" transform="translate(127.246094 0)"/>
      </g>
     </g>
    </g>
    <g id="xtick_12">
     <g id="line2d_41">
      <path d="M 722.928125 320.4 
L 722.928125 43.2 
" clip-path="url(#p7fb8b6556c)" style="fill: none; stroke: #b0b0b0; stroke-opacity: 0.3; stroke-width: 0.8; stroke-linecap: square"/>
     </g>
     <g id="line2d_42">
      <g>
       <use xlink:href="#mf837921fde" x="722.928125" y="320.4" style="stroke: #000000; stroke-width: 0.8"/>
      </g>
     </g>
     <g id="text_24">
      <!-- 500 -->
      <g transform="translate(713.384375 334.998437) scale(0.1 -0.1)">
       <use xlink:href="#DejaVuSans-35"/>
       <use xlink:href="#DejaVuSans-30" transform="translate(63.623047 0)"/>
       <use xlink:href="#DejaVuSans-30" transform="translate(127.246094 0)"/>
      </g>
     </g>
    </g>
    <g id="text_25">
     <!-- Druck [bar] -->
     <g transform="translate(542.243182 348.676562) scale(0.1 -0.1)">
      <use xlink:href="#DejaVuSans-44"/>
      <use xlink:href="#DejaVuSans-72" transform="translate(77.001953 0)"/>
      <use xlink:href="#DejaVuSans-75" transform="translate(118.115234 0)"/>
      <use xlink:href="#DejaVuSans-63" transform="translate(181.494141 0)"/>
      <use xlink:href="#DejaVuSans-6b" transform="translate(236.474609 0)"/>
      <use xlink:href="#DejaVuSans-20" transform="translate(294.384766 0)"/>
      <use xlink:href="#DejaVuSans-5b" transform="translate(326.171875 0)"/>
      <use xlink:href="#DejaVuSans-62" transform="translate(365.185547 0)"/>
      <use xlink:href="#DejaVuSans-61" transform="translate(428.662109 0)"/>
      <use xlink:href="#DejaVuSans-72" transform="translate(489.941406 0)"/>
      <use xlink:href="#DejaVuSans-5d" transform="translate(531.054688 0)"/>
     </g>
    </g>
   </g>
   <g id="matplotlib.axis_4">
    <g id="ytick_8">
     <g id="line2d_43">
      <path d="M 418.564489 307.800002 
L 722.928125 307.800002 
" clip-path="url(#p7fb8b6556c)" style="fill: none; stroke: #b0b0b0; stroke-opacity: 0.3; stroke-width: 0.8; stroke-linecap: square"/>
     </g>
     <g id="line2d_44">
      <g>
       <use xlink:href="#m38ef94e565" x="418.564489" y="307.800002" style="stroke: #000000; stroke-width: 0.8"/>
      </g>
     </g>
     <g id="text_26">
      <!-- 0 -->
      <g transform="translate(405.201989 311.599221) scale(0.1 -0.1)">
       <use xlink:href="#DejaVuSans-30"/>
      </g>
     </g>
    </g>
    <g id="ytick_9">
     <g id="line2d_45">
      <path d="M 418.564489 276.688891 
L 722.928125 276.688891 
" clip-path="url(#p7fb8b6556c)" style="fill: none; stroke: #b0b0b0; stroke-opacity: 0.3; stroke-width: 0.8; stroke-linecap: square"/>
     </g>
     <g id="line2d_46">
      <g>
       <use xlink:href="#m38ef94e565" x="418.564489" y="276.688891" style="stroke: #000000; stroke-width: 0.8"/>
      </g>
     </g>
     <g id="text_27">
      <!-- 250 -->
      <g transform="translate(392.476989 280.48811) scale(0.1 -0.1)">
       <use xlink:href="#DejaVuSans-32"/>
       <use xlink:href="#DejaVuSans-35" transform="translate(63.623047 0)"/>
       <use xlink:href="#DejaVuSans-30" transform="translate(127.246094 0)"/>
      </g>
     </g>
    </g>
    <g id="ytick_10">
     <g id="line2d_47">
      <path d="M 418.564489 245.57778 
L 722.928125 245.57778 
" clip-path="url(#p7fb8b6556c)" style="fill: none; stroke: #b0b0b0; stroke-opacity: 0.3; stroke-width: 0.8; stroke-linecap: square"/>
     </g>
     <g id="line2d_48">
      <g>
       <use xlink:href="#m38ef94e565" x="418.564489" y="245.57778" style="stroke: #000000; stroke-width: 0.8"/>
      </g>
     </g>
     <g id="text_28">
      <!-- 500 -->
      <g transform="translate(392.476989 249.376998) scale(0.1 -0.1)">
       <use xlink:href="#DejaVuSans-35"/>
       <use xlink:href="#DejaVuSans-30" transform="translate(63.623047 0)"/>
       <use xlink:href="#DejaVuSans-30" transform="translate(127.246094 0)"/>
      </g>
     </g>
    </g>
    <g id="ytick_11">
     <g id="line2d_49">
      <path d="M 418.564489 214.466668 
L 722.928125 214.466668 
" clip-path="url(#p7fb8b6556c)" style="fill: none; stroke: #b0b0b0; stroke-opacity: 0.3; stroke-width: 0.8; stroke-linecap: square"/>
     </g>
     <g id="line2d_50">
      <g>
       <use xlink:href="#m38ef94e565" x="418.564489" y="214.466668" style="stroke: #000000; stroke-width: 0.8"/>
      </g>
     </g>
     <g id="text_29">
      <!-- 750 -->
      <g transform="translate(392.476989 218.265887) scale(0.1 -0.1)">
       <use xlink:href="#DejaVuSans-37"/>
       <use xlink:href="#DejaVuSans-35" transform="translate(63.623047 0)"/>
       <use xlink:href="#DejaVuSans-30" transform="translate(127.246094 0)"/>
      </g>
     </g>
    </g>
    <g id="ytick_12">
     <g id="line2d_51">
      <path d="M 418.564489 183.355557 
L 722.928125 183.355557 
" clip-path="url(#p7fb8b6556c)" style="fill: none; stroke: #b0b0b0; stroke-opacity: 0.3; stroke-width: 0.8; stroke-linecap: square"/>
     </g>
     <g id="line2d_52">
      <g>
       <use xlink:href="#m38ef94e565" x="418.564489" y="183.355557" style="stroke: #000000; stroke-width: 0.8"/>
      </g>
     </g>
     <g id="text_30">
      <!-- 1000 -->
      <g transform="translate(386.114489 187.154776) scale(0.1 -0.1)">
       <use xlink:href="#DejaVuSans-31"/>
       <use xlink:href="#DejaVuSans-30" transform="translate(63.623047 0)"/>
       <use xlink:href="#DejaVuSans-30" transform="translate(127.246094 0)"/>
       <use xlink:href="#DejaVuSans-30" transform="translate(190.869141 0)"/>
      </g>
     </g>
    </g>
    <g id="ytick_13">
     <g id="line2d_53">
      <path d="M 418.564489 152.244445 
L 722.928125 152.244445 
" clip-path="url(#p7fb8b6556c)" style="fill: none; stroke: #b0b0b0; stroke-opacity: 0.3; stroke-width: 0.8; stroke-linecap: square"/>
     </g>
     <g id="line2d_54">
      <g>
       <use xlink:href="#m38ef94e565" x="418.564489" y="152.244445" style="stroke: #000000; stroke-width: 0.8"/>
      </g>
     </g>
     <g id="text_31">
      <!-- 1250 -->
      <g transform="translate(386.114489 156.043664) scale(0.1 -0.1)">
       <use xlink:href="#DejaVuSans-31"/>
       <use xlink:href="#DejaVuSans-32" transform="translate(63.623047 0)"/>
       <use xlink:href="#DejaVuSans-35" transform="translate(127.246094 0)"/>
       <use xlink:href="#DejaVuSans-30" transform="translate(190.869141 0)"/>
      </g>
     </g>
    </g>
    <g id="ytick_14">
     <g id="line2d_55">
      <path d="M 418.564489 121.133334 
L 722.928125 121.133334 
" clip-path="url(#p7fb8b6556c)" style="fill: none; stroke: #b0b0b0; stroke-opacity: 0.3; stroke-width: 0.8; stroke-linecap: square"/>
     </g>
     <g id="line2d_56">
      <g>
       <use xlink:href="#m38ef94e565" x="418.564489" y="121.133334" style="stroke: #000000; stroke-width: 0.8"/>
      </g>
     </g>
     <g id="text_32">
      <!-- 1500 -->
      <g transform="translate(386.114489 124.932553) scale(0.1 -0.1)">
       <use xlink:href="#DejaVuSans-31"/>
       <use xlink:href="#DejaVuSans-35" transform="translate(63.623047 0)"/>
       <use xlink:href="#DejaVuSans-30" transform="translate(127.246094 0)"/>
       <use xlink:href="#DejaVuSans-30" transform="translate(190.869141 0)"/>
      </g>
     </g>
    </g>
    <g id="ytick_15">
     <g id="line2d_57">
      <path d="M 418.564489 90.022223 
L 722.928125 90.022223 
" clip-path="url(#p7fb8b6556c)" style="fill: none; stroke: #b0b0b0; stroke-opacity: 0.3; stroke-width: 0.8; stroke-linecap: square"/>
     </g>
     <g id="line2d_58">
      <g>
       <use xlink:href="#m38ef94e565" x="418.564489" y="90.022223" style="stroke: #000000; stroke-width: 0.8"/>
      </g>
     </g>
     <g id="text_33">
      <!-- 1750 -->
      <g transform="translate(386.114489 93.821441) scale(0.1 -0.1)">
       <use xlink:href="#DejaVuSans-31"/>
       <use xlink:href="#DejaVuSans-37" transform="translate(63.623047 0)"/>
       <use xlink:href="#DejaVuSans-35" transform="translate(127.246094 0)"/>
       <use xlink:href="#DejaVuSans-30" transform="translate(190.869141 0)"/>
      </g>
     </g>
    </g>
    <g id="ytick_16">
     <g id="line2d_59">
      <path d="M 418.564489 58.911111 
L 722.928125 58.911111 
" clip-path="url(#p7fb8b6556c)" style="fill: none; stroke: #b0b0b0; stroke-opacity: 0.3; stroke-width: 0.8; stroke-linecap: square"/>
     </g>
     <g id="line2d_60">
      <g>
       <use xlink:href="#m38ef94e565" x="418.564489" y="58.911111" style="stroke: #000000; stroke-width: 0.8"/>
      </g>
     </g>
     <g id="text_34">
      <!-- 2000 -->
      <g transform="translate(386.114489 62.71033) scale(0.1 -0.1)">
       <use xlink:href="#DejaVuSans-32"/>
       <use xlink:href="#DejaVuSans-30" transform="translate(63.623047 0)"/>
       <use xlink:href="#DejaVuSans-30" transform="translate(127.246094 0)"/>
       <use xlink:href="#DejaVuSans-30" transform="translate(190.869141 0)"/>
      </g>
     </g>
    </g>
    <g id="text_35">
     <!-- Effektiver Modul K_eff [MPa] -->
     <g transform="translate(379.756676 252.210156) rotate(-90) scale(0.1 -0.1)">
      <defs>
       <path id="DejaVuSans-45" d="M 628 4666 
L 3578 4666 
L 3578 4134 
L 1259 4134 
L 1259 2753 
L 3481 2753 
L 3481 2222 
L 1259 2222 
L 1259 531 
L 3634 531 
L 3634 0 
L 628 0 
L 628 4666 
z
" transform="scale(0.015625)"/>
       <path id="DejaVuSans-66" d="M 2375 4863 
L 2375 4384 
L 1825 4384 
Q 1516 4384 1395 4259 
Q 1275 4134 1275 3809 
L 1275 3500 
L 2222 3500 
L 2222 3053 
L 1275 3053 
L 1275 0 
L 697 0 
L 697 3053 
L 147 3053 
L 147 3500 
L 697 3500 
L 697 3744 
Q 697 4328 969 4595 
Q 1241 4863 1831 4863 
L 2375 4863 
z
" transform="scale(0.015625)"/>
       <path id="DejaVuSans-5f" d="M 3263 -1063 
L 3263 -1509 
L -63 -1509 
L -63 -1063 
L 3263 -1063 
z
" transform="scale(0.015625)"/>
      </defs>
      <use xlink:href="#DejaVuSans-45"/>
      <use xlink:href="#DejaVuSans-66" transform="translate(63.183594 0)"/>
      <use xlink:href="#DejaVuSans-66" transform="translate(98.388672 0)"/>
      <use xlink:href="#DejaVuSans-65" transform="translate(133.59375 0)"/>
      <use xlink:href="#DejaVuSans-6b" transform="translate(195.117188 0)"/>
      <use xlink:href="#DejaVuSans-74" transform="translate(253.027344 0)"/>
      <use xlink:href="#DejaVuSans-69" transform="translate(292.236328 0)"/>
      <use xlink:href="#DejaVuSans-76" transform="translate(320.019531 0)"/>
      <use xlink:href="#DejaVuSans-65" transform="translate(379.199219 0)"/>
      <use xlink:href="#DejaVuSans-72" transform="translate(440.722656 0)"/>
      <use xlink:href="#DejaVuSans-20" transform="translate(481.835938 0)"/>
      <use xlink:href="#DejaVuSans-4d" transform="translate(513.623047 0)"/>
      <use xlink:href="#DejaVuSans-6f" transform="translate(599.902344 0)"/>
      <use xlink:href="#DejaVuSans-64" transform="translate(661.083984 0)"/>
      <use xlink:href="#DejaVuSans-75" transform="translate(724.560547 0)"/>
      <use xlink:href="#DejaVuSans-6c" transform="translate(787.939453 0)"/>
      <use xlink:href="#DejaVuSans-20" transform="translate(815.722656 0)"/>
      <use xlink:href="#DejaVuSans-4b" transform="translate(847.509766 0)"/>
      <use xlink:href="#DejaVuSans-5f" transform="translate(913.085938 0)"/>
      <use xlink:href="#DejaVuSans-65" transform="translate(963.085938 0)"/>
      <use xlink:href="#DejaVuSans-66" transform="translate(1024.609375 0)"/>
      <use xlink:href="#DejaVuSans-66" transform="translate(1059.814453 0)"/>
      <use xlink:href="#DejaVuSans-20" transform="translate(1095.019531 0)"/>
      <use xlink:href="#DejaVuSans-5b" transform="translate(1126.806641 0)"/>
      <use xlink:href="#DejaVuSans-4d" transform="translate(1165.820312 0)"/>
      <use xlink:href="#DejaVuSans-50" transform="translate(1252.099609 0)"/>
      <use xlink:href="#DejaVuSans-61" transform="translate(1307.902344 0)"/>
      <use xlink:href="#DejaVuSans-5d" transform="translate(1369.181641 0)"/>
     </g>
    </g>
   </g>
   <g id="line2d_61">
    <path d="M 418.564489 121.133334 
L 722.928125 55.8 
L 722.928125 55.8 
" clip-path="url(#p7fb8b6556c)" style="fill: none; stroke: #5601a4; stroke-width: 2; stroke-linecap: square"/>
   </g>
   <g id="line2d_62">
    <path d="M 418.564489 307.799978 
L 421.62342 296.07581 
L 424.682351 285.723678 
L 427.741282 276.504023 
L 430.800213 268.229972 
L 433.859144 260.753625 
L 436.918075 253.956396 
L 439.977006 247.742096 
L 443.035937 242.031881 
L 446.094868 236.760513 
L 449.153799 231.873546 
L 452.21273 227.325182 
L 455.271661 223.076621 
L 458.330592 219.094773 
L 462.918988 213.561059 
L 467.507385 208.484388 
L 472.095781 203.799838 
L 476.684178 199.45423 
L 481.272575 195.403584 
L 485.860971 191.611214 
L 491.978833 186.90387 
L 498.096695 182.540932 
L 504.214557 178.473412 
L 510.332419 174.661189 
L 516.450281 171.071094 
L 524.097609 166.854134 
L 531.744936 162.896775 
L 539.392264 159.162746 
L 548.569057 154.9351 
L 557.74585 150.944321 
L 568.452109 146.54277 
L 579.158367 142.374065 
L 591.394091 137.850572 
L 605.159281 133.019598 
L 618.92447 128.417189 
L 634.219125 123.527155 
L 651.043246 118.374904 
L 669.396832 112.978748 
L 690.809349 106.926205 
L 713.751332 100.677924 
L 722.928125 98.236591 
L 722.928125 98.236591 
" clip-path="url(#p7fb8b6556c)" style="fill: none; stroke: #99159f; stroke-width: 2; stroke-linecap: square"/>
   </g>
   <g id="line2d_63">
    <path d="M 418.564489 307.79999 
L 421.62342 301.748531 
L 424.682351 296.073246 
L 427.741282 290.736545 
L 432.329678 283.295832 
L 436.918075 276.450271 
L 441.506471 270.122266 
L 446.094868 264.247145 
L 450.683264 258.770584 
L 455.271661 253.646609 
L 459.860057 248.836058 
L 464.448454 244.305361 
L 469.03685 240.025576 
L 475.154712 234.666626 
L 481.272575 229.658776 
L 487.390437 224.95948 
L 493.508299 220.532799 
L 499.626161 216.348168 
L 507.273488 211.418262 
L 514.920816 206.782677 
L 522.568143 202.405234 
L 530.215471 198.255449 
L 539.392264 193.540073 
L 548.569057 189.077831 
L 559.275315 184.150187 
L 569.981574 179.483086 
L 580.687833 175.042337 
L 592.923557 170.208072 
L 606.688746 165.035004 
L 620.453936 160.103746 
L 635.748591 154.867665 
L 652.572712 149.360699 
L 670.926298 143.609562 
L 690.809349 137.6343 
L 712.221866 131.449108 
L 722.928125 128.44057 
L 722.928125 128.44057 
" clip-path="url(#p7fb8b6556c)" style="fill: none; stroke: #cc4778; stroke-width: 2; stroke-linecap: square"/>
   </g>
   <g id="line2d_64">
    <path d="M 418.564489 307.799996 
L 424.682351 301.747849 
L 430.800213 296.068169 
L 436.918075 290.720579 
L 443.035937 285.670328 
L 449.153799 280.887352 
L 455.271661 276.345505 
L 462.918988 270.972761 
L 470.566316 265.902712 
L 478.213644 261.10238 
L 485.860971 256.54341 
L 495.037764 251.356957 
L 504.214557 246.446572 
L 513.39135 241.78133 
L 524.097609 236.613273 
L 534.803867 231.707199 
L 545.510126 227.032824 
L 557.74585 221.94149 
L 569.981574 217.086557 
L 583.746764 211.87315 
L 597.511953 206.891042 
L 612.806608 201.592986 
L 629.630729 196.0174 
L 646.45485 190.671956 
L 664.808436 185.068674 
L 684.691487 179.231597 
L 706.104004 173.179791 
L 722.928125 168.573482 
L 722.928125 168.573482 
" clip-path="url(#p7fb8b6556c)" style="fill: none; stroke: #ee7b51; stroke-width: 2; stroke-linecap: square"/>
   </g>
   <g id="line2d_65">
    <path d="M 418.564489 307.8 
L 430.800213 302.926024 
L 443.035937 298.290205 
L 456.801126 293.327342 
L 470.566316 288.601512 
L 485.860971 283.596124 
L 501.155626 278.819178 
L 517.979747 273.797021 
L 536.333333 268.562465 
L 556.216384 263.142982 
L 576.099436 257.951594 
L 597.511953 252.58333 
L 620.453936 247.054819 
L 644.925384 241.378923 
L 672.455763 235.229481 
L 701.515608 228.971702 
L 722.928125 224.494217 
L 722.928125 224.494217 
" clip-path="url(#p7fb8b6556c)" style="fill: none; stroke: #feba2c; stroke-width: 2; stroke-linecap: square"/>
   </g>
   <g id="patch_9">
    <path d="M 418.564489 320.4 
L 418.564489 43.2 
" style="fill: none; stroke: #000000; stroke-width: 0.8; stroke-linejoin: miter; stroke-linecap: square"/>
   </g>
   <g id="patch_10">
    <path d="M 722.928125 320.4 
L 722.928125 43.2 
" style="fill: none; stroke: #000000; stroke-width: 0.8; stroke-linejoin: miter; stroke-linecap: square"/>
   </g>
   <g id="patch_11">
    <path d="M 418.564489 320.4 
L 722.928125 320.4 
" style="fill: none; stroke: #000000; stroke-width: 0.8; stroke-linejoin: miter; stroke-linecap: square"/>
   </g>
   <g id="patch_12">
    <path d="M 418.564489 43.2 
L 722.928125 43.2 
" style="fill: none; stroke: #000000; stroke-width: 0.8; stroke-linejoin: miter; stroke-linecap: square"/>
   </g>
   <g id="text_36">
    <!-- Effektiver Modul mit entlüftetem Anteil α -->
    <g transform="translate(447.815682 37.2) scale(0.12 -0.12)">
     <defs>
      <path id="DejaVuSans-fc" d="M 544 1381 
L 544 3500 
L 1119 3500 
L 1119 1403 
Q 1119 906 1312 657 
Q 1506 409 1894 409 
Q 2359 409 2629 706 
Q 2900 1003 2900 1516 
L 2900 3500 
L 3475 3500 
L 3475 0 
L 2900 0 
L 2900 538 
Q 2691 219 2414 64 
Q 2138 -91 1772 -91 
Q 1169 -91 856 284 
Q 544 659 544 1381 
z
M 1991 3584 
L 1991 3584 
z
M 2278 4850 
L 2912 4850 
L 2912 4219 
L 2278 4219 
L 2278 4850 
z
M 1056 4850 
L 1690 4850 
L 1690 4219 
L 1056 4219 
L 1056 4850 
z
" transform="scale(0.015625)"/>
      <path id="DejaVuSans-41" d="M 2188 4044 
L 1331 1722 
L 3047 1722 
L 2188 4044 
z
M 1831 4666 
L 2547 4666 
L 4325 0 
L 3669 0 
L 3244 1197 
L 1141 1197 
L 716 0 
L 50 0 
L 1831 4666 
z
" transform="scale(0.015625)"/>
      <path id="DejaVuSans-3b1" d="M 2644 1628 
L 2506 2350 
Q 2366 3091 1809 3091 
Q 1391 3091 1200 2747 
Q 959 2316 959 1747 
Q 959 1059 1194 731 
Q 1431 397 1809 397 
Q 2228 397 2453 1063 
L 2644 1628 
z
M 2966 2584 
L 3275 3500 
L 3788 3500 
L 3147 1603 
L 3272 919 
Q 3300 766 3409 638 
Q 3538 488 3638 488 
L 3913 488 
L 3913 0 
L 3569 0 
Q 3275 0 3013 263 
Q 2884 394 2831 669 
Q 2688 322 2394 50 
Q 2256 -78 1809 -78 
Q 1075 -78 719 397 
Q 353 888 353 1747 
Q 353 2666 750 3097 
Q 1191 3578 1809 3578 
Q 2781 3578 2966 2584 
z
" transform="scale(0.015625)"/>
     </defs>
     <use xlink:href="#DejaVuSans-45"/>
     <use xlink:href="#DejaVuSans-66" transform="translate(63.183594 0)"/>
     <use xlink:href="#DejaVuSans-66" transform="translate(98.388672 0)"/>
     <use xlink:href="#DejaVuSans-65" transform="translate(133.59375 0)"/>
     <use xlink:href="#DejaVuSans-6b" transform="translate(195.117188 0)"/>
     <use xlink:href="#DejaVuSans-74" transform="translate(253.027344 0)"/>
     <use xlink:href="#DejaVuSans-69" transform="translate(292.236328 0)"/>
     <use xlink:href="#DejaVuSans-76" transform="translate(320.019531 0)"/>
     <use xlink:href="#DejaVuSans-65" transform="translate(379.199219 0)"/>
     <use xlink:href="#DejaVuSans-72" transform="translate(440.722656 0)"/>
     <use xlink:href="#DejaVuSans-20" transform="translate(481.835938 0)"/>
     <use xlink:href="#DejaVuSans-4d" transform="translate(513.623047 0)"/>
     <use xlink:href="#DejaVuSans-6f" transform="translate(599.902344 0)"/>
     <use xlink:href="#DejaVuSans-64" transform="translate(661.083984 0)"/>
     <use xlink:href="#DejaVuSans-75" transform="translate(724.560547 0)"/>
     <use xlink:href="#DejaVuSans-6c" transform="translate(787.939453 0)"/>
     <use xlink:href="#DejaVuSans-20" transform="translate(815.722656 0)"/>
     <use xlink:href="#DejaVuSans-6d" transform="translate(847.509766 0)"/>
     <use xlink:href="#DejaVuSans-69" transform="translate(944.921875 0)"/>
     <use xlink:href="#DejaVuSans-74" transform="translate(972.705078 0)"/>
     <use xlink:href="#DejaVuSans-20" transform="translate(1011.914062 0)"/>
     <use xlink:href="#DejaVuSans-65" transform="translate(1043.701172 0)"/>
     <use xlink:href="#DejaVuSans-6e" transform="translate(1105.224609 0)"/>
     <use xlink:href="#DejaVuSans-74" transform="translate(1168.603516 0)"/>
     <use xlink:href="#DejaVuSans-6c" transform="translate(1207.8125 0)"/>
     <use xlink:href="#DejaVuSans-fc" transform="translate(1235.595703 0)"/>
     <use xlink:href="#DejaVuSans-66" transform="translate(1298.974609 0)"/>
     <use xlink:href="#DejaVuSans-74" transform="translate(1332.429688 0)"/>
     <use xlink:href="#DejaVuSans-65" transform="translate(1371.638672 0)"/>
     <use xlink:href="#DejaVuSans-74" transform="translate(1433.162109 0)"/>
     <use xlink:href="#DejaVuSans-65" transform="translate(1472.371094 0)"/>
     <use xlink:href="#DejaVuSans-6d" transform="translate(1533.894531 0)"/>
     <use xlink:href="#DejaVuSans-20" transform="translate(1631.306641 0)"/>
     <use xlink:href="#DejaVuSans-41" transform="translate(1663.09375 0)"/>
     <use xlink:href="#DejaVuSans-6e" transform="translate(1731.501953 0)"/>
     <use xlink:href="#DejaVuSans-74" transform="translate(1794.880859 0)"/>
     <use xlink:href="#DejaVuSans-65" transform="translate(1834.089844 0)"/>
     <use xlink:href="#DejaVuSans-69" transform="translate(1895.613281 0)"/>
     <use xlink:href="#DejaVuSans-6c" transform="translate(1923.396484 0)"/>
     <use xlink:href="#DejaVuSans-20" transform="translate(1951.179688 0)"/>
     <use xlink:href="#DejaVuSans-3b1" transform="translate(1982.966797 0)"/>
    </g>
   </g>
   <g id="legend_2">
    <g id="patch_13">
     <path d="M 425.564489 139.26875 
L 507.475426 139.26875 
Q 509.475426 139.26875 509.475426 137.26875 
L 509.475426 50.2 
Q 509.475426 48.2 507.475426 48.2 
L 425.564489 48.2 
Q 423.564489 48.2 423.564489 50.2 
L 423.564489 137.26875 
Q 423.564489 139.26875 425.564489 139.26875 
z
" style="fill: #ffffff; opacity: 0.8; stroke: #cccccc; stroke-linejoin: miter"/>
    </g>
    <g id="text_37">
     <!-- Luftgehalt -->
     <g transform="translate(441.187145 59.798437) scale(0.1 -0.1)">
      <defs>
       <path id="DejaVuSans-4c" d="M 628 4666 
L 1259 4666 
L 1259 531 
L 3531 531 
L 3531 0 
L 628 0 
L 628 4666 
z
" transform="scale(0.015625)"/>
       <path id="DejaVuSans-68" d="M 3513 2113 
L 3513 0 
L 2938 0 
L 2938 2094 
Q 2938 2591 2744 2837 
Q 2550 3084 2163 3084 
Q 1697 3084 1428 2787 
Q 1159 2491 1159 1978 
L 1159 0 
L 581 0 
L 581 4863 
L 1159 4863 
L 1159 2956 
Q 1366 3272 1645 3428 
Q 1925 3584 2291 3584 
Q 2894 3584 3203 3211 
Q 3513 2838 3513 2113 
z
" transform="scale(0.015625)"/>
      </defs>
      <use xlink:href="#DejaVuSans-4c"/>
      <use xlink:href="#DejaVuSans-75" transform="translate(53.962891 0)"/>
      <use xlink:href="#DejaVuSans-66" transform="translate(117.341797 0)"/>
      <use xlink:href="#DejaVuSans-74" transform="translate(150.796875 0)"/>
      <use xlink:href="#DejaVuSans-67" transform="translate(190.005859 0)"/>
      <use xlink:href="#DejaVuSans-65" transform="translate(253.482422 0)"/>
      <use xlink:href="#DejaVuSans-68" transform="translate(315.005859 0)"/>
      <use xlink:href="#DejaVuSans-61" transform="translate(378.384766 0)"/>
      <use xlink:href="#DejaVuSans-6c" transform="translate(439.664062 0)"/>
      <use xlink:href="#DejaVuSans-74" transform="translate(467.447266 0)"/>
     </g>
    </g>
    <g id="line2d_66">
     <path d="M 427.564489 70.976562 
L 437.564489 70.976562 
L 447.564489 70.976562 
" style="fill: none; stroke: #5601a4; stroke-width: 2; stroke-linecap: square"/>
    </g>
    <g id="text_38">
     <!-- α = 0.0 % -->
     <g transform="translate(455.564489 74.476562) scale(0.1 -0.1)">
      <defs>
       <path id="DejaVuSans-3d" d="M 678 2906 
L 4684 2906 
L 4684 2381 
L 678 2381 
L 678 2906 
z
M 678 1631 
L 4684 1631 
L 4684 1100 
L 678 1100 
L 678 1631 
z
" transform="scale(0.015625)"/>
       <path id="DejaVuSans-25" d="M 4653 2053 
Q 4381 2053 4226 1822 
Q 4072 1591 4072 1178 
Q 4072 772 4226 539 
Q 4381 306 4653 306 
Q 4919 306 5073 539 
Q 5228 772 5228 1178 
Q 5228 1588 5073 1820 
Q 4919 2053 4653 2053 
z
M 4653 2450 
Q 5147 2450 5437 2106 
Q 5728 1763 5728 1178 
Q 5728 594 5436 251 
Q 5144 -91 4653 -91 
Q 4153 -91 3862 251 
Q 3572 594 3572 1178 
Q 3572 1766 3864 2108 
Q 4156 2450 4653 2450 
z
M 1428 4353 
Q 1159 4353 1004 4120 
Q 850 3888 850 3481 
Q 850 3069 1003 2837 
Q 1156 2606 1428 2606 
Q 1700 2606 1854 2837 
Q 2009 3069 2009 3481 
Q 2009 3884 1853 4118 
Q 1697 4353 1428 4353 
z
M 4250 4750 
L 4750 4750 
L 1831 -91 
L 1331 -91 
L 4250 4750 
z
M 1428 4750 
Q 1922 4750 2215 4408 
Q 2509 4066 2509 3481 
Q 2509 2891 2217 2550 
Q 1925 2209 1428 2209 
Q 931 2209 642 2551 
Q 353 2894 353 3481 
Q 353 4063 643 4406 
Q 934 4750 1428 4750 
z
" transform="scale(0.015625)"/>
      </defs>
      <use xlink:href="#DejaVuSans-3b1"/>
      <use xlink:href="#DejaVuSans-20" transform="translate(65.917969 0)"/>
      <use xlink:href="#DejaVuSans-3d" transform="translate(97.705078 0)"/>
      <use xlink:href="#DejaVuSans-20" transform="translate(181.494141 0)"/>
      <use xlink:href="#DejaVuSans-30" transform="translate(213.28125 0)"/>
      <use xlink:href="#DejaVuSans-2e" transform="translate(276.904297 0)"/>
      <use xlink:href="#DejaVuSans-30" transform="translate(308.691406 0)"/>
      <use xlink:href="#DejaVuSans-20" transform="translate(372.314453 0)"/>
      <use xlink:href="#DejaVuSans-25" transform="translate(404.101562 0)"/>
     </g>
    </g>
    <g id="line2d_67">
     <path d="M 427.564489 85.654687 
L 437.564489 85.654687 
L 447.564489 85.654687 
" style="fill: none; stroke: #99159f; stroke-width: 2; stroke-linecap: square"/>
    </g>
    <g id="text_39">
     <!-- α = 0.5 % -->
     <g transform="translate(455.564489 89.154687) scale(0.1 -0.1)">
      <use xlink:href="#DejaVuSans-3b1"/>
      <use xlink:href="#DejaVuSans-20" transform="translate(65.917969 0)"/>
      <use xlink:href="#DejaVuSans-3d" transform="translate(97.705078 0)"/>
      <use xlink:href="#DejaVuSans-20" transform="translate(181.494141 0)"/>
      <use xlink:href="#DejaVuSans-30" transform="translate(213.28125 0)"/>
      <use xlink:href="#DejaVuSans-2e" transform="translate(276.904297 0)"/>
      <use xlink:href="#DejaVuSans-35" transform="translate(308.691406 0)"/>
      <use xlink:href="#DejaVuSans-20" transform="translate(372.314453 0)"/>
      <use xlink:href="#DejaVuSans-25" transform="translate(404.101562 0)"/>
     </g>
    </g>
    <g id="line2d_68">
     <path d="M 427.564489 100.332812 
L 437.564489 100.332812 
L 447.564489 100.332812 
" style="fill: none; stroke: #cc4778; stroke-width: 2; stroke-linecap: square"/>
    </g>
    <g id="text_40">
     <!-- α = 1.0 % -->
     <g transform="translate(455.564489 103.832812) scale(0.1 -0.1)">
      <use xlink:href="#DejaVuSans-3b1"/>
      <use xlink:href="#DejaVuSans-20" transform="translate(65.917969 0)"/>
      <use xlink:href="#DejaVuSans-3d" transform="translate(97.705078 0)"/>
      <use xlink:href="#DejaVuSans-20" transform="translate(181.494141 0)"/>
      <use xlink:href="#DejaVuSans-31" transform="translate(213.28125 0)"/>
      <use xlink:href="#DejaVuSans-2e" transform="translate(276.904297 0)"/>
      <use xlink:href="#DejaVuSans-30" transform="translate(308.691406 0)"/>
      <use xlink:href="#DejaVuSans-20" transform="translate(372.314453 0)"/>
      <use xlink:href="#DejaVuSans-25" transform="translate(404.101562 0)"/>
     </g>
    </g>
    <g id="line2d_69">
     <path d="M 427.564489 115.010937 
L 437.564489 115.010937 
L 447.564489 115.010937 
" style="fill: none; stroke: #ee7b51; stroke-width: 2; stroke-linecap: square"/>
    </g>
    <g id="text_41">
     <!-- α = 2.0 % -->
     <g transform="translate(455.564489 118.510937) scale(0.1 -0.1)">
      <use xlink:href="#DejaVuSans-3b1"/>
      <use xlink:href="#DejaVuSans-20" transform="translate(65.917969 0)"/>
      <use xlink:href="#DejaVuSans-3d" transform="translate(97.705078 0)"/>
      <use xlink:href="#DejaVuSans-20" transform="translate(181.494141 0)"/>
      <use xlink:href="#DejaVuSans-32" transform="translate(213.28125 0)"/>
      <use xlink:href="#DejaVuSans-2e" transform="translate(276.904297 0)"/>
      <use xlink:href="#DejaVuSans-30" transform="translate(308.691406 0)"/>
      <use xlink:href="#DejaVuSans-20" transform="translate(372.314453 0)"/>
      <use xlink:href="#DejaVuSans-25" transform="translate(404.101562 0)"/>
     </g>
    </g>
    <g id="line2d_70">
     <path d="M 427.564489 129.689062 
L 437.564489 129.689062 
L 447.564489 129.689062 
" style="fill: none; stroke: #feba2c; stroke-width: 2; stroke-linecap: square"/>
    </g>
    <g id="text_42">
     <!-- α = 5.0 % -->
     <g transform="translate(455.564489 133.189062) scale(0.1 -0.1)">
      <use xlink:href="#DejaVuSans-3b1"/>
      <use xlink:href="#DejaVuSans-20" transform="translate(65.917969 0)"/>
      <use xlink:href="#DejaVuSans-3d" transform="translate(97.705078 0)"/>
      <use xlink:href="#DejaVuSans-20" transform="translate(181.494141 0)"/>
      <use xlink:href="#DejaVuSans-35" transform="translate(213.28125 0)"/>
      <use xlink:href="#DejaVuSans-2e" transform="translate(276.904297 0)"/>
      <use xlink:href="#DejaVuSans-30" transform="translate(308.691406 0)"/>
      <use xlink:href="#DejaVuSans-20" transform="translate(372.314453 0)"/>
      <use xlink:href="#DejaVuSans-25" transform="translate(404.101562 0)"/>
     </g>
    </g>
   </g>
  </g>
  <g id="text_43">
   <!-- Experiment 1 – Druckabhängiger Kompressionsmodul (Mineralöl VG 46) -->
   <g transform="translate(143.920234 17.077969) scale(0.13 -0.13)">
    <defs>
     <path id="DejaVuSans-78" d="M 3513 3500 
L 2247 1797 
L 3578 0 
L 2900 0 
L 1881 1375 
L 863 0 
L 184 0 
L 1544 1831 
L 300 3500 
L 978 3500 
L 1906 2253 
L 2834 3500 
L 3513 3500 
z
" transform="scale(0.015625)"/>
     <path id="DejaVuSans-2013" d="M 313 1978 
L 2888 1978 
L 2888 1528 
L 313 1528 
L 313 1978 
z
" transform="scale(0.015625)"/>
     <path id="DejaVuSans-e4" d="M 2194 1759 
Q 1497 1759 1228 1600 
Q 959 1441 959 1056 
Q 959 750 1161 570 
Q 1363 391 1709 391 
Q 2188 391 2477 730 
Q 2766 1069 2766 1631 
L 2766 1759 
L 2194 1759 
z
M 3341 1997 
L 3341 0 
L 2766 0 
L 2766 531 
Q 2569 213 2275 61 
Q 1981 -91 1556 -91 
Q 1019 -91 701 211 
Q 384 513 384 1019 
Q 384 1609 779 1909 
Q 1175 2209 1959 2209 
L 2766 2209 
L 2766 2266 
Q 2766 2663 2505 2880 
Q 2244 3097 1772 3097 
Q 1472 3097 1187 3025 
Q 903 2953 641 2809 
L 641 3341 
Q 956 3463 1253 3523 
Q 1550 3584 1831 3584 
Q 2591 3584 2966 3190 
Q 3341 2797 3341 1997 
z
M 2150 4850 
L 2784 4850 
L 2784 4219 
L 2150 4219 
L 2150 4850 
z
M 928 4850 
L 1562 4850 
L 1562 4219 
L 928 4219 
L 928 4850 
z
" transform="scale(0.015625)"/>
     <path id="DejaVuSans-f6" d="M 1959 3097 
Q 1497 3097 1228 2736 
Q 959 2375 959 1747 
Q 959 1119 1226 758 
Q 1494 397 1959 397 
Q 2419 397 2687 759 
Q 2956 1122 2956 1747 
Q 2956 2369 2687 2733 
Q 2419 3097 1959 3097 
z
M 1959 3584 
Q 2709 3584 3137 3096 
Q 3566 2609 3566 1747 
Q 3566 888 3137 398 
Q 2709 -91 1959 -91 
Q 1206 -91 779 398 
Q 353 888 353 1747 
Q 353 2609 779 3096 
Q 1206 3584 1959 3584 
z
M 2254 4850 
L 2888 4850 
L 2888 4219 
L 2254 4219 
L 2254 4850 
z
M 1032 4850 
L 1666 4850 
L 1666 4219 
L 1032 4219 
L 1032 4850 
z
" transform="scale(0.015625)"/>
     <path id="DejaVuSans-56" d="M 1831 0 
L 50 4666 
L 709 4666 
L 2188 738 
L 3669 4666 
L 4325 4666 
L 2547 0 
L 1831 0 
z
" transform="scale(0.015625)"/>
    </defs>
    <use xlink:href="#DejaVuSans-45"/>
    <use xlink:href="#DejaVuSans-78" transform="translate(63.183594 0)"/>
    <use xlink:href="#DejaVuSans-70" transform="translate(122.363281 0)"/>
    <use xlink:href="#DejaVuSans-65" transform="translate(185.839844 0)"/>
    <use xlink:href="#DejaVuSans-72" transform="translate(247.363281 0)"/>
    <use xlink:href="#DejaVuSans-69" transform="translate(288.476562 0)"/>
    <use xlink:href="#DejaVuSans-6d" transform="translate(316.259766 0)"/>
    <use xlink:href="#DejaVuSans-65" transform="translate(413.671875 0)"/>
    <use xlink:href="#DejaVuSans-6e" transform="translate(475.195312 0)"/>
    <use xlink:href="#DejaVuSans-74" transform="translate(538.574219 0)"/>
    <use xlink:href="#DejaVuSans-20" transform="translate(577.783203 0)"/>
    <use xlink:href="#DejaVuSans-31" transform="translate(609.570312 0)"/>
    <use xlink:href="#DejaVuSans-20" transform="translate(673.193359 0)"/>
    <use xlink:href="#DejaVuSans-2013" transform="translate(704.980469 0)"/>
    <use xlink:href="#DejaVuSans-20" transform="translate(754.980469 0)"/>
    <use xlink:href="#DejaVuSans-44" transform="translate(786.767578 0)"/>
    <use xlink:href="#DejaVuSans-72" transform="translate(863.769531 0)"/>
    <use xlink:href="#DejaVuSans-75" transform="translate(904.882812 0)"/>
    <use xlink:href="#DejaVuSans-63" transform="translate(968.261719 0)"/>
    <use xlink:href="#DejaVuSans-6b" transform="translate(1023.242188 0)"/>
    <use xlink:href="#DejaVuSans-61" transform="translate(1079.402344 0)"/>
    <use xlink:href="#DejaVuSans-62" transform="translate(1140.681641 0)"/>
    <use xlink:href="#DejaVuSans-68" transform="translate(1204.158203 0)"/>
    <use xlink:href="#DejaVuSans-e4" transform="translate(1267.537109 0)"/>
    <use xlink:href="#DejaVuSans-6e" transform="translate(1328.816406 0)"/>
    <use xlink:href="#DejaVuSans-67" transform="translate(1392.195312 0)"/>
    <use xlink:href="#DejaVuSans-69" transform="translate(1455.671875 0)"/>
    <use xlink:href="#DejaVuSans-67" transform="translate(1483.455078 0)"/>
    <use xlink:href="#DejaVuSans-65" transform="translate(1546.931641 0)"/>
    <use xlink:href="#DejaVuSans-72" transform="translate(1608.455078 0)"/>
    <use xlink:href="#DejaVuSans-20" transform="translate(1649.568359 0)"/>
    <use xlink:href="#DejaVuSans-4b" transform="translate(1681.355469 0)"/>
    <use xlink:href="#DejaVuSans-6f" transform="translate(1741.931641 0)"/>
    <use xlink:href="#DejaVuSans-6d" transform="translate(1803.113281 0)"/>
    <use xlink:href="#DejaVuSans-70" transform="translate(1900.525391 0)"/>
    <use xlink:href="#DejaVuSans-72" transform="translate(1964.001953 0)"/>
    <use xlink:href="#DejaVuSans-65" transform="translate(2002.865234 0)"/>
    <use xlink:href="#DejaVuSans-73" transform="translate(2064.388672 0)"/>
    <use xlink:href="#DejaVuSans-73" transform="translate(2116.488281 0)"/>
    <use xlink:href="#DejaVuSans-69" transform="translate(2168.587891 0)"/>
    <use xlink:href="#DejaVuSans-6f" transform="translate(2196.371094 0)"/>
    <use xlink:href="#DejaVuSans-6e" transform="translate(2257.552734 0)"/>
    <use xlink:href="#DejaVuSans-73" transform="translate(2320.931641 0)"/>
    <use xlink:href="#DejaVuSans-6d" transform="translate(2373.03125 0)"/>
    <use xlink:href="#DejaVuSans-6f" transform="translate(2470.443359 0)"/>
    <use xlink:href="#DejaVuSans-64" transform="translate(2531.625 0)"/>
    <use xlink:href="#DejaVuSans-75" transform="translate(2595.101562 0)"/>
    <use xlink:href="#DejaVuSans-6c" transform="translate(2658.480469 0)"/>
    <use xlink:href="#DejaVuSans-20" transform="translate(2686.263672 0)"/>
    <use xlink:href="#DejaVuSans-28" transform="translate(2718.050781 0)"/>
    <use xlink:href="#DejaVuSans-4d" transform="translate(2757.064453 0)"/>
    <use xlink:href="#DejaVuSans-69" transform="translate(2843.34375 0)"/>
    <use xlink:href="#DejaVuSans-6e" transform="translate(2871.126953 0)"/>
    <use xlink:href="#DejaVuSans-65" transform="translate(2934.505859 0)"/>
    <use xlink:href="#DejaVuSans-72" transform="translate(2996.029297 0)"/>
    <use xlink:href="#DejaVuSans-61" transform="translate(3037.142578 0)"/>
    <use xlink:href="#DejaVuSans-6c" transform="translate(3098.421875 0)"/>
    <use xlink:href="#DejaVuSans-f6" transform="translate(3126.205078 0)"/>
    <use xlink:href="#DejaVuSans-6c" transform="translate(3187.386719 0)"/>
    <use xlink:href="#DejaVuSans-20" transform="translate(3215.169922 0)"/>
    <use xlink:href="#DejaVuSans-56" transform="translate(3246.957031 0)"/>
    <use xlink:href="#DejaVuSans-47" transform="translate(3315.365234 0)"/>
    <use xlink:href="#DejaVuSans-20" transform="translate(3392.855469 0)"/>
    <use xlink:href="#DejaVuSans-34" transform="translate(3424.642578 0)"/>
    <use xlink:href="#DejaVuSans-36" transform="translate(3488.265625 0)"/>
    <use xlink:href="#DejaVuSans-29" transform="translate(3551.888672 0)"/>
   </g>
  </g>
 </g>
 <defs>
  <clipPath id="p4ef3b3ba4e">
   <rect x="53.328125" y="43.2" width="304.363636" height="277.2"/>
  </clipPath>
  <clipPath id="p7fb8b6556c">
   <rect x="418.564489" y="43.2" width="304.363636" height="277.2"/>
  </clipPath>
 </defs>
</svg>
