<?xml version="1.0" encoding="utf-8" standalone="no"?>
<!DOCTYPE svg PUBLIC "-//W3C//DTD SVG 1.1//EN"
  "http://www.w3.org/Graphics/SVG/1.1/DTD/svg11.dtd">
<svg xmlns:xlink="http://www.w3.org/1999/xlink" width="773.48125pt" height="358.234375pt" viewBox="0 0 773.48125 358.234375" xmlns="http://www.w3.org/2000/svg" version="1.1">
 <metadata>
  <rdf:RDF xmlns:dc="http://purl.org/dc/elements/1.1/" xmlns:cc="http://creativecommons.org/ns#" xmlns:rdf="http://www.w3.org/1999/02/22-rdf-syntax-ns#">
   <cc:Work>
    <dc:type rdf:resource="http://purl.org/dc/dcmitype/StillImage"/>
    <dc:date>2026-03-02T09:31:42.141214</dc:date>
    <dc:format>image/svg+xml</dc:format>
    <dc:creator>
     <cc:Agent>
      <dc:title>Matplotlib v3.10.8, https://matplotlib.org/</dc:title>
     </cc:Agent>
    </dc:creator>
   </cc:Work>
  </rdf:RDF>
 </metadata>
 <defs>
  <style type="text/css">*{stroke-linejoin: round; stroke-linecap: butt}</style>
 </defs>
 <g id="figure_1">
  <g id="patch_1">
   <path d="M 0 358.234375 
L 773.48125 358.234375 
L 773.48125 0 
L 0 0 
z
" style="fill: #ffffff"/>
  </g>
  <g id="axes_1">
   <g id="patch_2">
    <path d="M 40.88125 320.4 
L 370.608523 320.4 
L 370.608523 43.2 
L 40.88125 43.2 
z
" style="fill: #ffffff"/>
   </g>
   <g id="matplotlib.axis_1">
    <g id="xtick_1">
     <g id="line2d_1">
      <path d="M 67.353607 320.4 
L 67.353607 43.2 
" clip-path="url(#p7a6edbd1f4)" style="fill: none; stroke: #b0b0b0; stroke-opacity: 0.3; stroke-width: 0.8; stroke-linecap: square"/>
     </g>
     <g id="line2d_2">
      <defs>
       <path id="m9db5da9bba" d="M 0 0 
L 0 3.5 
" style="stroke: #000000; stroke-width: 0.8"/>
      </defs>
      <g>
       <use xlink:href="#m9db5da9bba" x="67.353607" y="320.4" style="stroke: #000000; stroke-width: 0.8"/>
      </g>
     </g>
     <g id="text_1">
      <!-- 500 -->
      <g transform="translate(57.809857 334.998437) scale(0.1 -0.1)">
       <defs>
        <path id="DejaVuSans-35" d="M 691 4666 
L 3169 4666 
L 3169 4134 
L 1269 4134 
L 1269 2991 
Q 1406 3038 1543 3061 
Q 1681 3084 1819 3084 
Q 2600 3084 3056 2656 
Q 3513 2228 3513 1497 
Q 3513 744 3044 326 
Q 2575 -91 1722 -91 
Q 1428 -91 1123 -41 
Q 819 9 494 109 
L 494 744 
Q 775 591 1075 516 
Q 1375 441 1709 441 
Q 2250 441 2565 725 
Q 2881 1009 2881 1497 
Q 2881 1984 2565 2268 
Q 2250 2553 1709 2553 
Q 1456 2553 1204 2497 
Q 953 2441 691 2322 
L 691 4666 
z
" transform="scale(0.015625)"/>
        <path id="DejaVuSans-30" d="M 2034 4250 
Q 1547 4250 1301 3770 
Q 1056 3291 1056 2328 
Q 1056 1369 1301 889 
Q 1547 409 2034 409 
Q 2525 409 2770 889 
Q 3016 1369 3016 2328 
Q 3016 3291 2770 3770 
Q 2525 4250 2034 4250 
z
M 2034 4750 
Q 2819 4750 3233 4129 
Q 3647 3509 3647 2328 
Q 3647 1150 3233 529 
Q 2819 -91 2034 -91 
Q 1250 -91 836 529 
Q 422 1150 422 2328 
Q 422 3509 836 4129 
Q 1250 4750 2034 4750 
z
" transform="scale(0.015625)"/>
       </defs>
       <use xlink:href="#DejaVuSans-35"/>
       <use xlink:href="#DejaVuSans-30" transform="translate(63.623047 0)"/>
       <use xlink:href="#DejaVuSans-30" transform="translate(127.246094 0)"/>
      </g>
     </g>
    </g>
    <g id="xtick_2">
     <g id="line2d_3">
      <path d="M 124.777374 320.4 
L 124.777374 43.2 
" clip-path="url(#p7a6edbd1f4)" style="fill: none; stroke: #b0b0b0; stroke-opacity: 0.3; stroke-width: 0.8; stroke-linecap: square"/>
     </g>
     <g id="line2d_4">
      <g>
       <use xlink:href="#m9db5da9bba" x="124.777374" y="320.4" style="stroke: #000000; stroke-width: 0.8"/>
      </g>
     </g>
     <g id="text_2">
      <!-- 1000 -->
      <g transform="translate(112.052374 334.998437) scale(0.1 -0.1)">
       <defs>
        <path id="DejaVuSans-31" d="M 794 531 
L 1825 531 
L 1825 4091 
L 703 3866 
L 703 4441 
L 1819 4666 
L 2450 4666 
L 2450 531 
L 3481 531 
L 3481 0 
L 794 0 
L 794 531 
z
" transform="scale(0.015625)"/>
       </defs>
       <use xlink:href="#DejaVuSans-31"/>
       <use xlink:href="#DejaVuSans-30" transform="translate(63.623047 0)"/>
       <use xlink:href="#DejaVuSans-30" transform="translate(127.246094 0)"/>
       <use xlink:href="#DejaVuSans-30" transform="translate(190.869141 0)"/>
      </g>
     </g>
    </g>
    <g id="xtick_3">
     <g id="line2d_5">
      <path d="M 182.201142 320.4 
L 182.201142 43.2 
" clip-path="url(#p7a6edbd1f4)" style="fill: none; stroke: #b0b0b0; stroke-opacity: 0.3; stroke-width: 0.8; stroke-linecap: square"/>
     </g>
     <g id="line2d_6">
      <g>
       <use xlink:href="#m9db5da9bba" x="182.201142" y="320.4" style="stroke: #000000; stroke-width: 0.8"/>
      </g>
     </g>
     <g id="text_3">
      <!-- 1500 -->
      <g transform="translate(169.476142 334.998437) scale(0.1 -0.1)">
       <use xlink:href="#DejaVuSans-31"/>
       <use xlink:href="#DejaVuSans-35" transform="translate(63.623047 0)"/>
       <use xlink:href="#DejaVuSans-30" transform="translate(127.246094 0)"/>
       <use xlink:href="#DejaVuSans-30" transform="translate(190.869141 0)"/>
      </g>
     </g>
    </g>
    <g id="xtick_4">
     <g id="line2d_7">
      <path d="M 239.624909 320.4 
L 239.624909 43.2 
" clip-path="url(#p7a6edbd1f4)" style="fill: none; stroke: #b0b0b0; stroke-opacity: 0.3; stroke-width: 0.8; stroke-linecap: square"/>
     </g>
     <g id="line2d_8">
      <g>
       <use xlink:href="#m9db5da9bba" x="239.624909" y="320.4" style="stroke: #000000; stroke-width: 0.8"/>
      </g>
     </g>
     <g id="text_4">
      <!-- 2000 -->
      <g transform="translate(226.899909 334.998437) scale(0.1 -0.1)">
       <defs>
        <path id="DejaVuSans-32" d="M 1228 531 
L 3431 531 
L 3431 0 
L 469 0 
L 469 531 
Q 828 903 1448 1529 
Q 2069 2156 2228 2338 
Q 2531 2678 2651 2914 
Q 2772 3150 2772 3378 
Q 2772 3750 2511 3984 
Q 2250 4219 1831 4219 
Q 1534 4219 1204 4116 
Q 875 4013 500 3803 
L 500 4441 
Q 881 4594 1212 4672 
Q 1544 4750 1819 4750 
Q 2544 4750 2975 4387 
Q 3406 4025 3406 3419 
Q 3406 3131 3298 2873 
Q 3191 2616 2906 2266 
Q 2828 2175 2409 1742 
Q 1991 1309 1228 531 
z
" transform="scale(0.015625)"/>
       </defs>
       <use xlink:href="#DejaVuSans-32"/>
       <use xlink:href="#DejaVuSans-30" transform="translate(63.623047 0)"/>
       <use xlink:href="#DejaVuSans-30" transform="translate(127.246094 0)"/>
       <use xlink:href="#DejaVuSans-30" transform="translate(190.869141 0)"/>
      </g>
     </g>
    </g>
    <g id="xtick_5">
     <g id="line2d_9">
      <path d="M 297.048677 320.4 
L 297.048677 43.2 
" clip-path="url(#p7a6edbd1f4)" style="fill: none; stroke: #b0b0b0; stroke-opacity: 0.3; stroke-width: 0.8; stroke-linecap: square"/>
     </g>
     <g id="line2d_10">
      <g>
       <use xlink:href="#m9db5da9bba" x="297.048677" y="320.4" style="stroke: #000000; stroke-width: 0.8"/>
      </g>
     </g>
     <g id="text_5">
      <!-- 2500 -->
      <g transform="translate(284.323677 334.998437) scale(0.1 -0.1)">
       <use xlink:href="#DejaVuSans-32"/>
       <use xlink:href="#DejaVuSans-35" transform="translate(63.623047 0)"/>
       <use xlink:href="#DejaVuSans-30" transform="translate(127.246094 0)"/>
       <use xlink:href="#DejaVuSans-30" transform="translate(190.869141 0)"/>
      </g>
     </g>
    </g>
    <g id="xtick_6">
     <g id="line2d_11">
      <path d="M 354.472444 320.4 
L 354.472444 43.2 
" clip-path="url(#p7a6edbd1f4)" style="fill: none; stroke: #b0b0b0; stroke-opacity: 0.3; stroke-width: 0.8; stroke-linecap: square"/>
     </g>
     <g id="line2d_12">
      <g>
       <use xlink:href="#m9db5da9bba" x="354.472444" y="320.4" style="stroke: #000000; stroke-width: 0.8"/>
      </g>
     </g>
     <g id="text_6">
      <!-- 3000 -->
      <g transform="translate(341.747444 334.998437) scale(0.1 -0.1)">
       <defs>
        <path id="DejaVuSans-33" d="M 2597 2516 
Q 3050 2419 3304 2112 
Q 3559 1806 3559 1356 
Q 3559 666 3084 287 
Q 2609 -91 1734 -91 
Q 1441 -91 1130 -33 
Q 819 25 488 141 
L 488 750 
Q 750 597 1062 519 
Q 1375 441 1716 441 
Q 2309 441 2620 675 
Q 2931 909 2931 1356 
Q 2931 1769 2642 2001 
Q 2353 2234 1838 2234 
L 1294 2234 
L 1294 2753 
L 1863 2753 
Q 2328 2753 2575 2939 
Q 2822 3125 2822 3475 
Q 2822 3834 2567 4026 
Q 2313 4219 1838 4219 
Q 1578 4219 1281 4162 
Q 984 4106 628 3988 
L 628 4550 
Q 988 4650 1302 4700 
Q 1616 4750 1894 4750 
Q 2613 4750 3031 4423 
Q 3450 4097 3450 3541 
Q 3450 3153 3228 2886 
Q 3006 2619 2597 2516 
z
" transform="scale(0.015625)"/>
       </defs>
       <use xlink:href="#DejaVuSans-33"/>
       <use xlink:href="#DejaVuSans-30" transform="translate(63.623047 0)"/>
       <use xlink:href="#DejaVuSans-30" transform="translate(127.246094 0)"/>
       <use xlink:href="#DejaVuSans-30" transform="translate(190.869141 0)"/>
      </g>
     </g>
    </g>
    <g id="text_7">
     <!-- K_eff [MPa] -->
     <g transform="translate(177.710511 348.676562) scale(0.1 -0.1)">
      <defs>
       <path id="DejaVuSans-4b" d="M 628 4666 
L 1259 4666 
L 1259 2694 
L 3353 4666 
L 4166 4666 
L 1850 2491 
L 4331 0 
L 3500 0 
L 1259 2247 
L 1259 0 
L 628 0 
L 628 4666 
z
" transform="scale(0.015625)"/>
       <path id="DejaVuSans-5f" d="M 3263 -1063 
L 3263 -1509 
L -63 -1509 
L -63 -1063 
L 3263 -1063 
z
" transform="scale(0.015625)"/>
       <path id="DejaVuSans-65" d="M 3597 1894 
L 3597 1613 
L 953 1613 
Q 991 1019 1311 708 
Q 1631 397 2203 397 
Q 2534 397 2845 478 
Q 3156 559 3463 722 
L 3463 178 
Q 3153 47 2828 -22 
Q 2503 -91 2169 -91 
Q 1331 -91 842 396 
Q 353 884 353 1716 
Q 353 2575 817 3079 
Q 1281 3584 2069 3584 
Q 2775 3584 3186 3129 
Q 3597 2675 3597 1894 
z
M 3022 2063 
Q 3016 2534 2758 2815 
Q 2500 3097 2075 3097 
Q 1594 3097 1305 2825 
Q 1016 2553 972 2059 
L 3022 2063 
z
" transform="scale(0.015625)"/>
       <path id="DejaVuSans-66" d="M 2375 4863 
L 2375 4384 
L 1825 4384 
Q 1516 4384 1395 4259 
Q 1275 4134 1275 3809 
L 1275 3500 
L 2222 3500 
L 2222 3053 
L 1275 3053 
L 1275 0 
L 697 0 
L 697 3053 
L 147 3053 
L 147 3500 
L 697 3500 
L 697 3744 
Q 697 4328 969 4595 
Q 1241 4863 1831 4863 
L 2375 4863 
z
" transform="scale(0.015625)"/>
       <path id="DejaVuSans-20" transform="scale(0.015625)"/>
       <path id="DejaVuSans-5b" d="M 550 4863 
L 1875 4863 
L 1875 4416 
L 1125 4416 
L 1125 -397 
L 1875 -397 
L 1875 -844 
L 550 -844 
L 550 4863 
z
" transform="scale(0.015625)"/>
       <path id="DejaVuSans-4d" d="M 628 4666 
L 1569 4666 
L 2759 1491 
L 3956 4666 
L 4897 4666 
L 4897 0 
L 4281 0 
L 4281 4097 
L 3078 897 
L 2444 897 
L 1241 4097 
L 1241 0 
L 628 0 
L 628 4666 
z
" transform="scale(0.015625)"/>
       <path id="DejaVuSans-50" d="M 1259 4147 
L 1259 2394 
L 2053 2394 
Q 2494 2394 2734 2622 
Q 2975 2850 2975 3272 
Q 2975 3691 2734 3919 
Q 2494 4147 2053 4147 
L 1259 4147 
z
M 628 4666 
L 2053 4666 
Q 2838 4666 3239 4311 
Q 3641 3956 3641 3272 
Q 3641 2581 3239 2228 
Q 2838 1875 2053 1875 
L 1259 1875 
L 1259 0 
L 628 0 
L 628 4666 
z
" transform="scale(0.015625)"/>
       <path id="DejaVuSans-61" d="M 2194 1759 
Q 1497 1759 1228 1600 
Q 959 1441 959 1056 
Q 959 750 1161 570 
Q 1363 391 1709 391 
Q 2188 391 2477 730 
Q 2766 1069 2766 1631 
L 2766 1759 
L 2194 1759 
z
M 3341 1997 
L 3341 0 
L 2766 0 
L 2766 531 
Q 2569 213 2275 61 
Q 1981 -91 1556 -91 
Q 1019 -91 701 211 
Q 384 513 384 1019 
Q 384 1609 779 1909 
Q 1175 2209 1959 2209 
L 2766 2209 
L 2766 2266 
Q 2766 2663 2505 2880 
Q 2244 3097 1772 3097 
Q 1472 3097 1187 3025 
Q 903 2953 641 2809 
L 641 3341 
Q 956 3463 1253 3523 
Q 1550 3584 1831 3584 
Q 2591 3584 2966 3190 
Q 3341 2797 3341 1997 
z
" transform="scale(0.015625)"/>
       <path id="DejaVuSans-5d" d="M 1947 4863 
L 1947 -844 
L 622 -844 
L 622 -397 
L 1369 -397 
L 1369 4416 
L 622 4416 
L 622 4863 
L 1947 4863 
z
" transform="scale(0.015625)"/>
      </defs>
      <use xlink:href="#DejaVuSans-4b"/>
      <use xlink:href="#DejaVuSans-5f" transform="translate(65.576172 0)"/>
      <use xlink:href="#DejaVuSans-65" transform="translate(115.576172 0)"/>
      <use xlink:href="#DejaVuSans-66" transform="translate(177.099609 0)"/>
      <use xlink:href="#DejaVuSans-66" transform="translate(212.304688 0)"/>
      <use xlink:href="#DejaVuSans-20" transform="translate(247.509766 0)"/>
      <use xlink:href="#DejaVuSans-5b" transform="translate(279.296875 0)"/>
      <use xlink:href="#DejaVuSans-4d" transform="translate(318.310547 0)"/>
      <use xlink:href="#DejaVuSans-50" transform="translate(404.589844 0)"/>
      <use xlink:href="#DejaVuSans-61" transform="translate(460.392578 0)"/>
      <use xlink:href="#DejaVuSans-5d" transform="translate(521.671875 0)"/>
     </g>
    </g>
   </g>
   <g id="matplotlib.axis_2">
    <g id="ytick_1">
     <g id="line2d_13">
      <path d="M 40.88125 316.115636 
L 370.608523 316.115636 
" clip-path="url(#p7a6edbd1f4)" style="fill: none; stroke: #b0b0b0; stroke-opacity: 0.3; stroke-width: 0.8; stroke-linecap: square"/>
     </g>
     <g id="line2d_14">
      <defs>
       <path id="mf69bc1bef9" d="M 0 0 
L -3.5 0 
" style="stroke: #000000; stroke-width: 0.8"/>
      </defs>
      <g>
       <use xlink:href="#mf69bc1bef9" x="40.88125" y="316.115636" style="stroke: #000000; stroke-width: 0.8"/>
      </g>
     </g>
     <g id="text_8">
      <!-- 6 -->
      <g transform="translate(27.51875 319.914855) scale(0.1 -0.1)">
       <defs>
        <path id="DejaVuSans-36" d="M 2113 2584 
Q 1688 2584 1439 2293 
Q 1191 2003 1191 1497 
Q 1191 994 1439 701 
Q 1688 409 2113 409 
Q 2538 409 2786 701 
Q 3034 994 3034 1497 
Q 3034 2003 2786 2293 
Q 2538 2584 2113 2584 
z
M 3366 4563 
L 3366 3988 
Q 3128 4100 2886 4159 
Q 2644 4219 2406 4219 
Q 1781 4219 1451 3797 
Q 1122 3375 1075 2522 
Q 1259 2794 1537 2939 
Q 1816 3084 2150 3084 
Q 2853 3084 3261 2657 
Q 3669 2231 3669 1497 
Q 3669 778 3244 343 
Q 2819 -91 2113 -91 
Q 1303 -91 875 529 
Q 447 1150 447 2328 
Q 447 3434 972 4092 
Q 1497 4750 2381 4750 
Q 2619 4750 2861 4703 
Q 3103 4656 3366 4563 
z
" transform="scale(0.015625)"/>
       </defs>
       <use xlink:href="#DejaVuSans-36"/>
      </g>
     </g>
    </g>
    <g id="ytick_2">
     <g id="line2d_15">
      <path d="M 40.88125 270.699536 
L 370.608523 270.699536 
" clip-path="url(#p7a6edbd1f4)" style="fill: none; stroke: #b0b0b0; stroke-opacity: 0.3; stroke-width: 0.8; stroke-linecap: square"/>
     </g>
     <g id="line2d_16">
      <g>
       <use xlink:href="#mf69bc1bef9" x="40.88125" y="270.699536" style="stroke: #000000; stroke-width: 0.8"/>
      </g>
     </g>
     <g id="text_9">
      <!-- 8 -->
      <g transform="translate(27.51875 274.498755) scale(0.1 -0.1)">
       <defs>
        <path id="DejaVuSans-38" d="M 2034 2216 
Q 1584 2216 1326 1975 
Q 1069 1734 1069 1313 
Q 1069 891 1326 650 
Q 1584 409 2034 409 
Q 2484 409 2743 651 
Q 3003 894 3003 1313 
Q 3003 1734 2745 1975 
Q 2488 2216 2034 2216 
z
M 1403 2484 
Q 997 2584 770 2862 
Q 544 3141 544 3541 
Q 544 4100 942 4425 
Q 1341 4750 2034 4750 
Q 2731 4750 3128 4425 
Q 3525 4100 3525 3541 
Q 3525 3141 3298 2862 
Q 3072 2584 2669 2484 
Q 3125 2378 3379 2068 
Q 3634 1759 3634 1313 
Q 3634 634 3220 271 
Q 2806 -91 2034 -91 
Q 1263 -91 848 271 
Q 434 634 434 1313 
Q 434 1759 690 2068 
Q 947 2378 1403 2484 
z
M 1172 3481 
Q 1172 3119 1398 2916 
Q 1625 2713 2034 2713 
Q 2441 2713 2670 2916 
Q 2900 3119 2900 3481 
Q 2900 3844 2670 4047 
Q 2441 4250 2034 4250 
Q 1625 4250 1398 4047 
Q 1172 3844 1172 3481 
z
" transform="scale(0.015625)"/>
       </defs>
       <use xlink:href="#DejaVuSans-38"/>
      </g>
     </g>
    </g>
    <g id="ytick_3">
     <g id="line2d_17">
      <path d="M 40.88125 225.283436 
L 370.608523 225.283436 
" clip-path="url(#p7a6edbd1f4)" style="fill: none; stroke: #b0b0b0; stroke-opacity: 0.3; stroke-width: 0.8; stroke-linecap: square"/>
     </g>
     <g id="line2d_18">
      <g>
       <use xlink:href="#mf69bc1bef9" x="40.88125" y="225.283436" style="stroke: #000000; stroke-width: 0.8"/>
      </g>
     </g>
     <g id="text_10">
      <!-- 10 -->
      <g transform="translate(21.15625 229.082655) scale(0.1 -0.1)">
       <use xlink:href="#DejaVuSans-31"/>
       <use xlink:href="#DejaVuSans-30" transform="translate(63.623047 0)"/>
      </g>
     </g>
    </g>
    <g id="ytick_4">
     <g id="line2d_19">
      <path d="M 40.88125 179.867336 
L 370.608523 179.867336 
" clip-path="url(#p7a6edbd1f4)" style="fill: none; stroke: #b0b0b0; stroke-opacity: 0.3; stroke-width: 0.8; stroke-linecap: square"/>
     </g>
     <g id="line2d_20">
      <g>
       <use xlink:href="#mf69bc1bef9" x="40.88125" y="179.867336" style="stroke: #000000; stroke-width: 0.8"/>
      </g>
     </g>
     <g id="text_11">
      <!-- 12 -->
      <g transform="translate(21.15625 183.666555) scale(0.1 -0.1)">
       <use xlink:href="#DejaVuSans-31"/>
       <use xlink:href="#DejaVuSans-32" transform="translate(63.623047 0)"/>
      </g>
     </g>
    </g>
    <g id="ytick_5">
     <g id="line2d_21">
      <path d="M 40.88125 134.451236 
L 370.608523 134.451236 
" clip-path="url(#p7a6edbd1f4)" style="fill: none; stroke: #b0b0b0; stroke-opacity: 0.3; stroke-width: 0.8; stroke-linecap: square"/>
     </g>
     <g id="line2d_22">
      <g>
       <use xlink:href="#mf69bc1bef9" x="40.88125" y="134.451236" style="stroke: #000000; stroke-width: 0.8"/>
      </g>
     </g>
     <g id="text_12">
      <!-- 14 -->
      <g transform="translate(21.15625 138.250455) scale(0.1 -0.1)">
       <defs>
        <path id="DejaVuSans-34" d="M 2419 4116 
L 825 1625 
L 2419 1625 
L 2419 4116 
z
M 2253 4666 
L 3047 4666 
L 3047 1625 
L 3713 1625 
L 3713 1100 
L 3047 1100 
L 3047 0 
L 2419 0 
L 2419 1100 
L 313 1100 
L 313 1709 
L 2253 4666 
z
" transform="scale(0.015625)"/>
       </defs>
       <use xlink:href="#DejaVuSans-31"/>
       <use xlink:href="#DejaVuSans-34" transform="translate(63.623047 0)"/>
      </g>
     </g>
    </g>
    <g id="ytick_6">
     <g id="line2d_23">
      <path d="M 40.88125 89.035136 
L 370.608523 89.035136 
" clip-path="url(#p7a6edbd1f4)" style="fill: none; stroke: #b0b0b0; stroke-opacity: 0.3; stroke-width: 0.8; stroke-linecap: square"/>
     </g>
     <g id="line2d_24">
      <g>
       <use xlink:href="#mf69bc1bef9" x="40.88125" y="89.035136" style="stroke: #000000; stroke-width: 0.8"/>
      </g>
     </g>
     <g id="text_13">
      <!-- 16 -->
      <g transform="translate(21.15625 92.834355) scale(0.1 -0.1)">
       <use xlink:href="#DejaVuSans-31"/>
       <use xlink:href="#DejaVuSans-36" transform="translate(63.623047 0)"/>
      </g>
     </g>
    </g>
    <g id="ytick_7">
     <g id="line2d_25">
      <path d="M 40.88125 43.619036 
L 370.608523 43.619036 
" clip-path="url(#p7a6edbd1f4)" style="fill: none; stroke: #b0b0b0; stroke-opacity: 0.3; stroke-width: 0.8; stroke-linecap: square"/>
     </g>
     <g id="line2d_26">
      <g>
       <use xlink:href="#mf69bc1bef9" x="40.88125" y="43.619036" style="stroke: #000000; stroke-width: 0.8"/>
      </g>
     </g>
     <g id="text_14">
      <!-- 18 -->
      <g transform="translate(21.15625 47.418255) scale(0.1 -0.1)">
       <use xlink:href="#DejaVuSans-31"/>
       <use xlink:href="#DejaVuSans-38" transform="translate(63.623047 0)"/>
      </g>
     </g>
    </g>
    <g id="text_15">
     <!-- Eigenfrequenz f_h [Hz] -->
     <g transform="translate(14.798438 238.653125) rotate(-90) scale(0.1 -0.1)">
      <defs>
       <path id="DejaVuSans-45" d="M 628 4666 
L 3578 4666 
L 3578 4134 
L 1259 4134 
L 1259 2753 
L 3481 2753 
L 3481 2222 
L 1259 2222 
L 1259 531 
L 3634 531 
L 3634 0 
L 628 0 
L 628 4666 
z
" transform="scale(0.015625)"/>
       <path id="DejaVuSans-69" d="M 603 3500 
L 1178 3500 
L 1178 0 
L 603 0 
L 603 3500 
z
M 603 4863 
L 1178 4863 
L 1178 4134 
L 603 4134 
L 603 4863 
z
" transform="scale(0.015625)"/>
       <path id="DejaVuSans-67" d="M 2906 1791 
Q 2906 2416 2648 2759 
Q 2391 3103 1925 3103 
Q 1463 3103 1205 2759 
Q 947 2416 947 1791 
Q 947 1169 1205 825 
Q 1463 481 1925 481 
Q 2391 481 2648 825 
Q 2906 1169 2906 1791 
z
M 3481 434 
Q 3481 -459 3084 -895 
Q 2688 -1331 1869 -1331 
Q 1566 -1331 1297 -1286 
Q 1028 -1241 775 -1147 
L 775 -588 
Q 1028 -725 1275 -790 
Q 1522 -856 1778 -856 
Q 2344 -856 2625 -561 
Q 2906 -266 2906 331 
L 2906 616 
Q 2728 306 2450 153 
Q 2172 0 1784 0 
Q 1141 0 747 490 
Q 353 981 353 1791 
Q 353 2603 747 3093 
Q 1141 3584 1784 3584 
Q 2172 3584 2450 3431 
Q 2728 3278 2906 2969 
L 2906 3500 
L 3481 3500 
L 3481 434 
z
" transform="scale(0.015625)"/>
       <path id="DejaVuSans-6e" d="M 3513 2113 
L 3513 0 
L 2938 0 
L 2938 2094 
Q 2938 2591 2744 2837 
Q 2550 3084 2163 3084 
Q 1697 3084 1428 2787 
Q 1159 2491 1159 1978 
L 1159 0 
L 581 0 
L 581 3500 
L 1159 3500 
L 1159 2956 
Q 1366 3272 1645 3428 
Q 1925 3584 2291 3584 
Q 2894 3584 3203 3211 
Q 3513 2838 3513 2113 
z
" transform="scale(0.015625)"/>
       <path id="DejaVuSans-72" d="M 2631 2963 
Q 2534 3019 2420 3045 
Q 2306 3072 2169 3072 
Q 1681 3072 1420 2755 
Q 1159 2438 1159 1844 
L 1159 0 
L 581 0 
L 581 3500 
L 1159 3500 
L 1159 2956 
Q 1341 3275 1631 3429 
Q 1922 3584 2338 3584 
Q 2397 3584 2469 3576 
Q 2541 3569 2628 3553 
L 2631 2963 
z
" transform="scale(0.015625)"/>
       <path id="DejaVuSans-71" d="M 947 1747 
Q 947 1113 1208 752 
Q 1469 391 1925 391 
Q 2381 391 2643 752 
Q 2906 1113 2906 1747 
Q 2906 2381 2643 2742 
Q 2381 3103 1925 3103 
Q 1469 3103 1208 2742 
Q 947 2381 947 1747 
z
M 2906 525 
Q 2725 213 2448 61 
Q 2172 -91 1784 -91 
Q 1150 -91 751 415 
Q 353 922 353 1747 
Q 353 2572 751 3078 
Q 1150 3584 1784 3584 
Q 2172 3584 2448 3432 
Q 2725 3281 2906 2969 
L 2906 3500 
L 3481 3500 
L 3481 -1331 
L 2906 -1331 
L 2906 525 
z
" transform="scale(0.015625)"/>
       <path id="DejaVuSans-75" d="M 544 1381 
L 544 3500 
L 1119 3500 
L 1119 1403 
Q 1119 906 1312 657 
Q 1506 409 1894 409 
Q 2359 409 2629 706 
Q 2900 1003 2900 1516 
L 2900 3500 
L 3475 3500 
L 3475 0 
L 2900 0 
L 2900 538 
Q 2691 219 2414 64 
Q 2138 -91 1772 -91 
Q 1169 -91 856 284 
Q 544 659 544 1381 
z
M 1991 3584 
L 1991 3584 
z
" transform="scale(0.015625)"/>
       <path id="DejaVuSans-7a" d="M 353 3500 
L 3084 3500 
L 3084 2975 
L 922 459 
L 3084 459 
L 3084 0 
L 275 0 
L 275 525 
L 2438 3041 
L 353 3041 
L 353 3500 
z
" transform="scale(0.015625)"/>
       <path id="DejaVuSans-68" d="M 3513 2113 
L 3513 0 
L 2938 0 
L 2938 2094 
Q 2938 2591 2744 2837 
Q 2550 3084 2163 3084 
Q 1697 3084 1428 2787 
Q 1159 2491 1159 1978 
L 1159 0 
L 581 0 
L 581 4863 
L 1159 4863 
L 1159 2956 
Q 1366 3272 1645 3428 
Q 1925 3584 2291 3584 
Q 2894 3584 3203 3211 
Q 3513 2838 3513 2113 
z
" transform="scale(0.015625)"/>
       <path id="DejaVuSans-48" d="M 628 4666 
L 1259 4666 
L 1259 2753 
L 3553 2753 
L 3553 4666 
L 4184 4666 
L 4184 0 
L 3553 0 
L 3553 2222 
L 1259 2222 
L 1259 0 
L 628 0 
L 628 4666 
z
" transform="scale(0.015625)"/>
      </defs>
      <use xlink:href="#DejaVuSans-45"/>
      <use xlink:href="#DejaVuSans-69" transform="translate(63.183594 0)"/>
      <use xlink:href="#DejaVuSans-67" transform="translate(90.966797 0)"/>
      <use xlink:href="#DejaVuSans-65" transform="translate(154.443359 0)"/>
      <use xlink:href="#DejaVuSans-6e" transform="translate(215.966797 0)"/>
      <use xlink:href="#DejaVuSans-66" transform="translate(279.345703 0)"/>
      <use xlink:href="#DejaVuSans-72" transform="translate(314.550781 0)"/>
      <use xlink:href="#DejaVuSans-65" transform="translate(353.414062 0)"/>
      <use xlink:href="#DejaVuSans-71" transform="translate(414.9375 0)"/>
      <use xlink:href="#DejaVuSans-75" transform="translate(478.414062 0)"/>
      <use xlink:href="#DejaVuSans-65" transform="translate(541.792969 0)"/>
      <use xlink:href="#DejaVuSans-6e" transform="translate(603.316406 0)"/>
      <use xlink:href="#DejaVuSans-7a" transform="translate(666.695312 0)"/>
      <use xlink:href="#DejaVuSans-20" transform="translate(719.185547 0)"/>
      <use xlink:href="#DejaVuSans-66" transform="translate(750.972656 0)"/>
      <use xlink:href="#DejaVuSans-5f" transform="translate(786.177734 0)"/>
      <use xlink:href="#DejaVuSans-68" transform="translate(836.177734 0)"/>
      <use xlink:href="#DejaVuSans-20" transform="translate(899.556641 0)"/>
      <use xlink:href="#DejaVuSans-5b" transform="translate(931.34375 0)"/>
      <use xlink:href="#DejaVuSans-48" transform="translate(970.357422 0)"/>
      <use xlink:href="#DejaVuSans-7a" transform="translate(1045.552734 0)"/>
      <use xlink:href="#DejaVuSans-5d" transform="translate(1098.042969 0)"/>
     </g>
    </g>
   </g>
   <g id="line2d_27">
    <path d="M 55.868853 307.8 
L 60.708582 300.375655 
L 66.354933 292.148162 
L 72.001283 284.323015 
L 77.647633 276.846393 
L 84.100605 268.673937 
L 90.553577 260.849907 
L 97.81317 252.413487 
L 105.072764 244.318891 
L 113.138979 235.679256 
L 121.205193 227.371135 
L 130.07803 218.572959 
L 138.950866 210.094083 
L 148.630324 201.170597 
L 158.309782 192.553418 
L 168.795861 183.52966 
L 179.28194 174.799114 
L 190.574641 165.694189 
L 201.867342 156.869676 
L 213.966664 147.698345 
L 226.872608 138.210569 
L 239.778551 129.001054 
L 253.491117 119.495013 
L 267.203682 110.253009 
L 281.722868 100.73202 
L 297.048677 90.954096 
L 297.048677 90.954096 
" clip-path="url(#p7a6edbd1f4)" style="fill: none; stroke: #4682b4; stroke-width: 2; stroke-linecap: square"/>
   </g>
   <g id="line2d_28">
    <path d="M 206.319124 320.4 
L 206.319124 43.2 
" clip-path="url(#p7a6edbd1f4)" style="fill: none; stroke-dasharray: 0.8,1.32; stroke-dashoffset: 0; stroke: #808080; stroke-width: 0.8"/>
   </g>
   <g id="line2d_29">
    <path d="M 115.800074 320.4 
L 115.800074 43.2 
" clip-path="url(#p7a6edbd1f4)" style="fill: none; stroke-dasharray: 0.8,1.32; stroke-dashoffset: 0; stroke: #808080; stroke-width: 0.8"/>
   </g>
   <g id="line2d_30">
    <path d="M 240.773385 320.4 
L 240.773385 43.2 
" clip-path="url(#p7a6edbd1f4)" style="fill: none; stroke-dasharray: 0.8,1.32; stroke-dashoffset: 0; stroke: #808080; stroke-width: 0.8"/>
   </g>
   <g id="line2d_31">
    <path d="M 355.620919 320.4 
L 355.620919 43.2 
" clip-path="url(#p7a6edbd1f4)" style="fill: none; stroke-dasharray: 0.8,1.32; stroke-dashoffset: 0; stroke: #808080; stroke-width: 0.8"/>
   </g>
   <g id="line2d_32">
    <path d="M 217.803878 320.4 
L 217.803878 43.2 
" clip-path="url(#p7a6edbd1f4)" style="fill: none; stroke-dasharray: 0.8,1.32; stroke-dashoffset: 0; stroke: #808080; stroke-width: 0.8"/>
   </g>
   <g id="patch_3">
    <path d="M 40.88125 320.4 
L 40.88125 43.2 
" style="fill: none; stroke: #000000; stroke-width: 0.8; stroke-linejoin: miter; stroke-linecap: square"/>
   </g>
   <g id="patch_4">
    <path d="M 370.608523 320.4 
L 370.608523 43.2 
" style="fill: none; stroke: #000000; stroke-width: 0.8; stroke-linejoin: miter; stroke-linecap: square"/>
   </g>
   <g id="patch_5">
    <path d="M 40.88125 320.4 
L 370.608523 320.4 
" style="fill: none; stroke: #000000; stroke-width: 0.8; stroke-linejoin: miter; stroke-linecap: square"/>
   </g>
   <g id="patch_6">
    <path d="M 40.88125 43.2 
L 370.608523 43.2 
" style="fill: none; stroke: #000000; stroke-width: 0.8; stroke-linejoin: miter; stroke-linecap: square"/>
   </g>
   <g id="text_16">
    <!-- Mineralöl VG 46 (trocken) -->
    <g transform="translate(212.695758 149.512089) rotate(-15) scale(0.07 -0.07)">
     <defs>
      <path id="DejaVuSans-6c" d="M 603 4863 
L 1178 4863 
L 1178 0 
L 603 0 
L 603 4863 
z
" transform="scale(0.015625)"/>
      <path id="DejaVuSans-f6" d="M 1959 3097 
Q 1497 3097 1228 2736 
Q 959 2375 959 1747 
Q 959 1119 1226 758 
Q 1494 397 1959 397 
Q 2419 397 2687 759 
Q 2956 1122 2956 1747 
Q 2956 2369 2687 2733 
Q 2419 3097 1959 3097 
z
M 1959 3584 
Q 2709 3584 3137 3096 
Q 3566 2609 3566 1747 
Q 3566 888 3137 398 
Q 2709 -91 1959 -91 
Q 1206 -91 779 398 
Q 353 888 353 1747 
Q 353 2609 779 3096 
Q 1206 3584 1959 3584 
z
M 2254 4850 
L 2888 4850 
L 2888 4219 
L 2254 4219 
L 2254 4850 
z
M 1032 4850 
L 1666 4850 
L 1666 4219 
L 1032 4219 
L 1032 4850 
z
" transform="scale(0.015625)"/>
      <path id="DejaVuSans-56" d="M 1831 0 
L 50 4666 
L 709 4666 
L 2188 738 
L 3669 4666 
L 4325 4666 
L 2547 0 
L 1831 0 
z
" transform="scale(0.015625)"/>
      <path id="DejaVuSans-47" d="M 3809 666 
L 3809 1919 
L 2778 1919 
L 2778 2438 
L 4434 2438 
L 4434 434 
Q 4069 175 3628 42 
Q 3188 -91 2688 -91 
Q 1594 -91 976 548 
Q 359 1188 359 2328 
Q 359 3472 976 4111 
Q 1594 4750 2688 4750 
Q 3144 4750 3555 4637 
Q 3966 4525 4313 4306 
L 4313 3634 
Q 3963 3931 3569 4081 
Q 3175 4231 2741 4231 
Q 1884 4231 1454 3753 
Q 1025 3275 1025 2328 
Q 1025 1384 1454 906 
Q 1884 428 2741 428 
Q 3075 428 3337 486 
Q 3600 544 3809 666 
z
" transform="scale(0.015625)"/>
      <path id="DejaVuSans-28" d="M 1984 4856 
Q 1566 4138 1362 3434 
Q 1159 2731 1159 2009 
Q 1159 1288 1364 580 
Q 1569 -128 1984 -844 
L 1484 -844 
Q 1016 -109 783 600 
Q 550 1309 550 2009 
Q 550 2706 781 3412 
Q 1013 4119 1484 4856 
L 1984 4856 
z
" transform="scale(0.015625)"/>
      <path id="DejaVuSans-74" d="M 1172 4494 
L 1172 3500 
L 2356 3500 
L 2356 3053 
L 1172 3053 
L 1172 1153 
Q 1172 725 1289 603 
Q 1406 481 1766 481 
L 2356 481 
L 2356 0 
L 1766 0 
Q 1100 0 847 248 
Q 594 497 594 1153 
L 594 3053 
L 172 3053 
L 172 3500 
L 594 3500 
L 594 4494 
L 1172 4494 
z
" transform="scale(0.015625)"/>
      <path id="DejaVuSans-6f" d="M 1959 3097 
Q 1497 3097 1228 2736 
Q 959 2375 959 1747 
Q 959 1119 1226 758 
Q 1494 397 1959 397 
Q 2419 397 2687 759 
Q 2956 1122 2956 1747 
Q 2956 2369 2687 2733 
Q 2419 3097 1959 3097 
z
M 1959 3584 
Q 2709 3584 3137 3096 
Q 3566 2609 3566 1747 
Q 3566 888 3137 398 
Q 2709 -91 1959 -91 
Q 1206 -91 779 398 
Q 353 888 353 1747 
Q 353 2609 779 3096 
Q 1206 3584 1959 3584 
z
" transform="scale(0.015625)"/>
      <path id="DejaVuSans-63" d="M 3122 3366 
L 3122 2828 
Q 2878 2963 2633 3030 
Q 2388 3097 2138 3097 
Q 1578 3097 1268 2742 
Q 959 2388 959 1747 
Q 959 1106 1268 751 
Q 1578 397 2138 397 
Q 2388 397 2633 464 
Q 2878 531 3122 666 
L 3122 134 
Q 2881 22 2623 -34 
Q 2366 -91 2075 -91 
Q 1284 -91 818 406 
Q 353 903 353 1747 
Q 353 2603 823 3093 
Q 1294 3584 2113 3584 
Q 2378 3584 2631 3529 
Q 2884 3475 3122 3366 
z
" transform="scale(0.015625)"/>
      <path id="DejaVuSans-6b" d="M 581 4863 
L 1159 4863 
L 1159 1991 
L 2875 3500 
L 3609 3500 
L 1753 1863 
L 3688 0 
L 2938 0 
L 1159 1709 
L 1159 0 
L 581 0 
L 581 4863 
z
" transform="scale(0.015625)"/>
      <path id="DejaVuSans-29" d="M 513 4856 
L 1013 4856 
Q 1481 4119 1714 3412 
Q 1947 2706 1947 2009 
Q 1947 1309 1714 600 
Q 1481 -109 1013 -844 
L 513 -844 
Q 928 -128 1133 580 
Q 1338 1288 1338 2009 
Q 1338 2731 1133 3434 
Q 928 4138 513 4856 
z
" transform="scale(0.015625)"/>
     </defs>
     <use xlink:href="#DejaVuSans-4d"/>
     <use xlink:href="#DejaVuSans-69" transform="translate(86.279297 0)"/>
     <use xlink:href="#DejaVuSans-6e" transform="translate(114.0625 0)"/>
     <use xlink:href="#DejaVuSans-65" transform="translate(177.441406 0)"/>
     <use xlink:href="#DejaVuSans-72" transform="translate(238.964844 0)"/>
     <use xlink:href="#DejaVuSans-61" transform="translate(280.078125 0)"/>
     <use xlink:href="#DejaVuSans-6c" transform="translate(341.357422 0)"/>
     <use xlink:href="#DejaVuSans-f6" transform="translate(369.140625 0)"/>
     <use xlink:href="#DejaVuSans-6c" transform="translate(430.322266 0)"/>
     <use xlink:href="#DejaVuSans-20" transform="translate(458.105469 0)"/>
     <use xlink:href="#DejaVuSans-56" transform="translate(489.892578 0)"/>
     <use xlink:href="#DejaVuSans-47" transform="translate(558.300781 0)"/>
     <use xlink:href="#DejaVuSans-20" transform="translate(635.791016 0)"/>
     <use xlink:href="#DejaVuSans-34" transform="translate(667.578125 0)"/>
     <use xlink:href="#DejaVuSans-36" transform="translate(731.201172 0)"/>
     <use xlink:href="#DejaVuSans-20" transform="translate(794.824219 0)"/>
     <use xlink:href="#DejaVuSans-28" transform="translate(826.611328 0)"/>
     <use xlink:href="#DejaVuSans-74" transform="translate(865.625 0)"/>
     <use xlink:href="#DejaVuSans-72" transform="translate(904.833984 0)"/>
     <use xlink:href="#DejaVuSans-6f" transform="translate(943.697266 0)"/>
     <use xlink:href="#DejaVuSans-63" transform="translate(1004.878906 0)"/>
     <use xlink:href="#DejaVuSans-6b" transform="translate(1059.859375 0)"/>
     <use xlink:href="#DejaVuSans-65" transform="translate(1114.144531 0)"/>
     <use xlink:href="#DejaVuSans-6e" transform="translate(1175.667969 0)"/>
     <use xlink:href="#DejaVuSans-29" transform="translate(1239.046875 0)"/>
    </g>
   </g>
   <g id="text_17">
    <!-- Mineralöl VG 46 (1 % Luft) -->
    <g transform="translate(122.176708 228.953191) rotate(-15) scale(0.07 -0.07)">
     <defs>
      <path id="DejaVuSans-25" d="M 4653 2053 
Q 4381 2053 4226 1822 
Q 4072 1591 4072 1178 
Q 4072 772 4226 539 
Q 4381 306 4653 306 
Q 4919 306 5073 539 
Q 5228 772 5228 1178 
Q 5228 1588 5073 1820 
Q 4919 2053 4653 2053 
z
M 4653 2450 
Q 5147 2450 5437 2106 
Q 5728 1763 5728 1178 
Q 5728 594 5436 251 
Q 5144 -91 4653 -91 
Q 4153 -91 3862 251 
Q 3572 594 3572 1178 
Q 3572 1766 3864 2108 
Q 4156 2450 4653 2450 
z
M 1428 4353 
Q 1159 4353 1004 4120 
Q 850 3888 850 3481 
Q 850 3069 1003 2837 
Q 1156 2606 1428 2606 
Q 1700 2606 1854 2837 
Q 2009 3069 2009 3481 
Q 2009 3884 1853 4118 
Q 1697 4353 1428 4353 
z
M 4250 4750 
L 4750 4750 
L 1831 -91 
L 1331 -91 
L 4250 4750 
z
M 1428 4750 
Q 1922 4750 2215 4408 
Q 2509 4066 2509 3481 
Q 2509 2891 2217 2550 
Q 1925 2209 1428 2209 
Q 931 2209 642 2551 
Q 353 2894 353 3481 
Q 353 4063 643 4406 
Q 934 4750 1428 4750 
z
" transform="scale(0.015625)"/>
      <path id="DejaVuSans-4c" d="M 628 4666 
L 1259 4666 
L 1259 531 
L 3531 531 
L 3531 0 
L 628 0 
L 628 4666 
z
" transform="scale(0.015625)"/>
     </defs>
     <use xlink:href="#DejaVuSans-4d"/>
     <use xlink:href="#DejaVuSans-69" transform="translate(86.279297 0)"/>
     <use xlink:href="#DejaVuSans-6e" transform="translate(114.0625 0)"/>
     <use xlink:href="#DejaVuSans-65" transform="translate(177.441406 0)"/>
     <use xlink:href="#DejaVuSans-72" transform="translate(238.964844 0)"/>
     <use xlink:href="#DejaVuSans-61" transform="translate(280.078125 0)"/>
     <use xlink:href="#DejaVuSans-6c" transform="translate(341.357422 0)"/>
     <use xlink:href="#DejaVuSans-f6" transform="translate(369.140625 0)"/>
     <use xlink:href="#DejaVuSans-6c" transform="translate(430.322266 0)"/>
     <use xlink:href="#DejaVuSans-20" transform="translate(458.105469 0)"/>
     <use xlink:href="#DejaVuSans-56" transform="translate(489.892578 0)"/>
     <use xlink:href="#DejaVuSans-47" transform="translate(558.300781 0)"/>
     <use xlink:href="#DejaVuSans-20" transform="translate(635.791016 0)"/>
     <use xlink:href="#DejaVuSans-34" transform="translate(667.578125 0)"/>
     <use xlink:href="#DejaVuSans-36" transform="translate(731.201172 0)"/>
     <use xlink:href="#DejaVuSans-20" transform="translate(794.824219 0)"/>
     <use xlink:href="#DejaVuSans-28" transform="translate(826.611328 0)"/>
     <use xlink:href="#DejaVuSans-31" transform="translate(865.625 0)"/>
     <use xlink:href="#DejaVuSans-20" transform="translate(929.248047 0)"/>
     <use xlink:href="#DejaVuSans-25" transform="translate(961.035156 0)"/>
     <use xlink:href="#DejaVuSans-20" transform="translate(1056.054688 0)"/>
     <use xlink:href="#DejaVuSans-4c" transform="translate(1087.841797 0)"/>
     <use xlink:href="#DejaVuSans-75" transform="translate(1141.804688 0)"/>
     <use xlink:href="#DejaVuSans-66" transform="translate(1205.183594 0)"/>
     <use xlink:href="#DejaVuSans-74" transform="translate(1238.638672 0)"/>
     <use xlink:href="#DejaVuSans-29" transform="translate(1277.847656 0)"/>
    </g>
   </g>
   <g id="text_18">
    <!-- Phosphatester HEP -->
    <g transform="translate(247.150019 124.351623) rotate(-15) scale(0.07 -0.07)">
     <defs>
      <path id="DejaVuSans-73" d="M 2834 3397 
L 2834 2853 
Q 2591 2978 2328 3040 
Q 2066 3103 1784 3103 
Q 1356 3103 1142 2972 
Q 928 2841 928 2578 
Q 928 2378 1081 2264 
Q 1234 2150 1697 2047 
L 1894 2003 
Q 2506 1872 2764 1633 
Q 3022 1394 3022 966 
Q 3022 478 2636 193 
Q 2250 -91 1575 -91 
Q 1294 -91 989 -36 
Q 684 19 347 128 
L 347 722 
Q 666 556 975 473 
Q 1284 391 1588 391 
Q 1994 391 2212 530 
Q 2431 669 2431 922 
Q 2431 1156 2273 1281 
Q 2116 1406 1581 1522 
L 1381 1569 
Q 847 1681 609 1914 
Q 372 2147 372 2553 
Q 372 3047 722 3315 
Q 1072 3584 1716 3584 
Q 2034 3584 2315 3537 
Q 2597 3491 2834 3397 
z
" transform="scale(0.015625)"/>
      <path id="DejaVuSans-70" d="M 1159 525 
L 1159 -1331 
L 581 -1331 
L 581 3500 
L 1159 3500 
L 1159 2969 
Q 1341 3281 1617 3432 
Q 1894 3584 2278 3584 
Q 2916 3584 3314 3078 
Q 3713 2572 3713 1747 
Q 3713 922 3314 415 
Q 2916 -91 2278 -91 
Q 1894 -91 1617 61 
Q 1341 213 1159 525 
z
M 3116 1747 
Q 3116 2381 2855 2742 
Q 2594 3103 2138 3103 
Q 1681 3103 1420 2742 
Q 1159 2381 1159 1747 
Q 1159 1113 1420 752 
Q 1681 391 2138 391 
Q 2594 391 2855 752 
Q 3116 1113 3116 1747 
z
" transform="scale(0.015625)"/>
     </defs>
     <use xlink:href="#DejaVuSans-50"/>
     <use xlink:href="#DejaVuSans-68" transform="translate(60.302734 0)"/>
     <use xlink:href="#DejaVuSans-6f" transform="translate(123.681641 0)"/>
     <use xlink:href="#DejaVuSans-73" transform="translate(184.863281 0)"/>
     <use xlink:href="#DejaVuSans-70" transform="translate(236.962891 0)"/>
     <use xlink:href="#DejaVuSans-68" transform="translate(300.439453 0)"/>
     <use xlink:href="#DejaVuSans-61" transform="translate(363.818359 0)"/>
     <use xlink:href="#DejaVuSans-74" transform="translate(425.097656 0)"/>
     <use xlink:href="#DejaVuSans-65" transform="translate(464.306641 0)"/>
     <use xlink:href="#DejaVuSans-73" transform="translate(525.830078 0)"/>
     <use xlink:href="#DejaVuSans-74" transform="translate(577.929688 0)"/>
     <use xlink:href="#DejaVuSans-65" transform="translate(617.138672 0)"/>
     <use xlink:href="#DejaVuSans-72" transform="translate(678.662109 0)"/>
     <use xlink:href="#DejaVuSans-20" transform="translate(719.775391 0)"/>
     <use xlink:href="#DejaVuSans-48" transform="translate(751.5625 0)"/>
     <use xlink:href="#DejaVuSans-45" transform="translate(826.757812 0)"/>
     <use xlink:href="#DejaVuSans-50" transform="translate(889.941406 0)"/>
    </g>
   </g>
   <g id="text_19">
    <!-- Wasserglykol HFC -->
    <g transform="translate(361.997554 51.849605) rotate(-15) scale(0.07 -0.07)">
     <defs>
      <path id="DejaVuSans-57" d="M 213 4666 
L 850 4666 
L 1831 722 
L 2809 4666 
L 3519 4666 
L 4500 722 
L 5478 4666 
L 6119 4666 
L 4947 0 
L 4153 0 
L 3169 4050 
L 2175 0 
L 1381 0 
L 213 4666 
z
" transform="scale(0.015625)"/>
      <path id="DejaVuSans-79" d="M 2059 -325 
Q 1816 -950 1584 -1140 
Q 1353 -1331 966 -1331 
L 506 -1331 
L 506 -850 
L 844 -850 
Q 1081 -850 1212 -737 
Q 1344 -625 1503 -206 
L 1606 56 
L 191 3500 
L 800 3500 
L 1894 763 
L 2988 3500 
L 3597 3500 
L 2059 -325 
z
" transform="scale(0.015625)"/>
      <path id="DejaVuSans-46" d="M 628 4666 
L 3309 4666 
L 3309 4134 
L 1259 4134 
L 1259 2759 
L 3109 2759 
L 3109 2228 
L 1259 2228 
L 1259 0 
L 628 0 
L 628 4666 
z
" transform="scale(0.015625)"/>
      <path id="DejaVuSans-43" d="M 4122 4306 
L 4122 3641 
Q 3803 3938 3442 4084 
Q 3081 4231 2675 4231 
Q 1875 4231 1450 3742 
Q 1025 3253 1025 2328 
Q 1025 1406 1450 917 
Q 1875 428 2675 428 
Q 3081 428 3442 575 
Q 3803 722 4122 1019 
L 4122 359 
Q 3791 134 3420 21 
Q 3050 -91 2638 -91 
Q 1578 -91 968 557 
Q 359 1206 359 2328 
Q 359 3453 968 4101 
Q 1578 4750 2638 4750 
Q 3056 4750 3426 4639 
Q 3797 4528 4122 4306 
z
" transform="scale(0.015625)"/>
     </defs>
     <use xlink:href="#DejaVuSans-57"/>
     <use xlink:href="#DejaVuSans-61" transform="translate(92.501953 0)"/>
     <use xlink:href="#DejaVuSans-73" transform="translate(153.78125 0)"/>
     <use xlink:href="#DejaVuSans-73" transform="translate(205.880859 0)"/>
     <use xlink:href="#DejaVuSans-65" transform="translate(257.980469 0)"/>
     <use xlink:href="#DejaVuSans-72" transform="translate(319.503906 0)"/>
     <use xlink:href="#DejaVuSans-67" transform="translate(358.867188 0)"/>
     <use xlink:href="#DejaVuSans-6c" transform="translate(422.34375 0)"/>
     <use xlink:href="#DejaVuSans-79" transform="translate(450.126953 0)"/>
     <use xlink:href="#DejaVuSans-6b" transform="translate(509.306641 0)"/>
     <use xlink:href="#DejaVuSans-6f" transform="translate(563.591797 0)"/>
     <use xlink:href="#DejaVuSans-6c" transform="translate(624.773438 0)"/>
     <use xlink:href="#DejaVuSans-20" transform="translate(652.556641 0)"/>
     <use xlink:href="#DejaVuSans-48" transform="translate(684.34375 0)"/>
     <use xlink:href="#DejaVuSans-46" transform="translate(759.539062 0)"/>
     <use xlink:href="#DejaVuSans-43" transform="translate(817.058594 0)"/>
    </g>
   </g>
   <g id="text_20">
    <!-- PAO / SHC -->
    <g transform="translate(224.180512 140.896451) rotate(-15) scale(0.07 -0.07)">
     <defs>
      <path id="DejaVuSans-41" d="M 2188 4044 
L 1331 1722 
L 3047 1722 
L 2188 4044 
z
M 1831 4666 
L 2547 4666 
L 4325 0 
L 3669 0 
L 3244 1197 
L 1141 1197 
L 716 0 
L 50 0 
L 1831 4666 
z
" transform="scale(0.015625)"/>
      <path id="DejaVuSans-4f" d="M 2522 4238 
Q 1834 4238 1429 3725 
Q 1025 3213 1025 2328 
Q 1025 1447 1429 934 
Q 1834 422 2522 422 
Q 3209 422 3611 934 
Q 4013 1447 4013 2328 
Q 4013 3213 3611 3725 
Q 3209 4238 2522 4238 
z
M 2522 4750 
Q 3503 4750 4090 4092 
Q 4678 3434 4678 2328 
Q 4678 1225 4090 567 
Q 3503 -91 2522 -91 
Q 1538 -91 948 565 
Q 359 1222 359 2328 
Q 359 3434 948 4092 
Q 1538 4750 2522 4750 
z
" transform="scale(0.015625)"/>
      <path id="DejaVuSans-2f" d="M 1625 4666 
L 2156 4666 
L 531 -594 
L 0 -594 
L 1625 4666 
z
" transform="scale(0.015625)"/>
      <path id="DejaVuSans-53" d="M 3425 4513 
L 3425 3897 
Q 3066 4069 2747 4153 
Q 2428 4238 2131 4238 
Q 1616 4238 1336 4038 
Q 1056 3838 1056 3469 
Q 1056 3159 1242 3001 
Q 1428 2844 1947 2747 
L 2328 2669 
Q 3034 2534 3370 2195 
Q 3706 1856 3706 1288 
Q 3706 609 3251 259 
Q 2797 -91 1919 -91 
Q 1588 -91 1214 -16 
Q 841 59 441 206 
L 441 856 
Q 825 641 1194 531 
Q 1563 422 1919 422 
Q 2459 422 2753 634 
Q 3047 847 3047 1241 
Q 3047 1584 2836 1778 
Q 2625 1972 2144 2069 
L 1759 2144 
Q 1053 2284 737 2584 
Q 422 2884 422 3419 
Q 422 4038 858 4394 
Q 1294 4750 2059 4750 
Q 2388 4750 2728 4690 
Q 3069 4631 3425 4513 
z
" transform="scale(0.015625)"/>
     </defs>
     <use xlink:href="#DejaVuSans-50"/>
     <use xlink:href="#DejaVuSans-41" transform="translate(53.927734 0)"/>
     <use xlink:href="#DejaVuSans-4f" transform="translate(120.585938 0)"/>
     <use xlink:href="#DejaVuSans-20" transform="translate(199.296875 0)"/>
     <use xlink:href="#DejaVuSans-2f" transform="translate(231.083984 0)"/>
     <use xlink:href="#DejaVuSans-20" transform="translate(264.775391 0)"/>
     <use xlink:href="#DejaVuSans-53" transform="translate(296.5625 0)"/>
     <use xlink:href="#DejaVuSans-48" transform="translate(360.039062 0)"/>
     <use xlink:href="#DejaVuSans-43" transform="translate(435.234375 0)"/>
    </g>
   </g>
   <g id="text_21">
    <!-- f_h(K_eff) -->
    <g transform="translate(177.297386 37.2) scale(0.12 -0.12)">
     <use xlink:href="#DejaVuSans-66"/>
     <use xlink:href="#DejaVuSans-5f" transform="translate(35.205078 0)"/>
     <use xlink:href="#DejaVuSans-68" transform="translate(85.205078 0)"/>
     <use xlink:href="#DejaVuSans-28" transform="translate(148.583984 0)"/>
     <use xlink:href="#DejaVuSans-4b" transform="translate(187.597656 0)"/>
     <use xlink:href="#DejaVuSans-5f" transform="translate(253.173828 0)"/>
     <use xlink:href="#DejaVuSans-65" transform="translate(303.173828 0)"/>
     <use xlink:href="#DejaVuSans-66" transform="translate(364.697266 0)"/>
     <use xlink:href="#DejaVuSans-66" transform="translate(399.902344 0)"/>
     <use xlink:href="#DejaVuSans-29" transform="translate(435.107422 0)"/>
    </g>
   </g>
   <g id="PathCollection_1">
    <defs>
     <path id="m93f044959f" d="M 0 3 
C 0.795609 3 1.55874 2.683901 2.12132 2.12132 
C 2.683901 1.55874 3 0.795609 3 0 
C 3 -0.795609 2.683901 -1.55874 2.12132 -2.12132 
C 1.55874 -2.683901 0.795609 -3 0 -3 
C -0.795609 -3 -1.55874 -2.683901 -2.12132 -2.12132 
C -2.683901 -1.55874 -3 -0.795609 -3 0 
C -3 0.795609 -2.683901 1.55874 -2.12132 2.12132 
C -1.55874 2.683901 -0.795609 3 0 3 
z
" style="stroke: #1f77b4"/>
    </defs>
    <g clip-path="url(#p7a6edbd1f4)">
     <use xlink:href="#m93f044959f" x="206.319124" y="153.462485" style="fill: #1f77b4; stroke: #1f77b4"/>
    </g>
   </g>
   <g id="PathCollection_2">
    <defs>
     <path id="mf8e40a59be" d="M 0 3 
C 0.795609 3 1.55874 2.683901 2.12132 2.12132 
C 2.683901 1.55874 3 0.795609 3 0 
C 3 -0.795609 2.683901 -1.55874 2.12132 -2.12132 
C 1.55874 -2.683901 0.795609 -3 0 -3 
C -0.795609 -3 -1.55874 -2.683901 -2.12132 -2.12132 
C -2.683901 -1.55874 -3 -0.795609 -3 0 
C -3 0.795609 -2.683901 1.55874 -2.12132 2.12132 
C -1.55874 2.683901 -0.795609 3 0 3 
z
" style="stroke: #ff7f0e"/>
    </defs>
    <g clip-path="url(#p7a6edbd1f4)">
     <use xlink:href="#mf8e40a59be" x="115.800074" y="232.903586" style="fill: #ff7f0e; stroke: #ff7f0e"/>
    </g>
   </g>
   <g id="PathCollection_3">
    <defs>
     <path id="m8b05b147e1" d="M 0 3 
C 0.795609 3 1.55874 2.683901 2.12132 2.12132 
C 2.683901 1.55874 3 0.795609 3 0 
C 3 -0.795609 2.683901 -1.55874 2.12132 -2.12132 
C 1.55874 -2.683901 0.795609 -3 0 -3 
C -0.795609 -3 -1.55874 -2.683901 -2.12132 -2.12132 
C -2.683901 -1.55874 -3 -0.795609 -3 0 
C -3 0.795609 -2.683901 1.55874 -2.12132 2.12132 
C -1.55874 2.683901 -0.795609 3 0 3 
z
" style="stroke: #2ca02c"/>
    </defs>
    <g clip-path="url(#p7a6edbd1f4)">
     <use xlink:href="#m8b05b147e1" x="240.773385" y="128.302019" style="fill: #2ca02c; stroke: #2ca02c"/>
    </g>
   </g>
   <g id="PathCollection_4">
    <defs>
     <path id="mcdb9ecf4d3" d="M 0 3 
C 0.795609 3 1.55874 2.683901 2.12132 2.12132 
C 2.683901 1.55874 3 0.795609 3 0 
C 3 -0.795609 2.683901 -1.55874 2.12132 -2.12132 
C 1.55874 -2.683901 0.795609 -3 0 -3 
C -0.795609 -3 -1.55874 -2.683901 -2.12132 -2.12132 
C -2.683901 -1.55874 -3 -0.795609 -3 0 
C -3 0.795609 -2.683901 1.55874 -2.12132 2.12132 
C -1.55874 2.683901 -0.795609 3 0 3 
z
" style="stroke: #d62728"/>
    </defs>
    <g clip-path="url(#p7a6edbd1f4)">
     <use xlink:href="#mcdb9ecf4d3" x="355.620919" y="55.8" style="fill: #d62728; stroke: #d62728"/>
    </g>
   </g>
   <g id="PathCollection_5">
    <defs>
     <path id="mb2aef9e9d5" d="M 0 3 
C 0.795609 3 1.55874 2.683901 2.12132 2.12132 
C 2.683901 1.55874 3 0.795609 3 0 
C 3 -0.795609 2.683901 -1.55874 2.12132 -2.12132 
C 1.55874 -2.683901 0.795609 -3 0 -3 
C -0.795609 -3 -1.55874 -2.683901 -2.12132 -2.12132 
C -2.683901 -1.55874 -3 -0.795609 -3 0 
C -3 0.795609 -2.683901 1.55874 -2.12132 2.12132 
C -1.55874 2.683901 -0.795609 3 0 3 
z
" style="stroke: #9467bd"/>
    </defs>
    <g clip-path="url(#p7a6edbd1f4)">
     <use xlink:href="#mb2aef9e9d5" x="217.803878" y="144.846846" style="fill: #9467bd; stroke: #9467bd"/>
    </g>
   </g>
  </g>
  <g id="axes_2">
   <g id="patch_7">
    <path d="M 436.553977 320.4 
L 766.28125 320.4 
L 766.28125 43.2 
L 436.553977 43.2 
z
" style="fill: #ffffff"/>
   </g>
   <g id="matplotlib.axis_3">
    <g id="xtick_7">
     <g id="line2d_33">
      <path d="M 463.026334 320.4 
L 463.026334 43.2 
" clip-path="url(#pde00c00a71)" style="fill: none; stroke: #b0b0b0; stroke-opacity: 0.3; stroke-width: 0.8; stroke-linecap: square"/>
     </g>
     <g id="line2d_34">
      <g>
       <use xlink:href="#m9db5da9bba" x="463.026334" y="320.4" style="stroke: #000000; stroke-width: 0.8"/>
      </g>
     </g>
     <g id="text_22">
      <!-- 500 -->
      <g transform="translate(453.482584 334.998437) scale(0.1 -0.1)">
       <use xlink:href="#DejaVuSans-35"/>
       <use xlink:href="#DejaVuSans-30" transform="translate(63.623047 0)"/>
       <use xlink:href="#DejaVuSans-30" transform="translate(127.246094 0)"/>
      </g>
     </g>
    </g>
    <g id="xtick_8">
     <g id="line2d_35">
      <path d="M 520.450102 320.4 
L 520.450102 43.2 
" clip-path="url(#pde00c00a71)" style="fill: none; stroke: #b0b0b0; stroke-opacity: 0.3; stroke-width: 0.8; stroke-linecap: square"/>
     </g>
     <g id="line2d_36">
      <g>
       <use xlink:href="#m9db5da9bba" x="520.450102" y="320.4" style="stroke: #000000; stroke-width: 0.8"/>
      </g>
     </g>
     <g id="text_23">
      <!-- 1000 -->
      <g transform="translate(507.725102 334.998437) scale(0.1 -0.1)">
       <use xlink:href="#DejaVuSans-31"/>
       <use xlink:href="#DejaVuSans-30" transform="translate(63.623047 0)"/>
       <use xlink:href="#DejaVuSans-30" transform="translate(127.246094 0)"/>
       <use xlink:href="#DejaVuSans-30" transform="translate(190.869141 0)"/>
      </g>
     </g>
    </g>
    <g id="xtick_9">
     <g id="line2d_37">
      <path d="M 577.873869 320.4 
L 577.873869 43.2 
" clip-path="url(#pde00c00a71)" style="fill: none; stroke: #b0b0b0; stroke-opacity: 0.3; stroke-width: 0.8; stroke-linecap: square"/>
     </g>
     <g id="line2d_38">
      <g>
       <use xlink:href="#m9db5da9bba" x="577.873869" y="320.4" style="stroke: #000000; stroke-width: 0.8"/>
      </g>
     </g>
     <g id="text_24">
      <!-- 1500 -->
      <g transform="translate(565.148869 334.998437) scale(0.1 -0.1)">
       <use xlink:href="#DejaVuSans-31"/>
       <use xlink:href="#DejaVuSans-35" transform="translate(63.623047 0)"/>
       <use xlink:href="#DejaVuSans-30" transform="translate(127.246094 0)"/>
       <use xlink:href="#DejaVuSans-30" transform="translate(190.869141 0)"/>
      </g>
     </g>
    </g>
    <g id="xtick_10">
     <g id="line2d_39">
      <path d="M 635.297636 320.4 
L 635.297636 43.2 
" clip-path="url(#pde00c00a71)" style="fill: none; stroke: #b0b0b0; stroke-opacity: 0.3; stroke-width: 0.8; stroke-linecap: square"/>
     </g>
     <g id="line2d_40">
      <g>
       <use xlink:href="#m9db5da9bba" x="635.297636" y="320.4" style="stroke: #000000; stroke-width: 0.8"/>
      </g>
     </g>
     <g id="text_25">
      <!-- 2000 -->
      <g transform="translate(622.572636 334.998437) scale(0.1 -0.1)">
       <use xlink:href="#DejaVuSans-32"/>
       <use xlink:href="#DejaVuSans-30" transform="translate(63.623047 0)"/>
       <use xlink:href="#DejaVuSans-30" transform="translate(127.246094 0)"/>
       <use xlink:href="#DejaVuSans-30" transform="translate(190.869141 0)"/>
      </g>
     </g>
    </g>
    <g id="xtick_11">
     <g id="line2d_41">
      <path d="M 692.721404 320.4 
L 692.721404 43.2 
" clip-path="url(#pde00c00a71)" style="fill: none; stroke: #b0b0b0; stroke-opacity: 0.3; stroke-width: 0.8; stroke-linecap: square"/>
     </g>
     <g id="line2d_42">
      <g>
       <use xlink:href="#m9db5da9bba" x="692.721404" y="320.4" style="stroke: #000000; stroke-width: 0.8"/>
      </g>
     </g>
     <g id="text_26">
      <!-- 2500 -->
      <g transform="translate(679.996404 334.998437) scale(0.1 -0.1)">
       <use xlink:href="#DejaVuSans-32"/>
       <use xlink:href="#DejaVuSans-35" transform="translate(63.623047 0)"/>
       <use xlink:href="#DejaVuSans-30" transform="translate(127.246094 0)"/>
       <use xlink:href="#DejaVuSans-30" transform="translate(190.869141 0)"/>
      </g>
     </g>
    </g>
    <g id="xtick_12">
     <g id="line2d_43">
      <path d="M 750.145171 320.4 
L 750.145171 43.2 
" clip-path="url(#pde00c00a71)" style="fill: none; stroke: #b0b0b0; stroke-opacity: 0.3; stroke-width: 0.8; stroke-linecap: square"/>
     </g>
     <g id="line2d_44">
      <g>
       <use xlink:href="#m9db5da9bba" x="750.145171" y="320.4" style="stroke: #000000; stroke-width: 0.8"/>
      </g>
     </g>
     <g id="text_27">
      <!-- 3000 -->
      <g transform="translate(737.420171 334.998437) scale(0.1 -0.1)">
       <use xlink:href="#DejaVuSans-33"/>
       <use xlink:href="#DejaVuSans-30" transform="translate(63.623047 0)"/>
       <use xlink:href="#DejaVuSans-30" transform="translate(127.246094 0)"/>
       <use xlink:href="#DejaVuSans-30" transform="translate(190.869141 0)"/>
      </g>
     </g>
    </g>
    <g id="text_28">
     <!-- K_eff [MPa] -->
     <g transform="translate(573.383239 348.676562) scale(0.1 -0.1)">
      <use xlink:href="#DejaVuSans-4b"/>
      <use xlink:href="#DejaVuSans-5f" transform="translate(65.576172 0)"/>
      <use xlink:href="#DejaVuSans-65" transform="translate(115.576172 0)"/>
      <use xlink:href="#DejaVuSans-66" transform="translate(177.099609 0)"/>
      <use xlink:href="#DejaVuSans-66" transform="translate(212.304688 0)"/>
      <use xlink:href="#DejaVuSans-20" transform="translate(247.509766 0)"/>
      <use xlink:href="#DejaVuSans-5b" transform="translate(279.296875 0)"/>
      <use xlink:href="#DejaVuSans-4d" transform="translate(318.310547 0)"/>
      <use xlink:href="#DejaVuSans-50" transform="translate(404.589844 0)"/>
      <use xlink:href="#DejaVuSans-61" transform="translate(460.392578 0)"/>
      <use xlink:href="#DejaVuSans-5d" transform="translate(521.671875 0)"/>
     </g>
    </g>
   </g>
   <g id="matplotlib.axis_4">
    <g id="ytick_8">
     <g id="line2d_45">
      <path d="M 436.553977 288.296552 
L 766.28125 288.296552 
" clip-path="url(#pde00c00a71)" style="fill: none; stroke: #b0b0b0; stroke-opacity: 0.3; stroke-width: 0.8; stroke-linecap: square"/>
     </g>
     <g id="line2d_46">
      <g>
       <use xlink:href="#mf69bc1bef9" x="436.553977" y="288.296552" style="stroke: #000000; stroke-width: 0.8"/>
      </g>
     </g>
     <g id="text_29">
      <!-- 10 -->
      <g transform="translate(416.828977 292.09577) scale(0.1 -0.1)">
       <use xlink:href="#DejaVuSans-31"/>
       <use xlink:href="#DejaVuSans-30" transform="translate(63.623047 0)"/>
      </g>
     </g>
    </g>
    <g id="ytick_9">
     <g id="line2d_47">
      <path d="M 436.553977 230.172414 
L 766.28125 230.172414 
" clip-path="url(#pde00c00a71)" style="fill: none; stroke: #b0b0b0; stroke-opacity: 0.3; stroke-width: 0.8; stroke-linecap: square"/>
     </g>
     <g id="line2d_48">
      <g>
       <use xlink:href="#mf69bc1bef9" x="436.553977" y="230.172414" style="stroke: #000000; stroke-width: 0.8"/>
      </g>
     </g>
     <g id="text_30">
      <!-- 20 -->
      <g transform="translate(416.828977 233.971633) scale(0.1 -0.1)">
       <use xlink:href="#DejaVuSans-32"/>
       <use xlink:href="#DejaVuSans-30" transform="translate(63.623047 0)"/>
      </g>
     </g>
    </g>
    <g id="ytick_10">
     <g id="line2d_49">
      <path d="M 436.553977 172.048276 
L 766.28125 172.048276 
" clip-path="url(#pde00c00a71)" style="fill: none; stroke: #b0b0b0; stroke-opacity: 0.3; stroke-width: 0.8; stroke-linecap: square"/>
     </g>
     <g id="line2d_50">
      <g>
       <use xlink:href="#mf69bc1bef9" x="436.553977" y="172.048276" style="stroke: #000000; stroke-width: 0.8"/>
      </g>
     </g>
     <g id="text_31">
      <!-- 30 -->
      <g transform="translate(416.828977 175.847495) scale(0.1 -0.1)">
       <use xlink:href="#DejaVuSans-33"/>
       <use xlink:href="#DejaVuSans-30" transform="translate(63.623047 0)"/>
      </g>
     </g>
    </g>
    <g id="ytick_11">
     <g id="line2d_51">
      <path d="M 436.553977 113.924138 
L 766.28125 113.924138 
" clip-path="url(#pde00c00a71)" style="fill: none; stroke: #b0b0b0; stroke-opacity: 0.3; stroke-width: 0.8; stroke-linecap: square"/>
     </g>
     <g id="line2d_52">
      <g>
       <use xlink:href="#mf69bc1bef9" x="436.553977" y="113.924138" style="stroke: #000000; stroke-width: 0.8"/>
      </g>
     </g>
     <g id="text_32">
      <!-- 40 -->
      <g transform="translate(416.828977 117.723357) scale(0.1 -0.1)">
       <use xlink:href="#DejaVuSans-34"/>
       <use xlink:href="#DejaVuSans-30" transform="translate(63.623047 0)"/>
      </g>
     </g>
    </g>
    <g id="ytick_12">
     <g id="line2d_53">
      <path d="M 436.553977 55.8 
L 766.28125 55.8 
" clip-path="url(#pde00c00a71)" style="fill: none; stroke: #b0b0b0; stroke-opacity: 0.3; stroke-width: 0.8; stroke-linecap: square"/>
     </g>
     <g id="line2d_54">
      <g>
       <use xlink:href="#mf69bc1bef9" x="436.553977" y="55.8" style="stroke: #000000; stroke-width: 0.8"/>
      </g>
     </g>
     <g id="text_33">
      <!-- 50 -->
      <g transform="translate(416.828977 59.599219) scale(0.1 -0.1)">
       <use xlink:href="#DejaVuSans-35"/>
       <use xlink:href="#DejaVuSans-30" transform="translate(63.623047 0)"/>
      </g>
     </g>
    </g>
    <g id="text_34">
     <!-- Positionsfehler δx [mm] -->
     <g transform="translate(410.74929 241.234375) rotate(-90) scale(0.1 -0.1)">
      <defs>
       <path id="DejaVuSans-3b4" d="M 3138 4053 
Q 2819 4272 2072 4272 
Q 1281 4272 1281 3906 
Q 1281 3619 2106 3469 
Q 2756 3353 3122 3003 
Q 3566 2581 3566 1716 
Q 3566 888 3138 400 
Q 2709 -91 1959 -91 
Q 1213 -91 781 400 
Q 353 888 353 1747 
Q 353 2384 781 2900 
Q 947 3100 1181 3213 
Q 694 3459 694 3900 
Q 694 4750 2072 4750 
Q 2763 4750 3138 4531 
L 3138 4053 
z
M 1613 3056 
Q 1400 2966 1228 2738 
Q 959 2384 959 1747 
Q 959 1113 1225 756 
Q 1494 397 1959 397 
Q 2419 397 2687 759 
Q 2956 1122 2956 1716 
Q 2956 2338 2672 2638 
Q 2369 2959 1975 2994 
Q 1775 3013 1613 3056 
z
" transform="scale(0.015625)"/>
       <path id="DejaVuSans-78" d="M 3513 3500 
L 2247 1797 
L 3578 0 
L 2900 0 
L 1881 1375 
L 863 0 
L 184 0 
L 1544 1831 
L 300 3500 
L 978 3500 
L 1906 2253 
L 2834 3500 
L 3513 3500 
z
" transform="scale(0.015625)"/>
       <path id="DejaVuSans-6d" d="M 3328 2828 
Q 3544 3216 3844 3400 
Q 4144 3584 4550 3584 
Q 5097 3584 5394 3201 
Q 5691 2819 5691 2113 
L 5691 0 
L 5113 0 
L 5113 2094 
Q 5113 2597 4934 2840 
Q 4756 3084 4391 3084 
Q 3944 3084 3684 2787 
Q 3425 2491 3425 1978 
L 3425 0 
L 2847 0 
L 2847 2094 
Q 2847 2600 2669 2842 
Q 2491 3084 2119 3084 
Q 1678 3084 1418 2786 
Q 1159 2488 1159 1978 
L 1159 0 
L 581 0 
L 581 3500 
L 1159 3500 
L 1159 2956 
Q 1356 3278 1631 3431 
Q 1906 3584 2284 3584 
Q 2666 3584 2933 3390 
Q 3200 3197 3328 2828 
z
" transform="scale(0.015625)"/>
      </defs>
      <use xlink:href="#DejaVuSans-50"/>
      <use xlink:href="#DejaVuSans-6f" transform="translate(56.677734 0)"/>
      <use xlink:href="#DejaVuSans-73" transform="translate(117.859375 0)"/>
      <use xlink:href="#DejaVuSans-69" transform="translate(169.958984 0)"/>
      <use xlink:href="#DejaVuSans-74" transform="translate(197.742188 0)"/>
      <use xlink:href="#DejaVuSans-69" transform="translate(236.951172 0)"/>
      <use xlink:href="#DejaVuSans-6f" transform="translate(264.734375 0)"/>
      <use xlink:href="#DejaVuSans-6e" transform="translate(325.916016 0)"/>
      <use xlink:href="#DejaVuSans-73" transform="translate(389.294922 0)"/>
      <use xlink:href="#DejaVuSans-66" transform="translate(441.394531 0)"/>
      <use xlink:href="#DejaVuSans-65" transform="translate(476.599609 0)"/>
      <use xlink:href="#DejaVuSans-68" transform="translate(538.123047 0)"/>
      <use xlink:href="#DejaVuSans-6c" transform="translate(601.501953 0)"/>
      <use xlink:href="#DejaVuSans-65" transform="translate(629.285156 0)"/>
      <use xlink:href="#DejaVuSans-72" transform="translate(690.808594 0)"/>
      <use xlink:href="#DejaVuSans-20" transform="translate(731.921875 0)"/>
      <use xlink:href="#DejaVuSans-3b4" transform="translate(763.708984 0)"/>
      <use xlink:href="#DejaVuSans-78" transform="translate(824.890625 0)"/>
      <use xlink:href="#DejaVuSans-20" transform="translate(884.070312 0)"/>
      <use xlink:href="#DejaVuSans-5b" transform="translate(915.857422 0)"/>
      <use xlink:href="#DejaVuSans-6d" transform="translate(954.871094 0)"/>
      <use xlink:href="#DejaVuSans-6d" transform="translate(1052.283203 0)"/>
      <use xlink:href="#DejaVuSans-5d" transform="translate(1149.695312 0)"/>
     </g>
    </g>
   </g>
   <g id="line2d_55">
    <path d="M 451.541581 55.8 
L 453.961445 70.342576 
L 456.381309 83.499098 
L 458.801174 95.458708 
L 461.221038 106.377634 
L 463.640903 116.386047 
L 466.060767 125.593279 
L 468.480632 134.091829 
L 470.900496 141.960487 
L 474.126982 151.587537 
L 477.353468 160.348771 
L 480.579954 168.355964 
L 483.80644 175.702446 
L 487.032926 182.466753 
L 490.259412 188.715452 
L 493.485898 194.505329 
L 496.712384 199.885131 
L 499.93887 204.896934 
L 503.971977 210.699352 
L 508.005084 216.044716 
L 512.038192 220.984982 
L 516.071299 225.56452 
L 520.104407 229.821446 
L 524.137514 233.788692 
L 528.977243 238.207008 
L 533.816972 242.291767 
L 538.656701 246.079366 
L 543.49643 249.601095 
L 549.14278 253.409626 
L 554.78913 256.92987 
L 560.435481 260.193365 
L 566.888453 263.64328 
L 573.341424 266.827755 
L 579.794396 269.776292 
L 587.05399 272.842717 
L 594.313583 275.673215 
L 602.379798 278.573267 
L 610.446013 281.244927 
L 619.318849 283.950822 
L 628.998307 286.657563 
L 638.677765 289.139486 
L 649.163844 291.605622 
L 660.456545 294.034504 
L 672.555867 296.408841 
L 685.461811 298.71518 
L 692.721404 299.921379 
L 692.721404 299.921379 
" clip-path="url(#pde00c00a71)" style="fill: none; stroke: #dc143c; stroke-width: 2; stroke-linecap: square"/>
   </g>
   <g id="line2d_56">
    <path d="M 601.991851 320.4 
L 601.991851 43.2 
" clip-path="url(#pde00c00a71)" style="fill: none; stroke-dasharray: 0.8,1.32; stroke-dashoffset: 0; stroke: #808080; stroke-width: 0.8"/>
   </g>
   <g id="line2d_57">
    <path d="M 511.472801 320.4 
L 511.472801 43.2 
" clip-path="url(#pde00c00a71)" style="fill: none; stroke-dasharray: 0.8,1.32; stroke-dashoffset: 0; stroke: #808080; stroke-width: 0.8"/>
   </g>
   <g id="line2d_58">
    <path d="M 636.446112 320.4 
L 636.446112 43.2 
" clip-path="url(#pde00c00a71)" style="fill: none; stroke-dasharray: 0.8,1.32; stroke-dashoffset: 0; stroke: #808080; stroke-width: 0.8"/>
   </g>
   <g id="line2d_59">
    <path d="M 751.293647 320.4 
L 751.293647 43.2 
" clip-path="url(#pde00c00a71)" style="fill: none; stroke-dasharray: 0.8,1.32; stroke-dashoffset: 0; stroke: #808080; stroke-width: 0.8"/>
   </g>
   <g id="line2d_60">
    <path d="M 613.476605 320.4 
L 613.476605 43.2 
" clip-path="url(#pde00c00a71)" style="fill: none; stroke-dasharray: 0.8,1.32; stroke-dashoffset: 0; stroke: #808080; stroke-width: 0.8"/>
   </g>
   <g id="patch_8">
    <path d="M 436.553977 320.4 
L 436.553977 43.2 
" style="fill: none; stroke: #000000; stroke-width: 0.8; stroke-linejoin: miter; stroke-linecap: square"/>
   </g>
   <g id="patch_9">
    <path d="M 766.28125 320.4 
L 766.28125 43.2 
" style="fill: none; stroke: #000000; stroke-width: 0.8; stroke-linejoin: miter; stroke-linecap: square"/>
   </g>
   <g id="patch_10">
    <path d="M 436.553977 320.4 
L 766.28125 320.4 
" style="fill: none; stroke: #000000; stroke-width: 0.8; stroke-linejoin: miter; stroke-linecap: square"/>
   </g>
   <g id="patch_11">
    <path d="M 436.553977 43.2 
L 766.28125 43.2 
" style="fill: none; stroke: #000000; stroke-width: 0.8; stroke-linejoin: miter; stroke-linecap: square"/>
   </g>
   <g id="text_35">
    <!-- Kompressibilitätsfehler δx(K_eff) -->
    <g transform="translate(504.106051 37.2) scale(0.12 -0.12)">
     <defs>
      <path id="DejaVuSans-62" d="M 3116 1747 
Q 3116 2381 2855 2742 
Q 2594 3103 2138 3103 
Q 1681 3103 1420 2742 
Q 1159 2381 1159 1747 
Q 1159 1113 1420 752 
Q 1681 391 2138 391 
Q 2594 391 2855 752 
Q 3116 1113 3116 1747 
z
M 1159 2969 
Q 1341 3281 1617 3432 
Q 1894 3584 2278 3584 
Q 2916 3584 3314 3078 
Q 3713 2572 3713 1747 
Q 3713 922 3314 415 
Q 2916 -91 2278 -91 
Q 1894 -91 1617 61 
Q 1341 213 1159 525 
L 1159 0 
L 581 0 
L 581 4863 
L 1159 4863 
L 1159 2969 
z
" transform="scale(0.015625)"/>
      <path id="DejaVuSans-e4" d="M 2194 1759 
Q 1497 1759 1228 1600 
Q 959 1441 959 1056 
Q 959 750 1161 570 
Q 1363 391 1709 391 
Q 2188 391 2477 730 
Q 2766 1069 2766 1631 
L 2766 1759 
L 2194 1759 
z
M 3341 1997 
L 3341 0 
L 2766 0 
L 2766 531 
Q 2569 213 2275 61 
Q 1981 -91 1556 -91 
Q 1019 -91 701 211 
Q 384 513 384 1019 
Q 384 1609 779 1909 
Q 1175 2209 1959 2209 
L 2766 2209 
L 2766 2266 
Q 2766 2663 2505 2880 
Q 2244 3097 1772 3097 
Q 1472 3097 1187 3025 
Q 903 2953 641 2809 
L 641 3341 
Q 956 3463 1253 3523 
Q 1550 3584 1831 3584 
Q 2591 3584 2966 3190 
Q 3341 2797 3341 1997 
z
M 2150 4850 
L 2784 4850 
L 2784 4219 
L 2150 4219 
L 2150 4850 
z
M 928 4850 
L 1562 4850 
L 1562 4219 
L 928 4219 
L 928 4850 
z
" transform="scale(0.015625)"/>
     </defs>
     <use xlink:href="#DejaVuSans-4b"/>
     <use xlink:href="#DejaVuSans-6f" transform="translate(60.576172 0)"/>
     <use xlink:href="#DejaVuSans-6d" transform="translate(121.757812 0)"/>
     <use xlink:href="#DejaVuSans-70" transform="translate(219.169922 0)"/>
     <use xlink:href="#DejaVuSans-72" transform="translate(282.646484 0)"/>
     <use xlink:href="#DejaVuSans-65" transform="translate(321.509766 0)"/>
     <use xlink:href="#DejaVuSans-73" transform="translate(383.033203 0)"/>
     <use xlink:href="#DejaVuSans-73" transform="translate(435.132812 0)"/>
     <use xlink:href="#DejaVuSans-69" transform="translate(487.232422 0)"/>
     <use xlink:href="#DejaVuSans-62" transform="translate(515.015625 0)"/>
     <use xlink:href="#DejaVuSans-69" transform="translate(578.492188 0)"/>
     <use xlink:href="#DejaVuSans-6c" transform="translate(606.275391 0)"/>
     <use xlink:href="#DejaVuSans-69" transform="translate(634.058594 0)"/>
     <use xlink:href="#DejaVuSans-74" transform="translate(661.841797 0)"/>
     <use xlink:href="#DejaVuSans-e4" transform="translate(701.050781 0)"/>
     <use xlink:href="#DejaVuSans-74" transform="translate(762.330078 0)"/>
     <use xlink:href="#DejaVuSans-73" transform="translate(801.539062 0)"/>
     <use xlink:href="#DejaVuSans-66" transform="translate(853.638672 0)"/>
     <use xlink:href="#DejaVuSans-65" transform="translate(888.84375 0)"/>
     <use xlink:href="#DejaVuSans-68" transform="translate(950.367188 0)"/>
     <use xlink:href="#DejaVuSans-6c" transform="translate(1013.746094 0)"/>
     <use xlink:href="#DejaVuSans-65" transform="translate(1041.529297 0)"/>
     <use xlink:href="#DejaVuSans-72" transform="translate(1103.052734 0)"/>
     <use xlink:href="#DejaVuSans-20" transform="translate(1144.166016 0)"/>
     <use xlink:href="#DejaVuSans-3b4" transform="translate(1175.953125 0)"/>
     <use xlink:href="#DejaVuSans-78" transform="translate(1237.134766 0)"/>
     <use xlink:href="#DejaVuSans-28" transform="translate(1296.314453 0)"/>
     <use xlink:href="#DejaVuSans-4b" transform="translate(1335.328125 0)"/>
     <use xlink:href="#DejaVuSans-5f" transform="translate(1400.904297 0)"/>
     <use xlink:href="#DejaVuSans-65" transform="translate(1450.904297 0)"/>
     <use xlink:href="#DejaVuSans-66" transform="translate(1512.427734 0)"/>
     <use xlink:href="#DejaVuSans-66" transform="translate(1547.632812 0)"/>
     <use xlink:href="#DejaVuSans-29" transform="translate(1582.837891 0)"/>
    </g>
   </g>
   <g id="PathCollection_6">
    <g clip-path="url(#pde00c00a71)">
     <use xlink:href="#m93f044959f" x="601.991851" y="278.439242" style="fill: #1f77b4; stroke: #1f77b4"/>
    </g>
   </g>
   <g id="PathCollection_7">
    <g clip-path="url(#pde00c00a71)">
     <use xlink:href="#mf8e40a59be" x="511.472801" y="220.315104" style="fill: #ff7f0e; stroke: #ff7f0e"/>
    </g>
   </g>
   <g id="PathCollection_8">
    <g clip-path="url(#pde00c00a71)">
     <use xlink:href="#m8b05b147e1" x="636.446112" y="288.585727" style="fill: #2ca02c; stroke: #2ca02c"/>
    </g>
   </g>
   <g id="PathCollection_9">
    <g clip-path="url(#pde00c00a71)">
     <use xlink:href="#mcdb9ecf4d3" x="751.293647" y="307.8" style="fill: #d62728; stroke: #d62728"/>
    </g>
   </g>
   <g id="PathCollection_10">
    <g clip-path="url(#pde00c00a71)">
     <use xlink:href="#mb2aef9e9d5" x="613.476605" y="282.195123" style="fill: #9467bd; stroke: #9467bd"/>
    </g>
   </g>
  </g>
  <g id="text_36">
   <!-- Experiment 4 – Eigenfrequenz &amp; Positionsfehler (A=20 cm², m=500 kg, V=2 l, p=200 bar) -->
   <g transform="translate(120.675625 16.318125) scale(0.12 -0.12)">
    <defs>
     <path id="DejaVuSans-2013" d="M 313 1978 
L 2888 1978 
L 2888 1528 
L 313 1528 
L 313 1978 
z
" transform="scale(0.015625)"/>
     <path id="DejaVuSans-26" d="M 1556 2509 
Q 1272 2256 1139 2004 
Q 1006 1753 1006 1478 
Q 1006 1022 1337 719 
Q 1669 416 2169 416 
Q 2466 416 2725 514 
Q 2984 613 3213 813 
L 1556 2509 
z
M 1997 2859 
L 3584 1234 
Q 3769 1513 3872 1830 
Q 3975 2147 3994 2503 
L 4575 2503 
Q 4538 2091 4375 1687 
Q 4213 1284 3922 891 
L 4794 0 
L 4006 0 
L 3559 459 
Q 3234 181 2878 45 
Q 2522 -91 2113 -91 
Q 1359 -91 881 339 
Q 403 769 403 1441 
Q 403 1841 612 2192 
Q 822 2544 1241 2853 
Q 1091 3050 1012 3245 
Q 934 3441 934 3628 
Q 934 4134 1281 4442 
Q 1628 4750 2203 4750 
Q 2463 4750 2720 4694 
Q 2978 4638 3244 4525 
L 3244 3956 
Q 2972 4103 2725 4179 
Q 2478 4256 2266 4256 
Q 1938 4256 1733 4082 
Q 1528 3909 1528 3634 
Q 1528 3475 1620 3314 
Q 1713 3153 1997 2859 
z
" transform="scale(0.015625)"/>
     <path id="DejaVuSans-3d" d="M 678 2906 
L 4684 2906 
L 4684 2381 
L 678 2381 
L 678 2906 
z
M 678 1631 
L 4684 1631 
L 4684 1100 
L 678 1100 
L 678 1631 
z
" transform="scale(0.015625)"/>
     <path id="DejaVuSans-b2" d="M 838 2444 
L 2163 2444 
L 2163 2088 
L 294 2088 
L 294 2431 
Q 400 2528 597 2703 
Q 1672 3656 1672 3950 
Q 1672 4156 1509 4282 
Q 1347 4409 1081 4409 
Q 919 4409 728 4354 
Q 538 4300 313 4191 
L 313 4575 
Q 553 4663 761 4706 
Q 969 4750 1147 4750 
Q 1600 4750 1872 4544 
Q 2144 4338 2144 4000 
Q 2144 3566 1109 2678 
Q 934 2528 838 2444 
z
" transform="scale(0.015625)"/>
     <path id="DejaVuSans-2c" d="M 750 794 
L 1409 794 
L 1409 256 
L 897 -744 
L 494 -744 
L 750 256 
L 750 794 
z
" transform="scale(0.015625)"/>
    </defs>
    <use xlink:href="#DejaVuSans-45"/>
    <use xlink:href="#DejaVuSans-78" transform="translate(63.183594 0)"/>
    <use xlink:href="#DejaVuSans-70" transform="translate(122.363281 0)"/>
    <use xlink:href="#DejaVuSans-65" transform="translate(185.839844 0)"/>
    <use xlink:href="#DejaVuSans-72" transform="translate(247.363281 0)"/>
    <use xlink:href="#DejaVuSans-69" transform="translate(288.476562 0)"/>
    <use xlink:href="#DejaVuSans-6d" transform="translate(316.259766 0)"/>
    <use xlink:href="#DejaVuSans-65" transform="translate(413.671875 0)"/>
    <use xlink:href="#DejaVuSans-6e" transform="translate(475.195312 0)"/>
    <use xlink:href="#DejaVuSans-74" transform="translate(538.574219 0)"/>
    <use xlink:href="#DejaVuSans-20" transform="translate(577.783203 0)"/>
    <use xlink:href="#DejaVuSans-34" transform="translate(609.570312 0)"/>
    <use xlink:href="#DejaVuSans-20" transform="translate(673.193359 0)"/>
    <use xlink:href="#DejaVuSans-2013" transform="translate(704.980469 0)"/>
    <use xlink:href="#DejaVuSans-20" transform="translate(754.980469 0)"/>
    <use xlink:href="#DejaVuSans-45" transform="translate(786.767578 0)"/>
    <use xlink:href="#DejaVuSans-69" transform="translate(849.951172 0)"/>
    <use xlink:href="#DejaVuSans-67" transform="translate(877.734375 0)"/>
    <use xlink:href="#DejaVuSans-65" transform="translate(941.210938 0)"/>
    <use xlink:href="#DejaVuSans-6e" transform="translate(1002.734375 0)"/>
    <use xlink:href="#DejaVuSans-66" transform="translate(1066.113281 0)"/>
    <use xlink:href="#DejaVuSans-72" transform="translate(1101.318359 0)"/>
    <use xlink:href="#DejaVuSans-65" transform="translate(1140.181641 0)"/>
    <use xlink:href="#DejaVuSans-71" transform="translate(1201.705078 0)"/>
    <use xlink:href="#DejaVuSans-75" transform="translate(1265.181641 0)"/>
    <use xlink:href="#DejaVuSans-65" transform="translate(1328.560547 0)"/>
    <use xlink:href="#DejaVuSans-6e" transform="translate(1390.083984 0)"/>
    <use xlink:href="#DejaVuSans-7a" transform="translate(1453.462891 0)"/>
    <use xlink:href="#DejaVuSans-20" transform="translate(1505.953125 0)"/>
    <use xlink:href="#DejaVuSans-26" transform="translate(1537.740234 0)"/>
    <use xlink:href="#DejaVuSans-20" transform="translate(1615.71875 0)"/>
    <use xlink:href="#DejaVuSans-50" transform="translate(1647.505859 0)"/>
    <use xlink:href="#DejaVuSans-6f" transform="translate(1704.183594 0)"/>
    <use xlink:href="#DejaVuSans-73" transform="translate(1765.365234 0)"/>
    <use xlink:href="#DejaVuSans-69" transform="translate(1817.464844 0)"/>
    <use xlink:href="#DejaVuSans-74" transform="translate(1845.248047 0)"/>
    <use xlink:href="#DejaVuSans-69" transform="translate(1884.457031 0)"/>
    <use xlink:href="#DejaVuSans-6f" transform="translate(1912.240234 0)"/>
    <use xlink:href="#DejaVuSans-6e" transform="translate(1973.421875 0)"/>
    <use xlink:href="#DejaVuSans-73" transform="translate(2036.800781 0)"/>
    <use xlink:href="#DejaVuSans-66" transform="translate(2088.900391 0)"/>
    <use xlink:href="#DejaVuSans-65" transform="translate(2124.105469 0)"/>
    <use xlink:href="#DejaVuSans-68" transform="translate(2185.628906 0)"/>
    <use xlink:href="#DejaVuSans-6c" transform="translate(2249.007812 0)"/>
    <use xlink:href="#DejaVuSans-65" transform="translate(2276.791016 0)"/>
    <use xlink:href="#DejaVuSans-72" transform="translate(2338.314453 0)"/>
    <use xlink:href="#DejaVuSans-20" transform="translate(2379.427734 0)"/>
    <use xlink:href="#DejaVuSans-28" transform="translate(2411.214844 0)"/>
    <use xlink:href="#DejaVuSans-41" transform="translate(2450.228516 0)"/>
    <use xlink:href="#DejaVuSans-3d" transform="translate(2518.636719 0)"/>
    <use xlink:href="#DejaVuSans-32" transform="translate(2602.425781 0)"/>
    <use xlink:href="#DejaVuSans-30" transform="translate(2666.048828 0)"/>
    <use xlink:href="#DejaVuSans-20" transform="translate(2729.671875 0)"/>
    <use xlink:href="#DejaVuSans-63" transform="translate(2761.458984 0)"/>
    <use xlink:href="#DejaVuSans-6d" transform="translate(2816.439453 0)"/>
    <use xlink:href="#DejaVuSans-b2" transform="translate(2913.851562 0)"/>
    <use xlink:href="#DejaVuSans-2c" transform="translate(2953.939453 0)"/>
    <use xlink:href="#DejaVuSans-20" transform="translate(2985.726562 0)"/>
    <use xlink:href="#DejaVuSans-6d" transform="translate(3017.513672 0)"/>
    <use xlink:href="#DejaVuSans-3d" transform="translate(3114.925781 0)"/>
    <use xlink:href="#DejaVuSans-35" transform="translate(3198.714844 0)"/>
    <use xlink:href="#DejaVuSans-30" transform="translate(3262.337891 0)"/>
    <use xlink:href="#DejaVuSans-30" transform="translate(3325.960938 0)"/>
    <use xlink:href="#DejaVuSans-20" transform="translate(3389.583984 0)"/>
    <use xlink:href="#DejaVuSans-6b" transform="translate(3421.371094 0)"/>
    <use xlink:href="#DejaVuSans-67" transform="translate(3479.28125 0)"/>
    <use xlink:href="#DejaVuSans-2c" transform="translate(3542.757812 0)"/>
    <use xlink:href="#DejaVuSans-20" transform="translate(3574.544922 0)"/>
    <use xlink:href="#DejaVuSans-56" transform="translate(3606.332031 0)"/>
    <use xlink:href="#DejaVuSans-3d" transform="translate(3674.740234 0)"/>
    <use xlink:href="#DejaVuSans-32" transform="translate(3758.529297 0)"/>
    <use xlink:href="#DejaVuSans-20" transform="translate(3822.152344 0)"/>
    <use xlink:href="#DejaVuSans-6c" transform="translate(3853.939453 0)"/>
    <use xlink:href="#DejaVuSans-2c" transform="translate(3881.722656 0)"/>
    <use xlink:href="#DejaVuSans-20" transform="translate(3913.509766 0)"/>
    <use xlink:href="#DejaVuSans-70" transform="translate(3945.296875 0)"/>
    <use xlink:href="#DejaVuSans-3d" transform="translate(4008.773438 0)"/>
    <use xlink:href="#DejaVuSans-32" transform="translate(4092.5625 0)"/>
    <use xlink:href="#DejaVuSans-30" transform="translate(4156.185547 0)"/>
    <use xlink:href="#DejaVuSans-30" transform="translate(4219.808594 0)"/>
    <use xlink:href="#DejaVuSans-20" transform="translate(4283.431641 0)"/>
    <use xlink:href="#DejaVuSans-62" transform="translate(4315.21875 0)"/>
    <use xlink:href="#DejaVuSans-61" transform="translate(4378.695312 0)"/>
    <use xlink:href="#DejaVuSans-72" transform="translate(4439.974609 0)"/>
    <use xlink:href="#DejaVuSans-29" transform="translate(4481.087891 0)"/>
   </g>
  </g>
 </g>
 <defs>
  <clipPath id="p7a6edbd1f4">
   <rect x="40.88125" y="43.2" width="329.727273" height="277.2"/>
  </clipPath>
  <clipPath id="pde00c00a71">
   <rect x="436.553977" y="43.2" width="329.727273" height="277.2"/>
  </clipPath>
 </defs>
</svg>
