<?xml version="1.0" encoding="utf-8" standalone="no"?>
<!DOCTYPE svg PUBLIC "-//W3C//DTD SVG 1.1//EN"
  "http://www.w3.org/Graphics/SVG/1.1/DTD/svg11.dtd">
<svg xmlns:xlink="http://www.w3.org/1999/xlink" width="786.20625pt" height="358.234375pt" viewBox="0 0 786.20625 358.234375" xmlns="http://www.w3.org/2000/svg" version="1.1">
 <metadata>
  <rdf:RDF xmlns:dc="http://purl.org/dc/elements/1.1/" xmlns:cc="http://creativecommons.org/ns#" xmlns:rdf="http://www.w3.org/1999/02/22-rdf-syntax-ns#">
   <cc:Work>
    <dc:type rdf:resource="http://purl.org/dc/dcmitype/StillImage"/>
    <dc:date>2026-03-02T09:31:45.090642</dc:date>
    <dc:format>image/svg+xml</dc:format>
    <dc:creator>
     <cc:Agent>
      <dc:title>Matplotlib v3.10.8, https://matplotlib.org/</dc:title>
     </cc:Agent>
    </dc:creator>
   </cc:Work>
  </rdf:RDF>
 </metadata>
 <defs>
  <style type="text/css">*{stroke-linejoin: round; stroke-linecap: butt}</style>
 </defs>
 <g id="figure_1">
  <g id="patch_1">
   <path d="M 0 358.234375 
L 786.20625 358.234375 
L 786.20625 0 
L 0 0 
z
" style="fill: #ffffff"/>
  </g>
  <g id="axes_1">
   <g id="patch_2">
    <path d="M 53.60625 320.4 
L 317.388068 320.4 
L 317.388068 43.2 
L 53.60625 43.2 
z
" style="fill: #ffffff"/>
   </g>
   <g id="QuadContourSet_1">
    <path clip-path="url(#p7cacc7dbad)" style="fill: #fcfed1"/>
    <path clip-path="url(#p7cacc7dbad)" style="fill: #f4fbc1"/>
    <path clip-path="url(#p7cacc7dbad)" style="fill: #edf8b1"/>
    <path clip-path="url(#p7cacc7dbad)" style="fill: #dff2b2"/>
    <path clip-path="url(#p7cacc7dbad)" style="fill: #cfecb3"/>
    <path clip-path="url(#p7cacc7dbad)" style="fill: #b9e4b5"/>
    <path clip-path="url(#p7cacc7dbad)" style="fill: #9cd8b8"/>
    <path clip-path="url(#p7cacc7dbad)" style="fill: #7ecdbb"/>
    <path clip-path="url(#p7cacc7dbad)" style="fill: #67c4be"/>
    <path clip-path="url(#p7cacc7dbad)" style="fill: #4ebbc2"/>
    <path clip-path="url(#p7cacc7dbad)" style="fill: #3aaec3"/>
    <path clip-path="url(#p7cacc7dbad)" style="fill: #2b9fc2"/>
    <path clip-path="url(#p7cacc7dbad)" style="fill: #1d90c0"/>
    <path clip-path="url(#p7cacc7dbad)" style="fill: #1f7db6"/>
    <path clip-path="url(#p7cacc7dbad)" style="fill: #2168ad"/>
    <path clip-path="url(#p7cacc7dbad)" style="fill: #2355a4"/>
    <path clip-path="url(#p7cacc7dbad)" style="fill: #24449c"/>
    <path clip-path="url(#p7cacc7dbad)" style="fill: #243392"/>
    <path clip-path="url(#p7cacc7dbad)" style="fill: #192b7c"/>
    <path d="M 58.077128 320.4 
L 62.548007 320.4 
L 67.018885 320.4 
L 71.489763 320.4 
L 75.960641 320.4 
L 80.43152 320.4 
L 84.902398 320.4 
L 89.373276 320.4 
L 93.844154 320.4 
L 98.315033 320.4 
L 102.785911 320.4 
L 107.256789 320.4 
L 111.727668 320.4 
L 116.198546 320.4 
L 120.669424 320.4 
L 125.140302 320.4 
L 129.611181 320.4 
L 134.082059 320.4 
L 138.552937 320.4 
L 143.023815 320.4 
L 147.494694 320.4 
L 151.965572 320.4 
L 156.43645 320.4 
L 160.907329 320.4 
L 165.378207 320.4 
L 169.849085 320.4 
L 174.319963 320.4 
L 178.790842 320.4 
L 183.26172 320.4 
L 187.732598 320.4 
L 192.203477 320.4 
L 196.674355 320.4 
L 201.145233 320.4 
L 205.616111 320.4 
L 210.08699 320.4 
L 214.557868 320.4 
L 219.028746 320.4 
L 223.499624 320.4 
L 227.970503 320.4 
L 232.441381 320.4 
L 236.912259 320.4 
L 241.383138 320.4 
L 245.854016 320.4 
L 250.324894 320.4 
L 254.795772 320.4 
L 259.266651 320.4 
L 263.737529 320.4 
L 268.208407 320.4 
L 272.679285 320.4 
L 277.150164 320.4 
L 281.621042 320.4 
L 286.09192 320.4 
L 290.562799 320.4 
L 295.033677 320.4 
L 299.504555 320.4 
L 303.975433 320.4 
L 308.446312 320.4 
L 312.91719 320.4 
L 317.388068 320.4 
L 317.388068 315.701695 
L 317.388068 311.00339 
L 317.388068 306.305085 
L 317.388068 301.60678 
L 317.388068 296.908475 
L 317.388068 292.210169 
L 317.388068 287.511864 
L 317.388068 282.813559 
L 317.388068 278.115254 
L 317.388068 273.416949 
L 317.388068 268.718644 
L 317.388068 264.020339 
L 317.388068 259.322034 
L 317.388068 254.623729 
L 317.388068 249.925424 
L 317.388068 245.227119 
L 317.388068 240.528814 
L 317.388068 235.830508 
L 317.388068 231.132203 
L 317.388068 226.433898 
L 317.388068 221.735593 
L 317.388068 217.037288 
L 317.388068 212.338983 
L 317.388068 207.640678 
L 317.388068 202.942373 
L 317.388068 198.244068 
L 317.388068 193.545763 
L 317.388068 188.847458 
L 317.388068 184.149153 
L 317.388068 179.450847 
L 317.388068 174.752542 
L 317.388068 170.054237 
L 317.388068 165.355932 
L 317.388068 160.657627 
L 317.388068 155.959322 
L 317.388068 151.261017 
L 317.388068 146.562712 
L 317.388068 141.864407 
L 317.388068 137.166102 
L 317.388068 132.467797 
L 317.388068 127.769492 
L 317.388068 123.071186 
L 317.388068 118.372881 
L 317.388068 113.674576 
L 317.388068 108.976271 
L 317.388068 104.277966 
L 317.388068 99.579661 
L 317.388068 94.881356 
L 317.388068 90.183051 
L 317.388068 85.484746 
L 317.388068 80.786441 
L 317.388068 76.088136 
L 317.388068 71.389831 
L 317.388068 66.691525 
L 317.388068 61.99322 
L 317.388068 57.294915 
L 317.388068 52.59661 
L 317.388068 47.898305 
L 317.388068 43.2 
L 312.91719 43.2 
L 308.446312 43.2 
L 303.975433 43.2 
L 299.504555 43.2 
L 295.033677 43.2 
L 290.562799 43.2 
L 286.09192 43.2 
L 281.621042 43.2 
L 277.150164 43.2 
L 272.679285 43.2 
L 268.208407 43.2 
L 263.737529 43.2 
L 259.266651 43.2 
L 254.795772 43.2 
L 250.324894 43.2 
L 245.854016 43.2 
L 241.383138 43.2 
L 236.912259 43.2 
L 232.441381 43.2 
L 227.970503 43.2 
L 223.499624 43.2 
L 219.028746 43.2 
L 214.557868 43.2 
L 210.08699 43.2 
L 205.616111 43.2 
L 201.145233 43.2 
L 196.674355 43.2 
L 192.203477 43.2 
L 187.732598 43.2 
L 183.26172 43.2 
L 178.790842 43.2 
L 174.319963 43.2 
L 169.849085 43.2 
L 165.378207 43.2 
L 160.907329 43.2 
L 156.43645 43.2 
L 151.965572 43.2 
L 147.494694 43.2 
L 143.023815 43.2 
L 138.552937 43.2 
L 134.082059 43.2 
L 129.611181 43.2 
L 125.140302 43.2 
L 120.669424 43.2 
L 116.198546 43.2 
L 111.727668 43.2 
L 107.256789 43.2 
L 102.785911 43.2 
L 98.315033 43.2 
L 93.844154 43.2 
L 89.373276 43.2 
L 84.902398 43.2 
L 80.43152 43.2 
L 75.960641 43.2 
L 71.489763 43.2 
L 67.018885 43.2 
L 62.548007 43.2 
L 58.077128 43.2 
L 53.60625 43.2 
L 53.60625 47.898305 
L 53.60625 52.59661 
L 53.60625 57.294915 
L 53.60625 61.99322 
L 53.60625 66.691525 
L 53.60625 71.389831 
L 53.60625 76.088136 
L 53.60625 80.786441 
L 53.60625 85.484746 
L 53.60625 90.183051 
L 53.60625 94.881356 
L 53.60625 99.579661 
L 53.60625 104.277966 
L 53.60625 108.976271 
L 53.60625 113.674576 
L 53.60625 118.372881 
L 53.60625 123.071186 
L 53.60625 127.769492 
L 53.60625 132.467797 
L 53.60625 137.166102 
L 53.60625 141.864407 
L 53.60625 146.562712 
L 53.60625 151.261017 
L 53.60625 155.959322 
L 53.60625 160.657627 
L 53.60625 165.355932 
L 53.60625 170.054237 
L 53.60625 174.752542 
L 53.60625 179.450847 
L 53.60625 184.149153 
L 53.60625 188.847458 
L 53.60625 193.545763 
L 53.60625 198.244068 
L 53.60625 202.942373 
L 53.60625 207.640678 
L 53.60625 212.338983 
L 53.60625 217.037288 
L 53.60625 221.735593 
L 53.60625 226.433898 
L 53.60625 231.132203 
L 53.60625 235.830508 
L 53.60625 240.528814 
L 53.60625 245.227119 
L 53.60625 249.925424 
L 53.60625 254.623729 
L 53.60625 259.322034 
L 53.60625 264.020339 
L 53.60625 268.718644 
L 53.60625 273.416949 
L 53.60625 278.115254 
L 53.60625 282.813559 
L 53.60625 287.511864 
L 53.60625 292.210169 
L 53.60625 296.908475 
L 53.60625 301.60678 
L 53.60625 306.305085 
L 53.60625 311.00339 
L 53.60625 315.701695 
L 53.60625 320.4 
z
" clip-path="url(#p7cacc7dbad)" style="fill: #0d2163"/>
   </g>
   <g id="matplotlib.axis_1">
    <g id="xtick_1">
     <g id="line2d_1">
      <defs>
       <path id="m0aaf1f45db" d="M 0 0 
L 0 3.5 
" style="stroke: #000000; stroke-width: 0.8"/>
      </defs>
      <g>
       <use xlink:href="#m0aaf1f45db" x="102.055972" y="320.4" style="stroke: #000000; stroke-width: 0.8"/>
      </g>
     </g>
     <g id="text_1">
      <!-- 1 -->
      <g transform="translate(98.874722 334.998437) scale(0.1 -0.1)">
       <defs>
        <path id="DejaVuSans-31" d="M 794 531 
L 1825 531 
L 1825 4091 
L 703 3866 
L 703 4441 
L 1819 4666 
L 2450 4666 
L 2450 531 
L 3481 531 
L 3481 0 
L 794 0 
L 794 531 
z
" transform="scale(0.015625)"/>
       </defs>
       <use xlink:href="#DejaVuSans-31"/>
      </g>
     </g>
    </g>
    <g id="xtick_2">
     <g id="line2d_2">
      <g>
       <use xlink:href="#m0aaf1f45db" x="155.888996" y="320.4" style="stroke: #000000; stroke-width: 0.8"/>
      </g>
     </g>
     <g id="text_2">
      <!-- 2 -->
      <g transform="translate(152.707746 334.998437) scale(0.1 -0.1)">
       <defs>
        <path id="DejaVuSans-32" d="M 1228 531 
L 3431 531 
L 3431 0 
L 469 0 
L 469 531 
Q 828 903 1448 1529 
Q 2069 2156 2228 2338 
Q 2531 2678 2651 2914 
Q 2772 3150 2772 3378 
Q 2772 3750 2511 3984 
Q 2250 4219 1831 4219 
Q 1534 4219 1204 4116 
Q 875 4013 500 3803 
L 500 4441 
Q 881 4594 1212 4672 
Q 1544 4750 1819 4750 
Q 2544 4750 2975 4387 
Q 3406 4025 3406 3419 
Q 3406 3131 3298 2873 
Q 3191 2616 2906 2266 
Q 2828 2175 2409 1742 
Q 1991 1309 1228 531 
z
" transform="scale(0.015625)"/>
       </defs>
       <use xlink:href="#DejaVuSans-32"/>
      </g>
     </g>
    </g>
    <g id="xtick_3">
     <g id="line2d_3">
      <g>
       <use xlink:href="#m0aaf1f45db" x="209.72202" y="320.4" style="stroke: #000000; stroke-width: 0.8"/>
      </g>
     </g>
     <g id="text_3">
      <!-- 3 -->
      <g transform="translate(206.54077 334.998437) scale(0.1 -0.1)">
       <defs>
        <path id="DejaVuSans-33" d="M 2597 2516 
Q 3050 2419 3304 2112 
Q 3559 1806 3559 1356 
Q 3559 666 3084 287 
Q 2609 -91 1734 -91 
Q 1441 -91 1130 -33 
Q 819 25 488 141 
L 488 750 
Q 750 597 1062 519 
Q 1375 441 1716 441 
Q 2309 441 2620 675 
Q 2931 909 2931 1356 
Q 2931 1769 2642 2001 
Q 2353 2234 1838 2234 
L 1294 2234 
L 1294 2753 
L 1863 2753 
Q 2328 2753 2575 2939 
Q 2822 3125 2822 3475 
Q 2822 3834 2567 4026 
Q 2313 4219 1838 4219 
Q 1578 4219 1281 4162 
Q 984 4106 628 3988 
L 628 4550 
Q 988 4650 1302 4700 
Q 1616 4750 1894 4750 
Q 2613 4750 3031 4423 
Q 3450 4097 3450 3541 
Q 3450 3153 3228 2886 
Q 3006 2619 2597 2516 
z
" transform="scale(0.015625)"/>
       </defs>
       <use xlink:href="#DejaVuSans-33"/>
      </g>
     </g>
    </g>
    <g id="xtick_4">
     <g id="line2d_4">
      <g>
       <use xlink:href="#m0aaf1f45db" x="263.555044" y="320.4" style="stroke: #000000; stroke-width: 0.8"/>
      </g>
     </g>
     <g id="text_4">
      <!-- 4 -->
      <g transform="translate(260.373794 334.998437) scale(0.1 -0.1)">
       <defs>
        <path id="DejaVuSans-34" d="M 2419 4116 
L 825 1625 
L 2419 1625 
L 2419 4116 
z
M 2253 4666 
L 3047 4666 
L 3047 1625 
L 3713 1625 
L 3713 1100 
L 3047 1100 
L 3047 0 
L 2419 0 
L 2419 1100 
L 313 1100 
L 313 1709 
L 2253 4666 
z
" transform="scale(0.015625)"/>
       </defs>
       <use xlink:href="#DejaVuSans-34"/>
      </g>
     </g>
    </g>
    <g id="xtick_5">
     <g id="line2d_5">
      <g>
       <use xlink:href="#m0aaf1f45db" x="317.388068" y="320.4" style="stroke: #000000; stroke-width: 0.8"/>
      </g>
     </g>
     <g id="text_5">
      <!-- 5 -->
      <g transform="translate(314.206818 334.998437) scale(0.1 -0.1)">
       <defs>
        <path id="DejaVuSans-35" d="M 691 4666 
L 3169 4666 
L 3169 4134 
L 1269 4134 
L 1269 2991 
Q 1406 3038 1543 3061 
Q 1681 3084 1819 3084 
Q 2600 3084 3056 2656 
Q 3513 2228 3513 1497 
Q 3513 744 3044 326 
Q 2575 -91 1722 -91 
Q 1428 -91 1123 -41 
Q 819 9 494 109 
L 494 744 
Q 775 591 1075 516 
Q 1375 441 1709 441 
Q 2250 441 2565 725 
Q 2881 1009 2881 1497 
Q 2881 1984 2565 2268 
Q 2250 2553 1709 2553 
Q 1456 2553 1204 2497 
Q 953 2441 691 2322 
L 691 4666 
z
" transform="scale(0.015625)"/>
       </defs>
       <use xlink:href="#DejaVuSans-35"/>
      </g>
     </g>
    </g>
    <g id="text_6">
     <!-- Akkumulatorvolumen V_acc [L] -->
     <g transform="translate(107.665909 348.676562) scale(0.1 -0.1)">
      <defs>
       <path id="DejaVuSans-41" d="M 2188 4044 
L 1331 1722 
L 3047 1722 
L 2188 4044 
z
M 1831 4666 
L 2547 4666 
L 4325 0 
L 3669 0 
L 3244 1197 
L 1141 1197 
L 716 0 
L 50 0 
L 1831 4666 
z
" transform="scale(0.015625)"/>
       <path id="DejaVuSans-6b" d="M 581 4863 
L 1159 4863 
L 1159 1991 
L 2875 3500 
L 3609 3500 
L 1753 1863 
L 3688 0 
L 2938 0 
L 1159 1709 
L 1159 0 
L 581 0 
L 581 4863 
z
" transform="scale(0.015625)"/>
       <path id="DejaVuSans-75" d="M 544 1381 
L 544 3500 
L 1119 3500 
L 1119 1403 
Q 1119 906 1312 657 
Q 1506 409 1894 409 
Q 2359 409 2629 706 
Q 2900 1003 2900 1516 
L 2900 3500 
L 3475 3500 
L 3475 0 
L 2900 0 
L 2900 538 
Q 2691 219 2414 64 
Q 2138 -91 1772 -91 
Q 1169 -91 856 284 
Q 544 659 544 1381 
z
M 1991 3584 
L 1991 3584 
z
" transform="scale(0.015625)"/>
       <path id="DejaVuSans-6d" d="M 3328 2828 
Q 3544 3216 3844 3400 
Q 4144 3584 4550 3584 
Q 5097 3584 5394 3201 
Q 5691 2819 5691 2113 
L 5691 0 
L 5113 0 
L 5113 2094 
Q 5113 2597 4934 2840 
Q 4756 3084 4391 3084 
Q 3944 3084 3684 2787 
Q 3425 2491 3425 1978 
L 3425 0 
L 2847 0 
L 2847 2094 
Q 2847 2600 2669 2842 
Q 2491 3084 2119 3084 
Q 1678 3084 1418 2786 
Q 1159 2488 1159 1978 
L 1159 0 
L 581 0 
L 581 3500 
L 1159 3500 
L 1159 2956 
Q 1356 3278 1631 3431 
Q 1906 3584 2284 3584 
Q 2666 3584 2933 3390 
Q 3200 3197 3328 2828 
z
" transform="scale(0.015625)"/>
       <path id="DejaVuSans-6c" d="M 603 4863 
L 1178 4863 
L 1178 0 
L 603 0 
L 603 4863 
z
" transform="scale(0.015625)"/>
       <path id="DejaVuSans-61" d="M 2194 1759 
Q 1497 1759 1228 1600 
Q 959 1441 959 1056 
Q 959 750 1161 570 
Q 1363 391 1709 391 
Q 2188 391 2477 730 
Q 2766 1069 2766 1631 
L 2766 1759 
L 2194 1759 
z
M 3341 1997 
L 3341 0 
L 2766 0 
L 2766 531 
Q 2569 213 2275 61 
Q 1981 -91 1556 -91 
Q 1019 -91 701 211 
Q 384 513 384 1019 
Q 384 1609 779 1909 
Q 1175 2209 1959 2209 
L 2766 2209 
L 2766 2266 
Q 2766 2663 2505 2880 
Q 2244 3097 1772 3097 
Q 1472 3097 1187 3025 
Q 903 2953 641 2809 
L 641 3341 
Q 956 3463 1253 3523 
Q 1550 3584 1831 3584 
Q 2591 3584 2966 3190 
Q 3341 2797 3341 1997 
z
" transform="scale(0.015625)"/>
       <path id="DejaVuSans-74" d="M 1172 4494 
L 1172 3500 
L 2356 3500 
L 2356 3053 
L 1172 3053 
L 1172 1153 
Q 1172 725 1289 603 
Q 1406 481 1766 481 
L 2356 481 
L 2356 0 
L 1766 0 
Q 1100 0 847 248 
Q 594 497 594 1153 
L 594 3053 
L 172 3053 
L 172 3500 
L 594 3500 
L 594 4494 
L 1172 4494 
z
" transform="scale(0.015625)"/>
       <path id="DejaVuSans-6f" d="M 1959 3097 
Q 1497 3097 1228 2736 
Q 959 2375 959 1747 
Q 959 1119 1226 758 
Q 1494 397 1959 397 
Q 2419 397 2687 759 
Q 2956 1122 2956 1747 
Q 2956 2369 2687 2733 
Q 2419 3097 1959 3097 
z
M 1959 3584 
Q 2709 3584 3137 3096 
Q 3566 2609 3566 1747 
Q 3566 888 3137 398 
Q 2709 -91 1959 -91 
Q 1206 -91 779 398 
Q 353 888 353 1747 
Q 353 2609 779 3096 
Q 1206 3584 1959 3584 
z
" transform="scale(0.015625)"/>
       <path id="DejaVuSans-72" d="M 2631 2963 
Q 2534 3019 2420 3045 
Q 2306 3072 2169 3072 
Q 1681 3072 1420 2755 
Q 1159 2438 1159 1844 
L 1159 0 
L 581 0 
L 581 3500 
L 1159 3500 
L 1159 2956 
Q 1341 3275 1631 3429 
Q 1922 3584 2338 3584 
Q 2397 3584 2469 3576 
Q 2541 3569 2628 3553 
L 2631 2963 
z
" transform="scale(0.015625)"/>
       <path id="DejaVuSans-76" d="M 191 3500 
L 800 3500 
L 1894 563 
L 2988 3500 
L 3597 3500 
L 2284 0 
L 1503 0 
L 191 3500 
z
" transform="scale(0.015625)"/>
       <path id="DejaVuSans-65" d="M 3597 1894 
L 3597 1613 
L 953 1613 
Q 991 1019 1311 708 
Q 1631 397 2203 397 
Q 2534 397 2845 478 
Q 3156 559 3463 722 
L 3463 178 
Q 3153 47 2828 -22 
Q 2503 -91 2169 -91 
Q 1331 -91 842 396 
Q 353 884 353 1716 
Q 353 2575 817 3079 
Q 1281 3584 2069 3584 
Q 2775 3584 3186 3129 
Q 3597 2675 3597 1894 
z
M 3022 2063 
Q 3016 2534 2758 2815 
Q 2500 3097 2075 3097 
Q 1594 3097 1305 2825 
Q 1016 2553 972 2059 
L 3022 2063 
z
" transform="scale(0.015625)"/>
       <path id="DejaVuSans-6e" d="M 3513 2113 
L 3513 0 
L 2938 0 
L 2938 2094 
Q 2938 2591 2744 2837 
Q 2550 3084 2163 3084 
Q 1697 3084 1428 2787 
Q 1159 2491 1159 1978 
L 1159 0 
L 581 0 
L 581 3500 
L 1159 3500 
L 1159 2956 
Q 1366 3272 1645 3428 
Q 1925 3584 2291 3584 
Q 2894 3584 3203 3211 
Q 3513 2838 3513 2113 
z
" transform="scale(0.015625)"/>
       <path id="DejaVuSans-20" transform="scale(0.015625)"/>
       <path id="DejaVuSans-56" d="M 1831 0 
L 50 4666 
L 709 4666 
L 2188 738 
L 3669 4666 
L 4325 4666 
L 2547 0 
L 1831 0 
z
" transform="scale(0.015625)"/>
       <path id="DejaVuSans-5f" d="M 3263 -1063 
L 3263 -1509 
L -63 -1509 
L -63 -1063 
L 3263 -1063 
z
" transform="scale(0.015625)"/>
       <path id="DejaVuSans-63" d="M 3122 3366 
L 3122 2828 
Q 2878 2963 2633 3030 
Q 2388 3097 2138 3097 
Q 1578 3097 1268 2742 
Q 959 2388 959 1747 
Q 959 1106 1268 751 
Q 1578 397 2138 397 
Q 2388 397 2633 464 
Q 2878 531 3122 666 
L 3122 134 
Q 2881 22 2623 -34 
Q 2366 -91 2075 -91 
Q 1284 -91 818 406 
Q 353 903 353 1747 
Q 353 2603 823 3093 
Q 1294 3584 2113 3584 
Q 2378 3584 2631 3529 
Q 2884 3475 3122 3366 
z
" transform="scale(0.015625)"/>
       <path id="DejaVuSans-5b" d="M 550 4863 
L 1875 4863 
L 1875 4416 
L 1125 4416 
L 1125 -397 
L 1875 -397 
L 1875 -844 
L 550 -844 
L 550 4863 
z
" transform="scale(0.015625)"/>
       <path id="DejaVuSans-4c" d="M 628 4666 
L 1259 4666 
L 1259 531 
L 3531 531 
L 3531 0 
L 628 0 
L 628 4666 
z
" transform="scale(0.015625)"/>
       <path id="DejaVuSans-5d" d="M 1947 4863 
L 1947 -844 
L 622 -844 
L 622 -397 
L 1369 -397 
L 1369 4416 
L 622 4416 
L 622 4863 
L 1947 4863 
z
" transform="scale(0.015625)"/>
      </defs>
      <use xlink:href="#DejaVuSans-41"/>
      <use xlink:href="#DejaVuSans-6b" transform="translate(68.408203 0)"/>
      <use xlink:href="#DejaVuSans-6b" transform="translate(126.318359 0)"/>
      <use xlink:href="#DejaVuSans-75" transform="translate(181.103516 0)"/>
      <use xlink:href="#DejaVuSans-6d" transform="translate(244.482422 0)"/>
      <use xlink:href="#DejaVuSans-75" transform="translate(341.894531 0)"/>
      <use xlink:href="#DejaVuSans-6c" transform="translate(405.273438 0)"/>
      <use xlink:href="#DejaVuSans-61" transform="translate(433.056641 0)"/>
      <use xlink:href="#DejaVuSans-74" transform="translate(494.335938 0)"/>
      <use xlink:href="#DejaVuSans-6f" transform="translate(533.544922 0)"/>
      <use xlink:href="#DejaVuSans-72" transform="translate(594.726562 0)"/>
      <use xlink:href="#DejaVuSans-76" transform="translate(635.839844 0)"/>
      <use xlink:href="#DejaVuSans-6f" transform="translate(695.019531 0)"/>
      <use xlink:href="#DejaVuSans-6c" transform="translate(756.201172 0)"/>
      <use xlink:href="#DejaVuSans-75" transform="translate(783.984375 0)"/>
      <use xlink:href="#DejaVuSans-6d" transform="translate(847.363281 0)"/>
      <use xlink:href="#DejaVuSans-65" transform="translate(944.775391 0)"/>
      <use xlink:href="#DejaVuSans-6e" transform="translate(1006.298828 0)"/>
      <use xlink:href="#DejaVuSans-20" transform="translate(1069.677734 0)"/>
      <use xlink:href="#DejaVuSans-56" transform="translate(1101.464844 0)"/>
      <use xlink:href="#DejaVuSans-5f" transform="translate(1169.873047 0)"/>
      <use xlink:href="#DejaVuSans-61" transform="translate(1219.873047 0)"/>
      <use xlink:href="#DejaVuSans-63" transform="translate(1281.152344 0)"/>
      <use xlink:href="#DejaVuSans-63" transform="translate(1336.132812 0)"/>
      <use xlink:href="#DejaVuSans-20" transform="translate(1391.113281 0)"/>
      <use xlink:href="#DejaVuSans-5b" transform="translate(1422.900391 0)"/>
      <use xlink:href="#DejaVuSans-4c" transform="translate(1461.914062 0)"/>
      <use xlink:href="#DejaVuSans-5d" transform="translate(1517.626953 0)"/>
     </g>
    </g>
   </g>
   <g id="matplotlib.axis_2">
    <g id="ytick_1">
     <g id="line2d_6">
      <defs>
       <path id="m8f43b23483" d="M 0 0 
L -3.5 0 
" style="stroke: #000000; stroke-width: 0.8"/>
      </defs>
      <g>
       <use xlink:href="#m8f43b23483" x="53.60625" y="320.4" style="stroke: #000000; stroke-width: 0.8"/>
      </g>
     </g>
     <g id="text_7">
      <!-- 500 -->
      <g transform="translate(27.51875 324.199219) scale(0.1 -0.1)">
       <defs>
        <path id="DejaVuSans-30" d="M 2034 4250 
Q 1547 4250 1301 3770 
Q 1056 3291 1056 2328 
Q 1056 1369 1301 889 
Q 1547 409 2034 409 
Q 2525 409 2770 889 
Q 3016 1369 3016 2328 
Q 3016 3291 2770 3770 
Q 2525 4250 2034 4250 
z
M 2034 4750 
Q 2819 4750 3233 4129 
Q 3647 3509 3647 2328 
Q 3647 1150 3233 529 
Q 2819 -91 2034 -91 
Q 1250 -91 836 529 
Q 422 1150 422 2328 
Q 422 3509 836 4129 
Q 1250 4750 2034 4750 
z
" transform="scale(0.015625)"/>
       </defs>
       <use xlink:href="#DejaVuSans-35"/>
       <use xlink:href="#DejaVuSans-30" transform="translate(63.623047 0)"/>
       <use xlink:href="#DejaVuSans-30" transform="translate(127.246094 0)"/>
      </g>
     </g>
    </g>
    <g id="ytick_2">
     <g id="line2d_7">
      <g>
       <use xlink:href="#m8f43b23483" x="53.60625" y="285.75" style="stroke: #000000; stroke-width: 0.8"/>
      </g>
     </g>
     <g id="text_8">
      <!-- 750 -->
      <g transform="translate(27.51875 289.549219) scale(0.1 -0.1)">
       <defs>
        <path id="DejaVuSans-37" d="M 525 4666 
L 3525 4666 
L 3525 4397 
L 1831 0 
L 1172 0 
L 2766 4134 
L 525 4134 
L 525 4666 
z
" transform="scale(0.015625)"/>
       </defs>
       <use xlink:href="#DejaVuSans-37"/>
       <use xlink:href="#DejaVuSans-35" transform="translate(63.623047 0)"/>
       <use xlink:href="#DejaVuSans-30" transform="translate(127.246094 0)"/>
      </g>
     </g>
    </g>
    <g id="ytick_3">
     <g id="line2d_8">
      <g>
       <use xlink:href="#m8f43b23483" x="53.60625" y="251.1" style="stroke: #000000; stroke-width: 0.8"/>
      </g>
     </g>
     <g id="text_9">
      <!-- 1000 -->
      <g transform="translate(21.15625 254.899219) scale(0.1 -0.1)">
       <use xlink:href="#DejaVuSans-31"/>
       <use xlink:href="#DejaVuSans-30" transform="translate(63.623047 0)"/>
       <use xlink:href="#DejaVuSans-30" transform="translate(127.246094 0)"/>
       <use xlink:href="#DejaVuSans-30" transform="translate(190.869141 0)"/>
      </g>
     </g>
    </g>
    <g id="ytick_4">
     <g id="line2d_9">
      <g>
       <use xlink:href="#m8f43b23483" x="53.60625" y="216.45" style="stroke: #000000; stroke-width: 0.8"/>
      </g>
     </g>
     <g id="text_10">
      <!-- 1250 -->
      <g transform="translate(21.15625 220.249219) scale(0.1 -0.1)">
       <use xlink:href="#DejaVuSans-31"/>
       <use xlink:href="#DejaVuSans-32" transform="translate(63.623047 0)"/>
       <use xlink:href="#DejaVuSans-35" transform="translate(127.246094 0)"/>
       <use xlink:href="#DejaVuSans-30" transform="translate(190.869141 0)"/>
      </g>
     </g>
    </g>
    <g id="ytick_5">
     <g id="line2d_10">
      <g>
       <use xlink:href="#m8f43b23483" x="53.60625" y="181.8" style="stroke: #000000; stroke-width: 0.8"/>
      </g>
     </g>
     <g id="text_11">
      <!-- 1500 -->
      <g transform="translate(21.15625 185.599219) scale(0.1 -0.1)">
       <use xlink:href="#DejaVuSans-31"/>
       <use xlink:href="#DejaVuSans-35" transform="translate(63.623047 0)"/>
       <use xlink:href="#DejaVuSans-30" transform="translate(127.246094 0)"/>
       <use xlink:href="#DejaVuSans-30" transform="translate(190.869141 0)"/>
      </g>
     </g>
    </g>
    <g id="ytick_6">
     <g id="line2d_11">
      <g>
       <use xlink:href="#m8f43b23483" x="53.60625" y="147.15" style="stroke: #000000; stroke-width: 0.8"/>
      </g>
     </g>
     <g id="text_12">
      <!-- 1750 -->
      <g transform="translate(21.15625 150.949219) scale(0.1 -0.1)">
       <use xlink:href="#DejaVuSans-31"/>
       <use xlink:href="#DejaVuSans-37" transform="translate(63.623047 0)"/>
       <use xlink:href="#DejaVuSans-35" transform="translate(127.246094 0)"/>
       <use xlink:href="#DejaVuSans-30" transform="translate(190.869141 0)"/>
      </g>
     </g>
    </g>
    <g id="ytick_7">
     <g id="line2d_12">
      <g>
       <use xlink:href="#m8f43b23483" x="53.60625" y="112.5" style="stroke: #000000; stroke-width: 0.8"/>
      </g>
     </g>
     <g id="text_13">
      <!-- 2000 -->
      <g transform="translate(21.15625 116.299219) scale(0.1 -0.1)">
       <use xlink:href="#DejaVuSans-32"/>
       <use xlink:href="#DejaVuSans-30" transform="translate(63.623047 0)"/>
       <use xlink:href="#DejaVuSans-30" transform="translate(127.246094 0)"/>
       <use xlink:href="#DejaVuSans-30" transform="translate(190.869141 0)"/>
      </g>
     </g>
    </g>
    <g id="ytick_8">
     <g id="line2d_13">
      <g>
       <use xlink:href="#m8f43b23483" x="53.60625" y="77.85" style="stroke: #000000; stroke-width: 0.8"/>
      </g>
     </g>
     <g id="text_14">
      <!-- 2250 -->
      <g transform="translate(21.15625 81.649219) scale(0.1 -0.1)">
       <use xlink:href="#DejaVuSans-32"/>
       <use xlink:href="#DejaVuSans-32" transform="translate(63.623047 0)"/>
       <use xlink:href="#DejaVuSans-35" transform="translate(127.246094 0)"/>
       <use xlink:href="#DejaVuSans-30" transform="translate(190.869141 0)"/>
      </g>
     </g>
    </g>
    <g id="ytick_9">
     <g id="line2d_14">
      <g>
       <use xlink:href="#m8f43b23483" x="53.60625" y="43.2" style="stroke: #000000; stroke-width: 0.8"/>
      </g>
     </g>
     <g id="text_15">
      <!-- 2500 -->
      <g transform="translate(21.15625 46.999219) scale(0.1 -0.1)">
       <use xlink:href="#DejaVuSans-32"/>
       <use xlink:href="#DejaVuSans-35" transform="translate(63.623047 0)"/>
       <use xlink:href="#DejaVuSans-30" transform="translate(127.246094 0)"/>
       <use xlink:href="#DejaVuSans-30" transform="translate(190.869141 0)"/>
      </g>
     </g>
    </g>
    <g id="text_16">
     <!-- K_eff [MPa] -->
     <g transform="translate(14.798437 209.834375) rotate(-90) scale(0.1 -0.1)">
      <defs>
       <path id="DejaVuSans-4b" d="M 628 4666 
L 1259 4666 
L 1259 2694 
L 3353 4666 
L 4166 4666 
L 1850 2491 
L 4331 0 
L 3500 0 
L 1259 2247 
L 1259 0 
L 628 0 
L 628 4666 
z
" transform="scale(0.015625)"/>
       <path id="DejaVuSans-66" d="M 2375 4863 
L 2375 4384 
L 1825 4384 
Q 1516 4384 1395 4259 
Q 1275 4134 1275 3809 
L 1275 3500 
L 2222 3500 
L 2222 3053 
L 1275 3053 
L 1275 0 
L 697 0 
L 697 3053 
L 147 3053 
L 147 3500 
L 697 3500 
L 697 3744 
Q 697 4328 969 4595 
Q 1241 4863 1831 4863 
L 2375 4863 
z
" transform="scale(0.015625)"/>
       <path id="DejaVuSans-4d" d="M 628 4666 
L 1569 4666 
L 2759 1491 
L 3956 4666 
L 4897 4666 
L 4897 0 
L 4281 0 
L 4281 4097 
L 3078 897 
L 2444 897 
L 1241 4097 
L 1241 0 
L 628 0 
L 628 4666 
z
" transform="scale(0.015625)"/>
       <path id="DejaVuSans-50" d="M 1259 4147 
L 1259 2394 
L 2053 2394 
Q 2494 2394 2734 2622 
Q 2975 2850 2975 3272 
Q 2975 3691 2734 3919 
Q 2494 4147 2053 4147 
L 1259 4147 
z
M 628 4666 
L 2053 4666 
Q 2838 4666 3239 4311 
Q 3641 3956 3641 3272 
Q 3641 2581 3239 2228 
Q 2838 1875 2053 1875 
L 1259 1875 
L 1259 0 
L 628 0 
L 628 4666 
z
" transform="scale(0.015625)"/>
      </defs>
      <use xlink:href="#DejaVuSans-4b"/>
      <use xlink:href="#DejaVuSans-5f" transform="translate(65.576172 0)"/>
      <use xlink:href="#DejaVuSans-65" transform="translate(115.576172 0)"/>
      <use xlink:href="#DejaVuSans-66" transform="translate(177.099609 0)"/>
      <use xlink:href="#DejaVuSans-66" transform="translate(212.304688 0)"/>
      <use xlink:href="#DejaVuSans-20" transform="translate(247.509766 0)"/>
      <use xlink:href="#DejaVuSans-5b" transform="translate(279.296875 0)"/>
      <use xlink:href="#DejaVuSans-4d" transform="translate(318.310547 0)"/>
      <use xlink:href="#DejaVuSans-50" transform="translate(404.589844 0)"/>
      <use xlink:href="#DejaVuSans-61" transform="translate(460.392578 0)"/>
      <use xlink:href="#DejaVuSans-5d" transform="translate(521.671875 0)"/>
     </g>
    </g>
   </g>
   <g id="patch_3">
    <path d="M 53.60625 320.4 
L 53.60625 43.2 
" style="fill: none; stroke: #000000; stroke-width: 0.8; stroke-linejoin: miter; stroke-linecap: square"/>
   </g>
   <g id="patch_4">
    <path d="M 317.388068 320.4 
L 317.388068 43.2 
" style="fill: none; stroke: #000000; stroke-width: 0.8; stroke-linejoin: miter; stroke-linecap: square"/>
   </g>
   <g id="patch_5">
    <path d="M 53.60625 320.4 
L 317.388068 320.4 
" style="fill: none; stroke: #000000; stroke-width: 0.8; stroke-linejoin: miter; stroke-linecap: square"/>
   </g>
   <g id="patch_6">
    <path d="M 53.60625 43.2 
L 317.388068 43.2 
" style="fill: none; stroke: #000000; stroke-width: 0.8; stroke-linejoin: miter; stroke-linecap: square"/>
   </g>
   <g id="text_17">
    <!-- Rekuperationsgrad η_Rek (E_Verlust = 500 J) -->
    <g transform="translate(50.921847 37.2) scale(0.12 -0.12)">
     <defs>
      <path id="DejaVuSans-52" d="M 2841 2188 
Q 3044 2119 3236 1894 
Q 3428 1669 3622 1275 
L 4263 0 
L 3584 0 
L 2988 1197 
Q 2756 1666 2539 1819 
Q 2322 1972 1947 1972 
L 1259 1972 
L 1259 0 
L 628 0 
L 628 4666 
L 2053 4666 
Q 2853 4666 3247 4331 
Q 3641 3997 3641 3322 
Q 3641 2881 3436 2590 
Q 3231 2300 2841 2188 
z
M 1259 4147 
L 1259 2491 
L 2053 2491 
Q 2509 2491 2742 2702 
Q 2975 2913 2975 3322 
Q 2975 3731 2742 3939 
Q 2509 4147 2053 4147 
L 1259 4147 
z
" transform="scale(0.015625)"/>
      <path id="DejaVuSans-70" d="M 1159 525 
L 1159 -1331 
L 581 -1331 
L 581 3500 
L 1159 3500 
L 1159 2969 
Q 1341 3281 1617 3432 
Q 1894 3584 2278 3584 
Q 2916 3584 3314 3078 
Q 3713 2572 3713 1747 
Q 3713 922 3314 415 
Q 2916 -91 2278 -91 
Q 1894 -91 1617 61 
Q 1341 213 1159 525 
z
M 3116 1747 
Q 3116 2381 2855 2742 
Q 2594 3103 2138 3103 
Q 1681 3103 1420 2742 
Q 1159 2381 1159 1747 
Q 1159 1113 1420 752 
Q 1681 391 2138 391 
Q 2594 391 2855 752 
Q 3116 1113 3116 1747 
z
" transform="scale(0.015625)"/>
      <path id="DejaVuSans-69" d="M 603 3500 
L 1178 3500 
L 1178 0 
L 603 0 
L 603 3500 
z
M 603 4863 
L 1178 4863 
L 1178 4134 
L 603 4134 
L 603 4863 
z
" transform="scale(0.015625)"/>
      <path id="DejaVuSans-73" d="M 2834 3397 
L 2834 2853 
Q 2591 2978 2328 3040 
Q 2066 3103 1784 3103 
Q 1356 3103 1142 2972 
Q 928 2841 928 2578 
Q 928 2378 1081 2264 
Q 1234 2150 1697 2047 
L 1894 2003 
Q 2506 1872 2764 1633 
Q 3022 1394 3022 966 
Q 3022 478 2636 193 
Q 2250 -91 1575 -91 
Q 1294 -91 989 -36 
Q 684 19 347 128 
L 347 722 
Q 666 556 975 473 
Q 1284 391 1588 391 
Q 1994 391 2212 530 
Q 2431 669 2431 922 
Q 2431 1156 2273 1281 
Q 2116 1406 1581 1522 
L 1381 1569 
Q 847 1681 609 1914 
Q 372 2147 372 2553 
Q 372 3047 722 3315 
Q 1072 3584 1716 3584 
Q 2034 3584 2315 3537 
Q 2597 3491 2834 3397 
z
" transform="scale(0.015625)"/>
      <path id="DejaVuSans-67" d="M 2906 1791 
Q 2906 2416 2648 2759 
Q 2391 3103 1925 3103 
Q 1463 3103 1205 2759 
Q 947 2416 947 1791 
Q 947 1169 1205 825 
Q 1463 481 1925 481 
Q 2391 481 2648 825 
Q 2906 1169 2906 1791 
z
M 3481 434 
Q 3481 -459 3084 -895 
Q 2688 -1331 1869 -1331 
Q 1566 -1331 1297 -1286 
Q 1028 -1241 775 -1147 
L 775 -588 
Q 1028 -725 1275 -790 
Q 1522 -856 1778 -856 
Q 2344 -856 2625 -561 
Q 2906 -266 2906 331 
L 2906 616 
Q 2728 306 2450 153 
Q 2172 0 1784 0 
Q 1141 0 747 490 
Q 353 981 353 1791 
Q 353 2603 747 3093 
Q 1141 3584 1784 3584 
Q 2172 3584 2450 3431 
Q 2728 3278 2906 2969 
L 2906 3500 
L 3481 3500 
L 3481 434 
z
" transform="scale(0.015625)"/>
      <path id="DejaVuSans-64" d="M 2906 2969 
L 2906 4863 
L 3481 4863 
L 3481 0 
L 2906 0 
L 2906 525 
Q 2725 213 2448 61 
Q 2172 -91 1784 -91 
Q 1150 -91 751 415 
Q 353 922 353 1747 
Q 353 2572 751 3078 
Q 1150 3584 1784 3584 
Q 2172 3584 2448 3432 
Q 2725 3281 2906 2969 
z
M 947 1747 
Q 947 1113 1208 752 
Q 1469 391 1925 391 
Q 2381 391 2643 752 
Q 2906 1113 2906 1747 
Q 2906 2381 2643 2742 
Q 2381 3103 1925 3103 
Q 1469 3103 1208 2742 
Q 947 2381 947 1747 
z
" transform="scale(0.015625)"/>
      <path id="DejaVuSans-3b7" d="M 3513 2113 
L 3513 -1331 
L 2938 -1331 
L 2938 2094 
Q 2938 2591 2744 2837 
Q 2550 3084 2163 3084 
Q 1697 3084 1428 2787 
Q 1159 2491 1159 1978 
L 1159 0 
L 581 0 
L 581 3500 
L 1159 3500 
L 1159 2956 
Q 1366 3272 1644 3428 
Q 1925 3584 2291 3584 
Q 2894 3584 3203 3213 
Q 3513 2838 3513 2113 
z
" transform="scale(0.015625)"/>
      <path id="DejaVuSans-28" d="M 1984 4856 
Q 1566 4138 1362 3434 
Q 1159 2731 1159 2009 
Q 1159 1288 1364 580 
Q 1569 -128 1984 -844 
L 1484 -844 
Q 1016 -109 783 600 
Q 550 1309 550 2009 
Q 550 2706 781 3412 
Q 1013 4119 1484 4856 
L 1984 4856 
z
" transform="scale(0.015625)"/>
      <path id="DejaVuSans-45" d="M 628 4666 
L 3578 4666 
L 3578 4134 
L 1259 4134 
L 1259 2753 
L 3481 2753 
L 3481 2222 
L 1259 2222 
L 1259 531 
L 3634 531 
L 3634 0 
L 628 0 
L 628 4666 
z
" transform="scale(0.015625)"/>
      <path id="DejaVuSans-3d" d="M 678 2906 
L 4684 2906 
L 4684 2381 
L 678 2381 
L 678 2906 
z
M 678 1631 
L 4684 1631 
L 4684 1100 
L 678 1100 
L 678 1631 
z
" transform="scale(0.015625)"/>
      <path id="DejaVuSans-4a" d="M 628 4666 
L 1259 4666 
L 1259 325 
Q 1259 -519 939 -900 
Q 619 -1281 -91 -1281 
L -331 -1281 
L -331 -750 
L -134 -750 
Q 284 -750 456 -515 
Q 628 -281 628 325 
L 628 4666 
z
" transform="scale(0.015625)"/>
      <path id="DejaVuSans-29" d="M 513 4856 
L 1013 4856 
Q 1481 4119 1714 3412 
Q 1947 2706 1947 2009 
Q 1947 1309 1714 600 
Q 1481 -109 1013 -844 
L 513 -844 
Q 928 -128 1133 580 
Q 1338 1288 1338 2009 
Q 1338 2731 1133 3434 
Q 928 4138 513 4856 
z
" transform="scale(0.015625)"/>
     </defs>
     <use xlink:href="#DejaVuSans-52"/>
     <use xlink:href="#DejaVuSans-65" transform="translate(64.982422 0)"/>
     <use xlink:href="#DejaVuSans-6b" transform="translate(126.505859 0)"/>
     <use xlink:href="#DejaVuSans-75" transform="translate(181.291016 0)"/>
     <use xlink:href="#DejaVuSans-70" transform="translate(244.669922 0)"/>
     <use xlink:href="#DejaVuSans-65" transform="translate(308.146484 0)"/>
     <use xlink:href="#DejaVuSans-72" transform="translate(369.669922 0)"/>
     <use xlink:href="#DejaVuSans-61" transform="translate(410.783203 0)"/>
     <use xlink:href="#DejaVuSans-74" transform="translate(472.0625 0)"/>
     <use xlink:href="#DejaVuSans-69" transform="translate(511.271484 0)"/>
     <use xlink:href="#DejaVuSans-6f" transform="translate(539.054688 0)"/>
     <use xlink:href="#DejaVuSans-6e" transform="translate(600.236328 0)"/>
     <use xlink:href="#DejaVuSans-73" transform="translate(663.615234 0)"/>
     <use xlink:href="#DejaVuSans-67" transform="translate(715.714844 0)"/>
     <use xlink:href="#DejaVuSans-72" transform="translate(779.191406 0)"/>
     <use xlink:href="#DejaVuSans-61" transform="translate(820.304688 0)"/>
     <use xlink:href="#DejaVuSans-64" transform="translate(881.583984 0)"/>
     <use xlink:href="#DejaVuSans-20" transform="translate(945.060547 0)"/>
     <use xlink:href="#DejaVuSans-3b7" transform="translate(976.847656 0)"/>
     <use xlink:href="#DejaVuSans-5f" transform="translate(1040.226562 0)"/>
     <use xlink:href="#DejaVuSans-52" transform="translate(1090.226562 0)"/>
     <use xlink:href="#DejaVuSans-65" transform="translate(1155.208984 0)"/>
     <use xlink:href="#DejaVuSans-6b" transform="translate(1216.732422 0)"/>
     <use xlink:href="#DejaVuSans-20" transform="translate(1274.642578 0)"/>
     <use xlink:href="#DejaVuSans-28" transform="translate(1306.429688 0)"/>
     <use xlink:href="#DejaVuSans-45" transform="translate(1345.443359 0)"/>
     <use xlink:href="#DejaVuSans-5f" transform="translate(1408.626953 0)"/>
     <use xlink:href="#DejaVuSans-56" transform="translate(1458.626953 0)"/>
     <use xlink:href="#DejaVuSans-65" transform="translate(1519.285156 0)"/>
     <use xlink:href="#DejaVuSans-72" transform="translate(1580.808594 0)"/>
     <use xlink:href="#DejaVuSans-6c" transform="translate(1621.921875 0)"/>
     <use xlink:href="#DejaVuSans-75" transform="translate(1649.705078 0)"/>
     <use xlink:href="#DejaVuSans-73" transform="translate(1713.083984 0)"/>
     <use xlink:href="#DejaVuSans-74" transform="translate(1765.183594 0)"/>
     <use xlink:href="#DejaVuSans-20" transform="translate(1804.392578 0)"/>
     <use xlink:href="#DejaVuSans-3d" transform="translate(1836.179688 0)"/>
     <use xlink:href="#DejaVuSans-20" transform="translate(1919.96875 0)"/>
     <use xlink:href="#DejaVuSans-35" transform="translate(1951.755859 0)"/>
     <use xlink:href="#DejaVuSans-30" transform="translate(2015.378906 0)"/>
     <use xlink:href="#DejaVuSans-30" transform="translate(2079.001953 0)"/>
     <use xlink:href="#DejaVuSans-20" transform="translate(2142.625 0)"/>
     <use xlink:href="#DejaVuSans-4a" transform="translate(2174.412109 0)"/>
     <use xlink:href="#DejaVuSans-29" transform="translate(2203.904297 0)"/>
    </g>
   </g>
  </g>
  <g id="axes_2">
   <g id="patch_7">
    <path d="M 449.278977 320.4 
L 779.00625 320.4 
L 779.00625 43.2 
L 449.278977 43.2 
z
" style="fill: #ffffff"/>
   </g>
   <g id="matplotlib.axis_3">
    <g id="xtick_6">
     <g id="line2d_15">
      <path d="M 464.266581 320.4 
L 464.266581 43.2 
" clip-path="url(#pf242102a90)" style="fill: none; stroke: #b0b0b0; stroke-opacity: 0.3; stroke-width: 0.8; stroke-linecap: square"/>
     </g>
     <g id="line2d_16">
      <g>
       <use xlink:href="#m0aaf1f45db" x="464.266581" y="320.4" style="stroke: #000000; stroke-width: 0.8"/>
      </g>
     </g>
     <g id="text_18">
      <!-- 0 -->
      <g transform="translate(461.085331 334.998437) scale(0.1 -0.1)">
       <use xlink:href="#DejaVuSans-30"/>
      </g>
     </g>
    </g>
    <g id="xtick_7">
     <g id="line2d_17">
      <path d="M 507.088304 320.4 
L 507.088304 43.2 
" clip-path="url(#pf242102a90)" style="fill: none; stroke: #b0b0b0; stroke-opacity: 0.3; stroke-width: 0.8; stroke-linecap: square"/>
     </g>
     <g id="line2d_18">
      <g>
       <use xlink:href="#m0aaf1f45db" x="507.088304" y="320.4" style="stroke: #000000; stroke-width: 0.8"/>
      </g>
     </g>
     <g id="text_19">
      <!-- 50 -->
      <g transform="translate(500.725804 334.998437) scale(0.1 -0.1)">
       <use xlink:href="#DejaVuSans-35"/>
       <use xlink:href="#DejaVuSans-30" transform="translate(63.623047 0)"/>
      </g>
     </g>
    </g>
    <g id="xtick_8">
     <g id="line2d_19">
      <path d="M 549.910028 320.4 
L 549.910028 43.2 
" clip-path="url(#pf242102a90)" style="fill: none; stroke: #b0b0b0; stroke-opacity: 0.3; stroke-width: 0.8; stroke-linecap: square"/>
     </g>
     <g id="line2d_20">
      <g>
       <use xlink:href="#m0aaf1f45db" x="549.910028" y="320.4" style="stroke: #000000; stroke-width: 0.8"/>
      </g>
     </g>
     <g id="text_20">
      <!-- 100 -->
      <g transform="translate(540.366278 334.998437) scale(0.1 -0.1)">
       <use xlink:href="#DejaVuSans-31"/>
       <use xlink:href="#DejaVuSans-30" transform="translate(63.623047 0)"/>
       <use xlink:href="#DejaVuSans-30" transform="translate(127.246094 0)"/>
      </g>
     </g>
    </g>
    <g id="xtick_9">
     <g id="line2d_21">
      <path d="M 592.731752 320.4 
L 592.731752 43.2 
" clip-path="url(#pf242102a90)" style="fill: none; stroke: #b0b0b0; stroke-opacity: 0.3; stroke-width: 0.8; stroke-linecap: square"/>
     </g>
     <g id="line2d_22">
      <g>
       <use xlink:href="#m0aaf1f45db" x="592.731752" y="320.4" style="stroke: #000000; stroke-width: 0.8"/>
      </g>
     </g>
     <g id="text_21">
      <!-- 150 -->
      <g transform="translate(583.188002 334.998437) scale(0.1 -0.1)">
       <use xlink:href="#DejaVuSans-31"/>
       <use xlink:href="#DejaVuSans-35" transform="translate(63.623047 0)"/>
       <use xlink:href="#DejaVuSans-30" transform="translate(127.246094 0)"/>
      </g>
     </g>
    </g>
    <g id="xtick_10">
     <g id="line2d_23">
      <path d="M 635.553476 320.4 
L 635.553476 43.2 
" clip-path="url(#pf242102a90)" style="fill: none; stroke: #b0b0b0; stroke-opacity: 0.3; stroke-width: 0.8; stroke-linecap: square"/>
     </g>
     <g id="line2d_24">
      <g>
       <use xlink:href="#m0aaf1f45db" x="635.553476" y="320.4" style="stroke: #000000; stroke-width: 0.8"/>
      </g>
     </g>
     <g id="text_22">
      <!-- 200 -->
      <g transform="translate(626.009726 334.998437) scale(0.1 -0.1)">
       <use xlink:href="#DejaVuSans-32"/>
       <use xlink:href="#DejaVuSans-30" transform="translate(63.623047 0)"/>
       <use xlink:href="#DejaVuSans-30" transform="translate(127.246094 0)"/>
      </g>
     </g>
    </g>
    <g id="xtick_11">
     <g id="line2d_25">
      <path d="M 678.375199 320.4 
L 678.375199 43.2 
" clip-path="url(#pf242102a90)" style="fill: none; stroke: #b0b0b0; stroke-opacity: 0.3; stroke-width: 0.8; stroke-linecap: square"/>
     </g>
     <g id="line2d_26">
      <g>
       <use xlink:href="#m0aaf1f45db" x="678.375199" y="320.4" style="stroke: #000000; stroke-width: 0.8"/>
      </g>
     </g>
     <g id="text_23">
      <!-- 250 -->
      <g transform="translate(668.831449 334.998437) scale(0.1 -0.1)">
       <use xlink:href="#DejaVuSans-32"/>
       <use xlink:href="#DejaVuSans-35" transform="translate(63.623047 0)"/>
       <use xlink:href="#DejaVuSans-30" transform="translate(127.246094 0)"/>
      </g>
     </g>
    </g>
    <g id="xtick_12">
     <g id="line2d_27">
      <path d="M 721.196923 320.4 
L 721.196923 43.2 
" clip-path="url(#pf242102a90)" style="fill: none; stroke: #b0b0b0; stroke-opacity: 0.3; stroke-width: 0.8; stroke-linecap: square"/>
     </g>
     <g id="line2d_28">
      <g>
       <use xlink:href="#m0aaf1f45db" x="721.196923" y="320.4" style="stroke: #000000; stroke-width: 0.8"/>
      </g>
     </g>
     <g id="text_24">
      <!-- 300 -->
      <g transform="translate(711.653173 334.998437) scale(0.1 -0.1)">
       <use xlink:href="#DejaVuSans-33"/>
       <use xlink:href="#DejaVuSans-30" transform="translate(63.623047 0)"/>
       <use xlink:href="#DejaVuSans-30" transform="translate(127.246094 0)"/>
      </g>
     </g>
    </g>
    <g id="xtick_13">
     <g id="line2d_29">
      <path d="M 764.018647 320.4 
L 764.018647 43.2 
" clip-path="url(#pf242102a90)" style="fill: none; stroke: #b0b0b0; stroke-opacity: 0.3; stroke-width: 0.8; stroke-linecap: square"/>
     </g>
     <g id="line2d_30">
      <g>
       <use xlink:href="#m0aaf1f45db" x="764.018647" y="320.4" style="stroke: #000000; stroke-width: 0.8"/>
      </g>
     </g>
     <g id="text_25">
      <!-- 350 -->
      <g transform="translate(754.474897 334.998437) scale(0.1 -0.1)">
       <use xlink:href="#DejaVuSans-33"/>
       <use xlink:href="#DejaVuSans-35" transform="translate(63.623047 0)"/>
       <use xlink:href="#DejaVuSans-30" transform="translate(127.246094 0)"/>
      </g>
     </g>
    </g>
    <g id="text_26">
     <!-- Druck [bar] -->
     <g transform="translate(585.639489 348.676562) scale(0.1 -0.1)">
      <defs>
       <path id="DejaVuSans-44" d="M 1259 4147 
L 1259 519 
L 2022 519 
Q 2988 519 3436 956 
Q 3884 1394 3884 2338 
Q 3884 3275 3436 3711 
Q 2988 4147 2022 4147 
L 1259 4147 
z
M 628 4666 
L 1925 4666 
Q 3281 4666 3915 4102 
Q 4550 3538 4550 2338 
Q 4550 1131 3912 565 
Q 3275 0 1925 0 
L 628 0 
L 628 4666 
z
" transform="scale(0.015625)"/>
       <path id="DejaVuSans-62" d="M 3116 1747 
Q 3116 2381 2855 2742 
Q 2594 3103 2138 3103 
Q 1681 3103 1420 2742 
Q 1159 2381 1159 1747 
Q 1159 1113 1420 752 
Q 1681 391 2138 391 
Q 2594 391 2855 752 
Q 3116 1113 3116 1747 
z
M 1159 2969 
Q 1341 3281 1617 3432 
Q 1894 3584 2278 3584 
Q 2916 3584 3314 3078 
Q 3713 2572 3713 1747 
Q 3713 922 3314 415 
Q 2916 -91 2278 -91 
Q 1894 -91 1617 61 
Q 1341 213 1159 525 
L 1159 0 
L 581 0 
L 581 4863 
L 1159 4863 
L 1159 2969 
z
" transform="scale(0.015625)"/>
      </defs>
      <use xlink:href="#DejaVuSans-44"/>
      <use xlink:href="#DejaVuSans-72" transform="translate(77.001953 0)"/>
      <use xlink:href="#DejaVuSans-75" transform="translate(118.115234 0)"/>
      <use xlink:href="#DejaVuSans-63" transform="translate(181.494141 0)"/>
      <use xlink:href="#DejaVuSans-6b" transform="translate(236.474609 0)"/>
      <use xlink:href="#DejaVuSans-20" transform="translate(294.384766 0)"/>
      <use xlink:href="#DejaVuSans-5b" transform="translate(326.171875 0)"/>
      <use xlink:href="#DejaVuSans-62" transform="translate(365.185547 0)"/>
      <use xlink:href="#DejaVuSans-61" transform="translate(428.662109 0)"/>
      <use xlink:href="#DejaVuSans-72" transform="translate(489.941406 0)"/>
      <use xlink:href="#DejaVuSans-5d" transform="translate(531.054688 0)"/>
     </g>
    </g>
   </g>
   <g id="matplotlib.axis_4">
    <g id="ytick_10">
     <g id="line2d_31">
      <path d="M 449.278977 307.8 
L 779.00625 307.8 
" clip-path="url(#pf242102a90)" style="fill: none; stroke: #b0b0b0; stroke-opacity: 0.3; stroke-width: 0.8; stroke-linecap: square"/>
     </g>
     <g id="line2d_32">
      <g>
       <use xlink:href="#m8f43b23483" x="449.278977" y="307.8" style="stroke: #000000; stroke-width: 0.8"/>
      </g>
     </g>
     <g id="text_27">
      <!-- 0.0 -->
      <g transform="translate(426.375852 311.599219) scale(0.1 -0.1)">
       <defs>
        <path id="DejaVuSans-2e" d="M 684 794 
L 1344 794 
L 1344 0 
L 684 0 
L 684 794 
z
" transform="scale(0.015625)"/>
       </defs>
       <use xlink:href="#DejaVuSans-30"/>
       <use xlink:href="#DejaVuSans-2e" transform="translate(63.623047 0)"/>
       <use xlink:href="#DejaVuSans-30" transform="translate(95.410156 0)"/>
      </g>
     </g>
    </g>
    <g id="ytick_11">
     <g id="line2d_33">
      <path d="M 449.278977 276.942857 
L 779.00625 276.942857 
" clip-path="url(#pf242102a90)" style="fill: none; stroke: #b0b0b0; stroke-opacity: 0.3; stroke-width: 0.8; stroke-linecap: square"/>
     </g>
     <g id="line2d_34">
      <g>
       <use xlink:href="#m8f43b23483" x="449.278977" y="276.942857" style="stroke: #000000; stroke-width: 0.8"/>
      </g>
     </g>
     <g id="text_28">
      <!-- 0.1 -->
      <g transform="translate(426.375852 280.742076) scale(0.1 -0.1)">
       <use xlink:href="#DejaVuSans-30"/>
       <use xlink:href="#DejaVuSans-2e" transform="translate(63.623047 0)"/>
       <use xlink:href="#DejaVuSans-31" transform="translate(95.410156 0)"/>
      </g>
     </g>
    </g>
    <g id="ytick_12">
     <g id="line2d_35">
      <path d="M 449.278977 246.085714 
L 779.00625 246.085714 
" clip-path="url(#pf242102a90)" style="fill: none; stroke: #b0b0b0; stroke-opacity: 0.3; stroke-width: 0.8; stroke-linecap: square"/>
     </g>
     <g id="line2d_36">
      <g>
       <use xlink:href="#m8f43b23483" x="449.278977" y="246.085714" style="stroke: #000000; stroke-width: 0.8"/>
      </g>
     </g>
     <g id="text_29">
      <!-- 0.2 -->
      <g transform="translate(426.375852 249.884933) scale(0.1 -0.1)">
       <use xlink:href="#DejaVuSans-30"/>
       <use xlink:href="#DejaVuSans-2e" transform="translate(63.623047 0)"/>
       <use xlink:href="#DejaVuSans-32" transform="translate(95.410156 0)"/>
      </g>
     </g>
    </g>
    <g id="ytick_13">
     <g id="line2d_37">
      <path d="M 449.278977 215.228571 
L 779.00625 215.228571 
" clip-path="url(#pf242102a90)" style="fill: none; stroke: #b0b0b0; stroke-opacity: 0.3; stroke-width: 0.8; stroke-linecap: square"/>
     </g>
     <g id="line2d_38">
      <g>
       <use xlink:href="#m8f43b23483" x="449.278977" y="215.228571" style="stroke: #000000; stroke-width: 0.8"/>
      </g>
     </g>
     <g id="text_30">
      <!-- 0.3 -->
      <g transform="translate(426.375852 219.02779) scale(0.1 -0.1)">
       <use xlink:href="#DejaVuSans-30"/>
       <use xlink:href="#DejaVuSans-2e" transform="translate(63.623047 0)"/>
       <use xlink:href="#DejaVuSans-33" transform="translate(95.410156 0)"/>
      </g>
     </g>
    </g>
    <g id="ytick_14">
     <g id="line2d_39">
      <path d="M 449.278977 184.371429 
L 779.00625 184.371429 
" clip-path="url(#pf242102a90)" style="fill: none; stroke: #b0b0b0; stroke-opacity: 0.3; stroke-width: 0.8; stroke-linecap: square"/>
     </g>
     <g id="line2d_40">
      <g>
       <use xlink:href="#m8f43b23483" x="449.278977" y="184.371429" style="stroke: #000000; stroke-width: 0.8"/>
      </g>
     </g>
     <g id="text_31">
      <!-- 0.4 -->
      <g transform="translate(426.375852 188.170647) scale(0.1 -0.1)">
       <use xlink:href="#DejaVuSans-30"/>
       <use xlink:href="#DejaVuSans-2e" transform="translate(63.623047 0)"/>
       <use xlink:href="#DejaVuSans-34" transform="translate(95.410156 0)"/>
      </g>
     </g>
    </g>
    <g id="ytick_15">
     <g id="line2d_41">
      <path d="M 449.278977 153.514286 
L 779.00625 153.514286 
" clip-path="url(#pf242102a90)" style="fill: none; stroke: #b0b0b0; stroke-opacity: 0.3; stroke-width: 0.8; stroke-linecap: square"/>
     </g>
     <g id="line2d_42">
      <g>
       <use xlink:href="#m8f43b23483" x="449.278977" y="153.514286" style="stroke: #000000; stroke-width: 0.8"/>
      </g>
     </g>
     <g id="text_32">
      <!-- 0.5 -->
      <g transform="translate(426.375852 157.313504) scale(0.1 -0.1)">
       <use xlink:href="#DejaVuSans-30"/>
       <use xlink:href="#DejaVuSans-2e" transform="translate(63.623047 0)"/>
       <use xlink:href="#DejaVuSans-35" transform="translate(95.410156 0)"/>
      </g>
     </g>
    </g>
    <g id="ytick_16">
     <g id="line2d_43">
      <path d="M 449.278977 122.657143 
L 779.00625 122.657143 
" clip-path="url(#pf242102a90)" style="fill: none; stroke: #b0b0b0; stroke-opacity: 0.3; stroke-width: 0.8; stroke-linecap: square"/>
     </g>
     <g id="line2d_44">
      <g>
       <use xlink:href="#m8f43b23483" x="449.278977" y="122.657143" style="stroke: #000000; stroke-width: 0.8"/>
      </g>
     </g>
     <g id="text_33">
      <!-- 0.6 -->
      <g transform="translate(426.375852 126.456362) scale(0.1 -0.1)">
       <defs>
        <path id="DejaVuSans-36" d="M 2113 2584 
Q 1688 2584 1439 2293 
Q 1191 2003 1191 1497 
Q 1191 994 1439 701 
Q 1688 409 2113 409 
Q 2538 409 2786 701 
Q 3034 994 3034 1497 
Q 3034 2003 2786 2293 
Q 2538 2584 2113 2584 
z
M 3366 4563 
L 3366 3988 
Q 3128 4100 2886 4159 
Q 2644 4219 2406 4219 
Q 1781 4219 1451 3797 
Q 1122 3375 1075 2522 
Q 1259 2794 1537 2939 
Q 1816 3084 2150 3084 
Q 2853 3084 3261 2657 
Q 3669 2231 3669 1497 
Q 3669 778 3244 343 
Q 2819 -91 2113 -91 
Q 1303 -91 875 529 
Q 447 1150 447 2328 
Q 447 3434 972 4092 
Q 1497 4750 2381 4750 
Q 2619 4750 2861 4703 
Q 3103 4656 3366 4563 
z
" transform="scale(0.015625)"/>
       </defs>
       <use xlink:href="#DejaVuSans-30"/>
       <use xlink:href="#DejaVuSans-2e" transform="translate(63.623047 0)"/>
       <use xlink:href="#DejaVuSans-36" transform="translate(95.410156 0)"/>
      </g>
     </g>
    </g>
    <g id="ytick_17">
     <g id="line2d_45">
      <path d="M 449.278977 91.8 
L 779.00625 91.8 
" clip-path="url(#pf242102a90)" style="fill: none; stroke: #b0b0b0; stroke-opacity: 0.3; stroke-width: 0.8; stroke-linecap: square"/>
     </g>
     <g id="line2d_46">
      <g>
       <use xlink:href="#m8f43b23483" x="449.278977" y="91.8" style="stroke: #000000; stroke-width: 0.8"/>
      </g>
     </g>
     <g id="text_34">
      <!-- 0.7 -->
      <g transform="translate(426.375852 95.599219) scale(0.1 -0.1)">
       <use xlink:href="#DejaVuSans-30"/>
       <use xlink:href="#DejaVuSans-2e" transform="translate(63.623047 0)"/>
       <use xlink:href="#DejaVuSans-37" transform="translate(95.410156 0)"/>
      </g>
     </g>
    </g>
    <g id="ytick_18">
     <g id="line2d_47">
      <path d="M 449.278977 60.942857 
L 779.00625 60.942857 
" clip-path="url(#pf242102a90)" style="fill: none; stroke: #b0b0b0; stroke-opacity: 0.3; stroke-width: 0.8; stroke-linecap: square"/>
     </g>
     <g id="line2d_48">
      <g>
       <use xlink:href="#m8f43b23483" x="449.278977" y="60.942857" style="stroke: #000000; stroke-width: 0.8"/>
      </g>
     </g>
     <g id="text_35">
      <!-- 0.8 -->
      <g transform="translate(426.375852 64.742076) scale(0.1 -0.1)">
       <defs>
        <path id="DejaVuSans-38" d="M 2034 2216 
Q 1584 2216 1326 1975 
Q 1069 1734 1069 1313 
Q 1069 891 1326 650 
Q 1584 409 2034 409 
Q 2484 409 2743 651 
Q 3003 894 3003 1313 
Q 3003 1734 2745 1975 
Q 2488 2216 2034 2216 
z
M 1403 2484 
Q 997 2584 770 2862 
Q 544 3141 544 3541 
Q 544 4100 942 4425 
Q 1341 4750 2034 4750 
Q 2731 4750 3128 4425 
Q 3525 4100 3525 3541 
Q 3525 3141 3298 2862 
Q 3072 2584 2669 2484 
Q 3125 2378 3379 2068 
Q 3634 1759 3634 1313 
Q 3634 634 3220 271 
Q 2806 -91 2034 -91 
Q 1263 -91 848 271 
Q 434 634 434 1313 
Q 434 1759 690 2068 
Q 947 2378 1403 2484 
z
M 1172 3481 
Q 1172 3119 1398 2916 
Q 1625 2713 2034 2713 
Q 2441 2713 2670 2916 
Q 2900 3119 2900 3481 
Q 2900 3844 2670 4047 
Q 2441 4250 2034 4250 
Q 1625 4250 1398 4047 
Q 1172 3844 1172 3481 
z
" transform="scale(0.015625)"/>
       </defs>
       <use xlink:href="#DejaVuSans-30"/>
       <use xlink:href="#DejaVuSans-2e" transform="translate(63.623047 0)"/>
       <use xlink:href="#DejaVuSans-38" transform="translate(95.410156 0)"/>
      </g>
     </g>
    </g>
    <g id="text_36">
     <!-- Kompressionsenergie E [kJ] -->
     <g transform="translate(420.296165 249.922656) rotate(-90) scale(0.1 -0.1)">
      <use xlink:href="#DejaVuSans-4b"/>
      <use xlink:href="#DejaVuSans-6f" transform="translate(60.576172 0)"/>
      <use xlink:href="#DejaVuSans-6d" transform="translate(121.757812 0)"/>
      <use xlink:href="#DejaVuSans-70" transform="translate(219.169922 0)"/>
      <use xlink:href="#DejaVuSans-72" transform="translate(282.646484 0)"/>
      <use xlink:href="#DejaVuSans-65" transform="translate(321.509766 0)"/>
      <use xlink:href="#DejaVuSans-73" transform="translate(383.033203 0)"/>
      <use xlink:href="#DejaVuSans-73" transform="translate(435.132812 0)"/>
      <use xlink:href="#DejaVuSans-69" transform="translate(487.232422 0)"/>
      <use xlink:href="#DejaVuSans-6f" transform="translate(515.015625 0)"/>
      <use xlink:href="#DejaVuSans-6e" transform="translate(576.197266 0)"/>
      <use xlink:href="#DejaVuSans-73" transform="translate(639.576172 0)"/>
      <use xlink:href="#DejaVuSans-65" transform="translate(691.675781 0)"/>
      <use xlink:href="#DejaVuSans-6e" transform="translate(753.199219 0)"/>
      <use xlink:href="#DejaVuSans-65" transform="translate(816.578125 0)"/>
      <use xlink:href="#DejaVuSans-72" transform="translate(878.101562 0)"/>
      <use xlink:href="#DejaVuSans-67" transform="translate(917.464844 0)"/>
      <use xlink:href="#DejaVuSans-69" transform="translate(980.941406 0)"/>
      <use xlink:href="#DejaVuSans-65" transform="translate(1008.724609 0)"/>
      <use xlink:href="#DejaVuSans-20" transform="translate(1070.248047 0)"/>
      <use xlink:href="#DejaVuSans-45" transform="translate(1102.035156 0)"/>
      <use xlink:href="#DejaVuSans-20" transform="translate(1165.21875 0)"/>
      <use xlink:href="#DejaVuSans-5b" transform="translate(1197.005859 0)"/>
      <use xlink:href="#DejaVuSans-6b" transform="translate(1236.019531 0)"/>
      <use xlink:href="#DejaVuSans-4a" transform="translate(1293.929688 0)"/>
      <use xlink:href="#DejaVuSans-5d" transform="translate(1323.421875 0)"/>
     </g>
    </g>
   </g>
   <g id="line2d_49">
    <path d="M 464.266581 307.8 
L 470.281672 307.698525 
L 476.296764 307.394099 
L 482.311855 306.886722 
L 488.326947 306.176394 
L 494.342039 305.263116 
L 500.35713 304.146887 
L 506.372222 302.827707 
L 512.387314 301.305576 
L 518.402405 299.580495 
L 524.417497 297.652463 
L 530.432588 295.52148 
L 537.450195 292.778826 
L 544.467802 289.759933 
L 551.485409 286.464802 
L 558.503016 282.893433 
L 565.520623 279.045825 
L 572.53823 274.921979 
L 579.555837 270.521893 
L 586.573444 265.84557 
L 593.591051 260.893008 
L 600.608657 255.664207 
L 607.626264 250.159168 
L 614.643871 244.377891 
L 621.661478 238.320374 
L 628.679085 231.98662 
L 635.696692 225.376627 
L 642.714299 218.490395 
L 649.731906 211.327925 
L 657.752028 202.803993 
L 665.77215 193.91926 
L 673.792272 184.673726 
L 681.812394 175.067391 
L 689.832517 165.100254 
L 697.852639 154.772316 
L 705.872761 144.083576 
L 713.892883 133.034035 
L 721.913005 121.623693 
L 729.933127 109.85255 
L 737.95325 97.720605 
L 746.975887 83.640897 
L 755.998525 69.104549 
L 764.018647 55.8 
L 764.018647 55.8 
" clip-path="url(#pf242102a90)" style="fill: none; stroke: #66c2a5; stroke-width: 2; stroke-linecap: square"/>
   </g>
   <g id="line2d_50">
    <path d="M 464.266581 307.8 
L 473.289218 307.677686 
L 482.311855 307.310744 
L 491.334493 306.699173 
L 500.35713 305.842975 
L 509.379768 304.742148 
L 518.402405 303.396694 
L 527.425043 301.806611 
L 536.44768 299.9719 
L 545.470318 297.89256 
L 554.492955 295.568593 
L 563.515592 292.999998 
L 572.53823 290.186774 
L 581.560867 287.128922 
L 590.583505 283.826443 
L 599.606142 280.279335 
L 608.62878 276.487599 
L 617.651417 272.451234 
L 626.674055 268.170242 
L 635.696692 263.644621 
L 644.719329 258.874373 
L 653.741967 253.859496 
L 662.764604 248.599991 
L 671.787242 243.095858 
L 680.809879 237.347097 
L 689.832517 231.353707 
L 698.855154 225.11569 
L 708.880307 217.89765 
L 718.905459 210.3776 
L 728.930612 202.55554 
L 738.955765 194.431469 
L 748.980918 186.005389 
L 759.00607 177.277299 
L 764.018647 172.8 
L 764.018647 172.8 
" clip-path="url(#pf242102a90)" style="fill: none; stroke: #8da0cb; stroke-width: 2; stroke-linecap: square"/>
   </g>
   <g id="line2d_51">
    <path d="M 464.266581 307.8 
L 471.284187 307.674437 
L 478.301794 307.297748 
L 485.319401 306.669933 
L 492.337008 305.790993 
L 499.354615 304.660926 
L 506.372222 303.279733 
L 513.389829 301.647415 
L 520.407436 299.76397 
L 527.425043 297.6294 
L 534.44265 295.243704 
L 541.460256 292.606881 
L 548.477863 289.718933 
L 555.49547 286.579859 
L 562.513077 283.189659 
L 569.530684 279.548333 
L 576.548291 275.655881 
L 583.565898 271.512303 
L 590.583505 267.1176 
L 597.601112 262.47177 
L 604.618719 257.574814 
L 611.636325 252.426733 
L 618.653932 247.027525 
L 625.671539 241.377192 
L 633.691661 234.612167 
L 641.711784 227.519141 
L 649.731906 220.098113 
L 657.752028 212.349085 
L 665.77215 204.272055 
L 673.792272 195.867024 
L 681.812394 187.133992 
L 689.832517 178.072958 
L 697.852639 168.683923 
L 705.872761 158.966887 
L 713.892883 148.92185 
L 721.913005 138.548812 
L 729.933127 127.847772 
L 738.955765 115.417039 
L 747.978402 102.571179 
L 757.00104 89.310193 
L 764.018647 78.709091 
L 764.018647 78.709091 
" clip-path="url(#pf242102a90)" style="fill: none; stroke: #a6d854; stroke-width: 2; stroke-linecap: square"/>
   </g>
   <g id="line2d_52">
    <path d="M 464.266581 307.8 
L 471.284187 307.670513 
L 478.301794 307.282053 
L 485.319401 306.634619 
L 492.337008 305.728211 
L 499.354615 304.56283 
L 506.372222 303.138475 
L 513.389829 301.455146 
L 520.407436 299.512844 
L 527.425043 297.311569 
L 534.44265 294.851319 
L 541.460256 292.132096 
L 548.477863 289.1539 
L 555.49547 285.91673 
L 562.513077 282.420586 
L 569.530684 278.665469 
L 576.548291 274.651378 
L 583.565898 270.378313 
L 590.583505 265.846275 
L 597.601112 261.055263 
L 604.618719 256.005277 
L 611.636325 250.696318 
L 618.653932 245.128386 
L 625.671539 239.301479 
L 632.689146 233.215599 
L 640.709268 225.943198 
L 648.72939 218.332544 
L 656.749513 210.38364 
L 664.769635 202.096484 
L 672.789757 193.471078 
L 680.809879 184.507419 
L 688.830001 175.20551 
L 696.850124 165.565349 
L 704.870246 155.586938 
L 712.890368 145.270274 
L 720.91049 134.61536 
L 728.930612 123.622194 
L 737.95325 110.850567 
L 746.975887 97.650841 
L 755.998525 84.023015 
L 764.018647 71.55 
L 764.018647 71.55 
" clip-path="url(#pf242102a90)" style="fill: none; stroke: #b3b3b3; stroke-width: 2; stroke-linecap: square"/>
   </g>
   <g id="patch_8">
    <path d="M 449.278977 320.4 
L 449.278977 43.2 
" style="fill: none; stroke: #000000; stroke-width: 0.8; stroke-linejoin: miter; stroke-linecap: square"/>
   </g>
   <g id="patch_9">
    <path d="M 779.00625 320.4 
L 779.00625 43.2 
" style="fill: none; stroke: #000000; stroke-width: 0.8; stroke-linejoin: miter; stroke-linecap: square"/>
   </g>
   <g id="patch_10">
    <path d="M 449.278977 320.4 
L 779.00625 320.4 
" style="fill: none; stroke: #000000; stroke-width: 0.8; stroke-linejoin: miter; stroke-linecap: square"/>
   </g>
   <g id="patch_11">
    <path d="M 449.278977 43.2 
L 779.00625 43.2 
" style="fill: none; stroke: #000000; stroke-width: 0.8; stroke-linejoin: miter; stroke-linecap: square"/>
   </g>
   <g id="text_37">
    <!-- Gespeicherte Kompressionsenergie (V = 2 L) -->
    <g transform="translate(479.479176 37.2) scale(0.12 -0.12)">
     <defs>
      <path id="DejaVuSans-47" d="M 3809 666 
L 3809 1919 
L 2778 1919 
L 2778 2438 
L 4434 2438 
L 4434 434 
Q 4069 175 3628 42 
Q 3188 -91 2688 -91 
Q 1594 -91 976 548 
Q 359 1188 359 2328 
Q 359 3472 976 4111 
Q 1594 4750 2688 4750 
Q 3144 4750 3555 4637 
Q 3966 4525 4313 4306 
L 4313 3634 
Q 3963 3931 3569 4081 
Q 3175 4231 2741 4231 
Q 1884 4231 1454 3753 
Q 1025 3275 1025 2328 
Q 1025 1384 1454 906 
Q 1884 428 2741 428 
Q 3075 428 3337 486 
Q 3600 544 3809 666 
z
" transform="scale(0.015625)"/>
      <path id="DejaVuSans-68" d="M 3513 2113 
L 3513 0 
L 2938 0 
L 2938 2094 
Q 2938 2591 2744 2837 
Q 2550 3084 2163 3084 
Q 1697 3084 1428 2787 
Q 1159 2491 1159 1978 
L 1159 0 
L 581 0 
L 581 4863 
L 1159 4863 
L 1159 2956 
Q 1366 3272 1645 3428 
Q 1925 3584 2291 3584 
Q 2894 3584 3203 3211 
Q 3513 2838 3513 2113 
z
" transform="scale(0.015625)"/>
     </defs>
     <use xlink:href="#DejaVuSans-47"/>
     <use xlink:href="#DejaVuSans-65" transform="translate(77.490234 0)"/>
     <use xlink:href="#DejaVuSans-73" transform="translate(139.013672 0)"/>
     <use xlink:href="#DejaVuSans-70" transform="translate(191.113281 0)"/>
     <use xlink:href="#DejaVuSans-65" transform="translate(254.589844 0)"/>
     <use xlink:href="#DejaVuSans-69" transform="translate(316.113281 0)"/>
     <use xlink:href="#DejaVuSans-63" transform="translate(343.896484 0)"/>
     <use xlink:href="#DejaVuSans-68" transform="translate(398.876953 0)"/>
     <use xlink:href="#DejaVuSans-65" transform="translate(462.255859 0)"/>
     <use xlink:href="#DejaVuSans-72" transform="translate(523.779297 0)"/>
     <use xlink:href="#DejaVuSans-74" transform="translate(564.892578 0)"/>
     <use xlink:href="#DejaVuSans-65" transform="translate(604.101562 0)"/>
     <use xlink:href="#DejaVuSans-20" transform="translate(665.625 0)"/>
     <use xlink:href="#DejaVuSans-4b" transform="translate(697.412109 0)"/>
     <use xlink:href="#DejaVuSans-6f" transform="translate(757.988281 0)"/>
     <use xlink:href="#DejaVuSans-6d" transform="translate(819.169922 0)"/>
     <use xlink:href="#DejaVuSans-70" transform="translate(916.582031 0)"/>
     <use xlink:href="#DejaVuSans-72" transform="translate(980.058594 0)"/>
     <use xlink:href="#DejaVuSans-65" transform="translate(1018.921875 0)"/>
     <use xlink:href="#DejaVuSans-73" transform="translate(1080.445312 0)"/>
     <use xlink:href="#DejaVuSans-73" transform="translate(1132.544922 0)"/>
     <use xlink:href="#DejaVuSans-69" transform="translate(1184.644531 0)"/>
     <use xlink:href="#DejaVuSans-6f" transform="translate(1212.427734 0)"/>
     <use xlink:href="#DejaVuSans-6e" transform="translate(1273.609375 0)"/>
     <use xlink:href="#DejaVuSans-73" transform="translate(1336.988281 0)"/>
     <use xlink:href="#DejaVuSans-65" transform="translate(1389.087891 0)"/>
     <use xlink:href="#DejaVuSans-6e" transform="translate(1450.611328 0)"/>
     <use xlink:href="#DejaVuSans-65" transform="translate(1513.990234 0)"/>
     <use xlink:href="#DejaVuSans-72" transform="translate(1575.513672 0)"/>
     <use xlink:href="#DejaVuSans-67" transform="translate(1614.876953 0)"/>
     <use xlink:href="#DejaVuSans-69" transform="translate(1678.353516 0)"/>
     <use xlink:href="#DejaVuSans-65" transform="translate(1706.136719 0)"/>
     <use xlink:href="#DejaVuSans-20" transform="translate(1767.660156 0)"/>
     <use xlink:href="#DejaVuSans-28" transform="translate(1799.447266 0)"/>
     <use xlink:href="#DejaVuSans-56" transform="translate(1838.460938 0)"/>
     <use xlink:href="#DejaVuSans-20" transform="translate(1906.869141 0)"/>
     <use xlink:href="#DejaVuSans-3d" transform="translate(1938.65625 0)"/>
     <use xlink:href="#DejaVuSans-20" transform="translate(2022.445312 0)"/>
     <use xlink:href="#DejaVuSans-32" transform="translate(2054.232422 0)"/>
     <use xlink:href="#DejaVuSans-20" transform="translate(2117.855469 0)"/>
     <use xlink:href="#DejaVuSans-4c" transform="translate(2149.642578 0)"/>
     <use xlink:href="#DejaVuSans-29" transform="translate(2205.355469 0)"/>
    </g>
   </g>
   <g id="legend_1">
    <g id="patch_12">
     <path d="M 456.278977 109.9125 
L 576.96804 109.9125 
Q 578.96804 109.9125 578.96804 107.9125 
L 578.96804 50.2 
Q 578.96804 48.2 576.96804 48.2 
L 456.278977 48.2 
Q 454.278977 48.2 454.278977 50.2 
L 454.278977 107.9125 
Q 454.278977 109.9125 456.278977 109.9125 
z
" style="fill: #ffffff; opacity: 0.8; stroke: #cccccc; stroke-linejoin: miter"/>
    </g>
    <g id="line2d_53">
     <path d="M 458.278977 56.298437 
L 468.278977 56.298437 
L 478.278977 56.298437 
" style="fill: none; stroke: #66c2a5; stroke-width: 2; stroke-linecap: square"/>
    </g>
    <g id="text_38">
     <!-- Mineralöl VG 46 -->
     <g transform="translate(486.278977 59.798437) scale(0.1 -0.1)">
      <defs>
       <path id="DejaVuSans-f6" d="M 1959 3097 
Q 1497 3097 1228 2736 
Q 959 2375 959 1747 
Q 959 1119 1226 758 
Q 1494 397 1959 397 
Q 2419 397 2687 759 
Q 2956 1122 2956 1747 
Q 2956 2369 2687 2733 
Q 2419 3097 1959 3097 
z
M 1959 3584 
Q 2709 3584 3137 3096 
Q 3566 2609 3566 1747 
Q 3566 888 3137 398 
Q 2709 -91 1959 -91 
Q 1206 -91 779 398 
Q 353 888 353 1747 
Q 353 2609 779 3096 
Q 1206 3584 1959 3584 
z
M 2254 4850 
L 2888 4850 
L 2888 4219 
L 2254 4219 
L 2254 4850 
z
M 1032 4850 
L 1666 4850 
L 1666 4219 
L 1032 4219 
L 1032 4850 
z
" transform="scale(0.015625)"/>
      </defs>
      <use xlink:href="#DejaVuSans-4d"/>
      <use xlink:href="#DejaVuSans-69" transform="translate(86.279297 0)"/>
      <use xlink:href="#DejaVuSans-6e" transform="translate(114.0625 0)"/>
      <use xlink:href="#DejaVuSans-65" transform="translate(177.441406 0)"/>
      <use xlink:href="#DejaVuSans-72" transform="translate(238.964844 0)"/>
      <use xlink:href="#DejaVuSans-61" transform="translate(280.078125 0)"/>
      <use xlink:href="#DejaVuSans-6c" transform="translate(341.357422 0)"/>
      <use xlink:href="#DejaVuSans-f6" transform="translate(369.140625 0)"/>
      <use xlink:href="#DejaVuSans-6c" transform="translate(430.322266 0)"/>
      <use xlink:href="#DejaVuSans-20" transform="translate(458.105469 0)"/>
      <use xlink:href="#DejaVuSans-56" transform="translate(489.892578 0)"/>
      <use xlink:href="#DejaVuSans-47" transform="translate(558.300781 0)"/>
      <use xlink:href="#DejaVuSans-20" transform="translate(635.791016 0)"/>
      <use xlink:href="#DejaVuSans-34" transform="translate(667.578125 0)"/>
      <use xlink:href="#DejaVuSans-36" transform="translate(731.201172 0)"/>
     </g>
    </g>
    <g id="line2d_54">
     <path d="M 458.278977 70.976562 
L 468.278977 70.976562 
L 478.278977 70.976562 
" style="fill: none; stroke: #8da0cb; stroke-width: 2; stroke-linecap: square"/>
    </g>
    <g id="text_39">
     <!-- Wasserglykol HFC -->
     <g transform="translate(486.278977 74.476562) scale(0.1 -0.1)">
      <defs>
       <path id="DejaVuSans-57" d="M 213 4666 
L 850 4666 
L 1831 722 
L 2809 4666 
L 3519 4666 
L 4500 722 
L 5478 4666 
L 6119 4666 
L 4947 0 
L 4153 0 
L 3169 4050 
L 2175 0 
L 1381 0 
L 213 4666 
z
" transform="scale(0.015625)"/>
       <path id="DejaVuSans-79" d="M 2059 -325 
Q 1816 -950 1584 -1140 
Q 1353 -1331 966 -1331 
L 506 -1331 
L 506 -850 
L 844 -850 
Q 1081 -850 1212 -737 
Q 1344 -625 1503 -206 
L 1606 56 
L 191 3500 
L 800 3500 
L 1894 763 
L 2988 3500 
L 3597 3500 
L 2059 -325 
z
" transform="scale(0.015625)"/>
       <path id="DejaVuSans-48" d="M 628 4666 
L 1259 4666 
L 1259 2753 
L 3553 2753 
L 3553 4666 
L 4184 4666 
L 4184 0 
L 3553 0 
L 3553 2222 
L 1259 2222 
L 1259 0 
L 628 0 
L 628 4666 
z
" transform="scale(0.015625)"/>
       <path id="DejaVuSans-46" d="M 628 4666 
L 3309 4666 
L 3309 4134 
L 1259 4134 
L 1259 2759 
L 3109 2759 
L 3109 2228 
L 1259 2228 
L 1259 0 
L 628 0 
L 628 4666 
z
" transform="scale(0.015625)"/>
       <path id="DejaVuSans-43" d="M 4122 4306 
L 4122 3641 
Q 3803 3938 3442 4084 
Q 3081 4231 2675 4231 
Q 1875 4231 1450 3742 
Q 1025 3253 1025 2328 
Q 1025 1406 1450 917 
Q 1875 428 2675 428 
Q 3081 428 3442 575 
Q 3803 722 4122 1019 
L 4122 359 
Q 3791 134 3420 21 
Q 3050 -91 2638 -91 
Q 1578 -91 968 557 
Q 359 1206 359 2328 
Q 359 3453 968 4101 
Q 1578 4750 2638 4750 
Q 3056 4750 3426 4639 
Q 3797 4528 4122 4306 
z
" transform="scale(0.015625)"/>
      </defs>
      <use xlink:href="#DejaVuSans-57"/>
      <use xlink:href="#DejaVuSans-61" transform="translate(92.501953 0)"/>
      <use xlink:href="#DejaVuSans-73" transform="translate(153.78125 0)"/>
      <use xlink:href="#DejaVuSans-73" transform="translate(205.880859 0)"/>
      <use xlink:href="#DejaVuSans-65" transform="translate(257.980469 0)"/>
      <use xlink:href="#DejaVuSans-72" transform="translate(319.503906 0)"/>
      <use xlink:href="#DejaVuSans-67" transform="translate(358.867188 0)"/>
      <use xlink:href="#DejaVuSans-6c" transform="translate(422.34375 0)"/>
      <use xlink:href="#DejaVuSans-79" transform="translate(450.126953 0)"/>
      <use xlink:href="#DejaVuSans-6b" transform="translate(509.306641 0)"/>
      <use xlink:href="#DejaVuSans-6f" transform="translate(563.591797 0)"/>
      <use xlink:href="#DejaVuSans-6c" transform="translate(624.773438 0)"/>
      <use xlink:href="#DejaVuSans-20" transform="translate(652.556641 0)"/>
      <use xlink:href="#DejaVuSans-48" transform="translate(684.34375 0)"/>
      <use xlink:href="#DejaVuSans-46" transform="translate(759.539062 0)"/>
      <use xlink:href="#DejaVuSans-43" transform="translate(817.058594 0)"/>
     </g>
    </g>
    <g id="line2d_55">
     <path d="M 458.278977 85.654687 
L 468.278977 85.654687 
L 478.278977 85.654687 
" style="fill: none; stroke: #a6d854; stroke-width: 2; stroke-linecap: square"/>
    </g>
    <g id="text_40">
     <!-- Esteröl HEES -->
     <g transform="translate(486.278977 89.154687) scale(0.1 -0.1)">
      <defs>
       <path id="DejaVuSans-53" d="M 3425 4513 
L 3425 3897 
Q 3066 4069 2747 4153 
Q 2428 4238 2131 4238 
Q 1616 4238 1336 4038 
Q 1056 3838 1056 3469 
Q 1056 3159 1242 3001 
Q 1428 2844 1947 2747 
L 2328 2669 
Q 3034 2534 3370 2195 
Q 3706 1856 3706 1288 
Q 3706 609 3251 259 
Q 2797 -91 1919 -91 
Q 1588 -91 1214 -16 
Q 841 59 441 206 
L 441 856 
Q 825 641 1194 531 
Q 1563 422 1919 422 
Q 2459 422 2753 634 
Q 3047 847 3047 1241 
Q 3047 1584 2836 1778 
Q 2625 1972 2144 2069 
L 1759 2144 
Q 1053 2284 737 2584 
Q 422 2884 422 3419 
Q 422 4038 858 4394 
Q 1294 4750 2059 4750 
Q 2388 4750 2728 4690 
Q 3069 4631 3425 4513 
z
" transform="scale(0.015625)"/>
      </defs>
      <use xlink:href="#DejaVuSans-45"/>
      <use xlink:href="#DejaVuSans-73" transform="translate(63.183594 0)"/>
      <use xlink:href="#DejaVuSans-74" transform="translate(115.283203 0)"/>
      <use xlink:href="#DejaVuSans-65" transform="translate(154.492188 0)"/>
      <use xlink:href="#DejaVuSans-72" transform="translate(216.015625 0)"/>
      <use xlink:href="#DejaVuSans-f6" transform="translate(254.878906 0)"/>
      <use xlink:href="#DejaVuSans-6c" transform="translate(316.060547 0)"/>
      <use xlink:href="#DejaVuSans-20" transform="translate(343.84375 0)"/>
      <use xlink:href="#DejaVuSans-48" transform="translate(375.630859 0)"/>
      <use xlink:href="#DejaVuSans-45" transform="translate(450.826172 0)"/>
      <use xlink:href="#DejaVuSans-45" transform="translate(514.009766 0)"/>
      <use xlink:href="#DejaVuSans-53" transform="translate(577.193359 0)"/>
     </g>
    </g>
    <g id="line2d_56">
     <path d="M 458.278977 100.332812 
L 468.278977 100.332812 
L 478.278977 100.332812 
" style="fill: none; stroke: #b3b3b3; stroke-width: 2; stroke-linecap: square"/>
    </g>
    <g id="text_41">
     <!-- PAO / SHC -->
     <g transform="translate(486.278977 103.832812) scale(0.1 -0.1)">
      <defs>
       <path id="DejaVuSans-4f" d="M 2522 4238 
Q 1834 4238 1429 3725 
Q 1025 3213 1025 2328 
Q 1025 1447 1429 934 
Q 1834 422 2522 422 
Q 3209 422 3611 934 
Q 4013 1447 4013 2328 
Q 4013 3213 3611 3725 
Q 3209 4238 2522 4238 
z
M 2522 4750 
Q 3503 4750 4090 4092 
Q 4678 3434 4678 2328 
Q 4678 1225 4090 567 
Q 3503 -91 2522 -91 
Q 1538 -91 948 565 
Q 359 1222 359 2328 
Q 359 3434 948 4092 
Q 1538 4750 2522 4750 
z
" transform="scale(0.015625)"/>
       <path id="DejaVuSans-2f" d="M 1625 4666 
L 2156 4666 
L 531 -594 
L 0 -594 
L 1625 4666 
z
" transform="scale(0.015625)"/>
      </defs>
      <use xlink:href="#DejaVuSans-50"/>
      <use xlink:href="#DejaVuSans-41" transform="translate(53.927734 0)"/>
      <use xlink:href="#DejaVuSans-4f" transform="translate(120.585938 0)"/>
      <use xlink:href="#DejaVuSans-20" transform="translate(199.296875 0)"/>
      <use xlink:href="#DejaVuSans-2f" transform="translate(231.083984 0)"/>
      <use xlink:href="#DejaVuSans-20" transform="translate(264.775391 0)"/>
      <use xlink:href="#DejaVuSans-53" transform="translate(296.5625 0)"/>
      <use xlink:href="#DejaVuSans-48" transform="translate(360.039062 0)"/>
      <use xlink:href="#DejaVuSans-43" transform="translate(435.234375 0)"/>
     </g>
    </g>
   </g>
  </g>
  <g id="axes_3">
   <g id="patch_13">
    <path d="M 333.874432 320.4 
L 347.734432 320.4 
L 347.734432 43.2 
L 333.874432 43.2 
z
" style="fill: #ffffff"/>
   </g>
   <g id="QuadMesh_1">
    <path d="M 333.874432 320.4 
L 347.734432 320.4 
L 347.734432 306.54 
L 333.874432 306.54 
L 333.874432 320.4 
" clip-path="url(#p68da88d365)" style="fill: #fcfed1"/>
    <path d="M 333.874432 306.54 
L 347.734432 306.54 
L 347.734432 292.68 
L 333.874432 292.68 
L 333.874432 306.54 
" clip-path="url(#p68da88d365)" style="fill: #f4fbc1"/>
    <path d="M 333.874432 292.68 
L 347.734432 292.68 
L 347.734432 278.82 
L 333.874432 278.82 
L 333.874432 292.68 
" clip-path="url(#p68da88d365)" style="fill: #edf8b1"/>
    <path d="M 333.874432 278.82 
L 347.734432 278.82 
L 347.734432 264.96 
L 333.874432 264.96 
L 333.874432 278.82 
" clip-path="url(#p68da88d365)" style="fill: #dff2b2"/>
    <path d="M 333.874432 264.96 
L 347.734432 264.96 
L 347.734432 251.1 
L 333.874432 251.1 
L 333.874432 264.96 
" clip-path="url(#p68da88d365)" style="fill: #cfecb3"/>
    <path d="M 333.874432 251.1 
L 347.734432 251.1 
L 347.734432 237.24 
L 333.874432 237.24 
L 333.874432 251.1 
" clip-path="url(#p68da88d365)" style="fill: #b9e4b5"/>
    <path d="M 333.874432 237.24 
L 347.734432 237.24 
L 347.734432 223.38 
L 333.874432 223.38 
L 333.874432 237.24 
" clip-path="url(#p68da88d365)" style="fill: #9cd8b8"/>
    <path d="M 333.874432 223.38 
L 347.734432 223.38 
L 347.734432 209.52 
L 333.874432 209.52 
L 333.874432 223.38 
" clip-path="url(#p68da88d365)" style="fill: #7ecdbb"/>
    <path d="M 333.874432 209.52 
L 347.734432 209.52 
L 347.734432 195.66 
L 333.874432 195.66 
L 333.874432 209.52 
" clip-path="url(#p68da88d365)" style="fill: #67c4be"/>
    <path d="M 333.874432 195.66 
L 347.734432 195.66 
L 347.734432 181.8 
L 333.874432 181.8 
L 333.874432 195.66 
" clip-path="url(#p68da88d365)" style="fill: #4ebbc2"/>
    <path d="M 333.874432 181.8 
L 347.734432 181.8 
L 347.734432 167.94 
L 333.874432 167.94 
L 333.874432 181.8 
" clip-path="url(#p68da88d365)" style="fill: #3aaec3"/>
    <path d="M 333.874432 167.94 
L 347.734432 167.94 
L 347.734432 154.08 
L 333.874432 154.08 
L 333.874432 167.94 
" clip-path="url(#p68da88d365)" style="fill: #2b9fc2"/>
    <path d="M 333.874432 154.08 
L 347.734432 154.08 
L 347.734432 140.22 
L 333.874432 140.22 
L 333.874432 154.08 
" clip-path="url(#p68da88d365)" style="fill: #1d90c0"/>
    <path d="M 333.874432 140.22 
L 347.734432 140.22 
L 347.734432 126.36 
L 333.874432 126.36 
L 333.874432 140.22 
" clip-path="url(#p68da88d365)" style="fill: #1f7db6"/>
    <path d="M 333.874432 126.36 
L 347.734432 126.36 
L 347.734432 112.5 
L 333.874432 112.5 
L 333.874432 126.36 
" clip-path="url(#p68da88d365)" style="fill: #2168ad"/>
    <path d="M 333.874432 112.5 
L 347.734432 112.5 
L 347.734432 98.64 
L 333.874432 98.64 
L 333.874432 112.5 
" clip-path="url(#p68da88d365)" style="fill: #2355a4"/>
    <path d="M 333.874432 98.64 
L 347.734432 98.64 
L 347.734432 84.78 
L 333.874432 84.78 
L 333.874432 98.64 
" clip-path="url(#p68da88d365)" style="fill: #24449c"/>
    <path d="M 333.874432 84.78 
L 347.734432 84.78 
L 347.734432 70.92 
L 333.874432 70.92 
L 333.874432 84.78 
" clip-path="url(#p68da88d365)" style="fill: #243392"/>
    <path d="M 333.874432 70.92 
L 347.734432 70.92 
L 347.734432 57.06 
L 333.874432 57.06 
L 333.874432 70.92 
" clip-path="url(#p68da88d365)" style="fill: #192b7c"/>
    <path d="M 333.874432 57.06 
L 347.734432 57.06 
L 347.734432 43.2 
L 333.874432 43.2 
L 333.874432 57.06 
" clip-path="url(#p68da88d365)" style="fill: #0d2163"/>
   </g>
   <g id="matplotlib.axis_5"/>
   <g id="matplotlib.axis_6">
    <g id="ytick_19">
     <g id="line2d_57">
      <defs>
       <path id="m30763992ec" d="M 0 0 
L 3.5 0 
" style="stroke: #000000; stroke-width: 0.8"/>
      </defs>
      <g>
       <use xlink:href="#m30763992ec" x="347.734432" y="320.4" style="stroke: #000000; stroke-width: 0.8"/>
      </g>
     </g>
     <g id="text_42">
      <!-- 0 -->
      <g transform="translate(354.734432 324.199219) scale(0.1 -0.1)">
       <use xlink:href="#DejaVuSans-30"/>
      </g>
     </g>
    </g>
    <g id="ytick_20">
     <g id="line2d_58">
      <g>
       <use xlink:href="#m30763992ec" x="347.734432" y="278.82" style="stroke: #000000; stroke-width: 0.8"/>
      </g>
     </g>
     <g id="text_43">
      <!-- 15 -->
      <g transform="translate(354.734432 282.619219) scale(0.1 -0.1)">
       <use xlink:href="#DejaVuSans-31"/>
       <use xlink:href="#DejaVuSans-35" transform="translate(63.623047 0)"/>
      </g>
     </g>
    </g>
    <g id="ytick_21">
     <g id="line2d_59">
      <g>
       <use xlink:href="#m30763992ec" x="347.734432" y="237.24" style="stroke: #000000; stroke-width: 0.8"/>
      </g>
     </g>
     <g id="text_44">
      <!-- 30 -->
      <g transform="translate(354.734432 241.039219) scale(0.1 -0.1)">
       <use xlink:href="#DejaVuSans-33"/>
       <use xlink:href="#DejaVuSans-30" transform="translate(63.623047 0)"/>
      </g>
     </g>
    </g>
    <g id="ytick_22">
     <g id="line2d_60">
      <g>
       <use xlink:href="#m30763992ec" x="347.734432" y="195.66" style="stroke: #000000; stroke-width: 0.8"/>
      </g>
     </g>
     <g id="text_45">
      <!-- 45 -->
      <g transform="translate(354.734432 199.459219) scale(0.1 -0.1)">
       <use xlink:href="#DejaVuSans-34"/>
       <use xlink:href="#DejaVuSans-35" transform="translate(63.623047 0)"/>
      </g>
     </g>
    </g>
    <g id="ytick_23">
     <g id="line2d_61">
      <g>
       <use xlink:href="#m30763992ec" x="347.734432" y="154.08" style="stroke: #000000; stroke-width: 0.8"/>
      </g>
     </g>
     <g id="text_46">
      <!-- 60 -->
      <g transform="translate(354.734432 157.879219) scale(0.1 -0.1)">
       <use xlink:href="#DejaVuSans-36"/>
       <use xlink:href="#DejaVuSans-30" transform="translate(63.623047 0)"/>
      </g>
     </g>
    </g>
    <g id="ytick_24">
     <g id="line2d_62">
      <g>
       <use xlink:href="#m30763992ec" x="347.734432" y="112.5" style="stroke: #000000; stroke-width: 0.8"/>
      </g>
     </g>
     <g id="text_47">
      <!-- 75 -->
      <g transform="translate(354.734432 116.299219) scale(0.1 -0.1)">
       <use xlink:href="#DejaVuSans-37"/>
       <use xlink:href="#DejaVuSans-35" transform="translate(63.623047 0)"/>
      </g>
     </g>
    </g>
    <g id="ytick_25">
     <g id="line2d_63">
      <g>
       <use xlink:href="#m30763992ec" x="347.734432" y="70.92" style="stroke: #000000; stroke-width: 0.8"/>
      </g>
     </g>
     <g id="text_48">
      <!-- 90 -->
      <g transform="translate(354.734432 74.719219) scale(0.1 -0.1)">
       <defs>
        <path id="DejaVuSans-39" d="M 703 97 
L 703 672 
Q 941 559 1184 500 
Q 1428 441 1663 441 
Q 2288 441 2617 861 
Q 2947 1281 2994 2138 
Q 2813 1869 2534 1725 
Q 2256 1581 1919 1581 
Q 1219 1581 811 2004 
Q 403 2428 403 3163 
Q 403 3881 828 4315 
Q 1253 4750 1959 4750 
Q 2769 4750 3195 4129 
Q 3622 3509 3622 2328 
Q 3622 1225 3098 567 
Q 2575 -91 1691 -91 
Q 1453 -91 1209 -44 
Q 966 3 703 97 
z
M 1959 2075 
Q 2384 2075 2632 2365 
Q 2881 2656 2881 3163 
Q 2881 3666 2632 3958 
Q 2384 4250 1959 4250 
Q 1534 4250 1286 3958 
Q 1038 3666 1038 3163 
Q 1038 2656 1286 2365 
Q 1534 2075 1959 2075 
z
" transform="scale(0.015625)"/>
       </defs>
       <use xlink:href="#DejaVuSans-39"/>
       <use xlink:href="#DejaVuSans-30" transform="translate(63.623047 0)"/>
      </g>
     </g>
    </g>
    <g id="text_49">
     <!-- η_Rek [%] -->
     <g transform="translate(379.057869 206.93125) rotate(-90) scale(0.1 -0.1)">
      <defs>
       <path id="DejaVuSans-25" d="M 4653 2053 
Q 4381 2053 4226 1822 
Q 4072 1591 4072 1178 
Q 4072 772 4226 539 
Q 4381 306 4653 306 
Q 4919 306 5073 539 
Q 5228 772 5228 1178 
Q 5228 1588 5073 1820 
Q 4919 2053 4653 2053 
z
M 4653 2450 
Q 5147 2450 5437 2106 
Q 5728 1763 5728 1178 
Q 5728 594 5436 251 
Q 5144 -91 4653 -91 
Q 4153 -91 3862 251 
Q 3572 594 3572 1178 
Q 3572 1766 3864 2108 
Q 4156 2450 4653 2450 
z
M 1428 4353 
Q 1159 4353 1004 4120 
Q 850 3888 850 3481 
Q 850 3069 1003 2837 
Q 1156 2606 1428 2606 
Q 1700 2606 1854 2837 
Q 2009 3069 2009 3481 
Q 2009 3884 1853 4118 
Q 1697 4353 1428 4353 
z
M 4250 4750 
L 4750 4750 
L 1831 -91 
L 1331 -91 
L 4250 4750 
z
M 1428 4750 
Q 1922 4750 2215 4408 
Q 2509 4066 2509 3481 
Q 2509 2891 2217 2550 
Q 1925 2209 1428 2209 
Q 931 2209 642 2551 
Q 353 2894 353 3481 
Q 353 4063 643 4406 
Q 934 4750 1428 4750 
z
" transform="scale(0.015625)"/>
      </defs>
      <use xlink:href="#DejaVuSans-3b7"/>
      <use xlink:href="#DejaVuSans-5f" transform="translate(63.378906 0)"/>
      <use xlink:href="#DejaVuSans-52" transform="translate(113.378906 0)"/>
      <use xlink:href="#DejaVuSans-65" transform="translate(178.361328 0)"/>
      <use xlink:href="#DejaVuSans-6b" transform="translate(239.884766 0)"/>
      <use xlink:href="#DejaVuSans-20" transform="translate(297.794922 0)"/>
      <use xlink:href="#DejaVuSans-5b" transform="translate(329.582031 0)"/>
      <use xlink:href="#DejaVuSans-25" transform="translate(368.595703 0)"/>
      <use xlink:href="#DejaVuSans-5d" transform="translate(463.615234 0)"/>
     </g>
    </g>
   </g>
   <g id="LineCollection_1"/>
   <g id="patch_14">
    <path d="M 333.874432 320.4 
L 340.804432 320.4 
L 347.734432 320.4 
L 347.734432 43.2 
L 340.804432 43.2 
L 333.874432 43.2 
L 333.874432 320.4 
z
" style="fill: none; stroke: #000000; stroke-width: 0.8; stroke-linejoin: miter; stroke-linecap: square"/>
   </g>
  </g>
  <g id="text_50">
   <!-- Experiment 13 – Rekuperationsgrad und gespeicherte Kompressionsenergie -->
   <g transform="translate(157.414297 17.077969) scale(0.13 -0.13)">
    <defs>
     <path id="DejaVuSans-78" d="M 3513 3500 
L 2247 1797 
L 3578 0 
L 2900 0 
L 1881 1375 
L 863 0 
L 184 0 
L 1544 1831 
L 300 3500 
L 978 3500 
L 1906 2253 
L 2834 3500 
L 3513 3500 
z
" transform="scale(0.015625)"/>
     <path id="DejaVuSans-2013" d="M 313 1978 
L 2888 1978 
L 2888 1528 
L 313 1528 
L 313 1978 
z
" transform="scale(0.015625)"/>
    </defs>
    <use xlink:href="#DejaVuSans-45"/>
    <use xlink:href="#DejaVuSans-78" transform="translate(63.183594 0)"/>
    <use xlink:href="#DejaVuSans-70" transform="translate(122.363281 0)"/>
    <use xlink:href="#DejaVuSans-65" transform="translate(185.839844 0)"/>
    <use xlink:href="#DejaVuSans-72" transform="translate(247.363281 0)"/>
    <use xlink:href="#DejaVuSans-69" transform="translate(288.476562 0)"/>
    <use xlink:href="#DejaVuSans-6d" transform="translate(316.259766 0)"/>
    <use xlink:href="#DejaVuSans-65" transform="translate(413.671875 0)"/>
    <use xlink:href="#DejaVuSans-6e" transform="translate(475.195312 0)"/>
    <use xlink:href="#DejaVuSans-74" transform="translate(538.574219 0)"/>
    <use xlink:href="#DejaVuSans-20" transform="translate(577.783203 0)"/>
    <use xlink:href="#DejaVuSans-31" transform="translate(609.570312 0)"/>
    <use xlink:href="#DejaVuSans-33" transform="translate(673.193359 0)"/>
    <use xlink:href="#DejaVuSans-20" transform="translate(736.816406 0)"/>
    <use xlink:href="#DejaVuSans-2013" transform="translate(768.603516 0)"/>
    <use xlink:href="#DejaVuSans-20" transform="translate(818.603516 0)"/>
    <use xlink:href="#DejaVuSans-52" transform="translate(850.390625 0)"/>
    <use xlink:href="#DejaVuSans-65" transform="translate(915.373047 0)"/>
    <use xlink:href="#DejaVuSans-6b" transform="translate(976.896484 0)"/>
    <use xlink:href="#DejaVuSans-75" transform="translate(1031.681641 0)"/>
    <use xlink:href="#DejaVuSans-70" transform="translate(1095.060547 0)"/>
    <use xlink:href="#DejaVuSans-65" transform="translate(1158.537109 0)"/>
    <use xlink:href="#DejaVuSans-72" transform="translate(1220.060547 0)"/>
    <use xlink:href="#DejaVuSans-61" transform="translate(1261.173828 0)"/>
    <use xlink:href="#DejaVuSans-74" transform="translate(1322.453125 0)"/>
    <use xlink:href="#DejaVuSans-69" transform="translate(1361.662109 0)"/>
    <use xlink:href="#DejaVuSans-6f" transform="translate(1389.445312 0)"/>
    <use xlink:href="#DejaVuSans-6e" transform="translate(1450.626953 0)"/>
    <use xlink:href="#DejaVuSans-73" transform="translate(1514.005859 0)"/>
    <use xlink:href="#DejaVuSans-67" transform="translate(1566.105469 0)"/>
    <use xlink:href="#DejaVuSans-72" transform="translate(1629.582031 0)"/>
    <use xlink:href="#DejaVuSans-61" transform="translate(1670.695312 0)"/>
    <use xlink:href="#DejaVuSans-64" transform="translate(1731.974609 0)"/>
    <use xlink:href="#DejaVuSans-20" transform="translate(1795.451172 0)"/>
    <use xlink:href="#DejaVuSans-75" transform="translate(1827.238281 0)"/>
    <use xlink:href="#DejaVuSans-6e" transform="translate(1890.617188 0)"/>
    <use xlink:href="#DejaVuSans-64" transform="translate(1953.996094 0)"/>
    <use xlink:href="#DejaVuSans-20" transform="translate(2017.472656 0)"/>
    <use xlink:href="#DejaVuSans-67" transform="translate(2049.259766 0)"/>
    <use xlink:href="#DejaVuSans-65" transform="translate(2112.736328 0)"/>
    <use xlink:href="#DejaVuSans-73" transform="translate(2174.259766 0)"/>
    <use xlink:href="#DejaVuSans-70" transform="translate(2226.359375 0)"/>
    <use xlink:href="#DejaVuSans-65" transform="translate(2289.835938 0)"/>
    <use xlink:href="#DejaVuSans-69" transform="translate(2351.359375 0)"/>
    <use xlink:href="#DejaVuSans-63" transform="translate(2379.142578 0)"/>
    <use xlink:href="#DejaVuSans-68" transform="translate(2434.123047 0)"/>
    <use xlink:href="#DejaVuSans-65" transform="translate(2497.501953 0)"/>
    <use xlink:href="#DejaVuSans-72" transform="translate(2559.025391 0)"/>
    <use xlink:href="#DejaVuSans-74" transform="translate(2600.138672 0)"/>
    <use xlink:href="#DejaVuSans-65" transform="translate(2639.347656 0)"/>
    <use xlink:href="#DejaVuSans-20" transform="translate(2700.871094 0)"/>
    <use xlink:href="#DejaVuSans-4b" transform="translate(2732.658203 0)"/>
    <use xlink:href="#DejaVuSans-6f" transform="translate(2793.234375 0)"/>
    <use xlink:href="#DejaVuSans-6d" transform="translate(2854.416016 0)"/>
    <use xlink:href="#DejaVuSans-70" transform="translate(2951.828125 0)"/>
    <use xlink:href="#DejaVuSans-72" transform="translate(3015.304688 0)"/>
    <use xlink:href="#DejaVuSans-65" transform="translate(3054.167969 0)"/>
    <use xlink:href="#DejaVuSans-73" transform="translate(3115.691406 0)"/>
    <use xlink:href="#DejaVuSans-73" transform="translate(3167.791016 0)"/>
    <use xlink:href="#DejaVuSans-69" transform="translate(3219.890625 0)"/>
    <use xlink:href="#DejaVuSans-6f" transform="translate(3247.673828 0)"/>
    <use xlink:href="#DejaVuSans-6e" transform="translate(3308.855469 0)"/>
    <use xlink:href="#DejaVuSans-73" transform="translate(3372.234375 0)"/>
    <use xlink:href="#DejaVuSans-65" transform="translate(3424.333984 0)"/>
    <use xlink:href="#DejaVuSans-6e" transform="translate(3485.857422 0)"/>
    <use xlink:href="#DejaVuSans-65" transform="translate(3549.236328 0)"/>
    <use xlink:href="#DejaVuSans-72" transform="translate(3610.759766 0)"/>
    <use xlink:href="#DejaVuSans-67" transform="translate(3650.123047 0)"/>
    <use xlink:href="#DejaVuSans-69" transform="translate(3713.599609 0)"/>
    <use xlink:href="#DejaVuSans-65" transform="translate(3741.382812 0)"/>
   </g>
  </g>
 </g>
 <defs>
  <clipPath id="p7cacc7dbad">
   <rect x="53.60625" y="43.2" width="263.781818" height="277.2"/>
  </clipPath>
  <clipPath id="pf242102a90">
   <rect x="449.278977" y="43.2" width="329.727273" height="277.2"/>
  </clipPath>
  <clipPath id="p68da88d365">
   <rect x="333.874432" y="43.2" width="13.86" height="277.2"/>
  </clipPath>
 </defs>
</svg>
