<?xml version="1.0" encoding="utf-8" standalone="no"?>
<!DOCTYPE svg PUBLIC "-//W3C//DTD SVG 1.1//EN"
  "http://www.w3.org/Graphics/SVG/1.1/DTD/svg11.dtd">
<svg xmlns:xlink="http://www.w3.org/1999/xlink" width="786.20625pt" height="357.95625pt" viewBox="0 0 786.20625 357.95625" xmlns="http://www.w3.org/2000/svg" version="1.1">
 <metadata>
  <rdf:RDF xmlns:dc="http://purl.org/dc/elements/1.1/" xmlns:cc="http://creativecommons.org/ns#" xmlns:rdf="http://www.w3.org/1999/02/22-rdf-syntax-ns#">
   <cc:Work>
    <dc:type rdf:resource="http://purl.org/dc/dcmitype/StillImage"/>
    <dc:date>2026-03-02T09:31:44.888405</dc:date>
    <dc:format>image/svg+xml</dc:format>
    <dc:creator>
     <cc:Agent>
      <dc:title>Matplotlib v3.10.8, https://matplotlib.org/</dc:title>
     </cc:Agent>
    </dc:creator>
   </cc:Work>
  </rdf:RDF>
 </metadata>
 <defs>
  <style type="text/css">*{stroke-linejoin: round; stroke-linecap: butt}</style>
 </defs>
 <g id="figure_1">
  <g id="patch_1">
   <path d="M 0 357.95625 
L 786.20625 357.95625 
L 786.20625 0 
L 0 0 
z
" style="fill: #ffffff"/>
  </g>
  <g id="axes_1">
   <g id="patch_2">
    <path d="M 53.60625 320.4 
L 383.333523 320.4 
L 383.333523 43.2 
L 53.60625 43.2 
z
" style="fill: #ffffff"/>
   </g>
   <g id="matplotlib.axis_1">
    <g id="xtick_1">
     <g id="line2d_1">
      <path d="M 68.593853 320.4 
L 68.593853 43.2 
" clip-path="url(#p2465df485e)" style="fill: none; stroke: #b0b0b0; stroke-opacity: 0.3; stroke-width: 0.8; stroke-linecap: square"/>
     </g>
     <g id="line2d_2">
      <defs>
       <path id="m642b17b4ba" d="M 0 0 
L 0 3.5 
" style="stroke: #000000; stroke-width: 0.8"/>
      </defs>
      <g>
       <use xlink:href="#m642b17b4ba" x="68.593853" y="320.4" style="stroke: #000000; stroke-width: 0.8"/>
      </g>
     </g>
     <g id="text_1">
      <!-- 0 -->
      <g transform="translate(65.412603 334.998437) scale(0.1 -0.1)">
       <defs>
        <path id="DejaVuSans-30" d="M 2034 4250 
Q 1547 4250 1301 3770 
Q 1056 3291 1056 2328 
Q 1056 1369 1301 889 
Q 1547 409 2034 409 
Q 2525 409 2770 889 
Q 3016 1369 3016 2328 
Q 3016 3291 2770 3770 
Q 2525 4250 2034 4250 
z
M 2034 4750 
Q 2819 4750 3233 4129 
Q 3647 3509 3647 2328 
Q 3647 1150 3233 529 
Q 2819 -91 2034 -91 
Q 1250 -91 836 529 
Q 422 1150 422 2328 
Q 422 3509 836 4129 
Q 1250 4750 2034 4750 
z
" transform="scale(0.015625)"/>
       </defs>
       <use xlink:href="#DejaVuSans-30"/>
      </g>
     </g>
    </g>
    <g id="xtick_2">
     <g id="line2d_3">
      <path d="M 106.062862 320.4 
L 106.062862 43.2 
" clip-path="url(#p2465df485e)" style="fill: none; stroke: #b0b0b0; stroke-opacity: 0.3; stroke-width: 0.8; stroke-linecap: square"/>
     </g>
     <g id="line2d_4">
      <g>
       <use xlink:href="#m642b17b4ba" x="106.062862" y="320.4" style="stroke: #000000; stroke-width: 0.8"/>
      </g>
     </g>
     <g id="text_2">
      <!-- 500 -->
      <g transform="translate(96.519112 334.998437) scale(0.1 -0.1)">
       <defs>
        <path id="DejaVuSans-35" d="M 691 4666 
L 3169 4666 
L 3169 4134 
L 1269 4134 
L 1269 2991 
Q 1406 3038 1543 3061 
Q 1681 3084 1819 3084 
Q 2600 3084 3056 2656 
Q 3513 2228 3513 1497 
Q 3513 744 3044 326 
Q 2575 -91 1722 -91 
Q 1428 -91 1123 -41 
Q 819 9 494 109 
L 494 744 
Q 775 591 1075 516 
Q 1375 441 1709 441 
Q 2250 441 2565 725 
Q 2881 1009 2881 1497 
Q 2881 1984 2565 2268 
Q 2250 2553 1709 2553 
Q 1456 2553 1204 2497 
Q 953 2441 691 2322 
L 691 4666 
z
" transform="scale(0.015625)"/>
       </defs>
       <use xlink:href="#DejaVuSans-35"/>
       <use xlink:href="#DejaVuSans-30" transform="translate(63.623047 0)"/>
       <use xlink:href="#DejaVuSans-30" transform="translate(127.246094 0)"/>
      </g>
     </g>
    </g>
    <g id="xtick_3">
     <g id="line2d_5">
      <path d="M 143.53187 320.4 
L 143.53187 43.2 
" clip-path="url(#p2465df485e)" style="fill: none; stroke: #b0b0b0; stroke-opacity: 0.3; stroke-width: 0.8; stroke-linecap: square"/>
     </g>
     <g id="line2d_6">
      <g>
       <use xlink:href="#m642b17b4ba" x="143.53187" y="320.4" style="stroke: #000000; stroke-width: 0.8"/>
      </g>
     </g>
     <g id="text_3">
      <!-- 1000 -->
      <g transform="translate(130.80687 334.998437) scale(0.1 -0.1)">
       <defs>
        <path id="DejaVuSans-31" d="M 794 531 
L 1825 531 
L 1825 4091 
L 703 3866 
L 703 4441 
L 1819 4666 
L 2450 4666 
L 2450 531 
L 3481 531 
L 3481 0 
L 794 0 
L 794 531 
z
" transform="scale(0.015625)"/>
       </defs>
       <use xlink:href="#DejaVuSans-31"/>
       <use xlink:href="#DejaVuSans-30" transform="translate(63.623047 0)"/>
       <use xlink:href="#DejaVuSans-30" transform="translate(127.246094 0)"/>
       <use xlink:href="#DejaVuSans-30" transform="translate(190.869141 0)"/>
      </g>
     </g>
    </g>
    <g id="xtick_4">
     <g id="line2d_7">
      <path d="M 181.000878 320.4 
L 181.000878 43.2 
" clip-path="url(#p2465df485e)" style="fill: none; stroke: #b0b0b0; stroke-opacity: 0.3; stroke-width: 0.8; stroke-linecap: square"/>
     </g>
     <g id="line2d_8">
      <g>
       <use xlink:href="#m642b17b4ba" x="181.000878" y="320.4" style="stroke: #000000; stroke-width: 0.8"/>
      </g>
     </g>
     <g id="text_4">
      <!-- 1500 -->
      <g transform="translate(168.275878 334.998437) scale(0.1 -0.1)">
       <use xlink:href="#DejaVuSans-31"/>
       <use xlink:href="#DejaVuSans-35" transform="translate(63.623047 0)"/>
       <use xlink:href="#DejaVuSans-30" transform="translate(127.246094 0)"/>
       <use xlink:href="#DejaVuSans-30" transform="translate(190.869141 0)"/>
      </g>
     </g>
    </g>
    <g id="xtick_5">
     <g id="line2d_9">
      <path d="M 218.469886 320.4 
L 218.469886 43.2 
" clip-path="url(#p2465df485e)" style="fill: none; stroke: #b0b0b0; stroke-opacity: 0.3; stroke-width: 0.8; stroke-linecap: square"/>
     </g>
     <g id="line2d_10">
      <g>
       <use xlink:href="#m642b17b4ba" x="218.469886" y="320.4" style="stroke: #000000; stroke-width: 0.8"/>
      </g>
     </g>
     <g id="text_5">
      <!-- 2000 -->
      <g transform="translate(205.744886 334.998437) scale(0.1 -0.1)">
       <defs>
        <path id="DejaVuSans-32" d="M 1228 531 
L 3431 531 
L 3431 0 
L 469 0 
L 469 531 
Q 828 903 1448 1529 
Q 2069 2156 2228 2338 
Q 2531 2678 2651 2914 
Q 2772 3150 2772 3378 
Q 2772 3750 2511 3984 
Q 2250 4219 1831 4219 
Q 1534 4219 1204 4116 
Q 875 4013 500 3803 
L 500 4441 
Q 881 4594 1212 4672 
Q 1544 4750 1819 4750 
Q 2544 4750 2975 4387 
Q 3406 4025 3406 3419 
Q 3406 3131 3298 2873 
Q 3191 2616 2906 2266 
Q 2828 2175 2409 1742 
Q 1991 1309 1228 531 
z
" transform="scale(0.015625)"/>
       </defs>
       <use xlink:href="#DejaVuSans-32"/>
       <use xlink:href="#DejaVuSans-30" transform="translate(63.623047 0)"/>
       <use xlink:href="#DejaVuSans-30" transform="translate(127.246094 0)"/>
       <use xlink:href="#DejaVuSans-30" transform="translate(190.869141 0)"/>
      </g>
     </g>
    </g>
    <g id="xtick_6">
     <g id="line2d_11">
      <path d="M 255.938895 320.4 
L 255.938895 43.2 
" clip-path="url(#p2465df485e)" style="fill: none; stroke: #b0b0b0; stroke-opacity: 0.3; stroke-width: 0.8; stroke-linecap: square"/>
     </g>
     <g id="line2d_12">
      <g>
       <use xlink:href="#m642b17b4ba" x="255.938895" y="320.4" style="stroke: #000000; stroke-width: 0.8"/>
      </g>
     </g>
     <g id="text_6">
      <!-- 2500 -->
      <g transform="translate(243.213895 334.998437) scale(0.1 -0.1)">
       <use xlink:href="#DejaVuSans-32"/>
       <use xlink:href="#DejaVuSans-35" transform="translate(63.623047 0)"/>
       <use xlink:href="#DejaVuSans-30" transform="translate(127.246094 0)"/>
       <use xlink:href="#DejaVuSans-30" transform="translate(190.869141 0)"/>
      </g>
     </g>
    </g>
    <g id="xtick_7">
     <g id="line2d_13">
      <path d="M 293.407903 320.4 
L 293.407903 43.2 
" clip-path="url(#p2465df485e)" style="fill: none; stroke: #b0b0b0; stroke-opacity: 0.3; stroke-width: 0.8; stroke-linecap: square"/>
     </g>
     <g id="line2d_14">
      <g>
       <use xlink:href="#m642b17b4ba" x="293.407903" y="320.4" style="stroke: #000000; stroke-width: 0.8"/>
      </g>
     </g>
     <g id="text_7">
      <!-- 3000 -->
      <g transform="translate(280.682903 334.998437) scale(0.1 -0.1)">
       <defs>
        <path id="DejaVuSans-33" d="M 2597 2516 
Q 3050 2419 3304 2112 
Q 3559 1806 3559 1356 
Q 3559 666 3084 287 
Q 2609 -91 1734 -91 
Q 1441 -91 1130 -33 
Q 819 25 488 141 
L 488 750 
Q 750 597 1062 519 
Q 1375 441 1716 441 
Q 2309 441 2620 675 
Q 2931 909 2931 1356 
Q 2931 1769 2642 2001 
Q 2353 2234 1838 2234 
L 1294 2234 
L 1294 2753 
L 1863 2753 
Q 2328 2753 2575 2939 
Q 2822 3125 2822 3475 
Q 2822 3834 2567 4026 
Q 2313 4219 1838 4219 
Q 1578 4219 1281 4162 
Q 984 4106 628 3988 
L 628 4550 
Q 988 4650 1302 4700 
Q 1616 4750 1894 4750 
Q 2613 4750 3031 4423 
Q 3450 4097 3450 3541 
Q 3450 3153 3228 2886 
Q 3006 2619 2597 2516 
z
" transform="scale(0.015625)"/>
       </defs>
       <use xlink:href="#DejaVuSans-33"/>
       <use xlink:href="#DejaVuSans-30" transform="translate(63.623047 0)"/>
       <use xlink:href="#DejaVuSans-30" transform="translate(127.246094 0)"/>
       <use xlink:href="#DejaVuSans-30" transform="translate(190.869141 0)"/>
      </g>
     </g>
    </g>
    <g id="xtick_8">
     <g id="line2d_15">
      <path d="M 330.876911 320.4 
L 330.876911 43.2 
" clip-path="url(#p2465df485e)" style="fill: none; stroke: #b0b0b0; stroke-opacity: 0.3; stroke-width: 0.8; stroke-linecap: square"/>
     </g>
     <g id="line2d_16">
      <g>
       <use xlink:href="#m642b17b4ba" x="330.876911" y="320.4" style="stroke: #000000; stroke-width: 0.8"/>
      </g>
     </g>
     <g id="text_8">
      <!-- 3500 -->
      <g transform="translate(318.151911 334.998437) scale(0.1 -0.1)">
       <use xlink:href="#DejaVuSans-33"/>
       <use xlink:href="#DejaVuSans-35" transform="translate(63.623047 0)"/>
       <use xlink:href="#DejaVuSans-30" transform="translate(127.246094 0)"/>
       <use xlink:href="#DejaVuSans-30" transform="translate(190.869141 0)"/>
      </g>
     </g>
    </g>
    <g id="xtick_9">
     <g id="line2d_17">
      <path d="M 368.345919 320.4 
L 368.345919 43.2 
" clip-path="url(#p2465df485e)" style="fill: none; stroke: #b0b0b0; stroke-opacity: 0.3; stroke-width: 0.8; stroke-linecap: square"/>
     </g>
     <g id="line2d_18">
      <g>
       <use xlink:href="#m642b17b4ba" x="368.345919" y="320.4" style="stroke: #000000; stroke-width: 0.8"/>
      </g>
     </g>
     <g id="text_9">
      <!-- 4000 -->
      <g transform="translate(355.620919 334.998437) scale(0.1 -0.1)">
       <defs>
        <path id="DejaVuSans-34" d="M 2419 4116 
L 825 1625 
L 2419 1625 
L 2419 4116 
z
M 2253 4666 
L 3047 4666 
L 3047 1625 
L 3713 1625 
L 3713 1100 
L 3047 1100 
L 3047 0 
L 2419 0 
L 2419 1100 
L 313 1100 
L 313 1709 
L 2253 4666 
z
" transform="scale(0.015625)"/>
       </defs>
       <use xlink:href="#DejaVuSans-34"/>
       <use xlink:href="#DejaVuSans-30" transform="translate(63.623047 0)"/>
       <use xlink:href="#DejaVuSans-30" transform="translate(127.246094 0)"/>
       <use xlink:href="#DejaVuSans-30" transform="translate(190.869141 0)"/>
      </g>
     </g>
    </g>
    <g id="text_10">
     <!-- Betriebszeit [h] -->
     <g transform="translate(179.993324 348.676562) scale(0.1 -0.1)">
      <defs>
       <path id="DejaVuSans-42" d="M 1259 2228 
L 1259 519 
L 2272 519 
Q 2781 519 3026 730 
Q 3272 941 3272 1375 
Q 3272 1813 3026 2020 
Q 2781 2228 2272 2228 
L 1259 2228 
z
M 1259 4147 
L 1259 2741 
L 2194 2741 
Q 2656 2741 2882 2914 
Q 3109 3088 3109 3444 
Q 3109 3797 2882 3972 
Q 2656 4147 2194 4147 
L 1259 4147 
z
M 628 4666 
L 2241 4666 
Q 2963 4666 3353 4366 
Q 3744 4066 3744 3513 
Q 3744 3084 3544 2831 
Q 3344 2578 2956 2516 
Q 3422 2416 3680 2098 
Q 3938 1781 3938 1306 
Q 3938 681 3513 340 
Q 3088 0 2303 0 
L 628 0 
L 628 4666 
z
" transform="scale(0.015625)"/>
       <path id="DejaVuSans-65" d="M 3597 1894 
L 3597 1613 
L 953 1613 
Q 991 1019 1311 708 
Q 1631 397 2203 397 
Q 2534 397 2845 478 
Q 3156 559 3463 722 
L 3463 178 
Q 3153 47 2828 -22 
Q 2503 -91 2169 -91 
Q 1331 -91 842 396 
Q 353 884 353 1716 
Q 353 2575 817 3079 
Q 1281 3584 2069 3584 
Q 2775 3584 3186 3129 
Q 3597 2675 3597 1894 
z
M 3022 2063 
Q 3016 2534 2758 2815 
Q 2500 3097 2075 3097 
Q 1594 3097 1305 2825 
Q 1016 2553 972 2059 
L 3022 2063 
z
" transform="scale(0.015625)"/>
       <path id="DejaVuSans-74" d="M 1172 4494 
L 1172 3500 
L 2356 3500 
L 2356 3053 
L 1172 3053 
L 1172 1153 
Q 1172 725 1289 603 
Q 1406 481 1766 481 
L 2356 481 
L 2356 0 
L 1766 0 
Q 1100 0 847 248 
Q 594 497 594 1153 
L 594 3053 
L 172 3053 
L 172 3500 
L 594 3500 
L 594 4494 
L 1172 4494 
z
" transform="scale(0.015625)"/>
       <path id="DejaVuSans-72" d="M 2631 2963 
Q 2534 3019 2420 3045 
Q 2306 3072 2169 3072 
Q 1681 3072 1420 2755 
Q 1159 2438 1159 1844 
L 1159 0 
L 581 0 
L 581 3500 
L 1159 3500 
L 1159 2956 
Q 1341 3275 1631 3429 
Q 1922 3584 2338 3584 
Q 2397 3584 2469 3576 
Q 2541 3569 2628 3553 
L 2631 2963 
z
" transform="scale(0.015625)"/>
       <path id="DejaVuSans-69" d="M 603 3500 
L 1178 3500 
L 1178 0 
L 603 0 
L 603 3500 
z
M 603 4863 
L 1178 4863 
L 1178 4134 
L 603 4134 
L 603 4863 
z
" transform="scale(0.015625)"/>
       <path id="DejaVuSans-62" d="M 3116 1747 
Q 3116 2381 2855 2742 
Q 2594 3103 2138 3103 
Q 1681 3103 1420 2742 
Q 1159 2381 1159 1747 
Q 1159 1113 1420 752 
Q 1681 391 2138 391 
Q 2594 391 2855 752 
Q 3116 1113 3116 1747 
z
M 1159 2969 
Q 1341 3281 1617 3432 
Q 1894 3584 2278 3584 
Q 2916 3584 3314 3078 
Q 3713 2572 3713 1747 
Q 3713 922 3314 415 
Q 2916 -91 2278 -91 
Q 1894 -91 1617 61 
Q 1341 213 1159 525 
L 1159 0 
L 581 0 
L 581 4863 
L 1159 4863 
L 1159 2969 
z
" transform="scale(0.015625)"/>
       <path id="DejaVuSans-73" d="M 2834 3397 
L 2834 2853 
Q 2591 2978 2328 3040 
Q 2066 3103 1784 3103 
Q 1356 3103 1142 2972 
Q 928 2841 928 2578 
Q 928 2378 1081 2264 
Q 1234 2150 1697 2047 
L 1894 2003 
Q 2506 1872 2764 1633 
Q 3022 1394 3022 966 
Q 3022 478 2636 193 
Q 2250 -91 1575 -91 
Q 1294 -91 989 -36 
Q 684 19 347 128 
L 347 722 
Q 666 556 975 473 
Q 1284 391 1588 391 
Q 1994 391 2212 530 
Q 2431 669 2431 922 
Q 2431 1156 2273 1281 
Q 2116 1406 1581 1522 
L 1381 1569 
Q 847 1681 609 1914 
Q 372 2147 372 2553 
Q 372 3047 722 3315 
Q 1072 3584 1716 3584 
Q 2034 3584 2315 3537 
Q 2597 3491 2834 3397 
z
" transform="scale(0.015625)"/>
       <path id="DejaVuSans-7a" d="M 353 3500 
L 3084 3500 
L 3084 2975 
L 922 459 
L 3084 459 
L 3084 0 
L 275 0 
L 275 525 
L 2438 3041 
L 353 3041 
L 353 3500 
z
" transform="scale(0.015625)"/>
       <path id="DejaVuSans-20" transform="scale(0.015625)"/>
       <path id="DejaVuSans-5b" d="M 550 4863 
L 1875 4863 
L 1875 4416 
L 1125 4416 
L 1125 -397 
L 1875 -397 
L 1875 -844 
L 550 -844 
L 550 4863 
z
" transform="scale(0.015625)"/>
       <path id="DejaVuSans-68" d="M 3513 2113 
L 3513 0 
L 2938 0 
L 2938 2094 
Q 2938 2591 2744 2837 
Q 2550 3084 2163 3084 
Q 1697 3084 1428 2787 
Q 1159 2491 1159 1978 
L 1159 0 
L 581 0 
L 581 4863 
L 1159 4863 
L 1159 2956 
Q 1366 3272 1645 3428 
Q 1925 3584 2291 3584 
Q 2894 3584 3203 3211 
Q 3513 2838 3513 2113 
z
" transform="scale(0.015625)"/>
       <path id="DejaVuSans-5d" d="M 1947 4863 
L 1947 -844 
L 622 -844 
L 622 -397 
L 1369 -397 
L 1369 4416 
L 622 4416 
L 622 4863 
L 1947 4863 
z
" transform="scale(0.015625)"/>
      </defs>
      <use xlink:href="#DejaVuSans-42"/>
      <use xlink:href="#DejaVuSans-65" transform="translate(68.603516 0)"/>
      <use xlink:href="#DejaVuSans-74" transform="translate(130.126953 0)"/>
      <use xlink:href="#DejaVuSans-72" transform="translate(169.335938 0)"/>
      <use xlink:href="#DejaVuSans-69" transform="translate(210.449219 0)"/>
      <use xlink:href="#DejaVuSans-65" transform="translate(238.232422 0)"/>
      <use xlink:href="#DejaVuSans-62" transform="translate(299.755859 0)"/>
      <use xlink:href="#DejaVuSans-73" transform="translate(363.232422 0)"/>
      <use xlink:href="#DejaVuSans-7a" transform="translate(415.332031 0)"/>
      <use xlink:href="#DejaVuSans-65" transform="translate(467.822266 0)"/>
      <use xlink:href="#DejaVuSans-69" transform="translate(529.345703 0)"/>
      <use xlink:href="#DejaVuSans-74" transform="translate(557.128906 0)"/>
      <use xlink:href="#DejaVuSans-20" transform="translate(596.337891 0)"/>
      <use xlink:href="#DejaVuSans-5b" transform="translate(628.125 0)"/>
      <use xlink:href="#DejaVuSans-68" transform="translate(667.138672 0)"/>
      <use xlink:href="#DejaVuSans-5d" transform="translate(730.517578 0)"/>
     </g>
    </g>
   </g>
   <g id="matplotlib.axis_2">
    <g id="ytick_1">
     <g id="line2d_19">
      <path d="M 53.60625 307.8 
L 383.333523 307.8 
" clip-path="url(#p2465df485e)" style="fill: none; stroke: #b0b0b0; stroke-opacity: 0.3; stroke-width: 0.8; stroke-linecap: square"/>
     </g>
     <g id="line2d_20">
      <defs>
       <path id="mde5cab446b" d="M 0 0 
L -3.5 0 
" style="stroke: #000000; stroke-width: 0.8"/>
      </defs>
      <g>
       <use xlink:href="#mde5cab446b" x="53.60625" y="307.8" style="stroke: #000000; stroke-width: 0.8"/>
      </g>
     </g>
     <g id="text_11">
      <!-- 1200 -->
      <g transform="translate(21.15625 311.599219) scale(0.1 -0.1)">
       <use xlink:href="#DejaVuSans-31"/>
       <use xlink:href="#DejaVuSans-32" transform="translate(63.623047 0)"/>
       <use xlink:href="#DejaVuSans-30" transform="translate(127.246094 0)"/>
       <use xlink:href="#DejaVuSans-30" transform="translate(190.869141 0)"/>
      </g>
     </g>
    </g>
    <g id="ytick_2">
     <g id="line2d_21">
      <path d="M 53.60625 265.8 
L 383.333523 265.8 
" clip-path="url(#p2465df485e)" style="fill: none; stroke: #b0b0b0; stroke-opacity: 0.3; stroke-width: 0.8; stroke-linecap: square"/>
     </g>
     <g id="line2d_22">
      <g>
       <use xlink:href="#mde5cab446b" x="53.60625" y="265.8" style="stroke: #000000; stroke-width: 0.8"/>
      </g>
     </g>
     <g id="text_12">
      <!-- 1250 -->
      <g transform="translate(21.15625 269.599219) scale(0.1 -0.1)">
       <use xlink:href="#DejaVuSans-31"/>
       <use xlink:href="#DejaVuSans-32" transform="translate(63.623047 0)"/>
       <use xlink:href="#DejaVuSans-35" transform="translate(127.246094 0)"/>
       <use xlink:href="#DejaVuSans-30" transform="translate(190.869141 0)"/>
      </g>
     </g>
    </g>
    <g id="ytick_3">
     <g id="line2d_23">
      <path d="M 53.60625 223.8 
L 383.333523 223.8 
" clip-path="url(#p2465df485e)" style="fill: none; stroke: #b0b0b0; stroke-opacity: 0.3; stroke-width: 0.8; stroke-linecap: square"/>
     </g>
     <g id="line2d_24">
      <g>
       <use xlink:href="#mde5cab446b" x="53.60625" y="223.8" style="stroke: #000000; stroke-width: 0.8"/>
      </g>
     </g>
     <g id="text_13">
      <!-- 1300 -->
      <g transform="translate(21.15625 227.599219) scale(0.1 -0.1)">
       <use xlink:href="#DejaVuSans-31"/>
       <use xlink:href="#DejaVuSans-33" transform="translate(63.623047 0)"/>
       <use xlink:href="#DejaVuSans-30" transform="translate(127.246094 0)"/>
       <use xlink:href="#DejaVuSans-30" transform="translate(190.869141 0)"/>
      </g>
     </g>
    </g>
    <g id="ytick_4">
     <g id="line2d_25">
      <path d="M 53.60625 181.8 
L 383.333523 181.8 
" clip-path="url(#p2465df485e)" style="fill: none; stroke: #b0b0b0; stroke-opacity: 0.3; stroke-width: 0.8; stroke-linecap: square"/>
     </g>
     <g id="line2d_26">
      <g>
       <use xlink:href="#mde5cab446b" x="53.60625" y="181.8" style="stroke: #000000; stroke-width: 0.8"/>
      </g>
     </g>
     <g id="text_14">
      <!-- 1350 -->
      <g transform="translate(21.15625 185.599219) scale(0.1 -0.1)">
       <use xlink:href="#DejaVuSans-31"/>
       <use xlink:href="#DejaVuSans-33" transform="translate(63.623047 0)"/>
       <use xlink:href="#DejaVuSans-35" transform="translate(127.246094 0)"/>
       <use xlink:href="#DejaVuSans-30" transform="translate(190.869141 0)"/>
      </g>
     </g>
    </g>
    <g id="ytick_5">
     <g id="line2d_27">
      <path d="M 53.60625 139.8 
L 383.333523 139.8 
" clip-path="url(#p2465df485e)" style="fill: none; stroke: #b0b0b0; stroke-opacity: 0.3; stroke-width: 0.8; stroke-linecap: square"/>
     </g>
     <g id="line2d_28">
      <g>
       <use xlink:href="#mde5cab446b" x="53.60625" y="139.8" style="stroke: #000000; stroke-width: 0.8"/>
      </g>
     </g>
     <g id="text_15">
      <!-- 1400 -->
      <g transform="translate(21.15625 143.599219) scale(0.1 -0.1)">
       <use xlink:href="#DejaVuSans-31"/>
       <use xlink:href="#DejaVuSans-34" transform="translate(63.623047 0)"/>
       <use xlink:href="#DejaVuSans-30" transform="translate(127.246094 0)"/>
       <use xlink:href="#DejaVuSans-30" transform="translate(190.869141 0)"/>
      </g>
     </g>
    </g>
    <g id="ytick_6">
     <g id="line2d_29">
      <path d="M 53.60625 97.8 
L 383.333523 97.8 
" clip-path="url(#p2465df485e)" style="fill: none; stroke: #b0b0b0; stroke-opacity: 0.3; stroke-width: 0.8; stroke-linecap: square"/>
     </g>
     <g id="line2d_30">
      <g>
       <use xlink:href="#mde5cab446b" x="53.60625" y="97.8" style="stroke: #000000; stroke-width: 0.8"/>
      </g>
     </g>
     <g id="text_16">
      <!-- 1450 -->
      <g transform="translate(21.15625 101.599219) scale(0.1 -0.1)">
       <use xlink:href="#DejaVuSans-31"/>
       <use xlink:href="#DejaVuSans-34" transform="translate(63.623047 0)"/>
       <use xlink:href="#DejaVuSans-35" transform="translate(127.246094 0)"/>
       <use xlink:href="#DejaVuSans-30" transform="translate(190.869141 0)"/>
      </g>
     </g>
    </g>
    <g id="ytick_7">
     <g id="line2d_31">
      <path d="M 53.60625 55.8 
L 383.333523 55.8 
" clip-path="url(#p2465df485e)" style="fill: none; stroke: #b0b0b0; stroke-opacity: 0.3; stroke-width: 0.8; stroke-linecap: square"/>
     </g>
     <g id="line2d_32">
      <g>
       <use xlink:href="#mde5cab446b" x="53.60625" y="55.8" style="stroke: #000000; stroke-width: 0.8"/>
      </g>
     </g>
     <g id="text_17">
      <!-- 1500 -->
      <g transform="translate(21.15625 59.599219) scale(0.1 -0.1)">
       <use xlink:href="#DejaVuSans-31"/>
       <use xlink:href="#DejaVuSans-35" transform="translate(63.623047 0)"/>
       <use xlink:href="#DejaVuSans-30" transform="translate(127.246094 0)"/>
       <use xlink:href="#DejaVuSans-30" transform="translate(190.869141 0)"/>
      </g>
     </g>
    </g>
    <g id="text_18">
     <!-- K_eff [MPa] -->
     <g transform="translate(14.798437 209.834375) rotate(-90) scale(0.1 -0.1)">
      <defs>
       <path id="DejaVuSans-4b" d="M 628 4666 
L 1259 4666 
L 1259 2694 
L 3353 4666 
L 4166 4666 
L 1850 2491 
L 4331 0 
L 3500 0 
L 1259 2247 
L 1259 0 
L 628 0 
L 628 4666 
z
" transform="scale(0.015625)"/>
       <path id="DejaVuSans-5f" d="M 3263 -1063 
L 3263 -1509 
L -63 -1509 
L -63 -1063 
L 3263 -1063 
z
" transform="scale(0.015625)"/>
       <path id="DejaVuSans-66" d="M 2375 4863 
L 2375 4384 
L 1825 4384 
Q 1516 4384 1395 4259 
Q 1275 4134 1275 3809 
L 1275 3500 
L 2222 3500 
L 2222 3053 
L 1275 3053 
L 1275 0 
L 697 0 
L 697 3053 
L 147 3053 
L 147 3500 
L 697 3500 
L 697 3744 
Q 697 4328 969 4595 
Q 1241 4863 1831 4863 
L 2375 4863 
z
" transform="scale(0.015625)"/>
       <path id="DejaVuSans-4d" d="M 628 4666 
L 1569 4666 
L 2759 1491 
L 3956 4666 
L 4897 4666 
L 4897 0 
L 4281 0 
L 4281 4097 
L 3078 897 
L 2444 897 
L 1241 4097 
L 1241 0 
L 628 0 
L 628 4666 
z
" transform="scale(0.015625)"/>
       <path id="DejaVuSans-50" d="M 1259 4147 
L 1259 2394 
L 2053 2394 
Q 2494 2394 2734 2622 
Q 2975 2850 2975 3272 
Q 2975 3691 2734 3919 
Q 2494 4147 2053 4147 
L 1259 4147 
z
M 628 4666 
L 2053 4666 
Q 2838 4666 3239 4311 
Q 3641 3956 3641 3272 
Q 3641 2581 3239 2228 
Q 2838 1875 2053 1875 
L 1259 1875 
L 1259 0 
L 628 0 
L 628 4666 
z
" transform="scale(0.015625)"/>
       <path id="DejaVuSans-61" d="M 2194 1759 
Q 1497 1759 1228 1600 
Q 959 1441 959 1056 
Q 959 750 1161 570 
Q 1363 391 1709 391 
Q 2188 391 2477 730 
Q 2766 1069 2766 1631 
L 2766 1759 
L 2194 1759 
z
M 3341 1997 
L 3341 0 
L 2766 0 
L 2766 531 
Q 2569 213 2275 61 
Q 1981 -91 1556 -91 
Q 1019 -91 701 211 
Q 384 513 384 1019 
Q 384 1609 779 1909 
Q 1175 2209 1959 2209 
L 2766 2209 
L 2766 2266 
Q 2766 2663 2505 2880 
Q 2244 3097 1772 3097 
Q 1472 3097 1187 3025 
Q 903 2953 641 2809 
L 641 3341 
Q 956 3463 1253 3523 
Q 1550 3584 1831 3584 
Q 2591 3584 2966 3190 
Q 3341 2797 3341 1997 
z
" transform="scale(0.015625)"/>
      </defs>
      <use xlink:href="#DejaVuSans-4b"/>
      <use xlink:href="#DejaVuSans-5f" transform="translate(65.576172 0)"/>
      <use xlink:href="#DejaVuSans-65" transform="translate(115.576172 0)"/>
      <use xlink:href="#DejaVuSans-66" transform="translate(177.099609 0)"/>
      <use xlink:href="#DejaVuSans-66" transform="translate(212.304688 0)"/>
      <use xlink:href="#DejaVuSans-20" transform="translate(247.509766 0)"/>
      <use xlink:href="#DejaVuSans-5b" transform="translate(279.296875 0)"/>
      <use xlink:href="#DejaVuSans-4d" transform="translate(318.310547 0)"/>
      <use xlink:href="#DejaVuSans-50" transform="translate(404.589844 0)"/>
      <use xlink:href="#DejaVuSans-61" transform="translate(460.392578 0)"/>
      <use xlink:href="#DejaVuSans-5d" transform="translate(521.671875 0)"/>
     </g>
    </g>
   </g>
   <g id="line2d_33">
    <path d="M 68.593853 55.8 
L 69.345112 62.108127 
L 70.09637 64.721653 
L 71.598887 68.419579 
L 73.101403 71.259659 
L 74.60392 73.656602 
L 76.857695 76.749633 
L 79.11147 79.4485 
L 82.116503 82.639039 
L 85.121536 85.501545 
L 88.877828 88.749847 
L 93.385378 92.294636 
L 97.892927 95.553899 
L 103.151736 99.084604 
L 109.161802 102.845697 
L 115.923127 106.809705 
L 123.43571 110.959929 
L 132.45081 115.671343 
L 142.217168 120.525256 
L 154.237301 126.235547 
L 167.75995 132.409216 
L 185.038892 140.036987 
L 207.576641 149.722814 
L 254.154656 169.421984 
L 290.215055 184.804406 
L 317.260354 196.575688 
L 342.051879 207.606147 
L 365.340886 218.212734 
L 368.345919 219.6 
L 368.345919 219.6 
" clip-path="url(#p2465df485e)" style="fill: none; stroke: #4682b4; stroke-width: 2.5; stroke-linecap: square"/>
   </g>
   <g id="line2d_34">
    <path d="M 68.593853 55.8 
L 69.345112 62.108127 
L 70.09637 64.721653 
L 71.598887 68.419579 
L 73.101403 71.259659 
L 74.60392 73.656602 
L 76.857695 76.749633 
L 79.11147 79.4485 
L 82.116503 82.639039 
L 85.121536 85.501545 
L 88.877828 88.749847 
L 93.385378 92.294636 
L 97.892927 95.553899 
L 103.151736 99.084604 
L 109.161802 102.845697 
L 115.923127 106.809705 
L 123.43571 110.959929 
L 132.45081 115.671343 
L 142.217168 120.525256 
L 154.237301 126.235547 
L 167.75995 132.409216 
L 185.038892 140.036987 
L 207.576641 149.722814 
L 254.154656 169.421984 
L 290.215055 184.804406 
L 317.260354 196.575688 
L 342.051879 207.606147 
L 365.340886 218.212734 
L 368.345919 219.6 
L 368.345919 219.6 
" clip-path="url(#p2465df485e)" style="fill: none; stroke-dasharray: 5.55,2.4; stroke-dashoffset: 0; stroke: #ff0000; stroke-opacity: 0.7; stroke-width: 1.5"/>
   </g>
   <g id="line2d_35">
    <path d="M 53.60625 181.8 
L 383.333523 181.8 
" clip-path="url(#p2465df485e)" style="fill: none; stroke-dasharray: 4.44,1.92; stroke-dashoffset: 0; stroke: #ffa500; stroke-width: 1.2"/>
   </g>
   <g id="line2d_36">
    <path d="M 53.60625 307.8 
L 383.333523 307.8 
" clip-path="url(#p2465df485e)" style="fill: none; stroke-dasharray: 4.44,1.92; stroke-dashoffset: 0; stroke: #ff0000; stroke-width: 1.2"/>
   </g>
   <g id="patch_3">
    <path d="M 53.60625 320.4 
L 53.60625 43.2 
" style="fill: none; stroke: #000000; stroke-width: 0.8; stroke-linejoin: miter; stroke-linecap: square"/>
   </g>
   <g id="patch_4">
    <path d="M 383.333523 320.4 
L 383.333523 43.2 
" style="fill: none; stroke: #000000; stroke-width: 0.8; stroke-linejoin: miter; stroke-linecap: square"/>
   </g>
   <g id="patch_5">
    <path d="M 53.60625 320.4 
L 383.333523 320.4 
" style="fill: none; stroke: #000000; stroke-width: 0.8; stroke-linejoin: miter; stroke-linecap: square"/>
   </g>
   <g id="patch_6">
    <path d="M 53.60625 43.2 
L 383.333523 43.2 
" style="fill: none; stroke: #000000; stroke-width: 0.8; stroke-linejoin: miter; stroke-linecap: square"/>
   </g>
   <g id="text_19">
    <!-- Kompressionsmodul über Betriebszeit -->
    <g transform="translate(104.811136 37.2) scale(0.12 -0.12)">
     <defs>
      <path id="DejaVuSans-6f" d="M 1959 3097 
Q 1497 3097 1228 2736 
Q 959 2375 959 1747 
Q 959 1119 1226 758 
Q 1494 397 1959 397 
Q 2419 397 2687 759 
Q 2956 1122 2956 1747 
Q 2956 2369 2687 2733 
Q 2419 3097 1959 3097 
z
M 1959 3584 
Q 2709 3584 3137 3096 
Q 3566 2609 3566 1747 
Q 3566 888 3137 398 
Q 2709 -91 1959 -91 
Q 1206 -91 779 398 
Q 353 888 353 1747 
Q 353 2609 779 3096 
Q 1206 3584 1959 3584 
z
" transform="scale(0.015625)"/>
      <path id="DejaVuSans-6d" d="M 3328 2828 
Q 3544 3216 3844 3400 
Q 4144 3584 4550 3584 
Q 5097 3584 5394 3201 
Q 5691 2819 5691 2113 
L 5691 0 
L 5113 0 
L 5113 2094 
Q 5113 2597 4934 2840 
Q 4756 3084 4391 3084 
Q 3944 3084 3684 2787 
Q 3425 2491 3425 1978 
L 3425 0 
L 2847 0 
L 2847 2094 
Q 2847 2600 2669 2842 
Q 2491 3084 2119 3084 
Q 1678 3084 1418 2786 
Q 1159 2488 1159 1978 
L 1159 0 
L 581 0 
L 581 3500 
L 1159 3500 
L 1159 2956 
Q 1356 3278 1631 3431 
Q 1906 3584 2284 3584 
Q 2666 3584 2933 3390 
Q 3200 3197 3328 2828 
z
" transform="scale(0.015625)"/>
      <path id="DejaVuSans-70" d="M 1159 525 
L 1159 -1331 
L 581 -1331 
L 581 3500 
L 1159 3500 
L 1159 2969 
Q 1341 3281 1617 3432 
Q 1894 3584 2278 3584 
Q 2916 3584 3314 3078 
Q 3713 2572 3713 1747 
Q 3713 922 3314 415 
Q 2916 -91 2278 -91 
Q 1894 -91 1617 61 
Q 1341 213 1159 525 
z
M 3116 1747 
Q 3116 2381 2855 2742 
Q 2594 3103 2138 3103 
Q 1681 3103 1420 2742 
Q 1159 2381 1159 1747 
Q 1159 1113 1420 752 
Q 1681 391 2138 391 
Q 2594 391 2855 752 
Q 3116 1113 3116 1747 
z
" transform="scale(0.015625)"/>
      <path id="DejaVuSans-6e" d="M 3513 2113 
L 3513 0 
L 2938 0 
L 2938 2094 
Q 2938 2591 2744 2837 
Q 2550 3084 2163 3084 
Q 1697 3084 1428 2787 
Q 1159 2491 1159 1978 
L 1159 0 
L 581 0 
L 581 3500 
L 1159 3500 
L 1159 2956 
Q 1366 3272 1645 3428 
Q 1925 3584 2291 3584 
Q 2894 3584 3203 3211 
Q 3513 2838 3513 2113 
z
" transform="scale(0.015625)"/>
      <path id="DejaVuSans-64" d="M 2906 2969 
L 2906 4863 
L 3481 4863 
L 3481 0 
L 2906 0 
L 2906 525 
Q 2725 213 2448 61 
Q 2172 -91 1784 -91 
Q 1150 -91 751 415 
Q 353 922 353 1747 
Q 353 2572 751 3078 
Q 1150 3584 1784 3584 
Q 2172 3584 2448 3432 
Q 2725 3281 2906 2969 
z
M 947 1747 
Q 947 1113 1208 752 
Q 1469 391 1925 391 
Q 2381 391 2643 752 
Q 2906 1113 2906 1747 
Q 2906 2381 2643 2742 
Q 2381 3103 1925 3103 
Q 1469 3103 1208 2742 
Q 947 2381 947 1747 
z
" transform="scale(0.015625)"/>
      <path id="DejaVuSans-75" d="M 544 1381 
L 544 3500 
L 1119 3500 
L 1119 1403 
Q 1119 906 1312 657 
Q 1506 409 1894 409 
Q 2359 409 2629 706 
Q 2900 1003 2900 1516 
L 2900 3500 
L 3475 3500 
L 3475 0 
L 2900 0 
L 2900 538 
Q 2691 219 2414 64 
Q 2138 -91 1772 -91 
Q 1169 -91 856 284 
Q 544 659 544 1381 
z
M 1991 3584 
L 1991 3584 
z
" transform="scale(0.015625)"/>
      <path id="DejaVuSans-6c" d="M 603 4863 
L 1178 4863 
L 1178 0 
L 603 0 
L 603 4863 
z
" transform="scale(0.015625)"/>
      <path id="DejaVuSans-fc" d="M 544 1381 
L 544 3500 
L 1119 3500 
L 1119 1403 
Q 1119 906 1312 657 
Q 1506 409 1894 409 
Q 2359 409 2629 706 
Q 2900 1003 2900 1516 
L 2900 3500 
L 3475 3500 
L 3475 0 
L 2900 0 
L 2900 538 
Q 2691 219 2414 64 
Q 2138 -91 1772 -91 
Q 1169 -91 856 284 
Q 544 659 544 1381 
z
M 1991 3584 
L 1991 3584 
z
M 2278 4850 
L 2912 4850 
L 2912 4219 
L 2278 4219 
L 2278 4850 
z
M 1056 4850 
L 1690 4850 
L 1690 4219 
L 1056 4219 
L 1056 4850 
z
" transform="scale(0.015625)"/>
     </defs>
     <use xlink:href="#DejaVuSans-4b"/>
     <use xlink:href="#DejaVuSans-6f" transform="translate(60.576172 0)"/>
     <use xlink:href="#DejaVuSans-6d" transform="translate(121.757812 0)"/>
     <use xlink:href="#DejaVuSans-70" transform="translate(219.169922 0)"/>
     <use xlink:href="#DejaVuSans-72" transform="translate(282.646484 0)"/>
     <use xlink:href="#DejaVuSans-65" transform="translate(321.509766 0)"/>
     <use xlink:href="#DejaVuSans-73" transform="translate(383.033203 0)"/>
     <use xlink:href="#DejaVuSans-73" transform="translate(435.132812 0)"/>
     <use xlink:href="#DejaVuSans-69" transform="translate(487.232422 0)"/>
     <use xlink:href="#DejaVuSans-6f" transform="translate(515.015625 0)"/>
     <use xlink:href="#DejaVuSans-6e" transform="translate(576.197266 0)"/>
     <use xlink:href="#DejaVuSans-73" transform="translate(639.576172 0)"/>
     <use xlink:href="#DejaVuSans-6d" transform="translate(691.675781 0)"/>
     <use xlink:href="#DejaVuSans-6f" transform="translate(789.087891 0)"/>
     <use xlink:href="#DejaVuSans-64" transform="translate(850.269531 0)"/>
     <use xlink:href="#DejaVuSans-75" transform="translate(913.746094 0)"/>
     <use xlink:href="#DejaVuSans-6c" transform="translate(977.125 0)"/>
     <use xlink:href="#DejaVuSans-20" transform="translate(1004.908203 0)"/>
     <use xlink:href="#DejaVuSans-fc" transform="translate(1036.695312 0)"/>
     <use xlink:href="#DejaVuSans-62" transform="translate(1100.074219 0)"/>
     <use xlink:href="#DejaVuSans-65" transform="translate(1163.550781 0)"/>
     <use xlink:href="#DejaVuSans-72" transform="translate(1225.074219 0)"/>
     <use xlink:href="#DejaVuSans-20" transform="translate(1266.1875 0)"/>
     <use xlink:href="#DejaVuSans-42" transform="translate(1297.974609 0)"/>
     <use xlink:href="#DejaVuSans-65" transform="translate(1366.578125 0)"/>
     <use xlink:href="#DejaVuSans-74" transform="translate(1428.101562 0)"/>
     <use xlink:href="#DejaVuSans-72" transform="translate(1467.310547 0)"/>
     <use xlink:href="#DejaVuSans-69" transform="translate(1508.423828 0)"/>
     <use xlink:href="#DejaVuSans-65" transform="translate(1536.207031 0)"/>
     <use xlink:href="#DejaVuSans-62" transform="translate(1597.730469 0)"/>
     <use xlink:href="#DejaVuSans-73" transform="translate(1661.207031 0)"/>
     <use xlink:href="#DejaVuSans-7a" transform="translate(1713.306641 0)"/>
     <use xlink:href="#DejaVuSans-65" transform="translate(1765.796875 0)"/>
     <use xlink:href="#DejaVuSans-69" transform="translate(1827.320312 0)"/>
     <use xlink:href="#DejaVuSans-74" transform="translate(1855.103516 0)"/>
    </g>
   </g>
   <g id="legend_1">
    <g id="patch_7">
     <path d="M 244.142273 97.015 
L 377.733523 97.015 
Q 379.333523 97.015 379.333523 95.415 
L 379.333523 48.8 
Q 379.333523 47.2 377.733523 47.2 
L 244.142273 47.2 
Q 242.542273 47.2 242.542273 48.8 
L 242.542273 95.415 
Q 242.542273 97.015 244.142273 97.015 
z
" style="fill: #ffffff; opacity: 0.8; stroke: #cccccc; stroke-linejoin: miter"/>
    </g>
    <g id="line2d_37">
     <path d="M 245.742273 53.67875 
L 253.742273 53.67875 
L 261.742273 53.67875 
" style="fill: none; stroke: #4682b4; stroke-width: 2.5; stroke-linecap: square"/>
    </g>
    <g id="text_20">
     <!-- K_eff (Simulation) -->
     <g transform="translate(268.142273 56.47875) scale(0.08 -0.08)">
      <defs>
       <path id="DejaVuSans-28" d="M 1984 4856 
Q 1566 4138 1362 3434 
Q 1159 2731 1159 2009 
Q 1159 1288 1364 580 
Q 1569 -128 1984 -844 
L 1484 -844 
Q 1016 -109 783 600 
Q 550 1309 550 2009 
Q 550 2706 781 3412 
Q 1013 4119 1484 4856 
L 1984 4856 
z
" transform="scale(0.015625)"/>
       <path id="DejaVuSans-53" d="M 3425 4513 
L 3425 3897 
Q 3066 4069 2747 4153 
Q 2428 4238 2131 4238 
Q 1616 4238 1336 4038 
Q 1056 3838 1056 3469 
Q 1056 3159 1242 3001 
Q 1428 2844 1947 2747 
L 2328 2669 
Q 3034 2534 3370 2195 
Q 3706 1856 3706 1288 
Q 3706 609 3251 259 
Q 2797 -91 1919 -91 
Q 1588 -91 1214 -16 
Q 841 59 441 206 
L 441 856 
Q 825 641 1194 531 
Q 1563 422 1919 422 
Q 2459 422 2753 634 
Q 3047 847 3047 1241 
Q 3047 1584 2836 1778 
Q 2625 1972 2144 2069 
L 1759 2144 
Q 1053 2284 737 2584 
Q 422 2884 422 3419 
Q 422 4038 858 4394 
Q 1294 4750 2059 4750 
Q 2388 4750 2728 4690 
Q 3069 4631 3425 4513 
z
" transform="scale(0.015625)"/>
       <path id="DejaVuSans-29" d="M 513 4856 
L 1013 4856 
Q 1481 4119 1714 3412 
Q 1947 2706 1947 2009 
Q 1947 1309 1714 600 
Q 1481 -109 1013 -844 
L 513 -844 
Q 928 -128 1133 580 
Q 1338 1288 1338 2009 
Q 1338 2731 1133 3434 
Q 928 4138 513 4856 
z
" transform="scale(0.015625)"/>
      </defs>
      <use xlink:href="#DejaVuSans-4b"/>
      <use xlink:href="#DejaVuSans-5f" transform="translate(65.576172 0)"/>
      <use xlink:href="#DejaVuSans-65" transform="translate(115.576172 0)"/>
      <use xlink:href="#DejaVuSans-66" transform="translate(177.099609 0)"/>
      <use xlink:href="#DejaVuSans-66" transform="translate(212.304688 0)"/>
      <use xlink:href="#DejaVuSans-20" transform="translate(247.509766 0)"/>
      <use xlink:href="#DejaVuSans-28" transform="translate(279.296875 0)"/>
      <use xlink:href="#DejaVuSans-53" transform="translate(318.310547 0)"/>
      <use xlink:href="#DejaVuSans-69" transform="translate(381.787109 0)"/>
      <use xlink:href="#DejaVuSans-6d" transform="translate(409.570312 0)"/>
      <use xlink:href="#DejaVuSans-75" transform="translate(506.982422 0)"/>
      <use xlink:href="#DejaVuSans-6c" transform="translate(570.361328 0)"/>
      <use xlink:href="#DejaVuSans-61" transform="translate(598.144531 0)"/>
      <use xlink:href="#DejaVuSans-74" transform="translate(659.423828 0)"/>
      <use xlink:href="#DejaVuSans-69" transform="translate(698.632812 0)"/>
      <use xlink:href="#DejaVuSans-6f" transform="translate(726.416016 0)"/>
      <use xlink:href="#DejaVuSans-6e" transform="translate(787.597656 0)"/>
      <use xlink:href="#DejaVuSans-29" transform="translate(850.976562 0)"/>
     </g>
    </g>
    <g id="line2d_38">
     <path d="M 245.742273 65.64375 
L 253.742273 65.64375 
L 261.742273 65.64375 
" style="fill: none; stroke-dasharray: 5.55,2.4; stroke-dashoffset: 0; stroke: #ff0000; stroke-opacity: 0.7; stroke-width: 1.5"/>
    </g>
    <g id="text_21">
     <!-- K_eff (aus Δt rekonstruiert) -->
     <g transform="translate(268.142273 68.44375) scale(0.08 -0.08)">
      <defs>
       <path id="DejaVuSans-394" d="M 2188 4044 
L 906 525 
L 3472 525 
L 2188 4044 
z
M 50 0 
L 1831 4666 
L 2547 4666 
L 4325 0 
L 50 0 
z
" transform="scale(0.015625)"/>
       <path id="DejaVuSans-6b" d="M 581 4863 
L 1159 4863 
L 1159 1991 
L 2875 3500 
L 3609 3500 
L 1753 1863 
L 3688 0 
L 2938 0 
L 1159 1709 
L 1159 0 
L 581 0 
L 581 4863 
z
" transform="scale(0.015625)"/>
      </defs>
      <use xlink:href="#DejaVuSans-4b"/>
      <use xlink:href="#DejaVuSans-5f" transform="translate(65.576172 0)"/>
      <use xlink:href="#DejaVuSans-65" transform="translate(115.576172 0)"/>
      <use xlink:href="#DejaVuSans-66" transform="translate(177.099609 0)"/>
      <use xlink:href="#DejaVuSans-66" transform="translate(212.304688 0)"/>
      <use xlink:href="#DejaVuSans-20" transform="translate(247.509766 0)"/>
      <use xlink:href="#DejaVuSans-28" transform="translate(279.296875 0)"/>
      <use xlink:href="#DejaVuSans-61" transform="translate(318.310547 0)"/>
      <use xlink:href="#DejaVuSans-75" transform="translate(379.589844 0)"/>
      <use xlink:href="#DejaVuSans-73" transform="translate(442.96875 0)"/>
      <use xlink:href="#DejaVuSans-20" transform="translate(495.068359 0)"/>
      <use xlink:href="#DejaVuSans-394" transform="translate(526.855469 0)"/>
      <use xlink:href="#DejaVuSans-74" transform="translate(595.263672 0)"/>
      <use xlink:href="#DejaVuSans-20" transform="translate(634.472656 0)"/>
      <use xlink:href="#DejaVuSans-72" transform="translate(666.259766 0)"/>
      <use xlink:href="#DejaVuSans-65" transform="translate(705.123047 0)"/>
      <use xlink:href="#DejaVuSans-6b" transform="translate(766.646484 0)"/>
      <use xlink:href="#DejaVuSans-6f" transform="translate(820.931641 0)"/>
      <use xlink:href="#DejaVuSans-6e" transform="translate(882.113281 0)"/>
      <use xlink:href="#DejaVuSans-73" transform="translate(945.492188 0)"/>
      <use xlink:href="#DejaVuSans-74" transform="translate(997.591797 0)"/>
      <use xlink:href="#DejaVuSans-72" transform="translate(1036.800781 0)"/>
      <use xlink:href="#DejaVuSans-75" transform="translate(1077.914062 0)"/>
      <use xlink:href="#DejaVuSans-69" transform="translate(1141.292969 0)"/>
      <use xlink:href="#DejaVuSans-65" transform="translate(1169.076172 0)"/>
      <use xlink:href="#DejaVuSans-72" transform="translate(1230.599609 0)"/>
      <use xlink:href="#DejaVuSans-74" transform="translate(1271.712891 0)"/>
      <use xlink:href="#DejaVuSans-29" transform="translate(1310.921875 0)"/>
     </g>
    </g>
    <g id="line2d_39">
     <path d="M 245.742273 77.60875 
L 253.742273 77.60875 
L 261.742273 77.60875 
" style="fill: none; stroke-dasharray: 4.44,1.92; stroke-dashoffset: 0; stroke: #ffa500; stroke-width: 1.2"/>
    </g>
    <g id="text_22">
     <!-- YELLOW 90 % -->
     <g transform="translate(268.142273 80.40875) scale(0.08 -0.08)">
      <defs>
       <path id="DejaVuSans-59" d="M -13 4666 
L 666 4666 
L 1959 2747 
L 3244 4666 
L 3922 4666 
L 2272 2222 
L 2272 0 
L 1638 0 
L 1638 2222 
L -13 4666 
z
" transform="scale(0.015625)"/>
       <path id="DejaVuSans-45" d="M 628 4666 
L 3578 4666 
L 3578 4134 
L 1259 4134 
L 1259 2753 
L 3481 2753 
L 3481 2222 
L 1259 2222 
L 1259 531 
L 3634 531 
L 3634 0 
L 628 0 
L 628 4666 
z
" transform="scale(0.015625)"/>
       <path id="DejaVuSans-4c" d="M 628 4666 
L 1259 4666 
L 1259 531 
L 3531 531 
L 3531 0 
L 628 0 
L 628 4666 
z
" transform="scale(0.015625)"/>
       <path id="DejaVuSans-4f" d="M 2522 4238 
Q 1834 4238 1429 3725 
Q 1025 3213 1025 2328 
Q 1025 1447 1429 934 
Q 1834 422 2522 422 
Q 3209 422 3611 934 
Q 4013 1447 4013 2328 
Q 4013 3213 3611 3725 
Q 3209 4238 2522 4238 
z
M 2522 4750 
Q 3503 4750 4090 4092 
Q 4678 3434 4678 2328 
Q 4678 1225 4090 567 
Q 3503 -91 2522 -91 
Q 1538 -91 948 565 
Q 359 1222 359 2328 
Q 359 3434 948 4092 
Q 1538 4750 2522 4750 
z
" transform="scale(0.015625)"/>
       <path id="DejaVuSans-57" d="M 213 4666 
L 850 4666 
L 1831 722 
L 2809 4666 
L 3519 4666 
L 4500 722 
L 5478 4666 
L 6119 4666 
L 4947 0 
L 4153 0 
L 3169 4050 
L 2175 0 
L 1381 0 
L 213 4666 
z
" transform="scale(0.015625)"/>
       <path id="DejaVuSans-39" d="M 703 97 
L 703 672 
Q 941 559 1184 500 
Q 1428 441 1663 441 
Q 2288 441 2617 861 
Q 2947 1281 2994 2138 
Q 2813 1869 2534 1725 
Q 2256 1581 1919 1581 
Q 1219 1581 811 2004 
Q 403 2428 403 3163 
Q 403 3881 828 4315 
Q 1253 4750 1959 4750 
Q 2769 4750 3195 4129 
Q 3622 3509 3622 2328 
Q 3622 1225 3098 567 
Q 2575 -91 1691 -91 
Q 1453 -91 1209 -44 
Q 966 3 703 97 
z
M 1959 2075 
Q 2384 2075 2632 2365 
Q 2881 2656 2881 3163 
Q 2881 3666 2632 3958 
Q 2384 4250 1959 4250 
Q 1534 4250 1286 3958 
Q 1038 3666 1038 3163 
Q 1038 2656 1286 2365 
Q 1534 2075 1959 2075 
z
" transform="scale(0.015625)"/>
       <path id="DejaVuSans-25" d="M 4653 2053 
Q 4381 2053 4226 1822 
Q 4072 1591 4072 1178 
Q 4072 772 4226 539 
Q 4381 306 4653 306 
Q 4919 306 5073 539 
Q 5228 772 5228 1178 
Q 5228 1588 5073 1820 
Q 4919 2053 4653 2053 
z
M 4653 2450 
Q 5147 2450 5437 2106 
Q 5728 1763 5728 1178 
Q 5728 594 5436 251 
Q 5144 -91 4653 -91 
Q 4153 -91 3862 251 
Q 3572 594 3572 1178 
Q 3572 1766 3864 2108 
Q 4156 2450 4653 2450 
z
M 1428 4353 
Q 1159 4353 1004 4120 
Q 850 3888 850 3481 
Q 850 3069 1003 2837 
Q 1156 2606 1428 2606 
Q 1700 2606 1854 2837 
Q 2009 3069 2009 3481 
Q 2009 3884 1853 4118 
Q 1697 4353 1428 4353 
z
M 4250 4750 
L 4750 4750 
L 1831 -91 
L 1331 -91 
L 4250 4750 
z
M 1428 4750 
Q 1922 4750 2215 4408 
Q 2509 4066 2509 3481 
Q 2509 2891 2217 2550 
Q 1925 2209 1428 2209 
Q 931 2209 642 2551 
Q 353 2894 353 3481 
Q 353 4063 643 4406 
Q 934 4750 1428 4750 
z
" transform="scale(0.015625)"/>
      </defs>
      <use xlink:href="#DejaVuSans-59"/>
      <use xlink:href="#DejaVuSans-45" transform="translate(61.083984 0)"/>
      <use xlink:href="#DejaVuSans-4c" transform="translate(124.267578 0)"/>
      <use xlink:href="#DejaVuSans-4c" transform="translate(179.980469 0)"/>
      <use xlink:href="#DejaVuSans-4f" transform="translate(232.068359 0)"/>
      <use xlink:href="#DejaVuSans-57" transform="translate(310.779297 0)"/>
      <use xlink:href="#DejaVuSans-20" transform="translate(409.65625 0)"/>
      <use xlink:href="#DejaVuSans-39" transform="translate(441.443359 0)"/>
      <use xlink:href="#DejaVuSans-30" transform="translate(505.066406 0)"/>
      <use xlink:href="#DejaVuSans-20" transform="translate(568.689453 0)"/>
      <use xlink:href="#DejaVuSans-25" transform="translate(600.476562 0)"/>
     </g>
    </g>
    <g id="line2d_40">
     <path d="M 245.742273 89.35125 
L 253.742273 89.35125 
L 261.742273 89.35125 
" style="fill: none; stroke-dasharray: 4.44,1.92; stroke-dashoffset: 0; stroke: #ff0000; stroke-width: 1.2"/>
    </g>
    <g id="text_23">
     <!-- RED 80 % -->
     <g transform="translate(268.142273 92.15125) scale(0.08 -0.08)">
      <defs>
       <path id="DejaVuSans-52" d="M 2841 2188 
Q 3044 2119 3236 1894 
Q 3428 1669 3622 1275 
L 4263 0 
L 3584 0 
L 2988 1197 
Q 2756 1666 2539 1819 
Q 2322 1972 1947 1972 
L 1259 1972 
L 1259 0 
L 628 0 
L 628 4666 
L 2053 4666 
Q 2853 4666 3247 4331 
Q 3641 3997 3641 3322 
Q 3641 2881 3436 2590 
Q 3231 2300 2841 2188 
z
M 1259 4147 
L 1259 2491 
L 2053 2491 
Q 2509 2491 2742 2702 
Q 2975 2913 2975 3322 
Q 2975 3731 2742 3939 
Q 2509 4147 2053 4147 
L 1259 4147 
z
" transform="scale(0.015625)"/>
       <path id="DejaVuSans-44" d="M 1259 4147 
L 1259 519 
L 2022 519 
Q 2988 519 3436 956 
Q 3884 1394 3884 2338 
Q 3884 3275 3436 3711 
Q 2988 4147 2022 4147 
L 1259 4147 
z
M 628 4666 
L 1925 4666 
Q 3281 4666 3915 4102 
Q 4550 3538 4550 2338 
Q 4550 1131 3912 565 
Q 3275 0 1925 0 
L 628 0 
L 628 4666 
z
" transform="scale(0.015625)"/>
       <path id="DejaVuSans-38" d="M 2034 2216 
Q 1584 2216 1326 1975 
Q 1069 1734 1069 1313 
Q 1069 891 1326 650 
Q 1584 409 2034 409 
Q 2484 409 2743 651 
Q 3003 894 3003 1313 
Q 3003 1734 2745 1975 
Q 2488 2216 2034 2216 
z
M 1403 2484 
Q 997 2584 770 2862 
Q 544 3141 544 3541 
Q 544 4100 942 4425 
Q 1341 4750 2034 4750 
Q 2731 4750 3128 4425 
Q 3525 4100 3525 3541 
Q 3525 3141 3298 2862 
Q 3072 2584 2669 2484 
Q 3125 2378 3379 2068 
Q 3634 1759 3634 1313 
Q 3634 634 3220 271 
Q 2806 -91 2034 -91 
Q 1263 -91 848 271 
Q 434 634 434 1313 
Q 434 1759 690 2068 
Q 947 2378 1403 2484 
z
M 1172 3481 
Q 1172 3119 1398 2916 
Q 1625 2713 2034 2713 
Q 2441 2713 2670 2916 
Q 2900 3119 2900 3481 
Q 2900 3844 2670 4047 
Q 2441 4250 2034 4250 
Q 1625 4250 1398 4047 
Q 1172 3844 1172 3481 
z
" transform="scale(0.015625)"/>
      </defs>
      <use xlink:href="#DejaVuSans-52"/>
      <use xlink:href="#DejaVuSans-45" transform="translate(69.482422 0)"/>
      <use xlink:href="#DejaVuSans-44" transform="translate(132.666016 0)"/>
      <use xlink:href="#DejaVuSans-20" transform="translate(209.667969 0)"/>
      <use xlink:href="#DejaVuSans-38" transform="translate(241.455078 0)"/>
      <use xlink:href="#DejaVuSans-30" transform="translate(305.078125 0)"/>
      <use xlink:href="#DejaVuSans-20" transform="translate(368.701172 0)"/>
      <use xlink:href="#DejaVuSans-25" transform="translate(400.488281 0)"/>
     </g>
    </g>
   </g>
  </g>
  <g id="axes_2">
   <g id="patch_8">
    <path d="M 449.278977 320.4 
L 779.00625 320.4 
L 779.00625 43.2 
L 449.278977 43.2 
z
" style="fill: #ffffff"/>
   </g>
   <g id="patch_9">
    <path d="M 464.266581 320.4 
L 661.096258 320.4 
L 661.096258 43.2 
L 464.266581 43.2 
z
" clip-path="url(#p11a73f5501)" style="fill: #32cd32; opacity: 0.35; stroke: #32cd32; stroke-linejoin: miter"/>
   </g>
   <g id="patch_10">
    <path d="M 661.096258 320.4 
L 742.983414 320.4 
L 742.983414 43.2 
L 661.096258 43.2 
z
" clip-path="url(#p11a73f5501)" style="fill: #ffa500; opacity: 0.35; stroke: #ffa500; stroke-linejoin: miter"/>
   </g>
   <g id="patch_11">
    <path d="M 742.983414 320.4 
L 764.018647 320.4 
L 764.018647 43.2 
L 742.983414 43.2 
z
" clip-path="url(#p11a73f5501)" style="fill: #dc143c; opacity: 0.35; stroke: #dc143c; stroke-linejoin: miter"/>
   </g>
   <g id="matplotlib.axis_3">
    <g id="xtick_10">
     <g id="line2d_41">
      <path d="M 464.266581 320.4 
L 464.266581 43.2 
" clip-path="url(#p11a73f5501)" style="fill: none; stroke: #b0b0b0; stroke-opacity: 0.3; stroke-width: 0.8; stroke-linecap: square"/>
     </g>
     <g id="line2d_42">
      <g>
       <use xlink:href="#m642b17b4ba" x="464.266581" y="320.4" style="stroke: #000000; stroke-width: 0.8"/>
      </g>
     </g>
     <g id="text_24">
      <!-- 0 -->
      <g transform="translate(461.085331 334.998437) scale(0.1 -0.1)">
       <use xlink:href="#DejaVuSans-30"/>
      </g>
     </g>
    </g>
    <g id="xtick_11">
     <g id="line2d_43">
      <path d="M 501.735589 320.4 
L 501.735589 43.2 
" clip-path="url(#p11a73f5501)" style="fill: none; stroke: #b0b0b0; stroke-opacity: 0.3; stroke-width: 0.8; stroke-linecap: square"/>
     </g>
     <g id="line2d_44">
      <g>
       <use xlink:href="#m642b17b4ba" x="501.735589" y="320.4" style="stroke: #000000; stroke-width: 0.8"/>
      </g>
     </g>
     <g id="text_25">
      <!-- 500 -->
      <g transform="translate(492.191839 334.998437) scale(0.1 -0.1)">
       <use xlink:href="#DejaVuSans-35"/>
       <use xlink:href="#DejaVuSans-30" transform="translate(63.623047 0)"/>
       <use xlink:href="#DejaVuSans-30" transform="translate(127.246094 0)"/>
      </g>
     </g>
    </g>
    <g id="xtick_12">
     <g id="line2d_45">
      <path d="M 539.204597 320.4 
L 539.204597 43.2 
" clip-path="url(#p11a73f5501)" style="fill: none; stroke: #b0b0b0; stroke-opacity: 0.3; stroke-width: 0.8; stroke-linecap: square"/>
     </g>
     <g id="line2d_46">
      <g>
       <use xlink:href="#m642b17b4ba" x="539.204597" y="320.4" style="stroke: #000000; stroke-width: 0.8"/>
      </g>
     </g>
     <g id="text_26">
      <!-- 1000 -->
      <g transform="translate(526.479597 334.998437) scale(0.1 -0.1)">
       <use xlink:href="#DejaVuSans-31"/>
       <use xlink:href="#DejaVuSans-30" transform="translate(63.623047 0)"/>
       <use xlink:href="#DejaVuSans-30" transform="translate(127.246094 0)"/>
       <use xlink:href="#DejaVuSans-30" transform="translate(190.869141 0)"/>
      </g>
     </g>
    </g>
    <g id="xtick_13">
     <g id="line2d_47">
      <path d="M 576.673605 320.4 
L 576.673605 43.2 
" clip-path="url(#p11a73f5501)" style="fill: none; stroke: #b0b0b0; stroke-opacity: 0.3; stroke-width: 0.8; stroke-linecap: square"/>
     </g>
     <g id="line2d_48">
      <g>
       <use xlink:href="#m642b17b4ba" x="576.673605" y="320.4" style="stroke: #000000; stroke-width: 0.8"/>
      </g>
     </g>
     <g id="text_27">
      <!-- 1500 -->
      <g transform="translate(563.948605 334.998437) scale(0.1 -0.1)">
       <use xlink:href="#DejaVuSans-31"/>
       <use xlink:href="#DejaVuSans-35" transform="translate(63.623047 0)"/>
       <use xlink:href="#DejaVuSans-30" transform="translate(127.246094 0)"/>
       <use xlink:href="#DejaVuSans-30" transform="translate(190.869141 0)"/>
      </g>
     </g>
    </g>
    <g id="xtick_14">
     <g id="line2d_49">
      <path d="M 614.142614 320.4 
L 614.142614 43.2 
" clip-path="url(#p11a73f5501)" style="fill: none; stroke: #b0b0b0; stroke-opacity: 0.3; stroke-width: 0.8; stroke-linecap: square"/>
     </g>
     <g id="line2d_50">
      <g>
       <use xlink:href="#m642b17b4ba" x="614.142614" y="320.4" style="stroke: #000000; stroke-width: 0.8"/>
      </g>
     </g>
     <g id="text_28">
      <!-- 2000 -->
      <g transform="translate(601.417614 334.998437) scale(0.1 -0.1)">
       <use xlink:href="#DejaVuSans-32"/>
       <use xlink:href="#DejaVuSans-30" transform="translate(63.623047 0)"/>
       <use xlink:href="#DejaVuSans-30" transform="translate(127.246094 0)"/>
       <use xlink:href="#DejaVuSans-30" transform="translate(190.869141 0)"/>
      </g>
     </g>
    </g>
    <g id="xtick_15">
     <g id="line2d_51">
      <path d="M 651.611622 320.4 
L 651.611622 43.2 
" clip-path="url(#p11a73f5501)" style="fill: none; stroke: #b0b0b0; stroke-opacity: 0.3; stroke-width: 0.8; stroke-linecap: square"/>
     </g>
     <g id="line2d_52">
      <g>
       <use xlink:href="#m642b17b4ba" x="651.611622" y="320.4" style="stroke: #000000; stroke-width: 0.8"/>
      </g>
     </g>
     <g id="text_29">
      <!-- 2500 -->
      <g transform="translate(638.886622 334.998437) scale(0.1 -0.1)">
       <use xlink:href="#DejaVuSans-32"/>
       <use xlink:href="#DejaVuSans-35" transform="translate(63.623047 0)"/>
       <use xlink:href="#DejaVuSans-30" transform="translate(127.246094 0)"/>
       <use xlink:href="#DejaVuSans-30" transform="translate(190.869141 0)"/>
      </g>
     </g>
    </g>
    <g id="xtick_16">
     <g id="line2d_53">
      <path d="M 689.08063 320.4 
L 689.08063 43.2 
" clip-path="url(#p11a73f5501)" style="fill: none; stroke: #b0b0b0; stroke-opacity: 0.3; stroke-width: 0.8; stroke-linecap: square"/>
     </g>
     <g id="line2d_54">
      <g>
       <use xlink:href="#m642b17b4ba" x="689.08063" y="320.4" style="stroke: #000000; stroke-width: 0.8"/>
      </g>
     </g>
     <g id="text_30">
      <!-- 3000 -->
      <g transform="translate(676.35563 334.998437) scale(0.1 -0.1)">
       <use xlink:href="#DejaVuSans-33"/>
       <use xlink:href="#DejaVuSans-30" transform="translate(63.623047 0)"/>
       <use xlink:href="#DejaVuSans-30" transform="translate(127.246094 0)"/>
       <use xlink:href="#DejaVuSans-30" transform="translate(190.869141 0)"/>
      </g>
     </g>
    </g>
    <g id="xtick_17">
     <g id="line2d_55">
      <path d="M 726.549638 320.4 
L 726.549638 43.2 
" clip-path="url(#p11a73f5501)" style="fill: none; stroke: #b0b0b0; stroke-opacity: 0.3; stroke-width: 0.8; stroke-linecap: square"/>
     </g>
     <g id="line2d_56">
      <g>
       <use xlink:href="#m642b17b4ba" x="726.549638" y="320.4" style="stroke: #000000; stroke-width: 0.8"/>
      </g>
     </g>
     <g id="text_31">
      <!-- 3500 -->
      <g transform="translate(713.824638 334.998437) scale(0.1 -0.1)">
       <use xlink:href="#DejaVuSans-33"/>
       <use xlink:href="#DejaVuSans-35" transform="translate(63.623047 0)"/>
       <use xlink:href="#DejaVuSans-30" transform="translate(127.246094 0)"/>
       <use xlink:href="#DejaVuSans-30" transform="translate(190.869141 0)"/>
      </g>
     </g>
    </g>
    <g id="xtick_18">
     <g id="line2d_57">
      <path d="M 764.018647 320.4 
L 764.018647 43.2 
" clip-path="url(#p11a73f5501)" style="fill: none; stroke: #b0b0b0; stroke-opacity: 0.3; stroke-width: 0.8; stroke-linecap: square"/>
     </g>
     <g id="line2d_58">
      <g>
       <use xlink:href="#m642b17b4ba" x="764.018647" y="320.4" style="stroke: #000000; stroke-width: 0.8"/>
      </g>
     </g>
     <g id="text_32">
      <!-- 4000 -->
      <g transform="translate(751.293647 334.998437) scale(0.1 -0.1)">
       <use xlink:href="#DejaVuSans-34"/>
       <use xlink:href="#DejaVuSans-30" transform="translate(63.623047 0)"/>
       <use xlink:href="#DejaVuSans-30" transform="translate(127.246094 0)"/>
       <use xlink:href="#DejaVuSans-30" transform="translate(190.869141 0)"/>
      </g>
     </g>
    </g>
    <g id="text_33">
     <!-- Betriebszeit [h] -->
     <g transform="translate(575.666051 348.676562) scale(0.1 -0.1)">
      <use xlink:href="#DejaVuSans-42"/>
      <use xlink:href="#DejaVuSans-65" transform="translate(68.603516 0)"/>
      <use xlink:href="#DejaVuSans-74" transform="translate(130.126953 0)"/>
      <use xlink:href="#DejaVuSans-72" transform="translate(169.335938 0)"/>
      <use xlink:href="#DejaVuSans-69" transform="translate(210.449219 0)"/>
      <use xlink:href="#DejaVuSans-65" transform="translate(238.232422 0)"/>
      <use xlink:href="#DejaVuSans-62" transform="translate(299.755859 0)"/>
      <use xlink:href="#DejaVuSans-73" transform="translate(363.232422 0)"/>
      <use xlink:href="#DejaVuSans-7a" transform="translate(415.332031 0)"/>
      <use xlink:href="#DejaVuSans-65" transform="translate(467.822266 0)"/>
      <use xlink:href="#DejaVuSans-69" transform="translate(529.345703 0)"/>
      <use xlink:href="#DejaVuSans-74" transform="translate(557.128906 0)"/>
      <use xlink:href="#DejaVuSans-20" transform="translate(596.337891 0)"/>
      <use xlink:href="#DejaVuSans-5b" transform="translate(628.125 0)"/>
      <use xlink:href="#DejaVuSans-68" transform="translate(667.138672 0)"/>
      <use xlink:href="#DejaVuSans-5d" transform="translate(730.517578 0)"/>
     </g>
    </g>
   </g>
   <g id="matplotlib.axis_4">
    <g id="ytick_8">
     <g id="line2d_59">
      <path d="M 449.278977 307.8 
L 779.00625 307.8 
" clip-path="url(#p11a73f5501)" style="fill: none; stroke: #b0b0b0; stroke-opacity: 0.3; stroke-width: 0.8; stroke-linecap: square"/>
     </g>
     <g id="line2d_60">
      <g>
       <use xlink:href="#mde5cab446b" x="449.278977" y="307.8" style="stroke: #000000; stroke-width: 0.8"/>
      </g>
     </g>
     <g id="text_34">
      <!-- 0 -->
      <g transform="translate(435.916477 311.599219) scale(0.1 -0.1)">
       <use xlink:href="#DejaVuSans-30"/>
      </g>
     </g>
    </g>
    <g id="ytick_9">
     <g id="line2d_61">
      <path d="M 449.278977 257.34955 
L 779.00625 257.34955 
" clip-path="url(#p11a73f5501)" style="fill: none; stroke: #b0b0b0; stroke-opacity: 0.3; stroke-width: 0.8; stroke-linecap: square"/>
     </g>
     <g id="line2d_62">
      <g>
       <use xlink:href="#mde5cab446b" x="449.278977" y="257.34955" style="stroke: #000000; stroke-width: 0.8"/>
      </g>
     </g>
     <g id="text_35">
      <!-- 20 -->
      <g transform="translate(429.553977 261.148768) scale(0.1 -0.1)">
       <use xlink:href="#DejaVuSans-32"/>
       <use xlink:href="#DejaVuSans-30" transform="translate(63.623047 0)"/>
      </g>
     </g>
    </g>
    <g id="ytick_10">
     <g id="line2d_63">
      <path d="M 449.278977 206.899099 
L 779.00625 206.899099 
" clip-path="url(#p11a73f5501)" style="fill: none; stroke: #b0b0b0; stroke-opacity: 0.3; stroke-width: 0.8; stroke-linecap: square"/>
     </g>
     <g id="line2d_64">
      <g>
       <use xlink:href="#mde5cab446b" x="449.278977" y="206.899099" style="stroke: #000000; stroke-width: 0.8"/>
      </g>
     </g>
     <g id="text_36">
      <!-- 40 -->
      <g transform="translate(429.553977 210.698318) scale(0.1 -0.1)">
       <use xlink:href="#DejaVuSans-34"/>
       <use xlink:href="#DejaVuSans-30" transform="translate(63.623047 0)"/>
      </g>
     </g>
    </g>
    <g id="ytick_11">
     <g id="line2d_65">
      <path d="M 449.278977 156.448649 
L 779.00625 156.448649 
" clip-path="url(#p11a73f5501)" style="fill: none; stroke: #b0b0b0; stroke-opacity: 0.3; stroke-width: 0.8; stroke-linecap: square"/>
     </g>
     <g id="line2d_66">
      <g>
       <use xlink:href="#mde5cab446b" x="449.278977" y="156.448649" style="stroke: #000000; stroke-width: 0.8"/>
      </g>
     </g>
     <g id="text_37">
      <!-- 60 -->
      <g transform="translate(429.553977 160.247867) scale(0.1 -0.1)">
       <defs>
        <path id="DejaVuSans-36" d="M 2113 2584 
Q 1688 2584 1439 2293 
Q 1191 2003 1191 1497 
Q 1191 994 1439 701 
Q 1688 409 2113 409 
Q 2538 409 2786 701 
Q 3034 994 3034 1497 
Q 3034 2003 2786 2293 
Q 2538 2584 2113 2584 
z
M 3366 4563 
L 3366 3988 
Q 3128 4100 2886 4159 
Q 2644 4219 2406 4219 
Q 1781 4219 1451 3797 
Q 1122 3375 1075 2522 
Q 1259 2794 1537 2939 
Q 1816 3084 2150 3084 
Q 2853 3084 3261 2657 
Q 3669 2231 3669 1497 
Q 3669 778 3244 343 
Q 2819 -91 2113 -91 
Q 1303 -91 875 529 
Q 447 1150 447 2328 
Q 447 3434 972 4092 
Q 1497 4750 2381 4750 
Q 2619 4750 2861 4703 
Q 3103 4656 3366 4563 
z
" transform="scale(0.015625)"/>
       </defs>
       <use xlink:href="#DejaVuSans-36"/>
       <use xlink:href="#DejaVuSans-30" transform="translate(63.623047 0)"/>
      </g>
     </g>
    </g>
    <g id="ytick_12">
     <g id="line2d_67">
      <path d="M 449.278977 105.998198 
L 779.00625 105.998198 
" clip-path="url(#p11a73f5501)" style="fill: none; stroke: #b0b0b0; stroke-opacity: 0.3; stroke-width: 0.8; stroke-linecap: square"/>
     </g>
     <g id="line2d_68">
      <g>
       <use xlink:href="#mde5cab446b" x="449.278977" y="105.998198" style="stroke: #000000; stroke-width: 0.8"/>
      </g>
     </g>
     <g id="text_38">
      <!-- 80 -->
      <g transform="translate(429.553977 109.797417) scale(0.1 -0.1)">
       <use xlink:href="#DejaVuSans-38"/>
       <use xlink:href="#DejaVuSans-30" transform="translate(63.623047 0)"/>
      </g>
     </g>
    </g>
    <g id="ytick_13">
     <g id="line2d_69">
      <path d="M 449.278977 55.547748 
L 779.00625 55.547748 
" clip-path="url(#p11a73f5501)" style="fill: none; stroke: #b0b0b0; stroke-opacity: 0.3; stroke-width: 0.8; stroke-linecap: square"/>
     </g>
     <g id="line2d_70">
      <g>
       <use xlink:href="#mde5cab446b" x="449.278977" y="55.547748" style="stroke: #000000; stroke-width: 0.8"/>
      </g>
     </g>
     <g id="text_39">
      <!-- 100 -->
      <g transform="translate(423.191477 59.346966) scale(0.1 -0.1)">
       <use xlink:href="#DejaVuSans-31"/>
       <use xlink:href="#DejaVuSans-30" transform="translate(63.623047 0)"/>
       <use xlink:href="#DejaVuSans-30" transform="translate(127.246094 0)"/>
      </g>
     </g>
    </g>
    <g id="text_40">
     <!-- Kenngröße (normiert bzw. [mgKOH/g] oder [%]) -->
     <g transform="translate(417.11179 300.582812) rotate(-90) scale(0.1 -0.1)">
      <defs>
       <path id="DejaVuSans-67" d="M 2906 1791 
Q 2906 2416 2648 2759 
Q 2391 3103 1925 3103 
Q 1463 3103 1205 2759 
Q 947 2416 947 1791 
Q 947 1169 1205 825 
Q 1463 481 1925 481 
Q 2391 481 2648 825 
Q 2906 1169 2906 1791 
z
M 3481 434 
Q 3481 -459 3084 -895 
Q 2688 -1331 1869 -1331 
Q 1566 -1331 1297 -1286 
Q 1028 -1241 775 -1147 
L 775 -588 
Q 1028 -725 1275 -790 
Q 1522 -856 1778 -856 
Q 2344 -856 2625 -561 
Q 2906 -266 2906 331 
L 2906 616 
Q 2728 306 2450 153 
Q 2172 0 1784 0 
Q 1141 0 747 490 
Q 353 981 353 1791 
Q 353 2603 747 3093 
Q 1141 3584 1784 3584 
Q 2172 3584 2450 3431 
Q 2728 3278 2906 2969 
L 2906 3500 
L 3481 3500 
L 3481 434 
z
" transform="scale(0.015625)"/>
       <path id="DejaVuSans-f6" d="M 1959 3097 
Q 1497 3097 1228 2736 
Q 959 2375 959 1747 
Q 959 1119 1226 758 
Q 1494 397 1959 397 
Q 2419 397 2687 759 
Q 2956 1122 2956 1747 
Q 2956 2369 2687 2733 
Q 2419 3097 1959 3097 
z
M 1959 3584 
Q 2709 3584 3137 3096 
Q 3566 2609 3566 1747 
Q 3566 888 3137 398 
Q 2709 -91 1959 -91 
Q 1206 -91 779 398 
Q 353 888 353 1747 
Q 353 2609 779 3096 
Q 1206 3584 1959 3584 
z
M 2254 4850 
L 2888 4850 
L 2888 4219 
L 2254 4219 
L 2254 4850 
z
M 1032 4850 
L 1666 4850 
L 1666 4219 
L 1032 4219 
L 1032 4850 
z
" transform="scale(0.015625)"/>
       <path id="DejaVuSans-df" d="M 581 3553 
Q 581 4178 954 4520 
Q 1328 4863 2009 4863 
Q 2659 4863 3001 4500 
Q 3344 4138 3353 3438 
Q 2881 3413 2618 3233 
Q 2356 3053 2356 2753 
Q 2356 2606 2447 2479 
Q 2538 2353 2741 2222 
L 2919 2106 
Q 3438 1775 3588 1553 
Q 3738 1331 3738 1019 
Q 3738 481 3386 195 
Q 3034 -91 2375 -91 
Q 2175 -91 1962 -52 
Q 1750 -13 1522 63 
L 1522 575 
Q 1772 481 1990 436 
Q 2209 391 2413 391 
Q 2775 391 2962 539 
Q 3150 688 3150 972 
Q 3150 1169 3058 1300 
Q 2966 1431 2650 1625 
L 2363 1797 
Q 2063 1981 1927 2192 
Q 1791 2403 1791 2688 
Q 1791 3084 2052 3353 
Q 2313 3622 2784 3713 
Q 2759 4034 2554 4209 
Q 2350 4384 1997 4384 
Q 1591 4384 1378 4167 
Q 1166 3950 1166 3541 
L 1166 0 
L 581 0 
L 581 3553 
z
" transform="scale(0.015625)"/>
       <path id="DejaVuSans-77" d="M 269 3500 
L 844 3500 
L 1563 769 
L 2278 3500 
L 2956 3500 
L 3675 769 
L 4391 3500 
L 4966 3500 
L 4050 0 
L 3372 0 
L 2619 2869 
L 1863 0 
L 1184 0 
L 269 3500 
z
" transform="scale(0.015625)"/>
       <path id="DejaVuSans-2e" d="M 684 794 
L 1344 794 
L 1344 0 
L 684 0 
L 684 794 
z
" transform="scale(0.015625)"/>
       <path id="DejaVuSans-48" d="M 628 4666 
L 1259 4666 
L 1259 2753 
L 3553 2753 
L 3553 4666 
L 4184 4666 
L 4184 0 
L 3553 0 
L 3553 2222 
L 1259 2222 
L 1259 0 
L 628 0 
L 628 4666 
z
" transform="scale(0.015625)"/>
       <path id="DejaVuSans-2f" d="M 1625 4666 
L 2156 4666 
L 531 -594 
L 0 -594 
L 1625 4666 
z
" transform="scale(0.015625)"/>
      </defs>
      <use xlink:href="#DejaVuSans-4b"/>
      <use xlink:href="#DejaVuSans-65" transform="translate(60.576172 0)"/>
      <use xlink:href="#DejaVuSans-6e" transform="translate(122.099609 0)"/>
      <use xlink:href="#DejaVuSans-6e" transform="translate(185.478516 0)"/>
      <use xlink:href="#DejaVuSans-67" transform="translate(248.857422 0)"/>
      <use xlink:href="#DejaVuSans-72" transform="translate(312.333984 0)"/>
      <use xlink:href="#DejaVuSans-f6" transform="translate(351.197266 0)"/>
      <use xlink:href="#DejaVuSans-df" transform="translate(412.378906 0)"/>
      <use xlink:href="#DejaVuSans-65" transform="translate(475.367188 0)"/>
      <use xlink:href="#DejaVuSans-20" transform="translate(536.890625 0)"/>
      <use xlink:href="#DejaVuSans-28" transform="translate(568.677734 0)"/>
      <use xlink:href="#DejaVuSans-6e" transform="translate(607.691406 0)"/>
      <use xlink:href="#DejaVuSans-6f" transform="translate(671.070312 0)"/>
      <use xlink:href="#DejaVuSans-72" transform="translate(732.251953 0)"/>
      <use xlink:href="#DejaVuSans-6d" transform="translate(771.615234 0)"/>
      <use xlink:href="#DejaVuSans-69" transform="translate(869.027344 0)"/>
      <use xlink:href="#DejaVuSans-65" transform="translate(896.810547 0)"/>
      <use xlink:href="#DejaVuSans-72" transform="translate(958.333984 0)"/>
      <use xlink:href="#DejaVuSans-74" transform="translate(999.447266 0)"/>
      <use xlink:href="#DejaVuSans-20" transform="translate(1038.65625 0)"/>
      <use xlink:href="#DejaVuSans-62" transform="translate(1070.443359 0)"/>
      <use xlink:href="#DejaVuSans-7a" transform="translate(1133.919922 0)"/>
      <use xlink:href="#DejaVuSans-77" transform="translate(1186.410156 0)"/>
      <use xlink:href="#DejaVuSans-2e" transform="translate(1259.072266 0)"/>
      <use xlink:href="#DejaVuSans-20" transform="translate(1290.859375 0)"/>
      <use xlink:href="#DejaVuSans-5b" transform="translate(1322.646484 0)"/>
      <use xlink:href="#DejaVuSans-6d" transform="translate(1361.660156 0)"/>
      <use xlink:href="#DejaVuSans-67" transform="translate(1459.072266 0)"/>
      <use xlink:href="#DejaVuSans-4b" transform="translate(1522.548828 0)"/>
      <use xlink:href="#DejaVuSans-4f" transform="translate(1582.625 0)"/>
      <use xlink:href="#DejaVuSans-48" transform="translate(1661.335938 0)"/>
      <use xlink:href="#DejaVuSans-2f" transform="translate(1736.53125 0)"/>
      <use xlink:href="#DejaVuSans-67" transform="translate(1770.222656 0)"/>
      <use xlink:href="#DejaVuSans-5d" transform="translate(1833.699219 0)"/>
      <use xlink:href="#DejaVuSans-20" transform="translate(1872.712891 0)"/>
      <use xlink:href="#DejaVuSans-6f" transform="translate(1904.5 0)"/>
      <use xlink:href="#DejaVuSans-64" transform="translate(1965.681641 0)"/>
      <use xlink:href="#DejaVuSans-65" transform="translate(2029.158203 0)"/>
      <use xlink:href="#DejaVuSans-72" transform="translate(2090.681641 0)"/>
      <use xlink:href="#DejaVuSans-20" transform="translate(2131.794922 0)"/>
      <use xlink:href="#DejaVuSans-5b" transform="translate(2163.582031 0)"/>
      <use xlink:href="#DejaVuSans-25" transform="translate(2202.595703 0)"/>
      <use xlink:href="#DejaVuSans-5d" transform="translate(2297.615234 0)"/>
      <use xlink:href="#DejaVuSans-29" transform="translate(2336.628906 0)"/>
     </g>
    </g>
   </g>
   <g id="line2d_71">
    <path d="M 464.266581 223.8 
L 660.345 223.8 
L 661.096258 139.8 
L 742.232156 139.8 
L 742.983414 55.8 
L 764.018647 55.8 
L 764.018647 55.8 
" clip-path="url(#p11a73f5501)" style="fill: none; stroke: #000000; stroke-width: 1.5; stroke-linecap: square"/>
   </g>
   <g id="line2d_72">
    <path d="M 464.266581 307.043243 
L 491.31188 306.913351 
L 536.387378 306.477608 
L 591.229235 305.722071 
L 653.583675 304.637606 
L 721.948181 303.223181 
L 764.018647 302.25045 
L 764.018647 302.25045 
" clip-path="url(#p11a73f5501)" style="fill: none; stroke: #800080; stroke-width: 2; stroke-linecap: square"/>
   </g>
   <g id="line2d_73">
    <path d="M 464.266581 307.8 
L 526.62102 294.795151 
L 559.676386 288.134018 
L 587.472944 282.755169 
L 612.264468 278.181647 
L 634.802217 274.244561 
L 655.83745 270.788896 
L 676.121424 267.681919 
L 694.902882 265.022945 
L 712.933082 262.685154 
L 730.963281 260.5745 
L 748.242222 258.780168 
L 764.018647 257.34955 
L 764.018647 257.34955 
" clip-path="url(#p11a73f5501)" style="fill: none; stroke: #8b4513; stroke-width: 2; stroke-linecap: square"/>
   </g>
   <g id="line2d_74">
    <path d="M 661.096258 320.4 
L 661.096258 43.2 
" clip-path="url(#p11a73f5501)" style="fill: none; stroke-dasharray: 1.5,2.475; stroke-dashoffset: 0; stroke: #ffa500; stroke-width: 1.5"/>
   </g>
   <g id="line2d_75">
    <path d="M 742.983414 320.4 
L 742.983414 43.2 
" clip-path="url(#p11a73f5501)" style="fill: none; stroke-dasharray: 1.5,2.475; stroke-dashoffset: 0; stroke: #ff0000; stroke-width: 1.5"/>
   </g>
   <g id="patch_12">
    <path d="M 449.278977 320.4 
L 449.278977 43.2 
" style="fill: none; stroke: #000000; stroke-width: 0.8; stroke-linejoin: miter; stroke-linecap: square"/>
   </g>
   <g id="patch_13">
    <path d="M 779.00625 320.4 
L 779.00625 43.2 
" style="fill: none; stroke: #000000; stroke-width: 0.8; stroke-linejoin: miter; stroke-linecap: square"/>
   </g>
   <g id="patch_14">
    <path d="M 449.278977 320.4 
L 779.00625 320.4 
" style="fill: none; stroke: #000000; stroke-width: 0.8; stroke-linejoin: miter; stroke-linecap: square"/>
   </g>
   <g id="patch_15">
    <path d="M 449.278977 43.2 
L 779.00625 43.2 
" style="fill: none; stroke: #000000; stroke-width: 0.8; stroke-linejoin: miter; stroke-linecap: square"/>
   </g>
   <g id="text_41">
    <!-- Konditionsindikator: TAN, Δη und Ampelbewertung -->
    <g transform="translate(462.444801 37.2) scale(0.12 -0.12)">
     <defs>
      <path id="DejaVuSans-3a" d="M 750 794 
L 1409 794 
L 1409 0 
L 750 0 
L 750 794 
z
M 750 3309 
L 1409 3309 
L 1409 2516 
L 750 2516 
L 750 3309 
z
" transform="scale(0.015625)"/>
      <path id="DejaVuSans-54" d="M -19 4666 
L 3928 4666 
L 3928 4134 
L 2272 4134 
L 2272 0 
L 1638 0 
L 1638 4134 
L -19 4134 
L -19 4666 
z
" transform="scale(0.015625)"/>
      <path id="DejaVuSans-41" d="M 2188 4044 
L 1331 1722 
L 3047 1722 
L 2188 4044 
z
M 1831 4666 
L 2547 4666 
L 4325 0 
L 3669 0 
L 3244 1197 
L 1141 1197 
L 716 0 
L 50 0 
L 1831 4666 
z
" transform="scale(0.015625)"/>
      <path id="DejaVuSans-4e" d="M 628 4666 
L 1478 4666 
L 3547 763 
L 3547 4666 
L 4159 4666 
L 4159 0 
L 3309 0 
L 1241 3903 
L 1241 0 
L 628 0 
L 628 4666 
z
" transform="scale(0.015625)"/>
      <path id="DejaVuSans-2c" d="M 750 794 
L 1409 794 
L 1409 256 
L 897 -744 
L 494 -744 
L 750 256 
L 750 794 
z
" transform="scale(0.015625)"/>
      <path id="DejaVuSans-3b7" d="M 3513 2113 
L 3513 -1331 
L 2938 -1331 
L 2938 2094 
Q 2938 2591 2744 2837 
Q 2550 3084 2163 3084 
Q 1697 3084 1428 2787 
Q 1159 2491 1159 1978 
L 1159 0 
L 581 0 
L 581 3500 
L 1159 3500 
L 1159 2956 
Q 1366 3272 1644 3428 
Q 1925 3584 2291 3584 
Q 2894 3584 3203 3213 
Q 3513 2838 3513 2113 
z
" transform="scale(0.015625)"/>
     </defs>
     <use xlink:href="#DejaVuSans-4b"/>
     <use xlink:href="#DejaVuSans-6f" transform="translate(60.576172 0)"/>
     <use xlink:href="#DejaVuSans-6e" transform="translate(121.757812 0)"/>
     <use xlink:href="#DejaVuSans-64" transform="translate(185.136719 0)"/>
     <use xlink:href="#DejaVuSans-69" transform="translate(248.613281 0)"/>
     <use xlink:href="#DejaVuSans-74" transform="translate(276.396484 0)"/>
     <use xlink:href="#DejaVuSans-69" transform="translate(315.605469 0)"/>
     <use xlink:href="#DejaVuSans-6f" transform="translate(343.388672 0)"/>
     <use xlink:href="#DejaVuSans-6e" transform="translate(404.570312 0)"/>
     <use xlink:href="#DejaVuSans-73" transform="translate(467.949219 0)"/>
     <use xlink:href="#DejaVuSans-69" transform="translate(520.048828 0)"/>
     <use xlink:href="#DejaVuSans-6e" transform="translate(547.832031 0)"/>
     <use xlink:href="#DejaVuSans-64" transform="translate(611.210938 0)"/>
     <use xlink:href="#DejaVuSans-69" transform="translate(674.6875 0)"/>
     <use xlink:href="#DejaVuSans-6b" transform="translate(702.470703 0)"/>
     <use xlink:href="#DejaVuSans-61" transform="translate(758.630859 0)"/>
     <use xlink:href="#DejaVuSans-74" transform="translate(819.910156 0)"/>
     <use xlink:href="#DejaVuSans-6f" transform="translate(859.119141 0)"/>
     <use xlink:href="#DejaVuSans-72" transform="translate(920.300781 0)"/>
     <use xlink:href="#DejaVuSans-3a" transform="translate(959.664062 0)"/>
     <use xlink:href="#DejaVuSans-20" transform="translate(993.355469 0)"/>
     <use xlink:href="#DejaVuSans-54" transform="translate(1025.142578 0)"/>
     <use xlink:href="#DejaVuSans-41" transform="translate(1078.476562 0)"/>
     <use xlink:href="#DejaVuSans-4e" transform="translate(1146.884766 0)"/>
     <use xlink:href="#DejaVuSans-2c" transform="translate(1221.689453 0)"/>
     <use xlink:href="#DejaVuSans-20" transform="translate(1253.476562 0)"/>
     <use xlink:href="#DejaVuSans-394" transform="translate(1285.263672 0)"/>
     <use xlink:href="#DejaVuSans-3b7" transform="translate(1353.671875 0)"/>
     <use xlink:href="#DejaVuSans-20" transform="translate(1417.050781 0)"/>
     <use xlink:href="#DejaVuSans-75" transform="translate(1448.837891 0)"/>
     <use xlink:href="#DejaVuSans-6e" transform="translate(1512.216797 0)"/>
     <use xlink:href="#DejaVuSans-64" transform="translate(1575.595703 0)"/>
     <use xlink:href="#DejaVuSans-20" transform="translate(1639.072266 0)"/>
     <use xlink:href="#DejaVuSans-41" transform="translate(1670.859375 0)"/>
     <use xlink:href="#DejaVuSans-6d" transform="translate(1739.267578 0)"/>
     <use xlink:href="#DejaVuSans-70" transform="translate(1836.679688 0)"/>
     <use xlink:href="#DejaVuSans-65" transform="translate(1900.15625 0)"/>
     <use xlink:href="#DejaVuSans-6c" transform="translate(1961.679688 0)"/>
     <use xlink:href="#DejaVuSans-62" transform="translate(1989.462891 0)"/>
     <use xlink:href="#DejaVuSans-65" transform="translate(2052.939453 0)"/>
     <use xlink:href="#DejaVuSans-77" transform="translate(2114.462891 0)"/>
     <use xlink:href="#DejaVuSans-65" transform="translate(2196.25 0)"/>
     <use xlink:href="#DejaVuSans-72" transform="translate(2257.773438 0)"/>
     <use xlink:href="#DejaVuSans-74" transform="translate(2298.886719 0)"/>
     <use xlink:href="#DejaVuSans-75" transform="translate(2338.095703 0)"/>
     <use xlink:href="#DejaVuSans-6e" transform="translate(2401.474609 0)"/>
     <use xlink:href="#DejaVuSans-67" transform="translate(2464.853516 0)"/>
    </g>
   </g>
   <g id="legend_2">
    <g id="patch_16">
     <path d="M 454.178977 100.173437 
L 592.688196 100.173437 
Q 594.088196 100.173437 594.088196 98.773437 
L 594.088196 48.1 
Q 594.088196 46.7 592.688196 46.7 
L 454.178977 46.7 
Q 452.778977 46.7 452.778977 48.1 
L 452.778977 98.773437 
Q 452.778977 100.173437 454.178977 100.173437 
z
" style="fill: #ffffff; opacity: 0.8; stroke: #cccccc; stroke-linejoin: miter"/>
    </g>
    <g id="line2d_76">
     <path d="M 455.578977 52.368906 
L 462.578977 52.368906 
L 469.578977 52.368906 
" style="fill: none; stroke: #000000; stroke-width: 1.5; stroke-linecap: square"/>
    </g>
    <g id="text_42">
     <!-- Konditionsstufe (1=G, 2=Y, 3=R) -->
     <g transform="translate(475.178977 54.818906) scale(0.07 -0.07)">
      <defs>
       <path id="DejaVuSans-3d" d="M 678 2906 
L 4684 2906 
L 4684 2381 
L 678 2381 
L 678 2906 
z
M 678 1631 
L 4684 1631 
L 4684 1100 
L 678 1100 
L 678 1631 
z
" transform="scale(0.015625)"/>
       <path id="DejaVuSans-47" d="M 3809 666 
L 3809 1919 
L 2778 1919 
L 2778 2438 
L 4434 2438 
L 4434 434 
Q 4069 175 3628 42 
Q 3188 -91 2688 -91 
Q 1594 -91 976 548 
Q 359 1188 359 2328 
Q 359 3472 976 4111 
Q 1594 4750 2688 4750 
Q 3144 4750 3555 4637 
Q 3966 4525 4313 4306 
L 4313 3634 
Q 3963 3931 3569 4081 
Q 3175 4231 2741 4231 
Q 1884 4231 1454 3753 
Q 1025 3275 1025 2328 
Q 1025 1384 1454 906 
Q 1884 428 2741 428 
Q 3075 428 3337 486 
Q 3600 544 3809 666 
z
" transform="scale(0.015625)"/>
      </defs>
      <use xlink:href="#DejaVuSans-4b"/>
      <use xlink:href="#DejaVuSans-6f" transform="translate(60.576172 0)"/>
      <use xlink:href="#DejaVuSans-6e" transform="translate(121.757812 0)"/>
      <use xlink:href="#DejaVuSans-64" transform="translate(185.136719 0)"/>
      <use xlink:href="#DejaVuSans-69" transform="translate(248.613281 0)"/>
      <use xlink:href="#DejaVuSans-74" transform="translate(276.396484 0)"/>
      <use xlink:href="#DejaVuSans-69" transform="translate(315.605469 0)"/>
      <use xlink:href="#DejaVuSans-6f" transform="translate(343.388672 0)"/>
      <use xlink:href="#DejaVuSans-6e" transform="translate(404.570312 0)"/>
      <use xlink:href="#DejaVuSans-73" transform="translate(467.949219 0)"/>
      <use xlink:href="#DejaVuSans-73" transform="translate(520.048828 0)"/>
      <use xlink:href="#DejaVuSans-74" transform="translate(572.148438 0)"/>
      <use xlink:href="#DejaVuSans-75" transform="translate(611.357422 0)"/>
      <use xlink:href="#DejaVuSans-66" transform="translate(674.736328 0)"/>
      <use xlink:href="#DejaVuSans-65" transform="translate(709.941406 0)"/>
      <use xlink:href="#DejaVuSans-20" transform="translate(771.464844 0)"/>
      <use xlink:href="#DejaVuSans-28" transform="translate(803.251953 0)"/>
      <use xlink:href="#DejaVuSans-31" transform="translate(842.265625 0)"/>
      <use xlink:href="#DejaVuSans-3d" transform="translate(905.888672 0)"/>
      <use xlink:href="#DejaVuSans-47" transform="translate(989.677734 0)"/>
      <use xlink:href="#DejaVuSans-2c" transform="translate(1067.167969 0)"/>
      <use xlink:href="#DejaVuSans-20" transform="translate(1098.955078 0)"/>
      <use xlink:href="#DejaVuSans-32" transform="translate(1130.742188 0)"/>
      <use xlink:href="#DejaVuSans-3d" transform="translate(1194.365234 0)"/>
      <use xlink:href="#DejaVuSans-59" transform="translate(1278.154297 0)"/>
      <use xlink:href="#DejaVuSans-2c" transform="translate(1339.238281 0)"/>
      <use xlink:href="#DejaVuSans-20" transform="translate(1371.025391 0)"/>
      <use xlink:href="#DejaVuSans-33" transform="translate(1402.8125 0)"/>
      <use xlink:href="#DejaVuSans-3d" transform="translate(1466.435547 0)"/>
      <use xlink:href="#DejaVuSans-52" transform="translate(1550.224609 0)"/>
      <use xlink:href="#DejaVuSans-29" transform="translate(1619.707031 0)"/>
     </g>
    </g>
    <g id="line2d_77">
     <path d="M 455.578977 62.643594 
L 462.578977 62.643594 
L 469.578977 62.643594 
" style="fill: none; stroke: #800080; stroke-width: 2; stroke-linecap: square"/>
    </g>
    <g id="text_43">
     <!-- TAN [mgKOH/g] -->
     <g transform="translate(475.178977 65.093594) scale(0.07 -0.07)">
      <use xlink:href="#DejaVuSans-54"/>
      <use xlink:href="#DejaVuSans-41" transform="translate(53.333984 0)"/>
      <use xlink:href="#DejaVuSans-4e" transform="translate(121.742188 0)"/>
      <use xlink:href="#DejaVuSans-20" transform="translate(196.546875 0)"/>
      <use xlink:href="#DejaVuSans-5b" transform="translate(228.333984 0)"/>
      <use xlink:href="#DejaVuSans-6d" transform="translate(267.347656 0)"/>
      <use xlink:href="#DejaVuSans-67" transform="translate(364.759766 0)"/>
      <use xlink:href="#DejaVuSans-4b" transform="translate(428.236328 0)"/>
      <use xlink:href="#DejaVuSans-4f" transform="translate(488.3125 0)"/>
      <use xlink:href="#DejaVuSans-48" transform="translate(567.023438 0)"/>
      <use xlink:href="#DejaVuSans-2f" transform="translate(642.21875 0)"/>
      <use xlink:href="#DejaVuSans-67" transform="translate(675.910156 0)"/>
      <use xlink:href="#DejaVuSans-5d" transform="translate(739.386719 0)"/>
     </g>
    </g>
    <g id="line2d_78">
     <path d="M 455.578977 72.918281 
L 462.578977 72.918281 
L 469.578977 72.918281 
" style="fill: none; stroke: #8b4513; stroke-width: 2; stroke-linecap: square"/>
    </g>
    <g id="text_44">
     <!-- Δη [% von η₀] -->
     <g transform="translate(475.178977 75.368281) scale(0.07 -0.07)">
      <defs>
       <path id="DejaVuSans-76" d="M 191 3500 
L 800 3500 
L 1894 563 
L 2988 3500 
L 3597 3500 
L 2284 0 
L 1503 0 
L 191 3500 
z
" transform="scale(0.015625)"/>
       <path id="DejaVuSans-2080" d="M 1781 2091 
Q 1625 2360 1309 2360 
Q 994 2360 838 2091 
Q 678 1822 678 1285 
Q 678 744 838 476 
Q 994 207 1309 207 
Q 1625 207 1781 476 
Q 1941 744 1941 1285 
Q 1941 1822 1781 2091 
z
M 1309 2638 
Q 1813 2638 2078 2291 
Q 2344 1944 2344 1285 
Q 2344 622 2078 275 
Q 1813 -71 1309 -71 
Q 803 -71 537 275 
Q 272 622 272 1285 
Q 272 1944 537 2291 
Q 803 2638 1309 2638 
z
" transform="scale(0.015625)"/>
      </defs>
      <use xlink:href="#DejaVuSans-394"/>
      <use xlink:href="#DejaVuSans-3b7" transform="translate(68.408203 0)"/>
      <use xlink:href="#DejaVuSans-20" transform="translate(131.787109 0)"/>
      <use xlink:href="#DejaVuSans-5b" transform="translate(163.574219 0)"/>
      <use xlink:href="#DejaVuSans-25" transform="translate(202.587891 0)"/>
      <use xlink:href="#DejaVuSans-20" transform="translate(297.607422 0)"/>
      <use xlink:href="#DejaVuSans-76" transform="translate(329.394531 0)"/>
      <use xlink:href="#DejaVuSans-6f" transform="translate(388.574219 0)"/>
      <use xlink:href="#DejaVuSans-6e" transform="translate(449.755859 0)"/>
      <use xlink:href="#DejaVuSans-20" transform="translate(513.134766 0)"/>
      <use xlink:href="#DejaVuSans-3b7" transform="translate(544.921875 0)"/>
      <use xlink:href="#DejaVuSans-2080" transform="translate(608.300781 0)"/>
      <use xlink:href="#DejaVuSans-5d" transform="translate(648.388672 0)"/>
     </g>
    </g>
    <g id="line2d_79">
     <path d="M 455.578977 83.192969 
L 462.578977 83.192969 
L 469.578977 83.192969 
" style="fill: none; stroke-dasharray: 1.5,2.475; stroke-dashoffset: 0; stroke: #ffa500; stroke-width: 1.5"/>
    </g>
    <g id="text_45">
     <!-- YELLOW @ 2627 h -->
     <g transform="translate(475.178977 85.642969) scale(0.07 -0.07)">
      <defs>
       <path id="DejaVuSans-40" d="M 2381 1678 
Q 2381 1231 2603 976 
Q 2825 722 3213 722 
Q 3597 722 3817 978 
Q 4038 1234 4038 1678 
Q 4038 2116 3813 2373 
Q 3588 2631 3206 2631 
Q 2828 2631 2604 2375 
Q 2381 2119 2381 1678 
z
M 4084 744 
Q 3897 503 3655 389 
Q 3413 275 3091 275 
Q 2553 275 2217 664 
Q 1881 1053 1881 1678 
Q 1881 2303 2218 2693 
Q 2556 3084 3091 3084 
Q 3413 3084 3656 2967 
Q 3900 2850 4084 2613 
L 4084 3022 
L 4531 3022 
L 4531 722 
Q 4988 791 5245 1139 
Q 5503 1488 5503 2041 
Q 5503 2375 5404 2669 
Q 5306 2963 5106 3213 
Q 4781 3622 4314 3839 
Q 3847 4056 3297 4056 
Q 2913 4056 2559 3954 
Q 2206 3853 1906 3653 
Q 1416 3334 1139 2817 
Q 863 2300 863 1697 
Q 863 1200 1042 765 
Q 1222 331 1563 0 
Q 1891 -325 2322 -495 
Q 2753 -666 3244 -666 
Q 3647 -666 4036 -530 
Q 4425 -394 4750 -141 
L 5031 -488 
Q 4641 -791 4180 -952 
Q 3719 -1113 3244 -1113 
Q 2666 -1113 2153 -908 
Q 1641 -703 1241 -313 
Q 841 78 631 592 
Q 422 1106 422 1697 
Q 422 2266 634 2781 
Q 847 3297 1241 3688 
Q 1644 4084 2172 4295 
Q 2700 4506 3291 4506 
Q 3953 4506 4520 4234 
Q 5088 3963 5472 3463 
Q 5706 3156 5829 2797 
Q 5953 2438 5953 2053 
Q 5953 1231 5456 756 
Q 4959 281 4084 263 
L 4084 744 
z
" transform="scale(0.015625)"/>
       <path id="DejaVuSans-37" d="M 525 4666 
L 3525 4666 
L 3525 4397 
L 1831 0 
L 1172 0 
L 2766 4134 
L 525 4134 
L 525 4666 
z
" transform="scale(0.015625)"/>
      </defs>
      <use xlink:href="#DejaVuSans-59"/>
      <use xlink:href="#DejaVuSans-45" transform="translate(61.083984 0)"/>
      <use xlink:href="#DejaVuSans-4c" transform="translate(124.267578 0)"/>
      <use xlink:href="#DejaVuSans-4c" transform="translate(179.980469 0)"/>
      <use xlink:href="#DejaVuSans-4f" transform="translate(232.068359 0)"/>
      <use xlink:href="#DejaVuSans-57" transform="translate(310.779297 0)"/>
      <use xlink:href="#DejaVuSans-20" transform="translate(409.65625 0)"/>
      <use xlink:href="#DejaVuSans-40" transform="translate(441.443359 0)"/>
      <use xlink:href="#DejaVuSans-20" transform="translate(541.443359 0)"/>
      <use xlink:href="#DejaVuSans-32" transform="translate(573.230469 0)"/>
      <use xlink:href="#DejaVuSans-36" transform="translate(636.853516 0)"/>
      <use xlink:href="#DejaVuSans-32" transform="translate(700.476562 0)"/>
      <use xlink:href="#DejaVuSans-37" transform="translate(764.099609 0)"/>
      <use xlink:href="#DejaVuSans-20" transform="translate(827.722656 0)"/>
      <use xlink:href="#DejaVuSans-68" transform="translate(859.509766 0)"/>
     </g>
    </g>
    <g id="line2d_80">
     <path d="M 455.578977 93.467656 
L 462.578977 93.467656 
L 469.578977 93.467656 
" style="fill: none; stroke-dasharray: 1.5,2.475; stroke-dashoffset: 0; stroke: #ff0000; stroke-width: 1.5"/>
    </g>
    <g id="text_46">
     <!-- RED @ 3719 h -->
     <g transform="translate(475.178977 95.917656) scale(0.07 -0.07)">
      <use xlink:href="#DejaVuSans-52"/>
      <use xlink:href="#DejaVuSans-45" transform="translate(69.482422 0)"/>
      <use xlink:href="#DejaVuSans-44" transform="translate(132.666016 0)"/>
      <use xlink:href="#DejaVuSans-20" transform="translate(209.667969 0)"/>
      <use xlink:href="#DejaVuSans-40" transform="translate(241.455078 0)"/>
      <use xlink:href="#DejaVuSans-20" transform="translate(341.455078 0)"/>
      <use xlink:href="#DejaVuSans-33" transform="translate(373.242188 0)"/>
      <use xlink:href="#DejaVuSans-37" transform="translate(436.865234 0)"/>
      <use xlink:href="#DejaVuSans-31" transform="translate(500.488281 0)"/>
      <use xlink:href="#DejaVuSans-39" transform="translate(564.111328 0)"/>
      <use xlink:href="#DejaVuSans-20" transform="translate(627.734375 0)"/>
      <use xlink:href="#DejaVuSans-68" transform="translate(659.521484 0)"/>
     </g>
    </g>
   </g>
  </g>
  <g id="text_47">
   <!-- Experiment 12 – Ultraschall-Monitoring: K_eff(t) und Öl-Konditionsbewertung -->
   <g transform="translate(155.226641 19.042187) scale(0.13 -0.13)">
    <defs>
     <path id="DejaVuSans-78" d="M 3513 3500 
L 2247 1797 
L 3578 0 
L 2900 0 
L 1881 1375 
L 863 0 
L 184 0 
L 1544 1831 
L 300 3500 
L 978 3500 
L 1906 2253 
L 2834 3500 
L 3513 3500 
z
" transform="scale(0.015625)"/>
     <path id="DejaVuSans-2013" d="M 313 1978 
L 2888 1978 
L 2888 1528 
L 313 1528 
L 313 1978 
z
" transform="scale(0.015625)"/>
     <path id="DejaVuSans-55" d="M 556 4666 
L 1191 4666 
L 1191 1831 
Q 1191 1081 1462 751 
Q 1734 422 2344 422 
Q 2950 422 3222 751 
Q 3494 1081 3494 1831 
L 3494 4666 
L 4128 4666 
L 4128 1753 
Q 4128 841 3676 375 
Q 3225 -91 2344 -91 
Q 1459 -91 1007 375 
Q 556 841 556 1753 
L 556 4666 
z
" transform="scale(0.015625)"/>
     <path id="DejaVuSans-63" d="M 3122 3366 
L 3122 2828 
Q 2878 2963 2633 3030 
Q 2388 3097 2138 3097 
Q 1578 3097 1268 2742 
Q 959 2388 959 1747 
Q 959 1106 1268 751 
Q 1578 397 2138 397 
Q 2388 397 2633 464 
Q 2878 531 3122 666 
L 3122 134 
Q 2881 22 2623 -34 
Q 2366 -91 2075 -91 
Q 1284 -91 818 406 
Q 353 903 353 1747 
Q 353 2603 823 3093 
Q 1294 3584 2113 3584 
Q 2378 3584 2631 3529 
Q 2884 3475 3122 3366 
z
" transform="scale(0.015625)"/>
     <path id="DejaVuSans-2d" d="M 313 2009 
L 1997 2009 
L 1997 1497 
L 313 1497 
L 313 2009 
z
" transform="scale(0.015625)"/>
     <path id="DejaVuSans-d6" d="M 2522 4238 
Q 1834 4238 1429 3725 
Q 1025 3213 1025 2328 
Q 1025 1447 1429 934 
Q 1834 422 2522 422 
Q 3209 422 3611 934 
Q 4013 1447 4013 2328 
Q 4013 3213 3611 3725 
Q 3209 4238 2522 4238 
z
M 2522 4750 
Q 3503 4750 4090 4092 
Q 4678 3434 4678 2328 
Q 4678 1225 4090 567 
Q 3503 -91 2522 -91 
Q 1538 -91 948 565 
Q 359 1222 359 2328 
Q 359 3434 948 4092 
Q 1538 4750 2522 4750 
z
M 2814 5830 
L 3448 5830 
L 3448 5196 
L 2814 5196 
L 2814 5830 
z
M 1592 5830 
L 2226 5830 
L 2226 5196 
L 1592 5196 
L 1592 5830 
z
" transform="scale(0.015625)"/>
    </defs>
    <use xlink:href="#DejaVuSans-45"/>
    <use xlink:href="#DejaVuSans-78" transform="translate(63.183594 0)"/>
    <use xlink:href="#DejaVuSans-70" transform="translate(122.363281 0)"/>
    <use xlink:href="#DejaVuSans-65" transform="translate(185.839844 0)"/>
    <use xlink:href="#DejaVuSans-72" transform="translate(247.363281 0)"/>
    <use xlink:href="#DejaVuSans-69" transform="translate(288.476562 0)"/>
    <use xlink:href="#DejaVuSans-6d" transform="translate(316.259766 0)"/>
    <use xlink:href="#DejaVuSans-65" transform="translate(413.671875 0)"/>
    <use xlink:href="#DejaVuSans-6e" transform="translate(475.195312 0)"/>
    <use xlink:href="#DejaVuSans-74" transform="translate(538.574219 0)"/>
    <use xlink:href="#DejaVuSans-20" transform="translate(577.783203 0)"/>
    <use xlink:href="#DejaVuSans-31" transform="translate(609.570312 0)"/>
    <use xlink:href="#DejaVuSans-32" transform="translate(673.193359 0)"/>
    <use xlink:href="#DejaVuSans-20" transform="translate(736.816406 0)"/>
    <use xlink:href="#DejaVuSans-2013" transform="translate(768.603516 0)"/>
    <use xlink:href="#DejaVuSans-20" transform="translate(818.603516 0)"/>
    <use xlink:href="#DejaVuSans-55" transform="translate(850.390625 0)"/>
    <use xlink:href="#DejaVuSans-6c" transform="translate(923.583984 0)"/>
    <use xlink:href="#DejaVuSans-74" transform="translate(951.367188 0)"/>
    <use xlink:href="#DejaVuSans-72" transform="translate(990.576172 0)"/>
    <use xlink:href="#DejaVuSans-61" transform="translate(1031.689453 0)"/>
    <use xlink:href="#DejaVuSans-73" transform="translate(1092.96875 0)"/>
    <use xlink:href="#DejaVuSans-63" transform="translate(1145.068359 0)"/>
    <use xlink:href="#DejaVuSans-68" transform="translate(1200.048828 0)"/>
    <use xlink:href="#DejaVuSans-61" transform="translate(1263.427734 0)"/>
    <use xlink:href="#DejaVuSans-6c" transform="translate(1324.707031 0)"/>
    <use xlink:href="#DejaVuSans-6c" transform="translate(1352.490234 0)"/>
    <use xlink:href="#DejaVuSans-2d" transform="translate(1380.273438 0)"/>
    <use xlink:href="#DejaVuSans-4d" transform="translate(1416.357422 0)"/>
    <use xlink:href="#DejaVuSans-6f" transform="translate(1502.636719 0)"/>
    <use xlink:href="#DejaVuSans-6e" transform="translate(1563.818359 0)"/>
    <use xlink:href="#DejaVuSans-69" transform="translate(1627.197266 0)"/>
    <use xlink:href="#DejaVuSans-74" transform="translate(1654.980469 0)"/>
    <use xlink:href="#DejaVuSans-6f" transform="translate(1694.189453 0)"/>
    <use xlink:href="#DejaVuSans-72" transform="translate(1755.371094 0)"/>
    <use xlink:href="#DejaVuSans-69" transform="translate(1796.484375 0)"/>
    <use xlink:href="#DejaVuSans-6e" transform="translate(1824.267578 0)"/>
    <use xlink:href="#DejaVuSans-67" transform="translate(1887.646484 0)"/>
    <use xlink:href="#DejaVuSans-3a" transform="translate(1951.123047 0)"/>
    <use xlink:href="#DejaVuSans-20" transform="translate(1984.814453 0)"/>
    <use xlink:href="#DejaVuSans-4b" transform="translate(2016.601562 0)"/>
    <use xlink:href="#DejaVuSans-5f" transform="translate(2082.177734 0)"/>
    <use xlink:href="#DejaVuSans-65" transform="translate(2132.177734 0)"/>
    <use xlink:href="#DejaVuSans-66" transform="translate(2193.701172 0)"/>
    <use xlink:href="#DejaVuSans-66" transform="translate(2228.90625 0)"/>
    <use xlink:href="#DejaVuSans-28" transform="translate(2264.111328 0)"/>
    <use xlink:href="#DejaVuSans-74" transform="translate(2303.125 0)"/>
    <use xlink:href="#DejaVuSans-29" transform="translate(2342.333984 0)"/>
    <use xlink:href="#DejaVuSans-20" transform="translate(2381.347656 0)"/>
    <use xlink:href="#DejaVuSans-75" transform="translate(2413.134766 0)"/>
    <use xlink:href="#DejaVuSans-6e" transform="translate(2476.513672 0)"/>
    <use xlink:href="#DejaVuSans-64" transform="translate(2539.892578 0)"/>
    <use xlink:href="#DejaVuSans-20" transform="translate(2603.369141 0)"/>
    <use xlink:href="#DejaVuSans-d6" transform="translate(2635.15625 0)"/>
    <use xlink:href="#DejaVuSans-6c" transform="translate(2713.867188 0)"/>
    <use xlink:href="#DejaVuSans-2d" transform="translate(2741.650391 0)"/>
    <use xlink:href="#DejaVuSans-4b" transform="translate(2777.734375 0)"/>
    <use xlink:href="#DejaVuSans-6f" transform="translate(2838.310547 0)"/>
    <use xlink:href="#DejaVuSans-6e" transform="translate(2899.492188 0)"/>
    <use xlink:href="#DejaVuSans-64" transform="translate(2962.871094 0)"/>
    <use xlink:href="#DejaVuSans-69" transform="translate(3026.347656 0)"/>
    <use xlink:href="#DejaVuSans-74" transform="translate(3054.130859 0)"/>
    <use xlink:href="#DejaVuSans-69" transform="translate(3093.339844 0)"/>
    <use xlink:href="#DejaVuSans-6f" transform="translate(3121.123047 0)"/>
    <use xlink:href="#DejaVuSans-6e" transform="translate(3182.304688 0)"/>
    <use xlink:href="#DejaVuSans-73" transform="translate(3245.683594 0)"/>
    <use xlink:href="#DejaVuSans-62" transform="translate(3297.783203 0)"/>
    <use xlink:href="#DejaVuSans-65" transform="translate(3361.259766 0)"/>
    <use xlink:href="#DejaVuSans-77" transform="translate(3422.783203 0)"/>
    <use xlink:href="#DejaVuSans-65" transform="translate(3504.570312 0)"/>
    <use xlink:href="#DejaVuSans-72" transform="translate(3566.09375 0)"/>
    <use xlink:href="#DejaVuSans-74" transform="translate(3607.207031 0)"/>
    <use xlink:href="#DejaVuSans-75" transform="translate(3646.416016 0)"/>
    <use xlink:href="#DejaVuSans-6e" transform="translate(3709.794922 0)"/>
    <use xlink:href="#DejaVuSans-67" transform="translate(3773.173828 0)"/>
   </g>
  </g>
 </g>
 <defs>
  <clipPath id="p2465df485e">
   <rect x="53.60625" y="43.2" width="329.727273" height="277.2"/>
  </clipPath>
  <clipPath id="p11a73f5501">
   <rect x="449.278977" y="43.2" width="329.727273" height="277.2"/>
  </clipPath>
 </defs>
</svg>
